<svg id="b" xmlns="http://www.w3.org/2000/svg" width="368.631" height="303.172" viewBox="0 0 368.631 303.172" style="color: initial !important;"><defs><style>.g{fill:#ffffff;}.h{fill:#211715;}.i{fill:#79c6e0;}.j{fill:#bce2ef;}.k{fill:#645d5c;}</style></defs><g id="c"><g id="d"><path class="g" d="M366.478,109.165c.027-3.502.051-6.532.074-8.988.009-.96-.87-1.68-1.81-1.483-41.682,8.75-125.54,25.451-153.174,31.064-.701.142-1.203.749-1.203,1.463,0,33.79,1.11,95.059,1.141,132.764,0,.846.688,1.518,1.533,1.495,45.55-1.224,130.811-5.375,151.238-6.424.799-.041,1.418-.692,1.418-1.491.011-21.225.501-111.301.783-148.4Z"/><path class="j" d="M354.676,120.187c.02-2.554.038-4.798.055-6.672.009-1.014-.921-1.771-1.914-1.563-36.129,7.579-108.745,22.035-130.824,26.53-.74.151-1.265.793-1.264,1.548.012,28.717.937,80.06.969,111.889,0,.892.729,1.601,1.622,1.578,38.178-.996,111.158-4.543,129.186-5.467.844-.043,1.503-.737,1.503-1.582.013-18.666.431-95.301.668-126.262Z"/><path class="g" d="M288.181,130.34c-.027-2.228-.042-3.695-.042-4.228,0,0,0-.347,0-.948-3.305.667-6.594,1.33-9.843,1.986v.762c0,5.533,1.725,115.408,1.725,119.972v3.529c3.294-.14,6.583-.283,9.844-.427-.001-.618-.001-.976-.001-.976,0-4.274-1.419-97.985-1.683-119.67Z"/><path class="h" d="M279.589,180.102c-2.603.518-4.893.968-6.051,1.213-.095.027-.15.109-.15.204,0,3.584.109,10.003.109,13.983,0,.109.095.191.204.191,1.663-.041,3.87-.123,6.119-.218"/><path class="h" d="M279.272,193.501c-.996.038-1.992.076-2.987.11-.41.014-.82.028-1.23.041-.213.007-.426.013-.639.019-.137.004-.693-.103-.324.038l1.195.919-.059-.136.273,1.009c-.001-2.38-.029-4.76-.055-7.14-.013-1.216-.027-2.433-.037-3.649-.005-.567-.01-1.134-.013-1.7-.001-.258-.003-.517-.004-.775,0-.161.112-.829-.035-.314l-.919,1.195c-.367.257-.121.073.081.032.177-.036.353-.072.53-.107.427-.086.855-.172,1.283-.258,1.08-.216,2.161-.43,3.241-.644,1.06-.209,1.668-1.474,1.397-2.46-.304-1.106-1.397-1.607-2.46-1.397-1.376.272-2.752.545-4.127.821-1.435.289-2.894.622-2.991,2.417-.116,2.143.028,4.331.051,6.476.025,2.306.053,4.613.058,6.919.002.952.145,1.918,1.05,2.448.66.386,1.388.321,2.116.299,1.535-.046,3.07-.103,4.605-.163,1.08-.042,2-.889,2-2,0-1.051-.916-2.042-2-2h0Z"/><path class="h" d="M356.676,120.187c.012-1.537.024-3.073.037-4.61.011-1.312.219-2.81-.527-3.974-1.544-2.41-4.239-1.508-6.518-1.032-3.849.804-7.7,1.601-11.551,2.394-9.009,1.856-18.022,3.693-27.036,5.522-18.824,3.82-37.654,7.606-56.485,11.39-7.524,1.512-15.048,3.023-22.572,4.539-2.777.56-5.555,1.12-8.332,1.683-1.645.334-3.432.48-4.426,2.042-.657,1.033-.538,2.278-.536,3.443.002,1.078.004,2.155.008,3.233.07,20.694.374,41.387.607,62.079.119,10.591.231,21.181.3,31.772.015,2.389.028,4.778.038,7.168.004,1.084.008,2.169.011,3.253.003,1.193-.16,2.517.11,3.686.665,2.884,3.594,2.721,5.908,2.657,1.965-.055,3.93-.113,5.895-.174,18.914-.587,37.822-1.379,56.726-2.207,17.09-.748,34.179-1.543,51.265-2.379,2.824-.138,5.648-.277,8.471-.419,2.688-.135,7.032.405,7.839-2.966.257-1.076.103-2.342.105-3.443.002-1.171.005-2.343.009-3.514.008-2.935.019-5.87.03-8.805.065-16.858.153-33.716.246-50.574.094-17.157.194-34.315.313-51.472.021-3.098.044-6.196.067-9.294.02-2.575-3.98-2.577-4,0-.117,15.278-.208,30.556-.296,45.834-.101,17.496-.195,34.991-.275,52.487-.03,6.611-.058,13.222-.079,19.834-.007,2.292-.014,4.584-.017,6.877,0,.148-.097,1.164-.001,1.23-.544-.378.876-.247.12-.399-.229-.046-.564.029-.8.041-1.03.052-2.059.104-3.089.156-14.581.731-29.164,1.42-43.747,2.084-18.904.861-37.81,1.68-56.721,2.376-4.305.158-8.611.31-12.917.45-1.942.063-3.884.124-5.826.182-.925.027-1.849.054-2.774.08-.37.01-2.782-.16-2.934.08.016-.025.62.31.378.422.047-.022,0-.684,0-.777,0-.525-.002-1.05-.003-1.575-.003-1.134-.006-2.267-.01-3.401-.009-2.324-.021-4.648-.036-6.972-.031-5-.073-10-.121-15-.2-21.026-.498-42.051-.683-63.077-.04-4.565-.074-9.13-.095-13.695-.009-2.041-.016-4.082-.019-6.123,0-.236,0-.472,0-.709,0-.278.161-.588-.065-.41-.386.304.137.16.314.138.594-.076,1.191-.242,1.778-.361,6.079-1.233,12.159-2.455,18.24-3.678,17.485-3.516,34.972-7.025,52.454-10.556s34.869-7.05,52.283-10.671c.872-.181,1.743-.363,2.615-.545.782-.163,1.782-.207,2.511-.525-.44.192.281-.056.285-.066l-.295-.126c-.125-.394-.165-.367-.121.079-.114.592-.011,1.303-.016,1.906-.012,1.47-.024,2.94-.035,4.411-.02,2.575,3.98,2.577,4,0Z"/><path class="h" d="M368.478,109.165c.013-1.764.027-3.529.042-5.293.012-1.5.325-3.384-.156-4.824-.515-1.54-2.028-2.475-3.622-2.354-1.173.089-2.368.457-3.519.697-4.489.938-8.979,1.868-13.471,2.794-10.469,2.158-20.943,4.293-31.419,6.42-22.136,4.494-44.28,8.947-66.425,13.397-9.018,1.812-18.036,3.623-27.053,5.44-3.323.67-6.646,1.34-9.969,2.013-.705.143-1.457.23-2.138.464-1.598.549-2.344,1.968-2.384,3.58-.061,2.423.006,4.856.016,7.279.094,24.132.445,48.262.715,72.392.14,12.441.271,24.882.349,37.323.017,2.72.032,5.44.042,8.16.005,1.297.009,2.594.012,3.89.003,1.371-.202,2.94.108,4.283.733,3.165,4.244,2.635,6.691,2.565,2.392-.069,4.784-.142,7.176-.218,22.142-.705,44.278-1.634,66.409-2.606,19.945-.876,39.888-1.805,59.829-2.783,3.226-.158,6.452-.318,9.678-.48,1.25-.063,2.501-.126,3.751-.19.653-.033,1.366-.009,1.996-.183,1.682-.465,2.501-1.962,2.557-3.605.201-5.926.028-11.89.051-17.82.076-19.665.179-39.329.287-58.993.11-20.103.228-40.205.366-60.308.025-3.68.052-7.36.079-11.041.02-2.575-3.98-2.577-4,0-.137,18.023-.244,36.047-.348,54.071-.118,20.477-.228,40.955-.321,61.432-.035,7.755-.068,15.51-.093,23.266-.008,2.661-.016,5.322-.019,7.983,0,.376-.141,1.061-.001,1.409v.12c-.024.317.102.193.38-.372-.007-.034.053.044-.163,0-.266-.053-.631.032-.903.046-1.206.061-2.412.122-3.618.183-16.972.852-33.946,1.655-50.922,2.429-22.12,1.009-44.244,1.97-66.372,2.792-5.105.19-10.21.371-15.315.54-2.367.078-4.733.153-7.1.225-1.128.034-2.255.067-3.383.1-.549.016-1.097.031-1.646.046-.173.005-1.507-.091-1.614.044.432-.542.267,1.27.467.197.052-.283,0-.642-.001-.93,0-.629-.002-1.258-.003-1.887-.003-1.293-.007-2.586-.012-3.879-.01-2.713-.024-5.427-.041-8.14-.036-5.837-.085-11.674-.14-17.511-.233-24.665-.582-49.328-.801-73.993-.048-5.362-.088-10.725-.114-16.087-.012-2.405-.02-4.81-.024-7.215,0-.568-.002-1.135-.002-1.703,0-.257.049-.584,0-.835-.147-.752.14.202-.208.137.34.064,1.406-.245,1.969-.359,7.307-1.481,14.617-2.949,21.927-4.419,20.777-4.177,41.555-8.347,62.328-12.544,20.36-4.113,40.718-8.235,61.053-12.469,1.036-.216,2.071-.432,3.107-.648.502-.105,1.003-.21,1.505-.315.221-.046.535-.061.74-.155.533-.246.159.114.089-.138l-.178-.074c-.139-.449-.188-.448-.147.003-.068.315-.007.735-.009,1.057-.007.766-.013,1.533-.019,2.299-.015,1.764-.028,3.529-.042,5.293-.02,2.575,3.98,2.577,4,0Z"/><path class="h" d="M276.296,127.911c.002,4.545.108,9.093.172,13.637.133,9.387.273,18.774.413,28.161.165,11.055.331,22.111.497,33.166.145,9.658.29,19.316.43,28.974.075,5.173.17,10.346.21,15.519.001.172.003.343.003.515.001,2.574,4.001,2.578,4,0-.002-4.393-.109-8.788-.172-13.18-.134-9.309-.273-18.618-.413-27.926-.165-11.051-.332-22.102-.497-33.153-.145-9.727-.291-19.454-.43-29.181-.076-5.316-.172-10.632-.21-15.949-.001-.194-.003-.389-.003-.583-.001-2.574-4.001-2.578-4,0h0Z"/><path class="h" d="M286.139,126.112c.002,4.688.107,9.378.172,14.065.133,9.683.272,19.366.412,29.049.165,11.452.332,22.903.499,34.355.145,9.995.29,19.989.431,29.984.075,5.304.168,10.609.209,15.914.001.177.003.354.003.531.001,2.574,4.001,2.578,4,0-.002-4.531-.109-9.063-.172-13.593-.134-9.602-.273-19.204-.412-28.806-.166-11.447-.333-22.894-.499-34.341-.146-10.066-.291-20.133-.431-30.199-.076-5.452-.17-10.904-.209-16.356-.001-.201-.003-.401-.003-.602-.001-2.574-4.001-2.578-4,0h0Z"/><path class="g" d="M319.238,238.955c8.05-8.901,16.099-17.802,24.149-26.703,1.723-1.905-1.097-4.743-2.828-2.828-8.05,8.901-16.099,17.802-24.149,26.703-1.723,1.905,1.097,4.743,2.828,2.828h0Z"/><path class="g" d="M334.957,238.955c3.506-3.876,7.012-7.753,10.517-11.629.702-.776.823-2.073,0-2.828-.765-.703-2.079-.829-2.828,0-3.506,3.876-7.012,7.753-10.517,11.629-.702.776-.823,2.073,0,2.828.765.703,2.079.829,2.828,0h0Z"/></g><g id="e"><path class="g" d="M172.882,30.563c-1.979,1.825-3.186,4.426-3.201,7.257-.025,4.844-.044,10.699-.057,16.321-.027,11.905,6.197,22.953,16.39,29.103,1.204.727,2.289,1.388,3.18,1.945,23.16-5.955,76.035-18.426,111.935-27.639,0-12.275-.133-27.162-.161-39.723-.006-2.744-1.443-5.281-3.795-6.696-3.949-2.375-8.978-5.335-12.695-7.564-2.412-1.447-5.278-1.918-8.023-1.307-22.58,5.022-76.234,19.774-99.415,26.013-1.592.428-3.005,1.228-4.157,2.29Z"/><path class="h" d="M189.726,87.118c12.582-3.234,25.214-6.276,37.836-9.349,16.177-3.938,32.358-7.862,48.52-11.862,8.534-2.112,17.063-4.244,25.578-6.429,2.492-.639,1.436-4.498-1.063-3.857-15.613,4.005-31.267,7.849-46.925,11.673-15.324,3.743-30.657,7.446-45.976,11.211-6.351,1.561-12.7,3.128-19.035,4.756-2.491.64-1.435,4.499,1.063,3.857h0Z"/><path class="h" d="M190.204,83.463c-3.529-2.197-6.941-4.261-9.83-7.299-2.646-2.783-4.798-6.065-6.283-9.609-1.495-3.567-2.331-7.425-2.45-11.288-.153-4.972.006-9.972.029-14.946.008-1.858-.127-3.739.602-5.494.643-1.548,1.802-2.888,3.237-3.747,2.272-1.361,5.337-1.76,7.879-2.447,6.12-1.655,12.238-3.316,18.358-4.971,14.556-3.936,29.117-7.854,43.709-11.654,6.54-1.703,13.086-3.385,19.647-5.003,2.731-.673,5.466-1.336,8.205-1.975,3.242-.756,6.45-1.702,9.613-.042,3.943,2.07,7.721,4.566,11.544,6.852,1.666.996,3.321,1.896,4.088,3.797.743,1.841.422,4.084.429,6.025.035,9.708.109,19.415.139,29.123.007,2.256.011,4.511.011,6.767,0,2.574,4,2.578,4,0-.001-10.056-.076-20.111-.125-30.167-.012-2.481-.023-4.961-.03-7.442-.007-2.341-.037-4.514-1.125-6.651-1.04-2.042-2.755-3.341-4.674-4.491-2.051-1.229-4.107-2.448-6.163-3.669-4.013-2.383-7.983-5.423-12.899-5.107-2.919.188-5.895,1.147-8.733,1.825-6.511,1.556-13.001,3.203-19.484,4.874-15.208,3.92-30.376,7.993-45.538,12.088-6.673,1.802-13.344,3.612-20.016,5.418-2.665.721-5.353,1.386-8.002,2.165-3.964,1.165-7.143,4.327-8.235,8.328-.591,2.165-.43,4.464-.44,6.684-.011,2.596-.02,5.193-.027,7.789-.013,4.577-.074,9.083,1.017,13.563,2.013,8.261,7.01,15.56,13.862,20.56,1.81,1.321,3.77,2.418,5.67,3.601,2.192,1.364,4.202-2.095,2.019-3.454h0Z"/><path class="h" d="M183.231,70.366c10.464-2.69,20.94-5.336,31.422-7.958,13.583-3.398,27.176-6.755,40.796-10,6.584-1.568,13.174-3.113,19.782-4.576,2.512-.556,1.449-4.413-1.063-3.857-12.509,2.769-24.962,5.791-37.405,8.837-13.059,3.197-26.102,6.456-39.135,9.755-5.156,1.305-10.31,2.616-15.46,3.941-2.491.641-1.435,4.5,1.063,3.857h0Z"/><path class="h" d="M182.105,59.583c2.292-.589,4.584-1.175,6.877-1.76,1.014-.259,1.725-1.446,1.397-2.46-.339-1.047-1.374-1.674-2.46-1.397-2.293.585-4.585,1.171-6.877,1.76-1.013.261-1.726,1.445-1.397,2.46.338,1.046,1.374,1.676,2.46,1.397h0Z"/><path class="h" d="M278.817,3.413c-.085,8.434.22,16.872.242,25.306.011,4.156.279,8.162,1.828,12.07,1.458,3.68,3.642,7.045,6.518,9.779,3.558,3.383,8.09,5.565,12.227,8.141,2.191,1.365,4.202-2.095,2.019-3.454-3.416-2.127-7.233-3.923-10.314-6.526-2.774-2.343-5.009-5.292-6.441-8.635-1.512-3.529-1.828-7.121-1.835-10.913-.008-4.537-.073-9.073-.139-13.609-.06-4.052-.144-8.106-.104-12.159.026-2.575-3.974-2.577-4,0h0Z"/><path class="g" d="M189.835,89.338c-.229-.36-.346-.8-.297-1.272.283-2.751.64-5.578.871-7.505-2.377.578,80.665-19.84,86.995-21.402-.155,1.653-.394,4.807-.741,6.862-.333,1.972-1.794,3.557-3.735,4.04-13.88,3.454-68.034,16.941-80.922,20.148-.883.22-1.732-.18-2.171-.871Z"/><path class="h" d="M191.562,88.328c-.203-.386.076-1.219.123-1.64.082-.75.169-1.5.257-2.25.152-1.293.312-2.585.467-3.878.162-1.349-1.402-2.203-2.532-1.929-.017.004-.033.008-.05.012l1.063,3.857c2.614-.836,5.392-1.328,8.056-1.984,6.542-1.61,13.084-3.219,19.626-4.828,15.387-3.785,30.775-7.569,46.162-11.354,4.4-1.082,8.801-2.163,13.2-3.249l-2.532-1.929c-.184,2.003-.296,4.028-.618,6.014-.286,1.765-1.195,2.662-2.903,3.087-2.014.501-4.028,1.002-6.041,1.504-5.941,1.479-11.882,2.958-17.824,4.438-13.87,3.454-27.74,6.908-41.61,10.361-2.961.737-5.922,1.474-8.883,2.212-1.184.295-2.367.589-3.551.884-.48.119-.96.239-1.44.358-.212.053-.434.093-.642.16-.25.081-.451-.007-.33.152-.655-.857-1.722-1.311-2.736-.718-.843.493-1.378,1.873-.718,2.736,1.415,1.852,3.133,2.112,5.29,1.575.949-.236,1.898-.472,2.847-.709,2.543-.633,5.085-1.266,7.628-1.899,6.83-1.701,13.661-3.402,20.491-5.102,13.943-3.472,27.885-6.944,41.828-10.415,2.378-.592,4.776-1.133,7.141-1.777,2.509-.684,4.551-2.556,5.187-5.124.616-2.489.648-5.191.883-7.737.124-1.343-1.373-2.215-2.532-1.929-10.73,2.648-21.464,5.282-32.197,7.921-14.964,3.68-29.927,7.36-44.891,11.042-3.291.81-6.726,1.418-9.957,2.451-2.455.785-1.454,4.413,1.063,3.857.017-.004.033-.008.05-.012l-2.532-1.929c-.191,1.588-.388,3.176-.571,4.765-.201,1.745-.585,3.398.27,5.022,1.2,2.279,4.653.259,3.454-2.019Z"/><path class="i" d="M178.728,94.656c-6.694-2.977-13.362,1.354-16.693,7.172-3.447,6.02-4.061,13.635-8.962,18.805-2.485,2.622-5.652,4.379-9.166,5.182-2.509.573-1.447,4.43,1.063,3.857,3.961-.904,7.647-2.931,10.529-5.798,3.104-3.087,4.881-7.022,6.342-11.086,1.378-3.832,2.542-7.96,5.143-11.187,2.192-2.719,6.191-5.064,9.725-3.492.986.439,2.149.287,2.736-.718.499-.852.274-2.295-.718-2.736h0Z"/><path class="i" d="M184.623,103.535c-5.409,2.919-6.086,9.531-6.078,15.023.004,3.133.128,6.52-1.441,9.348-1.311,2.364-3.525,4.008-6.094,4.779-2.459.738-1.412,4.6,1.063,3.857,2.789-.837,5.344-2.417,7.171-4.707,2.133-2.674,3.001-5.846,3.223-9.221.324-4.917-1.154-12.751,4.175-15.626,2.266-1.223.249-4.678-2.019-3.454h0Z"/></g><g id="f"><path class="g" d="M163.174,203.769c-.184-.428-.569-.771-1.088-.866-3.396-.621-9.694-1.746-12.222-2.177-.666-.114-1.326.197-1.664.782-1.03,1.781-3.033,5.518-4.029,7.408l-3.502,6.958c2.059-.212,4.416,2.804,4.204,6.054,2.806-2.148,5.837-4.016,9.019-5.58.613-.303,1.169-.552,1.707-.722,2.613-3.679,5.701-7.993,7.422-10.419.319-.45.345-.99.153-1.437Z"/><path class="g" d="M68.106,300.055c-22.179,1.118-36.829-16.859-40.765-38.715-2.314-12.846-2.326-21.137-1.58-25.861,1.895-12.003,15.513-12.697,15.513-12.697,5.654-.646,13.774.271,18.03,1.968,2.731,1.089,5.445,2.377,7.593,4.385,2.185,2.042,3.732,4.942,3.514,7.931,3.394,1.659,6.166,4.528,8.799,7.308,5.081,5.365,10.321,9.745,15.894,14.712l-7.856,20.821c-1.528,4.048-5.349,14.093-7.449,19.859-2.775-1.676-5.441-3.539-8.002-5.556.261,2.824-.224,5.338-1.665,5.639-.443.093-1.134.16-2.025.205Z"/><path class="h" d="M153.883,221.523c3.496-5.041,7.155-9.967,10.652-15.007,1.185-1.708.916-4.088-.992-5.182-.661-.379-1.435-.453-2.17-.586-.833-.151-1.666-.301-2.499-.451-1.719-.309-3.439-.616-5.159-.92-1.387-.245-3.003-.755-4.414-.648-2.359.179-3.259,2.503-4.244,4.305-.884,1.617-1.755,3.242-2.614,4.872-1.2,2.275,2.252,4.299,3.454,2.019.638-1.21,1.283-2.415,1.933-3.618.356-.659.714-1.317,1.076-1.973.163-.296.326-.591.491-.885.107-.191.475-.632.48-.847.007-.258-.359.294-.387.081.004.033.668.115.725.125.642.111,1.283.224,1.924.337,1.515.267,3.029.537,4.543.808,1.405.252,2.811.505,4.215.76.167.03.607.151.625.076-.022.089-.231-.499-.225-.496-.083-.041-.116.062-.274.284-.177.249-.354.497-.53.746-1.645,2.311-3.295,4.619-4.94,6.929-1.717,2.411-3.438,4.82-5.125,7.253-.616.888-.164,2.221.718,2.736.994.582,2.119.173,2.736-.718h0Z"/><path class="h" d="M165.875,194.805c.203-.059.408-.103.617-.132l-.532.071c.338-.04.672-.038,1.009.008l-.532-.071c.328.05.643.138.95.264l-.478-.202c.322.139.622.315.901.529l-.405-.313c.259.205.49.435.696.693l-.313-.405c.218.282.396.586.537.914l-.202-.478c.13.319.218.646.267.987l-.071-.532c.017.141.028.281.033.423.018.523.211,1.039.586,1.414.347.347.916.608,1.414.586,1.054-.047,2.038-.88,2-2-.033-.982-.276-1.916-.746-2.78-.444-.817-1.089-1.457-1.829-2.003-1.394-1.03-3.315-1.311-4.966-.83-.488.142-.937.478-1.195.919-.251.429-.357,1.061-.202,1.541.33,1.019,1.384,1.71,2.46,1.397h0Z"/><path class="h" d="M168.033,187.599c.254-.066.521-.092.773-.161-.6.164-.165.024.026.012.112-.007.224-.012.336-.014.262-.005.524.005.784.029.201.018.416.134-.085-.017.14.042.299.051.443.082.24.052.477.116.711.191.127.041.252.084.376.131.332.126.099.102-.055-.027.185.155.504.243.718.367.237.136.459.29.685.442.333.225-.316-.269-.031-.027.121.103.243.203.359.31.192.175.375.36.55.553.095.105.185.215.277.322.267.31-.228-.331-.014-.016.164.241.329.48.474.733.023.04.422.79.406.797-.115-.279-.132-.318-.05-.117.024.061.048.123.07.185.054.146.104.293.15.441.095.305.174.615.237.928.028.138.05.277.074.415.033.223.028.188-.014-.106.011.096.02.193.029.289.095,1.039.852,2.051,2,2,1.002-.045,2.102-.884,2-2-.299-3.258-1.748-6.14-4.406-8.092-2.238-1.644-5.206-2.208-7.889-1.508-1.012.264-1.726,1.442-1.397,2.46.337,1.043,1.375,1.68,2.46,1.397h0Z"/><path class="g" d="M99.024,300.54c2.961.855,5.492.92,8.426-.186,1.726-.65,3.319-1.632,4.764-2.778,9.985-7.92,22.564-23.421,29.409-37.884,1.454-3.15,4.676-6.395,8.497-7.814,3.495-1.304,6.638-1.932,9.182-3.049,1.236-.528,2.331-1.181,3.251-2.071,1.164-1.114,2.039-2.62,2.118-4.234.045-.878-.07-3.385-.318-4.227-1.433-4.906.24-9.095-2.844-13.259.424-1.233.576-2.575.347-4.579-.287-2.525-.796-3.924-2.811-4.703-.662-.257-1.249-.376-1.811-.382-1.097-.032-2.102.358-3.343.972-3.178,1.561-6.206,3.427-9.021,5.571.215-3.318-2.253-6.392-4.343-6.035-1.724.447-2.879,1.434-3.661,3.488-3.471,9.125-4.442,10.461-6.083,21.202-.142,1.207-.975,3.094-1.616,4.316-2.805,4.192-17.915,23.53-20.941,25.06-1.051.532-2.382,1.133-3.554,1.01-1.591-.168-3.39-1.038-4.684-1.979-.888-.646-4.715-4.12-5.25-4.684,0,0-.432-.456-1.146-1.21-2.282,6.047-6.347,16.822-6.347,16.822-.95,2.516-2.787,7.351-4.545,12.035.921.648,1.457,1.025,1.457,1.025,4.361,3.069,10.764,6.319,14.498,7.463.123.038.245.074.367.109Z"/><path class="g" d="M46.774,172.002c.283-.56.609-1.136,1.001-1.754,3.761-5.442,9.866-11.901,17.858-14.777,0,0,6.13-2.366,10.153-.527.139.516.273,1.054.402,1.621.644,2.145,1.133,4.495,1.44,7.065,1.054,5.341,2.501,12.757,7.855,14.597,1.059.364,2.045.971,2.658,1.908,1.621,2.478-.477,4.06-1.65,5.837-.774,1.173-1.144,2.452-1.285,3.796.199,1.764.37,4.881.198,7.912-.114,2.003-.377,3.968-.881,5.48-1.076,3.228-2.828,5.042-4.776,6.146-3.817,2.163-9.288,3.624-13.053,3.251-.905-.09-1.73.517-1.931,1.403-.085.375-.996,9.546-.952,11.361.022.913.044,1.832.245,2.723.653,2.9-3.407,7.732-17.555,7.732-9.037,0-17.775-6.001-16.854-8.386.369-.957.607-4.803.673-7.424.028-1.095-.13-2.245-.398-3.252-.396-1.489-1.35-2.878-2.581-4.174,4.95-3.98,10.302-12.852,11.187-18.025,0,0,.03-.178.082-.488-2.473-1.87-4.139-4.516-4.91-8.04-.481-2.196-.122-5.022,1.427-6.603,1.04-1.063,2.555-1.526,4.214-1.394,1.866.149,3.136,1.062,4.475,2.254,1.328-3.757,1.752-5.857,2.959-8.243Z"/><path class="k" d="M41.602,132.021c2.612.024,5.184.28,7.677.709,12.937,2.225,19.995,9.944,21.274,11.71,2.489,3.434,4.053,6.13,5.233,10.511-4.02-1.847-10.154.52-10.154.52-7.991,2.876-14.097,9.335-17.858,14.777-2.057,3.246-2.319,5.358-3.959,9.997-1.339-1.192-2.609-2.105-4.475-2.254-1.659-.133-3.174.331-4.214,1.394-1.549,1.582-1.908,4.408-1.427,6.603.772,3.524,2.437,6.17,4.91,8.04-.052.31-.082.488-.082.488-.885,5.173-6.237,14.046-11.189,18.027-2.546-2.683-6.287-4.964-8.764-6.9-5.663-4.424-14.335-13.45-16.304-27.686-1.088-7.867.565-16.275,3.385-22.397,7.256-15.751,17.697-19.998,24.245-21.945,3.904-1.161,7.846-1.629,11.702-1.593Z"/><path class="h" d="M73.755,155.55c2.129,6.18,1.984,12.965,5.003,18.87,1.344,2.629,3.317,4.563,6.048,5.682.947.388,2.319,1.14,1.755,2.343-.651,1.387-1.867,2.41-2.49,3.84-1.452,3.332-.493,7.141-.633,10.676-.133,3.354-.617,7.047-3.164,9.491-2.144,2.057-5.55,3.054-8.376,3.686-1.498.335-3.023.532-4.561.464-1.738-.077-3.334.365-4.197,2.03-.406.783-.427,1.675-.518,2.533-.12,1.129-.228,2.259-.333,3.389-.207,2.236-.509,4.517-.478,6.767.035,2.572,4.035,2.579,4,0-.026-1.931.219-3.886.391-5.807.1-1.115.205-2.23.317-3.344.042-.42.085-.84.13-1.26.017-.161.076-.992.057-.543-.007.166-.025.21-.068.15,0,.001.157.043.374.067.789.087,1.621.033,2.408-.037,1.718-.152,3.425-.471,5.084-.943,3.063-.871,6.41-2.15,8.712-4.435,2.542-2.523,3.602-5.971,4.012-9.44.245-2.074.285-4.174.223-6.26-.046-1.546-.44-3.245-.026-4.747.42-1.526,1.518-2.553,2.347-3.848.872-1.362,1.234-2.996.677-4.552-.647-1.805-2.106-3.076-3.846-3.792-1.179-.485-2.135-.995-2.994-1.967-1.996-2.259-2.774-5.529-3.418-8.391-.881-3.913-1.264-7.87-2.578-11.684-.833-2.419-4.699-1.38-3.857,1.063h0Z"/><path class="h" d="M78.173,156.294c-1.165-5.132-3.368-10.045-6.837-14.051-2.553-2.947-5.876-5.35-9.288-7.198-11.044-5.981-25.021-6.659-36.65-1.991-10.229,4.106-17.642,12.491-21.929,22.537-5.394,12.64-4.49,27.303,2.661,39.064,2.77,4.556,6.365,8.651,10.518,11.995,2.397,1.931,5.033,3.549,7.385,5.537,1.159.979,2.331,2.044,3.155,3.33.868,1.354,1.14,2.853,1.133,4.449-.012,2.574,3.988,2.578,4,0,.014-3.13-.954-5.804-2.966-8.175-1.866-2.198-4.289-3.91-6.619-5.577-3.502-2.505-6.72-5.196-9.51-8.498-7.956-9.417-11.029-22.012-8.215-34.026,2.428-10.367,8.99-20.358,18.535-25.412,9.675-5.122,22.142-5.603,32.537-1.613,4.355,1.672,8.498,4.271,11.734,7.649.391.409.764.832,1.12,1.272-.549-.677.418.6.537.769.467.667.922,1.344,1.35,2.037,1.724,2.789,2.768,5.773,3.492,8.963.57,2.509,4.427,1.447,3.857-1.063h0Z"/><path class="h" d="M36.599,193.984c-.569,3.169-2.051,5.985-3.714,8.73-1.806,2.98-3.935,5.826-6.589,8.107-.82.704-.723,2.105,0,2.828.813.813,2.007.706,2.828,0,2.893-2.487,5.246-5.667,7.214-8.916,1.789-2.952,3.502-6.257,4.117-9.686.191-1.062-.289-2.156-1.397-2.46-.968-.266-2.268.328-2.46,1.397h0Z"/><path class="h" d="M66.488,153.061c-6.31,1.817-11.739,5.78-16.087,10.629-1.865,2.08-3.753,4.333-5.09,6.796-1.497,2.758-2.257,5.836-3.271,8.786-.839,2.44,3.024,3.487,3.857,1.063.9-2.617,1.54-5.385,2.868-7.831,1.182-2.177,2.816-4.149,4.465-5.987,3.898-4.347,8.65-7.967,14.321-9.601,2.469-.711,1.419-4.572-1.063-3.857h0Z"/><path class="h" d="M44,177.823c-2.271-1.754-5.337-2.419-8.052-1.31-2.817,1.15-4.153,3.864-4.41,6.768-.411,4.641,2.226,9.532,5.839,12.301,2.132,1.634,4.664,2.646,7.268,3.248,2.505.579,3.574-3.277,1.063-3.857-4.245-.981-7.903-3.194-9.426-7.276-.74-1.986-1.33-4.578-.06-6.491.572-.862,1.49-1.225,2.504-1.236,1.287-.015,2.259.539,3.255,1.308.856.661,2.241.13,2.736-.718.604-1.033.14-2.074-.718-2.736h0Z"/><path class="h" d="M72.745,155.222c1.259.859,2.623,1.523,4.045,2.068.457.175,1.135.036,1.541-.202.415-.243.811-.718.919-1.195.117-.512.091-1.087-.202-1.541l-.313-.405c-.25-.248-.544-.419-.883-.514-.182-.07-.364-.142-.544-.218l.478.202c-1.06-.448-2.072-1-3.023-1.648-.411-.28-1.075-.33-1.541-.202s-.967.486-1.195.919c-.245.464-.368,1.026-.202,1.541s.47.889.919,1.195h0Z"/><path class="h" d="M73.982,172.579c.804,1.447,1.318,5.076-1.4,6.002-3.689.801-4.863-3.463-4.082-5.765.639-1.885,3.467-3.242,5.482-.237Z"/><path class="h" d="M41.273,224.783c5.244-.566,10.9-.166,15.961,1.366,4.878,1.477,11.347,4.86,11.185,10.767-.071,2.575,3.929,2.573,4,0,.206-7.506-6.743-11.954-12.979-14.245-2.756-1.012-5.723-1.463-8.628-1.784-3.161-.349-6.373-.447-9.539-.105-1.074.116-2,.836-2,2,0,.991.919,2.117,2,2h0Z"/><path class="h" d="M146.667,219.605c-.948-3.886-4.539-7.209-8.526-4.901-1.759,1.018-2.645,2.705-3.353,4.533-.66,1.704-1.323,3.408-1.978,5.114-1.034,2.691-1.959,5.402-2.598,8.216-.864,3.798-.967,7.807-2.769,11.313-1.175,2.285,2.275,4.311,3.454,2.019.776-1.51,1.529-3.111,1.818-4.794.3-1.75.553-3.506.89-5.249.496-2.568,1.138-5.096,1.999-7.567.959-2.749,2.008-5.496,3.118-8.187.317-.769,1.047-2.209,2.065-2.246,1.104-.04,1.815,1.958,2.024,2.812.61,2.5,4.468,1.441,3.857-1.063h0Z"/><path class="h" d="M143.351,260.702c1.364-2.847,3.677-5.154,6.51-6.547,3.192-1.57,6.844-2.058,10.116-3.454,3.193-1.363,6.145-3.878,6.623-7.508.371-2.814-.581-5.402-.836-8.154-.36-3.881-.162-7.67-2.528-11.008l.202,1.541c1.431-4.41.447-10.911-4.803-12.024-2.968-.629-5.642.937-8.152,2.326-2.786,1.541-5.4,3.341-7.9,5.31-.849.669-.7,2.128,0,2.828.839.839,1.977.671,2.828,0,2.167-1.708,4.486-3.229,6.893-4.575,1.79-1,4.189-2.781,6.292-1.7,1.439.74,1.384,3.192,1.364,4.588-.013.933-.451,1.81-.451,2.715,0,.771.498,1.281.862,1.902.35.597.596,1.193.779,1.858.593,2.153.415,4.433.653,6.635.228,2.107.813,3.942.868,6.034.133,5.042-5.767,6.161-9.575,7.316-2.94.892-5.737,1.883-8.181,3.793-2.087,1.631-3.872,3.707-5.02,6.104-1.107,2.31,2.341,4.342,3.454,2.019h0Z"/><path class="h" d="M84.277,191.203c-.39.214-.789.406-1.198.582l.478-.202c-.889.373-1.81.656-2.766.79l.532-.071c-.605.079-1.215.099-1.821.023l.532.071c-.278-.038-.553-.094-.817-.188-.987-.352-2.233.397-2.46,1.397-.256,1.122.34,2.083,1.397,2.46.93.332,2.022.369,2.997.257,1.823-.208,3.535-.782,5.146-1.667.918-.504,1.292-1.845.718-2.736-.6-.93-1.754-1.257-2.736-.718h0Z"/><path class="h" d="M69.427,294.862c2.982,2.405,6.087,4.64,9.362,6.631,1.179.717,2.508-.017,2.938-1.195,4.32-11.849,8.868-23.619,13.32-35.42.662-1.753,1.323-3.507,1.985-5.26.235-.622-.026-1.511-.514-1.946-4.753-4.231-9.617-8.348-14.104-12.866-4.066-4.094-7.843-8.618-13.51-10.483-2.451-.806-3.501,3.055-1.063,3.857,5.184,1.706,8.667,6.408,12.4,10.108,4.303,4.265,8.926,8.186,13.449,12.212l-.514-1.946c-3.305,8.759-6.608,17.519-9.92,26.276-1.813,4.794-3.629,9.588-5.385,14.404l2.938-1.195c-2.981-1.813-5.836-3.816-8.552-6.006-.84-.677-2.007-.821-2.828,0-.701.701-.845,2.147,0,2.828h0Z"/><path class="h" d="M127.441,243.881c-3.23,4.802-6.967,9.318-10.623,13.796-2.092,2.562-4.21,5.11-6.449,7.544-.769.836-1.549,1.67-2.393,2.43-.143.129-.291.251-.436.378-.341.296.362-.185-.05.031-.745.391-1.553.885-2.42.914-1.341.045-2.672-.839-3.763-1.505-.093-.057-.598-.443-.102-.056-.139-.108-.273-.222-.408-.335-.302-.253-.599-.512-.896-.771-1.268-1.11-2.57-2.216-3.746-3.425-1.798-1.849-4.625.981-2.828,2.828,2.432,2.501,5.286,5.24,8.551,6.559,3.75,1.514,7.171.01,9.836-2.66,4.962-4.969,9.288-10.668,13.585-16.207,1.909-2.461,3.859-4.917,5.599-7.503,1.441-2.142-2.023-4.146-3.454-2.019h0Z"/><path class="h" d="M83.15,294.695c4.187,2.919,8.817,5.417,13.606,7.196,2.487.924,5.164,1.508,7.822,1.196,2.901-.34,5.619-1.553,7.968-3.267,3.967-2.894,7.505-6.454,10.814-10.065,3.702-4.039,7.135-8.334,10.309-12.799,3.657-5.144,6.965-10.552,9.681-16.254,1.101-2.312-2.346-4.344-3.454-2.019-4.482,9.409-10.507,18.132-17.343,25.98-3.099,3.558-6.393,6.969-9.981,10.038-1.719,1.47-3.525,2.895-5.654,3.725-2.67,1.042-5.3.854-7.988-.005-4.87-1.556-9.585-4.268-13.762-7.18-2.116-1.476-4.118,1.99-2.019,3.454h0Z"/><path class="h" d="M57.251,234.387c-6.111,2.55-10.393,7.601-12.098,13.997-1.733,6.502-.819,13.454,1.663,19.632.402,1.002,1.334,1.706,2.46,1.397.951-.261,1.802-1.452,1.397-2.46-2.119-5.274-3.146-11.101-1.858-16.716,1.2-5.233,4.437-9.88,9.5-11.993.996-.416,1.709-1.324,1.397-2.46-.258-.94-1.457-1.815-2.46-1.397h0Z"/></g></g></svg>