<svg xmlns="http://www.w3.org/2000/svg" width="351.937" height="348.29" viewBox="0 0 351.937 348.29" style="color: initial !important;"><defs><style>.a{fill:#f4b467;}.b{fill:#211715;}.c{fill:#fcc56b;}.d{fill:#ad7b59;}.e{fill:#ef8561;}</style></defs><path class="a" d="M339.637,244.072c-23.355-12.392-60.24-9.881-82.576,6.6-16.876,12.451-27.31,35.1-17.742,56.381,1.312,1.911,1.436,2.819,3.366,4.42,26.26,21.794,58.928,12.754,80.387-11.325,9.27-10.4,23.937-39.194,26.471-49.1a44.962,44.962,0,0,0-7.835-5.817Q340.691,244.631,339.637,244.072Z"/><path class="b" d="M340.849,242a74.424,74.424,0,0,0-29.485-7.9,93.35,93.35,0,0,0-31.809,3.263c-10.063,2.844-19.74,7.5-27.664,14.4a54.678,54.678,0,0,0-17.175,27.221,44.107,44.107,0,0,0-1.118,16.365c.68,5.411,2.144,11.1,5.34,15.6,1.711,2.407,4.381,4.17,6.785,5.828a54.462,54.462,0,0,0,7.054,4.134,51.61,51.61,0,0,0,15.492,4.8c21.662,3.013,42.822-8.133,56.788-24.187,5.693-6.544,10.1-14.306,14.234-21.886a179.241,179.241,0,0,0,11.339-24.111c.46-1.26.89-2.533,1.227-3.833a2.4,2.4,0,0,0-.617-2.335A50.38,50.38,0,0,0,340.849,242c-2.722-1.46-5.149,2.682-2.423,4.144a45.412,45.412,0,0,1,9.419,6.6l-.617-2.335a61.9,61.9,0,0,1-3.04,8.39c-1.669,3.894-3.5,7.72-5.41,11.5a186.158,186.158,0,0,1-13.642,23.324,71.3,71.3,0,0,1-20.242,18.861c-8.285,5.148-17.749,8.57-27.555,8.922a47.977,47.977,0,0,1-28.033-8c-2.1-1.372-4.667-2.912-6.234-4.9a20.543,20.543,0,0,1-3.049-6.229,39.042,39.042,0,0,1-1.831-15.169c.755-10,5.44-19.545,12.059-26.974a60.378,60.378,0,0,1,24.186-16.048c18.293-6.823,39.872-7.645,58.222-.571a54.3,54.3,0,0,1,5.767,2.637C341.157,247.583,343.586,243.441,340.849,242Z"/><path class="b" d="M253.742,301.947A151.108,151.108,0,0,1,301.5,268.023a146.3,146.3,0,0,1,15.367-5.867c2.93-.939,1.677-5.575-1.276-4.628a155.81,155.81,0,0,0-52.843,29.292,152.184,152.184,0,0,0-12.4,11.733c-2.121,2.244,1.267,5.645,3.394,3.394Z"/><path class="b" d="M263.438,261.242c.062,7.194,1.408,14.276,2.241,21.4a2.473,2.473,0,0,0,2.4,2.4,2.415,2.415,0,0,0,2.4-2.4c-.833-7.125-2.179-14.207-2.241-21.4-.027-3.087-4.827-3.1-4.8,0Z"/><path class="b" d="M288.676,276.537a69.733,69.733,0,0,0,21.37,7.142A2.476,2.476,0,0,0,313,282a2.419,2.419,0,0,0-1.677-2.952,65.831,65.831,0,0,1-20.224-6.658c-2.733-1.432-5.162,2.709-2.422,4.145Z"/><path class="b" d="M228.982,326.609a6.932,6.932,0,0,0,.932.579,2.442,2.442,0,0,0,3.284-.861c1.376-2.4,3.038-4.647,4.625-6.913.338-.483.677-.963,1.028-1.436.122-.166.329-.577.512-.68q-.326.42-.088.114l.1-.125q.15-.192.3-.382c1.046-1.316,2.128-2.6,3.2-3.9a2.4,2.4,0,1,0-3.394-3.394A64.54,64.54,0,0,0,227.114,322.3a2.436,2.436,0,0,0,.375,2.909,9.716,9.716,0,0,0,1.007,1.022,2.4,2.4,0,0,0,3.394-3.394,9.716,9.716,0,0,1-1.007-1.022l.375,2.908c.462-.633.811-1.077,1.422-1.8.508-.6,1.031-1.185,1.552-1.772.717-.806,1.4-1.638,2.161-2.4a70.669,70.669,0,0,1,6.481-5.746l-3.394-3.394c-1.971,2.38-3.958,4.745-5.731,7.279-1.61,2.3-3.3,4.574-4.7,7.013l3.284-.861a7.006,7.006,0,0,1-.933-.579,2.4,2.4,0,0,0-3.283.861A2.475,2.475,0,0,0,228.982,326.609Z"/><path class="c" d="M90.654,243.6a29.239,29.239,0,0,0-12.607,16.821,5.175,5.175,0,0,0,1.616,5.628l1.212.975c4.677,3.76,13.31,8.3,18.785,10.682,15.973,6.939,26.319,9.864,36.545,12.094,2.1.457,3.762-1.163,4.8-2.972,3.645-6.381,4.348-15.276,3.274-20.845a32.456,32.456,0,0,0-10.082-17.942c-7.892-7.019-14.776-7.9-20.418-8.88C108.345,238.216,98.176,238.968,90.654,243.6Z"/><path class="d" d="M73.6,293.009a107.892,107.892,0,0,1,4.779-26.08l.538-1.624a4.94,4.94,0,0,0,.746.742l1.212.975c4.677,3.76,13.31,8.3,18.785,10.682,15.973,6.939,26.319,9.864,36.545,12.094a3.253,3.253,0,0,0,1.5-.021l-.12.3c-3.17,7.813-9.339,18.131-17.414,24.523-8,6.334-19.266,11.011-32.034,5.238C73.459,313.2,73.32,296.769,73.594,293.09Z"/><path class="b" d="M126.835,242.173a55.032,55.032,0,0,1,6.1-10.525,4.172,4.172,0,0,1,2.93,1.96c-1.5,1.79-4.1,5.713-7.068,9.394"/><path class="b" d="M128.907,243.384q1.374-2.977,2.995-5.833c.5-.87,1.011-1.729,1.558-2.568.239-.366.484-.728.74-1.083.108-.15.231-.294.332-.449-.406.624-.031.049.1-.106l-1.7.7c-.638-.064-.258-.033-.093.015.439.127.072-.072-.034-.035.2-.068.531.416.718.431-.1-.008-.35-.3-.107-.071.091.087.18.179.273.264.3.278-.026.049-.071-.122a1.867,1.867,0,0,0,.171.29l.375-2.909c-1.15,1.386-2.189,2.866-3.246,4.323-.617.849-1.236,1.7-1.864,2.539-.166.222-.332.444-.5.665q-.158.21-.318.419c-.026.035-.292.381-.135.177s-.112.144-.139.178q-.131.169-.263.337-.3.379-.6.756a2.459,2.459,0,0,0,0,3.394,2.426,2.426,0,0,0,3.394,0c1.5-1.871,2.94-3.8,4.351-5.74.545-.75,1.087-1.5,1.636-2.247.246-.333.5-.662.743-.994.181-.244-.318.4-.136.176.052-.064.1-.129.152-.193q.159-.2.322-.4a2.518,2.518,0,0,0,.375-2.908,6.325,6.325,0,0,0-4.131-3.034,2.651,2.651,0,0,0-2.645.679c-.276.311-.522.656-.773.986-.393.519-.762,1.055-1.116,1.6a66.089,66.089,0,0,0-4.508,8.333,2.456,2.456,0,0,0,.861,3.283,2.428,2.428,0,0,0,3.283-.861Z"/><path class="b" d="M89.442,241.526a31.984,31.984,0,0,0-12.728,15.465c-1.3,3.238-2.066,6.72.27,9.71,1.478,1.892,3.844,3.35,5.813,4.659a108.8,108.8,0,0,0,17.675,9.286c6.493,2.765,13.075,5.331,19.81,7.449q4.062,1.278,8.188,2.339a47.1,47.1,0,0,0,8.1,1.823c3.8.268,6.176-3.222,7.54-6.274a35.4,35.4,0,0,0,2.746-10.268,34.818,34.818,0,0,0-18.379-34.631,44.4,44.4,0,0,0-16.111-4.519,38.749,38.749,0,0,0-18.162,2.618,33.073,33.073,0,0,0-4.763,2.343c-2.639,1.6-.229,5.749,2.423,4.144a33.366,33.366,0,0,1,16.574-4.46,30.475,30.475,0,0,1,6.317.541,48.213,48.213,0,0,1,7.109,1.677c11.3,3.783,20.063,14.769,20.451,26.734a33.305,33.305,0,0,1-.772,8.383c-.6,2.664-1.468,5.972-3.311,8.083a1.85,1.85,0,0,1-2.267.663q-1.769-.393-3.529-.815-3.681-.887-7.321-1.935A164.362,164.362,0,0,1,91.354,270.9a70.345,70.345,0,0,1-8.264-5.181,21.07,21.07,0,0,1-2.019-1.625,3.061,3.061,0,0,1-.6-3.395A27.038,27.038,0,0,1,91.865,245.67C94.479,244.036,92.072,239.882,89.442,241.526Z"/><path class="b" d="M76.065,266.291a103.286,103.286,0,0,0-4.9,27.372A34.192,34.192,0,0,0,74.2,309.136a27.242,27.242,0,0,0,19.834,15.126c9.884,1.941,19.48-1.487,27.272-7.53,8.476-6.574,14.571-16.184,18.594-26.021a2.415,2.415,0,0,0-1.676-2.952,2.459,2.459,0,0,0-2.952,1.676c-6.12,14.966-19.679,32.029-37.66,30.525a23.045,23.045,0,0,1-18.609-11.9,27.6,27.6,0,0,1-2.61-7.928c-.053-.291-.1-.584-.146-.877-.023-.142-.043-.285-.063-.428.067.479.014.109,0,.012-.068-.586-.128-1.171-.17-1.759-.065-.92-.094-1.843-.078-2.765a89.187,89.187,0,0,1,1.413-12.941,92.679,92.679,0,0,1,3.338-13.808c.968-2.941-3.666-4.2-4.628-1.276Z"/><path class="c" d="M11.568,291.226a34.221,34.221,0,0,0,8.785,22.979,6.054,6.054,0,0,0,6.58,1.912l1.722-.591c6.642-2.283,16.527-8,22.3-11.931,16.838-11.483,26.191-19.9,34.78-28.631,1.763-1.793,1.2-4.451.051-6.6-4.042-7.591-12.409-13.838-18.593-16.251a37.99,37.99,0,0,0-24.055-1.216c-11.874,3.433-17.043,9.7-21.534,14.672C17.281,270.353,11.679,280.89,11.568,291.226Z"/><path class="d" d="M49.842,338.946c-10.156-7.519-17.391-14.387-22.837-21.007l-1.272-1.547a5.692,5.692,0,0,0,1.2-.275l1.722-.591c6.642-2.283,16.527-8,22.3-11.931,16.838-11.483,26.191-19.9,34.78-28.631a3.81,3.81,0,0,0,.919-1.5l.218.305c5.756,8.014,12.12,20.56,13.409,32.544,1.277,11.873-1.123,25.945-14.807,34.983-15.735,10.392-32.083.278-35.555-2.29Z"/><path class="b" d="M32.738,254.518c-2.693-4.134-5.656-9.537-6.613-12.607a4.877,4.877,0,0,1,3.768-1.677c.839,2.6,3.1,7.623,4.889,12.86"/><path class="b" d="M34.81,253.306c-1.392-2.143-2.7-4.343-3.9-6.6-.559-1.047-1.1-2.106-1.589-3.185-.111-.243-.217-.487-.325-.73.247.559-.073-.182-.115-.287-.16-.407-.307-.817-.44-1.233l-.617,2.335c.111-.143.235-.262.352-.4.267-.311-.2.072.019-.026.139-.062.267-.171.4-.245s.633-.231.109-.071c.282-.086.561-.171.846-.25.48-.132-.474-.033-.034,0,.125.01.251,0,.376.011l-2.314-1.762c1.424,4.356,3.4,8.523,4.889,12.86a2.4,2.4,0,0,0,4.628-1.276c-1.49-4.337-3.465-8.5-4.888-12.86a2.508,2.508,0,0,0-2.315-1.762,7.058,7.058,0,0,0-5.046,1.921,2.941,2.941,0,0,0-1.122,2.156,4.6,4.6,0,0,0,.341,1.386c.306.834.658,1.653,1.024,2.463a75.6,75.6,0,0,0,5.576,9.969,2.4,2.4,0,1,0,4.144-2.423Z"/><path class="b" d="M9.168,291.226A36.613,36.613,0,0,0,16.8,313.6a13.543,13.543,0,0,0,4.463,4.316,8.417,8.417,0,0,0,6.121.58,56.566,56.566,0,0,0,7.876-3.127,135.112,135.112,0,0,0,19.712-11.628c6.573-4.576,12.995-9.389,19.1-14.578q3.675-3.126,7.188-6.436a82.785,82.785,0,0,0,6.424-6.336c2.931-3.446,1.166-7.889-.987-11.213a38.656,38.656,0,0,0-7.7-8.576A39.853,39.853,0,0,0,57.8,247.365a41.1,41.1,0,0,0-24.822,5.147c-5.226,2.944-9.442,7.175-13.346,11.664a44.776,44.776,0,0,0-9.783,20.616,38.416,38.416,0,0,0-.683,6.434c-.056,3.09,4.744,3.091,4.8,0,.225-12.436,7.5-24.113,17.085-31.683,11.221-8.862,27.817-10.271,40.025-2.778a39.576,39.576,0,0,1,7.812,6.29,30.7,30.7,0,0,1,3.227,3.9,12.608,12.608,0,0,1,2.269,4.433c.265,1.359-.4,1.932-1.3,2.838q-1.435,1.445-2.895,2.867-3.049,2.964-6.222,5.8c-5.017,4.47-10.279,8.653-15.7,12.618a180.033,180.033,0,0,1-18.48,12.118,93.205,93.205,0,0,1-9.279,4.635c-1.737.727-4.432,2.143-6.349,1.658-1.527-.387-2.5-1.806-3.41-2.99a35.978,35.978,0,0,1-2.925-4.495,31.582,31.582,0,0,1-3.462-9.847,30.347,30.347,0,0,1-.4-5.361C13.982,288.137,9.182,288.133,9.168,291.226Z"/><path class="b" d="M25.308,319.636A125.029,125.029,0,0,0,48.9,341.213,37.772,37.772,0,0,0,70.41,348.29c11.038-.024,21.327-6.6,27.1-15.842,4.693-7.519,6.061-16.663,5.247-25.38-1.156-12.383-6.635-24.466-13.813-34.514a2.468,2.468,0,0,0-3.284-.861,2.42,2.42,0,0,0-.861,3.284c6.01,8.412,10.731,18.157,12.634,28.364,1.454,7.794,1.068,16.472-2.421,23.7-4.044,8.377-12.46,15.406-21.923,16.316-7.421.714-14.827-1.658-20.935-5.712a109.33,109.33,0,0,1-12.423-9.98A107.568,107.568,0,0,1,28.7,316.242a2.418,2.418,0,0,0-3.394,0,2.454,2.454,0,0,0,0,3.394Z"/><path class="c" d="M271.927,100.872c11.643-3.127,23.2-2.367,35-.885,6.624.831,26.679,3.7,30.119,4.005,1.378.124,3.651.738,4.978.368,1.308-.365,1.52-1.405,1.91-2.656,1.68-5.387,1.737-11.132,1.47-16.719-.346-7.222-1.241-14.5-3.795-21.266-3.984-10.553-12.635-20.2-21.073-25.556-1.629-1.034-2.535-.734-4.05.08a98.286,98.286,0,0,0-8.645,5.59l-4.931,3.293a38.343,38.343,0,0,1-4.988,3.289c.179-.841.106-1.7.206-2.546l.332-2.843.686-5.875.664-5.685c.111-.947.216-1.9.332-2.842a7.366,7.366,0,0,0,.079-2.651c-.527-1.755-3.862-3.116-5.4-3.965a40.34,40.34,0,0,0-14.431-4.359,60.042,60.042,0,0,0-22.711,1.437,61.156,61.156,0,0,0-16.792,7.094,39.179,39.179,0,0,0-7.114,5.565c-2.118,2.132-4.053,3.539-1.744,6.381,13.893,17.106,29.162,36.305,35.454,57.692,0,0,.843,3.255.937,3.977C269.1,101.593,271.927,100.872,271.927,100.872Z"/><path class="b" d="M251.024,139.9a12.589,12.589,0,0,0,2.358.261c1.819-5.382,4.292-12.682,6.145-17.032,2.619-6.149,3.75-10.688,9.58-21.37a195.878,195.878,0,0,0-12.4,19.921c-2.558,4.993-5.439,10.431-8.379,17.086A19.38,19.38,0,0,0,251.024,139.9Z"/><path class="b" d="M250.386,142.211a15.86,15.86,0,0,0,3,.347A2.446,2.446,0,0,0,255.7,140.8c2.3-6.8,4.8-13.491,7.42-20.166a154.23,154.23,0,0,1,8.063-17.662c1.5-2.763-2.366-4.893-4.145-2.423a205.911,205.911,0,0,0-20.779,37.007,2.454,2.454,0,0,0,.861,3.283,18.147,18.147,0,0,0,3.269,1.376c2.951.936,4.214-3.7,1.276-4.628a11.734,11.734,0,0,1-2.123-.892l.861,3.283a206,206,0,0,1,20.78-37.006l-4.145-2.423a162.369,162.369,0,0,0-8.454,18.573c-2.571,6.566-5.176,13.486-7.513,20.4l2.314-1.762a9.469,9.469,0,0,1-1.72-.175C248.661,136.855,247.38,141.483,250.386,142.211Z"/><path class="b" d="M272.565,103.187c11.721-3.339,24.487-2.087,36.405-.6,5.924.738,11.821,1.676,17.73,2.519,2.815.4,5.634.787,8.461,1.1,2.158.236,4.636,1,7.019.544,3.132-.594,3.83-3.38,4.545-6.05a54.164,54.164,0,0,0,1.51-8.421,59.331,59.331,0,0,0-.745-16.618A62.174,62.174,0,0,0,332.833,45.37a50.023,50.023,0,0,0-6.445-6.029c-2.507-1.957-5.751-4.961-9.175-4.024a20.3,20.3,0,0,0-5.059,2.709c-1.791,1.124-3.537,2.317-5.273,3.523-3.347,2.328-6.662,4.7-10.167,6.794l3.611,2.072c.464-6.876,1.828-13.658,2.219-20.539.093-1.638.117-2.934-.962-4.267a10.368,10.368,0,0,0-3.046-2.367,54.156,54.156,0,0,0-7.321-3.436c-11.3-4.273-24.5-3.912-35.987-.523a61.116,61.116,0,0,0-16.453,7.392,47.728,47.728,0,0,0-7.269,5.938c-2.038,2.022-3.742,4.361-2.412,7.3a17.151,17.151,0,0,0,2.561,3.537q1.535,1.9,3.063,3.8c1.894,2.363,3.777,4.736,5.622,7.137,3.815,4.965,7.5,10.034,10.912,15.287a131.512,131.512,0,0,1,10.026,18.19c2.036,4.588,4.059,9.566,4.828,14.568a2.42,2.42,0,0,0,2.952,1.676c1.161-.334,2.336-.624,3.507-.922,2.991-.764,1.723-5.395-1.276-4.629-1.171.3-2.346.588-3.507.923l2.953,1.676a55.07,55.07,0,0,0-3.658-11.8,119.033,119.033,0,0,0-7.786-15.8c-5.9-10.082-12.97-19.417-20.244-28.532-1.755-2.2-3.81-4.323-5.354-6.671-.455-.692-.363-.654.167-1.287a29.39,29.39,0,0,1,2.995-2.92,46.6,46.6,0,0,1,14.267-8.417c10.291-3.959,21.912-5.5,32.762-3.093a39.953,39.953,0,0,1,8.969,3.062c1.046.513,2.094,1.042,3.114,1.605a10.62,10.62,0,0,1,1.428.875c.154.122.282.287.438.4q.327.33.121.153-.192-.553-.153-.049a9.624,9.624,0,0,0-.152,2.619c-.072.955-.162,1.91-.262,2.863-.185,1.755-.409,3.507-.639,5.257-.478,3.656-.975,7.31-1.223,10.99a2.418,2.418,0,0,0,3.611,2.072c5.907-3.521,11.262-7.883,17.185-11.38a8.114,8.114,0,0,1,2.093-1.152c.407-.08.256-.034.521.049A14.379,14.379,0,0,1,322.4,42.3a44.8,44.8,0,0,1,5.638,4.968A56.847,56.847,0,0,1,342.3,74.175a55.954,55.954,0,0,1,1.35,15.335,47.524,47.524,0,0,1-.988,7.57q-.362,1.678-.841,3.329c-.155.534-.331,1.1-.452,1.584.045-.179-.26.123.037,0-.426.181.25.045-.269.083.512-.038-.3,0-.326,0-.26-.007-.519-.02-.778-.046-.305-.031-.491-.072-.991-.154-1.288-.21-2.582-.332-3.879-.474-2.4-.263-4.794-.585-7.185-.926-5.8-.827-11.6-1.733-17.413-2.487-12.862-1.668-26.609-3.036-39.274.572C268.323,99.4,269.584,104.036,272.565,103.187Z"/><path class="e" d="M72.268,114.9c-2.133,4.98-11.312,12.548-16.277,14.839-3.841,1.773-7.9,2.52-13.8,2.894-.878-3.993-1.943-10.95-.17-15.862-5.073,1.043-14.069.686-18.278-.638-5.373-1.69-17.633-8.4-21.362-15.159A28.309,28.309,0,0,1,18.577,91.47,75.1,75.1,0,0,1,32.99,90.264l3.416.129L32.9,88.868c-6.793-2.951-15.37-12.991-17.7-19.847-4.66-13.7-2.858-25.057-1.619-27.478a73.667,73.667,0,0,1,18.465,2.548c6.38,1.856,15.166,7.342,16.952,9.559l.779.967-.449-1.094c-1.119-2.73.369-17.549,2.46-24.375C54.654,19.774,65.123,5.1,70.551,2.4c7.931,3.206,15.514,17.539,17.567,24.766,2.556,9,4.017,17.965,2.966,23.179l-.29,1.435.771-1.234c2.743-4.393,8.574-8.059,13.794-10.395,4.905-2.2,16.17-6.354,23.958-4.745,1.691,13.524-2.024,28.4-8.658,37.493a144.067,144.067,0,0,1-10,11.194c8.19-3.357,26.89.058,32.215,5.3-.99,3.578-3.764,7.506-8.483,11.1a43.467,43.467,0,0,1-15.816,7.378c-4.607,1.019-8.5,2.21-13.886,2.1l-1.631-.031.235.126c2.267,1.214,4.19,7.956,5.164,10.289a41.987,41.987,0,0,1,1.724,8.65c-4.535,2.1-16.747.3-21.176-1.289-5.7-2.042-13.45-6.646-16.894-11.234"/><path class="b" d="M71.967,5.93c5.042,3.6,8.511,9.633,11.162,15.094A59.032,59.032,0,0,1,88.4,39.752a58.538,58.538,0,0,1-.009,12.028c-.227,2.526,3.283,3.05,4.473,1.212,2.651-4.1,7.164-7.263,11.551-9.627a50.472,50.472,0,0,1,16.224-5.514,28.638,28.638,0,0,1,8.037-.13l-1.762-2.315a56.824,56.824,0,0,1-1.736,22.146,48.114,48.114,0,0,1-3.762,9.578,38.385,38.385,0,0,1-2.53,4.135c-.169.239-.341.477-.518.71.259-.34-.083.1-.173.21q-.63.777-1.281,1.538Q113.1,78.2,108.962,82.4a2.418,2.418,0,0,0,2.335,4.011c5.024-1.485,10.883-1.182,16.178-.33a46.836,46.836,0,0,1,8.39,2.086,19.859,19.859,0,0,1,3.059,1.356c.491.268.962.563,1.425.875.035.023.593.464.216.153.212.175.414.358.612.548l-.617-2.335c-3.96,11.116-16.43,16.459-27.241,18.209a52.046,52.046,0,0,1-10.261.578c-2.242-.086-2.949,2.606-1.7,4.1a29.445,29.445,0,0,1,4.811,9.441,33.616,33.616,0,0,1,.993,4.036,31.524,31.524,0,0,1,.616,3.891l1.188-2.072c.513-.227-.331.1-.431.127-.307.09-.619.162-.933.225a10.585,10.585,0,0,1-1.8.214,37.089,37.089,0,0,1-4.75-.038,51.042,51.042,0,0,1-9.383-1.455,35.853,35.853,0,0,1-9.14-4.03c-3.2-1.886-6.525-4.169-8.733-7.22a2.434,2.434,0,0,0-4.145,0,26.674,26.674,0,0,1-4.9,5.726,49.083,49.083,0,0,1-6.649,5.281c-4.827,3.166-10.231,4.094-15.912,4.467L44.509,132a38.318,38.318,0,0,1-.682-7.263,31.84,31.84,0,0,1,.512-7.323,2.43,2.43,0,0,0-2.952-2.953,32.463,32.463,0,0,1-13.115.315,30.657,30.657,0,0,1-8.187-2.74,58.7,58.7,0,0,1-9.048-5.464,23.1,23.1,0,0,1-6.579-6.8l-.376,2.908a26.834,26.834,0,0,1,13.7-8.591,62.305,62.305,0,0,1,17.8-1.84c2.825.158,3.088-3.874.638-4.714C28.944,85.035,23.048,78.9,19.37,72.3c-3.836-6.882-5.138-15.517-4.742-23.325.041-.8.111-1.6.194-2.406.038-.362.115-.9.247-1.591.1-.543.225-1.085.381-1.617.054-.185.123-.367.177-.553.178-.612-.218.429.02-.053l-2.073,1.189a62.588,62.588,0,0,1,19.281,2.944c5.277,1.793,10.786,4.072,14.439,8.46,1.293,1.554,4.273.322,4.1-1.7a57.692,57.692,0,0,1,.389-11.222A74.154,74.154,0,0,1,54.1,29.786a43.176,43.176,0,0,1,4.457-9.523,73.852,73.852,0,0,1,6.41-9.333,45.784,45.784,0,0,1,3.772-4.152,10.633,10.633,0,0,1,3.029-2.306H69.34A15.457,15.457,0,0,1,71.967,5.93c2.56,1.742,4.964-2.415,2.422-4.144C73.35,1.078,71.852,0,70.551,0a4.666,4.666,0,0,0-2.483,1.11,26.984,26.984,0,0,0-3.787,3.336,68.92,68.92,0,0,0-7.632,9.794,67.219,67.219,0,0,0-6.21,11.57A54.135,54.135,0,0,0,47.43,38.853a66.764,66.764,0,0,0-.839,14.8l4.1-1.7C46.615,47.06,40.414,44.425,34.54,42.4a67.277,67.277,0,0,0-20.966-3.255A2.369,2.369,0,0,0,11.5,40.332,19.986,19.986,0,0,0,9.94,47.375a51.451,51.451,0,0,0,.468,12.032A45.543,45.543,0,0,0,14.52,73.393a41.627,41.627,0,0,0,7.806,10.678,33.484,33.484,0,0,0,12.619,8.088l.638-4.715a53.119,53.119,0,0,0-10.16.47,82.775,82.775,0,0,0-9.233,1.622,31.344,31.344,0,0,0-15.5,9.745,2.481,2.481,0,0,0-.375,2.908C3.231,107.343,8.623,111.07,13.62,114a41.138,41.138,0,0,0,15.515,5.729,37.8,37.8,0,0,0,13.528-.643l-2.952-2.952a41.954,41.954,0,0,0,.169,17.139,2.411,2.411,0,0,0,2.315,1.761c6.5-.427,12.8-1.494,18.335-5.122,4.983-3.269,10.2-7.53,13.267-12.729H69.652c4.1,5.658,10.558,9.495,16.908,12.141a45.908,45.908,0,0,0,15.974,3.013,20.15,20.15,0,0,0,8.858-1.256,2.325,2.325,0,0,0,1.189-2.072,38.83,38.83,0,0,0-7.826-20.762l-1.7,4.1c12.842.489,27.613-3.225,36.544-13.025a27.3,27.3,0,0,0,5.587-9.286,2.363,2.363,0,0,0-.618-2.335c-4.067-3.909-10.431-5.386-15.82-6.253-6.078-.977-12.745-1.438-18.73.331l2.335,4.011c4.543-4.6,9.355-9.456,12.586-15.11a57.205,57.205,0,0,0,6.789-21.843,57.3,57.3,0,0,0-.014-13.431,2.468,2.468,0,0,0-1.761-2.314c-5.923-.947-12.016.028-17.7,1.808a53.787,53.787,0,0,0-17.087,8.788,28.458,28.458,0,0,0-6.451,6.881l4.472,1.211A63.032,63.032,0,0,0,82.539,10.459a34.688,34.688,0,0,0-8.15-8.673,2.418,2.418,0,0,0-3.283.861A2.452,2.452,0,0,0,71.967,5.93Z"/><path class="b" d="M77.5,142.167a9.013,9.013,0,0,0,1.4-.543c-1.229-2.83-3.07-8.663-3.854-11.057-1.107-3.384-1.629-5.672-2.97-11.3a94.146,94.146,0,0,0,1.26,13.614c.663,2.868,1.077,5.851,2.218,9.542A16.465,16.465,0,0,0,77.5,142.167Z"/><path class="b" d="M78.138,144.482a13.908,13.908,0,0,0,1.973-.786c1.278-.582,1.328-2.195.861-3.283.134.311-.051-.128-.093-.236-.085-.215-.171-.43-.253-.646q-.245-.636-.476-1.279c-.356-.981-.7-1.969-1.03-2.958-.591-1.753-1.157-3.513-1.729-5.272-1.216-3.739-2.09-7.567-3-11.389-.627-2.63-4.769-2.069-4.714.638a88.443,88.443,0,0,0,3.564,23.794,2.439,2.439,0,0,0,2.314,1.762,18.583,18.583,0,0,0,2.584-.345,2.4,2.4,0,0,0-1.276-4.629,7.483,7.483,0,0,1-1.308.174l2.314,1.762a81.329,81.329,0,0,1-3.392-22.518l-4.714.638a140.959,140.959,0,0,0,7.066,22.926l.861-3.283a4.539,4.539,0,0,1-.827.3C73.9,140.694,75.156,145.327,78.138,144.482Z"/></svg>