<svg xmlns="http://www.w3.org/2000/svg" width="176.578" height="328.774" viewBox="0 0 176.578 328.774" style="color: initial !important;"><defs><style>.a{fill:#ffffff;}.b{fill:#79c6e0;}.c{fill:#211715;}</style></defs><path class="a" d="M129.256,225.564c.9,5.093,3.773,13.71,5.53,19.016,2.914,8.8,20.149,42.963,39.408,58.371-2.963,5.333-13.614,16.356-22.815,20-6.988,2.766-15.61,2.349-25.185-.149-5.111-1.333-16.593-8.74-27.448-7.479-9.145,1.85-17.52,10.657-26.478,11.035-9.975.421-13.926-7.7-25.387-9.04-6.02-1.034-12.317,1.712-16.983,2.521-2.978.517-7.575.475-8.889-1.333-1.778-2.444.715-8.944,2-12.667,8.559-24.8,16.092-48.858,18.642-74.967L32.585,199.65a55.119,55.119,0,0,1-11.546-8.725C-.766,169.348-3.9,128.1,14.094,103.25,25.128,88.01,42.232,78.2,60.849,74c22.294-5.03,46.758-2.016,65.57,9.348,17.113,10.337,27.165,29.29,29.995,48.509,2.62,17.791-.649,35.141-11.482,49.885a66.853,66.853,0,0,1-12.86,13.152Z"/><path class="b" d="M28.77,204.221a5.949,5.949,0,0,1,.085-.825,4.987,4.987,0,0,1,3.749-3.763c22.4,7.764,53.728,6.785,80.309,2.519,8.378-1.345,15.779-5.625,19.114-7.315,3.467,1.883,4.983,6.831,4.307,10.059a14.815,14.815,0,0,1-5.25,8.324c.084.079.131.125.131.125,3.463,3.354,1.356,7.326-.629,9.207s-4.7,2.739-7.337,3.478c-24.971,7-52.573,8.767-78.138,4.054-5.487-1.011-12.972-3.841-15.671-9.212-1.091-2.169-1.281-10.144,2.278-9.121l1.644.473-1.07-1.021C30.351,209.35,28.688,206.845,28.77,204.221Z"/><path class="c" d="M133.769,196.591a67.152,67.152,0,0,0,22.953-33.016c3.824-12.481,3.745-26,.815-38.659a73.808,73.808,0,0,0-16.055-32c-8.268-9.426-19.375-15.671-31.242-19.423-24.565-7.766-53.006-4.956-75.326,8.03-10.284,5.983-19.5,14.367-25.6,24.648A69.515,69.515,0,0,0,.2,136.738c-1.526,21.508,5.746,45.133,22.782,59.171a60.92,60.92,0,0,0,8.394,5.813c2.682,1.542,5.1-2.6,2.422-4.145a54.8,54.8,0,0,1-21.958-23.786,71.791,71.791,0,0,1-7-29.453,68.786,68.786,0,0,1,5.368-29.4A62.11,62.11,0,0,1,30.543,90.105c19.5-14.283,45.6-19.047,69.14-14.362,11.629,2.314,23.4,6.9,32.48,14.693a64.241,64.241,0,0,1,18.431,27.735,73.742,73.742,0,0,1,3.534,35.275A61.6,61.6,0,0,1,137.6,186.715a69.488,69.488,0,0,1-7.224,6.482,2.413,2.413,0,0,0,0,3.394,2.461,2.461,0,0,0,3.394,0Z"/><path class="c" d="M31.947,201.964c12.672,4.355,26.322,5.705,39.656,5.859,7.261.083,14.526-.232,21.761-.851,7.021-.6,14.11-1.358,21.042-2.645,6.737-1.252,12.789-4.342,18.834-7.418,2.754-1.4.327-5.544-2.423-4.144-5.037,2.563-9.991,5.111-15.523,6.466a93.146,93.146,0,0,1-9.916,1.632q-5.127.681-10.281,1.155a195.544,195.544,0,0,1-41.21-.1,100.334,100.334,0,0,1-20.664-4.581c-2.928-1.006-4.185,3.629-1.276,4.629Z"/><path class="c" d="M130.861,196.966a6.9,6.9,0,0,1,3.005,4.577,7.412,7.412,0,0,1,.154,2.656c.056-.449-.072.287-.09.367-.069.293-.148.585-.237.873a8.969,8.969,0,0,1-.537,1.39,13.925,13.925,0,0,1-10.724,7.569,2.414,2.414,0,0,0-1.676,2.952,2.463,2.463,0,0,0,2.952,1.676,18.261,18.261,0,0,0,13.964-10.6,12.72,12.72,0,0,0,.72-8.565,11.609,11.609,0,0,0-5.108-7.038c-2.669-1.569-5.087,2.578-2.423,4.145Z"/><path class="c" d="M31.946,197.331a7.475,7.475,0,0,0-5.327,5,9.42,9.42,0,0,0,1.361,7.411,16.643,16.643,0,0,0,12.161,7.829,2.408,2.408,0,0,0,2.4-2.4,2.465,2.465,0,0,0-2.4-2.4c-.774-.071.412.107-.347-.044-.2-.04-.4-.081-.6-.131a11.758,11.758,0,0,1-1.3-.41c-.358-.136-.023,0-.226-.1-.187-.091-.374-.181-.558-.278-.369-.195-.729-.408-1.079-.635a11.2,11.2,0,0,1-1.883-1.485c-.311-.289-.613-.59-.9-.9-.175-.191-.344-.387-.511-.586l-.163-.2q.129.161-.015-.033a11.966,11.966,0,0,1-.693-1.087c-.1-.186-.2-.374-.293-.566-.293-.611.046.287-.138-.359a7.805,7.805,0,0,1-.3-1.2c.051.43.01-.338.01-.347,0-.057.043-.658.012-.428s.08-.316.093-.367c.138-.555-.187.239.105-.255.076-.13.153-.259.235-.386-.225.348.158-.172.2-.216s.472-.426.268-.263.266-.172.313-.2.67-.315.227-.145a5.081,5.081,0,0,1,.625-.184,2.423,2.423,0,0,0,1.676-2.953,2.45,2.45,0,0,0-2.952-1.676Z"/><path class="c" d="M35.126,211.078c-1.417-1.131-3.055-2.122-4.948-1.7a4.706,4.706,0,0,0-3.2,3.143,13.76,13.76,0,0,0-.172,8.2c1.06,3.724,4.615,6.555,7.88,8.314a39.371,39.371,0,0,0,12.461,3.849A177.422,177.422,0,0,0,114.1,230.8q4.58-1.01,9.1-2.257a23.022,23.022,0,0,0,7.952-3.368,10.733,10.733,0,0,0,4-5.713,8.06,8.06,0,0,0-2.274-7.8c-2.161-2.215-5.554,1.181-3.394,3.394,2.553,2.616.13,5.693-2.462,7.076a28.271,28.271,0,0,1-5.982,2.021q-3.422.926-6.878,1.715a177.666,177.666,0,0,1-28.866,4.142,171.339,171.339,0,0,1-29.119-.681,90.825,90.825,0,0,1-12.916-2.092,22.618,22.618,0,0,1-9.342-4.485,10.886,10.886,0,0,1-1.7-1.832c-.281-.4-.493-.827-.741-1.245-.082-.138-.1-.379.087.21-.039-.121-.089-.239-.118-.362-.06-.254-.131-.5-.181-.76-.037-.186-.117-.84-.062-.336a15.356,15.356,0,0,1-.093-1.941c0-.33.03-.656.051-.985,0-.073.064-.525.019-.213s.046-.236.059-.3c.066-.287.152-.564.227-.848a2.009,2.009,0,0,1,.1-.259c-.293.706.041-.059.063-.039l.044-.067q.151-.226-.14.177c.071.022.12-.123-.161.084.3-.219-.128.027-.2.046.443-.118-.406-.043-.138-.007-.58-.078.3.1-.092-.064a5,5,0,0,1,.785.459,2.475,2.475,0,0,0,3.394,0,2.416,2.416,0,0,0,0-3.394Z"/><path class="c" d="M41.432,155.964c-.924,3.006-.322,9.921,5.364,10.51,7.515-.046,7.915-8.406,5.385-12.336C50.11,150.919,44.02,149.581,41.432,155.964Z"/><path class="c" d="M110.346,155.964c-.924,3.006-.322,9.921,5.364,10.51,7.515-.046,7.915-8.406,5.385-12.336C119.024,150.919,112.934,149.581,110.346,155.964Z"/><path class="c" d="M73.428,172.465c1.9,2.15,5.491,3.015,8.253,2.883,3.223-.154,6.784-.861,8.841-3.545a2.4,2.4,0,0,0-.861-3.284,2.474,2.474,0,0,0-3.283.861c.164-.214.245-.271,0-.062-.052.046-.343.273-.075.081.308-.221-.161.091-.182.1-.1.062-.206.119-.312.174s-.22.105-.33.158c.482-.233.073-.04-.045,0-.28.1-.565.183-.852.257-.6.155-1.2.256-1.812.354.215-.034.286-.034.028,0-.167.018-.334.038-.5.055-.261.026-.521.05-.783.057-.231.006-.462,0-.692-.01-.151-.008-.3-.019-.452-.033-.063-.006-.474-.059-.143-.012.367.053-.169-.032-.241-.045-.126-.024-.251-.049-.375-.076q-.421-.091-.834-.215c-.271-.081-.534-.18-.8-.275.284.1.244.111-.011-.012-.105-.051-.21-.1-.313-.161-.121-.066-.607-.263-.641-.4.01.04.366.337.119.078-.1-.109-.21-.208-.31-.321a2.414,2.414,0,0,0-3.394,0,2.458,2.458,0,0,0,0,3.394Z"/><path class="c" d="M75.553,2.318c.311,17.629-.13,35.277-.383,52.9q-.112,7.816-.209,15.631c-.035,3.09,4.765,3.092,4.8,0,.216-18.728.618-37.456.663-56.186.01-4.117,0-8.234-.071-12.349-.055-3.086-4.855-3.095-4.8,0Z"/><path class="c" d="M84.2,3.115c.311,17.629-.13,35.277-.383,52.9q-.112,7.816-.209,15.631c-.035,3.09,4.765,3.092,4.8,0,.216-18.728.618-37.456.663-56.186.01-4.117,0-8.233-.071-12.349-.055-3.086-4.855-3.095-4.8,0Z"/><path class="c" d="M106.334,231.7q2.181,6.351,4.731,12.564a2.464,2.464,0,0,0,2.952,1.677c1.115-.361,2.186-1.709,1.676-2.953q-2.547-6.212-4.731-12.564a2.4,2.4,0,0,0-4.628,1.276Z"/><path class="c" d="M39.251,230.872c-2.057,20.8-7.531,41.045-14.013,60.86q-2.348,7.176-4.835,14.307c-1.226,3.508-2.83,7.475-2.31,11.258.6,4.367,5.062,5.3,8.82,5.224,4.351-.092,8.43-1.694,12.653-2.543a22.822,22.822,0,0,1,12.761,1.148c3.111,1.186,5.871,3.113,8.785,4.689a21.888,21.888,0,0,0,10.462,2.959c4.213-.008,8.171-1.616,11.851-3.536,3.836-2,7.461-4.436,11.439-6.16a15.608,15.608,0,0,1,5.474-1.48,25.692,25.692,0,0,1,6.507.611c7.681,1.669,14.357,6.055,22.022,7.695,9.047,1.936,18.6,2.158,26.917-2.4a60.24,60.24,0,0,0,18.1-15.871,29.165,29.165,0,0,0,2.383-3.473,2.428,2.428,0,0,0-.375-2.908c-10.119-8.141-17.928-19.05-24.731-30q-4.7-7.571-8.766-15.518c-1.065-2.088-2.094-4.2-3.065-6.329q-.309-.678-.609-1.359l-.279-.64-.114-.267c-.184-.426.1.237-.013-.029-.292-.7-.578-1.409-.843-2.122-1.09-2.936-2-5.954-2.934-8.942a93.86,93.86,0,0,1-2.967-11.122,2.421,2.421,0,0,0-2.952-1.677,2.453,2.453,0,0,0-1.676,2.953c1.187,6.54,3.454,12.971,5.607,19.245a91.976,91.976,0,0,0,4.784,10.89,193.189,193.189,0,0,0,20,32.274A94.072,94.072,0,0,0,172.5,304.648l-.375-2.909a35.633,35.633,0,0,1-5.479,6.973,62.734,62.734,0,0,1-8.837,7.824,30.385,30.385,0,0,1-10.132,5.087,34.855,34.855,0,0,1-13.138.436,43.675,43.675,0,0,1-10.934-2.752c-3.607-1.543-7.164-3.2-10.891-4.447a34.354,34.354,0,0,0-12.772-2.042c-4.269.258-8.291,2.339-11.97,4.376-6.413,3.552-13.222,8.522-20.859,6.068-2.873-.924-5.564-2.772-8.273-4.288a31.2,31.2,0,0,0-10.719-3.893,25.65,25.65,0,0,0-7.065-.178,54.518,54.518,0,0,0-7.048,1.483c-3.273.868-7.044,2.054-10.421.989a3.653,3.653,0,0,1-.675-.309c.273.138,0-.046-.061-.082.255.163.056.108.007-.065.148.531-.1-.67-.035-.2a6.392,6.392,0,0,1-.007-1.29,22.412,22.412,0,0,1,1.24-5.236c1.367-4.257,2.911-8.461,4.33-12.7,6.452-19.281,12.087-38.882,14.789-59.076q.5-3.762.879-7.54a2.416,2.416,0,0,0-2.4-2.4,2.453,2.453,0,0,0-2.4,2.4Z"/><path class="c" d="M61.99,234.318A243.642,243.642,0,0,0,59.6,271.84c.045,3.086,4.845,3.1,4.8,0a235.723,235.723,0,0,1,2.221-36.246,2.483,2.483,0,0,0-1.676-2.953,2.417,2.417,0,0,0-2.952,1.677Z"/></svg>