<svg id="b" xmlns="http://www.w3.org/2000/svg" width="277.524" height="310.173" viewBox="0 0 277.524 310.173" style="color: initial !important;"><defs><style>.e{fill:#ffffff;}.f{fill:#211715;}.g{fill:#f2635f;}.h{fill:#645d5c;}</style></defs><g id="c"><g id="d"><path class="e" d="M138.698,79.392c1.752-1.158,3.906-1.363,5.665-1.029,3.83.727,5.162,2.966,5.685,4.239,1.559,3.806.473,10.192-1.562,13.938-1.434,2.649-3.606,6.314-8.033,8.776-1.298.718-4.427,1.669-7.412,1.428-.319.607-.543,1.038-.543,1.038-1.008,1.917-3.348,5.252-3.348,5.252-1.766,2.417-3.62,4.731-5.721,6.976.358,2.156.716,4.311,1.074,6.467.317,1.907.638,3.83,1.349,5.627,1.917,4.843,7.153,8.286,12.525,10.324,0,0,.4.152.788.312-13.13,9.98-28.807,15.538-44.614,15.801-6.052.092-12.206-.584-17.875-3.032-5.347-2.31-10.274-6.309-13.352-11.8,3.561-1.084,7.247-2.208,9.706-3.177,2.228-.661,4.326-2.205,5.684-4.138-8.481-.86-15.823-4.246-22.723-10.331-8.328-7.346-11.655-18.567-12.548-30.871-.455-6.274-.813-13.025-1.401-19.835,0,0-5.73-39.568,48.27-39.568,50,0,48.387,43.602,48.387,43.602Z"/><path class="h" d="M62.455,54.111c-.049-.307-.117-.63-.206-.975-.36-1.386-1.438-1.959-2.264-1.509-7.644,4.167-18.663,20.033-17.944,23.729l-.15,1.356c-1.855-10.303-1.541-22.657.134-30.794,1.783-8.659,6.124-18.319,11.992-24.894,10.164-11.389,25.076-18.105,43.422-18.567,11.578-.292,23.095,2.137,35.362,11.297l7.626,5.695c.723.701,1.446,1.403,1.446,1.403,7.293,7.077,10.75,15.042,12.906,24.715,1.081,4.869,1.43,9.88.977,14.834-.483,5.251-1.193,17.511-5.158,24.201-.121-.718-.302-1.392-.551-2-.522-1.272-1.855-3.512-5.685-4.239-1.759-.334-3.913-.129-5.665,1.029,0,0-1.609.731-3.053.953s-8.061-8.099-8.061-8.099c-10.308-19.062-24.523-24.223-27.601-25.503,0,0-5.311-1.303-10.671-1.336-10.174,2.414-19.426,10.074-24.289,12.879-1.198.691-2.639-.353-2.501-1.822.067-.719.076-1.466-.066-2.352Z"/><path class="f" d="M121.114,120.65c.88,5.258,1.093,11.306,4.421,15.713,3.056,4.046,7.548,6.588,12.205,8.384,1.21.466,2.633-.515,2.952-1.676.372-1.355-.462-2.484-1.676-2.952-3.597-1.387-7.442-3.485-9.721-6.701-1.267-1.788-1.803-3.814-2.199-5.946-.5-2.689-.902-5.399-1.353-8.097-.214-1.279-1.795-1.994-2.952-1.676-1.356.373-1.891,1.669-1.676,2.952h0Z"/><path class="f" d="M56.746,148.307c4.069-1.412,8.228-2.555,12.329-3.868,1.871-.599,3.756-1.212,5.579-1.947,2.516-1.014,4.524-2.7,6.116-4.878.765-1.047.177-2.677-.861-3.284-1.216-.711-2.517-.189-3.284.861-2.204,3.016-6.413,3.862-9.784,4.923-3.788,1.192-7.619,2.262-11.371,3.564-1.224.425-2.036,1.644-1.676,2.952.327,1.189,1.722,2.103,2.952,1.676h0Z"/><path class="f" d="M140.181,22.549c6.433,6.304,10.086,14.167,12.103,22.86,1.945,8.38,1.264,17.115-.061,25.551-.664,4.226-1.535,8.671-3.708,12.41-1.555,2.676,2.592,5.095,4.145,2.423,4.092-7.043,4.68-15.881,5.36-23.82.458-5.346.357-10.585-.682-15.868-.939-4.777-2.389-9.478-4.44-13.897-2.27-4.889-5.478-9.285-9.324-13.053-2.208-2.164-5.605,1.228-3.394,3.394h0Z"/><path class="f" d="M99.345,49.057c.385.16.771.319,1.157.475.496.2-.447-.2-.069-.029.122.055.245.105.367.159.342.15.682.303,1.02.461,1.61.75,3.175,1.594,4.689,2.523,4.568,2.802,8.524,6.327,12.04,10.477,2.692,3.178,4.972,6.681,6.963,10.335,1.479,2.713,5.625.293,4.145-2.423-5.69-10.442-14.137-19.656-24.967-24.846-1.334-.639-2.702-1.194-4.068-1.76-1.198-.496-2.639.537-2.952,1.676-.379,1.38.474,2.454,1.676,2.952h0Z"/><path class="f" d="M44.398,74.901c.334-1.635.702-2.215,1.509-3.717.943-1.754,2.02-3.436,3.159-5.068,2.539-3.639,5.448-7.113,8.799-10.033.682-.594,1.18-.998,1.845-1.458.342-.237.744-.429,1.069-.687.457-.364.971-.164-.478-.09-.336.017-.209-.213-.367-.072.031-.028.233,1.565.233,1.694.003.669-.089,1.294.034,1.964.259,1.409,1.174,2.598,2.509,3.148,2.288.944,4.264-.632,6.086-1.838,1.875-1.241,3.728-2.517,5.62-3.733,5.119-3.29,10.527-6.256,16.536-7.508,3.022-.63,1.743-5.258-1.276-4.629-5.705,1.189-11.019,3.862-15.949,6.9-2.075,1.278-4.094,2.641-6.117,3.999-.823.553-1.647,1.106-2.484,1.638-.337.214-.846.411-1.125.692-.272.274-.25-.16.175,0-.098-.037.919.215.723.363.225-.17.058-1.431.036-1.71-.059-.747-.157-1.537-.372-2.258-.441-1.476-1.44-2.845-2.986-3.28-2.283-.642-4.447,1.306-6.096,2.624-3.705,2.963-6.806,6.705-9.602,10.513-2.408,3.28-5.277,7.195-6.11,11.27-.259,1.269.368,2.593,1.676,2.952,1.187.326,2.691-.4,2.952-1.676h0Z"/><path class="f" d="M90.772,86.726c-.583-2.527.321-8.177,5.039-8.325,6.187.482,6.023,7.381,3.707,10.463-1.896,2.524-6.991,3.264-8.746-2.139Z"/><path class="f" d="M53.942,85.24c-.525-2.532.323-8.203,4.644-8.368,5.665.462,5.49,7.382,3.358,10.482-1.745,2.538-6.415,3.299-8.002-2.114Z"/><path class="f" d="M72.854,91.835c-.833,1.29-1.643,2.605-2.36,3.963-.286.541-.591,1.103-.694,1.712-.202,1.189.049,2.235.894,3.124.554.582,1.23.976,1.978,1.247.495.179,1.039.203,1.555.27l-.638-.086c.062.009.123.018.184.03.646.119,1.266.1,1.849-.242.498-.291.973-.862,1.103-1.434.14-.614.11-1.304-.242-1.849-.322-.5-.827-.991-1.434-1.103-.358-.066-.722-.103-1.084-.148l.638.086c-.253-.034-.496-.087-.734-.183l.573.242c-.176-.079-.336-.174-.492-.287l.486.375c-.182-.144-.353-.3-.498-.482l.375.486c-.035-.05-.063-.105-.085-.162l.242.573c-.021-.057-.036-.115-.044-.175l.086.638c-.008-.097-.008-.184,0-.281l-.086.638c.032-.205.093-.394.172-.585l-.242.573c.37-.823.854-1.605,1.316-2.379.43-.719.869-1.433,1.324-2.137.683-1.057.25-2.697-.861-3.284-1.193-.63-2.555-.267-3.284.861h0Z"/><path class="f" d="M118.05,128.173c3.903-3.068,7.41-6.568,10.51-10.445,2.193-2.743,4.35-5.629,6.01-8.735,1.456-2.724-2.687-5.151-4.145-2.423-3.776,7.065-9.502,13.282-15.769,18.209-1.02.802-.84,2.554,0,3.394,1.007,1.007,2.372.804,3.394,0h0Z"/><path class="f" d="M134.014,11.682C125.554,5.411,115.874,1.378,105.37.33c-9.48-.945-19.452.149-28.494,3.149-8.476,2.812-16.315,7.452-22.624,13.799-7.037,7.079-11.737,16.43-14.105,26.077-2.685,10.939-2.52,22.956-.569,33.995.226,1.277,1.787,1.997,2.952,1.676,1.347-.37,1.903-1.671,1.676-2.952-1.628-9.208-1.766-19.136-.091-28.351,1.63-8.971,5.497-18.145,11.601-25.002,11.598-13.027,29.14-18.546,46.255-17.831,10.919.456,20.884,4.459,29.621,10.936,1.042.772,2.68.172,3.284-.861.715-1.222.183-2.509-.861-3.284h0Z"/><path class="f" d="M105.397,129.21c-6.475,2.689-13.255,4.69-20.293,4.966-6.469.254-12.923-.857-18.715-3.827-5.618-2.881-10.816-7.05-14.163-12.456-3.384-5.465-5.096-11.834-5.932-18.163-.555-4.202-.723-8.459-.998-12.686-.312-4.792-.639-9.583-1.087-14.365-.121-1.291-1.017-2.4-2.4-2.4-1.204,0-2.521,1.102-2.4,2.4.796,8.505.986,17.075,1.909,25.565.772,7.096,2.381,14.194,5.844,20.496,6.791,12.36,20.839,19.868,34.716,20.256,8.581.24,16.916-1.886,24.794-5.158,1.196-.497,2.05-1.591,1.676-2.952-.311-1.13-1.748-2.176-2.952-1.676h0Z"/><path class="f" d="M139.909,81.464c2.324-1.432,5.658-.973,7.364,1.057.258.307-.165-.249.042.06.059.088.122.175.174.267.095.169.191.336.28.508.04.076.076.156.111.235.126.292-.139-.392.013.077.115.353.217.707.296,1.069.314,1.446.25,3.024.07,4.484-.681,5.532-4.059,11.432-9.099,14.066-.31.162-.402.19-.441.204-.3.113-.605.214-.912.306-.72.215-1.465.396-2.211.494-1.538.202-3.262.179-4.671-.539-2.747-1.4-5.178,2.74-2.423,4.145,3.538,1.803,7.962,1.59,11.612.178,3.788-1.465,6.816-4.499,8.999-7.857,2.148-3.304,3.461-6.895,3.925-10.812.417-3.519.06-7.382-2.293-10.188-3.125-3.728-9.216-4.39-13.259-1.9-2.625,1.618-.217,5.771,2.423,4.145h0Z"/><path class="f" d="M97.247,71.966c.904.919,1.986,1.714,3.142,2.289,1.125.559,2.322,1.009,3.57,1.179.319.1.638.114.957.043.319-.014.617-.109.892-.285.498-.291.973-.862,1.103-1.434.14-.614.11-1.304-.242-1.849-.313-.485-.834-1.021-1.434-1.103-.817-.112-1.609-.338-2.372-.652l.573.242c-.826-.348-1.602-.795-2.314-1.339l.486.375c-.341-.266-.664-.551-.967-.86-.429-.437-1.087-.703-1.697-.703-.589,0-1.292.261-1.697.703-.885.964-.941,2.438,0,3.394h0Z"/><path class="f" d="M111.995,85.429c-.302,2.236-.573,4.475-.612,6.734-.034,1.985-.122,4.415,1.011,6.143,1.308,1.995,3.794,2.735,6.063,2.348,1.975-.336,3.536-1.814,4.366-3.585.531-1.135.356-2.641-.861-3.284-1.063-.562-2.715-.353-3.284.861-.129.276-.268.545-.434.801-.245.378-.102.008.035-.021-.045.009-.3.318-.338.357-.298.305.275-.142.031-.02-.078.039-.271.223-.366.207.284-.113.34-.14.169-.082-.085.029-.172.054-.261.074-.426.131.337.005.05.003-.141-.001-.289.003-.43.01-.524.027.46.138-.048.005-.137-.036-.278-.085-.415-.111-.269-.051.397.232.023.012-.075-.039-.148-.081-.219-.127-.148-.097-.1-.053.146.13-.098-.014-.234-.23-.299-.292-.198-.191.238.396.05.013.265.538.037.054-.002-.091-.041-.15-.061-.307-.1-.457-.078-.297.036.457-.004-.005-.032-.371-.053-.742-.066-1.115-.029-.826-.027-1.653.003-2.478.031-.856.092-1.71.173-2.563.037-.391.079-.781.124-1.17.027-.236.056-.472.086-.708.011-.089.1-.764.039-.314.091-.67.115-1.239-.242-1.849-.291-.498-.862-.973-1.434-1.103-1.126-.257-2.772.346-2.952,1.676h0Z"/><path class="f" d="M74.34,115.363c.311-.217.664-.385.969-.604.237-.17-.349.075.054-.027.107-.027.217-.057.323-.088.424-.127-.303-.029-.11.019.085.021.284.007.365.001.291-.022-.027-.007-.155-.035l.183.053c-.243-.102-.287-.108-.132-.019.11.074.116.074.017-.001-.129-.105-.094-.074.104.091.119.105.237.212.356.318.331.295.665.581,1.017.851.839.641,1.857,1.007,2.923.996.979-.01,1.873-.356,2.695-.859.323-.197.647-.392.989-.554.381-.18-.453.114.256-.097.159-.047.32-.099.484-.128-.37.067.091.019.181.019.185,0,.484.136.044-.007.127.041.266.057.396.093.059.017.58.213.3.09-.264-.116.741.495.32.158.114.091.213.197.32.295.436.395-.156-.288.169.219.699,1.09,2.132,1.535,3.284.861,1.085-.635,1.564-2.188.861-3.284-1.106-1.724-2.855-2.864-4.889-3.137-1.014-.136-2.014-.076-2.985.277-.553.201-1.101.448-1.616.734-.181.101-.358.209-.535.317-.078.048-.542.448-.25.18l-.218.057c.232-.027.261-.039.084-.036-.252.039.137.064.243.094-.208-.133-.259-.157-.153-.072.111.095.061.053-.151-.127-.156-.136-.309-.275-.464-.414-.755-.675-1.554-1.336-2.556-1.595-1.816-.469-3.662.185-5.144,1.217-1.062.74-1.552,2.102-.861,3.284.615,1.052,2.215,1.605,3.284.861h0Z"/><path class="e" d="M15.197,171.775c-6.838,13.051-9.577,28.064-11.144,42.575-1.639,15.179-1.498,32.765-1.613,38.027-.574,24.239,8.746,33.288,11.282,35.763,2.48,2.421,10.002,6.154,13.385,6.557,20.608,2.451,45.48-2.139,67.782-5.701,5.006-.799,11.3-1.582,12.677-6.65.282-1.038.306-2.121.252-3.204,6.126-1.635,12.266-3.213,16.757-4.178,2.319-.502,4.639-.621,6.957-.538-3.465,13.111-7.835,29.542-8.661,32.391h49.025c7.069-32.724,13.552-59.315,19.256-89.607,2.149-11.415,2.932-29.28-.74-40.299-5.471-16.418-20.976-29.868-49.176-35.8-13.536,11.004-30.039,17.154-46.687,17.43-6.052.092-12.206-.584-17.875-3.032-5.466-2.361-10.491-6.487-13.545-12.17-17.783,1.529-34.348,7.163-44.517,22.623-1.241,1.887-2.376,3.827-3.417,5.813Z"/><path class="g" d="M221.103,212.367c7.552-4.039,15.256-7.785,22.799-11.84,1.456-.783,1.441-2.642.486-3.769-2.655-3.131-5.585-6.017-8.302-9.092l-.486,3.769c7.976-3.905,15.989-7.734,23.969-11.63,1.165-.569,1.48-2.225.861-3.284-.695-1.188-2.115-1.432-3.284-.861-7.98,3.897-15.993,7.725-23.969,11.63-1.471.72-1.435,2.695-.486,3.769,2.717,3.076,5.647,5.961,8.302,9.092l.486-3.769c-7.543,4.056-15.247,7.802-22.799,11.84-2.725,1.457-.303,5.602,2.423,4.145h0Z"/><path class="g" d="M216.677,233.301c10.977-.013,21.918,1.406,32.895,1.368,1.626-.006,2.644-1.524,2.314-3.038-.874-4.011-2.105-7.935-3.06-11.926l-2.314,3.038c9.562.313,19.133.227,28.696.55,3.09.104,3.086-4.696,0-4.8-9.562-.323-19.133-.237-28.696-.55-1.609-.053-2.665,1.572-2.314,3.038.955,3.991,2.186,7.915,3.06,11.926l2.314-3.038c-10.977.037-21.918-1.382-32.895-1.368-3.088.004-3.094,4.804,0,4.8h0Z"/><path class="f" d="M61.256,144.924c12.266,21.524,43.053,17.947,62.377,9.656,5.962-2.558,11.572-5.854,16.747-9.765,1.032-.78,1.57-2.071.861-3.284-.595-1.017-2.243-1.647-3.284-.861-8.525,6.444-18.227,11.18-28.643,13.629-5.139,1.208-10.393,1.842-15.674,1.851-5.513.009-11.2-.653-16.272-2.942-5.01-2.261-9.239-5.92-11.967-10.707-1.529-2.684-5.678-.268-4.145,2.423h0Z"/><path class="f" d="M173.997,308.448c6.129-28.416,12.911-56.696,18.446-85.238,2.372-12.232,3.851-24.696,2.315-37.145-.648-5.251-1.885-10.242-4.142-15.04-2.023-4.299-4.787-8.248-8.016-11.727-8.999-9.697-21.494-15.445-34.069-18.902-2.983-.82-4.256,3.809-1.276,4.629,10.836,2.979,21.555,7.658,29.794,15.486,6.77,6.433,11.114,14.455,12.631,23.647,1.907,11.561.836,23.667-1.35,35.104-2.58,13.495-5.449,26.932-8.417,40.347-3.508,15.856-7.12,31.688-10.544,47.563-.65,3.012,3.977,4.299,4.629,1.276h0Z"/><path class="f" d="M147.448,202.975c-4.867,19.029-9.64,38.086-14.613,57.088-2.897,11.07-5.831,22.13-8.781,33.186-1.151,4.312-2.257,8.642-3.496,12.93-.859,2.973,3.772,4.243,4.629,1.276,2.771-9.593,5.196-19.297,7.751-28.949,3.193-12.062,6.32-24.137,9.412-36.226,3.242-12.676,6.484-25.353,9.727-38.029.766-2.994-3.862-4.271-4.629-1.276h0Z"/><path class="e" d="M104.234,245.025c4.047-.589,7.946-1.542,9.98-2.888,4.842-5.982,12.317-11.846,21.413-14.979,2.976-1.022,7.318-3.015,10.235-1.837,3.477,1.405,3.919,5.776-.54,10.029l-1.896,1.827-.256.246c6.887,1.193,10.216,1.626,18.855,1.874,4.468-.072,12.466.195,16.822.033,2.129-.079,3.565.963,4.337,2.191.642,1.021.843,2.962.36,4.242-.454,1.204-1.707,2.152-3.148,2.765,1.193.263,1.937.429,1.937.429,2.207.491,3.596,2.572,3.634,3.999.052,1.938-.745,3.725-2.484,4.619-1.725.887-3.055,1.415-5.486,1.78l-.689.104c.748.513,1.497,1.025,1.497,1.025,1.646,1.127,2.22,3.292,1.731,4.442-.881,2.07-2.55,2.616-4.669,3.004-.868.159-1.738.299-2.593.423,1.94,3.682-1.653,6.386-5.616,6.854-7.357.874-13.928,1.316-21.924.747-6.974-.491-14.076-2.524-21.157-.992-4.479.963-10.598,2.534-16.708,4.165"/><path class="f" d="M104.872,247.339c2.327-.347,4.663-.774,6.903-1.508.979-.321,1.958-.697,2.874-1.172.927-.48,1.501-1.138,2.171-1.911,2.694-3.11,5.801-5.86,9.223-8.142,3.673-2.449,7.569-4.154,11.696-5.665,1.788-.655,3.698-1.469,5.621-1.568.642-.033,1.253-.01,1.814.266.55.271.767.562.915.97.157.432.118.95-.103,1.664-.294.946-.89,1.808-1.547,2.54-.844.941-1.801,1.79-2.71,2.667-2.228,2.148,1.168,5.539,3.394,3.394,2.637-2.541,5.431-5.161,5.808-9.027.455-4.664-3.787-7.655-8.113-7.231-2.393.235-4.622,1.069-6.864,1.883-2.411.876-4.798,1.775-7.097,2.923-4.406,2.201-8.499,5.094-12.09,8.463-.908.851-1.783,1.737-2.62,2.658-.732.805-1.235,1.661-2.207,2.114-2.565,1.196-5.568,1.638-8.342,2.053-1.283.192-1.99,1.811-1.676,2.952.378,1.374,1.665,1.868,2.952,1.676h0Z"/><path class="f" d="M108.506,281.442c4.742-1.264,9.491-2.514,14.273-3.62,2.246-.52,4.441-.965,6.756-1.013,2.445-.051,4.885.181,7.308.484,4.929.616,9.791,1.249,14.768,1.31,4.618.057,9.227-.245,13.816-.741,2.518-.272,5.043-.488,7.256-1.847,2.044-1.254,3.361-3.151,3.533-5.561.092-1.294-1.169-2.4-2.4-2.4-1.376,0-2.308,1.102-2.4,2.4-.069.97-1.557,1.743-2.548,2.05-1.86.577-3.924.621-5.853.801-4.323.402-8.664.59-13.006.465-4.751-.137-9.395-.847-14.107-1.391-4.642-.536-9.059-.398-13.622.637-5.046,1.144-10.051,2.465-15.05,3.798-2.982.795-1.717,5.426,1.276,4.629h0Z"/><path class="f" d="M142.477,239.732c4.402.759,8.812,1.415,13.273,1.697,4.842.305,9.688.258,14.537.317,2.321.028,4.643.06,6.964.025,1.561-.024,3.613-.307,4.078,1.548.481,1.917-.988,2.795-2.678,3.291-2.408.708-5.169.66-7.664.872-6.286.535-12.49.298-18.779.021-3.088-.136-3.082,4.664,0,4.8,6.221.275,12.363.519,18.581-.004,2.924-.246,6.132-.23,8.968-1.01,2.613-.719,5.449-2.406,6.2-5.192.698-2.591.006-5.632-2.071-7.403-2.284-1.947-4.963-1.728-7.764-1.712-5.162.029-10.36.046-15.519-.128-5.717-.193-11.238-.783-16.85-1.75-1.276-.22-2.585.34-2.952,1.676-.317,1.155.392,2.731,1.676,2.952h0Z"/><path class="f" d="M181.693,251.273c.593.157,1.086.417,1.47.912-.043-.055.371.641.298.475-.033-.075.143.815.105.297.098,1.307-.495,2.139-1.614,2.709-2.99,1.524-6.62,1.754-9.914,2.057-3.882.357-7.801.332-11.696.335-3.013.002-6.062.053-9.067-.216-1.293-.116-2.4,1.186-2.4,2.4,0,1.395,1.104,2.284,2.4,2.4,2.718.244,5.472.21,8.197.216,3.741.008,7.502.034,11.235-.226,3.436-.24,7.135-.516,10.444-1.5,3.145-.935,6.262-2.664,7.007-6.123.815-3.781-1.437-7.371-5.189-8.365-2.989-.791-4.264,3.837-1.276,4.629h0Z"/><path class="f" d="M177.593,262.558c.56.42.785,1.323.703,1.598-.096.321-.813.863-1.413,1.072-2.63.919-5.744,1.049-8.5,1.283-5.809.494-11.576.024-17.38-.312-3.086-.178-3.076,4.622,0,4.8,3.912.226,7.826.564,11.747.568,3.383.003,6.761-.303,10.111-.753,3.312-.445,7.193-.731,9.242-3.761s.612-6.617-2.087-8.64c-1.038-.778-2.682-.168-3.284.861-.717,1.227-.179,2.504.861,3.284h0Z"/><path class="f" d="M62.815,140.966c-13.785,1.248-27.687,4.982-38.233,14.39-11.683,10.422-17.328,26.459-20.325,41.413-3.103,15.479-3.895,31.312-4.115,47.061-.083,5.895-.352,11.848.182,17.726.553,6.08,1.834,12.048,4.322,17.64,1.44,3.237,3.347,6.263,5.706,8.91,2.753,3.089,6.295,5.19,10.055,6.865,1.41.628,2.846,1.231,4.33,1.661,1.504.436,3.071.559,4.624.704,3.961.37,7.943.489,11.92.442,8.533-.1,17.044-.946,25.499-2.057,8.577-1.127,17.112-2.532,25.651-3.912,5.708-.922,14.119-1.244,16.902-7.367.889-1.957.984-4.046.833-6.162-.168-2.356-.391-4.709-.618-7.06-.439-4.538-.947-9.068-1.468-13.597s-1.056-9.069-1.545-13.607c-.234-2.171-.649-4.206-2.918-5.091-1.741-.679-3.81-.023-5.598.242-14.923,2.217-29.857,4.365-44.785,6.549-.795.116-1.59.23-2.384.349-.669.101.172-.002-.236.032-.241.02-.481.044-.723.053-.21.008-.419.003-.629,0-.238-.002-.656-.064-.161.014-.415-.066-.816-.17-1.211-.312.658.238-.87-.584-.411-.228-.191-.148-.368-.317-.537-.489-.079-.08-.496-.57-.281-.289-.827-1.079-1.279-2.308-1.646-3.594-.569-1.995-.878-4.071-1.305-6.1-.472-2.237-.926-4.478-1.357-6.724-.842-4.39-1.597-8.799-2.197-13.229-.588-4.338-1.012-8.699-1.278-13.068-.187-3.069-4.988-3.09-4.8,0,.535,8.778,1.761,17.5,3.375,26.141.807,4.321,1.63,8.665,2.601,12.951.607,2.681,1.641,5.617,3.72,7.529,3.92,3.605,9.484,1.775,14.145,1.095,7.309-1.067,14.619-2.128,21.928-3.194,7.211-1.052,14.422-2.107,21.629-3.182.067-.01.501-.029.534-.08.09-.137.011.553-.097-.03.018.095-.297-.125-.212-.145-.242.055.087-.214-.046.066s.123,1.148.158,1.465c.071.65.142,1.3.215,1.95.243,2.188.494,4.374.747,6.561.513,4.444,1.033,8.888,1.503,13.337.456,4.317,1.077,8.71,1.16,13.053.057,2.977-1.37,4.585-4.077,5.526-2.918,1.014-6.062,1.338-9.097,1.827-4.125.664-8.249,1.342-12.376,1.992-15.957,2.514-32.261,4.874-48.451,3.714-2.928-.21-5.414-.523-8.148-1.678-1.404-.593-2.775-1.284-4.104-2.029-.977-.548-2.505-1.492-3.094-1.964-.805-.646-1.532-1.422-2.223-2.188-.407-.451-.793-.918-1.176-1.39-.26-.32.305.421-.048-.062-.095-.131-.194-.259-.289-.39-.237-.325-.467-.654-.69-.988-2.507-3.74-3.924-7.327-5.04-11.667-1.61-6.262-1.856-12.643-1.766-19.078.19-13.678.374-27.343,2.059-40.938,1.882-15.184,5.41-30.793,14.094-43.649,7.464-11.049,19.49-17.035,32.285-19.579,3.148-.626,6.323-1.051,9.518-1.341,1.291-.117,2.4-1.019,2.4-2.4,0-1.208-1.102-2.518-2.4-2.4h0Z"/></g></g></svg>