<svg id="b" xmlns="http://www.w3.org/2000/svg" width="239.202" height="305.687" viewBox="0 0 239.202 305.687" style="color: initial !important;"><defs><style>.e{fill:#ffffff;}.f{fill:#f8b8b4;}.g{fill:#211715;}.h{fill:#f2635f;}.i{fill:#645d5c;}</style></defs><g id="c"><g id="d"><path class="i" d="M143.954,154.348c9.476-4.581,9.552-11.184,9.581-15.148.071-5.651-.793-10.032-2.608-15.514-2.232-6.842-6.353-20.729-6.222-45.425.534-4.739.492-10.88.339-15.633-.078-2.431-.181-4.487-.26-5.833-.899-16.103-10.314-34.565-22.345-41.667C107.885,3.906,94.89,1.578,82.011,2.638c-18.276,1.505-32.769,9.052-42.261,20.991-5.48,6.893-9.261,16.776-10.548,25.515-1.195,8.113-.828,20.259,1.53,30.359,2.115,19.303-3.244,39.802-1.556,55.593.51,4.93,3.04,10.82,9.81,15.45l104.967,3.801Z"/><path class="e" d="M96.119,41.959c1.666,5.304,4.11,11.345,5.712,14.832,2.564,5.583,9.36,15.152,15.492,18.216,0,0,6.017,2.887,8.182,2.84.548-.012,2.037-.807,2.037-.807,1.682-1.255,3.819-1.582,5.593-1.348,3.862.507,5.319,2.666,5.912,3.905,1.771,3.708,1.052,10.141-.766,13.993-1.28,2.724-3.238,6.503-7.515,9.212-1.253.789-4.317,1.915-7.306,1.846-.286.621-.489,1.066-.489,1.066-.896,1.97-3.041,5.43-3.041,5.43-2.494,3.856-5.21,7.484-8.711,11.035.522,2.676,1.045,5.351,1.567,8.027.365,1.867.734,3.75,1.484,5.498,2.017,4.701,11.585,9.857,15.847,12.728-13.177,10.04-28.504,14.515-43.866,14.542-6.187,0-12.472-.786-18.237-3.367-5.751-2.595-10.574-6.958-13.737-12.738,0,0-.037-.067-.107-.195,3.365-1.221,6.813-2.478,9.116-3.526,2.739-.99,6.157-2.789,6.449-5.904-8.016-.593-15.162-3.535-22.046-8.943-8.726-6.854-12.683-17.859-14.272-30.082-.917-7.048-1.744-14.713-2.91-22.366,0,0-.03-.197-.06-.395l1.7-1.205c.708-.502,1.824-1.221,2.748-1.891,8.455-6.095,17.501-13.584,25.868-20.772.348-.299.87.044.732.481-.792,2.521-1.21,5.152-1.373,7.877-.086,1.43,1.309,2.487,2.678,2.066,13.036-4.013,25.121-11.121,33.213-20.339"/><path class="g" d="M125.773,20.568c7.581,6.933,12.536,16.668,15.058,26.535,1.269,4.964,1.623,9.943,1.797,15.045.097,2.84.145,5.682.101,8.523-.045,2.858-.425,5.717-.427,8.566-.007,10.261.704,20.561,2.6,30.655.6,3.193,1.329,6.362,2.204,9.491.893,3.189,2.048,6.303,2.851,9.516.771,3.082,1.159,6.193,1.18,9.371.006.859.001,1.722-.036,2.58-.018.406-.049.811-.084,1.216-.012.141-.029.282-.046.422.068-.546-.043.231-.062.338-.356,1.943-.855,3.256-2.046,4.84-1.497,1.991-3.833,3.48-6.121,4.609-1.162.573-1.482,2.221-.861,3.284.693,1.185,2.117,1.437,3.284.861,4.396-2.169,8.139-5.46,9.806-10.168,1.221-3.448,1.119-7.5.842-11.089-.599-7.777-3.772-15.014-5.465-22.577-2.121-9.471-2.999-19.178-3.201-28.869-.127-6.096.481-12.157.37-18.261-.099-5.469-.265-10.974-1.318-16.357-2.305-11.781-8.094-23.754-17.031-31.926-2.276-2.081-5.68,1.304-3.394,3.394h0Z"/><path class="g" d="M27.962,76.675c1.743,11.157.611,22.56-.41,33.73-.484,5.294-.983,10.596-1.091,15.914-.089,4.413-.129,9.162,1.243,13.406,1.748,5.406,5.456,9.686,10.07,12.895,1.065.74,2.666.195,3.284-.861.699-1.194.206-2.542-.861-3.284-3.547-2.466-6.52-5.869-7.864-10.026-1.268-3.921-1.165-8.271-1.063-12.528.253-10.537,1.859-20.991,2.266-31.522.246-6.358.038-12.706-.946-18.999-.2-1.282-1.805-1.992-2.952-1.676-1.367.376-1.877,1.667-1.676,2.952h0Z"/><path class="g" d="M66.349,117.213c.203-.116.411-.219.618-.326.248-.129.097-.047-.071.02.147-.059.293-.116.442-.17.499-.181,1.009-.329,1.525-.451.303-.072.607-.134.913-.188.138-.024.277-.043.415-.068-.226.041-.254.028-.009.002.597-.064,1.195-.106,1.796-.113.551-.006,1.102.014,1.651.067.057.005.494.057.177.015-.315-.041.109.021.166.03.28.049.558.107.833.178.246.064.489.138.729.222.142.05.283.106.423.161-.243-.097-.048-.02.08.037.791.356,1.581.711,2.384,1.041,1.165.478,2.688-.517,2.952-1.676.318-1.396-.429-2.44-1.676-2.952.293.12-.128-.057-.226-.1-.151-.067-.302-.136-.453-.204-.331-.15-.662-.3-.996-.443-.694-.297-1.384-.584-2.12-.76-1.342-.32-2.755-.446-4.133-.414-2.682.063-5.49.607-7.841,1.946-1.091.622-1.558,2.203-.861,3.284.711,1.103,2.116,1.526,3.284.861h0Z"/><path class="g" d="M80.15,87.093c-.725-2.487-.145-8.176,4.553-8.591,6.199.129,6.428,7.02,4.293,10.227-1.748,2.626-6.789,3.654-8.846-1.636Z"/><path class="g" d="M43.325,87.704c-.668-2.496-.144-8.202,4.157-8.612,5.677.138,5.896,7.052,3.946,10.266-1.597,2.631-6.211,3.655-8.103-1.654Z"/><path class="g" d="M62.63,93.088c-.784,1.38-1.525,2.786-2.192,4.226-.35.756-.624,1.426-.653,2.272-.034,1.008.449,1.953,1.212,2.589.6.501,1.279.936,2.058,1.094.506.103,1.01.113,1.517.177.565.072,1.314-.32,1.697-.703.416-.416.73-1.099.703-1.697-.028-.621-.232-1.264-.703-1.697l-.486-.375c-.374-.217-.778-.326-1.211-.328-.243-.031-.488-.034-.73-.066l.638.086c-.187-.029-.364-.075-.542-.143l.573.242c-.22-.094-.415-.214-.606-.359l.486.375c-.121-.099-.237-.201-.341-.317l.375.486c-.036-.046-.067-.095-.091-.148l.242.573c-.033-.085-.054-.159-.069-.248l.086.638c-.01-.124-.005-.24.012-.363l-.086.638c.043-.229.116-.442.206-.656l-.242.573c.675-1.523,1.47-2.998,2.293-4.446.62-1.092.294-2.673-.861-3.284-1.139-.602-2.621-.305-3.284.861h0Z"/><path class="g" d="M109.626,126.978c3.824-3.376,7.185-7.189,10.148-11.338,1.96-2.744,3.848-5.648,5.269-8.714.545-1.175.332-2.586-.861-3.284-1.037-.607-2.736-.32-3.284.861-3.366,7.26-8.707,13.819-14.667,19.081-.972.858-.876,2.518,0,3.394.965.965,2.42.86,3.394,0h0Z"/><path class="g" d="M119.141,9.825C110.31,4.027,100.34.47,89.747.052c-9.524-.375-19.422,1.271-28.273,4.817-8.222,3.294-15.735,8.273-21.626,14.926-6.656,7.516-10.882,17.121-12.672,26.963-2.002,11.011-1.234,22.901,1.328,33.752.71,3.005,5.339,1.733,4.629-1.276-2.171-9.192-2.822-19.023-1.749-28.416,1.025-8.963,4.472-18.359,10.063-25.491,10.648-13.583,27.777-20.15,44.707-20.505,11.065-.232,21.345,3.095,30.564,9.149,2.59,1.7,4.997-2.454,2.423-4.145h0Z"/><path class="g" d="M96.711,128.831c-12.024,5.817-26.315,8.786-38.924,2.928-5.761-2.676-11.142-6.611-14.695-11.941-3.572-5.358-5.513-11.577-6.676-17.864-1.633-8.831-2.25-17.859-3.594-26.74-.194-1.283-1.809-1.991-2.952-1.676-1.372.377-1.871,1.666-1.676,2.952,1.266,8.364,1.952,16.818,3.32,25.164,1.123,6.855,3.15,13.743,6.848,19.677,7.556,12.126,22.186,18.955,36.27,18.388,8.633-.348,16.773-3.004,24.503-6.743,1.167-.564,1.479-2.228.861-3.284-.697-1.192-2.113-1.427-3.284-.861h0Z"/><path class="g" d="M128.754,79.112c2.356-1.644,5.528-1.28,7.42.47.085.079.162.173.238.261-.026-.03-.194-.268-.038-.055.134.184.257.378.37.576.223.391.353.74.484,1.184.424,1.442.486,2.937.417,4.431-.259,5.564-3.22,11.783-8.088,14.75-1.075.655-2.16.984-3.524,1.276-1.49.319-3.303.471-4.737-.159-1.186-.521-2.577-.348-3.284.861-.596,1.019-.332,2.76.861,3.284,3.902,1.713,8.321,1.134,12.124-.603,3.492-1.595,6.281-4.895,8.132-8.178,1.904-3.376,3.049-6.978,3.294-10.858.22-3.485-.293-7.424-2.771-10.077-3.295-3.527-9.406-4.038-13.32-1.307-1.062.741-1.553,2.101-.861,3.284.615,1.051,2.215,1.606,3.284.861h0Z"/><path class="g" d="M93.805,42.597c1.228,3.878,2.665,7.691,4.233,11.444,1.185,2.835,2.427,5.603,4.043,8.223,3.453,5.6,8.048,11.742,14.031,14.815,2.743,1.409,5.174-2.731,2.423-4.145-2.645-1.359-4.807-3.447-6.779-5.641-2.147-2.388-4.04-4.998-5.707-7.74-3.399-5.591-5.649-12.024-7.615-18.232-.929-2.934-5.565-1.681-4.629,1.276h0Z"/><path class="g" d="M94.315,39.977c-7.309,8.264-17.037,14.227-27.316,18.074-1.197.448-2.403.869-3.619,1.263-.12.039-1.195.293-1.219.385-.014.051.128.03.234.079-.093-.043.048.213.126.17.112-.061.093-1.238.104-1.355.132-1.412.371-2.81.71-4.188.378-1.537,1.081-3.153-.241-4.476-1.371-1.371-3.086-.819-4.382.267-1.323,1.108-2.623,2.244-3.941,3.358-2.422,2.048-4.858,4.08-7.316,6.085-5.366,4.377-10.842,8.576-16.519,12.541-1.061.741-1.553,2.101-.861,3.284.614,1.05,2.216,1.607,3.284.861,4.973-3.473,9.804-7.114,14.54-10.906,2.412-1.931,4.801-3.892,7.174-5.871,1.216-1.014,2.427-2.034,3.634-3.057.6-.508,1.199-1.018,1.797-1.528.498-.425,1.103-1.124,1.693-1.406l-1.211.328.225.021-1.211-.328.186.122-.861-.861.108.198-.328-1.211c-.028.691-.491,1.66-.641,2.382-.209,1.009-.36,2.027-.49,3.049-.254,1.997-.6,4.163.904,5.779,1.395,1.5,3.302,1.694,5.17,1.103,1.827-.577,3.635-1.215,5.419-1.913,6.91-2.704,13.515-6.208,19.414-10.728,3.187-2.442,6.166-5.114,8.828-8.124,2.04-2.307-1.343-5.714-3.394-3.394h0Z"/><path class="g" d="M109.146,124.055c.715,3.659,1.173,7.51,2.347,11.057.856,2.584,2.385,4.603,4.402,6.405,3.96,3.54,8.649,6.063,13.037,9.004,2.573,1.725,4.979-2.432,2.423-4.145-3.952-2.649-8.222-4.895-11.821-8.038-1.704-1.488-2.883-2.746-3.544-4.92-1.047-3.445-1.526-7.11-2.215-10.639-.249-1.273-1.771-2.001-2.952-1.676-1.33.365-1.926,1.676-1.676,2.952h0Z"/><path class="g" d="M47.574,151.702c4.588-1.871,9.315-3.377,13.916-5.213,4.401-1.756,9.931-3.609,10.646-9.251.163-1.288-1.22-2.4-2.4-2.4-1.432,0-2.236,1.108-2.4,2.4-.064.503-.515,1.083-1.032,1.569-.658.619-1.488,1.068-2.313,1.468-1.742.845-3.402,1.453-5.247,2.159-4.134,1.583-8.346,2.967-12.446,4.639-1.199.489-2.049,1.597-1.676,2.952.312,1.136,1.745,2.169,2.952,1.676h0Z"/><path class="g" d="M85.529,71.657c2.076,1.864,4.685,2.972,7.466,3.179.586.044,1.293-.299,1.697-.703.416-.416.73-1.099.703-1.697-.028-.621-.232-1.264-.703-1.697-.489-.449-1.033-.654-1.697-.703-.173-.013-.346-.03-.519-.052l.638.086c-.848-.117-1.671-.348-2.461-.674l.573.242c-.816-.344-1.583-.784-2.284-1.325l.486.375c-.173-.136-.341-.277-.504-.424-.474-.425-1.047-.703-1.697-.703-.589,0-1.292.261-1.697.703-.42.457-.732,1.058-.703,1.697.028.617.229,1.271.703,1.697h0Z"/><path class="g" d="M100.998,84.655c-.154,2.114-.247,4.235-.134,6.354.1,1.879.15,4.169,1.291,5.761,1.394,1.945,3.827,2.593,6.104,2.13,2.255-.458,3.63-2.297,4.426-4.312.462-1.171-.506-2.686-1.676-2.952-1.382-.315-2.457.423-2.952,1.676.251-.636-.122.224-.221.388-.042.07-.085.139-.132.207-.123.172-.126.177-.008.017.278-.186-.067.038-.139.12-.315.356.395-.196-.032.03-.067.036-.501.258-.17.112s-.128.028-.207.048c-.082.021-.164.039-.248.053-.183.033-.111.022.216-.032-.038-.027-.458.005-.513.004-.45-.005.318.096.045.007-.133-.043-.275-.073-.41-.11-.203-.075-.212-.077-.025-.005.183.078.178.069-.013-.027l-.142-.087c.238.198.29.239.157.123-.063-.054-.123-.111-.179-.173.186.266.231.326.135.179-.032-.081-.205-.254-.188-.348.121.292.151.352.091.18-.028-.082-.053-.165-.076-.248-.078-.279-.125-.561-.18-.845-.098-.509.053.543-.005-.067-.022-.23-.048-.46-.068-.69-.073-.829-.113-1.661-.126-2.494-.026-1.668.059-3.336.18-4.999.091-1.255-1.169-2.455-2.4-2.4-1.378.062-2.302,1.056-2.4,2.4h0Z"/><path class="f" d="M144.194,303.196c21.65.053,38.394.095,41.064.097-.812-17.797-2.581-61.124-4.437-77.431-2.248-19.75-2.957-40.782-15.25-57.432-8.464-11.463-20.364-15.621-32.776-22.141-13.753,11.548-30.128,16.656-46.545,16.685-6.187,0-12.472-.786-18.237-3.367-6.044-2.728-11.063-7.407-14.208-13.632-17.888,4.872-26.477,8.535-33,16.208-5.485,6.452-8.954,16.745-11.701,25.359-.323,1.086-.793,2.67-.793,2.67-6.614,22.28-8.515,45.664-1.264,65.165,4.261,11.461,13.283,17.029,24.516,19.238,1.003.197,2.003.338,3,.427.181,8.755.161,18.766,0,27.938,18.778,0,71.723.126,109.63.219Z"/><path class="g" d="M52.204,148.08c2.734,4.917,6.698,9.093,11.528,11.992,5.428,3.258,11.722,4.698,17.983,5.147,11.66.836,23.635-1.302,34.372-5.866,6.315-2.685,12.126-6.284,17.463-10.588,1.01-.814.848-2.546,0-3.394-.998-.998-2.382-.816-3.394,0-8.543,6.889-18.67,11.57-29.411,13.767-5.207,1.065-10.54,1.527-15.854,1.423-5.689-.111-11.571-.954-16.712-3.523-5.049-2.523-9.092-6.455-11.831-11.381-1.501-2.7-5.649-.282-4.145,2.423h0Z"/><path class="g" d="M140.189,215.94c.702,9.567.788,19.197.954,28.785.213,12.32.337,24.634-.104,36.951-.192,5.351-.444,10.703-.832,16.043-.094,1.294,1.17,2.4,2.4,2.4,1.377,0,2.306-1.102,2.4-2.4,1.637-22.546,1.266-45.205.6-67.784-.138-4.666-.276-9.339-.617-13.996-.095-1.293-1.035-2.4-2.4-2.4-1.225,0-2.495,1.1-2.4,2.4h0Z"/><path class="g" d="M32.165,275.037c.188,9.317,0,18.624,0,27.94,0,1.297,1.1,2.4,2.4,2.4,8.477,0,16.955.016,25.432.031,12.057.021,24.115.047,36.172.074,12.862.029,25.723.059,38.585.09,10.739.026,21.478.052,32.217.077,5.844.014,11.687.031,17.531.038.244,0,.489,0,.733,0,3.089,0,3.094-4.8,0-4.8-5.04,0-10.079-.019-15.119-.031-10.285-.024-20.57-.049-30.855-.074-12.758-.031-25.516-.061-38.273-.09-12.305-.028-24.609-.055-36.914-.077-9.075-.017-18.15-.034-27.225-.038-.761,0-1.523,0-2.284,0l2.4,2.4c0-9.316.188-18.623,0-27.94-.062-3.085-4.862-3.095-4.8,0h0Z"/><path class="g" d="M138.729,151.958c5.487,2.706,11.017,5.426,15.975,9.043,5.061,3.693,9.095,8.453,12.212,13.867,6.354,11.036,8.518,23.848,9.94,36.335,1.102,9.674,2.122,19.359,2.79,29.074.719,10.45,1.259,20.912,1.768,31.374.506,10.392.953,20.786,1.425,31.179.14,3.076,4.94,3.093,4.8,0-.91-20.046-1.711-40.101-3.029-60.125-.63-9.575-1.613-19.098-2.638-28.639-1.408-13.111-3.267-26.415-9.174-38.367-3.224-6.524-7.644-12.486-13.339-17.055-5.576-4.473-11.925-7.683-18.306-10.83-1.162-.573-2.597-.313-3.284.861-.619,1.059-.306,2.708.861,3.284h0Z"/><path class="e" d="M146.25,169.018c1.251-.556,1.494-.359,3.824-.637,2.792-.333,3.325-1.526,3.667-2.75.529-1.899.333-3.917-3-5.25l.069-.722c1.343-.273,2.277-.737,3.042-1.875,1.059-1.576.27-3.911-1.254-5.043-1.347-1.001-3.235-1.182-4.913-1.123,0,0-.857,0-2.034.002,1.04-1.309.816-1.851.463-4.164-.345-2.63-2.865-4.259-4.66-4.352-2.034-.105-5.176-.121-8.085.002.121-.573.205-.975.205-.975.889-3.333-.352-5.464-1.722-6.556-1.662-1.323-4.056-1.889-8.722.667-6.167,3.377-15.489,10.292-16.677,11.892-1.678,2.261-2.3,5.636-2.631,8.433s-.415,5.13-1.16,7.846c-.744,2.716-1.762,4.816-3.919,6.516-1.47,1.63-8.61,8.402-12.25,11.502l-5.651,4.813c8.638,8.575,13.091,13.472,20.98,21.389.448-.637.727-1.035.727-1.035,3.842-5.471,10.813-14.664,15.829-19.345,6.364-1.232,11.721-5.276,16.848-9.211,1.734-1.331,3.492-2.685,4.807-4.431,1.343-1.784,2.848-3.867,4.826-4.902.594-.311,1.034-.532,1.391-.691Z"/><path class="g" d="M88.19,184.128c2.376-2.027,4.666-4.16,6.939-6.301,1.797-1.693,3.651-3.368,5.311-5.199.843-.93.987-2.488,0-3.394-.92-.844-2.493-.993-3.394,0-1.66,1.831-3.514,3.506-5.311,5.199-2.273,2.142-4.562,4.274-6.939,6.301-.959.818-.904,2.565,0,3.394,1.02.937,2.372.872,3.394,0h0Z"/><path class="g" d="M104.621,208.809c4.48-6.371,9.176-12.701,14.757-18.192,2.205-2.17-1.189-5.564-3.394-3.394-5.833,5.74-10.81,12.484-15.507,19.164-.746,1.061-.191,2.668.861,3.284,1.199.701,2.536.202,3.284-.861h0Z"/><path class="g" d="M149.529,162.454c.587.25,1.22.505,1.69.946.22.207.16.128.287.38-.165-.328.114.664.052.179.065.514.044.393-.133,1.034-.053.192-.107.39-.184.574.211-.501-.227.243-.083.074.028-.033-.089.036-.145.055-.168.058-.359.136-.593.194-.67.166-1.364.195-2.05.252-1.258.103-2.292.329-3.443.853-1.502.685-2.855,1.576-4.015,2.759-1.213,1.236-2.125,2.711-3.272,4-2.376,2.67-5.576,4.794-8.493,6.825-3.366,2.343-6.921,4.356-10.949,5.277-3.01.688-1.736,5.317,1.276,4.629,4.117-.94,7.903-2.919,11.382-5.27,1.734-1.172,3.406-2.435,5.067-3.707,1.716-1.314,3.499-2.597,4.967-4.196,1.305-1.422,2.294-3.092,3.693-4.436,1.033-.993,2.31-1.637,3.4-1.906-.514.127.047.002.268-.017.34-.029.681-.052,1.021-.085,1.029-.099,2.087-.197,3.067-.544,1.64-.581,2.822-1.677,3.455-3.293,1.461-3.727-.216-7.181-3.843-8.722-1.192-.506-2.571-.357-3.284.861-.589,1.008-.339,2.774.861,3.284h0Z"/><path class="g" d="M127.909,146.069c.351-.087.704-.149,1.06-.214.632-.115-.281.021.251-.039.217-.024.434-.05.652-.073.981-.1,1.965-.165,2.95-.213,2.206-.108,4.418-.137,6.626-.095.475.009.949.022,1.423.041.194.008.388.019.583.026.474.018-.369-.165.138.039.542.217,1.203.519,1.618,1.03.248.305.381.573.487.992.141.557.207,1.144.287,1.714-.063-.445.013.21.017.248.032.341.12.432.053.068.047.255-.196.432.021.071-.146.243-.291.473-.462.7-.782,1.035-.165,2.684.861,3.284,1.23.72,2.5.176,3.284-.861.756-1,1.135-2.206,1.029-3.461-.13-1.541-.342-3.195-1.069-4.581-1.324-2.527-3.967-3.947-6.747-4.064-2.449-.103-4.908-.082-7.357.015-2.314.092-4.725.185-6.981.744-2.997.743-1.727,5.374,1.276,4.629h0Z"/><path class="g" d="M135.888,142.769c.594-2.455.534-5.113-.912-7.277-1.024-1.531-2.609-2.756-4.414-3.204-4.458-1.108-8.899,1.897-12.483,4.167-3.725,2.36-7.346,4.918-10.784,7.681-.883.71-1.811,1.426-2.539,2.301-1.671,2.006-2.462,4.688-2.916,7.215-.941,5.228-.254,11.87-4.793,15.58-1.004.821-.852,2.542,0,3.394.993.993,2.387.823,3.394,0,3.819-3.122,4.91-8.071,5.431-12.744.251-2.251.412-4.505.974-6.708.256-1.002.568-1.986,1.076-2.891.347-.618.264-.549.818-1.083,2.252-2.169,4.831-3.907,7.41-5.702,1.67-1.163,3.365-2.291,5.095-3.364,1.671-1.037,3.409-2.191,5.276-2.832.96-.329,1.653-.518,2.601-.431-.399-.037.457.127.584.169.352.116-.313-.165.005.005.15.08.297.164.442.252-.012-.007.495.377.259.179-.215-.18.252.258.292.3.188.204.392.476.556.882.347.86.223,1.916,0,2.834-.726,3.001,3.901,4.282,4.629,1.276h0Z"/><path class="g" d="M132.556,154.74c3.544-.263,7.094-.431,10.645-.564,1.703-.064,3.417-.18,5.121-.168,1.026.007,2.263.102,3.012.804.319.299.488.631.578,1.061.05.242.096.391-.133.7-.444.599-1.092.687-2.02.848-.194.034-.39.06-.585.09-.27.041.144-.019.161-.021-.103.013-.207.027-.31.039-.545.066-1.089.128-1.635.185-1.202.127-2.405.24-3.608.351-2.672.246-5.349.463-8.015.778-1.287.152-2.4.994-2.4,2.4,0,1.179,1.104,2.553,2.4,2.4,2.811-.333,5.635-.557,8.454-.819,2.444-.227,4.976-.35,7.377-.884,3.819-.848,6.175-4.585,4.596-8.313-1.617-3.82-5.612-4.509-9.331-4.381-4.773.165-9.545.341-14.308.694-1.293.096-2.4,1.034-2.4,2.4,0,1.225,1.1,2.496,2.4,2.4h0Z"/><path class="g" d="M52.384,143.874c-9.754,2.686-20.164,5.504-28.279,11.828-8.557,6.669-12.626,17.047-15.961,27.037-4.123,12.348-7.102,25.132-7.918,38.152-.789,12.591.354,26.13,5.595,37.755,4.351,9.652,13.295,15.561,23.386,17.912,5.951,1.387,11.987,1.239,17.857-.486,6.006-1.765,11.57-4.875,16.614-8.539,10.519-7.642,19.34-17.465,27.352-27.634,3.981-5.053,7.789-10.239,11.512-15.484.897-1.264,1.79-2.532,2.68-3.801.833-1.188,1.852-2.367,2.488-3.676.67-1.378.832-2.998.365-4.469-.514-1.62-1.729-2.711-2.897-3.874-4.188-4.171-8.297-8.418-12.408-12.664-2.039-2.106-4.083-4.206-6.144-6.289-1.05-1.062-2.104-2.12-3.161-3.174-1.276-1.272-2.472-2.581-4.309-2.973-3.675-.784-6.183,2.082-8.768,4.191-2.789,2.276-5.586,4.541-8.385,6.804-5.589,4.519-11.185,9.031-16.733,13.602-2.792,2.301-5.571,4.618-8.332,6.956-.99.838-.863,2.531,0,3.394.98.98,2.402.84,3.394,0,10.495-8.885,21.261-17.439,31.925-26.119,1.273-1.036,2.544-2.073,3.813-3.114.768-.63,1.546-1.488,2.541-.8,1.118.772,2.124,2.114,3.086,3.08,1.048,1.053,2.093,2.109,3.134,3.17,3.657,3.725,7.264,7.498,10.912,11.231,2.112,2.161,4.238,4.307,6.38,6.438.555.552,1.566,1.203,1.416,2.119-.083.505-.508.952-.789,1.353-.477.683-.954,1.366-1.433,2.049-3.411,4.867-6.86,9.708-10.442,14.452-7.277,9.637-15.166,18.947-24.325,26.859-8.411,7.266-18.958,14.003-30.504,13.573-8.955-.333-18.636-4.623-23.706-12.209-2.989-4.472-4.529-9.791-5.681-14.996-1.299-5.866-1.838-11.864-1.847-17.867-.018-12.625,2.343-25.113,5.923-37.183,1.524-5.138,3.185-10.272,5.264-15.215,1.959-4.658,4.368-9.245,7.887-12.919,5.579-5.823,13.443-8.889,21.235-11.347,2.828-.892,5.679-1.707,8.537-2.494,2.974-.819,1.711-5.451-1.276-4.629h0Z"/><path class="h" d="M188.731,136.423c7.817-3.497,15.497-7.294,23.322-10.773l-3.526-1.434c.85,4.016,1.337,8.1,2.104,12.131.31,1.627,2.248,2.062,3.526,1.434,7.971-3.914,15.905-7.904,23.872-11.827,1.163-.572,1.482-2.222.861-3.284-.693-1.186-2.117-1.436-3.284-.861-7.967,3.923-15.901,7.913-23.872,11.827l3.526,1.434c-.768-4.032-1.255-8.115-2.104-12.131-.351-1.659-2.21-2.019-3.526-1.434-7.825,3.479-15.505,7.276-23.322,10.773-1.183.529-1.465,2.251-.861,3.284.713,1.218,2.096,1.392,3.284.861h0Z"/><path class="h" d="M170.958,125.97c3.459-4.454,6.622-9.135,9.822-13.776,1.701-2.467,3.4-4.937,5.123-7.39.754-1.073,1.512-2.143,2.281-3.205.363-.501.728-1,1.098-1.496.145-.194.291-.388.437-.582.093-.122.186-.244.279-.366-.15.193-.142.183.024-.03h-3.394c2.636,3.147,4.984,6.523,7.555,9.722,1.058,1.316,2.962.63,3.769-.486,5.608-7.751,11.537-15.265,17.137-23.023.759-1.052.182-2.674-.861-3.284-1.21-.708-2.523-.193-3.284.861-5.6,7.757-11.529,15.271-17.137,23.023l3.769-.486c-2.571-3.199-4.918-6.575-7.555-9.722-.763-.911-2.645-.961-3.394,0-3.386,4.34-6.462,8.921-9.585,13.451-1.718,2.492-3.435,4.985-5.175,7.462-.776,1.105-1.558,2.206-2.35,3.3-.379.523-.761,1.045-1.147,1.563-.153.205-.306.41-.46.614-.049.065-.609.794-.345.454-.794,1.023-.997,2.397,0,3.394.828.828,2.595,1.03,3.394,0h0Z"/></g></g></svg>