<svg id="b" xmlns="http://www.w3.org/2000/svg" width="261.331" height="324.439" viewBox="0 0 261.331 324.439" style="color: initial !important;"><defs><style>.e{fill:#ffffff;}.f{fill:#211715;}.g{fill:#f2635f;}.h{fill:#645d5c;}</style></defs><g id="c"><g id="d"><path class="e" d="M194.466,86.329c1.68-1.269,3.822-1.609,5.604-1.385,3.878.487,5.352,2.644,5.955,3.885,1.799,3.711,1.114,10.169-.688,14.046-1.268,2.741-3.212,6.544-7.487,9.287-1.273.812-4.421,1.984-7.467,1.891-.198.626-.338,1.076-.338,1.076-.888,1.982-3.02,5.466-3.02,5.466-1.656,2.594-3.413,5.085-5.437,7.522.556,2.406,1.112,4.813,1.669,7.22.437,1.888.879,3.792,1.704,5.546,2.511,5.34,11.387,9.424,15.424,12.269-13.8,11.827-31.138,17.524-47.76,17.555-6.19,0-12.47-.79-18.24-3.37-4.981-2.247-9.261-5.819-12.373-10.498,3.822-1.431,7.969-2.96,10.626-4.207,2.524-.926,4.814-3.021,5.942-5.478-8.77-.22-16.5-3.15-23.944-8.929-8.795-6.827-12.829-17.847-14.495-30.103-.961-7.067-1.835-14.754-3.048-22.425,0,0-5.125-40.76,43.431-40.76,58.094,0,53.943,41.394,53.943,41.394Z"/><path class="h" d="M116.727,66.61c-.071-.532-.198-1.107-.409-1.753-.447-1.364-1.562-1.87-2.36-1.368-6.803,4.282-15.847,18.672-16.492,23.774,0,0-.087.69-.22,1.704-2.343-10.043-2.754-22.02-1.617-30.063,1.241-8.777,4.978-18.716,10.437-25.663,9.456-12.035,23.955-19.691,42.285-21.306,11.567-1.019,23.245.688,36.094,9.084l8.003,5.229c.759.65,1.518,1.301,1.518,1.301,7.74,6.63,11.7,14.38,14.47,23.92,1.39,4.81,2.05,9.8,1.91,14.79-.16,5.28-.09,17.59-3.65,24.53-.161-.707-.385-1.369-.672-1.96-.603-1.24-2.076-3.398-5.955-3.885-1.782-.224-3.924.116-5.604,1.385,0,0-2.124-.081-3.538-.121-.784-.022-1.536-.305-2.135-.811-2.026-1.711-5.898-5.52-5.898-5.52-11.512-18.427-26.061-22.699-29.221-23.787,0,0-4.979-.702-10.054-.87-10.323,2.868-19.404,11.431-24.204,14.616-1.156.767-2.663-.187-2.618-1.666.015-.497.002-1.005-.072-1.559Z"/><path class="f" d="M99.78,87.902c.084-.597.237-1.177.422-1.75.114-.351.243-.697.374-1.042.184-.484.156-.409.445-1.038.879-1.913,1.911-3.756,3.014-5.549,2.304-3.745,4.933-7.358,8.081-10.443.671-.657,1.366-1.302,2.11-1.875-.121.093.642-.375.742-.514l.201-.129c-.349.162-.68.18-.994.054-.185.091-.374-.73-.041.308.372,1.159.085,2.373.432,3.524.437,1.45,1.614,2.618,3.1,2.955,2.201.501,3.963-1.165,5.58-2.392,1.81-1.373,3.598-2.773,5.431-4.115,4.842-3.546,10.025-6.839,15.862-8.442,2.975-.817,1.712-5.449-1.276-4.629-5.519,1.515-10.561,4.382-15.222,7.645-2.06,1.443-4.056,2.974-6.051,4.505-.746.572-1.491,1.144-2.248,1.701-.327.241-.657.48-.99.712-.051.035-.551.327-.549.374-.011-.256.879.116.819.114.407.008-.002.771.18-.035.056-.25-.014-.591-.036-.847-.07-.789-.182-1.587-.405-2.348-.449-1.539-1.359-3.039-2.975-3.547-2.367-.743-4.363,1.132-6.004,2.59-3.531,3.14-6.447,7.06-9.009,11.008-1.347,2.077-2.603,4.225-3.67,6.461-.818,1.716-1.687,3.562-1.954,5.465-.179,1.282.312,2.578,1.676,2.952,1.123.309,2.771-.384,2.952-1.676h0Z"/><path class="f" d="M110.021,97.504c-.685-2.501-.192-8.229,4.122-8.665,5.697.106,5.957,7.042,4.018,10.278-1.587,2.65-6.212,3.704-8.14-1.613Z"/><path class="f" d="M185.656,18.947c-8.859-5.745-18.849-9.266-29.441-9.639-9.544-.336-19.452,1.351-28.308,4.933-8.293,3.354-15.852,8.412-21.764,15.164-6.594,7.531-10.762,17.119-12.52,26.937-1.989,11.106-1.156,23.1,1.49,34.023.727,3.001,5.357,1.73,4.629-1.276-2.244-9.265-2.961-19.192-1.903-28.677.999-8.954,4.398-18.311,9.924-25.474,10.636-13.787,28.006-20.487,45.073-20.853,10.985-.236,21.211,3.049,30.398,9.006,2.599,1.686,5.008-2.468,2.423-4.145h0Z"/><path class="f" d="M163.843,138.474c-12.031,5.905-26.36,8.983-39.049,3.176-5.794-2.651-11.227-6.569-14.822-11.895-3.616-5.357-5.603-11.583-6.806-17.888-1.69-8.853-2.361-17.907-3.761-26.811-.201-1.281-1.804-1.992-2.952-1.676-1.366.375-1.878,1.667-1.676,2.952,1.318,8.385,2.056,16.864,3.476,25.23,1.166,6.87,3.237,13.773,6.981,19.705,7.649,12.12,22.356,18.9,36.486,18.25,8.659-.399,16.812-3.103,24.546-6.899,1.163-.571,1.481-2.223.861-3.284-.694-1.187-2.116-1.434-3.284-.861h0Z"/><path class="f" d="M192.269,29.246c6.782,5.861,10.989,13.39,13.568,21.9,2.548,8.409,2.39,17.185,1.641,25.861-.364,4.215-.937,8.744-2.854,12.57-1.38,2.754,2.759,5.188,4.145,2.423,3.724-7.429,3.751-16.376,3.945-24.506.242-10.134-2.084-20.22-6.94-29.154-2.577-4.741-6.032-8.963-10.111-12.488-2.327-2.011-5.736,1.37-3.394,3.394h0Z"/><path class="f" d="M153.037,58.404c.993.34,1.988.673,2.967,1.052.342.133.682.271,1.021.41.107.044-.328-.147.106.046.238.107.478.21.716.318.899.408,1.786.846,2.658,1.31,4.734,2.519,8.974,5.817,12.685,9.682,2.895,3.014,5.409,6.332,7.634,9.867,1.641,2.608,5.796.202,4.145-2.423-6.491-10.314-15.554-18.891-26.912-23.529-1.231-.503-2.486-.93-3.743-1.361-2.929-1.003-4.186,3.632-1.276,4.629h0Z"/><path class="f" d="M133.278,126.98c.203-.117.408-.229.619-.331.11-.053.221-.102.332-.153-.495.229-.074.038.04-.004.499-.184,1.01-.336,1.527-.461.303-.074.609-.138.915-.194.138-.025.277-.047.416-.071.239-.04.222-.025-.008-.002.6-.061,1.198-.114,1.801-.124.553-.009,1.106.008,1.657.058.056.005.496.044.179.012-.313-.032.11.018.168.028.281.047.56.104.837.174.247.062.492.135.733.219.143.05.284.105.425.159-.244-.093-.043-.021.084.035.797.349,1.588.708,2.394,1.033,1.167.472,2.687-.512,2.952-1.676.317-1.39-.426-2.447-1.676-2.952l-.23-.093c.152.063.152.062,0-.004-.152-.067-.304-.135-.455-.203-.333-.149-.666-.296-1.002-.438-.698-.296-1.389-.581-2.129-.752-1.348-.313-2.764-.435-4.147-.395-2.688.078-5.505.633-7.855,1.99-1.088.628-1.561,2.198-.861,3.284.708,1.097,2.12,1.533,3.284.861h0Z"/><path class="f" d="M146.968,96.678c-.742-2.492-.192-8.203,4.519-8.646,6.221.094,6.49,7.007,4.366,10.237-1.739,2.645-6.791,3.705-8.886-1.591Z"/><path class="f" d="M129.437,102.786c-.779,1.389-1.514,2.804-2.175,4.253-.346.759-.624,1.43-.648,2.278-.028,1.01.45,1.953,1.218,2.589.603.499,1.283.936,2.064,1.09.508.1,1.011.111,1.52.173.568.069,1.312-.317,1.697-.703.416-.416.73-1.099.703-1.697-.028-.621-.232-1.264-.703-1.697l-.486-.375c-.374-.217-.778-.326-1.211-.328-.244-.029-.489-.032-.733-.062l.638.086c-.218-.033-.424-.089-.627-.175l.573.242c-.189-.089-.36-.196-.527-.322l.486.375c-.121-.099-.239-.2-.344-.316l.375.486c-.037-.046-.068-.095-.093-.148l.242.573c-.034-.085-.055-.159-.071-.249l.086.638c-.011-.124-.006-.241.01-.365l-.086.638c.042-.23.114-.444.202-.66l-.242.573c.668-1.532,1.458-3.017,2.275-4.474.614-1.095.299-2.671-.861-3.284-1.133-.599-2.628-.309-3.284.861h0Z"/><path class="f" d="M176.76,136.545c3.838-3.428,7.21-7.299,10.171-11.505,1.931-2.742,3.789-5.644,5.185-8.701.538-1.178.336-2.583-.861-3.284-1.032-.604-2.743-.324-3.284.861-3.336,7.305-8.655,13.919-14.606,19.235-.967.864-.88,2.514,0,3.394.961.961,2.425.866,3.394,0h0Z"/><path class="f" d="M195.677,88.401c2.252-1.591,5.661-1.445,7.46.413.078.081.441.518.326.362-.111-.15.189.308.253.419.226.391.363.742.497,1.186.435,1.446.509,2.943.448,4.446-.228,5.585-3.151,11.853-8.023,14.861-2.021,1.248-5.782,2.268-8.291,1.183-1.189-.514-2.574-.352-3.284.861-.593,1.013-.335,2.767.861,3.284,3.927,1.697,8.341,1.099,12.154-.661,3.494-1.613,6.278-4.944,8.115-8.245,1.89-3.396,3.025-7.015,3.249-10.908.202-3.507-.338-7.43-2.827-10.094-3.3-3.533-9.466-4.001-13.361-1.251-1.057.747-1.555,2.097-.861,3.284.612,1.046,2.219,1.613,3.284.861h0Z"/><path class="f" d="M152.416,81.394c2.096,1.878,4.728,2.995,7.533,3.201.586.043,1.293-.299,1.697-.703.416-.416.73-1.099.703-1.697-.028-.621-.232-1.264-.703-1.697-.489-.448-1.033-.654-1.697-.703-.175-.013-.35-.03-.524-.052l.638.086c-.889-.121-1.751-.368-2.577-.716l.573.242c-.793-.342-1.539-.774-2.223-1.301l.486.375c-.175-.138-.345-.28-.51-.428-.474-.425-1.047-.703-1.697-.703-.589,0-1.292.261-1.697.703-.42.457-.732,1.058-.703,1.697.028.616.229,1.272.703,1.697h0Z"/><path class="f" d="M168.08,94.54c-.154,2.138-.245,4.283-.13,6.425.102,1.895.154,4.206,1.306,5.811,1.404,1.955,3.853,2.606,6.143,2.138,2.27-.463,3.654-2.314,4.454-4.344.461-1.171-.505-2.685-1.676-2.952-1.381-.315-2.458.422-2.952,1.676-.206.522.256-.45-.025.036-.069.12-.129.244-.201.363-.069.114-.399.424-.143.229.277-.211-.079.052-.142.124-.317.359.392-.194-.037.035-.066.035-.503.262-.175.115s-.133.031-.212.051c-.083.022-.166.039-.25.053-.183.033-.112.022.212-.031-.029-.023-.472.005-.519.005-.451-.004.311.095.038.006-.134-.044-.278-.073-.415-.111-.469-.129.341.252-.046-.035-.357-.265.212.248.01.032-.064-.054-.125-.112-.182-.174.184.264.228.322.132.175-.036-.09-.201-.247-.191-.351.119.288.149.347.089.176-.028-.083-.054-.167-.077-.251-.079-.282-.127-.568-.183-.854-.099-.511.053.537-.007-.075-.023-.233-.048-.465-.069-.698-.074-.838-.115-1.68-.129-2.521-.028-1.687.057-3.373.177-5.055.09-1.255-1.168-2.455-2.4-2.4-1.377.062-2.303,1.056-2.4,2.4h0Z"/><path class="e" d="M52.326,173.022c-.763,1.336,10.088-17.536,14.441-29.28.598-1.614,1.005-3.001,1.217-4.534.68-8.359-2.297-16.205-4.63-27.949-.708-3.563-2.759-8.718-2.267-12.334.554-4.073,1.081-6.839,3.034-10.543,3.973-7.534,11.015-15.415,15.166-20.726,1.68-2.149,3.146-3.477,5.731-4.558s6.191.303,6.561,1.241c0,0,.055.138.152.386.797-.465,1.644-.832,2.527-1.049,3.099-.763,6.862,2.699,5.421,6.183l.002.699c.823.04,1.602.356,2.303.958,1.961,1.688,1.371,4.88-.129,7.017-1.323,1.885-3.187,4.689-5.261,7.896,2.465.113,4.753.423,5.807,1.799,1.198,1.564,1.167,3.708.541,4.745-2.353,3.899-3.872,6.265-6.222,10.766-1.414,2.709-5.142,10.283-5.58,13.244-.29,1.962-.006,3.968.518,5.871,1.768,6.421,3.298,5.105,4.768,12.145.705,3.376-.922,7.458-4.25,9.851-2.135,13.544-3.403,21.881-5.025,32.198l-34.825-4.024Z"/><path class="f" d="M89.465,177.684c1.604-10.207,3.172-20.42,4.777-30.627.201-1.279-.327-2.582-1.676-2.952-1.14-.313-2.75.388-2.952,1.676-1.606,10.207-3.173,20.42-4.777,30.627-.201,1.279.327,2.582,1.676,2.952,1.14.313,2.75-.388,2.952-1.676h0Z"/><path class="f" d="M70.384,139.208c.421-5.586-.728-11.133-1.99-16.545-.752-3.226-1.547-6.442-2.239-9.683-.625-2.929-1.413-5.792-2.117-8.7-.672-2.774-.661-5.143-.134-7.942.552-2.935,1.588-5.574,3.069-8.162,3.112-5.437,7.109-10.306,11.054-15.148,1.755-2.155,3.396-4.832,5.661-6.485,1.084-.791,2.372-1.508,3.747-1.436.568.03,1.132.15,1.666.35.227.085.242.188.449.211.254.167.27.166.05,0-.173-.28-.204-.32-.093-.119,1.439,2.735,5.583.312,4.145-2.423-1.325-2.52-5.428-3.085-7.913-2.693-3.017.476-5.772,2.638-7.673,4.931-4.155,5.013-8.344,10.086-12.069,15.43-3.958,5.678-6.97,11.755-7.371,18.782-.177,3.106.833,6.251,1.642,9.213.929,3.401,1.548,6.881,2.354,10.313,1.55,6.596,3.479,13.26,2.963,20.104-.098,1.294,1.173,2.4,2.4,2.4,1.38,0,2.302-1.102,2.4-2.4h0Z"/><path class="f" d="M73.513,91.942c3.942-6.542,8.126-12.998,13.046-18.855,2.049-2.439,4.327-5.583,7.383-6.807,1-.4,1.783-.442,2.683.257.92.714,1.123,1.637.739,2.683-.446,1.217.5,2.629,1.676,2.952,1.338.368,2.505-.455,2.952-1.676,1.431-3.908-1.346-8.195-5.266-9.134-4.378-1.048-8.342,2.518-11.056,5.472-6.308,6.867-11.503,14.718-16.303,22.684-1.598,2.653,2.55,5.068,4.145,2.423h0Z"/><path class="f" d="M78.829,101.041c2.447-4.163,5.054-8.237,7.69-12.284,1.538-2.362,3.097-4.71,4.696-7.03.724-1.05,1.456-2.094,2.203-3.127.319-.44.64-.879.966-1.314.139-.186.279-.371.419-.555.014-.018.239-.309.081-.106-.175.225.168-.212.201-.254,1.05-1.311,3.134-4.091,4.885-3.332,2.24.971-.148,4.21-.964,5.402-3.056,4.459-5.959,9.025-8.833,13.603-3.272,5.212-6.548,10.447-9.499,15.85-1.481,2.712,2.662,5.137,4.145,2.423,2.812-5.148,5.924-10.139,9.035-15.11s6.266-9.958,9.608-14.795c1.977-2.861,3.245-6.833.861-9.878-2.731-3.488-7.247-2.623-10.27-.091-1.827,1.531-3.235,3.609-4.627,5.523-1.693,2.328-3.311,4.711-4.905,7.106-3.396,5.101-6.731,10.262-9.837,15.546-1.569,2.669,2.578,5.087,4.145,2.423h0Z"/><path class="f" d="M98.26,88.948c.696.083,1.755.195,2.244.742s.615,1.532.341,2.173c.163-.382-.267.38-.31.451-.179.295-.358.591-.537.886-.27.445-.541.89-.811,1.335-.641,1.056-1.278,2.115-1.897,3.184-2.101,3.623-4.013,7.36-5.728,11.181-.826,1.839-1.645,3.701-2.267,5.621-.74,2.283-.779,4.601-.392,6.962.376,2.293,1.147,4.587,2.194,6.661.58,1.15,1.515,2.569,1.9,3.527.81,2.013,1.528,4.321,1.016,6.434-.549,2.266-2.013,4.109-4.006,5.287-2.658,1.57-.246,5.721,2.423,4.145,4.566-2.697,7.308-7.888,6.312-13.177-.426-2.262-1.175-4.494-2.3-6.505-.923-1.65-1.684-3.027-2.228-4.811-.709-2.327-1.097-4.653-.368-7.001.6-1.934,1.431-3.797,2.277-5.634,1.973-4.288,4.195-8.448,6.629-12.491,1.602-2.66,3.493-4.998,2.853-8.282-.735-3.77-3.911-5.077-7.344-5.487-1.289-.154-2.4,1.213-2.4,2.4,0,1.425,1.107,2.246,2.4,2.4h0Z"/><path class="f" d="M50.254,171.81c-.013.022-.025.044-.038.067-1.532,2.721,2.422,4.956,4.145,2.423,1.673-2.461,2.956-5.312,4.351-7.932,2.837-5.326,5.583-10.714,8.012-16.24,1.556-3.541,3.115-7.018,3.374-10.926.086-1.295-1.164-2.4-2.4-2.4-1.37,0-2.314,1.101-2.4,2.4-.194,2.936-1.485,5.687-2.653,8.353-1.21,2.763-2.509,5.486-3.85,8.187-2.261,4.556-4.643,9.054-7.106,13.504-.48.868-.915,1.81-1.474,2.632l4.145,2.423c.013-.022.025-.044.038-.067,1.533-2.687-2.612-5.108-4.145-2.423h0Z"/><path class="e" d="M241.439,182.05c9.908,17.035,10.747,37.441,12.941,56.718,1.853,16.281,3.914,59.184,4.55,83.143-17.615.014-126.539.115-164.131.128-.393-17.316-1.173-40.541-2.442-61.287-.444.421-.68.645-.68.645-6.041,5.736-15.264,8.876-23.986,9.54-8.722.665-17.914-1.684-24.401-7.977-6.002-5.822-7.749-14.425-8.765-23.075-1.016-8.65,2.377-26.842,4.054-33.23,2.774-10.571,16.305-47.051,20.58-55.907.329-.682,1.025-1.048,1.724-.914,4.953.953,22.866,4.071,32.221,5.748,1.131.203,1.899,1.332,1.742,2.56-.395,3.098-.837,6.641-1.307,10.458,4.629-2.565,10.241-5.675,10.241-5.675,6.384-3.03,11.249-4.975,17.51-7.221,3.155,5.236,7.716,9.206,13.093,11.632,5.77,2.58,12.05,3.37,18.24,3.37,17.03-.032,34.811-6.012,48.768-18.438,11.642,6.119,27.544,12.247,36.488,24.36,1.302,1.763,2.484,3.572,3.559,5.421Z"/><path class="g" d="M71.638,40.841c.264.34-.296-.389-.345-.454-.154-.204-.307-.409-.46-.614-.357-.48-.71-.962-1.062-1.446-.821-1.132-1.63-2.272-2.435-3.416-1.741-2.476-3.457-4.97-5.175-7.462-3.123-4.53-6.199-9.11-9.585-13.451-.752-.964-2.635-.906-3.394,0-2.636,3.147-4.984,6.523-7.555,9.722l3.769.486c-5.608-7.751-11.537-15.265-17.137-23.023-.758-1.049-2.088-1.56-3.284-.861-1.036.606-1.624,2.227-.861,3.284,5.6,7.757,11.529,15.271,17.137,23.023.807,1.116,2.712,1.802,3.769.486,2.571-3.199,4.919-6.576,7.555-9.722h-3.394c.166.213.174.223.024.03.093.122.186.244.279.366.146.194.292.387.437.582.342.459.68.92,1.016,1.384.797,1.099,1.582,2.206,2.362,3.317,1.723,2.453,3.421,4.922,5.123,7.39,3.2,4.641,6.363,9.322,9.822,13.776.796,1.025,2.558.836,3.394,0,1.011-1.011.798-2.367,0-3.394h0Z"/><path class="g" d="M52.893,50.544c-7.817-3.497-15.497-7.294-23.322-10.773-1.315-.585-3.175-.224-3.526,1.434-.85,4.016-1.337,8.1-2.104,12.131l3.526-1.434c-7.971-3.914-15.905-7.904-23.872-11.827-1.162-.572-2.597-.313-3.284.861-.619,1.058-.307,2.709.861,3.284,7.967,3.923,15.901,7.913,23.872,11.827,1.277.627,3.216.192,3.526-1.434.768-4.032,1.255-8.115,2.104-12.131l-3.526,1.434c7.825,3.479,15.505,7.276,23.322,10.773,1.182.529,2.58.342,3.284-.861.599-1.025.328-2.752-.861-3.284h0Z"/><path class="f" d="M124.623,151.987c-7.495,2.619-14.873,5.466-22.053,8.865-1.171.555-1.475,2.234-.861,3.284.701,1.199,2.108,1.418,3.284.861,6.807-3.223,13.8-5.898,20.906-8.382,1.223-.427,2.036-1.642,1.676-2.952-.326-1.187-1.723-2.106-2.952-1.676h0Z"/><path class="f" d="M205.946,236.179c.341,9.129.549,18.263.801,27.395.369,13.375.732,26.751,1.122,40.125.178,6.087.358,12.174.567,18.26.106,3.08,4.906,3.095,4.8,0-.406-11.846-.728-23.695-1.058-35.543-.352-12.622-.69-25.244-1.051-37.865-.118-4.124-.227-8.249-.381-12.372-.115-3.079-4.915-3.094-4.8,0h0Z"/><path class="f" d="M90.194,218.628c2.04-20,4.445-39.97,6.979-59.912.374-2.94-1.364-5.078-4.215-5.588-2.112-.378-4.225-.752-6.338-1.126-4.771-.844-9.542-1.684-14.312-2.53-3.503-.622-6.999-1.289-10.504-1.898-2.546-.442-4.165.73-5.188,2.965-.582,1.27-1.128,2.557-1.67,3.844-6.152,14.609-11.645,29.596-16.565,44.663-2.072,6.344-3.543,12.747-4.627,19.336-.79,4.805-1.454,9.656-1.719,14.521-.259,4.747.244,9.387,1.13,14.055,1.044,5.506,2.877,10.936,6.37,15.39s8.562,7.588,13.917,9.344c10.704,3.512,23.385,1.632,33.17-3.721,2.441-1.335,4.72-2.977,6.752-4.878,2.261-2.115-1.139-5.504-3.394-3.394-7.428,6.949-19.012,9.797-28.967,8.746-5.026-.531-10.068-2.36-14.078-5.471s-6.495-7.437-7.937-12.252c-1.331-4.448-2.192-9.267-2.256-13.92-.059-4.244.391-8.508.967-12.707.934-6.813,2.154-13.653,4.176-20.235,4.45-14.488,9.87-28.758,15.491-42.827.588-1.471,1.183-2.94,1.792-4.402.073-.175.357-.852.286-.683-.077.183.2-.469.268-.627.256-.598.516-1.194.782-1.788.176-.393.435-.807.559-1.219.311-1.031-.55.518-.679-.138.01.05.905.171.959.181,1.523.284,3.049.559,4.574.832,8.54,1.533,17.089,3.018,25.631,4.544.155.028.899.096.923.12,0,0-.166-1.34-.024.291.084.963-.273,2.154-.394,3.115-.275,2.19-.547,4.38-.817,6.57-.609,4.943-1.206,9.887-1.794,14.832-1.179,9.916-2.329,19.836-3.396,29.764-.222,2.068-.44,4.136-.651,6.205-.132,1.291,1.197,2.4,2.4,2.4,1.407,0,2.268-1.105,2.4-2.4h0Z"/><path class="f" d="M88.146,237.101c2.171,22.379,3.056,44.897,3.771,67.362.187,5.858.347,11.716.481,17.576.03,1.297,1.076,2.4,2.4,2.4,9.683-.003,19.367-.01,29.05-.016,12.657-.009,25.315-.018,37.972-.029,13.25-.011,26.499-.022,39.749-.033,11.432-.01,22.863-.02,34.295-.03,7.204-.006,14.407-.013,21.611-.019.485,0,.97,0,1.454-.001,1.272-.001,2.435-1.099,2.4-2.4-.302-11.314-.763-22.624-1.295-33.929-.553-11.728-1.176-23.456-2.024-35.166-.774-10.679-1.893-21.347-3.168-31.977-1.642-13.69-4.197-27.558-11.139-39.667-3.471-6.055-7.912-11.205-13.443-15.458-5.252-4.039-11.085-7.214-16.991-10.18-1.408-.707-2.821-1.403-4.234-2.1-1.162-.573-2.597-.313-3.284.861-.619,1.059-.306,2.708.861,3.284,11.539,5.69,23.556,11.625,30.879,22.667,7.443,11.223,10.469,24.553,12.193,37.733,2.869,21.943,4.28,44.025,5.363,66.117.618,12.599,1.146,25.205,1.482,37.815l2.4-2.4c-6.539.005-13.078.011-19.616.017-11.046.01-22.093.019-33.139.029-13.157.011-26.315.023-39.472.033-12.858.01-25.716.021-38.574.03-10.148.007-20.297.014-30.445.018-.962,0-1.923,0-2.885.001l2.4,2.4c-.512-22.466-1.314-44.943-2.833-67.366-.397-5.863-.852-11.723-1.419-17.572-.125-1.29-1.013-2.4-2.4-2.4-1.201,0-2.526,1.102-2.4,2.4h0Z"/><path class="f" d="M136.511,145.93c-1.292,2.68-3.404,3.899-6.023,5.054-2.98,1.314-6.066,2.399-9.114,3.54-1.349.505-2.372,2.136-1.434,3.526,3.232,4.787,7.619,8.736,12.871,11.192,5.907,2.762,12.429,3.775,18.908,3.859,11.554.15,23.106-2.455,33.556-7.352,6.077-2.848,11.701-6.551,16.808-10.9,1.265-1.077.68-2.957-.486-3.769-3.771-2.626-8.023-4.563-11.489-7.624-1.856-1.639-3.052-3.326-3.767-5.719-.969-3.241-1.595-6.609-2.357-9.903-.696-3.008-5.325-1.735-4.629,1.276.81,3.502,1.43,7.127,2.558,10.543.911,2.758,2.408,5.024,4.554,6.977,3.824,3.48,8.5,5.665,12.707,8.595l-.486-3.769c-8.251,7.028-18.114,12.017-28.614,14.666-10.366,2.615-22.252,3.525-32.487-.077-5.492-1.932-10.245-5.59-13.503-10.415l-1.434,3.526c3.552-1.329,7.111-2.642,10.585-4.167,3.179-1.396,5.877-3.429,7.421-6.632.562-1.167.32-2.593-.861-3.284-1.051-.615-2.718-.312-3.284.861h0Z"/></g></g></svg>