<svg id="b" xmlns="http://www.w3.org/2000/svg" width="254.282" height="314.905" viewBox="0 0 254.282 314.905" style="color: initial !important;"><defs><style>.e{fill:#ffffff;}.f{fill:#f8b8b4;}.g{fill:#211715;}.h{fill:#f2635f;}.i{fill:#645d5c;}</style></defs><g id="c"><g id="d"><path class="i" d="M210.594,163.564c9.476-4.581,9.552-11.184,9.581-15.148.071-5.651-.793-10.032-2.608-15.514-2.232-6.842-6.353-20.729-6.222-45.425.534-4.739.492-10.88.339-15.633-.078-2.431-.181-4.487-.26-5.833-.899-16.102-10.312-34.56-22.342-41.665-14.556-11.224-27.552-13.553-40.431-12.492-18.276,1.505-32.769,9.052-42.261,20.991-5.48,6.893-9.261,16.776-10.548,25.515-1.193,8.105-.829,20.233,1.522,30.327,2.129,19.31,101.671,74.484,101.671,74.484l11.558.392Z"/><path class="g" d="M192.414,29.783c7.581,6.933,12.536,16.668,15.058,26.535,1.269,4.964,1.623,9.943,1.797,15.045.097,2.84.145,5.682.101,8.523-.045,2.858-.425,5.717-.427,8.566-.007,10.261.704,20.561,2.6,30.655.6,3.193,1.329,6.362,2.204,9.491.893,3.189,2.048,6.303,2.851,9.516.771,3.082,1.159,6.193,1.18,9.371.006.859.001,1.722-.036,2.58-.018.406-.049.811-.084,1.216-.012.141-.029.282-.046.422.068-.546-.043.231-.062.338-.356,1.943-.855,3.256-2.046,4.84-1.497,1.991-3.833,3.48-6.121,4.609-1.162.573-1.482,2.221-.861,3.284.693,1.185,2.117,1.437,3.284.861,4.396-2.169,8.139-5.46,9.806-10.168,1.221-3.448,1.119-7.5.842-11.089-.599-7.777-3.772-15.014-5.465-22.577-2.121-9.471-2.999-19.178-3.201-28.869-.127-6.096.481-12.157.37-18.261-.099-5.469-.265-10.974-1.318-16.357-2.305-11.781-8.094-23.754-17.031-31.926-2.276-2.081-5.68,1.304-3.394,3.394h0Z"/><path class="f" d="M166.531,312.307c-27.174-.062-53.277-.114-65.322-.114.316-18.814.084-41.227-1.401-48.952-.259-1.337-.586-3.051-.934-4.966-9.555,4.851-19.835,9.562-30.695,10.307-8.643.593-17.757-1.577-24.197-7.358-5.959-5.348-9.099-13.272-10.122-21.204-1.023-7.931,2.306-24.602,3.956-30.455,2.871-10.186,7.883-23.414,11.275-29.054.56-.931,2.386-1.477,3.178-.732,4.339,4.085,10.022,7.065,20.931,6.882,4.626-.078,8.317-.79,11.715-2.162,0-1.561.159-6.533.159-6.533l11.117-8.845c3.842-2.728,4.933-3.907,10.077-6.294,3.648-1.693,11.074-4.915,14.908-6.318,3.151,5.573,7.874,9.781,13.479,12.311,5.765,2.581,12.05,3.367,18.237,3.367,16.417-.029,32.793-5.136,46.546-16.685,12.411,6.52,24.311,10.679,32.775,22.141,12.294,16.649,13.002,37.682,15.25,57.432,1.856,16.308,3.625,59.638,4.437,77.428-4.362,0-45.991-.109-85.369-.198Z"/><path class="e" d="M194.183,86.256c1.682-1.255,3.819-1.582,5.593-1.348,3.862.507,5.319,2.666,5.912,3.905,1.771,3.708,1.052,10.141-.766,13.993-1.28,2.724-3.238,6.503-7.515,9.212-1.347.849-4.788,2.086-7.976,1.807,2.234-1.683-2.861,6.535-2.861,6.535-2.548,3.94-5.327,7.64-8.939,11.265.531,2.37,1.066,4.743,1.6,7.116.418,1.856.841,3.728,1.641,5.454,2.267,4.893,12.935,10.05,16.862,12.697-13.392,10.572-29.098,15.271-44.843,15.298-6.187,0-12.472-.786-18.237-3.367-5.512-2.487-10.171-6.599-13.335-12.026,3.26-1.292,6.576-2.616,8.803-3.707,2.866-1.116,6.471-3.194,6.278-6.629-8.026-.588-15.179-3.531-22.071-8.945-8.726-6.854-12.683-17.859-14.272-30.082-.917-7.048-1.744-14.713-2.91-22.366,0,0-.03-.198-.06-.395l1.7-1.205c.708-.502,1.824-1.221,2.748-1.891,8.455-6.095,17.501-13.584,25.868-20.772.348-.299.87.044.732.481-.792,2.521-1.21,5.152-1.373,7.877-.086,1.43,1.309,2.487,2.678,2.066,13.043-4.015,25.136-11.129,33.227-20.355,1.664,5.372,4.172,11.579,5.804,15.134,2.564,5.583,9.36,15.152,15.492,18.216,0,0,6.255,2.315,7.836,2.315,1.667,0,2.383-.282,2.383-.282Z"/><path class="e" d="M97.706,88.898c-.178-1.275-.363-2.553-.557-3.831,0,0-.03-.197-.06-.395l1.7-1.205c.708-.502,1.824-1.221,2.748-1.891,8.455-6.095,17.501-13.584,25.868-20.772.348-.299.87.044.732.481-.792,2.521-1.21,5.152-1.373,7.877-.086,1.43,1.309,2.487,2.678,2.066,13.043-4.015,25.136-11.129,33.227-20.355,1.665,5.373,4.172,11.579,5.804,15.134,2.564,5.583,9.36,15.152,15.492,18.216l10.22,2.033c1.682-1.255,3.819-1.582,5.593-1.348,3.862.507,5.319,2.666,5.912,3.905,1.771,3.708,1.052,10.141-.766,13.993-1.28,2.724-3.238,6.503-7.515,9.212-1.253.789-4.318,1.915-7.307,1.846-.257.557-.489,1.066-.489,1.066-.896,1.97-3.041,5.43-3.041,5.43-2.549,3.94-5.328,7.642-8.941,11.267.534,2.371,1.068,4.742,1.602,7.114.418,1.856.841,3.728,1.641,5.454,2.267,4.893,12.935,10.05,16.862,12.697-13.392,10.572-29.098,15.271-44.843,15.298-6.187,0-12.472-.786-18.237-3.367-5.512-2.487-10.171-6.599-13.335-12.026,3.26-1.292,6.576-2.616,8.803-3.707,2.865-1.116,6.47-3.193,6.279-6.629-8.026-.588-15.18-3.531-22.072-8.945-8.353-6.561-12.336-16.926-14.055-28.522-.077-.518-.149-1.038-.217-1.561-.764-5.872-1.465-12.171-2.352-18.535Z"/><path class="g" d="M132.99,126.428c.203-.116.411-.219.618-.326.248-.129.097-.047-.071.02.147-.059.293-.116.442-.17.499-.181,1.009-.329,1.525-.451.303-.072.607-.134.913-.188.138-.024.277-.043.415-.068-.226.041-.254.028-.009.002.597-.064,1.195-.106,1.796-.113.551-.006,1.102.014,1.651.067.057.005.494.057.177.015-.315-.041.109.021.166.03.28.049.558.107.833.178.246.064.489.138.729.222.142.05.283.106.423.161-.243-.097-.048-.02.08.037.791.356,1.581.711,2.384,1.041,1.165.478,2.688-.517,2.952-1.676.318-1.396-.429-2.44-1.676-2.952.293.12-.128-.057-.226-.1-.151-.067-.302-.136-.453-.204-.331-.15-.662-.3-.996-.443-.694-.297-1.384-.584-2.12-.76-1.342-.32-2.755-.446-4.133-.414-2.682.063-5.49.607-7.841,1.946-1.091.622-1.558,2.203-.861,3.284.711,1.103,2.116,1.526,3.284.861h0Z"/><path class="g" d="M146.791,96.309c-.725-2.487-.145-8.176,4.553-8.591,6.199.129,6.428,7.02,4.293,10.227-1.748,2.626-6.789,3.654-8.846-1.636Z"/><path class="g" d="M109.966,96.92c-.668-2.496-.144-8.202,4.157-8.612,5.677.138,5.896,7.052,3.946,10.266-1.597,2.631-6.211,3.655-8.103-1.654Z"/><path class="g" d="M129.27,102.303c-.784,1.38-1.525,2.786-2.192,4.226-.35.756-.624,1.426-.653,2.272-.034,1.008.449,1.953,1.212,2.589.6.501,1.279.936,2.058,1.094.506.103,1.01.113,1.517.177.565.072,1.314-.32,1.697-.703.416-.416.73-1.099.703-1.697-.028-.621-.232-1.264-.703-1.697l-.486-.375c-.374-.217-.778-.326-1.211-.328-.243-.031-.488-.034-.73-.066l.638.086c-.187-.029-.364-.075-.542-.143l.573.242c-.22-.094-.415-.214-.606-.359l.486.375c-.121-.099-.237-.201-.341-.317l.375.486c-.036-.046-.067-.095-.091-.148l.242.573c-.033-.085-.054-.159-.069-.248l.086.638c-.01-.124-.005-.24.012-.363l-.086.638c.043-.229.116-.442.206-.656l-.242.573c.675-1.523,1.47-2.998,2.293-4.446.62-1.092.294-2.673-.861-3.284-1.139-.602-2.621-.305-3.284.861h0Z"/><path class="g" d="M176.267,136.194c3.824-3.376,7.185-7.189,10.148-11.338,1.96-2.744,3.848-5.648,5.269-8.714.545-1.175.332-2.586-.861-3.284-1.037-.607-2.736-.32-3.284.861-3.366,7.26-8.707,13.819-14.667,19.081-.972.858-.876,2.518,0,3.394.965.965,2.42.86,3.394,0h0Z"/><path class="g" d="M185.782,19.041c-8.831-5.798-18.801-9.355-29.394-9.773-9.524-.375-19.422,1.271-28.273,4.817-8.222,3.294-15.735,8.273-21.626,14.926-6.656,7.516-10.882,17.121-12.672,26.963-2.002,11.011-1.234,22.901,1.328,33.752.71,3.005,5.339,1.733,4.629-1.276-2.171-9.192-2.822-19.023-1.749-28.416,1.025-8.963,4.472-18.359,10.063-25.491,10.648-13.583,27.777-20.15,44.707-20.505,11.065-.232,21.345,3.095,30.564,9.149,2.59,1.7,4.997-2.454,2.423-4.145h0Z"/><path class="g" d="M163.352,138.046c-12.024,5.817-26.315,8.786-38.924,2.928-5.761-2.676-11.142-6.611-14.695-11.941-3.572-5.358-5.513-11.577-6.676-17.864-1.633-8.831-2.25-17.859-3.594-26.74-.194-1.283-1.809-1.991-2.952-1.676-1.372.377-1.871,1.666-1.676,2.952,1.266,8.364,1.952,16.818,3.32,25.164,1.123,6.855,3.15,13.743,6.848,19.677,7.556,12.126,22.186,18.955,36.27,18.388,8.633-.348,16.773-3.004,24.503-6.743,1.167-.564,1.479-2.228.861-3.284-.697-1.192-2.113-1.427-3.284-.861h0Z"/><path class="g" d="M195.395,88.328c2.356-1.644,5.528-1.28,7.42.47.085.079.162.173.238.261-.026-.03-.194-.268-.038-.055.134.184.257.378.37.576.223.391.353.74.484,1.184.424,1.442.486,2.937.417,4.431-.259,5.564-3.22,11.783-8.088,14.75-1.075.655-2.16.984-3.524,1.276-1.49.319-3.303.471-4.737-.159-1.186-.521-2.577-.348-3.284.861-.596,1.019-.332,2.76.861,3.284,3.902,1.713,8.321,1.134,12.124-.603,3.492-1.595,6.281-4.895,8.132-8.178,1.904-3.376,3.049-6.978,3.294-10.858.22-3.485-.293-7.424-2.771-10.077-3.295-3.527-9.406-4.038-13.32-1.307-1.062.741-1.553,2.101-.861,3.284.615,1.051,2.215,1.606,3.284.861h0Z"/><path class="g" d="M160.445,51.812c1.228,3.878,2.665,7.691,4.233,11.444,1.185,2.835,2.427,5.603,4.043,8.223,3.453,5.6,8.048,11.742,14.031,14.815,2.743,1.409,5.174-2.731,2.423-4.145-2.645-1.359-4.807-3.447-6.779-5.641-2.147-2.388-4.04-4.998-5.707-7.74-3.399-5.591-5.649-12.024-7.615-18.232-.929-2.934-5.565-1.681-4.629,1.276h0Z"/><path class="g" d="M160.956,49.192c-7.309,8.264-17.037,14.227-27.316,18.074-1.197.448-2.403.869-3.619,1.263-.12.039-1.195.293-1.219.385-.014.051.128.03.234.079-.093-.043.048.213.126.17.112-.061.093-1.238.104-1.355.132-1.412.371-2.81.71-4.188.378-1.537,1.081-3.153-.241-4.476-1.371-1.371-3.086-.819-4.382.267-1.323,1.108-2.623,2.244-3.941,3.358-2.422,2.048-4.858,4.08-7.316,6.085-5.366,4.377-10.842,8.576-16.519,12.541-1.061.741-1.553,2.101-.861,3.284.614,1.05,2.216,1.607,3.284.861,4.973-3.473,9.804-7.114,14.54-10.906,2.412-1.931,4.801-3.892,7.174-5.871,1.216-1.014,2.427-2.034,3.634-3.057.6-.508,1.199-1.018,1.797-1.528.498-.425,1.103-1.124,1.693-1.406l-1.211.328.225.021-1.211-.328.186.122-.861-.861.108.198-.328-1.211c-.028.691-.491,1.66-.641,2.382-.209,1.009-.36,2.027-.49,3.049-.254,1.997-.6,4.163.904,5.779,1.395,1.5,3.302,1.694,5.17,1.103,1.827-.577,3.635-1.215,5.419-1.913,6.91-2.704,13.515-6.208,19.414-10.728,3.187-2.442,6.166-5.114,8.828-8.124,2.04-2.307-1.343-5.714-3.394-3.394h0Z"/><path class="g" d="M134.002,146.455c.045,2.193-2.441,3.426-4.22,4.201-3.019,1.316-6.036,2.611-9.1,3.826-1.408.558-2.294,2.073-1.434,3.526,2.792,4.717,6.714,8.713,11.459,11.478,5.357,3.121,11.515,4.51,17.65,4.95,11.347.813,23.119-1.162,33.606-5.544,6.301-2.632,12.098-6.09,17.469-10.303,1.297-1.017.658-3.007-.486-3.769-3.976-2.653-8.328-4.712-12.126-7.643-1.835-1.416-3.368-2.773-4.131-4.837-1.295-3.498-1.845-7.355-2.663-10.985-.678-3.012-5.307-1.737-4.629,1.276.864,3.837,1.433,7.935,2.9,11.598,1.014,2.531,2.768,4.452,4.877,6.143,4.162,3.337,8.934,5.647,13.349,8.593l-.486-3.769c-8.455,6.632-18.428,11.113-28.951,13.22-5.111,1.023-10.343,1.464-15.554,1.363-5.56-.109-11.309-.912-16.365-3.353-4.942-2.386-8.982-6.12-11.775-10.839l-1.434,3.526c3.691-1.463,7.444-2.895,11-4.663,3.137-1.56,5.921-4.256,5.844-7.992-.064-3.085-4.864-3.095-4.8,0h0Z"/><path class="g" d="M152.17,80.872c2.076,1.864,4.685,2.972,7.466,3.179.586.044,1.293-.299,1.697-.703.416-.416.73-1.099.703-1.697-.028-.621-.232-1.264-.703-1.697-.489-.449-1.033-.654-1.697-.703-.173-.013-.346-.03-.519-.052l.638.086c-.848-.117-1.671-.348-2.461-.674l.573.242c-.816-.344-1.583-.784-2.284-1.325l.486.375c-.173-.136-.341-.277-.504-.424-.474-.425-1.047-.703-1.697-.703-.589,0-1.292.261-1.697.703-.42.457-.732,1.058-.703,1.697.028.617.229,1.271.703,1.697h0Z"/><path class="g" d="M167.639,93.87c-.154,2.114-.247,4.235-.134,6.354.1,1.879.15,4.169,1.291,5.761,1.394,1.945,3.827,2.593,6.104,2.13,2.255-.458,3.63-2.297,4.426-4.312.462-1.171-.506-2.686-1.676-2.952-1.382-.315-2.457.423-2.952,1.676.251-.636-.122.224-.221.388-.042.07-.085.139-.132.207-.123.172-.126.177-.008.017.278-.186-.067.038-.139.12-.315.356.395-.196-.032.03-.067.036-.501.258-.17.112s-.128.028-.207.048c-.082.021-.164.039-.248.053-.183.033-.111.022.216-.032-.038-.027-.458.005-.513.004-.45-.005.318.096.045.007-.133-.043-.275-.073-.41-.11-.203-.075-.212-.077-.025-.005.183.078.178.069-.013-.027l-.142-.087c.238.198.29.239.157.123-.063-.054-.123-.111-.179-.173.186.266.231.326.135.179-.032-.081-.205-.254-.188-.348.121.292.151.352.091.18-.028-.082-.053-.165-.076-.248-.078-.279-.125-.561-.18-.845-.098-.509.053.543-.005-.067-.022-.23-.048-.46-.068-.69-.073-.829-.113-1.661-.126-2.494-.026-1.668.059-3.336.18-4.999.091-1.255-1.169-2.455-2.4-2.4-1.378.062-2.302,1.056-2.4,2.4h0Z"/><path class="g" d="M208.825,235.159c.636,8.56.739,17.173.904,25.752.22,11.437.411,22.881.121,34.318-.145,5.73-.378,11.458-.715,17.18-.182,3.086,4.619,3.075,4.8,0,1.27-21.551.948-43.171.267-64.739-.132-4.171-.268-8.348-.577-12.511-.096-1.293-1.034-2.4-2.4-2.4-1.224,0-2.497,1.1-2.4,2.4h0Z"/><path class="g" d="M120.13,154.348c-4.589,1.727-9.098,3.7-13.566,5.719-2.114.955-4.224,1.936-6.195,3.166-1.868,1.166-3.599,2.54-5.39,3.818-1.054.751-1.557,2.093-.861,3.284.609,1.042,2.223,1.617,3.284.861,1.713-1.221,3.369-2.532,5.144-3.663,1.958-1.247,4.058-2.24,6.169-3.198,4.178-1.896,8.396-3.742,12.691-5.358,1.212-.456,2.042-1.621,1.676-2.952-.32-1.163-1.733-2.135-2.952-1.676h0Z"/><path class="g" d="M97.197,213.413c-1.887,6.987-2.838,14.234-3.123,21.459-.217,5.492.324,10.789,1.159,16.213.717,4.654,1.738,9.258,2.452,13.91.021.136.041.273.06.409.102.706-.06-.507.03.233.058.478.113.956.162,1.435.113,1.097.204,2.196.283,3.295.184,2.55.305,5.103.4,7.658.237,6.372.306,12.75.31,19.126.002,3.316-.017,6.632-.054,9.949-.019,1.678-.181,3.415-.072,5.088.116,1.778,1.464,2.406,3.067,2.406,5.564,0,11.128.009,16.691.017,16.601.026,33.201.063,49.802.1,17.303.039,34.605.081,51.908.123,10.162.025,20.324.055,30.486.069.373,0,.747.001,1.12.001,3.089,0,3.094-4.8,0-4.8-5.039,0-10.079-.019-15.118-.031-10.285-.024-20.57-.049-30.855-.074-12.758-.031-25.516-.061-38.273-.09-12.305-.028-24.609-.055-36.914-.078-9.075-.017-18.15-.034-27.225-.038-.761,0-1.523,0-2.284,0l1.697.703-.006-.006.703,1.697c.233-13.817.405-27.727-.562-41.522-.715-10.194-3.872-20.09-4.236-30.321-.304-8.562.788-17.395,3.02-25.655.807-2.986-3.823-4.26-4.629-1.276h0Z"/><path class="h" d="M52.893,50.544c-7.817-3.497-15.497-7.294-23.322-10.773-1.315-.585-3.175-.224-3.526,1.434-.85,4.016-1.337,8.1-2.104,12.131l3.526-1.434c-7.971-3.914-15.905-7.904-23.872-11.827-1.162-.572-2.597-.313-3.284.861-.619,1.058-.307,2.709.861,3.284,7.967,3.923,15.901,7.913,23.872,11.827,1.277.627,3.216.192,3.526-1.434.768-4.032,1.255-8.115,2.104-12.131l-3.526,1.434c7.825,3.479,15.505,7.276,23.322,10.773,1.182.529,2.58.342,3.284-.861.599-1.025.328-2.752-.861-3.284h0Z"/><path class="h" d="M71.638,40.841c.264.34-.296-.389-.345-.454-.154-.204-.307-.409-.46-.614-.357-.48-.71-.962-1.062-1.446-.821-1.132-1.63-2.272-2.435-3.416-1.741-2.476-3.457-4.97-5.175-7.462-3.123-4.53-6.199-9.11-9.585-13.451-.752-.964-2.635-.906-3.394,0-2.636,3.147-4.984,6.523-7.555,9.722l3.769.486c-5.608-7.751-11.537-15.265-17.137-23.023-.758-1.049-2.088-1.56-3.284-.861-1.036.606-1.624,2.227-.861,3.284,5.6,7.757,11.529,15.271,17.137,23.023.807,1.116,2.712,1.802,3.769.486,2.571-3.199,4.919-6.576,7.555-9.722h-3.394c.166.213.174.223.024.03.093.122.186.244.279.366.146.194.292.387.437.582.342.459.68.92,1.016,1.384.797,1.099,1.582,2.206,2.362,3.317,1.723,2.453,3.421,4.922,5.123,7.39,3.2,4.641,6.363,9.322,9.822,13.776.796,1.025,2.558.836,3.394,0,1.011-1.011.798-2.367,0-3.394h0Z"/><path class="g" d="M205.369,161.174c5.487,2.706,11.017,5.426,15.975,9.043,5.061,3.693,9.095,8.453,12.212,13.867,6.354,11.036,8.518,23.848,9.94,36.335,1.102,9.674,2.122,19.359,2.79,29.074.719,10.45,1.259,20.912,1.768,31.374.506,10.392.953,20.786,1.425,31.179.14,3.076,4.94,3.093,4.8,0-.91-20.046-1.711-40.101-3.029-60.125-.63-9.575-1.613-19.098-2.638-28.639-1.408-13.111-3.267-26.415-9.174-38.367-3.224-6.524-7.644-12.486-13.339-17.055-5.576-4.473-11.925-7.683-18.306-10.83-1.162-.573-2.597-.313-3.284.861-.619,1.059-.306,2.708.861,3.284h0Z"/><path class="e" d="M57.06,167.423c3.155-5.793,8.479-15.945,11.172-23.21.566-1.526,1.057-2.661,1.15-4.285.643-7.901-2.171-15.317-4.376-26.418-.669-3.368-2.608-8.24-2.143-11.659.524-3.85,1.022-6.465,2.868-9.965,3.755-7.121,10.412-14.571,14.335-19.591,1.588-2.031,2.973-3.286,5.417-4.308s5.851.286,6.201,1.173l.145.369c.751-.443,1.551-.79,2.386-.996,2.929-.721,6.486,2.551,5.124,5.844l-.144.654c.831.009,1.618.308,2.322.912,1.854,1.596,1.295,4.613-.122,6.632-1.25,1.781-3.012,4.432-4.973,7.463,2.33.107,4.493.4,5.489,1.7,1.132,1.478,1.103,3.505.512,4.485-2.224,3.685-3.66,5.922-5.881,10.176-1.337,2.56-4.86,9.72-5.275,12.519-.275,1.855-.006,3.75.49,5.549,1.671,6.069,3.117,4.826,4.506,11.479.666,3.191-.872,7.049-4.017,9.312-2.018,12.802-3.217,20.682-4.75,30.433,0,0-.488,3.824-1.037,8.13-3.834,1.818-7.926,2.752-13.263,2.841-11.961.201-17.639-3.402-22.152-8.093l3.534-6.681c-.249.436.812-1.407,2.478-4.466Z"/><path class="g" d="M71.782,139.927c.392-5.221-.662-10.407-1.837-15.467-1.335-5.744-2.64-11.487-4.073-17.205-.67-2.675-.747-4.939-.25-7.648s1.411-5.174,2.766-7.58c2.929-5.2,6.74-9.846,10.498-14.458,1.655-2.031,3.201-4.541,5.304-6.137.907-.688,2.079-1.401,3.245-1.415.607-.007,1.198.082,1.771.296.536.199-.419-.205.382.156.259.171.292.174.098.009.207.205.183.17-.072-.106,1.463,2.722,5.609.301,4.145-2.423-1.343-2.498-5.401-3.025-7.869-2.571-2.759.507-5.297,2.528-7.048,4.634-3.938,4.734-7.894,9.543-11.419,14.594-3.769,5.4-6.665,11.211-7.018,17.903-.158,2.997.829,6.021,1.606,8.877.854,3.14,1.421,6.354,2.165,9.522,1.465,6.242,3.294,12.543,2.808,19.02-.097,1.294,1.173,2.4,2.4,2.4,1.38,0,2.303-1.102,2.4-2.4h0Z"/><path class="g" d="M74.722,95.318c3.736-6.199,7.701-12.314,12.366-17.861,1.936-2.302,4.084-5.258,6.989-6.374,1.616-.621,3.69.624,2.948,2.657-.444,1.218.499,2.629,1.676,2.952,1.336.367,2.507-.454,2.952-1.676,1.358-3.724-1.257-7.872-5.012-8.781-4.1-.993-7.839,2.174-10.421,4.961-6.069,6.55-11.048,14.073-15.644,21.7-1.599,2.652,2.55,5.068,4.145,2.423h0Z"/><path class="g" d="M79.746,103.918c2.322-3.949,4.795-7.813,7.295-11.651,1.457-2.236,2.933-4.459,4.448-6.656.673-.975,1.353-1.946,2.048-2.905.296-.408.594-.815.896-1.219.14-.187.28-.373.421-.558-.241.315.143-.183.219-.278.567-.713,1.151-1.421,1.82-2.042.703-.653,1.857-1.421,2.626-1.122,2.056.799-.186,3.856-.912,4.914-2.892,4.219-5.64,8.54-8.359,12.872-3.095,4.93-6.193,9.88-8.984,14.99-1.481,2.712,2.662,5.137,4.145,2.423,2.679-4.905,5.646-9.66,8.611-14.396s5.932-9.43,9.102-14.004c1.869-2.696,2.936-6.481.728-9.327-2.54-3.274-6.807-2.639-9.714-.29-1.796,1.451-3.165,3.448-4.515,5.299-1.609,2.207-3.145,4.466-4.658,6.739-3.233,4.852-6.406,9.763-9.362,14.79-1.569,2.669,2.578,5.087,4.145,2.423h0Z"/><path class="g" d="M89.013,220.632c.912-12.899,2.201-25.74,3.959-38.552.134-.98-.009-1.886-.86-2.523-.741-.553-1.848-.718-2.666-.188-2.463,1.599-5.043,2.935-7.874,3.748-3.177.914-6.452,1.177-9.747,1.151-5.452-.045-10.828-.997-15.333-4.107-.844-.583-1.381-1.052-2.246-1.818-1.28-1.133-2.742-1.597-4.436-1.1-2.684.787-3.757,3.673-4.855,5.977-2.794,5.862-5.072,11.993-7.121,18.149-3.464,10.409-5.872,21.36-6.481,32.335-.697,12.54,4.535,26.203,15.748,32.732,12.94,7.535,28.577,4.718,41.673-.783,1.806-.759,3.595-1.555,5.369-2.387,1.174-.55,1.473-2.237.861-3.284-.703-1.202-2.106-1.413-3.284-.861-12.019,5.636-26.264,10.151-39.191,4.69-11.03-4.659-16.736-16.838-16.446-28.396.133-5.316.954-10.617,1.938-15.834.86-4.56,1.944-9.034,3.324-13.465,1.868-6,3.98-11.962,6.501-17.721.509-1.162,1.035-2.316,1.594-3.456.449-.916.898-2.269,1.603-3.017.139-.147.043-.123.268-.093-.514-.068-.51-.268-.459-.094.039.13.377.341.477.428.937.821,1.927,1.594,2.96,2.29,5.141,3.462,11.438,4.563,17.536,4.613,7.231.06,13.954-1.601,20.044-5.554l-3.526-2.71c-1.816,13.239-3.188,26.497-4.13,39.828-.092,1.294,1.169,2.4,2.4,2.4,1.375,0,2.308-1.102,2.4-2.4h0Z"/><path class="g" d="M97.999,92.553c.658.079,1.631.179,2.067.722.185.231.309.603.349.893.024.173.036.49,0,.678.013-.068-.184.461-.063.166-.415,1.016-1.222,2.012-1.792,2.954-.581.961-1.158,1.924-1.719,2.897-1.962,3.402-3.75,6.909-5.353,10.495-.795,1.779-1.594,3.583-2.17,5.447-.679,2.195-.648,4.457-.24,6.705.385,2.118,1.114,4.239,2.1,6.154.286.554.609,1.087.92,1.627.334.582.704,1.304.848,1.679.752,1.959,1.396,4.063.857,6.084s-1.888,3.656-3.674,4.713c-2.656,1.573-.244,5.724,2.423,4.145,4.289-2.54,6.974-7.453,6.055-12.453-.39-2.12-1.066-4.227-2.101-6.124-.798-1.463-1.583-2.768-2.079-4.311-.716-2.227-1.207-4.535-.518-6.823.553-1.835,1.341-3.6,2.139-5.339,1.864-4.06,3.964-8.001,6.267-11.829,1.549-2.575,3.388-4.856,2.74-8.033-.734-3.6-3.767-4.851-7.058-5.247-1.289-.155-2.4,1.214-2.4,2.4,0,1.426,1.107,2.244,2.4,2.4h0Z"/><path class="g" d="M52.51,170.677c-.012.021-.024.042-.036.063-1.513,2.698,2.567,5.083,4.145,2.423,4.375-7.376,8.32-15.161,11.757-23.011,1.455-3.322,2.894-6.568,3.136-10.232.086-1.295-1.164-2.4-2.4-2.4-1.37,0-2.314,1.101-2.4,2.4-.178,2.693-1.347,5.212-2.415,7.659-1.135,2.601-2.355,5.166-3.614,7.709-2.157,4.357-4.433,8.656-6.786,12.91-.47.849-.928,1.708-1.423,2.542l4.145,2.423c.012-.021.024-.042.036-.063,1.533-2.687-2.612-5.108-4.145-2.423h0Z"/><path class="g" d="M89.7,146.105c-1.518,9.648-2.999,19.301-4.515,28.948-.201,1.279.327,2.582,1.676,2.952,1.14.313,2.75-.388,2.952-1.676,1.516-9.648,2.998-19.301,4.515-28.948.201-1.279-.327-2.582-1.676-2.952-1.14-.313-2.75.388-2.952,1.676h0Z"/></g></g></svg>