<svg id="b" xmlns="http://www.w3.org/2000/svg" width="280.488" height="355.79" viewBox="0 0 280.488 355.79" style="color: initial !important;"><defs><style>.e{fill:#211715;}.f{fill:#ffffff;}.g{fill:#f2635f;}.h{fill:#645d5c;}</style></defs><g id="c"><g id="d"><path class="f" d="M48.424,312.775c-.003,6.117-.219,12.338-.737,18.725h137.421c-.188-1.078-.31-1.778-.31-1.778-.651-4.71-2.165-12.151-4-20.55h-22.157c-36.341-1.619-80.034-1.538-110.239.004.015,1.196.023,2.395.022,3.598Z"/><path class="f" d="M115.536,73.003c1.55-1.417,3.645-1.956,5.435-1.9,3.897.12,5.562,2.124,6.277,3.3,2.134,3.516,2.058,9.993.633,14.011-1.003,2.84-2.577,6.799-6.565,9.923-1.169.911-4.106,2.336-7.089,2.56l-.384,1.117c-.696,2.051-2.487,5.71-2.487,5.71-1.367,2.663-2.837,5.238-4.562,7.783.689,2.073,1.38,4.146,2.07,6.219.61,1.834,1.228,3.684,2.211,5.348,2.649,4.484,8.359,7.068,13.983,8.243,0,0,.419.088.827.185-11.412,11.907-26.029,19.844-41.602,22.57-5.964,1.035-12.147,1.328-18.129-.205-5.642-1.447-11.132-4.629-15.03-9.572,3.348-1.626,6.813-3.311,9.092-4.653,2.097-1,3.929-2.853,4.968-4.974-8.512.474-16.292-1.724-24.057-6.659-9.373-5.956-14.41-16.52-17.212-28.534-1.616-6.928-3.204-14.478-5.127-21.983,0,0-17.557-38.673,32.275-43.1,65.667-5.833,64.475,34.611,64.475,34.611Z"/><path class="h" d="M103.443,67.679c-13.156-17.219-28.003-20.099-31.243-20.883,0,0-3.82-.64-8.463-.521l-1.329.493c-10.105,3.749-18.429,13.241-22.938,16.885-1.076.87-2.661.063-2.755-1.409-.062-.97-.236-1.975-.788-3.244-.572-1.313-1.727-1.711-2.472-1.137-6.354,4.889-13.987,20.024-14.149,25.152,0,0-.022.694-.059,1.713-3.267-9.753-4.797-21.607-4.421-29.7.41-8.832,3.19-19.05,7.961-26.461C31.047,15.731,44.728,6.77,62.778,3.45c11.391-2.095,23.146-1.494,36.692,5.64l8.421,4.435c.823.58,1.647,1.16,1.647,1.16,8.308,5.852,12.966,13.18,16.605,22.398,1.828,4.641,2.954,9.536,3.28,14.5.342,5.262,1.555,17.482-1.318,24.71-.232-.691-.516-1.328-.857-1.89-.714-1.175-2.38-3.179-6.277-3.3-1.79-.056-3.885.483-5.435,1.9-1.533.327-3.095.556-3.491.577-.604-.354-6.438-3.563-8.567-5.881"/><path class="e" d="M104.476,116.15c.919,2.757,1.776,5.546,2.779,8.274.941,2.56,2.153,4.939,4.111,6.874,3.489,3.446,8.334,5.327,13.056,6.329,1.267.269,2.595-.374,2.952-1.676.328-1.194-.403-2.682-1.676-2.952-3.946-.837-8.078-2.27-10.938-5.094-1.458-1.44-2.345-3.238-3.061-5.269-.906-2.572-1.733-5.174-2.595-7.76-.41-1.229-1.655-2.033-2.952-1.676-1.201.33-2.088,1.717-1.676,2.952h0Z"/><path class="e" d="M71.562,49.111c7.989,1.921,14.905,5.247,21.293,10.763,3.13,2.703,5.995,5.74,8.516,9.017.789,1.026,2.064,1.574,3.284.861,1.009-.59,1.656-2.25.861-3.284-7.395-9.612-17.121-17.448-28.849-20.99-1.264-.382-2.545-.687-3.828-.996-3.002-.722-4.283,3.906-1.276,4.629h0Z"/><path class="e" d="M21.705,83.015c.007-.16.023-.318.034-.478-.039.573-.039.253-.015.111.057-.328.121-.654.198-.978.202-.857.467-1.698.758-2.529.673-1.922,1.463-3.678,2.376-5.512,1.984-3.982,4.295-7.956,7.237-11.312.603-.688,1.237-1.353,1.916-1.967.125-.113.255-.22.379-.333.494-.449.447-.06-.054-.057-1.063.007-.887-.396-.546.677.359,1.131.252,2.384.796,3.447.696,1.359,2.069,2.273,3.606,2.325,2.15.074,3.878-1.969,5.34-3.315,1.635-1.505,3.25-3.032,4.913-4.507,4.291-3.803,8.991-7.457,14.403-9.505,1.212-.459,2.043-1.619,1.676-2.952-.319-1.162-1.734-2.138-2.952-1.676-5.446,2.061-10.199,5.364-14.627,9.099-1.893,1.597-3.714,3.277-5.528,4.962-.688.64-1.376,1.281-2.073,1.911-.306.276-.613.551-.924.82-.554.48-1.169.659.165.425.417-.073.398.723.185-.719-.09-.607-.214-1.197-.412-1.78-.505-1.489-1.236-2.861-2.713-3.566-2.606-1.244-4.717.907-6.367,2.678-3.292,3.535-5.908,7.762-8.116,12.038-1.981,3.836-4.256,8.285-4.455,12.692-.139,3.088,4.661,3.081,4.8,0h0Z"/><path class="e" d="M58.399,119.227c.41-.291.839-.548,1.288-.775.112-.057.225-.111.339-.164.049-.023.433-.187.154-.073-.315.13.26-.096.261-.097.125-.047.251-.091.378-.135.551-.188,1.112-.346,1.68-.476.271-.062.544-.118.817-.167.137-.025.275-.042.411-.069.376-.074-.574.057.082-.011.54-.056,1.08-.096,1.623-.101.293-.002.587.005.879.022.127.007.253.017.379.029.066.006.481.064.142.011-.377-.059.193.039.216.044.129.026.258.054.385.085.299.073.594.163.887.257.705.225,1.401.478,2.111.69,1.203.359,2.669-.431,2.952-1.676.294-1.291-.388-2.568-1.676-2.952-1.416-.422-2.763-.966-4.236-1.164-1.293-.174-2.573-.179-3.869-.02-2.652.325-5.419,1.028-7.629,2.598-1.021.725-1.606,2.127-.861,3.284.653,1.013,2.189,1.639,3.284.861h0Z"/><path class="e" d="M69.341,87.727c-.97-2.405-.959-8.127,3.678-9.009,6.186-.489,7.101,6.35,5.294,9.757-1.479,2.789-6.396,4.315-8.972-.748Z"/><path class="e" d="M32.731,92.007c-.914-2.419-.961-8.153,3.281-8.99,5.667-.428,6.574,6.435,4.953,9.83-1.328,2.78-5.821,4.259-8.234-.839Z"/><path class="e" d="M52.604,95.232c-.72,1.626-1.411,3.273-1.987,4.956-.196.572-.356,1.197-.317,1.806.035.553.15,1.127.45,1.605.323.515.731.863,1.233,1.204.694.472,1.455.674,2.275.76.322.034.639.004.962.013,1.256.033,2.457-1.127,2.4-2.4-.059-1.328-1.054-2.365-2.4-2.4-.322-.008-.64.025-.962-.013l.638.086c-.205-.031-.396-.085-.588-.164l.573.242c-.206-.094-.393-.209-.577-.342l.486.375c-.085-.066-.153-.122-.223-.202l.375.486c-.034-.043-.062-.09-.086-.14l.242.573c-.033-.08-.055-.152-.072-.237l.086.638c-.019-.15-.016-.292,0-.442l-.086.638c.105-.689.407-1.372.656-2.02.279-.728.574-1.449.877-2.167l-.242.573c.142-.336.286-.672.434-1.006.27-.61.426-1.179.242-1.849-.153-.557-.584-1.16-1.103-1.434-.557-.294-1.232-.442-1.849-.242-.556.18-1.187.544-1.434,1.103h0Z"/><path class="e" d="M102.51,124.695c5.824-6.284,10.814-13.902,13.646-22.044.426-1.224-.485-2.625-1.676-2.952-1.321-.363-2.525.448-2.952,1.676-.964,2.771-2.443,5.648-3.984,8.362-2.371,4.176-5.163,8.041-8.428,11.564-2.098,2.263,1.289,5.666,3.394,3.394h0Z"/><path class="e" d="M100.681,7.018C91.266,2.102,80.928-.577,70.273.105c-9.613.616-19.247,3.233-27.811,7.648-7.889,4.067-14.759,9.885-19.998,17.05-5.965,8.157-9.072,18.251-9.911,28.255-.435,5.184-.061,10.41.626,15.555.793,5.938,2.051,11.82,4.004,17.489,1,2.903,5.638,1.656,4.629-1.276-5.993-17.399-7.324-38.556,2.837-54.72,9.123-14.514,25.533-22.832,42.233-24.886,10.971-1.349,21.602.838,31.376,5.942,2.735,1.428,5.165-2.713,2.423-4.145h0Z"/><path class="e" d="M90.197,127.522c-5.958,3.656-12.263,6.592-19.143,7.981-6.752,1.363-13.669,1.038-20.172-1.284-6.011-2.147-11.553-5.695-15.585-10.674-3.899-4.816-6.326-10.75-8.02-16.655-2.457-8.563-3.973-17.402-6.177-26.034-.764-2.991-5.394-1.723-4.629,1.276,2.076,8.129,3.605,16.399,5.755,24.506,1.734,6.537,4.277,13.067,8.316,18.542,8.739,11.845,24.061,17.458,38.463,15.506,8.494-1.151,16.347-4.56,23.613-9.018,2.629-1.613.22-5.766-2.423-4.145h0Z"/><path class="e" d="M73.634,72.268c1.044.772,2.26,1.329,3.495,1.717,1.196.376,2.491.57,3.745.544.623-.013,1.253-.259,1.697-.703.416-.416.73-1.099.703-1.697-.057-1.278-1.055-2.427-2.4-2.4-.467.01-.931-.018-1.394-.077l.638.086c-.912-.125-1.798-.37-2.647-.725l.573.242c-.704-.302-1.371-.676-1.988-1.132-.47-.347-1.312-.39-1.849-.242-.557.153-1.16.584-1.434,1.103-.294.557-.442,1.232-.242,1.849l.242.573c.213.361.5.648.861.861h0Z"/><path class="e" d="M90.088,83.402c.05,2.247.196,4.479.512,6.705.278,1.959.577,4.227,1.966,5.75,1.45,1.59,3.944,2.049,5.954,1.43,2.187-.674,3.554-2.441,4.171-4.582.348-1.206-.423-2.667-1.676-2.952-1.281-.292-2.58.385-2.952,1.676-.044.153-.094.303-.142.454-.16.506.255-.451-.002.011-.076.137-.158.274-.23.412-.193.375.241-.237.05-.044-.11.112-.224.224-.333.338-.173.18.409-.213.029-.039-.097.058-.196.111-.298.159l.262-.114c-.028-.013-.433.125-.472.136-.505.137.508.011-.018.003-.07-.001-.491.03-.497-.004.004.021.594.121.068,0-.076-.017-.634-.14-.255-.053.344.078-.052-.049-.146-.094-.454-.216.341.273-.019-.022-.133-.149-.134-.146-.006.007.124.163.127.156.01-.023-.042-.073-.081-.148-.117-.224-.076-.159-.053-.101.07.175-.167-.181-.221-.671-.281-.912-.086-.344-.156-.693-.223-1.041-.083-.43-.157-.862-.223-1.295-.008-.055-.099-.768-.034-.22-.025-.214-.053-.428-.076-.643-.183-1.659-.256-3.328-.293-4.996-.028-1.254-1.084-2.459-2.4-2.4-1.276.057-2.43,1.055-2.4,2.4h0Z"/><path class="e" d="M45.562,153.745c3.752-2.003,7.632-3.76,11.431-5.669,4.014-2.017,8.116-3.993,10.25-8.192.587-1.155.303-2.603-.861-3.284-1.07-.626-2.694-.299-3.284.861-1.805,3.551-5.684,5.054-9.077,6.745-3.622,1.806-7.31,3.488-10.882,5.394-2.726,1.455-.304,5.6,2.423,4.145h0Z"/><path class="e" d="M117.233,74.7c1.032-.889,2.399-1.231,3.738-1.197.72.018,1.442.135,2.118.394.223.085.432.187.656.317.272.158.423.265.463.298.177.145.341.308.497.474.126.134.472.614.194.209.269.393.526.805.713,1.245.559,1.317.788,2.801.863,4.219.299,5.601-1.881,12.244-6.525,15.72-2.277,1.704-5.776,2.714-8.526,1.821-2.945-.956-4.206,3.677-1.276,4.629,3.796,1.233,8.336.1,11.667-1.938,3.457-2.114,5.884-5.721,7.431-9.387,1.505-3.567,2.286-7.328,2.006-11.217-.246-3.422-1.148-7.149-3.937-9.402-3.894-3.145-9.759-2.781-13.477.421-.983.846-.868,2.526,0,3.394.974.974,2.409.848,3.394,0h0Z"/><path class="f" d="M216.353,189.722c-10.194-13.747-18.448-23.065-33.111-33.778-8.531-6.256-16.78-10.715-21.346-12.702-8.686-3.779-15.571-5.409-24.543-8.187l-11.47.447c-11.412,11.907-26.029,19.844-41.602,22.57-5.964,1.035-12.147,1.328-18.129-.206-5.978-1.533-11.786-5.014-15.709-10.473-15.836,7.765-30.469,16.765-37.766,27.089-5.584,7.901-7.722,18.667-8.833,28-2.158,18.128-.825,25.906-.825,52.351,0,16.138.271,37.436-.605,54.292,19.143-.003,47.066-.003,47.066-.003,30.16-1.49,73.25-1.55,109.16.05,0,0,5.493-2.31,11.864-4.989,8.796-3.699,19.266-8.101,19.266-8.101,2.358,2.337,2.907,4.058,5.745,1.72,1.92-1.582,3.804-3.211,5.67-4.857,3.356-2.96,6.628-6.016,9.769-9.203,6.002-6.089,11.453-12.672,16.563-19.521,7.183-9.627,9.655-12.388,9.825-22.62.344-20.726-8.839-35.494-20.989-51.879ZM175.89,254.282s-2.944,3.053-5.884,6.099c-.034-.187-.066-.369-.098-.548-1.435-12.47-5.587-43.161-7.441-59.376,1.124,1.273,2.243,2.551,3.344,3.837,8.897,10.396,16.642,21.37,16.749,35.107.05,6.35-2.38,9.47-6.67,14.88Z"/><path class="e" d="M108.326,16.757c7.113,5.056,11.96,12.212,15.209,20.23,3.312,8.173,4.006,16.968,4.033,25.711.014,4.462-.195,9.121-1.923,13.296-.496,1.198.536,2.639,1.676,2.952,1.38.379,2.454-.474,2.952-1.676,1.649-3.982,1.992-8.498,2.08-12.764.081-3.944-.176-7.879-.454-11.811-.717-10.146-3.939-20.101-9.712-28.536-3.108-4.54-6.959-8.362-11.438-11.546-1.057-.751-2.67-.187-3.284.861-.704,1.204-.199,2.531.861,3.284h0Z"/><path class="e" d="M48.366,148.597c15.087,20.656,45.792,12.619,64.055,1.02,5.525-3.509,10.62-7.705,15.16-12.417,2.144-2.225-1.246-5.624-3.394-3.394-7.298,7.575-16.095,13.787-25.87,17.739-9.88,3.995-21.748,6.786-32.257,3.81-5.334-1.51-10.26-4.678-13.549-9.181-.763-1.045-2.084-1.563-3.284-.861-1.032.603-1.63,2.231-.861,3.284h0Z"/><path class="e" d="M160.763,202.149c5.222,5.916,10.411,11.963,14.239,18.905,1.854,3.364,3.322,6.908,4.219,10.648.832,3.471,1.397,7.433.678,10.97-.783,3.846-3.326,6.91-5.706,9.913-.804,1.015-.991,2.403,0,3.394.835.835,2.585,1.021,3.394,0,2.517-3.176,5.158-6.354,6.465-10.253,1.347-4.017,1.013-8.482.342-12.595-1.373-8.425-5.654-16.082-10.701-22.844-2.986-4.001-6.235-7.791-9.537-11.532-2.048-2.321-5.432,1.085-3.394,3.394h0Z"/><path class="e" d="M136.715,137.37c7.789,2.404,15.709,4.441,23.231,7.627,6.376,2.7,12.404,6.339,18.119,10.222,12.288,8.349,22.882,18.497,32.021,30.185,8.853,11.322,17.947,23.489,22.224,37.391,2.145,6.973,3.043,14.347,2.512,21.63-.184,2.521-.772,5.273-1.775,7.377-1.267,2.658-3.028,5.057-4.772,7.417-5.064,6.852-10.297,13.564-16.115,19.799-5.852,6.271-12.278,12.012-18.852,17.455-.284.235-.19-.115-.097.041-.005-.008.284.024.28.028.022-.017.165.069.158.098.003-.01-.453-.424-.417-.389-.609-.601-1.164-1.257-1.766-1.866-2.175-2.2-5.569,1.194-3.394,3.394,1.207,1.221,2.336,2.855,4.064,3.368,2.02.6,3.763-.58,5.256-1.796,3.599-2.934,7.072-6.045,10.455-9.225,6.674-6.273,12.776-13.091,18.402-20.315,2.586-3.321,5.142-6.68,7.582-10.11,1.769-2.488,3.362-5.069,4.4-7.955,1.094-3.041,1.413-6.337,1.498-9.548.107-4.034-.18-8.061-.799-12.047-2.392-15.404-10.916-28.656-20.004-40.963-4.551-6.164-9.256-12.237-14.485-17.846s-11.039-10.697-17.161-15.362c-6.583-5.016-13.553-9.592-20.963-13.299-7.019-3.512-14.526-5.837-22.032-8.051-2.101-.62-4.201-1.243-6.294-1.889-2.958-.913-4.223,3.719-1.276,4.629h0Z"/><path class="e" d="M159.405,194.25c1.771,18.64,4.565,37.197,6.905,55.771.473,3.756.755,7.586,1.438,11.309.655,3.574,1.428,7.128,2.207,10.677,2.187,9.968,4.52,19.905,6.761,29.861,2.122,9.43,4.43,18.909,5.767,28.492.179,1.285,1.819,1.988,2.952,1.676,1.383-.38,1.856-1.663,1.676-2.952-1.156-8.287-3.091-16.487-4.907-24.648-2.233-10.038-4.577-20.05-6.819-30.086-.891-3.99-1.775-7.984-2.568-11.994-.14-.707-.277-1.414-.407-2.123-.033-.176-.223-1.281-.123-.586-.06-.422-.099-.849-.149-1.272-.214-1.81-.436-3.619-.661-5.428-1.23-9.889-2.528-19.769-3.792-29.653-1.236-9.668-2.558-19.34-3.48-29.044-.123-1.29-1.015-2.4-2.4-2.4-1.203,0-2.523,1.102-2.4,2.4h0Z"/><path class="f" d="M172.599,329.503c-.502-3.455-.952-6.707-1.493-10.081l-1.198.3c.226,1.911-1.648,3.631-3.571,3.68-1.923.048-3.691-1.223-4.741-2.835-1.05-1.612-1.505-3.531-1.892-5.415-1.828-8.884-2.566-17.993-2.19-27.055.046-1.107.111-2.227.448-3.282.532-1.662,1.693-3.032,2.753-4.419,2.55-2.975,4.828-4.197,7.883-5.864,1.5-.818,3.447-1.546,5.15-1.396,1.106.097,2.119.641,3.063,1.225,5.049,3.122,9.145,7.759,11.632,13.149-1.253,1.684.298,5.38.298,5.38-.498,1.522-1.396,1.902-1.5,3.5-.116,1.78-.838,5.415-.5,7.167,2.316,12.018.936,15.578,1.357,27.809.222,6.444-.303,12.126-2.664,17.841-.892,2.16-2.68,4.47-4.996,4.158-1.273-.171-2.308-1.13-3.025-2.196-1.924-2.86-2.611-8.074-3.205-11.469-.652-3.731-1.153-7.048-1.611-10.196Z"/><path class="e" d="M166.32,307.299c1.92,8.388,3.064,16.883,4.34,25.384.606,4.043,1.221,8.102,2.022,12.112.724,3.625,1.845,8.198,5.303,10.197,4.203,2.429,8.069-1.118,9.644-4.862,1.733-4.121,2.575-8.524,2.83-12.977.228-3.994-.032-8.008-.199-12-.161-3.853-.339-7.706-.518-11.558-.16-3.444-.328-6.887-.46-10.332-.037-.966-.081-1.933-.085-2.9-.005-1.599.536-3.127,1.028-4.632.961-2.943-3.672-4.204-4.629-1.276-.783,2.397-1.246,4.695-1.171,7.201.073,2.433.191,4.865.302,7.297.317,6.941.66,13.882.916,20.826.145,3.939.222,7.917-.485,11.813-.355,1.957-.872,3.884-1.558,5.751-.414,1.126-1.132,3.187-2.439,3.596-1.129.353-1.995-1.411-2.374-2.233-.67-1.454-1.033-3.073-1.362-4.633-.793-3.762-1.36-7.589-1.942-11.387-1.367-8.923-2.517-17.853-4.533-26.663-.689-3.01-5.318-1.736-4.629,1.276h0Z"/><path class="e" d="M192.39,293.751c-1.273-6.351-4.975-12.399-9.308-17.131-2.032-2.219-4.45-4.359-7.295-5.446-3.616-1.382-7.324.626-10.402,2.395-3.042,1.748-5.493,3.942-7.603,6.738-1.098,1.455-2.047,3.057-2.374,4.876-.343,1.915-.345,3.889-.375,5.828-.128,8.37.682,16.787,2.4,24.981.822,3.918,2.473,7.933,6.527,9.413,3.821,1.395,8.587-1.371,8.349-5.682-.17-3.072-4.971-3.092-4.8,0,.038.689-.432,1.187-1.153,1.28-.924.119-1.845-.615-2.399-1.268-1.767-2.086-2.027-5.502-2.488-8.084-1.187-6.645-1.716-13.405-1.643-20.154.017-1.567-.01-3.181.168-4.74.156-1.373.774-2.436,1.569-3.539,1.522-2.114,3.389-3.8,5.618-5.137,1.937-1.161,4.878-3.315,7.232-2.31,2.009.857,3.693,2.536,5.153,4.113,3.867,4.178,7.068,9.52,8.195,15.144.255,1.272,1.766,2.002,2.952,1.676,1.325-.364,1.932-1.677,1.676-2.952h0Z"/><path class="e" d="M49.481,311.522c13.319-.654,26.656-.955,39.99-1.077,14.877-.136,29.758-.034,44.632.309,8.182.189,16.362.455,24.538.818,3.088.137,3.082-4.663,0-4.8-14.689-.651-29.391-.998-44.094-1.128-14.496-.128-28.996-.048-43.489.305-7.195.175-14.388.42-21.577.774-3.075.151-3.093,4.952,0,4.8h0Z"/><path class="g" d="M225.754,319.722c8.414,1.595,16.886,2.865,25.296,4.48l-1.434-3.526c-1.597,3.782-3.53,7.412-5.203,11.159-.555,1.243-.252,3.268,1.434,3.526,8.779,1.34,17.57,2.597,26.35,3.929,1.28.194,2.58-.322,2.952-1.676.312-1.135-.387-2.757-1.676-2.952-8.78-1.332-17.571-2.589-26.35-3.929l1.434,3.526c1.673-3.748,3.606-7.377,5.203-11.159.548-1.297.255-3.201-1.434-3.526-8.41-1.614-16.883-2.884-25.296-4.48-1.272-.241-2.589.355-2.952,1.676-.322,1.172.396,2.71,1.676,2.952h0Z"/><path class="g" d="M219.881,304.596c10.479-3.27,20.495-7.897,30.98-11.144l-3.038-2.314c.366,4.089.364,8.201.647,12.295.1,1.447,1.468,2.863,3.038,2.314,9.031-3.159,18.19-5.939,27.217-9.107,1.223-.429,2.037-1.641,1.676-2.952-.326-1.186-1.724-2.107-2.952-1.676-9.028,3.168-18.187,5.949-27.217,9.107l3.038,2.314c-.283-4.094-.281-8.207-.647-12.295-.133-1.486-1.434-2.811-3.038-2.314-10.485,3.247-20.501,7.874-30.98,11.144-2.939.917-1.685,5.553,1.276,4.629h0Z"/><path class="e" d="M49.256,145.31c-11.881,5.836-24.108,12.432-33.531,21.902-4.361,4.382-7.62,9.431-9.837,15.202-2.329,6.061-3.485,12.494-4.301,18.911-1.144,9.005-1.47,18.019-1.329,27.089.185,11.983.346,23.958.38,35.942.044,14.991.144,30.005-.635,44.981-.161,3.087,4.64,3.078,4.8,0,.684-13.153.677-26.337.649-39.504-.026-12.279-.061-24.554-.31-36.831-.178-8.783-.211-17.536.642-26.289,1.107-11.351,2.918-23.896,10.453-32.954,4.251-5.109,9.573-9.243,15.09-12.894,6.491-4.295,13.37-7.98,20.35-11.409,1.163-.571,1.482-2.223.861-3.284-.694-1.186-2.116-1.435-3.284-.861h0Z"/><path class="e" d="M32.576,219.805c1.58,5.546,2.767,11.21,3.938,16.853,1.49,7.182,2.859,14.388,4.162,21.606,1.134,6.285,2.225,12.579,3.199,18.89.178,1.154.352,2.31.517,3.466.032.223.063.446.094.669.039.28.093.691.021.142.057.434.114.868.166,1.302.417,3.477.549,6.998.749,10.492.732,12.752.883,25.534-.135,38.275-.103,1.294,1.177,2.4,2.4,2.4,1.385,0,2.296-1.103,2.4-2.4.912-11.417.897-22.874.345-34.309-.312-6.465-.673-12.896-1.623-19.299-1.973-13.302-4.425-26.553-7.096-39.731-1.332-6.572-2.669-13.179-4.507-19.632-.845-2.966-5.478-1.705-4.629,1.276h0Z"/></g></g></svg>