<svg id="b" xmlns="http://www.w3.org/2000/svg" width="269.687" height="334.456" viewBox="0 0 269.687 334.456" style="color: initial !important;"><defs><style>.e{fill:#ffffff;}.f{fill:#f8b8b4;}.g{fill:#211715;}.h{fill:#f2635f;}.i{fill:#645d5c;}</style></defs><g id="c"><g id="d"><path class="e" d="M53.35,288.687c-.599.028-1.193.057-1.782.086,0,0-.392.019-.932.041-.457,3.683-1.728,13.799-2.058,16.967-1.48,7.393-1.812,10.642-2.895,17.61h127.699c0-8.838.028-25.911.028-34.661-4.111,0-18.113.108-18.113.108-33.376-1.499-73.382-1.489-101.946-.151Z"/><path class="i" d="M145.96,148.65c9.001-5.494,8.432-12.086,8.073-16.041-.482-5.642-1.771-9.925-4.116-15.214-2.894-6.604-8.361-20.049-10.643-44.687.069-4.777-.572-10.897-1.189-15.621-.316-2.416-.619-4.456-.83-5.791-2.47-15.969-13.662-33.457-26.353-39.364C95.294,2.164,82.109,1.112,69.372,3.428c-18.076,3.286-31.791,12.228-40.089,25.06-4.791,7.408-7.595,17.632-8.024,26.473-.398,8.198,1.15,20.256,4.482,30.092,4.01,19.046.661,40.026,3.892,55.617,1.013,4.957,4.199,10.694,11.678,14.664l104.651-6.685Z"/><path class="e" d="M45.155,62.35c2.649-2.675,5.266-5.375,7.812-8.036.318-.332.871-.042.777.408-.544,2.591-.703,5.256-.6,7.989.054,1.434,1.549,2.352,2.872,1.798,12.613-5.278,23.976-13.553,31.143-23.544,2.185,5.195,5.291,11.138,7.266,14.523,3.102,5.316,10.814,14.194,17.228,16.65l10.389,1.029c1.554-1.416,3.653-1.95,5.445-1.891,3.901.129,5.564,2.138,6.277,3.316,2.129,3.524,2.039,10.009.604,14.028-1.01,2.841-2.594,6.801-6.593,9.92-1.172.91-4.118,2.331-7.105,2.555-.202.58-.383,1.11-.383,1.11-.701,2.052-2.502,5.711-2.502,5.711-2.156,4.178-4.566,8.14-7.815,12.108.764,2.312,1.528,4.624,2.293,6.936.598,1.81,1.203,3.635,2.169,5.278,2.603,4.427,15.185,5.99,19.102,6.615l.905.163c-.125.134-.197.212-.197.212l-2.208,2.375c-12.472,11.742-27.545,18.907-43.844,20.985-6.287.79-12.774.793-18.963-1.1-5.701-1.762-10.791-5.159-14.652-9.985,3.631-1.871,7.621-3.89,10.123-5.435,2.748-1.392,6.139-3.816,5.613-7.223-8.06.198-15.481-2.038-22.882-6.762-8.97-5.726-13.954-15.672-16.802-27.066-.127-.509-.25-1.021-.369-1.535-1.603-6.939-3.177-14.501-5.087-22.017,0,0-.049-.194-.098-.388l1.577-1.368c.657-.57,1.699-1.396,2.555-2.154,5.225-4.604,10.651-9.851,15.952-15.204Z"/><path class="g" d="M115.075,17.244c8.086,6.06,13.961,15.417,17.326,24.834,1.743,4.876,2.616,9.892,3.285,15.009.367,2.809.684,5.627.906,8.452.225,2.867.138,5.76.422,8.615,1.001,10.066,2.646,20.116,5.477,29.84.896,3.077,1.914,6.118,3.07,9.107,1.125,2.908,2.48,5.726,3.57,8.646,1.706,4.568,2.875,9.635,2.648,14.548-.07,1.509-.466,3.22-1.304,4.729-1.326,2.385-3.438,4.13-5.726,5.553-2.618,1.628-.21,5.782,2.423,4.145,4.233-2.633,7.95-6.38,9.022-11.408.837-3.924.259-8.196-.496-12.077-.56-2.879-1.465-5.673-2.572-8.386-.439-1.076-.907-2.139-1.369-3.204-.103-.236-.204-.473-.306-.71-.042-.099-.084-.198-.127-.297-.159-.373.18.438-.084-.202-1.117-2.704-2.14-5.444-3.045-8.227-2.987-9.189-4.848-18.743-5.976-28.329-.703-5.979-.688-11.995-1.385-17.983-.643-5.523-1.302-11.11-2.926-16.445-3.566-11.714-10.541-22.959-20.41-30.355-1.038-.778-2.682-.168-3.284.861-.717,1.227-.179,2.504.861,3.284h0Z"/><path class="g" d="M22.639,82.311c2.892,11.188,2.879,22.81,2.956,34.288.036,5.336.068,10.684.517,16.005.381,4.507.881,9.139,2.737,13.308,2.241,5.034,6.461,8.909,11.249,11.496,2.718,1.469,5.144-2.674,2.423-4.145-3.963-2.141-7.303-5.126-9.274-9.228-1.656-3.445-2.033-7.777-2.351-11.628-.889-10.781-.251-21.626-.883-32.421-.373-6.376-1.144-12.759-2.745-18.951-.773-2.988-5.403-1.722-4.629,1.276h0Z"/><path class="g" d="M64.751,119.328c.411-.291.841-.547,1.291-.773.112-.056.226-.111.34-.163.05-.023.434-.183.155-.072-.316.126.261-.096.263-.096.125-.046.252-.091.378-.134.552-.188,1.114-.344,1.683-.473.271-.062.544-.117.818-.166.137-.024.275-.043.412-.068.377-.071-.574.056.083-.01.541-.054,1.081-.094,1.625-.097.294-.002.587.006.88.024.127.008.253.017.38.029.067.006.479.07.142.012-.376-.065.194.041.216.045.129.026.258.055.386.086.299.074.594.165.887.259.706.227,1.402.482,2.112.695,1.202.361,2.669-.433,2.952-1.676.295-1.293-.389-2.565-1.676-2.952-1.416-.426-2.764-.975-4.238-1.173-1.295-.174-2.575-.184-3.873-.028-2.655.32-5.426,1.02-7.64,2.587-1.023.723-1.605,2.129-.861,3.284.654,1.015,2.188,1.636,3.284.861h0Z"/><path class="g" d="M75.768,87.822c-.966-2.409-.943-8.138,3.701-9.011,6.194-.477,7.095,6.372,5.28,9.778-1.486,2.789-6.412,4.306-8.98-.767Z"/><path class="g" d="M39.109,92.03c-.91-2.424-.945-8.164,3.304-8.993,5.674-.417,6.568,6.455,4.938,9.851-1.335,2.78-5.836,4.252-8.241-.858Z"/><path class="g" d="M58.996,95.306c-.724,1.626-1.418,3.274-1.998,4.957-.197.572-.358,1.197-.32,1.807.034.553.15,1.128.449,1.605.323.516.73.863,1.232,1.205.694.474,1.455.676,2.276.763.322.034.64.005.963.015,1.256.035,2.457-1.129,2.4-2.4-.06-1.331-1.054-2.362-2.4-2.4-.322-.009-.641.023-.963-.015l.638.086c-.206-.031-.396-.086-.589-.165l.573.242c-.206-.095-.393-.21-.577-.344l.486.375c-.085-.066-.153-.123-.223-.203l.375.486c-.034-.044-.062-.09-.086-.14l.242.573c-.033-.08-.054-.152-.072-.237l.086.638c-.019-.15-.016-.293,0-.442l-.086.638c.102-.66.389-1.313.627-1.934.269-.702.555-1.398.847-2.091l-.242.573c.165-.391.333-.782.505-1.17.271-.609.426-1.181.242-1.849-.153-.557-.584-1.16-1.103-1.434-.557-.294-1.232-.442-1.849-.242-.557.18-1.186.545-1.434,1.103h0Z"/><path class="g" d="M108.896,124.883c5.844-6.279,10.852-13.895,13.704-22.039.428-1.223-.487-2.626-1.676-2.952-1.323-.364-2.522.448-2.952,1.676-.957,2.734-2.468,5.665-4.007,8.363-2.383,4.176-5.187,8.038-8.463,11.559-2.103,2.259,1.284,5.661,3.394,3.394h0Z"/><path class="g" d="M107.303,7.079C97.887,2.137,87.546-.56,76.877.098c-9.636.595-19.301,3.206-27.891,7.619-7.848,4.031-14.689,9.793-19.929,16.891-6.004,8.132-9.151,18.182-10.048,28.184-.471,5.252-.115,10.556.576,15.773.788,5.946,2.029,11.835,3.973,17.516.994,2.906,5.632,1.658,4.629-1.276-5.964-17.433-7.248-38.613,2.958-54.775,9.12-14.443,25.497-22.763,42.149-24.799,4.964-.607,10.046-.639,14.984.208,5.829,1,11.376,3.043,16.602,5.786,2.733,1.434,5.162-2.707,2.423-4.145h0Z"/><path class="g" d="M96.559,127.697c-5.973,3.647-12.291,6.572-19.181,7.948-6.762,1.351-13.688,1.008-20.193-1.33-6.013-2.162-11.554-5.728-15.579-10.721-3.893-4.829-6.309-10.778-7.993-16.692-2.441-8.578-3.941-17.429-6.129-26.076-.757-2.993-5.388-1.725-4.629,1.276,2.061,8.142,3.574,16.424,5.71,24.545,1.722,6.547,4.255,13.089,8.287,18.578,8.716,11.865,24.061,17.538,38.472,15.597,8.508-1.146,16.368-4.53,23.656-8.98,2.632-1.608.223-5.761-2.423-4.145h0Z"/><path class="g" d="M123.739,74.864c1.035-.888,2.408-1.225,3.748-1.188.72.02,1.445.139,2.12.4.223.086.433.19.656.32.271.159.422.267.463.301.178.147.329.319.497.476.077.072.143.158.213.237-.296-.338-.082-.118-.02-.027.27.393.525.808.71,1.248.556,1.321.781,2.805.854,4.227.287,5.606-1.911,12.258-6.571,15.723-2.287,1.701-5.788,2.703-8.541,1.802-2.943-.962-4.204,3.671-1.276,4.629,3.797,1.242,8.344.113,11.681-1.919,3.462-2.107,5.904-5.717,7.455-9.382,1.511-3.571,2.302-7.329,2.03-11.224-.239-3.423-1.136-7.16-3.924-9.417-3.896-3.153-9.759-2.798-13.489.4-.985.844-.867,2.527,0,3.394.976.976,2.407.846,3.394,0h0Z"/><path class="g" d="M85.208,42.468c2.738,6.396,5.831,12.98,10.085,18.526,4.138,5.396,9.275,10.907,15.722,13.458,1.206.477,2.635-.523,2.952-1.676.375-1.364-.466-2.473-1.676-2.952-2.564-1.015-4.989-3.012-7.047-4.926-2.339-2.174-4.518-4.57-6.419-7.137-3.952-5.337-6.871-11.637-9.472-17.715-.51-1.192-2.264-1.457-3.284-.861-1.233.721-1.373,2.087-.861,3.284h0Z"/><path class="g" d="M85.074,39.772c-6.407,8.854-15.556,15.57-25.275,20.386-1.261.625-2.538,1.219-3.828,1.781-.096.042-.455.161-.593.256-.475.33-.332-.165.066.162.013.011-.003.033.02.041.096.472.118.415.064-.169-.007-.24-.011-.48-.012-.72-.013-1.493.041-3.002.244-4.483.234-1.705.888-3.714-.947-4.811-1.641-.981-3.037-.128-4.191,1.076-1.089,1.135-2.181,2.267-3.277,3.396-2.325,2.393-4.669,4.769-7.039,7.118-4.96,4.916-10.048,9.668-15.356,14.205-.986.843-.866,2.528,0,3.394.977.977,2.406.845,3.394,0,4.524-3.868,8.895-7.88,13.155-12.04,2.216-2.163,4.406-4.353,6.578-6.56,1.112-1.13,2.219-2.265,3.323-3.404.493-.509.985-1.019,1.477-1.529.418-.434,1.007-1.308,1.513-1.614l-1.211.328h.226c-.404-.11-.808-.22-1.211-.329l.198.104-.861-.861.127.186-.328-1.211c.05.882-.292,1.897-.396,2.785-.128,1.094-.195,2.194-.213,3.295-.033,1.992-.061,4.003,1.564,5.415,1.69,1.468,3.637,1.173,5.527.364,1.747-.747,3.47-1.55,5.164-2.41,6.607-3.356,12.829-7.585,18.249-12.648,2.957-2.763,5.623-5.804,7.995-9.082.76-1.051.181-2.674-.861-3.284-1.211-.709-2.522-.192-3.284.861h0Z"/><path class="g" d="M107.773,121.02c.725,2.193,1.448,4.387,2.175,6.58.653,1.971,1.302,4.078,2.411,5.851,1.399,2.237,3.763,3.478,6.138,4.436,4.587,1.85,9.545,2.513,14.398,3.282,1.279.202,2.582-.328,2.952-1.676.314-1.141-.389-2.748-1.676-2.952-4.51-.714-9.082-1.345-13.398-2.899-1.013-.365-1.717-.654-2.761-1.287-.255-.155-.508-.316-.747-.495.325.242-.066-.059-.166-.153-.167-.159-.325-.322-.482-.491-.114-.134-.086-.094.084.119-.07-.099-.136-.2-.198-.304-1.834-3.544-2.852-7.503-4.102-11.284-.965-2.919-5.602-1.669-4.629,1.276h0Z"/><path class="g" d="M67.909,138.839c.214,1.728-.774,2.875-2.372,3.959-1.678,1.138-3.535,2.096-5.318,3.061-4.039,2.185-8.195,4.153-12.196,6.409-2.691,1.517-.274,5.666,2.423,4.145,4.34-2.447,8.864-4.552,13.22-6.97,3.991-2.216,9.723-5.13,9.043-10.603-.16-1.286-.989-2.4-2.4-2.4-1.173,0-2.561,1.105-2.4,2.4h0Z"/><path class="g" d="M79.938,72.119c1.04.764,2.251,1.318,3.48,1.7,1.19.371,2.479.561,3.725.533.624-.014,1.252-.258,1.697-.703.416-.416.73-1.099.703-1.697-.057-1.275-1.055-2.431-2.4-2.4-.464.011-.925-.015-1.385-.073l.638.086c-.906-.122-1.787-.363-2.631-.713l.573.242c-.701-.298-1.364-.668-1.978-1.119-.471-.346-1.31-.39-1.849-.242-.557.153-1.16.584-1.434,1.103-.294.557-.442,1.232-.242,1.849l.242.573c.213.361.5.648.861.861h0Z"/><path class="g" d="M96.311,83.119c.056,2.234.207,4.452.525,6.664.28,1.946.586,4.206,1.969,5.716,1.447,1.58,3.93,2.038,5.933,1.415,2.176-.677,3.538-2.434,4.147-4.569.344-1.207-.421-2.666-1.676-2.952-1.278-.291-2.584.384-2.952,1.676-.043.152-.093.301-.14.452-.158.504.255-.454.001.008-.075.136-.157.272-.227.41-.19.375.243-.241.053-.046-.109.112-.222.223-.33.336-.172.182.412-.216.033-.04-.096.058-.194.111-.295.159l.265-.114c-.036-.014-.423.123-.469.136-.503.139.511.009-.013.004-.164-.002-.329-.002-.494-.003-.443-.004.339.098.072.003-.101-.036-.612-.089-.251-.051.319.034-.025-.036-.143-.091-.445-.208.32.291-.017-.018-.326-.299.213.422.006-.011-.042-.072-.081-.147-.117-.222-.076-.159-.053-.1.07.178-.166-.186-.22-.661-.282-.905-.087-.342-.157-.688-.224-1.034-.083-.427-.158-.856-.225-1.286-.009-.057-.108-.767-.036-.214-.028-.212-.053-.425-.077-.638-.186-1.648-.263-3.305-.304-4.962-.031-1.254-1.082-2.459-2.4-2.4-1.274.057-2.433,1.055-2.4,2.4h0Z"/><path class="f" d="M7.803,264.598c-1.437,12.447-3.297,25.377-5.44,37.326,0,0,27.544,0,46.656.004.519-4.34,1.284-10.439,1.617-13.119.61-.02.931-.036.931-.036,28.664-1.424,69.652-1.466,103.728.065l7.308-31.91c-.985-2.946-2.119-6.718-3.486-12.264-1.519-6.165-6.075-43.005-6.026-53.724l.932.751c11.167,9,24.344,17.139,25.699,32.059.307,3.388-.092,5.266-1.086,7.569-.618,1.431.601,2.978,2.141,2.743.562-.086,1.173-.149,1.829-.177,2.199-.094,6.668.757,8.718,1.559,2.353.92,6.127,3.365,7.978,5.085,4.154,3.859,7.502,7.927,10.397,12.352.688,1.051,2.169,1.21,3.068.332,3.702-3.614,6.156-6.235,9.005-9.494,6.556-7.5,8.252-15.38,7.631-24.778-1.256-19.037-14.418-30.848-26.908-44.865-9.791-10.988-16.617-16.045-24.14-21.135-8.985-6.068-16.287-8.815-23.751-11.195-7.009-2.235-11.867-3.298-18.84-4.156l-1.524,1.639-2.208,2.375c-12.472,11.742-27.545,18.907-43.844,20.985-6.287.79-12.774.793-18.963-1.1-6.357-1.965-11.954-5.962-15.934-11.705-12.832,6.919-20.41,10.75-27.796,20.263-5.933,7.643-8.086,13.06-9.747,21.634-3.682,24.257-4.552,39.902-6.962,63.818-.301,2.989-.63,6.03-.985,9.099Z"/><path class="g" d="M51.567,291.173c26.826-1.325,53.742-1.348,80.588-.716,7.716.182,15.43.436,23.14.78,3.088.138,3.082-4.662,0-4.8-27.757-1.24-55.586-1.478-83.362-.798-6.791.166-13.581.399-20.366.734-3.075.152-3.093,4.953,0,4.8h0Z"/><path class="g" d="M150.717,189.774c-.155,3.302.154,6.646.408,9.935.382,4.924.879,9.838,1.418,14.747,1.014,9.239,2.078,18.509,3.642,27.674.894,5.24,2.425,10.398,4.104,15.435.972,2.916,5.609,1.666,4.629-1.276-1.556-4.669-3.019-9.463-3.906-14.309-.664-3.633-1.163-7.299-1.657-10.958.041.304-.042-.316-.054-.402-.035-.265-.07-.529-.105-.794-.083-.632-.166-1.264-.247-1.896-.163-1.265-.322-2.531-.478-3.797-.324-2.634-.635-5.269-.931-7.906-.557-4.96-1.071-9.927-1.484-14.901-.317-3.819-.718-7.715-.538-11.552.145-3.088-4.656-3.081-4.8,0h0Z"/><path class="e" d="M199.304,240.529c-1.851-1.72-5.625-4.165-7.978-5.085-1.687-.659-4.994-1.344-7.344-1.517l-1.426.568c-2.739,4.315-9.635,15.53-15.055,20.031-2.242,2.2-8.372,3.603-10.782,6.596-.997,1.391-1.827,2.561-2.299,4.206-.299,1.044-.596,2.352-.608,3.438-.096,8.894.899,17.799,2.958,26.452.437,1.835.94,3.702,2.017,5.251,1.077,1.549,2.848,2.741,4.731,2.636,1.884-.105,3.668-1.848,3.39-3.714,0,0,.483-.094,1.185-.229,1.195,6.251,2.063,12.091,3.63,19.679.684,3.31,1.513,8.4,3.485,11.145.735,1.023,1.778,1.932,3.031,2.062,2.279.236,3.962-2.082,4.771-4.226,2.142-5.672,2.487-11.256,2.076-17.566-.78-11.976-2.278-29.195-2.217-30.943.083-2.401.692-5.095,1.618-6.67,9.377-8.631,16.416-15.817,23.399-22.392-2.469-3.423-5.266-6.641-8.583-9.722Z"/><path class="g" d="M162.954,287.267c2.198,8.41,3.586,16.957,5.151,25.497.753,4.107,1.461,8.273,2.516,12.316.952,3.649,2.716,8.544,6.981,9.284,4.758.826,7.216-4.052,8.379-7.814,1.369-4.426,1.767-9.115,1.63-13.728-.231-7.749-1.059-15.508-1.653-23.236-.405-5.268-1.447-11.232-.035-16.439.809-2.985-3.82-4.259-4.629-1.276-1.181,4.356-.792,8.964-.463,13.395.51,6.89,1.073,13.777,1.561,20.669.284,4.006.619,8.021.33,12.037-.147,2.04-.478,4.05-1.003,6.027-.434,1.635-.888,3.55-2.003,4.878-2.27,2.706-3.957-3.191-4.368-4.705-.996-3.665-1.636-7.46-2.336-11.189-1.695-9.032-3.103-18.091-5.429-26.993-.78-2.986-5.412-1.72-4.629,1.276h0Z"/><path class="g" d="M165.804,252.83c-.404.378-.908.678-1.605,1.055-.805.436-1.638.82-2.466,1.208-1.808.848-3.607,1.698-5.195,2.925-3.922,3.032-5.162,7.962-5.129,12.688.039,5.554.521,11.094,1.369,16.582.42,2.717.942,5.418,1.567,8.095.588,2.518,1.309,5.047,2.97,7.087,1.709,2.098,4.466,3.448,7.194,2.91s5.034-3.14,4.8-5.989c-.106-1.292-1.027-2.4-2.4-2.4-1.216,0-2.507,1.101-2.4,2.4.101,1.233-1.2,1.548-2.176,1.107-1.554-.703-2.291-2.495-2.748-4.016-1.282-4.259-2.018-8.787-2.56-13.195-.552-4.494-.827-9.022-.819-13.551.006-3.184,1.103-6.595,3.904-8.395,2.916-1.873,6.518-2.717,9.087-5.118,2.262-2.113-1.137-5.502-3.394-3.394h0Z"/><path class="g" d="M169.198,256.224c3.477-2.922,6.227-6.763,8.825-10.453,2.311-3.283,4.455-6.675,6.605-10.064,1.66-2.616-2.493-5.027-4.145-2.423-2.098,3.308-4.19,6.619-6.439,9.827-2.434,3.472-4.933,6.937-8.241,9.718-.993.835-.861,2.533,0,3.394.983.983,2.399.837,3.394,0h0Z"/><path class="g" d="M185.313,275.141c8.26-7.573,16.144-15.535,24.298-23.218,2.253-2.123-1.146-5.513-3.394-3.394-8.154,7.684-16.037,15.646-24.298,23.218-2.282,2.092,1.12,5.479,3.394,3.394h0Z"/><path class="g" d="M54.055,146.644c-8.656,4.691-17.798,9.044-25.015,15.887-7.354,6.973-12.77,15.871-15.029,25.764-1.383,6.058-1.988,12.354-2.754,18.515-.7,5.627-1.31,11.265-1.866,16.908-1.149,11.654-2.099,23.327-3.334,34.972-1.512,14.261-3.483,28.478-6.008,42.596-.228,1.275.346,2.587,1.676,2.952,1.161.319,2.723-.394,2.952-1.676,4.337-24.247,6.67-48.694,8.971-73.197,1.056-11.249,2.279-22.479,3.911-33.66.735-5.04,1.726-10.136,3.899-14.782,2.139-4.573,5.151-8.807,8.552-12.527,7.259-7.939,17.156-12.561,26.468-17.607,2.717-1.472.296-5.618-2.423-4.145h0Z"/><path class="g" d="M31.312,204.585c-1.975,9.227-.81,18.709,1.904,27.664,2.559,8.442,6.51,16.272,10.245,24.228,1.818,3.874,3.556,7.74,4.503,11.932.915,4.051,1.125,8.209.968,12.35-.246,6.515-1.325,13.016-2.11,19.483-.912,7.523-2.289,14.987-3.455,22.51-.198,1.279.325,2.581,1.676,2.952,1.138.313,2.753-.388,2.952-1.676.571-3.688,1.074-7.387,1.688-11.069.558-3.344,1.217-6.646,1.614-10.013.706-5.991,1.614-11.975,2.158-17.983.781-8.628.108-17.257-3.317-25.289-3.391-7.953-7.614-15.52-10.598-23.649-3.516-9.577-5.773-20.014-3.601-30.165.645-3.012-3.981-4.3-4.629-1.276h0Z"/><path class="g" d="M51.563,151.48c3.812,5.213,8.817,9.178,14.833,11.553,6.573,2.595,13.922,2.848,20.871,2.065,12.702-1.43,24.963-5.92,35.562-13.076,4.772-3.222,9.192-6.883,13.11-11.096,2.102-2.26-1.285-5.662-3.394-3.394-6.983,7.51-15.697,13.445-25.14,17.442-5.447,2.306-11.204,3.928-17.037,4.889-6.376,1.05-13.077,1.32-19.368-.364-6.114-1.637-11.55-5.325-15.291-10.441-.764-1.045-2.084-1.563-3.284-.861-1.031.603-1.63,2.232-.861,3.284h0Z"/><path class="g" d="M141.865,140.923c8.401,1.586,16.894,4.235,24.614,7.934,7.083,3.394,13.756,7.9,19.849,12.85,6.825,5.544,12.606,12.07,18.523,18.538,5.639,6.164,11.446,12.304,15.798,19.482,4.329,7.14,6.604,15.034,6.469,23.402-.062,3.879-.687,7.785-2.233,11.366-1.731,4.01-4.497,7.257-7.415,10.445-1.495,1.633-3.03,3.229-4.595,4.794-.43.43-.861.857-1.295,1.282l-.168.165c-.399.334-.476.425-.232.272.066.047.206-.255.288-.029.236.659.116-.232.105-.043.01-.174-.283-.442-.391-.602-.36-.533-.727-1.06-1.101-1.583-2.769-3.864-5.908-7.651-9.522-10.76-2.881-2.478-6.362-4.751-10.05-5.779-1.924-.536-3.915-.878-5.9-1.083-.829-.085-1.653-.122-2.486-.064-.215.015-1.617.042-1.67.173.179-.44.462.428.388.393.139.065-.227.509.121-.146.124-.234.21-.499.304-.746.133-.348.257-.7.364-1.058.307-1.034.471-2.115.554-3.189.163-2.113-.106-4.297-.501-6.371-.726-3.81-2.324-7.475-4.479-10.691-4.416-6.591-10.748-11.497-16.941-16.312-1.52-1.182-3.04-2.365-4.541-3.572-1.009-.812-2.408-.986-3.394,0-.84.84-1.015,2.578,0,3.394,6.338,5.097,13.205,9.76,18.515,15.992,4.553,5.343,8.504,13.704,5.722,20.728-.948,2.393-.218,5.11,2.369,6.078,1.093.409,2.065.204,3.19.127.941-.065,1.88-.015,2.815.101,1.772.219,3.582.595,5.274,1.173,1.703.582,3.487,1.747,5.044,2.812,3.697,2.53,6.821,6.135,9.532,9.669.739.964,1.445,1.954,2.129,2.958.7,1.029,1.299,2.049,2.428,2.651,1.084.579,2.373.637,3.519.229,1.327-.473,2.278-1.654,3.249-2.622,6.4-6.383,12.84-13.121,14.892-22.215,1.959-8.683.888-18.255-2.511-26.439s-8.863-15.09-14.679-21.641c-2.991-3.369-6.076-6.652-9.082-10.007-3.236-3.612-6.553-7.145-10.121-10.433-5.909-5.445-12.498-10.342-19.404-14.452-7.828-4.658-16.463-7.852-25.232-10.233-2.258-.613-4.537-1.136-6.836-1.57-1.272-.24-2.589.354-2.952,1.676-.322,1.171.396,2.711,1.676,2.952h0Z"/><path class="h" d="M214.953,296.428c8.414,1.595,16.886,2.865,25.296,4.48l-1.434-3.526c-1.597,3.782-3.53,7.412-5.203,11.159-.555,1.243-.252,3.268,1.434,3.526,8.779,1.34,17.57,2.597,26.35,3.929,1.28.194,2.58-.322,2.952-1.676.312-1.135-.387-2.757-1.676-2.952-8.78-1.332-17.571-2.589-26.35-3.929l1.434,3.526c1.673-3.748,3.606-7.377,5.203-11.159.548-1.297.255-3.201-1.434-3.526-8.41-1.614-16.883-2.884-25.296-4.48-1.272-.241-2.589.355-2.952,1.676-.322,1.172.396,2.71,1.676,2.952h0Z"/><path class="h" d="M209.08,281.302c10.479-3.27,20.495-7.897,30.98-11.144l-3.038-2.314c.366,4.089.364,8.201.647,12.295.1,1.447,1.468,2.863,3.038,2.314,9.031-3.159,18.19-5.939,27.217-9.107,1.223-.429,2.037-1.641,1.676-2.952-.326-1.186-1.724-2.107-2.952-1.676-9.028,3.168-18.187,5.949-27.217,9.107l3.038,2.314c-.283-4.094-.281-8.207-.647-12.295-.133-1.486-1.434-2.811-3.038-2.314-10.485,3.247-20.501,7.874-30.98,11.144-2.939.917-1.685,5.553,1.276,4.629h0Z"/></g></g></svg>