<svg xmlns="http://www.w3.org/2000/svg" width="351.702" height="324.762" viewBox="0 0 351.702 324.762" style="color: initial !important;"><defs><style>.a{fill:#f2635f;}.b{fill:#ffffff;}.c{fill:#211715;}.d{fill:#74c66d;}.e{fill:#ffda71;}</style></defs><path class="a" d="M241.957,303.718v-1.832c0-7.478,0-16.277,0-25,13.434-11.836,29.2-25.6,40.535-35.127a3.988,3.988,0,0,1,5.131-.009c13.364,11.176,27.2,22.982,40.714,34.87-.005,14.621-.005,31.094,0,45.319H241.958S241.958,314.382,241.957,303.718Z"/><path class="a" d="M328.328,229.581H309.153v4.391c6.411,5.489,12.832,11.055,19.18,16.638-.005-10.1-.005-21.029-.005-21.029"/><path class="b" d="M266.844,273.842c0,10.913-.006,25.683-.006,36.6,10.92,0,25.691,0,36.6,0,0-10.913,0-25.684,0-36.6C292.528,273.845,277.758,273.84,266.844,273.842Z"/><path class="b" d="M226.721,264.358c14.588-12.966,39.661-35.056,55.766-48.6a3.989,3.989,0,0,1,5.131-.009c20.1,16.812,41.284,35.048,60.8,52.838a3.994,3.994,0,0,1,.3,5.59c-2.478,2.819-5.082,5.746-7.569,8.509a3.99,3.99,0,0,1-5.624.307c-15.752-14.024-32.164-28.07-47.914-41.242a3.988,3.988,0,0,0-5.131.009c-13.325,11.209-32.789,28.265-47.374,41.163a3.99,3.99,0,0,1-5.614-.319c-2.5-2.772-5.162-5.768-7.64-8.6a3.994,3.994,0,0,1,.337-5.619C223.552,267.178,225.069,265.827,226.721,264.358Z"/><path class="b" d="M309.153,220.663v8.918h19.175v-8.918a1,1,0,0,0-1-1H310.153A1,1,0,0,0,309.153,220.663Z"/><path class="c" d="M326.328,229.581v18.9c0,2.574,4,2.579,4,0v-18.9c0-2.574-4-2.578-4,0Z"/><path class="c" d="M307.153,220.663v8.918a2.029,2.029,0,0,0,2,2h19.175a2.029,2.029,0,0,0,2-2v-6.318c0-.856.042-1.724,0-2.579a3.087,3.087,0,0,0-3.134-3.021c-4.564-.149-9.158,0-13.725,0H310.6a3.185,3.185,0,0,0-3.447,3,2.012,2.012,0,0,0,2,2,2.047,2.047,0,0,0,2-2c-.2,1.737-1.554.908-.781,1a6.523,6.523,0,0,0,.753,0h15.614c.116,0,.418.058.52,0,.084-.047-.845-1.108-.931-.916a2.708,2.708,0,0,0,0,.843v7.991l2-2H309.153l2,2v-8.918C311.153,218.089,307.153,218.085,307.153,220.663Z"/><path class="c" d="M228.135,265.773q21.71-19.295,43.676-38.3,5.232-4.506,10.5-8.968a6.119,6.119,0,0,1,2.367-1.66c1.231-.243,2.115.8,2.964,1.513q3.441,2.883,6.872,5.777,14.364,12.118,28.521,24.479,7.077,6.191,14.087,12.456,3.376,3.019,6.735,6.06a41.892,41.892,0,0,1,3.278,2.99,2.016,2.016,0,0,1,.37,2.312,17.179,17.179,0,0,1-2.7,3.167q-1.584,1.786-3.175,3.566c-.751.839-1.55,2.166-2.592,2.653s-1.867-.052-2.633-.733q-7.037-6.26-14.143-12.44Q307.947,256.195,293.41,244q-1.641-1.38-3.286-2.756a9.266,9.266,0,0,0-3.635-2.256c-2.887-.718-4.923.932-6.98,2.67q-5.567,4.7-11.082,9.469-12.365,10.657-24.61,21.454-3.042,2.676-6.08,5.356l-2.62,2.313c-.729.645-1.494,1.617-2.537,1.669s-1.626-.69-2.268-1.4q-1.617-1.8-3.225-3.607-1.461-1.644-2.913-3.294c-.682-.775-1.5-1.5-1.278-2.629.194-1,1.207-1.624,1.916-2.256l3.323-2.957c1.928-1.714-.909-4.535-2.828-2.829q-1.662,1.477-3.324,2.958a8.816,8.816,0,0,0-2.733,3.372,5.977,5.977,0,0,0-.159,3.729,9.7,9.7,0,0,0,2.406,3.612c2.082,2.366,4.16,4.74,6.288,7.065a6.142,6.142,0,0,0,7.454,1.561,15.427,15.427,0,0,0,2.85-2.287l3.069-2.71q3.21-2.831,6.424-5.656,6.542-5.75,13.106-11.47,6.405-5.579,12.844-11.119,3.038-2.611,6.088-5.207,1.357-1.154,2.718-2.3c.719-.608,1.537-1.575,2.532-1.668,1.279-.119,2.268,1.121,3.155,1.864q2.013,1.686,4.023,3.378,3.782,3.182,7.55,6.38,7.724,6.554,15.386,13.178,7.6,6.57,15.123,13.222c2.13,1.885,4.375,4.728,7.358,5.1,3.209.4,5.05-1.776,6.989-3.944q1.591-1.779,3.175-3.565a27.17,27.17,0,0,0,3.246-3.824,6.1,6.1,0,0,0-.784-7.186c-1.024-1.125-2.279-2.1-3.406-3.116q-1.94-1.757-3.886-3.507-3.565-3.206-7.151-6.388-15-13.316-30.282-26.3-7.422-6.32-14.9-12.577a11,11,0,0,0-3.628-2.447,6.019,6.019,0,0,0-4.165.24c-2.079.9-3.893,2.942-5.611,4.4C261.188,231.223,245.548,245,229.954,258.82q-2.325,2.061-4.647,4.124C223.379,264.658,226.216,267.478,228.135,265.773Z"/><path class="c" d="M239.958,278.266v43.67a2.029,2.029,0,0,0,2,2h86.371a2.029,2.029,0,0,0,2-2q0-22.335,0-44.67c0-2.574-4-2.578-4,0q0,22.335,0,44.67l2-2H241.958l2,2v-43.67c0-2.574-4-2.578-4,0Z"/><path class="c" d="M264.844,273.842q0,18.3-.006,36.6a2.03,2.03,0,0,0,2,2q18.3,0,36.6,0a2.03,2.03,0,0,0,2-2q0-18.3,0-36.6a2.029,2.029,0,0,0-2-2q-18.3,0-36.6,0c-2.574,0-2.578,4,0,4q18.3,0,36.6,0l-2-2q0,18.3,0,36.6l2-2q-18.3,0-36.6,0l2,2q0-18.3.006-36.6C268.844,271.269,264.844,271.264,264.844,273.842Z"/><path class="c" d="M303.446,290.147q-18.3,0-36.605,0c-2.574,0-2.578,4,0,4q18.3,0,36.605,0c2.573,0,2.578-4,0-4Z"/><path class="c" d="M283.145,273.843q0,18.3,0,36.6c0,2.574,4,2.578,4,0q0-18.3,0-36.6c0-2.573-4-2.578-4,0Z"/><path class="b" d="M91.548,229.128c2.038-1.847,3.358-6.159,4.633-8.973a3.1,3.1,0,0,0-2.356-4.543c-2.78-.519-5.11-.86-7.977-1.2-2.909-.345-6.578,1.622-9.213,1.682a24.873,24.873,0,0,1-8.766-1.892,3.036,3.036,0,0,0-3.959,3.653c1.387,4.972,3.877,11.023,8.257,13.887l-6.379,9.328a46.125,46.125,0,0,0-6.965,6.962c1.834.965,3.827,2,6,3.1,13.063,6.648,30.238,11.984,44.285,14.866-.374-7.59-3.023-15.5-12.169-22.473L90.8,238.443Z"/><path class="c" d="M73.176,230.015c-2.969-2.008-4.8-5.471-6.045-8.74q-.49-1.285-.9-2.6c-.181-.584-.619-1.427-.355-2.026a1.086,1.086,0,0,1,1.111-.618,6.322,6.322,0,0,1,1.472.5c.68.232,1.362.454,2.052.652a18.18,18.18,0,0,0,6.771.869,46.566,46.566,0,0,0,5.74-1.375,15.772,15.772,0,0,1,6.1.172q1.522.224,3.037.492c.665.118,1.8.121,2.224.773.341.526.013,1.134-.193,1.641-.407,1-.822,1.988-1.229,2.984a14.129,14.129,0,0,1-2.827,4.982c-1.862,1.784.969,4.61,2.828,2.828a16.892,16.892,0,0,0,3.494-5.873c.815-1.94,2.229-4.268,2.046-6.424a5.25,5.25,0,0,0-4.6-4.646,62.464,62.464,0,0,0-8.4-1.218c-2.456-.123-4.817.84-7.158,1.424-2.663.664-5.345-.015-7.9-.836-2.474-.795-4.93-1.623-7.074.449-1.982,1.916-1.631,4.287-.876,6.66,1.626,5.1,4.11,10.306,8.672,13.391,2.138,1.446,4.142-2.018,2.019-3.454Z"/><path class="a" d="M92.519,238.481a1.4,1.4,0,0,0,.481-.375,1.892,1.892,0,0,0,.271-1.16,24.272,24.272,0,0,0-.292-3.9c-.172-1.093-.614-2.381-1.7-2.61a3.026,3.026,0,0,0-1.446.181,45.659,45.659,0,0,1-22.179.766,2.142,2.142,0,0,0-2.592,1.981,28.778,28.778,0,0,0,.111,4.206,2.533,2.533,0,0,0,2.236,2.281c5.15.6,18.145,1.575,24.782-1.22C92.3,238.584,92.414,238.536,92.519,238.481Z"/><path class="c" d="M93.529,240.208c1.418-.877,1.753-2.152,1.74-3.752a17.221,17.221,0,0,0-.57-4.856,4.585,4.585,0,0,0-2.127-2.805c-1.507-.792-3.1-.128-4.619.259a44.692,44.692,0,0,1-19.306.494c-2.952-.547-5.4.889-5.59,4.051-.16,2.588-.246,5.935,2.176,7.532,1.568,1.033,3.986.926,5.811,1.069,2.26.177,4.526.287,6.793.31,5.2.053,10.883-.1,15.692-2.3a2.015,2.015,0,0,0,.717-2.736,2.046,2.046,0,0,0-2.736-.718c-3.022,1.381-6.687,1.582-9.955,1.708a90.437,90.437,0,0,1-10.794-.284q-.972-.079-1.944-.177c-.39-.039-1.1.017-1.4-.2-.5-.368-.338-1.476-.359-2.017q-.034-.858-.014-1.716c.011-.451-.085-.6.122-.729.109-.068.075-.018-.038-.025a8.162,8.162,0,0,1,.916.186q.917.179,1.84.317c1.254.189,2.515.344,3.779.442a46.006,46.006,0,0,0,7.7-.05,48.2,48.2,0,0,0,8.336-1.473,4.127,4.127,0,0,0,.853-.239c.466-.248.283.182.072-.247a3.4,3.4,0,0,1,.343.875,13.043,13.043,0,0,1,.242,1.868c.024.325.042.652.053.978.014.4-.271,1.111.253.787C89.325,238.106,91.331,241.567,93.529,240.208Z"/><path class="c" d="M111.124,266.465a32.4,32.4,0,0,0-2.974-12.708,33.683,33.683,0,0,0-10.2-11.957,2.011,2.011,0,0,0-2.737.718,2.05,2.05,0,0,0,.718,2.736,29.422,29.422,0,0,1,8.768,10.522,27.42,27.42,0,0,1,2.428,10.689c.105,2.565,4.105,2.578,4,0Z"/><path class="c" d="M64.374,239.656a46.606,46.606,0,0,0-6.8,6.754,2.156,2.156,0,0,0-.586,1.414,2,2,0,0,0,3.414,1.415,46.663,46.663,0,0,1,6.8-6.755,2,2,0,0,0,.586-1.414,2.032,2.032,0,0,0-.586-1.414,2.01,2.01,0,0,0-1.414-.586,2.3,2.3,0,0,0-1.414.586Z"/><path class="c" d="M75.619,240.679a39.492,39.492,0,0,0-1.874,7.272,2.182,2.182,0,0,0,.2,1.541,2,2,0,0,0,3.656-.478,39.4,39.4,0,0,1,1.875-7.271,2.012,2.012,0,0,0-1.4-2.461,2.053,2.053,0,0,0-2.461,1.4Z"/><path class="c" d="M82.423,241.775a13.861,13.861,0,0,0,.86,4.135,2.233,2.233,0,0,0,.92,1.195,2,2,0,0,0,2.736-.718,1.956,1.956,0,0,0,.2-1.541,12.1,12.1,0,0,1-.7-2.732l.071.532q-.057-.435-.084-.871a2.116,2.116,0,0,0-.586-1.415,2,2,0,0,0-2.828,0,1.993,1.993,0,0,0-.586,1.415Z"/><path class="a" d="M111.88,305.715q-.315-1.642-.668-3.277a54.531,54.531,0,0,1-9.5,1.811q.919,4.537,1.545,9.129h9.879Q112.614,309.532,111.88,305.715Z"/><path class="a" d="M108.332,313.379h15.325a9.737,9.737,0,0,0,8.164-4.6,5.465,5.465,0,0,1,5.013-2.409l.1.009a5.476,5.476,0,0,1,4.379,7.977,14.8,14.8,0,0,1-2.456,3.433c-3.225,3.337-7.961,4.945-15.2,4.945H22.883a4.668,4.668,0,0,1-5.057-4.814c0-2.307,1.294-4.538,4.779-4.538h85.727Z"/><path class="a" d="M44.715,303.278q-.866,5.012-1.37,10.1h10.11c.425-3.671.988-7.314,1.712-10.914q-2.294-.385-4.577-.832c-1.783-.347-3.581-.732-5.353-1.2Q44.961,301.852,44.715,303.278Z"/><path class="c" d="M43.168,300.636q-1,5.3-1.6,10.66a2,2,0,0,0,2,2,2.058,2.058,0,0,0,2-2q.146-1.275.314-2.547c-.052.395.032-.232.034-.25q.041-.293.082-.586.09-.633.187-1.267.377-2.481.841-4.947a2,2,0,0,0-3.857-1.063Z"/><path class="c" d="M114.931,311.89q-.829-5.778-2.12-11.474a2.017,2.017,0,0,0-2.461-1.4,2.045,2.045,0,0,0-1.4,2.46q1.288,5.692,2.121,11.473a2,2,0,0,0,2.46,1.4,2.063,2.063,0,0,0,1.4-2.46Z"/><path class="c" d="M105.052,311.89q-.83-5.778-2.121-11.474a2.016,2.016,0,0,0-2.46-1.4,2.045,2.045,0,0,0-1.4,2.46q1.287,5.692,2.121,11.473a2,2,0,0,0,2.46,1.4,2.063,2.063,0,0,0,1.4-2.46Z"/><path class="c" d="M53.091,302.657c-.623,3.236-1.119,6.494-1.522,9.764a2,2,0,0,0,2,2,2.059,2.059,0,0,0,2-2q.072-.58.148-1.161c.011-.09.023-.179.035-.268-.032.234-.031.233,0,0,.024-.178.049-.357.074-.535q.156-1.113.331-2.224.357-2.261.79-4.509a2,2,0,1,0-3.857-1.063Z"/><path class="d" d="M25.052,281.6a33.383,33.383,0,0,1-.986-6.049,61.091,61.091,0,0,1,4.628-26.505c1.719-4.024,4.934-7.775,9.238-8.567,4.129-.76,8.2,1.314,11.847,3.4,22.069,12.625,42.242,31.13,69.947,30.239,5.7-.089,7.92,4.48,8.456,7.651a15.153,15.153,0,0,1-1.887,9.411c-6.062,11.18-19.639,12.979-31.031,13.579a183.289,183.289,0,0,1-44.674-3.126c-6.445-1.257-13.089-3-18.04-7.308A25.088,25.088,0,0,1,25.052,281.6Z"/><path class="c" d="M26.981,281.069c-2.263-8.939-.754-18.9,2.139-27.527,1.228-3.661,2.809-7.658,6.193-9.857,4.158-2.7,8.762-.7,12.669,1.476,14.653,8.172,27.87,18.8,43.427,25.338a68.9,68.9,0,0,0,24.825,5.629c1.961.052,4.168-.339,6.038.4a5.819,5.819,0,0,1,2.844,2.531c1.874,3.174,1.378,7.162-.169,10.375-3.237,6.725-9.914,10.169-16.906,11.768-8.253,1.889-17.043,1.928-25.461,1.788a179.62,179.62,0,0,1-31.66-3.322,46.949,46.949,0,0,1-12.643-3.9,21.145,21.145,0,0,1-9.07-8.9,26.958,26.958,0,0,1-2.226-5.793c-.666-2.484-4.525-1.43-3.857,1.064a28.2,28.2,0,0,0,6.589,12.244,28.983,28.983,0,0,0,12.322,7.212,98.579,98.579,0,0,0,15.234,3.229c5.643.866,11.324,1.492,17.023,1.844a149.78,149.78,0,0,0,30.138-.753c7.7-1.094,15.8-3.691,20.946-9.866,2.993-3.591,5.2-8.25,4.943-13.02a11.991,11.991,0,0,0-4.659-9.173,9.917,9.917,0,0,0-5.742-1.731c-2.375-.013-4.727.02-7.1-.179a61.518,61.518,0,0,1-13.175-2.658C82.431,263.91,68.106,252.35,52.77,243.3c-4.317-2.547-9.169-5.512-14.4-4.894-4.579.54-8.2,3.762-10.425,7.651-2.343,4.088-3.658,8.983-4.612,13.565A59.971,59.971,0,0,0,22,274.368a38.478,38.478,0,0,0,1.126,7.765C23.755,284.627,27.614,283.57,26.981,281.069Z"/><path class="b" d="M35.482,236.524c-3.741,0-5.578.873-6.622,2.643a7.126,7.126,0,0,0-.742,6.028,10.542,10.542,0,0,0,3.771,5.048c18.285,13.743,64.736,31.433,90.547,29.448a10.017,10.017,0,0,0,5.935-2.495c1.469-1.3,2.275-3.969,1.9-5.275-.608-2.1-2.489-3.2-4.957-3.635-14.22-.695-39.381-7.2-58.233-16.795C47,241.276,39.828,236.524,35.482,236.524Z"/><path class="c" d="M35.482,234.524c-4.27-.236-8.265,1.7-9.5,6.059-1.365,4.815,1.885,9.192,5.553,11.872A115.428,115.428,0,0,0,49.628,262.9,206.33,206.33,0,0,0,98.69,279.642a92.253,92.253,0,0,0,22.434,2.132c4.619-.232,9.362-2.057,10.868-6.84,1.444-4.583-2.256-8.223-6.681-8.648-3.481-.334-6.921-.633-10.375-1.219-4.283-.726-8.534-1.642-12.751-2.686a194.866,194.866,0,0,1-27.395-8.868c-8.611-3.546-16.8-8.1-24.946-12.6-3.852-2.127-7.855-4.859-12.148-6.023a11.942,11.942,0,0,0-2.214-.367c-2.567-.194-2.555,3.807,0,4,.728.055-.252-.1.391.048.289.067.578.124.864.2.312.088.619.19.923.3.155.056.307.118.461.176.569.214-.132-.069.252.1,1.862.838,3.656,1.815,5.446,2.8,6.947,3.812,13.869,7.674,20.969,11.2A166.153,166.153,0,0,0,89.821,263.1a188.481,188.481,0,0,0,24.7,5.929c3.383.558,6.766.9,10.176,1.22,1.341.126,3.091.635,3.595,2.047.4,1.122-.661,3.007-1.733,3.812-2.818,2.115-6.789,1.8-10.133,1.708a86.548,86.548,0,0,1-10.129-.9C90.449,274.6,74.847,269.563,60.147,263.3a168.194,168.194,0,0,1-19.626-9.756,70.988,70.988,0,0,1-7.438-4.885c-2.806-2.176-4.84-6.367-1.887-9.139,1.1-1.034,2.767-1.075,4.286-.991C38.054,238.667,38.046,234.667,35.482,234.524Z"/><path class="c" d="M108.332,315.379H118.49c2.929,0,6.152.374,8.95-.65a12.073,12.073,0,0,0,3.89-2.347c1.138-1.011,1.826-2.541,3.054-3.415a3.593,3.593,0,0,1,5.26,1.444c1.131,2.524-1.277,5.215-3.04,6.759a14.444,14.444,0,0,1-6.685,3.022c-3.442.712-7.011.539-10.509.539H23.493c-1.775,0-3.482-.471-3.66-2.514-.2-2.261,1.425-2.838,3.407-2.838h85.092c2.574,0,2.579-4,0-4H23.923c-2.216,0-4.423.117-6.146,1.71a6.945,6.945,0,0,0-1.4,7.585c1.148,2.756,3.827,4.034,6.7,4.057,1.065.009,2.13,0,3.194,0h91.413c3.183,0,6.415.133,9.586-.153,6.213-.558,12.053-2.907,15.358-8.481a7.521,7.521,0,0,0-12.317-8.632,10.213,10.213,0,0,1-3.131,3.012c-2.51,1.41-5.748.9-8.518.9H108.332C105.759,311.379,105.754,315.379,108.332,315.379Z"/><path class="b" d="M271.315,140.806c0-3.7,0-7.894,0-11.186v-1.352h27.942c0,.847,0,1.352,0,1.352,0,4.228,0,9.951,0,14.182H271.314C271.314,142.866,271.314,141.856,271.315,140.806Z"/><path class="c" d="M297.251,129.624q0,6.765.011,13.53a2,2,0,0,0,4,0q0-6.765-.011-13.53a2,2,0,0,0-4,0Z"/><path class="c" d="M269.322,129.624q0,6.765-.011,13.53a2,2,0,0,0,4,0q0-6.765.011-13.53a2,2,0,0,0-4,0Z"/><path class="c" d="M265.611,151.838q0-4.341,0-8.682l-2,2h43.344l-2-2q0,4.341,0,8.682c0,2.574,4,2.578,4,0q0-4.341,0-8.682a2.029,2.029,0,0,0-2-2H263.609a2.03,2.03,0,0,0-2,2q0,4.341,0,8.682c0,2.574,4,2.578,4,0Z"/><path class="d" d="M345.489,127.816c-8.577-9.927-23.193-26.967-27.682-32.18a.94.94,0,0,1,.713-1.553c4.186-.009,8.473-.023,11.292-.027a.937.937,0,0,0,.719-1.54c-3.094-3.7-9.1-10.963-14.717-17.776h0l-.729.7c-1.711,1.65-5.687,2.042-8.547,1.562-4.945-.836-8.5-3.247-12.765-5.35a19.73,19.73,0,0,0-13.583-1.783c-2.367.5-4.551,1.549-6.9,2.14-5.731,1.462-10.773.618-13.261-3.758-6.131,7.375-14.611,17.6-20.039,24.275a.938.938,0,0,0,.729,1.53l11.341.024a.938.938,0,0,1,.711,1.551c-5.187,6.011-22.711,26.39-27.694,32.185a.937.937,0,0,0,.713,1.55H344.779A.937.937,0,0,0,345.489,127.816Z"/><path class="b" d="M270.859,38.891c-6.668,7.9-13.077,15.529-15.741,18.7a.938.938,0,0,0,.716,1.544c2.711,0,6.266.014,9.755.022a.939.939,0,0,1,.725,1.539c-1.324,1.589-3.576,4.292-6.289,7.555,2.488,4.376,7.53,5.22,13.261,3.758,2.353-.591,4.537-1.636,6.9-2.14a19.73,19.73,0,0,1,13.583,1.783c4.269,2.1,7.819,4.514,12.765,5.35,2.86.48,6.836.088,8.547-1.562l.729-.7c-4.847-5.876-9.41-11.416-11.575-14.045a.939.939,0,0,1,.728-1.535c3.494-.008,7.056-.018,9.772-.022a.939.939,0,0,0,.715-1.545C310.692,51.919,294.012,32.057,286,22.738a.938.938,0,0,0-1.425,0C280.781,27.162,275.75,33.1,270.859,38.891Z"/><path class="c" d="M259.282,70.685a11.619,11.619,0,0,0,9.62,3.981,23.188,23.188,0,0,0,6.223-1.1,55.263,55.263,0,0,1,6.258-1.9,18.6,18.6,0,0,1,11.941,2c3.584,1.809,7.064,3.917,10.991,4.914,3.894.989,9,1.123,12.184-1.719,1.926-1.717-.911-4.537-2.828-2.828a6.554,6.554,0,0,1-3.9,1.145,15.074,15.074,0,0,1-5-.62c-3.56-1.013-6.688-3.013-9.989-4.626a22.694,22.694,0,0,0-11.345-2.515,24.1,24.1,0,0,0-5.955,1.131,53.125,53.125,0,0,1-5.961,1.82c-3.437.685-7.1.394-9.411-2.508a2.013,2.013,0,0,0-2.828,0,2.049,2.049,0,0,0,0,2.829Z"/><path class="c" d="M296.5,38.158q5.184,6.144,10.356,12.3,2.057,2.445,4.11,4.891l1.644,1.958.659.785.3.356c.444.528.282.653.572-.449.282-1.076.412-.86-.358-.858l-.808,0-1.709,0-4.151.007c-1.182,0-2.611-.2-3.675.433a2.975,2.975,0,0,0-1.343,3.144c.263,1.178,1.425,2.23,2.182,3.148q1.305,1.581,2.609,3.164,6.945,8.423,13.9,16.84,3.084,3.732,6.176,7.457l1.225,1.473a4.656,4.656,0,0,0,.58.7c.061.047.182.283.241.289l.474-1.735h-.522q-3.771,0-7.541.015c-2.2.005-5.7-.344-5.824,2.8-.06,1.556,1.221,2.657,2.161,3.75q3.06,3.56,6.118,7.121,8.02,9.336,16.046,18.665l1.842,2.14a11.863,11.863,0,0,0,1.829,2.122c.538.353.025.872.7-.483,1.125-2.256.613-.635.282-.821a1.4,1.4,0,0,0-.4,0h-114.2a22.751,22.751,0,0,0-3.889,0c-.812.15.074,2.014.555,1.7a3.052,3.052,0,0,0,.462-.537l1.083-1.26,2.542-2.957,6.526-7.59q6.792-7.9,13.587-15.794l2.372-2.754C254.225,97,255.4,95.81,254.841,94.1c-.868-2.657-4.249-2.021-6.411-2.026q-3.418-.009-6.835-.013a3.049,3.049,0,0,0-.6,0l.289.833q.057,1.311.469.613a4.884,4.884,0,0,0,.74-.907q.883-1.083,1.771-2.165,1.884-2.3,3.773-4.59,3.971-4.816,7.955-9.62,3.607-4.35,7.222-8.693l2.841-3.412c.757-.908,1.988-1.994,2.335-3.133a2.989,2.989,0,0,0-.772-3c-1-.981-2.4-.826-3.695-.829q-1.978-.006-3.957-.008l-1.747,0a7.8,7.8,0,0,0-2.013-.006l.227.86q-.031,1.3.362.7a2.009,2.009,0,0,0,.285-.34l.633-.755,1.707-2.033,4.107-4.885q5.115-6.077,10.242-12.142c1.653-1.955-1.163-4.8-2.828-2.829q-5.4,6.382-10.775,12.777-2.043,2.427-4.085,4.858c-.939,1.119-2.606,2.543-3.043,3.957a2.97,2.97,0,0,0,.761,3c.981.959,2.323.829,3.589.832l3.717.007,1.869,0,1.187,0c.885,0,1.01.325.8-.874s-.137-.9-.585-.363l-.479.575-1.249,1.5q-1.55,1.86-3.1,3.722-7.911,9.51-15.779,19.055-1.864,2.266-3.721,4.537c-1.249,1.527-3.094,3.238-1.836,5.338,1.163,1.943,3.933,1.418,5.848,1.421l3.507.008,1.945,0c.369,0,1.854.245,2.134.006.022-.019-.189-1.766-.493-1.633-.07.031-.145.185-.208.242a6.483,6.483,0,0,0-.508.589l-1.166,1.353-2.755,3.2q-3.5,4.064-7,8.129l-13.485,15.683c-.711.827-1.43,1.647-2.132,2.481a3.482,3.482,0,0,0-1.047,2.45,2.963,2.963,0,0,0,2.111,2.681,17.464,17.464,0,0,0,4.4.113H344.073c1.582,0,3.152-.522,3.561-2.263.485-2.067-1.627-3.735-2.837-5.14q-4.067-4.719-8.125-9.442-7.579-8.815-15.153-17.635l-1.139-1.326q-.281-.324-.559-.65c-.5-.576-.443-.878-.656.295-.217,1.192-.145.872.807.869l.964,0,1.9,0,4-.008c2.138,0,5.153.443,5.831-2.261.452-1.8-1.1-3.151-2.141-4.4q-6.772-8.139-13.5-16.317-3.447-4.177-6.893-8.358l-2.768-3.357-.993-1.2a4.126,4.126,0,0,0-.483-.585l-.05-.061q-.653-.882-.395,1.639c.22.142.94,0,1.19,0,2.57-.006,5.159.082,7.726-.017a3.189,3.189,0,0,0,2.956-1.535,3.021,3.021,0,0,0-.451-3.42c-2.374-2.955-4.88-5.813-7.32-8.714q-5.106-6.074-10.222-12.138c-1.662-1.97-4.479.872-2.828,2.828Z"/><path class="c" d="M295.7,37.216l.8.942a2.054,2.054,0,0,0,2.828,0l.313-.405a1.987,1.987,0,0,0,.273-1.009l-.071-.532a2,2,0,0,0-.515-.882l-.8-.942a2.054,2.054,0,0,0-2.828,0l-.313.405a1.987,1.987,0,0,0-.273,1.009l.071.532a1.992,1.992,0,0,0,.515.882Z"/><path class="e" d="M269.259,28.39c1.937-2.684,3.68-5.521,5.361-8.056a.139.139,0,0,0,0-.154c-1.685-2.541-3.432-5.385-5.372-8.076a.137.137,0,0,1,.107-.222c2.794,0,6.983-.092,10.008-.1a.135.135,0,0,0,.123-.079q2.411-4.944,5.285-9.645a.142.142,0,0,1,.244,0c.943,1.6,4.437,7.529,5.475,9.646a.13.13,0,0,0,.122.075c3.043,0,7.611.1,10.6.1a.137.137,0,0,1,.107.223c-1.942,2.689-3.689,5.533-5.374,8.074a.139.139,0,0,0,0,.154c1.681,2.535,3.424,5.372,5.358,8.057a.138.138,0,0,1-.107.223c-3,0-7.578.1-10.622.1a.13.13,0,0,0-.122.075c-1.026,2.094-4.492,7.98-5.433,9.573a.142.142,0,0,1-.244,0q-2.843-4.659-5.243-9.568a.134.134,0,0,0-.123-.079c-3.023-.008-7.23-.1-10.04-.1A.138.138,0,0,1,269.259,28.39Z"/><path class="c" d="M270.986,29.4c1.094-1.527,2.132-3.091,3.155-4.667.454-.7.9-1.4,1.359-2.1a4.575,4.575,0,0,0,1.12-2.377,4.09,4.09,0,0,0-1-2.192c-.5-.763-.989-1.529-1.484-2.292-1.025-1.58-2.065-3.147-3.161-4.678l.273,1.009-.015-.146-.991,1.727.122-.076-1.009.273c1.775,0,3.551-.03,5.327-.054q1.216-.015,2.432-.029a11.681,11.681,0,0,0,2.78-.088c1.022-.281,1.413-1.2,1.849-2.07q.7-1.39,1.429-2.761c1.053-1.969,2.167-3.9,3.326-5.812l-.718.717.123-.069h-2.019l.122.069-.718-.718c1.726,2.923,3.475,5.843,5.063,8.844.47.888.911,1.646,2,1.832a23.467,23.467,0,0,0,3.569.06c2.431.028,4.862.073,7.293.08L300.2,13.61l.122.076-.991-1.727-.015.147.273-1.01c-1.1,1.53-2.138,3.1-3.163,4.677-.455.7-.907,1.4-1.363,2.1a4.593,4.593,0,0,0-1.121,2.38,4.085,4.085,0,0,0,1,2.19c.5.761.986,1.525,1.481,2.286,1.022,1.576,2.06,3.14,3.152,4.668l-.273-1.01.015.147.991-1.727-.122.076,1.009-.273c-2.372.006-4.743.049-7.114.076-1.111.013-2.232-.024-3.342.024a2.64,2.64,0,0,0-2.38,1.779c-1.583,3.009-3.34,5.932-5.068,8.859l.718-.717-.122.069H285.9l-.123-.07.718.717q-1.725-2.838-3.3-5.765-.671-1.255-1.311-2.527c-.467-.929-.846-1.97-1.95-2.274a10.642,10.642,0,0,0-2.586-.085q-1.317-.014-2.635-.032c-1.783-.024-3.567-.05-5.351-.055l1.01.273-.122-.076.991,1.727.015-.147a2.014,2.014,0,0,0-2-2,2.046,2.046,0,0,0-2,2l-.015.147a1.977,1.977,0,0,0,.99,1.727,4.647,4.647,0,0,0,2.518.357q1.47.012,2.939.033c1.9.025,3.809.053,5.714.06l-1.009-.273.123.079L277.8,29.8q1.93,3.943,4.146,7.735c.655,1.119,1.246,2.642,2.68,2.858,1.21.182,1.913-.682,2.457-1.605,1.744-2.961,3.562-5.912,5.09-8.992l-.717.717.121-.074-1.009.273c1.98,0,3.96-.029,5.939-.055q1.473-.019,2.944-.035a5.466,5.466,0,0,0,2.871-.36,1.976,1.976,0,0,0,.99-1.726c-.172-1.687-1.765-3.265-2.68-4.656-1-1.515-1.967-3.045-2.966-4.558l.273,1.01V20.18l-.273,1.01c1-1.516,1.976-3.05,2.974-4.568.91-1.384,2.516-2.986,2.688-4.663a1.977,1.977,0,0,0-.99-1.727,5.466,5.466,0,0,0-2.865-.36q-1.467-.014-2.935-.035c-1.976-.027-3.952-.056-5.928-.058l1.009.273-.121-.075.717.718c-1.529-3.08-3.346-6.031-5.089-8.993A2.8,2.8,0,0,0,285.159.025c-1.671-.252-2.4,1.484-3.1,2.665q-2.3,3.918-4.3,8l.718-.718-.124.079,1.01-.273c-1.9.007-3.8.035-5.7.06q-1.371.018-2.741.031a5.05,5.05,0,0,0-2.7.358,1.979,1.979,0,0,0-.99,1.727c.178,1.691,1.768,3.267,2.686,4.664,1,1.518,1.972,3.052,2.974,4.568l-.273-1.01v.154l.273-1.01c-1.779,2.692-3.481,5.433-5.361,8.057a2.015,2.015,0,0,0,.718,2.736A2.042,2.042,0,0,0,270.986,29.4Z"/><path class="b" d="M32.994,108.4a34.424,34.424,0,0,1,2.727-12.788c3.5-7.847,10.446-18.218,21.647-20.458-8.845-7.592-11.8-21.78-7.308-32.693C54.833,30.862,68,25.089,80.006,25.089c13.189,0,25.206,5.778,29.977,17.371,4.424,10.751,1.623,24.681-6.918,32.35,5.9,1.133,10.656,6.027,10.656,6.027a43.07,43.07,0,0,1,10.45,14.774c5.671,12.7,2.308,32.578-7.331,41.3-7.784,7.044-17.9,11.663-36.981,11.663-18.64,0-28.757-4.289-36.807-11.663C36.326,130.751,32.638,119.157,32.994,108.4Z"/><path class="c" d="M118.341,96.583l17.311-14.335a2.016,2.016,0,0,0,0-2.829,2.045,2.045,0,0,0-2.829,0l-17.31,14.335a2.014,2.014,0,0,0,0,2.829,2.045,2.045,0,0,0,2.828,0Z"/><path class="a" d="M157.766,71.726a10.738,10.738,0,0,0-4.937-9.228c-3.412-2.022-8.282-1.456-10.817,1.6-.268-2.036-2.541-3.4-4.576-3.125a6.49,6.49,0,0,0-4.641,3.678,13.267,13.267,0,0,0-1.134,7.125c-.888.832-1.911,2.089-1.926,3.069-.019,1.241,2.864,4.261,4.044,5.529,1.9,2.044,3.986,4.128,5.3,4.056a13.953,13.953,0,0,0,3.06-.891l5.732-2.158a24.617,24.617,0,0,0,7.155-3.628,6.645,6.645,0,0,0,2.7-5.086C157.751,72.351,157.765,72.038,157.766,71.726Z"/><path class="a" d="M2,75.655a10.738,10.738,0,0,1,4.937-9.228c3.412-2.022,8.282-1.455,10.816,1.595.269-2.035,2.542-3.4,4.577-3.125a6.492,6.492,0,0,1,4.641,3.678A13.268,13.268,0,0,1,28.106,75.7c.888.833,1.911,2.089,1.926,3.069.019,1.241-2.864,4.261-4.045,5.529-1.9,2.044-3.985,4.128-5.3,4.057a14.011,14.011,0,0,1-3.06-.892L11.9,85.306A24.632,24.632,0,0,1,4.74,81.677a7.525,7.525,0,0,1-1.952-2.283,7.505,7.505,0,0,1-.744-2.8Q2,76.125,2,75.655Z"/><path class="c" d="M159.766,71.726c-.062-4.632-2.461-9.455-6.835-11.418A10.722,10.722,0,0,0,140.6,62.679l3.343.882c-.814-4.372-6.258-5.715-9.668-3.491-3.817,2.49-5,7.4-4.612,11.7l.585-1.414c-1.381,1.343-2.927,3.266-2.394,5.331a11.111,11.111,0,0,0,2.658,4.055c1.2,1.387,2.454,2.756,3.782,4.016,1.356,1.285,3.045,2.8,5.047,2.639,2.039-.163,4.09-1.221,5.978-1.931,2.251-.847,4.53-1.645,6.727-2.627a15.89,15.89,0,0,0,5.491-3.724,9.6,9.6,0,0,0,2.231-6.39c.063-2.575-3.937-2.574-4,0a5.548,5.548,0,0,1-2.153,4.608A18.971,18.971,0,0,1,148.533,79c-2.007.778-4.029,1.52-6.043,2.279-1,.376-2.84,1.362-3.654,1.032A7.465,7.465,0,0,1,136.8,80.62c-.656-.643-1.281-1.316-1.907-1.987a28.922,28.922,0,0,1-2.6-3.021c-.177-.252-.312-.544-.5-.787-.112-.148.031-.176-.063.015a7.969,7.969,0,0,1,1.34-1.655c.8-.909.5-1.959.508-3.056a11.67,11.67,0,0,1,.33-2.736c.417-1.673,1.325-3.523,3.013-4.234a2.2,2.2,0,0,1,3.158,1.466,2.011,2.011,0,0,0,3.343.882,6.717,6.717,0,0,1,7.794-1.6c2.977,1.357,4.5,4.689,4.545,7.822C155.8,74.3,159.8,74.305,159.766,71.726Z"/><path class="c" d="M44.254,97.683,26.944,83.348a2.058,2.058,0,0,0-2.829,0,2.016,2.016,0,0,0,0,2.829l17.311,14.335a2.056,2.056,0,0,0,2.828,0,2.016,2.016,0,0,0,0-2.829Z"/><path class="c" d="M4,75.655c.041-3.134,1.567-6.465,4.545-7.822a6.717,6.717,0,0,1,7.794,1.6,2.011,2.011,0,0,0,3.343-.882,2.1,2.1,0,0,1,2.471-1.666c1.537.24,2.68,1.7,3.257,3.042a12.526,12.526,0,0,1,.732,5.364c-.032,1.334.6,1.719,1.353,2.665a5.888,5.888,0,0,1,.486.726c.034.058.077-.1.044-.037a16.021,16.021,0,0,1-2.42,3.121,44.466,44.466,0,0,1-3.593,3.671,6.065,6.065,0,0,1-.941.708c-.095.055-.538.213-.385.207a6.287,6.287,0,0,1-2-.624c-1.948-.706-3.881-1.458-5.82-2.188a28.572,28.572,0,0,1-6.1-2.836A5.724,5.724,0,0,1,4,75.655c-.063-2.57-4.063-2.579-4,0a9.6,9.6,0,0,0,2.231,6.39,15.89,15.89,0,0,0,5.491,3.724c2.2.982,4.476,1.78,6.727,2.627,1.887.711,3.939,1.768,5.978,1.931,2,.16,3.691-1.353,5.047-2.639,1.328-1.26,2.586-2.629,3.782-4.015a11.123,11.123,0,0,0,2.658-4.056c.533-2.065-1.013-3.988-2.395-5.331l.586,1.414c.385-4.3-.8-9.211-4.612-11.7-3.41-2.225-8.854-.882-9.668,3.49l3.343-.882A10.72,10.72,0,0,0,6.836,64.237C2.462,66.2.062,71.022,0,75.655-.034,78.23,3.966,78.231,4,75.655Z"/><path class="c" d="M91.889,48.064a3.946,3.946,0,0,0-3.959,4.061,3.882,3.882,0,0,0,3.959,4.137,3.842,3.842,0,0,0,3.959-4.137A3.943,3.943,0,0,0,91.889,48.064Z"/><path class="c" d="M68.828,48.064a3.946,3.946,0,0,0-3.959,4.061,3.882,3.882,0,0,0,3.959,4.137,3.842,3.842,0,0,0,3.959-4.137A3.943,3.943,0,0,0,68.828,48.064Z"/><path class="c" d="M58.71,73.677c-6.721-5.906-9.7-15.422-8.483-24.2a23.54,23.54,0,0,1,5.108-11.945,28.117,28.117,0,0,1,10.491-7.6c15.51-6.651,38.416-1.847,43.305,16.232,2.6,9.628-.226,20.85-7.8,27.5-1.937,1.7.9,4.522,2.829,2.828,7.714-6.779,10.955-17.725,9.561-27.734A28.711,28.711,0,0,0,96.714,26.489c-17.7-7.836-44.237-1.96-49.7,18.792-2.868,10.883.3,23.693,8.873,31.224,1.927,1.693,4.767-1.125,2.828-2.828Z"/><path class="c" d="M54.86,73.7c-7.593,2.335-13.414,8.052-17.553,14.661a39.744,39.744,0,0,0-6.316,20.144,45.381,45.381,0,0,0,4.674,21.7A33.71,33.71,0,0,0,48.983,143.82a50.2,50.2,0,0,0,19.6,6.128,90.7,90.7,0,0,0,26.6-.607,46.224,46.224,0,0,0,18.013-7.019,36.192,36.192,0,0,0,6.729-5.687,31.979,31.979,0,0,0,5.434-8.8,45.638,45.638,0,0,0,3.358-22.233,41.464,41.464,0,0,0-9-21.307,36.31,36.31,0,0,0-4.577-4.871c-1.924-1.7-4.764,1.122-2.828,2.829a38.21,38.21,0,0,1,11.634,18.915,40.739,40.739,0,0,1-.577,20.3,29.651,29.651,0,0,1-9.588,15.456,39.324,39.324,0,0,1-14.554,7.413c-7.638,2.115-15.717,2.463-23.6,2.16-6.9-.265-13.945-1.216-20.337-3.95a33.809,33.809,0,0,1-13.3-9.721c-4.019-5.181-6.124-11.932-6.785-18.391a35.7,35.7,0,0,1,2.927-19.289c2.928-6.047,7.073-11.9,12.926-15.414a21.848,21.848,0,0,1,4.863-2.17c2.453-.755,1.407-4.617-1.063-3.857Z"/><path class="a" d="M91.524,87.5c.424,5.345.678,9.673.63,15.572a1.24,1.24,0,0,0,.285.883,1.389,1.389,0,0,0,1.086.256,116.027,116.027,0,0,0,17.565-2.24c.563-.116,1.23-.333,1.36-.893a1.778,1.778,0,0,0-.323-1.094A102.542,102.542,0,0,0,101.62,82.5"/><path class="c" d="M89.524,87.5c.327,4.154.582,8.31.627,12.477.023,2.116-.545,5.362,2.121,6.1a9.582,9.582,0,0,0,3.148.018q1.789-.12,3.575-.295,3.627-.356,7.229-.925,1.668-.263,3.327-.573a13.527,13.527,0,0,0,3.04-.732,2.986,2.986,0,0,0,1.823-2.231,5.273,5.273,0,0,0-.9-3.085c-.89-1.871-1.836-3.715-2.852-5.521a130.059,130.059,0,0,0-7.318-11.253,2.054,2.054,0,0,0-2.736-.718,2.017,2.017,0,0,0-.718,2.737c2.026,2.862,4.027,5.746,5.849,8.744q1.3,2.144,2.48,4.36.6,1.135,1.17,2.286.342.688.671,1.383c.113.239.226.477.337.716q.273.639.035-.227l.514-.883c-.28.362.352.051-.145.1-.351.037-.728.156-1.073.224q-1.242.248-2.489.466c-1.555.274-3.117.519-4.683.724q-2.406.313-4.824.522-1.261.11-2.525.192c-.351.022-.7.044-1.053.063l-.632.034c-.366,0-.392.007-.076.017l.717.718q-.023.3-.01-.088c0-.213,0-.425,0-.638,0-.277,0-.555,0-.832q0-1.1-.019-2.2-.033-1.966-.117-3.933c-.112-2.59-.3-5.176-.5-7.76a2.051,2.051,0,0,0-2-2,2.015,2.015,0,0,0-2,2Z"/><path class="a" d="M52.646,71.239A123.626,123.626,0,0,0,103.6,68.95c2.8-.73,5.368.528,5.575,3.166a7.876,7.876,0,0,1-2.128,6.24,28.7,28.7,0,0,1-12.96,8.362c-10.878,3.023-24.936,1.235-32.143-1.664-3.7-1.489-7.749-3.091-11.023-5.393C47.823,77.48,49.062,72.385,52.646,71.239Z"/><path class="c" d="M52.114,73.167a130.5,130.5,0,0,0,29.673,1.38A125.827,125.827,0,0,0,96.553,72.6c2.391-.462,4.761-1.011,7.125-1.6,1.082-.27,2.768-.569,3.372.7.674,1.414-.137,3.515-.962,4.678a20.494,20.494,0,0,1-4.209,4.093,26.5,26.5,0,0,1-11.591,5.077,55.132,55.132,0,0,1-23.84-1.118,53.123,53.123,0,0,1-12.123-4.992c-1.362-.766-3.173-1.521-3.167-3.293a3.2,3.2,0,0,1,2.02-2.971c2.409-.854,1.371-4.72-1.064-3.857-3.6,1.278-5.945,5.316-4.568,9.058.792,2.152,2.659,3.317,4.569,4.409a61.3,61.3,0,0,0,7.29,3.394A58.176,58.176,0,0,0,85.39,90.148a36.22,36.22,0,0,0,14.069-3.427,32.238,32.238,0,0,0,6.31-4.3,17.1,17.1,0,0,0,4.441-5.183c1.855-3.856,1.234-9.5-3.736-10.364-2.462-.427-4.923.557-7.3,1.093q-4.017.906-8.091,1.537a123.268,123.268,0,0,1-37.907-.195,2.064,2.064,0,0,0-2.461,1.4A2.016,2.016,0,0,0,52.114,73.167Z"/><path class="a" d="M78.524,26.223c7.081,5.408,16.659,9.457,25.485,9.625a1.175,1.175,0,0,0,1.169-.945c1.034-5.1,2.589-16.641,3.233-22.513a1.169,1.169,0,0,0-.58-1.148A54.94,54.94,0,0,0,92.041,5.27a1.171,1.171,0,0,0-1.127.436c-2.009,2.553-8.893,12.833-12.67,18.961A1.179,1.179,0,0,0,78.524,26.223Z"/><path class="c" d="M77.514,27.95a48.513,48.513,0,0,0,22.115,9.52c1.706.24,4.273.87,5.865,0,1.545-.844,1.709-2.458,1.985-4.019.561-3.165,1.024-6.348,1.467-9.532.466-3.344.907-6.692,1.3-10.046.213-1.829.187-3.344-1.543-4.439a36.8,36.8,0,0,0-4.812-2.4c-3.629-1.605-7.609-3.261-11.582-3.735-2.758-.329-4.353,3.035-5.7,4.975-2.07,2.989-4.084,6.017-6.07,9.062q-1.5,2.307-2.976,4.636a11.405,11.405,0,0,0-1.287,2.243,3.243,3.243,0,0,0,.832,3.416c1.79,1.857,4.617-.974,2.829-2.829l.167.184L79.832,26a36.115,36.115,0,0,1,3.093-4.993q1.8-2.8,3.651-5.564,1.644-2.466,3.323-4.907.645-.933,1.3-1.859a10.977,10.977,0,0,0,1.13-1.555c.105-.23.312-.161,0,0-.362.185-.655.007-.023.23.509.179,1.094.239,1.618.372,1.385.35,2.751.776,4.1,1.251A56.5,56.5,0,0,1,104.7,11.83q.636.321,1.262.659a5.139,5.139,0,0,0,.585.321c-.406-.151.015-.7-.174-.034a18.712,18.712,0,0,0-.322,2.756q-.369,3.025-.781,6.047-.486,3.567-1.035,7.126-.255,1.634-.534,3.264c-.078.447-.158.895-.241,1.341-.031.163-.061.327-.093.49-.022.116-.045.232-.068.349-.069.319-.058.3.033-.069l1.01-.273a20.062,20.062,0,0,1-6.3-.658,43.994,43.994,0,0,1-6.692-2A48.66,48.66,0,0,1,79.533,24.5a2.011,2.011,0,0,0-2.736.717A2.05,2.05,0,0,0,77.514,27.95Z"/></svg>