<svg id="b" xmlns="http://www.w3.org/2000/svg" width="311.322" height="337.206" viewBox="0 0 311.322 337.206" style="color: initial !important;"><defs><style>.e{fill:#3d8dcc;}.f{fill:#ffffff;}.g{fill:#211715;}.h{fill:#c6c6c6;}.i{fill:#645d5c;}</style></defs><g id="c"><g id="d"><path class="f" d="M209.26,331.497v-35.979c3.05.9,5.744,1.704,8.004,2.389-.004,18.374-.004,37.368-.004,37.368l-8-3.778Z"/><path class="f" d="M98.91,300.201c0-14.264.041-25.303.074-36.178-3.249-.914-5.938-1.67-7.927-2.229-.032,10.877-.074,21.918-.074,36.185l7.927,2.222Z"/><path class="f" d="M89.144,240.26c-.504-.141-.921-.257-1.243-.347,0,7.461-.016,14.21-.037,20.99.026.007.037.01.037.01,10.1,2.808,112.504,31.649,133.389,38.234v-21c-20.218-6.374-116.838-33.608-132.146-37.887Z"/><path class="f" d="M156.623,241.785c-1.315.351-2.724.429-4.069.116-2.761-.641-4.785-2.811-5.689-5.126-.904-2.315-.879-4.786-.845-7.203.056-3.938-.147-10.658-.091-14.596l-.006-9.612c1.505-1.943,2.907-3.894,4.104-5.805.878-1.406,1.916-2.996,2.895-4.652,2.013.137,4.028.274,6.043.412,2.646.181,5.399.389,7.71,1.548,2.828,1.417,4.572,4.108,5.109,6.842s-.002,5.516-.862,8.153c-.635,1.949-1.447,3.858-1.877,5.852-.476,2.209-.475,4.483-.769,6.72-.562,4.286-2.224,8.438-4.835,12.085-1.171,1.636-2.564,3.198-4.424,4.275-.731.423-1.543.765-2.394.991Z"/><path class="f" d="M4.804,297.836c-1.168-1.594-2.077-3.395-2.619-5.577-.33-1.34-.23-3.71.33-4.96.56-1.26,1.33-2.32,2.49-3.07,1.33-.86,2.94-1.25,4.5-1.52,2.04-.34,3.89-.06,5.9.43,7.32,1.79,16.74,5.63,23.13,9.44l1.782-2.282c5.218,4.334,11.121,9.365,16.747,13.293-.396,1.225-.867,2.772-1.45,4.279-1.08,3.35-1.14,8.77-5.05,14.28-1.05,1.48-3.22,2.53-4.96,3.06-1.52.47-5.7-.39-9.34-2.63-5.91-3.62-11.11-7.34-16.52-11.68-2-1.61-4.89-3.97-6.9-5.58-3.098-2.491-5.976-4.664-8.041-7.483Z"/><path class="f" d="M32.744,63.245c.831-2.828,4.676-3.638,6.789-3.091.496.128,1.341.438,2.03,1.183.56-2.327,2.599-4.323,5.34-3.466.531.166.886.395,1.183.652.717-.695,1.681-.81,2.011-.809.552.003.808.083,1.275.397.399.268.846.876,1.153,1.314,1.418,2.017,2.683,5.427,1.281,3.357,1.104.507,1.943,1.45,2.304,3.357.276,1.46.443,3.383-.263,5.663-.674,2.176-1.615,3.476-2.345,5.558-.665,1.894-2.944,5.274-3.951,7.011-.519.895-1.068,2-1.222,3.536-5.389,1.204-11.633,2.744-17.426,4.047-.011-1.532-.235-2.278-1.174-4.011-.632-1.165-1.492-2.206-2.138-3.364-.805-1.443-1.902-3.904-2.351-5.481-.871-3.061-1.109-5.343-.745-8.494.364-3.151,1.883-7.758,6.153-7.294.744.041,1.396.183,1.991.393.026-.159.061-.312.105-.459Z"/><path class="f" d="M112.528,107.9c3.664-12.132,7.398-26.268,9.917-35.981l.467-1.733c-.165-.047-.321-.09-.467-.128,0,0-1.219-.284-2.558-.596-.866.983-1.822,1.953-2.903,2.92-1.407,1.052-4.34,2.516-6.206,3.319-2.359,1.122-5.704,2.394-8.216,2.901-1.489.301-3.039.492-4.688.572.073,11.402,1.187,31.784,8.491,46.825,1.851-4.443,3.995-10.92,6.163-18.099Z"/><path class="f" d="M127.636,45.702c.948-.694,2.146-.866,3.138-.726,2.159.304,2.964,1.52,3.289,2.216.972,2.085.537,5.682-.5,7.829-.73,1.518-1.846,3.624-4.254,5.118-.68.42-2.305,1.006-3.921.999l-.085.213c-.491,1.107-1.674,3.055-1.674,3.055-1.779,2.807-3.767,5.402-6.644,7.976-1.407,1.052-4.34,2.516-6.206,3.319-2.359,1.122-5.704,2.394-8.216,2.901-.971.196-1.967.345-2.999.448-6.443.64-11.807-.995-16.891-5.065-4.849-3.882-7.008-10.062-7.835-16.913-.477-3.95-.901-8.245-1.514-12.535,0,0-4.589-22.344,20.42-22.344,35.667,0,33.893,23.508,33.893,23.508Z"/><path class="i" d="M77.404,17.544c-2.55,3.542-3.908,7.151-4.673,12.037-.701,4.477-.571,11.162.652,16.784.083-.565.137-.949.137-.949.402-2.841,5.567-10.793,9.397-13.125.449-.273,1.067.018,1.305.783.23.739.265,1.309.241,1.852-.037.825.795,1.369,1.446.951,2.729-1.752,7.935-6.524,13.781-7.994l5.443.611c1.754.633,9.834,3.137,16.102,13.512l3.525,2.035,2.876,1.66c.948-.694,2.146-.866,3.138-.726,2.159.304,2.964,1.52,3.289,2.216.155.332.274.703.36,1.101,2.039-3.846,2.108-10.711,2.238-13.658.121-2.78-.208-5.57-.942-8.262-1.463-5.347-3.607-9.705-7.871-13.464l-5.258-3.723c-4.506-4.406-10.95-7.21-19.894-7.184-11.436.033-19.735,4.917-24.584,12.333l-.708,3.208Z"/><path class="g" d="M215.26,299.645v35.629c0,2.574,4,2.578,4,0v-35.629c0-2.574-4-2.578-4,0h0Z"/><path class="g" d="M207.26,295.867v35.629c0,2.574,4,2.578,4,0v-35.629c0-2.574-4-2.578-4,0h0Z"/><path class="g" d="M89.675,238.332c-.414-.116-.829-.231-1.243-.347-1.253-.349-2.532.633-2.532,1.929,0,6.997-.016,13.993-.037,20.99-.003.88.624,1.693,1.468,1.929,5.027,1.404,10.05,2.818,15.074,4.233,9.513,2.68,19.023,5.368,28.532,8.062,11.394,3.228,22.786,6.466,34.174,9.718,10.637,3.038,21.271,6.088,31.894,9.173,7.374,2.142,14.753,4.275,22.09,6.54.554.171,1.108.343,1.661.518,1.248.393,2.532-.668,2.532-1.929v-21c0-.905-.625-1.663-1.468-1.929-6.458-2.034-12.966-3.914-19.465-5.81-9.921-2.894-19.854-5.749-29.789-8.593-11.05-3.163-22.105-6.31-33.162-9.447-9.879-2.803-19.759-5.598-29.642-8.386-6.28-1.772-12.561-3.542-18.845-5.303-.414-.116-.829-.232-1.243-.348-2.483-.694-3.543,3.164-1.063,3.857,5.718,1.598,11.432,3.21,17.146,4.821,9.536,2.688,19.069,5.384,28.601,8.086,11.034,3.128,22.066,6.265,33.093,9.418,10.238,2.927,20.474,5.864,30.699,8.837,7.016,2.04,14.036,4.073,21.018,6.23.53.164,1.06.329,1.589.495l-1.468-1.929v21l2.532-1.929c-6.739-2.123-13.531-4.081-20.313-6.058-10.399-3.031-20.809-6.02-31.223-8.999-11.438-3.272-22.881-6.526-34.326-9.771-9.839-2.79-19.68-5.572-29.523-8.347-5.724-1.614-11.448-3.229-17.176-4.828-.288-.08-.577-.161-.865-.241l1.468,1.929c.021-6.997.036-13.993.037-20.99l-2.532,1.929c.414.115.829.231,1.243.347,2.483.694,3.543-3.164,1.063-3.857Z"/><path class="g" d="M92.983,297.979c0-12.005.037-24.009.073-36.014.008-2.574-3.992-2.578-4,0-.036,12.005-.073,24.009-.073,36.014,0,2.574,4,2.578,4,0h0Z"/><path class="g" d="M100.91,300.201c0-12.005.037-24.009.073-36.014.008-2.574-3.992-2.578-4,0-.036,12.005-.073,24.009-.073,36.014,0,2.574,4,2.578,4,0h0Z"/><path class="h" d="M111.196,173.253c-3.61,4.95-9.28,9.345-13.78,10.979-3.646,1.327-9.116,1.948-13.677,1.276-7.887,14.376-12.839,22.98-20.173,38.352-.96,2-1.88,5.35-1.83,8.2.02,2.23.46,4.31,2.16,5.75,1.53,1.32,3.7,1.79,5.723,1.57-.709.907-1.453,1.853-2.209,2.83-9.46,12.15-22.51,29.16-31.16,40.21-.6.76-1.23,1.63-1.13,2.59.09.91.8,1.62,1.47,2.23,7.16,5.763,16.339,14.027,24.41,18.93,13.17-16.77,30.728-38.604,43.189-53.502,7.412-8.861,21.394-23.554,31.814-35.548,4.598-5.293,10.304-11.621,14.024-17.561,2.135-3.419,5.22-7.935,6.094-11.806-1.8.961-3.59,1.677-5.266,2.068-7.58,1.77-16.56.06-24.1-3.37-3.23-1.47-11.95-8.087-15.56-13.197"/><path class="i" d="M309.202,154.444c-.295-2.906-1.386-4.206-3.52-6.089-9.269-8.184-17.171-13.713-26.707-21.199-1.713-1.345-3.292-2.015-5.924-1.703-1.592.189-3,1.024-4.146,2.145-1.757,1.72-3.73,3.714-5.852,5.907-3.99-3.696-6.352-5.482-9.869-8.074-.872-.642-2.461-1.247-3.81-1.345-1.114-.081-3.194.113-4.388.845-8.759,5.364-15.126,12.166-20.239,19.596-1.727,2.51-1.718,4.627-1.723,7.674-.004,2.738,1.475,4.943,3.369,6.92,1.758,1.836,4.839,4.872,7.137,7.014-.772.902-1.525,1.793-2.259,2.667-3.222,3.838-3.991,4.663-5.355,8.058-.618,1.54-.841,3.193-.054,5.842.415,1.395,2.039,3.236,2.632,3.809,5.904,5.705,16.464,14.741,23.46,21.074,2.604,2.357,5.016,3.878,8.515,4.183,2.48.216,5.59-1.439,8.188-4.019,11.082-11.012,27.005-29.67,38.683-45.641.01-.013.019-.026.029-.04,1.483-2.029,2.115-4.834,1.831-7.622ZM238.681,160.166c-1.463-1.36-4.672-4.379-5.549-5.294-.978-1.021-1.531-2.032-1.529-3.446,0-.345-.004-.642-.001-.909.01-.949.116-1.51.894-2.461,2.95-3.604,10.975-12.51,15.382-15.503.598-.406,1.083-.449,1.658-.407.697.051,1.314.228,1.764.559,1.793,1.321,4.062,3.491,6.075,5.351,0,0,.291.253.732.638-6.202,6.591-13.118,14.23-19.425,21.473Z"/><path class="g" d="M272.364,141.951c.474-.895.285-2.023-.496-2.723-2.588-2.318-5.688-4.963-7.798-6.77-2.297,2.358-4.789,4.976-7.386,7.753.487.397.826.674.826.674,1.834,1.391,5.272,4.188,7.835,6.198.956.75,2.331.605,3.11-.327,1.248-1.492,2.578-3.075,3.679-4.453.089-.111.165-.228.23-.35Z"/><path class="g" d="M247.973,167.949c-.019-.583-.265-1.158-.725-1.584-2.605-2.412-5.74-5.174-7.828-7.024-2.444,2.765-4.795,5.491-6.99,8.086.266.212.435.357.435.357,1.811,1.421,5.203,4.274,7.733,6.326.944.765,2.321.643,3.115-.276,1.272-1.472,2.628-3.032,3.752-4.392.36-.435.526-.967.509-1.493Z"/><path class="g" d="M229.91,185.095c-1.097-1.091-2.007-2.296-2.354-3.821-.353-1.55-.143-2.879.471-4.324,1.238-2.911,3.359-5.194,5.376-7.586,5.214-6.183,10.561-12.256,15.984-18.257,5.239-5.797,10.548-11.534,15.998-17.134,1.119-1.15,2.245-2.293,3.381-3.427,1.143-1.14,2.251-2.477,3.846-2.963,1.624-.495,3.265-.15,4.642.78,1.836,1.24,3.537,2.726,5.295,4.074,7.031,5.395,14.125,10.701,20.806,16.532,1.196,1.044,2.685,2.123,3.362,3.611.71,1.56.702,3.586.344,5.229-.432,1.984-1.553,3.438-2.739,5.038-1.238,1.669-2.49,3.327-3.755,4.976-9.925,12.931-20.498,25.521-31.952,37.13-2.304,2.336-5.182,5.326-8.784,4.729-3.65-.605-6.184-3.28-8.824-5.636-5.838-5.212-11.77-10.32-17.537-15.612-1.199-1.1-2.39-2.211-3.562-3.34-1.854-1.787-4.686,1.038-2.828,2.828,5.894,5.681,12.132,11.007,18.261,16.431,2.927,2.591,5.776,5.734,9.212,7.647,3.827,2.13,8.028,2.329,11.823.064,3.356-2.003,6.02-5.214,8.683-8.029,2.895-3.06,5.725-6.181,8.511-9.341,6.092-6.909,11.983-13.999,17.661-21.252,2.763-3.53,5.782-7.049,8.183-10.839,2.19-3.456,2.634-8.717.594-12.343-.967-1.719-2.541-3.004-4.005-4.278-1.913-1.665-3.856-3.296-5.824-4.896-3.677-2.989-7.441-5.87-11.21-8.742-1.89-1.441-3.781-2.88-5.663-4.332-1.699-1.311-3.358-2.939-5.332-3.83s-4.333-1.068-6.426-.458c-2.013.587-3.522,1.921-4.979,3.363-5.582,5.529-10.953,11.274-16.26,17.066-5.949,6.492-11.802,13.074-17.52,19.769-4.504,5.275-11.608,11.876-8.757,19.592.614,1.663,1.8,3.166,3.048,4.407,1.827,1.817,4.657-1.01,2.828-2.828Z"/><path class="g" d="M235.33,165.076c-1.664-1.542-3.294-3.121-4.904-4.719-1.494-1.483-3.183-2.955-4.309-4.748-1.23-1.96-1.244-4.18-1.007-6.427.231-2.198,1.461-3.833,2.729-5.569,2.822-3.866,6.042-7.454,9.62-10.635,1.883-1.674,3.863-3.226,5.946-4.644,1.822-1.241,3.426-2.386,5.719-2.261,2.383.131,4.264,1.95,6.06,3.334,2.189,1.686,4.271,3.5,6.304,5.371,1.891,1.741,4.727-1.08,2.828-2.828-2.071-1.907-4.199-3.741-6.425-5.465-2.004-1.553-3.979-3.325-6.461-4.04-5.667-1.633-10.459,2.486-14.57,5.815-4.246,3.437-7.968,7.43-11.291,11.757-1.625,2.116-3.454,4.312-4.115,6.954-.591,2.361-.735,5.365-.096,7.722.79,2.912,2.883,5.112,4.946,7.199,2.025,2.047,4.088,4.059,6.2,6.016,1.886,1.748,4.722-1.074,2.828-2.828h0Z"/><path class="g" d="M240.459,159.088c-1.874-1.733-3.755-3.469-5.56-5.274-1.039-1.039-1.394-1.924-1.295-3.408.058-.873.801-1.54,1.384-2.223,3.88-4.549,7.98-9.121,12.606-12.927.393-.324.831-.757,1.293-.977.726-.345,1.303.06,1.881.524,1.814,1.456,3.487,3.087,5.193,4.666,1.887,1.746,4.723-1.075,2.828-2.828-1.753-1.622-3.476-3.294-5.343-4.786-1.694-1.353-3.846-2.312-5.992-1.332-1.448.661-2.725,1.901-3.908,2.95-1.327,1.177-2.6,2.415-3.847,3.676-2.492,2.518-4.894,5.13-7.204,7.815-.997,1.159-2.25,2.368-2.687,3.868-.505,1.738-.301,4.038.539,5.624.798,1.508,2.212,2.678,3.43,3.839,1.275,1.216,2.559,2.425,3.853,3.622,1.887,1.746,4.723-1.076,2.828-2.828h0Z"/><path class="g" d="M256.501,142.611c.067.051.575.442.247.188.172.133.343.267.514.401.41.321.818.644,1.226.968.947.752,1.891,1.508,2.837,2.262,1.951,1.556,4.105,3.914,6.847,2.869,1.371-.522,2.171-1.691,3.078-2.779.879-1.054,1.813-2.092,2.613-3.209.836-1.166.965-2.722.416-4.033-.518-1.238-1.633-2.037-2.614-2.899-2.092-1.839-4.209-3.647-6.324-5.459-.82-.702-2.023-.805-2.828,0-.719.719-.824,2.123,0,2.828,1.554,1.331,3.109,2.66,4.654,4.001.85.737,1.697,1.478,2.538,2.224.189.167.378.334.565.503.104.094.242.199.334.312-.029-.036-.129-.187-.013.003.124.204.021.004,0-.026.012.017.069.327.041.118s0,.105-.01.124c.108-.211.029-.032-.031.049.136-.185-.086.102-.097.116-.148.201-.316.391-.473.584-.359.44-.72.878-1.083,1.315-.373.449-.747.897-1.121,1.345-.172.206-.345.412-.517.618-.084.101-.18.2-.256.307-.044.061-.171.267-.058.107-.045.064-.225.214-.063.067.005-.004-.332.113-.122.049-.017.005-.065.003-.092-.003-.061-.013-.067,0-.146-.054.134.091-.151-.115-.139-.105-.147-.112-.291-.229-.436-.344-.8-.632-1.597-1.268-2.394-1.904-1.682-1.343-3.358-2.693-5.071-3.996-.86-.654-2.238-.135-2.736.718-.601,1.027-.145,2.08.718,2.736h0Z"/><path class="g" d="M231.451,169.199c1.683,1.324,3.324,2.701,4.975,4.064,1.928,1.591,4.032,4.015,6.804,3.171,1.42-.432,2.259-1.603,3.185-2.676.935-1.084,1.931-2.15,2.776-3.307s.995-2.714.453-4.027c-.511-1.239-1.61-2.057-2.577-2.935-2.061-1.873-4.149-3.716-6.233-5.562-.808-.716-2.032-.796-2.828,0-.729.729-.812,2.109,0,2.828,1.499,1.328,3,2.654,4.491,3.99.838.751,1.674,1.506,2.504,2.266.285.261.8.725.945.876-.112-.116.061.115.063.135-.036-.363-.019.111-.009.081.003-.009.02-.297-.028-.045-.057.296.12-.229-.015.05-.1.208-.006.019.013-.016.007-.014-.167.23-.094.153-.073.077-.284.334-.405.479-.381.453-.764.903-1.149,1.352-.398.464-.797.926-1.196,1.389-.184.213-.368.426-.552.639-.091.105-.189.207-.274.317-.042.054-.199.257-.065.099-.108.127-.097.126-.26.11.332.032-.257.015.074,0-.046.002-.353-.123-.092-.012.004.002-.261-.18-.145-.082-.021-.017-.345-.283-.478-.391-.757-.618-1.511-1.24-2.264-1.862-1.59-1.312-3.17-2.637-4.79-3.912-.848-.667-2.001-.828-2.828,0-.694.694-.854,2.157,0,2.828h0Z"/><path class="g" d="M264.813,200.888c10.093-10.88,19.652-22.286,29.035-33.78,2.276-2.788,4.536-5.591,6.758-8.423.666-.849.828-2,0-2.828-.693-.693-2.158-.855-2.828,0-9.024,11.504-18.472,22.702-28.125,33.682-2.523,2.87-5.069,5.72-7.668,8.521-1.749,1.885,1.073,4.721,2.828,2.828h0Z"/><path class="g" d="M69.616,237.379c-1.623.141-3.369-.055-4.593-1.245-1.185-1.152-1.313-2.926-1.288-4.485.065-3.966,1.824-7.371,3.52-10.85,3.317-6.802,6.819-13.507,10.441-20.151,2.088-3.831,4.203-7.647,6.306-11.47,1.242-2.257-2.211-4.277-3.454-2.019-4.01,7.286-8.06,14.552-11.884,21.938-2.055,3.97-4.047,7.972-5.986,12-1.882,3.908-3.358,8.088-2.848,12.504.264,2.283,1.114,4.388,2.945,5.859,1.917,1.541,4.414,2.13,6.84,1.918,2.545-.222,2.568-4.224,0-4h0Z"/><path class="g" d="M143.93,214.976c-.037,3.015.031,6.031.069,9.046.042,3.263-.219,6.627.165,9.869.411,3.473,1.897,6.585,4.832,8.602,3.064,2.106,7.052,1.963,10.311.406,3.199-1.528,5.521-4.551,7.27-7.543,1.825-3.123,3.084-6.602,3.6-10.184.286-1.983.312-3.998.62-5.976.306-1.963,1.018-3.817,1.672-5.682,1.263-3.602,2.149-7.602.987-11.358-1.127-3.644-3.857-6.446-7.438-7.722-2.033-.725-4.249-.912-6.388-1.068-2.256-.165-4.513-.31-6.769-.464-2.569-.176-2.559,3.825,0,4,3.297.225,6.738.203,9.988.831,2.819.544,5.224,1.934,6.434,4.635,1.25,2.789.67,5.941-.219,8.742-.501,1.578-1.132,3.114-1.596,4.704-.499,1.713-.721,3.477-.876,5.25-.534,6.083-2.212,12.324-6.816,16.675-1.976,1.867-4.987,3.057-7.643,1.943-2.6-1.091-3.796-3.821-4.042-6.469-.282-3.026-.054-6.15-.093-9.191-.038-3.015-.106-6.031-.069-9.046.032-2.575-3.968-2.576-4,0h0Z"/><path class="g" d="M39.545,290.852c-3.916-2.318-8.065-4.226-12.285-5.918s-8.653-3.364-13.142-4.104c-4.607-.76-10.401.256-12.91,4.634-2.157,3.763-1.156,8.357.913,11.921,2.046,3.526,5.256,6.102,8.391,8.61,3.602,2.882,7.145,5.838,10.796,8.657,3.984,3.076,8.094,5.983,12.355,8.663,3.356,2.111,7.712,4.543,11.859,3.936,5.414-.793,8.363-5.745,9.958-10.485.712-2.116,1.1-4.304,1.578-6.479.211-.96.492-1.864.823-2.789.415-1.157,1.186-2.668,1.186-3.91,0-2.574-4-2.578-4,0,0-.39-.332.731-.377.87-.165.51-.332,1.02-.509,1.527-.309.888-.634,1.75-.852,2.666-.368,1.546-.631,3.115-1.015,4.658-.904,3.631-2.345,7.913-6.008,9.526-1.296.571-1.99.616-3.528.271-1.882-.423-3.657-1.157-5.314-2.141-3.87-2.298-7.597-4.874-11.213-7.55-3.404-2.519-6.671-5.211-9.962-7.874-2.79-2.258-5.754-4.392-8.253-6.979-2.292-2.374-4.299-5.575-4.008-8.999.348-4.094,4.952-5.289,8.438-4.948,2.187.214,4.382.939,6.473,1.588,2.183.677,4.338,1.443,6.466,2.276,4.174,1.634,8.26,3.544,12.12,5.828,2.22,1.314,4.235-2.142,2.019-3.454h0Z"/><path class="g" d="M154.361,185.781c-.047,2.17-1.045,4.25-2.046,6.132-1.132,2.129-2.45,4.15-3.733,6.189-2.835,4.504-6.199,8.607-9.667,12.633-6.797,7.889-13.781,15.607-20.796,23.301-6.057,6.644-12.093,13.295-17.839,20.212-6.387,7.688-12.695,15.441-18.968,23.222-7.297,9.051-14.544,18.143-21.726,27.286l2.424-.313c-4.458-2.728-8.595-5.945-12.645-9.238-2.087-1.697-4.15-3.421-6.217-5.143-.928-.773-1.856-1.546-2.787-2.314-.957-.789-2.119-1.524-2.925-2.472-.659-.775.323-1.563.839-2.222.711-.91,1.421-1.82,2.13-2.731,1.465-1.881,2.926-3.763,4.387-5.647,3.168-4.087,6.329-8.179,9.491-12.271,11.493-14.876,22.92-29.791,34.745-44.405,7.791-9.628,15.459-19.351,22.783-29.34.639-.872.147-2.231-.718-2.736-1.014-.593-2.096-.156-2.736.718-6.744,9.198-13.784,18.166-20.95,27.037-5.738,7.104-11.556,14.149-17.06,21.438-6.201,8.212-12.582,16.294-18.874,24.437-3.247,4.203-6.494,8.407-9.749,12.604-1.526,1.968-3.053,3.935-4.584,5.899-1.381,1.772-3.528,3.753-3.949,6.017-.605,3.256,2.815,5.241,4.949,7.007,2.357,1.95,4.697,3.921,7.06,5.863,4.736,3.89,9.554,7.752,14.79,10.955.68.416,1.892.364,2.424-.313,12.823-16.325,25.81-32.528,39.046-48.52,12.501-15.105,26.132-29.221,38.995-44.014,4.013-4.615,8.024-9.302,11.3-14.481,2.791-4.414,6.489-9.351,6.606-14.787.056-2.575-3.944-2.574-4,0h0Z"/><path class="e" d="M109.824,95.529c1.261,3.749,1.597,5.125,2.816,9.121l.47,1.308c-2.364,7.947-4.727,15.202-6.744,20.042-2.524-5.197-4.308-11.032-5.567-16.914.349-1.549.596-2.645.596-2.645,1.18-5.207,1.721-7.701,2.603-11.182-.543-1.862-1.298-4.378-1.799-6.121l-.401-1.635c1.448-1.258,3.045-2.613,4.004-3.315,2.22,1.138,4.532,2.201,6.717,3.334-.395.864-.697,1.533-.697,1.533-.736,1.609-1.324,3.609-2.326,5.509.116.34.225.661.327.966Z"/><path class="h" d="M81.781,185.121c-.285-.072-.565-.15-.837-.235-.686-.213-1.328-.467-1.915-.765-1.49-.759-2.826-1.897-2.36-3.618,3.193-11.781,6.157-24.914,6.157-32.529,0-5.763-1.658-17.39-3.877-28.459l-.249.211c-2.091,1.775-4.534,3.733-7.078,5.7-.78.597-1.561,1.194-2.351,1.78-1.307.988-2.634,1.955-3.94,2.883-.263.186-.526.371-.78.557-3.108,2.187-6.071,4.127-8.474,5.467-4.039,2.262-8.953,5.408-13.499,6.281-4.566.872-11.293-.522-13.817-4.406-2.027-3.125-2.25-7.099-2.446-10.813-.076-1.431-.142-2.833-.188-4.224-.056-1.401-.093-2.772-.11-4.142-.018-.68-.027-1.361-.025-2.041-.067-7.793.272-15.369.817-23.922,8.021-1.685,17.663-4.166,24.893-5.669-.296,6.527-.437,11.774-.45,17.442,5.623-3.649,10.353-9.352,15.103-13.763,2.771-2.573,6.227-5.569,7.341-6.355,4.307-3.039,9.889-5.556,13.444-7.167l.509-.199c3.162,1.503,6.511,2.168,10.214,2.03.021,1.225.032,1.922.032,1.922.19,11.67,1.56,30.68,8.47,44.91,4.98-11.95,12.07-38.62,16.08-54.08,0,0,.189-.792.418-1.748,3.028.849,9.163,3.108,11.552,3.568,8.079.609,19.705,2.879,25.697,4.222,16.206,4.339,21.112,5.265,34.306,11.264,8.378,3.809,32.765,22.022,36.854,25.439-3.575,4.472-12.72,16.051-17.088,19.648-7.594-5.899-20.841-16.427-27.142-20.047-5.71-2.76-20.23-5.47-27.91-6.77l-.408-.069c-1.563,7.683-6.145,30.052-3.529,42.41,3.08,9.77,7.67,14.7,11.556,21.5,2,3.5,2.084,5.82-1.326,9.34-4.23,4.36-9.849,8.043-14.569,9.143-7.58,1.77-16.56.06-24.1-3.37-3.23-1.47-11.95-8.087-15.56-13.197-3.61,4.95-9.28,9.345-13.78,10.979-4.186,1.524-10.775,2.116-15.635.89Z"/><path class="g" d="M110.096,88.045c-.638,1.424-1.126,2.909-1.759,4.335-.177.398-.383.78-.567,1.174-.317.678-.293,1.269-.055,1.971.251.74.498,1.481.739,2.224.798,2.464,1.504,4.956,2.258,7.433.748,2.456,4.61,1.409,3.857-1.063-1.026-3.371-2.007-6.75-3.143-10.087l-.202,1.541c.912-1.766,1.545-3.766,2.326-5.509.442-.985.285-2.15-.718-2.736-.855-.5-2.292-.273-2.736.718h0Z"/><path class="g" d="M105.521,97.644c1.416-.349,2.849-.627,4.293-.833.46-.066.972-.538,1.195-.919.251-.429.357-1.061.202-1.541-.157-.484-.457-.951-.919-1.195l-.478-.202c-.354-.095-.709-.095-1.063,0-1.444.206-2.877.484-4.293.833-.48.118-.948.497-1.195.919-.251.429-.357,1.061-.202,1.541.341,1.054,1.371,1.665,2.46,1.397h0Z"/><path class="g" d="M100.271,89.669c.589,2.044,1.202,4.08,1.799,6.121v-1.063c-.937,3.711-1.757,7.45-2.603,11.182-.238,1.053.322,2.165,1.397,2.46,1.007.277,2.221-.339,2.46-1.397.669-2.952,1.318-5.91,2.027-8.853.143-.595.289-1.189.438-1.782.136-.542.261-1.05.138-1.611-.086-.389-.227-.775-.34-1.158-.488-1.654-.982-3.306-1.459-4.963-.711-2.469-4.572-1.419-3.857,1.063h0Z"/><path class="g" d="M100.718,91.098c1.042-.912,2.08-1.828,3.129-2.731.564-.486,1.131-.968,1.704-1.444.278-.231.558-.46.841-.686.086-.068.483-.373.091-.076.109-.083.218-.165.329-.246h-2.019c2.722,1.39,5.511,2.647,8.19,4.121.946.521,2.181.231,2.736-.718.536-.916.232-2.214-.718-2.736-2.679-1.474-5.468-2.731-8.19-4.121-.593-.303-1.437-.429-2.019,0-2.419,1.784-4.644,3.831-6.903,5.808-.813.712-.728,2.1,0,2.828.807.807,2.013.714,2.828,0h0Z"/><path class="g" d="M86.131,75.609c-3.242,1.469-6.476,2.965-9.57,4.728-2.888,1.646-5.424,3.59-7.918,5.772-2.961,2.59-5.772,5.312-8.536,8.11-2.835,2.869-5.696,5.763-9.002,8.096-2.087,1.472-.091,4.942,2.019,3.454,6.576-4.639,11.731-10.987,17.739-16.295,2.564-2.265,4.724-3.977,7.717-5.682,3.095-1.763,6.328-3.26,9.57-4.728.984-.446,1.223-1.873.718-2.736-.592-1.012-1.749-1.165-2.736-.718h0Z"/><path class="g" d="M53.325,113.787c-.142-8.876-.021-17.739.377-26.608.062-1.372-1.322-2.181-2.532-1.929-8.331,1.741-16.565,3.912-24.893,5.669-2.517.531-1.452,4.388,1.063,3.857,8.327-1.757,16.562-3.928,24.893-5.669l-2.532-1.929c-.399,8.869-.52,17.732-.377,26.608.041,2.571,4.041,2.579,4,0h0Z"/><path class="g" d="M77.285,118.313c-5.395,4.559-11.039,8.867-16.916,12.786-2.692,1.795-5.485,3.394-8.293,4.997-2.825,1.613-5.721,3.264-8.886,4.107-4.134,1.101-10.699.393-13.009-3.746-1.524-2.731-1.731-5.986-1.863-9.044-.143-3.336-.286-6.672-.323-10.012-.092-8.193.298-16.378.814-24.552.162-2.571-3.838-2.561-4,0-.492,7.795-.872,15.6-.823,23.413.023,3.652.176,7.296.324,10.944.142,3.473.449,6.981,1.882,10.19,2.471,5.534,9.179,7.647,14.863,7.199,3.364-.265,6.495-1.571,9.472-3.094,3.023-1.546,6.009-3.256,8.898-5.041,7.28-4.498,14.158-9.801,20.689-15.32,1.969-1.664-.873-4.481-2.828-2.828h0Z"/><path class="f" d="M232.621,150.375c-.312-.303-.602-.634-.884-.965-.485-.572-.856-1.014-1.209-1.464-.309,1.916-.561,3.401-2.144,3.994-1.29.483-2.72-.04-3.507-1.17-.8-1.149-1.263-2.493-1.692-3.825-.652-2.025-1.249-4.083-1.452-6.2s-.412-3.449.253-5.533c.486-1.523-1.139-2.62-2.081-3.708,0,0-.289-.334-.739-.845,0,0-.225-.255-.616-.695,3.688-4.05,8.08-9.49,10.994-13.134.622.393,1.184.747,1.184.747.837.451,1.39.743,1.39.743.563.297,1.744.863,3.034,1.478,1.965.936,4.182,1.986,4.846,2.372,1.31.77,2.29,1.89,3.38,3.01.73.75,1.64,1.93,2.22,2.8,1.29,1.91,3.27,4.12,3.19,6.58-.08,2.45-2.11,5.13-3.53,7.22-1.61,2.08-5.438,6.217-6.878,7.737-.411.377-1.494,1.368-1.923,1.699-.733.564-1.867.496-2.675.047-.428-.238-.808-.546-1.16-.888Z"/><path class="g" d="M218.49,132.917c.363.404.763.773,1.13,1.174.119.13.282.271.36.436.333.708.087.168.085.158.025.186-.196.645-.246.868-.08.355-.133.713-.18,1.074-.085.651-.12,1.29-.092,1.947.133,3.057.771,5.998,1.709,8.901.846,2.618,1.958,5.712,4.922,6.491s5.334-1.295,6.011-4.031c.618-2.499-3.238-3.565-3.857-1.063-.141.57-.209,1.115-.758,1.227-.74.152-1.125-.534-1.428-1.082-1.141-2.064-1.765-4.651-2.213-6.951-.213-1.096-.321-2.223-.38-3.338-.057-1.08.119-1.945.36-2.985.581-2.516-1.068-3.955-2.595-5.654-1.724-1.919-4.546.918-2.828,2.828h0Z"/><path class="g" d="M231.108,120.047c2.237,1.167,4.557,2.172,6.815,3.296,3.047,1.516,5.018,4.346,6.943,7.054.96,1.35,2.202,2.937,1.846,4.693-.365,1.801-1.634,3.428-2.653,4.91-1.756,2.553-4.025,4.815-6.135,7.08-.43.462-.855.924-1.319,1.352-.318.293-.64.583-.966.867-.107.094-.311.328-.433.371.198-.069.028-.043-.06-.05-.887-.07-1.616-1.178-2.136-1.791-.679-.8-1.31-1.617-1.902-2.484-1.442-2.114-4.91-.115-3.454,2.019,1.282,1.88,2.739,3.982,4.622,5.303,2.098,1.472,4.352,1.065,6.192-.539,2.657-2.316,5.002-5.087,7.266-7.781,2.613-3.109,5.998-7.523,4.784-11.838-.631-2.243-2.188-4.127-3.511-5.997-1.397-1.973-3.062-3.899-4.993-5.367-2.62-1.993-5.982-3.036-8.887-4.551-2.28-1.189-4.305,2.262-2.019,3.454h0Z"/><path class="g" d="M232.687,113.25c-4.45-3.705-9.2-7.089-13.885-10.485-6.169-4.472-12.399-8.934-18.938-12.855-6.424-3.852-13.664-6.597-20.796-8.824-8.744-2.73-17.687-5.048-26.686-6.749-5.659-1.069-11.37-2.031-17.111-2.528-1.934-.168-3.977-1.016-5.851-1.633-2.138-.704-4.266-1.466-6.442-2.046-2.49-.663-3.552,3.194-1.063,3.857,3.771,1.004,7.386,2.544,11.171,3.498,2.172.548,4.537.538,6.759.828,2.435.318,4.862.707,7.282,1.123,9.324,1.606,18.461,3.905,27.553,6.514,7.245,2.079,14.675,4.619,21.27,8.312,6.312,3.534,12.245,7.802,18.121,12.004,3.373,2.412,6.719,4.863,10.034,7.355,2.21,1.661,3.718,2.762,5.754,4.458,1.965,1.636,4.81-1.179,2.828-2.828h0Z"/><path class="g" d="M229.858,113.25c-2.476,3.097-4.949,6.196-7.487,9.243-2.702,3.244-5.432,6.527-8.507,9.429-1.876,1.771.957,4.596,2.828,2.828,3.074-2.903,5.804-6.186,8.507-9.429,2.538-3.046,5.011-6.146,7.487-9.243.674-.843.823-2.005,0-2.828-.698-.698-2.15-.848-2.828,0h0Z"/><path class="g" d="M158.6,109.424c8.201,1.391,16.573,2.804,24.485,5.431,3.073,1.02,5.613,2.745,8.332,4.653,3.576,2.509,7.06,5.148,10.525,7.806,3.71,2.846,7.383,5.738,11.076,8.606.852.662,1.998.831,2.828,0,.69-.69.858-2.162,0-2.828-6.985-5.424-13.899-10.954-21.092-16.103-2.826-2.023-5.657-4.144-8.922-5.394-3.873-1.482-7.97-2.419-12.011-3.31-4.693-1.035-9.419-1.915-14.157-2.718-1.064-.18-2.154.282-2.46,1.397-.264.96.326,2.279,1.397,2.46h0Z"/><path class="g" d="M73.827,106.181c2.08,7.779,3.669,15.699,4.982,23.641,1.044,6.314,2.217,12.879,1.996,19.305-.297,8.627-2.564,17.284-4.686,25.607-.28,1.097-.565,2.192-.855,3.287-.302,1.137-.756,2.319-.662,3.51.166,2.11,1.887,3.596,3.688,4.449,3.478,1.648,7.533,1.97,11.331,1.742,4.353-.262,8.569-1.248,12.349-3.473,4.285-2.523,8.003-6,10.953-9.987.643-.869.144-2.233-.718-2.736-1.018-.595-2.092-.153-2.736.718-4.414,5.965-10.882,10.578-18.366,11.357-3.415.356-7.231.386-10.468-.931-.596-.243-1.53-.6-1.893-1.163-.385-.596.15-1.563.321-2.204.583-2.191,1.146-4.386,1.683-6.589,1.897-7.77,3.856-15.848,4.068-23.881.161-6.13-.919-12.377-1.877-18.407-1.352-8.504-3.027-16.986-5.252-25.307-.664-2.484-4.524-1.43-3.857,1.063h0Z"/><path class="g" d="M126.434,14.324c4.803,4.301,7.658,10.657,8.166,17.07.217,2.739.025,5.573-.204,8.31-.217,2.6-.544,5.432-1.8,7.762-1.222,2.266,2.23,4.288,3.454,2.019,1.555-2.885,2.027-6.219,2.317-9.442.269-2.993.484-6.117.192-9.111-.711-7.29-3.79-14.505-9.297-19.437-1.913-1.713-4.751,1.107-2.828,2.828h0Z"/><path class="g" d="M104.602,30.423c.303.109.607.214.909.326.23.085.457.175.685.265.065.026.497.205.151.06-.353-.148.116.051.178.079,1.351.597,2.649,1.311,3.883,2.123,1.682,1.106,2.931,2.149,4.458,3.705,1.792,1.825,3.312,3.854,4.642,6.036,1.337,2.195,4.798.187,3.454-2.019-2.663-4.371-6.116-8.229-10.388-11.078-2.153-1.436-4.482-2.482-6.91-3.353-1.017-.365-2.19.412-2.46,1.397-.305,1.11.377,2.094,1.397,2.46h0Z"/><path class="g" d="M75.448,45.947c.358-2.162,1.848-4.287,3.116-6.137.789-1.152,1.639-2.256,2.577-3.292.481-.532.983-1.048,1.515-1.529.207-.187.418-.379.64-.548.614-.467.406-.004-.179-.22l-.883-.514c.45.348.23,1.741.418,2.305.357,1.066,1.361,1.88,2.484,1.972,1.686.139,3.122-1.315,4.39-2.257,3.278-2.435,6.695-4.86,10.695-5.916,2.487-.657,1.432-4.516-1.063-3.857-3.074.812-5.91,2.328-8.538,4.093-1.146.77-2.256,1.591-3.364,2.414-.823.612-1.669,1.378-2.608,1.802l1.009-.273c.564,1.077.833,1.334.808.771.006-.112.004-.225-.004-.337-.016-.355-.059-.717-.12-1.067-.119-.683-.343-1.325-.737-1.896-.839-1.217-2.399-1.584-3.697-.897-1.737.92-3.222,2.63-4.454,4.12-1.412,1.707-2.709,3.523-3.819,5.441-.84,1.45-1.766,3.084-2.043,4.759-.176,1.064.279,2.153,1.397,2.46.957.263,2.283-.325,2.46-1.397h0Z"/><path class="g" d="M92.067,68.498c1.417.399,2.959.579,4.429.485.791-.051,1.606-.151,2.363-.398.852-.279,1.617-.737,2.422-1.121.947-.452,1.269-1.881.718-2.736-.627-.973-1.724-1.2-2.736-.718-.334.159-.658.335-.987.503-.07.036-.45.166-.473.23.284-.116.333-.139.149-.068-.068.025-.137.048-.207.07-.291.092-.587.15-.887.209-.215.033-.155.026.18-.021-.079.01-.159.018-.239.026-.141.014-.282.024-.424.031-.632.033-1.268.009-1.897-.06-.08-.009-.159-.018-.238-.028.335.046.395.053.181.021-.151-.027-.302-.051-.453-.081-.282-.056-.561-.123-.837-.201-1.006-.283-2.221.348-2.46,1.397-.242,1.062.319,2.157,1.397,2.46h0Z"/><path class="g" d="M101.055,51.079c-.393-1.396-.039-4.577,2.593-4.786,3.47.104,3.562,3.963,2.35,5.747-.992,1.461-3.819,2.01-4.943-.961Z"/><path class="g" d="M80.438,51.232c-.361-1.401-.039-4.592,2.371-4.799,3.177.107,3.264,3.978,2.156,5.767-.907,1.465-3.496,2.014-4.527-.968Z"/><path class="g" d="M90.644,54.024c-.441.76-.864,1.535-1.237,2.331-.255.544-.443.995-.47,1.6-.032.704.283,1.436.813,1.899.427.372.889.682,1.448.819.338.083.688.094,1.032.132l-.532-.071.034.005c.266.083.532.095.798.036.266-.012.514-.091.744-.237.415-.243.811-.718.919-1.195.117-.512.091-1.087-.202-1.541-.26-.404-.695-.851-1.195-.919-.3-.041-.599-.071-.9-.107l.532.071c-.119-.017-.231-.045-.343-.088l.478.202c-.103-.045-.196-.1-.287-.165l.405.313c-.086-.067-.168-.137-.24-.218l.313.405c-.02-.026-.037-.054-.05-.083l.202.478c-.018-.047-.029-.089-.037-.139l.071.532c-.004-.052-.003-.099,0-.151l-.071.532c.018-.128.056-.247.104-.367l-.202.478c.374-.872.853-1.709,1.328-2.528.261-.45.34-1.039.202-1.541-.128-.464-.486-.967-.919-1.195-.464-.245-1.026-.368-1.541-.202-.495.16-.929.46-1.195.919h0Z"/><path class="g" d="M75.677,16.535c-6.188,8.72-6.389,20.692-4.128,30.786.562,2.511,4.42,1.448,3.857-1.063-2.043-9.12-1.857-19.838,3.725-27.704.625-.881.157-2.225-.718-2.736-1.003-.586-2.11-.166-2.736.718h0Z"/><path class="g" d="M124.004,7.773C118.825,2.774,111.988.422,104.881.054c-7.238-.375-14.802,1.16-20.816,5.354-3.061,2.135-5.621,4.809-7.679,7.918-1.425,2.152,2.037,4.158,3.454,2.019,7.037-10.626,21.592-13.8,33.271-9.727,3.022,1.054,5.766,2.762,8.066,4.982,1.853,1.788,4.685-1.037,2.828-2.828h0Z"/><path class="g" d="M109.769,73.974c-6.62,3.11-14.491,4.68-21.345,1.328-3.102-1.517-5.962-3.672-7.836-6.608-1.919-3.006-2.915-6.472-3.506-9.963-.823-4.87-1.139-9.834-1.83-14.726-.151-1.071-1.515-1.657-2.46-1.397-1.151.316-1.549,1.386-1.397,2.46,1.199,8.483.946,17.98,5.643,25.491,4.32,6.908,12.62,10.86,20.664,10.612,4.963-.153,9.622-1.647,14.085-3.744,2.328-1.094.3-4.543-2.019-3.454h0Z"/><path class="g" d="M128.646,47.429c.879-.599,1.567-.603,2.567-.303.241.086.28.1.117.04.116.057.229.12.338.188.196.135.204.134.024-.003.082.069.161.142.237.218.103.095.335.462.059.035.089.137.173.273.256.413.198.333.004-.139.105.257.052.203.112.399.158.604.039.244.05.282.034.114.018.149.032.299.042.449.021.309.027.619.02.929-.023,1.089-.176,1.944-.54,3.042-.508,1.534-1.636,3.393-3.102,4.546-.317.25-.666.441-1.014.643-.196.089-.187.088.026-.004-.115.045-.232.088-.349.129-.259.089-.523.166-.789.232-.586.144-.674.166-1.269.178-.497.01-.951-.027-1.235-.154-.986-.439-2.149-.286-2.736.718-.499.853-.274,2.294.718,2.736,2.402,1.071,5.08.791,7.438-.282,2.087-.949,3.765-2.892,4.881-4.852,1.141-2.006,1.809-4.149,1.952-6.458.132-2.124-.253-4.46-1.773-6.05-2.039-2.133-5.765-2.467-8.183-.821-.892.607-1.289,1.759-.718,2.736.517.884,1.839,1.328,2.736.718h0Z"/><path class="g" d="M103.414,43.018c1.37-.358,2.732-.806,4.012-1.417.431-.205.797-.751.919-1.195.132-.479.072-1.116-.202-1.541-.275-.427-.685-.803-1.195-.919l-.532-.071c-.361.001-.697.092-1.009.273-.142.068-.286.132-.431.193l.478-.202c-1.004.422-2.05.747-3.103,1.023-.483.126-.945.491-1.195.919s-.357,1.061-.202,1.541c.157.484.457.951.919,1.195.48.254,1.007.341,1.541.202h0Z"/><path class="g" d="M118.399,73.797c2.153-1.937,4.041-4.128,5.704-6.498,1.092-1.557,2.142-3.203,2.927-4.939.43-.951.305-2.196-.718-2.736-.876-.463-2.276-.3-2.736.718-.761,1.681-1.772,3.278-2.824,4.79-.173.248-.348.495-.526.74-.089.123-.18.245-.271.367-.015.02-.374.492-.132.178-.4.517-.817,1.02-1.246,1.512-.938,1.075-1.946,2.085-3.007,3.04-.78.702-.767,2.124,0,2.828.833.765,1.996.749,2.828,0h0Z"/><path class="g" d="M109.469,174.262c2.925,4.071,6.837,7.394,10.82,10.39,1.582,1.19,3.219,2.384,4.984,3.292,2.476,1.275,5.204,2.215,7.881,2.962,5.864,1.635,12.258,2.262,18.234.842,5.63-1.338,10.793-5.05,14.853-9.053,1.98-1.952,3.943-4.342,3.903-7.279-.034-2.552-1.467-4.824-2.758-6.929-2.693-4.392-5.734-8.552-7.947-13.224-1.168-2.466-2.25-5.065-2.639-7.779-.279-1.948-.366-3.929-.39-5.895-.057-4.71.34-9.423.907-14.095.572-4.716,1.363-9.405,2.25-14.07.498-2.62,1.13-5.227,1.548-7.861.169-1.066-.274-2.152-1.397-2.46-.951-.261-2.29.324-2.46,1.397-.933,5.889-2.332,11.696-3.21,17.602-1.289,8.672-2.396,17.71-1.104,26.447.755,5.105,3.508,10.119,6.188,14.466,1.251,2.028,2.589,4,3.871,6.008,1.139,1.785,2.89,3.932,3.129,6.101.253,2.295-2.156,4.252-3.648,5.631-2.154,1.99-4.532,3.737-7.112,5.137-4.817,2.614-10.247,3.054-15.621,2.329s-10.884-2.446-15.392-5.543c-4.159-2.856-8.472-6.307-11.435-10.433-.629-.876-1.742-1.299-2.736-.718-.865.506-1.351,1.854-.718,2.736h0Z"/><path class="g" d="M81.817,89.488c1.639,1.657,2.841,3.678,4.48,5.335l.405-3.141c-2.11,1.365-4.071,2.94-5.841,4.725-.602.607-.791,1.68-.313,2.424,4.08,6.344,8.086,12.736,12.127,19.105.652,1.028,1.304,2.057,1.958,3.085,1.377,2.166,4.841.162,3.454-2.019-4.069-6.398-8.123-12.806-12.188-19.207-.632-.995-1.259-1.992-1.897-2.983l-.313,2.424c1.539-1.552,3.196-2.912,5.032-4.099,1.078-.697,1.343-2.193.405-3.141-1.639-1.657-2.841-3.678-4.48-5.335-1.813-1.833-4.641.996-2.828,2.828h0Z"/><path class="g" d="M133.223,80.955c-1.809,1.992-3.542,4.049-5.411,5.986-.984,1.019-.612,2.359.405,3.141,2.134,1.641,4.188,3.385,6.263,5.099l-.313-2.424c-5.338,7.274-10.155,14.915-15.582,22.125-.65.864-.138,2.236.718,2.736,1.024.599,2.085.148,2.736-.718,5.427-7.21,10.244-14.851,15.582-22.125.478-.652.315-1.906-.313-2.424-2.34-1.931-4.667-3.875-7.073-5.724l.405,3.141c1.869-1.937,3.602-3.994,5.411-5.986,1.727-1.902-1.093-4.739-2.828-2.828h0Z"/><path class="g" d="M50.293,88.148c.539-3.233,3.111-5.864,4.506-8.767.754-1.569,1.408-3.209,2.11-4.803.857-1.945,1.445-3.958,1.44-6.102-.008-3.401-1.176-6.82-4.701-7.881-3.064-.922-8.008-.941-10.287,1.664-1.422,1.625-1.8,4.032-.842,5.99.846,1.73,2.755,2.283,4.242,3.31,2.123,1.467,4.125-1.999,2.019-3.454-.868-.599-2.801-1.069-2.796-2.225.007-1.518,1.839-1.666,2.977-1.728,1.274-.07,2.955-.146,4.105.49,1.088.601,1.209,2.167,1.267,3.287.102,1.964-.448,3.749-1.28,5.507-.701,1.481-1.236,3.043-1.993,4.493-1.562,2.99-4.054,5.748-4.622,9.156-.178,1.064.28,2.153,1.397,2.46.958.263,2.281-.325,2.46-1.397h0Z"/><path class="g" d="M32.901,91.773c-.142-4.12-3.239-7.094-4.816-10.718-1.544-3.55-2.226-7.606-1.425-11.358.266-1.248.662-2.582,1.534-3.552.963-1.071,2.362-.995,3.653-.596.786.243,1.481.693,2.166,1.14.701.457,1.571.918,2.113,1.571.372.448.631,1.05-.047,1.356-.369.166-.119.116-.525-.061-.455-.199-.887-.524-1.324-.765-2.255-1.246-4.275,2.207-2.019,3.454.875.484,1.738,1.148,2.728,1.367,1.056.234,2.226-.01,3.158-.541,1.996-1.139,2.902-3.471,2.124-5.654-.694-1.946-2.539-3.102-4.19-4.18-1.783-1.165-3.716-1.936-5.874-1.952-3.736-.029-6.081,2.952-7.075,6.257-1.186,3.942-.908,8.332.273,12.235.624,2.064,1.534,4.142,2.621,6.006,1.115,1.912,2.846,3.672,2.926,5.993.088,2.567,4.089,2.579,4,0h0Z"/><path class="g" d="M34.664,63.739c.068-.139.144-.27.22-.404.007-.012.102-.165.107-.163.026.012-.28.297-.116.148.11-.099.2-.227.307-.331.047-.045.096-.087.143-.131.087-.082.261-.128.049-.048-.247.093-.022.018.062-.034.056-.034.109-.072.165-.106.112-.069.227-.133.343-.194.078-.041.158-.077.237-.116.115-.058.19-.013.004-.004-.199.01-.101.038.008.003.105-.034.209-.073.314-.106.273-.085.551-.154.831-.206.064-.012.13-.019.193-.033.212-.048-.205.031-.212.027.092.048.4-.036.505-.041.262-.012.525-.01.787.008.084.006.493.043.131.007-.367-.037.114.031.209.054.11.027.218.058.326.093.378.124-.03.05-.044-.034.006.035.39.199.418.215.156.091.408.331.148.074.137.134.274.272.413.404.154.147-.016-.022-.04-.057.051.075.103.15.153.225.233.344.458.694.663,1.056.167.295.311.599.457.904.098.203-.04-.093-.047-.111.028.077.06.153.088.229.081.216.154.434.223.654.05.159.098.319.139.482.025.1.039.204.067.303.068.241-.019-.146-.012-.138.061.07.026.386.025.479,0,.044.002.306-.017.314-.031.014.145-.389-.015-.082-.057.108-.126.154-.008.034.245-.251-.286.323.078-.156-.026.034-.226.197-.031.044.203-.159-.086.031-.121.058-.161.125.077-.029.122-.041-.043.011-.453.189-.181.077.192-.079.076.002-.032,0-.091-.003-.181-.002-.272-.007-.058-.004-.214,0-.276-.027.125.053.337.054.071.004-.22-.041-.44-.08-.659-.126-.412-.088-.82-.19-1.224-.304-1.006-.286-2.222.349-2.46,1.397-.242,1.064.32,2.154,1.397,2.46,2.156.612,4.568,1.079,6.384-.6,1.945-1.798,1.222-4.628.31-6.743-.781-1.812-1.985-3.711-3.856-4.524-1.618-.703-3.339-.764-5.056-.396-1.977.423-3.966,1.626-4.873,3.49-.457.939-.287,2.206.718,2.736.898.474,2.248.287,2.736-.718h0Z"/><path class="g" d="M43.9,60.827c.099-.164.542-.687.102-.198.139-.154.268-.314.418-.457.064-.061.15-.174.23-.205l-.244.186c.054-.041.11-.08.166-.118.156-.105.32-.189.486-.278.181-.098-.506.187-.099.045.098-.034.197-.064.297-.09.085-.022.171-.037.256-.056.375-.085-.471.021-.107.021.225,0,.446.013.671.018-.555-.014-.24-.032-.064.008.121.028.242.06.361.097l.121.04c.204.077.154.054-.151-.069.062.065.203.104.28.152.071.044.323.231.035.014-.292-.221-.021,0,.039.062.059.061.279.336.051.038-.22-.288-.041-.052.007.017.109.156.211.318.314.478.109.168.22.334.317.51.046.083.086.169.13.253.17.322-.171-.479-.053-.128.147.438.271.876.379,1.325.245,1.018,1.455,1.722,2.46,1.397,1.059-.343,1.66-1.37,1.397-2.46-.57-2.366-1.883-4.812-4.385-5.522-1.429-.406-2.897-.258-4.23.374-1.111.526-2.012,1.487-2.638,2.528-.539.898-.229,2.236.718,2.736.968.512,2.161.241,2.736-.718h0Z"/><path class="g" d="M49.502,59.938c.075-.069.15-.134.229-.198l-.405.313c.202-.149.415-.269.645-.368l-.478.202c.259-.103.524-.176.799-.217l-.532.071c.236-.031.467-.03.704-.007l-.532-.071c.155.021.3.057.445.115l-.478-.202c.187.084.359.189.526.308l-.405-.313c.27.212.491.473.702.741l-.313-.405c.783,1.016,1.413,2.147,1.918,3.325l-.202-.478c.087.206.17.414.243.626.171.495.457.925.919,1.195.429.251,1.061.357,1.541.202.978-.316,1.762-1.401,1.397-2.46-.318-.923-.744-1.823-1.217-2.676-.514-.927-1.129-1.876-1.87-2.637-.826-.847-1.996-1.364-3.189-1.283-1.237.084-2.366.538-3.279,1.389-.767.715-.777,2.115,0,2.828.822.754,2.01.763,2.828,0h0Z"/><path class="g" d="M95.896,81.089c.264,15.489,1.95,31.799,8.743,45.919.836,1.737,3.069.936,3.655-.478,2.593-6.253,4.57-12.773,6.509-19.252,2.311-7.722,4.454-15.493,6.534-23.28,1.028-3.845,2.037-7.696,3.037-11.548.647-2.493-3.21-3.557-3.857-1.063-3.855,14.858-7.739,29.753-12.544,44.338-1.081,3.281-2.212,6.551-3.536,9.742l3.655-.478c-3.458-7.188-5.345-15.086-6.553-22.937-1.067-6.931-1.524-13.955-1.644-20.963-.044-2.571-4.044-2.579-4,0h0Z"/></g></g></svg>