<svg id="b" xmlns="http://www.w3.org/2000/svg" width="373.093" height="314.456" viewBox="0 0 373.093 314.456" style="color: initial !important;"><defs><style>.e{fill:#211715;}.f{fill:#ffffff;}.g{fill:#88c5e9;}.h{fill:#645d5c;}</style></defs><g id="c"><g id="d"><path class="f" d="M154.145,178.983c-4.637-5.592-9.275-11.183-13.912-16.775,2.824-8.204,4.335-17.281,4.335-27.045,0-38.356-29.208-70.653-71.095-70.653S2.383,97.066,2.383,135.163c0,42.625,29.68,71.978,71.092,71.978,27.428,0,48.769-12.063,60.644-31.777,6.675,1.206,13.351,2.412,20.026,3.619Z"/><path class="e" d="M155.842,177.286c-4.637-5.592-9.275-11.183-13.912-16.775l.617,2.335c5.407-15.854,6.066-33.81,1.125-49.875-4.087-13.288-11.975-25.4-22.724-34.254-11.402-9.392-25.385-14.882-40.062-16.262-15.062-1.416-30.573,1.454-43.863,8.765-12.158,6.688-22.217,17.04-28.626,29.341C1.668,113.474-.923,128.075.288,142.544c1.163,13.903,5.658,27.607,14.047,38.854,8.091,10.848,19.182,18.942,31.894,23.553,14.305,5.189,30.349,5.875,45.191,2.774s28.609-10.716,38.415-22.311c2.346-2.775,4.475-5.731,6.358-8.838l-2.71,1.103c6.675,1.206,13.351,2.412,20.026,3.619,1.274.23,2.587-.347,2.952-1.676.32-1.163-.394-2.721-1.676-2.952-6.675-1.206-13.351-2.412-20.026-3.619-1.076-.194-2.123.133-2.71,1.103-7.568,12.491-19.333,21.832-33.146,26.552-14.309,4.889-30.428,5.417-45.054,1.591-12.658-3.311-24.129-10.158-32.717-20.048-8.734-10.057-13.969-22.94-15.666-36.123-1.801-13.982-.065-28.389,6.082-41.156,5.916-12.287,15.434-22.597,27.333-29.29,12.923-7.269,28.031-9.872,42.715-8.355,13.924,1.439,27.405,7.122,37.889,16.437,10.205,9.067,17.369,21.138,20.639,34.377,1.818,7.361,2.334,14.912,1.886,22.472-.286,4.833-.988,9.624-2.141,14.327-.547,2.23-1.445,4.404-1.948,6.633-.365,1.619.942,2.727,1.882,3.86.896,1.08,1.792,2.16,2.688,3.241,3.32,4.003,6.64,8.006,9.96,12.009.828.998,2.538.857,3.394,0,.988-.988.83-2.393,0-3.394Z"/><path class="g" d="M80.322,132.077c.434-.758.794-1.4.905-1.624-.261-.607-1.327-2.584-2.005-3.792h17.349c.36-4.773,4.201-8.982,8.89-9.956,4.343-.911,9.222,1.215,11.305,5.162,1.137,2.161,1.313,4.773.643,7.111-.339,1.2-.904,2.337-1.681,3.305-.642.797-1.103,1.462-1.324,1.786l-.282.413c1.38.801,2.381,2.399,2.749,3.478.861,2.493.777,5.331-.353,7.725-.607,1.292-1.497,2.464-2.662,3.29-1.405,1.003-3.135,1.455-4.858,1.624-2.888.29-5.924-.198-8.382-1.772-1.342-.869-2.478-2.076-3.241-3.488-.36-.671-.635-1.384-.805-2.125-.106-.452-.007-1.617-.332-1.963-1.38.016-9.921-.184-13.169-.184-1.476-2.076-2.839-4.286-4.357-6.214.429-.729,1.075-1.841,1.609-2.775Z"/><path class="g" d="M37.969,159.9c-1.718.497-3.837-.258-4.909-.976-2.197-1.459-3.851-3.767-4.405-6.356-.301-1.396-.305-2.867.12-4.231.509-1.649,1.61-3.058,2.877-4.238,2.12-1.982,4.83-3.436,7.739-3.675,1.593-.123,3.23.147,4.693.807.693.315,1.345.715,1.929,1.201.358.295.986,1.281,1.455,1.359,1.087-.85,8.252-6.114,10.834-8.084,1.256.583,3.278,1.562,3.845,1.902.093.551.393,3.513.535,5.038,2.359.675,4.757,1.626,7.169,2.446-2.313,1.765-10.52,7.982-13.793,10.479,2.609,4.013,2.108,9.689-1.029,13.308-2.9,3.358-8.068,4.628-12.119,2.754-2.214-1.028-3.94-2.998-4.824-5.263-.459-1.16-.699-2.406-.668-3.647.027-1.023-.01-1.831-.031-2.222"/><path class="g" d="M63.43,121.202c-2.446-2.588-4.796-5.267-7.248-7.849-1.128-1.188-2.927-.748-3.769.486-.962,1.41-1.804,2.898-2.738,4.327l3.769-.486c-2.44-2.772-4.854-5.567-7.292-8.342-.856-.974-2.519-.875-3.394,0-.967.967-.858,2.417,0,3.394,2.437,2.775,4.852,5.569,7.292,8.342,1.072,1.219,2.975.729,3.769-.486.934-1.429,1.776-2.916,2.738-4.327l-3.769.486c2.452,2.583,4.801,5.261,7.248,7.849.891.942,2.496.898,3.394,0,.94-.94.893-2.449,0-3.394h0Z"/><path class="g" d="M73.427,121.278c-.2-4.561.165-9.132-.045-13.692-.071-1.551-1.477-2.735-3.038-2.314-1.648.445-3.259,1.018-4.898,1.494l3.038,2.314c-.052-3.979-.259-7.953-.306-11.932-.037-3.087-4.837-3.095-4.8,0,.047,3.979.255,7.953.306,11.932.02,1.537,1.52,2.755,3.038,2.314,1.639-.476,3.249-1.049,4.898-1.494l-3.038-2.314c.209,4.56-.156,9.131.045,13.692.135,3.077,4.936,3.094,4.8,0h0Z"/><path class="f" d="M190.416,290.707c-25.651-5.977-27.403-15.507-27.403-15.507,1.144-8.133,3.14-21.059,4.29-29.278,3.936-28.131,5.778-38.167,8.848-54.346,1.752-9.234,5.972-19.464,12.586-26.526,9.177-9.798,26.342-16.983,44.237-22.668,2.854,5.223,7.498,9.022,12.546,11.204,5.28,2.282,11.012,2.913,16.65,2.829,15.111-.247,30.096-5.689,42.521-15.449,11.269,1.294,37.93,12.201,48.1,24.95,9.75,12.223,14.412,34.416,16.118,55.397,2.071,25.475,3.529,50.719-2.885,62.927-3.166,6.027-9.003,10.977-15.978,14.942-9.776,5.558-40.962,11.219-55.825,11.631,0,0-80.915-14.774-103.804-20.107Z"/><path class="f" d="M225.045,143.69l-.559.177c-.841.266-1.393,1.058-1.352,1.94,1.807,38.277,4.348,75.488,12.851,112.838l.26,1.141c4.642,1.408,10.979,2.725,15.896,3.715-.375-.791-.597-1.259-.597-1.259-.931-1.967-1.74-3.993-2.418-6.061-.208-.635-.407-1.293-.351-1.959.14-1.654,1.869-2.815,3.528-2.88,2.034-.08,3.939,1.069,5.655,2.026-9.946-27.725-21.251-76.403-27.346-109.218-.207-1.115-1.341-1.795-2.423-1.453l-3.145.994Z"/><path class="f" d="M304.527,78.619c1.729-1.192,3.879-1.438,5.644-1.138,3.843.653,5.219,2.866,5.765,4.128,1.632,3.775.67,10.181-1.293,13.966-1.382,2.676-3.484,6.382-7.863,8.93-1.293.748-4.437,1.768-7.444,1.567-.275.623-.462,1.052-.462,1.052-.971,1.937-3.246,5.316-3.246,5.316-1.245,1.775-2.537,3.496-3.937,5.179.515,2.781,1.035,5.559,1.552,8.355.354,1.896.714,3.814,1.458,5.592,1.712,4.097,5.812,7.126,10.33,9.132-12.491,9.927-27.612,15.468-42.862,15.717-5.637.084-11.37-.547-16.65-2.829-5.181-2.24-9.938-6.183-12.771-11.618,5.039-1.725,4.578-3.287,8.565-5.798-6.722-1.311-12.784-4.38-18.579-9.296-8.468-7.184-12.011-18.339-13.14-30.623-.651-7.084-1.19-14.781-2.067-22.478,0,0-8.263-31.615,49.111-33.659,52-1.852,47.889,38.504,47.889,38.504Z"/><path class="h" d="M227.819,54.857c-.056-.319-.132-.656-.233-1.015-.386-1.378-1.476-1.931-2.292-1.465-6.964,3.972-16.598,17.919-17.462,22.976,0,0-.117.683-.293,1.689-1.9-10.109-1.792-22.061-.311-30.026,1.616-8.692,5.77-18.434,11.511-25.12,9.943-11.583,24.722-18.584,43.057-19.4,11.57-.515,23.132,1.691,35.573,10.614l7.734,5.547c.736.687,1.473,1.375,1.473,1.375,7.428,6.935,11.038,14.832,13.38,24.461,1.175,4.847,1.62,9.851,1.262,14.812-.382,5.257-.855,17.519-4.693,24.288-.135-.713-.329-1.381-.588-1.981-.547-1.262-1.922-3.475-5.765-4.128-1.766-.3-3.915-.054-5.644,1.138,0,0-1.524.216-3.158.442-1.477.204-8.091-7.372-8.091-7.372-10.673-18.86-24.986-23.747-28.087-24.967,0,0-4.363-1.236-8.834-1.56l-.862.191c-10.523,2.329-20.069,10.591-25.035,13.583-1.185.714-2.645-.302-2.536-1.774.052-.708.048-1.442-.103-2.306Z"/><path class="f" d="M261.575,255.626c-1.483-1.004-3.013-1.939-4.584-2.799-1.456-.797-3.029-1.55-4.687-1.485s-3.388,1.226-3.528,2.88c-.056.666.142,1.324.351,1.959.826,2.515,1.843,4.967,3.04,7.328-6.522-1.317-15.565-3.208-19.825-5.121-6.206-2.787-8.639-1.929-9.876-.186-.802,1.13-.828,2.696.045,4.072-3.99-1.765-7.889-3.4-9.781.016-1.662,3.001.82,5.703,3.496,7.405-.268-.128-.436-.207-.436-.207-2.07-.982-3.78-.538-5.107,1.555-.954,1.506-.676,3.995,1.752,5.39l5.6,3.217-2.841-1.307c-2.036-.937-4.013-.624-5.149,1.026-.723,1.05-1.016,2.975-.326,4.048,1.314,2.044,3.643,3.458,5.56,4.836,4.819,3.462,9.057,5.915,13.953,8.28,1.314.497,2.999,1.09,4.594,1.412.014-1.728.473-3.648.991-5.081,3.449-9.559,18.895-23.581,29.733-35.08-.968-.751-1.96-1.47-2.974-2.157Z"/><path class="e" d="M229.244,141.068c-11.712,3.87-23.689,8.328-33.922,15.353-4.494,3.085-8.461,6.676-11.687,11.085-3.48,4.758-6.02,10.216-7.84,15.808-1.473,4.527-2.267,9.209-3.14,13.877-.693,3.706-1.371,7.414-2.017,11.128-1.656,9.525-3.099,19.085-4.474,28.654-1.8,12.532-3.7,25.051-5.467,37.588-.181,1.282.313,2.578,1.676,2.952,1.124.309,2.77-.385,2.952-1.676,1.513-10.732,3.183-21.441,4.696-32.173,1.427-10.114,2.904-20.222,4.599-30.295,1.293-7.683,2.533-15.435,4.232-23.04,2.372-10.619,7.401-20.747,15.999-27.639,4.78-3.832,10.308-6.773,15.843-9.347,6.427-2.989,13.099-5.424,19.824-7.647,2.919-.965,1.669-5.602-1.276-4.629h0Z"/><path class="e" d="M289.731,120.166c1.013,5.434,1.405,11.446,4.946,15.933,3.032,3.841,7.587,6.224,12.104,7.869,1.218.443,2.629-.498,2.952-1.676.367-1.336-.454-2.507-1.676-2.952-3.649-1.328-7.519-3.337-9.892-6.519-1.295-1.735-1.862-3.765-2.293-5.858-.551-2.68-1.01-5.382-1.512-8.072-.238-1.275-1.778-1.999-2.952-1.676-1.338.368-1.915,1.674-1.676,2.952h0Z"/><path class="e" d="M304.878,21.727c6.665,6.279,10.485,14.205,12.666,23.008,2.061,8.316,1.483,17.13.302,25.556-.591,4.215-1.403,8.698-3.582,12.415-1.566,2.67,2.582,5.089,4.145,2.423,2.133-3.638,3.15-7.865,3.826-11.989.654-3.983.993-8.004,1.26-12.029.35-5.266.217-10.42-.856-15.609-.992-4.795-2.526-9.53-4.637-13.95-2.377-4.977-5.719-9.44-9.73-13.218-2.248-2.117-5.648,1.271-3.394,3.394h0Z"/><path class="e" d="M264.552,49.037c.388.152.778.299,1.166.452.252.099.502.202.753.303.499.2-.078-.036.015.005.189.082.378.163.566.246,1.624.719,3.205,1.533,4.736,2.432,4.642,2.726,8.662,6.164,12.247,10.234,2.756,3.129,5.107,6.573,7.17,10.192,1.53,2.683,5.679.268,4.145-2.423-5.89-10.329-14.496-19.397-25.425-24.377-1.346-.613-2.72-1.153-4.097-1.692-1.207-.473-2.634.52-2.952,1.676-.374,1.36.465,2.478,1.676,2.952h0Z"/><path class="e" d="M210.147,75.991c.109-.591.287-1.163.496-1.726.075-.202.154-.403.238-.602-.041.098-.169.38.034-.062.21-.458.428-.912.658-1.36.934-1.82,2.011-3.567,3.152-5.263,2.477-3.68,5.308-7.203,8.615-10.174.69-.62,1.238-1.082,1.911-1.554.311-.218.799-.406,1.049-.681.27-.298,1.048.035-.692.009-.672-.01-.254-.447-.28.119-.021.453.21.993.222,1.471.017.664-.068,1.305.06,1.965.29,1.499,1.355,2.775,2.826,3.248,2.264.727,4.224-.967,5.964-2.172,1.792-1.241,3.565-2.509,5.376-3.722,5.043-3.378,10.387-6.454,16.356-7.818,3.01-.688,1.736-5.317-1.276-4.629-5.619,1.284-10.827,4-15.652,7.089-2.083,1.333-4.107,2.754-6.132,4.172-.808.565-1.615,1.132-2.436,1.678-.333.221-.69.419-1.012.656-.317.233-.392.073-.191.184-.065-.036,1.146.097.859.35.169-.149.057-1.144.044-1.349-.047-.729-.15-1.47-.322-2.181-.379-1.57-1.292-3.049-2.89-3.596-2.399-.822-4.579,1.178-6.295,2.605-3.601,2.995-6.613,6.746-9.311,10.553-1.422,2.007-2.757,4.086-3.903,6.263-.865,1.641-1.756,3.414-2.096,5.254-.235,1.273.351,2.588,1.676,2.952,1.167.321,2.716-.395,2.952-1.676h0Z"/><path class="e" d="M256.751,86.876c-.632-2.515.163-8.182,4.877-8.42,6.195.363,6.164,7.263,3.908,10.39-1.847,2.56-6.927,3.398-8.785-1.97Z"/><path class="e" d="M219.9,86.099c-.574-2.522.165-8.208,4.482-8.456,5.673.352,5.631,7.275,3.559,10.415-1.696,2.572-6.35,3.422-8.041-1.96Z"/><path class="e" d="M238.958,92.289c-.821,1.326-1.613,2.678-2.314,4.071-.369.733-.653,1.417-.72,2.241-.079.968.34,1.914,1.034,2.577.584.559,1.251.969,2.022,1.212.497.157,1.029.171,1.544.234l-.638-.086c.041.005.081.011.122.019.655.108,1.255.106,1.849-.242.498-.291.973-.862,1.103-1.434.14-.614.11-1.304-.242-1.849-.318-.494-.83-1.003-1.434-1.103-.406-.067-.815-.104-1.223-.157l.638.086c-.206-.03-.404-.078-.599-.152l.573.242c-.212-.09-.401-.204-.584-.344l.486.375c-.15-.123-.293-.253-.417-.402l.375.486c-.035-.047-.063-.098-.086-.152l.242.573c-.022-.053-.038-.108-.048-.165l.086.638c-.016-.122-.015-.235-.002-.357l-.086.638c.033-.195.091-.377.165-.56l-.242.573c.686-1.579,1.637-3.08,2.542-4.542.662-1.069.265-2.689-.861-3.284-1.175-.621-2.577-.28-3.284.861h0Z"/><path class="e" d="M284.791,127.823c3.953-3.233,7.436-6.914,10.549-10.958,2.063-2.681,4.068-5.509,5.608-8.53.589-1.154.302-2.603-.861-3.284-1.071-.626-2.693-.298-3.284.861-3.637,7.133-9.25,13.481-15.406,18.516-1.004.821-.852,2.542,0,3.394.993.993,2.388.823,3.394,0h0Z"/><path class="e" d="M298.58,11.035c-8.626-6.141-18.455-10.019-29.041-10.836-9.509-.734-19.472.564-28.454,3.776-8.343,2.983-16.032,7.728-22.168,14.152-6.934,7.259-11.492,16.751-13.649,26.511-2.417,10.936-2.048,22.863.104,33.805.25,1.272,1.769,2.001,2.952,1.676,1.328-.365,1.927-1.676,1.676-2.952-1.795-9.126-2.15-18.988-.686-28.191,1.438-9.047,5.124-18.375,11.121-25.385,11.255-13.156,28.504-19.043,45.511-18.759,11.07.185,21.228,3.953,30.21,10.347,1.057.752,2.671.187,3.284-.861.705-1.204.198-2.53-.861-3.284h0Z"/><path class="e" d="M271.663,129.299c-12.115,5.307-26.338,7.681-38.636,1.573-5.695-2.829-10.968-6.942-14.387-12.36s-5.183-11.738-6.145-18.051c-.634-4.162-.87-8.391-1.225-12.583-.398-4.706-.813-9.41-1.343-14.104-.146-1.288-.999-2.4-2.4-2.4-1.184,0-2.547,1.104-2.4,2.4.959,8.489,1.315,17.052,2.401,25.523.908,7.079,2.629,14.15,6.214,20.386,7.09,12.335,21.42,19.613,35.434,19.625,8.706.008,16.992-2.397,24.909-5.866,1.187-.52,1.461-2.257.861-3.284-.717-1.225-2.092-1.383-3.284-.861h0Z"/><path class="e" d="M305.739,80.692c2.33-1.498,5.646-1.084,7.389.859.187.209.023.006-.01-.037.065.084.126.175.184.265.124.192.234.391.348.59.18.315.247.538.418,1.211.367,1.446.35,2.972.226,4.451-.47,5.57-3.754,11.625-8.723,14.402-.588.329-.567.315-1.351.569-.728.236-1.476.427-2.231.553-1.527.253-3.302.282-4.722-.407-1.166-.565-2.594-.318-3.284.861-.616,1.053-.31,2.716.861,3.284,3.672,1.78,8.096,1.439,11.807-.093s6.674-4.673,8.75-8.049c2.035-3.311,3.267-6.876,3.658-10.747.356-3.518-.07-7.389-2.456-10.156-3.166-3.673-9.3-4.263-13.286-1.7-2.59,1.665-.186,5.822,2.423,4.145h0Z"/><path class="e" d="M262.908,71.961c.934.913,2.035,1.703,3.22,2.257.658.308,1.338.591,2.037.795.703.205,1.42.307,2.147.392.569.067,1.31-.316,1.697-.703.416-.416.73-1.099.703-1.697-.028-.621-.232-1.264-.703-1.697l-.486-.375c-.374-.217-.778-.326-1.211-.328-.057-.006-.113-.013-.17-.021l.638.086c-.834-.115-1.642-.347-2.419-.669l.573.242c-.809-.344-1.57-.781-2.27-1.313l.486.375c-.297-.231-.579-.476-.848-.739-.443-.433-1.075-.703-1.697-.703-.589,0-1.292.261-1.697.703-.871.949-.959,2.456,0,3.394h0Z"/><path class="e" d="M277.872,85.763c-.237,2.048-.417,4.104-.409,6.168.007,1.967-.037,4.369,1.105,6.066,1.333,1.98,3.815,2.699,6.086,2.283,1.967-.36,3.523-1.857,4.317-3.641.509-1.144.371-2.633-.861-3.284-1.045-.552-2.739-.364-3.284.861-.124.278-.258.55-.419.81-.043.071-.088.14-.135.208.197-.242.239-.295.126-.159-.093.099-.19.198-.279.301-.317.363.396-.201-.031.035-.067.037-.478.3-.165.116.301-.177-.122.032-.215.056-.082.022-.165.039-.248.053-.183.033-.111.022.214-.031-.033-.025-.465.005-.517.004-.451-.005.313.095.039.006-.134-.043-.278-.074-.415-.11-.48-.128.355.25-.048-.031-.096-.067-.361-.35-.171-.098.267.355-.192-.48-.031-.045.118.159.121.149.007-.031l.1.259s-.158-.503-.163-.524c-.038-.152-.059-.308-.096-.46-.074-.304.035.464-.001.004-.033-.423-.066-.845-.085-1.269-.038-.839-.042-1.679-.02-2.518.045-1.682.202-3.358.396-5.029.145-1.252-1.207-2.453-2.4-2.4-1.424.064-2.245,1.059-2.4,2.4h0Z"/><path class="e" d="M241.892,116.433c.18-.094.711-.323.225-.131.232-.091.464-.179.701-.257.534-.176,1.081-.314,1.633-.423.135-.027.27-.051.406-.074.051-.009.49-.08.197-.036s.151-.016.203-.022c.14-.015.281-.028.421-.04.599-.049,1.2-.069,1.801-.057.553.011,1.105.049,1.654.119-.518-.066.17.04.343.076.249.051.497.11.742.178.235.065.464.145.695.223.405.137-.088-.062.154.062.14.072.287.134.429.203.63.306,1.251.63,1.888.92,1.14.519,2.636.364,3.284-.861.556-1.053.359-2.728-.861-3.284-1.399-.637-2.738-1.436-4.223-1.867-1.319-.383-2.734-.542-4.104-.57-2.728-.056-5.573.427-8.009,1.695-1.115.581-1.54,2.231-.861,3.284.733,1.136,2.091,1.482,3.284.861h0Z"/><path class="e" d="M305.875,143.547c6.706,1.204,13.26,3.665,19.452,6.455,7.205,3.247,14.391,7.122,20.448,12.247,5.805,4.911,9.644,11.26,12.398,18.299,3.452,8.826,5.466,18.197,6.85,27.55,1.535,10.375,2.195,20.912,2.771,31.377.536,9.734.873,19.587-.177,29.299-.807,7.458-2.566,14.402-7.768,19.959-3.168,3.384-6.983,6.116-11.016,8.377-2.343,1.313-4.14,1.939-6.855,2.833-7.001,2.306-14.255,3.882-21.493,5.231s-14.576,2.459-21.936,3.008c-1.442.108-2.885.189-4.33.231-3.082.091-3.095,4.891,0,4.8,7.268-.214,14.532-1.224,21.7-2.39,7.858-1.279,15.702-2.852,23.362-5.036,3.121-.89,6.208-1.899,9.192-3.18,3.571-1.533,6.857-3.729,9.916-6.107,3.648-2.836,6.955-6.218,9.266-10.248,1.819-3.171,2.93-6.725,3.671-10.289,1.918-9.229,1.916-18.84,1.63-28.22-.335-10.975-1.062-22.009-2.269-32.923-1.113-10.065-2.817-20.143-5.87-29.816-2.528-8.011-5.994-16.159-11.736-22.425-5.435-5.931-12.6-10.344-19.694-14.003-6.987-3.604-14.386-6.691-21.997-8.706-1.4-.371-2.812-.696-4.238-.953-1.274-.229-2.587.346-2.952,1.676-.319,1.162.394,2.722,1.676,2.952h0Z"/><path class="e" d="M230.515,142.866c10.756,20.955,40.147,17.917,58.36,10.203,5.725-2.425,11.106-5.543,16.068-9.289,1.033-.78,1.57-2.071.861-3.284-.595-1.017-2.243-1.647-3.284-.861-8.206,6.196-17.567,10.683-27.624,12.894-4.835,1.063-9.782,1.57-14.733,1.483-5.104-.089-10.337-.879-14.935-3.203-4.546-2.298-8.238-5.825-10.569-10.366-1.411-2.749-5.554-.323-4.145,2.423h0Z"/><path class="e" d="M259.556,250.7c-4.507-12.954-8.164-26.206-11.589-39.481-3.826-14.833-7.287-29.761-10.459-44.746-1.44-6.804-2.818-13.621-4.111-20.455-.336-1.775-.457-3.625-1.961-4.845-1.264-1.025-2.797-1.112-4.3-.66-2.277.686-5.23,1.196-6.129,3.724-.353.993-.253,1.993-.204,3.028.058,1.215.117,2.429.177,3.644.112,2.262.227,4.524.346,6.785.243,4.586.505,9.17.795,13.753.573,9.034,1.257,18.061,2.124,27.071,1.747,18.156,4.235,36.26,7.974,54.119.465,2.219.949,4.434,1.451,6.646.683,3.011,5.312,1.737,4.629-1.276-3.845-16.941-6.535-34.118-8.421-51.382-1.9-17.39-3.036-34.853-3.927-52.32-.111-2.184-.219-4.368-.324-6.552-.023-.477.002-.987-.07-1.459-.156-1.026.132-.242-.308-.172-.325.052.427-.115.545-.152.877-.277,1.943-.45,2.759-.872.047-.024.247-.04.265-.084-.03.071-.382-.17-.403-.165-.248.058,0-.316-.086.104-.025.122.069.373.093.497.083.446.167.892.251,1.338,1.224,6.493,2.526,12.972,3.885,19.438,3.023,14.38,6.316,28.706,9.931,42.949,3.306,13.027,6.838,26.021,11.072,38.781.446,1.343.901,2.683,1.366,4.02.426,1.224,1.643,2.036,2.952,1.676,1.188-.327,2.104-1.722,1.676-2.952h0Z"/><path class="e" d="M235.985,295.781c-2.774-.036-5.519-1.271-7.942-2.516-2.892-1.486-5.702-3.123-8.414-4.917-2.444-1.617-5.256-3.251-7.263-5.416-.594-.64-.884-1.22-.421-2.088.407-.765,1.32-.733,2.037-.43,1.193.504,2.57.358,3.284-.861.588-1.006.34-2.776-.861-3.284-2.031-.858-4.251-1.261-6.284-.132-1.651.918-2.747,2.59-3.063,4.436-.765,4.477,3.182,7.057,6.391,9.314,3.555,2.5,7.16,4.872,11.003,6.912,3.552,1.886,7.423,3.729,11.534,3.782,3.09.04,3.091-4.76,0-4.8h0Z"/><path class="e" d="M257.081,262.053c-3.931-.806-7.871-1.565-11.787-2.441-3.88-.867-7.855-1.733-11.555-3.218-.426-.171.484.206-.187-.079-.295-.125-.587-.257-.882-.382-.657-.28-1.317-.551-1.99-.79-1.019-.361-2.054-.643-3.124-.8-1.76-.258-3.565-.198-5.147.709-1.444.828-2.535,2.348-2.834,3.978-.518,2.829.981,5.286,3.304,6.761,4.226,2.684,8.508,4.918,13.212,6.671,1.215.453,2.63-.505,2.952-1.676.369-1.344-.457-2.498-1.676-2.952-3.556-1.325-6.913-2.953-10.131-4.963-.952-.595-3.196-1.44-2.974-2.882.058-.377.103-.244.275-.576-.219.424-.069.098.135-.108.228-.229-.385.099.089-.066.1-.035.201-.111.296-.162.219-.118-.422.096.01.016.148-.028.851-.12.361-.09.319-.019.636-.02.955.001.524.034,1.533.285,2.278.519,1.719.54,3.327,1.362,5.026,1.957,3.419,1.197,6.976,2.015,10.507,2.801,3.858.859,7.739,1.607,11.61,2.401,1.269.26,2.593-.368,2.952-1.676.326-1.187-.401-2.691-1.676-2.952h0Z"/><path class="e" d="M223.214,259.975c-2.663-1.162-5.531-2.477-8.507-1.935s-5.141,3.682-4.891,6.644c.275,3.258,2.864,5.674,5.511,7.277,2.227,1.349,4.5,2.634,6.766,3.916,2.843,1.608,5.714,3.185,8.686,4.544,1.178.539,2.584.336,3.284-.861.604-1.032.323-2.742-.861-3.284-5.356-2.45-10.563-5.445-15.575-8.535-1.092-.673-2.176-1.546-2.753-2.556-.154-.269-.126-.197-.252-.634-.103-.357-.102.006-.029-.382.009-.298.016-.349.02-.154.116-.261.132-.341.048-.238.084-.176.177-.346.28-.511.167-.252.195-.293.082-.124.105-.116.217-.225.337-.327-.186.148-.165.146.064-.005.251-.127.259-.131.025-.014.139-.044.281-.08.424-.108-.489.102.144.007.266.007.159.001.318.009.477.023-.23-.04-.195-.035.105.017,1.415.284,2.771.82,4.07,1.387,1.187.518,2.576.349,3.284-.861.594-1.016.333-2.763-.861-3.284h0Z"/><path class="e" d="M229.123,283.788c-4.155-2.273-8.335-4.517-12.26-7.177-.888-.602-1.767-1.219-2.641-1.841-.266-.189-.53-.373-.804-.549-.246-.169-.286-.194-.12-.076-.119-.103-.233-.213-.34-.328-.187-.216-.202-.228-.043-.037-.08-.118-.153-.239-.22-.365-.123-.251-.124-.248-.003.011-.043-.125-.079-.252-.109-.381-.053-.276-.053-.254,0,.067-.009-.125-.011-.25-.007-.376.021-.277.012-.247-.025.09.022-.118.051-.235.086-.35.089-.253.072-.226-.049.08.051-.104.107-.205.169-.303.157-.278.164-.214.432-.54.218-.191.231-.213.039-.069.117-.083.24-.158.367-.226-.495.29.606-.07-.031-.019.14-.011.28-.014.42-.007-.279-.054-.274-.053.016.002.094.026.836.28.581.165,1.181.532,2.581.34,3.284-.861.601-1.027.327-2.748-.861-3.284-1.439-.649-2.905-1.032-4.483-.668-1.407.324-2.549,1.267-3.407,2.388-1.62,2.116-1.801,5.035-.215,7.246.848,1.182,2.015,1.905,3.181,2.732.808.573,1.621,1.141,2.442,1.697,1.506,1.018,3.046,1.983,4.615,2.902,2.493,1.459,5.033,2.836,7.567,4.222,1.137.622,2.617.28,3.284-.861.642-1.097.28-2.66-.861-3.284h0Z"/><path class="f" d="M314.226,142.407c-1.684-.496-3.478.372-4.11,2.01-6.314,16.364-22.749,78.6-40.028,107.234-1.349,2.235-3.403,3.855-5.189,5.759-10.853,11.568-26.597,25.79-30.084,35.453-.939,2.602-1.687,6.804.042,8.56,5.254,5.333,17.111,8.111,26.222,7.889,5.284-.129,11.653-1.58,14.961-.635,14.817,4.232,28.242,4.438,41.261,1.191,10.382-3.095,7.652-22.593,8.514-44.141.397-5.919.153-31.104.069-36.022-.429-25.177-.96-54.538-1.987-80.149-.104-2.599-1.85-4.842-4.345-5.577l-5.328-1.57Z"/><path class="e" d="M314.864,140.093c-2.284-.549-4.647.107-6.125,1.984-.766.974-1.134,2.195-1.553,3.349-.693,1.912-1.34,3.841-1.976,5.773-1.722,5.232-3.357,10.492-5.008,15.747-4.371,13.911-8.79,27.812-13.717,41.538-4.719,13.148-9.75,26.365-16.537,38.608-.751,1.355-1.48,2.772-2.381,4.033-1.222,1.711-2.923,3.069-4.365,4.587-2.993,3.15-6.031,6.253-9.076,9.353-5.949,6.057-12.013,12.128-17.035,18.999-1.901,2.601-3.646,5.378-4.69,8.445-1.2,3.523-1.827,8.212,1.171,11.01,5.79,5.403,14.627,7.34,22.271,8.013,4.33.382,8.547-.038,12.854-.481,1.947-.2,4.013-.482,5.968-.225,1.898.25,4.338,1.145,6.406,1.602,9.773,2.16,19.776,2.659,29.683,1.184,3.578-.533,7.719-.936,10.674-3.215,2.252-1.737,3.621-4.253,4.509-6.914,1.081-3.239,1.455-6.725,1.702-10.113.303-4.158.323-8.334.345-12.501.036-6.871.297-13.728.398-20.595.092-6.285.061-12.573.02-18.859-.097-15.124-.424-30.246-.748-45.366-.216-10.081-.466-20.162-.781-30.241-.151-4.838-.318-9.675-.506-14.511-.088-2.25-.22-4.404-1.572-6.305-1.165-1.637-2.748-2.735-4.657-3.344-1.745-.557-3.518-1.037-5.274-1.554-2.969-.875-4.237,3.756-1.276,4.629,1.754.517,3.544.966,5.274,1.554,1.164.396,2.064,1.188,2.457,2.377.278.84.214,1.768.248,2.643.049,1.246.096,2.492.141,3.737.352,9.573.627,19.149.863,28.725.41,16.61.782,33.226.964,49.84.117,10.67.414,21.406-.116,32.067-.426,8.588-.013,17.198-.462,25.785-.169,3.228-.428,6.37-1.268,9.486-.182.673-.393,1.337-.637,1.99-.18.48-.297.739-.661,1.392-.605,1.087-.868,1.5-1.95,2.365.339-.271-.165.102-.283.176-.241.152-.49.282-.741.415-.454.24.047.021-.328.138-.488.152-.977.275-1.476.393-2.202.517-4.429.944-6.669,1.255-4.492.623-9.063.771-13.59.538-4.783-.246-9.517-.972-14.178-2.066-2.212-.52-4.392-1.319-6.665-1.52-1.864-.165-3.757.03-5.612.218-4.183.423-8.291.873-12.499.548-3.859-.298-7.702-1.064-11.372-2.299-2.869-.965-6.488-2.359-8.474-4.755.075.09-.136-.249-.176-.367-.086-.253-.118-.505-.141-.731-.087-.86.017-1.755.187-2.599.302-1.5.77-2.829,1.315-3.938,3.199-6.505,8.579-11.975,13.517-17.174,5.805-6.112,11.693-12.184,17.665-18.131,2.496-2.485,4.178-5.414,5.836-8.486,1.468-2.72,2.841-5.491,4.151-8.291,2.988-6.384,5.673-12.911,8.208-19.486,5.216-13.535,9.781-27.314,14.185-41.131,3.307-10.374,6.371-20.844,9.958-31.126.274-.786.554-1.57.844-2.351.255-.686.453-1.442,1.484-1.195,3.002.722,4.283-3.906,1.276-4.629Z"/><path class="e" d="M253.617,261.03c-.903-1.92-1.721-3.83-2.327-5.967-.023-.082-.159-.759-.113-.343l-.011-.248c.017-.333.013-.332-.013.002l.053-.186c-.128.274-.13.29-.006.049.25-.377-.12.189.03-.055.065-.073.135-.142.208-.208-.206.144-.237.167-.096.069.172-.104.347-.203.521-.304.156-.075.121-.06-.106.046.096-.034.193-.064.291-.089.097-.028.196-.051.295-.07-.273.029-.32.036-.14.022.203.015.415-.009.621,0,.3.024.344.028.132.013l.254.054c.249.076.504.133.751.217-.022-.007.72.289.405.149.984.434,1.922.988,2.848,1.531.949.556,1.881,1.139,2.796,1.749.814.543,1.609,1.291,2.47,1.743,1.111.583,2.659.321,3.284-.861.585-1.106.326-2.661-.861-3.284-.508-.266-.977-.716-1.449-1.046-.563-.393-1.134-.777-1.711-1.15-1.078-.696-2.179-1.356-3.301-1.977-2.35-1.301-5.144-2.538-7.865-1.662-2.807.903-4.609,3.409-4.086,6.38.218,1.24.727,2.45,1.175,3.621.548,1.43,1.153,2.841,1.804,4.227.536,1.139,2.262,1.52,3.284.861,1.173-.756,1.434-2.065.861-3.284h0Z"/><path class="e" d="M237.002,136.467c-.666.614-1.298,1.267-2.014,1.825l.486-.375c-.8.615-1.686,1.088-2.614,1.48l.573-.242c-.178.074-.357.146-.537.215-.6.232-1.098.529-1.434,1.103-.301.514-.429,1.273-.242,1.849.188.581.548,1.141,1.103,1.434.538.284,1.257.471,1.849.242,1.304-.504,2.582-1.069,3.7-1.918.9-.684,1.695-1.454,2.524-2.219.926-.853.929-2.542,0-3.394-.99-.909-2.407-.91-3.394,0h0Z"/></g></g></svg>