<svg id="b" xmlns="http://www.w3.org/2000/svg" width="364.179" height="312.721" viewBox="0 0 364.179 312.721" style="color: initial !important;"><defs><style>.e{fill:#f8b8b4;}.f{fill:#211715;}.g{fill:#ffffff;}.h{fill:#88c5e9;}.i{fill:#645d5c;}</style></defs><g id="c"><g id="d"><path class="g" d="M154.145,159.438c-4.637-5.592-9.275-11.183-13.912-16.775,2.824-8.204,4.335-17.281,4.335-27.045,0-38.356-29.208-70.653-71.095-70.653S2.383,77.522,2.383,115.618c0,42.625,29.68,71.978,71.092,71.978,27.428,0,48.769-12.063,60.644-31.777,6.675,1.206,13.351,2.412,20.026,3.619Z"/><path class="i" d="M315.53,155.96c9.6-4.364,9.833-10.976,9.955-14.946.205-5.659-.557-10.067-2.245-15.601-2.074-6.906-5.873-20.913-5.157-45.646.647-4.734.751-10.886.71-15.65-.021-2.436-.075-4.498-.123-5.849-.519-16.151-9.513-34.865-21.395-42.264-14.313-11.585-27.274-14.224-40.198-13.467-18.341,1.075-33.037,8.291-42.827,20.025-5.652,6.774-9.673,16.584-11.169,25.307-1.387,8.09-1.309,20.247.807,30.413,1.676,19.392-4.188,39.812-2.867,55.68.405,5.043,2.874,11.124,9.817,15.97l104.691,6.028Z"/><path class="f" d="M300.53,21.569c7.427,7.122,12.142,17.013,14.431,26.951,1.151,4.999,1.375,10.004,1.429,15.115.029,2.773.011,5.547-.092,8.319s-.486,5.534-.626,8.304c-.527,10.369.207,21.01,1.881,31.251.525,3.212,1.18,6.404,1.983,9.558s1.857,6.224,2.583,9.387,1.051,6.376.993,9.629c-.015.861-.04,1.724-.098,2.584-.027.406-.063.812-.113,1.216.065-.525-.106.585-.142.758-.375,1.805-.908,3.133-1.981,4.538-1.65,2.16-4.032,3.583-6.458,4.709-1.176.546-1.471,2.24-.861,3.284.705,1.206,2.104,1.409,3.284.861,4.46-2.071,8.258-5.294,10.026-9.976,1.317-3.487,1.292-7.642,1.078-11.304-.457-7.799-3.49-15.151-4.992-22.775-1.873-9.514-2.495-19.255-2.457-28.974.024-6.057.772-12.064.802-18.13.027-5.395-.021-10.806-.915-16.14-2-11.929-7.556-24.117-16.361-32.559-2.23-2.138-5.629,1.251-3.394,3.394h0Z"/><path class="g" d="M297.124,77.288c-2.896-.648-6.39-1.429-6.39-1.429-6.07-3.214-12.651-12.959-15.086-18.612-1.551-3.599-3.915-9.874-5.455-15.296-8.323,9.05-20.603,15.889-33.763,19.602-1.381.39-2.753-.702-2.634-2.132.228-2.726.709-5.351,1.562-7.858.148-.435-.367-.79-.722-.499-8.551,7.001-17.789,14.288-26.402,20.193-.941.649-2.076,1.343-2.797,1.829l-1.731,1.167c.025.198.051.397.051.397.986,7.692,1.634,15.389,2.385,22.471.056.525.116,1.048.18,1.568,1.448,11.655,5.192,22.131,13.403,28.901,6.775,5.586,13.871,8.703,21.896,9.482.11,3.445-3.549,5.441-6.446,6.491-3.226,1.487-8.689,3.397-13.029,5.037,3.529,5.57,8.892,9.155,14.782,11.481,6.026,2.36,12.176,3.157,18.512,3.093,17.375-.176,35.303-5.974,47.653-19.232-5.703-2.026-14.811-3.339-16.876-8.087-.76-1.748-1.14-3.633-1.515-5.501-.479-2.388-.958-4.775-1.436-7.163,3.705-3.546,6.577-7.187,9.223-11.074,0,0,2.23-3.415,3.175-5.367,0,0,.244-.504.515-1.056,2.992.14,6.088-.915,7.362-1.676,4.347-2.612,6.399-6.351,7.745-9.049,1.911-3.816,2.784-10.242,1.098-13.998-.565-1.256-1.973-3.452-5.829-4.052-1.772-.276-3.92,0-5.634,1.218l-3.798-.849Z"/><path class="f" d="M201.118,74.832c1.517,11.458.18,23.007-1.135,34.414-.625,5.423-1.269,10.855-1.485,16.313-.174,4.374-.282,9.046,1.027,13.273,1.706,5.508,5.457,9.877,10.104,13.172,1.058.75,2.67.188,3.284-.861.704-1.203.199-2.532-.861-3.284-3.501-2.483-6.457-5.885-7.805-10.012-1.263-3.866-1.115-8.094-.949-12.289.423-10.668,2.327-21.218,3.021-31.867.41-6.286.427-12.606-.401-18.86-.17-1.285-.981-2.4-2.4-2.4-1.165,0-2.571,1.106-2.4,2.4h0Z"/><path class="f" d="M238.726,116.895c.206-.111.419-.206.627-.312-.469.239.1-.032.291-.098.533-.184,1.078-.329,1.629-.446.271-.057.545-.095.816-.151.363-.075-.384.038-.013-.002.14-.015.281-.032.421-.046.599-.058,1.2-.086,1.802-.082.556.004,1.103.057,1.657.096-.512-.035.165.027.347.062.25.048.499.103.746.168.235.062.469.133.699.214.05.018.579.235.34.129-.204-.09.214.103.251.121.635.297,1.261.613,1.903.895,1.147.503,2.631.375,3.284-.861.549-1.04.367-2.745-.861-3.284-1.407-.617-2.759-1.407-4.249-1.817-1.326-.364-2.742-.513-4.115-.522-2.726-.018-5.579.489-7.996,1.792-1.107.596-1.547,2.22-.861,3.284.724,1.124,2.1,1.499,3.284.861h0Z"/><path class="f" d="M253.215,87.085c-.668-2.509.049-8.192,4.764-8.497,6.206.276,6.272,7.184,4.058,10.345-1.813,2.588-6.886,3.499-8.821-1.848Z"/><path class="f" d="M216.316,86.826c-.61-2.516.05-8.219,4.368-8.527,5.683.273,5.739,7.203,3.709,10.376-1.662,2.598-6.308,3.514-8.077-1.849Z"/><path class="f" d="M235.499,92.726c-.809,1.349-1.586,2.724-2.274,4.139-.365.751-.644,1.423-.696,2.262-.06.972.38,1.926,1.097,2.57.599.538,1.277.972,2.063,1.178.499.131,1.021.143,1.531.208l-.638-.086.06.009c.663.1,1.248.11,1.849-.242.498-.291.973-.862,1.103-1.434.14-.614.11-1.304-.242-1.849-.315-.489-.832-1.012-1.434-1.103-.432-.065-.864-.101-1.296-.158l.638.086c-.212-.033-.413-.086-.611-.167l.573.242c-.182-.083-.348-.184-.509-.303l.486.375c-.152-.121-.297-.249-.423-.397l.375.486c-.035-.047-.065-.097-.088-.151l.242.573c-.031-.085-.05-.16-.063-.25l.086.638c-.005-.093-.003-.178.006-.271l-.086.638c.036-.229.106-.441.195-.655l-.242.573c.692-1.55,1.57-3.036,2.442-4.49.646-1.078.276-2.683-.861-3.284-1.161-.614-2.594-.289-3.284.861h0Z"/><path class="f" d="M281.832,127.689c3.893-3.277,7.312-6.993,10.369-11.055,2.049-2.722,4.027-5.611,5.536-8.673.572-1.162.313-2.597-.861-3.284-1.058-.619-2.709-.306-3.284.861-3.543,7.192-9.061,13.628-15.155,18.757-.992.835-.861,2.533,0,3.394.983.983,2.399.837,3.394,0h0Z"/><path class="f" d="M294.047,10.589c-8.715-6.021-18.612-9.786-29.216-10.455-9.528-.601-19.484.829-28.43,4.17-8.31,3.104-15.945,7.944-21.998,14.462-6.84,7.365-11.281,16.915-13.304,26.72-2.266,10.98-1.747,22.912.562,33.836.638,3.021,5.266,1.742,4.629-1.276-1.927-9.12-2.418-18.966-1.101-28.211,1.29-9.061,4.869-18.49,10.761-25.576,11.08-13.326,28.252-19.487,45.284-19.441,11.087.03,21.305,3.638,30.391,9.916,1.067.737,2.664.198,3.284-.861.697-1.192.208-2.545-.861-3.284h0Z"/><path class="f" d="M268.768,129.314c-12.044,5.479-26.257,8.094-38.654,2.151-5.734-2.749-11.091-6.787-14.588-12.159-3.516-5.401-5.361-11.669-6.413-17.98-.694-4.159-.998-8.385-1.412-12.578-.465-4.705-.946-9.408-1.543-14.099-.164-1.286-.986-2.4-2.4-2.4-1.17,0-2.565,1.105-2.4,2.4,1.09,8.564,1.612,17.2,2.792,25.75.963,6.977,2.84,13.99,6.46,20.088,7.268,12.243,21.692,19.359,35.726,19.175,8.712-.115,16.978-2.621,24.855-6.204,1.18-.537,1.468-2.246.861-3.284-.709-1.213-2.099-1.4-3.284-.861h0Z"/><path class="f" d="M302.134,80.21c2.356-1.562,5.573-1.161,7.417.716.082.083.16.176.232.267-.027-.034-.192-.263-.048-.046.126.191.248.384.357.585.214.397.323.757.444,1.204.389,1.447.402,2.964.297,4.451-.392,5.578-3.561,11.705-8.501,14.558-1.994,1.152-5.817,2.03-8.305.866-1.173-.549-2.588-.329-3.284.861-.608,1.04-.319,2.732.861,3.284,3.842,1.796,8.347,1.301,12.154-.375,3.537-1.556,6.373-4.753,8.317-8.018,1.989-3.34,3.19-6.924,3.528-10.804.304-3.495-.143-7.43-2.576-10.14-3.24-3.607-9.333-4.196-13.315-1.555-2.563,1.699-.162,5.858,2.423,4.145h0Z"/><path class="f" d="M267.964,42.893c1.964,6.753,4.271,13.788,7.837,19.889,3.331,5.699,7.798,11.927,13.722,15.15,2.714,1.476,5.14-2.667,2.423-4.145-2.612-1.421-4.729-3.584-6.648-5.823-2.091-2.44-3.919-5.115-5.522-7.898-3.268-5.674-5.358-12.176-7.183-18.449-.861-2.96-5.494-1.701-4.629,1.276h0Z"/><path class="f" d="M268.481,40.27c-7.52,8.109-17.416,13.823-27.805,17.433-1.209.42-2.428.813-3.654,1.179-.214.064-1.633.4-.995.397-.044,0,.065.219.169.142.145-.107.116-1.191.136-1.354.173-1.408.454-2.808.826-4.177.415-1.529,1.14-3.141-.19-4.471-1.377-1.377-3.071-.82-4.39.244-1.345,1.086-2.68,2.185-4.027,3.27-2.474,1.994-4.963,3.971-7.472,5.921-5.477,4.256-11.074,8.324-16.852,12.159-2.562,1.701-.161,5.86,2.423,4.145,5.025-3.335,9.911-6.839,14.703-10.503,2.497-1.909,4.974-3.843,7.434-5.799,1.241-.987,2.479-1.979,3.712-2.976.613-.495,1.225-.991,1.836-1.488.52-.423,1.134-1.086,1.739-1.358l-1.211.328.225.026-1.211-.328.184.127-.861-.861.104.2-.328-1.211c-.042.661-.549,1.66-.714,2.37-.218.941-.39,1.892-.527,2.849-.296,2.056-.758,4.291.787,5.985,1.388,1.521,3.27,1.72,5.163,1.171,1.844-.535,3.669-1.131,5.473-1.788,6.975-2.541,13.692-5.911,19.693-10.299,3.244-2.371,6.291-4.992,9.025-7.94,2.098-2.263-1.288-5.665-3.394-3.394h0Z"/><path class="f" d="M281.027,124.196c.699,3.488,1.2,7.101,2.23,10.508.834,2.758,2.233,4.789,4.674,6.346,4.314,2.75,9.623,3.508,14.387,5.156,1.225.424,2.625-.484,2.952-1.676.363-1.32-.447-2.527-1.676-2.952-4.288-1.483-9.104-2.23-12.83-4.422-.206-.121-.41-.247-.609-.38-.063-.042-.582-.418-.26-.167-.401-.313-.768-.671-1.099-1.056.32.372-.08-.124-.119-.186-.11-.173-.212-.353-.3-.539-.259-.549-.513-1.441-.697-2.134-.852-3.207-1.371-6.523-2.023-9.775-.255-1.271-1.766-2.002-2.952-1.676-1.325.364-1.932,1.677-1.676,2.952h0Z"/><path class="f" d="M259.011,71.788c.948.893,2.045,1.663,3.237,2.193.664.295,1.335.574,2.037.764s1.422.291,2.142.362c.577.057,1.303-.309,1.697-.703.416-.416.73-1.099.703-1.697-.028-.621-.232-1.264-.703-1.697-.495-.454-1.03-.637-1.697-.703-.113-.011-.227-.024-.34-.039l.638.086c-.832-.117-1.64-.347-2.416-.668l.573.242c-.805-.341-1.562-.775-2.257-1.305l.486.375c-.245-.191-.481-.392-.707-.605-.457-.43-1.063-.703-1.697-.703-.589,0-1.292.261-1.697.703-.42.457-.732,1.058-.703,1.697.028.625.235,1.256.703,1.697h0Z"/><path class="f" d="M274.158,85.193c-.197,2.039-.338,4.085-.291,6.134.044,1.947.046,4.268,1.148,5.958,1.303,2,3.793,2.679,6.045,2.286,1.987-.347,3.568-1.877,4.334-3.691.262-.621.429-1.169.242-1.849-.153-.557-.584-1.16-1.103-1.434-1.027-.542-2.762-.374-3.284.861-.128.304-.269.601-.442.883-.044.071-.331.441-.093.159.241-.286-.077.071-.132.126-.057.058-.117.114-.18.166-.134.115-.081.074.16-.124,0,0-.442.251-.441.248.035-.126.463-.158-.007-.04-.448.113-.08-.064.054.014-.048-.028-.45.013-.513.014-.532.01.47.143-.042.002-.135-.037-.274-.083-.411-.113-.258-.056.385.245.031.009-.098-.053-.193-.111-.285-.174l.223.171c-.063-.054-.123-.112-.179-.173-.124-.134-.082-.075.124.177,0,0-.313-.521-.096-.135.181.322-.045-.177-.071-.274-.038-.141-.071-.283-.099-.426-.017-.085-.032-.171-.046-.256-.03-.187-.021-.113.027.222-.067-.016-.094-1.066-.097-1.122-.056-.833-.079-1.668-.075-2.503.009-1.71.135-3.415.3-5.116.121-1.253-1.19-2.454-2.4-2.4-1.404.063-2.27,1.057-2.4,2.4h0Z"/><path class="f" d="M239.222,137.067c0,.738-.193,1.224-.664,1.755-.629.71-1.35,1.165-2.215,1.626-1.672.891-3.471,1.546-5.257,2.249-4.278,1.683-8.647,3.135-12.897,4.892-1.197.495-2.05,1.592-1.676,2.952.311,1.132,1.747,2.175,2.952,1.676,4.727-1.954,9.604-3.524,14.335-5.469,2.163-.889,4.219-1.52,6.239-2.927,2.304-1.605,3.987-3.845,3.983-6.754-.004-3.088-4.804-3.094-4.8,0h0Z"/><path class="e" d="M228.229,296.611c-10.986-2.527-18.663-4.01-30.843-6.536-19.556-4.056-30.195-14.531-30.195-14.531,3.013-24.363,8.6-61.901,13.27-86.102,1.655-8.576,5.402-16.45,11.902-23.618,8.09-8.922,15.939-12.163,29.262-18.083,3.511,6.063,9.117,9.895,15.305,12.339,6.026,2.36,12.176,3.157,18.512,3.093,17.696-.18,35.967-6.191,48.33-19.971,12.073,2.449,29.02,12.279,35.913,20.878,13.927,17.375,17.847,39.556,20.184,60.275,2.417,21.429,3.358,47.485-2.799,60.724-2.871,6.173-6.6,9.79-13.511,13.867-9.685,5.714-29.304,8.586-43.979,7.259,0,0-53.205-5.421-71.35-9.594Z"/><path class="f" d="M301.73,145.255c6.865,1.131,13.416,4.05,19.451,7.424,5.877,3.286,11.752,7.203,16.178,12.345,5.105,5.931,8.921,13.19,11.719,20.462,2.927,7.611,4.858,15.57,6.259,23.592,1.367,7.826,2.279,15.739,2.97,23.652.727,8.327,1.155,16.698.976,25.058-.277,12.91-1.306,28.094-12.609,36.283-5.617,4.069-11.824,6.355-18.562,7.831-7.52,1.648-15.276,2.363-22.971,2.204-1.857-.038-3.712-.138-5.563-.301-1.293-.114-2.4,1.184-2.4,2.4,0,1.393,1.103,2.286,2.4,2.4,8.095.711,16.288.217,24.305-1.044,7.045-1.108,14.406-2.82,20.648-6.404,6.462-3.711,11.863-8.574,14.891-15.493,2.853-6.517,3.825-13.736,4.336-20.777,1.224-16.849-.39-34.009-2.781-50.69-2.392-16.689-6.677-33.623-16.455-47.631-2.101-3.01-4.375-5.849-7.101-8.315-2.773-2.51-5.809-4.748-8.945-6.782-6.378-4.135-13.397-7.641-20.716-9.755-1.564-.452-3.148-.823-4.755-1.088-1.277-.211-2.583.334-2.952,1.676-.315,1.148.39,2.74,1.676,2.952h0Z"/><path class="f" d="M222.463,144.756c-8.644,3.862-17.646,7.363-25.183,13.221-8.057,6.263-14.31,14.925-17.521,24.622-1.493,4.509-2.206,9.247-3.05,13.909-.872,4.815-1.702,9.638-2.505,14.465-1.76,10.57-3.397,21.16-4.947,31.762-1.597,10.921-3.109,21.856-4.465,32.809-.16,1.289,1.217,2.4,2.4,2.4,1.43,0,2.24-1.108,2.4-2.4,2.442-19.715,5.332-39.381,8.531-58.987,1.526-9.349,2.897-18.809,4.982-28.053,2.22-9.842,7.651-18.547,15.212-25.191,7.613-6.69,17.439-10.334,26.569-14.413,1.184-.529,1.465-2.252.861-3.284-.713-1.219-2.096-1.392-3.284-.861h0Z"/><path class="f" d="M219.857,149.464c7.116,11.437,21.112,15.926,33.966,16.106,12.025.168,24.254-2.383,34.972-7.902,6.087-3.135,11.649-7.319,16.296-12.352,2.093-2.267-1.293-5.67-3.394-3.394-7.615,8.248-17.595,13.723-28.412,16.53-11.249,2.919-24.018,3.673-35.055-.434-5.727-2.132-10.965-5.734-14.228-10.978-1.629-2.617-5.783-.21-4.145,2.423h0Z"/><path class="h" d="M80.322,112.533c.434-.758.794-1.4.905-1.624-.261-.607-1.327-2.584-2.005-3.792h17.349c.36-4.773,4.201-8.982,8.89-9.956,4.343-.911,9.222,1.215,11.305,5.162,1.137,2.161,1.313,4.773.643,7.111-.339,1.2-.904,2.337-1.681,3.305-.642.797-1.103,1.462-1.324,1.786l-.282.413c1.38.801,2.381,2.399,2.749,3.478.861,2.493.777,5.331-.353,7.725-.607,1.292-1.497,2.464-2.662,3.29-1.405,1.003-3.135,1.455-4.858,1.624-2.888.29-5.924-.198-8.382-1.772-1.342-.869-2.478-2.076-3.241-3.488-.36-.671-.635-1.384-.805-2.125-.106-.452-.007-1.617-.332-1.963-1.38.016-9.921-.184-13.169-.184-1.476-2.076-2.839-4.286-4.357-6.214.429-.729,1.075-1.841,1.609-2.775Z"/><path class="h" d="M37.969,140.355c-1.718.497-3.837-.258-4.909-.976-2.197-1.459-3.851-3.767-4.405-6.356-.301-1.396-.305-2.867.12-4.231.509-1.649,1.61-3.058,2.877-4.238,2.12-1.982,4.83-3.436,7.739-3.675,1.593-.123,3.23.147,4.693.807.693.315,1.345.715,1.929,1.201.358.295.986,1.281,1.455,1.359,1.087-.85,8.252-6.114,10.834-8.084,1.256.583,3.278,1.562,3.845,1.902.093.551.393,3.513.535,5.038,2.359.675,4.757,1.626,7.169,2.446-2.313,1.765-10.52,7.982-13.793,10.479,2.609,4.013,2.108,9.689-1.029,13.308-2.9,3.358-8.068,4.628-12.119,2.754-2.214-1.028-3.94-2.998-4.824-5.263-.459-1.16-.699-2.406-.668-3.647.027-1.023-.01-1.831-.031-2.222"/><path class="h" d="M63.43,101.657c-2.446-2.588-4.796-5.267-7.248-7.849-1.128-1.188-2.927-.748-3.769.486-.962,1.41-1.804,2.898-2.738,4.327l3.769-.486c-2.44-2.772-4.854-5.567-7.292-8.342-.856-.974-2.519-.875-3.394,0-.967.967-.858,2.417,0,3.394,2.437,2.775,4.852,5.569,7.292,8.342,1.072,1.219,2.975.729,3.769-.486.934-1.429,1.776-2.916,2.738-4.327l-3.769.486c2.452,2.583,4.801,5.261,7.248,7.849.891.942,2.496.898,3.394,0,.94-.94.893-2.449,0-3.394h0Z"/><path class="h" d="M73.427,101.734c-.2-4.561.165-9.132-.045-13.692-.071-1.551-1.477-2.735-3.038-2.314-1.648.445-3.259,1.018-4.898,1.494l3.038,2.314c-.052-3.979-.259-7.953-.306-11.932-.037-3.087-4.837-3.095-4.8,0,.047,3.979.255,7.953.306,11.932.02,1.537,1.52,2.755,3.038,2.314,1.639-.476,3.249-1.049,4.898-1.494l-3.038-2.314c.209,4.56-.156,9.131.045,13.692.135,3.077,4.936,3.094,4.8,0h0Z"/><path class="f" d="M155.842,157.741c-4.637-5.592-9.275-11.183-13.912-16.775l.617,2.335c5.407-15.854,6.066-33.81,1.125-49.875-4.087-13.288-11.975-25.4-22.724-34.254-11.402-9.392-25.385-14.882-40.062-16.262-15.062-1.416-30.573,1.454-43.863,8.765-12.158,6.688-22.217,17.04-28.626,29.341C1.668,93.929-.923,108.53.288,122.999c1.163,13.903,5.658,27.607,14.047,38.854,8.091,10.848,19.182,18.942,31.894,23.553,14.305,5.189,30.349,5.875,45.191,2.774s28.609-10.716,38.415-22.311c2.346-2.775,4.475-5.731,6.358-8.838l-2.71,1.103c6.675,1.206,13.351,2.412,20.026,3.619,1.274.23,2.587-.347,2.952-1.676.32-1.163-.394-2.721-1.676-2.952-6.675-1.206-13.351-2.412-20.026-3.619-1.076-.194-2.123.133-2.71,1.103-7.568,12.491-19.333,21.832-33.146,26.552-14.309,4.889-30.428,5.417-45.054,1.591-12.658-3.311-24.129-10.158-32.717-20.048-8.734-10.057-13.969-22.94-15.666-36.123-1.801-13.982-.065-28.389,6.082-41.156,5.916-12.287,15.434-22.597,27.333-29.29,12.923-7.269,28.031-9.872,42.715-8.355,13.924,1.439,27.405,7.122,37.889,16.437,10.205,9.067,17.369,21.138,20.639,34.377,1.818,7.361,2.334,14.912,1.886,22.472-.286,4.833-.988,9.624-2.141,14.327-.547,2.23-1.445,4.404-1.948,6.633-.365,1.619.942,2.727,1.882,3.86.896,1.08,1.792,2.16,2.688,3.241,3.32,4.003,6.64,8.006,9.96,12.009.828.998,2.538.857,3.394,0,.988-.988.83-2.393,0-3.394Z"/><path class="g" d="M230.62,258.886c4.571,1.384,10.804,2.679,15.642,3.654-.363-.762-.59-1.24-.59-1.24-.917-1.936-1.712-3.929-2.38-5.964-.205-.625-.4-1.272-.345-1.927.138-1.628,1.84-2.77,3.472-2.834s3.18.676,4.613,1.461c.329.18.652.371.978.558l-.732-2.023c-9.611-27.574-20.35-73.963-26.204-105.481-.204-1.098-1.32-1.767-2.384-1.43l-3.645,1.152c-.828.262-1.371,1.041-1.33,1.909,1.778,37.667,4.279,74.286,12.646,111.04l.259,1.125Z"/><path class="f" d="M253.592,249.933c-4.433-12.742-8.031-25.775-11.399-38.833-3.764-14.59-7.169-29.274-10.29-44.015-1.417-6.694-2.773-13.401-4.045-20.123-.335-1.768-.453-3.616-1.952-4.831-1.234-1.001-2.747-1.111-4.223-.669-2.303.69-5.342,1.223-6.154,3.849-.586,1.893-.077,4.319.019,6.275.111,2.264.227,4.529.346,6.792.239,4.51.496,9.019.782,13.526.563,8.883,1.235,17.76,2.087,26.62,1.717,17.855,4.162,35.659,7.831,53.223.464,2.222.949,4.439,1.452,6.653.683,3.011,5.312,1.737,4.629-1.276-3.796-16.723-6.447-33.68-8.305-50.723s-2.966-34.089-3.839-51.173c-.112-2.186-.219-4.373-.324-6.559-.023-.487-.039-.974-.07-1.46-.045-.73.103-.358-.191-.209-.609.31.186-.015.351-.067.85-.269,2.039-.425,2.799-.885.537-.325-.536-.142-.319-.348-.163.155.315,1.811.357,2.032,1.203,6.382,2.483,12.75,3.819,19.106,2.971,14.134,6.208,28.215,9.761,42.215,3.25,12.808,6.722,25.584,10.881,38.13.446,1.346.902,2.688,1.368,4.027.426,1.224,1.643,2.036,2.952,1.676,1.188-.327,2.104-1.722,1.676-2.952h0Z"/><path class="g" d="M229.21,291.434c3.398-9.417,18.622-23.232,29.29-34.555l-.873-.607c-2.096-1.564-4.301-2.98-6.595-4.237-1.433-.785-2.98-1.525-4.613-1.461s-3.334,1.207-3.472,2.834c-.055.655.14,1.303.345,1.927.668,2.035,1.463,4.028,2.38,5.964,0,0,.226.478.59,1.24-6.42-1.293-15.301-3.152-19.488-5.032-6.107-2.743-8.501-1.899-9.719-.183-.788,1.111-.815,2.65.043,4.003-3.926-1.734-7.762-3.341-9.623.02-1.636,2.953.807,5.612,3.44,7.287-.275-.131-.429-.204-.429-.204-2.037-.966-3.72-.529-5.026,1.53-.939,1.482-.665,3.931,1.724,5.304.963.689,1.812,1.288,2.607,1.831-1.965-.862-3.862-.536-4.959,1.058-.712,1.034-1,2.928-.321,3.984,1.293,2.012,3.585,3.403,5.472,4.758,4.742,3.407,8.913,5.82,13.731,8.148,1.293.489,2.949,1.066,4.519,1.383.02-1.699.469-3.584.977-4.994Z"/><path class="f" d="M230.361,294.268c-2.722-.035-5.417-1.248-7.796-2.47-2.846-1.462-5.611-3.073-8.28-4.839-2.403-1.59-5.165-3.196-7.14-5.324-.57-.614-.867-1.171-.406-2.013.397-.725,1.259-.697,1.95-.405,1.193.504,2.57.358,3.284-.861.588-1.006.34-2.776-.861-3.284-2.011-.85-4.21-1.249-6.223-.13-1.633.908-2.719,2.562-3.031,4.388-.758,4.426,3.133,6.977,6.307,9.209,3.499,2.46,7.045,4.795,10.827,6.802,3.502,1.859,7.317,3.674,11.369,3.727,3.09.04,3.091-4.76,0-4.8h0Z"/><path class="f" d="M251.131,261.079c-3.866-.793-7.741-1.54-11.593-2.4s-7.811-1.718-11.482-3.21c.093.038.358.151-.071-.032-.29-.124-.578-.253-.867-.376-.65-.277-1.302-.545-1.968-.781-1.003-.355-2.021-.633-3.074-.788-1.705-.251-3.482-.209-5.022.662-4.135,2.337-3.661,8.106.139,10.515,4.251,2.696,8.53,4.964,13.262,6.728,1.215.453,2.63-.505,2.952-1.676.369-1.344-.457-2.498-1.676-2.952-3.521-1.313-6.842-2.929-10.027-4.921-.919-.575-3.044-1.378-2.841-2.761.029-.201.158-.343.265-.548-.278.529-.01.085.127-.098.175-.234-.377.154.149-.101.518-.251-.185-.065.312-.122.169-.019.719-.091.255-.063.314-.019.626-.019.94.001.282.018.294.019.753.115.5.105.992.241,1.479.394,1.701.534,3.292,1.348,4.974,1.935,3.359,1.173,6.852,1.977,10.321,2.749,3.794.844,7.609,1.58,11.416,2.361,1.269.26,2.593-.368,2.952-1.676.326-1.187-.401-2.691-1.676-2.952h0Z"/><path class="f" d="M217.812,259.037c-2.631-1.148-5.461-2.444-8.401-1.908s-5.088,3.644-4.841,6.575c.271,3.22,2.825,5.61,5.442,7.194,2.192,1.327,4.428,2.592,6.658,3.853,2.798,1.583,5.623,3.134,8.548,4.472,1.178.539,2.584.336,3.284-.861.604-1.032.323-2.742-.861-3.284-5.271-2.411-10.395-5.358-15.327-8.399-1.075-.663-2.132-1.52-2.695-2.502-.127-.268-.157-.312-.091-.13-.06-.159-.111-.32-.152-.485l-.053-.247c.037.22.046.18.026-.119.011-.296.017-.343.018-.141.11-.264.125-.339.044-.225.058-.11.543-.832.351-.617.103-.115.214-.222.331-.322-.191.151-.173.151.055.001.25-.126.255-.129.016-.01.137-.044.276-.079.418-.106-.498.106.125.008.252.008.157.001.313.009.469.022-.236-.041-.205-.036.093.015,1.392.283,2.743.814,3.996,1.361,1.187.518,2.576.349,3.284-.861.594-1.016.333-2.763-.861-3.284h0Z"/><path class="f" d="M223.627,282.471c-4.089-2.237-8.203-4.445-12.065-7.062-.874-.592-1.738-1.199-2.599-1.811-.261-.186-.521-.368-.791-.541-.244-.168-.281-.191-.111-.069-.117-.102-.229-.209-.335-.322-.186-.215-.198-.224-.037-.029-.079-.116-.151-.235-.217-.359-.122-.25-.122-.244,0,.02-.042-.123-.078-.248-.107-.375-.053-.275-.052-.25.002.076-.009-.123-.011-.246-.007-.37.021-.276.012-.243-.026.099.022-.116.05-.231.084-.344.088-.252.071-.223-.052.088.05-.103.105-.202.166-.298.159-.283.142-.185.42-.524.217-.19.227-.21.031-.062.116-.082.236-.156.361-.222-.496.295.59-.061-.05-.013.137-.011.275-.014.413-.007-.285-.055-.283-.054.005.001.091.025.845.285.563.158,1.181.532,2.581.34,3.284-.861.601-1.027.327-2.748-.861-3.284-1.426-.643-2.878-1.023-4.441-.662-1.392.321-2.523,1.254-3.372,2.363-1.603,2.094-1.784,4.984-.214,7.173.838,1.169,1.991,1.885,3.144,2.702.796.564,1.595,1.123,2.403,1.669,1.482,1.002,2.997,1.952,4.542,2.855,2.453,1.435,4.953,2.79,7.446,4.154,1.137.622,2.617.28,3.284-.861.642-1.097.28-2.66-.861-3.284h0Z"/><path class="g" d="M307.355,143.375c-1.657-.488-3.423.366-4.045,1.978-6.214,16.103-22.386,77.348-39.39,105.526-1.327,2.199-3.348,3.794-5.106,5.667-10.68,11.384-26.173,25.38-29.604,34.888-.924,2.561-1.661,6.695.041,8.423,5.17,5.248,16.839,7.982,25.804,7.763,5.2-.127,11.467-1.555,14.722-.625,14.581,4.165,27.792,4.368,40.604,1.172,10.217-3.046,7.53-22.233,8.378-43.438.39-5.824.15-30.609.068-35.449-.423-24.776-.945-53.669-1.955-78.872-.103-2.558-1.82-4.765-4.276-5.488l-5.243-1.545Z"/><path class="f" d="M307.993,141.061c-2.134-.513-4.409.027-5.88,1.724-.868,1.001-1.261,2.281-1.706,3.506-.669,1.844-1.295,3.704-1.909,5.567-1.706,5.174-3.323,10.377-4.955,15.574-4.266,13.576-8.577,27.142-13.374,40.542-4.646,12.974-9.597,26.01-16.256,38.106-.699,1.269-1.401,2.546-2.179,3.769-1.183,1.858-2.959,3.267-4.469,4.846-2.959,3.093-5.94,6.163-8.94,9.217-5.83,5.935-11.76,11.879-16.716,18.584-1.895,2.564-3.626,5.287-4.713,8.301-1.252,3.469-1.964,8.243.969,11.062,2.743,2.636,6.344,4.302,9.901,5.523,3.926,1.348,8.057,2.108,12.187,2.469,4.238.37,8.37-.044,12.584-.477,1.909-.196,3.932-.472,5.849-.227,1.942.248,4.363,1.147,6.453,1.606,9.606,2.109,19.433,2.586,29.167,1.129,3.656-.547,7.763-.981,10.735-3.375,2.117-1.706,3.399-4.219,4.226-6.761,1.026-3.155,1.389-6.537,1.628-9.831.296-4.088.317-8.192.338-12.289.068-12.936.495-25.849.412-38.789-.096-14.935-.418-29.868-.739-44.799-.212-9.861-.456-19.721-.764-29.58-.151-4.842-.318-9.683-.507-14.523-.085-2.164-.262-4.208-1.545-6.035-1.134-1.616-2.714-2.704-4.588-3.304-1.722-.551-3.473-1.024-5.208-1.535-2.969-.875-4.237,3.756-1.276,4.629,1.725.508,3.484.953,5.187,1.529,1.136.384,2.01,1.154,2.394,2.314.276.831.21,1.753.244,2.621.046,1.174.09,2.347.133,3.521.347,9.429.619,18.861.852,28.293.404,16.344.77,32.695.95,49.043.116,10.513.418,21.095-.109,31.6-.424,8.456-.018,16.933-.456,25.388-.165,3.179-.417,6.256-1.237,9.324-.628,2.351-1.406,4.139-3.085,5.592-.206.178.043-.027.075-.05-.111.083-.227.165-.345.24-.239.152-.482.29-.731.425-.094.051-.192.095-.289.14-.339.158.329-.119-.029.008-.451.16-.906.271-1.373.382-2.178.518-4.381.943-6.597,1.257-4.408.623-8.894.779-13.337.559-4.732-.234-9.414-.94-14.025-2.018-2.176-.509-4.321-1.293-6.553-1.51-1.873-.183-3.781.017-5.646.206-4.091.414-8.11.855-12.226.543-3.835-.291-7.653-1.052-11.297-2.284-1.651-.558-3.25-1.231-4.773-2.084-1.165-.653-2.714-1.552-3.478-2.535-.6-.771-.334-2.728-.084-3.88.173-.799.401-1.586.684-2.353.217-.588.332-.831.691-1.538,3.223-6.351,8.478-11.7,13.338-16.808,5.751-6.044,11.612-12.002,17.481-17.931,2.418-2.443,4.035-5.4,5.645-8.402,1.442-2.691,2.792-5.431,4.081-8.198,2.91-6.249,5.531-12.634,8.006-19.067,5.102-13.263,9.572-26.762,13.886-40.298,3.258-10.224,6.275-20.543,9.817-30.674.256-.733.517-1.464.788-2.191.246-.661.419-1.403,1.418-1.163,3.002.722,4.283-3.906,1.276-4.629Z"/><path class="f" d="M247.744,260.089c-.887-1.887-1.685-3.746-2.286-5.863-.025-.086-.155-.758-.109-.327l-.011-.244c.017-.331.012-.327-.014.012l.052-.183c-.13.278-.133.298-.009.057.246-.381-.138.195.024-.046.064-.072.133-.14.205-.204-.21.148-.244.172-.102.073.17-.102.342-.199.513-.299.157-.076.119-.059-.114.049.094-.034.19-.063.286-.087.096-.028.193-.05.291-.069-.279.029-.329.037-.148.023.199.015.409-.008.611,0,.299.024.339.028.12.011l.25.053c.245.076.496.131.739.214-.009-.003.714.287.389.143.968.428,1.891.972,2.803,1.507.934.547,1.851,1.121,2.752,1.721.801.534,1.583,1.27,2.431,1.715,1.111.583,2.659.321,3.284-.861.585-1.106.326-2.661-.861-3.284-.5-.262-.961-.705-1.426-1.029-.554-.387-1.116-.764-1.684-1.131-1.06-.685-2.144-1.334-3.248-1.946-2.322-1.285-5.081-2.505-7.769-1.64-2.782.896-4.567,3.38-4.048,6.326.215,1.22.715,2.411,1.156,3.563.54,1.411,1.137,2.802,1.779,4.169.536,1.139,2.262,1.52,3.284.861,1.173-.756,1.434-2.065.861-3.284h0Z"/></g></g></svg>