<svg xmlns="http://www.w3.org/2000/svg" width="278.934" height="207.843" viewBox="0 0 278.934 207.843" style="color: initial !important;"><defs><style>.a{fill:#ffffff;}.b{fill:#d9d9d9;}.c{fill:#211715;}</style></defs><path class="a" d="M188.042,129.224V40.5a4.365,4.365,0,0,1,2.205-3.813l15.14-8.742a6.164,6.164,0,0,1,6.173,0l63.168,36.47a4.377,4.377,0,0,1,2.206,3.828v88.722a4.362,4.362,0,0,1-2.206,3.813l-15.153,8.743a6.172,6.172,0,0,1-6.173,0l-63.155-36.462A4.374,4.374,0,0,1,188.042,129.224Z"/><path class="b" d="M62.051,4.166v28.9C53.873,37.779,34.3,49.078,26.123,53.8c0-8.6,0-27.091,0-31.066L62.051,1.991Z"/><path class="a" d="M27.6,52.948l-1.473.851c0-5.156,0-13.86,0-20.859l.237-.137L62.051,12.2V33.063C54.33,37.515,36.452,47.836,27.6,52.948Z"/><path class="a" d="M188.042,40.5a4.365,4.365,0,0,1,2.205-3.813l15.14-8.742a6.164,6.164,0,0,1,6.173,0l63.168,36.47a4.411,4.411,0,0,1,0,7.641L259.575,80.8a6.169,6.169,0,0,1-6.173,0L190.247,44.331A4.376,4.376,0,0,1,188.042,40.5Z"/><path class="c" d="M274.934,68.241v87.8a3.652,3.652,0,0,1-.472,2.376c-.657.869-2.032,1.375-2.957,1.908l-3.807,2.2-6.724,3.879c-1.924,1.11-3.9,2.618-6.2,1.58-.231-.1-.453-.248-.674-.374-7.144-4.067-14.241-8.221-21.36-12.332l-31.289-18.064-9.08-5.243a5.27,5.27,0,0,1-1.964-1.448,4.11,4.11,0,0,1-.365-2.3V40.5c0-2.574-4-2.578-4,0V125.7c0,3.069-.355,6.3,2.366,8.493a45.26,45.26,0,0,0,5.874,3.5l29.341,16.94,26.531,15.318c.71.41,1.416.829,2.131,1.23a8.791,8.791,0,0,0,3.8,1.151c2.744.169,4.962-1.355,7.23-2.663l6.766-3.9,3.439-1.984a16.52,16.52,0,0,0,3.518-2.27,6.967,6.967,0,0,0,1.892-5.16V68.241c0-2.574-4-2.578-4,0Z"/><path class="c" d="M190.042,40.5c.083-2.18,3.342-3.315,4.949-4.243l8.579-4.953c2.271-1.312,4.468-3.047,7.151-1.539,3.083,1.735,6.129,3.539,9.193,5.308l51.948,29.992c1.593.92,4.135,2.21,2.7,4.46-.6.949-1.937,1.427-2.886,1.974L267.7,73.8l-7.361,4.247c-1.951,1.126-3.717,2.2-5.935,1.013-2.242-1.194-4.414-2.548-6.614-3.819l-33.09-19.1c-7.765-4.482-15.6-8.859-23.3-13.453a2.51,2.51,0,0,1-1.354-2.181c-.1-2.566-4.1-2.579-4,0a7.032,7.032,0,0,0,3.937,5.983l3.937,2.272,14.849,8.574L244.4,77.9c2.642,1.526,5.258,3.114,7.933,4.58a8.5,8.5,0,0,0,5.882.952c2.651-.555,5.187-2.536,7.5-3.872q4.168-2.4,8.335-4.808a12.658,12.658,0,0,0,3.241-2.231,6.442,6.442,0,0,0,1.644-4.283c0-3.107-2.039-4.887-4.515-6.316l-6.508-3.758L254.075,50.18l-28.13-16.241-10.786-6.228c-1.94-1.12-3.787-2.368-6.087-2.562a8.766,8.766,0,0,0-5.158,1.339c-4.857,2.805-9.766,5.534-14.577,8.417a6.6,6.6,0,0,0-3.295,5.6C185.943,43.077,189.943,43.073,190.042,40.5Z"/><path class="a" d="M118.411,123.314c2.5,19.22,5.046,39.709,8.188,64.02A20.758,20.758,0,0,0,138.63,200.95c26.016,10.952,55.042.751,65.372-3.837C216.851,191.406,237,181.6,249.481,173.92A10.518,10.518,0,0,0,254.63,165V101Z"/><path class="c" d="M116.411,123.314q2.5,19.179,4.905,38.369,1.351,10.629,2.716,21.258a42.893,42.893,0,0,0,.721,5.217,20.3,20.3,0,0,0,1.459,3.719,22.372,22.372,0,0,0,5.084,6.748c4.828,4.344,11.535,6.349,17.771,7.667a75.39,75.39,0,0,0,19.31,1.45,103.471,103.471,0,0,0,31.3-6.713c9.6-3.631,18.868-8.353,28.027-12.954,5.547-2.786,11.054-5.66,16.459-8.713,4.815-2.719,10.288-5.255,11.982-10.987a17.422,17.422,0,0,0,.484-5.048V101c0-2.574-4-2.578-4,0v63.338a8.887,8.887,0,0,1-3.231,7.213,48.18,48.18,0,0,1-6.612,4q-3.838,2.183-7.742,4.246Q219.73,187.931,203.86,195a107.31,107.31,0,0,1-25.132,7.6c-12.169,2.076-24.933,1.761-36.633-2.437a23.358,23.358,0,0,1-7.97-4.368,19.36,19.36,0,0,1-4.529-6.085c-1.307-2.733-1.43-5.732-1.811-8.7q-.693-5.388-1.38-10.779-2.44-19.128-4.873-38.258-.556-4.332-1.121-8.663a2.065,2.065,0,0,0-2-2,2.012,2.012,0,0,0-2,2Z"/><path class="a" d="M254.63,99.758c0,1.675,0,2.59-2.327,4.834h0c-12.011,11.162-36.456,27.418-50.695,34.314a80.442,80.442,0,0,1-41.323,7.738l-3.225-.3c-9.952-.916-19.147-3.624-26.273-7.738s-12.233-10.128-12.83-18.384c-.468-6.486,3.807-14.5,13.567-21.875,15.033-11.359,37.533-24.71,49.444-34.943h0a12.006,12.006,0,0,1,13.824-1.29l57.511,33.2A6.318,6.318,0,0,1,254.63,99.758Z"/><path class="c" d="M252.63,99.758a2.757,2.757,0,0,1-.724,2.355,25.1,25.1,0,0,1-2.943,2.805c-2.192,1.931-4.456,3.78-6.756,5.581-5.241,4.106-10.688,7.957-16.222,11.657-5.481,3.665-11.069,7.182-16.8,10.45A99.109,99.109,0,0,1,192.3,140.58a82.42,82.42,0,0,1-42.115,2.8c-11.981-2.276-28.774-8.333-30.175-22.6-.558-5.676,2.531-10.888,6.218-14.955,4.912-5.42,11.284-9.474,17.277-13.59,11.758-8.074,23.951-15.6,35.193-24.4,2.243-1.756,4.339-4.028,7.127-4.877a10.148,10.148,0,0,1,7.979.895c1.1.617,2.183,1.261,3.275,1.891L215.363,76.3,237.99,89.367c4.328,2.5,8.6,5.175,13.016,7.516a2.862,2.862,0,0,1,.274.158c.069.046,0,0-.156-.118a3.679,3.679,0,0,1,.614.639,4.109,4.109,0,0,1,.892,2.2c.13,2.562,4.13,2.577,4,0a8.035,8.035,0,0,0-3.424-6.225c-.45-.29-.933-.539-1.4-.806l-6.725-3.883L222.72,75.932,201.6,63.74l-5.3-3.058a14.468,14.468,0,0,0-13.61-.77c-2.764,1.293-5.028,3.709-7.429,5.56-2.733,2.108-5.541,4.12-8.369,6.1-6.252,4.375-12.625,8.574-18.957,12.831-6.221,4.183-12.486,8.361-18.4,12.97-5.568,4.337-10.863,9.988-12.881,16.922-1.765,6.064-.092,12.824,3.642,17.822,4.34,5.81,10.8,9.42,17.466,11.955a80,80,0,0,0,21.266,4.457,81.889,81.889,0,0,0,23.243-1.129,84.071,84.071,0,0,0,21.573-7.374c5.618-2.814,11.037-6.03,16.359-9.365,11.42-7.157,22.792-14.9,32.783-23.986,2.174-1.977,3.636-3.9,3.64-6.917C256.633,97.184,252.633,97.18,252.63,99.758Z"/><path class="c" d="M184.364,79.645l12.8,7.39,20.427,11.794,4.723,2.727c2.234,1.289,4.25-2.166,2.019-3.454l-12.8-7.39L191.106,78.918l-4.723-2.727c-2.233-1.289-4.25,2.166-2.019,3.454Z"/><path class="c" d="M211.928,147.02c-10.262,5.525-21.074,9.948-32.581,12.067a75.164,75.164,0,0,1-30.661-.734,46.326,46.326,0,0,1-16.529-7.109,2.016,2.016,0,0,0-2.737.717,2.046,2.046,0,0,0,.718,2.737c8.639,6.249,19.412,8.367,29.812,9.315,12.009,1.1,24.092-1.111,35.4-5.127a133.526,133.526,0,0,0,18.6-8.412c2.268-1.221.25-4.675-2.018-3.454Z"/><path class="b" d="M77.081,45.661l.128.074L102,60.045V88.323L77.209,74.012s-.064-24.079-.128-24.116Z"/><path class="c" d="M100,60.045V88.323l3.009-1.727L78.218,72.285C75.985,71,73.968,74.451,76.2,75.739L100.986,90.05A2.02,2.02,0,0,0,104,88.323V60.045c0-2.573-4-2.578-4,0Z"/><path class="a" d="M54.841,80.8,81.87,65.19c1.542-.891,3.722-.82,6.289.674,5.5,3.2,8.2,9.987,8.186,14.262-.009,2.419-.765,4.319-2.245,5.173L67.071,100.905Z"/><path class="c" d="M55.851,82.522c8.92-5.15,17.8-10.379,26.762-15.451,3.328-1.884,7.4,2.38,9.044,4.917a17.352,17.352,0,0,1,2.532,6.3c.3,1.649.441,4.2-1.1,5.28-1.192.835-2.569,1.483-3.827,2.21l-8.61,4.971L66.062,99.178c-2.229,1.286-.217,4.744,2.019,3.453l13.3-7.678c4.562-2.633,9.267-5.11,13.721-7.921,4.529-2.859,3.529-9.413,1.782-13.623-2.08-5.015-6.7-10.633-12.6-10.8-2.33-.065-4.226,1.314-6.15,2.425L69.708,69.9,53.832,79.068c-2.229,1.287-.217,4.744,2.019,3.454Z"/><path class="a" d="M67.071,100.905c-1.439.83-3.559.679-6.339-.941-4.919-2.863-8.353-8.772-8.334-14.08.009-2.353.907-4.2,2.443-5.089s3.723-.82,6.289.674c5.5,3.2,8.2,9.987,8.186,14.262C69.307,98.15,68.551,100.05,67.071,100.905Z"/><path class="c" d="M66.062,99.178c-.542.292.179-.036-.168.087a3.061,3.061,0,0,1-.508.133c.211-.035-.466,0-.608-.009A6.83,6.83,0,0,1,62.4,98.6a15.215,15.215,0,0,1-8-12.576c-.007-1.346.318-3.006,1.657-3.611,1.227-.555,3.036.154,4.312.933a14.987,14.987,0,0,1,5.863,7.312,15.181,15.181,0,0,1,1.07,4.477c.072,1.426-.117,3.345-1.239,4.045-2.18,1.358-.175,4.82,2.019,3.453,3.933-2.451,3.643-7.952,2.427-11.84A19.8,19.8,0,0,0,62.872,80.2C60.72,78.759,58,77.776,55.4,78.427a6.692,6.692,0,0,0-4.638,4.757c-1.319,4.5.7,9.822,3.391,13.416,2.884,3.86,8.857,8.766,13.925,6.031C70.347,101.409,68.33,97.954,66.062,99.178Z"/><path class="a" d="M21.548,100.014,48.576,84.408c1.542-.89,3.723-.819,6.289.675,5.5,3.2,8.2,9.987,8.186,14.262-.009,2.418-.765,4.319-2.245,5.173L33.777,120.123Z"/><path class="c" d="M22.557,101.74c8.92-5.149,17.8-10.378,26.762-15.451,3.328-1.883,7.4,2.381,9.044,4.918a17.334,17.334,0,0,1,2.532,6.3c.3,1.649.441,4.2-1.1,5.28-1.191.834-2.569,1.483-3.827,2.21l-8.61,4.971L32.768,118.4c-2.229,1.287-.217,4.745,2.019,3.454l13.3-7.678c4.561-2.633,9.266-5.11,13.721-7.922,4.528-2.858,3.528-9.412,1.781-13.622-2.08-5.015-6.7-10.633-12.6-10.8-2.33-.064-4.226,1.315-6.15,2.426l-8.424,4.864L20.538,98.287c-2.228,1.286-.217,4.744,2.019,3.453Z"/><path class="a" d="M33.777,120.123c-1.438.831-3.558.679-6.339-.94-4.918-2.863-8.353-8.772-8.334-14.08.009-2.353.907-4.2,2.444-5.089s3.722-.82,6.288.674c5.5,3.2,8.2,9.987,8.186,14.262C36.013,117.369,35.257,119.269,33.777,120.123Z"/><path class="c" d="M32.768,118.4c-.542.293.179-.035-.167.087a3,3,0,0,1-.509.133c.211-.034-.466,0-.608-.008a6.858,6.858,0,0,1-2.382-.791,15.215,15.215,0,0,1-8-12.576c-.007-1.346.318-3.006,1.657-3.611,1.227-.555,3.036.154,4.313.933a14.986,14.986,0,0,1,5.862,7.312,15.15,15.15,0,0,1,1.07,4.477c.072,1.426-.116,3.345-1.239,4.044-2.18,1.359-.174,4.821,2.019,3.454,3.934-2.451,3.643-7.952,2.427-11.84a19.791,19.791,0,0,0-7.636-10.59c-2.152-1.442-4.87-2.425-7.469-1.775a6.692,6.692,0,0,0-4.637,4.758c-1.32,4.5.7,9.822,3.39,13.416,2.884,3.86,8.857,8.766,13.925,6.031C37.053,120.627,35.036,117.173,32.768,118.4Z"/><path class="b" d="M2.039,117.3c0-1.764-.065-23.97-.127-24.006V89.064l.128-.073,2.533-1.463L77.078,45.661,102,60.047v4.235c-11.723,6.765-72.662,41.952-75.169,43.4v24.043L2.04,117.415Z"/><path class="c" d="M100,60.047v4.235l.99-1.727q-14.9,8.6-29.794,17.2L34.8,100.768l-8.983,5.188c-2.228,1.286-.217,4.744,2.019,3.453L51.053,96,89.28,73.932l13.725-7.923A2.014,2.014,0,0,0,104,64.282V60.047c0-2.574-4-2.578-4,0Z"/><path class="c" d="M60.051,4.166v28.9l.99-1.727q-14.551,8.391-29.1,16.793l-6.831,3.943,3.01,1.727q0-15.532,0-31.066l-.99,1.727L63.06,3.718,60.051,1.991V4.166c0,2.573,4,2.578,4,0V1.991A2.02,2.02,0,0,0,61.041.264L25.115,21.006a2.011,2.011,0,0,0-.991,1.727q0,15.533,0,31.066a2.019,2.019,0,0,0,3.009,1.727q14.549-8.4,29.1-16.8l6.83-3.94a2.012,2.012,0,0,0,.991-1.727V4.166C64.051,1.592,60.051,1.588,60.051,4.166Z"/><path class="c" d="M27.373,34.53l35.687-20.6c2.229-1.287.217-4.745-2.019-3.454l-35.687,20.6c-2.228,1.286-.216,4.744,2.019,3.453Z"/><path class="c" d="M103.005,58.32,78.088,43.934a2.027,2.027,0,0,0-2.019,0L59.951,53.241l-32.3,18.651L3.29,85.959c-.691.4-1.4.777-2.076,1.2C-.115,87.985,0,89.224,0,90.578q.009,8.653.023,17.308.006,3.829.011,7.658c0,1.516-.2,2.867,1.311,3.781,6.224,3.773,12.62,7.287,18.923,10.925l5.546,3.2a2.019,2.019,0,0,0,3.01-1.727V107.682c0-2.573-4-2.578-4,0v24.043L27.836,130,3.049,115.688l.991,1.727q-.018-12.09-.034-24.179,0-2.112,0-4.224l-.99,1.727,7.363-4.251,17.95-10.365L50,63.606l18.773-10.84L75,49.169a29.955,29.955,0,0,0,2.956-1.707c.038-.028.086-.049.128-.074H76.069l24.917,14.386c2.233,1.29,4.25-2.166,2.019-3.454Z"/><path class="c" d="M21.83,98.254,10.006,91.427a2,2,0,0,0-2.019,3.454l11.824,6.827a2,2,0,1,0,2.019-3.454Z"/></svg>