<svg xmlns="http://www.w3.org/2000/svg" width="367.826" height="291.513" viewBox="0 0 367.826 291.513" style="color: initial !important;"><defs><style>.a{fill:#ffffff;}.b{fill:#211715;}.c{fill:#5199d1;}.d{fill:#74c66d;}.e{fill:#ffda71;}</style></defs><path class="a" d="M300.715,45.983a43.073,43.073,0,0,1-1.656-14.508c.582-2.653,2.026-3.714,4.006-4.667a41.049,41.049,0,0,1,14.816-3.784,154.864,154.864,0,0,1,27.535.939,31.675,31.675,0,0,1,12.226,3.891,6.408,6.408,0,0,1,2.932,6.792l-.153,2.783a70.718,70.718,0,0,1-2.994,10.02c-2.624,6.076-4.781,11.284-9.659,14.978C328.01,77.054,306.8,66.442,300.715,45.983Z"/><path class="a" d="M287.442,46.194c-6.167,20.321-27.3,30.81-46.989,16.233-4.878-3.694-7.035-8.9-9.659-14.978a70.739,70.739,0,0,1-2.967-9.893c-.1-1.565-.18-2.91-.18-2.91a6.406,6.406,0,0,1,2.932-6.792A31.676,31.676,0,0,1,242.8,23.963a154.867,154.867,0,0,1,27.535-.939,41.055,41.055,0,0,1,14.817,3.784c1.98.953,3.424,2.014,4.006,4.667A43.013,43.013,0,0,1,287.442,46.194Z"/><path class="b" d="M84.646,209.222a3.2,3.2,0,0,1-4.646,0,20.865,20.865,0,0,0-8.32-5.322,18.082,18.082,0,0,0-14.385.356c-3.7,1.839-6.488,5.058-9.175,8.194L35.974,226.627A14.078,14.078,0,0,1,28.4,231.3c-4.853,1.073-8.677-.436-12.5-3.207a1.625,1.625,0,0,0-2.553,1.471c.864,9.484,5.135,17.867,13.54,22.755a27.2,27.2,0,0,0,12.145,3.3,28.19,28.19,0,0,0,10.105-.809A35.706,35.706,0,0,0,65.668,244.6c3.972-4.108,9.388-8.44,16.653-7.992,7.268-.449,12.684,3.884,16.657,7.992a35.706,35.706,0,0,0,16.531,10.206,28.19,28.19,0,0,0,10.105.809,27.2,27.2,0,0,0,12.144-3.3c8.406-4.888,12.677-13.271,13.541-22.755a1.625,1.625,0,0,0-2.553-1.471c-3.822,2.771-7.646,4.28-12.5,3.207a14.071,14.071,0,0,1-7.575-4.674L116.526,212.45c-2.687-3.136-5.477-6.355-9.175-8.194a18.082,18.082,0,0,0-14.385-.356A20.865,20.865,0,0,0,84.646,209.222Z"/><path class="b" d="M83.232,207.808c-1.033.991-1.843-.07-2.618-.809a21.065,21.065,0,0,0-3.93-2.952,25.245,25.245,0,0,0-10.15-3.371,18.833,18.833,0,0,0-10.8,2.14,30.163,30.163,0,0,0-7.95,6.965c-4.28,4.908-8.479,9.888-12.715,14.833a15.425,15.425,0,0,1-4.03,3.544,11.485,11.485,0,0,1-9.285.884,17.4,17.4,0,0,1-4.343-2.316,3.765,3.765,0,0,0-4.584-.211c-1.478,1.08-1.552,2.664-1.344,4.336a39.492,39.492,0,0,0,.83,4.645A29.564,29.564,0,0,0,21.842,251.2c5.55,4.6,12.177,6.336,19.293,6.512a32.878,32.878,0,0,0,19.675-6.267c5.14-3.653,8.874-9.32,14.848-11.75a14.8,14.8,0,0,1,4.784-1.1,25.336,25.336,0,0,1,5.025.119,18.265,18.265,0,0,1,8.49,3.966c2.481,1.978,4.526,4.422,6.941,6.475a36.493,36.493,0,0,0,8.247,5.373A32.768,32.768,0,0,0,119.3,257.56a38.878,38.878,0,0,0,11.49-.6,26.858,26.858,0,0,0,16.1-10.034,30.167,30.167,0,0,0,4.45-8.19,29.6,29.6,0,0,0,1.955-9.173,3.7,3.7,0,0,0-2.658-3.641c-1.858-.519-3.127.676-4.594,1.58a12.3,12.3,0,0,1-9.056,1.913c-4.063-.844-6.48-3.709-9.018-6.671l-7.727-9.019c-2.554-2.981-5.008-6.149-8.056-8.64-6.053-4.947-13.818-5.618-20.94-2.635a23.254,23.254,0,0,0-8.018,5.356c-1.777,1.863,1.047,4.7,2.828,2.828,4.443-4.657,11.686-7.264,18.008-5.5,4.979,1.386,8.33,5.564,11.557,9.33,3.876,4.524,7.7,9.094,11.63,13.575a15.788,15.788,0,0,0,17.58,4.536,21.766,21.766,0,0,0,4.246-2.277,4.429,4.429,0,0,0,.735-.53c.028.2-.668-.181-.5-.266a10.958,10.958,0,0,0-.267,2.09,30.256,30.256,0,0,1-2.447,8.2,24.025,24.025,0,0,1-12.044,11.9,28.592,28.592,0,0,1-9.419,1.946,27.425,27.425,0,0,1-10.656-1.261,33.042,33.042,0,0,1-8.017-3.966,52.267,52.267,0,0,1-7.036-6.2c-4.608-4.508-10.1-7.669-16.683-7.63a22.2,22.2,0,0,0-9.837,1.981,28.593,28.593,0,0,0-7.193,5.167A66.14,66.14,0,0,1,58.791,248a32.9,32.9,0,0,1-8.248,4.26,29.876,29.876,0,0,1-20.107-.417,23.736,23.736,0,0,1-12.162-11.569,29.751,29.751,0,0,1-2.555-7.959c-.121-.666-.224-1.335-.3-2.008a4.1,4.1,0,0,0-.092-.8c.168.085-.528.466-.5.266-.028.2,1.545,1.064,1.75,1.191a19.672,19.672,0,0,0,2.4,1.268,15.8,15.8,0,0,0,18.143-3.887c4.054-4.49,7.887-9.2,11.823-13.792,3.147-3.673,6.417-7.82,11.225-9.3,6.118-1.878,13.394.395,17.881,4.839a6.075,6.075,0,0,0,3.95,2.117,5.309,5.309,0,0,0,4.055-1.571C87.921,208.851,85.09,206.025,83.232,207.808Z"/><path class="c" d="M12.641,68.319c-2.2,1.09-4.332,2.3-6.359,3.572-2.778,1.737-5.148,5.06-4.007,8.063A7.439,7.439,0,0,0,6,83.48a65.381,65.381,0,0,0,15.931,4.751c20.341,3.738,37.494,5.021,60.414,4.915,22.9.105,40.048-1.179,60.378-4.915A65.381,65.381,0,0,0,158.65,83.48a7.439,7.439,0,0,0,3.721-3.526c1.141-3-1.23-6.326-4.007-8.063a69.761,69.761,0,0,0-8.326-4.5l-9.1-3.628a3.976,3.976,0,0,0,1.491-3.814c-.86-5.1-1.933-10.3-3.059-15.546a118.825,118.825,0,0,0-12.4-31.229,22.782,22.782,0,0,0-11.334-9.737c-3.185-1.22-8.067-1.455-10.694-1.347-8.69.359-21.134,4.283-22.622,4.284S68.391,2.447,59.7,2.088c-2.626-.108-7.509.127-10.694,1.347a22.78,22.78,0,0,0-11.333,9.737A118.825,118.825,0,0,0,25.277,44.4c-1.493,6.952-2.892,13.832-3.827,20.491A50.353,50.353,0,0,0,12.641,68.319Z"/><path class="a" d="M139.993,47.335q-.3-1.4-.6-2.812c-18.7,3.187-35.538,4.321-57.228,4.224-21.578.1-38.35-1-56.926-4.179-1.406,6.557-2.727,13.049-3.651,19.35,20.06,3.649,37.6,4.911,60.582,4.806,21.6.1,38.372-1.017,56.978-4.18a3.99,3.99,0,0,0,3.278-4.6C141.728,55.8,140.888,51.585,139.993,47.335Z"/><path class="b" d="M149.028,69.116c2.945,1.339,15.694,6.722,10.431,11.47a12.337,12.337,0,0,1-3.819,2.019q-2.4.959-4.885,1.7a92.97,92.97,0,0,1-10.3,2.313,287.173,287.173,0,0,1-38.813,4.221c-14.269.58-28.65.568-42.911-.2a257.906,257.906,0,0,1-38.954-4.859A64.981,64.981,0,0,1,9.006,82.605c-2.622-1.045-6.348-2.762-4.47-6.148a9.265,9.265,0,0,1,3.5-3.3c1.653-1.01,3.341-1.963,5.069-2.839a47.252,47.252,0,0,1,11.4-4.123c2.515-.543,1.451-4.4-1.063-3.857a50.3,50.3,0,0,0-10.932,3.83C9.3,67.691,5.615,69.4,3.048,71.909.686,74.218-.886,77.748.548,80.964c1.5,3.35,5.231,4.694,8.415,5.894,6.925,2.609,14.327,3.734,21.61,4.854q10.559,1.623,21.218,2.467a430.431,430.431,0,0,0,45.9.8,298.7,298.7,0,0,0,42.746-4.311,102.105,102.105,0,0,0,10.97-2.384c1.792-.521,3.561-1.126,5.294-1.818a19.494,19.494,0,0,0,4.78-2.389,7.121,7.121,0,0,0,2.413-8.967c-1.508-3.33-4.739-5.17-7.788-6.881q-2.477-1.387-5.061-2.563a2.06,2.06,0,0,0-2.736.717,2.017,2.017,0,0,0,.717,2.737Z"/><path class="b" d="M21.058,65.847a306.42,306.42,0,0,0,47.013,4.746,420.29,420.29,0,0,0,50.414-1.3q5.883-.562,11.739-1.372,2.828-.387,5.647-.83c1.821-.286,3.919-.357,5.559-1.267a6,6,0,0,0,2.925-4.007c.382-2-.295-4.166-.659-6.132-.8-4.318-1.568-8.7-2.693-12.944a127.991,127.991,0,0,0-7.316-20.833c-3.076-6.683-6.274-13.51-12.509-17.8-11.07-7.611-25.591-2.868-37.455-.047-.385.091-.771.176-1.158.26-.12.026-.244.04-.363.068-.349.081.527-.039.121-.026-2.568.078-2.579,4.078,0,4a24.221,24.221,0,0,0,4.9-1.047c2.859-.713,5.723-1.408,8.613-1.99,5.937-1.2,12.376-2.066,18.3-.3a19.718,19.718,0,0,1,8.466,5.533c2.371,2.534,3.868,5.778,5.432,8.843a112.477,112.477,0,0,1,7.452,18.539c1.176,3.874,2.136,7.772,2.956,11.735q.633,3.06,1.218,6.129.286,1.516.556,3.037a5.009,5.009,0,0,1,.162,2.382c-.46,1.4-2.023,1.427-3.25,1.63q-2.835.468-5.678.88-5.43.788-10.89,1.346c-15.837,1.632-31.79,1.812-47.7,1.6a305.767,305.767,0,0,1-45.214-3.741q-2.769-.452-5.529-.955c-2.517-.456-3.6,3.4-1.064,3.857Z"/><path class="b" d="M24.708,46.5A304.548,304.548,0,0,0,68.7,50.631a433.681,433.681,0,0,0,46.759-1.043c8.194-.694,16.353-1.759,24.46-3.135a2.016,2.016,0,0,0,1.4-2.46,2.046,2.046,0,0,0-2.461-1.4,300.459,300.459,0,0,1-43.024,4.028,436.726,436.726,0,0,1-46.193-.965q-12-.983-23.864-3.02a2.06,2.06,0,0,0-2.461,1.4,2.017,2.017,0,0,0,1.4,2.46Z"/><path class="b" d="M23.519,64.45c2.2-14.848,5.515-29.645,12.163-43.185a61.651,61.651,0,0,1,4.881-8.92,21.059,21.059,0,0,1,8.029-6.572c5.381-2.556,12.165-1.89,17.843-.887,3.367.594,6.7,1.375,10.016,2.2a29.325,29.325,0,0,0,5.872,1.288c2.575.078,2.572-3.922,0-4-.379-.012.392.077.172.034-.116-.023-.233-.038-.349-.063-.377-.082-.753-.162-1.128-.251-1.123-.265-2.241-.552-3.362-.83-3-.746-6.017-1.458-9.059-2.033C62.289.039,55.348-.744,49.111,1.283a24.051,24.051,0,0,0-9.333,5.874c-2.666,2.655-4.378,5.912-6.1,9.216a118.68,118.68,0,0,0-7.9,18.959,180.741,180.741,0,0,0-6.119,28.055,2.066,2.066,0,0,0,1.4,2.46,2.015,2.015,0,0,0,2.461-1.4Z"/><path class="b" d="M365.825,30.256c-1.84.229-3.657.616-5.476.968a2.017,2.017,0,0,0-1.195.919,2,2,0,0,0,.717,2.736,2.223,2.223,0,0,0,1.541.2c1.605-.311,3.21-.661,4.83-.882l-.532.071.115-.014a2.194,2.194,0,0,0,1.414-.586,2,2,0,0,0,0-2.829,1.918,1.918,0,0,0-1.414-.585Z"/><path class="b" d="M362.5,35.178a8.585,8.585,0,0,0-3.395-8.743,26.5,26.5,0,0,0-9.535-3.786,81.929,81.929,0,0,0-11.187-1.385q-5.355-.426-10.731-.463c-7.307-.043-14.6.141-21.558,2.607-2.842,1.006-6.11,2.166-7.85,4.794-1.716,2.591-1.346,6.115-1.121,9.069.831,10.925,5.636,21.532,14.529,28.193a29.436,29.436,0,0,0,29.21,3.221c5.823-2.457,10.95-6.189,14.211-11.684a65.145,65.145,0,0,0,7.144-18.465c.413-1.783.756-3.58,1.016-5.392a2.067,2.067,0,0,0-1.4-2.46,2.014,2.014,0,0,0-2.46,1.4,66.51,66.51,0,0,1-5.157,17.749,36.982,36.982,0,0,1-4.238,7.609,22.448,22.448,0,0,1-6.289,5.324c-7.856,4.771-17.522,6.089-25.9,1.821-8.184-4.172-13.53-12.274-15.671-21.053a39.581,39.581,0,0,1-1.085-7.681c-.1-2.293-.5-5.088,1.655-6.557,2.405-1.642,5.552-2.5,8.342-3.2a45.382,45.382,0,0,1,9.623-1.186,159.592,159.592,0,0,1,22.326.783,39.13,39.13,0,0,1,10.457,2.3c2.678,1.064,5.822,2.706,5.2,6.124-.456,2.517,3.4,3.6,3.857,1.064Z"/><path class="b" d="M289.107,39.024c3.328-.152,6.669-.175,10-.076a2.017,2.017,0,0,0,2-2,2.04,2.04,0,0,0-2-2c-3.33-.1-6.671-.076-10,.076a2,2,0,0,0,0,4Z"/><path class="b" d="M222.4,34.256l.114.014-.532-.071c1.621.221,3.226.571,4.83.882a2.135,2.135,0,0,0,1.541-.2,2,2,0,0,0,.718-2.736,1.974,1.974,0,0,0-1.195-.919c-1.819-.352-3.637-.739-5.476-.968a1.99,1.99,0,0,0-1.415.585,2,2,0,0,0,0,2.829l.405.312a2,2,0,0,0,1.01.274Z"/><path class="b" d="M229.575,34.114c-.541-2.986,1.791-4.57,4.161-5.675a30.655,30.655,0,0,1,8.7-2.431,140.448,140.448,0,0,1,20.269-1.2,84.674,84.674,0,0,1,10.024.425,40.347,40.347,0,0,1,9.308,2.4c2.055.79,4.768,1.723,5.14,4.221a28.655,28.655,0,0,1-.364,8.017c-1.349,9.073-5.875,17.991-13.678,23.14a25.651,25.651,0,0,1-25.229,1.579,29.318,29.318,0,0,1-7.646-4.928,25.744,25.744,0,0,1-5.268-7.683,67.345,67.345,0,0,1-6.151-19.89,2.014,2.014,0,0,0-2.461-1.4,2.053,2.053,0,0,0-1.4,2.46,70.84,70.84,0,0,0,5.971,19.609,34.421,34.421,0,0,0,5.064,8.254,27.892,27.892,0,0,0,7.409,5.752c9.3,5.292,20.555,6.064,30.018.74,9.319-5.242,15.245-15.191,17.06-25.555a46.729,46.729,0,0,0,.7-9.177,8.147,8.147,0,0,0-4.467-7.4c-6.408-3.418-13.613-4.318-20.755-4.51a159.7,159.7,0,0,0-22.2.989,39.4,39.4,0,0,0-10.074,2.282c-3.227,1.267-6.367,2.864-7.674,6.283a8.761,8.761,0,0,0-.322,4.762c.458,2.529,4.314,1.457,3.857-1.064Z"/><path class="d" d="M303.612,216.22c-2.584,3.229-6.189,7.352-7.61,8.111-2.48,1.325-8.372-.55-9.29-2.195-.938-1.683-1.618-5.379-2-9.692,0,0-.367-5.108,9.585-2.893S303.612,216.22,303.612,216.22Z"/><path class="b" d="M288.389,225.411c-5.057,16.175-10.385,32.259-15.864,48.3q-2.626,7.688-5.27,15.368c-.839,2.44,3.024,3.487,3.857,1.063,5.6-16.307,11.2-32.615,16.492-49.027q2.353-7.307,4.642-14.635c.77-2.463-3.091-3.516-3.857-1.064Z"/><path class="b" d="M282.708,212.444a43.834,43.834,0,0,0,1.354,8.385,6.4,6.4,0,0,0,3.4,4.395,14.237,14.237,0,0,0,6.5,1.553,7.307,7.307,0,0,0,5.206-2.476,73.217,73.217,0,0,0,5.861-6.667,2.063,2.063,0,0,0,0-2.829,2.015,2.015,0,0,0-2.829,0,76.121,76.121,0,0,1-5.693,6.5,15.8,15.8,0,0,1-1.221,1.121c.4-.323-.723.323-.294.178-.071.024-.783.184-.4.128a5.63,5.63,0,0,1-.841.044,7.111,7.111,0,0,1-1.4-.125,12.373,12.373,0,0,1-2.952-.93c-.2-.1-.391-.218-.587-.327-.1-.062-.2-.127-.292-.194q.278.224.033.016a2.491,2.491,0,0,1-.2-.2q.26.361.1.107c-.031-.062-.268-.556-.2-.4-.969-2.3-1.284-5.611-1.529-8.284a2.054,2.054,0,0,0-2-2,2.014,2.014,0,0,0-2,2Z"/><path class="d" d="M284.442,243.75a31.993,31.993,0,0,0-6.092-7.46c-4.793-4.566-12.622-11.387-14.876-11.51a.8.8,0,0,0-.686.434c-.9,1.595-1.127,6-.4,9.113a37.56,37.56,0,0,0,3.349,9.075c1.544,2.9,3,5.886,7.269,8.46,2.546,1.531,8.859,1.249,11.315-3,1.454,3.435,5.835,4.322,8.452,4.05,4.966-.512,7.549-2.6,10.17-4.573a37.345,37.345,0,0,0,6.887-6.8c1.975-2.509,3.646-6.6,3.506-8.424a.8.8,0,0,0-.436-.681c-2.094-.851-11.666,2.655-17.938,4.758-3.042,1.016-7.955,3.169-10.47,6.65C284.475,243.816,284.459,243.783,284.442,243.75Z"/><path class="b" d="M286.169,242.74c-2.69-5.167-7.687-9.22-12.03-12.971a75.938,75.938,0,0,0-6.331-5.023c-1.375-.951-3.361-2.387-5.139-1.842-2.577.79-2.687,4.875-2.712,7.034a26.78,26.78,0,0,0,1.8,9.337c1.958,5.452,4.981,11.386,10.239,14.314a11.021,11.021,0,0,0,14.052-3.715h-3.454c2.379,5.2,9.107,5.783,13.937,4.343a21.49,21.49,0,0,0,6.706-3.609,42.465,42.465,0,0,0,7.18-6.63,22.492,22.492,0,0,0,4.471-7.989c.718-2.4.647-5.424-2.484-5.66a17.7,17.7,0,0,0-5.82.987c-2.654.733-5.266,1.615-7.872,2.5-5.852,1.985-12.076,3.851-15.947,9.024h3.454l-.049-.1c-1.14-2.308-4.591-.284-3.454,2.019l.049.1c.733,1.484,2.635,1.094,3.454,0,3.12-4.169,8.882-5.6,13.556-7.186,2.606-.885,5.219-1.767,7.872-2.5a31.476,31.476,0,0,1,3.347-.78,7.62,7.62,0,0,1,.926-.082c.137-.007.273.008.409.012a1.619,1.619,0,0,1-.217.006l-.718-.717c-.249-.407,0-.16-.076.152-.07.285-.122.573-.2.857a14.621,14.621,0,0,1-.763,2.122,17.927,17.927,0,0,1-2.488,4.069,39.494,39.494,0,0,1-7.744,7.145,14.685,14.685,0,0,1-8.082,3c-2.4.051-4.939-.8-5.994-3.1-.652-1.423-2.736-1.177-3.454,0a6.161,6.161,0,0,1-4.285,2.717,7.544,7.544,0,0,1-4.032-.294c-4.1-1.977-6.54-6.748-8.169-10.767a26.514,26.514,0,0,1-2.09-7.695,20.382,20.382,0,0,1,.007-3.324,9.827,9.827,0,0,1,.21-1.374,2.936,2.936,0,0,0,.139-.528c.1-.253.115-.315.048-.185l-1.247.335a.861.861,0,0,1,.335.095c.174.177-.4-.2.066.024.282.134.554.286.823.443a26.133,26.133,0,0,1,2.223,1.493c1.723,1.261,3.357,2.645,4.968,4.044,3.988,3.463,8.651,7.165,11.126,11.92C283.9,247.043,287.357,245.023,286.169,242.74Z"/><path class="e" d="M260.682,176.425a3.078,3.078,0,0,1-.073-2.291,3.92,3.92,0,0,1,2.281-1.447,15.9,15.9,0,0,1,9.252,1s.531.259,1.277.626a22.815,22.815,0,0,1-.222-2.729c-.023-3.095.5-4.578,1.5-5.512,1.034-.971,3.045-1.043,4.463-1.067l10.49-.174,7.128-.78a10.963,10.963,0,0,1,10.72-1.29c2.355,1.014,4.257,2.825,6.312,4.36,5.278,3.944,10.706,5.786,16.536,7.227,1.129.237,1.712.395,2.034,1.193a2.752,2.752,0,0,1,.05,1.01,11.6,11.6,0,0,1-.132,1.3l5.733,2.269a11.791,11.791,0,0,0,1.213,3.732c1.385,2.573,1.343,4.476-.785,5.884l-1.417,1.034a13.468,13.468,0,0,0-2.74,2.178,27.462,27.462,0,0,0-2.961,4.326c-3.288,5.664-6.571,10.781-11.856,14.443-5.225,3.621-8.939,4.363-14.253,4.8a77.489,77.489,0,0,1-18.732-2.346c-5.866-1.807-10.074-5.264-11.524-7.769a77.7,77.7,0,0,1-4.911-10.747c-.969-2.4-2.747-5.568-3.851-7.915a112.762,112.762,0,0,0-5.072-10.345A5.343,5.343,0,0,1,260.682,176.425Z"/><path class="b" d="M272.674,171.757c-3.629-1.522-9.225-2.41-12.616.108-1.946,1.445-1.921,3.825-.984,5.876.992,2.171,2.286,4.216,3.292,6.394s1.968,4.369,3.052,6.508c1,1.974,2.062,3.927,2.893,5.981,1.648,4.074,3.134,8.671,5.9,12.15,2.89,3.633,7.413,5.952,11.756,7.329,2.459.779,3.512-3.081,1.063-3.858a21.849,21.849,0,0,1-9-5.186c-2.331-2.36-3.613-5.961-4.858-9.011-1.535-3.762-3.32-7.331-5.076-10.989-.912-1.9-1.749-3.831-2.644-5.736-.426-.907-.863-1.808-1.328-2.7s-1.105-1.751-1.482-2.672c-.11-.268-.323-.707-.214-.993-.073.193.382-.133.586-.216a7.141,7.141,0,0,1,2.712-.374,15.442,15.442,0,0,1,5.885,1.241,2.012,2.012,0,0,0,2.461-1.4,2.053,2.053,0,0,0-1.4-2.46Z"/><path class="b" d="M277.85,184.358a51.607,51.607,0,0,1-2.141-8.3c-.428-2.353-.891-5.044-.245-7.4.023-.086.307-.792.15-.474.04-.08.437-.689.159-.334a1.561,1.561,0,0,1,.845-.577,14.728,14.728,0,0,1,4.309-.3l8.722-.145c2.571-.043,2.579-4.043,0-4l-7.393.123c-2.591.043-5.857-.341-8.167,1.084-2.081,1.285-2.695,3.744-2.851,6.027a29.323,29.323,0,0,0,.667,7.345,51.31,51.31,0,0,0,2.088,8.012,2.053,2.053,0,0,0,2.46,1.4,2.017,2.017,0,0,0,1.4-2.46Z"/><path class="b" d="M285.968,216.1a81.559,81.559,0,0,0,15.838,2.375,30.494,30.494,0,0,0,14.2-2.433,32.593,32.593,0,0,0,12.475-10.577,75.947,75.947,0,0,0,4.373-6.823,32.224,32.224,0,0,1,2.356-3.684,12.609,12.609,0,0,1,2.87-2.487c1.687-1.187,3.582-2.39,4-4.572a6.813,6.813,0,0,0-.605-4,19.03,19.03,0,0,1-1.515-4.317c-.46-2.529-4.316-1.457-3.857,1.063a14.667,14.667,0,0,0,1.106,3.586c.369.8,1.187,1.908.972,2.854-.2.88-1.633,1.592-2.332,2.074a18.871,18.871,0,0,0-5.573,5.987c-1.332,2.169-2.563,4.392-3.986,6.5a30.679,30.679,0,0,1-10.866,10.22,24.885,24.885,0,0,1-12.471,2.646,73.493,73.493,0,0,1-15.921-2.279c-2.5-.634-3.561,3.223-1.063,3.858Z"/><path class="b" d="M315.366,176.927a6.5,6.5,0,0,1-1.271,3.99,15.571,15.571,0,0,1-3.07,2.49c-2.7,2.168-1.644,5.319.692,7.306a11.415,11.415,0,0,0,8.8,2.591,13.793,13.793,0,0,0,8.116-4.508,23.684,23.684,0,0,0,4.445-6.731c1.076-2.445,2.655-7.1-.2-8.931a14.351,14.351,0,0,0-4.015-1.237c-1.593-.433-3.173-.915-4.724-1.481a36.351,36.351,0,0,1-8.579-4.486c-3.009-2.132-5.648-4.864-9.379-5.693a13.057,13.057,0,0,0-10.41,2.086,2.057,2.057,0,0,0-.717,2.736,2.015,2.015,0,0,0,2.736.718,9.248,9.248,0,0,1,6.947-1.76c2.606.43,4.633,2.149,6.644,3.732A43.758,43.758,0,0,0,326.2,175.3q1.88.56,3.789,1.012a4.611,4.611,0,0,1,.779.2c-.075-.032-.62,2.5-.237-.207.041-.287-.111.355-.118.455a8.308,8.308,0,0,1-.156,1.143,17.114,17.114,0,0,1-3.084,6.466c-2.725,3.683-7.288,6.623-11.8,4.052A6.332,6.332,0,0,1,314,187.386a2.694,2.694,0,0,1-.6-.741c-.131-.316-.042-.035-.059,0,.124-.248.663-.479.894-.631a14.991,14.991,0,0,0,1.732-1.265,10.425,10.425,0,0,0,3.4-7.821c-.01-2.574-4.01-2.579-4,0Z"/><path class="b" d="M284.272,173.808a14.772,14.772,0,0,1,4.174,5.157l3.454-2.019-.276-.472-.312,2.423c4.369-3.549,11.341-3.013,15.292.884,1.834,1.809,4.664-1.017,2.828-2.828a15.955,15.955,0,0,0-20.949-.884,2.013,2.013,0,0,0-.313,2.424l.276.472c1.306,2.24,4.61.266,3.454-2.019a19.1,19.1,0,0,0-5.609-6.592,2.011,2.011,0,0,0-2.736.717,2.051,2.051,0,0,0,.717,2.737Z"/><path class="b" d="M281.2,189.518c6.406-.746,12.973,2.058,18.408,5.194a26.384,26.384,0,0,1,6.424,4.635c2.2,2.428.519,5.443-.923,7.82-1.339,2.207,2.119,4.219,3.453,2.019,2-3.3,3.7-7.377,1.545-11.03-1.6-2.7-4.713-4.61-7.326-6.212-6.221-3.812-14.116-7.3-21.581-6.426a2.061,2.061,0,0,0-2,2,2.012,2.012,0,0,0,2,2Z"/><path class="b" d="M317.525,198.579c-.109.112-.22.22-.336.324-.053.048-.108.093-.161.141-.237.208-.012,0,.1-.073-.274.183-.535.381-.818.551-.316.191-.643.365-.976.524-.1.048-.484.156-.522.237.024-.051.4-.159.12-.054-.1.038-.2.079-.3.116a14.811,14.811,0,0,1-2.2.629c-.19.038-.381.073-.573.1-.066.011-.371.054-.05.011s.017,0-.049,0a11.65,11.65,0,0,1-1.166.066,2,2,0,0,0,0,4,15.174,15.174,0,0,0,5.227-1,12.3,12.3,0,0,0,4.536-2.75,2,2,0,0,0-2.828-2.828Z"/></svg>