<svg xmlns="http://www.w3.org/2000/svg" width="394.222" height="344.856" viewBox="0 0 394.222 344.856" style="color: initial !important;"><defs><style>.a{fill:#ffffff;}.b{fill:#211715;}.c{fill:#88c5e9;}.d{fill:#a98a75;}.e{fill:#b3b3b3;}</style></defs><path class="a" d="M226.43,318.548a15.451,15.451,0,0,1-5.762-1.2,12.227,12.227,0,0,1-6.761-8.186,26,26,0,0,1-.988-7.625c.095-7.483.657-15.763,6.141-20.8,3.1-2.846,7.218-4.368,11.316-5.312,7.666-1.767,11.426-2.158,20.561-3.915a10.8,10.8,0,0,0,4.811-2.38c13.521-11.189,22.563-18.384,35.485-22.254,11.546-3.458,35.222-4.97,47.114-3.007s18.645,3.675,29.2,9.222c6.549,4.277,9.457,6.1,14.71,12.6,2.669,3.3,6.111,8.971,7.364,13.871A89.675,89.675,0,0,1,391.67,294.6c.469,5.957.122,14.9-4.8,19.358-2.23,2.081-6.136,3.155-10.284,3.392L336.1,318.2c-16.568,0-44.949.11-58.788.11Z"/><path class="b" d="M361.471,297.122a18.885,18.885,0,0,0-19.259,19.141c0,11.547,8.04,19.5,19.259,19.5,11.652,0,19.26-8.026,19.26-19.5A18.869,18.869,0,0,0,361.471,297.122Z"/><path class="a" d="M361.471,310.032a6.266,6.266,0,0,0-6.39,6.351,6.163,6.163,0,0,0,6.39,6.47,6.1,6.1,0,0,0,6.391-6.47A6.261,6.261,0,0,0,361.471,310.032Z"/><path class="b" d="M251.264,297.122a18.885,18.885,0,0,0-19.259,19.141c0,11.547,8.04,19.5,19.259,19.5,11.652,0,19.26-8.026,19.26-19.5A18.869,18.869,0,0,0,251.264,297.122Z"/><path class="a" d="M251.264,310.032a6.266,6.266,0,0,0-6.39,6.351,6.163,6.163,0,0,0,6.39,6.47,6.1,6.1,0,0,0,6.391-6.47A6.261,6.261,0,0,0,251.264,310.032Z"/><path class="a" d="M214.115,289.617a17.55,17.55,0,0,1,4.945-8.88,19.9,19.9,0,0,1,6.081-3.707c1.811.276,3.964.629,5.812,1.028a5.839,5.839,0,0,1,1.425.378,1.221,1.221,0,0,1,.765,1.52,33.158,33.158,0,0,1-3.588,7.712,5.02,5.02,0,0,1-2.982,2.3c-4.461,1.188-9.3,1.017-12.785,1.1Q213.933,290.332,214.115,289.617Z"/><path class="b" d="M277.314,320.706c15.427,0,30.855-.068,46.282-.1q6.253-.012,12.506-.014c3.089,0,3.094-4.8,0-4.8-15.9,0-31.8.064-47.7.1q-5.545.012-11.091.014c-3.089,0-3.094,4.8,0,4.8Z"/><path class="c" d="M290.823,275.084c-7.446.166-14.585.265-19.116.21a.945.945,0,0,1-.681-1.556,45.632,45.632,0,0,1,10.053-9.476,65.166,65.166,0,0,1,20.409-9.034,48.844,48.844,0,0,1,13.682-1.851.935.935,0,0,1,.9,1.093c-.627,3.909-2.168,12.319-3.077,19.17a.926.926,0,0,1-.874.814C306.33,274.674,298.417,274.914,290.823,275.084Z"/><path class="c" d="M324.662,274.238c.368-3.17,2.385-17.508,2.715-20.313a.6.6,0,0,1,.582-.547q4.254.078,8.487.55a80.788,80.788,0,0,1,15.884,3.753c6.537,2.431,14.1,8.411,17.485,15.817.139.305.065.739-.254.739h-44.9"/><path class="b" d="M388.564,315.655c6.8-6.347,5.918-17.234,5.122-25.625-.528-5.568-1.306-11.08-3.628-16.213a49.557,49.557,0,0,0-8.226-12.343c-6.115-6.894-14.3-11.622-22.808-14.94a78.361,78.361,0,0,0-12.987-3.706,103.658,103.658,0,0,0-13.111-1.969,143.815,143.815,0,0,0-26.28.783c-8.45.951-16.629,2.536-24.408,6.082-9.024,4.114-16.851,10.406-24.473,16.648-2.027,1.66-4.067,3.883-6.652,4.628a73.222,73.222,0,0,1-7.544,1.431c-4.289.755-8.577,1.5-12.827,2.451-5.048,1.135-10.2,2.895-13.911,6.672-3.329,3.387-4.975,8-5.66,12.617-1.351,9.1-1.753,21.319,7.245,26.68a16.549,16.549,0,0,0,8.014,2.1c3.09.09,3.088-4.71,0-4.8-4.145-.12-7.907-2.066-9.624-5.953-1.883-4.264-1.617-9.242-1.3-13.782.289-4.156,1.039-8.512,3.477-11.992,2.576-3.679,7.04-5.445,11.239-6.492,4.016-1,8.1-1.73,12.176-2.441,2.286-.4,4.571-.8,6.853-1.224a16.521,16.521,0,0,0,7.213-2.673c4.256-3.144,8.174-6.752,12.4-9.945a97.052,97.052,0,0,1,11.112-7.4,64.183,64.183,0,0,1,21.955-7.184,151.851,151.851,0,0,1,24.98-1.648,94.022,94.022,0,0,1,23.663,3.4,62.266,62.266,0,0,1,22.884,11.253c6.6,5.321,12.308,13.116,14.171,21.468a84.727,84.727,0,0,1,1.758,15.033,29.585,29.585,0,0,1-1.429,11.451,10.959,10.959,0,0,1-2.787,4.246c-2.263,2.113,1.137,5.5,3.394,3.394Z"/><path class="b" d="M290.823,272.684c-4.666.1-9.333.191-14,.218q-1.41.007-2.821.007l-1.191,0a3.055,3.055,0,0,0-.641,0q-1.4-.086.807,2.232l.252-.3a18.946,18.946,0,0,0,1.749-2.019c.668-.741,1.354-1.467,2.066-2.166,6.117-6,14.3-9.971,22.445-12.384a67.558,67.558,0,0,1,7.891-1.9c1.234-.208,2.473-.355,3.72-.452q.907-.071,1.819-.105c.3-.012.6-.02.9-.026l.451-.006q.908.1-.013-.238l-.617-1.059q.135-.744.039-.175l-.063.379c-.052.32-.106.639-.16.959q-.157.936-.318,1.872-.427,2.5-.849,5-.448,2.679-.868,5.362-.209,1.35-.406,2.7c-.059.407-.117.816-.174,1.224-.038.268-.074.535-.111.8q-.078,1.08-.1.395l.861-.861c.493-.321-.19-.054-.48-.044l-1.157.042q-1.218.043-2.437.084-2.634.088-5.27.167-5.661.17-11.325.3c-3.084.069-3.095,4.87,0,4.8q6.9-.155,13.8-.372,3.006-.095,6.012-.2a6.368,6.368,0,0,0,3.151-.54,3.629,3.629,0,0,0,1.635-2.888c.552-4.019,1.218-8.023,1.9-12.022.274-1.609.552-3.218.823-4.827.332-1.98.666-4.12-1.436-5.266a6.588,6.588,0,0,0-3.329-.374q-1.712.048-3.416.223a55.168,55.168,0,0,0-6.832,1.116,76.188,76.188,0,0,0-12.952,4.25A53.31,53.31,0,0,0,270.461,270.7a7.617,7.617,0,0,0-1.966,2.9,3.381,3.381,0,0,0,1.009,3.231c1.486,1.37,4.278.884,6.15.878,5.057-.016,10.114-.111,15.169-.223C293.907,277.416,293.918,272.615,290.823,272.684Z"/><path class="b" d="M327.062,274.238c.411-3.5.836-6.362,1.327-9.954q.409-3,.815-5.993.189-1.4.374-2.794c.036-.278.073-.556.108-.834.017-.134.043-.273.051-.407.013-.2.192-.352.057.024l-.618,1.059.207-.195-1.059.618a6.841,6.841,0,0,1,1.524.07q.945.038,1.888.094,1.887.113,3.769.3c1.71.172,3.4.448,5.086.781a72.072,72.072,0,0,1,10.958,2.932,29.606,29.606,0,0,1,9.009,5.479,32.282,32.282,0,0,1,4.077,4.214A24.346,24.346,0,0,1,366.288,272q.407.656.772,1.335c.122.225.239.453.353.682q.313.705.046-.038l.328-1.211-.1.182,1.435-1.1c.41-.153-.027-.013-.274-.013H324.662c-3.089,0-3.094,4.8,0,4.8H365.4a20.772,20.772,0,0,0,4.8-.086c5.929-1.508-2.64-11.044-4.531-12.928a36.361,36.361,0,0,0-12.084-8.018,67.583,67.583,0,0,0-13.543-3.562,74.6,74.6,0,0,0-7.834-.888,24.581,24.581,0,0,0-4.567-.134,3.1,3.1,0,0,0-2.675,3.006c-.417,3.252-.82,6.159-1.307,9.728-.477,3.492-.985,6.982-1.4,10.483a2.413,2.413,0,0,0,2.4,2.4,2.458,2.458,0,0,0,2.4-2.4Z"/><path class="b" d="M303.993,285.283h6.747a2.4,2.4,0,1,0,0-4.8h-6.747a2.4,2.4,0,1,0,0,4.8Z"/><path class="b" d="M224.837,279.4c1.353.2,2.715.342,4.067.55.592.091,1.183.2,1.767.326.132.025.263.055.393.091.158.053.173.049.047-.012-.153-.136-.172-.151-.054-.046s.105.085-.044-.1q-.081-1.482-.282-.581l-.1.306q-.149.447-.312.892c-.2.551-.395,1.025-.636,1.55a39.539,39.539,0,0,1-1.851,3.5,3.489,3.489,0,0,1-1.632,1.7,16.311,16.311,0,0,1-3.949.767c-2.564.276-5.144.276-7.72.311-3.086.043-3.095,4.843,0,4.8a70.005,70.005,0,0,0,10.026-.616,11.59,11.59,0,0,0,4.716-1.489,10.636,10.636,0,0,0,3.2-3.91,38.114,38.114,0,0,0,2.143-4.47c.654-1.622,1.517-3.5.543-5.179-.867-1.492-2.461-2.014-4.052-2.311-1.655-.309-3.405-.468-4.993-.706a2.479,2.479,0,0,0-2.953,1.676,2.419,2.419,0,0,0,1.677,2.953Z"/><path class="d" d="M2.4,302.708c0-7.986,0-18.933,0-29.526,0,0,94.1-34.957,123.53-45.872,13.036,12.8,28.143,27.556,39.163,38.561l0,0c0,7.667,0,24.948,0,31.121l0,.007c-29.733,11.462-90.726,33.954-122.328,45.433C30.04,330.023,3.474,303.807,2.4,302.708Z"/><path class="b" d="M147.628,287.75q-36.348,13.192-72.75,26.236-8.4,3.006-16.814,5.992a2.461,2.461,0,0,0-1.677,2.952,2.422,2.422,0,0,0,2.953,1.676q34.05-12.079,68.009-24.417,10.779-3.9,21.555-7.81a2.464,2.464,0,0,0,1.677-2.953,2.421,2.421,0,0,0-2.953-1.676Z"/><path class="a" d="M82.428,245.892l-1.677-1.651c-9.333,3.465-19.028,7.053-28.544,10.569,13.647,13.2,27.977,26.687,40.974,39.61v29.528c9.167-3.386,18.5-6.846,27.507-10.2V283.565C108.551,271.275,95.222,258.47,82.428,245.892Z"/><path class="b" d="M37.413,286.388c-2.639.969-3.094,2.893-1.488,4.355a7.3,7.3,0,0,0,7.467,1.1c2.772-1.033,3.252-2.706,1.413-4.388A7.742,7.742,0,0,0,37.413,286.388Z"/><path class="b" d="M48.405,282.351c-2.6.954-3.04,2.859-1.455,4.312a7.165,7.165,0,0,0,7.356,1.113c2.727-1.016,3.2-2.674,1.381-4.346A7.607,7.607,0,0,0,48.405,282.351Z"/><path class="b" d="M59.219,278.38c-2.554.939-2.986,2.825-1.422,4.269a7.034,7.034,0,0,0,7.246,1.123c2.683-1,3.141-2.641,1.35-4.3A7.469,7.469,0,0,0,59.219,278.38Z"/><path class="b" d="M123.733,269.123a3.559,3.559,0,0,1-.223-4.724c1.148-1.637-.44-3.448-2.073-3.612-2.5-.25-5.625-1.152-6.907-3.523a3.976,3.976,0,0,1-.472-1.378c.067.53.042-.615.013-.289-.01.115.12-.527.166-.659a4.416,4.416,0,0,1,1.841-1.893,11.871,11.871,0,0,1,8.941-.678,6.846,6.846,0,0,1,4.968,6.672,2.439,2.439,0,0,0,2.4,2.4,32.971,32.971,0,0,1,6.984.447,16.9,16.9,0,0,1,6.432,2.924,2.419,2.419,0,0,0,3.284-.861,2.452,2.452,0,0,0-.861-3.283c-4.758-3.4-10.138-4.062-15.839-4.027l2.4,2.4a11.826,11.826,0,0,0-5.193-9.808,16.022,16.022,0,0,0-10.8-1.967c-3.3.448-6.756,1.88-8.512,4.887a7.656,7.656,0,0,0,.8,8.557c2.463,3.232,6.464,4.489,10.357,4.879l-2.072-3.611a8.287,8.287,0,0,0,.974,10.541c2.285,2.07,5.69-1.315,3.394-3.394Z"/><path class="b" d="M32.567,270.8c-3.358,1.161-6.738,2.256-10.088,3.44a2.4,2.4,0,0,0,1.276,4.628c3.35-1.183,6.73-2.278,10.088-3.439a2.4,2.4,0,0,0-1.276-4.629Z"/><path class="b" d="M11.733,284.682l29.99,29.525a2.382,2.382,0,0,0,2.335.617c16.261-5.688,32.455-11.573,48.638-17.48a2.464,2.464,0,0,0,1.676-2.952,2.42,2.42,0,0,0-2.952-1.676c-16.183,5.907-32.377,11.791-48.638,17.48l2.335.617-29.99-29.525c-2.2-2.169-5.6,1.223-3.394,3.394Z"/><path class="b" d="M79.308,246.194c13.229,13.021,26.635,25.863,39.682,39.068l-.7-1.7v29.924c0,3.089,4.8,3.094,4.8,0V292.11c0-2.813.145-5.668,0-8.477-.087-1.673-1.731-2.806-2.831-3.913q-2.4-2.419-4.823-4.824-4.923-4.9-9.886-9.752C97.941,257.688,90.294,250.273,82.7,242.8c-2.2-2.169-5.6,1.223-3.394,3.394Z"/><path class="b" d="M50.841,256.825c13.549,13.1,27.277,26.008,40.643,39.292l-.7-1.7v29.038c0,3.089,4.8,3.094,4.8,0v-21.25c0-2.576.153-5.2,0-7.777-.113-1.9-2.566-3.557-3.841-4.815q-2.43-2.4-4.874-4.777Q81.9,280,76.891,275.189c-7.546-7.258-15.127-14.481-22.656-21.758-2.222-2.147-5.621,1.243-3.394,3.394Z"/><path class="b" d="M155.422,268.506q-17.259,6.717-34.6,13.236a2.468,2.468,0,0,0-1.676,2.952,2.418,2.418,0,0,0,2.952,1.676q17.323-6.554,34.6-13.235a2.471,2.471,0,0,0,1.676-2.953,2.417,2.417,0,0,0-2.952-1.676Z"/><path class="b" d="M4.8,302.708q0-14.763,0-29.526L3.038,275.5c3.192-1.216,6.4-2.4,9.595-3.595q12.023-4.5,24.047-8.993,15.621-5.835,31.248-11.654,15.81-5.885,31.632-11.737,12.38-4.575,24.782-9.09l2.226-.8-2.335-.617c13.3,12.592,26.548,25.279,39.163,38.561l-.617-1.059c-.3-.705-.079-.182-.076.186q0,.441.008.88.006.819.011,1.638.011,1.918.015,3.838.012,4.409,0,8.816-.007,7.566-.049,15.13l.327-1.212-.005.007,1.435-1.1c-15.167,5.846-30.4,11.531-45.63,17.2Q92.732,321.6,66.594,331.184q-12.229,4.486-24.472,8.939l2.335.617c-11.015-10.726-22.079-21.4-32.967-32.258q-3.72-3.709-7.389-7.471c-2.155-2.222-5.547,1.174-3.395,3.394C10.978,315,21.629,325.23,32.2,335.517q4.429,4.308,8.859,8.617a2.376,2.376,0,0,0,2.335.617q18.346-6.664,36.661-13.416,21.492-7.909,42.955-15.9,18.789-7,37.533-14.128,1.895-.724,3.788-1.452a13.574,13.574,0,0,0,1.964-.777,2.79,2.79,0,0,0,1.2-2.679q.025-4.329.035-8.657c.018-6.764.034-13.529-.021-20.294a8.988,8.988,0,0,0-.1-2.208,6.683,6.683,0,0,0-1.908-2.416q-2.1-2.2-4.228-4.366-4.522-4.62-9.123-9.163-9.825-9.726-19.852-19.245-2.333-2.221-4.671-4.435a2.389,2.389,0,0,0-2.335-.618c-7.832,2.819-15.642,5.7-23.45,8.579q-15.6,5.755-31.174,11.557-15.834,5.891-31.66,11.8-12.668,4.731-25.331,9.471c-3.917,1.466-7.855,2.888-11.754,4.4l-.161.06A2.492,2.492,0,0,0,0,273.182q0,14.763,0,29.526C0,305.8,4.8,305.8,4.8,302.708Z"/><path class="b" d="M41.252,313.145V329.38a2.4,2.4,0,0,0,4.8,0V313.145a2.4,2.4,0,0,0-4.8,0Z"/><path class="e" d="M368.359,115.384v36.061H243.517V115.384H368.359Z"/><path class="e" d="M355.016,97.006v18.378H256.861V97.006h98.155Z"/><path class="e" d="M342.034,2.4V97.006H269.843c0-10.235.361-80.852.361-94.606Z"/><path class="b" d="M272.243,97.011c0-10.919.076-21.838.124-32.756q.1-22.918.2-45.836c.02-5.34.045-10.679.045-16.019l-2.4,2.4H342.03l-2.4-2.4V97.011c0,3.088,4.8,3.093,4.8,0V2.4a2.435,2.435,0,0,0-2.4-2.4H270.208a2.435,2.435,0,0,0-2.4,2.4c0,11.755-.073,23.51-.124,35.265q-.1,22.566-.2,45.131c-.019,4.738-.045,9.476-.045,14.215,0,3.088,4.8,3.093,4.8,0Z"/><path class="b" d="M259.257,115.386V97.011l-2.4,2.4h98.158l-2.4-2.4v18.375c0,3.088,4.8,3.093,4.8,0V97.011a2.434,2.434,0,0,0-2.4-2.4H256.857a2.434,2.434,0,0,0-2.4,2.4v18.375c0,3.088,4.8,3.093,4.8,0Z"/><path class="b" d="M368.359,112.986H243.513a2.434,2.434,0,0,0-2.4,2.4v36.056a2.435,2.435,0,0,0,2.4,2.4H368.359a2.435,2.435,0,0,0,2.4-2.4V115.386c0-3.089-4.8-3.094-4.8,0v36.056l2.4-2.4H243.513l2.4,2.4V115.386l-2.4,2.4H368.359C371.448,117.786,371.453,112.986,368.359,112.986Z"/><path class="a" d="M147.576,116.551V65.916l-62.8-62.8-62.8,62.8v82.811H147.576Z"/><rect class="c" x="90.238" y="86.315" width="29.461" height="26.408"/><path class="b" d="M19.568,67.429v81.3a2.435,2.435,0,0,0,2.4,2.4h110.2c5.056,0,10.147.175,15.2,0,.071,0,.141,0,.212,0a2.435,2.435,0,0,0,2.4-2.4v-81.3c0-3.089-4.8-3.094-4.8,0v81.3l2.4-2.4H27.122c-1.628,0-3.318-.132-4.942,0-.07.006-.142,0-.212,0l2.4,2.4v-81.3c0-3.089-4.8-3.094-4.8,0Z"/><path class="b" d="M16.021,75.257l7.035-7.035,16.8-16.8L60.17,31.108,77.808,13.47,83.576,7.7c.91-.91,1.944-1.782,2.771-2.771.036-.043.082-.082.122-.122H83.075l7.035,7.035,16.8,16.8,20.314,20.314L144.862,66.6c2.839,2.839,5.595,5.807,8.538,8.538.043.04.082.082.123.123,2.187,2.187,5.582-1.206,3.394-3.394l-7.035-7.035-16.8-16.8L112.768,27.714,95.13,10.076c-2.839-2.839-5.595-5.807-8.539-8.539-.042-.039-.081-.081-.122-.122a2.436,2.436,0,0,0-3.394,0L76.04,8.45l-16.8,16.8L38.926,45.564,21.288,63.2c-2.839,2.839-5.807,5.595-8.539,8.538-.039.043-.081.082-.122.123-2.187,2.187,1.206,5.582,3.394,3.394Z"/><path class="b" d="M119.7,83.915H90.238a2.435,2.435,0,0,0-2.4,2.4v26.408a2.435,2.435,0,0,0,2.4,2.4H119.7a2.435,2.435,0,0,0,2.4-2.4V86.315c0-3.088-4.8-3.093-4.8,0v26.408l2.4-2.4H90.238l2.4,2.4V86.315l-2.4,2.4H119.7C122.787,88.715,122.792,83.915,119.7,83.915Z"/><path class="b" d="M21.968,101.919H55.9l-2.4-2.4v49.214c0,3.088,4.8,3.094,4.8,0V99.519a2.435,2.435,0,0,0-2.4-2.4H21.968c-3.088,0-3.093,4.8,0,4.8Z"/></svg>