<svg xmlns="http://www.w3.org/2000/svg" width="355.032" height="313.946" viewBox="0 0 355.032 313.946" style="color: initial !important;"><defs><style>.a{fill:#645d5c;}.b{fill:#211715;}.c{fill:#f3736f;}.d{fill:#88c5e9;}.e{fill:#ffffff;}.f{fill:#d9d9d9;}.g{fill:#ffda71;}</style></defs><path class="a" d="M280.49,306.294c25.627-25.7,50.119-49.921,68.294-68.672,10.745-13.3-2.476-29.375-15.622-30.18-4.642-.285-8.261.742-11.111,3.151-10.156,8.586-59.128,51.109-73.785,63.931"/><path class="b" d="M282.187,307.991c16.517-16.566,33.12-33.047,49.6-49.65q5.436-5.477,10.845-10.98,2.464-2.511,4.92-5.029a33.668,33.668,0,0,0,4.688-5.431c5-7.958,2.921-17.677-3.335-24.258-6.176-6.5-16.331-9.874-24.843-6.119-2.4,1.056-4.316,2.883-6.287,4.565q-2.656,2.267-5.306,4.543-16.183,13.892-32.292,27.872-15.346,13.3-30.62,26.681-1.2,1.056-2.394,2.115c-2.316,2.054,1.089,5.439,3.394,3.395,9.127-8.094,18.352-16.078,27.566-24.072q16.406-14.236,32.867-28.409,5.531-4.758,11.077-9.5A14.289,14.289,0,0,1,329,209.993a17.42,17.42,0,0,1,11.242,2c6.435,3.5,11.682,10.9,9.647,18.469-1.16,4.314-4.416,7.139-7.427,10.219q-5.108,5.227-10.25,10.418c-15.627,15.793-31.392,31.448-47.093,47.166q-3.162,3.165-6.322,6.334c-2.184,2.19,1.209,5.586,3.394,3.394Z"/><path class="b" d="M295.032,278.973q18.006-17.994,35.97-36.028,4.509-4.551,9-9.121c2.166-2.207-1.226-5.6-3.394-3.394-11.322,11.536-22.758,22.96-34.192,34.385q-5.386,5.382-10.774,10.764c-2.188,2.186,1.205,5.581,3.394,3.394Z"/><path class="c" d="M265.832,311.5c10.182.662,19.251-5.161,18.606-18.048-.673-13.463-12.039-22.324-22.1-23.549-10.126-1.233-18.969,5.164-18.3,18.63C244.7,301.66,256.949,310.923,265.832,311.5Z"/><path class="b" d="M265.832,313.9a21.79,21.79,0,0,0,12.678-2.883,17.408,17.408,0,0,0,7.683-10.595c2.606-10.34-2.134-21.15-10.427-27.434-6.944-5.263-16.982-7.753-24.993-3.387-8.807,4.8-10.9,16.554-7.928,25.462,3.226,9.667,12.6,18.07,22.987,18.837a2.4,2.4,0,1,0,0-4.8,9.9,9.9,0,0,1-2.035-.326,20.2,20.2,0,0,1-2.513-.773,23.794,23.794,0,0,1-4.735-2.545,24.419,24.419,0,0,1-7.921-8.939c-3.464-6.723-3.291-16.707,2.826-21.647a13.773,13.773,0,0,1,8.824-2.713,21.559,21.559,0,0,1,10.264,3.091,22.733,22.733,0,0,1,11.491,20.832,13.563,13.563,0,0,1-5.025,10.176c-3.262,2.4-7.155,3.08-11.176,2.844C262.746,308.919,262.756,313.72,265.832,313.9Z"/><path class="d" d="M171.157,16.288H4.418A2.008,2.008,0,0,0,2.411,18.3v88.7a10.573,10.573,0,0,0,10.572,10.573H162.592a10.573,10.573,0,0,0,10.572-10.573V18.3A2.008,2.008,0,0,0,171.157,16.288Z"/><rect class="e" x="2.408" y="30.119" width="170.758" height="27.759"/><path class="b" d="M171.157,13.888H8.22c-1.233,0-2.473-.041-3.705,0a4.516,4.516,0,0,0-4.5,4.467c-.025.6,0,1.207,0,1.808v85.911a19.443,19.443,0,0,0,.224,3.273,13.06,13.06,0,0,0,8.456,9.885,18.349,18.349,0,0,0,6.464.735H159.6c1.056,0,2.114.019,3.169,0a13.166,13.166,0,0,0,12.8-13.335c.022-7.128,0-14.256,0-21.384V21.122c0-.808.01-1.617,0-2.424a4.593,4.593,0,0,0-4.407-4.81,2.42,2.42,0,0,0-2.4,2.4,2.448,2.448,0,0,0,2.4,2.4c-.478-.038-.293-.619-.393-.186a3.9,3.9,0,0,0,0,.8V100.47c0,2.115.011,4.229,0,6.344a8.283,8.283,0,0,1-8.331,8.353c-4.454.024-8.909,0-13.363,0H14.836c-2.2,0-4.229-.028-6.21-1.258a8.246,8.246,0,0,1-3.815-6.99c-.007-.6,0-1.195,0-1.793V19.617c0-.181.139-1.185,0-1.321.316.311-.91.392.108.392H171.157C174.246,18.688,174.251,13.888,171.157,13.888Z"/><path class="b" d="M2.411,32.522H173.164c3.089,0,3.094-4.8,0-4.8H2.411c-3.088,0-3.094,4.8,0,4.8Z"/><path class="b" d="M2.411,60.278H173.164c3.089,0,3.094-4.8,0-4.8H2.411c-3.088,0-3.094,4.8,0,4.8Z"/><path class="b" d="M125.851,101.349H157.5c3.089,0,3.094-4.8,0-4.8H125.851c-3.089,0-3.094,4.8,0,4.8Z"/><path class="e" d="M255.461,131.434H341.28a7.989,7.989,0,0,0,7.994-7.993c0-28.957,0-71.98,0-113.021a7.994,7.994,0,0,0-7.994-8H255.461a8,8,0,0,0-8,8V123.434A8,8,0,0,0,255.461,131.434Z"/><path class="e" d="M319.068,57.028h11.991a2.253,2.253,0,0,1,2.253,2.253v6.99a2.253,2.253,0,0,1-2.253,2.253H319.068a2.252,2.252,0,0,1-2.252-2.252V59.281A2.252,2.252,0,0,1,319.068,57.028Z"/><path class="e" d="M319.068,103.12h11.991a2.253,2.253,0,0,1,2.253,2.253v6.993a2.251,2.251,0,0,1-2.251,2.251H319.068a2.252,2.252,0,0,1-2.252-2.252v-6.991a2.252,2.252,0,0,1,2.252-2.252Z"/><path class="e" d="M292.48,103.12h11.991a2.253,2.253,0,0,1,2.253,2.253v6.993a2.251,2.251,0,0,1-2.251,2.251H292.478a2.251,2.251,0,0,1-2.251-2.251v-6.993a2.252,2.252,0,0,1,2.252-2.252Z"/><path class="e" d="M265.892,103.12h11.991a2.253,2.253,0,0,1,2.253,2.253v6.993a2.251,2.251,0,0,1-2.251,2.251H265.89a2.251,2.251,0,0,1-2.251-2.251v-6.993A2.252,2.252,0,0,1,265.892,103.12Z"/><path class="e" d="M319.068,80.074h11.993a2.251,2.251,0,0,1,2.251,2.251V89.32a2.251,2.251,0,0,1-2.251,2.251H319.068a2.252,2.252,0,0,1-2.252-2.252V82.326a2.252,2.252,0,0,1,2.252-2.252Z"/><path class="e" d="M292.48,80.074h11.993a2.251,2.251,0,0,1,2.251,2.251V89.32a2.251,2.251,0,0,1-2.251,2.251H292.478a2.251,2.251,0,0,1-2.251-2.251V82.326A2.252,2.252,0,0,1,292.48,80.074Z"/><path class="e" d="M265.892,80.074h11.993a2.251,2.251,0,0,1,2.251,2.251v6.992a2.253,2.253,0,0,1-2.253,2.253H265.892a2.252,2.252,0,0,1-2.252-2.252V82.327a2.252,2.252,0,0,1,2.252-2.252Z"/><path class="e" d="M292.48,57.028h11.993a2.251,2.251,0,0,1,2.251,2.251v6.995a2.251,2.251,0,0,1-2.251,2.251H292.48a2.252,2.252,0,0,1-2.252-2.252V59.281a2.252,2.252,0,0,1,2.252-2.252Z"/><path class="e" d="M265.892,57.028h11.993a2.251,2.251,0,0,1,2.251,2.251v6.995a2.251,2.251,0,0,1-2.251,2.251H265.892a2.252,2.252,0,0,1-2.252-2.252V59.281a2.252,2.252,0,0,1,2.252-2.252Z"/><path class="d" d="M330.3,18.329H266.645a3.006,3.006,0,0,0-3,3.01V38.98a3.006,3.006,0,0,0,3,3.011H330.3a3,3,0,0,0,3.008-3.005c0-4.472,0-12.48,0-17.649A3.007,3.007,0,0,0,330.3,18.329Z"/><path class="b" d="M330.3,15.929H272.8c-1.908,0-3.816-.015-5.723,0a5.747,5.747,0,0,0-4.461,1.816,6.522,6.522,0,0,0-1.379,4.679V38.138a6.108,6.108,0,0,0,1.813,4.871c1.482,1.332,3.227,1.382,5.116,1.382h57.638a32.215,32.215,0,0,0,5.462-.1,5.387,5.387,0,0,0,3.847-2.848,9.467,9.467,0,0,0,.6-4.405q0-4.779,0-9.558V22.829c0-1.712-.018-3.291-1.095-4.723a5.569,5.569,0,0,0-4.314-2.177c-3.086-.166-3.077,4.634,0,4.8.749.04.609.814.609,1.421v4.357q0,4.413,0,8.828a19.113,19.113,0,0,1,0,3.651c-.181.861-1.073.605-1.881.605H269.7a14.028,14.028,0,0,1-3.059,0c-.73-.184-.6-.757-.6-1.453V23.471a11.332,11.332,0,0,1,0-2.132c.157-.761.728-.61,1.475-.61H330.3C333.392,20.729,333.4,15.929,330.3,15.929Z"/><path class="b" d="M255.461,133.834h78.421c4.48,0,9.72.827,13.538-2.025a10.558,10.558,0,0,0,3.821-5.391c.657-2.152.433-4.52.432-6.741V105.993q0-32.989,0-65.98V13.274c0-2.6.079-5.081-1.09-7.478a10.269,10.269,0,0,0-4.534-4.614c-2.258-1.124-4.533-1.161-7-1.161H260.922c-4.665,0-9.562-.49-13.037,3.279a10.746,10.746,0,0,0-2.821,7.318c-.012,1.783,0,3.566,0,5.348V120.35a20.886,20.886,0,0,0,.433,6.061,10.567,10.567,0,0,0,9.964,7.423c3.09.066,3.09-4.734,0-4.8a5.662,5.662,0,0,1-5.6-5.612c-.007-.373,0-.746,0-1.119V13.034c0-1.819-.2-3.756.738-5.392,2.147-3.737,6.887-2.821,10.519-2.821h76.037c1.962,0,4.265-.352,6.134.364A5.663,5.663,0,0,1,346.507,8.4a7.955,7.955,0,0,1,.364,2.967V24.257q0,33.137,0,66.273,0,14.135,0,28.27c0,3.538.656,7.752-3.1,9.653-1.719.87-3.8.58-5.662.58H255.461C252.373,129.034,252.367,133.834,255.461,133.834Z"/><path class="b" d="M331.06,54.628H320.532c-.478,0-.959-.014-1.437,0a4.746,4.746,0,0,0-4.436,3.186,8.136,8.136,0,0,0-.243,2.685v3.249c0,.807-.023,1.617,0,2.424a4.734,4.734,0,0,0,2.612,4.267c1.532.728,3.472.486,5.125.486h6.586c2.068,0,4.208.192,5.756-1.523,1.752-1.942,1.217-5.178,1.217-7.6,0-.833.026-1.671,0-2.5a4.756,4.756,0,0,0-4.652-4.673,2.4,2.4,0,1,0,0,4.8c-.551-.027.233.1-.053-.02s.315.344-.052-.023c-.186-.186.029-.2.013.033.038-.551-.1.313-.036-.045.036-.2-.02.2-.02.284v5.4c0,.316-.013.636,0,.952,0,.073,0,.148,0,.221v.04c.012-.422.068-.039-.016.037l.072-.17c-.131.211-.152.247-.063.11.063-.309.423-.039.017-.064.4.025-.151-.085-.047-.016.059.04.251-.042.177-.039-.109,0-.219,0-.328,0h-7.746c-1.288,0-2.575,0-3.863,0-.153,0,.164,0,.164.045l-.2-.05.189.09-.178-.1c.183.156.212.175.089.057l-.072-.072c.163.221.172.216.028-.017l.045.095q.1.24,0-.11c.053.008.045.339.045.131,0-.66,0-1.321,0-1.981,0-1.629,0-3.257,0-4.886v-.045c0,.4-.075-.029,0,.006l-.09.189.1-.179-.129.162c.174-.163.2-.189.063-.08l-.08.065q.362-.2-.011-.011c-.037-.072.623-.007,0-.005h.072c.46.027.93,0,1.391,0H331.06a2.4,2.4,0,0,0,0-4.8Z"/><path class="b" d="M331.059,100.72h-10.47c-.5,0-1-.017-1.494,0a4.746,4.746,0,0,0-4.436,3.186,8.029,8.029,0,0,0-.243,2.622v3.313c0,.8-.013,1.6,0,2.4a4.739,4.739,0,0,0,2.563,4.267c1.546.764,3.568.505,5.245.505h6.58c2.05,0,4.157.177,5.691-1.523,1.749-1.938,1.217-5.181,1.217-7.6,0-.833.026-1.671,0-2.5a4.75,4.75,0,0,0-4.653-4.672,2.4,2.4,0,0,0,0,4.8c-.55-.028.234.1-.053-.02-.271-.114.316.343-.051-.023-.186-.186.029-.206.013.033.04-.585-.1.146-.016.046-.023.028-.034-.3-.04-.105,0,.1,0,.2,0,.3v5.4c0,.3-.008.612,0,.917,0,.085,0,.171,0,.256v.039c.006-.249.171-.133-.016.037.261-.238.037-.067-.041.016l.1-.152q.321-.207-.033.013c.395.024-.149-.084-.047-.016.138.091.248-.042.181-.04-.11,0-.222,0-.332,0h-7.748c-1.287,0-2.576.024-3.863,0-.068,0-.066.039.046.02.359-.061-.506.076.046.036-.109.008-.329-.308-.033-.012s-.02.076-.012-.033c-.04.551.1-.313.036.046-.027.149.02.059.02-.029-.006-.7,0-1.394,0-2.091,0-1.568.131-3.2,0-4.76.041.5-.055-.045,0-.015l-.09.189q.191-.3.037-.1l-.065.081q.3-.281-.017-.015l.089-.05q.226-.124-.1.039c-.035-.08.4,0,0,0h11.99a2.4,2.4,0,0,0,0-4.8Z"/><path class="b" d="M304.472,100.72H294c-.5,0-1-.017-1.494,0a4.746,4.746,0,0,0-4.436,3.186,8.029,8.029,0,0,0-.243,2.622v3.313c0,.8-.013,1.6,0,2.4a4.737,4.737,0,0,0,2.563,4.267c1.547.764,3.568.505,5.246.505h6.581c2.049,0,4.155.177,5.689-1.522,1.749-1.938,1.217-5.182,1.217-7.6,0-.834.026-1.672,0-2.505a4.75,4.75,0,0,0-4.652-4.672,2.4,2.4,0,1,0,0,4.8c-.551-.028.233.1-.053-.02s.315.343-.052-.023c-.186-.187.029-.206.013.033.04-.585-.1.146-.016.046-.024.028-.034-.3-.04-.105,0,.1,0,.2,0,.3v5.4c0,.306-.008.612,0,.918,0,.085,0,.171,0,.256v.039c.006-.251.171-.131-.016.037.259-.233.04-.071-.041.015l.1-.152q.321-.209-.033.012c.4.027-.153-.088-.046-.016.135.091.248-.042.181-.04-.111,0-.222,0-.333,0h-7.748c-1.287,0-2.577.024-3.864,0-.068,0-.066.039.046.02.359-.061-.506.076.046.036-.109.008-.329-.308-.033-.012s-.02.076-.012-.033c-.04.551.1-.313.036.046-.027.149.02.059.02-.029-.006-.7,0-1.394,0-2.091,0-1.568.131-3.2,0-4.76.041.5-.055-.045,0-.015l-.09.189q.19-.3.037-.1l-.065.081q.3-.281-.017-.015l.089-.05c.151-.083.117-.07-.1.039-.035-.08.4,0,0,0h11.991a2.4,2.4,0,1,0,0-4.8Z"/><path class="b" d="M277.884,100.72H267.413c-.5,0-1-.017-1.494,0a4.746,4.746,0,0,0-4.436,3.186,8.029,8.029,0,0,0-.243,2.622v3.313c0,.8-.013,1.6,0,2.4a4.737,4.737,0,0,0,2.563,4.267c1.546.764,3.568.505,5.246.505h6.581c2.049,0,4.155.177,5.689-1.522,1.749-1.938,1.217-5.182,1.217-7.6,0-.834.026-1.672,0-2.505a4.75,4.75,0,0,0-4.652-4.672,2.4,2.4,0,0,0,0,4.8c-.551-.028.233.1-.054-.02-.271-.114.316.343-.051-.023-.186-.187.029-.206.013.033.04-.585-.1.146-.016.046-.024.028-.034-.3-.04-.105,0,.1,0,.2,0,.3v5.4c0,.306-.009.612,0,.918,0,.085,0,.171,0,.256v.039c.006-.251.171-.131-.016.037.259-.233.04-.071-.041.015l.1-.152q.321-.209-.033.012c.4.027-.153-.088-.046-.016.134.091.248-.042.181-.04-.111,0-.222,0-.333,0H269.8c-1.287,0-2.577.024-3.864,0-.068,0-.066.039.046.02.359-.061-.506.076.046.036-.109.008-.329-.308-.033-.012s-.02.076-.012-.033c-.04.551.1-.313.036.046-.027.149.02.059.02-.029-.006-.7,0-1.394,0-2.091,0-1.568.131-3.2,0-4.76.041.5-.055-.045,0-.015l-.09.189q.19-.3.037-.1l-.065.081q.3-.281-.017-.015l.089-.05c.151-.083.117-.07-.1.039-.035-.08.4,0-.005,0h11.991a2.4,2.4,0,0,0,0-4.8Z"/><path class="b" d="M331.06,77.674H320.643c-.515,0-1.035-.017-1.55,0a4.739,4.739,0,0,0-4.49,3.344,9.218,9.218,0,0,0-.187,2.525v3.251c0,.815-.024,1.633,0,2.447a4.751,4.751,0,0,0,3.136,4.467c1.4.5,3.215.262,4.672.262h6.646c2.03,0,4.1.163,5.625-1.522,1.749-1.94,1.217-5.181,1.217-7.6,0-.833.027-1.671,0-2.5a4.752,4.752,0,0,0-4.652-4.672,2.4,2.4,0,1,0,0,4.8c-.551-.028.233.1-.053-.02s.315.344-.052-.023c-.186-.186.029-.206.013.033.04-.585-.1.147-.016.046-.037.045-.033-.317-.04-.105,0,.1,0,.2,0,.3v5.4c0,.305-.011.612,0,.917,0,.079,0,.16,0,.239v.057c.011-.384.112-.079-.016.037.26-.236.038-.069-.041.016l.1-.153q.276-.177.06-.043l-.093.056q.361-.138-.047-.016s.195-.04.181-.04c-.11,0-.222,0-.332,0h-7.67c-1.3,0-2.614-.045-3.916,0-.023,0-.048,0-.072,0,.432.012.042.066-.031-.015l.17.071c-.21-.131-.247-.151-.109-.062.311.065.036.421.064.017-.028.4.091-.155.016-.046,0,0,.043.307.04.106-.01-.66,0-1.322,0-1.982,0-1.626.062-3.265,0-4.889-.006-.154-.176.3-.012.031.2-.318-.371.346.069-.123-.094.1-.15.155-.254.253.381-.359.042-.07.016-.041.11-.125.43-.026.033-.016.034,0,.068,0,.1,0,.491-.007.982,0,1.473,0H331.06a2.4,2.4,0,0,0,0-4.8Z"/><path class="b" d="M304.472,77.674H294.055c-.515,0-1.035-.017-1.55,0a4.739,4.739,0,0,0-4.49,3.344,9.218,9.218,0,0,0-.187,2.525v3.251c0,.815-.024,1.633,0,2.447a4.75,4.75,0,0,0,3.136,4.467c1.4.5,3.216.262,4.673.262h6.646c2.03,0,4.1.163,5.624-1.522,1.749-1.939,1.217-5.181,1.217-7.6,0-.833.027-1.672,0-2.5a4.752,4.752,0,0,0-4.652-4.672,2.4,2.4,0,1,0,0,4.8c-.551-.028.233.1-.053-.02s.315.344-.052-.023c-.186-.186.029-.206.013.033.04-.585-.1.147-.016.046-.037.045-.033-.317-.04-.105,0,.1,0,.2,0,.3v5.4c0,.306-.011.613,0,.918,0,.079,0,.16,0,.239,0,.019,0,.038,0,.057.011-.386.112-.078-.016.036.258-.231.042-.072-.041.016l.1-.153c.184-.119.2-.133.059-.044l-.092.056c.241-.092.225-.1-.046-.016,0,0,.195-.04.181-.04-.111,0-.222,0-.333,0h-7.67c-1.3,0-2.615-.045-3.917,0-.023,0-.048,0-.072,0,.432.012.042.066-.031-.015l.17.071c-.21-.131-.247-.151-.109-.062.311.065.036.421.064.017-.028.4.091-.155.016-.046,0,0,.043.307.04.106-.01-.66,0-1.322,0-1.982,0-1.626.062-3.265,0-4.889-.006-.154-.176.3-.013.031.2-.318-.371.346.069-.123-.093.1-.149.155-.253.253.381-.359.042-.07.016-.041.11-.125.43-.026.033-.016.034,0,.068,0,.1,0,.491-.007.982,0,1.473,0h10.417a2.4,2.4,0,1,0,0-4.8Z"/><path class="b" d="M277.883,77.674H267.411c-.5,0-1-.016-1.494,0a4.744,4.744,0,0,0-4.49,3.344,9.214,9.214,0,0,0-.187,2.59V86.95c0,.762-.022,1.527,0,2.289a4.725,4.725,0,0,0,2.612,4.246c1.548.736,3.527.485,5.2.485h6.579c2.049,0,4.156.177,5.689-1.522,1.75-1.939,1.218-5.181,1.218-7.6,0-.834.026-1.672,0-2.5a4.751,4.751,0,0,0-4.653-4.673,2.4,2.4,0,1,0,0,4.8c-.55-.028.234.1-.053-.02-.271-.114.316.344-.051-.023-.186-.186.029-.206.013.033.04-.584-.1.146-.016.047-.023.027-.034-.3-.04-.106,0,.1,0,.2,0,.3v5.4c0,.305-.009.612,0,.917,0,.085,0,.171,0,.256v.04c.006-.25.171-.134-.016.037.261-.239.037-.068-.041.016l.1-.153q.321-.207-.033.013c.4.024-.149-.084-.047-.016.138.091.248-.042.181-.04-.11,0-.222,0-.332,0H269.8q-1.932,0-3.863,0c-.091,0-.009.042.059.023l.105.022c-.268-.079-.273-.066-.016.041L266,89.205q-.219-.132.072.079l-.144-.144.129.161-.1-.178q.137.337.065.087c-.074-.331.007.292.021.029.035-.657,0-1.325,0-1.982,0-1.628-.025-3.259,0-4.887,0-.144-.035.145-.04.139l.055-.215c-.093.2-.1.224-.015.077l.056-.093a.453.453,0,0,1-.253.253c.087-.081.249-.3.016-.041.166-.184.3-.023.031-.016.03,0,.059,0,.088,0,.477-.006.955,0,1.433,0h10.472a2.4,2.4,0,1,0,0-4.8Z"/><path class="b" d="M304.472,54.628H294.055c-.515,0-1.035-.016-1.55,0a4.74,4.74,0,0,0-4.49,3.344,9.222,9.222,0,0,0-.187,2.526v3.251c0,.814-.024,1.632,0,2.446a4.75,4.75,0,0,0,3.136,4.467c1.4.5,3.215.263,4.672.263h6.646c2.03,0,4.1.162,5.625-1.523,1.749-1.939,1.217-5.18,1.217-7.6,0-.833.027-1.671,0-2.5a4.752,4.752,0,0,0-4.652-4.673,2.4,2.4,0,1,0,0,4.8c-.551-.027.233.1-.053-.02s.315.344-.052-.023c-.186-.186.029-.2.013.033.04-.585-.1.147-.016.047-.037.044-.033-.318-.04-.106,0,.1,0,.2,0,.3v5.4c0,.3-.011.613,0,.918,0,.079,0,.159,0,.238,0,.019,0,.038,0,.057.011-.383.112-.079-.016.037.26-.236.038-.068-.041.016l.1-.152c.184-.119.2-.133.06-.044l-.093.056c.24-.091.225-.1-.047-.016,0,0,.2-.04.181-.039-.11,0-.222,0-.332,0h-7.67c-1.3,0-2.614-.046-3.916,0h-.072c.432.011.042.066-.031-.016l.17.072c-.21-.131-.247-.152-.109-.063.311.065.036.421.064.017-.028.4.091-.155.016-.046,0,0,.043.307.04.106-.01-.66,0-1.321,0-1.982,0-1.626.062-3.265,0-4.889-.006-.154-.176.3-.013.032.2-.319-.371.345.069-.124-.093.1-.149.155-.253.253.381-.359.042-.07.016-.041.11-.124.43-.026.033-.016.034,0,.068,0,.1,0,.491-.007.982,0,1.473,0h10.417a2.4,2.4,0,1,0,0-4.8Z"/><path class="b" d="M277.884,54.628H267.467c-.516,0-1.035-.016-1.55,0a4.74,4.74,0,0,0-4.49,3.344,9.222,9.222,0,0,0-.187,2.526v3.251c0,.814-.024,1.632,0,2.446a4.75,4.75,0,0,0,3.136,4.467c1.4.5,3.215.263,4.672.263h6.646c2.03,0,4.1.162,5.624-1.523,1.749-1.939,1.218-5.18,1.218-7.6,0-.833.026-1.671,0-2.5a4.752,4.752,0,0,0-4.652-4.673,2.4,2.4,0,0,0,0,4.8c-.551-.027.233.1-.054-.02-.271-.114.316.344-.051-.023-.186-.186.029-.2.013.033.04-.585-.1.147-.016.047-.037.044-.033-.318-.04-.106,0,.1,0,.2,0,.3v5.4c0,.3-.011.613,0,.918,0,.079,0,.159,0,.238,0,.019,0,.038,0,.057.011-.383.112-.079-.016.037.26-.236.038-.068-.041.016l.1-.152c.184-.119.2-.133.059-.044l-.092.056c.24-.091.225-.1-.047-.016,0,0,.195-.04.181-.039-.11,0-.222,0-.333,0h-7.669c-1.3,0-2.614-.046-3.916,0h-.072c.432.011.042.066-.031-.016l.17.072c-.21-.131-.247-.152-.109-.063.311.065.036.421.064.017-.028.4.091-.155.016-.046,0,0,.043.307.04.106-.01-.66,0-1.321,0-1.982,0-1.626.062-3.265,0-4.889-.006-.154-.177.3-.013.032.2-.319-.371.345.069-.124-.093.1-.149.155-.253.253.381-.359.042-.07.016-.041.11-.124.43-.026.033-.016.034,0,.068,0,.1,0,.491-.007.982,0,1.473,0h10.417a2.4,2.4,0,0,0,0-4.8Z"/><path class="f" d="M8.946,212.694v93.558a3.975,3.975,0,0,0,3.98,3.981c42.846,0,110.56,0,149.721,0a3.972,3.972,0,0,0,3.978-3.975V212.7a3.983,3.983,0,0,0-3.985-3.986H12.92A3.974,3.974,0,0,0,8.946,212.694Z"/><path class="b" d="M166.628,227.028v9.946H8.946v-9.946Z"/><path class="b" d="M37.53,278.166l-.02,3.944a2.473,2.473,0,0,0,.7,1.7,2.4,2.4,0,0,0,3.394,0,2.5,2.5,0,0,0,.7-1.7l.02-3.944a2.471,2.471,0,0,0-.7-1.7,2.4,2.4,0,0,0-3.394,0,2.5,2.5,0,0,0-.7,1.7Z"/><path class="b" d="M31.176,278.133l-.02,3.945a2.473,2.473,0,0,0,.7,1.7,2.4,2.4,0,0,0,3.394,0,2.5,2.5,0,0,0,.7-1.7l.02-3.945a2.473,2.473,0,0,0-.7-1.7,2.4,2.4,0,0,0-3.394,0,2.509,2.509,0,0,0-.7,1.7Z"/><path class="b" d="M24.823,278.1l-.02,3.944a2.465,2.465,0,0,0,.7,1.7,2.4,2.4,0,0,0,3.395,0,2.507,2.507,0,0,0,.7-1.7l.02-3.944a2.473,2.473,0,0,0-.7-1.7,2.4,2.4,0,0,0-3.394,0,2.5,2.5,0,0,0-.7,1.7Z"/><path class="b" d="M18.469,278.069l-.02,3.944a2.473,2.473,0,0,0,.7,1.7,2.4,2.4,0,0,0,3.394,0,2.5,2.5,0,0,0,.7-1.7l.02-3.944a2.471,2.471,0,0,0-.7-1.7,2.4,2.4,0,0,0-3.394,0,2.5,2.5,0,0,0-.7,1.7Z"/><path class="b" d="M154.746,258.269H136.122c-3.088,0-3.093,4.8,0,4.8h18.624c3.089,0,3.094-4.8,0-4.8Z"/><path class="b" d="M126.516,258.269H107.892c-3.089,0-3.094,4.8,0,4.8h18.624c3.088,0,3.093-4.8,0-4.8Z"/><path class="b" d="M98.285,258.269H79.661c-3.088,0-3.093,4.8,0,4.8H98.285c3.089,0,3.094-4.8,0-4.8Z"/><path class="b" d="M70.055,258.269H51.431c-3.089,0-3.094,4.8,0,4.8H70.055c3.088,0,3.093-4.8,0-4.8Z"/><path class="b" d="M154.2,291.052q-2.758,3.38-5.521,6.754a2.586,2.586,0,0,0-.7,1.7,2.441,2.441,0,0,0,.7,1.7,2.415,2.415,0,0,0,1.7.7,2.34,2.34,0,0,0,1.7-.7q2.752-3.384,5.521-6.754a2.586,2.586,0,0,0,.7-1.7,2.439,2.439,0,0,0-.7-1.7,2.412,2.412,0,0,0-1.7-.7,2.341,2.341,0,0,0-1.7.7Z"/><path class="b" d="M151.652,277.41c-5.271,6.458-10.568,12.9-15.83,19.362a2.472,2.472,0,0,0,0,3.394,2.418,2.418,0,0,0,3.394,0c5.262-6.466,10.559-12.9,15.83-19.362a2.47,2.47,0,0,0,0-3.394,2.417,2.417,0,0,0-3.394,0Z"/><path class="b" d="M8.946,229.428H166.628c3.088,0,3.094-4.8,0-4.8H8.946c-3.088,0-3.093,4.8,0,4.8Z"/><path class="b" d="M8.946,239.374H166.628c3.088,0,3.094-4.8,0-4.8H8.946c-3.088,0-3.093,4.8,0,4.8Z"/><path class="b" d="M6.546,212.694v90.058c0,2.277-.3,4.718.9,6.767,2.37,4.059,7.669,3.114,11.637,3.114H158.355a29.916,29.916,0,0,0,5.609-.143,6.412,6.412,0,0,0,4.848-4.589c.577-2.212.213-4.854.213-7.124V215.138a15.757,15.757,0,0,0-.214-4.083,6.436,6.436,0,0,0-4.853-4.6,30.307,30.307,0,0,0-5.67-.143H15.065c-1.758,0-3.514-.1-5.125.745a6.527,6.527,0,0,0-3.394,5.635c-.131,3.089,4.669,3.083,4.8,0,.064-1.512,1.38-1.58,2.579-1.58H135.052c9.082,0,18.167-.081,27.248,0,1.536.013,1.925.887,1.925,2.317v90.5c0,.9.253,2.179-.138,3.006-.6,1.268-2.353.892-3.486.892H14.356c-1.22,0-2.794.162-3-1.409a25.44,25.44,0,0,1-.007-3.279V212.694C11.346,209.606,6.546,209.6,6.546,212.694Z"/><path class="b" d="M15.913,218.917l4.732,2.732a.923.923,0,0,0,1.382-.8q0-2.742,0-5.464a.92.92,0,0,0-1.383-.793l-4.73,2.731A.922.922,0,0,0,15.913,218.917Z"/><path class="g" d="M37.421,250.637H23.529a2.588,2.588,0,0,0-2.588,2.591V265.36a2.588,2.588,0,0,0,2.588,2.59H37.42a2.588,2.588,0,0,0,2.591-2.588V253.227A2.59,2.59,0,0,0,37.421,250.637Z"/><path class="b" d="M37.971,248.237H24.476a9.352,9.352,0,0,0-2.755.186,4.508,4.508,0,0,0-3.164,4c-.187,2.518-.016,5.105-.016,7.627v4.662c0,1.547.063,3.032,1.217,4.252,1.342,1.421,3.1,1.388,4.905,1.388h10.87c1.867,0,3.772.213,5.3-1.067,1.644-1.377,1.578-3.3,1.578-5.259v-9.077a14.1,14.1,0,0,0-.125-3.287,4.551,4.551,0,0,0-4.315-3.423,2.4,2.4,0,1,0,0,4.8c-.189-.011-.2-.109-.342-.188.458.257-.011.161.005-.036.042-.524-.023.674-.023.621v10.212c0,.2.075,2.249,0,2.267s.2-.362.188-.344c-.38.68.22-.228.172-.019-.027.119-3.8,0-4.125,0H23.727c.05,0-1.133.068-.613.024.2-.017.3.453.038-.006.011.019.294.3.189.339a11.139,11.139,0,0,0,0-1.89v-8.4a18.554,18.554,0,0,0,0-2.719,1.4,1.4,0,0,0,0-.215c.049.02-.077.236-.089.249q-.237.217.07-.081a.411.411,0,0,1-.207.165c-.521-.044.663.023.612.023H37.971C41.06,253.037,41.065,248.237,37.971,248.237Z"/></svg>