<svg id="b" xmlns="http://www.w3.org/2000/svg" width="243.482" height="437.543" viewBox="0 0 243.482 437.543" style="color: initial !important;"><defs><style>.f{fill:#3d8dcc;}.g{fill:#ffffff;}.h{fill:#7abee6;}.i{fill:#211715;}.j{fill:#645d5c;}.k{fill:#febe69;}</style></defs><g id="c"><g id="d"><path class="g" d="M209.469,398.425c-.689-.502-1.117-1.299-1.333-2.124-.218-.829-.23-6.593-.253-7.45,0,0-.002-.08-.006-.227-4.453.999-9.286,1.517-13.866,1.737-1.191.057-2.523.055-3.922-.011-.014.196-.023.32-.023.32-.054,2.036-.112,4.743-.153,6.118l-.004.152c1.043.025,2.086.051,2.086.051,2.036.05,6.107.844,7.571,5.117.524,1.53,2.356,2.138,3.7,1.238,2.296-1.537,5.587-3.486,7.342-4.101-.638-.461-1.127-.813-1.138-.821Z"/><path class="g" d="M163.006,394.182c-1.826-1.691-4.239-2.089-5.66-2.124,0,0,0-1.435,0-3.082,5.158-.06,10.591-.582,14.929-1.484-.003.37-.003.621-.003.621.026,1.689.515,5.544,1.626,6.989l.064.112c-1.7.879-3.761,2.138-5.347,3.2-1.344.9-3.176.292-3.7-1.238-.442-1.29-1.121-2.263-1.91-2.994Z"/><path class="g" d="M202.797,51.448c1.111-.691,2.455-.781,3.545-.542,2.372.519,3.162,1.937,3.465,2.738.904,2.397.117,6.353-1.215,8.65-.939,1.624-2.355,3.868-5.154,5.324-.786.406-2.62.916-4.411.804-.661,1.176-2.176,3.211-2.176,3.211-1.326,1.712-2.724,3.336-4.348,4.9.095,3.478.133,4.645.436,6.706.169,1.149.422,2.294.867,3.367.597,1.437,2.23,2.59,4.155,3.517-4.066,3.715-9.228,6.373-14.276,7.598-5.03,1.2-9.81,1.48-14.89.53-3.946-.74-7.847-2.816-10.437-6.111,1.388-.477,2.675-.942,3.612-1.355,1.776-.61,4.027-1.79,3.993-3.892v-1.5c-5.662-.527-10.453-2.79-14.883-6.923-5.057-4.718-6.933-11.762-7.274-19.437-.197-4.426-.306-9.23-.625-14.044,0,0-3.943-24.219,26.335-24.219,36.889,0,33.282,30.679,33.282,30.679Z"/><path class="f" d="M214.913,380.531c.126-2.69.247-5.402.363-8.133,2.177-51.315,2.62-109.523,3.727-160.21h-79.999c-.082,2.598-.184,5.825-.184,5.825-.559,30.247,5.114,149.278,5.658,167.808.037,1.269,1.004,2.25,2.255,2.466,7.289,1.258,19.005.744,26.623-1.033l7.117-.476c.106,1.331,1.075,2.45,2.384,2.709,3.806.754,7.979,1.027,11.155.874,6.199-.299,12.861-1.142,18.418-2.985,1.325-.439,2.233-1.655,2.301-3.049.062-1.261.123-2.526.182-3.797Z"/><path class="i" d="M136.819,218.013c-.186,10.25.135,20.517.413,30.763.403,14.861.935,29.719,1.5,44.574.583,15.35,1.212,30.699,1.854,46.047.497,11.874,1.01,23.747,1.489,35.621.137,3.381.275,6.762.382,10.144.058,1.85.619,3.529,2.319,4.514,1.837,1.065,4.579,1.007,6.648,1.148,5.182.352,10.43.147,15.583-.482,2.31-.282,4.611-.639,6.88-1.16,2.508-.575,1.447-4.433-1.063-3.857-4.745,1.088-9.637,1.525-14.497,1.634-2.421.054-4.847.017-7.263-.161-1.01-.074-2.021-.168-3.024-.315-.652-.096-1.397-.061-1.566-.78-.278-1.184-.089-2.687-.134-3.902-.068-1.822-.139-3.645-.212-5.467-.455-11.366-.947-22.731-1.423-34.096-.626-14.939-1.242-29.879-1.817-44.82-.572-14.844-1.112-29.689-1.541-44.538-.31-10.751-.633-21.515-.559-32.272.006-.865.016-1.731.032-2.596.047-2.575-3.953-2.575-4,0h0Z"/><path class="i" d="M172.355,284.432c.364,20.056,1.324,40.084,2.78,60.09.717,9.848,1.519,19.689,2.315,29.53.219,2.712.438,5.425.656,8.137.194,2.414-.117,5.525,1.496,7.509,1.59,1.954,4.286,2.036,6.607,2.322,2.461.303,4.952.446,7.431.357,5.225-.188,10.525-.794,15.611-2.021,2.143-.517,4.733-.951,6.214-2.732,1.597-1.92,1.33-4.585,1.44-6.932.479-10.204.869-20.411,1.203-30.62.699-21.391,1.154-42.79,1.548-64.189.389-21.13.711-42.261,1.132-63.39.049-2.471.1-4.942.152-7.412.055-2.575-3.945-2.575-4,0-.43,20.281-.747,40.564-1.105,60.846-.366,20.714-.767,41.428-1.36,62.137-.289,10.085-.623,20.169-1.031,30.25-.195,4.841-.408,9.681-.641,14.52-.038.78.105,1.74-.499,2.335-.643.634-2.007.782-2.852,1.009-2.436.653-4.923,1.129-7.421,1.473-4.861.67-9.808.988-14.698.496-1.174-.118-2.347-.275-3.504-.504-.84-.166-1.259-.324-1.39-1.212-.386-2.628-.423-5.361-.637-8.01-.785-9.736-1.586-19.472-2.32-29.212-1.425-18.901-2.483-37.821-2.956-56.772-.067-2.669-.123-5.338-.171-8.007-.047-2.571-4.047-2.579-4,0h0Z"/><path class="j" d="M144.67,25.617c-.198.62-.376,1.236-.533,1.845-1.263,4.904-1.84,12.352-1.086,18.737.153-.619.255-1.04.255-1.04.754-3.117,7.356-11.403,11.868-13.583.529-.256,1.185.135,1.367,1.011.176.846.154,1.484.068,2.085-.131.913.737,1.609,1.506,1.214,2.524-1.295,6.935-4.484,11.927-6.291,5.473-.553,10.25.154,10.25.154,1.882.893,10.599,4.55,16.451,16.765.514,1.054,4.574,4.489,6.313,4.797,1.052-.565,2.277-.625,3.285-.405,2.372.519,3.162,1.937,3.465,2.738.233.618.354,1.34.382,2.111.348-.53.545-.827.545-.827,2.681-4.056,3.499-11.685,3.961-14.947.434-3.079.37-6.218-.156-9.29-1.05-6.104-2.965-11.183-7.301-15.823,0,0-.43-.46-.86-.92-2.293-1.894-4.587-3.788-4.587-3.788-7.377-6.094-14.493-7.962-21.73-8.134-11.467-.272-20.982,3.464-27.675,10.263-.737.749-1.443,1.569-2.113,2.444-2.44,3.189-4.393,7.099-5.603,10.884Z"/><path class="i" d="M205.822,16.282c5.012,5.442,7.358,13.114,7.146,20.45-.084,2.888-.574,5.826-1.106,8.663-.562,2.997-1.261,6.154-2.988,8.718-1.442,2.141,2.022,4.145,3.454,2.019,1.912-2.838,2.768-6.354,3.391-9.673s1.214-6.808,1.259-10.192c.11-8.266-2.702-16.704-8.327-22.812-1.748-1.898-4.571.937-2.828,2.828h0Z"/><path class="i" d="M179.283,31.476c1.615.764,3.182,1.586,4.663,2.593.262.178.522.361.779.548.135.098.267.199.401.297.256.186-.136-.114.211.163.636.507,1.254,1.035,1.851,1.587,1.32,1.222,2.648,2.665,3.683,4.018,1.625,2.121,2.984,4.439,4.145,6.842.47.972,1.857,1.232,2.736.718.993-.581,1.189-1.76.718-2.736-3.26-6.745-8.32-12.771-14.958-16.387-.723-.394-1.466-.744-2.211-1.096-.976-.461-2.158-.272-2.736.718-.509.87-.263,2.273.718,2.736h0Z"/><path class="i" d="M145.235,45.69c.195-.74.519-1.315,1.05-2.192.611-1.01,1.292-1.982,2.018-2.912,1.693-2.172,3.619-4.312,5.815-5.989.383-.293.786-.567,1.198-.818.064-.039.658-.329.656-.371l-.679-.145c-.534-.334-.753-.34-.657-.02-.052.088.039.521.037.643-.025,1.726.237,3.456,2.199,3.995,1.404.386,2.627-.445,3.782-1.127,1.218-.719,2.42-1.466,3.645-2.174,3.301-1.906,6.746-3.556,10.539-4.17,1.067-.173,1.661-1.5,1.397-2.46-.312-1.135-1.39-1.57-2.46-1.397-3.609.585-7.01,2.094-10.197,3.842-1.374.754-2.714,1.567-4.056,2.375-.525.316-1.05.633-1.583.936-.549.311-.923.214.019.658,1.1.519.5.44.69.003.07-.159.03-.474.027-.646-.03-1.812-.737-3.86-2.763-4.175-1.379-.214-2.698.774-3.751,1.553-2.407,1.778-4.504,3.949-6.379,6.273-1.713,2.125-3.69,4.558-4.403,7.254-.658,2.491,3.199,3.554,3.857,1.063h0Z"/><path class="i" d="M203.205,8.745c-5.119-4.18-10.994-7.216-17.574-8.22-6.118-.934-12.527-.635-18.502,1.006-5.508,1.513-10.641,4.255-14.869,8.104-4.604,4.192-7.801,9.872-9.624,15.79-2.072,6.725-2.39,14.308-1.523,21.257.134,1.072.824,2,2,2,.977,0,2.135-.921,2-2-1.394-11.174.289-24.027,8.287-32.561,7.455-7.954,18.655-10.872,29.278-9.955,6.576.567,12.608,3.249,17.7,7.407.836.683,2.011.818,2.828,0,.705-.705.841-2.142,0-2.828h0Z"/><path class="i" d="M190.57,78.796c.074,2.075.226,4.167.659,6.202.4,1.878,1.13,3.622,2.628,4.878,2.697,2.262,6.218,3.351,9.534,4.358,1.033.314,2.179-.375,2.46-1.397.293-1.067-.36-2.145-1.397-2.46-1.432-.435-2.86-.888-4.253-1.439-.49-.194-1.132-.473-1.869-.863-.321-.17-.637-.35-.945-.543-.148-.093-.294-.189-.438-.289-.08-.056-.477-.37-.137-.09-.247-.202-.486-.413-.705-.645-.104-.11-.201-.225-.298-.341.317.382.03.014-.021-.07-.073-.12-.138-.244-.198-.371.163.347-.113-.344-.115-.348-.159-.472-.284-.955-.388-1.442-.102-.478-.18-.959-.249-1.443.049.338-.028-.217-.036-.283-.023-.194-.044-.388-.063-.582-.093-.941-.134-1.887-.168-2.832-.039-1.08-.892-2-2-2-1.054,0-2.039.916-2,2h0Z"/><path class="i" d="M163.962,86.893c-.013.216-.009.251.012.104.026-.143.018-.113-.023.089l-.049.169c.087-.18.099-.206.034-.077-.069.129-.14.252-.222.373.159-.234.031-.041-.083.069-.108.105-.216.208-.33.307.29-.251-.155.102-.189.124-.262.17-.536.321-.815.459-.041.02-.489.225-.267.129.221-.096-.221.085-.264.101-.275.103-.532.201-.805.319-.347.15.216-.085-.028.013-.597.239-1.198.467-1.804.685-2.674.96-5.409,1.758-8.053,2.798-1.005.395-1.705,1.34-1.397,2.46.263.957,1.449,1.794,2.46,1.397,2.945-1.158,6-2.013,8.96-3.131.326-.123.651-.25.973-.383.233-.096.461-.206.697-.294.131-.057.096-.039-.105.054.083-.03.166-.06.248-.092.763-.275,1.536-.618,2.218-1.061,1.633-1.059,2.799-2.606,2.832-4.611.018-1.081-.932-2-2-2-1.099,0-1.982.916-2,2h0Z"/><path class="i" d="M189.66,81.506c2.611-1.937,4.991-4.112,7.095-6.592,1.451-1.709,2.885-3.531,3.999-5.483.519-.909.244-2.228-.718-2.736-.95-.502-2.182-.253-2.736.718-.53.929-1.155,1.804-1.78,2.67-.101.14-.205.278-.305.418-.237.333.258-.322.052-.063-.441.554-.882,1.108-1.34,1.648-.933,1.1-1.918,2.156-2.962,3.152-.523.499-1.06.983-1.611,1.451-.311.264-.627.524-.946.778-.042.033-.483.376-.255.202-.169.13-.34.257-.512.384-.838.621-1.347,1.76-.718,2.736.535.829,1.838,1.384,2.736.718h0Z"/><path class="i" d="M181.607,80.814c-7.666,2.92-16.412,4.166-23.905.052-3.375-1.853-6.448-4.472-8.399-7.821-1.967-3.376-2.91-7.303-3.296-11.166-.56-5.601-.464-11.272-.828-16.89-.166-2.556-4.167-2.574-4,0,.351,5.42.299,10.876.772,16.286.393,4.492,1.338,8.975,3.455,12.991,4.076,7.73,12.641,12.593,21.213,13.189,5.508.383,10.927-.832,16.051-2.784,1.009-.384,1.703-1.348,1.397-2.46-.266-.966-1.445-1.783-2.46-1.397h0Z"/><path class="i" d="M161.013,72.503c1.524.91,3.365,1.29,5.12,1.368.887.039,1.787-.039,2.656-.219.377-.078.739-.198,1.097-.342.324-.13.644-.269.965-.406.095-.041.189-.082.284-.122-.466.195.027-.005.096-.032.973-.376,1.753-1.361,1.397-2.46-.306-.947-1.415-1.801-2.46-1.397-.306.118-.607.247-.909.374-.095.04-.19.081-.285.121-.011.005-.462.202-.182.079.247-.109-.057.021-.105.039-.089.034-.177.068-.267.099-.154.053-.31.099-.467.138-.171.042-.344.072-.517.105-.274.052.092-.024.17-.022-.08-.002-.167.017-.248.024-.363.03-.728.037-1.092.025-.176-.006-.351-.016-.526-.03-.088-.007-.176-.015-.263-.025-.064-.007-.377-.045-.062-.004s.004-.002-.06-.013c-.086-.014-.172-.03-.258-.046-.191-.037-.381-.078-.569-.126-.323-.081-.637-.185-.95-.295-.336-.118.312.154.096.045-.068-.034-.139-.063-.207-.097-.148-.072-.291-.152-.432-.236-.899-.537-2.235-.231-2.736.718-.511.966-.242,2.163.718,2.736h0Z"/><path class="i" d="M173.45,54.579c-.315-1.565.34-5.027,3.246-5.035,3.799.404,3.578,4.647,2.099,6.504-1.211,1.52-4.359,1.887-5.345-1.468Z"/><path class="i" d="M150.836,52.981c-.274-1.537.335-4.945,2.946-4.971,3.411.375,3.187,4.549,1.848,6.383-1.097,1.502-3.927,1.881-4.793-1.413Z"/><path class="i" d="M161.71,57.24c-.55.801-1.083,1.618-1.56,2.464-.302.536-.505,1.055-.553,1.672-.059.753.296,1.477.825,1.993.423.413.9.691,1.458.875.191.063.392.076.587.118.526.113,1.068.075,1.541-.202.415-.243.811-.718.919-1.195.117-.512.091-1.087-.202-1.541-.273-.424-.686-.81-1.195-.919-.23-.049-.46-.067-.682-.153l.478.202c-.127-.055-.24-.124-.35-.208l.405.313c-.096-.08-.183-.167-.265-.261l.313.405c-.026-.03-.047-.063-.064-.098l.202.478c-.023-.056-.036-.103-.046-.162l.071.532c-.003-.061-.001-.115.005-.175l-.071.532c.02-.105.051-.203.091-.302l-.202.478c.233-.521.566-1.011.871-1.491.285-.449.577-.895.878-1.333.281-.409.33-1.077.202-1.541s-.486-.967-.919-1.195c-.464-.245-1.026-.368-1.541-.202s-.887.471-1.195.919h0Z"/><path class="i" d="M203.806,53.175c.975-.561,2.077-.474,2.975-.034.552.271.529.268.943.757-.313-.369.049.128.106.213.295.445-.011-.172.047.065.268,1.077.395,1.821.257,3.085-.106.969-.489,2.408-.869,3.247-.911,2.012-2.197,3.774-4.086,4.954-.28.175-.572.325-.861.483.499-.273-.101.031-.235.074-.508.166-1.04.295-1.57.365.2-.026-.513.03-.608.033-.312.01-.63.009-.942-.024-.229-.024-.954-.234-1.21-.374-2.262-1.229-4.284,2.223-2.019,3.454s5.17,1.192,7.575.348c2.512-.882,4.524-2.795,6.023-4.945,1.435-2.058,2.368-4.364,2.707-6.854.323-2.365.178-4.908-1.386-6.828-2.078-2.551-6.075-3.08-8.866-1.475-2.231,1.283-.219,4.741,2.019,3.454h0Z"/><path class="j" d="M114.305,119.432c5.905-1.62,6.571-6.273,6.698-8.671.107-2.026-.428-7.138-1.063-10.58-.877-4.758-2.495-9.715-1.674-24.657.24-3.431.625-6.57.674-9.451.026-1.473.025-2.721.018-3.538-.059-9.406-4.826-20.371-11.486-25.337-8.473-8.058-16.416-10.25-24.468-10.272-11.112-.031-20.251,3.782-26.595,10.503-3.663,3.88-6.454,9.653-7.68,14.864-1.152,4.896-.777,10.254-.584,16.192-.01,8.327-.431,17.51-1.065,25.606-.347,4.438-1.275,8.066-1.202,12.014.083,4.507,2.267,8.518,6.586,10.445l61.841,2.883Z"/><path class="g" d="M55.468,66.517c.043-.012.086-.024.129-.036,11.336-3.19,22.408-8.661,31.06-15.779.914,3.416,2.492,7.517,3.535,9.841,1.579,3.518,6.059,9.687,10.414,11.891l4.898,2.479c.584-.363,1.168-.726,1.168-.726,1.08-.671,2.387-.759,3.446-.527,2.306.505,3.074,1.883,3.369,2.662.879,2.33.114,6.177-1.181,8.41-.913,1.579-2.289,3.76-5.011,5.176-.806.417-2.746.946-4.565.733-.17.364-.292.625-.292.625-.642,1.143-2.115,3.122-2.115,3.122-1.328,1.714-2.73,3.338-4.371,4.9.075,2.567.138,3.685.403,5.483.169,1.149.422,2.294.867,3.367,1.231,2.965,6.874,4.72,10.386,5.78-8.7,6.921-19.23,10.567-29.704,10.404-3.869-.06-7.978-.196-11.62-1.731-3.525-1.498-6.232-4.074-7.915-7.43,2.71-.933,6.1-1.999,8.016-2.844,1.953-.671,4.48-2.031,3.911-4.545-5.505-.519-10.164-2.718-14.472-6.737-4.916-4.587-6.74-11.435-7.072-18.896-.191-4.303-.297-8.973-.608-13.654l-.016-.241c2.444-.465,4.897-1.042,7.339-1.725Z"/><path class="i" d="M93.36,104.033c2.542-1.886,4.86-4.002,6.909-6.417,1.413-1.665,2.811-3.44,3.896-5.342.519-.909.244-2.228-.718-2.736-.95-.502-2.182-.253-2.736.718-.515.903-1.123,1.754-1.731,2.596-.098.136-.199.27-.296.407-.234.328.263-.33.059-.073-.428.539-.857,1.077-1.303,1.602-.907,1.069-1.865,2.096-2.88,3.064-.508.485-1.03.955-1.566,1.41-.303.257-.609.509-.92.757-.046.036-.484.376-.237.187-.165.126-.331.25-.497.373-.838.621-1.347,1.76-.718,2.736.535.829,1.838,1.384,2.736.718h0Z"/><path class="i" d="M105.629,32.947c-3.925-3.069-8.249-5.534-13.09-6.827-4.312-1.152-8.864-1.406-13.302-1.054-8.626.684-16.968,3.863-23.245,9.936-6.756,6.537-9.999,15.958-10.062,25.213-.035,5.118.247,10.216.115,15.338-.134,5.23-.389,10.457-.754,15.676-.195,2.787-.49,5.543-.87,8.31-.352,2.565-.743,5.204-.466,7.796.508,4.744,3.103,8.897,7.499,10.941.979.455,2.155.276,2.736-.718.506-.865.266-2.279-.718-2.736-3.181-1.478-5.263-4.3-5.551-7.836-.361-4.439.847-8.922,1.191-13.331.743-9.535,1.233-19.15.905-28.712-.152-4.44-.258-8.923.925-13.245,1.103-4.029,2.944-7.983,5.523-11.285,4.698-6.016,11.902-9.601,19.312-10.912,4.438-.785,9.199-.871,13.632-.002,4.927.966,9.444,3.189,13.391,6.275.85.665,1.999.829,2.828,0,.692-.692.856-2.159,0-2.828h0Z"/><path class="i" d="M85.489,103.258c-7.419,2.826-15.873,4.044-23.138.088-3.363-1.831-6.399-4.442-8.306-7.792-1.892-3.322-2.77-7.175-3.124-10.955-.501-5.349-.428-10.754-.776-16.116-.166-2.556-4.167-2.574-4,0,.335,5.161.308,10.351.723,15.505.355,4.41,1.249,8.814,3.285,12.775,3.98,7.742,12.53,12.576,21.07,13.078,5.265.31,10.433-.862,15.33-2.727,1.009-.384,1.703-1.348,1.397-2.46-.266-.966-1.445-1.783-2.46-1.397h0Z"/><path class="i" d="M84.88,51.792c1.246,4.348,2.78,8.897,5.227,12.733,2.377,3.726,5.508,7.558,9.489,9.637,2.279,1.19,4.304-2.261,2.019-3.454-3.47-1.812-6.164-5.176-8.206-8.442-2.189-3.501-3.541-7.592-4.672-11.537-.708-2.47-4.569-1.42-3.857,1.063h0Z"/><path class="i" d="M93.985,100.326c.074,2.075.226,4.167.659,6.202.4,1.878,1.13,3.622,2.628,4.878,2.697,2.262,6.218,3.351,9.534,4.358,1.033.314,2.179-.375,2.46-1.397.293-1.067-.36-2.145-1.397-2.46-1.432-.435-2.86-.888-4.253-1.439-.49-.194-1.132-.473-1.869-.863-.321-.17-.637-.35-.945-.543-.148-.093-.294-.189-.438-.289-.08-.056-.477-.37-.137-.09-.247-.202-.486-.413-.705-.645-.104-.11-.201-.225-.298-.341.317.382.03.014-.021-.07-.073-.12-.138-.244-.198-.371.163.347-.113-.344-.115-.348-.159-.472-.284-.955-.388-1.442-.102-.478-.18-.959-.249-1.443.049.338-.028-.217-.036-.283-.023-.194-.044-.388-.063-.582-.093-.941-.134-1.887-.168-2.832-.039-1.08-.892-2-2-2-1.054,0-2.039.916-2,2h0Z"/><path class="i" d="M84.867,49.595c-10.677,8.602-23.863,14.134-37.27,16.719-2.525.487-1.456,4.343,1.063,3.857,14.123-2.723,27.811-8.705,39.035-17.748.842-.678.706-2.122,0-2.828-.832-.832-1.985-.68-2.828,0h0Z"/><path class="i" d="M65.454,95.28c1.49.89,3.29,1.261,5.006,1.337.867.038,1.748-.039,2.597-.215.367-.076.719-.193,1.066-.333.319-.129.635-.265.951-.401.092-.039.183-.082.276-.118-.483.187.006.004.08-.025.5-.193.915-.44,1.195-.919.251-.429.357-1.061.202-1.541-.306-.947-1.415-1.801-2.46-1.397-.302.117-.599.244-.897.37-.093.039-.185.078-.277.118-.015.006-.457.2-.171.074.253-.111-.045.016-.095.035-.086.033-.173.066-.26.096-.15.052-.301.096-.454.134-.166.041-.334.07-.503.102-.274.052.108-.025.18-.023-.079-.001-.162.017-.241.023-.353.029-.708.036-1.062.024-.171-.005-.341-.015-.511-.029-.085-.007-.171-.015-.256-.024-.066-.007-.372-.045-.053-.003s.015,0-.051-.012c-.084-.014-.168-.029-.251-.045-.186-.036-.37-.076-.553-.122-.314-.079-.619-.179-.924-.287-.332-.117.322.158.107.049-.066-.033-.135-.061-.201-.094-.143-.07-.283-.148-.42-.23-.899-.537-2.235-.231-2.736.718-.511.966-.242,2.163.718,2.736h0Z"/><path class="i" d="M77.573,77.807c-.306-1.521.33-4.887,3.155-4.895,3.693.393,3.478,4.518,2.041,6.323-1.177,1.478-4.238,1.834-5.196-1.428Z"/><path class="i" d="M55.588,76.253c-.266-1.494.326-4.808,2.864-4.832,3.316.365,3.098,4.422,1.796,6.206-1.066,1.46-3.818,1.829-4.66-1.373Z"/><path class="i" d="M66.112,80.365c-.535.778-1.053,1.573-1.517,2.396-.299.53-.498,1.043-.546,1.653-.059.746.294,1.465.818,1.977.418.408.89.683,1.442.865.186.061.381.074.571.115.526.113,1.068.075,1.541-.202.415-.243.811-.718.919-1.195.117-.512.091-1.087-.202-1.541-.273-.424-.686-.81-1.195-.919-.224-.048-.448-.065-.663-.148l.478.202c-.124-.054-.233-.12-.34-.203l.405.313c-.094-.078-.177-.162-.258-.254l.313.405c-.025-.029-.046-.061-.063-.095l.202.478c-.022-.054-.035-.1-.044-.158l.071.532c-.003-.059-.001-.111.005-.17l-.071.532c.019-.102.049-.197.088-.293l-.202.478c.226-.506.55-.983.847-1.45.277-.437.561-.87.854-1.296.281-.409.33-1.077.202-1.541s-.486-.967-.919-1.195c-.464-.245-1.026-.368-1.541-.202s-.887.471-1.195.919h0Z"/><path class="i" d="M107.681,75.914c.948-.545,1.994-.449,2.836-.033.08.04.696.468.427.241.175.147.33.313.478.486-.323-.376.034.105.094.196.294.442-.019-.189.041.05.26,1.047.383,1.733.248,2.984-.047.433-.181,1.076-.33,1.629-.143.53-.355,1.167-.507,1.5-.893,1.966-2.105,3.642-3.953,4.796-.273.17-.557.315-.837.47.505-.279-.075.021-.215.067-.494.161-1.011.286-1.527.354.251-.033-.492.028-.576.03-.304.009-.613.008-.915-.023-.167-.017-.938-.241-1.149-.356-2.262-1.229-4.284,2.223-2.019,3.454,2.22,1.206,5.055,1.169,7.407.344,2.457-.863,4.422-2.73,5.889-4.833,1.4-2.007,2.307-4.256,2.638-6.684.316-2.318.17-4.804-1.363-6.685-2.037-2.499-5.953-3.015-8.686-1.442-2.231,1.283-.219,4.741,2.019,3.454h0Z"/><path class="h" d="M37.653,253.443c1.534-9.44,3.069-18.88,4.603-28.319-5.339-9.146-7.358-19.841-6.683-30.035h-9.154c-2.282-2.44-4.059-11.732-1.193-19.839,4.96-14.033,3.478-21.702,7.225-36.207,1.543-5.105,4.135-9.61,7.582-13.758,4.937-5.94,10.535-7.842,18.186-10.432,1.669,3.506,4.433,6.194,8.065,7.738,3.641,1.535,7.751,1.671,11.62,1.731,10.655.166,21.368-3.61,30.152-10.764,8.922,2.305,18.808,9.476,21.417,13.388,4.373,6.555,5.85,11.828,6.789,19.591.939,7.763,1.421,16.304,1.131,24.112-.22,5.918-.335,10.961-1.063,17.862-.81,7.684-3.174,19.647-11.54,20.359,6.532,38.423,13.064,76.847,19.596,115.27.481,2.831.953,5.805.018,8.52-.874,2.54-2.881,4.529-5.027,6.146-12.483,9.409-29.65,8.508-45.226,7.176-22.786-1.949-40.846-19.617-61.015-30.397l-4.098-9.149c2.871-17.664,5.743-35.328,8.614-52.992Z"/><path class="i" d="M68.377,108.424c-.013.216-.009.251.012.104.026-.143.018-.113-.023.089l-.049.169c.087-.18.099-.206.034-.077-.069.129-.14.252-.222.373.159-.234.031-.041-.083.069-.108.105-.216.208-.33.307.29-.251-.155.102-.189.124-.262.17-.536.321-.815.459-.041.02-.489.225-.267.129.221-.096-.221.085-.264.101-.275.103-.532.201-.805.319-.347.15.216-.085-.028.013-.597.239-1.198.467-1.804.685-2.674.96-5.409,1.758-8.053,2.798-1.005.395-1.705,1.34-1.397,2.46.263.957,1.449,1.794,2.46,1.397,2.945-1.158,6-2.013,8.96-3.131.326-.123.651-.25.973-.383.233-.096.461-.206.697-.294.131-.057.096-.039-.105.054.083-.03.166-.06.248-.092.763-.275,1.536-.618,2.218-1.061,1.633-1.059,2.799-2.606,2.832-4.611.018-1.081-.932-2-2-2-1.099,0-1.982.916-2,2h0Z"/><path class="i" d="M108.203,40.476c4.436,4.507,7.101,10.69,8.254,16.848,1.299,6.942-.061,14.057-.322,21.028-.202,5.387-.108,10.783.701,16.12.586,3.862,1.517,7.632,1.914,11.529.15,1.47.299,2.962.264,4.442-.026,1.093-.049,1.346-.31,2.347-.631,2.422-2.427,3.986-4.93,4.714-2.467.718-1.417,4.579,1.063,3.857,2.807-.816,5.363-2.437,6.769-5.072.973-1.824,1.379-3.902,1.41-5.958.073-4.907-1.01-9.781-1.92-14.576-.869-4.581-1.111-9.346-1.044-14.209.104-7.578,1.606-15.256.641-22.82-.981-7.693-4.167-15.496-9.661-21.078-1.809-1.838-4.637.991-2.828,2.828h0Z"/><path class="i" d="M108.263,115.68c6.166,1.813,12.186,5.264,16.954,9.574,4.227,3.822,6.759,9.626,8.037,15.287,1.665,7.376,2.052,15.196,2.196,22.734.141,7.365-.187,14.815-.824,22.154-.312,3.589-.719,7.165-1.609,10.663-.806,3.17-1.957,6.475-4.305,8.847-1.813,1.831,1.014,4.662,2.828,2.828,4.661-4.709,5.938-11.986,6.683-18.304.902-7.651,1.235-15.458,1.252-23.16.019-8.293-.466-16.791-1.982-24.957-.631-3.401-1.643-6.689-3.108-9.825-1.292-2.764-2.861-5.572-4.985-7.788-2.497-2.606-5.531-4.774-8.593-6.662-3.583-2.208-7.438-4.061-11.482-5.25-2.475-.728-3.532,3.131-1.063,3.857h0Z"/><path class="i" d="M57.687,112.924c-5.761,1.951-11.584,3.932-16.229,8.015-5.091,4.475-9.081,11.073-10.936,17.573-1.797,6.3-2.431,12.884-3.301,19.354-.418,3.106-.935,6.2-1.666,9.249-.853,3.56-2.304,6.961-3.09,10.527-.829,3.763-.922,7.646-.344,11.45.392,2.584,1.103,5.412,2.883,7.412,1.715,1.927,4.535-.91,2.828-2.828-.372-.418.198.336-.143-.183-.118-.18-.226-.366-.328-.556-.204-.379-.358-.76-.498-1.165-.419-1.209-.706-2.476-.885-3.743-.413-2.929-.334-6.004.255-8.903.675-3.32,2.038-6.474,2.883-9.757.734-2.849,1.278-5.739,1.708-8.648.887-5.996,1.463-12.021,2.784-17.948,1.433-6.429,4.337-12.374,8.851-17.228,4.386-4.717,10.344-6.751,16.29-8.764,2.425-.821,1.384-4.686-1.063-3.857h0Z"/><path class="i" d="M56.492,115.862c1.554,3.172,4.014,5.871,7.094,7.62,3.505,1.991,7.52,2.588,11.492,2.764,7.968.353,15.682-.933,22.987-4.184,4.159-1.85,7.977-4.308,11.507-7.173.839-.681.708-2.12,0-2.828-.83-.83-1.987-.683-2.828,0-5.456,4.427-11.879,7.62-18.73,9.196-3.393.781-6.844,1.115-10.324,1.061-3.554-.054-7.277-.15-10.605-1.549-3.21-1.35-5.619-3.826-7.138-6.926-1.132-2.311-4.583-.286-3.454,2.019h0Z"/><path class="g" d="M46.65,124.589c1.677-3.109,3.463-5.724,5.255-7.486,1.611-1.584,4.868-2.573,8.589-2.808-2.276,2.875-3.824,5.468-4.849,7.438-4.385,8.421-7.532,17.486-9.311,26.812-3.894,5.919-5.036,16.033-3.111,22.143-8.946,13.965-10.87,35.478-2.089,52.418-5.694,4.406-12.465,7.394-19.548,8.694-1.236.227-2.535.399-3.731.011-1.951-.634-3.182-2.668-3.45-4.701-.267-2.034.253-4.082.823-6.052,3.473-11.992,8.959-23.296,13.1-35.074,3.792-10.788,7.793-21.712,9.259-33.053,1.001-8.551,4.652-20.161,9.063-28.342Z"/><path class="i" d="M39.587,152.931c.737-6.131,2.489-12.2,4.624-17.979,1.919-5.195,4.246-10.713,7.815-15.017.844-1.018,1.677-1.889,2.902-2.438,1.73-.776,3.691-1.068,5.566-1.202l-1.414-3.414c-3.964,5.059-6.789,10.691-9.204,16.628-2.532,6.224-4.401,12.699-5.62,19.306-.464,2.516,3.39,3.595,3.857,1.063,1.164-6.306,2.921-12.491,5.28-18.456,2.19-5.537,4.828-11.007,8.516-15.713.954-1.217.505-3.551-1.414-3.414-3.466.248-7.38.908-10.003,3.393-1.988,1.883-3.544,4.324-4.897,6.683-3.451,6.018-5.923,12.679-7.762,19.352-1.014,3.68-1.789,7.416-2.245,11.207-.129,1.074,1.012,2,2,2,1.188,0,1.87-.923,2-2h0Z"/><path class="i" d="M35.587,152.931c-.934,7.058-2.893,13.954-5.107,20.705s-4.595,13.513-7.214,20.143c-2.581,6.532-5.334,12.998-7.668,19.625-1.131,3.211-2.38,6.532-2.984,9.89-.573,3.192-.237,6.732,2.298,9.044,2.865,2.612,6.88,1.583,10.249.723,3.763-.961,7.398-2.412,10.825-4.234,2.274-1.209.255-4.663-2.019-3.454-2.74,1.456-5.596,2.626-8.58,3.481-1.492.428-3.01.792-4.541,1.053-1.199.205-2.453.291-3.364-.644-2.083-2.139-.917-5.668-.195-8.124.923-3.142,1.986-6.241,3.121-9.312,2.274-6.151,4.844-12.186,7.229-18.294,2.422-6.203,4.625-12.508,6.7-18.835,2.334-7.117,4.265-14.333,5.25-21.768.142-1.073-1.021-2-2-2-1.199,0-1.858.924-2,2h0Z"/><path class="i" d="M42.771,151.099c-2.56,6.098-3.418,13.726-1.477,20.121l.202-1.541c-7.619,12.007-9.702,27.351-6.81,41.158.872,4.163,2.268,8.188,4.095,12.027,1.106,2.323,4.556.296,3.454-2.019-4.145-8.707-5.485-18.563-4.457-28.112.483-4.492,1.576-8.948,3.192-13.166.775-2.022,1.709-3.982,2.775-5.867.494-.873,1.478-1.979,1.478-3.011,0-1.073-.548-2.244-.701-3.319-.721-5.073.132-10.503,2.106-15.207.418-.996-.451-2.2-1.397-2.46-1.154-.317-2.04.397-2.46,1.397h0Z"/><path class="g" d="M34.822,169.408c-2.704-1.871-4.082-7.901-2.883-12.479,1.115-4.256,2.511-8.144,6.29-10.868,3.438-2.478,7.416-2.51,11.554-1.524.563.158,1.722.475,1.722.475,1.997.546,3.82,1.561,4.292,3.303.472,1.743-.376,3.681-2.14,4.296,1.698.936,2.701,2.101,2.505,3.842-.196,1.74-1.113,3.005-2.729,3.083.992.637,1.006,2.329.601,3.385-.405,1.056-1.401,2.743-2.754,2.647.818.881.308,2.303-.316,3.625-.428.905-1.905,2.131-3.832,2.514-5.051,1.004-9.688-.487-12.309-2.299Z"/><path class="i" d="M35.831,167.681c-1.062-.785-1.587-2.448-1.903-3.685-.436-1.706-.57-3.547-.321-5.294.471-3.313,1.839-7.141,4.164-9.594,2.964-3.127,6.995-3.667,11.051-2.742,1.339.305,2.933.615,4.095,1.379.923.607,1.646,2.35.207,2.936-1.509.616-2.097,2.722-.478,3.655.731.421,1.503.863,1.538,1.774.017.447-.198,1.369-.752,1.424-1.497.149-2.924,2.221-1.414,3.414.759.6-.334,2.606-.74,2.618-1.377.038-2.676,1.724-1.727,3.009.523.708-.532,2.075-1.248,2.537-1.304.841-3.027.92-4.533.915-2.809-.01-5.601-.776-7.939-2.348-2.142-1.44-4.147,2.024-2.019,3.454,3.659,2.459,8.347,3.294,12.671,2.692,2.138-.298,4.247-1.093,5.648-2.816,1.349-1.66,2.257-4.581.875-6.452l-1.727,3.009c4.005-.112,7.006-6.729,3.568-9.446l-1.414,3.414c2.582-.258,4.275-1.994,4.657-4.552.411-2.751-1.131-4.779-3.424-6.1l-.478,3.655c4.184-1.707,5.014-7.081,1.321-9.843-1.39-1.04-3.042-1.493-4.689-1.948-2.139-.592-4.453-.937-6.675-.782-8.908.622-14.151,9.391-14.617,17.653-.229,4.071.844,8.973,4.284,11.514.869.642,2.232.144,2.736-.718.595-1.017.154-2.093-.718-2.736Z"/><path class="i" d="M54.188,150.683c-1.507-.47-3.08-.769-4.632-1.043-1.018-.18-2.042-.333-3.069-.448-.674-.076-1.362-.145-2.04-.094-1.041.079-2.051.863-2,2,.045,1.015.883,2.085,2,2,.661-.05,1.331.015,1.987.088.2.022.399.049.599.073.251.03-.491-.07-.135-.017.116.017.232.033.347.051.457.069.912.145,1.367.226,1.512.271,3.043.564,4.512,1.022.999.311,2.226-.368,2.46-1.397.247-1.086-.327-2.127-1.397-2.46h0Z"/><path class="i" d="M53.379,157.612c-3.034-1.167-6.389-1.82-9.623-2.062-1.046-.078-2.046.976-2,2,.052,1.151.88,1.916,2,2,.364.027.728.062,1.091.105.09.011.18.023.269.033.276.032-.4-.059-.12-.016.186.029.373.054.56.084.82.13,1.636.286,2.446.466,1.46.323,2.917.709,4.314,1.247.979.376,2.237-.415,2.46-1.397.261-1.144-.349-2.057-1.397-2.46h0Z"/><path class="i" d="M52.288,163.841c-1.306-.652-2.725-1.056-4.147-1.364-1.662-.361-3.363-.607-5.061-.703-1.046-.059-2.046.962-2,2,.051,1.134.879,1.937,2,2,.361.02.722.048,1.082.084.176.017.351.037.526.058.089.011.177.022.266.033.275.032-.406-.06-.131-.017.755.116,1.508.241,2.255.403.67.145,1.336.313,1.991.515.278.086.554.178.826.28.078.029.155.063.233.09.227.078-.423-.192-.215-.092.118.057.238.109.356.167.935.467,2.209.28,2.736-.718.479-.906.282-2.237-.718-2.736h0Z"/><path class="g" d="M93.697,225.988c1.173-.327,2.56-.849,3.547-1.38,3.677-1.977,10.9-7.65,12.173-11.106.842-4.092.036-8.104-1.677-12.301-.203-.498-1.134-1.875-1.505-2.263-.743-.777-1.572-1.543-3.198-2.555-.832-.619-1.799-1.055-2.444-1.191-.636-.134-1.609-.415-2.257-.458-1.772-.118-3.553-.232-5.695-.269-3.155-.055-5.488-.102-6.761.612-.552.31-1.102,1.094-1.182,1.681-.117.861.097,1.696.759,2.243,1.13.933,2.851,1.734,4.455,2.161l1.516.403c-4.291,1.566-7.516,2.38-11.198,3.572-4.054,1.312-4.044,2.45-4.072,3.789-.023,1.071.593,2.137,2.201,2.012l-1.427.115c-2.952.179-4.443,1.236-4.352,3.353.094,2.189,2.85,2.386,4.569,2.361-.044.101-.087.208-.087.208-1.295.098-2.57,1.291-2.461,2.839.078,1.114,1.18,2.646,2.923,2.447l1.494-.011c-1.357.16-1.789.888-1.799,2.143-.006.799.519,1.9,1.254,2.214,1.4.598,3.171.505,4.646.392,3.681-.281,6.596-.549,10.043-.872.171-.041.35-.087.535-.139Z"/><path class="i" d="M91.985,199.233c-2.726,1.028-5.497,1.906-8.286,2.743-1.253.376-2.506.751-3.751,1.152s-2.585.842-3.665,1.612c-1.484,1.057-2.207,2.54-2.122,4.364.066,1.419.762,2.772,2.072,3.415,1.374.674,2.879.348,4.325.149,3.21-.44,6.384-1.118,9.546-1.818,1.055-.234,1.673-1.457,1.397-2.46-.299-1.087-1.402-1.631-2.46-1.397-2.458.544-4.922,1.071-7.406,1.49-1.083.183-1.887.303-2.84.408-.232.026-.461.041-.693.056.245-.016-.182.033-.138-.018.006-.007.181.079.17.107-.002.004.026.088-.071-.07.007.011.176.194.135.211l.027.083-.053-.166c-.043-.201-.051-.228-.025-.081.015.12.02.12.014.001.001-.226.027-.455.023-.679-.006-.339-.051.486-.017.15.008-.079.13-.491.015-.137-.113.346.016-.059.094-.133-.209.2-.205.232-.007.035.138-.137.293-.238.034-.057.193-.134.39-.259.596-.373,1.739-.958,4.095-1.455,6.106-2.06,2.708-.814,5.399-1.673,8.046-2.671,1.01-.381,1.702-1.35,1.397-2.46-.266-.969-1.444-1.78-2.46-1.397h0Z"/><path class="i" d="M76.932,209.053c-2.123.151-4.447.661-5.661,2.596-1.148,1.832-.893,4.472.835,5.836,1.433,1.131,3.367,1.311,5.135,1.28,1.802-.032,3.606-.181,5.402-.325,2.365-.19,4.731-.408,7.085-.707,1.071-.136,2-.822,2-2,0-.975-.921-2.137-2-2-4.078.518-8.223.932-12.335,1.029-.392.009-.784.011-1.175-.009-.185-.009-.369-.024-.553-.042.417.04-.118-.022-.208-.041-.239-.05-.476-.111-.705-.194.319.115-.033-.034-.151-.095-.19-.127-.187-.123.008.011l-.114-.117c.141.192.152.192.032-.001.088.217.098.211.029-.017l.025.149c-.006-.128-.005-.256.001-.385-.004.413.022-.052.042-.164.075-.218.068-.212-.021.019.049-.096.105-.188.166-.276-.374.337.109-.066.128-.077-.373.235.186-.082.263-.12.122-.059.112-.056-.031.009.131-.048.263-.091.398-.129.512-.147.913-.195,1.407-.23,1.078-.077,2-.864,2-2,0-1.023-.917-2.077-2-2h0Z"/><path class="i" d="M90.34,219.294c-3.375.384-6.755.7-10.149.859-.74.035-1.48.064-2.221.091-.224.008-.447.015-.67.032l-.216-.002c.154.025.163.022.026-.01-.19-.035.131.114-.147-.061-.177-.117-.211-.138-.101-.063.105.077.081.047-.074-.091-.168-.315.036.087-.069-.097-.094-.164-.145-.333-.058-.063-.036-.101-.065-.204-.088-.309l.028.233c-.088-.108-.013-.243.018-.349-.067.227.044-.111.1-.194.074-.115.074-.118,0-.007l.145-.146c-.22.176.233-.138.261-.15-.315.14.365-.045-.063.006,1.073-.126,2-.829,2-2,0-.983-.92-2.127-2-2-2.734.322-4.935,2.645-4.374,5.519.458,2.344,2.619,3.876,4.947,3.764,4.252-.206,8.471-.481,12.704-.963,1.073-.122,2-.832,2-2,0-.986-.92-2.123-2-2h0Z"/><path class="i" d="M90.444,199.233c-1.056-.3-2.85-.756-3.573-1.646-.594-.732.355-.941.965-1.038,2.574-.411,5.418-.104,8.005.033,1.227.065,2.41.12,3.607.399,1.401.326,2.494,1.003,3.659,1.848,1.693,1.227,2.7,2.731,3.38,4.694.974,2.814,1.572,5.814,1.121,8.793-.085.559-.041.543-.278.951-.208.358-.427.709-.675,1.041-.618.826-1.356,1.574-2.094,2.293-3.028,2.953-6.73,6.012-10.825,7.291-1.427.446-2.971.461-4.455.595-1.739.156-3.479.304-5.219.441-1.335.105-3.03.439-4.33-.003-.561-.191-.403-.242-.502-.833-.003-.017-.017.017-.016.021-.061.096-.15.161-.269.195.197-.062.398-.105.604-.127,1.067-.173,1.661-1.5,1.397-2.46-.312-1.135-1.39-1.57-2.46-1.397-3.623.586-4.244,5.304-1.692,7.547,1.384,1.217,3.63,1.272,5.37,1.192,1.953-.09,3.906-.292,5.853-.462,1.973-.173,4.107-.158,6.031-.631,1.633-.401,3.264-1.079,4.72-1.918,2.501-1.442,4.836-3.243,7.008-5.137,1.968-1.716,4.135-3.71,5.252-6.117.776-1.671.801-3.845.694-5.658-.12-2.042-.532-4.068-1.156-6.013-1.033-3.219-2.543-5.637-5.286-7.639-1.477-1.078-2.979-1.943-4.767-2.362-1.823-.427-3.675-.501-5.54-.584-2.127-.095-4.291-.191-6.418-.056-1.662.106-3.411.371-4.622,1.623-1.516,1.567-1.701,4.156-.302,5.855,1.355,1.646,3.76,2.564,5.751,3.129,2.481.704,3.54-3.155,1.063-3.857h0Z"/><path class="g" d="M124.475,199.184l-6.078-9.052c-2.997-4.292-4.563-7.59-5.569-13.531-.295-1.738-.506-5.938-.422-7.699.272-5.679,1.526-14.628,3.48-25.775,2.041-10.222,5.643-21.485,12.086-30.46,6.443-8.975,14.044-15.673,25.863-19.814,1.378-.483,2.729-.947,4.047-1.397,2.553,3.702,6.706,6.002,10.916,6.795,5.074.95,9.86.673,14.886-.529,5.403-1.312,10.939-4.258,15.117-8.391,17.877,6.073,30.707,15.074,37.082,31.1,6.84,17.195,6.626,41.042,3.447,59.273-.739,4.24-3.581,11.063-5.642,14.841-2.685,4.922-7.709,10.558-12.9,14.937-3.905,3.293-6.266,6.355-11.433,4.23l-84.881-14.528Z"/><path class="g" d="M152.163,421.766c-3.299.975-10.333,2.28-14.063,1.667-7.048-1.16-9.033-4.286-9.766-9.419-.403-2.823,1.648-6.089,3.965-7.899,2.66-2.077,9.308-5.02,12.783-7.254,3.875-2.491,5.461-6.752,12.263-6.802,2.036.05,6.107.844,7.571,5.117.524,1.53,2.356,2.138,3.7,1.238,2.396-1.604,5.875-3.657,7.566-4.179,2.081,1.68,2.759,7.157,2.888,11.187.066,2.06-.983,3.996-2.766,5.029-2.315,1.342-4.698,2.646-6.897,3.318-6.794,2.073-10.663,5.916-16.851,7.877-.124.039-.255.079-.392.12Z"/><path class="g" d="M187.996,426.315c-.26.092-.523.18-.791.265-3.1.983-8.582,1.845-12.467,1.206-7.048-1.16-10.389-4.621-11.122-9.754-.403-2.823,3.004-5.755,5.322-7.564,2.66-2.077,7.32-4.44,10.794-6.674,3.875-2.491,5.461-6.752,12.263-6.802,2.036.05,6.107.844,7.571,5.117.524,1.53,2.356,2.138,3.7,1.238,2.396-1.604,5.875-3.657,7.566-4.179,2.081,1.68,2.759,7.157,2.888,11.187.066,2.06-.983,3.996-2.766,5.029-2.315,1.342-4.698,2.646-6.897,3.318-6.5,1.984-10.323,5.586-16.06,7.612Z"/><path class="i" d="M151.632,419.837c-2.833.822-5.783,1.376-8.721,1.632-2.845.248-5.758.121-8.397-1.096-2.056-.948-3.206-2.473-3.786-4.578-.333-1.209-.613-2.45-.275-3.685.424-1.55,1.41-2.914,2.576-3.996,2.093-1.941,5.026-3.141,7.529-4.451,2.625-1.374,5.323-2.693,7.583-4.637,1.766-1.519,3.305-3.437,5.526-4.321s4.658-.937,6.668.054c1.291.636,2.105,1.636,2.652,2.947.746,1.788,2.16,3.078,4.188,3.125,1.952.045,3.573-1.456,5.156-2.406,1.388-.833,2.836-1.752,4.381-2.263l-1.946-.514c.859.751,1.218,2.006,1.504,3.147.401,1.599.597,3.235.71,4.877.097,1.41.293,2.877-.602,4.087-1.053,1.423-3.234,2.218-4.782,2.975-1.738.85-3.6,1.328-5.387,2.057-1.706.696-3.352,1.504-4.966,2.39-3.137,1.723-6.166,3.601-9.613,4.655-2.455.75-1.408,4.613,1.063,3.857,5.372-1.642,9.79-5.159,14.97-7.202,5.003-1.974,12.688-3.742,13.359-10.173.265-2.54-.206-5.424-.738-7.904-.425-1.98-1.2-4.799-3.095-5.907-1.126-.658-2.47.119-3.505.613-1.216.58-2.388,1.257-3.54,1.953-.55.332-1.095.672-1.634,1.019-.28.18-.959.801-1.277.756-.694-.099-.88-1.469-1.169-1.982-2.239-3.977-6.923-5.246-11.178-4.597-2.277.348-4.287,1.357-6.078,2.775-1.419,1.123-2.609,2.515-4.048,3.612-3.764,2.871-8.457,4.413-12.42,6.991-2.118,1.378-3.932,3.234-5.027,5.534-1.141,2.395-1.169,4.752-.544,7.292,2.808,11.4,17.291,9.726,25.925,7.221,2.467-.716,1.418-4.577-1.063-3.857Z"/><path class="i" d="M191.913,396.789c.06-2.039.099-4.079.153-6.118.028-1.047-.94-2.047-2-2-1.107.05-1.97.879-2,2-.054,2.039-.093,4.079-.153,6.118-.031,1.047.942,2.047,2,2,1.11-.05,1.967-.879,2-2h0Z"/><path class="i" d="M170.272,388.112c.026,1.377.215,2.768.478,4.118.129.662.287,1.321.508,1.959.228.661.49,1.357.914,1.921.325.433.653.77,1.195.919.479.132,1.116.072,1.541-.202.427-.275.803-.685.919-1.195.112-.49.114-1.12-.202-1.541-.202-.27-.343-.563-.489-.866.333.692.031.055-.036-.141-.072-.211-.136-.424-.196-.638-.239-.86-.398-1.741-.518-2.625l.071.532c-.098-.743-.173-1.492-.187-2.241-.019-1.045-.906-2.049-2-2-1.067.048-2.021.879-2,2h0Z"/><path class="i" d="M153.079,388.644c.119.568.218,1.14.296,1.716l-.071-.532c.077.576.133,1.153.168,1.733.033.532.201,1.029.586,1.414.347.347.916.608,1.414.586.517-.023,1.054-.193,1.414-.586.346-.377.618-.885.586-1.414-.082-1.335-.261-2.671-.536-3.981-.099-.473-.512-.957-.919-1.195-.429-.251-1.061-.357-1.541-.202-.484.157-.951.457-1.195.919-.26.493-.317.993-.202,1.541h0Z"/><path class="i" d="M187.464,424.386c-5.446,1.875-12.442,2.692-17.658-.281-1.884-1.073-3.254-2.704-3.872-4.794-.33-1.118-.516-2.033.094-3.084.795-1.37,2.035-2.467,3.238-3.472,4.637-3.874,10.496-5.89,14.914-10.069,1.707-1.615,3.37-3.008,5.73-3.504,2.073-.436,4.142-.265,5.912,1.006,1.3.933,1.488,2.224,2.292,3.492.963,1.517,2.774,2.311,4.538,2.005,1.699-.294,3.209-1.664,4.666-2.525,1.286-.761,2.62-1.591,4.045-2.063l-1.946-.514c1.835,1.603,2.01,5.337,2.188,7.661.106,1.383.355,2.903-.389,4.154-.873,1.467-2.903,2.219-4.354,2.962-1.753.898-3.583,1.425-5.411,2.131-1.671.646-3.293,1.409-4.872,2.254-3.009,1.611-5.89,3.475-9.114,4.642-2.402.869-1.365,4.736,1.063,3.857,4.991-1.806,9.238-5.099,14.186-6.972,2.845-1.077,5.559-2.067,8.224-3.573,2.496-1.411,4.361-3.298,4.714-6.269.283-2.382-.145-5.034-.576-7.377-.383-2.078-.999-4.408-2.496-5.985-1.824-1.92-4.613.11-6.442,1.151-1.063.605-2.106,1.243-3.132,1.908-.44.285-1.027.957-1.511.451-.37-.387-.511-1.3-.78-1.777s-.598-.924-.948-1.346c-.696-.84-1.565-1.557-2.521-2.086-1.541-.853-3.319-1.309-5.077-1.37-2.295-.08-4.682.483-6.693,1.59-1.665.917-3.044,2.255-4.417,3.547-3.501,3.296-8.114,5.101-12.046,7.814-2.093,1.444-4.132,3.119-5.678,5.15-1.577,2.074-2.022,4.212-1.404,6.735,2.789,11.377,17.681,11.478,26.596,8.41,2.42-.833,1.38-4.698-1.063-3.857Z"/><path class="i" d="M40.851,221.374c-3.568,21.951-7.136,43.903-10.705,65.854-1.012,6.225-2.024,12.45-3.036,18.675-.173,1.065.277,2.152,1.397,2.46.954.262,2.286-.325,2.46-1.397,3.568-21.951,7.136-43.903,10.705-65.854,1.012-6.225,2.024-12.45,3.036-18.675.173-1.065-.277-2.152-1.397-2.46-.954-.262-2.286.325-2.46,1.397h0Z"/><path class="i" d="M194.278,89.974c9.188,2.814,18.431,6.53,25.987,12.609,7.232,5.818,12.258,13.48,15.091,22.293,3.404,10.588,4.309,21.895,4.077,32.962-.118,5.624-.542,11.256-1.323,16.828-.701,5-1.908,9.647-3.934,14.286-2.462,5.637-5.852,10.44-10.169,14.825-2.292,2.328-4.774,4.477-7.271,6.582-.897.757-1.879,1.531-3.017,1.878-1.318.402-2.588.033-3.832-.453-1.007-.393-2.195.432-2.46,1.397-.311,1.132.387,2.066,1.397,2.46,2.637,1.028,5.363,1.017,7.87-.36,2.407-1.322,4.472-3.455,6.522-5.256,4.694-4.124,9.183-8.957,12.2-14.469,2.442-4.462,4.573-9.459,5.668-14.438,1.223-5.563,1.726-11.397,2.087-17.072.756-11.91.236-24.139-2.68-35.752-2.498-9.948-7.141-19.178-14.715-26.221-8.514-7.917-19.447-12.591-30.433-15.955-2.467-.755-3.522,3.104-1.063,3.857h0Z"/><path class="i" d="M163.574,87.394c-8.419,2.939-16.99,5.4-24.276,10.744-6.537,4.795-12.014,11.158-16.043,18.182-4.565,7.959-7.434,16.912-9.218,25.881-1.656,8.329-2.985,16.915-3.555,25.395-.251,3.736-.024,7.576.737,11.243.937,4.514,2.833,8.528,5.451,12.302,1.457,2.101,4.926.103,3.454-2.019-2.11-3.04-3.782-6.171-4.69-9.777-.825-3.275-1.116-6.543-1.043-9.997.16-7.535,1.626-15.148,2.882-22.555,2.794-16.474,9.01-32.821,22.2-43.761,3.227-2.676,6.868-4.853,10.682-6.58,4.662-2.11,9.655-3.517,14.481-5.201,2.415-.843,1.376-4.709-1.063-3.857h0Z"/><path class="i" d="M135.518,163.357v24.156c0,2.574,4,2.578,4,0v-24.156c0-2.574-4-2.578-4,0h0Z"/><path class="i" d="M210.831,155.942c-.302,5.945-1.229,11.851-3.677,17.319-2.322,5.187-6.248,9.573-9.772,13.974-.674.842-.823,2.005,0,2.828.699.699,2.15.848,2.828,0,3.806-4.754,8.094-9.499,10.55-15.129,2.642-6.057,3.736-12.415,4.071-18.992.131-2.573-3.87-2.566-4,0h0Z"/><path class="i" d="M156.128,92.471c4.986,6.954,13.584,8.936,21.744,8.216,8.366-.737,16.287-4.05,22.337-9.942,1.847-1.799-.982-4.626-2.828-2.828-5.14,5.005-11.927,8.005-19.047,8.726-6.686.677-14.54-.317-18.751-6.192-.628-.877-1.743-1.299-2.736-.718-.866.507-1.35,1.854-.718,2.736h0Z"/><path class="g" d="M175.856,204.157h-34.457c-.403,0,0,8.031,0,8.031h42.821l-.102-8.031h-8.263Z"/><path class="i" d="M205.883,388.851c.041,1.621.034,3.243.08,4.863.022.77.036,1.547.125,2.312.198,1.7,1.021,3.095,2.382,4.133.835.637,2.274.157,2.736-.718.558-1.057.174-2.056-.718-2.736.398.304-.012-.067-.092-.144-.095-.11-.067-.074.081.109-.057-.083-.111-.168-.162-.255l-.073-.133c-.097-.201-.093-.18.01.064-.066-.066-.123-.343-.149-.431-.073-.252-.063-.668-.016.111-.007-.118-.025-.236-.035-.354-.065-.792-.082-1.588-.102-2.382-.037-1.48-.032-2.96-.069-4.44-.026-1.045-.901-2.049-2-2-1.061.048-2.028.88-2,2h0Z"/><g id="e"><path class="g" d="M26.559,354.764c-1.546-4.595-2.55-9.69-2.712-15.006-.121-3.724.205-8.601.605-12.177.233-2.105,1.787-3.703,3.658-3.777,4.754-.202,10.088-.333,15.689-.365,2.4-3.321,5.352-7.406,5.352-7.406,3.041-4.533,6.177-9.01,9.388-13.421l-3.424-7.554s-2.556-5.631-3.476-8.145c-4.265-11.655-2.117-23.702,7.083-33.144,2.253-2.312,5.133-4.212,8.352-5.643,0-3.22,0-5.119,0-5.119,14.062-10.074,35.688-11.261,60.813-2.623,7.561,2.599,20.096,10.494,26.075,20.568l4.7,5.532c5.256,12.755,8.073,26.831,3.477,40.289-3.907,11.442-9.555,22.454-15.132,33.161-5.603,10.757-11.92,21.142-18.899,31.061-4.445,6.318-9.68,13.133-16.267,17.354l-13.166,3.322c-4.244.529-6.537,1.22-11.703,1.04-5.333-.18-10.686-.487-15.944-1.576-10.574-2.19-19.947-6.39-28.938-13.912-4.84-4.116-8.582-8.464-11.449-13.394-1.568-2.692-2.967-5.747-4.082-9.063Z"/><path class="g" d="M32.951,315.598l-4.841.364v7.842c17.498-.743,42.858-.523,60.449,1.987,1.763.252,4.515,1.343,6.06,2.243,2.362,1.376,4.68,2.905,6.693,5.045,5.401,5.744,13.009,14.294,17.966,20.211,1.396-2.823,2.82-5.701,4.264-8.62-5.655-6.775-10.572-12.241-16.255-18.284-2.013-2.14-4.643-4.313-6.935-5.801-1.603-1.041-4.642-2.267-6.401-2.545-17.997-2.846-43.315-3.199-60.813-2.456l-.186.014Z"/><path class="i" d="M56.808,301.602c-3.027,4.159-5.979,8.372-8.85,12.64-.585.87-.196,2.254.718,2.736,1.009.533,2.112.211,2.736-.718,2.871-4.268,5.823-8.481,8.85-12.64.618-.849.172-2.266-.718-2.736-1.039-.549-2.077-.188-2.736.718h0Z"/><path class="i" d="M33.137,317.584c12.38-.519,24.801-.465,37.175.174,6.189.32,12.375.794,18.525,1.563,2.71.339,5.409.629,7.953,1.68,2.85,1.177,5.325,3.18,7.553,5.275,2.86,2.689,5.455,5.714,8.084,8.626,2.702,2.994,5.354,6.032,7.96,9.11,1.666,1.967,4.483-.874,2.828-2.828-4.773-5.636-9.665-11.212-14.805-16.517-4.363-4.503-9.44-7.912-15.715-8.826-12.82-1.866-25.83-2.447-38.773-2.572-6.929-.067-13.861.025-20.784.316-2.565.108-2.578,4.108,0,4h0Z"/><path class="k" d="M158.663,266.482l-4.7-5.532c-5.979-10.074-18.514-17.969-26.075-20.568-25.125-8.638-46.751-7.451-60.813,2.623v5.122c5.772-2.571,12.636-3.633,18.924-2.872,6.042.732,12.421,2.488,16.627,4.741,11.144,5.969,14.433,9.184,22.355,20.269,4.55,6.367,8.989,17.063,12.347,25.953,0,0,3.195,9.696,4.062,12.326-7.516,15.226-15.132,30.641-22.109,44.743l-.96-1.134c-4.94-5.836-11.944-13.689-17.009-19.075-2.013-2.14-4.331-3.67-6.693-5.045-1.545-.9-4.297-1.991-6.06-2.243-17.591-2.51-42.951-2.73-60.449-1.987-1.871.074-3.425,1.672-3.658,3.777-.4,3.576-.726,8.453-.605,12.177.279,9.152,3.053,17.647,6.795,24.069,2.867,4.93,6.609,9.279,11.449,13.394,8.991,7.522,18.365,11.722,28.938,13.912,5.259,1.09,10.611,1.397,15.944,1.576,5.166.18,7.459-.511,11.703-1.04l13.166-3.322c6.588-4.222,11.822-11.036,16.267-17.354,6.979-9.92,13.296-20.304,18.899-31.061,5.577-10.708,11.225-21.719,15.132-33.161,4.596-13.458,1.778-27.534-3.477-40.289l-4.7-5.532"/><path class="i" d="M92.227,409.673c2.574,0,2.578-4,0-4s-2.578,4,0,4h0Z"/><path class="i" d="M139.256,295.687c-2.139-5.652-4.393-11.278-7.02-16.724-2.335-4.84-5.113-9.258-8.334-13.551-2.585-3.446-5.306-6.818-8.609-9.608-3.35-2.831-7.119-5.076-10.965-7.159-5.218-2.826-11.056-4.393-16.912-5.202-5.476-.756-11.019-.425-16.343,1.11-4.978,1.435-9.817,3.882-13.521,7.555-3.988,3.955-7.074,8.901-8.697,14.286-1.756,5.83-1.69,12.108-.121,17.97,1.084,4.049,2.927,7.897,4.653,11.704.446.984,1.873,1.223,2.736.718,1.011-.592,1.165-1.749.718-2.736-1.257-2.771-2.563-5.554-3.546-8.437-1.594-4.673-2.247-9.74-1.411-14.636,1.677-9.826,8.478-18.358,17.869-21.791,4.7-1.718,9.734-2.447,14.728-2.077,5.325.395,10.995,1.705,15.844,3.971,3.837,1.794,7.679,4.056,11.034,6.652,2.922,2.261,5.417,5.008,7.704,7.895,3.44,4.344,6.496,8.889,8.98,13.848,2.805,5.6,5.142,11.422,7.357,17.276.382,1.01,1.349,1.702,2.46,1.397.968-.266,1.781-1.445,1.397-2.46h0Z"/><path class="i" d="M156.734,267.014c3.304,8.068,5.719,16.638,5.72,25.415.001,9.09-3.278,17.452-6.907,25.651-3.706,8.37-7.907,16.55-12.26,24.6-4.308,7.967-9.011,15.72-14.087,23.221-5.125,7.573-10.571,15.652-18.368,20.721-2.15,1.398-.148,4.862,2.019,3.454,7.162-4.656,12.414-11.55,17.256-18.459,5.425-7.739,10.447-15.76,15.043-24.018,4.561-8.197,8.872-16.589,12.778-25.118,3.88-8.473,7.744-17.273,8.409-26.676.724-10.237-1.893-20.446-5.745-29.854-.409-.999-1.329-1.708-2.46-1.397-.946.26-1.809,1.455-1.397,2.46h0Z"/><path class="g" d="M92.227,407.673c12.57-24.825,79.467-160.427,92.021-186.337l8.215,4.07c-12.28,25.344-77.716,157.984-90.011,182.266"/><path class="g" d="M166.755,408.132c-8.641-18.011-17.219-40.453-30.851-67.792-2.078,4.203-4.124,8.34-6.12,12.373,12.394,25.385,20.532,46.404,28.709,63.457"/><path class="i" d="M68.084,244.732c9.536-6.773,21.4-8.676,32.876-7.994,7.248.43,14.407,1.893,21.358,3.958,5.514,1.637,10.519,3.754,15.343,6.914,5.701,3.736,11.036,8.466,14.575,14.35,1.325,2.203,4.785.195,3.454-2.019-3.406-5.662-8.29-10.283-13.61-14.132-4.686-3.39-9.778-6.09-15.274-7.898-13.623-4.482-28.502-6.914-42.735-4.136-6.42,1.253-12.658,3.706-18.005,7.504-.879.625-1.297,1.745-.718,2.736.509.869,1.851,1.346,2.736.718h0Z"/><path class="i" d="M182.522,220.327c-4.227,8.724-8.507,17.422-12.781,26.123-6.779,13.803-13.571,27.599-20.37,41.392-7.666,15.554-15.341,31.104-23.024,46.649-6.956,14.074-13.918,28.145-20.898,42.208-4.631,9.33-9.256,18.664-13.941,27.967-.335.666-.671,1.331-1.008,1.996-1.16,2.291,2.29,4.319,3.454,2.019,4.31-8.513,8.543-17.066,12.788-25.611,6.806-13.702,13.593-27.414,20.374-41.129,7.684-15.541,15.358-31.086,23.024-46.635,6.973-14.143,13.94-28.288,20.894-42.44,4.657-9.477,9.316-18.952,13.934-28.448.336-.691.672-1.382,1.007-2.073,1.118-2.307-2.33-4.337-3.454-2.019h0Z"/><path class="i" d="M190.737,224.397c-4.148,8.561-8.348,17.096-12.542,25.635-6.61,13.459-13.233,26.911-19.862,40.36-7.494,15.205-14.997,30.407-22.508,45.604-6.82,13.799-13.646,27.595-20.489,41.383-4.534,9.136-9.063,18.274-13.65,27.383-.319.634-.639,1.268-.96,1.902-1.16,2.291,2.29,4.319,3.454,2.019,4.229-8.354,8.384-16.747,12.549-25.133,6.636-13.361,13.254-26.731,19.866-40.103,7.511-15.192,15.014-30.389,22.508-45.589,6.837-13.866,13.668-27.736,20.486-41.611,4.56-9.279,9.122-18.557,13.644-27.855.32-.658.64-1.317.959-1.975,1.118-2.307-2.33-4.337-3.454-2.019h0Z"/><path class="i" d="M134.323,341.637c8.964,18.023,16.788,36.544,24.943,54.936,1.868,4.213,3.771,8.411,5.763,12.568,1.112,2.321,4.562.294,3.454-2.019-7.91-16.51-14.716-33.53-22.391-50.149-2.69-5.824-5.457-11.611-8.314-17.355-1.146-2.305-4.598-.281-3.454,2.019h0Z"/><path class="i" d="M128.723,355.082c8.053,16.617,15.203,33.627,22.709,50.492,1.731,3.89,3.496,7.766,5.335,11.606,1.111,2.321,4.561.294,3.454-2.019-7.306-15.258-13.647-30.964-20.656-46.359-2.401-5.275-4.86-10.523-7.388-15.738-1.122-2.316-4.573-.29-3.454,2.019h0Z"/><path class="i" d="M31.774,368.619c-5.627,8.28-11.07,16.682-16.348,25.188-1.361,2.193,2.098,4.204,3.454,2.019,5.278-8.506,10.722-16.908,16.348-25.188,1.451-2.135-2.014-4.138-3.454-2.019h0Z"/><path class="i" d="M34.601,381.548c-3.104,4.462-6.093,9.004-8.954,13.626-.569.919-.198,2.201.718,2.736.955.559,2.166.203,2.736-.718,2.861-4.622,5.85-9.164,8.954-13.626.617-.887.163-2.222-.718-2.736-.996-.582-2.118-.172-2.736.718h0Z"/><path class="i" d="M109.916,222.048c-3.562,3.516-7.116,7.044-10.475,10.756-.702.776-.823,2.073,0,2.828.766.703,2.079.829,2.828,0,3.359-3.712,6.913-7.241,10.475-10.756.746-.736.792-2.101,0-2.828-.803-.737-2.033-.785-2.828,0h0Z"/><path class="j" d="M162.613,401.514c-7.191,1.62-10.741,9.047-9.079,16.428,1.86,8.259,8.219,12.802,15.304,11.207,7.358-1.657,10.87-8.48,9.021-16.685-1.674-7.432-8.08-12.564-15.246-10.95Z"/><path class="j" d="M101.702,405.255c-7.818-1.39-14.441,4.507-15.868,12.532-1.596,8.978,2.825,16.143,10.527,17.512,7.999,1.422,14.332-3.89,15.918-12.811,1.436-8.079-2.787-15.848-10.578-17.233Z"/><path class="i" d="M162.082,399.586c-6.481,1.555-10.541,7.342-10.924,13.833-.369,6.256,2.703,13.269,8.334,16.359,5.324,2.921,12.4,1.903,16.711-2.383,4.518-4.491,5.09-11.785,2.97-17.551-2.617-7.119-9.428-11.871-17.091-10.258-2.518.53-1.452,4.387,1.063,3.857,10.411-2.191,16.864,12.301,11.151,20.069-2.571,3.496-7.6,4.845-11.629,3.348-4.471-1.661-7.106-6.647-7.481-11.197-.455-5.521,2.332-10.87,7.959-12.22,2.502-.6,1.443-4.458-1.063-3.857Z"/><path class="g" d="M164.698,410.768c-2.375.535-3.548,2.988-2.999,5.427.614,2.728,2.715,4.229,5.055,3.702,2.43-.547,3.59-2.801,2.98-5.511-.553-2.455-2.669-4.15-5.036-3.617Z"/><path class="i" d="M164.166,408.839c-2.747.663-4.449,3.155-4.593,5.894-.132,2.509,1.172,5.291,3.414,6.525,2.29,1.26,5.322.854,7.17-1.017,1.806-1.827,2.168-4.782,1.281-7.136-.553-1.467-1.475-2.737-2.822-3.573s-2.924-1.012-4.45-.693c-1.026.215-1.715,1.477-1.397,2.46.351,1.084,1.361,1.627,2.46,1.397l.124-.026c.219-.037.165-.031-.162.018.034.015.221-.015.243-.016.12-.004.24.005.36.004.187-.001.199.113-.18-.034.172.067.388.076.567.133.058.018.409.166.087.021-.336-.152.12.068.178.101.068.038.134.078.199.12l.097.064c.17.122.129.087-.122-.103.075.131.286.249.393.36.07.072.134.148.202.221.283.301-.199-.3-.052-.07.123.192.25.377.356.579.025.047.122.325.164.341-.041-.016-.161-.461-.061-.121.062.21.132.413.181.627.025.111.041.225.067.336.066.29-.044-.515-.008-.07.021.254.035.508.027.763-.003.082-.009.163-.013.245-.02.42.092-.381.021-.115-.045.168-.065.343-.112.512-.031.11-.07.216-.105.324-.098.307.049-.144.073-.168-.123.121-.23.417-.326.571-.2.323.27-.268.081-.104-.066.058-.121.137-.183.2-.051.052-.104.102-.158.15l-.082.072c-.16.131-.112.094.144-.111-.141.033-.356.216-.481.289-.158.092-.209-.002.162-.058-.128.019-.268.099-.394.137-.155.046-.392.046-.53.124l.3-.039c-.076.009-.153.015-.229.019-.075.004-.151.006-.227.006-.112,0-.223-.01-.335-.014-.202-.008-.135-.117.204.029-.183-.079-.436-.108-.631-.167-.301-.091.151.055.177.078-.067-.062-.209-.103-.29-.149-.063-.036-.126-.074-.187-.114-.214-.138-.186-.271.047.053-.102-.142-.291-.255-.413-.385-.053-.056-.101-.116-.154-.172-.268-.289.222.347.027.031-.107-.174-.219-.341-.315-.522-.016-.03-.145-.34-.164-.341.033.002.168.473.057.116-.067-.216-.141-.426-.196-.645-.027-.109-.051-.218-.071-.328-.096-.511.004.36-.006-.044-.006-.232-.021-.461-.009-.693.005-.09.043-.223.025-.309-.045.308-.054.384-.027.228.01-.06.022-.12.035-.179.037-.174.22-.519.205-.69.019.216-.174.362-.062.152.074-.138.142-.278.225-.411.041-.066.087-.129.128-.194.212-.331-.284.297-.024.041.083-.082.158-.169.243-.249.042-.04.086-.079.13-.116.115-.097.057-.053-.176.132.067-.014.589-.321.612-.362-.078.142-.392.138-.14.062.161-.049.318-.101.482-.14,1.018-.246,1.722-1.455,1.397-2.46-.342-1.058-1.37-1.66-2.46-1.397Z"/><path class="i" d="M102.233,403.327c-6.976-1.147-13.52,2.488-16.619,8.81-3.023,6.166-3.001,14.256,1.348,19.8,3.941,5.023,11.329,6.989,17.26,4.584,6.504-2.638,9.997-9.577,10.314-16.335.364-7.767-4.397-15.348-12.303-16.859-2.515-.481-3.593,3.374-1.063,3.857,5.316,1.016,8.855,5.415,9.327,10.747.448,5.068-1.512,11.149-5.985,13.982-3.943,2.498-9.588,2.073-13.095-1.048-4.062-3.614-4.671-9.639-3.157-14.617,1.693-5.57,6.843-10.062,12.911-9.064,1.065.175,2.153-.278,2.46-1.397.263-.956-.325-2.284-1.397-2.46Z"/><path class="g" d="M100.005,414.803c-2.849-.506-5.263,1.643-5.783,4.567-.582,3.272,1.03,5.883,3.836,6.382,2.915.518,5.223-1.418,5.801-4.669.523-2.944-1.016-5.775-3.855-6.28Z"/><path class="i" d="M100.537,412.875c-1.608-.26-3.17-.093-4.609.72-1.243.702-2.306,1.857-2.918,3.147-1.335,2.816-1.233,6.219.74,8.704,1.783,2.246,5.145,2.975,7.75,1.876,2.805-1.184,4.319-4.14,4.453-7.086.153-3.359-2.011-6.702-5.417-7.362-1.024-.198-2.208.288-2.46,1.397-.225.989.299,2.248,1.397,2.46.245.047.477.121.717.185.456.122-.355-.211.05.018.082.046.167.085.248.132.091.052.197.151.295.185.238.082-.33-.308-.02-.02.14.13.555.404.579.588-.001-.011-.269-.401-.063-.074.062.098.128.193.187.293.098.165.247.371.288.561-.109-.501-.039-.065,0,.054.029.091.056.183.081.276.037.141.062.284.096.425.096.404-.01-.401.008.053.01.252.028.5.02.753-.004.102-.015.204-.018.306-.014.511.101-.42-.009.086-.105.484-.179,1.072-.428,1.511.267-.47-.114.194-.181.31-.07.122-.152.237-.224.358s-.095.286.068-.072c-.078.171-.317.368-.451.497-.063.061-.132.117-.195.178-.166.137-.133.113.098-.07-.07.051-.141.099-.214.146-.162.104-.35.174-.508.28-.219.147.466-.143.059-.031-.083.023-.165.055-.248.078-.127.036-.255.06-.383.09-.382.091.135-.037.136-.014,0,.042-.759.012-.827.011-.458-.003.31.092.03.012-.112-.032-.235-.042-.349-.069-.109-.026-.625-.114-.655-.202-.003-.008.453.229.111.041-.116-.063-.234-.12-.347-.188-.074-.045-.145-.096-.219-.141-.354-.212.269.262-.005-.003-.155-.15-.305-.301-.455-.456-.307-.318.225.375-.004-.006-.045-.075-.097-.146-.142-.22-.057-.094-.105-.194-.161-.288l-.03-.059c-.092-.196-.08-.159.036.111-.148-.131-.207-.611-.249-.789-.022-.092-.037-.186-.058-.278-.107-.459.015.332.001.028-.01-.226-.032-.449-.031-.675.001-.263.021-.523.047-.784-.051.51.011-.018.029-.11.031-.154.068-.307.11-.458.028-.1.058-.199.091-.297.032-.097.067-.194.104-.289-.106.242-.113.262-.022.059.116-.221.226-.443.361-.654.076-.119.155-.258.251-.363-.352.381.002.021.059-.04.081-.088.166-.172.253-.254.051-.049.104-.097.158-.144.168-.139.144-.123-.072.048.113-.18.481-.301.659-.404l.063-.032c.199-.092.169-.081-.092.034.035-.051.343-.116.401-.132.105-.029.247-.035.345-.08.152-.028.093-.022-.178.017.096-.011.192-.018.289-.023.098-.004.196-.006.293-.004.119.002.77.091.22.002,1.029.166,2.203-.266,2.46-1.397.219-.961-.292-2.282-1.397-2.46Z"/><path class="j" d="M18.202,401.576c-7.818-1.39-14.441,4.507-15.868,12.532-1.596,8.978,2.825,16.143,10.527,17.512,7.999,1.422,14.332-3.89,15.918-12.811,1.436-8.079-2.787-15.848-10.578-17.233Z"/><path class="i" d="M18.733,399.647c-6.976-1.147-13.52,2.488-16.619,8.81-3.023,6.166-3.001,14.256,1.348,19.8,3.941,5.023,11.329,6.989,17.26,4.584,6.504-2.638,9.997-9.577,10.314-16.335.364-7.767-4.397-15.348-12.303-16.859-2.515-.481-3.593,3.374-1.063,3.857,5.316,1.016,8.855,5.415,9.327,10.747.448,5.068-1.512,11.149-5.985,13.982-3.943,2.498-9.588,2.073-13.095-1.048-4.062-3.614-4.671-9.639-3.157-14.617,1.693-5.57,6.843-10.062,12.911-9.064,1.065.175,2.153-.278,2.46-1.397.263-.956-.325-2.284-1.397-2.46Z"/><path class="g" d="M16.505,411.123c-2.849-.506-5.263,1.643-5.783,4.567-.582,3.272,1.03,5.883,3.836,6.382,2.915.518,5.223-1.418,5.801-4.669.523-2.944-1.016-5.775-3.855-6.28Z"/><path class="i" d="M17.037,409.195c-1.608-.26-3.17-.093-4.609.72-1.243.702-2.306,1.857-2.918,3.147-1.335,2.816-1.233,6.219.74,8.704,1.783,2.246,5.145,2.975,7.75,1.876,2.805-1.184,4.319-4.14,4.453-7.086.153-3.359-2.011-6.702-5.417-7.362-1.024-.198-2.208.288-2.46,1.397-.225.989.299,2.248,1.397,2.46.245.047.477.121.717.185.456.122-.355-.211.05.018.082.046.167.085.248.132.091.052.197.151.295.185.238.082-.33-.308-.02-.02.14.13.555.404.579.588-.001-.011-.269-.401-.063-.074.062.098.128.193.187.293.098.165.247.371.288.561-.109-.501-.039-.065,0,.054.029.091.056.183.081.276.037.141.062.284.096.425.096.404-.01-.401.008.053.01.252.028.5.02.753-.004.102-.015.204-.018.306-.014.511.101-.42-.009.086-.105.484-.179,1.072-.428,1.511.267-.47-.114.194-.181.31-.07.122-.152.237-.224.358s-.095.286.068-.072c-.078.171-.317.368-.451.497-.063.061-.132.117-.195.178-.166.137-.133.113.098-.07-.07.051-.141.099-.214.146-.162.104-.35.174-.508.28-.219.147.466-.143.059-.031-.083.023-.165.055-.248.078-.127.036-.255.06-.383.09-.382.091.135-.037.136-.014,0,.042-.759.012-.827.011-.458-.003.31.092.03.012-.112-.032-.235-.042-.349-.069-.109-.026-.625-.114-.655-.202-.003-.008.453.229.111.041-.116-.063-.234-.12-.347-.188-.074-.045-.145-.096-.219-.141-.354-.212.269.262-.005-.003-.155-.15-.305-.301-.455-.456-.307-.318.225.375-.004-.006-.045-.075-.097-.146-.142-.22-.057-.094-.105-.194-.161-.288l-.03-.059c-.092-.196-.08-.159.036.111-.148-.131-.207-.611-.249-.789-.022-.092-.037-.186-.058-.278-.107-.459.015.332.001.028-.01-.226-.032-.449-.031-.675.001-.263.021-.523.047-.784-.051.51.011-.018.029-.11.031-.154.068-.307.11-.458.028-.1.058-.199.091-.297.032-.097.067-.194.104-.289-.106.242-.113.262-.022.059.116-.221.226-.443.361-.654.076-.119.155-.258.251-.363-.352.381.002.021.059-.04.081-.088.166-.172.253-.254.051-.049.104-.097.158-.144.168-.139.144-.123-.072.048.113-.18.481-.301.659-.404l.063-.032c.199-.092.169-.081-.092.034.035-.051.343-.116.401-.132.105-.029.247-.035.345-.08.152-.028.093-.022-.178.017.096-.011.192-.018.289-.023.098-.004.196-.006.293-.004.119.002.77.091.22.002,1.029.166,2.203-.266,2.46-1.397.219-.961-.292-2.282-1.397-2.46Z"/><path class="i" d="M28.11,325.804c13.188-.554,26.423-.535,39.607.127,6.378.32,12.76.788,19.093,1.621,2.859.376,5.401,1.336,7.859,2.84,2.916,1.784,5.179,4.027,7.482,6.521,5.058,5.48,10.016,11.058,14.836,16.75,1.666,1.967,4.483-.874,2.828-2.828-4.44-5.243-9.002-10.386-13.643-15.452-2.276-2.485-4.485-4.983-7.236-6.961-2.635-1.895-5.561-3.502-8.72-4.323-2.919-.758-6.114-.9-9.109-1.196-3.36-.333-6.727-.588-10.096-.79-6.951-.418-13.916-.617-20.879-.669-7.342-.055-14.686.053-22.022.361-2.565.108-2.578,4.108,0,4h0Z"/><path class="i" d="M28.11,321.804c-1.948.171-3.635,1.086-4.689,2.773s-1.068,3.765-1.232,5.689c-.352,4.133-.533,8.304-.165,12.442.732,8.208,3.256,16.339,7.626,23.35,8.811,14.136,24.367,23.506,40.441,26.92,5.311,1.128,10.74,1.511,16.155,1.708,4.24.154,8.246-.481,12.431-1.015,1.071-.137,2-.821,2-2,0-.975-.921-2.138-2-2-3.229.412-6.416,1.034-9.682,1.067-4.293.044-8.662-.246-12.921-.78-7.511-.941-14.971-3.238-21.658-6.791-6.903-3.668-13.231-8.632-18.174-14.707-4.638-5.7-7.7-12.56-9.275-19.713-.943-4.283-1.246-8.628-1.106-13.006.067-2.095.205-4.188.399-6.275.116-1.251.13-3.511,1.85-3.662,1.076-.094,2-.852,2-2,0-1.009-.918-2.095-2-2h0Z"/><path class="g" d="M90.628,260.626c-7.767-.913-15.128,1.717-19.781,8.003-1.076,1.453-2.148,4.314-2.598,6.065-1.061,4.132-.042,8.437-.529,12.629-.456,3.926-1.504,7.876.061,11.714,1.959,4.805,6.928,7.079,11.511,8.694,3.72,1.311,7.936,1.567,11.85,1.079,4.218-.527,8.33-2.458,11.03-5.767,1.29.747,2.583.759,2.961.757,1.203-.007,2.036-.483,3.225-1.03.62-.285,1.666-.989,2.227-1.378,1.996-1.386,3.036-4.523,2.556-6.905-.324-1.606-1.478-2.868-2.886-3.404l.899-1.743c1.832-2.853,2.148-8.77,1.827-12.227-.128-1.379-.345-2.756-.764-4.076-1.943-6.12-7.99-10.15-14.199-11.786l-7.389-.624Z"/><path class="i" d="M90.628,258.626c-6.104-.672-12.349.751-17.234,4.558-5.2,4.053-7.698,10.101-7.648,16.627.014,1.881.16,3.76.104,5.642-.055,1.848-.386,3.666-.624,5.496-.465,3.576-.379,7.197,1.468,10.402,1.467,2.547,3.819,4.477,6.372,5.87,2.669,1.456,5.693,2.652,8.675,3.25,7.385,1.48,15.836.324,21.242-5.322,1.78-1.86-1.044-4.692-2.828-2.828-4.04,4.22-10.073,5.202-15.677,4.559-2.693-.309-5.336-1.186-7.793-2.315-2.172-.998-4.359-2.263-5.846-4.184-1.821-2.352-2.045-5.209-1.77-8.073.314-3.265.859-6.377.757-9.675-.097-3.153-.161-6.13.887-9.147.844-2.43,2.078-4.387,3.955-6.153,4.308-4.054,10.208-5.34,15.962-4.707,1.075.118,2-1.004,2-2,0-1.18-.922-1.881-2-2h0Z"/><path class="i" d="M108.637,292.773c-.483.067.239.028.332.027.235.021.229.017-.02-.011.113.021.224.046.335.075.165.044.331.096.489.162-.426-.176.215.152.289.191.186.131.193.128.019-.009.091.073.179.149.264.229.129.121.245.25.364.38-.275-.302.148.234.197.319.059.104.114.21.165.318-.081-.202-.081-.192,0,.028.051.179.096.356.142.536.039.23.041.218.006-.035.013.113.022.227.028.341.023.41.007.821-.04,1.229.055-.469-.066.273-.085.356-.056.236-.121.47-.198.7-.011.033-.222.585-.059.2-.093.22-.203.436-.32.645-.116.207-.246.403-.377.6-.225.34.195-.167-.118.14-.162.158-.318.322-.483.477-.175.145-.171.143.01-.006-.082.057-.165.114-.248.171-.707.483-1.423.944-2.198,1.309-.27.127-.539.26-.814.378.247-.106-.407.143-.479.164-.067.019-.617.142-.269.089-.193.029-.393.026-.588.023-.134-.002-.267-.013-.401-.02-.51-.028.271.096-.177-.028-.591-.165-.874-.234-1.309-.482-.909-.519-2.228-.244-2.736.718-.502.951-.253,2.182.718,2.736,1.775,1.013,4.043,1.42,6.017.762,1.864-.622,3.737-1.657,5.238-2.931,2.885-2.449,4.02-7.703,1.738-10.882-1.539-2.144-3.901-3.115-6.495-2.754-1.04.145-1.699,1.525-1.397,2.46.369,1.141,1.346,1.552,2.46,1.397h0Z"/><path class="i" d="M97.486,263.178c5.106,1.383,10.479,4.46,12.531,9.611,1.042,2.615,1.163,5.555,1.043,8.336-.104,2.401-.352,5.109-1.632,7.204-1.346,2.202,2.112,4.214,3.454,2.019,1.62-2.651,2.025-6.003,2.171-9.046.161-3.363-.079-6.92-1.376-10.056-2.595-6.279-8.774-10.204-15.127-11.925-2.488-.674-3.549,3.184-1.063,3.857h0Z"/><path class="i" d="M80.734,286.695c.174,1.286-.531,4.058-2.877,3.906-3.046-.534-2.651-3.963-1.363-5.388,1.055-1.167,3.616-1.293,4.24,1.481Z"/><path class="i" d="M94.903,289.073c.174,1.286-.531,4.058-2.877,3.906-3.046-.534-2.651-3.963-1.363-5.388,1.055-1.167,3.616-1.293,4.24,1.481Z"/><path class="i" d="M78.152,299.654c.879,1.372,2.444,2.194,3.986,2.583,1.624.411,3.626.51,5.118-.401.892-.545,1.311-1.816.718-2.736-.578-.896-1.781-1.301-2.736-.718-.095.058-.194.106-.296.15l.478-.202c-.296.119-.604.19-.92.234l.532-.071c-.499.061-.998.047-1.496-.016l.532.071c-.651-.092-1.288-.258-1.895-.511l.478.202c-.387-.169-.754-.371-1.091-.626l.405.313c-.208-.163-.402-.341-.566-.549l.313.405c-.036-.048-.071-.096-.103-.147-.564-.88-1.803-1.319-2.736-.718-.88.568-1.321,1.794-.718,2.736h0Z"/><path class="i" d="M87.264,272.864c.061.879.149,1.77.465,2.599.352.923.797,1.687,1.409,2.459.996,1.255,2.443,2.179,3.982,2.61,1.007.282,2.221-.347,2.46-1.397.242-1.061-.319-2.158-1.397-2.46-.24-.067-.473-.148-.703-.244l.478.202c-.457-.198-.883-.448-1.281-.748l.405.313c-.438-.34-.827-.731-1.166-1.169l.313.405c-.316-.421-.578-.873-.783-1.357l.202.478c-.191-.471-.32-.956-.388-1.459l.071.532c-.03-.253-.049-.507-.067-.762-.037-.534-.198-1.026-.586-1.414-.347-.347-.916-.608-1.414-.586-1.021.046-2.078.882-2,2h0Z"/><path class="g" d="M60.189,314.267c-1.872.323-4.562.163-5.968-1.277-.775-.794-1.171-1.902-1.343-2.998-.15-.955-.067-2.008.293-2.905.483-1.205,1.77-2.278,2.949-2.82,1.374-.632,2.897-.729,4.378-.427,1.552.316,2.538.899,3.65,1.885.496.44,1.022,1.261,1.125,1.917.165,1.056.027,1.839-.446,2.746-.971,1.866-2.53,3.515-4.638,3.879Z"/><path class="g" d="M99.06,322.284c.123-2.007,1.206-4.17,3.059-5.025,2.514-1.159,5.538-1.212,7.921.205s4.51,3.454,4.76,6.575c-.017,3.087-3.071,5.527-5.325,5.647-3.228.172-4.066-.283-6.511-2.398-1.001-.865-3.149-1.63-3.604-2.872-.251-.687-.344-1.411-.3-2.131Z"/><path class="i" d="M79.947,271.546c-.637,3.078.66,6.254,3.308,7.966.88.569,2.247.208,2.736-.718.525-.994.222-2.129-.718-2.736-.138-.089-.272-.184-.402-.284l.405.313c-.344-.274-.649-.584-.92-.93l.313.405c-.3-.394-.546-.82-.741-1.275l.202.478c-.188-.458-.318-.932-.389-1.423l.071.532c-.059-.463-.063-.926-.007-1.39l-.071.532c.019-.136.042-.27.07-.405.109-.529.077-1.064-.202-1.541-.243-.415-.718-.811-1.195-.919-1-.228-2.233.301-2.46,1.397h0Z"/><path class="i" d="M59.657,312.339c-.369.06-.004.004.061-.003-.109.012-.219.024-.328.034-.227.02-.455.032-.682.036-.235.004-.47.001-.704-.011-.119-.006-.237-.017-.355-.025-.568-.039.382.089-.175-.023-.202-.04-.404-.08-.603-.134-.112-.03-.224-.063-.334-.099-.056-.018-.399-.143-.164-.05.232.092-.093-.048-.146-.076-.099-.051-.196-.106-.29-.165-.052-.032-.335-.237-.135-.08.211.166-.128-.13-.166-.166-.253-.237-.131-.131-.063-.043-.078-.101-.148-.216-.214-.326-.042-.07-.322-.715-.215-.409-.087-.249-.164-.5-.225-.758-.03-.128-.056-.257-.08-.386-.104-.553-.015.311-.025-.287-.005-.284-.011-.566.019-.849-.011.098-.068.297.024-.098.032-.137.072-.272.104-.408.012-.052.137-.382.007-.079.047-.109.11-.219.169-.321.047-.08.099-.157.15-.235.106-.162-.139.127.099-.119.182-.188.363-.371.558-.546.291-.261.129-.106.055-.052.104-.076.211-.149.319-.219.209-.135.425-.262.649-.37.17-.083.409-.165.739-.251.95-.248,1.93-.175,2.931.112.119.034.237.071.354.111.053.018.408.152.177.059-.176-.071.302.152.385.197.201.11.396.231.585.361.096.066.192.134.285.205-.328-.248.143.13.165.148.088.077.509.499.321.269.161.198.307.445.409.679-.159-.368.032.402.006.118.012.137.005.274.014.41.024.359.041-.051.003.144-.024.126-.055.251-.092.374-.027.092-.161.413-.054.179-.13.283-.289.557-.452.822-.142.232-.294.457-.455.676-.186.251.184-.213-.023.021-.099.112-.195.227-.298.336-.184.196-.381.375-.582.552-.231.204.238-.161-.014.013-.121.084-.242.167-.368.243-.1.061-.203.119-.307.173-.083.043-.539.184-.169.084-.293.079-.57.174-.869.231-1.03.197-1.711,1.489-1.397,2.46.356,1.099,1.357,1.608,2.46,1.397,2.957-.566,5.454-3.225,6.358-6.032,1.069-3.316-1.176-6.326-4.128-7.618-3.304-1.446-7.083-1.046-9.834,1.339-2.626,2.276-2.914,6.209-1.308,9.172,1.73,3.191,5.672,3.669,8.912,3.139,1.036-.169,1.705-1.508,1.397-2.46-.363-1.121-1.351-1.578-2.46-1.397Z"/><path class="i" d="M105.057,305.62c3.024,2.213,5.768,4.919,7.985,7.943,1.05,1.432,2.139,2.963,2.826,4.61.354.848.588,1.759.585,2.68-.001.41-.045.782-.156,1.177-.05.179-.173.389-.202.565-.113.687-.67-1.2.938.038l.718.718-.119-.206c-1.289-2.227-4.747-.216-3.454,2.019.818,1.414,2.651,1.849,4.033.962,1.165-.747,1.799-2.225,2.062-3.535.588-2.926-.434-5.788-1.926-8.276-2.869-4.784-6.784-8.864-11.272-12.148-.872-.638-2.231-.147-2.736.718-.593,1.014-.157,2.097.718,2.736h0Z"/><path class="i" d="M101.06,322.284c.053-.682-.047.172.02-.225.025-.145.056-.289.091-.432.044-.181.096-.358.153-.535.002-.007.125-.354.04-.147.25-.611.58-1.071.926-1.408.339-.329.731-.532,1.324-.731.673-.226,1.34-.373,2-.402,1.393-.062,2.587.257,3.79,1.016.925.584,1.931,1.413,2.475,2.228.403.603.564.919.739,1.523.043.148.079.299.113.449.074.333.058.284.045.174.053.425.03.576-.034.784-.086.284-.183.596-.193.617-.136.285-.3.558-.482.816.122-.173-.271.312-.358.401-.097.099-.197.196-.299.289-.018.016-.487.386-.233.202-.554.402-.866.552-1.231.665-.156.048-.752.152-.31.105-.374.04-.755.042-1.131.045-.31.002-.617-.014-.926-.026-.111-.004-.516-.075-.097,0-.111-.02-.221-.039-.331-.064-.211-.048-.414-.117-.62-.183.426.137-.251-.134-.403-.224-.68-.403-.781-.521-1.368-1.018-.602-.51-1.21-.98-1.886-1.387-.333-.201-.671-.395-.998-.606-.117-.076-.235-.151-.347-.234-.114-.082-.113-.08.004.006-.074-.061-.145-.126-.213-.194-.04-.041-.277-.338-.139-.14.06.085.002-.085-.016-.153-.111-.411-.121-.779-.105-1.209.04-1.08-.948-2-2-2-1.117,0-1.96.916-2,2-.041,1.105.119,2.302.638,3.293.455.869,1.27,1.498,2.071,2.028.626.414,1.309.747,1.912,1.195-.406-.302.23.213.251.23.119.101.238.201.359.3.445.366.898.728,1.372,1.055,2.579,1.778,6.549,1.856,9.2.195,1.622-1.016,2.902-2.523,3.552-4.329.681-1.893.315-3.899-.538-5.672-1.673-3.478-5.679-6.016-9.493-6.177-2.272-.096-4.835.534-6.598,2.017-1.723,1.449-2.556,3.672-2.727,5.864-.084,1.078.979,2,2,2,1.152,0,1.916-.919,2-2Z"/></g><path class="g" d="M124.499,220.3c-2.151-1.078-3.621-2.459-5.414-4.963-1.589-2.218-2.787-5.294-2.615-8.014.076-1.196.194-3.926.646-5.036,1.18-2.894,2.644-5.608,4.934-7.65,2.025-2.077,4.979-2.769,6.894-3.481,1.236-.459,5.045-.963,6.364-.933,2.364.055,3.719.278,5.834,1.214,3.363,1.488,5.87,4.418,7.857,7.507,1.007,1.565,1.937,3.511,1.15,5.212-1.631,0-3.28,0-4.925,0-1.074,3.414-.601,5.797.521,8.904.1.365.37,1.099.369,1.278.273,2.981-2.304,4.322-4.902,2.383-.404-.302-.806-.591-1.178-.901-.768,1.076-4.286,2.635-5.818,2.439-.903,1.456-2.882,2.384-4.851,2.444-1.219.447-2.543.603-3.684.133-.418-.172-.81-.35-1.182-.536Z"/><path class="g" d="M188.819,196.985c-2.919.202-5.86.323-8.15,1.893-1.549,1.062-4.283,4.319-6.059,7.094-1.06,1.656-2.087,4.325-2.201,6.286-.114,1.961,1.237,4.15,3.205,4.199,1.771.044,2.892-1.514,3.87-3.105-2.507,1.492-1.91,5.73-.181,7.015,1.125.836,2.736.963,3.979.313.825-.432,1.409-1.136,1.905-1.93.391,1.555.477,3.106,1.504,4.27.721.817,1.951,1.182,3.033,1.042,1.098-.142,2.079-.646,2.686-1.57,0,0,.811-1.234,1.942-2.956-.811,2.231-.787,3.419-.199,5.006.228.616,1.446,1.402,2.13,1.508.834.129,1.989-.152,2.388-.436,1.79-1.272,5.239-5.465,6.129-6.61,1.573-2.023,3.916-3.345,5.48-5.375.76-.987,2.165-5.046.22-7.805-1.544-2.366-3.148-4.793-5.479-6.394-2.153-1.479-5.542-4.77-9.819-3.752-1.912.947-4.142,1.152-6.384,1.307Z"/><path class="i" d="M182.934,204.96c-1.183,1.454-2.327,2.938-3.367,4.5-.872,1.31-1.588,2.781-2.559,4.02-.604.771-1.424,1.428-2.164.437-.824-1.104-.325-2.654.049-3.823,1.018-3.18,3.294-6.037,5.604-8.397,2.134-2.18,4.844-2.473,7.873-2.681,1.725-.119,3.472-.236,5.159-.636,1.568-.372,2.774-1.149,4.436-.768,1.44.33,2.696,1.12,3.888,1.964,1.12.793,2.315,1.59,3.305,2.541,1.245,1.196,2.225,2.606,3.173,4.04.851,1.289,1.314,2.388,1.105,3.965-.398,3.011-3.071,4.358-5.11,6.413-2.072,2.089-3.712,4.57-5.849,6.617-.225.216-.452.433-.693.632-.263.218.059.078-.355.197-.601.173-1.005.096-1.47-.321-.265-.238-.014-.017.018.053-.078-.171-.127-.387-.167-.571-.064-.298-.097-.571-.082-.88.045-.922.41-1.824.734-2.678.382-1.01-.424-2.193-1.397-2.46-1.124-.309-2.077.383-2.46,1.397-.734,1.94-1.162,3.926-.575,5.967.563,1.959,2.355,3.442,4.416,3.575,3.711.239,6.243-3.398,8.372-5.932,1.089-1.296,2.096-2.607,3.371-3.735,1.448-1.281,3.207-2.517,4.126-4.267.796-1.515,1.209-3.345,1.169-5.052-.053-2.335-1.093-4.082-2.379-5.952-2.272-3.303-5.269-5.979-8.744-7.988-1.806-1.044-3.903-1.777-6.015-1.636-1.11.074-1.975.452-3.008.78-1.003.319-2.039.489-3.085.589-4.05.386-8.297.26-11.58,3.043-1.605,1.361-2.932,3.08-4.191,4.754-1.319,1.753-2.418,3.552-3.188,5.614-.851,2.28-1.316,4.814-.201,7.085,1.032,2.101,3.291,3.519,5.663,2.966,2.242-.522,3.573-2.524,4.693-4.368,1.31-2.156,2.719-4.22,4.312-6.178.681-.837.819-2.01,0-2.828-.704-.704-2.143-.842-2.828,0h0Z"/><path class="i" d="M175.98,215.142c-.421,2.195-.02,4.831,1.675,6.44,1.8,1.708,4.766,1.993,6.872.687,1.825-1.131,2.654-3.056,3.688-4.835.575-.988,1.194-1.951,1.852-2.886.693-.984,1.225-1.665,1.987-2.588.665-.805.848-2.05,0-2.828-.736-.676-2.117-.861-2.828,0-1.27,1.538-2.483,3.128-3.561,4.807-.5.778-.971,1.573-1.409,2.388-.177.328-.351.658-.537.981-.092.16-.186.319-.285.475-.037.059-.373.546-.259.395.123-.164-.204.23-.248.276-.06.063-.523.458-.194.215-.145.108-.302.196-.46.285-.327.184.166.002-.231.076-.058.011-.613.074-.22.055-.192.009-.382.01-.573-.003.399.029-.128-.036-.22-.062-.123-.034-.243-.075-.362-.121.157.062.173.062.047-.001-.084-.045-.166-.093-.245-.147.148.127.172.146.072.057-.086-.079-.399-.504-.163-.144-.095-.146-.181-.295-.266-.448-.253-.453.076.315-.083-.197-.057-.183-.112-.363-.155-.549-.021-.09-.078-.585-.05-.237-.016-.196-.025-.392-.022-.588.002-.131.009-.261.021-.391-.033.209-.028.193.015-.046.196-1.024-.286-2.207-1.397-2.46-.987-.225-2.25.298-2.46,1.397h0Z"/><path class="i" d="M183.561,220.66c.468,2.193,1.445,4.156,3.632,5.033,1.772.71,3.96.44,5.505-.689,1.565-1.143,2.448-3.108,3.467-4.717,1.065-1.682,1.859-2.796,3.206-4.191.727-.753.805-2.089,0-2.828-.787-.722-2.052-.804-2.828,0-2.262,2.342-3.859,5.122-5.613,7.836-.027.042-.34.522-.197.321.113-.159-.21.217-.258.266-.148.15.228-.114-.082.061-.041.023-.545.284-.151.115-.162.069-.341.12-.511.163-.052.013-.529.085-.272.062.236-.021-.318-.014-.377-.008-.199.022.23.078-.116-.015-.181-.048-.364-.089-.537-.162.362.154-.148-.118-.179-.138.23.15.021.002-.082-.099-.084-.095-.084-.087,0,.024l-.11-.164c-.098-.169-.199-.335-.279-.514.148.332-.068-.236-.074-.253-.119-.383-.205-.775-.289-1.167-.219-1.025-1.474-1.716-2.46-1.397-1.081.35-1.631,1.362-1.397,2.46h0Z"/><path class="i" d="M145.906,206.157h29.95c2.574,0,2.578-4,0-4h-29.95c-2.574,0-2.578,4,0,4h0Z"/><path class="i" d="M147.091,214.188h25.318c2.574,0,2.578-4,0-4h-25.318c-2.574,0-2.578,4,0,4h0Z"/><path class="i" d="M134.664,207.662c.139,2.516,1.011,4.888,2.086,7.144.519,1.09,1.275,1.966,2.22,2.709.974.765,1.931,1.507,3.13,1.883,2.078.652,4.451-.158,5.455-2.148.542-1.075.706-2.34.479-3.522-.182-.945-.611-1.856-.885-2.777-.176-.591-.326-1.19-.432-1.797-.017-.098-.034-.197-.048-.296.055.386-.016-.241-.018-.258-.02-.266-.031-.533-.031-.799,0-.682.05-1.117.136-1.564.138-.712.344-1.407.579-2.092.341-.99-.389-2.231-1.397-2.46-1.112-.253-2.096.337-2.46,1.397-.672,1.955-1.026,4.047-.766,6.112.13,1.031.334,2.033.641,3.026.143.462.313.914.464,1.373.04.121.257,1.074.334,1.087-.024-.004-.03-.556-.03-.244,0,.094.012.189.013.283.002.162-.048.531.019.168-.033.179-.121.366-.139.543-.021.199.023-.087.055-.131-.053.072-.104.171-.145.251.036-.071.299-.291.053-.074-.041.036-.12.097-.148.143-.096.155.085-.086.136-.105-.062.024-.113.078-.176.103-.21.084.171-.063.166-.062-.081.016-.185.053-.267.079-.095.03-.245-.007-.016.01.293.022-.039-.011-.1-.014-.076-.004-.152-.007-.228-.011.094.005.405.101.06-.007-.163-.051-.328-.089-.488-.153.316.127-.09-.065-.19-.124-.236-.139-.455-.3-.675-.463-.53-.392-1.229-.946-1.519-1.436-.576-.974-.846-1.74-1.19-2.746-.184-.537-.346-1.082-.473-1.635-.066-.286-.126-.576-.169-.867.007.047.027.233.002,0-.018-.174-.029-.348-.039-.523-.058-1.043-.879-2.05-2-2-1.034.046-2.062.881-2,2h0Z"/><path class="i" d="M152.112,204.615c1.158-3.263-1.084-6.468-2.978-8.945-1.875-2.453-4.138-4.665-6.981-5.958-4.563-2.075-9.899-1.786-14.576-.189-2.851.974-5.358,2.085-7.519,4.249-2.172,2.175-3.864,5.086-4.87,7.985-.775,2.233-.917,5.218-.621,7.554.419,3.299,2.015,6.19,4.086,8.738,1.872,2.302,4.762,4.663,7.813,5.012.872.1,1.75.026,2.606-.178.91-.217,1.864-.295,2.757-.588,1.702-.558,3.1-1.546,4.114-3.027l-1.727.991c1.479.115,3.005-.476,4.326-1.069,1.256-.564,2.528-1.299,3.295-2.478,1.409-2.164-2.053-4.171-3.454-2.019.18-.276-.241.172-.402.278-.427.281-.896.522-1.365.724-.775.334-1.589.627-2.4.564-.724-.056-1.345.433-1.727.991-.548.8-1.556,1.226-2.482,1.388-1.138.199-2.513.734-3.651.33-1.847-.656-3.394-1.981-4.635-3.457-2.88-3.425-4.033-7.865-2.823-12.237.594-2.146,1.967-4.446,3.444-6.098,1.522-1.703,3.232-2.74,5.376-3.484,3.259-1.131,6.961-1.991,10.406-1.19,2.615.609,4.798,2.119,6.594,4.074.87.947,1.635,1.974,2.34,3.048.765,1.167,1.705,2.494,1.197,3.926-.863,2.43,3.001,3.476,3.857,1.063h0Z"/><path class="i" d="M128.647,210.307c.403,1.496.943,2.952,1.59,4.359.613,1.335,1.384,2.632,2.409,3.694.728.754,2.107.786,2.828,0,.744-.81.776-2.024,0-2.828-.098-.102-.194-.205-.286-.312-.053-.061-.104-.124-.156-.187-.181-.219.136.152.129.169.025-.062-.473-.688-.528-.776-.354-.571-.664-1.168-.944-1.778-.064-.14-.126-.28-.188-.421-.165-.375.134.332.044.105-.028-.072-.058-.142-.087-.214-.128-.319-.249-.641-.363-.964-.222-.629-.419-1.266-.593-1.91-.272-1.01-1.436-1.728-2.46-1.397-1.036.335-1.689,1.378-1.397,2.46h0Z"/><path class="i" d="M122.597,212.467c.434,1.565,1.115,3.097,1.969,4.478.815,1.318,1.796,2.548,3.084,3.429.866.593,2.256.191,2.736-.718.537-1.016.206-2.104-.718-2.736-.15-.102-.402-.366.094.083-.081-.074-.169-.141-.25-.215-.153-.139-.299-.286-.44-.437-.152-.164-.294-.335-.437-.507-.216-.259.317.429.006.005-.072-.098-.142-.197-.211-.296-.62-.895-1.136-1.861-1.562-2.863l.202.478c-.24-.576-.449-1.164-.616-1.765-.28-1.008-1.431-1.73-2.46-1.397s-1.697,1.38-1.397,2.46h0Z"/></g></g></svg>