<svg id="b" xmlns="http://www.w3.org/2000/svg" width="348.601" height="389.263" viewBox="0 0 348.601 389.263" style="color: initial !important;"><defs><style>.e{fill:#bdbdbd;}.f{fill:#ffffff;}.g{fill:#211715;}.h{fill:#64a4d6;}.i{fill:#645d5c;}</style></defs><g id="c"><g id="d"><path class="f" d="M70.914,143.056c-1.665.634-3.645,1.321-5.991,1.834-.06.013-.12.024-.18.032.178,1.543,1.154,5.408,2.07,7.558.31.719.888,1.767,1.547,2.736,1.771-4.901,3.41-8.658,4.404-12.883-.568.223-1.184.468-1.85.722Z"/><path class="f" d="M91.053,341.15c-22.13,0-55.592,0-89.053,0v46.113h344.333c0-41.602,0-93.731,0-135.333h-114.329s0,21.145,0,45.11c0,0-57.501,0-115.001,0,0,15.289,0,30.577.001,44.11-.002,0-10.052,0-25.95,0Z"/><path class="f" d="M127.64,24.79c.386,1.94.573,4.077.521,6.432.213,3.972.495,9.483,4.178,11.366.731.374,1.38.915,1.728,1.655.918,1.958-.766,2.886-1.795,4.051-.682.769-1.078,1.658-1.321,2.612-.038,1.298-.236,3.57-.671,5.747-.287,1.434-.68,2.832-1.203,3.872-1.108,2.224-2.565,3.356-4.086,3.954-2.983,1.173-7.092,1.664-9.776,1.006-.644-.159-1.305.197-1.543.816-.037.101-.418,1.854-1.305,4.183l-1.482,3.68s-.287.712-.749,1.86c-3.186-2.918-6.899-5.121-10.535-6.924-3.93-1.949-7.024-3.024-10.642-4.714-.118-.055-.239-.101-.36-.137-.706-3.292-3.928-5.788-7.746-9.623-3.033-3.047-6.684-8.73-7.892-12.738-1.341-4.449-1.824-9.414-1.06-13.998.764-4.583,2.736-9.483,6.561-12.681l4.911-5.176c3.514-4.056,10.15-7.144,15.962-7.842,4.927-.592,10.252.032,15.32,2.668,5.525,2.873,12.039,8.777,13.095,20.428"/><path class="f" d="M152.355,98.987c-.677,1.165-1.551,2.659-2.089,3.757.043.002.08.019.116.037,2.841,1.443,12.824,8.581,16.444,11.098.825-1.654,1.625-3.322,2.397-5.001.32-.696.149-1.528-.435-2.025-3.213-2.731-9.255-6.343-13.956-8.844-.818-.435-1.828-.142-2.293.66-.059.103-.121.209-.185.318Z"/><path class="f" d="M176.012,99.67c-1.168,1.055-2.263,1.962-3.347,2.921,0,0-1.862,1.647-4.36,3.863-3.308-2.676-8.998-6.063-13.473-8.444-.376-.2-.793-.246-1.178-.153l-.507-2.123c-.513-2.287-.812-3.618-1.325-5.905-.506-1.658.371-5.36,1.466-7.465,1.516-2.915,3.665-4.938,7.769-.905,1.102-2.233,2.011-4.376,3.287-7.121.746-1.606,2.638-2.497,4.546-1.6,2.128,1.001,2.41,2.799,2.384,3.919,2.302.43,4.252,2.212,4.707,4.406.172.944.625,1.764,1.364,2.382,4.175,3.968,6.618,7.968,1.583,13.362-1.037,1.111-1.999,2.032-2.917,2.862Z"/><path class="i" d="M101.086,2.038c4.423-.261,9.096.499,13.568,2.825,4.996,2.599,10.802,7.675,12.648,17.239-1.878,1.007-3.244,1.74-3.244,1.74-2.825,1.515-6.746,4.553-8.959,6.082-.528.365-1.213-.106-1.19-.822.015-.471-.019-.966-.214-1.606-.201-.663-.709-.914-1.073-.676-3.418,2.238-8.653,8.558-10.921,12.607-.75-.842-1.532-1.493-2.714-1.759s-2.33-.087-3.192.574c-1.283.985-1.834,2.992-1.712,4.63.198,2.662,1.152,4.767,2.785,6.382-.097.162-.171.284-.171.284-2.304,3.188-6.052,8.715-9.556,11.629-1.447-2.006-3.734-3.972-6.289-6.538-3.033-3.047-6.684-8.73-7.892-12.738-1.341-4.449-1.824-9.414-1.06-13.998.764-4.583,2.736-9.483,6.561-12.681l4.911-5.176c3.514-4.056,10.15-7.144,15.962-7.842.579-.069,1.163-.122,1.751-.157Z"/><path class="g" d="M151.878,103.976c-.13.31.138-.268.165-.323.118-.239.242-.475.368-.709.278-.521.569-1.036.863-1.549.284-.496.603-.983.863-1.492.44-.86.105-.164.1-.169.011.009-.602.468-.414.002-.015.037,6.045,3.422,6.574,3.744,2.059,1.253,4.111,2.553,6.027,4.019.322.247.624.523.951.769.128.097.014-.24.012-.197-.009.21-.19.447-.282.644-.658,1.41-1.336,2.81-2.031,4.202-.482.966-.257,2.166.718,2.736.886.518,2.252.253,2.736-.718.897-1.795,1.959-3.631,2.625-5.526.614-1.747-.131-3.324-1.5-4.425-2.365-1.903-4.92-3.558-7.514-5.127-1.376-.832-2.768-1.638-4.173-2.419-1.425-.793-2.886-1.861-4.598-1.554-1.694.303-2.458,1.603-3.25,2.974-.764,1.322-1.507,2.644-2.097,4.054-.417.997.45,2.2,1.397,2.46,1.153.317,2.042-.396,2.46-1.397h0Z"/><path class="g" d="M70.09,154.211c-.496-.735-.955-1.498-1.345-2.295-.046-.094-.084-.194-.134-.285-.124-.224.155.393.062.153-.061-.156-.125-.311-.184-.468-.147-.388-.282-.78-.411-1.174-.503-1.543-.922-3.12-1.236-4.713-.203-1.028-1.485-1.712-2.46-1.397-1.094.354-1.614,1.358-1.397,2.46.672,3.41,1.695,6.834,3.652,9.738.584.866,1.788,1.329,2.736.718.863-.556,1.343-1.808.718-2.736h0Z"/><path class="h" d="M281.395,123.24c-19.25,8.865-40.031,18.217-62.653,23.944-1.413.358-1.488,2.331-.105,2.79l20.907,6.934c.999.331,1.323,1.574.624,2.36-32.738,36.818-120.435,78.071-174.291,96.004-1.704.568-1.071,3.117.7,2.817,35.953-6.082,104.537-25.927,126.123-36.274,22.488-10.78,45.055-25.278,60.839-41.228.698-.705,1.871-.539,2.325.342,2.748,5.332,6.27,12.485,9.574,19.923.554,1.248,2.367,1.124,2.732-.191,6.006-21.671,11.54-51.209,15.266-75.888.173-1.143-.993-2.017-2.043-1.533Z"/><path class="g" d="M119.002,387.263v-90.223l-2,2c21.297,0,42.593,0,63.89,0,14.466,0,28.932,0,43.398,0,2.571,0,5.142,0,7.713,0s2.578-4,0-4c-7.615,0-15.23,0-22.846,0-18.292,0-36.583,0-54.875,0-12.427,0-24.854,0-37.281,0-1.081,0-2,.916-2,2v90.223c0,2.574,4,2.578,4,0h0Z"/><path class="g" d="M4,387.263v-46.113l-2,2c21.297,0,42.594,0,63.891,0,14.466,0,28.932,0,43.399,0,2.571,0,5.142,0,7.714,0s2.578-4,0-4c-7.615,0-15.231,0-22.846,0-18.292,0-36.584,0-54.876,0-12.427,0-24.854,0-37.282,0-1.081,0-2,.916-2,2v46.113c0,2.574,4,2.578,4,0h0Z"/><path class="g" d="M346.669,385.263H2.336c-2.574,0-2.578,4,0,4h344.333c2.574,0,2.578-4,0-4h0Z"/><path class="g" d="M234.004,387.263v-135.333l-2,2h114.329l-2-2c0,17.399,0,34.799,0,52.198s0,36.209,0,54.313v28.822c0,2.574,4,2.578,4,0,0-17.399,0-34.799,0-52.198,0-18.104,0-36.209,0-54.313v-28.822c0-1.081-.916-2-2-2h-114.329c-1.081,0-2,.916-2,2v135.333c0,2.574,4,2.578,4,0h0Z"/><path class="i" d="M49.411,329.756c-3.373-2.027-6.882-4.13-10.886-6.392-2.881-1.628-4.724-4.345-4.738-7.655-.008-1.873.241-3.072.859-4.468,1.841-4.156,4.629-8.047,8.967-9.205,0,0,2.671-.713,5.545-1.48,5.643,1.836,11.325,3.647,16.234,4.938.015,2.307.029,4.011.029,4.011.032,3.731,2.389,7.032,4.977,9.72s5.555,5.116,7.358,8.382c1.803,3.267,2.105,7.764-.512,10.423-1.7,1.728-4.3,2.326-6.713,2.102s-4.768-1.023-6.906-2.166c-5.114-2.735-9.533-5.399-14.214-8.212Z"/><path class="g" d="M63.422,309.506c.225,7.346,6.477,11.414,10.786,16.489,1.817,2.14,3.259,4.851,2.913,7.748-.339,2.848-2.688,4.385-5.438,4.435-3.442.063-6.483-1.603-9.402-3.216-2.977-1.645-5.91-3.368-8.829-5.113-2.984-1.784-5.956-3.588-8.954-5.349-1.647-.967-3.319-1.891-4.963-2.863-1.128-.667-2.13-1.491-2.817-2.624-1.711-2.823-.834-6.048.628-8.752,1.518-2.807,3.624-5.386,6.799-6.295,2.47-.708,1.42-4.569-1.063-3.857-3.379.968-5.98,3.247-7.948,6.098-2.005,2.904-3.508,6.278-3.337,9.868.168,3.536,2.051,6.563,4.948,8.535,1.692,1.152,3.572,2.075,5.339,3.111,1.789,1.048,3.569,2.111,5.347,3.178,3.323,1.994,6.638,4.001,10.002,5.924,3.436,1.965,6.945,4.193,10.875,4.988,3.625.734,7.805.37,10.47-2.493,2.397-2.576,2.82-6.304,1.957-9.609-1.061-4.064-4.099-7.134-7.007-9.986-2.83-2.775-6.174-5.977-6.304-10.217-.079-2.568-4.079-2.579-4,0h0Z"/><path class="i" d="M156.789,294.867c-3.763-.079-7.538-.107-11.302.066-3.742.172-6.677-1.563-8.152-3.992-.792-1.305-1.628-3.194-1.613-5.052.051-6.128.401-12.224,8.403-14.548,5.999.193,13.509.444,19.796.58,1.966,1.704,4.562,2.763,7.103,3.497,3.585,1.035,7.368,1.655,10.562,3.583,3.194,1.928,5.703,5.672,4.766,9.284-.609,2.346-2.561,4.164-4.764,5.177-2.202,1.012-4.642,1.487-7.064,1.575-5.821.211-11.764-.044-17.737-.17Z"/><path class="g" d="M160.129,270.496c3.537,5.736,10.298,6.624,16.204,8.43,2.823.863,5.675,2.154,7.27,4.772,1.44,2.363,1.15,4.929-.976,6.765-2.567,2.217-6.295,2.538-9.528,2.616-3.687.088-7.375.01-11.06-.083-3.73-.094-7.461-.206-11.192-.189-1.788.008-3.573.079-5.36.127-1.41.038-2.815-.141-4.07-.828-2.896-1.587-3.753-4.703-3.67-7.802.086-3.246.424-6.617,2.901-8.971,1.87-1.777-.962-4.602-2.828-2.828-2.598,2.469-3.596,5.784-3.93,9.263-.352,3.673-.233,7.28,1.888,10.451,1.92,2.871,5.08,4.48,8.492,4.704,2.012.132,4.072-.097,6.089-.112,2.193-.017,4.386.014,6.579.061,4.272.091,8.544.249,12.818.247,4.139-.002,8.313-.004,12.189-1.645,3.23-1.367,6.028-4.038,6.516-7.645.469-3.473-1.338-6.908-3.931-9.134-3.255-2.794-7.474-3.737-11.516-4.804-3.501-.924-7.419-2.151-9.43-5.411-1.349-2.187-4.81-.18-3.454,2.019h0Z"/><path class="e" d="M85.503,181.117c-.771-.213-1.524-.431-2.255-.653-4.848-1.469-9.431-2.828-13.086-4.12-.326,4.741-.214,9.119-.745,15.418-.891,8.338-1.836,13.502-3.25,20.25-5.944,28.373-14.429,53.356-23.939,83.878-.387,1.241.326,2.511,1.562,2.913,7.38,2.404,15.294,5.042,21.81,6.744.522.136,1.046.341,1.581.272,1.335-.173,1.937-1.695,2.415-2.953,16.636-43.779,28.705-76.226,34.42-90.656,7.599.774,20.025,1.986,26.265,3.136,3.69.679,5.565,1.352,7.164,3.318,1.808,2.237,2.179,5.598,2.139,8.181-.224,14.498-.309,25.46-.675,41.556-.035,1.527,1.144,2.811,2.67,2.858,6.708.208,16.272.544,23.71.688,1.506.029,2.756-1.152,2.809-2.658.479-13.738,1.294-31.943,1.278-45.111-.008-6.881-.32-10.902-2.014-17.028-1.056-3.815-4.323-7.609-7.25-10.222-2.122-1.892-5.738-4.079-8.278-5.333-10.904-5.398-19.401-6.542-32.773-12.615-.986,1.028-2.274,1.871-4.172,2.788-7.688,3.715-19.888,1.967-29.386-.653Z"/><path class="g" d="M118.933,181.106c7.228,3.201,14.73,5.513,22.163,8.158,6.737,2.397,13.889,5.299,19.033,10.432,1.415,1.413,2.719,2.936,3.769,4.642s1.601,3.472,2.071,5.406c.869,3.58,1.265,7.182,1.363,10.861.209,7.841-.087,15.71-.334,23.547-.251,8.003-.577,16.004-.861,24.006-.017.489.132,1.243-.287,1.612-.486.427-1.54.161-2.129.148-2.013-.044-4.025-.097-6.037-.153-4.071-.115-8.141-.247-12.211-.378-.883-.028-1.767-.057-2.65-.085-.531-.017-1.35.151-1.74-.309-.465-.55-.147-1.887-.132-2.554.024-1.108.048-2.217.071-3.325.086-4.203.16-8.407.225-12.611.123-7.94.297-15.884.338-23.825.018-3.599-.69-7.551-3.391-10.15-2.27-2.184-5.434-2.786-8.431-3.291-6.909-1.163-13.914-1.817-20.881-2.523-1.623-.165-3.247-.326-4.87-.489-1.076-.108-2,.997-2,2,0,1.171.921,1.892,2,2,7.173.72,14.363,1.38,21.503,2.384,2.887.406,6.434.571,8.981,2.087,2.891,1.721,3.124,5.592,3.081,8.6-.117,8.219-.221,16.439-.352,24.658-.07,4.428-.152,8.855-.247,13.282-.044,2.042-.421,4.278.845,6.04,1.283,1.786,3.152,1.968,5.182,2.032,4.104.13,8.207.267,12.311.388,2.125.063,4.25.123,6.375.175,1.84.045,4.043.432,5.747-.42,1.882-.941,2.608-2.715,2.679-4.723.069-1.962.141-3.925.214-5.887.154-4.144.312-8.288.457-12.432.288-8.192.554-16.389.584-24.587.015-4.034-.028-8.064-.579-12.067-.529-3.844-1.31-7.896-3.332-11.257-4.218-7.011-11.323-11.34-18.657-14.49-7.009-3.01-14.373-5.039-21.497-7.743-2.142-.813-4.26-1.682-6.355-2.61-.987-.437-2.148-.288-2.736.718-.498.851-.275,2.297.718,2.736h0Z"/><path class="g" d="M68.274,174.938c-.384,4.506-.36,9.033-.624,13.546-.29,4.95-.964,9.883-1.811,14.767-1.667,9.617-3.942,19.147-6.401,28.589-5.346,20.524-11.995,40.677-18.324,60.911-.756,2.417-1.749,4.922.379,6.964.844.81,1.994,1.093,3.073,1.445,1.322.431,2.643.864,3.965,1.294,4.967,1.616,9.94,3.226,14.979,4.606,2.301.63,4.606,1.391,6.43-.65,1.572-1.759,2.175-4.564,2.992-6.718,1.94-5.11,3.878-10.222,5.812-15.334,6.292-16.625,12.546-33.264,18.848-49.884,4.663-12.298,9.539-24.513,14.207-36.809.753-1.984,1.502-3.969,2.255-5.953.383-1.01-.425-2.193-1.397-2.46-1.124-.309-2.076.383-2.46,1.397-4.704,12.405-9.603,24.734-14.323,37.133-5.691,14.951-11.315,29.927-16.969,44.891-3.678,9.736-7.36,19.47-11.06,29.197-.181.476-.666,1.93-.968,2-.342.079-2.102-.611-2.7-.776-2.38-.659-4.745-1.371-7.103-2.105-2.499-.778-4.99-1.582-7.479-2.392-1.176-.383-2.352-.767-3.527-1.151-.551-.18-1.872-.267-1.927-.951-.042-.517.447-1.451.61-1.972.197-.629.393-1.258.59-1.887.414-1.322.829-2.643,1.245-3.965.814-2.589,1.631-5.178,2.448-7.766,1.555-4.928,3.109-9.856,4.641-14.791,2.96-9.539,5.834-19.107,8.438-28.75,2.557-9.471,4.863-19.016,6.764-28.642.853-4.32,1.546-8.664,2.089-13.033.597-4.809.815-9.613.972-14.453.068-2.102.159-4.202.338-6.298.219-2.565-3.782-2.55-4,0h0Z"/><path class="g" d="M102.881,37.758c-1.659-1.705-3.99-2.594-6.357-2.034-2.186.518-3.653,2.444-4.183,4.543-.902,3.574.465,7.698,3.006,10.293,1.505,1.537,3.395,2.548,5.383,3.316,1.008.389,2.194-.43,2.46-1.397.31-1.13-.385-2.069-1.397-2.46-.13-.049-.259-.1-.388-.153.162.069.133.055-.086-.041-.181-.085-.362-.168-.541-.258-.402-.202-.794-.424-1.172-.667-.157-.101-.308-.21-.463-.313-.48-.318.256.237-.176-.131-.318-.271-.627-.547-.914-.851-.121-.128-.233-.263-.351-.394-.144-.178-.149-.18-.014-.007-.053-.07-.104-.141-.154-.213-.211-.318-.417-.635-.595-.973-.03-.057-.288-.596-.204-.404.083.189-.139-.371-.161-.436-.132-.383-.239-.774-.325-1.17-.048-.221-.089-.444-.124-.667.055.352-.019-.194-.026-.264-.04-.458-.052-.923.007-1.38-.045.346.052-.208.066-.267.047-.198.11-.39.168-.585.085-.226.093-.253.022-.081.056-.12.116-.237.181-.352.037-.064.348-.511.125-.232.115-.144.251-.288.396-.404-.317.253.535-.227.209-.106.057-.021.615-.142.325-.104.215-.028.468-.024.683-.003.189.019.782.219.902.299-.003-.002.507.343.264.155.218.169.412.373.604.57.753.774,2.072.756,2.828,0,.775-.775.756-2.052,0-2.828h0Z"/><path class="g" d="M124.425,36.894c.512,1.214.608,4.13-1.623,4.63-2.988.317-3.551-3.157-2.736-4.913.667-1.437,3.022-2.268,4.359.283Z"/><path class="g" d="M125.712,25.322c.881,4.614.026,9.478,1.644,13.978.737,2.048,1.93,3.825,3.839,4.941.431.252,1.259.601,1.054,1.197-.107.311-.533.576-.764.804-.473.467-.909.941-1.291,1.49-1.507,2.172-1.228,4.732-1.632,7.222-.39,2.404-.927,5.212-2.91,6.855-1.583,1.312-4.076,1.727-6.061,1.9-1.052.092-2.152.135-3.201-.019-1.401-.206-2.628-.388-3.769.677-.707.66-.891,1.503-1.133,2.383-.305,1.108-.66,2.206-1.078,3.277-.471,1.207-.969,2.405-1.453,3.607-.404,1.002.44,2.197,1.397,2.46,1.142.314,2.055-.391,2.46-1.397.457-1.136.922-2.269,1.373-3.407.308-.779.585-1.57.834-2.369.152-.488.293-.98.423-1.474.022-.083.106-.287.093-.362-.119-.658-.507.612-.643.364.111.202,1.509.247,1.652.261.555.055,1.112.075,1.67.068,1.441-.018,2.897-.203,4.308-.494,2.257-.466,4.51-1.248,6.202-2.871,1.934-1.855,2.903-4.443,3.439-7.012.301-1.44.502-2.908.644-4.372.109-1.125.047-2.163.731-3.126.548-.771,1.349-1.33,1.914-2.098.763-1.037,1.07-2.308.728-3.571-.34-1.256-1.163-2.287-2.231-3.01-.787-.532-1.509-.849-2.061-1.656-1.252-1.832-1.461-4.321-1.616-6.471-.214-2.97-.142-5.894-.704-8.838-.482-2.526-4.338-1.456-3.857,1.063h0Z"/><path class="g" d="M94.971,48.529c-.658.912-1.307,1.831-1.965,2.743-.366.508-.735,1.014-1.108,1.517-.202.273-.406.545-.611.816-.094.125-.189.249-.283.373-.375.493.235-.298-.148.192-1.576,2.019-3.24,4.019-5.221,5.658-.809.67-.745,2.145,0,2.828.86.79,1.965.714,2.828,0,2.028-1.678,3.728-3.735,5.337-5.807,1.599-2.06,3.1-4.188,4.625-6.302.614-.851.175-2.265-.718-2.736-1.036-.547-2.081-.191-2.736.718h0Z"/><path class="g" d="M130.664,51.371c-.89-.013-1.781-.043-2.665-.16l.532.071c-.666-.093-1.321-.238-1.957-.456-.473-.162-1.12-.045-1.541.202-.415.243-.811.718-.919,1.195-.117.512-.091,1.087.202,1.541s.682.743,1.195.919c1.647.566,3.426.662,5.154.688.508.008,1.057-.228,1.414-.586.347-.347.608-.916.586-1.414-.049-1.097-.879-1.983-2-2h0Z"/><path class="g" d="M77.048,13.799c-6.79,5.83-8.378,15.766-7.032,24.188.673,4.213,2.22,8.037,4.48,11.643,2.288,3.652,5.132,6.579,8.187,9.581,1.384,1.36,2.987,2.823,3.726,4.664.583,1.452.232,3.194-.099,4.811-.514,2.513,3.341,3.588,3.857,1.063.711-3.479.832-6.63-1.328-9.632-2.368-3.29-5.725-5.685-8.28-8.813-5.299-6.488-8.177-14.845-6.667-23.24.783-4.354,2.575-8.509,5.984-11.436,1.956-1.68-.884-4.498-2.828-2.828h0Z"/><path class="e" d="M83.949,69.379c.521-1.342,1.13-2.275,1.544-3.52.472-1.421,2.094-2.111,3.467-1.47,3.618,1.69,6.712,2.765,10.642,4.714,4.751,2.356,9.632,5.393,13.299,9.817.249.3.654,1.238,1.004,2.122.554,1.396,1.379,2.67,2.42,3.753.292.304.578.598.831.863.468.491,1.024.89,1.541,1.346,2.496,2.203,4.228,4.713,5.802,7.426,2.877,4.961,3.698,6.327,6.543,10.953,2.241,3.356,4.933,7.672,8.124,7.887,3.855.259,5.467-3.424,7.35-6.331.938-1.448,1.558-2.843,2.198-3.837.355-.552,1.084-.618,1.669-.321,2.945,1.495,13.561,9.109,16.814,11.354.696.481.807,1.653.492,2.438-3.032,7.563-5.553,11.459-13.24,19.117-4.304,4.287-12.02,8.107-18.326,7.297-3.222-.414-6.048-1.205-8.687-2.398-1.169,8.896-2.013,15.573-3.522,25.863-.163,1.853-1.197,5.201-1.655,6.46-1.78,4.892-2.828,6.664-7.37,8.858-8.312,4.016-21.898,1.648-31.641-1.305-7.634-2.314-14.612-4.352-18.343-6.291-.861-.447-1.696-1.117-1.975-2.046-.249-.831.043-1.718.333-2.537,1.599-4.512,3.198-9.025,4.797-13.537,1.884-5.317,3.655-9.257,4.702-13.72-1.988.78-4.555,1.837-7.839,2.556-1.24.27-2.45-.45-2.88-1.63-2.59-7.26-5.29-17.76-6.61-24.65-.99-5.22-1.3-8.98.93-13.99,4.47-10.05,11.01-15.18,17.55-21.58l.681-.499c1.89-2.685,3.99-5.139,5.684-7.975l3.671-5.187Z"/><path class="g" d="M72.499,81.626c-3.739,3.649-7.687,7.105-11.034,11.132-3.637,4.376-7.199,9.727-8.363,15.382-1.107,5.382.298,10.929,1.499,16.179,1.259,5.501,2.715,10.97,4.452,16.34.871,2.691,1.719,6.203,5.202,6.284,1.67.039,3.478-.667,5.045-1.188,1.353-.45,2.679-.974,4.006-1.496,1.005-.395,1.705-1.34,1.397-2.46-.263-.958-1.449-1.794-2.46-1.397-2.274.894-4.553,1.759-6.929,2.346-1.058.261-1.239.3-1.576-.687-.405-1.187-.803-2.375-1.179-3.571-1.539-4.894-2.859-9.862-4.013-14.86-1.032-4.468-2.49-9.434-1.66-14.039.9-4.996,3.996-9.832,7.167-13.709,3.397-4.153,7.447-7.689,11.277-11.426,1.845-1.801-.984-4.628-2.828-2.828h0Z"/><path class="g" d="M155.077,95.201c-.419-1.866-.822-3.736-1.256-5.599-.04-.173-.075-.348-.123-.519-.058-.206.001.361-.007-.031-.007-.351-.016-.696.01-1.048.045-.621.164-1.205.371-2.006.404-1.562.788-2.569,1.691-3.884.081-.111.083-.118.003-.023l.132-.159c.131-.154.275-.289.415-.435.232-.242-.037-.004.119-.099.13-.079.26-.167.402-.225-.461.185.395-.04-.127.033.126-.018.258-.013.385-.01-.326-.007.23.053.296.073.217.067.213.073.433.185.961.492,2.17.251,2.736-.718.523-.894.248-2.242-.718-2.736-2.143-1.097-4.443-1.065-6.283.603-1.484,1.345-2.396,3.341-3.012,5.21-.574,1.743-1.032,3.729-.817,5.57.268,2.302.985,4.617,1.493,6.878.237,1.054,1.455,1.673,2.46,1.397,1.085-.298,1.634-1.403,1.397-2.46h0Z"/><path class="g" d="M161.393,85.142c1.59-2.902,2.904-5.931,4.283-8.936.527-1.148,1.125-2.359,2.563-1.556.856.478,1.041,1.196,1.037,2.008-.004.837.62,1.744,1.468,1.929,1.09.237,2.061.724,2.73,1.649.708.979.696,2.267,1.344,3.298,1.288,2.049,3.53,3.292,4.531,5.591.947,2.175-.041,4.237-1.508,5.913-1.981,2.264-4.337,4.159-6.589,6.14-1.936,1.704.902,4.524,2.828,2.828,4.416-3.885,11.773-9.106,9.125-15.945-.544-1.405-1.35-2.608-2.303-3.767-.499-.607-1.037-1.179-1.595-1.732-.421-.418-.966-.792-1.214-1.345-.325-.727-.401-1.533-.756-2.269-.338-.7-.818-1.363-1.358-1.923-1.119-1.159-2.604-1.953-4.171-2.294l1.468,1.929c.009-1.789-.618-3.555-2.007-4.737-1.816-1.545-4.434-2.064-6.559-.825-2.037,1.187-2.736,3.633-3.651,5.659-.975,2.156-1.981,4.293-3.118,6.369-1.237,2.259,2.215,4.28,3.454,2.019h0Z"/><path class="g" d="M106.462,85.706c-3.268.657-6.137,1.966-8.673,4.145s-4.48,5.056-5.849,8.095c-.443.984-.284,2.151.718,2.736.856.501,2.291.272,2.736-.718,1.27-2.82,2.789-5.144,5.058-7.142.584-.514.842-.717,1.482-1.14.577-.382,1.181-.723,1.809-1.015.04-.018.494-.213.293-.132s.262-.098.303-.113c.309-.114.621-.218.936-.312.74-.223,1.494-.396,2.251-.548,1.059-.213,1.669-1.471,1.397-2.46-.303-1.103-1.398-1.611-2.46-1.397h0Z"/><path class="g" d="M78.551,73.556c-3.204,5.294-7.674,9.639-9.715,15.61-2.493,7.292-1.478,15.263-.084,22.661,1.292,6.86,2.949,13.769,3.001,20.784.026,3.485-.29,6.888-1.183,10.262-.838,3.166-2.052,6.216-3.202,9.278-1.408,3.747-2.711,7.534-4.048,11.307-.661,1.866-1.351,3.726-1.985,5.601-.652,1.929-.699,3.809.701,5.42,1.806,2.077,5.263,2.975,7.768,3.855,3.481,1.224,7.02,2.277,10.551,3.344,6.43,1.945,12.921,3.585,19.644,4.082,6.035.447,12.378-.05,17.682-3.212,4.944-2.948,6.983-9.03,7.994-14.429.724-3.866,1.134-7.822,1.667-11.719.505-3.692.991-7.387,1.475-11.083.14-1.073-1.02-2-2-2-1.197,0-1.859.924-2,2-.857,6.547-1.736,13.09-2.689,19.624-.361,2.478-.898,4.881-1.732,7.252-.692,1.967-1.456,4.112-2.949,5.573-3.623,3.546-9.527,4.183-14.326,4.129-6.081-.068-12.128-1.285-17.958-2.954-3.481-.997-6.947-2.07-10.397-3.169-2.644-.843-5.329-1.678-7.853-2.841-.533-.245-1.18-.485-1.631-.865-.565-.476-.444-.86-.233-1.532.589-1.868,1.308-3.703,1.962-5.549,1.271-3.587,2.509-7.188,3.833-10.756,2.24-6.032,4.499-11.887,4.848-18.389.354-6.595-.768-13.188-2.019-19.64-1.524-7.859-3.487-16.034-1.552-24.008,1.58-6.512,6.519-11.06,9.884-16.621,1.336-2.208-2.121-4.221-3.454-2.019h0Z"/><path class="g" d="M104.116,39.284c1.359-2.144,2.907-4.158,4.583-6.063.852-.968,1.738-1.91,2.673-2.798.383-.364.774-.719,1.177-1.059.168-.142.347-.293.511-.417.639-.482.291.059-.372-.196l-.883-.514c-.067-.33-.047-.276.06.161.043.136.059.276.046.42.039.38.003.724.1,1.108.229.907.973,1.697,1.859,1.984,1.53.495,2.717-.585,3.869-1.418,2.38-1.72,4.744-3.511,7.328-4.921,2.261-1.233.244-4.688-2.019-3.454-1.69.922-3.279,2.02-4.847,3.134-1.384.983-2.8,2.347-4.345,3.055l1.009-.273.591.197.514.883c-.344-.838-.148-2-.673-2.92-.581-1.018-1.843-1.702-3.016-1.377-1.562.433-3.054,2.098-4.18,3.206-2.808,2.764-5.333,5.918-7.441,9.245-1.382,2.181,2.078,4.19,3.454,2.019h0Z"/><path class="g" d="M84.787,11.452c5.129-5.781,13.943-8.327,21.46-7.23,6.252.913,12.212,4.383,15.7,9.711,2.226,3.399,3.413,7.331,3.803,11.358.104,1.075.845,2,2,2,1.001,0,2.105-.918,2-2-.762-7.862-4.053-15.014-10.431-19.84C112.356.182,102.978-1.288,94.638,1.131c-4.691,1.36-9.404,3.8-12.679,7.492-1.703,1.92,1.116,4.759,2.828,2.828h0Z"/><path class="g" d="M100.706,113.431c3.015,6.506,7.596,12.473,12.199,17.925,4.762,5.64,10.344,10.327,17.549,12.487,4.194,1.258,8.472,1.648,12.735.51,4.165-1.112,8.091-3.265,11.369-6.051s6.251-6.191,8.847-9.62c2.093-2.765,3.751-5.785,5.124-8.964.806-1.864,1.921-3.904.901-5.92-.6-1.187-1.912-1.865-2.971-2.608-2.643-1.855-5.281-3.717-7.943-5.544-2.217-1.522-4.437-3.174-6.821-4.431-2.039-1.075-3.907-.532-5.057,1.457-1.041,1.801-2.049,3.607-3.16,5.368-.768,1.218-1.7,2.758-3.19,3.152-1.541.407-2.76-.65-3.753-1.696-2.763-2.912-4.734-6.656-6.787-10.078-2.145-3.575-4.049-7.345-6.637-10.629-1.442-1.83-3.231-3.197-4.836-4.854-.737-.761-1.378-1.538-1.911-2.458-.584-1.008-.91-2.133-1.476-3.145-1.056-1.887-3.001-3.503-4.649-4.86-1.794-1.478-3.705-2.804-5.706-3.985-3.958-2.337-8.201-4.034-12.406-5.858-2.093-.908-4.128-2.15-6.392-.94-.856.458-1.538,1.209-1.941,2.083-.45.978-1.052,2.104-1.246,3.157-.536,2.911,2.185,3.845,4.332,4.731,2.245.927,4.489,1.858,6.723,2.812,1.816.775,3.626,1.565,5.42,2.388.981.45,2.153.279,2.736-.718.504-.861.269-2.284-.718-2.736-3.677-1.685-7.411-3.244-11.146-4.795-.577-.24-1.155-.479-1.732-.717-.425-.175-1.117-.632-1.553-.641.235.005-.301-.116-.305-.112l.142.547.095-.211c.419-.379.544-1.395.803-1.877.237-.441.337-.501.884-.356,1.017.271,2.052.915,3.025,1.328,3.898,1.653,7.789,3.301,11.436,5.472,1.763,1.05,3.474,2.199,5.043,3.524,1.401,1.183,3.157,2.564,3.931,4.261.946,2.075,1.887,3.92,3.466,5.604,1.441,1.536,3.136,2.772,4.506,4.388,2.495,2.942,4.218,6.519,6.182,9.82,1.865,3.133,3.713,6.307,5.89,9.237,2.188,2.946,5,5.94,9.016,5.291,3.632-.587,5.48-3.972,7.255-6.809.515-.823,1.011-1.647,1.473-2.501.188-.348.528-.784.639-1.17l.175-.299-.718.2c.001-.022.044-.03.127.077.215.275.851.492,1.154.678.493.303.981.616,1.467.931,2.56,1.663,5.066,3.408,7.568,5.155,1.19.831,2.377,1.665,3.565,2.5.46.324.921.647,1.381.97.349.245.994.53,1.249.872-.208-.278-.13-.217-.207-.041-.139.314-.235.664-.367.986-.324.792-.665,1.578-1.024,2.355-.659,1.428-1.381,2.827-2.193,4.175-1.781,2.956-4.002,5.58-6.364,8.085-2.788,2.958-5.585,5.582-9.244,7.428-3.39,1.711-7.244,2.752-11.046,2.146-6.904-1.1-12.785-4.578-17.49-9.667-4.528-4.898-8.616-10.361-11.995-16.113-.711-1.21-1.38-2.443-1.97-3.717-.454-.98-1.867-1.226-2.736-.718-1.005.588-1.173,1.753-.718,2.736h0Z"/></g></g></svg>