<svg id="b" xmlns="http://www.w3.org/2000/svg" width="348.333" height="381.023" viewBox="0 0 348.333 381.023" style="color: initial !important;"><defs><style>.e{fill:#ffffff;}.f{fill:none;}.g{fill:#7abee6;}.h{fill:#211715;}.i{fill:#7a7473;}.j{fill:#64a4d6;}.k{fill:#645d5c;}</style></defs><g id="c"><g id="d"><path class="e" d="M69.788,150.491c-.798-1.061-1.555-2.375-1.913-3.218-.864-2.034-1.791-5.682-1.953-7.149.055-.008.109-.018.164-.03,5.254-1.148,6.066-2.234,9.603-3.074-.649,4.544-1.984,7.896-3.772,14.036-.112.385-.222.762-.328,1.125-.505-.161-1.165-.846-1.8-1.691Z"/><path class="e" d="M170.019,103.001c-.226.214-.454.429-.686.647-.947.729-2.329,1.876-3.417,3.042,0,0-1.619,1.735-3.865,4.148-4.195-2.948-10.51-7.378-12.95-8.71.443-1.308.887-2.617,1.33-3.925.365-1.077.427-2.234.178-3.344l-1.06-4.724c-.501-1.642.368-5.306,1.451-7.389,1.501-2.886,3.628-4.888,7.692-.895,1.089-2.212,1.99-4.333,3.253-7.05.739-1.59,2.611-2.472,4.5-1.583,2.106.991,2.385,2.771,2.36,3.88,2.279.426,4.209,2.189,4.659,4.361.17.935.619,1.746,1.35,2.358,4.133,3.928,5.144,7.873,1.478,12.456-2.41,3.012-4.253,4.818-6.273,6.728Z"/><path class="e" d="M91.22,332.909c-22.129,0-55.675,0-89.22,0v46.113h344.333c0-41.602,0-93.731,0-135.333h-114.329s0,17.055,0,45.11c0,0-57.501,0-115.001,0,0,15.289,0,30.578.001,44.11-.002,0-9.982,0-25.783,0Z"/><path class="g" d="M120.291,87.422c-.546-.727-1.136-1.475-1.791-2.274-.424-.518-1.306-1.495-1.751-1.98-.687-.749-1.493-1.527-2.02-2.005-3.955-3.589-11.29-8.606-15.896-10.89-3.81-1.89-6.055-3.878-9.564-5.517-1.331-.622-2.904.048-3.362,1.425-.401,1.207-.991,2.112-1.497,3.413l-1.8,2.623c-1.645,2.332-3.349,4.215-4.915,6.232-7.164,7.725-14.761,12.477-19.696,23.574-2.107,4.739-1.822,8.291-.878,13.229,1.246,6.512,3.794,16.437,6.249,23.299.402,1.124,1.549,1.797,2.715,1.543,5.254-1.148,6.066-2.234,9.603-3.072-.65,4.542-1.984,7.894-3.773,14.035-1.3,4.464-2.321,7.878-3.864,12.265-.28.795-.562,1.658-.323,2.465.267.902,1.069,1.553,1.895,1.986,3.584,1.88,9.234,3.303,16.567,5.543,9.36,2.858,21.44,4.768,29.432.855,4.367-2.138,4.813-3.293,5.542-6.398.58-2.468,1.4-7.527,1.559-9.328,1.242-8.731,1.636-12.293,2.94-18.686,0,0,.105-.512.287-1.409,2.738,1.32,5.667,2.182,9.046,2.616,6.114.785,13.596-2.918,17.769-7.075,7.453-7.425,9.898-11.203,12.838-18.536.305-.762.198-1.898-.477-2.364-3.154-2.177-13.447-9.56-16.303-11.009-.567-.288-1.273-.224-1.618.311-.62.963-1.222,2.316-2.131,3.72-1.825,2.819-3.389,6.391-7.126,6.139-3.094-.208-5.704-4.394-7.877-7.647-2.759-4.486-3.638-7.193-6.428-12.003-1.065-1.836-2.094-3.402-3.355-5.08Z"/><path class="e" d="M97.567,3.03c-3.801.781-7.77,2.693-11.686,5.52-3.326,2.489-4.642,4.434-7.154,8.259-2.7,4.111-4.349,9.686-4.419,15.481-.024,1.966.143,3.826.452,5.575,1.341,7.579,5.374,13.081,8.304,16.175,2.34,2.471,6.604,5.794,6.986,9.223.039.35-.005,1.047-.093,1.825,3.128,1.572,5.321,3.421,8.876,5.184,3.483,1.727,8.526,5.017,12.488,8.07.895-3.686,1.505-6.191,1.505-6.191,0,0,.528-2.168.859-3.099.835-2.344,1.766-3.891,1.804-3.991.242-.617.906-.966,1.547-.803,2.675.679,6.783.222,9.771-.926,1.525-.585,2.989-1.704,4.113-3.916.531-1.034.935-2.427,1.233-3.857.452-2.171.668-4.439.716-5.735.25-.951.653-1.836,1.34-2.598,1.037-1.155,2.726-2.069,1.826-4.031-.342-.742-.985-1.288-1.713-1.667-3.663-1.91-3.899-7.416-4.08-11.385.056-1.861-.038-3.587-.268-5.188-.295-4.052-1.154-6.341-2.752-9.429-.731-1.413-4.189-8.265-13.283-11.277-4.34-1.437-8.445-2.124-14.388-1.525-.656.066-1.319.168-1.987.306Z"/><path class="j" d="M281.395,115c-19.25,8.865-40.031,18.217-62.653,23.944-1.413.358-1.488,2.331-.105,2.79l20.907,6.934c.999.331,1.323,1.574.624,2.36-32.738,36.818-120.435,78.071-174.291,96.004-1.704.568-1.071,3.117.7,2.817,35.953-6.082,104.537-25.927,126.123-36.274,22.488-10.78,45.055-25.278,60.839-41.228.698-.705,1.871-.539,2.325.342,2.748,5.332,6.27,12.485,9.574,19.923.554,1.248,2.367,1.124,2.732-.191,6.006-21.671,11.54-51.209,15.266-75.888.173-1.143-.993-2.017-2.043-1.533Z"/><path class="h" d="M119.002,379.023v-90.223l-2,2c21.297,0,42.593,0,63.89,0,14.466,0,28.932,0,43.398,0,2.571,0,5.142,0,7.713,0s2.578-4,0-4c-7.615,0-15.23,0-22.846,0-18.292,0-36.583,0-54.875,0-12.427,0-24.854,0-37.281,0-1.081,0-2,.916-2,2v90.223c0,2.574,4,2.578,4,0h0Z"/><path class="h" d="M346.333,377.023H2c-2.574,0-2.578,4,0,4h344.333c2.574,0,2.578-4,0-4h0Z"/><path class="h" d="M4,379.023v-46.113l-2,2c21.297,0,42.594,0,63.891,0,14.466,0,28.932,0,43.399,0,2.571,0,5.142,0,7.714,0s2.578-4,0-4c-7.615,0-15.231,0-22.846,0-18.292,0-36.584,0-54.876,0-12.427,0-24.854,0-37.282,0-1.081,0-2,.916-2,2v46.113c0,2.574,4,2.578,4,0h0Z"/><path class="h" d="M234.004,379.023v-135.333l-2,2h114.329l-2-2c0,17.399,0,34.799,0,52.198s0,36.209,0,54.313v28.822c0,2.574,4,2.578,4,0,0-17.399,0-34.799,0-52.198,0-18.104,0-36.209,0-54.313v-28.822c0-1.081-.916-2-2-2h-114.329c-1.081,0-2,.916-2,2v135.333c0,2.574,4,2.578,4,0h0Z"/><path class="i" d="M179.795,287.293c.402-.136.798-.285,1.187-.447,2.152-.893,4.092-2.568,4.762-4.799,1.031-3.434-1.243-7.121-4.241-9.088-2.998-1.967-6.609-2.699-10.014-3.823-2.396-.791-4.831-1.89-6.656-3.572-6.476.433-14.34.523-21.44-.494-5.483,2.468-5.946,7.64-6.185,12.845-.082,1.784.653,3.629,1.366,4.91,1.328,2.386,4.084,4.065,7.684,4.129,10.242.18,18.964.513,27.883,1.149,1.903.136,3.835-.196,5.654-.811Z"/><path class="i" d="M70.635,331.427c2.137.126,4.357-.416,5.906-1.871,2.664-2.503,2.573-6.316.934-9.582-1.639-3.267-4.45-5.757-6.88-8.487-2.429-2.731-4.61-6.052-4.498-9.705,0,0,.049-1.587.12-3.768-4.609-1.097-9.886-3.037-15.249-5.715-1.001-.478-1.911-.86-2.885-1.318-1.056,1.236-3.045,2.652-3.045,2.652-4.291.967-7.169,4.668-9.13,8.665-.659,1.342-.949,2.507-1.013,4.34-.113,3.24.437,5.739,3.23,7.384,8.844,5.21,16.653,10.251,25.12,15.548,2.013,1.259,4.29,1.473,6.644,1.785.247.033.496.057.746.071Z"/><path class="h" d="M161.171,264.118c3.24,5.716,9.899,6.743,15.557,8.751,2.741.973,5.505,2.49,6.762,5.258,1.11,2.443.186,4.829-2.039,6.227-2.764,1.736-5.889,1.841-9.034,1.629-3.317-.223-6.637-.405-9.958-.552-3.47-.153-6.941-.268-10.413-.355-1.765-.044-3.529-.076-5.294-.114-1.396-.03-2.771-.182-4.026-.848-1.16-.615-2-1.474-2.604-2.631-.887-1.697-.952-3.274-.831-5.137.202-3.101.694-6.233,3.136-8.387,1.934-1.707-.904-4.527-2.828-2.828-2.614,2.307-3.665,5.54-4.092,8.903-.464,3.658-.44,7.319,1.763,10.467,1.934,2.763,5.065,4.189,8.374,4.423,4.028.285,8.112.182,12.149.323,3.8.132,7.598.306,11.394.531,3.935.234,7.712.685,11.51-.688,3.191-1.154,6.256-3.384,7.07-6.869.795-3.403-.712-6.854-3.106-9.254-2.953-2.96-7.113-4.072-10.995-5.245-3.417-1.033-7.181-2.34-9.042-5.624-1.269-2.239-4.726-.226-3.454,2.019h0Z"/><path class="h" d="M64.097,301.782c-.054,6.957,5.646,11.218,9.64,16.124,1.697,2.084,3.346,4.871,2.812,7.675-.543,2.85-3.255,4.002-5.911,3.847-1.414-.083-2.885-.31-4.253-.682-1.692-.46-3.103-1.511-4.571-2.433-3.061-1.924-6.117-3.858-9.181-5.777-3.084-1.932-6.177-3.849-9.292-5.73-1.492-.901-3.083-1.714-4.518-2.703-.936-.645-1.482-1.496-1.745-2.592-.732-3.051.22-5.906,1.809-8.482,1.575-2.552,3.693-4.733,6.683-5.466,2.499-.612,1.441-4.471-1.063-3.857-3.311.812-5.913,2.951-7.929,5.63s-3.507,5.695-3.671,9.081c-.15,3.082.416,6.354,2.925,8.417,1.531,1.259,3.382,2.155,5.076,3.176,1.843,1.111,3.679,2.234,5.509,3.366,3.468,2.145,6.915,4.321,10.365,6.494,3.367,2.122,6.505,4.509,10.524,5.136,3.511.548,7.118.783,10.077-1.56,2.835-2.245,3.705-5.855,2.98-9.297-.86-4.084-3.862-7.275-6.629-10.212-2.656-2.819-5.668-6.027-5.636-10.155.02-2.575-3.98-2.577-4,0h0Z"/><path class="e" d="M84.81,172.894c.458.139.919.28,1.383.422,9.36,2.858,21.44,4.768,29.432.855.895-.438,1.641-.848,2.269-1.249,11.373,4.391,23.049,8.752,33.717,13.544,2.554,1.147,6.376,3.77,8.473,5.64,2.893,2.583,5.123,6.146,6.167,9.917,1.674,6.054,2.293,10.45,2.333,17.25.082,13.667-.478,30.501-.948,44.158-.041,1.179-1.014,2.003-2.19,2.087-7.044.505-15.848.617-23.54-.679-1.178-.198-2.103-1.039-2.087-2.233.184-14.584.434-30.664.433-41.333,0-2.552-.661-4.959-2.448-7.17-1.581-1.942-4.091-3.172-7.738-3.843-6.167-1.136-17.922-3.46-24.931-5.233-.41,1.195-.827,2.403-1.249,3.621-5.287,15.248-15.661,43.667-33.232,86.875-.497,1.223-1.013,2.747-2.265,2.918-.502.069-.986-.158-1.483-.269-5.904-1.316-12.987-4.066-19.968-8.02-1.065-.603-1.89-1.675-1.465-2.879,8.569-24.254,17.501-49.958,21.724-78.441.687-4.274,1.394-10.288,1.43-16.392.832-8.758.458-16.589,2.339-24.121,3.493,1.431,8.451,2.932,13.845,4.575Z"/><path class="h" d="M118.526,175.299c8.132,3.133,16.287,6.214,24.336,9.556,6.471,2.687,13.66,5.422,18.133,11.131,2.318,2.959,3.37,6.387,4.198,9.996.783,3.414,1.201,6.86,1.33,10.359.284,7.724.016,15.497-.164,23.221-.093,4.012-.207,8.024-.332,12.035-.118,3.787-.027,7.659-.379,11.432-.053.572-.06.467-.796.531-.879.077-1.765.111-2.646.154-1.943.095-3.887.149-5.832.157-4.017.016-8.055-.146-12.041-.672-.585-.077-1.856-.012-2.314-.386-.392-.319-.193-1.054-.186-1.564.026-2.06.054-4.121.081-6.181.055-4.121.11-8.241.161-12.362.088-7.14.26-14.292.174-21.433-.043-3.57-1.308-7.292-4.096-9.665-2.549-2.169-5.71-2.928-8.921-3.53-6.418-1.204-12.826-2.486-19.193-3.936-1.462-.333-2.921-.678-4.375-1.044-2.497-.629-3.562,3.228-1.063,3.857,6.645,1.673,13.379,3.015,20.105,4.319,3.001.582,6.398.823,9.144,2.235,3.099,1.593,4.392,4.731,4.399,8.095.016,7.636-.1,15.273-.197,22.907-.054,4.285-.112,8.57-.168,12.856-.013.991-.026,1.982-.039,2.972-.014,1.053-.163,2.231.092,3.264.432,1.745,1.931,2.888,3.649,3.2,4.124.747,8.371.989,12.555,1.054,2.055.032,4.11.007,6.163-.065,1.916-.067,3.956-.019,5.844-.37,4.411-.82,3.564-6.232,3.676-9.567.137-4.081.266-8.163.38-12.245.229-8.236.405-16.476.386-24.716-.018-7.507-.484-15.598-3.569-22.565-3.025-6.832-9.446-11.414-16.103-14.348-8.22-3.623-16.596-6.875-24.979-10.099-2.116-.814-4.233-1.626-6.349-2.441-1.008-.388-2.194.429-2.46,1.397-.31,1.129.385,2.07,1.397,2.46h0Z"/><path class="h" d="M73.171,80.213c-3.602,3.511-7.409,6.837-10.608,10.737-3.482,4.245-6.935,9.474-7.866,14.98-.871,5.154.532,10.46,1.697,15.466,1.252,5.38,2.69,10.734,4.453,15.971.448,1.331.806,2.742,1.903,3.701,1.417,1.239,3.069,1.159,4.787.744,2.279-.55,4.381-1.449,6.575-2.242,2.403-.868,1.366-4.735-1.063-3.857-1.614.583-3.175,1.285-4.823,1.774-.649.192-2.371.912-2.836.577-.252-.181-.353-.788-.447-1.061-.204-.591-.402-1.184-.595-1.778-1.553-4.771-2.86-9.627-4.007-14.511-1.017-4.33-2.456-9.126-1.805-13.603.687-4.727,3.668-9.385,6.618-13.04,3.248-4.024,7.154-7.43,10.846-11.029,1.846-1.8-.983-4.627-2.828-2.828h0Z"/><path class="h" d="M64.15,141.637c.363,1.855.863,3.707,1.523,5.479.732,1.965,1.805,3.749,3.151,5.355.674.805,2.142.748,2.828,0,.786-.856.719-1.97,0-2.828-.064-.076-.127-.153-.19-.23-.314-.383.146.217-.02-.027-.136-.2-.283-.392-.418-.592-.253-.376-.493-.76-.72-1.153-.21-.364-.399-.736-.586-1.112-.033-.066-.117-.324-.02-.033.109.327-.017-.046-.045-.117-.078-.197-.152-.396-.223-.596-.605-1.691-1.079-3.445-1.424-5.207-.201-1.029-1.486-1.712-2.46-1.397-1.095.354-1.613,1.358-1.397,2.46h0Z"/><path class="h" d="M86.34,70.126c.333-.817.759-1.594,1.104-2.407.241-.569.279-1.237.837-1.204.578.035,1.393.673,1.884.948.766.43,1.512.892,2.255,1.36,2.926,1.846,6.005,3.373,8.967,5.15,5.528,3.317,10.934,7.116,15.194,11.995,2.439,2.794,4.472,5.911,6.251,9.159,1.67,3.049,3.071,6.236,4.828,9.238,2.784,4.759,8.315,13.232,14.718,8.425,2.432-1.826,4.079-4.994,5.508-7.619.181-.333.357-.669.541-1.001.053-.095.255-.346.256-.451.007-.442-.684.181-.68.077,0,.004.552.319.767.447.895.532,1.767,1.102,2.635,1.676,4.142,2.735,8.115,5.716,12.241,8.471.072.048.141.101.214.149.376.245-.069-.038-.055-.079.04-.121-.099.291-.127.364-.273.715-.578,1.42-.888,2.12-.582,1.314-1.211,2.608-1.914,3.862-1.41,2.514-3.128,4.804-5.035,6.959-2.301,2.601-4.705,5.31-7.6,7.262-2.813,1.898-6.008,3.356-9.379,3.887-3.296.519-6.777-.302-9.868-1.432-3.002-1.098-5.826-2.839-8.284-4.873-4.877-4.035-9.129-9.166-12.47-14.525-.851-1.366-1.632-2.772-2.311-4.231-.456-.979-1.866-1.226-2.736-.718-1.004.587-1.175,1.753-.718,2.736,3.008,6.466,7.82,12.361,12.91,17.307,5.176,5.029,11.459,8.63,18.666,9.66,7.313,1.044,14.967-2.465,20.131-7.534,4.954-4.862,9.319-10.106,12.128-16.498.719-1.637,1.761-3.43,1.353-5.277-.325-1.468-1.408-2.18-2.552-2.981-2.197-1.537-4.386-3.086-6.589-4.614-2.233-1.55-4.47-3.103-6.77-4.553-.819-.516-1.739-1.196-2.688-1.444-2.128-.557-3.352.851-4.268,2.533-.85,1.561-1.769,3.075-2.718,4.578-.68,1.076-1.474,2.398-2.703,2.918-2.782,1.175-5.167-2.9-6.414-4.738-2.11-3.108-3.741-6.429-5.439-9.77-1.842-3.626-3.937-7.063-6.442-10.27-4.476-5.729-10.294-10.072-16.425-13.905-3.059-1.912-6.319-3.445-9.366-5.376-2.848-1.806-7.254-5.287-10.317-1.976-.603.652-.855,1.438-1.189,2.239-.406.975-.901,1.91-1.3,2.89-.408,1.001.443,2.198,1.397,2.46,1.145.315,2.051-.393,2.46-1.397h0Z"/><path class="h" d="M123.738,139.228c-1.67,8.225-2.377,16.59-3.863,24.841-.306,1.7-.566,3.504-1.177,5.129-.105.28-.409.807-.647,1.061-.574.613-1.285,1.038-2.013,1.446-3.993,2.237-8.488,2.8-13.006,2.657-5.543-.175-11.016-1.371-16.308-2.974-2.469-.748-3.524,3.112-1.063,3.857,9.447,2.861,20.944,5.119,30.343.947,1.851-.822,3.854-1.858,5.17-3.443,1.124-1.355,1.597-3.002,1.979-4.69.978-4.322,1.459-8.738,2.071-13.121.684-4.902,1.387-9.793,2.372-14.646.51-2.513-3.344-3.588-3.857-1.063h0Z"/><path class="h" d="M68.599,169.74c-1.003,5.129-1.214,10.347-1.484,15.553-.145,2.793-.451,5.588-.507,8.382s-.24,5.557-.521,8.323c-1.065,10.51-3.249,20.972-5.757,31.222s-5.543,20.388-8.839,30.423c-1.598,4.866-3.258,9.712-4.944,14.548-.806,2.312-1.619,4.622-2.434,6.931-.399,1.132-.896,2.231-.68,3.455.223,1.262,1.006,2.265,2.036,2.996,2.186,1.554,4.848,2.678,7.283,3.785,2.388,1.085,4.822,2.079,7.303,2.933,2.2.757,4.433,1.341,6.687,1.907,2.599.652,4.335-.601,5.349-2.958,4.155-9.655,7.893-19.517,11.742-29.297,5.731-14.563,11.33-29.179,16.682-43.885,5.097-14.008,9.753-28.162,14.586-42.262.601-1.754,1.209-3.506,1.833-5.253.867-2.429-2.996-3.474-3.857-1.063-5.037,14.109-9.545,28.402-14.607,42.504-4.665,12.997-9.548,25.915-14.543,38.788-3.5,9.021-7.061,18.019-10.668,26.997-.982,2.444-1.967,4.886-2.956,7.327-.526,1.298-1.055,2.596-1.58,3.894-.149.367-.283.744-.482,1.088-.074.129-.141.272-.236.387-.088.107.364.084-.015-.072-.913-.377-2.01-.489-2.964-.749-1.18-.322-2.349-.682-3.507-1.073-2.293-.773-4.545-1.664-6.747-2.666-1.22-.555-2.426-1.139-3.618-1.75-1.089-.559-2.614-1.095-3.519-1.925-.535-.491.088-1.339.337-2.045.43-1.219.86-2.439,1.289-3.659,1.64-4.67,3.263-9.347,4.836-14.041,3.193-9.527,6.18-19.126,8.733-28.846,2.684-10.219,4.795-20.544,6.406-30.984,1.563-10.13,1.52-20.396,2.293-30.598.184-2.436.46-4.854.929-7.253.492-2.515-3.363-3.591-3.857-1.063h0Z"/><path class="h" d="M157.494,78.411c-1.438-.726-2.99-1.082-4.535-.471-1.361.538-2.344,1.604-3.123,2.815-1.471,2.284-2.35,5.233-2.429,7.946-.046,1.596.503,3.258.85,4.803.138.615.296,1.228.414,1.846.271,1.413-.285,2.664-.733,3.986-.828,2.443,3.034,3.492,3.857,1.063.501-1.479,1.044-2.941.954-4.533-.042-.737-.193-1.457-.354-2.175-.299-1.334-.594-2.668-.898-4.001-.03-.13-.109-.622-.078-.312-.046-.465-.015-.97.042-1.424.138-1.099.464-2.224.853-3.266.334-.895.808-1.851,1.461-2.553.548-.589.868-.689,1.7-.27.964.486,2.168.255,2.736-.718.52-.889.251-2.248-.718-2.736h0Z"/><path class="h" d="M159.039,85.506c1.574-2.873,2.875-5.871,4.24-8.846.516-1.125,1.097-2.322,2.509-1.533.847.473,1.02,1.179,1.016,1.97-.004.838.62,1.743,1.468,1.929,1.256.275,2.414.93,2.993,2.133.276.574.344,1.233.578,1.827.278.704.66,1.321,1.177,1.878,1.743,1.876,3.959,3.86,3.465,6.707-.503,2.897-3.276,5.399-5.23,7.419-2.146,2.218-4.627,4.063-6.754,6.286-1.78,1.86,1.045,4.693,2.828,2.828,1.311-1.371,2.83-2.483,4.202-3.782,1.236-1.171,2.451-2.361,3.6-3.617,2.49-2.722,5.211-5.724,5.41-9.598.194-3.79-2.251-6.331-4.575-8.942-.5-.562-.531-1.22-.765-1.908-.304-.892-.771-1.675-1.368-2.399-1.136-1.378-2.763-2.307-4.498-2.688l1.468,1.929c.02-4.217-4.5-7.861-8.51-5.523-2.02,1.178-2.713,3.6-3.622,5.609-.965,2.134-1.961,4.249-3.087,6.305-1.237,2.259,2.215,4.28,3.454,2.019h0Z"/><path class="h" d="M86.724,171.387c-3.742-1.139-7.52-2.173-11.233-3.403-1.315-.436-2.637-.887-3.897-1.468-.536-.247-1.328-.521-1.712-.975-.507-.598.03-1.481.258-2.139,1.354-3.902,2.546-7.851,3.706-11.814,1.037-3.542,2.273-7.041,3.124-10.635,1.752-7.398,1.176-14.864.116-22.306-1.204-8.457-4.013-16.803-3.222-25.439.379-4.137,1.696-8.134,3.997-11.596,1.956-2.944,4.429-5.507,6.478-8.386.627-.88.156-2.226-.718-2.736-1.004-.587-2.108-.165-2.736.718-1.892,2.658-4.137,5.042-6.015,7.711-2.167,3.08-3.647,6.585-4.416,10.27-1.906,9.133.584,18.124,2.212,27.084,1.387,7.636,2.272,15.638.523,23.293-.847,3.709-2.132,7.312-3.2,10.96-1.226,4.188-2.564,8.324-3.932,12.466-.804,2.433-.215,4.681,1.953,6.142,1.397.942,3.103,1.533,4.676,2.105,4.252,1.547,8.651,2.689,12.976,4.006,2.468.752,3.523-3.108,1.063-3.857h0Z"/><path class="k" d="M83.912,9.429c5.175-4.727,11.271-7.494,20.799-7.408,3.779.034,7.704,1.135,9.412,1.712,6.167,2.084,11.235,7.074,13.911,12.627.31.644.599,1.344.862,2.086-2.706,5.198-12.641,14.282-25.795,19.005-.566-.518-1.203-.91-2.047-1.107-1.183-.276-2.326-.106-3.192.548-1.289.973-1.856,2.973-1.747,4.61.263,3.978,2.224,6.725,5.629,8.468-1.123,2.962-2.108,5.58-2.244,8.695-.058,1.346.296,3.569,1.065,5.582,1.068,2.798-.486,5.895-3.304,6.909-7.168,2.579-14.248,1.742-17.435.818-3.024-.877-5.098-2.877-5.437-6.24-.245-2.432-.056-4.348.496-6.782.71-3.127,1.335-9.995-.542-19.584-.57-2.912-.966-6.57-.783-9.879.233-4.208,1.715-10.257,5.659-15.039,1.525-1.849,3.063-3.532,4.693-5.02Z"/><path class="h" d="M104.933,36.452c-1.624-1.697-3.889-2.576-6.233-2.092-2.247.464-3.766,2.426-4.317,4.56-.925,3.587.447,7.743,3.003,10.347,1.486,1.514,3.339,2.513,5.292,3.286,1.005.398,2.196-.436,2.46-1.397.312-1.137-.389-2.061-1.397-2.46-.226-.092-.259-.104-.098-.035-.125-.054-.248-.109-.371-.166-.181-.084-.361-.171-.538-.263-.371-.191-.734-.398-1.086-.624-.183-.118-.36-.244-.539-.368-.342-.237.164.163-.172-.136-.312-.278-.621-.551-.906-.857-.12-.129-.232-.264-.347-.396-.358-.412.183.307-.112-.151-.223-.346-.446-.682-.636-1.049-.081-.158-.158-.318-.23-.48.169.379-.035-.107-.065-.191-.145-.408-.263-.827-.355-1.25-.041-.188-.074-.378-.108-.567-.037-.24-.04-.258-.01-.055-.012-.1-.022-.2-.03-.301-.04-.44-.048-.879-.008-1.32-.031.342.044-.229.06-.298.061-.273.137-.547.238-.808-.111.288.132-.254.143-.276.003-.006.341-.514.141-.259.084-.101.173-.197.268-.288.158-.141.193-.174.106-.098-.178.13.586-.247.257-.135.007-.002.598-.13.326-.097.22-.027.462-.024.682.003.658.08,1.176.446,1.753,1.048.747.78,2.076.752,2.828,0,.78-.78.749-2.046,0-2.828h0Z"/><path class="h" d="M126.47,35.774c.503,1.219.574,4.137-1.661,4.619-2.992.293-3.527-3.188-2.697-4.937.679-1.432,3.042-2.245,4.359.318Z"/><path class="h" d="M127.847,24.247c.807,4.422.047,8.997,1.332,13.363.596,2.025,1.638,3.897,3.368,5.158.404.294,1.679.752,1.723,1.373.036.513-.941,1.113-1.271,1.458-.828.867-1.435,1.866-1.838,2.995-.382,1.07-.331,2.229-.45,3.349-.262,2.479-.664,5.233-2.035,7.369-1.121,1.748-2.867,2.371-4.812,2.816-1.072.245-2.152.394-3.251.435-1.243.046-2.361-.21-3.577-.304-2.327-.181-3.313,1.711-4.15,3.518-.877,1.893-1.494,3.823-1.989,5.844-.612,2.5,3.245,3.567,3.857,1.063.409-1.672.858-3.321,1.585-4.888.078-.168.94-1.524.859-1.689.143.29-.88-.115-.053.217.571.229,1.511.21,2.126.237,4.592.2,9.87-.963,12.64-4.904,1.516-2.157,2.113-4.861,2.502-7.424.192-1.262.273-2.53.425-3.795.122-1.017.699-1.732,1.417-2.429,1.67-1.62,2.647-3.55,1.508-5.822-.959-1.914-3.183-2.354-4.175-4.219-.998-1.876-1.146-4.193-1.267-6.274-.168-2.864-.098-5.668-.616-8.51-.461-2.529-4.317-1.457-3.857,1.063h0Z"/><path class="f" d="M129.985,25.082c-.287-4.132-1.146-6.436-2.761-9.556-.731-1.413-4.189-8.265-13.283-11.277-4.34-1.437-8.445-2.124-14.388-1.525-4.391.443-9.069,2.502-13.672,5.825-3.326,2.489-4.642,4.434-7.154,8.259-2.7,4.111-4.349,9.686-4.419,15.481-.024,1.966.143,3.826.452,5.575,1.341,7.579,5.374,13.081,8.304,16.175,2.34,2.471,6.604,5.794,6.986,9.223.084.756-.219,3.137-.514,4.435"/><path class="h" d="M132.563,50.283c-.836-.019-1.671-.053-2.501-.16l.532.071c-.719-.097-1.426-.252-2.111-.494-.469-.165-1.123-.043-1.541.202-.415.243-.811.718-.919,1.195-.117.512-.091,1.087.202,1.541s.682.738,1.195.919c1.64.578,3.417.685,5.143.725.505.012,1.06-.231,1.414-.586.347-.347.608-.916.586-1.414-.049-1.104-.879-1.974-2-2h0Z"/><path class="h" d="M99.817,49.437c-1.154,3.043-2.315,6.206-2.322,9.508-.003,1.333.236,2.708.564,3.994.309,1.209,1.025,2.412.802,3.69-.489,2.805-4.02,3.297-6.299,3.744-2.79.547-5.68.634-8.507.361-1.932-.187-4.215-.499-5.814-1.689-2.017-1.502-2.072-4.189-1.917-6.484.143-2.127.766-4.209,1.008-6.331.249-2.182.297-4.386.224-6.579-.21-6.343-2.117-12.504-2.037-18.851.065-5.173,1.679-10.481,4.851-14.607,2.756-3.586,6.173-6.92,10.162-9.095,4.326-2.359,9.298-3.148,14.181-3.076,6.192.092,12.388,2.295,16.824,6.676,4.724,4.665,6.947,10.879,7.054,17.46.041,2.571,4.042,2.579,4,0-.108-6.707-2.125-13.087-6.401-18.292-3.92-4.772-9.27-7.779-15.263-9.077-6.024-1.305-12.707-1.022-18.524,1.11-4.851,1.778-8.95,4.871-12.431,8.648-4.194,4.55-7.132,9.776-8.078,15.953-.489,3.194-.448,6.403-.061,9.607.422,3.499,1.233,6.927,1.538,10.444.238,2.742.302,5.507.098,8.253-.16,2.15-.712,4.138-1.007,6.45-.384,3.01-.328,6.528,1.535,9.083,1.567,2.15,3.924,3.306,6.475,3.861,3.243.706,6.646.855,9.942.508,3.504-.369,8.272-.953,10.682-3.837,1.037-1.241,1.679-2.72,1.793-4.342.131-1.859-.728-3.484-1.115-5.257-.811-3.722.599-7.327,1.903-10.767.383-1.01-.425-2.193-1.397-2.46-1.124-.309-2.076.383-2.46,1.397h0Z"/><path class="h" d="M127.169,17.437c-1.843,3.473-4.982,6.301-8.047,8.781-4.525,3.662-9.707,6.637-15.119,8.769-1.004.396-1.705,1.339-1.397,2.46.263.957,1.45,1.795,2.46,1.397,5.998-2.363,11.578-5.556,16.616-9.581,3.389-2.708,6.881-5.925,8.941-9.807,1.206-2.273-2.245-4.296-3.454-2.019h0Z"/></g></g></svg>