<svg id="b" xmlns="http://www.w3.org/2000/svg" width="360.349" height="342.923" viewBox="0 0 360.349 342.923" style="color: initial !important;"><defs><style>.e{fill:#3d8dcc;}.f{fill:#ffffff;}.g{fill:#7abee6;}.h{fill:#211715;}.i{fill:#ffda71;}.j{fill:#645d5c;}</style></defs><g id="c"><g id="d"><path class="f" d="M267.04,121.483c-1.204,8.493-1.428,16.12-1.143,24.637.499,14.933,1.956,58.194,4.026,75.474,5.57.058,12.794.007,19.286.007s12.862-.099,19.011-.235c1.393-17.466,3.925-60.444,4.42-75.245.284-8.517.06-16.144-1.143-24.637h-44.456Z"/><path class="f" d="M40.036,218.386c-1.204,8.493-1.428,16.12-1.143,24.637.499,14.933,1.956,58.194,4.026,75.474,5.57.058,12.794.007,19.286.007s12.862-.099,19.011-.235c1.393-17.466,3.925-60.444,4.42-75.245.284-8.517.06-16.144-1.143-24.637h-44.456Z"/><path class="f" d="M92.896,338.774c-.241.281-.545.537-.94.765-1.205.698-2.666,1.04-4.127,1.197-3.339.359-6.801-.26-9.711-1.642-.873-.415-1.642-.954-2.378-1.529-1.824-1.423-4.136-2.746-6.507-3.643-1.475-.558-3.625-.918-4.795-1.816-1.628-1.25-1.535-3.631-1.535-5.323,0-1.191-.039-4.649-.039-6.012v-2.269c4.53-.003,8.992-.055,13.361-.133,5.432,3.207,11.72,8.96,15.651,12.842,1.366,1.348,2.578,3.071,1.948,5.508-.205.791-.434,1.478-.929,2.056Z"/><path class="f" d="M31.592,338.872c-.556-.597-.8-1.317-1.016-2.153-.63-2.437.84-4.109,2.205-5.457,4.068-4.016,9.871-9.212,15.811-12.739,4.116.005,8.609-.016,12.836-.019-.003,1.319-.003,2.284-.003,2.284,0,1.569-.005,4.856-.005,5.995,0,1.693.171,4.073-1.457,5.323-1.17.898-3.32,1.258-4.795,1.816-2.371.898-4.683,2.22-6.507,3.643-.737.575-1.505,1.114-2.378,1.529-2.911,1.382-6.372,2.001-9.711,1.642-1.46-.157-2.922-.499-4.127-1.197-.349-.202-.627-.425-.853-.668Z"/><path class="f" d="M319.9,241.871c-.241.281-.545.537-.94.765-1.205.698-2.666,1.04-4.127,1.197-3.339.359-6.801-.26-9.711-1.642-.873-.415-1.642-.954-2.378-1.529-1.824-1.423-4.136-2.746-6.507-3.643-1.475-.558-3.625-.918-4.795-1.816-1.628-1.25-1.535-3.631-1.535-5.323,0-1.191-.039-4.649-.039-6.012v-2.269c4.53-.003,8.992-.055,13.361-.133,5.432,3.207,11.72,8.96,15.651,12.842,1.366,1.348,2.578,3.071,1.948,5.508-.205.791-.434,1.478-.929,2.056Z"/><path class="f" d="M258.595,241.968c-.556-.597-.8-1.317-1.016-2.153-.63-2.437.84-4.109,2.205-5.457,4.068-4.016,9.871-9.212,15.811-12.739,4.116.005,8.609-.016,12.836-.019-.003,1.319-.003,2.284-.003,2.284,0,1.569-.005,4.856-.005,5.995,0,1.693.171,4.073-1.457,5.323-1.17.898-3.32,1.258-4.795,1.816-2.371.898-4.683,2.22-6.507,3.643-.737.575-1.505,1.114-2.378,1.529-2.911,1.382-6.372,2.001-9.711,1.642-1.46-.157-2.922-.499-4.127-1.197-.349-.202-.627-.425-.853-.668Z"/><path class="f" d="M38.102,224.904c-2.207-.052-7.531-.182-10.918-.37-2.134,6.297-4.59,14.075-4.51,19.083.022,1.358.955,2.254,2.236,2.494.95.178,2.057-.19,2.852-.857.795-.667,1.329-1.538,1.825-2.395,1.519-2.625,2.092-3.63,2.874-5.413.782,1.633,2.454,2.673,3.638,2.605.826-.048,1.378-.289,1.754-.611.926-.869,1.143-1.446,1.218-2.638.135-1.573.18-2.443.175-3.874l-.054-7.072-1.089-.951Z"/><path class="f" d="M99.14,246.153c.126-.005.25-.019.372-.042,1.281-.24,2.214-1.136,2.236-2.494.08-5.027-2.394-12.844-4.532-19.154-3.002.203-9.015.351-12.001.421.014.564.016.971.016.971l-.054,7.072c-.006,1.431.04,2.301.175,3.874.075,1.192.292,1.769,1.218,2.638.376.322.928.563,1.754.611,1.184.068,2.856-.972,3.638-2.605.782,1.783,1.354,2.788,2.874,5.413.496.857,1.029,1.728,1.825,2.395.693.582,1.624.936,2.48.899Z"/><path class="f" d="M327.652,149.249c.126-.005.25-.019.372-.042,1.281-.24,2.214-1.136,2.236-2.494.08-5.027-2.394-12.844-4.532-19.154-3.002.203-9.015.351-12.001.421.014.564.016.971.016.971l-.054,7.072c-.006,1.431.04,2.301.175,3.874.075,1.192.292,1.769,1.218,2.638.376.322.928.563,1.754.611,1.184.068,2.856-.972,3.638-2.605.782,1.783,1.354,2.788,2.874,5.413.496.857,1.029,1.728,1.825,2.395.693.582,1.624.936,2.48.899Z"/><path class="h" d="M322.901,125.466c2.034,5.933,4.304,11.999,5.164,18.241.084.613.141,1.231.173,1.848.017.335.178,1.041-.009,1.344-.644,1.045-2.038-.265-2.461-.842-1.602-2.183-2.87-4.838-3.911-7.334-.416-.996-1.324-1.709-2.46-1.397-.94.258-1.815,1.457-1.397,2.46.644,1.544,1.31,3.066,2.115,4.534.914,1.666,1.799,3.497,3.093,4.907,1.481,1.614,3.826,2.5,5.958,1.733,1.938-.697,3.033-2.358,3.096-4.389.111-3.592-.903-7.336-1.851-10.767-1.063-3.849-2.358-7.628-3.653-11.403-.83-2.421-4.695-1.381-3.857,1.063h0Z"/><path class="h" d="M318.118,140.459c-.24.232-.281.274-.481.401-.121.076-.245.146-.373.21.165-.06.138-.051-.082.025-.119.037-.24.067-.363.089.239-.033.245-.046.017-.038.137.038.09.031-.14-.021-.127-.029-.252-.066-.374-.11.205.086.211.078.017-.024.213.183.21.173-.008-.03-.099-.098-.194-.199-.284-.304.117.16.114.149-.01-.034l-.083-.147c.084.229.089.235.013.018-.033-.111-.061-.223-.082-.337.022.227.021.212-.004-.045-.124-1.553-.198-3.097-.186-4.654l.05-6.508c.008-1.081-.925-2-2-2-1.091,0-1.992.915-2,2l-.045,5.886c-.008.989-.022,1.977.021,2.965.096,2.221.137,4.442,1.866,6.067,2.198,2.067,5.365,1.347,7.361-.583.777-.751.755-2.074,0-2.828-.777-.777-2.05-.753-2.828,0h0Z"/><path class="f" d="M279.584,121.127c-.433-16.545-1.383-37.415-2.166-53.33,6.375,4.607,16.586,4.29,22.679-.715-.794,16.116-1.774,37.553-2.207,54.401-5.072,0-13.553,0-18.297.002-.003-.119-.006-.238-.009-.358Z"/><path class="h" d="M286.428,223.884c0,1.647-.003,3.294-.004,4.941-.001,1.315.304,3.067-.285,4.285-.639,1.321-3.102,1.48-4.336,1.921-2.164.773-4.252,1.849-6.138,3.161-1.802,1.253-3.352,2.421-5.494,3.053-2.131.628-4.384.853-6.595.588-1.674-.201-3.587-.566-4.025-2.392-.409-1.707.787-2.822,1.916-3.932,3.64-3.579,7.489-6.971,11.664-9.915,2.087-1.472.091-4.942-2.019-3.454-4.504,3.177-8.687,6.802-12.607,10.672-1.614,1.594-3.068,3.466-3.075,5.846-.007,2.326,1.127,4.673,3.194,5.804,4.695,2.569,11.467,1.702,16.041-.73,2.257-1.2,4.126-2.962,6.451-4.093,2.187-1.064,4.865-1.291,6.86-2.71,2.233-1.588,2.459-4.24,2.449-6.762-.009-2.094.004-4.189.004-6.283,0-2.574-4-2.578-4,0h0Z"/><path class="h" d="M287.869,223.867c.002,1.871.032,3.743.038,5.614.007,2.027-.063,4.267,1.13,6.02,1.473,2.165,4.041,2.531,6.343,3.33,2.599.902,4.783,2.459,6.995,4.04,4.228,3.022,10.847,4.018,15.767,2.301,2.388-.834,4.019-2.322,4.616-4.825.628-2.633-.217-4.994-1.989-6.962-1.837-2.04-3.979-3.88-6.035-5.694-2.458-2.17-5.008-4.243-7.688-6.134-2.107-1.487-4.108,1.979-2.019,3.454,3.717,2.624,7.146,5.645,10.441,8.775,1.182,1.123,2.996,2.409,3.438,4.061.46,1.719-.473,3.02-2.031,3.538-4.045,1.345-9.235.416-12.643-2.087-1.891-1.389-3.786-2.639-5.945-3.583-.954-.417-1.912-.775-2.909-1.072-.834-.248-1.961-.419-2.661-.983-1.161-.936-.805-3.099-.811-4.417-.009-1.792-.035-3.584-.037-5.376-.003-2.574-4.003-2.578-4,0h0Z"/><path class="h" d="M309.567,122.014c1.913,13.686,1.005,27.492.286,41.23-.699,13.367-1.491,26.729-2.366,40.085-.395,6.021-.8,12.042-1.283,18.057-.206,2.566,3.795,2.553,4,0,.965-12.005,1.69-24.032,2.407-36.054.721-12.082,1.429-24.169,1.918-36.263.381-9.421.202-18.769-1.105-28.119-.15-1.071-1.516-1.656-2.46-1.397-1.153.317-1.547,1.386-1.397,2.46h0Z"/><path class="h" d="M265.111,120.951c-1.942,13.894-1.154,27.834-.63,41.792.503,13.398,1.064,26.797,1.902,40.179.381,6.084.788,12.175,1.488,18.232.124,1.073.831,2,2,2,.985,0,2.125-.92,2-2-1.365-11.817-1.865-23.753-2.43-35.628-.573-12.035-1.025-24.076-1.433-36.117-.31-9.166-.311-18.291.961-27.394.149-1.068-.26-2.148-1.397-2.46-.936-.257-2.31.32-2.46,1.397h0Z"/><path class="h" d="M287.208,147.032c0,19.235,0,38.47,0,57.706v16.416c0,2.574,4,2.578,4,0,0-19.235,0-38.47,0-57.706v-16.416c0-2.574-4-2.578-4,0h0Z"/><path class="h" d="M271.093,223.6c12.035.095,24.079.042,36.111-.213,2.57-.054,2.579-4.055,0-4-12.032.255-24.076.308-36.111.213-2.575-.02-2.577,3.98,0,4h0Z"/><path class="h" d="M278.204,123.483h21.75c2.574,0,2.578-4,0-4h-21.75c-2.574,0-2.578,4,0,4h0Z"/><path class="g" d="M312.85,128.001c2.857-.067,11.758-.265,14.099-.547.793-.096,1.361-.856,1.31-1.675-.485-8.367-4.233-41.416-9.69-50.465-1.958-3.246-3.917-5.042-5.592-6.292-3.343-2.494-9.017-4.652-12.682-5.972-.87,17.439-2.073,43.076-2.487,61.739-.018.824.646,1.495,1.47,1.495h11.911l1.66,1.717Z"/><path class="j" d="M42.242,162.661c-4.882.118-8.058-3.475-8.031-6.786.023-2.28.556-6.017,1.181-8.261.918-3.28,1.574-9.048,1.574-17.047-.392-11.802,2.713-20.361,7.607-25.046,2.95-2.824,9.599-6.673,17.068-6.673,4.556,0,7.958.884,10.843,2.077,1.065.44,2.712,1.346,3.99,2.309.882.665,1.665,1.362,2.794,2.393,4.26,3.892,7.385,11.477,7.798,17.282.119,1.675.035,4.607.118,8.311.133,9.966.928,14.891,1.876,17.636.761,2.202,1.131,3.962,1.152,6.243.034,3.73-4.602,8.56-9.932,6.649"/><path class="f" d="M52.989,218.031c-.433-16.545-1.383-37.415-2.166-53.33,6.375,4.607,16.586,4.29,22.679-.715-.794,16.116-1.774,37.553-2.207,54.401-5.072,0-13.553,0-18.297.002-.003-.119-.006-.238-.009-.358Z"/><path class="f" d="M86.681,130.956c-.994-1.843-3.321-2.744-5.284-2.169-2.497-1.429-5.905-4.326-7.748-6.809-2.638-3.555-3.531-5.642-4.27-8.079-6.443,6.104-21.477,14.02-26.605,14.848-1.857-.411-3.97.423-4.95,2.111-1.051,1.811-.86,4.314.221,6.169,1.15,1.973,3.229,3.613,5.326,4.295.785,2.294,2.124,4.983,4.355,7.486,1.814,2.036,3.908,3.548,6.147,4.546l-.012.184c0,.442-.272,2.692-.37,3.219-.236,1.27-.153,2.41-1.922,3.049-.089.032-.587.196-.97.324.073,1.469.149,2.995.226,4.57,6.373,4.607,16.585,4.29,22.678-.716.065-1.358.131-2.678.195-3.955-.652-.255-1.685-.658-1.763-.686-1.77-.64-1.7-1.78-1.93-3.05-.19-1.11-.23-1.85-.29-2.52v-.004c2.642-.988,5.003-2.633,7.16-5.106,2.199-2.52,3.507-5.216,4.266-7.518.099-.043.195-.078.195-.078,1.937-.707,3.82-2.178,4.93-3.953,1.139-1.821,1.408-4.316.414-6.159Z"/><path class="j" d="M268.837,65.757c-4.882.118-8.058-3.475-8.031-6.786.023-2.28.556-6.017,1.181-8.261.918-3.28,1.574-9.048,1.574-17.047-.392-11.802,2.713-20.361,7.607-25.046,2.95-2.824,9.599-6.673,17.068-6.673,4.556,0,7.958.884,10.843,2.077,1.065.44,2.712,1.346,3.99,2.309.882.665,1.665,1.362,2.794,2.393,4.26,3.892,7.385,11.477,7.798,17.282.119,1.675.035,4.607.118,8.311.133,9.966.928,14.891,1.876,17.636.761,2.202,1.131,3.962,1.152,6.243.034,3.73-4.602,8.56-9.932,6.649"/><path class="h" d="M94.388,222.37c2.034,5.933,4.304,11.999,5.164,18.241.084.613.141,1.231.173,1.848.017.335.178,1.041-.009,1.344-.644,1.045-2.038-.265-2.461-.842-1.602-2.183-2.87-4.838-3.911-7.334-.416-.996-1.324-1.709-2.46-1.397-.94.258-1.815,1.457-1.397,2.46.644,1.544,1.31,3.066,2.115,4.534.914,1.666,1.799,3.497,3.093,4.907,1.481,1.614,3.826,2.5,5.958,1.733,1.938-.697,3.033-2.358,3.096-4.389.111-3.592-.903-7.336-1.851-10.767-1.063-3.849-2.358-7.628-3.653-11.403-.83-2.421-4.695-1.381-3.857,1.063h0Z"/><path class="h" d="M89.606,237.363c-.24.232-.281.274-.481.401-.121.076-.245.146-.373.21.165-.06.138-.051-.082.025-.119.037-.24.067-.363.089.239-.033.245-.046.017-.038.137.038.09.031-.14-.021-.127-.029-.252-.066-.374-.11.205.086.211.078.017-.024.213.183.21.173-.008-.03-.099-.098-.194-.199-.284-.304.117.16.114.149-.01-.034l-.083-.147c.084.229.089.235.013.018-.033-.111-.061-.223-.082-.337.022.227.021.212-.004-.045-.124-1.553-.198-3.097-.186-4.654l.05-6.508c.008-1.081-.925-2-2-2-1.091,0-1.992.915-2,2l-.045,5.886c-.008.989-.022,1.977.021,2.965.096,2.221.137,4.442,1.866,6.067,2.198,2.067,5.365,1.347,7.361-.583.777-.751.755-2.074,0-2.828-.777-.777-2.05-.753-2.828,0h0Z"/><path class="h" d="M26.177,221.307c-1.273,3.714-2.548,7.431-3.601,11.214-.971,3.489-2.016,7.3-1.903,10.955.149,4.817,5.875,5.955,8.922,2.794,1.37-1.422,2.284-3.328,3.225-5.045.805-1.467,1.471-2.99,2.115-4.534.416-.997-.449-2.2-1.397-2.46-1.152-.317-2.043.396-2.46,1.397-1.027,2.462-2.282,4.985-3.804,7.179-.419.605-1.88,2.113-2.569.997-.182-.295-.026-1.003-.009-1.344.032-.618.088-1.236.173-1.848.86-6.243,3.13-12.308,5.164-18.241.837-2.44-3.026-3.488-3.857-1.063h0Z"/><path class="h" d="M31.988,240.191c1.747,1.689,4.326,2.506,6.556,1.199,1.01-.592,1.788-1.61,2.197-2.693.378-1.002.366-2.184.434-3.244.148-2.292.055-4.608.037-6.903l-.021-2.695c-.008-1.081-.913-2-2-2-1.078,0-2.008.915-2,2,.017,2.169.033,4.339.05,6.508.012,1.557-.062,3.102-.186,4.654-.025.256-.027.271-.004.045-.022.114-.049.226-.082.337-.065.187-.072.21-.02.07.058-.138.041-.119-.05.059-.124.182-.127.193-.01.034-.091.105-.186.207-.284.304-.218.203-.221.213-.008.03-.194.102-.188.11.017.024-.122.045-.247.082-.374.11-.23.052-.277.059-.14.021-.228-.008-.222.005.017.038-.123-.022-.244-.052-.363-.089-.22-.077-.247-.085-.082-.025-.128-.064-.252-.134-.373-.21-.2-.127-.242-.169-.481-.401-.776-.751-2.056-.773-2.828,0-.756.756-.779,2.075,0,2.828h0Z"/><path class="g" d="M267.143,67.352c-.968.535-1.866,1.093-2.639,1.67-1.675,1.25-3.634,3.046-5.592,6.292-.309.513-.61,1.103-.903,1.761l-11.908.86c.38,5.01.39,8.63,1.06,15.95.17,1.9.35,3.81.93,5.63,1.25,3.97,4.73,7.35,8.87,7.78,3.093.33,5.234-.161,7.155-1.002-.119,6.508-.238,13.045-.356,19.993,1.266,0,2.531,0,2.531,0h11.911c.824,0,1.488-.672,1.47-1.495-.414-18.663-1.617-44.3-2.487-61.739-2.817,1.015-6.822,2.525-10.043,4.302Z"/><path class="h" d="M268.837,63.757c-2.287.009-4.635-.948-5.653-3.128-.899-1.924-.218-4.633.131-6.629.372-2.126,1.007-4.184,1.337-6.319.415-2.692.65-5.409.778-8.129.297-6.284-.238-12.536,1.348-18.696,1.068-4.15,2.928-8.257,6.168-11.163,8.094-7.26,22.02-7.9,30.285-.653,4.207,3.689,6.791,8.607,7.988,14.056.5,2.279.509,4.544.516,6.865.009,3.224.046,6.451.195,9.672.197,4.281.458,8.747,1.796,12.85.849,2.604,1.877,5.771.179,8.219-1.503,2.167-4.007,3.038-6.499,2.213-2.449-.811-3.499,3.05-1.063,3.857,5.605,1.856,12.131-2.307,12.459-8.322.157-2.882-.853-5.509-1.582-8.23-.479-1.787-.734-3.579-.919-5.387-.634-6.197-.256-12.404-.625-18.604-.365-6.135-2.866-12.463-6.773-17.199-8.537-10.349-24.168-11.609-35.253-4.776-4.487,2.766-7.518,6.768-9.461,11.633-2.471,6.187-2.566,12.666-2.634,19.219-.037,3.591-.174,7.207-.651,10.77-.372,2.78-1.222,5.451-1.632,8.223-.465,3.146-.99,6.502.901,9.302,1.956,2.897,5.216,4.368,8.665,4.355,2.573-.01,2.578-4.01,0-4h0Z"/><path class="f" d="M313.276,34.052c-.994-1.843-3.321-2.744-5.284-2.169-2.497-1.429-5.905-4.326-7.748-6.809-2.638-3.555-3.531-5.642-4.27-8.079-6.443,6.104-21.477,14.02-26.605,14.848-1.857-.411-3.97.423-4.95,2.111-1.051,1.811-.86,4.314.221,6.169,1.15,1.973,3.229,3.613,5.326,4.295.785,2.294,2.124,4.983,4.355,7.486,1.814,2.036,3.908,3.548,6.147,4.546l-.012.184c0,.442-.272,2.692-.37,3.219-.236,1.27-.153,2.41-1.922,3.049-.089.032-.587.196-.97.324.073,1.469.149,2.995.226,4.57,6.373,4.607,16.585,4.29,22.678-.716.065-1.358.131-2.678.195-3.955-.652-.255-1.685-.658-1.763-.686-1.77-.64-1.7-1.78-1.93-3.05-.19-1.11-.23-1.85-.29-2.52v-.004c2.642-.988,5.003-2.633,7.16-5.106,2.199-2.52,3.507-5.216,4.266-7.518.099-.043.195-.078.195-.078,1.937-.707,3.82-2.178,4.93-3.953,1.139-1.821,1.408-4.316.414-6.159Z"/><path class="h" d="M308.524,33.812c.161-.044.321-.075.484-.111-.457.101.019.013.126.011.166-.003.331.009.496.018-.276-.014-.176-.03.042.017.163.035.323.078.481.13.184.06.314.132.064.011.15.073.298.148.441.233.059.036.479.351.14.068.128.107.252.217.369.336.073.074.359.461.116.107.08.116.156.233.225.356.045.078.087.157.126.238-.063-.169-.07-.186-.02-.053.122.321.2.651.265.987-.078-.409.003.167.006.218.008.19.006.381-.003.571-.004.087-.077.629-.011.231-.026.158-.059.316-.096.472-.045.188-.097.373-.157.556-.037.113-.145.413-.038.151-.144.351-.34.687-.548,1.003-.006.009-.356.502-.14.219-.118.155-.248.302-.378.446-.242.268-.499.523-.768.763-.123.11-.248.217-.376.321.261-.212-.173.124-.227.162-.322.223-.656.429-1.001.614-.17.091-.344.174-.518.259-.38.184.203-.073-.223.088-.976.368-1.751,1.367-1.397,2.46.309.954,1.412,1.792,2.46,1.397,3.974-1.499,7.469-5.045,7.425-9.525-.022-2.242-.978-4.298-2.798-5.623-1.598-1.164-3.733-1.505-5.63-.991-1.009.274-1.729,1.435-1.397,2.46.335,1.034,1.378,1.691,2.46,1.397h0Z"/><path class="h" d="M270.3,30.024c-1.872-.572-4.038-.254-5.653.862-1.86,1.286-2.827,3.328-2.919,5.564-.185,4.489,3.277,8.092,7.184,9.708.97.401,2.241-.433,2.46-1.397.266-1.166-.358-2.031-1.397-2.46.362.15-.194-.1-.214-.11-.172-.086-.342-.178-.509-.275-.311-.179-.611-.377-.902-.588-.11-.082-.106-.077.012.014-.077-.062-.154-.125-.229-.189-.126-.107-.249-.216-.37-.329-.289-.27-.556-.557-.815-.855-.398-.456.177.284-.165-.21-.11-.158-.218-.317-.318-.481-.083-.135-.162-.273-.235-.413-.045-.084-.088-.169-.128-.256.06.157.065.169.014.037-.128-.328-.23-.668-.305-1.013-.008-.038-.088-.632-.052-.228-.017-.191-.032-.382-.035-.574-.004-.191.011-.38.015-.571.008-.37-.043.085.012-.123.088-.333.145-.665.277-.985-.15.364.076-.116.118-.188.037-.063.352-.475.072-.148.109-.127.22-.25.34-.367.076-.074.466-.352.108-.11.115-.078.23-.154.35-.224.051-.03.519-.263.282-.158-.248.111.176-.058.228-.074.16-.049.321-.084.483-.123.497-.119-.384-.003.126-.014.166-.003.33-.002.497-.003.419-.001-.316-.106.124.01.16.042.321.078.48.126,1.001.306,2.225-.364,2.46-1.397.246-1.081-.325-2.133-1.397-2.46h0Z"/><path class="h" d="M305.809,43.711c-1.229,3.628-3.491,7.025-6.588,9.323-2.987,2.216-6.614,3.05-10.29,3.055-3.765.004-7.474-.903-10.541-3.14-3.046-2.221-5.27-5.555-6.502-9.088-.842-2.415-4.708-1.376-3.857,1.063,2.319,6.652,7.406,12.476,14.38,14.336,7.046,1.879,15.056.73,20.596-4.185,3.11-2.759,5.332-6.383,6.659-10.302.828-2.443-3.034-3.492-3.857-1.063h0Z"/><path class="h" d="M293.586,36.508c-.023-.171-.246-1.883.951-3.092.785-.793,1.719-.846,2.013-.858.227-.009,1.706-.042,2.637,1.236.882,1.211.973,3.185-.083,4.513-1.095,1.377-2.879,1.454-4.05.661-1.054-.714-1.331-1.594-1.468-2.46Z"/><path class="h" d="M278.242,36.508c-.023-.171-.246-1.883.951-3.092.785-.793,1.719-.846,2.013-.858.227-.009,1.706-.042,2.637,1.236.882,1.211.973,3.185-.083,4.513-1.095,1.377-2.879,1.454-4.05.661-1.054-.714-1.331-1.594-1.468-2.46Z"/><path class="h" d="M294.56,15.581c-3.78,3.545-8.348,6.297-12.861,8.798-3.852,2.135-7.981,4.422-12.307,5.432-2.506.585-1.445,4.443,1.063,3.857,4.644-1.084,9.125-3.542,13.263-5.835,4.81-2.666,9.643-5.647,13.671-9.424,1.882-1.765-.951-4.589-2.828-2.828h0Z"/><path class="h" d="M309.001,30.156c-1.404-.815-2.538-1.673-3.715-2.697-.661-.575-1.301-1.176-1.911-1.805-.291-.3-.575-.607-.849-.922-.12-.137-.238-.276-.354-.416.006.008-.386-.495-.202-.251-1.041-1.38-2.013-2.834-2.804-4.374-.141-.274-.276-.552-.404-.832-.018-.039-.249-.58-.079-.167-.054-.132-.107-.264-.159-.397-.233-.601-.435-1.213-.624-1.83-.316-1.033-1.398-1.689-2.46-1.397-1.022.281-1.714,1.423-1.397,2.46,2.045,6.685,6.9,12.579,12.937,16.083,2.231,1.295,4.247-2.161,2.019-3.454h0Z"/><path class="h" d="M278.457,56.635c-.009.844-.157,1.703-.269,2.539l.071-.532c-.107.793-.172,1.665-.474,2.409l.202-.478c-.047.108-.099.213-.162.312-.117.186-.219.157.141-.17-.046.042-.085.095-.131.139-.021.02-.149.118-.15.133.001-.055.464-.318.158-.138-.157.092-.314.174-.482.247l.478-.202c-.486.196-.993.341-1.489.51-.989.336-1.743,1.39-1.397,2.46.318.982,1.4,1.757,2.46,1.397.885-.301,1.861-.533,2.629-1.081,1.029-.734,1.634-1.758,1.842-2.999.139-.828.26-1.656.364-2.489.085-.678.199-1.372.206-2.056.012-1.046-.928-2.048-2-2-1.094.049-1.988.879-2,2h0Z"/><path class="h" d="M294.31,56.87c.083.941.173,1.877.322,2.811.101.634.157,1.306.388,1.909.396,1.029,1.067,1.896,2.074,2.396.555.276,1.158.48,1.736.705.483.188.968.372,1.448.568.448.182,1.144.031,1.541-.202.415-.243.811-.718.919-1.195.117-.512.091-1.087-.202-1.541-.3-.466-.685-.711-1.195-.919-.822-.335-1.657-.637-2.48-.968l.478.202c-.253-.109-.49-.237-.71-.403l.405.313c-.138-.111-.259-.23-.371-.368l.313.405c-.111-.147-.201-.303-.275-.471l.202.478c-.318-.773-.384-1.704-.495-2.524l.071.532c-.074-.574-.119-1.15-.17-1.726-.048-.54-.191-1.02-.586-1.414-.347-.347-.916-.608-1.414-.586-1.005.045-2.098.884-2,2h0Z"/><path class="h" d="M277.031,69.951c6.986,4.436,17.076,4.156,23.709-.85.861-.65,1.308-1.726.718-2.736-.496-.848-1.869-1.372-2.736-.718-5.569,4.203-13.764,4.601-19.671.85-2.179-1.384-4.188,2.076-2.019,3.454h0Z"/><path class="h" d="M310.96,83.518c.243,14.249.518,28.498.761,42.747.044,2.571,4.044,2.579,4,0-.243-14.249-.518-28.498-.761-42.747-.044-2.571-4.044-2.579-4,0h0Z"/><path class="h" d="M311.19,124.284h-10.233c-.349,0-1.188-.154-1.514,0-.034.016-.141-.026-.164,0l.53.505c.005-.244.011-.487.017-.731.006-.246.011-.492.017-.737.036-1.519.076-3.039.119-4.558.347-12.222.861-24.44,1.42-36.654.291-6.354.598-12.707.914-19.059l-2.532,1.929c3.524,1.272,7.068,2.614,10.305,4.523,2.959,1.745,5.349,4.235,7.017,7.243.473.853.801,1.616,1.056,2.269.431,1.105.805,2.232,1.151,3.366.814,2.674,1.467,5.396,2.055,8.127,2.35,10.928,3.882,22.124,4.772,33.266.036.445.069.89.099,1.336.008.115-.034.447.035.543.087.122.779-.093.33-.16-.535-.079-1.233.093-1.773.123-.789.044-1.579.078-2.369.109-3.195.127-6.393.202-9.59.277-2.57.06-2.579,4.061,0,4,3.045-.071,6.09-.143,9.133-.259,2.746-.104,7.43.435,8.19-3.086.21-.973.011-2.073-.069-3.056-.089-1.093-.189-2.185-.296-3.276-.273-2.781-.589-5.558-.936-8.331-.84-6.708-1.829-13.406-3.149-20.037-1.089-5.469-2.265-11.142-4.665-16.213-1.675-3.538-4.401-6.628-7.618-8.839-3.797-2.61-8.307-4.228-12.613-5.783-1.288-.465-2.472.727-2.532,1.929-.618,12.405-1.202,24.811-1.693,37.222-.254,6.421-.484,12.842-.662,19.266-.038,1.384-.074,2.769-.107,4.153-.039,1.657.148,3.3,1.78,4.169,1.108.589,2.502.425,3.715.425h9.861c2.574,0,2.578-4,0-4h0Z"/><path class="h" d="M262.521,83.518c-.243,14.249-.518,28.498-.761,42.747-.044,2.575,3.956,2.575,4,0,.243-14.249.518-28.498.761-42.747.044-2.575-3.956-2.575-4,0h0Z"/><path class="h" d="M266.291,128.284h8.6c1.09,0,2.195.056,3.284,0,1.283-.066,2.462-.672,3.085-1.829.719-1.336.379-3.169.342-4.629-.327-12.83-.864-25.655-1.446-38.476-.307-6.767-.634-13.534-.971-20.3-.06-1.201-1.244-2.394-2.532-1.929-4.054,1.464-8.215,2.999-11.88,5.303s-6.692,5.705-8.492,9.641c-.449.982-.28,2.153.718,2.736.86.503,2.285.269,2.736-.718,1.581-3.457,4.111-6.417,7.364-8.395,3.313-2.015,6.984-3.398,10.618-4.71l-2.532-1.929c.59,11.838,1.148,23.678,1.625,35.521.245,6.076.469,12.154.651,18.233.041,1.358.079,2.717.115,4.075.018.69.036,1.38.053,2.071.006.247.012.494.018.741.006.245.011.489.017.734-.077.571.102.524.538-.14-.064-.072-.6,0-.687,0h-11.224c-2.574,0-2.578,4,0,4h0Z"/><path class="h" d="M244.101,77.933c.241,3.222.367,6.451.572,9.675.133,2.094.298,4.186.488,6.275.209,2.299.413,4.66,1.237,6.836,1.345,3.554,4.063,6.535,7.639,7.909s7.65.853,11.083-.608c.994-.423,1.214-1.888.718-2.736-.602-1.029-1.738-1.142-2.736-.718-2.551,1.086-5.987,1.294-8.481-.036-2.852-1.521-4.468-4.289-5.062-7.395-.681-3.561-.76-7.313-.971-10.928-.16-2.758-.281-5.518-.487-8.274-.191-2.551-4.192-2.572-4,0h0Z"/><path class="f" d="M245.042,73.966c-.665-1.412-1.496-2.96-2.104-3.775-.904-1.212-1.249-2.529-1.209-3.701.02-.593.33-1.895.584-2.291,1.343-2.088,2.504-3.913,3.905-5.683.299-.378.742-.842,1.084-1.182.615-.611,1.476-.968,2.343-.971.245,0,1.082.458,2.217,1.172,1.666.434,2.044-.656,2.829-1.273.859-.675,2.207-.49,3.165.034.845.462,1.657,1.147,2.47,1.912.599.564.936,1.218,1.084,2.056.113.642-.019,1.1-.366,1.461-.342.357-1.098.839-2.102.767,1.315,1.465,1.315,2.639,1.313,3.478,0,.181.004.363-.037.539-.044.187-.135.36-.225.53-.832,1.577-2.35,3.439-1.645,5.351,1.734,5.028,1.496,7.536-.134,8.958-1.33,1.16-3.334,2.141-4.466,2.376-.457.095-2.562.453-2.987.258-.835-.383-1.648-.572-2.265-1.316-.507-.612-.811-1.384-1.021-2.142-.255-.922-1.035-3.204-1.623-4.69-.201-.524-.486-1.18-.81-1.868Z"/><path class="h" d="M259.959,60.765c-2.284-1.734-4.626-3.41-7.054-4.937-.771-.485-1.606-1.064-2.488-1.332-1.278-.388-2.797.116-3.845.864-1.26.899-2.194,2.246-3.091,3.487-1.029,1.424-2.191,2.934-2.979,4.505-1.343,2.677-.761,5.66.858,8.052,1.52,2.247,2.556,4.793,3.441,7.343.422,1.217.725,2.496,1.247,3.674.768,1.733,2.014,2.575,3.705,3.288,2.167.915,5.198-.076,7.165-1.099,2.117-1.101,4.034-2.644,4.485-5.097.288-1.564.082-3.163-.263-4.702-.369-1.643-1.352-3.131-.559-4.749.725-1.477,1.691-2.588,1.676-4.309-.016-1.831-.737-3.289-1.892-4.676-1.649-1.98-4.465.863-2.828,2.828.525.63.833,1.37.719,2.199-.038.275.32-.37-.162.243-.144.183-.271.465-.384.659-.377.65-.732,1.295-1.018,1.991-.53,1.291-.638,2.573-.271,3.923.364,1.34.888,2.63,1.066,4.019.091.71.108,1.352-.036,1.966-.14.595-.23.705-.852,1.199-1.534,1.217-3.177,1.698-5.064,1.923-.345.041-.699-.173-.119.072-.229-.097-.466-.185-.692-.29-.493-.23-.758-.422-1.009-.937-.449-.925-.662-2.041-.998-3.016-.767-2.227-1.64-4.412-2.742-6.497-.923-1.746-2.601-3.456-2.148-5.41.239-1.029.764-1.607,1.434-2.631.753-1.15,1.508-2.322,2.374-3.392.378-.467.879-1.185,1.452-1.447.101-.047.503-.064.561-.119-.093.089-.482-.055-.528-.104.196.212.719.386.966.532.444.262.879.538,1.312.817,2.242,1.445,4.419,2.998,6.543,4.611.861.654,2.237.136,2.736-.718.601-1.027.146-2.081-.718-2.736h0Z"/><path class="h" d="M254.566,59.056c.356-.263.677-.52.98-.837.09-.094.178-.191.271-.283.061-.061.124-.121.19-.178l-.214.163c.061-.042.125-.081.191-.116.189-.091.132-.068-.171.071.048.013.292-.063.327-.082-.326.037-.408.05-.249.038.058-.005.115-.007.173-.007.101-.001.252.041.35.017-.336-.05-.397-.056-.182-.018.077.016.154.034.231.055.114.031.225.072.338.107.384.122-.392-.22-.052-.016.108.065.222.12.33.184.25.149.591.323.793.538-.332-.354-.054-.039.043.041.132.109.261.22.39.333.237.208.476.418.698.642.081.082.155.187.241.265-.19-.254-.226-.296-.106-.125.032.048.062.096.091.146.03.049.058.099.084.15.092.189.073.135-.057-.163.012.108.085.231.116.335.035.118.06.237.088.357.094.399-.068-.459-.009.04-.005.163.01.08.046-.248-.013.07-.031.138-.053.206l.12-.288c-.106.174-.059.125.14-.148-.055.045-.129.122-.176.18-.187.231.46-.277.095-.078-.083.045-.242.105-.305.171l.279-.116c-.071.027-.142.051-.215.073-.076.022-.153.041-.23.057l.286-.034c-.057-.043-.444.01-.532.005-1.046-.065-2.046.966-2,2,.051,1.139.879,1.931,2,2,1.289.08,2.76-.438,3.626-1.428,1.2-1.373,1.058-3.165.335-4.729-.551-1.192-1.644-2.065-2.661-2.851-1.159-.895-2.37-1.519-3.85-1.643-.819-.069-1.668.132-2.39.515-.359.19-.688.471-.976.756-.124.122-.24.252-.361.377-.103.106-.522.443-.08.117-.433.32-.771.657-.919,1.195-.132.479-.072,1.116.202,1.541.536.831,1.836,1.382,2.736.718h0Z"/><path class="f" d="M350.016,243.933h-121.613v96.904c65.707,0,121.613,0,121.613,0,0-44.253,0-52.651,0-96.904Z"/><path class="h" d="M350.016,241.933h-121.613c-1.081,0-2,.916-2,2v96.904c0,1.081.916,2,2,2,23.217,0,46.434,0,69.65,0,14.773,0,29.546,0,44.319,0,2.548,0,5.096,0,7.644,0,1.081,0,2-.916,2-2,0-13.198,0-26.397,0-39.595s0-21.701,0-32.552v-24.757c0-2.574-4-2.578-4,0,0,13.198,0,26.397,0,39.595s0,21.701,0,32.552v24.757l2-2c-7.587,0-15.174,0-22.761,0-19.118,0-38.236,0-57.354,0-13.832,0-27.665,0-41.497,0l2,2v-96.904l-2,2h121.613c2.574,0,2.578-4,0-4Z"/><path class="e" d="M218.675,137.597c-9.458,5.1-19.71,11.036-30.468,13.708-1.013.252-1.003,1.694.012,1.942l9.282,2.267c.716.175,1.018,1.04.55,1.61-14.897,18.133-42.548,35.033-66.81,45.031-1.369.564-.733,2.574.722,2.3,15.677-2.948,34.46-9.123,43.484-13.974,11.786-6.336,23.639-14.156,30.535-23.219.409-.537,1.249-.41,1.585.176,1.419,2.481,3.492,5.774,5.409,8.971.467.779,1.646.589,1.836-.298,2.302-10.749,4.338-26.691,5.327-37.54.072-.794-.762-1.35-1.464-.972Z"/><path class="i" d="M216.207,106.066s.002.001.002,0c.517-2.436,2.643-6.339,4.721-8.486,2.738-2.828,5.609-4.089,8.474-4.592.002,0,.002-.003,0-.003-2.706-.396-6.408-1.943-8.928-4.662-2.478-2.674-4.005-8.546-4.261-9.057-.216.512-2.03,6.428-4.508,9.102-2.52,2.719-5.967,4.22-8.699,4.617,0,0,0,.001,0,.001,2.836.514,6.019,1.64,8.586,4.628,1.962,2.285,4.074,6.024,4.614,8.452Z"/><path class="h" d="M216.207,108.066h.002c.847.007,1.733-.623,1.929-1.468,1.329-5.742,5.99-10.599,11.798-11.681.865-.161,1.453-1.104,1.468-1.929v-.003c.015-.795-.626-1.794-1.468-1.929-3.462-.553-7.12-2.361-8.973-5.442-1.397-2.322-1.933-4.918-3.02-7.357-.782-1.755-3.101-.924-3.655.478-.935,2.364-1.685,4.742-3.042,6.921-1.876,3.013-5.327,4.855-8.769,5.401-.867.137-1.452,1.121-1.468,1.929h0c-.017.816.628,1.772,1.468,1.93,2.93.552,5.545,1.685,7.559,3.951,1.893,2.13,3.569,4.947,4.243,7.731.605,2.501,4.463,1.442,3.857-1.063-.835-3.451-2.931-6.862-5.272-9.496-2.426-2.73-5.778-4.311-9.324-4.98l1.468,1.929h0c-.489.641-.979,1.284-1.468,1.927,4.235-.672,8.384-3.155,10.813-6.706,1.759-2.572,2.658-5.545,3.791-8.41l-3.655.478c-.216-.485-.126-.308-.018.036.073.231.15.461.225.692.246.747.5,1.492.779,2.228.678,1.788,1.433,3.617,2.542,5.187,2.453,3.471,6.688,5.831,10.855,6.496l-1.468-1.929v.003c.489-.643.979-1.286,1.468-1.929-7.088,1.32-12.975,7.489-14.592,14.475l1.929-1.468h-.002c-2.575-.02-2.577,3.98,0,4Z"/><path class="i" d="M344.016,43.795s.002.001.002,0c.517-2.436,2.643-6.339,4.721-8.486,2.738-2.828,5.609-4.089,8.474-4.592.002,0,.002-.003,0-.003-2.706-.396-6.408-1.943-8.928-4.662-2.478-2.674-4.005-8.546-4.261-9.057-.216.512-2.03,6.428-4.508,9.102-2.52,2.719-5.967,4.22-8.699,4.617,0,0,0,.001,0,.001,2.836.514,6.019,1.64,8.586,4.628,1.962,2.285,4.074,6.024,4.614,8.452Z"/><path class="h" d="M344.016,45.795h.002c.847.007,1.733-.623,1.929-1.468,1.329-5.742,5.99-10.599,11.798-11.681.865-.161,1.453-1.104,1.468-1.929v-.003c.015-.795-.626-1.794-1.468-1.929-3.462-.553-7.12-2.361-8.973-5.442-1.397-2.322-1.933-4.918-3.02-7.357-.782-1.755-3.101-.924-3.655.478-.935,2.364-1.685,4.742-3.042,6.921-1.876,3.013-5.327,4.855-8.769,5.401-.867.137-1.452,1.121-1.468,1.929h0c-.017.816.628,1.772,1.468,1.93,2.93.552,5.545,1.685,7.559,3.951,1.893,2.13,3.569,4.947,4.243,7.731.605,2.501,4.463,1.442,3.857-1.063-.835-3.451-2.931-6.862-5.272-9.496-2.426-2.73-5.778-4.311-9.324-4.98l1.468,1.929h0c-.489.641-.979,1.284-1.468,1.927,4.235-.672,8.384-3.155,10.813-6.706,1.759-2.572,2.658-5.545,3.791-8.41l-3.655.478c-.216-.485-.126-.308-.018.036.073.231.15.461.225.692.246.747.5,1.492.779,2.228.678,1.788,1.433,3.617,2.542,5.187,2.453,3.471,6.688,5.831,10.855,6.496l-1.468-1.929v.003c.489-.643.979-1.286,1.468-1.929-7.088,1.32-12.975,7.489-14.592,14.475l1.929-1.468h-.002c-2.575-.02-2.577,3.98,0,4Z"/><path class="h" d="M59.424,320.788c0,1.647-.003,3.294-.004,4.941-.001,1.315.304,3.067-.285,4.285-.639,1.321-3.102,1.48-4.336,1.921-2.164.773-4.252,1.849-6.138,3.161-1.802,1.253-3.352,2.421-5.494,3.053-2.131.628-4.384.853-6.595.588-1.674-.201-3.587-.566-4.025-2.392-.409-1.707.787-2.822,1.916-3.932,3.64-3.579,7.489-6.971,11.664-9.915,2.087-1.472.091-4.942-2.019-3.454-4.504,3.177-8.687,6.802-12.607,10.672-1.614,1.594-3.068,3.466-3.075,5.846-.007,2.326,1.127,4.673,3.194,5.804,4.695,2.569,11.467,1.702,16.041-.73,2.257-1.2,4.126-2.962,6.451-4.093,2.187-1.064,4.865-1.291,6.86-2.71,2.233-1.588,2.459-4.24,2.449-6.762-.009-2.094.004-4.189.004-6.283,0-2.574-4-2.578-4,0h0Z"/><path class="h" d="M60.865,320.771c.002,1.871.032,3.743.038,5.614.007,2.027-.063,4.267,1.13,6.02,1.473,2.165,4.041,2.531,6.343,3.33,2.599.902,4.783,2.459,6.995,4.04,4.228,3.022,10.847,4.018,15.767,2.301,2.388-.834,4.019-2.322,4.616-4.825.628-2.633-.217-4.994-1.989-6.962-1.837-2.04-3.979-3.88-6.035-5.694-2.458-2.17-5.008-4.243-7.688-6.134-2.107-1.487-4.108,1.979-2.019,3.454,3.717,2.624,7.146,5.645,10.441,8.775,1.182,1.123,2.996,2.409,3.438,4.061.46,1.719-.473,3.02-2.031,3.538-4.045,1.345-9.235.416-12.643-2.087-1.891-1.389-3.786-2.639-5.945-3.583-.954-.417-1.912-.775-2.909-1.072-.834-.248-1.961-.419-2.661-.983-1.161-.936-.805-3.099-.811-4.417-.009-1.792-.035-3.584-.037-5.376-.003-2.574-4.003-2.578-4,0h0Z"/><path class="h" d="M82.563,218.918c1.913,13.686,1.005,27.492.286,41.23-.699,13.367-1.491,26.729-2.366,40.085-.395,6.021-.8,12.042-1.283,18.057-.206,2.566,3.795,2.553,4,0,.965-12.005,1.69-24.032,2.407-36.054.721-12.082,1.429-24.169,1.918-36.263.381-9.421.202-18.769-1.105-28.119-.15-1.071-1.516-1.656-2.46-1.397-1.153.317-1.547,1.386-1.397,2.46h0Z"/><path class="h" d="M38.108,217.855c-1.942,13.894-1.154,27.834-.63,41.792.503,13.398,1.064,26.797,1.902,40.179.381,6.084.788,12.175,1.488,18.232.124,1.073.831,2,2,2,.985,0,2.125-.92,2-2-1.365-11.817-1.865-23.753-2.43-35.628-.573-12.035-1.025-24.076-1.433-36.117-.31-9.166-.311-18.291.961-27.394.149-1.068-.26-2.148-1.397-2.46-.936-.257-2.31.32-2.46,1.397h0Z"/><path class="h" d="M60.204,243.936c0,19.235,0,38.47,0,57.706v16.416c0,2.574,4,2.578,4,0,0-19.235,0-38.47,0-57.706v-16.416c0-2.574-4-2.578-4,0h0Z"/><path class="h" d="M44.089,320.504c12.035.095,24.079.042,36.111-.213,2.57-.054,2.579-4.055,0-4-12.032.255-24.076.308-36.111.213-2.575-.02-2.577,3.98,0,4h0Z"/><path class="h" d="M51.336,220.386h21.75c2.574,0,2.578-4,0-4h-21.75c-2.574,0-2.578,4,0,4h0Z"/><path class="h" d="M42.242,160.661c-2.287.009-4.635-.948-5.653-3.128-.899-1.924-.218-4.633.131-6.629.372-2.126,1.007-4.184,1.337-6.319.415-2.692.65-5.409.778-8.129.297-6.284-.238-12.536,1.348-18.696,1.068-4.15,2.928-8.257,6.168-11.163,8.094-7.26,22.02-7.9,30.285-.653,4.207,3.689,6.791,8.607,7.988,14.056.5,2.279.509,4.544.516,6.865.009,3.224.046,6.451.195,9.672.197,4.281.458,8.747,1.796,12.85.849,2.604,1.877,5.771.179,8.219-1.503,2.167-4.007,3.038-6.499,2.213-2.449-.811-3.499,3.05-1.063,3.857,5.605,1.856,12.131-2.307,12.459-8.322.157-2.882-.853-5.509-1.582-8.23-.479-1.787-.734-3.579-.919-5.387-.634-6.197-.256-12.404-.625-18.604-.365-6.135-2.866-12.463-6.773-17.199-8.537-10.349-24.168-11.609-35.253-4.776-4.487,2.766-7.518,6.768-9.461,11.633-2.471,6.187-2.566,12.666-2.634,19.219-.037,3.591-.174,7.207-.651,10.77-.372,2.78-1.222,5.451-1.632,8.223-.465,3.146-.99,6.502.901,9.302,1.956,2.897,5.216,4.368,8.665,4.355,2.573-.01,2.578-4.01,0-4h0Z"/><path class="h" d="M81.929,130.716c.161-.044.321-.075.484-.111-.457.101.019.013.126.011.166-.003.331.009.496.018-.276-.014-.176-.03.042.017.163.035.323.078.481.13.184.06.314.132.064.011.15.073.298.148.441.233.059.036.479.351.14.068.128.107.252.217.369.336.073.074.359.461.116.107.08.116.156.233.225.356.045.078.087.157.126.238-.063-.169-.07-.186-.02-.053.122.321.2.651.265.987-.078-.409.003.167.006.218.008.19.006.381-.003.571-.004.087-.077.629-.011.231-.026.158-.059.316-.096.472-.045.188-.097.373-.157.556-.037.113-.145.413-.038.151-.144.351-.34.687-.548,1.003-.006.009-.356.502-.14.219-.118.155-.248.302-.378.446-.242.268-.499.523-.768.763-.123.11-.248.217-.376.321.261-.212-.173.124-.227.162-.322.223-.656.429-1.001.614-.17.091-.344.174-.518.259-.38.184.203-.073-.223.088-.976.368-1.751,1.367-1.397,2.46.309.954,1.412,1.792,2.46,1.397,3.974-1.499,7.469-5.045,7.425-9.525-.022-2.242-.978-4.298-2.798-5.623-1.598-1.164-3.733-1.505-5.63-.991-1.009.274-1.729,1.435-1.397,2.46.335,1.034,1.378,1.691,2.46,1.397h0Z"/><path class="h" d="M43.705,126.928c-1.872-.572-4.038-.254-5.653.862-1.86,1.286-2.827,3.328-2.919,5.564-.185,4.489,3.277,8.092,7.184,9.708.97.401,2.241-.433,2.46-1.397.266-1.166-.358-2.031-1.397-2.46.362.15-.194-.1-.214-.11-.172-.086-.342-.178-.509-.275-.311-.179-.611-.377-.902-.588-.11-.082-.106-.077.012.014-.077-.062-.154-.125-.229-.189-.126-.107-.249-.216-.37-.329-.289-.27-.556-.557-.815-.855-.398-.456.177.284-.165-.21-.11-.158-.218-.317-.318-.481-.083-.135-.162-.273-.235-.413-.045-.084-.088-.169-.128-.256.06.157.065.169.014.037-.128-.328-.23-.668-.305-1.013-.008-.038-.088-.632-.052-.228-.017-.191-.032-.382-.035-.574-.004-.191.011-.38.015-.571.008-.37-.043.085.012-.123.088-.333.145-.665.277-.985-.15.364.076-.116.118-.188.037-.063.352-.475.072-.148.109-.127.22-.25.34-.367.076-.074.466-.352.108-.11.115-.078.23-.154.35-.224.051-.03.519-.263.282-.158-.248.111.176-.058.228-.074.16-.049.321-.084.483-.123.497-.119-.384-.003.126-.014.166-.003.33-.002.497-.003.419-.001-.316-.106.124.01.16.042.321.078.48.126,1.001.306,2.225-.364,2.46-1.397.246-1.081-.325-2.133-1.397-2.46h0Z"/><path class="h" d="M79.214,140.615c-1.229,3.628-3.491,7.025-6.588,9.323-2.987,2.216-6.614,3.05-10.29,3.055-3.765.004-7.474-.903-10.541-3.14-3.046-2.221-5.27-5.555-6.502-9.088-.842-2.415-4.708-1.376-3.857,1.063,2.319,6.652,7.406,12.476,14.38,14.336,7.046,1.879,15.056.73,20.596-4.185,3.11-2.759,5.332-6.383,6.659-10.302.828-2.443-3.034-3.492-3.857-1.063h0Z"/><path class="h" d="M66.991,133.412c-.023-.171-.246-1.883.951-3.092.785-.793,1.719-.846,2.013-.858.227-.009,1.706-.042,2.637,1.236.882,1.211.973,3.185-.083,4.513-1.095,1.377-2.879,1.454-4.05.661-1.054-.714-1.331-1.594-1.468-2.46Z"/><path class="h" d="M51.647,133.412c-.023-.171-.246-1.883.951-3.092.785-.793,1.719-.846,2.013-.858.227-.009,1.706-.042,2.637,1.236.882,1.211.973,3.185-.083,4.513-1.095,1.377-2.879,1.454-4.05.661-1.054-.714-1.331-1.594-1.468-2.46Z"/><path class="h" d="M67.965,112.485c-3.78,3.545-8.348,6.297-12.861,8.798-3.852,2.135-7.981,4.422-12.307,5.432-2.506.585-1.445,4.443,1.063,3.857,4.644-1.084,9.125-3.542,13.263-5.835,4.81-2.666,9.643-5.647,13.671-9.424,1.882-1.765-.951-4.589-2.828-2.828h0Z"/><path class="h" d="M82.407,127.06c-1.404-.815-2.538-1.673-3.715-2.697-.661-.575-1.301-1.176-1.911-1.805-.291-.3-.575-.607-.849-.922-.12-.137-.238-.276-.354-.416.006.008-.386-.495-.202-.251-1.041-1.38-2.013-2.834-2.804-4.374-.141-.274-.276-.552-.404-.832-.018-.039-.249-.58-.079-.167-.054-.132-.107-.264-.159-.397-.233-.601-.435-1.213-.624-1.83-.316-1.033-1.398-1.689-2.46-1.397-1.022.281-1.714,1.423-1.397,2.46,2.045,6.685,6.9,12.579,12.937,16.083,2.231,1.295,4.247-2.161,2.019-3.454h0Z"/><path class="h" d="M51.862,153.539c-.009.844-.157,1.703-.269,2.539l.071-.532c-.107.793-.172,1.665-.474,2.409l.202-.478c-.047.108-.099.213-.162.312-.117.186-.219.157.141-.17-.046.042-.085.095-.131.139-.021.02-.149.118-.15.133.001-.055.464-.318.158-.138-.157.092-.314.174-.482.247l.478-.202c-.486.196-.993.341-1.489.51-.989.336-1.743,1.39-1.397,2.46.318.982,1.4,1.757,2.46,1.397.885-.301,1.861-.533,2.629-1.081,1.029-.734,1.634-1.758,1.842-2.999.139-.828.26-1.656.364-2.489.085-.678.199-1.372.206-2.056.012-1.046-.928-2.048-2-2-1.094.049-1.988.879-2,2h0Z"/><path class="h" d="M67.715,153.773c.083.941.173,1.877.322,2.811.101.634.157,1.306.388,1.909.396,1.029,1.067,1.896,2.074,2.396.555.276,1.158.48,1.736.705.483.188.968.372,1.448.568.448.182,1.144.031,1.541-.202.415-.243.811-.718.919-1.195.117-.512.091-1.087-.202-1.541-.3-.466-.685-.711-1.195-.919-.822-.335-1.657-.637-2.48-.968l.478.202c-.253-.109-.49-.237-.71-.403l.405.313c-.138-.111-.259-.23-.371-.368l.313.405c-.111-.147-.201-.303-.275-.471l.202.478c-.318-.773-.384-1.704-.495-2.524l.071.532c-.074-.574-.119-1.15-.17-1.726-.048-.54-.191-1.02-.586-1.414-.347-.347-.916-.608-1.414-.586-1.005.045-2.098.884-2,2h0Z"/><path class="h" d="M50.357,166.854c6.986,4.436,17.076,4.156,23.709-.85.861-.65,1.308-1.726.718-2.736-.496-.848-1.869-1.372-2.736-.718-5.569,4.203-13.764,4.601-19.671.85-2.179-1.384-4.188,2.076-2.019,3.454h0Z"/><path class="h" d="M1.932,342.837c23.217,0,46.434,0,69.65,0,14.773,0,29.546,0,44.319,0,2.548,0,5.096,0,7.644,0,2.574,0,2.578-4,0-4-7.587,0-15.174,0-22.761,0-19.118,0-38.236,0-57.354,0-13.832,0-27.665,0-41.497,0-2.574,0-2.578,4,0,4h0Z"/><path class="g" d="M84.66,223.188h-11.911c-.824,0-1.488-.672-1.47-1.495.414-18.663,1.617-44.3,2.487-61.739,3.664,1.32,9.339,3.478,12.682,5.972,1.675,1.25,3.634,3.046,5.592,6.292,5.457,9.049,8.384,42.099,8.868,50.465.051.82-.517,1.579-1.31,1.675-2.341.283-10.42.48-13.277.547"/><path class="h" d="M84.43,180.422c.243,14.249.518,28.498.761,42.747.044,2.571,4.044,2.579,4,0-.243-14.249-.518-28.498-.761-42.747-.044-2.571-4.044-2.579-4,0h0Z"/><path class="h" d="M84.66,221.188h-10.233c-.349,0-1.188-.154-1.514,0-.034.016-.141-.026-.164,0l.53.505c.005-.244.011-.487.017-.731.006-.246.011-.492.017-.737.036-1.519.076-3.039.119-4.558.347-12.222.861-24.44,1.42-36.654.291-6.354.598-12.707.914-19.059l-2.532,1.929c3.467,1.252,6.951,2.572,10.146,4.429,2.985,1.735,5.383,4.186,7.094,7.192.983,1.726,1.499,3.334,2.12,5.427.771,2.598,1.371,5.245,1.905,7.901,2.191,10.905,3.406,22.049,4.226,33.136.036.482.07.964.102,1.447.016.242-.065.95.072,1.141.083.116.788-.087.294-.156-.249-.035-.554.047-.807.065-.745.053-1.492.091-2.238.126-3.274.154-6.552.236-9.829.313-2.57.061-2.579,4.061,0,4,3.076-.073,6.152-.151,9.226-.286,1.299-.057,2.607-.102,3.901-.244,2.137-.236,3.517-1.779,3.445-3.949-.158-4.797-.752-9.623-1.271-14.39-.721-6.616-1.584-13.227-2.787-19.774-.977-5.318-2.042-10.867-4.39-15.781-3.891-8.142-12.155-11.571-20.147-14.456-1.288-.465-2.472.727-2.532,1.929-.618,12.405-1.202,24.811-1.693,37.222-.254,6.421-.484,12.842-.662,19.266-.038,1.384-.074,2.769-.107,4.153-.039,1.657.148,3.3,1.78,4.169,1.108.589,2.502.425,3.715.425h9.861c2.574,0,2.578-4,0-4h0Z"/><path class="g" d="M39.762,223.188h11.911c.824,0,1.488-.672,1.47-1.495-.414-18.663-1.617-44.3-2.487-61.739-3.664,1.32-9.339,3.478-12.682,5.972-1.675,1.25-3.634,3.046-5.592,6.292-5.457,9.049-8.384,42.099-8.868,50.465-.051.82.517,1.579,1.31,1.675,2.341.283,10.42.48,13.277.547l1.66-1.717Z"/><path class="h" d="M35.992,180.422c-.243,14.249-.518,28.498-.761,42.747-.044,2.575,3.956,2.575,4,0,.243-14.249.518-28.498.761-42.747.044-2.575-3.956-2.575-4,0h0Z"/><path class="h" d="M39.762,225.188h8.6c1.09,0,2.195.056,3.284,0,1.283-.066,2.462-.672,3.085-1.829.719-1.336.379-3.169.342-4.629-.327-12.83-.864-25.655-1.446-38.476-.307-6.767-.634-13.534-.971-20.3-.06-1.201-1.244-2.394-2.532-1.929-3.782,1.365-7.617,2.805-11.102,4.833s-6.314,4.893-8.367,8.35c-2.597,4.372-3.635,9.785-4.619,14.705-2.317,11.595-3.62,23.47-4.426,35.263-.107,1.565-.185,3.065,1.06,4.26,1.224,1.175,3.293,1.038,4.885,1.121,3.512.183,7.03.265,10.546.348,2.575.061,2.574-3.939,0-4-2.869-.068-5.738-.142-8.605-.26-1.33-.054-2.664-.107-3.99-.22-.148-.013-.921-.032-.276.085.529.096.14.254.299-.085.131-.28.054-.86.075-1.169.323-4.755.779-9.503,1.308-14.24.673-6.02,1.48-12.031,2.586-17.989.516-2.779,1.095-5.551,1.821-8.284.311-1.173.65-2.34,1.036-3.491.345-1.026.664-1.873.997-2.587,1.412-3.026,3.677-5.749,6.464-7.597,3.472-2.303,7.473-3.779,11.371-5.186l-2.532-1.929c.59,11.838,1.148,23.678,1.625,35.521.245,6.076.469,12.154.651,18.233.041,1.358.079,2.717.115,4.075.018.69.036,1.38.053,2.071.006.247.012.494.018.741.006.245.011.489.017.734-.077.571.102.524.538-.14-.064-.072-.6,0-.687,0h-11.224c-2.574,0-2.578,4,0,4h0Z"/></g></g></svg>