<svg id="b" xmlns="http://www.w3.org/2000/svg" width="430.083" height="241.685" viewBox="0 0 430.083 241.685" style="color: initial !important;"><defs><style>.d{fill:#5199d1;}.e{fill:#ffffff;}.f{fill:#211715;}.g{fill:#c6c6c6;}.h{fill:#645d5c;}</style></defs><g id="c"><path class="e" d="M54.951,237.679c-1.28.119-2.729.43-4.044.298-.903-.091-3.017-.79-3.624-1.559-.821-1.039-1.039-1.942-1.135-3.186-.121-1.574,1.516-5.488,1.997-8.587,0,0,.069-.442.137-.884l.295.253c1.609,1.382,10.081,2.292,12.613,1.005,1.685,2.764,4.009,3.904,7.058,5.519,1.99,1.054,3.045,1.315,3.856,2.735.357.626.6,2.499.137,3.2-.957,1.45-2.017,2.189-6.414,2.243-3.659.044-6.247-.814-9.641-1.067-.384-.029-.799-.01-1.234.03Z"/><path class="e" d="M6.807,229.919c-.979-3.278-3.249-7.347-4.394-9.152-2.218-3.496,4.386-8.199,7.827-10.452,1.987,3.745,5.252,6.769,9.103,8.521-.826,3.234-2.2,6.218-.112,9.028.737.992,1.409,2.29,1.808,3.459.378,1.108.497,2.256.378,3.528-.112,1.199-1.108,2.052-2.245,2.449-1.713.599-3.918.457-5.641-.118-1.745-.582-5.573-1.929-6.424-6.086-.077-.377-.179-.772-.3-1.179Z"/><path class="e" d="M84.47,160.335c.163-.514,1.432-3.98,1.546-5.422.16-2.026-.282-3.452-1.093-4.478-2.254-2.853-3.359-3.5-5.784-6.21-.906-1.013-.72-3.385.213-4.265,2.758-2.6,7.01-6.877,8.556-9.276l.169-.262c.73.381,1.447.808,2.148,1.275.912.606,1.926,1.593,2.719,2.726.538.769,1.034,1.485,1.643,2.25.745.936,2.252,1.034,2.932,2.018.905,1.312.067,3.057-.467,4.559-.073.206-.141.427-.09.64.06.25.27.432.464.601,1.519,1.323,2.768,2.956,3.646,4.768.744,1.535.909,3.144.672,4.926-.179,1.344-1.139,3.122-2.199,3.969-1.799,1.439-3.429,1.898-5.944,2.18-.629.071-2.708.194-4.667.363-.856.074-1.679.289-2.411.64-1.097.527-1.76,1.671-1.78,2.888l-.272-3.891Z"/><path class="h" d="M43.103,145.054c-3.647,2.525-6.92,5.589-10.158,8.638-5.468,5.149-11.307,11.152-11.485,18.661-.224,6.482,3.388,14.282,4.239,16.187,1.245,3.504,2.096,6.249,2.465,10.351.155,1.718-.853,3.958-2.428,4.681-.997.504-3.223,1.067-4.3,1.364-4.556,1.255-8.188,2.822-11.19,5.408,1.942,3.632,5.084,6.587,8.795,8.354,6.546-1.223,11.129-2.466,17.563-4.704,1.772-.61,3.072-2.284,3.87-3.968.581-1.221.738-2.599.876-3.939.197-1.959.443-4.696.659-7.335,2.096,1.001,4.815,2.42,5.426,2.824,2.629,1.734,3.06,5.073,2.739,7.59-.24,4.407-.939,9.704-1.598,14.849,1.57,1.349,9.677,2.248,12.42,1.094,1-6.438,6.488-20.487,6.012-25.461-.356-3.72-.957-5.222-1.915-6.892-.702-1.225-1.906-3.182-3.199-4.704-2.212-2.605-3.033-3.505-4.91-5.376,3.545-2.081,7.408-4.798,10.816-7.024-.214,3.164-.429,6.328-.643,9.492-.141,2.075-.275,4.204.335,6.192.642,2.092,2.053,3.847,3.433,5.545,1.584,1.949,3.168,3.898,4.753,5.848,3.092,3.804,6.291,10.049,7.561,12.745.843,1.968,1.705,4.055,1.435,6.179-.121.953-.467,1.862-.851,2.742-.308.705-.643,1.399-1.003,2.08-1.128,2.13-.534,4.776,1.363,6.263.622.488,1.223.929,1.699,1.225,1.188.737,2.521,1.069,3.302.228,2.837-3.054,6.3-9.343,5.609-13.843-.306-1.99-.731-3.829-1.61-5.929-1.164-3.9-2.578-7.194-3.743-11.094-1.379-4.619-2.761-9.25-3.609-13.995-1.266-7.078-1.166-20.525-1.09-25.102l.105-4.76c.325-1.218,1.013-2.582,1.168-4.553.16-2.026-.282-3.452-1.093-4.478-2.254-2.853-3.359-3.5-5.784-6.21-.906-1.013-.72-3.385.213-4.265,2.758-2.6,7.01-6.877,8.556-9.276,0,0,.06-.093.168-.263-3.562-1.864-7.449-2.667-11.457-1.776-2.406.535-4.58,1.109-6.576,2.554-1.484,1.074-3.394,3.003-4.62,4.975l-3.788,3.527c-4.204-.164-11.056.857-15.828,3.629-.926.538-1.826,1.115-2.705,1.723Z"/><path class="e" d="M84.147,232.706c-1.867-1.492-2.447-4.117-1.326-6.233.361-.681.695-1.375,1.004-2.081.305-.698.585-1.414.747-2.152,3.197,1.483,7.008,1.575,10.271.237-.381,4.182-3.245,9.116-5.657,11.711-.781.841-2.114.509-3.302-.228-.477-.296-1.077-.737-1.7-1.225-.012-.01-.024-.019-.036-.029Z"/><path class="f" d="M93.332,138.87c-.837.49-1.792,1.045-2.721,1.626-.363.227-.25.783.173.845,1.845.267,4.721.804,6.192,2.167.015-.084.045-.172.075-.258.534-1.502,1.373-3.247.467-4.559-.417-.604-1.144-.874-1.816-1.208-.426.232-.721.392-.721.392-.439.283-1.01.62-1.65.995Z"/><path class="f" d="M86.182,129.675c-1.776,2.688-4.256,4.996-6.546,7.239-1.145,1.121-2.406,2.079-2.857,3.689-.426,1.52-.302,3.325.634,4.631,1.007,1.406,2.395,2.566,3.605,3.794.991,1.004,2.308,2.148,2.798,3.494.847,2.332-.489,4.89-1.274,7.281-.804,2.452,3.057,3.502,3.857,1.063s1.839-4.918,1.612-7.548c-.304-3.523-2.93-5.891-5.303-8.25-.844-.839-2.374-1.776-2.144-3.109.193-1.12,1.89-2.202,2.683-2.992,2.267-2.26,4.616-4.593,6.388-7.275,1.423-2.154-2.039-4.16-3.454-2.019h0Z"/><path class="f" d="M93.973,136.149c-.883.566-1.799,1.079-2.702,1.612-.559.33-1.132.65-1.672,1.011-.94.628-1.437,1.714-1.097,2.832.289.952,1.093,1.565,2.053,1.711.449.069.897.146,1.342.236.944.191,1.88.44,2.772.808l-.478-.202c.537.228,1.053.5,1.516.857l-.405-.313c.126.101.247.207.362.32.749.732,2.092.802,2.828,0,.726-.791.799-2.047,0-2.828-1.061-1.038-2.458-1.656-3.86-2.083-.593-.181-1.197-.323-1.805-.443-.283-.056-.566-.106-.851-.153-.258-.042-.553-.048-.797-.143l.478.202-.058-.033.405.313c-.036-.024-.067-.054-.094-.087l.313.405c-.027-.033-.048-.069-.065-.108l.202.478c-.017-.039-.028-.079-.034-.121l.071.532c-.006-.042-.006-.084,0-.126l-.071.532c.006-.042.017-.083.034-.123l-.202.478c.018-.041.041-.078.07-.111l-.313.405.049-.049-.405.313c.756-.554,1.624-.993,2.432-1.466.671-.393,1.346-.78,2.001-1.2.88-.564,1.319-1.803.718-2.736-.567-.88-1.794-1.321-2.736-.718h0Z"/><path class="f" d="M65.984,172.959c-.253,3.736-.506,7.473-.76,11.209-.237,3.499-.383,6.865,1.345,10.047,1.602,2.95,4.104,5.507,6.211,8.099,1.912,2.353,3.631,4.754,5.158,7.378,1.248,2.143,2.448,4.341,3.484,6.596.627,1.366,1.283,2.927,1.303,4.455.022,1.706-.919,3.23-1.631,4.719-1.431,2.993-.914,6.49,1.676,8.687,2.341,1.986,5.763,3.856,8.22,1.017,3.503-4.047,6.538-9.861,5.733-15.353-.503-3.428-1.793-6.709-2.941-9.962-1.204-3.413-2.357-6.822-3.37-10.297-1.704-5.843-2.999-11.618-3.374-17.696-.31-5.025-.364-10.067-.325-15.101.007-.843-.109-1.794.039-2.624.272-1.532,2.327-1.452,3.54-1.545,3.083-.237,6.333-.275,9.079-1.884,3.086-1.808,4.707-5.113,4.449-8.664-.137-1.883-.799-3.606-1.799-5.2-.447-.712-.954-1.391-1.492-2.036-.524-.628-1.453-1.222-1.838-1.924l.273,1.009c-.002-.388.319-.904.444-1.269.179-.522.326-1.036.413-1.581.166-1.034.1-2.073-.382-3.021-.474-.932-1.288-1.544-2.199-2.009-.82-.419-1.216-.705-1.772-1.47-1.263-1.739-2.437-3.332-4.232-4.57-1.71-1.18-3.649-2.101-5.617-2.754-4.086-1.356-8.329-1.061-12.388.239s-7.251,4.157-9.534,7.71c-1.396,2.172,2.065,4.18,3.454,2.019,1.953-3.04,4.639-5.218,8.139-6.162,3.606-.972,7.074-.965,10.549.531,1.613.695,3.284,1.597,4.516,2.865,1.272,1.31,2.016,3.165,3.494,4.262.471.349,1.628.631,1.953,1.094.331.471-.077,1.275-.252,1.782-.294.853-.712,1.668-.552,2.599.177,1.029.898,1.608,1.607,2.295,2.275,2.203,4.365,5.761,2.641,8.896-1.44,2.618-4.605,2.925-7.288,3.12-3.587.26-8.35.42-9.119,4.866-.386,2.233-.143,4.709-.134,6.966.024,6.016.124,12.089.962,18.056,1.118,7.954,3.859,15.664,6.486,23.216.686,1.973,1.44,3.959,2.008,5.967.431,1.524.821,3.144.695,4.737-.241,3.049-1.825,6.044-3.522,8.525-.365.534-.75,1.05-1.174,1.54-.096.111-.196.219-.293.329-.221.251.048.014.16.016-.413-.007-.793-.243-1.135-.451-1.279-.777-2.622-1.788-2.641-3.421-.01-.88.446-1.593.817-2.361.449-.93.887-1.888,1.207-2.871.619-1.908.527-3.919-.036-5.829-.869-2.947-2.429-5.746-3.909-8.424-1.666-3.014-3.508-5.888-5.682-8.562-1.337-1.645-2.674-3.289-4.01-4.934-1.099-1.352-2.296-2.74-2.981-4.363-.754-1.787-.659-3.763-.543-5.657.134-2.173.293-4.345.44-6.517.143-2.112.286-4.224.429-6.336.174-2.57-3.827-2.559-4,0h0Z"/><path class="f" d="M54.23,182.749c4.438,4.4,9.766,9.351,10.652,15.744.361,2.603-.124,4.746-.752,7.305-.776,3.164-1.732,6.282-2.654,9.406-.91,3.083-1.896,6.192-2.408,9.372l1.397-1.397c-1.768.691-3.887.516-5.81.348-.994-.086-1.978-.23-2.952-.45-.469-.106-.933-.231-1.388-.386-.046-.016-.628-.331-.324-.092l.586,1.414c.509-3.972,1.042-7.944,1.388-11.934.267-3.081.663-6.203-.732-9.088-1.094-2.264-3.099-3.377-5.223-4.476-1.857-.961-3.825-2.138-5.847-2.712-2.481-.704-3.539,3.154-1.063,3.857.162.046.317.105.474.164.014.005.274.112.096.038-.219-.091.198.089.238.107.638.289,1.269.59,1.898.898,1.247.611,2.489,1.239,3.707,1.907.984.54,1.79,1.138,2.261,2.21.674,1.532.466,3.175.366,4.787-.136,2.186-.358,4.366-.606,6.541-.273,2.399-.748,4.824-.896,7.233-.202,3.298,4.876,3.638,7.25,3.905,1.538.173,3.102.251,4.647.138,1.289-.095,3.449-.204,4.189-1.471.327-.559.348-1.342.481-1.968.15-.704.32-1.403.498-2.1.4-1.563.847-3.113,1.3-4.661.952-3.253,1.957-6.493,2.796-9.778.636-2.488,1.378-5.204,1.223-7.796-.227-3.806-1.403-6.983-3.47-10.144-2.362-3.612-5.442-6.724-8.495-9.75-1.83-1.814-4.66,1.013-2.828,2.828h0Z"/><path class="f" d="M61.636,137.702c-7.131-.231-14.219,1.835-20.023,5.963-3.366,2.394-6.424,5.175-9.43,7.998-2.749,2.582-5.457,5.206-7.759,8.205-2.147,2.797-3.958,5.984-4.626,9.484-.688,3.607-.217,7.29.704,10.813.763,2.92,1.86,5.741,3.077,8.5,1.246,2.823,2.087,6.011,2.467,9.079.186,1.504.239,3.292-1.317,4.1-1.458.757-3.301.996-4.873,1.463-4.021,1.193-7.802,2.9-11.022,5.622-.683.578-.714,1.691-.313,2.424,1.955,3.566,4.918,6.576,8.484,8.543.467.257.99.587,1.506.729.649.179,1.346-.052,1.986-.175,1.16-.224,2.318-.46,3.471-.715,2.087-.461,4.159-.986,6.213-1.578,2.184-.63,4.358-1.317,6.501-2.077,2.11-.748,3.672-1.986,4.88-3.883,1.264-1.986,1.596-4.166,1.826-6.464.233-2.325.432-4.653.624-6.982.212-2.565-3.789-2.551-4,0-.231,2.792-.351,5.645-.789,8.414-.202,1.277-.644,2.46-1.438,3.492-.824,1.071-1.822,1.451-3.062,1.872-5.31,1.802-10.701,3.202-16.211,4.239l1.541.202c-3.454-1.687-6.227-4.259-8.078-7.636l-.313,2.424c2.617-2.212,5.799-3.551,9.05-4.532,2.999-.905,6.571-1.275,8.368-4.167,1.953-3.142.862-7.337-.038-10.663-.701-2.591-1.754-5.017-2.735-7.472-2.423-6.065-4.288-12.861-1.074-18.987,1.632-3.111,3.972-5.754,6.437-8.228,2.772-2.782,5.662-5.489,8.667-8.018,3.159-2.658,6.586-5.122,10.546-6.408,3.452-1.121,7.123-1.697,10.754-1.58,2.575.083,2.572-3.917,0-4h0Z"/><path class="f" d="M58.441,184.137c3.409-2.042,6.665-4.324,9.983-6.507.873-.574,1.324-1.795.718-2.736-.562-.871-1.801-1.332-2.736-.718-3.318,2.183-6.574,4.465-9.983,6.507-.897.538-1.307,1.822-.718,2.736.582.903,1.776,1.293,2.736.718h0Z"/><path class="f" d="M17.414,218.305c-.541,2.061-1.33,4.16-1.283,6.321.024,1.111.273,2.181.745,3.186.516,1.099,1.334,2.02,1.858,3.124.448.945.728,1.933.728,2.983,0,1.028-.387,1.379-1.388,1.617-1.715.409-3.502-.018-5.101-.673-.935-.383-2.188-1.099-2.93-2.028-1.085-1.356-1.191-3.281-1.788-4.868-.709-1.887-1.577-3.717-2.534-5.49-.386-.716-.787-1.424-1.208-2.12-.346-.572-.587-.81-.537-1.282.128-1.21,1.661-2.662,2.633-3.55,1.393-1.273,2.937-2.358,4.509-3.397,2.139-1.412.138-4.878-2.019-3.454-3.274,2.162-7.364,4.83-8.776,8.686-.694,1.894-.188,3.477.805,5.129,1.107,1.842,2.132,3.763,2.959,5.749.844,2.028,1.053,4.36,2.24,6.228,1.069,1.683,2.666,2.954,4.467,3.781,3.682,1.692,10.659,2.78,12.387-2.189,1.014-2.918-.363-6.44-1.977-8.864-.78-1.171-1.205-2.09-1.025-3.531.182-1.455.724-2.883,1.095-4.297.655-2.492-3.202-3.555-3.857-1.063h0Z"/><path class="f" d="M59.967,226.797c2.299,3.002,5.531,4.566,8.826,6.255,1.109.569,1.948,1.101,1.697,2.42-.057.302-.659.7-.905.796-1.497.579-3.348.493-4.914.432-1.968-.076-3.89-.466-5.835-.743-2.032-.289-3.8-.261-5.83-.04-1.272.138-3.107.207-4.149-.746-1.128-1.031-.673-2.715-.35-3.915.545-2.022,1.22-4.007,1.567-6.077.178-1.064-.28-2.153-1.397-2.46-.959-.263-2.281.326-2.46,1.397-.662,3.951-3.193,8.167-1.369,12.135.918,1.997,2.735,3.009,4.807,3.52,2.214.547,4.318-.231,6.531-.12,4.668.234,9.181,1.802,13.88.644,3.377-.832,5.284-3.998,4.054-7.371-.812-2.226-2.92-3.097-4.862-4.111-2.059-1.075-4.386-2.14-5.836-4.033-.656-.856-1.722-1.311-2.736-.718-.843.493-1.378,1.874-.718,2.736h0Z"/><path class="f" d="M84.695,224.451c3.073,1.194,6.599,1.276,9.742.296.997-.311,1.737-1.408,1.397-2.46-.325-1.003-1.391-1.73-2.46-1.397-.667.208-1.381.415-2.081.474.571-.048-.119.004-.227.013-.152.013-.304.022-.457.03-.356.017-.712.019-1.068.007s-.711-.043-1.065-.08c-.516-.053.437.082-.073-.013-.2-.037-.401-.07-.6-.112-.698-.148-1.379-.356-2.044-.615-.977-.38-2.237.417-2.46,1.397-.261,1.147.35,2.054,1.397,2.46h0Z"/><path class="f" d="M135.365,71.884c10.046,5.379,20.029,10.878,30.032,16.336,15.422,8.414,30.838,16.839,46.249,25.271,6.745,3.691,13.489,7.382,20.23,11.081,2.258,1.239,4.279-2.214,2.019-3.454-13.385-7.345-26.782-14.668-40.179-21.989-14.469-7.907-28.939-15.812-43.42-23.695-4.3-2.341-8.595-4.692-12.912-7.003-2.269-1.215-4.292,2.237-2.019,3.454h0Z"/><path class="e" d="M188.586,63.083c.276,1.06.448,2.234.495,3.537.246,2.188,2.279,10.251,2.175,10.786.021.718-.015,1.98-.185,3.197-.113.802-.285,1.587-.54,2.178-.541,1.265-1.309,1.937-2.13,2.316-1.61.744-3.865,1.148-5.369.871-.361-.067-.695.158-.826.501-.185.483-.654,1.86-.932,3.423l.081-.084c-.29,2.3,1.55,5.08,2.19,8.03.69,3.19,1.39,6.4,1.55,9.67.128,2.481-.045,5.553-.339,8.295,2.619-3.944,3.889-4.745,5.751-8.278.505-.959.432-2.119-.188-3.007-.626-.898-1.22-2.087-1.444-3.128-.199-1.898.357-3.905,1.926-5.126,1.374-1.069,3.305-1.498,4.939-.955.778.307,1.786.966,2.09,2.025.312-.333.51-.543.51-.543,1.073-1.137,6.143,1.387,7.272,2.34,1.149.97,1.525,2.401,1.599,3.275.114,1.365-.867,3.265-2.014,4.021-.001.06-.001.095-.001.095-.1.93-1.003,2.73-1.405,3.254-.661.863-1.426,1.568-2.47,1.878-.643.089-1.323-.049-1.941-.298-.101.465-.165.753-.165.753-.621,2.829-2.855,5.688-4.382,8.073-2.439,3.81-5.055,7.549-7.995,10.992-.552.647-1.118,1.282-1.708,1.895-.782.811-1.378.955-2.478,1.252-.167.045-.44-.026-.365-.181,0,0-.544-.129-1.206-.287-.321,1.597-.593,3.197-.776,4.805-.39,3.327-.709,9.66-1.119,13.212,1.035.411,2.278,1.051,3.167,1.703,1.014.743,2.241,1.966,2.199,2.984-.011.264-.549,1.191-1.104,1.767.491.672,1.45,1.725,1.597,2.569.076.435-.059.879-.232,1.286-.393.925-.972,1.729-1.659,2.451,1.44,2.84,2.77,5.68,4.52,9.429,1.39,2.98,2.75,6.02,3.35,9.25.55,3.03.69,6.15.31,9.21-1.312,10.479-3.193,28.918-2.557,31.306-.764,1.435,5.964,4.181,9.107,5.498,2.229.934,4.59,1.668,5.391,3.948.575,1.636-.35,3.529-1.803,4.475-1.453.946-3.295,1.097-5.017.896s-3.391-.72-5.1-1.014c-2.971-.51-6.011-.327-9.023-.434-3.041-.107-6.586-.866-7.848-3.634-1.073-2.353-.103-5.045,1.241-7.255.285-.629,1.285-2.234,1.295-2.9.019-1.333-.045-2.403-.211-3.25-1.667-11.333-2.429-15.166-2.174-24.672.072-2.668.257-4.24-.61-6.578-.641-1.727-1.663-2.966-2.754-4.166-1.215,3.313-1.008,5.905-1.942,9.054-.444,1.498-1.038,2.853-1.808,4.211-.96,1.713-2.999,3.564-4.621,4.657-9.266,6.274-16.893,11.579-26.532,17.252-1.094,2.408.326,5.238,2.043,6.696.931.791,2.055,1.326,3,2.099s1.738,1.908,1.611,3.123c-.11,1.052-.903,1.937-1.839,2.431s-2.005.662-3.054.802c-1.241.165-2.498.301-3.744.18-2.404-.235-4.694-1.471-6.209-3.351-.779-.966-1.352-2.081-2.085-3.082-1.21-1.654-2.826-2.964-4.163-4.517-1.337-1.553-2.427-3.505-2.238-5.546.169-1.824,1.168-3.826,2.632-4.927,1.528-1.149,2.886-1.693,4.992-2.08,1.13-.38,2.765-.622,3.424-1.337.604-.654,1.108-1.436,1.666-2.133,1.051-1.313,3.89-4.946,5.019-6.193,3.182-3.515,5.544-6.57,9.461-9.216,1.537-1.038,2.848-1.39,4.162-2.382,1.496-1.129,2.246-1.634,2.418-3.5.112-1.217.284-6.242.365-8.409.216-5.767.657-8.432,1.199-13.001-.214-.299-.428-.602-.644-.909-1.834-2.824-3.699-5.717-4.5-8.988-1.112-4.54-.06-9.327,1.425-13.759.373-1.112.869-2.336,2.282-2.459-.504-.924-.992-1.833-1.46-2.719-1.426-2.702-2.845-5.46-3.464-8.452-.901-4.351-.05-8.851.801-13.212,1.319-6.762,2.641-13.537,4.596-20.143.743-2.509,2.256-4.999,4.098-6.858,2.113-2.132,4.529-3.091,7.425-3.88,0,0,.378-.112.934-.275-.868-.876-1.913-1.669-2.648-2.35-2.133-1.973-5.325-5.901-5.64-11.704-.174-3.207.774-6.539,2.116-8.912,3.453-6.103,7.803-7.464,10.507-8.029s5.386-.341,7.839.294c5.138,1.331,7.723,4.679,8.179,5.433,1.007,1.666,1.567,2.908,1.877,5.182"/><path class="f" d="M188.243,72.515c-.868-.696-1.993-1.182-2.811-1.498-.271-.105-.258-.567.018-.702,1.254-.611,2.549-1.145,3.327-1.539l.63-.273c.379,1.894.988,4.523,1.404,6.439-.841-.686-1.556-1.269-1.556-1.269-.236-.438-.594-.822-1.012-1.157Z"/><path class="g" d="M137.798,68.79c-2.474-2.934-6.099-7.246-8.435-9.562-.933-.926-1.608-1.973-2.746-2.631-2.734-1.58-12.187-2.188-14.271-1.941-.233.028-.876.124-1.013.368-.194.348-.224.774-.114,1.159,1.141,3.978,2.366,6.811,4.537,10.308.496.8,2.039,1.775,2.929,2.08,2.211.757,13.056,3.277,17.129,4.185"/><path class="f" d="M165.056,82.262c-2.384.662-4.73,1.523-6.719,3.029-2.152,1.629-3.9,3.851-5.079,6.276-1.281,2.634-1.926,5.567-2.625,8.396-.73,2.956-1.37,5.933-1.975,8.916-1.164,5.739-2.901,11.87-2.248,17.766.627,5.667,3.715,10.715,6.44,15.606,3.145,5.644,6.497,11.184,10.178,16.496,1.457,2.101,4.925.104,3.454-2.019-3.001-4.33-5.777-8.814-8.41-13.377-1.314-2.277-2.591-4.574-3.827-6.894-1.195-2.243-2.432-4.499-3.189-6.936-1.662-5.352-.246-10.947.801-16.277,1.081-5.501,2.211-11,3.735-16.399.783-2.774,1.924-5.287,3.984-7.361,1.808-1.82,4.116-2.692,6.542-3.366,2.477-.687,1.425-4.548-1.063-3.857h0Z"/><path class="g" d="M111.974,58.601c-.261-.765-.509-1.565-.754-2.417-.11-.385-.08-.81.114-1.159.136-.244.78-.34,1.013-.368,2.083-.247,11.536.361,14.271,1.941,1.138.658,1.813,1.705,2.746,2.631,2.336,2.316,5.96,6.627,8.435,9.561-.666,1.314-1.423,2.818-1.984,3.967-4.073-.908-14.918-3.428-17.129-4.185-.89-.305-2.433-1.28-2.929-2.08-1.705-2.747-2.827-5.085-3.783-7.891Z"/><path class="f" d="M139.212,67.376c-1.927-2.285-3.851-4.575-5.846-6.801-.809-.903-1.635-1.79-2.485-2.656-1.04-1.06-1.944-2.296-3.255-3.048-1.662-.953-3.705-1.28-5.571-1.564-2.271-.345-4.563-.575-6.858-.668-1.587-.065-3.887-.323-5.143.842-1.315,1.22-.853,2.998-.392,4.476.485,1.556,1.057,3.079,1.713,4.571,1.135,2.579,2.417,5.431,4.842,7.019,1.446.947,3.138,1.326,4.788,1.752,4.735,1.222,9.505,2.322,14.278,3.387,2.508.56,3.579-3.295,1.063-3.857-4.813-1.075-9.624-2.182-14.398-3.418-1.913-.495-3.827-.843-4.915-2.667-.858-1.437-1.653-2.921-2.303-4.464-.305-.724-.574-1.465-.828-2.209-.218-.639-.849-1.962-.64-2.513l-.514.883c-.374.216-.391.273-.052.172-.257.032-.315.042-.172.029.145-.011.29-.023.435-.025.424-.005.847-.013,1.272-.006,1.065.019,2.13.081,3.192.164,2.367.186,4.787.442,7.071,1.121,1.04.309,1.514.622,2.413,1.612.982,1.082,2.013,2.116,2.998,3.196,2.226,2.442,4.349,4.977,6.479,7.502,1.662,1.97,4.479-.871,2.828-2.828h0Z"/><path class="f" d="M136.961,74.981c1.007-2.18,2.119-4.315,3.212-6.454.475-.931.274-2.212-.718-2.736-.913-.483-2.228-.277-2.736.718-1.092,2.138-2.205,4.273-3.212,6.454-.231.5-.353.991-.202,1.541.128.464.486.967.919,1.195.882.466,2.268.296,2.736-.718h0Z"/><path class="f" d="M133.452,74.94c1.473-3.189,3.1-6.313,4.698-9.441.475-.931.274-2.212-.718-2.736-.913-.483-2.228-.277-2.736.718-1.598,3.128-3.225,6.251-4.698,9.441-.438.948-.3,2.199.718,2.736.882.466,2.268.296,2.736-.718h0Z"/><path class="f" d="M129.971,74.267c1.734-3.753,3.648-7.428,5.528-11.108.475-.931.274-2.212-.718-2.736-.913-.483-2.228-.277-2.736.718-1.88,3.681-3.795,7.355-5.528,11.108-.438.948-.3,2.199.718,2.736.882.466,2.268.296,2.736-.718h0Z"/><path class="h" d="M177.36,52.837c-2.091-.295-4.415-.352-6.504.084-2.143.447-5.321,1.395-8.266,4.808-2.463,2.046-4.038,5.103-4.781,8.249-.865,3.663-.726,7.48-.503,11.237.149,2.504.332,5.023.274,7.527-.051,2.215,1.492,4.139,3.679,4.49,1.775.285,3.628.502,5.919.658.431-2.959,4.55-9.974,5.108-12.138l.042-.204c-.93-.834-1.509-1.953-1.701-3.394-.12-.901.12-2.028.797-2.613.455-.393,1.081-.529,1.745-.42.149.025.288.06.418.107,1.54-.315,1.959-1.758,2.493-2.992.497-1.148,1.173-2.219,1.997-3.16.195-.222.402-.441.66-.585.438-.245,1-.399,1.498-.461,2.846-.354,5.232-.453,8.422-.823-.332-2-.906-3.706-1.661-5.301-.579-1.222-2.861-3.667-7.861-4.75-.563-.122-1.159-.23-1.775-.317Z"/><path class="f" d="M197.288,111.575c-.504,2.085-1.708,3.884-2.886,5.647-1.272,1.904-2.498,3.839-3.797,5.726-1.307,1.898-2.668,3.759-4.124,5.545-.794.974-1.605,1.94-2.47,2.851-.246.259-.469.525-.782.701.07-.039-.328.117-.368.138-.384.197-.599-.083-.016.152l1.397,1.397-.024-.126c-.202-1.062-1.479-1.667-2.46-1.397-1.112.306-1.6,1.396-1.397,2.46.32,1.681,2.116,1.805,3.43,1.411,1.227-.367,2.171-.983,3.049-1.908,2.066-2.177,3.909-4.591,5.671-7.016,1.693-2.329,3.229-4.756,4.83-7.147,1.539-2.298,3.147-4.644,3.806-7.372.605-2.501-3.252-3.568-3.857-1.063h0Z"/><path class="f" d="M181.429,165.636c2.159,4.27,4.369,8.613,6.127,13.065,1.881,4.763,2.295,9.623,1.672,14.684-.926,7.521-1.748,15.068-2.293,22.628-.193,2.671-.523,5.469-.127,8.135.159,1.069,1.509,1.658,2.46,1.397,1.146-.315,1.556-1.388,1.397-2.46.117.791-.003-.371-.008-.611-.012-.508-.003-1.017.01-1.525.038-1.453.127-2.905.227-4.355.264-3.822.626-7.638,1.015-11.449.889-8.707,3.002-17.734-.022-26.248-1.863-5.244-4.495-10.318-7.004-15.28-1.162-2.298-4.614-.275-3.454,2.019h0Z"/><path class="f" d="M151.707,137.993c-1.974,1.368-2.521,3.798-3.126,5.998-.685,2.489-1.161,5.091-1.159,7.68.004,5.287,2.438,9.686,5.237,13.999,1.396,2.152,4.861.149,3.454-2.019-2.208-3.402-4.466-6.913-4.669-11.085-.102-2.091.172-4.155.654-6.186.246-1.035.538-2.059.86-3.073.157-.496.303-1.538.768-1.86,2.102-1.456.104-4.925-2.019-3.454h0Z"/><path class="f" d="M152.941,166.293c-.477,3.926-.93,7.835-1.092,11.789-.067,1.629-.119,3.258-.184,4.887-.052,1.302.032,2.724-.2,4.011-.248,1.369-1.935,2.181-3.085,2.776-2.029,1.05-3.86,2.253-5.592,3.754-2.966,2.57-5.601,5.665-8.083,8.697-1.147,1.401-2.264,2.827-3.391,4.244-.622.782-1.2,1.947-1.999,2.549-.684.516-1.871.592-2.67.86-2.428.814-1.387,4.679,1.063,3.857.854-.286,1.744-.46,2.585-.786,1.217-.472,1.965-1.179,2.749-2.207,1.069-1.401,2.156-2.785,3.257-4.161,2.534-3.168,5.196-6.325,8.124-9.136,1.701-1.633,3.531-2.982,5.635-4.047,1.678-.849,3.644-2.016,4.638-3.678.797-1.331.798-2.943.87-4.447.085-1.765.147-3.532.211-5.298.168-4.589.609-9.11,1.162-13.665.13-1.074-1.013-2-2-2-1.189,0-1.869.923-2,2h0Z"/><path class="f" d="M134.44,219.381c-1.37,3.385.533,7.163,3.279,9.21.808.603,3.451,1.719,3.322,3.02-.126,1.278-2.65,1.426-3.533,1.532-1.746.209-3.499.268-5.136-.472-1.565-.707-2.621-1.894-3.528-3.315-1.067-1.672-2.263-3.141-3.662-4.546-1.23-1.236-2.594-2.503-3.227-4.171-.607-1.599-.11-3.433,1.009-4.696,1.172-1.322,2.949-1.879,4.619-2.225,2.519-.522,1.453-4.379-1.063-3.857-4.192.869-7.991,3.536-8.717,8.012-.379,2.338.32,4.604,1.679,6.517s3.224,3.366,4.691,5.19c1.423,1.77,2.322,3.792,4.144,5.236,1.755,1.391,3.836,2.227,6.068,2.428,3.869.348,10.962-.686,10.629-5.951-.184-2.902-2.652-4.317-4.78-5.801-1.635-1.14-2.727-3.096-1.937-5.047.405-1.002-.441-2.198-1.397-2.46-1.143-.314-2.053.391-2.46,1.397h0Z"/><path class="f" d="M186.809,223.372c-.604,2.919,3.036,4.503,5.148,5.52,1.463.704,2.959,1.335,4.455,1.963,1.352.568,2.938,1.018,4.108,1.927,1.189.924,1.168,2.329-.057,3.235-1.608,1.189-4.024.664-5.8.274-2.358-.518-4.67-.93-7.089-1.014-2.197-.076-4.429.078-6.616-.18-1.541-.181-3.485-.607-4.429-1.966-1.242-1.787-.031-4.206.924-5.818,1.314-2.22-2.142-4.235-3.454-2.019-1.295,2.188-2.266,4.693-1.864,7.272.336,2.152,1.661,3.958,3.541,5.037,4.286,2.457,9.591,1.301,14.268,1.829,4.738.536,10.752,3.178,14.287-1.615,1.416-1.919,1.614-4.447.312-6.485-1.18-1.847-3.173-2.724-5.12-3.527-1.83-.755-3.663-1.508-5.448-2.367-.888-.427-1.775-.874-2.607-1.404-.243-.155-.579-.4-.613-.429-.077-.063-.238-.302-.321-.319.347.071.23,1.158.231,1.149.52-2.512-3.335-3.587-3.857-1.063h0Z"/><path class="f" d="M152.658,165.67c2.834,4.026,5.92,7.855,9.17,11.552,1.652,1.879,3.333,3.732,5.008,5.59,1.515,1.68,3.325,3.322,4.536,5.243,1.203,1.908,1.371,3.91,1.306,6.108-.066,2.228-.118,4.454-.069,6.683.082,3.759.49,7.484,1.005,11.206.354,2.559.747,5.112,1.125,7.668.167,1.126.516,2.553.282,3.685.047-.229-.356.62-.416.734-.201.386-.416.764-.605,1.156-1.114,2.308,2.334,4.339,3.454,2.019.4-.829.872-1.615,1.22-2.47.404-.993.38-2.006.322-3.065-.137-2.491-.679-4.992-1.044-7.458-.573-3.878-1.11-7.761-1.284-11.681-.094-2.113-.096-4.23-.051-6.344.051-2.383.28-4.802-.397-7.126-.718-2.463-2.201-4.394-3.907-6.255-1.778-1.939-3.53-3.903-5.287-5.86-3.857-4.295-7.586-8.678-10.911-13.403-1.47-2.089-4.94-.093-3.454,2.019h0Z"/><path class="f" d="M137.378,221.64c7.483-4.413,14.707-9.227,21.892-14.104,3.403-2.31,7.235-4.434,9.597-7.914,2.446-3.604,2.784-7.733,3.622-11.864.51-2.513-3.345-3.588-3.857-1.063-.772,3.804-.934,7.878-3.363,11.115-1.015,1.353-2.389,2.449-3.775,3.393-1.788,1.217-3.58,2.431-5.371,3.645-6.812,4.619-13.674,9.157-20.765,13.339-2.216,1.307-.206,4.766,2.019,3.454h0Z"/><path class="f" d="M163.03,158.747c.853,1.43,1.799,2.801,2.732,4.179.877,1.295,1.663,2.655,2.548,3.942.825,1.201,1.82,2.679,3.052,3.497,1.324.88,3.278.998,4.816.801,1.691-.217,3.126-1.138,4.516-2.063,1.343-.893,2.702-1.841,3.825-3.008,1.163-1.208,2.346-2.836,2.506-4.551s-.891-2.96-1.848-4.232l-.313,2.424c1.284-1.436,2.171-3.031,1.261-4.92-.774-1.608-2.371-2.829-3.887-3.692-2.504-1.426-5.596-2.346-8.505-1.977-1.071.136-2,.822-2,2,0,.975.921,2.137,2,2,1.706-.216,3.523.04,5.101.728.987.43,2.021.965,2.824,1.692.072.066.902,1.037.902,1.037-.195.029.343-.679-.011-.414-.173.129-.355.541-.513.717-.537.601-.856,1.7-.313,2.424.405.539,1.421,1.438,1.239,2.116-.279,1.039-1.395,1.997-2.172,2.663-.86.737-1.822,1.355-2.771,1.97-1.066.692-1.919,1.183-3.208,1.124-.335-.015-.876.032-1.188-.137-.359-.194-.672-.699-.929-1.005-.693-.826-1.245-1.719-1.815-2.63-1.417-2.267-3.025-4.408-4.395-6.704-1.318-2.209-4.777-.199-3.454,2.019h0Z"/><path class="f" d="M168.089,105.895c-1.466,3.418-3.63,6.48-5.253,9.82-.82,1.688-1.641,3.49-1.933,5.355-.362,2.315.277,4.522.945,6.724,2.518,8.304,6.791,15.894,10.139,23.863.418.995,1.323,1.71,2.46,1.397.938-.258,1.818-1.458,1.397-2.46-3.172-7.547-7.174-14.765-9.729-22.563-.603-1.84-1.543-4.041-1.33-6.009.179-1.652,1.006-3.312,1.749-4.778,1.596-3.147,3.615-6.081,5.008-9.329.425-.992.295-2.144-.718-2.736-.842-.493-2.308-.281-2.736.718h0Z"/><path class="f" d="M187.414,115.455c1.444-2.012,3.091-3.873,4.328-6.027.788-1.372,1.353-2.783.963-4.389-.334-1.38-1.446-2.377-1.788-3.749-.502-2.014.928-3.994,2.977-4.204.246-.025.516-.031.76.005.096.014.787.268.427.1.405.189.62.33.782.578-.039-.06.123.596-.009.54-.067-.028.178-.238.2-.202.063.098-.074.013-.12.004-1.059-.206-2.159.299-2.46,1.397-.269.98.331,2.253,1.397,2.46,1.486.289,2.913.084,3.981-1.071.967-1.046,1.288-2.683.922-4.044-.727-2.702-3.721-4.025-6.313-3.722-3.039.355-5.634,2.436-6.374,5.454-.353,1.441-.355,2.968.177,4.36.272.713.595,1.412.992,2.065.204.335.605.745.607,1.163.003.646-.718,1.5-1.046,2.025-.358.572-.743,1.126-1.146,1.667-.893,1.199-1.839,2.357-2.711,3.572-.63.878-.153,2.227.718,2.736,1.007.589,2.105.163,2.736-.718h0Z"/><path class="f" d="M197.74,104.729c.901.546,1.858.648,2.875.686.118.005.24.027.358.024.137-.003-.502-.102-.148-.01.38.099-.438-.157-.489-.307.01.03.08.081.102.106.135.154-.203-.357-.121-.151.09.23.259.451.365.678.117.25.223.505.34.756.591,1.273,1.791,2.249,3.24,2.241,1.242-.006,2.402-.749,3.174-1.68s1.41-2.042,1.644-3.242c.256-1.307.08-2.577-.436-3.799-.524-1.242-1.36-2.225-2.482-2.966-.713-.471-1.482-.864-2.258-1.218-1.967-.899-5.115-2.305-6.977-.473-.747.735-.792,2.102,0,2.828.804.738,2.031.784,2.828,0,.195-.192-.485.324-.245.186.244-.141-.554.2-.277.113.479-.151-.524-.005-.094,0,.15.002.299.009.449.016.176.008.203.127-.286-.04.106.036.236.041.347.065.384.082.761.195,1.132.323.166.057.331.117.495.18.1.038.199.078.299.118.502.203-.303-.138.018.007.724.327,1.437.674,2.12,1.08.232.138.453.289.677.438.244.163-.432-.363-.228-.178.086.078.175.15.257.231.073.071.262.22.293.319-.152-.203-.186-.244-.101-.125.04.056.078.113.114.172.072.114.138.231.2.35l.059.118c.091.198.075.157-.048-.125-.039.077.19.577.216.685.026.106.044.213.068.32.084.374-.033-.444-.021-.189.01.201.019.394.013.596-.011.379.106-.523.02-.145-.022.099-.04.198-.065.296-.048.186-.126.363-.175.548-.067.252.228-.478.057-.132-.048.097-.092.194-.143.29-.117.222-.254.429-.391.638-.216.331.319-.365.059-.074-.068.075-.132.153-.202.226-.112.117-.241.214-.355.328.397-.4.274-.188.109-.102-.052.027-.19.081-.226.124.173-.205.477-.174.173-.087-.445.126.458-.01.15-.02-.287-.009.332.052.305.049-.301-.04-.014-.164.182.103-.013-.018-.195-.126-.215-.129.199.021.393.317.13.063-.255-.247.18.371.073.087-.031-.082-.094-.166-.133-.245-.101-.201-.188-.408-.28-.613-.275-.618-.58-1.211-1.053-1.708-.61-.64-1.365-.831-2.208-.918-.312-.032-.696-.088-1.01-.029-.148.028.693.129.419.055-.11-.029-.224-.047-.334-.076-.108-.028-.213-.065-.321-.095-.341-.094.419.24-.019-.025-.896-.543-2.237-.227-2.736.718-.513.971-.239,2.157.718,2.736h0Z"/><path class="f" d="M203.196,106.52c.1-.8.019-.209-.039-.004-.05.177-.11.35-.174.522-.033.088-.058.194-.107.273.053-.086.2-.461.065-.158-.073.165-.149.328-.229.49-.148.301-.305.6-.485.884-.033.052-.069.102-.102.155-.133.21.317-.392.145-.184-.146.177-.291.352-.45.517-.143.149-.295.284-.448.421-.297.268.389-.259.052-.045-.094.06-.185.121-.281.177-.087.05-.2.138-.297.154l.27-.112c-.071.028-.143.054-.215.078.056.04.528-.027.131-.012-.118.004-.234-.006-.352-.007-.247,0,.47.1.12.018-.117-.027-.234-.049-.349-.08s-.228-.074-.343-.108c-.404-.119.413.204.037.021-.209-.101-.413-.206-.61-.329-.078-.048-.155-.099-.231-.151-.386-.267.312.259.032.03-.422-.346-.848-.586-1.414-.586-.491,0-1.076.218-1.414.586-.673.734-.864,2.12,0,2.828,1.167.957,2.48,1.599,3.995,1.753,1.487.151,2.845-.586,3.906-1.573.711-.662,1.28-1.466,1.715-2.332.522-1.041.928-2.072,1.072-3.228.059-.472-.266-1.094-.586-1.414-.347-.347-.916-.608-1.414-.586-.517.023-1.054.193-1.414.586-.383.417-.516.857-.586,1.414h0Z"/><path class="f" d="M181.186,151.876c.387-3.434.562-6.89.845-10.334.336-4.092,1.125-8.066,2.079-12.057,2.04-8.528,3.852-17.201,2.561-25.993-.363-2.475-.787-5.051-1.534-7.441-.625-2-1.957-4.096-1.781-6.245.211-2.566-3.79-2.552-4,0-.164,1.99.655,3.861,1.345,5.68.777,2.049,1.216,4.162,1.634,6.309.822,4.213.933,8.357.556,12.626-.773,8.752-3.938,17.058-4.747,25.809-.358,3.879-.523,7.775-.959,11.647-.121,1.075,1.006,2,2,2,1.182,0,1.879-.922,2-2h0Z"/><path class="f" d="M183.203,90.422c.193-1.007.391-2.421.922-3.242l-.718.718.288-.18-1.009.273c.789-.055,1.603.09,2.421.004s1.635-.223,2.425-.453c1.571-.457,2.985-1.167,3.978-2.499,1.692-2.27,2.076-5.854,1.635-8.602-.333-2.08-.878-4.133-1.329-6.189-.236-1.078-.476-2.157-.667-3.244-.037-.209-.078-.418-.103-.629.088.733-.02-.656-.025-.712-.092-1.049-.258-2.092-.508-3.115-.612-2.499-4.47-1.441-3.857,1.063.368,1.505.381,3.036.654,4.555.198,1.101.44,2.194.68,3.285.273,1.243.556,2.484.828,3.728.106.483.211.966.308,1.451.048.239.134,1.344.125.597.016,1.336-.005,2.703-.327,4.008-.398,1.612-1.288,2.155-2.831,2.547-1.498.381-3.414-.192-4.707.658-1.408.926-1.754,3.405-2.043,4.915-.482,2.515,3.372,3.593,3.857,1.063h0Z"/><path class="f" d="M190.681,63.3c-.343-2.334-.96-5.043-2.326-7.015-1.036-1.497-2.564-2.65-4.176-3.466-4.757-2.41-11.001-3.003-16.057-1.224-2.592.912-4.71,2.419-6.629,4.364-2.079,2.107-3.724,4.182-4.823,6.97-2.354,5.972-1.348,12.529-1.12,18.756.116,3.166-.191,6.243,2.649,8.355,1.213.902,2.547,1.139,4.006,1.339,1.704.234,3.412.404,5.129.522,2.569.177,2.558-3.824,0-4-1.214-.084-2.427-.186-3.636-.329-.915-.108-2.038-.122-2.859-.566-1.833-.989-1.226-3.614-1.288-5.32-.193-5.28-1.075-10.783.392-15.959.603-2.128,1.62-4.18,3.181-5.769,1.62-1.649,3.216-3.284,5.367-4.234,3.867-1.707,8.615-1.378,12.513.046,1.488.543,3.003,1.401,3.997,2.661-.231-.293.148.249.215.372.248.458.434.958.61,1.447.482,1.334.793,2.712.999,4.114.157,1.07,1.511,1.658,2.46,1.397,1.147-.315,1.554-1.387,1.397-2.46h0Z"/><path class="f" d="M170.359,77.221c-.088.328-.215.639-.335.956-.126.332.2-.446.036-.084-.048.105-.092.211-.139.317-.093.208-.188.416-.284.623-.482,1.037-.99,2.062-1.489,3.091-1.018,2.103-2.124,4.251-2.743,6.513-.276,1.008.343,2.22,1.397,2.46s2.165-.317,2.46-1.397c.127-.465.283-.922.453-1.373.097-.257.201-.511.303-.765.141-.35-.111.245-.006.013.061-.135.117-.272.177-.407.49-1.114,1.018-2.211,1.549-3.306.87-1.794,1.96-3.642,2.479-5.578.271-1.009-.339-2.219-1.397-2.46-1.051-.239-2.17.316-2.46,1.397h0Z"/><path class="f" d="M187.749,61.307c-1.538.16-3.079.281-4.619.419-1.659.148-3.461.166-5.001.849-1.461.648-2.507,2.24-3.258,3.598-.19.342-.359.694-.517,1.052-.108.245-.209.493-.312.74-.024.058-.196.449-.058.142-.116.261-.236.52-.381.767-.067.114-.24.343-.058.127-.059.07-.446.385-.146.175-.883.619-1.295,1.749-.718,2.736.511.874,1.848,1.341,2.736.718.655-.459,1.17-.97,1.592-1.655.166-.27.3-.559.428-.848.096-.217.186-.436.277-.655.017-.041.211-.499.121-.291-.083.192.174-.376.168-.363.068-.141.138-.281.211-.419.164-.311.343-.615.534-.91.106-.164.216-.326.329-.485-.007.009.21-.277.114-.155.119-.151.246-.3.377-.441.035-.038.332-.295.18-.19.184-.127.345-.134.692-.206.36-.074-.227.026.154-.026.196-.027.393-.046.589-.067.686-.075,1.373-.141,2.06-.202,1.502-.133,3.006-.253,4.506-.409,1.037-.108,2.052-.842,2-2-.044-.991-.886-2.116-2-2h0Z"/><path class="f" d="M176.003,70.458c-1.193-1.091-2.823-1.693-4.432-1.212-1.496.448-2.569,1.757-2.845,3.28-.418,2.303.447,4.881,2.201,6.45.997.892,2.16,1.483,3.429,1.89.997.32,2.227-.374,2.46-1.397.249-1.094-.33-2.118-1.397-2.46-.143-.046-.286-.094-.427-.146-.145-.054-.458-.232.071.039-.219-.112-.445-.204-.661-.324-.191-.107-.371-.229-.555-.349-.375-.246.324.283.054.044-.073-.064-.147-.126-.218-.191-.165-.153-.311-.318-.46-.487-.242-.274.279.41.081.101-.06-.094-.125-.185-.184-.281-.11-.181-.187-.38-.294-.56.301.507.099.242.035.06-.04-.113-.076-.227-.109-.342-.069-.241-.116-.485-.163-.731-.069-.364.022.488.017.1-.001-.109-.01-.218-.008-.328.002-.074.006-.148.012-.222.022-.215.012-.149-.029.197.046-.09.047-.232.074-.329.028-.102.089-.212.106-.316-.135.307-.156.368-.063.181.034-.063.071-.124.111-.183l-.187.236c.044-.054.091-.105.141-.153.228-.269-.34.23-.036.038.189-.095.139-.076-.151.058.077-.025.155-.046.234-.062-.308.032-.383.043-.224.032.063-.005.127-.007.191-.005.395-.018-.436-.114.046.003.059.013.118.03.175.049.201.073.149.05-.156-.07.076.063.208.119.292.172.169.121.124.085-.133-.106.059.05.117.101.173.154.772.706,2.076.82,2.828,0,.706-.769.825-2.074,0-2.828h0Z"/><path class="f" d="M187.127,80.458c-2.123.496-3.449.026-4.313-.442-.945-.513-1.828-.751-3.301-.808-.239-.009-.493-.014-.766-.014-1.552,0-1.001-1.278-1.908-2.249-.923-.987-3.014-.275-3.801.765-.974,1.288-1.112,3,.798,4.484,1.358,1.055,4.312,2.77,6.524,3.489.631.185,1.048.244,2.1.446.159-.13.358-.201.572-.162,1.504.277,3.758-.127,5.369-.871.821-.379,1.59-1.052,2.13-2.316.078-.181.146-.383.209-.595-.196-1.407-1.721-2.17-3.613-1.727Z"/><path class="f" d="M187.767,67.049c-.979.491-1.995.904-2.984,1.374-.494.234-.927.54-1.211,1.023-.325.553-.413,1.244-.256,1.864.178.699.69,1.259,1.345,1.535.258.109.52.21.778.318l-.478-.202c.769.326,1.52.705,2.186,1.213l-.405-.313c.301.235.579.495.816.795l-.313-.405c.105.137.199.279.282.43.507.916,1.843,1.293,2.736.718.928-.598,1.26-1.756.718-2.736-1.035-1.87-3.117-2.836-5.019-3.575l.478.202c-.031-.012-.059-.029-.084-.051l.405.313-.033-.034.313.405c-.02-.025-.037-.053-.049-.083l.202.478c-.013-.031-.021-.063-.026-.096l.071.532c-.005-.034-.006-.068-.003-.102l-.071.532c.007-.055.019-.099.038-.15l-.202.478c.014-.032.032-.061.053-.088l-.313.405c.022-.027.047-.051.076-.071l-.405.313c.579-.34,1.236-.585,1.848-.86.511-.229,1.024-.454,1.525-.705.432-.217.794-.741.919-1.195.132-.479.072-1.116-.202-1.541-.275-.427-.685-.803-1.195-.919-.544-.124-1.041-.05-1.541.202h0Z"/><path class="e" d="M298.11,90.56c-.153,0-.239,0-.239,0-1.75-4.934-3.426-9.426-4.851-12.283-.672-1.098-1.382-2.083-2.173-2.983l1.118-2.776.949-2.357c.568-1.491.812-2.614.836-2.679.152-.397.576-.624.988-.523,1.719.421,4.35.107,6.261-.645.288-.113.572-.256.848-.438.591.817,1.227,1.722,1.966,2.776.117.165.267.286.437.356l-2.38,2.111c-.03.654.08,1.318.221,1.962.317,1.359.83,2.688,1.5,3.92-.535-.022-.989-.035-1.339-.035l-2.76.058c1.489,4.108,3.427,9.947,3.648,13.539-1.898-.002-4.278-.002-5.03-.002Z"/><path class="e" d="M302.764,41.217c-.524-6.937-4.694-10.579-8.11-12.637-3.269-1.97-6.932-2.533-10.088-2.154-1.838.221-6.548.736-11.2,4.907-4.862,4.359-6.091,9.882-6.369,11.551-.489,2.935-.18,6.115.679,8.964.774,2.567,3.112,6.206,5.054,8.157,2.555,2.566,4.693,4.196,5.013,6.443.232-.019.474.022.719.136,2.317,1.082,4.271,2.585,6.677,4.035,2.364,1.425,4.179,2.894,5.711,4.664.672-1.671,1.114-2.767,1.114-2.767l.949-2.357c.568-1.491.812-2.614.836-2.679.152-.397.576-.624.988-.523,1.719.421,4.35.107,6.261-.645.975-.383,1.907-1.108,2.617-2.532.335-.666.587-1.561.771-2.479.278-1.395.405-2.85.429-3.681.155-.611.409-1.18.846-1.673.659-.746,1.737-1.341,1.15-2.595-.223-.474-.639-.821-1.107-1.06-2.359-1.205-2.539-4.735-2.676-7.279.033-1.509-.086-2.877-.334-4.119"/><path class="h" d="M290.508,26.837c-2.034-.53-4.076-.636-5.941-.412-1.838.221-6.548.736-11.2,4.907-4.862,4.359-6.091,9.882-6.369,11.551-.489,2.935-.18,6.115.679,8.964.774,2.567,3.112,6.206,5.054,8.157,1.259,1.265,2.417,2.302,3.307,3.299.649-.217,1.278-.446,1.901-.693,2.514-.997,4.444-3.171,4.934-5.83.019-.102.036-.203.04-.293-1-1.025-1.585-2.348-1.708-4.012-.078-1.049.275-2.334,1.096-2.965.552-.424,1.284-.539,2.044-.368.679.153,1.152.504,1.588.963,1.303-2.275,4.112-4.891,6.138-6.429.359-.273.847-.279,1.189.015.341.294.815.316,1.161.058,1.706-1.267,6.102-4.358,7.066-6.286,0,0,.127-.253.34-.676-1.533-4.158-4.571-6.643-7.172-8.21-1.337-.806-2.739-1.376-4.146-1.743Z"/><path class="e" d="M316.349,63.369c-.081-.246-.184-.485-.317-.71-.332-.543-.825-.986-1.318-1.408-.624-.543-1.237-1.096-1.861-1.64l-10.985,11.508c-.03.654.08,1.318.221,1.962.317,1.357.829,2.685,1.498,3.917,2.738.117,7.603.495,11.327.819.018-.323.058-.639.132-.963l1.318-6.277c.463-2.183.583-4.456.131-6.649-.039-.188-.086-.375-.146-.557Z"/><path class="g" d="M309.508,57.6c-1.046-1.619-2.105-3.241-3.01-4.712.125.139.231.294.312.466.588,1.254-.49,1.848-1.15,2.595-.437.493-.691,1.062-.846,1.673-.025.831-.151,2.286-.429,3.681-.184.919-.436,1.814-.771,2.479-.5,1.003-1.111,1.66-1.769,2.094.591.818,1.227,1.722,1.966,2.776.378.532,1.095.598,1.626.211,1.847-1.325,4.951-3.672,6.77-5.065.446-.337.565-.949.273-1.441-.862-1.474-1.911-3.113-2.973-4.757Z"/><path class="h" d="M265.773,226.338c-1.734-1.644-3.339-3.686-3.469-6.072,0,0-.03-.56-.076-1.412-.034-.013-.069-.017-.103-.032-2.084-.904-4.083-1.776-6.029-2.601-1.469-.387-2.962-.79-4.459-1.203-1.816.575-3.504,1.109-3.504,1.109-2.741.868-4.411,3.439-5.467,6.152-.355.911-.479,1.686-.419,2.883.106,2.117,1.365,3.801,3.256,4.758,2.627,1.329,4.934,2.572,7.152,3.77,3.077,1.662,5.982,3.237,9.334,4.837,1.401.669,2.931,1.111,4.481,1.183s3.196-.387,4.233-1.542c1.596-1.778,1.271-4.646.022-6.683-1.249-2.037-3.219-3.503-4.953-5.147Z"/><path class="f" d="M260.304,220.266c.405,4.556,3.815,7.094,6.856,10.051,1.244,1.209,2.46,2.622,2.611,4.427.143,1.704-.893,2.816-2.581,2.961-2.057.177-3.984-.79-5.77-1.672-1.874-.926-3.723-1.9-5.565-2.888-1.938-1.04-3.869-2.094-5.813-3.123-1.605-.849-3.896-1.542-5.061-3-2.23-2.79.739-7.942,3.684-8.966,2.416-.84,1.377-4.706-1.063-3.857-4.249,1.478-7.629,6.423-7.354,10.964.148,2.44,1.348,4.552,3.356,5.947,2.111,1.467,4.656,2.483,6.921,3.703,2.32,1.249,4.633,2.514,6.978,3.717,2.279,1.169,4.623,2.523,7.174,2.97,2.477.434,5.102.181,7.056-1.548,1.878-1.662,2.335-4.269,1.85-6.637-.572-2.794-2.575-4.929-4.619-6.779-1.839-1.664-4.422-3.585-4.66-6.27-.096-1.076-.851-2-2-2-1.008,0-2.096.918-2,2h0Z"/><path class="h" d="M341.858,218.785c-.406-2.355-2.857-3.878-5.23-4.161-2.373-.283-4.744.354-7.109.695-2.147.31-4.48.321-6.354-.707-.146.32-.376.603-.704.784-3.524,1.947-7.439,3.821-10.982,5.41-.049.022-.103.026-.155.037-.43,1.135-.753,1.987-.753,1.987-1.018,2.689-.036,5.593,1.438,8.103.495.843,1.026,1.421,2.003,2.116,1.727,1.229,3.829,1.286,5.752.395,2.672-1.237,5.077-2.277,7.392-3.274,3.211-1.384,6.248-2.687,9.582-4.326,1.393-.685,2.689-1.611,3.707-2.783,1.018-1.172,1.678-2.748,1.414-4.278Z"/><path class="f" d="M321.594,216.004c3.716,2.435,7.927,1.18,11.979.671,1.729-.217,3.626-.258,5.116.786,1.301.912,1.53,2.285.715,3.645-.988,1.65-2.801,2.593-4.472,3.4-1.772.856-3.565,1.667-5.367,2.457-1.855.813-3.718,1.606-5.575,2.413-1.868.812-3.778,1.943-5.733,2.503-4.366,1.251-6.9-5.165-5.758-8.516.832-2.442-3.03-3.49-3.857-1.063-1.518,4.455.821,10.722,5.069,12.908,2.507,1.29,5.039.873,7.504-.239,2.307-1.041,4.62-2.066,6.945-3.068,2.29-.987,4.581-1.972,6.844-3.02,2.234-1.035,4.483-2.045,6.271-3.788,1.828-1.781,3.001-4.255,2.511-6.838-.392-2.065-1.991-3.76-3.829-4.675-2.73-1.358-5.691-1.07-8.604-.582-2.57.43-5.408,1.082-7.741-.446-2.159-1.415-4.166,2.047-2.019,3.454h0Z"/><path class="d" d="M295.855,192.925c.384.739.768,1.455,1.149,2.131,1.703,3.017,10.142,19.483,12.574,24.736.181.391.373.682.763.864.344.16.79.304,1.137.149,3.543-1.589,7.458-3.463,10.982-5.41.728-.402,1.04-1.268.798-2.063-5.031-16.511-8.548-26.145-14.914-44.604-3.114-9.028-7.876-22.595-8.875-32.039l-31.888,1.434c.141,1.456.419,2.767.715,4.019-.391,1.806-.919,4.247-.919,4.247-3.698,21.973-11.125,43.779-17.936,64.987-.136.424.009.871.137,1.297.195.649.663,1.172,1.295,1.416,3.565,1.376,7.259,3.001,11.251,4.732.992.43,2.061-.107,2.509-1.092,8.189-17.975,13.046-33.031,18.255-47.971,3.202,4.971,5.563,9.277,8.504,14.487,1.475,2.614,2.976,5.822,4.462,8.68Z"/><path class="f" d="M311.439,61.025c.895.783,2.042,1.553,2.767,2.502.536.701.532,1.871.563,2.724.055,1.53-.168,3.004-.481,4.492-.494,2.351-1.194,4.755-1.383,7.156-.085,1.078.98,2,2,2,1.153,0,1.915-.919,2-2,.078-.985.378-1.982.58-2.948.253-1.207.508-2.413.76-3.62.441-2.111.676-4.262.415-6.412-.173-1.425-.45-2.755-1.366-3.9-.854-1.067-2.002-1.924-3.027-2.821-.813-.711-2.029-.8-2.828,0-.726.726-.816,2.114,0,2.828h0Z"/><path class="f" d="M303.632,52.004c1.105,1.933,2.328,3.797,3.538,5.664.63.972,1.261,1.944,1.881,2.922.311.491.62.984.924,1.479.146.238.291.476.434.716.07.117.14.233.209.35.158.337.188.304.091-.097-.121-.336-.015-.616.319-.839l-.175.134c-.199.115-.378.289-.562.429-.415.316-.831.631-1.247.946-.885.669-1.771,1.335-2.662,1.996-.41.304-.82.607-1.232.908-.172.126-.413.243-.551.4l-.171.123c.246.017.49.051.732.101l.18.122c-.128-.182-.256-.364-.384-.547-.152-.216-.304-.431-.456-.647-.362-.512-.726-1.022-1.094-1.53-.632-.874-1.739-1.301-2.736-.718-.863.505-1.354,1.857-.718,2.736.459.635.913,1.273,1.364,1.913.485.688.93,1.514,1.642,1.989,1.485.99,2.913.457,4.211-.49,2.101-1.533,4.225-3.065,6.249-4.698,1.492-1.203,1.425-2.959.515-4.484-.746-1.251-1.531-2.48-2.32-3.704-1.534-2.381-3.122-4.734-4.528-7.195-1.277-2.235-4.734-.222-3.454,2.019h0Z"/><path class="f" d="M287.346,48.693c-1.245-1.279-3.006-1.905-4.771-1.487-1.637.388-2.782,1.833-3.181,3.412-.641,2.539.302,5.445,2.11,7.292,1.055,1.078,2.373,1.771,3.764,2.309.978.378,2.237-.416,2.46-1.397.261-1.145-.35-2.056-1.397-2.46-.083-.032-.166-.064-.249-.098.275.118.314.133.117.046-.115-.056-.232-.108-.346-.166-.257-.13-.508-.271-.751-.427-.101-.065-.197-.135-.297-.201-.351-.232.347.301.033.028-.202-.176-.401-.35-.585-.545-.077-.082-.149-.169-.225-.252-.255-.28.263.404.005.005-.133-.205-.267-.407-.381-.623-.035-.066-.216-.515-.095-.173.125.351-.046-.131-.067-.193-.084-.245-.153-.496-.208-.749-.023-.104-.019-.346-.08-.427l.037.28c-.01-.086-.02-.172-.027-.258-.011-.125-.02-.251-.021-.377,0-.085.068-.45.026-.507l-.035.275c.015-.086.032-.171.052-.255.03-.127.074-.249.107-.375.076-.203.056-.163-.058.12.036-.077.074-.152.116-.225l.064-.108c.119-.176.087-.141-.096.105-.005,0,.256-.253.253-.259-.241.177-.268.205-.082.084.195-.099.161-.088-.101.033l.133-.04c.219-.047.18-.047-.116-.001.007.004.442-.011.437-.002-.282-.045-.309-.046-.08-.003.071.015.141.034.211.057.483.148-.224-.164.084.04.057.032.113.067.167.104.123.084.075.045-.143-.118.054-.018.345.322.387.365.731.751,2.105.789,2.828,0,.741-.807.78-2.027,0-2.828h0Z"/><path class="f" d="M280.949,56.214c-.097.533-.253,1.05-.459,1.55l.202-.478c-.266.623-.609,1.203-1.022,1.739l.313-.405c-.42.533-.901,1.008-1.435,1.425l.405-.313c-.571.436-1.189.796-1.849,1.079l.478-.202c-.542.226-1.095.426-1.649.62-.496.174-.924.455-1.195.919-.251.429-.357,1.061-.202,1.541.315.974,1.403,1.767,2.46,1.397,1.007-.352,2.036-.711,2.968-1.234.815-.458,1.586-1.047,2.241-1.714,1.295-1.316,2.27-3.038,2.602-4.863.098-.539.084-1.054-.202-1.541-.243-.415-.718-.811-1.195-.919-.979-.223-2.26.296-2.46,1.397h0Z"/><path class="f" d="M287.659,51.116c.989-1.683,2.411-3.102,3.925-4.452.349-.311.704-.616,1.066-.912.125-.102.473-.375.47-.378-.119.103-.268.135-.448.099-.932-.484-1.068-.498-.408-.041,1.082.707,2.407.605,3.431-.149,1.391-1.025,2.785-2.046,4.116-3.148,1.252-1.036,2.632-2.2,3.403-3.66.504-.955.243-2.175-.718-2.736-.903-.528-2.23-.241-2.736.718-.074.14-.159.27-.24.404-.256.423.168-.153-.113.152-.245.266-.482.536-.739.79-.636.629-1.32,1.211-2.015,1.774-.714.578-1.069.844-1.855,1.427-.274.203-.549.405-.825.607-.112.082-.255.159-.353.259-.07.051-.139.103-.208.154.388-.175.725-.141,1.011.101.391.252.34.199-.153-.159-.126-.101-.266-.176-.421-.223-.37-.171-.766-.269-1.176-.27-.648-.001-1.255.227-1.772.602-.878.637-1.709,1.355-2.506,2.089-1.579,1.453-3.096,3.076-4.188,4.934-1.307,2.224,2.149,4.239,3.454,2.019h0Z"/><path class="f" d="M304.764,41.217c-.499-5.738-3.288-10.448-8.036-13.682s-10.546-3.901-16.032-2.432c-11.688,3.13-18.947,16.414-14.743,27.887,1.196,3.265,3.254,6.334,5.713,8.778,1.196,1.189,2.639,2.313,3.57,3.733.717,1.093.553,2.028.296,3.316-.501,2.514,3.354,3.59,3.857,1.063.509-2.553.528-4.785-1.096-6.952-1.758-2.347-4.211-4.054-5.914-6.45-3.024-4.254-4.466-9.429-3.124-14.588,1.288-4.956,4.554-9.22,9.105-11.614,1.084-.57,2.217-.998,3.4-1.315.444-.119.893-.222,1.345-.309.159-.031.319-.06.479-.087.074-.012.916-.134.496-.079,2.707-.357,5.448-.122,7.97.982,4.823,2.113,8.255,6.459,8.715,11.749.221,2.545,4.223,2.568,4,0h0Z"/><path class="f" d="M299.785,48.46c.392.928.465,3.157-1.241,3.54-2.284.242-2.715-2.414-2.092-3.756.51-1.099,2.31-1.734,3.333.216Z"/><path class="f" d="M300.765,41.428c.675,3.612-.264,7.779,2.077,10.946.25.339,1.607,1.985,2.093,1.777-.037.016.629-.748-.038-.268-.34.244-.632.635-.891.957-1.491,1.856-1.137,4.192-1.647,6.388-.474,2.044-1.308,3.113-3.34,3.613-.846.208-1.699.316-2.57.308-.965-.009-1.887-.362-2.835-.042-1.905.644-2.012,2.918-2.629,4.524-.304.79-.633,1.571-.949,2.357-.404,1.002.44,2.197,1.397,2.46,1.142.314,2.055-.391,2.46-1.397.287-.713.581-1.424.862-2.139.187-.475.36-.955.514-1.441.096-.303.185-.607.268-.913.034-.127.067-.254.099-.381.061-.238.035-.147-.076.274l-.883.514c-.27-.019-.213-.004.17.044.291.044.583.08.876.109.367.03.735.039,1.103.028.896-.025,1.799-.145,2.677-.32,1.623-.322,3.235-.906,4.436-2.085,1.333-1.308,2.01-3.11,2.374-4.905.187-.921.31-1.86.403-2.795.079-.791.035-1.293.566-1.897,1.15-1.308,2.11-2.474,1.456-4.32-.379-1.07-1.144-1.618-2.026-2.255-.403-.292-.671-.496-.903-.959-.56-1.113-.649-2.455-.729-3.678-.123-1.877-.11-3.704-.457-5.566-.472-2.527-4.328-1.457-3.857,1.063h0Z"/><path class="d" d="M270.485,75.519c-1.376.881-2.621,2.093-3.927,3.087-3.003,2.286-10.458,12.075-12.517,14.998-2.059,2.923-3.558,6.385-3.448,9.958.186,5.997,4.248,11.295,8.475,15.553,2.118,2.133,3.773,3.895,5.511,5.725-1.038,2.93-2.077,5.86-3.115,8.79-.186.524-.373,1.092-.213,1.624.178.595.713,1.024,1.265,1.31,2.39,1.242,6.858,2.547,11.748,4.029,6.24,1.891,14.941,3.408,20.264.836,2.909-1.405,4.013-2.415,4.72-5.673.298-1.375.177-4.788.187-5.979.056-6.803.304-10.055.782-14.795.411-2.95.751-5.046,1.093-7.148,3.322,1.571,6.498,2.22,9.791.285,5.176-3.043,5.292-9.462,6.044-14.759.175-1.233,1.848-15.166,1.548-15.196-3.592-.362-13.559-1.2-16.441-1.2h-2.781c1.44,3.966,3.311,9.578,3.64,13.215.012.127.022.255.031.381-2.285-.002-5.27-.002-5.27-.002-1.75-4.934-3.426-9.426-4.851-12.283-1.985-3.244-4.305-5.502-7.88-7.656-2.406-1.45-4.36-2.953-6.677-4.035-.879-.411-1.711.129-2.22.942-.696,1.109-2.188,3.222-2.876,4.273l-2.882,3.72Z"/><path class="f" d="M299.868,71.119c-.041,1.208.234,2.451.596,3.598.364,1.155.849,2.283,1.428,3.346.5.92,1.848,1.29,2.736.718.933-.602,1.253-1.752.718-2.736-.262-.482-.501-.975-.716-1.48l.202.478c-.45-1.078-.803-2.204-.974-3.361l.071.532c-.049-.364-.074-.727-.061-1.094.036-1.047-.946-2.047-2-2-1.114.05-1.961.879-2,2h0Z"/><path class="f" d="M297.47,136.69c1.298,11.827,5.722,23.244,9.584,34.418,3.883,11.237,7.858,22.443,11.475,33.77.524,1.641,1.041,3.283,1.552,4.928.27.869.538,1.738.805,2.608.097.316.151.751.316,1.033.038.43.086.555.144.374.208-.254.112-.232-.289.065-1.809.726-3.541,1.869-5.298,2.724-.821.4-1.646.793-2.474,1.18-.852.398-1.787.99-2.712,1.154h1.063c-.05-.009-.609-.187-.293.022.255.169-.002-.057-.04-.182-.054-.178-.167-.358-.246-.525-.178-.378-.359-.756-.54-1.133-.448-.931-.904-1.858-1.362-2.784-1.152-2.329-2.321-4.649-3.497-6.966-2.063-4.064-4.128-8.13-6.283-12.146-3.13-5.834-6.086-11.741-9.362-17.498-3.57-6.274-7.603-12.172-11.62-18.159-4.325-6.447-7.97-13.614-8.813-21.45-.116-1.074-.837-2-2-2-.992,0-2.116.919-2,2,.748,6.954,3.32,13.671,6.908,19.638,3.558,5.916,7.797,11.387,11.349,17.314,1.929,3.218,3.754,6.498,5.594,9.767s3.387,6.654,5.146,9.948c1.886,3.531,3.769,7.06,5.596,10.623,2.238,4.363,4.464,8.733,6.606,13.144.361.743.684,1.514,1.07,2.244.845,1.599,2.654,2.442,4.398,1.831,1.819-.637,3.591-1.629,5.323-2.47,1.788-.868,3.561-1.767,5.307-2.717,1.64-.892,2.743-2.346,2.378-4.302-.326-1.747-1.033-3.487-1.563-5.184-.972-3.114-1.967-6.222-2.985-9.321-2-6.088-4.093-12.145-6.194-18.199-2.291-6.603-4.617-13.195-6.833-19.823-2.152-6.435-4.223-12.949-5.532-19.616-.28-1.429-.522-2.864-.68-4.312-.118-1.074-.835-2-2-2-.99,0-2.119.919-2,2h0Z"/><path class="f" d="M265.45,145.858c-3.256,19.207-9.166,37.82-15.14,56.32-.737,2.282-1.476,4.564-2.211,6.847-.377,1.17-.846,2.283-.605,3.53.193.994.63,1.93,1.392,2.617.796.717,1.874,1.004,2.849,1.393,1.017.406,2.03.823,3.04,1.248,2.198.926,4.361,1.962,6.579,2.835,2.073.816,4.161-.181,5.109-2.136,1.055-2.175,1.982-4.426,2.932-6.648,1.821-4.258,3.561-8.551,5.219-12.875,3.343-8.722,6.345-17.567,9.401-26.393.844-2.438-3.019-3.485-3.857-1.063-2.493,7.199-4.944,14.413-7.584,21.56-1.392,3.77-2.835,7.521-4.343,11.245-1.642,4.055-3.205,8.27-5.222,12.155-.086.166-.268.485-.22.476-.176.03-.79-.368-.976-.449-1.07-.465-2.14-.929-3.212-1.39-1.926-.828-3.857-1.646-5.804-2.423-.569-.227-1.436-.316-1.414-.998.013-.392.368-.99.498-1.394.196-.607.391-1.215.587-1.822.688-2.133,1.378-4.265,2.066-6.398,2.747-8.516,5.463-17.044,7.908-25.652,2.762-9.723,5.172-19.553,6.862-29.523.18-1.064-.281-2.154-1.397-2.46-.96-.264-2.279.326-2.46,1.397h0Z"/><path class="f" d="M296.177,73.835c.937,2.485,1.865,4.972,2.696,7.494.964,2.927,2.008,6.007,2.257,9.097.352,4.371-.496,8.803-1.153,13.11-.555,3.64-1.177,7.268-1.689,10.915-.15,1.068.261,2.148,1.397,2.46.936.257,2.309-.32,2.46-1.397.521-3.713,1.157-7.406,1.719-11.113.695-4.581,1.64-9.327,1.265-13.975-.489-6.08-2.964-11.999-5.096-17.655-.381-1.01-1.35-1.702-2.46-1.397-.969.266-1.78,1.444-1.397,2.46h0Z"/><path class="f" d="M262.609,124.429c-.566,1.597-1.132,3.194-1.698,4.791-.537,1.515-1.3,3.108-1.611,4.687-.647,3.289,2.403,4.597,4.921,5.562,2.802,1.074,5.7,1.9,8.57,2.768,2.648.801,5.314,1.509,8.048,1.957,5.236.859,10.796,1.089,15.602-1.496,1.992-1.071,3.449-2.538,4.24-4.679.787-2.13.782-4.382.764-6.623-.043-5.49.222-10.953.77-16.415.108-1.076-.997-2-2-2-1.171,0-1.892.921-2,2-.431,4.294-.694,8.585-.761,12.901-.032,2.096.06,4.201-.043,6.295-.064,1.306-.371,2.965-1.367,3.966-2.833,2.847-7.825,2.845-11.504,2.525-5.049-.439-9.908-2.014-14.718-3.52-1.355-.424-2.707-.859-4.04-1.35-.407-.15-2.538-.748-2.659-1.217.073.283.644-1.159.268-.421.207-.406.333-.939.485-1.369.269-.76.539-1.521.808-2.281.593-1.673,1.186-3.346,1.779-5.019.861-2.431-3.002-3.477-3.857-1.063h0Z"/><path class="g" d="M306.396,119.307c-3.373-5.866-8.906-15.82-11.707-20.67-.637-1.103-2.029-1.503-3.153-.905-7.086,3.773-27.658,15.012-35.059,19.253-1.1.631-1.506,2.008-.92,3.133,2.741,5.252,8.716,16.184,11.483,21.167.627,1.13,2.037,1.546,3.175.933,11.321-6.095,28.469-15.752,35.313-19.692,1.131-.651,1.518-2.088.868-3.219Z"/><path class="f" d="M308.117,118.233c-2.758-4.801-5.456-9.637-8.177-14.459-1.165-2.065-2.26-4.208-3.531-6.211-.836-1.317-2.183-2.143-3.759-2.167-1.154-.018-2.125.541-3.106,1.066-8.166,4.371-16.288,8.827-24.393,13.31-1.943,1.074-3.884,2.152-5.821,3.237-1.526.854-3.564,1.654-4.802,2.911-2.265,2.299-.826,4.929.413,7.26,1.208,2.275,2.431,4.541,3.659,6.805,1.305,2.407,2.616,4.81,3.933,7.211.572,1.043,1.145,2.086,1.72,3.128.528.956.998,2.078,1.781,2.856,2.496,2.476,5.379.604,7.847-.738s4.952-2.705,7.422-4.069c5.658-3.125,11.299-6.28,16.927-9.459,2.196-1.24,4.39-2.484,6.58-3.736,1.008-.576,2.123-1.085,2.881-1.987,1.22-1.452,1.219-3.313.427-4.957-1.117-2.318-4.567-.292-3.454,2.019.23.477-.61.748-1.066,1.009-.787.451-1.576.901-2.364,1.35-1.867,1.063-3.736,2.122-5.607,3.177-4.427,2.498-8.863,4.982-13.308,7.449-2.327,1.292-4.658,2.578-6.992,3.858-1,.548-2.001,1.095-3.003,1.641-.505.275-1.011.549-1.516.823-.416.225-1.136.831-1.606.867-.477.037-.772-.816-1.033-1.288-.519-.938-1.036-1.877-1.552-2.816-1.177-2.142-2.35-4.287-3.518-6.434-1.131-2.078-2.257-4.158-3.376-6.243-.49-.913-.978-1.827-1.464-2.742-.254-.48-1.107-1.656-.971-2.038.152-.427,1.2-.793,1.575-1.006.753-.426,1.507-.851,2.262-1.273,1.649-.924,3.302-1.843,4.956-2.759,7.619-4.22,15.26-8.402,22.925-12.537.764-.412,1.528-.823,2.292-1.233.439-.235,1.171-.855,1.555-.602.31.205.578.95.754,1.257.294.513.586,1.026.878,1.54.611,1.074,1.219,2.15,1.826,3.226,2.78,4.926,5.535,9.867,8.353,14.772,1.282,2.232,4.74.219,3.454-2.019Z"/><path class="e" d="M284.956,138.122c-.091.061-.179.129-.264.202-3.08,2.35-6.363,1.229-8.037-1.11-1.242-1.735-1.786-2.455-2.515-3.495-.223-.318-.463-.666-.746-1.082-1.518-2.287-2.825-3.373-3.665-4.753,2.453-2.035,5.825-5.094,8.266-7.46.386.205.773.41,1.16.614.684.361,1.453.526,2.225.479l3.283-.203c1.155-.16,2.464,2.002,3.746,2.953,1.553,1.152,2.6,2.553.751,4.424.908.607,1.858,1.222,2.964,1.968.987.667,1.378,2.017.579,3.189-.891,1.307-2.115,1.302-2.856,1.166-.531,1.483-1.921,2.589-3.427,2.657-.533.011-1.03.159-1.463.45Z"/><path class="f" d="M291.295,129.236c1.27-1.749.968-3.812-.379-5.398-.221-.26-.473-.492-.737-.708-.225-.184-.461-.355-.689-.536-.205-.162.091.064.106.078-.071-.071-.153-.133-.227-.2-.517-.476-.973-1.014-1.467-1.513-.919-.927-2.015-1.727-3.382-1.637-.817.054-1.634.101-2.451.152-.294.018-.589.046-.883.05-.129.002-.256-.009-.384-.011.205.004.127.029-.037-.011-.093-.022-.186-.044-.278-.071-.034-.01-.384-.13-.212-.061.186.075-.1-.053-.111-.059-.117-.062-.235-.124-.352-.186-.235-.124-.469-.248-.704-.372-.925-.488-2.217-.266-2.736.718-.488.924-.27,2.215.718,2.736.96.507,1.904,1.047,2.991,1.215.589.091,1.144.104,1.731.067.913-.057,1.847-.058,2.755-.171.03-.004.063.001.092-.006.368-.086-.479-.139-.113-.037.359.1-.473-.141,0,.025.056.034.11.071.162.11-.222-.174-.248-.19-.077-.047.568.566,1.112,1.157,1.683,1.718.34.334.712.614,1.085.91-.319-.253.231.203.283.252.162.151.319.31.458.482-.287-.357-.027.017.032.107-.095-.256-.107-.28-.035-.072.051.221.052.185.003-.107-.005.224.009.195.042-.086-.02.105-.048.208-.084.309.138-.407-.19.245-.258.338-.617.85-.173,2.266.718,2.736,1.038.548,2.078.189,2.736-.718h0Z"/><path class="f" d="M284.702,127.924c1.694,1.311,3.458,2.5,5.242,3.682.326.216.982.493,1.187.817.062.098-.034.328.018.12-.037.148-.229.385-.347.464-.352.239-.078.019-.269.064-.082.019-.542-.046-.157.015-1.166-.186-2.017.296-2.46,1.397-.244.606-.819,1.03-1.436,1.179-.501.121-1.018.085-1.517.253-.548.186-.982.47-1.448.801-1.471,1.047-3.22,1.272-4.638.005-1.223-1.093-2.14-2.763-3.081-4.109-1.203-1.721-2.464-3.347-3.801-4.965-.689-.833-2.116-.713-2.828,0-.824.824-.69,1.993,0,2.828,1.413,1.709,2.677,3.479,3.973,5.276,1.454,2.015,2.739,4.215,5.111,5.245,1.277.554,2.621.732,3.998.521.665-.102,1.268-.294,1.885-.565.673-.296,1.187-.76,1.819-1.097.501-.267,1.035-.206,1.591-.337.547-.129,1.106-.369,1.587-.658,1.285-.771,2.093-1.951,2.642-3.315l-2.46,1.397c1.508.24,2.941.051,4.142-.971,1.295-1.101,2.004-2.906,1.516-4.579-.517-1.77-2.038-2.601-3.48-3.554-1.34-.885-2.691-1.761-3.961-2.744-.853-.661-1.997-.832-2.828,0-.689.689-.859,2.163,0,2.828h0Z"/><path class="d" d="M270.485,75.519c-1.376.881-2.621,2.093-3.927,3.087-3.003,2.286-10.458,12.075-12.517,14.998-2.059,2.923-3.558,6.385-3.448,9.958.186,5.997,4.248,11.295,8.475,15.553,3.2,3.223,5.343,5.599,8.315,8.64.629.644,1.648.707,2.34.133,2.65-2.198,6.374-5.593,8.839-8.017.66-.649.683-1.708.057-2.39-3.565-3.884-5.873-6.302-9.282-10.646-.95-1.211-1.939-2.626-1.695-4.146.219-1.358,1.45-2.249,2.425-3.219,2.119-2.108,4.211-4.121,6.943-6.622"/><path class="f" d="M269.475,73.792c-5.519,3.667-9.603,8.856-13.607,14.043-1.764,2.286-3.663,4.587-5.028,7.141-2.162,4.046-2.87,8.577-1.519,13.008,1.269,4.16,3.889,7.765,6.796,10.937,2.994,3.267,6.14,6.424,9.226,9.606,1.666,1.718,3.766,2.404,5.794.775,1.547-1.243,3.02-2.59,4.489-3.924s3.016-2.635,4.35-4.093c1.802-1.969,1.049-4.141-.559-5.89-1.586-1.724-3.181-3.441-4.722-5.206-1.586-1.816-3.393-3.68-4.622-5.762-.627-1.062-.543-1.639.304-2.491.815-.82,1.663-1.611,2.49-2.42,1.822-1.784,3.678-3.532,5.558-5.255,1.901-1.744-.933-4.566-2.828-2.828-1.541,1.413-3.068,2.841-4.571,4.294-1.328,1.284-2.792,2.53-3.991,3.933-3.372,3.945.284,7.924,2.874,11.055,1.217,1.471,2.475,2.906,3.757,4.321.629.695,1.264,1.385,1.898,2.074.341.371.681.743,1.024,1.113.132.142.256.312.407.435.208.17.023-.024.153-.202-.472.651-1.252,1.215-1.835,1.766-.731.69-1.468,1.374-2.211,2.051-1.398,1.276-2.799,2.565-4.267,3.76-.493.402-.307.112-.062.288-.224-.16-.648-.672-.905-.937-.725-.751-1.445-1.507-2.164-2.264-1.402-1.477-2.803-2.956-4.227-4.411-2.785-2.845-5.512-5.72-7.311-9.318-1.761-3.524-2.074-7.375-.533-11.04,1.078-2.564,2.868-4.794,4.537-6.994,3.881-5.115,7.909-10.514,13.324-14.112,2.134-1.418.133-4.884-2.019-3.454h0Z"/><path class="f" d="M277.383,77.378c.98.772,1.862,1.66,2.628,2.644l-.313-.405c.258.334.503.679.734,1.032.284.435.686.779,1.195.919.479.132,1.116.072,1.541-.202.427-.275.803-.685.919-1.195s.093-1.089-.202-1.541c-1.004-1.539-2.23-2.943-3.675-4.082-.181-.195-.396-.333-.644-.414-.238-.125-.495-.183-.771-.172-.491,0-1.076.218-1.414.586-.35.381-.61.882-.586,1.414.022.493.179,1.094.586,1.414h0Z"/><path class="f" d="M302.251,78.965c5.471.025,11.001.655,16.441,1.2l-1.009-.273.01.007-.718-.718c-.062-.138-.113-1.167-.247-.776-.03.086.004.213-.006.304-.036.334-.039.675-.065,1.011-.077.991-.177,1.981-.279,2.971-.243,2.361-.513,4.718-.791,7.075-.106.892-.212,1.784-.323,2.676-.031.248-.063.495-.094.742.095-.74.02-.16-.033.23-.063.467-.124.934-.183,1.401-.372,2.943-.637,6.139-2.134,8.766-.905,1.588-2.329,2.876-4.092,3.434-2.184.691-4.4.02-6.409-.908-.98-.453-2.154-.277-2.736.718-.505.863-.268,2.281.718,2.736,3.043,1.405,6.39,2.366,9.695,1.247,2.755-.933,5.069-2.927,6.434-5.49,2.071-3.89,2.29-8.518,2.827-12.81.428-3.423.824-6.852,1.171-10.285.125-1.242.338-2.531.303-3.782-.067-2.393-2.316-2.309-4.128-2.474-4.755-.434-9.57-.979-14.349-1.001-2.574-.012-2.578,3.988,0,4h0Z"/><path class="f" d="M299.799,90.028c-1.357-3.821-2.721-7.655-4.388-11.354-1.375-3.05-3.617-5.657-6.248-7.706-1.565-1.219-3.271-2.208-4.932-3.286s-3.359-2.372-5.237-3.027c-1.976-.688-3.566.499-4.618,2.08-.903,1.357-1.838,2.693-2.736,4.054-1.422,2.155,2.04,4.16,3.454,2.019.729-1.105,1.493-2.186,2.23-3.286.146-.218.645-1.069.717-1.107-.358.189.275.322.546.469.37.201.734.413,1.094.631,2.729,1.647,5.691,3.303,8.061,5.449,4.569,4.135,6.205,10.503,8.202,16.126.855,2.409,4.722,1.371,3.857-1.063h0Z"/><path class="f" d="M285.003,120.741c-1.234,1.184-4.724,2.65-6.363.178-1.769-3.474,2.181-5.767,4.686-5.592,2.051.143,4.149,2.612,1.677,5.414Z"/><path class="e" d="M417.113,117.356c1.677,6.055,2.764,12.274,3.239,18.539.328,4.327.365,8.671.294,13.009-.297,18.24-2.501,36.448-6.564,54.233-.433,1.895.338,4.696,1.667,6.115,2.711,2.891,4.543,4.507,7.883,7.857,2.059,2.066,3.185,4.137,4.15,7.07.573,3.084.554,7.011-1.794,10.871-1.542,2.535-5.504,3.527-9.349,3.527-12.786,0-31.423-.099-43.545-.099-2.533,0-5.461-.391-7.179-2.252-1.628-1.764-2.758-3.981-3.066-5.733-1.03-5.877,2.405-9.098,6.321-13.599,3.808-4.377,7.226-10.219,9.296-15.835,2.585-7.339,2.323-16.736,1.652-21.662-.333-2.446-.667-4.892-.948-7.344-1.369-11.922-1.51-23.984-.421-35.935.462-5.073,1.281-9.129,3.234-13.368l3.651-10.009c.066.226.454.136.517-.091s-.073-.457-.199-.656c-2.254-3.574-3.856-23.507-4.604-27.582-.733-3.99-1.913-11.002-.238-20.789,1.02-5.644,5.303-9.646,8.362-10.389,4.48-1.088,6.598-1.044,11.068.08,1.392.35,2.763.799,4.06,1.412,4.323,2.041,7.649,5.843,9.785,10.121s3.167,9.024,3.777,13.766c1.315,10.238.735,20.716-1.703,30.746l.653,7.998Z"/><path class="g" d="M393.341,46.096c-.163,2.097-.455,4.434-.636,6.392l-.01.111c2.582-.35,4.59-.104,7.846.715,1.392.35,2.763.799,4.06,1.412.707.334,1.387.714,2.039,1.137.101-.963.167-1.585.167-1.585.157-1.481.338-4.221.338-5.618,0,0,0-1.748,0-2.487-4.821.377-8.392-.369-13.685-2.579-.004.759-.051,1.609-.12,2.503Z"/><path class="e" d="M382.261,33.252c-1.208-2.451-1.908-4.591-1.993-7.256-.168-5.235.328-8.693,2.293-13.295.814-1.907,2.755-4.26,4.258-5.622,4.912-4.453,11.697-6.204,18.143-4.493,6.446,1.71,11.889,7.222,13.839,14.013.731,2.503,1.562,4.4,2.217,6.687.264.924.843,2.801.897,3.598.184,2.723-.156,6.472-1.146,9.196-1.143,3.142-1.619,3.761-4.145,6.263-1.537,1.522-5.072,3.295-7.167,3.579-6.61.894-10.541.102-17.652-3.037-1.535-.677-3.263-1.809-4.601-2.878-1.788-1.428-3.772-4.383-4.941-6.754Z"/><path class="f" d="M391.456,43.952c-.069,2.856-.486,5.694-.751,8.536-.098,1.045.99,2.045,2,2,1.167-.052,1.896-.881,2-2,.265-2.842.682-5.68.751-8.536.025-1.047-.938-2.048-2-2-1.105.049-1.973.879-2,2h0Z"/><path class="f" d="M405.146,48.659c-.003,1.872-.142,3.758-.338,5.618-.05.478.259,1.088.586,1.414.347.347.916.608,1.414.586.517-.023,1.054-.193,1.414-.586.38-.413.527-.858.586-1.414.195-1.861.335-3.747.338-5.618.002-1.046-.921-2.048-2-2-1.085.049-1.998.879-2,2h0Z"/><path class="f" d="M413.523,22.579c.46,1.091.546,3.709-1.457,4.158-2.683.285-3.189-2.836-2.457-4.412.599-1.291,2.714-2.037,3.915.254Z"/><path class="f" d="M384.22,114.154c1.096.934,2.617.949,3.502-.293.791-1.111.305-2.224-.264-3.284-.12-.225.089.305-.069-.171-.088-.264-.183-.525-.264-.792-.197-.645-.358-1.301-.507-1.958-.768-3.389-1.228-6.852-1.665-10.296-.422-3.324-.782-6.655-1.19-9.98-.327-2.662-.879-5.291-1.175-7.956-.56-5.039-.491-10.279.451-15.269.68-3.606,3.167-7.929,6.858-8.964,4.857-1.362,10.307-.664,14.727,1.793,4.47,2.484,7.523,6.957,9.239,11.683,2.237,6.163,2.88,12.928,2.977,19.444.103,6.982-.679,13.927-2.309,20.716-.601,2.502,3.255,3.569,3.857,1.063,2.946-12.27,3.547-25.657.604-37.996-1.3-5.449-3.676-10.762-7.668-14.778s-9.337-6.035-14.888-6.591c-4.579-.459-9.479.723-12.763,4.048-4.038,4.088-4.902,9.504-5.284,15.017-.315,4.553-.023,9.097.72,13.596.465,2.814.7,4.55,1.051,7.573.506,4.361,1.01,8.727,1.693,13.065.508,3.226.981,6.586,2.541,9.496l-.273-1.009.029.338.586-1.414-.147.175.883-.514-.22.043,1.946.514-.15-.127c-1.949-1.66-4.792,1.156-2.828,2.828h0Z"/><path class="f" d="M382.61,73.784c-.806,5.41-.982,10.916-1.087,16.377-.103,5.35-.116,10.722.21,16.065.156,2.558,4.157,2.575,4,0-.319-5.223-.311-10.474-.217-15.704.094-5.179.207-10.685.951-15.674.159-1.067-.267-2.15-1.397-2.46-.943-.259-2.3.322-2.46,1.397h0Z"/><path class="f" d="M404.201,75.983c-1.148,9.328-3.303,18.498-4.022,27.884-.196,2.567,3.805,2.555,4,0,.718-9.38,2.874-18.559,4.022-27.884.132-1.074-1.014-2-2-2-1.191,0-1.867.923-2,2h0Z"/><path class="g" d="M381.85,111.284c.137.726.293,1.447.446,2.095.311,1.322,1.463,2.111,2.604,1.782,3.986-1.15,12.849-4.112,17.86-6.383,1.138-.516,1.688-2.02,1.212-3.331-.005-.015-.011-.03-.016-.045-.396-1.089-1.38-1.709-2.376-1.491-3.971.868-13.813,3.147-18.15,4.423-1.122.33-1.827,1.633-1.579,2.951Z"/><path class="f" d="M415.184,117.888c2.967,10.816,3.688,21.782,3.423,32.953s-1.223,22.223-2.913,33.215c-.847,5.505-1.869,10.983-3.064,16.422-.513,2.334-.947,4.429-.199,6.775.706,2.212,2.15,3.71,3.747,5.325,2.914,2.945,6.632,5.653,8.559,9.384.997,1.93,1.417,3.825,1.347,5.994-.069,2.142-.659,4.732-2.064,6.417-1.153,1.383-3.311,1.853-5.002,2.071-2.072.268-4.219.132-6.304.13-4.575-.006-9.151-.019-13.726-.033-4.732-.015-9.464-.031-14.197-.044-4.195-.011-8.424.138-12.616-.039-2.12-.09-4.046-.558-5.399-2.287-1.279-1.634-2.091-3.541-2.111-5.628-.038-4.065,3.164-7.081,5.647-9.925,3.39-3.883,6.211-8.249,8.374-12.927,2.042-4.416,3.203-8.926,3.65-13.769.889-9.632-1.345-19.13-1.955-28.713-.36-5.66-.447-11.337-.259-17.005.176-5.301.358-10.757,1.479-15.957.481-2.229,1.167-4.413,2.108-6.491.446-.983.282-2.152-.718-2.736-.858-.502-2.288-.271-2.736.718-2.153,4.75-3.094,9.697-3.552,14.869-.521,5.895-.742,11.817-.664,17.734s.454,11.831,1.129,17.71c.536,4.674,1.352,9.294,1.399,14.009s-.372,9.583-1.903,14.091c-1.645,4.845-4.342,9.527-7.463,13.567-2.765,3.579-6.47,6.645-7.954,11.053-1.525,4.528.041,9.677,3.377,12.997,3.259,3.243,8.363,2.707,12.572,2.713,4.699.007,9.397.021,14.096.036,4.95.016,9.9.032,14.85.044,2.312.006,4.625.011,6.937.013,2.291.003,4.582.077,6.857-.25,2.233-.322,4.45-1.036,6.217-2.48,1.864-1.524,2.917-4.097,3.463-6.383,1.109-4.64.22-9.469-2.554-13.361-1.429-2.005-3.277-3.667-5.035-5.377-1.552-1.51-3.093-3.027-4.59-4.592-1.435-1.5-1.652-3.47-1.216-5.408.637-2.835,1.226-5.681,1.769-8.536,2.156-11.355,3.581-22.857,4.249-34.395s.818-23.114-1.258-34.491c-.521-2.854-1.175-5.68-1.943-8.477-.68-2.479-4.54-1.427-3.857,1.063h0Z"/><path class="f" d="M386.642,202.306c5.945,1.43,12.074,1.545,18.157,1.608,2.575.027,2.577-3.973,0-4-5.727-.059-11.496-.119-17.094-1.465-2.502-.602-3.569,3.254-1.063,3.857h0Z"/><path class="e" d="M411.172,147.181c-.364-.093-.698-.192-.981-.296-1.528-.56-3.056-1.054-4.513-1.632-2.757-1.095-5.257-2.495-7.012-5.231-5.506-8.81-8.23-13.852-12.641-25.195,4.078-1.236,11.188-3.645,15.837-5.653,2.872,6.535,5.745,13.069,8.617,19.603,0,0,.779,1.431,1.552,2.85,3.372,1.535,7.721,3.43,9.519,4.589.278.18.565.37.736.654.216.358.21.803.191,1.221-.115,2.461-.494,4.909-1.129,7.289-.151.566-.335,1.16-.771,1.552-.335.302-.762.519-1.208.583-1.612.233-2.656.506-4.358.329-1.077-.112-2.625-.353-3.839-.662Z"/><path class="f" d="M391.591,63.606c-.34.269.238-.104.321-.142-.413.19.251-.055.34-.077.087-.021.816-.139.331-.079.246-.03.494-.049.741-.064.461-.027.923-.032,1.384-.01.263.013.526.032.787.065-.39-.05.368.075.439.091.256.056.51.123.761.201.083.026.804.302.368.112.363.158.714.344,1.048.556.073.046.633.471.282.181.174.144.342.292.502.451s.31.325.452.499c-.29-.355.125.21.171.285.551.889,1.812,1.313,2.736.718.891-.574,1.307-1.785.718-2.736-1.357-2.189-3.654-3.666-6.168-4.163-2.685-.531-5.821-.475-8.043,1.285-.824.653-.733,2.155,0,2.828.874.803,1.949.696,2.828,0h0Z"/><path class="f" d="M400.195,110.321c2.853,6.488,5.705,12.977,8.558,19.465.435.989,1.88,1.218,2.736.718,1.02-.597,1.154-1.744.718-2.736-2.853-6.488-5.705-12.977-8.558-19.465-.435-.989-1.88-1.218-2.736-.718-1.02.597-1.154,1.744-.718,2.736h0Z"/><path class="f" d="M384.288,115.845c1.799,4.591,3.692,9.155,5.928,13.553,2.031,3.996,4.351,7.833,6.724,11.634,1.36,2.179,4.822.173,3.454-2.019-2.314-3.706-4.578-7.446-6.572-11.336-2.144-4.185-3.963-8.519-5.677-12.895-.394-1.005-1.341-1.705-2.46-1.397-.958.263-1.793,1.449-1.397,2.46h0Z"/><path class="f" d="M407.486,131.664c2.13,1.138,4.375,2.068,6.572,3.064,2.183.989,4.561,1.896,6.546,3.258.196.135-.118-.177-.118-.212-.003.178-.012.356-.02.534-.024.506-.064,1.013-.113,1.517-.088.905-.225,1.801-.398,2.693-.153.79-.239,1.956-.632,2.671-.318.577-1.047.49-1.703.587-3.016.447-5.954-.496-8.762-1.481-3.201-1.123-6.505-2.333-8.465-5.282-1.418-2.134-4.884-.133-3.454,2.019,2.26,3.402,5.602,5.212,9.349,6.584,3.623,1.327,7.465,2.661,11.385,2.159,2.225-.285,4.351-.63,5.291-2.948.851-2.1,1.133-4.548,1.366-6.787.104-1.005.28-2.114.069-3.115-.24-1.138-.964-1.873-1.915-2.485-1.113-.717-2.339-1.276-3.533-1.842-3.132-1.485-6.387-2.755-9.447-4.389-2.27-1.213-4.293,2.239-2.019,3.454h0Z"/><path class="f" d="M379.921,111.816c.472,2.444,1.336,5.423,4.411,5.419,1.684-.002,3.562-.885,5.145-1.399,4.233-1.375,8.447-2.848,12.55-4.576.902-.38,1.892-.706,2.629-1.373.974-.882,1.496-2.213,1.487-3.517-.017-2.449-2.011-4.722-4.558-4.463-1.645.167-3.307.691-4.915,1.062-2.029.468-4.056.946-6.079,1.437-2.115.514-4.229,1.037-6.329,1.612-1.069.293-2.158.543-3.001,1.315-1.074.982-1.595,2.519-1.41,3.95.139,1.071.82,2,2,2,.973,0,2.14-.921,2-2-.07-.544-.132-.828.303-1.078.473-.272,1.233-.347,1.761-.489,1.458-.391,2.922-.76,4.388-1.122,3.121-.77,6.251-1.505,9.386-2.215.558-.126,1.116-.252,1.675-.376.215-.048.527-.172.748-.165-.473-.015-.097-.072-.079.157.037.459-.022-.359.057.135.012.075.061.158.054.239-.014.15-.006.355-.109.492-.302.406-1.249.616-1.713.809-3.188,1.326-6.45,2.481-9.721,3.583-1.618.545-3.242,1.074-4.875,1.573-.321.098-.643.21-.969.291-.129.032-.551.072-.359.135.008.003-.191-.463-.249-.737-.125-.588-.255-1.174-.369-1.765-.205-1.061-1.477-1.667-2.46-1.397-1.11.305-1.602,1.396-1.397,2.46Z"/><path class="f" d="M383.987,32.243c-1.952-4.028-2.176-8.592-1.381-12.968.749-4.121,2.408-7.796,5.505-10.67,6.086-5.647,15.752-6.259,22.307-1.071,3.104,2.457,5.307,5.824,6.452,9.597,1.173,3.864,3.164,7.806,3.083,11.763-.068,3.381-.675,7.501-2.955,10.173-2.384,2.793-5.486,4.69-9.179,5.046-4.712.454-8.959-.458-13.319-2.234-2.26-.921-4.57-2.035-6.379-3.712-1.764-1.636-3.064-3.791-4.136-5.924-1.157-2.3-4.609-.277-3.454,2.019,2.376,4.724,5.823,8.403,10.709,10.547,4.45,1.953,9.019,3.513,13.936,3.455,4.637-.055,9.265-1.169,12.757-4.411,1.364-1.267,2.732-2.702,3.578-4.378,1.052-2.082,1.749-4.35,2.091-6.653.35-2.352.607-4.888.113-7.238-.48-2.283-1.294-4.505-2.066-6.7-.837-2.381-1.46-4.811-2.625-7.065-1.076-2.082-2.511-4.021-4.172-5.674-7.121-7.086-18.486-8.196-26.831-2.534-4.701,3.189-7.688,7.821-9.001,13.316-.656,2.744-.831,5.575-.772,8.388.067,3.212.889,6.067,2.284,8.947,1.122,2.316,4.573.29,3.454-2.019Z"/><path class="f" d="M394.991,15.169c-3.979.059-7.08,2.746-8.022,6.569-.831,3.371-.102,7.332,2.45,9.814,2.869,2.789,7.626,2.947,10.739.479,2.735-2.169,3.513-5.994,3.042-9.296-.272-1.907-1.072-3.751-2.398-5.165-1.508-1.609-3.639-2.368-5.812-2.4-1.081-.016-2,.93-2,2,0,1.097.916,1.984,2,2,.216.003.43.01.645.028-.302-.026.023,0,.077.011.319.064.624.151.933.249.523.165-.264-.185.197.09.102.061.211.113.314.174.152.091.3.188.442.294-.336-.253.097.104.13.136.089.084.623.698.377.374.176.231.331.478.473.731.062.111.389.858.246.476.125.333.235.67.321,1.015.072.288.13.58.173.874-.064-.443.02.394.025.53.01.292.008.585-.007.877-.009.176-.026.351-.04.526-.034.438.077-.303-.026.164-.125.57-.253,1.126-.469,1.67.16-.402-.175.327-.243.444-.085.147-.182.285-.27.43-.213.349.208-.193-.098.129-.196.207-.388.403-.597.597-.39.361.201-.124-.07.051-.122.079-.241.159-.368.231-.128.073-.26.14-.393.203-.295.139.432-.109-.114.037-.152.041-.301.094-.454.133-.072.018-.706.136-.35.088-.35.047-.715.055-1.067.044.047.001-.626-.047-.345-.014.27.032-.35-.069-.317-.061-.303-.068-.612-.155-.898-.277.344.147-.019-.02-.097-.069-.177-.109-.357-.214-.532-.326-.318-.203-.08-.064-.016-.009-.133-.115-.264-.232-.389-.357-.083-.083-.163-.168-.241-.256-.038-.043-.369-.499-.127-.146-.168-.244-.327-.492-.469-.753-.057-.105-.106-.213-.162-.319-.096-.212-.101-.217-.015-.016-.044-.112-.086-.224-.126-.338-.099-.285-.183-.576-.251-.87-.032-.138-.149-.964-.11-.545-.062-.665-.063-1.325.007-1.989-.009.085-.074.379.005-.007.042-.208.079-.415.13-.621.08-.323.185-.636.293-.95.183-.535-.187.312.081-.183.085-.158.161-.318.251-.474.089-.154.191-.3.284-.451.214-.346-.185.166.119-.156.244-.259.481-.519.763-.739-.296.23.024-.006.105-.052.186-.104.367-.213.557-.311.348-.179.117-.044.039-.017.245-.085.491-.161.745-.217.13-.029.264-.057.397-.075-.325.044.455-.007.531-.008,1.081-.016,2-.908,2-2,0-1.072-.915-2.016-2-2Z"/></g></svg>