<svg xmlns="http://www.w3.org/2000/svg" width="342.499" height="309.893" viewBox="0 0 342.499 309.893" style="color: initial !important;"><defs><style>.a{fill:#211715;}.b{fill:#ffffff;}</style></defs><path class="a" d="M305.243,219.463a35.694,35.694,0,0,0-3.9-3.486c-6.765-5.2-15.178-8-23.669-8.859-1.794-.182-9.531-.182-11.325,0-8.491.856-16.9,3.658-23.669,8.859s-11.755,12.929-12.8,21.4c-1.194,9.648,2.822,19.5,9.434,26.628a22.514,22.514,0,0,0,9.864,6.68q.108,6.531.2,13.1a1.623,1.623,0,0,0,.2.915,1.414,1.414,0,0,0,.645.451,10.888,10.888,0,0,0,4.025.583c5.922.109,29.61.109,35.533,0a10.888,10.888,0,0,0,4.025-.583,1.414,1.414,0,0,0,.645-.451,1.622,1.622,0,0,0,.2-.915q.1-6.561.2-13.1A22.511,22.511,0,0,0,304.71,264c6.611-7.127,10.628-16.98,9.434-26.628A31.736,31.736,0,0,0,305.243,219.463Z"/><path class="a" d="M306.94,217.766c-7.237-7.4-17.106-11.459-27.252-12.808a68.193,68.193,0,0,0-9.912-.362,50.871,50.871,0,0,0-11.646,1.516c-9.6,2.386-18.381,7.569-24.33,15.555a32.231,32.231,0,0,0-5.522,27.132,38.792,38.792,0,0,0,7.23,14.429c3.384,4.32,7.7,8.133,13.027,9.769l-1.762-2.314q.095,5.7.178,11.4c.028,1.873-.1,3.821,1.7,4.957,1.539.975,3.6,1.049,5.366,1.089,3.424.076,6.851.066,10.276.076,8.265.023,16.535.058,24.8-.061a18.978,18.978,0,0,0,4.489-.4,5.21,5.21,0,0,0,2.563-1.351,4.406,4.406,0,0,0,.907-3.1c.082-4.2.127-8.41.195-12.615L295.483,273c8.165-2.508,14.5-10.17,17.938-17.714,3.591-7.87,4.5-16.829,1.434-25.033a36.626,36.626,0,0,0-7.915-12.484c-2.138-2.238-5.529,1.159-3.394,3.394,5.112,5.353,8.455,12.35,8.406,19.837a32,32,0,0,1-7.862,20.1c-2.671,3.141-5.869,6.042-9.883,7.275a2.464,2.464,0,0,0-1.762,2.314q-.083,5.092-.159,10.185a11.984,11.984,0,0,0-.036,2.43l-.008.486q1-1.015.279-.728a4.542,4.542,0,0,0-.92.2,23.861,23.861,0,0,1-2.819.1c-3.21.042-6.421.049-9.631.057-7.687.02-15.376.033-23.063-.047-.615-.007-1.23-.013-1.845-.026a12.459,12.459,0,0,1-2.308-.166l-.22-.049q-1-.445.061.666a13.968,13.968,0,0,0-.021-1.458q-.089-5.822-.182-11.643a2.463,2.463,0,0,0-1.762-2.314c-4.079-1.253-7.316-4.227-10.013-7.431a33.747,33.747,0,0,1-6.219-11.088,27.5,27.5,0,0,1,3.038-23.845c4.742-7.372,12.42-12.256,20.726-14.7a57.3,57.3,0,0,1,19.749-1.825c9.684.575,19.654,4.733,26.454,11.685C305.709,223.372,309.1,219.977,306.94,217.766Z"/><path class="a" d="M277.72,275.3v8.745a2.4,2.4,0,1,0,4.8,0V275.3a2.4,2.4,0,1,0-4.8,0Z"/><path class="a" d="M261.511,275.3v8.745a2.4,2.4,0,0,0,4.8,0V275.3a2.4,2.4,0,1,0-4.8,0Z"/><path class="b" d="M300.608,239.493c-1.195-5.421-6.556-8.95-11.868-9.176a9.326,9.326,0,0,0-6.229,1.88c-2.991,2.407-3.771,6.934-2.408,10.535,1.761,4.651,5.573,8.573,11.193,8.573a9.709,9.709,0,0,0,9.312-11.812Z"/><path class="b" d="M244.916,239.493c1.195-5.421,6.556-8.95,11.869-9.176a9.325,9.325,0,0,1,6.228,1.88c2.991,2.407,3.771,6.934,2.408,10.535-1.76,4.651-5.573,8.573-11.193,8.573a9.709,9.709,0,0,1-9.312-11.812Z"/><path class="a" d="M321.14,219.265l5.4-5.4h-3.394a11.384,11.384,0,0,0,10.692,2.663,12.386,12.386,0,0,0,7.956-7.412c2.865-7.546-3.444-15.711-11.346-15.482l2.4,2.4c.248-7.893-7.931-14.2-15.459-11.344a12.557,12.557,0,0,0-7.443,7.927c-1.2,3.867.106,7.756,2.676,10.724v-3.394l-5.086,5.087c-2.187,2.187,1.206,5.582,3.394,3.394l5.086-5.087a2.456,2.456,0,0,0,0-3.394,6.272,6.272,0,0,1-1.441-6.054,7.594,7.594,0,0,1,4.409-4.693c4.556-1.7,9.211,2.148,9.064,6.834a2.423,2.423,0,0,0,2.4,2.4c4.715-.137,8.523,4.517,6.836,9.087a6.787,6.787,0,0,1-10.744,2.95,2.453,2.453,0,0,0-3.394,0l-5.4,5.4c-2.187,2.187,1.206,5.583,3.394,3.394Z"/><path class="a" d="M226.273,215.871l-5.4-5.4a2.459,2.459,0,0,0-3.4,0,6.788,6.788,0,0,1-10.743-2.95c-1.709-4.567,2.137-9.223,6.836-9.087a2.423,2.423,0,0,0,2.4-2.4c-.148-4.7,4.5-8.517,9.064-6.834a7.588,7.588,0,0,1,4.353,4.524A6.262,6.262,0,0,1,228,199.945a2.45,2.45,0,0,0,0,3.394l5.086,5.087c2.187,2.187,5.582-1.206,3.394-3.394l-5.086-5.087v3.394c2.574-2.974,3.865-6.851,2.676-10.724a12.542,12.542,0,0,0-7.443-7.927c-7.528-2.858-15.708,3.451-15.459,11.344l2.4-2.4c-7.9-.229-14.211,7.936-11.346,15.482a12.4,12.4,0,0,0,7.956,7.412,11.38,11.38,0,0,0,10.692-2.663h-3.4l5.4,5.4c2.188,2.188,5.583-1.206,3.4-3.394Z"/><path class="a" d="M317.746,271.653l5.4,5.4a2.458,2.458,0,0,0,3.394,0,6.789,6.789,0,0,1,10.744,2.95c1.709,4.567-2.138,9.223-6.836,9.087a2.423,2.423,0,0,0-2.4,2.4c.148,4.7-4.5,8.517-9.064,6.834a7.59,7.59,0,0,1-4.354-4.524,6.265,6.265,0,0,1,1.386-6.223,2.451,2.451,0,0,0,0-3.394l-5.086-5.087c-2.187-2.187-5.582,1.206-3.394,3.394l5.086,5.087v-3.394c-2.574,2.974-3.865,6.851-2.676,10.724a12.542,12.542,0,0,0,7.443,7.927c7.528,2.858,15.707-3.451,15.459-11.344l-2.4,2.4c7.9.229,14.211-7.936,11.346-15.482A12.4,12.4,0,0,0,333.84,271a11.379,11.379,0,0,0-10.692,2.663h3.394l-5.4-5.4c-2.187-2.187-5.582,1.207-3.394,3.4Z"/><path class="a" d="M222.878,268.258l-5.4,5.4h3.4A11.385,11.385,0,0,0,210.179,271a12.386,12.386,0,0,0-7.956,7.412c-2.865,7.546,3.443,15.711,11.346,15.482l-2.4-2.4c-.249,7.892,7.931,14.2,15.459,11.344a12.557,12.557,0,0,0,7.443-7.927c1.2-3.867-.107-7.756-2.676-10.724v3.394l5.086-5.087c2.187-2.187-1.206-5.582-3.394-3.394L228,284.185a2.456,2.456,0,0,0,0,3.394,6.272,6.272,0,0,1,1.441,6.054,7.6,7.6,0,0,1-4.409,4.693c-4.556,1.7-9.212-2.148-9.064-6.834a2.423,2.423,0,0,0-2.4-2.4c-4.715.137-8.524-4.517-6.836-9.087a6.786,6.786,0,0,1,10.743-2.95,2.454,2.454,0,0,0,3.4,0l5.4-5.4c2.187-2.187-1.207-5.583-3.4-3.4Z"/><path class="b" d="M112.871,18.07a44.678,44.678,0,0,0-4.9-4.373C99.488,7.171,88.932,3.657,78.28,2.581c-2.251-.227-11.958-.227-14.209,0C53.418,3.657,42.863,7.171,34.375,13.7S19.627,29.918,18.313,40.544c-1.5,12.1,3.541,24.466,11.836,33.408,3.429,3.7,7.514,6.955,12.376,8.38q.133,8.193.255,16.437a2.042,2.042,0,0,0,.246,1.148,1.775,1.775,0,0,0,.81.566,13.648,13.648,0,0,0,5.05.732c7.429.136,37.149.136,44.579,0a13.648,13.648,0,0,0,5.05-.732,1.781,1.781,0,0,0,.81-.566,2.042,2.042,0,0,0,.246-1.148q.124-8.231.255-16.437c4.862-1.425,8.946-4.683,12.376-8.38,8.3-8.942,13.334-21.3,11.836-33.408A39.816,39.816,0,0,0,112.871,18.07Z"/><path class="a" d="M106.02,44.714c-1.56-7.085-8.567-11.7-15.51-11.992a12.187,12.187,0,0,0-8.14,2.457c-3.909,3.145-4.929,9.061-3.147,13.768,2.3,6.078,7.283,11.2,14.628,11.2A12.688,12.688,0,0,0,106.02,44.714Z"/><path class="a" d="M38.219,44.714c1.561-7.085,8.567-11.7,15.511-11.992a12.184,12.184,0,0,1,8.139,2.457c3.909,3.145,4.929,9.061,3.148,13.768-2.3,6.078-7.284,11.2-14.628,11.2a12.688,12.688,0,0,1-12.17-15.437Z"/><path class="a" d="M114.568,16.373C105.6,7.181,93.315,2.146,80.728.472A84.158,84.158,0,0,0,68.636.025a63.822,63.822,0,0,0-14.5,1.832C42.191,4.785,31.184,11.186,23.779,21.125a39.859,39.859,0,0,0-6.954,33.294,47.823,47.823,0,0,0,8.987,18.127c4.175,5.328,9.49,10.095,16.075,12.1l-1.762-2.314q.115,7.1.221,14.192c.035,2.341-.168,4.845,2.278,6.031a14.9,14.9,0,0,0,6.262,1.06c4.193.079,8.388.077,12.582.089,10.315.03,20.634.068,30.949-.073a31.683,31.683,0,0,0,4.895-.323,7.117,7.117,0,0,0,3.241-1.266,4.267,4.267,0,0,0,1.422-3.523c.126-5.394.163-10.792.251-16.187l-1.762,2.314a31,31,0,0,0,13.435-9,49.157,49.157,0,0,0,8.727-12.993c4.433-9.746,5.5-20.831,1.686-30.969a45.13,45.13,0,0,0-9.744-15.314c-2.14-2.235-5.532,1.162-3.394,3.394,6.5,6.792,10.766,15.712,10.727,25.22-.04,9.4-4,18.636-10.044,25.746-3.417,4.019-7.531,7.72-12.669,9.285a2.464,2.464,0,0,0-1.762,2.314q-.106,6.473-.2,12.945-.014.873-.026,1.746a4.8,4.8,0,0,0-.023,1.5l0,.25.438-.5c.011.011-.431.127-.333.118-.478.042-.962.261-1.45.321a31.763,31.763,0,0,1-3.409.125c-4.086.056-8.172.065-12.257.075-9.714.025-19.43.044-29.143-.062-.782-.008-1.564-.017-2.346-.033a13.93,13.93,0,0,1-2.983-.254c-.2-.048-1.366-.5-.727-.039.457.33.143.175.211-.248a6.057,6.057,0,0,0-.015-1q-.112-7.47-.232-14.94a2.463,2.463,0,0,0-1.762-2.314c-5.268-1.6-9.464-5.453-12.932-9.6a43.1,43.1,0,0,1-7.892-14.161,35.541,35.541,0,0,1-1.607-15.855A36.1,36.1,0,0,1,26.353,25.8C32.374,16.539,42.04,10.373,52.509,7.27c8.168-2.42,16.583-2.832,25.047-2.341A56.8,56.8,0,0,1,95.1,9.1a46.851,46.851,0,0,1,16.073,10.67C113.335,21.982,116.728,18.587,114.568,16.373Z"/><path class="a" d="M78.951,88.118V99.09a2.4,2.4,0,1,0,4.8,0V88.118a2.4,2.4,0,0,0-4.8,0Z"/><path class="a" d="M58.615,88.118V99.09a2.4,2.4,0,0,0,4.8,0V88.118a2.4,2.4,0,0,0-4.8,0Z"/><path class="a" d="M321.907,53.377l6.071-7.473a5.907,5.907,0,0,0-3.065-9.433l-9.3-2.477a5.906,5.906,0,0,1-4.379-6.026l.519-9.614a5.907,5.907,0,0,0-8.024-5.83l-8.983,3.465a5.907,5.907,0,0,1-7.084-2.3L282.428,5.6a5.907,5.907,0,0,0-9.918,0l-5.231,8.083a5.908,5.908,0,0,1-7.085,2.3l-8.983-3.465a5.907,5.907,0,0,0-8.024,5.83l.52,9.614a5.907,5.907,0,0,1-4.379,6.026l-9.3,2.477a5.908,5.908,0,0,0-3.065,9.433l6.071,7.473a5.907,5.907,0,0,1,0,7.449L226.959,68.3a5.907,5.907,0,0,0,3.065,9.433l9.3,2.477a5.908,5.908,0,0,1,4.379,6.027l-.52,9.614a5.907,5.907,0,0,0,8.024,5.829l8.983-3.464a5.905,5.905,0,0,1,7.085,2.3l5.231,8.083a5.907,5.907,0,0,0,9.918,0l5.231-8.083a5.9,5.9,0,0,1,7.084-2.3l8.983,3.464a5.906,5.906,0,0,0,8.024-5.829l-.519-9.614a5.907,5.907,0,0,1,4.379-6.027l9.3-2.477a5.907,5.907,0,0,0,3.065-9.433l-6.071-7.472A5.907,5.907,0,0,1,321.907,53.377Z"/><path class="b" d="M296.181,49.186c-4.181,1.071-8.459,2.168-11.011,2.826a.916.916,0,0,0-.572,1.338c1.844,3.206,7.848,5,13.557,3.467,5.74-1.425,10.118-5.911,10.175-9.609a.916.916,0,0,0-1.149-.893C304.63,46.977,300.357,48.094,296.181,49.186Z"/><path class="b" d="M258.756,49.186c4.182,1.071,8.46,2.168,11.012,2.826a.915.915,0,0,1,.571,1.338c-1.844,3.206-7.847,5-13.557,3.467-5.739-1.425-10.117-5.911-10.174-9.609a.916.916,0,0,1,1.149-.893C250.307,46.977,254.581,48.094,258.756,49.186Z"/><path class="a" d="M129.132,232.646a7.247,7.247,0,0,0-6.31,3.48,2.867,2.867,0,0,1-2.413,1.312c-3.856.034-7.711.133-11.567.184a2.926,2.926,0,0,1-2.92-2.5,38.089,38.089,0,0,0-6.064-15.587,2.921,2.921,0,0,1,.331-3.687c2.675-2.73,5.308-5.5,7.978-8.235a2.809,2.809,0,0,1,2.635-.724,7.223,7.223,0,0,0,6.8-2.068c2.933-2.932,2.827-7.976-.865-11.668s-8.754-3.776-11.667-.864a7.247,7.247,0,0,0-2.015,6.866,2.873,2.873,0,0,1-.7,2.656c-2.611,2.674-5.188,5.381-7.8,8.053a2.927,2.927,0,0,1-3.8.312,37.6,37.6,0,0,0-16.083-6.521,2.911,2.911,0,0,1-2.467-2.837c-.037-2.83-.1-7.476-.138-10.966a2.868,2.868,0,0,1,1.432-2.54,7.27,7.27,0,0,0,3.744-6.549c0-4.147-3.641-7.639-8.863-7.639-5.239,0-8.861,3.52-8.861,7.639A7.227,7.227,0,0,0,62.6,186.8a2.857,2.857,0,0,1,1.252,2.275c.042,3.624.123,8.649.174,11.667a2.918,2.918,0,0,1-2.473,2.926,37.562,37.562,0,0,0-15.182,5.982,2.925,2.925,0,0,1-3.7-.323c-2.712-2.653-5.462-5.269-8.175-7.921a2.787,2.787,0,0,1-.737-2.528,7.23,7.23,0,0,0-2.067-6.591c-2.912-2.912-7.962-2.841-11.667.864s-3.8,8.736-.864,11.668a7.25,7.25,0,0,0,7.185,2,2.86,2.86,0,0,1,2.714.751c2.537,2.474,5.1,4.92,7.633,7.4a2.921,2.921,0,0,1,.32,3.79,38.1,38.1,0,0,0-6.651,16.621,2.919,2.919,0,0,1-2.856,2.5c-3.57.043-7.139.127-10.709.169a2.888,2.888,0,0,1-2.569-1.48,7.308,7.308,0,0,0-6.594-3.912C3.52,232.646,0,236.267,0,241.507c0,5.221,3.492,8.862,7.639,8.862a7.231,7.231,0,0,0,5.967-2.905,2.871,2.871,0,0,1,2.26-1.2c3.919-.037,7.838-.138,11.758-.186a2.924,2.924,0,0,1,2.912,2.466A38.392,38.392,0,0,0,36.721,264.3a2.926,2.926,0,0,1-.3,3.7c-2.413,2.49-4.809,5-7.241,7.468a2.883,2.883,0,0,1-2.786.779,7.291,7.291,0,0,0-7.23,1.949c-2.913,2.912-2.842,7.962.863,11.667s8.736,3.8,11.668.865a7.275,7.275,0,0,0,1.744-7.907c.02-.019.043-.032.063-.051,2.952-2.955,5.83-5.98,8.735-8.98a2.928,2.928,0,0,1,3.746-.371A37.768,37.768,0,0,0,61.4,279.335a2.922,2.922,0,0,1,2.483,2.842c.066,4.161.169,8.322.172,12.484a3.737,3.737,0,0,0,.075.691,7.355,7.355,0,0,0-4.6,6.9c0,4.119,3.622,7.639,8.861,7.639,5.222,0,8.863-3.492,8.863-7.639a7.341,7.341,0,0,0-5.035-7.129,3.919,3.919,0,0,0,.048-.464c0-4.109-.1-8.217-.17-12.324a2.93,2.93,0,0,1,2.543-2.938,37.462,37.462,0,0,0,16.888-6.563,2.921,2.921,0,0,1,3.746.264c2.874,2.78,5.768,5.541,8.6,8.367.017.017.039.029.056.045a7.4,7.4,0,0,0,1.152,9.216c2.932,2.932,7.976,2.827,11.668-.865s3.776-8.755.864-11.667a7.308,7.308,0,0,0-7.419-1.9,3.993,3.993,0,0,0-.517-.635c-2.921-2.918-5.911-5.765-8.877-8.636a2.93,2.93,0,0,1-.419-3.677,38.937,38.937,0,0,0,5.468-15.028,2.922,2.922,0,0,1,2.854-2.491c3.889-.05,7.776-.151,11.665-.186a2.884,2.884,0,0,1,2.464,1.321,7.223,7.223,0,0,0,6.307,3.4c4.148,0,7.64-3.641,7.64-8.862C136.772,236.267,133.252,232.646,129.132,232.646Z"/><path class="b" d="M84.859,237.119c-3.537.906-7.156,1.834-9.315,2.39a.775.775,0,0,0-.483,1.132c1.56,2.712,6.638,4.234,11.468,2.933,4.855-1.205,8.558-5,8.606-8.128a.776.776,0,0,0-.972-.756C92.006,235.251,88.391,236.2,84.859,237.119Z"/><path class="b" d="M51.913,237.119c3.537.906,7.156,1.834,9.314,2.39a.775.775,0,0,1,.484,1.132c-1.56,2.712-6.638,4.234-11.468,2.933-4.855-1.205-8.558-5-8.606-8.128a.775.775,0,0,1,.971-.756C44.766,235.251,48.381,236.2,51.913,237.119Z"/></svg>