<svg id="b" xmlns="http://www.w3.org/2000/svg" width="360.003" height="302.746" viewBox="0 0 360.003 302.746" style="color: initial !important;"><defs><style>.d{fill:#ffffff;}.e{fill:#f8b8b4;}.f{fill:#211715;}.g{fill:#ffda71;}.h{fill:#82cc7c;}</style></defs><g id="c"><path class="e" d="M325.867,208.136c-3.717-1.36-7.414-1.995-10.979-1.997-2.475-8.798-9.014-16.392-19.031-20.058-16.93-6.196-33.43,2.634-39.046,17.978-.256.698-.48,1.395-.69,2.089-3.684-.045-7.511.579-11.362,1.988-16.87,6.174-23.873,23.487-18.22,38.935,2.545,6.954,6.66,12.368,11.814,15.912-1.08,5.398-.683,11.147,1.335,16.662,6.242,17.057,21.92,24.85,39.242,18.511,2.308-.845,4.435-1.889,6.384-3.096,1.948,1.207,4.076,2.251,6.384,3.096,17.322,6.339,33-1.454,39.242-18.511,2.018-5.514,2.415-11.264,1.335-16.662,5.154-3.545,9.268-8.958,11.813-15.912,5.653-15.448-1.35-32.761-18.22-38.935Z"/><path class="d" d="M286.03,220.578c-3.213,0-5.434,2.489-5.434,5.401,0,3.258,2.269,5.502,5.435,5.502,3.288,0,5.435-2.265,5.435-5.502,0-2.932-2.233-5.401-5.435-5.401Z"/><path class="d" d="M302.831,233.539c-3.213,0-5.434,2.489-5.434,5.401,0,3.258,2.269,5.502,5.435,5.502,3.288,0,5.435-2.265,5.435-5.502,0-2.932-2.233-5.401-5.435-5.401Z"/><path class="d" d="M297.018,254.5c-3.213,0-5.434,2.489-5.434,5.401,0,3.258,2.269,5.502,5.435,5.502,3.288,0,5.435-2.265,5.435-5.502,0-2.932-2.233-5.401-5.435-5.401Z"/><path class="d" d="M267.795,233.174c-3.213,0-5.434,2.489-5.434,5.401,0,3.258,2.269,5.502,5.435,5.502,3.288,0,5.435-2.265,5.435-5.502,0-2.932-2.233-5.401-5.435-5.401Z"/><path class="d" d="M274.683,254.901c-3.213,0-5.434,2.489-5.434,5.401,0,3.258,2.269,5.502,5.435,5.502,3.288,0,5.435-2.265,5.435-5.502,0-2.932-2.233-5.401-5.435-5.401Z"/><path class="f" d="M326.505,205.822c-3.731-1.335-7.652-2.052-11.617-2.083l2.314,1.762c-3.203-11.136-12.188-19.475-23.279-22.562-10.677-2.972-22.198-.418-30.457,7.009-4.641,4.173-7.839,9.625-9.659,15.562l2.314-1.762c-11.711-.059-23.297,5.96-29.375,16.073-5.343,8.89-5.831,19.946-1.907,29.466,2.609,6.328,6.659,11.834,12.302,15.769l-1.103-2.71c-2.115,10.994,1.421,22.65,9.047,30.83,6.178,6.627,15.082,10.102,24.114,9.503,6.104-.405,12.109-2.36,17.325-5.545h-2.423c8.443,5.156,19.266,7.288,28.814,4.141,8.854-2.918,15.616-9.902,19.278-18.361,2.836-6.551,3.746-13.536,2.394-20.566l-1.103,2.71c8.464-5.903,13.894-15.776,14.807-26.019.789-8.843-2.268-17.784-8.24-24.337-3.701-4.06-8.423-6.972-13.547-8.878-1.215-.452-2.63.504-2.952,1.676-.369,1.343.457,2.499,1.676,2.952,7.355,2.736,13.639,8.376,16.488,15.774s2.357,15.558-.987,22.734c-2.193,4.706-5.382,8.963-9.668,11.952-.943.658-1.319,1.588-1.103,2.71,1.8,9.353-1.491,19.527-8.036,26.397-5.363,5.629-12.764,8.377-20.497,7.86-5.255-.351-10.425-2.156-14.902-4.89-.718-.438-1.705-.438-2.423,0-7.325,4.473-16.505,6.386-24.817,3.753-7.596-2.406-13.191-8.463-16.415-15.588-2.478-5.474-3.341-11.617-2.203-17.532.218-1.132-.168-2.058-1.103-2.71-7.89-5.502-12.703-15.53-12.547-25.092.14-8.551,4.401-16.783,11.446-21.72,5.16-3.616,11.356-5.582,17.658-5.55,1.078.005,2.005-.753,2.314-1.762,2.729-8.905,9.347-16.285,18.36-19.079,9.323-2.89,20.058-.451,27.408,5.944,4.015,3.493,6.9,8.014,8.37,13.126.294,1.022,1.25,1.754,2.314,1.762,3.564.028,6.988.711,10.341,1.911,1.22.437,2.627-.493,2.952-1.676.366-1.33-.451-2.514-1.676-2.952Z"/><path class="f" d="M286.03,218.178c-3.442.044-6.449,2.179-7.492,5.483-.953,3.019.053,6.621,2.57,8.565,2.533,1.957,6.233,2.204,9.022.609,2.921-1.67,4.087-5.083,3.593-8.288-.578-3.75-4.004-6.323-7.693-6.37-1.256-.016-2.458,1.115-2.4,2.4.059,1.314,1.054,2.383,2.4,2.4.158.002.315.014.473.018.542.013-.55-.13-.032-.006.24.057.48.105.716.183.031.01.223.103.272.098l-.309-.131c.086.039.171.08.255.124.234.122.47.347.71.444-.458-.185-.276-.221-.061-.023.067.062.133.126.197.192.075.077.183.256.275.306-.315-.17-.259-.381-.086-.103.134.215.259.431.383.652.105.187.008.266-.072-.195.03.173.132.356.182.527.063.219.07.482.152.69-.193-.49-.034-.404-.032-.138,0,.121.012.242.012.364,0,.217-.089.533-.039.74l.049-.353c-.014.093-.03.186-.049.279-.032.159-.07.316-.114.471-.031.109-.065.217-.102.324l-.046.126c-.093.235-.064.166.087-.206-.131.15-.203.4-.311.571-.057.09-.127.174-.18.266-.154.264.413-.461.097-.137-.165.169-.405.346-.547.532.312-.407.318-.232.074-.07-.072.048-.145.093-.219.137-.113.067-.23.122-.345.185-.407.224.45-.134.147-.057-.242.061-.474.162-.72.22-.092.021-.185.036-.276.057-.257.042-.188.035.21-.023-.098.011-.196.02-.294.026-.251.017-.503.02-.753.008-.127-.006-.315-.057-.437-.035.049-.009.601.115.214.021-.248-.06-.495-.11-.738-.191-.104-.035-.212-.093-.318-.117.621.141.25.105.031-.015-.211-.115-.398-.276-.607-.389.476.258.318.262.183.129-.093-.091-.191-.176-.282-.269-.074-.076-.139-.171-.218-.241-.227-.202.343.511.095.124-.144-.226-.275-.452-.405-.685-.239-.43.18.548.028.074-.028-.088-.062-.174-.09-.262-.071-.227-.073-.639-.196-.83.026.041.051.614.031.199-.008-.151-.022-.302-.025-.454-.003-.124-.002-.248.003-.372.002-.072.006-.144.012-.216.026-.262.013-.191-.037.213.096-.251.109-.561.191-.821.037-.119.126-.271.141-.393l-.132.319c.039-.083.079-.166.122-.247.123-.234.335-.459.439-.697-.208.478-.214.268-.025.063.093-.101.19-.199.291-.292.213-.197.4-.167-.061.022.109-.045.243-.173.344-.236.119-.075.241-.145.366-.21.084-.044.169-.085.255-.124l-.309.13c.204.031.622-.205.842-.252l.147-.029c.26-.043.199-.036-.185.02.066.052.53-.031.629-.033,1.255-.016,2.459-1.092,2.4-2.4-.058-1.286-1.055-2.417-2.4-2.4Z"/><path class="f" d="M302.831,231.139c-3.442.044-6.449,2.179-7.492,5.483-.953,3.019.053,6.621,2.57,8.565,2.533,1.957,6.233,2.204,9.022.609,2.921-1.67,4.087-5.083,3.593-8.288-.578-3.75-4.004-6.323-7.693-6.37-1.256-.016-2.458,1.115-2.4,2.4.059,1.314,1.054,2.383,2.4,2.4.158.002.315.014.473.018.542.013-.55-.13-.032-.006.24.057.48.105.716.183.031.01.223.103.272.098l-.309-.131c.086.039.171.08.255.124.234.122.47.347.71.444-.458-.185-.276-.221-.061-.023.067.062.133.126.197.192.075.077.183.256.275.306-.315-.17-.259-.381-.086-.103.134.215.259.431.383.652.105.187.008.266-.072-.195.03.173.132.356.182.527.063.219.07.482.152.69-.193-.49-.034-.404-.032-.138,0,.121.012.242.012.364,0,.217-.089.533-.039.74l.049-.353c-.014.093-.03.186-.049.279-.032.159-.07.316-.114.471-.031.109-.065.217-.102.324l-.046.126c-.093.235-.064.166.087-.206-.131.15-.203.4-.311.571-.057.09-.127.174-.18.266-.154.264.413-.461.097-.137-.165.169-.405.346-.547.532.312-.407.318-.232.074-.07-.072.048-.145.093-.219.137-.113.067-.23.122-.345.185-.407.224.45-.134.147-.057-.242.061-.474.162-.72.22-.092.021-.185.036-.276.057-.257.042-.188.035.21-.023-.098.011-.196.02-.294.026-.251.017-.503.02-.753.008-.127-.006-.315-.057-.437-.035.049-.009.601.115.214.021-.248-.06-.495-.11-.738-.191-.104-.035-.212-.093-.318-.117.621.141.25.105.031-.015-.211-.115-.398-.276-.607-.389.476.258.318.262.183.129-.093-.091-.191-.176-.282-.269-.074-.076-.139-.171-.218-.241-.227-.202.343.511.095.124-.144-.226-.275-.452-.405-.685-.239-.43.18.548.028.074-.028-.088-.062-.174-.09-.262-.071-.227-.073-.639-.196-.83.026.041.051.614.031.199-.008-.151-.022-.302-.025-.454-.003-.124-.002-.248.003-.372.002-.072.006-.144.012-.216.026-.262.013-.191-.037.213.096-.251.109-.561.191-.821.037-.119.126-.271.141-.393l-.132.319c.039-.083.079-.166.122-.247.123-.234.335-.459.439-.697-.208.478-.214.268-.025.063.093-.101.19-.199.291-.292.213-.197.4-.167-.061.022.109-.045.243-.173.344-.236.119-.075.241-.145.366-.21.084-.044.169-.085.255-.124l-.309.13c.204.031.622-.205.842-.252l.147-.029c.26-.043.199-.036-.185.02.066.052.53-.031.629-.033,1.255-.016,2.459-1.092,2.4-2.4-.058-1.286-1.055-2.417-2.4-2.4Z"/><path class="f" d="M297.018,252.1c-3.442.044-6.449,2.179-7.492,5.483-.953,3.019.053,6.621,2.57,8.565,2.533,1.957,6.233,2.204,9.022.609,2.921-1.67,4.087-5.083,3.593-8.288-.578-3.75-4.004-6.323-7.693-6.37-1.256-.016-2.458,1.115-2.4,2.4.059,1.314,1.054,2.383,2.4,2.4.158.002.315.014.473.018.542.013-.55-.13-.032-.006.24.057.48.105.716.183.031.01.223.103.272.098l-.309-.131c.086.039.171.08.255.124.234.122.47.347.71.444-.458-.185-.276-.221-.061-.023.067.062.133.126.197.192.075.077.183.256.275.306-.315-.17-.259-.381-.086-.103.134.215.259.431.383.652.105.187.008.266-.072-.195.03.173.132.356.182.527.063.219.07.482.152.69-.193-.49-.034-.404-.032-.138,0,.121.012.242.012.364,0,.217-.089.533-.039.74l.049-.353c-.014.093-.03.186-.049.279-.032.159-.07.316-.114.471-.031.109-.065.217-.102.324l-.046.126c-.093.235-.064.166.087-.206-.131.15-.203.4-.311.571-.057.09-.127.174-.18.266-.154.264.413-.461.097-.137-.165.169-.405.346-.547.532.312-.407.318-.232.074-.07-.072.048-.145.093-.219.137-.113.067-.23.122-.345.185-.407.224.45-.134.147-.057-.242.061-.474.162-.72.22-.092.021-.185.036-.276.057-.257.042-.188.035.21-.023-.098.011-.196.02-.294.026-.251.017-.503.02-.753.008-.127-.006-.315-.057-.437-.035.049-.009.601.115.214.021-.248-.06-.495-.11-.738-.191-.104-.035-.212-.093-.318-.117.621.141.25.105.031-.015-.211-.115-.398-.276-.607-.389.476.258.318.262.183.129-.093-.091-.191-.176-.282-.269-.074-.076-.139-.171-.218-.241-.227-.202.343.511.095.124-.144-.226-.275-.452-.405-.685-.239-.43.18.548.028.074-.028-.088-.062-.174-.09-.262-.071-.227-.073-.639-.196-.83.026.041.051.614.031.199-.008-.151-.022-.302-.025-.454-.003-.124-.002-.248.003-.372.002-.072.006-.144.012-.216.026-.262.013-.191-.037.213.096-.251.109-.561.191-.821.037-.119.126-.271.141-.393l-.132.319c.039-.083.079-.166.122-.247.123-.234.335-.459.439-.697-.208.478-.214.268-.025.063.093-.101.19-.199.291-.292.213-.197.4-.167-.061.022.109-.045.243-.173.344-.236.119-.075.241-.145.366-.21.084-.044.169-.085.255-.124l-.309.13c.204.031.622-.205.842-.252l.147-.029c.26-.043.199-.036-.185.02.066.052.53-.031.629-.033,1.255-.016,2.459-1.092,2.4-2.4-.058-1.286-1.055-2.417-2.4-2.4Z"/><path class="f" d="M267.795,230.774c-3.442.044-6.449,2.179-7.492,5.483-.953,3.019.053,6.621,2.57,8.565,2.533,1.957,6.233,2.204,9.022.609,2.921-1.67,4.087-5.083,3.593-8.288-.578-3.75-4.004-6.323-7.693-6.37-1.256-.016-2.458,1.115-2.4,2.4.059,1.314,1.054,2.383,2.4,2.4.158.002.315.014.473.018.542.013-.55-.13-.032-.006.24.057.48.105.716.183.031.01.223.103.272.098l-.309-.131c.086.039.171.08.255.124.234.122.47.347.71.444-.458-.185-.276-.221-.061-.023.067.062.133.126.197.192.075.077.183.256.275.306-.315-.17-.259-.381-.086-.103.134.215.259.431.383.652.105.187.008.266-.072-.195.03.173.132.356.182.527.063.219.07.482.152.69-.193-.49-.034-.404-.032-.138,0,.121.012.242.012.364,0,.217-.089.533-.039.74l.049-.353c-.014.093-.03.186-.049.279-.032.159-.07.316-.114.471-.031.109-.065.217-.102.324l-.046.126c-.093.235-.064.166.087-.206-.131.15-.203.4-.311.571-.057.09-.127.174-.18.266-.154.264.413-.461.097-.137-.165.169-.405.346-.547.532.312-.407.318-.232.074-.07-.072.048-.145.093-.219.137-.113.067-.23.122-.345.185-.407.224.45-.134.147-.057-.242.061-.474.162-.72.22-.092.021-.185.036-.276.057-.257.042-.188.035.21-.023-.098.011-.196.02-.294.026-.251.017-.503.02-.753.008-.127-.006-.315-.057-.437-.035.049-.009.601.115.214.021-.248-.06-.495-.11-.738-.191-.104-.035-.212-.093-.318-.117.621.141.25.105.031-.015-.211-.115-.398-.276-.607-.389.476.258.318.262.183.129-.093-.091-.191-.176-.282-.269-.074-.076-.139-.171-.218-.241-.227-.202.343.511.095.124-.144-.226-.275-.452-.405-.685-.239-.43.18.548.028.074-.028-.088-.062-.174-.09-.262-.071-.227-.073-.639-.196-.83.026.041.051.614.031.199-.008-.151-.022-.302-.025-.454-.003-.124-.002-.248.003-.372.002-.072.006-.144.012-.216.026-.262.013-.191-.037.213.096-.251.109-.561.191-.821.037-.119.126-.271.141-.393l-.132.319c.039-.083.079-.166.122-.247.123-.234.335-.459.439-.697-.208.478-.214.268-.025.063.093-.101.19-.199.291-.292.213-.197.4-.167-.061.022.109-.045.243-.173.344-.236.119-.075.241-.145.366-.21.084-.044.169-.085.255-.124l-.309.13c.204.031.622-.205.842-.252l.147-.029c.26-.043.199-.036-.185.02.066.052.53-.031.629-.033,1.255-.016,2.459-1.092,2.4-2.4-.058-1.286-1.055-2.417-2.4-2.4Z"/><path class="f" d="M274.683,252.501c-3.442.044-6.449,2.179-7.492,5.483-.953,3.019.053,6.621,2.57,8.565,2.533,1.957,6.233,2.204,9.022.609,2.921-1.67,4.087-5.083,3.593-8.288-.578-3.75-4.004-6.323-7.693-6.37-1.256-.016-2.458,1.115-2.4,2.4.059,1.314,1.054,2.383,2.4,2.4.158.002.315.014.473.018.542.013-.55-.13-.032-.006.24.057.48.105.716.183.031.01.223.103.272.098l-.309-.131c.086.039.171.08.255.124.234.122.47.347.71.444-.458-.185-.276-.221-.061-.023.067.062.133.126.197.192.075.077.183.256.275.306-.315-.17-.259-.381-.086-.103.134.215.259.431.383.652.105.187.008.266-.072-.195.03.173.132.356.182.527.063.219.07.482.152.69-.193-.49-.034-.404-.032-.138,0,.121.012.242.012.364,0,.217-.089.533-.039.74l.049-.353c-.014.093-.03.186-.049.279-.032.159-.07.316-.114.471-.031.109-.065.217-.102.324l-.046.126c-.093.235-.064.166.087-.206-.131.15-.203.4-.311.571-.057.09-.127.174-.18.266-.154.264.413-.461.097-.137-.165.169-.405.346-.547.532.312-.407.318-.232.074-.07-.072.048-.145.093-.219.137-.113.067-.23.122-.345.185-.407.224.45-.134.147-.057-.242.061-.474.162-.72.22-.092.021-.185.036-.276.057-.257.042-.188.035.21-.023-.098.011-.196.02-.294.026-.251.017-.503.02-.753.008-.127-.006-.315-.057-.437-.035.049-.009.601.115.214.021-.248-.06-.495-.11-.738-.191-.104-.035-.212-.093-.318-.117.621.141.25.105.031-.015-.211-.115-.398-.276-.607-.389.476.258.318.262.183.129-.093-.091-.191-.176-.282-.269-.074-.076-.139-.171-.218-.241-.227-.202.343.511.095.124-.144-.226-.275-.452-.405-.685-.239-.43.18.548.028.074-.028-.088-.062-.174-.09-.262-.071-.227-.073-.639-.196-.83.026.041.051.614.031.199-.008-.151-.022-.302-.025-.454-.003-.124-.002-.248.003-.372.002-.072.006-.144.012-.216.026-.262.013-.191-.037.213.096-.251.109-.561.191-.821.037-.119.126-.271.141-.393l-.132.319c.039-.083.079-.166.122-.247.123-.234.335-.459.439-.697-.208.478-.214.268-.025.063.093-.101.19-.199.291-.292.213-.197.4-.167-.061.022.109-.045.243-.173.344-.236.119-.075.241-.145.366-.21.084-.044.169-.085.255-.124l-.309.13c.204.031.622-.205.842-.252l.147-.029c.26-.043.199-.036-.185.02.066.052.53-.031.629-.033,1.255-.016,2.459-1.092,2.4-2.4-.058-1.286-1.055-2.417-2.4-2.4Z"/><path class="f" d="M283.452,231.466v11.695c0,1.255,1.104,2.458,2.4,2.4s2.4-1.055,2.4-2.4v-11.695c0-1.255-1.104-2.458-2.4-2.4s-2.4,1.055-2.4,2.4h0Z"/><path class="f" d="M295.913,254.255c-2.665-4.1-5.324-8.204-7.989-12.304-.683-1.051-2.159-1.586-3.284-.861-1.05.677-1.593,2.158-.861,3.284,2.665,4.1,5.324,8.204,7.989,12.304.683,1.051,2.159,1.586,3.284.861,1.05-.677,1.593-2.158.861-3.284h0Z"/><path class="f" d="M283.78,241.951c-2.72,4.199-5.454,8.388-8.174,12.587-.684,1.056-.249,2.697.861,3.284,1.194.631,2.554.266,3.284-.861,2.72-4.199,5.454-8.388,8.174-12.587.684-1.056.249-2.697-.861-3.284-1.194-.631-2.554-.266-3.284.861h0Z"/><path class="f" d="M286.49,240.848c-4.269-.999-8.546-1.966-12.815-2.967-1.22-.286-2.657.379-2.952,1.676-.28,1.228.369,2.646,1.676,2.952,4.269,1.001,8.546,1.969,12.815,2.967,1.22.285,2.657-.379,2.952-1.676.28-1.227-.369-2.646-1.676-2.952h0Z"/><path class="f" d="M296.942,238.13c-3.908.912-7.82,1.806-11.728,2.717-1.224.285-2.064,1.753-1.676,2.952.413,1.278,1.641,1.982,2.952,1.676,3.908-.912,7.82-1.806,11.728-2.717,1.224-.285,2.064-1.753,1.676-2.952-.413-1.278-1.641-1.982-2.952-1.676h0Z"/><path class="e" d="M62.986,202.28c-1.752-2.302-3.396-4.639-5.2-6.844-1.901-2.325-5.588-2.1-7.105.492-3.004,5.132-4.106,10.887-3.224,17.494.782,5.865,2.877,9.529,5.614,13.107,1.667,2.179,6.802,6.928,9.915,6.928s8.248-4.749,9.915-6.928c2.737-3.578,4.832-7.242,5.614-13.107.881-6.607-.221-12.362-3.224-17.494-1.517-2.592-5.203-2.817-7.105-.492-1.804,2.205-3.448,4.542-5.2,6.844Z"/><path class="e" d="M20.044,233.779c-2.763.859-5.521,1.605-8.21,2.546-2.835.992-3.884,4.533-1.967,6.845,3.795,4.578,8.827,7.582,15.336,9.013,5.779,1.271,9.939.555,14.237-.793,2.618-.821,8.836-4.022,9.901-6.948,1.065-2.926-1.641-9.375-3.119-11.687-2.426-3.795-5.153-7.017-10.396-9.758-5.907-3.088-11.692-4.021-17.542-2.953-2.954.539-4.427,3.926-2.893,6.508,1.455,2.449,3.089,4.794,4.653,7.227Z"/><path class="e" d="M36.589,283.952c.114,2.891.121,5.748.334,8.589.224,2.995,3.373,4.925,6.102,3.672,5.404-2.481,9.608-6.563,12.676-12.481,2.723-5.253,3.109-9.456,2.919-13.957-.116-2.741-1.598-9.576-4.148-11.362-2.55-1.786-9.48-.841-12.096-.012-4.294,1.361-8.112,3.161-12.117,7.517-4.511,4.906-6.91,10.253-7.393,16.18-.244,2.993,2.647,5.292,5.537,4.478,2.743-.772,5.43-1.743,8.185-2.624Z"/><path class="e" d="M105.742,233.786c2.763.859,5.521,1.605,8.21,2.546,2.835.992,3.884,4.533,1.967,6.845-3.795,4.578-8.827,7.582-15.336,9.013-5.779,1.271-9.939.555-14.237-.793-2.618-.821-8.836-4.022-9.901-6.948-1.065-2.926,1.641-9.375,3.119-11.687,2.426-3.795,5.153-7.017,10.397-9.758,5.907-3.088,11.692-4.021,17.542-2.953,2.954.539,4.427,3.926,2.893,6.508-1.455,2.449-3.089,4.794-4.653,7.227Z"/><path class="e" d="M89.194,283.952c-.114,2.891-.121,5.748-.334,8.589-.224,2.995-3.373,4.925-6.102,3.672-5.404-2.481-9.608-6.563-12.676-12.481-2.723-5.253-3.109-9.456-2.919-13.957.116-2.741,1.598-9.576,4.148-11.362,2.55-1.786,9.48-.841,12.096-.012,4.294,1.361,8.112,3.161,12.117,7.517,4.511,4.906,6.91,10.253,7.393,16.18.244,2.993-2.647,5.292-5.537,4.479-2.743-.772-5.43-1.743-8.185-2.624Z"/><path class="f" d="M65.058,201.069c-1.805-2.381-3.517-4.845-5.426-7.146-1.416-1.707-3.607-2.676-5.831-2.456-5.04.497-7.089,6.194-8.16,10.45-2.358,9.365-.06,19.706,6.299,26.996,1.29,1.479,2.778,2.781,4.335,3.97s3.316,2.353,5.255,2.792c4.038.915,7.947-2.346,10.686-4.904,6.791-6.339,9.879-15.885,8.79-25.046-.337-2.839-1.056-5.525-2.194-8.147-1.081-2.492-2.414-4.939-5.159-5.828-2.33-.755-4.947-.126-6.731,1.529-1.096,1.016-1.959,2.378-2.856,3.568-1.058,1.402-2.091,2.822-3.152,4.222-.783,1.034-.163,2.684.861,3.284,1.231.72,2.498.175,3.284-.861,1.416-1.868,2.772-3.783,4.229-5.619.911-1.147,1.716-1.977,2.951-1.536,1.127.403,1.788,2.193,2.305,3.379.778,1.786,1.303,3.718,1.605,5.641,1.126,7.177-.949,15.072-5.678,20.35-1.813,2.024-4.419,4.521-6.934,5.246-.157.045-.329.095-.493.12.123-.019.376-.003-.058-.016-.344-.01.075.09-.426-.07-.612-.196-1.045-.385-1.672-.75-1.41-.82-2.67-1.853-3.854-2.969-5.16-4.864-7.686-11.839-7.457-19.066.071-2.231.448-4.415,1.132-6.541.303-.942.662-1.859,1.095-2.748.355-.73.743-1.742,1.335-2.253.868-.748,2.006-.547,2.845.352,1.834,1.966,3.308,4.339,4.93,6.478.782,1.031,2.07,1.571,3.284.861,1.016-.594,1.649-2.244.861-3.284Z"/><path class="f" d="M19.406,231.464c-2.731.843-5.533,1.539-8.21,2.546-2.134.802-3.794,2.374-4.442,4.603-1.373,4.729,3.025,8.41,6.409,10.9,7.697,5.663,18.322,7.227,27.312,4.058,3.491-1.231,7.437-3.264,9.816-6.169,2.696-3.293,1.602-7.624.192-11.265-3.406-8.798-10.7-15.153-19.747-17.787-2.882-.839-5.949-1.241-8.949-1.105-2.687.122-5.672.353-7.605,2.455-1.775,1.931-2.281,4.774-1.277,7.191,1.196,2.879,3.381,5.489,5.066,8.1,1.67,2.587,5.827.183,4.145-2.423-1.296-2.008-2.648-3.981-3.912-6.011-.758-1.217-1.523-2.286-.619-3.472.818-1.074,2.936-.984,4.201-1.04,2.145-.096,4.27.089,6.359.586,7.233,1.719,13.65,6.314,16.947,13.055.673,1.376,1.212,2.818,1.618,4.295.166.604.35,1.358.416,1.876.043.333.038.667.054,1.001.022.457.071.227-.085.731-.006.019-.139.356-.042.138.112-.253-.121.194-.156.239-.23.296-.146.226-.363.462-.458.499-.973.953-1.516,1.356-1.328.984-2.797,1.803-4.288,2.512-2.584,1.23-6.086,2.071-9.218,2.143-3.947.091-8.069-.837-11.64-2.522-1.752-.827-3.455-1.833-4.948-3.072-1.169-.969-3.184-2.472-3.578-3.933-.284-1.049.357-1.975,1.575-2.429,2.53-.943,5.182-1.594,7.761-2.391,2.943-.908,1.687-5.543-1.276-4.629Z"/><path class="f" d="M34.189,283.952c.11,2.911.055,5.854.352,8.753.237,2.311,1.472,4.361,3.545,5.482,4.331,2.34,9.135-1.175,12.385-3.899,7.226-6.057,11.454-15.948,10.484-25.355-.372-3.603-1.253-7.767-3.428-10.742-2.441-3.339-6.776-3.437-10.563-3.052-9.513.968-17.681,6.428-22.591,14.625-1.415,2.362-2.511,4.964-3.166,7.639-.64,2.61-1.306,5.714.051,8.203,1.245,2.283,3.854,3.731,6.454,3.506,1.543-.134,3.049-.722,4.512-1.196,1.671-.542,3.332-1.112,5.004-1.65,2.929-.943,1.676-5.579-1.276-4.629-2.275.732-4.531,1.527-6.818,2.223-1.289.392-2.832.935-3.65-.535-.679-1.222.04-3.375.351-4.646.466-1.902,1.154-3.72,2.085-5.443,3.548-6.57,9.685-11.58,17.085-13.005,1.459-.281,2.93-.423,4.435-.434.623-.004,1.562.025,2.013.09.323.047.635.134.953.207.471.108.164.022.571.214.262.124.503.421.707.735.371.571.686,1.193.935,1.811.593,1.469.991,3.035,1.294,4.587.064.329.121.658.175.989.008.047.084.597.051.332-.028-.221.017.169.017.17.077.775.098,1.554.105,2.333.016,1.791-.093,3.574-.472,5.328-.847,3.907-2.756,7.699-5.271,10.803-1.232,1.521-2.645,2.946-4.218,4.114-.813.603-1.67,1.15-2.552,1.646-.673.379-1.516.948-2.268,1.041-1.078.134-2.004-.711-2.171-1.894-.384-2.727-.214-5.603-.317-8.352-.116-3.079-4.917-3.094-4.8,0Z"/><path class="f" d="M105.104,236.1c2.284.705,4.588,1.347,6.86,2.09,1.273.416,2.34.831,2.513,1.921.201,1.266-1.031,2.316-1.994,3.27-1.247,1.234-2.61,2.306-4.108,3.219-6.552,3.995-14.558,4.888-21.788,2.349-2.341-.822-5.451-2.46-7.336-4.514-.214-.233-.137-.169-.363-.462-.278-.361-.111-.096-.198-.377-.144-.467-.126-.827-.045-1.585.148-1.388.693-3.037,1.227-4.434,2.508-6.568,7.938-11.506,14.478-13.935,2.256-.838,4.62-1.424,7.027-1.57,1.238-.075,2.481-.055,3.717.053.854.075,1.942.083,2.678.567,1.156.761.951,1.988.308,3.062-1.39,2.323-2.941,4.547-4.409,6.82-1.68,2.603,2.473,5.012,4.145,2.423,1.546-2.395,3.292-4.72,4.653-7.227,1.121-2.064,1.251-4.461.174-6.579s-3.094-3.256-5.378-3.6c-2.77-.417-5.499-.455-8.274-.067-9.335,1.307-18.254,7.186-22.441,15.745-1.63,3.332-3.522,7.836-2.487,11.603,1.016,3.697,5.507,6.136,8.71,7.642,8.611,4.047,18.782,3.362,27.066-1.211,2.199-1.214,4.256-2.759,6.039-4.527s3.465-3.721,3.415-6.375c-.046-2.479-1.47-4.835-3.69-5.959-2.824-1.429-6.208-2.04-9.222-2.971-2.958-.913-4.223,3.719-1.276,4.629Z"/><path class="f" d="M86.794,283.952c-.09,2.389-.114,4.78-.243,7.167-.072,1.329-.17,2.619-1.541,3.01-1.134.324-2.668-.769-3.745-1.426-1.517-.925-2.894-2.013-4.153-3.266-5.388-5.362-8.181-12.824-7.495-20.39.043-.471-.003-.089.057-.48.05-.328.107-.654.169-.979.156-.819.345-1.632.568-2.435.394-1.418.877-2.727,1.617-3.992.225-.384.146-.2.393-.531.284-.38.006-.096.287-.264.388-.232.897-.37,1.622-.477,1.276-.188,3.048-.096,4.489.051,7.101.722,13.405,4.846,17.447,10.698,1.243,1.799,2.304,3.737,3.022,5.806.633,1.824,1.449,4.222,1.236,6.184-.151,1.391-1.524,1.899-2.735,1.569-2.686-.732-5.308-1.706-7.957-2.559-2.947-.949-4.209,3.684-1.276,4.629,2.762.889,5.523,2.034,8.359,2.665,2.395.533,4.862-.128,6.578-1.914,1.943-2.023,1.94-4.529,1.564-7.125-.348-2.409-1.05-4.708-2.015-6.939-3.731-8.626-11.798-15.635-21.126-17.376-3.586-.669-8.318-1.302-11.631.644-3.194,1.876-4.385,6.579-5.043,9.946-1.823,9.336,1.303,18.935,7.718,25.878,1.717,1.858,3.723,3.486,5.882,4.803,2.212,1.349,4.641,2.617,7.299,1.95,2.378-.597,4.38-2.572,4.937-4.971.344-1.481.302-3.096.355-4.608.062-1.755.095-3.511.161-5.266.116-3.089-4.684-3.084-4.8,0Z"/><path class="d" d="M267.89,6.655c5.926-1.11,11.941-1.671,17.953-1.671,26.378,0,52.872,10.827,71.774,31.54-20.506,18.175-43.348,38.347-61.463,55.549l-4.466,4.221c1.068,1.575,2.459,3.573,3.439,5.03,1.088,1.618-.156,3.833-1.644,3.833h-15.281c-1.487,0-2.463-2.412-1.378-4.031.783-1.169,1.657-2.514,2.503-3.807-2.246-1.888-5.118-4.303-5.118-4.303-18.038-17.128-40.762-37.2-61.2-55.312,14.73-16.683,34.275-27.189,54.881-31.049Z"/><path class="g" d="M294.194,29.662c-.766-.28-1.527-.411-2.261-.411-.51-1.812-1.856-3.376-3.919-4.131-3.486-1.276-6.884.542-8.041,3.702-.053.144-.099.287-.142.43-.759-.009-1.547.119-2.34.409-3.474,1.271-4.916,4.837-3.752,8.018.524,1.432,1.371,2.547,2.433,3.277-.222,1.112-.141,2.296.275,3.431,1.285,3.513,4.514,5.117,8.081,3.812.475-.174.913-.389,1.315-.637.401.249.839.464,1.315.637,3.567,1.305,6.796-.299,8.081-3.812.416-1.136.497-2.32.275-3.431,1.061-.73,1.909-1.845,2.433-3.277,1.164-3.181-.278-6.746-3.752-8.018Z"/><path class="f" d="M296.683,69.682c-2.857,4.58-5.64,9.205-8.408,13.839-.644,1.079-.277,2.682.861,3.284,1.16.613,2.596.291,3.284-.861,2.768-4.634,5.551-9.26,8.408-13.839.666-1.067.262-2.69-.861-3.284-1.178-.622-2.573-.278-3.284.861h0Z"/><path class="f" d="M270.858,72.105c2.857,4.58,5.64,9.205,8.408,13.839.644,1.078,2.187,1.568,3.284.861,1.084-.699,1.55-2.13.861-3.284-2.768-4.634-5.551-9.26-8.408-13.839-.664-1.064-2.172-1.577-3.284-.861-1.067.688-1.572,2.144-.861,3.284h0Z"/><path class="f" d="M252.026,75.853c14.816-11.819,35.42-14.716,53.106-8.205,4.974,1.831,9.733,4.455,13.922,7.706,1.023.794,2.397.997,3.394,0,.828-.828,1.03-2.595,0-3.394-16.507-12.811-39.156-16.142-58.614-8.359-5.509,2.203-10.565,5.159-15.202,8.858-1.014.809-.844,2.55,0,3.394,1.002,1.002,2.377.811,3.394,0h0Z"/><path class="f" d="M297.851,93.77c15.546-14.754,31.556-29.014,47.582-43.242,4.624-4.105,9.254-8.205,13.881-12.307,1-.886.834-2.484,0-3.394-14.781-16.126-34.871-27.07-56.434-30.761-21.224-3.633-43.272-.318-62.475,9.438-10.996,5.586-20.913,13.279-29.093,22.504-.82.925-1.017,2.492,0,3.394,16.314,14.457,32.661,28.883,48.701,43.645,4.194,3.859,8.364,7.744,12.498,11.668,2.24,2.126,5.64-1.262,3.394-3.394-15.508-14.719-31.479-28.945-47.467-43.138-4.575-4.061-9.154-8.117-13.733-12.174v3.394c13.919-15.696,32.739-26.373,53.336-30.34,19.988-3.849,41.146-1.019,59.438,7.907,10.739,5.24,20.367,12.445,28.44,21.252v-3.394c-16.351,14.493-32.737,28.951-48.818,43.745-4.243,3.904-8.463,7.834-12.646,11.803-2.245,2.131,1.153,5.521,3.394,3.394h0Z"/><path class="f" d="M294.832,27.348c-.939-.314-1.909-.467-2.899-.497l2.314,1.762c-1.147-3.706-4.554-6.282-8.465-6.302-3.94-.02-7.067,2.673-8.266,6.303l2.314-1.762c-3.897.071-7.517,2.488-8.579,6.33-1.035,3.744.653,7.616,3.709,9.847l-1.103-2.71c-.597,3.629.729,7.46,3.923,9.491,2.841,1.807,6.448,1.477,9.274-.175h-2.423c2.826,1.652,6.432,1.983,9.274.175,3.193-2.031,4.52-5.862,3.923-9.491l-1.103,2.71c2.659-1.942,4.334-5.114,3.954-8.458-.395-3.471-2.667-5.97-5.846-7.224-1.206-.476-2.635.522-2.952,1.676-.374,1.363.466,2.475,1.676,2.952,2.845,1.122,3.19,5.123.746,6.908-.953.696-1.293,1.557-1.103,2.71.263,1.596-.625,3.446-1.968,4.226-1.248.724-2.825.46-4.177-.33-.741-.433-1.682-.433-2.423,0-1.351.79-2.929,1.055-4.177.33-1.343-.78-2.23-2.63-1.968-4.226.192-1.165-.16-2.022-1.103-2.71-3.24-2.366-1.364-7.163,2.448-7.232,1.102-.02,1.977-.739,2.314-1.762,1.181-3.579,6.34-3.666,7.473-.002.321,1.039,1.231,1.729,2.314,1.762.575.017,1.075.143,1.623.326,2.937.981,4.196-3.653,1.276-4.629Z"/><path class="f" d="M289.195,96.882c1.075,1.6,2.178,3.181,3.264,4.774.248.363.512.723.731,1.105-.004-.008-.115-.254-.057-.273l.007.237c.053-.247.047-.228-.019.055.037-.09.207-.362-.028.058-.246.442-.082.028.052-.011.35-.1-.552.11.099-.036.024-.005.243-.019.228-.033-.139-.132-1.041,0-1.223,0h-12.48c-.42,0-1.092-.132-1.496,0-.118.039-.268-.19.208.037.181.086.259.131.424.263-.156-.165-.18-.181-.071-.047.104.143.091.113-.039-.089l.069.189c-.038-.102-.069-.206-.093-.312-.038-.171-.039-.141-.001.092-.01-.151-.009-.301.004-.452-.039.303-.064.071.052-.037-.27.251.165-.203.233-.307,1.291-1.985,2.59-3.966,3.905-5.936.72-1.078.21-2.657-.861-3.284-1.177-.689-2.562-.22-3.284.861-1.315,1.969-2.609,3.954-3.905,5.936-1.322,2.022-1.286,4.853.46,6.646,1.545,1.587,3.85,1.239,5.859,1.239h11.12c.654,0,1.327.041,1.971-.099,2.979-.647,4.385-4.259,3.117-6.891-.519-1.077-1.329-2.055-2.004-3.038-.702-1.021-1.405-2.042-2.096-3.071-.722-1.075-2.115-1.545-3.284-.861-1.066.624-1.587,2.203-.861,3.284h0Z"/><path class="g" d="M119.008,21.876c-3.058-.291-5.946-.542-8.672-.647.685,1.464,1.906,4.377,2.564,7.722.395,1.989.676,4.594.866,6.871.929-.968,1.661-1.73,1.661-1.73,2.934-3.084,5.733-6.905,7.753-10.652.166-.308.323-.708.107-.983-.167-.213-.478-.214-.748-.24-1.202-.116-2.379-.232-3.532-.341Z"/><path class="h" d="M112.9,28.951c.886,4.463,1.199,12.028,1.199,12.028,0,1.44-.131,3.032-.403,4.735h-2.166c-2.337,0-4.543.907-6.366,2.045-1.763,1.098-3.173,2.428-3.989,3.375-14.596,16.994-18.001,28.417-33.011,35.227-1.541.695-3.123,1.279-4.724,1.793-5.047,1.592-10.295,2.549-15.533,2.77-9.197-.413-18.273-3.506-25.808-8.311-10.174-6.487-17.88-17.286-19.623-29.576-.161-1.169-.091-2.438.292-3.485.907-2.468,3.264-2.367,5.158-2.186,11.343,1.078,22.081-7.545,31.157-17.669,3.717-4.14,7.293-8.401,10.96-12.572,3.354-3.808,6.91-7.555,11.252-10.245,5.923-3.667,12.511-4.604,19.351-4.473,5.168.111,10.355,1.199,15.775,4.09,2.921,1.551,5.158,3.475,7.464,5.853,2.065,2.125,3.747,4.231,5.953,7.867,0,0,2.115,3.919,3.062,8.734Z"/><path class="d" d="M63.44,88.152c1.602-.514,3.183-1.098,4.724-1.793,15.009-6.81,18.414-18.233,33.011-35.227.816-.947,2.226-2.277,3.989-3.375,1.823-1.138,4.029-2.045,6.366-2.045h2.166c-1.38,8.542-6.417,20.006-17.125,30.442-10.768,10.497-31.258,15.745-46.529,14.828-.715,0-1.43-.02-2.136-.06,5.238-.222,10.486-1.179,15.533-2.77Z"/><path class="f" d="M45.761,93.379c11.705-.108,23.892-3.271,33.012-10.862,7.463-6.212,12.513-14.938,18.339-22.579,2.011-2.637,4.043-5.385,6.36-7.763,2.113-2.168,4.959-3.985,8.061-4.067,3.083-.081,3.095-4.881,0-4.8-3.153.083-6.127,1.265-8.665,3.106-2.425,1.76-4.254,3.99-6.133,6.301-3.59,4.415-6.913,9.028-10.251,13.633-2.599,3.586-5.245,7.16-8.39,10.293-3.191,3.18-6.879,5.693-10.976,7.568-6.587,3.014-14.155,4.303-21.359,4.369-3.087.028-3.095,4.829,0,4.8h0Z"/><path class="f" d="M50.045,93.379c12.348.703,25.283-1.987,36.382-7.417,11.714-5.732,20.901-16.395,26.084-28.275,2.295-5.26,3.965-10.923,3.993-16.705.015-3.089-4.785-3.093-4.8,0-.021,4.435-1.149,8.774-2.852,13.102-2.247,5.708-5.637,11.049-9.609,15.706-3.929,4.607-8.27,8.369-13.628,11.207-5.195,2.753-10.827,4.636-16.556,5.918-6.228,1.394-12.636,2.027-19.014,1.664-3.086-.176-3.076,4.625,0,4.8h0Z"/><path class="f" d="M111.915,19.003c-3.444-5.616-7.908-10.984-13.717-14.27C91.632,1.019,84.222-.316,76.744.062c-7.369.372-14.164,2.55-20.007,7.12-5.911,4.623-10.571,10.766-15.461,16.401-4.728,5.448-9.564,10.967-15.426,15.238-4.893,3.565-10.609,6.467-16.812,6.22-2.714-.108-5.547-.458-7.494,1.905-2.417,2.932-1.475,7.164-.648,10.521,1.536,6.234,4.572,11.988,8.562,16.992,9.582,12.016,25.355,18.849,40.588,18.921,3.089.015,3.093-4.785,0-4.8-12.517-.059-25.368-5.114-34.171-14.099-3.965-4.047-7.182-8.922-9.123-14.258-.947-2.603-2.051-5.724-1.956-8.528.035-1.049.258-1.777.956-1.951.801-.2,2.243.055,3.286.097,12.856.511,23.745-9.548,31.744-18.446,4.878-5.427,9.404-11.201,14.503-16.426,4.669-4.784,9.954-8.304,16.603-9.56,6.957-1.314,14.639-.82,21.14,2.085,6.423,2.87,11.12,8.023,14.744,13.932,1.612,2.629,5.766.22,4.145-2.423h0Z"/><path class="f" d="M97.342,24.4c-1.778.162-2.882,1.651-2.735,3.262.164,1.803,1.532,2.931,3.284,2.771,1.819-.165,2.893-1.527,2.73-3.318-.148-1.623-1.507-2.876-3.279-2.715Z"/><path class="f" d="M49.676,40.061c2.355-3.147,7.345-1.268,9.707.777,3.211,2.78,4.658,7.359,4.173,11.522-.539,4.632-3.078,8.583-6.203,11.914-2.975,3.17-6.543,5.782-10.771,6.962-5.497,1.535-11.075,1.206-16.456-.62-2.932-.995-4.19,3.64-1.276,4.629,5.944,2.017,12.268,2.35,18.361.792,5.394-1.379,10.072-4.583,13.806-8.66,3.99-4.357,6.946-9.496,7.378-15.495.396-5.503-1.874-11.49-6.245-14.95-4.983-3.944-12.448-4.867-16.62.707-.777,1.038-.168,2.682.861,3.284,1.226.717,2.505.18,3.284-.861h0Z"/><path class="f" d="M110.893,23.653c2.072.096,4.139.259,6.204.445,1.1.099,2.199.205,3.298.311.545.053,1.09.106,1.635.159.965.093.881.327-.17-1.016-.779-.361-1.03-.802-.752-1.323-.071.132-.143.264-.215.395-1.011,1.83-2.152,3.589-3.387,5.275-.139.19-.28.379-.421.567-.034.045-.44.572-.197.261-.336.43-.679.855-1.028,1.274-.683.821-1.394,1.618-2.128,2.394-.864.912-.973,2.501,0,3.394.936.86,2.472.974,3.394,0,1.789-1.89,3.43-3.922,4.939-6.041.679-.953,1.326-1.928,1.937-2.925.702-1.146,1.723-2.506,1.776-3.887.042-1.075-.462-2.092-1.395-2.656-.711-.43-1.552-.435-2.352-.512-1.242-.12-2.485-.242-3.727-.359-2.466-.231-4.935-.442-7.41-.557-1.256-.058-2.456,1.146-2.4,2.4.06,1.35,1.055,2.338,2.4,2.4h0Z"/><path class="f" d="M97.342,22c-.557.058-1.1.121-1.619.332-.713.291-1.235.585-1.822,1.099-.751.657-1.338,1.676-1.551,2.65-.229,1.047-.216,2.198.176,3.207.271.698.556,1.192,1.027,1.774.311.384.712.692,1.12.966.842.566,1.964.84,2.97.818,1.035-.023,2.159-.291,3.021-.885,1.011-.696,1.687-1.595,2.102-2.748.173-.482.234-1.023.265-1.528.033-.543-.043-1.121-.166-1.645-.577-2.45-3.012-4.237-5.523-4.041-.644.05-1.228.234-1.697.703-.416.416-.73,1.099-.703,1.697.028.621.232,1.264.703,1.697.448.411,1.067.752,1.697.703.257-.02.511-.015.767.019l-.638-.086c.239.038.469.101.695.189l-.573-.242c.239.102.46.228.668.384l-.486-.375c.201.159.379.337.537.538l-.375-.486c.155.207.281.427.384.664l-.242-.573c.099.246.168.498.209.76l-.086-.638c.042.322.044.644.006.966l.086-.638c-.039.274-.106.536-.209.792l.242-.573c-.095.22-.212.424-.356.616l.375-.486c-.148.187-.314.352-.503.499l.486-.375c-.199.147-.41.266-.638.364l.573-.242c-.273.109-.553.181-.844.223l.638-.086c-.325.04-.646.043-.97,0l.638.086c-.25-.039-.49-.104-.724-.199l.573.242c-.224-.097-.432-.217-.627-.364l.486.375c-.191-.152-.36-.322-.51-.515l.375.486c-.15-.203-.273-.419-.373-.65l.242.573c-.112-.277-.185-.56-.229-.855l.086.638c-.037-.296-.04-.587-.003-.883l-.086.638c.039-.256.106-.502.202-.743l-.242.573c.101-.235.227-.453.38-.659l-.375.486c.16-.203.339-.382.542-.542l-.486.375c.192-.143.395-.261.613-.359l-.573.242c.26-.109.527-.182.806-.226l-.638.086c.058-.008.117-.015.176-.021.653-.068,1.216-.222,1.697-.703.416-.416.73-1.099.703-1.697-.028-.621-.232-1.264-.703-1.697-.441-.405-1.075-.768-1.697-.703Z"/><path class="f" d="M64.368,87.059c-.669,3.19-1.482,6.356-2.379,9.489-.325,1.133-.497,2.234.103,3.324.542.985,1.467,1.684,2.554,1.967.89.231,1.914.157,2.828.203.779.04,1.559.085,2.339.104,1.256.03,2.457-1.126,2.4-2.4-.059-1.326-1.054-2.367-2.4-2.4s-2.689-.19-4.032-.177c-.507.005.451.17-.017,0l.279.117c-.176-.111-.179-.108-.011.01.076.098.407.551.233.22-.002-.004.348,1.051.154.988-.002,0,.504-1.772.552-1.945.75-2.721,1.445-5.462,2.024-8.224.257-1.225-.359-2.652-1.676-2.952-1.203-.274-2.677.362-2.952,1.676h0Z"/></g></svg>