<svg xmlns="http://www.w3.org/2000/svg" width="342.977" height="311.563" viewBox="0 0 342.977 311.563" style="color: initial !important;"><defs><style>.a{fill:#ffffff;}.b{fill:#6e6867;}.c{fill:#211715;}.d{fill:#febe69;}.e{fill:#f8b8b4;}</style></defs><path class="a" d="M325.2,289.7c0-2.313-2.584-5.508-6.122-6.873-4.833-1.866-9.654-3.079-14.419-4.868a27.429,27.429,0,0,1-5.36-2.442c-3.3-2.15-5.523-5.728-7.512-9.344a25.762,25.762,0,0,0,6.507-1.588c4.8-1.948,8.5-5.732,11.625-9.681a74.5,74.5,0,0,0,15.216-34.37c.634-4-3.435-7.164-7.551-5.9l-29.8,9.132a34.383,34.383,0,0,0-6.343,2.421l1.633-9.3a136.98,136.98,0,0,0,1.847-15.885c.338-6.268-5.195-6.249-8.767-4.117-4.42,2.638-8.3,5.593-13.14,8.62-3.317,2.072-7.349,4.4-9.6,7.6a23.94,23.94,0,0,0-3.337,8.267c-1.03,4.179-1.873,7.426-3.51,12.272a62.2,62.2,0,0,0-7.326-4.444c-6.486-3.26-16.946-1.773-21.336,4.609a14.174,14.174,0,0,0-.388,12.357,21.069,21.069,0,0,0,6.983,8c4.06,2.714,7.243,7.772,8.855,11.006,2.542,5.1,13.961,33.22,49.1,23.172,1.1,9.088,15.322,19.415,21.029,12.205,5.454,4.7,13.87,1.58,17.355-.648a19.028,19.028,0,0,0,3.28-4.461A17.738,17.738,0,0,0,325.2,289.7Z"/><path class="b" d="M270.953,44.944c-26.473,0-42.989,5.085-43.456,12.295-.714,8.3-1.845,18.69-2.452,27.231.217,8.023,23.75,16.513,45.909,16.513,23.85,0,45.69-8.49,45.907-16.513-.608-8.541-1.739-18.935-2.452-27.231C313.941,50.029,297.425,44.944,270.953,44.944Z"/><path class="c" d="M270.953,42.544c-10.1.011-20.456.541-30.286,3.033-5.093,1.291-12,3.377-14.659,8.416a9.061,9.061,0,0,0-.946,3.642c-.229,2.673-.485,5.343-.741,8.013-.541,5.652-1.1,11.3-1.538,16.965a8.974,8.974,0,0,0,.709,5.065,11.806,11.806,0,0,0,2.724,3.412,34.711,34.711,0,0,0,10.094,5.867,91.22,91.22,0,0,0,30.672,6.337A97.819,97.819,0,0,0,300.1,99.172,51.386,51.386,0,0,0,312.015,94c2.528-1.576,5.2-3.632,6.472-6.415a9.764,9.764,0,0,0,.62-5.183c-.215-2.763-.461-5.523-.716-8.282-.516-5.562-1.056-11.122-1.565-16.684-.526-5.745-5.924-8.606-10.812-10.4-8.315-3.057-17.54-3.879-26.322-4.292-2.911-.136-5.825-.194-8.739-.2-3.089,0-3.094,4.8,0,4.8,9.391.01,18.955.461,28.124,2.644a38,38,0,0,1,8.529,2.931c.515.269,1.02.556,1.508.869.24.154.473.317.707.479.52.361-.1-.134.356.284.325.3.635.6.94.913.329.341.277.362.148.163q.195.3.388.6c.113.176.34.808.087.107.061.168.125.333.174.505.026.09.178.787.094.323-.078-.441,0-.017,0,.072.017.333.057.666.087,1,.224,2.545.466,5.089.709,7.632.5,5.228,1.016,10.456,1.435,15.692a29.815,29.815,0,0,1,.2,3.227c.019-.661.008-.065-.06.155-.062.2-.372.9-.11.38-.123.242-.245.481-.388.713-.072.118-.56.8-.235.381a12.016,12.016,0,0,1-1.313,1.4,18.339,18.339,0,0,1-3.466,2.474,38.79,38.79,0,0,1-4.788,2.369c-9.09,3.759-19.13,5.429-28.916,5.834a94.433,94.433,0,0,1-30.421-3.666,54.54,54.54,0,0,1-11.24-4.488c-.746-.416-1.478-.857-2.187-1.334a11.958,11.958,0,0,1-1.531-1.157,14.786,14.786,0,0,1-1.41-1.411c-.063-.072-.282-.362,0,.01-.077-.1-.158-.209-.226-.317-.166-.263-.321-.526-.471-.8-.208-.374,0,.016.026.093a4.018,4.018,0,0,1-.141-.4c-.055-.2-.114-.932-.1-.241a30.634,30.634,0,0,1,.2-3.229c.211-2.631.447-5.259.691-7.886.486-5.214,1.014-10.423,1.471-15.639.031-.352.062-.7.094-1.057-.071.794-.019.137.053-.071.066-.189.123-.38.191-.568-.208.578-.024.084.122-.169.1-.166.207-.322.311-.483.212-.333-.074.088-.108.128.082-.1.16-.2.247-.293a15.1,15.1,0,0,1,1.124-1.082c.28-.249-.315.2.223-.173.207-.143.413-.289.625-.426a19.778,19.778,0,0,1,1.783-1.021,22.643,22.643,0,0,1,3.531-1.461c7.864-2.69,16.377-3.472,24.629-3.838,2.765-.122,5.533-.174,8.3-.177C274.041,47.34,274.047,42.54,270.953,42.544Z"/><path class="b" d="M339.494,46.339c-21.587-6.538-42.179-11.951-64.909-18.282a13.7,13.7,0,0,0-7.346-.006c-12.6,3.508-49.547,13.828-64.81,18.286a1.524,1.524,0,0,0,0,2.927c15.263,4.458,52.208,14.779,64.81,18.287a13.7,13.7,0,0,0,7.346-.007c22.73-6.331,43.322-11.743,64.909-18.282A1.529,1.529,0,0,0,339.494,46.339Z"/><path class="c" d="M340.132,44.025c-12.282-3.717-24.635-7.186-37-10.595q-9.207-2.536-18.418-5.061c-3.307-.911-6.6-1.952-9.938-2.744a17.171,17.171,0,0,0-8.673.251q-23.663,6.589-47.3,13.273-5.74,1.627-11.476,3.272-2.361.68-4.721,1.365a5.372,5.372,0,0,0-2.618,1.339,4,4,0,0,0-.9,3.776c.619,2.307,2.943,2.749,4.917,3.321q2.5.723,4.994,1.437,5.914,1.7,11.835,3.368,13.218,3.742,26.45,7.442,5.727,1.6,11.455,3.2c3.037.848,6.122,1.95,9.229,2.5,3.459.61,6.569-.122,9.889-1.043q4.829-1.34,9.659-2.666Q296.9,63.878,306.3,61.3q9.014-2.493,18.006-5.06,4.74-1.359,9.469-2.757,2.041-.6,4.082-1.216c1.447-.435,3.1-.707,4.147-1.883,2.012-2.257.677-5.35-1.87-6.355a2.419,2.419,0,0,0-2.953,1.676,2.458,2.458,0,0,0,1.677,2.953.877.877,0,0,1-.4-1.484c.352-.47.5-.19-.055-.084a11.817,11.817,0,0,0-1.139.343q-2.267.682-4.538,1.355-4.28,1.267-8.57,2.5-8.648,2.489-17.323,4.882t-17.343,4.772q-4.557,1.251-9.113,2.508-2.256.624-4.512,1.25a19.366,19.366,0,0,1-4.487.944c-3.184.111-6.494-1.239-9.538-2.088q-5.122-1.429-10.243-2.862-12.423-3.477-24.839-6.978-10.913-3.081-21.808-6.216c-.255-.074-1.684-.678-1.88-.547.5-.332.655,1.006.518,1.251-.156.279-.79.415-.319.392a3.027,3.027,0,0,0,.613-.179q2.172-.632,4.346-1.256,5.309-1.527,10.622-3.031,23.02-6.534,46.077-12.939a35.877,35.877,0,0,1,4.318-1.128c2.952-.435,5.724.6,8.527,1.373q8.96,2.483,17.93,4.934c11.533,3.167,23.062,6.35,34.537,9.718q4.316,1.266,8.62,2.569C341.819,49.55,343.085,44.919,340.132,44.025Z"/><path class="c" d="M201.589,55.778q-.871,10.523-1.9,21.032a2.417,2.417,0,0,0,2.4,2.4,2.453,2.453,0,0,0,2.4-2.4q1.011-10.509,1.9-21.032a2.419,2.419,0,0,0-2.4-2.4,2.45,2.45,0,0,0-2.4,2.4Z"/><path class="d" d="M203.3,83.239c.57,2.96,1.787,7.444,1.89,7.968a5.007,5.007,0,0,1,.057,2.425c-1.571,4.758-3.244,8.844-4.986,13.283a1.168,1.168,0,0,1-2.117-.068c-1.15-4.6-2.311-10.631-2.538-11.986a5.694,5.694,0,0,1,.17-2.664c.82-2.185,2.892-6.761,4.007-9.231"/><path class="d" d="M201.879,74.431a4.4,4.4,0,0,0-4.485,4.458,4.325,4.325,0,0,0,4.485,4.541,4.28,4.28,0,0,0,4.485-4.541A4.395,4.395,0,0,0,201.879,74.431Z"/><path class="c" d="M200.987,83.877c.516,2.63,1.276,5.2,1.855,7.812.358,1.615-.563,3.26-1.105,4.763-.694,1.924-1.43,3.832-2.177,5.736-.373.95-.75,1.9-1.124,2.849a2.359,2.359,0,0,0-.244.619l-.081.206.858-.682a5.2,5.2,0,0,1,1.49,1.029c.052-.085-.151-.61-.177-.718-.423-1.741-.809-3.491-1.178-5.244q-.465-2.2-.888-4.414a6.54,6.54,0,0,1-.219-2.7,25.431,25.431,0,0,1,1.745-4.236c.7-1.579,1.4-3.151,2.114-4.723A2.471,2.471,0,0,0,201,80.894a2.417,2.417,0,0,0-3.283.861c-.759,1.679-1.517,3.358-2.257,5.045a36.229,36.229,0,0,0-2.087,5.06,11.207,11.207,0,0,0,.174,5.01q.512,2.7,1.09,5.391.324,1.513.671,3.022a9.874,9.874,0,0,0,.981,3.158,3.621,3.621,0,0,0,5.939-.112,19.9,19.9,0,0,0,1.326-3.242q.679-1.722,1.35-3.446c.909-2.356,1.862-4.729,2.589-7.149.578-1.925.052-3.818-.425-5.7-.522-2.055-1.039-4.114-1.447-6.2a2.424,2.424,0,0,0-2.953-1.676,2.45,2.45,0,0,0-1.676,2.952Z"/><path class="c" d="M201.879,72.031a6.915,6.915,0,0,0-6.588,4.833,7.034,7.034,0,0,0,2.272,7.51,7.284,7.284,0,0,0,7.911.535,7,7,0,0,0,3.158-7.313,6.84,6.84,0,0,0-6.753-5.565,2.4,2.4,0,1,0,0,4.8c.13,0,.26.011.39.015.483.015-.6-.129-.138-.02.2.047.4.087.591.151.07.023.152.064.225.08-.595-.133-.373-.166-.145-.048.207.108.387.248.586.367-.655-.389-.146-.105.027.074.078.079.146.178.228.252-.432-.387-.261-.369-.137-.17.111.178.215.355.316.538.089.159.084.359-.1-.261.043.147.107.288.149.435.055.188.078.382.126.57-.17-.663-.044-.443-.042-.226,0,.1.01.2.01.3,0,.2-.035.409-.032.611-.012-.673.063-.414.015-.173-.026.131-.057.261-.094.389-.026.09-.053.179-.084.267-.084.238-.267.373.076-.166-.095.15-.161.32-.257.471-.047.075-.1.145-.149.22-.15.247.429-.492.146-.2-.146.151-.307.288-.452.439.452-.47.347-.257.146-.124-.059.039-.119.077-.181.113-.093.055-.19.1-.284.153-.368.2.506-.17.221-.09-.2.056-.391.134-.594.182-.076.017-.153.03-.228.047-.4.091.682-.055.041-.012a5.612,5.612,0,0,1-.622.006,1.206,1.206,0,0,1-.361-.029c-.008,0,.665.124.289.033-.205-.05-.409-.091-.609-.158-.088-.029-.174-.069-.263-.1.7.219.324.138.126.03-.176-.1-.332-.215-.5-.322.644.407.187.14,0-.05-.062-.064-.116-.138-.18-.2-.21-.2.368.535.144.187-.12-.186-.228-.372-.334-.566-.212-.386.2.584.065.161-.023-.072-.051-.143-.074-.216a1.789,1.789,0,0,1-.161-.684c0-.007.059.674.04.275-.006-.125-.018-.249-.021-.374,0-.1,0-.2,0-.307.009-.24.148-.614-.036.109.058-.226.087-.454.158-.678a1.118,1.118,0,0,1,.116-.324l-.151.364c.031-.069.065-.137.1-.2.107-.2.245-.38.362-.575-.348.579-.236.3-.086.137.077-.083.157-.164.24-.241.164-.152.439-.26-.135.083.1-.058.188-.134.284-.195s.2-.119.3-.173c.069-.036.139-.07.211-.1l-.356.15a1.844,1.844,0,0,1,.7-.208c.266-.057.464.045-.142.007.167.01.35-.025.519-.027a2.4,2.4,0,1,0,0-4.8Z"/><path class="b" d="M35.383,128.009c.452,4.612,7.823,8.129,20.977,8.129,14.084,0,21-3.167,21-8.584V10.221c0-4.917-7-7.778-21-7.778-13.208,0-21,2.32-21,7.547V127.554C35.36,127.707,35.368,127.858,35.383,128.009Z"/><path class="c" d="M32.983,128.009c.406,3.5,2.863,5.946,5.945,7.435,4.535,2.19,9.722,2.844,14.7,3.041A55.846,55.846,0,0,0,70.082,137.1c3.25-.87,6.714-2.4,8.537-5.39a8.727,8.727,0,0,0,1.141-4.654q.007-5.243,0-10.485V12.218c0-1.93.057-3.758-.911-5.492A9.2,9.2,0,0,0,75.575,3.5C72.042,1.323,67.591.719,63.545.344a77.176,77.176,0,0,0-17.564.34c-3.735.515-8.041,1.4-10.828,4.158A7.278,7.278,0,0,0,33.011,9.28a86,86,0,0,0-.051,9.141v99.485c0,3.357-.141,6.75.023,10.1.149,3.074,4.95,3.093,4.8,0-.16-3.272-.023-6.582-.023-9.858V14.47c0-1.49-.048-2.99,0-4.48.005-.149.013-.3.021-.448.018-.35-.16.564.007.035.032-.1.062-.225.087-.332s.071-.217.112-.323c-.123.283-.146.344-.067.183.134-.225.256-.452.408-.667-.352.5.25-.224.356-.332.089-.091.193-.173.29-.255-.425.359.092-.062.165-.107.308-.194.616-.385.94-.554A9.627,9.627,0,0,1,42.058,6.4a26.615,26.615,0,0,1,2.88-.714,47.9,47.9,0,0,1,6.832-.741,65.6,65.6,0,0,1,15.619.733c.916.179,1.827.393,2.721.662a11.9,11.9,0,0,1,2.1.782,10.424,10.424,0,0,1,1.61.967c-.456-.34.261.252.354.346s.158.171.239.255c.322.333-.2-.4.085.11.116.212.243.416.356.63-.32-.6.008.139.069.316.21.606.061-.337.039.309-.024.717,0,1.442,0,2.16v112.84c0,.831.021,1.665,0,2.5,0,.146-.018.3-.016.441.01.619.1-.319-.021.131-.058.219-.116.437-.181.654-.161.546.252-.449-.019.054-.054.1-.1.2-.161.3-.078.137-.622.835-.228.381a8.5,8.5,0,0,1-.642.673c-.144.133-.293.261-.447.382.077-.06.372-.261-.006-.01-.3.2-.6.4-.921.571a8.808,8.808,0,0,1-1.9.845,28.982,28.982,0,0,1-5.806,1.309,59.884,59.884,0,0,1-16.009-.03,29.977,29.977,0,0,1-6.338-1.566,11.732,11.732,0,0,1-1.795-.854c-.336-.192-.657-.4-.979-.616-.579-.388.2.176-.116-.081-.158-.131-.313-.265-.462-.406a8.33,8.33,0,0,1-.6-.633c.383.448-.151-.264-.243-.4-.341-.511-.03.224-.17-.359-.046-.193-.2-1.05-.116-.332a2.473,2.473,0,0,0-2.4-2.4A2.414,2.414,0,0,0,32.983,128.009Z"/><path class="c" d="M70.361,10.113c-4.357,1.279-8.892,1.37-13.453,1.392-4.848.024-9.856-.009-14.548-1.32-2.98-.832-4.252,3.8-1.276,4.629,5.094,1.423,10.572,1.517,15.824,1.491,4.9-.024,9.991-.173,14.729-1.563,2.958-.868,1.7-5.5-1.276-4.629Z"/><path class="e" d="M75.124,55.485a13.982,13.982,0,0,0,3.893.218,4.784,4.784,0,0,0,1.6-.36,3.2,3.2,0,0,0,1.26-1.1,8.436,8.436,0,0,0,1.15-4.55,52.817,52.817,0,0,0-.75-11.21,6.4,6.4,0,0,0-.6-2.01,5.57,5.57,0,0,0-4.3-2.46,15.651,15.651,0,0,0-5.14.51,47,47,0,0,0-9.99,3.29l-.911.462c-1.131-1.049-2.026-1.52-4.893-1.52-2.478,0-3.751.488-4.95,1.577l-1.023-.518a47.572,47.572,0,0,0-9.99-3.293,15.893,15.893,0,0,0-5.142-.512,5.582,5.582,0,0,0-4.293,2.461,6.3,6.3,0,0,0-.6,2.013,52.788,52.788,0,0,0-.746,11.21,8.342,8.342,0,0,0,1.149,4.546A3.251,3.251,0,0,0,32.1,55.347,4.733,4.733,0,0,0,33.7,55.7a15.562,15.562,0,0,0,6.094-.779c-3.64,2.73-8.67,6.67-9.45,7.95-2.17,3.53,6.45,8.84,9.85,10.36a5.463,5.463,0,0,0,5.828-1.561c2.67-3.086,7.417-11.562,10.422-16.979,3.286,5.667,7.383,13.456,10.481,17.278a5.186,5.186,0,0,0,5.759,1.262c3.4-1.52,12.02-6.83,9.86-10.36-.78-1.27-5.707-5.138-9.348-7.863A19.793,19.793,0,0,0,75.124,55.485Z"/><path class="c" d="M56.443,50.907c-.289-.012-.575-.031-.863-.054-.8-.065.344.1-.388-.057-.439-.1-.861-.215-1.291-.342-.6-.178.376.234-.137-.057-.1-.059-.21-.108-.312-.167-.144-.084-.277-.183-.419-.269.552.335.045.026-.091-.111-.053-.053-.27-.231-.278-.307.023.224.274.436.074.067a3.492,3.492,0,0,0-.177-.316c-.223-.33.153.272.1.261-.077-.015-.18-.571-.2-.645-.038-.156-.069-.313-.1-.47-.024-.134-.108-.909-.044-.244a25,25,0,0,1-.015-4.9c.007-.066.1-.79.019-.229.03-.211.063-.421.1-.63.071-.4.156-.792.261-1.182.081-.3.182-.586.281-.877.181-.529-.276.4.026-.037.113-.164.179-.359.306-.516-.42.518.034.079.128,0-.435.386-.009.014.1-.053.126-.081.259-.148.387-.225s.509-.188.009-.02a8.681,8.681,0,0,1,1.162-.307c-.537.1.232-.02.286-.024.357-.026.716-.035,1.074-.036.452,0,.906.01,1.357.046.087.006.811.137.228.017.183.038.365.07.546.118.161.044.316.1.475.153-.6-.188-.175-.079-.021.019a2.195,2.195,0,0,0,.313.2q.22.153-.185-.153c.08.064.159.13.236.2a3.492,3.492,0,0,0,.361.329c-.342-.233-.16-.294-.01-.01.072.137.142.28.218.415-.3-.543-.039-.094.016.059a13.756,13.756,0,0,1,.551,2.311c.119.7-.035-.494.028.222.019.22.045.44.062.66q.045.555.064,1.111a23.5,23.5,0,0,1-.06,2.771c-.011.13-.027.259-.037.389q-.05.42.017-.083c-.016.117-.034.233-.054.349a8.092,8.092,0,0,1-.215.971c-.029.1-.075.2-.1.294-.085.371.282-.5.067-.166-.062.1-.108.211-.169.311-.042.07-.087.14-.133.207q-.215.3.141-.178c.005.061-.237.255-.277.3-.411.465.254-.1-.085.095-.116.067-.225.147-.341.215s-.705.322-.142.1a6.316,6.316,0,0,1-2.853.482,2.4,2.4,0,0,0,0,4.8A9.839,9.839,0,0,0,63.1,53.551a6.883,6.883,0,0,0,2.076-4,23.523,23.523,0,0,0,.2-6.254c-.2-1.983-.5-4.279-1.691-5.949a7.55,7.55,0,0,0-5.655-2.925,11.048,11.048,0,0,0-6.93,1.2,7.5,7.5,0,0,0-3.247,5.232,24.54,24.54,0,0,0-.408,6.564,8.955,8.955,0,0,0,1.909,5.622c1.759,1.98,4.561,2.558,7.086,2.667a2.4,2.4,0,1,0,0-4.8Z"/><path class="c" d="M38.585,52.851c-1.976,1.485-3.94,2.989-5.859,4.548a26.791,26.791,0,0,0-3.924,3.56c-2.646,3.219-.268,6.931,2.349,9.254a32.3,32.3,0,0,0,4.862,3.514,14,14,0,0,0,4.576,2.095,8.066,8.066,0,0,0,6.887-2.189,26.417,26.417,0,0,0,3.265-4.419c2.8-4.308,5.287-8.82,7.778-13.31,1.5-2.7-2.644-5.127-4.145-2.422-1.894,3.413-3.8,6.823-5.817,10.165-.935,1.55-1.891,3.09-2.919,4.58-.214.31-.431.618-.654.922-.1.139-.2.28-.31.416.2-.26-.038.043-.067.078a3.817,3.817,0,0,1-1.684,1.3,3.264,3.264,0,0,1-1.6.145c-.393-.065.059.076-.45-.18-.308-.156-.618-.309-.924-.472a34.733,34.733,0,0,1-3.876-2.4,15.762,15.762,0,0,1-3.053-2.766c-.031-.04-.31-.484-.423-.663-.28-.441-.028.023-.148-.32-.173-.491-.048.026-.032.055-.065-.116.031-.264-.01-.38.051.145-.122.408.049.072.125-.246-.332.371-.1.13.113-.117.218-.241.331-.358.258-.268.531-.522.8-.772.715-.655,1.459-1.279,2.208-1.894,1.735-1.426,3.516-2.8,5.311-4.144a2.475,2.475,0,0,0,.861-3.283,2.417,2.417,0,0,0-3.284-.861Z"/><path class="c" d="M71.985,57.075a68.1,68.1,0,0,1,8.206,6.714c.095.1.184.2.281.3.219.218.137-.009-.068-.108.031.015.1.2.119.193.09-.012-.063-.191-.024-.036.083.331-.149-.378-.011-.08.079.172,0-.039.048-.16-.044.116-.057.267-.093.39-.123.421.089-.133-.042.12a9.319,9.319,0,0,1-2.51,2.8,27.119,27.119,0,0,1-3.564,2.449c-.562.333-1.132.653-1.712.953q-.345.178-.695.346c-.057.028-.448.2-.183.093s-.413.114-.4.111a2.879,2.879,0,0,1-2.881-1.095,45.346,45.346,0,0,1-2.888-4.332c-2.465-4.015-4.691-8.172-7.05-12.249-1.546-2.673-5.7-.259-4.145,2.422,2.455,4.243,4.763,8.574,7.352,12.739a30.8,30.8,0,0,0,3.724,5.273,7.44,7.44,0,0,0,5.986,2.054,12.166,12.166,0,0,0,4.717-1.824,35.63,35.63,0,0,0,4.783-3.26c2.529-2.045,5.708-5.583,3.781-9.049a15.139,15.139,0,0,0-3.8-3.818c-2.12-1.758-4.31-3.434-6.512-5.088a2.416,2.416,0,0,0-3.284.861,2.458,2.458,0,0,0,.861,3.283Z"/><path class="c" d="M51.682,35.742a45.583,45.583,0,0,0-11.93-3.815c-4.435-.815-10.145-.11-11.451,5.06a40.564,40.564,0,0,0-.947,7.3,38.675,38.675,0,0,0,.078,7.105c.287,2.32,1.171,4.709,3.3,5.941,2,1.156,4.787.908,6.974.554a39.081,39.081,0,0,0,7.2-2.234,54.967,54.967,0,0,0,7.11-3.09c2.718-1.469.3-5.615-2.423-4.145a59.491,59.491,0,0,1-9.966,4.043,15.3,15.3,0,0,1-4.953.885,3.173,3.173,0,0,1-1.686-.267,2.926,2.926,0,0,1-.725-1.655,23.349,23.349,0,0,1-.191-5.266,47.9,47.9,0,0,1,.483-5.8c.212-1.424.211-2.916,1.639-3.586a7.391,7.391,0,0,1,4.479-.184,41.4,41.4,0,0,1,10.587,3.294,2.46,2.46,0,0,0,3.284-.861,2.423,2.423,0,0,0-.861-3.283Z"/><path class="c" d="M63.458,39.885a39.964,39.964,0,0,1,8.968-2.949c2.185-.492,6.686-1.6,7.4,1.495a41.941,41.941,0,0,1,.781,11.6c-.049.875-.092,2.572-.933,3.117a4.484,4.484,0,0,1-2.2.2,11.952,11.952,0,0,1-2.439-.332A49.628,49.628,0,0,1,69.271,51.1a49.2,49.2,0,0,1-5.453-2.314,2.456,2.456,0,0,0-3.284.861,2.425,2.425,0,0,0,.861,3.283,57.418,57.418,0,0,0,6.244,2.667,49.455,49.455,0,0,0,6.3,2.094,14.179,14.179,0,0,0,6.855.138,6.539,6.539,0,0,0,4.289-5.12,28.126,28.126,0,0,0,.358-6.748,57.6,57.6,0,0,0-.781-7.7,7.28,7.28,0,0,0-3.289-5.391,10.278,10.278,0,0,0-6.585-1.212,42.731,42.731,0,0,0-13.753,4.085,2.4,2.4,0,1,0,2.423,4.144Z"/><path class="e" d="M101.286,243.493l-.842,2.059,6.737,4.586c1.595,1.086,3.337,2.458,3.168,4.314a5.6,5.6,0,0,1-1.542,2.88,36.058,36.058,0,0,1-22.449,11.819c6.391,6.2,10.606,14.952,11,23.5a5.6,5.6,0,0,1-.536,3.224c-1,1.573-3.216,1.6-5.143,1.483l-8.135-.479-2.159,7.859c-.512,1.86-1.245,3.953-3.056,4.394a5.6,5.6,0,0,1-3.225-.527c-7.988-3.131-14.943-9.963-18.752-18.035-3.8,8.074-10.758,14.9-18.745,18.035a5.6,5.6,0,0,1-3.225.527c-1.811-.441-2.545-2.534-3.056-4.394l-2.159-7.859-8.135.479c-1.927.113-4.144.09-5.143-1.483a5.589,5.589,0,0,1-.536-3.224c.4-8.546,4.614-17.3,11.005-23.5A36.058,36.058,0,0,1,3.914,257.332a5.6,5.6,0,0,1-1.542-2.88c-.17-1.856,1.573-3.228,3.168-4.314l6.737-4.586-3.086-7.543c-.731-1.786-1.427-3.892-.261-5.346a5.6,5.6,0,0,1,2.876-1.551c8.431-2.451,18.37-1.171,26.415,3.131-2.014-9.106-.412-19.287,4.478-26.828a5.591,5.591,0,0,1,2.314-2.307c1.728-.7,3.544.576,5.043,1.791l6.334,5.129,6.333-5.129c1.5-1.215,3.315-2.488,5.044-1.791a5.6,5.6,0,0,1,2.314,2.307c4.883,7.531,6.487,17.7,4.484,26.794,8.034-4.275,17.942-5.541,26.35-3.1a5.6,5.6,0,0,1,2.876,1.551c1.166,1.454.47,3.56-.261,5.346Z"/><path class="c" d="M98.972,242.855l-.842,2.059a2.422,2.422,0,0,0,1.1,2.71l4.755,3.238c1.175.8,2.919,1.623,3.741,2.841.615.91-.538,1.856-1.127,2.515a31.242,31.242,0,0,1-3.528,3.364,34.964,34.964,0,0,1-17.354,7.255c-1.847.252-2.223,2.87-1.059,4.011a34.818,34.818,0,0,1,9.589,16.806,27.044,27.044,0,0,1,.692,4.607c.061,1.026.367,2.339-.815,2.636a15.084,15.084,0,0,1-4.357-.054l-6.221-.366a2.427,2.427,0,0,0-2.315,1.762l-1.651,6.01c-.351,1.278-.547,3.087-1.393,4.164-.682.869-2.046.054-2.906-.312a29.677,29.677,0,0,1-4.328-2.315,34.936,34.936,0,0,1-12.527-14.429,2.413,2.413,0,0,0-4.144,0,34.863,34.863,0,0,1-12.521,14.43,30.628,30.628,0,0,1-4.157,2.238c-.84.368-2.39,1.3-3.075.407-.836-1.094-1.04-2.892-1.395-4.183l-1.651-6.01a2.431,2.431,0,0,0-2.314-1.762l-5.982.352a16.5,16.5,0,0,1-4.6.068c-1.19-.286-.875-1.619-.816-2.636a27.046,27.046,0,0,1,.693-4.607,34.818,34.818,0,0,1,9.589-16.806c1.164-1.141.788-3.759-1.059-4.011a34.964,34.964,0,0,1-17.354-7.255,31.349,31.349,0,0,1-3.4-3.221c-.591-.651-1.875-1.7-1.277-2.625.76-1.177,2.447-1.98,3.563-2.74l4.953-3.372a2.442,2.442,0,0,0,1.1-2.71l-2.178-5.325a21.169,21.169,0,0,1-1.685-4.563c-.2-1.3,1.078-1.426,2.106-1.71a27.489,27.489,0,0,1,4.8-.894,34.879,34.879,0,0,1,19.374,3.894,2.431,2.431,0,0,0,3.525-2.711,34.875,34.875,0,0,1,1.432-19.459,28.29,28.29,0,0,1,1.975-4.162c.413-.718,1.23-2.64,2.19-2.673.572-.019,1.286.589,1.709.891.7.5,1.345,1.063,2.008,1.6l4.844,3.922a2.5,2.5,0,0,0,3.394,0l4.657-3.772c.67-.543,1.328-1.114,2.023-1.625.438-.323,1.226-1,1.826-1,1-.014,1.817,1.917,2.243,2.658a28.048,28.048,0,0,1,1.973,4.155,34.915,34.915,0,0,1,1.442,19.434,2.431,2.431,0,0,0,3.525,2.71,34.949,34.949,0,0,1,18.294-3.938,27.943,27.943,0,0,1,4.242.585c.783.171,1.566.365,2.33.609.358.114,1.064.278,1.286.637.476.77-.427,2.484-.712,3.2-.735,1.833-1.5,3.656-2.244,5.484a2.415,2.415,0,0,0,1.676,2.952,2.461,2.461,0,0,0,2.953-1.676c.845-2.066,1.76-4.118,2.529-6.213a7.371,7.371,0,0,0,.105-5.852c-1.7-3.394-6.764-3.928-10.109-4.333a39.345,39.345,0,0,0-22.772,4.4l3.525,2.711a39.7,39.7,0,0,0-2.449-24.431c-1.478-3.318-3.832-8.246-8.157-7.87-2.379.207-4.218,1.823-5.992,3.259l-5.588,4.525h3.394L52.5,205.805c-1.774-1.437-3.613-3.049-5.992-3.259-4.331-.382-6.682,4.557-8.159,7.876a39.7,39.7,0,0,0-2.44,24.459l3.525-2.71A39.573,39.573,0,0,0,15.357,227.9c-3.707.54-8.916,1.516-9.4,6.047a11.63,11.63,0,0,0,1.28,5.587l2.722,6.656,1.1-2.711-5.944,4.047a13.75,13.75,0,0,0-4.314,3.82c-2.438,3.993,1.162,7.755,3.965,10.343a38.867,38.867,0,0,0,20.953,9.776l-1.059-4.011a38.973,38.973,0,0,0-11.217,20.862c-.649,3.79-1.429,9.106,2.967,10.9a12.608,12.608,0,0,0,5.578.484l7.178-.422-2.314-1.762,1.905,6.934a12.757,12.757,0,0,0,2.375,5.377c3.146,3.491,8.086.941,11.418-.92a39.024,39.024,0,0,0,15.873-17.127H54.285a39.056,39.056,0,0,0,15.88,17.127c3.332,1.861,8.268,4.415,11.418.92a12.775,12.775,0,0,0,2.375-5.377l1.905-6.934-2.314,1.762,7.178.422a13.156,13.156,0,0,0,5.291-.363c4.652-1.7,3.928-7.086,3.254-11.02a38.98,38.98,0,0,0-11.217-20.862L87,271.465a38.867,38.867,0,0,0,20.953-9.776c2.8-2.588,6.4-6.35,3.965-10.343a13.755,13.755,0,0,0-4.315-3.82l-5.944-4.047,1.1,2.711.843-2.059a2.417,2.417,0,0,0-1.677-2.953A2.461,2.461,0,0,0,98.972,242.855Z"/><path class="c" d="M66.964,268.261q-1.587-2.442-3.172-4.886a2.535,2.535,0,0,0-1.434-1.1,2.458,2.458,0,0,0-1.85.242,2.4,2.4,0,0,0-.861,3.284q1.587,2.442,3.172,4.885a2.533,2.533,0,0,0,1.435,1.1,2.452,2.452,0,0,0,1.849-.242,2.4,2.4,0,0,0,.861-3.283Z"/><path class="c" d="M69.994,252.315c-2.063.481-4.127.953-6.19,1.434a2.421,2.421,0,0,0-1.676,2.953,2.452,2.452,0,0,0,2.952,1.676c2.063-.481,4.127-.953,6.19-1.434a2.422,2.422,0,0,0,1.676-2.953,2.452,2.452,0,0,0-2.952-1.676Z"/><path class="c" d="M54.5,244.649v5.256a2.477,2.477,0,0,0,.7,1.7,2.4,2.4,0,0,0,3.394,0,2.5,2.5,0,0,0,.7-1.7v-5.256a2.479,2.479,0,0,0-.7-1.7,2.4,2.4,0,0,0-3.394,0,2.5,2.5,0,0,0-.7,1.7Z"/><path class="c" d="M50.983,270.683q1.587-2.442,3.172-4.885a2.4,2.4,0,1,0-4.145-2.423q-1.587,2.442-3.172,4.886a2.4,2.4,0,0,0,4.145,2.422Z"/><path class="c" d="M42.532,256.944c2.063.481,4.127.953,6.19,1.434a2.523,2.523,0,0,0,1.849-.242A2.4,2.4,0,0,0,50,253.749c-2.063-.481-4.127-.953-6.19-1.434a2.524,2.524,0,0,0-1.849.242,2.4,2.4,0,0,0,.573,4.387Z"/><path class="c" d="M255.78,237.521a129.546,129.546,0,0,0-11.6-8.313,24.764,24.764,0,0,0-10.228-3.947c-6.759-.78-14.1,1.66-18.114,7.332a2.42,2.42,0,0,0,.861,3.283,2.451,2.451,0,0,0,3.284-.861c2.988-4.221,9.106-5.634,13.962-4.953,3.067.43,5.579,1.9,8.187,3.523a121.1,121.1,0,0,1,10.253,7.33,2.481,2.481,0,0,0,3.394,0,2.415,2.415,0,0,0,0-3.394Z"/><path class="c" d="M223.294,256.23c6.541,4.491,8.65,12.767,12.923,19.069,5.153,7.6,12.418,13.629,21.354,16.16,7,1.983,14.383,1.7,21.447.212,3.021-.634,1.742-5.262-1.276-4.628a40.24,40.24,0,0,1-17.673.109,29.626,29.626,0,0,1-6.573-2.393,33.039,33.039,0,0,1-3.016-1.737c-.438-.283-.87-.578-1.295-.881-.226-.162-.449-.326-.671-.492,0,0-.312-.238-.131-.1s-.321-.256-.309-.247a38.667,38.667,0,0,1-4.446-4.233q-.457-.512-.9-1.037-.232-.278-.461-.56c-.092-.113-.5-.633-.381-.475.153.2-.183-.242-.237-.314-.138-.185-.275-.369-.41-.555q-.395-.543-.774-1.1a57.158,57.158,0,0,1-4.206-7.361c-2.526-5.21-5.686-10.249-10.544-13.585-2.553-1.753-4.956,2.405-2.423,4.145Z"/><path class="c" d="M291.023,269.67a24.482,24.482,0,0,0,6.728,7.69c2.947,2.045,6.7,3.129,10.077,4.237,3.519,1.153,7.211,2.059,10.611,3.541a9.025,9.025,0,0,1,3.215,2.334,6.047,6.047,0,0,1,.846,1.243,5.29,5.29,0,0,1,.2.489,3.516,3.516,0,0,1,.1.388c-.019-.218-.021-.182,0,.105.117,3.08,4.917,3.095,4.8,0-.117-3.114-2.229-5.675-4.635-7.455-2.918-2.159-6.845-3.044-10.258-4.124a74.444,74.444,0,0,1-10.618-3.788c-3.118-1.543-5.15-4.166-6.921-7.082-1.6-2.637-5.753-.228-4.144,2.422Z"/><path class="c" d="M229.784,239.829c3.6,0,3.609-5.6,0-5.6s-3.61,5.6,0,5.6Z"/><path class="a" d="M220.309,246.415c-3.308.181-6.253.279-9.408.279a26.9,26.9,0,0,1,8.055-6.966Z"/><path class="c" d="M217.745,237.656A28.754,28.754,0,0,0,209.2,245a2.454,2.454,0,0,0-.5,2.621,2.4,2.4,0,0,0,2.193,1.476c3.138,0,6.274-.108,9.408-.279a2.4,2.4,0,0,0,0-4.8c-3.134.171-6.27.277-9.408.279l1.7,4.1a31.577,31.577,0,0,1,3.627-3.839q.48-.426.981-.828c.082-.066.174-.127.251-.2-.1.09-.353.267-.1.083.172-.127.343-.254.517-.377a22.323,22.323,0,0,1,2.3-1.431,2.422,2.422,0,0,0,.861-3.283,2.451,2.451,0,0,0-3.284-.861Z"/><path class="c" d="M264.42,242.263a22.606,22.606,0,0,0,10.233-5.862c1.486-1.5,2.723-3.2,4.068-4.819a13.529,13.529,0,0,1,5.076-3.9,56.733,56.733,0,0,1,6.519-2.184l7.8-2.392,15.371-4.711,3.784-1.16a6.027,6.027,0,0,1,2.746-.452,3.239,3.239,0,0,1,2.733,2.422,6.9,6.9,0,0,1-.219,2.353q-.3,1.661-.687,3.305-.792,3.4-1.909,6.719a70.461,70.461,0,0,1-13.507,23.78c-3.347,3.819-7.215,6.842-12.25,7.977a47.149,47.149,0,0,1-8.014.872q-4.542.231-9.084.453c-3.075.154-3.093,4.955,0,4.8,5.583-.278,11.284-.263,16.807-1.192a25.471,25.471,0,0,0,13.432-6.895,61.052,61.052,0,0,0,9.175-11.6,78.519,78.519,0,0,0,6.833-13.526,72.522,72.522,0,0,0,4.015-14.458,8.081,8.081,0,0,0-1.141-6.4,8.327,8.327,0,0,0-5.862-3.377c-2.543-.291-5.032.8-7.418,1.532l-8.277,2.537-16.791,5.146a40.507,40.507,0,0,0-7.747,2.933,20.207,20.207,0,0,0-6.059,5.636,27.028,27.028,0,0,1-4.835,5.038,18.024,18.024,0,0,1-6.072,2.8c-2.97.833-1.708,5.465,1.276,4.629Z"/><path class="c" d="M249.252,233.181q1.284-3.918,2.322-7.906a65.154,65.154,0,0,1,2.186-7.775c1.923-4.832,6.265-7.3,10.467-9.933,4.592-2.874,8.887-6.383,13.68-8.917a2.094,2.094,0,0,1,.683-.292c.353-.115.707-.207,1.069-.293.477-.114.067-.08.668-.074l.464,0c.564,0-.237-.089.257.025.178.041.353.088.527.146.37.123-.447-.27.115.064.374.222.132.059.044-.01a2.831,2.831,0,0,1,.392.382c-.1-.123.223.442.156.276a3.431,3.431,0,0,1,.241,1.074,40.784,40.784,0,0,1-.541,7.7q-.48,4.311-1.221,8.588a2.471,2.471,0,0,0,1.677,2.953,2.421,2.421,0,0,0,2.952-1.677,106.1,106.1,0,0,0,1.946-16.885,6.739,6.739,0,0,0-8.356-7.3,15.548,15.548,0,0,0-5.9,2.618c-2.74,1.736-5.387,3.613-8.087,5.409-4.838,3.218-10.588,5.9-13.888,10.885-1.94,2.93-2.807,6.377-3.648,9.741-.834,3.339-1.761,6.647-2.834,9.918-.964,2.942,3.67,4.2,4.629,1.276Z"/><path class="c" d="M258.821,287.988a30.864,30.864,0,0,0,7.842,10.353,2.4,2.4,0,0,0,3.394-3.394,29.52,29.52,0,0,1-2.228-2.119q-.513-.544-1-1.114-.243-.285-.478-.576c-.087-.108-.172-.218-.259-.326-.2-.253.351.47.021.024a30.312,30.312,0,0,1-3.15-5.271,2.41,2.41,0,0,0-3.283-.861,2.468,2.468,0,0,0-.861,3.284Z"/><path class="c" d="M282.72,295.418a23.731,23.731,0,0,0,10.948,9.019c3.941,1.526,8.674,1.247,11.522-2.2H301.8c5.8,4.812,14.239,3.512,20.263-.272,2.61-1.64.2-5.795-2.422-4.145-3.905,2.453-10.386,4.391-14.446,1.023a2.434,2.434,0,0,0-3.395,0,4.171,4.171,0,0,1-2.747,1.686,8.111,8.111,0,0,1-4.261-.784,18.826,18.826,0,0,1-7.922-6.75c-1.713-2.552-5.872-.152-4.145,2.423Z"/></svg>