<svg xmlns="http://www.w3.org/2000/svg" width="351.733" height="302.503" viewBox="0 0 351.733 302.503" style="color: initial !important;"><defs><style>.a{fill:#ffffff;}.b{fill:#211715;}.c{fill:#5199d1;}.d{fill:#febe69;}.e{fill:#7abee6;}</style></defs><rect class="a" x="241.006" y="185.551" width="86.512" height="114.488"/><path class="a" d="M305.8,274.735l.976-11.222a4.171,4.171,0,0,1,.173-.879l14.8,8.546a4.164,4.164,0,0,1-.675.589L306.465,281.99a.787.787,0,0,1-1.235-.713Z"/><path class="b" d="M327.518,183.151H251.657c-3.49,0-7.015-.143-10.5,0-.049,0-.1,0-.148,0a2.435,2.435,0,0,0-2.4,2.4V285.963c0,4.616-.172,9.268,0,13.881,0,.065,0,.13,0,.195a2.435,2.435,0,0,0,2.4,2.4h75.861c3.491,0,7.015.143,10.5,0,.049,0,.1,0,.148,0a2.435,2.435,0,0,0,2.4-2.4V199.627c0-4.615.172-9.267,0-13.88,0-.065,0-.131,0-.2,0-3.088-4.8-3.093-4.8,0V295.376c0,1.468-.13,3,0,4.468.006.064,0,.131,0,.195l2.4-2.4H244.562c-1.118,0-2.294-.105-3.408,0a1.461,1.461,0,0,1-.148,0l2.4,2.4V190.214c0-1.467.131-3,0-4.467,0-.064,0-.131,0-.2l-2.4,2.4h75.861c3.491,0,7.015.143,10.5,0,.049,0,.1,0,.148,0C330.607,187.951,330.612,183.151,327.518,183.151Z"/><path class="b" d="M259.28,215.629h48.4c3.088,0,3.094-4.8,0-4.8h-1.342c-3.088,0-3.093,4.8,0,4.8h1.342c3.088,0,3.094-4.8,0-4.8h-48.4c-3.088,0-3.093,4.8,0,4.8Z"/><path class="b" d="M259.28,234.4h48.4c3.088,0,3.094-4.8,0-4.8h-1.342c-3.088,0-3.093,4.8,0,4.8h1.342c3.088,0,3.094-4.8,0-4.8h-48.4c-3.088,0-3.093,4.8,0,4.8Z"/><path class="c" d="M333.336,219.5a3.925,3.925,0,0,0-2.705,1.9l-23.306,40.367a4.238,4.238,0,0,0-.377.863l14.8,8.545a4.167,4.167,0,0,0,.558-.757l19.373-33.554,3.934-6.813a3.934,3.934,0,0,0-1.44-5.372L336,219.965A3.923,3.923,0,0,0,333.336,219.5Z"/><path class="b" d="M259.28,253.165h24.953c3.089,0,3.094-4.8,0-4.8h-1.341c-3.089,0-3.094,4.8,0,4.8h1.341c3.089,0,3.094-4.8,0-4.8H259.28c-3.088,0-3.093,4.8,0,4.8Z"/><path class="b" d="M306.8,265.322l12.67,7.315a2.4,2.4,0,1,0,2.423-4.144l-12.67-7.315a2.4,2.4,0,1,0-2.423,4.144Z"/><path class="b" d="M305.441,278.861l.462-5.315,6.92,4-6.358,4.448a.787.787,0,0,1-1.235-.713Z"/><path class="b" d="M313.409,275.108l-5.6-3.231a2.493,2.493,0,0,0-1.85-.242,2.4,2.4,0,0,0-.573,4.387l5.6,3.23a2.485,2.485,0,0,0,1.849.242,2.4,2.4,0,0,0,.574-4.386Z"/><path class="b" d="M343.754,238.08c1.236-2.14,2.486-4.272,3.707-6.421a6.581,6.581,0,0,0-2.62-9.363c-2.429-1.4-4.85-2.82-7.287-4.207a6.5,6.5,0,0,0-9.066,2.227c-1.991,3.242-3.812,6.6-5.714,9.9l-9.912,17.168L305.8,259.617a10.03,10.03,0,0,0-1.449,4.216c-.24,2.52-.44,5.046-.659,7.568l-.755,8.673a4.3,4.3,0,0,0,.4,2.98c2.243,3.537,6.231-.311,8.4-1.831l8.523-5.962c1.57-1.1,3.183-2.062,4.191-3.742.734-1.225,1.429-2.476,2.143-3.712l16.759-29.028.4-.7c1.548-2.68-2.6-5.1-4.144-2.423l-8.443,14.623-10.526,18.233c-.125.216-.241.444-.378.653-.673,1.031-2.036,1.676-3.037,2.376l-6.088,4.259-3.044,2.129a20.19,20.19,0,0,1-3.126,2.114l1.211-.328.08,0,1.059.617.018.047.328,1.211a14.248,14.248,0,0,1,.172-2.678l.492-5.643.525-6.04c.1-1.168.107-2.4.309-3.551a11.209,11.209,0,0,1,1.651-3.144l4.534-7.854,12.164-21.068,4.218-7.305c.726-1.258,1.4-3.078,3.153-2.214,1.407.694,2.746,1.585,4.1,2.369,1.3.749,2.691,1.427,3.931,2.27,1.214.825.8,1.821.185,2.879l-2.83,4.9-.662,1.146C338.062,238.337,342.209,240.757,343.754,238.08Z"/><path class="a" d="M71.891,281.768h57.071V209.415a5.329,5.329,0,0,0-5.329-5.33H20.149a5.329,5.329,0,0,0-5.329,5.33v72.353Z"/><path class="b" d="M17.22,282.986V213.72c0-1.82-.57-5.143.975-6.491,1.29-1.125,3.661-.744,5.26-.744h99.587a3.363,3.363,0,0,1,2.776.976,3.934,3.934,0,0,1,.744,2.862v72.663c0,3.088,4.8,3.094,4.8,0V213c0-3.4.271-6.867-2.626-9.379-2.4-2.079-5.145-1.933-8.037-1.933H40.374c-6.6,0-13.207-.03-19.809,0a7.963,7.963,0,0,0-8.145,8.282v73.019c0,3.088,4.8,3.094,4.8,0Z"/><path class="a" d="M71.891,293.98H14.317c-4.856,0-9.555-2.379-11.5-6.236-.581-1.149-.2-2.429-.4-3.817a1.847,1.847,0,0,1,1.8-2.159H139.572a1.845,1.845,0,0,1,1.8,2.159c-.2,1.388.181,2.668-.4,3.817-1.949,3.857-6.648,6.236-11.5,6.236Z"/><path class="b" d="M71.891,291.58H15.876a24.724,24.724,0,0,1-3.2-.088,11.14,11.14,0,0,1-6.1-2.723,6.12,6.12,0,0,1-1.592-2.012,4.781,4.781,0,0,1-.1-1.611c0-.27-.006-.536-.022-.806q-.051-.372-.067-.748l-.075.3c-.7.309-.56.251-.121.278.394.025.8,0,1.191,0H138.077c.391,0,.8.037,1.19,0,.037,0,.221.027.246,0-.105.114-.6-.568-.522-.576-.122.012-.087,2.873-.222,3.2a6.833,6.833,0,0,1-2.085,2.435,11.494,11.494,0,0,1-5.694,2.271,71.13,71.13,0,0,1-8.3.078h-50.8c-3.089,0-3.094,4.8,0,4.8h56.781a18.709,18.709,0,0,0,6.949-1.142,14.5,14.5,0,0,0,6.139-4.353,8.2,8.2,0,0,0,1.8-3.39,16.617,16.617,0,0,0,.2-4.226c-.367-4.694-5.678-3.9-8.946-3.9H4.944c-.234,0-.47-.009-.7,0A4.3,4.3,0,0,0,0,283.76a19.557,19.557,0,0,0,.252,3.917,9.224,9.224,0,0,0,2.092,3.608,14.721,14.721,0,0,0,6.508,4.21c3.473,1.19,7.327.885,10.949.885H71.891c3.089,0,3.094-4.8,0-4.8Z"/><path class="b" d="M62.006,281.768a4.655,4.655,0,0,0,4.7,4.644c.911.024,1.827,0,2.738,0,2.492,0,4.985.016,7.477,0a4.671,4.671,0,0,0,4.856-4.644,2.419,2.419,0,0,0-2.4-2.4,2.45,2.45,0,0,0-2.4,2.4c-.019.5.045-.318-.032.142,0-.026.191-.38.055-.156s.1-.113.116-.126c-.044.036-.264.232-.02.044.338-.259-.32.126.069-.041.282-.121,0-.015-.061,0,.2-.051.351-.015.057-.019-.136,0-.271,0-.406,0H67.309c-.225,0-.45,0-.676,0-.088,0-.358-.069-.083.006.3.08.007-.029-.051-.037q.392.183.162.056-.169-.1.026.035c.244.188.024-.008-.02-.044.113.1.256.29.071.048.02.026.141.4.075.142-.083-.33.017.591-.007-.05a2.4,2.4,0,1,0-4.8,0Z"/><path class="a" d="M321.584,33.874c-8.869-7.942-21.453-12.927-36.284-12.927a58.03,58.03,0,0,0-23.206,4.624c-2.15,1.011-2.846.777-3.368.632l-1.794-.5a60.54,60.54,0,0,0-8.2-1.879,44.519,44.519,0,0,0-7.225-.558,2.224,2.224,0,0,0-2.019,3c1.134,3.133,4.729,11.257,4.729,11.257a2.207,2.207,0,0,1-.266,2.506c-2.946,3.421-6.94,8.845-7.749,10.061l-1.167,1.753a2.235,2.235,0,0,1-1.391.942c-.992.212-1.919.426-2.974.671a3.722,3.722,0,0,0-1.591.647,2.539,2.539,0,0,0-.92,1.651c-.785,8.849-1.561,17.843.419,26.536a1.539,1.539,0,0,0,.372.817,1.829,1.829,0,0,0,.845.371,45.723,45.723,0,0,0,6.776,1.145c.753.07,2.311.153,2.993,1.4l.064.118c7.3,14.67,23.765,22.631,45.67,22.631,35.137,0,50.276-16.974,50.276-44.319A40.856,40.856,0,0,0,321.584,33.874Z"/><path class="b" d="M337.686,57.654c.068-.061.777-.626.463-.4a8.241,8.241,0,0,1,.738-.472c.11-.062.887-.381.327-.183.234-.083.466-.163.707-.224.116-.029.232-.055.349-.077.271-.046.232-.043-.116.007a2.165,2.165,0,0,1,.755-.04c.154,0,.308.011.461.026-.275-.041-.278-.037-.01.01.12.026.238.055.356.089q.4.135-.172-.1a2.517,2.517,0,0,0,.568.319c.213.15.2.134-.043-.047.1.082.192.167.283.257a3.708,3.708,0,0,1,.26.285q-.27-.348-.052-.012c-.105-.288-.113-.306-.026-.053.061.271.066.235.014-.1a2.419,2.419,0,0,1,0,.351q.087-.524,0-.128c-.084.251-.069.218.048-.1q-.21.329.076-.066-.284.268.084-.027-.357.2.1.006c-.449.132.517.049-.1.016-.186-.01-.112,0,.221.026-.251-.079-.219-.057.1.068a2.268,2.268,0,0,1-.293-.172q.39.314.109.044.3.408.1.075c.118.26.129.245.033-.047q.027.4,0-.023c.014-.287.007-.284-.022.007a3.443,3.443,0,0,1,.118-.411c-.1.232-.09.217.038-.045a3.713,3.713,0,0,1,.223-.36q-.242.307.029-.006c.065-.059.71-.643.319-.333a8.338,8.338,0,0,1,.707-.485c.257-.165.912-.7,1.232-.682q-.487.2-.121.059c.1-.037.207-.072.311-.105q.323-.1.652-.171c.133-.03.892-.233.245-.061a4.046,4.046,0,0,1,.778-.064c.6-.032,1.2-.023,1.8,0a2.419,2.419,0,0,0,2.4-2.4,2.45,2.45,0,0,0-2.4-2.4,12.363,12.363,0,0,0-7.228,1.626,8.327,8.327,0,0,0-3.2,3.17,5.6,5.6,0,0,0-.025,5.229,4.559,4.559,0,0,0,7.937-.2c1.5-3.111-.532-6.334-3.541-7.473-3.178-1.2-6.624.274-8.987,2.4a2.417,2.417,0,0,0,0,3.394,2.455,2.455,0,0,0,3.394,0Z"/><path class="b" d="M259.43,105.114a4.041,4.041,0,0,0,1.251,2.453,8.626,8.626,0,0,0,1.176,1.172,9.525,9.525,0,0,0,3.532,1.922,12.344,12.344,0,0,0,7.15-.281,2.4,2.4,0,1,0-1.276-4.629,10.416,10.416,0,0,1-1.19.339l-.312.063c-.047.008-.568.08-.157.034.374-.043-.007,0-.083.007-.107.011-.215.02-.323.028a10.413,10.413,0,0,1-1.3.017c-.108-.006-.215-.013-.322-.022-.078-.006-.451-.058-.079,0s0,0-.073-.015c-.129-.022-.257-.047-.385-.075q-.3-.068-.6-.159c-.1-.03-.191-.066-.287-.1a1.083,1.083,0,1,0,.157.074c-.361-.243-.777-.414-1.142-.663-.31-.212.081,0,.079.063,0-.036-.225-.191-.258-.22-.188-.167-.368-.343-.54-.525-.149-.158-.285-.326-.428-.489-.208-.238.256.372.09.113-.067-.105-.144-.206-.213-.311l.328,1.212v-.011a2.4,2.4,0,0,0-4.8,0Z"/><path class="b" d="M303.344,109.745a12.189,12.189,0,0,0,8.9.08,9.752,9.752,0,0,0,5.564-6.122,2.422,2.422,0,0,0-1.676-2.952,2.45,2.45,0,0,0-2.952,1.676c-.045.147-.1.292-.145.44-.089.319.184-.362.036-.075-.119.233-.23.466-.366.69-.073.12-.159.232-.231.353-.164.272.282-.325.074-.089-.162.184-.319.37-.493.543s-.356.322-.536.481c-.221.2.407-.283.046-.04-.087.058-.172.119-.259.176q-.324.211-.665.394c-.09.048-.182.091-.271.14-.365.2.388-.12.1-.04-.47.133-.927.264-1.4.373-.324.074.456-.038.116-.013-.15.011-.3.03-.451.039-.281.018-.563.023-.845.018s-.585-.028-.878-.051-.154.023.04.01a2.236,2.236,0,0,1-.5-.09,11.779,11.779,0,0,1-1.928-.569,2.409,2.409,0,0,0-2.952,1.676,2.467,2.467,0,0,0,1.676,2.952Z"/><path class="b" d="M254.368,49.412c-2.512,0-4.248,2.245-4.248,4.87,0,3.04,1.646,4.96,4.252,4.959,2.667,0,4.249-1.922,4.248-4.962C258.619,51.636,256.872,49.411,254.368,49.412Z"/><path class="b" d="M323.281,32.177c-9.636-8.561-22.141-12.958-34.93-13.559a62.789,62.789,0,0,0-21.515,2.641q-2.162.673-4.26,1.527c-.75.3-1.483.668-2.246.939a4.842,4.842,0,0,1-.838.233c.509-.08-.624-.221.216.018-2.058-.585-4.127-1.164-6.207-1.666a49.606,49.606,0,0,0-11.057-1.447c-1.861-.016-3.594.411-4.688,2.043a4.776,4.776,0,0,0-.443,4.366c.822,2.282,1.825,4.51,2.78,6.738q.584,1.361,1.176,2.718a10.811,10.811,0,0,1,.823,1.878c.058.281-.008-.035.019-.105a5.965,5.965,0,0,1-.97,1.161c-1.08,1.313-2.125,2.654-3.161,4-1.315,1.71-2.636,3.427-3.846,5.215-.238.351-.476.7-.7,1.059-.4.627-.483.543-1.258.715-1.636.363-3.5.581-4.785,1.753-1.563,1.42-1.621,3.285-1.79,5.246-.179,2.061-.347,4.123-.469,6.188a82.728,82.728,0,0,0,0,11.408c.143,1.789.365,3.576.67,5.344.346,2,.6,4.186,2.764,5a24.587,24.587,0,0,0,5.092,1.076c.818.119,1.639.225,2.461.309.558.058,1-.045,1.327.215.593.476,1.029,1.894,1.442,2.583a34.873,34.873,0,0,0,2.036,3.032c6.547,8.733,16.373,14.038,26.884,16.473a82.55,82.55,0,0,0,36.054,0c8.83-1.983,17.434-6.033,23.544-12.864,5.893-6.587,8.936-14.935,10.054-23.607a52.469,52.469,0,0,0-.256-16.408,42.278,42.278,0,0,0-7.455-17.048,47.757,47.757,0,0,0-6.467-7.181c-2.287-2.066-5.692,1.318-3.394,3.394a40.1,40.1,0,0,1,11.14,16.34,43.241,43.241,0,0,1,1.933,18.051c-.711,8.709-3.637,17.488-9.623,23.8-6.695,7.056-16.194,10.453-25.919,11.843a85.471,85.471,0,0,1-19.341.464A58.232,58.232,0,0,1,260.3,101.85a38.7,38.7,0,0,1-13.167-9.042,32.44,32.44,0,0,1-4.558-6.249c-.751-1.331-1.3-2.71-2.7-3.511-1.42-.81-3.09-.771-4.663-.973-.849-.108-1.694-.253-2.533-.417a8.549,8.549,0,0,1-2.506-.623l.861.861c-.581-.772-.668-2.876-.819-3.987-.2-1.51-.323-3.033-.4-4.554a89.1,89.1,0,0,1,.116-9.515c.094-1.588.215-3.176.347-4.762.066-.792.129-1.584.205-2.376.042-.443-.033-.6.183-.763a6.34,6.34,0,0,1,1.951-.469,19.758,19.758,0,0,0,2-.469,6.344,6.344,0,0,0,3.155-2.938,112.181,112.181,0,0,1,6.763-9.007c.865-1.052,1.921-2.037,2.232-3.414a5.233,5.233,0,0,0-.506-3.4c-.486-1.111-.975-2.221-1.456-3.335-.748-1.728-1.452-3.373-2.154-5.1a23.261,23.261,0,0,1-.845-2.171c-.006-.02-.058-.051-.057-.045.053.2-1.045-.022.232.08.45.035.921,0,1.373.022,5.085.194,9.808,1.594,14.7,2.823,1.99.5,3.6-.155,5.424-.939a50.817,50.817,0,0,1,7.88-2.585,59.377,59.377,0,0,1,17.424-1.544c11.317.611,22.567,4.544,31.106,12.131C322.189,37.617,325.6,34.234,323.281,32.177Z"/><path class="d" d="M271.541,12.625A22.905,22.905,0,0,0,267.7,25.371a22.258,22.258,0,0,0,1.213,7.3c11.605-2.626,29.132-1.632,41.729,4.17a23.007,23.007,0,0,0-39.1-24.214Z"/><path class="b" d="M270.622,29.967a20.611,20.611,0,1,1,38.814,4.012,2.469,2.469,0,0,0,.861,3.283,2.419,2.419,0,0,0,3.284-.861A25.421,25.421,0,0,0,302.806,3.016a25.694,25.694,0,0,0-32.687,7.473,25.543,25.543,0,0,0-4.125,20.754c.687,3.011,5.316,1.736,4.628-1.276Z"/><path class="b" d="M298.366,16.311l.139.058-.574-.242a8.036,8.036,0,0,1,1.678.987l-.486-.375a8.95,8.95,0,0,1,1.569,1.579l-.375-.485a10.774,10.774,0,0,1,1.343,2.329l-.241-.574c.054.132.107.264.158.4a2.6,2.6,0,0,0,1.1,1.434,2.451,2.451,0,0,0,1.85.242,2.425,2.425,0,0,0,1.434-1.1,2.343,2.343,0,0,0,.242-1.849,13.514,13.514,0,0,0-2.6-4.354,11.274,11.274,0,0,0-1.82-1.565,10.42,10.42,0,0,0-2.148-1.107,2.4,2.4,0,0,0-1.849.242,2.4,2.4,0,0,0-.861,3.283l.375.486a2.387,2.387,0,0,0,1.059.617Z"/><path class="b" d="M316.622,37.355a54.932,54.932,0,0,0-19.936-7.209,78.6,78.6,0,0,0-20.969-.94,50.767,50.767,0,0,0-11.33,2.231c-2.913.977-1.664,5.615,1.276,4.629A54.628,54.628,0,0,1,284.21,33.71a70.706,70.706,0,0,1,19.876,3.169A43.334,43.334,0,0,1,314.2,41.5c2.618,1.657,5.029-2.495,2.423-4.145Z"/><path class="a" d="M33.961,116.465h75.863a7.062,7.062,0,0,0,7.067-7.066c0-25.6,0-63.63,0-99.91a7.066,7.066,0,0,0-7.066-7.071H33.961a7.071,7.071,0,0,0-7.07,7.072v99.9A7.071,7.071,0,0,0,33.961,116.465Z"/><path class="a" d="M90.189,50.69h10.6a1.992,1.992,0,0,1,1.992,1.992v6.179a1.992,1.992,0,0,1-1.992,1.992h-10.6A1.991,1.991,0,0,1,88.2,58.862v-6.18A1.991,1.991,0,0,1,90.189,50.69Z"/><path class="a" d="M90.189,91.435h10.6a1.992,1.992,0,0,1,1.992,1.992v6.181a1.99,1.99,0,0,1-1.99,1.99h-10.6A1.991,1.991,0,0,1,88.2,99.606v-6.18a1.991,1.991,0,0,1,1.991-1.991Z"/><path class="a" d="M66.685,91.435h10.6a1.992,1.992,0,0,1,1.992,1.992v6.181a1.99,1.99,0,0,1-1.99,1.99h-10.6a1.99,1.99,0,0,1-1.99-1.99V93.426a1.991,1.991,0,0,1,1.991-1.991Z"/><path class="a" d="M43.182,91.435h10.6a1.992,1.992,0,0,1,1.992,1.992v6.181a1.99,1.99,0,0,1-1.99,1.99H43.18a1.99,1.99,0,0,1-1.99-1.99V93.426A1.991,1.991,0,0,1,43.182,91.435Z"/><path class="a" d="M90.189,71.063h10.6a1.99,1.99,0,0,1,1.99,1.99v6.183a1.99,1.99,0,0,1-1.99,1.99h-10.6A1.991,1.991,0,0,1,88.2,79.234v-6.18a1.991,1.991,0,0,1,1.991-1.991Z"/><path class="a" d="M66.685,71.063h10.6a1.99,1.99,0,0,1,1.99,1.99v6.183a1.99,1.99,0,0,1-1.99,1.99h-10.6a1.99,1.99,0,0,1-1.99-1.99V73.054a1.991,1.991,0,0,1,1.991-1.991Z"/><path class="a" d="M43.182,71.063h10.6a1.99,1.99,0,0,1,1.99,1.99v6.181a1.992,1.992,0,0,1-1.992,1.992h-10.6a1.991,1.991,0,0,1-1.991-1.991v-6.18A1.991,1.991,0,0,1,43.182,71.063Z"/><path class="a" d="M66.685,50.69h10.6a1.99,1.99,0,0,1,1.99,1.99v6.183a1.99,1.99,0,0,1-1.99,1.99h-10.6a1.991,1.991,0,0,1-1.991-1.991v-6.18a1.991,1.991,0,0,1,1.991-1.991Z"/><path class="a" d="M43.182,50.69h10.6a1.99,1.99,0,0,1,1.99,1.99v6.183a1.99,1.99,0,0,1-1.99,1.99h-10.6a1.991,1.991,0,0,1-1.991-1.991v-6.18a1.991,1.991,0,0,1,1.991-1.991Z"/><path class="e" d="M100.121,16.48H43.847a2.657,2.657,0,0,0-2.656,2.661v15.6A2.657,2.657,0,0,0,43.847,37.4h56.274a2.655,2.655,0,0,0,2.659-2.656c0-3.953,0-11.033,0-15.6A2.658,2.658,0,0,0,100.121,16.48Z"/><path class="b" d="M100.121,14.08H49.108c-3.012,0-6.98-.767-9.139,1.844-1.8,2.173-1.178,5.932-1.178,8.564v9.55a5.548,5.548,0,0,0,1.84,4.579,5.957,5.957,0,0,0,4.084,1.18h52c1.809,0,3.906.29,5.583-.506,3.277-1.556,2.886-5.062,2.886-8.1q0-4.821,0-9.642c0-1.626.2-3.394-.639-4.869a5.262,5.262,0,0,0-4.421-2.6c-3.085-.191-3.073,4.609,0,4.8.583.036.259,4.458.259,5.131v9.55a3.911,3.911,0,0,1,0,1.188c-.221.53-1.417.248-1.957.248h-52.4c-.542,0-1.715.252-2.176,0-.381-.209-.256-.632-.256-1.135v-12.9a6.385,6.385,0,0,1,0-1.826c.19-.5,1.05-.253,1.562-.253h54.971C103.21,18.88,103.215,14.08,100.121,14.08Z"/><path class="b" d="M33.958,118.865h69.42c3.945,0,8.555.712,11.937-1.765a9.646,9.646,0,0,0,3.609-5.074,20.385,20.385,0,0,0,.367-5.7q0-6.09,0-12.178,0-29.328,0-58.656,0-7.879,0-15.758V11.861c0-2.325.028-4.5-1.016-6.634A9.309,9.309,0,0,0,114.227,1.1a12.76,12.76,0,0,0-6.07-1.087H38.839c-4.188,0-8.522-.421-11.686,2.889a9.8,9.8,0,0,0-2.662,6.731c-.023,1.548,0,3.1,0,4.647v92.491a17.285,17.285,0,0,0,.467,5.554,9.636,9.636,0,0,0,9,6.536c3.09.073,3.089-4.727,0-4.8a4.723,4.723,0,0,1-4.667-4.683c-.007-.341,0-.682,0-1.023V11.81c0-1.523-.189-3.221.583-4.587C31.713,3.97,35.9,4.817,39.038,4.817h67.04c3.059,0,6.777-.489,8.116,3.008a6.334,6.334,0,0,1,.3,2.371V21.888q0,29.218,0,58.437,0,12.477,0,24.954c0,3.015.625,6.807-2.684,8.355-1.454.68-3.213.43-4.776.43H33.958C30.87,114.065,30.865,118.865,33.958,118.865Z"/><path class="b" d="M100.79,48.29H91.483c-.423,0-.847-.012-1.27,0a4.494,4.494,0,0,0-4.19,3.021,7.163,7.163,0,0,0-.225,2.447V56.63c0,.714-.02,1.43,0,2.143a4.465,4.465,0,0,0,2.447,4.013c1.411.675,3.148.467,4.672.467h5.821c1.91,0,3.851.148,5.285-1.428,1.625-1.785,1.158-4.68,1.158-6.912,0-.737.022-1.478,0-2.214a4.487,4.487,0,0,0-4.391-4.409,2.417,2.417,0,0,0-2.4,2.4,2.452,2.452,0,0,0,2.4,2.4c-.666-.033.18.1-.154-.041-.315-.134.3.36-.136-.078l-.066-.1q-.15-.224.034.069l-.091-.217q.083.346.026.073c-.008-.3-.022.153-.022.214v4.771c0,.28-.011.562,0,.841,0,.065,0,.131,0,.2,0,.012,0,.024,0,.035,0,.085.014.008.045-.232l-.049.191.091-.216q-.184.292-.034.068c.127-.082.346-.468.093-.128.01-.013.517-.242.026-.042a.624.624,0,0,1,.23-.045h-9.4c-.241,0-.94-.13-1.155,0-.057.034-.56-.247.218.05-.463-.177.036.041.053.064l-.158-.09c.216.184.262.215.136.094l-.064-.063q.276.38.068.041c.025.018.238.516.064.053.2.522.017.285.05.19a2.325,2.325,0,0,0,0-.64V53.3a1.8,1.8,0,0,0,0-.577c-.018-.033-.174.446-.006.04-.216.522-.047.165-.018.076l-.158.2q.243-.228.028-.049l-.1.079q.352-.191-.075.018c.231-.035.245.045-.079.006.019,0,.046-.007.063,0a4.057,4.057,0,0,0,1.23,0h9.307a2.4,2.4,0,0,0,0-4.8Z"/><path class="b" d="M100.789,89.035H91.533c-.439,0-.881-.014-1.32,0a4.479,4.479,0,0,0-4.19,3.021,7.4,7.4,0,0,0-.225,2.392v2.928c0,.708-.011,1.417,0,2.125a4.471,4.471,0,0,0,2.4,4.013c1.42.707,3.234.484,4.777.484H98.8c1.892,0,3.8.134,5.227-1.428,1.623-1.783,1.158-4.683,1.158-6.913,0-.736.022-1.477,0-2.213a4.485,4.485,0,0,0-4.392-4.409,2.417,2.417,0,0,0-2.4,2.4,2.453,2.453,0,0,0,2.4,2.4c-.665-.034.181.1-.154-.042-.314-.133.3.361-.135-.078-.054-.054-.271-.412-.032-.027-.219-.353-.105-.165-.042-.025-.151-.336-.045-.173-.045.1V98.53c0,.27-.008.541,0,.811,0,.075,0,.151,0,.226,0,.157.135-.58,0-.007.1-.4.1-.184-.009-.052.046-.057.459-.626.159-.223,0,0,.52-.273.026-.042.161-.076.317-.045.234-.045H93.644c-1.138,0-2.277,0-3.415,0-.049,0-.151.016.077.022l.119.023q-.4-.117.026.042c-.02-.027-.387-.381.027.033s.059.047.033.027l.091.217q-.083-.346-.027-.072c.009.291.019.04.023.011a12.54,12.54,0,0,0,0-1.849,41.888,41.888,0,0,0,0-4.208c.007.067-.059.407-.006.062l-.108.233c.118-.189.122-.209.011-.058l-.079.1q.288-.272-.072.031c.089-.029.447-.2-.075.018.376-.156.043.009-.079.006a.4.4,0,0,1,.077,0,5.953,5.953,0,0,0,1.266,0h9.256a2.4,2.4,0,0,0,0-4.8Z"/><path class="b" d="M77.286,89.035H68.03c-.44,0-.882-.014-1.321,0a4.479,4.479,0,0,0-4.19,3.021,7.4,7.4,0,0,0-.225,2.392v2.928c0,.708-.011,1.417,0,2.125a4.471,4.471,0,0,0,2.4,4.013c1.421.707,3.234.484,4.778.484h5.817c1.892,0,3.8.134,5.227-1.427,1.622-1.783,1.157-4.684,1.157-6.913,0-.737.022-1.478,0-2.214a4.483,4.483,0,0,0-4.391-4.409,2.416,2.416,0,0,0-2.4,2.4,2.453,2.453,0,0,0,2.4,2.4c-.666-.034.18.1-.154-.042-.315-.133.3.361-.135-.078-.055-.054-.272-.412-.033-.027-.219-.353-.105-.165-.042-.025-.151-.337-.045-.173-.045.095v4.773c0,.27-.008.542,0,.811,0,.076,0,.151,0,.227,0,.157.135-.58,0-.007.1-.4.1-.186-.008-.053.045-.056.462-.627.159-.224,0,0,.519-.272.026-.042.165-.077.318-.045.235-.045H70.141c-1.139,0-2.277,0-3.416,0-.049,0-.151.016.077.022l.119.023q-.4-.117.026.042c-.02-.027-.387-.381.027.033s.06.047.033.027l.091.217q-.082-.346-.026-.072c.008.291.018.04.022.011a12.54,12.54,0,0,0,0-1.849,41.888,41.888,0,0,0,0-4.208c.007.067-.059.407-.006.062l-.107.233c.117-.189.121-.209.01-.058l-.078.1q.287-.272-.073.031c.09-.029.447-.2-.075.018.376-.156.043.009-.079.006a.4.4,0,0,1,.077,0,5.962,5.962,0,0,0,1.267,0h9.256a2.4,2.4,0,1,0,0-4.8Z"/><path class="b" d="M53.782,89.035H44.526c-.44,0-.881-.014-1.321,0a4.479,4.479,0,0,0-4.19,3.021,7.4,7.4,0,0,0-.224,2.392v2.928c0,.708-.012,1.417,0,2.125a4.472,4.472,0,0,0,2.4,4.013c1.421.707,3.234.484,4.778.484H51.79c1.892,0,3.8.134,5.226-1.427,1.622-1.783,1.157-4.684,1.157-6.913,0-.737.023-1.478,0-2.214a4.483,4.483,0,0,0-4.391-4.409,2.416,2.416,0,0,0-2.4,2.4,2.453,2.453,0,0,0,2.4,2.4c-.666-.034.181.1-.154-.042-.315-.133.3.361-.135-.078-.055-.054-.272-.412-.033-.027-.219-.353-.1-.165-.042-.025-.15-.337-.045-.173-.045.095v4.773c0,.27-.008.542,0,.811,0,.076,0,.151,0,.227,0,.157.136-.58,0-.007.1-.4.1-.186-.008-.053.045-.056.462-.627.16-.224,0,0,.519-.272.025-.042.165-.077.319-.045.235-.045H46.637c-1.139,0-2.277,0-3.416,0-.049,0-.151.016.078.022l.118.023c-.263-.078-.255-.064.026.042-.02-.027-.387-.381.027.033s.06.047.033.027l.091.217q-.083-.346-.026-.072c.008.291.018.04.023.011a12.54,12.54,0,0,0,0-1.849c0-1.378.14-2.836,0-4.208.006.067-.06.407-.007.062l-.107.233c.118-.189.121-.209.01-.058l-.078.1q.287-.272-.072.031c.089-.029.446-.2-.076.018.376-.156.044.009-.079.006a.407.407,0,0,1,.078,0,5.953,5.953,0,0,0,1.266,0h9.256a2.4,2.4,0,0,0,0-4.8Z"/><path class="b" d="M100.79,68.663H91.582c-.456,0-.915-.015-1.371,0a4.47,4.47,0,0,0-4.238,3.16,8.459,8.459,0,0,0-.175,2.306V77c0,.72-.02,1.444,0,2.163a4.482,4.482,0,0,0,2.977,4.217,13.21,13.21,0,0,0,4.2.242h5.875c1.875,0,3.76.121,5.169-1.427,1.623-1.784,1.158-4.683,1.158-6.913,0-.737.022-1.477,0-2.214a4.484,4.484,0,0,0-4.391-4.408,2.416,2.416,0,0,0-2.4,2.4,2.452,2.452,0,0,0,2.4,2.4c-.666-.034.18.1-.154-.042-.315-.133.3.361-.136-.078-.054-.055-.271-.413-.032-.027-.22-.355-.105-.164-.042-.026-.154-.339-.045-.173-.045.1v4.772c0,.269-.009.541,0,.811a.71.71,0,0,0,0,.211c.087.184.109-.523,0,.008.082-.384.1-.193-.009-.052.04-.05.48-.395.241-.273-.35.178.525-.254-.056.008,0,0,.243-.046.234-.046H91.433a3.809,3.809,0,0,0-1.182,0c-.015.008-.045,0-.063,0l.237.046-.191-.049.217.091q-.292-.184-.069-.034c.082.126.469.349.129.094.012.009.245.517.042.026.171.414.015.271.045.167a7.182,7.182,0,0,0,0-1.752c0-1.432.084-2.892,0-4.322-.011-.185-.126.414-.021.1s-.322.4.033-.043a1.65,1.65,0,0,1-.323.324c.34-.279.061.01-.053-.009-.691-.111,1.436,0-.045,0a.451.451,0,0,1,.09,0,6.521,6.521,0,0,0,1.3,0h9.208a2.4,2.4,0,0,0,0-4.8Z"/><path class="b" d="M77.286,68.663H68.078c-.456,0-.915-.015-1.371,0a4.469,4.469,0,0,0-4.237,3.16,8.42,8.42,0,0,0-.176,2.306V77c0,.72-.02,1.444,0,2.163a4.484,4.484,0,0,0,2.977,4.217,13.218,13.218,0,0,0,4.2.242h5.875c1.875,0,3.76.122,5.169-1.427,1.622-1.783,1.157-4.683,1.157-6.912,0-.737.023-1.478,0-2.215a4.484,4.484,0,0,0-4.391-4.408,2.416,2.416,0,0,0-2.4,2.4,2.454,2.454,0,0,0,2.4,2.4c-.666-.034.18.1-.154-.042-.315-.133.3.361-.135-.078-.055-.055-.272-.413-.033-.027-.22-.355-.105-.164-.042-.026-.154-.339-.045-.173-.045.1v4.773c0,.27-.008.541,0,.811a.745.745,0,0,0,0,.211c.087.185.109-.522,0,.008.082-.385.1-.193-.008-.052.039-.05.48-.4.241-.274-.35.179.525-.253-.056.008,0,0,.244-.046.235-.046H67.929a3.8,3.8,0,0,0-1.181,0c-.016.008-.046,0-.064,0l.237.046-.191-.049.217.091q-.293-.184-.069-.034c.082.126.469.349.129.094.012.009.245.517.042.026.171.414.015.271.045.167a7.182,7.182,0,0,0,0-1.752c0-1.432.084-2.892,0-4.322-.01-.185-.125.414-.02.1s-.323.4.032-.043a1.623,1.623,0,0,1-.323.324c.34-.279.062.01-.053-.009-.691-.111,1.437,0-.045,0a.451.451,0,0,1,.09,0,6.521,6.521,0,0,0,1.3,0h9.208a2.4,2.4,0,0,0,0-4.8Z"/><path class="b" d="M53.782,68.663H44.524c-.439,0-.881-.014-1.321,0a4.475,4.475,0,0,0-4.237,3.16,8.443,8.443,0,0,0-.175,2.364v2.954c0,.674-.019,1.35,0,2.023a4.455,4.455,0,0,0,2.447,3.994c1.424.682,3.2.467,4.735.467h5.816c1.892,0,3.805.135,5.226-1.427,1.623-1.783,1.158-4.684,1.158-6.913,0-.736.023-1.477,0-2.213a4.483,4.483,0,0,0-4.391-4.409,2.416,2.416,0,0,0-2.4,2.4,2.454,2.454,0,0,0,2.4,2.4c-.666-.034.181.1-.154-.042-.315-.133.3.361-.135-.078-.055-.055-.272-.413-.033-.027-.219-.353-.1-.165-.042-.025-.15-.337-.045-.173-.045.095v4.772c0,.269-.008.541,0,.811,0,.075,0,.15,0,.226,0,.157.135-.58,0-.007.1-.4.1-.185-.008-.052.046-.057.459-.627.159-.223,0,0,.519-.274.025-.042.162-.076.318-.046.234-.046h-9.4c-.245,0-.94-.129-1.156,0,.011-.006-.391.064.089.025l.13.025q-.39-.113.052.064c-.036-.05-.328-.378.042.068-.3-.36.018.033.03.072-.179-.555.126.337,0-.015-.1-.259-.047.311.028.1a2.173,2.173,0,0,0,0-.592V77.413c0-1.441.012-2.881,0-4.321,0-.145-.047.2-.046.2.268-.576-.171.294.008-.056.122-.238-.224.2-.274.242.133-.106.345-.1-.052-.009.455-.11.031,0-.047,0a.339.339,0,0,1,.078,0,5.7,5.7,0,0,0,1.266,0h9.258a2.4,2.4,0,0,0,0-4.8Z"/><path class="b" d="M77.286,48.29H68.078c-.456,0-.915-.014-1.371,0a4.471,4.471,0,0,0-4.237,3.16,8.427,8.427,0,0,0-.176,2.307v2.874c0,.72-.02,1.443,0,2.163a4.485,4.485,0,0,0,2.977,4.217,13.212,13.212,0,0,0,4.2.242H75.35c1.875,0,3.76.121,5.169-1.428,1.623-1.783,1.158-4.682,1.158-6.912,0-.737.023-1.478,0-2.214a4.484,4.484,0,0,0-4.391-4.409,2.417,2.417,0,0,0-2.4,2.4,2.453,2.453,0,0,0,2.4,2.4c-.666-.033.18.1-.154-.041-.315-.134.3.36-.135-.078-.055-.055-.272-.413-.033-.027-.22-.355-.105-.164-.042-.026-.154-.339-.045-.173-.045.1v4.771c0,.27-.008.541,0,.811a.745.745,0,0,0,0,.211c.087.185.109-.522,0,.009.082-.385.1-.193-.009-.052.04-.05.48-.4.242-.274-.351.179.524-.253-.057.008,0,0,.244-.045.234-.045-.1,0-.2,0-.294,0h-9.06a3.772,3.772,0,0,0-1.181,0c-.016.007-.046,0-.064,0l.237.045-.191-.049.217.091c-.2-.122-.218-.134-.069-.033.082.125.469.349.129.093.012.009.245.518.042.026.171.415.015.272.045.168a7.182,7.182,0,0,0,0-1.752c0-1.433.084-2.892,0-4.322-.01-.185-.125.413-.02.1s-.323.4.032-.043a1.623,1.623,0,0,1-.323.324c.34-.279.062.009-.053-.009-.691-.111,1.437,0-.045,0a.541.541,0,0,1,.09,0,6.521,6.521,0,0,0,1.3,0h9.208a2.4,2.4,0,1,0,0-4.8Z"/><path class="b" d="M53.782,48.29H44.574c-.456,0-.915-.014-1.371,0a4.472,4.472,0,0,0-4.237,3.16,8.427,8.427,0,0,0-.175,2.307v2.874c0,.72-.021,1.443,0,2.163a4.483,4.483,0,0,0,2.977,4.217,13.21,13.21,0,0,0,4.2.242h5.874c1.875,0,3.761.121,5.169-1.428,1.623-1.783,1.158-4.682,1.158-6.912,0-.737.023-1.478,0-2.214a4.483,4.483,0,0,0-4.391-4.409,2.417,2.417,0,0,0-2.4,2.4,2.453,2.453,0,0,0,2.4,2.4c-.666-.033.181.1-.154-.041-.315-.134.3.36-.135-.078-.055-.055-.272-.413-.033-.027-.22-.355-.1-.164-.042-.026-.154-.339-.045-.173-.045.1v4.771c0,.27-.008.541,0,.811a.784.784,0,0,0,0,.211c.087.185.109-.522,0,.009.082-.385.1-.193-.008-.052.039-.05.479-.4.241-.274-.351.179.524-.253-.057.008,0,0,.244-.045.234-.045-.1,0-.2,0-.294,0h-9.06a3.772,3.772,0,0,0-1.181,0c-.016.007-.045,0-.064,0l.237.045-.191-.049.217.091c-.2-.122-.218-.134-.068-.033.081.125.468.349.128.093.012.009.246.518.042.026.172.415.015.272.046.168a7.182,7.182,0,0,0,0-1.752c0-1.433.084-2.892,0-4.322-.011-.185-.126.413-.021.1s-.322.4.033-.043a1.656,1.656,0,0,1-.324.324c.34-.279.062.009-.052-.009-.691-.111,1.436,0-.045,0a.529.529,0,0,1,.089,0,6.521,6.521,0,0,0,1.3,0h9.208a2.4,2.4,0,1,0,0-4.8Z"/></svg>