<svg xmlns="http://www.w3.org/2000/svg" width="173.327" height="438.439" viewBox="0 0 173.327 438.439"><defs><style>.a{fill:#fff;}.b{fill:#cfcfcf;}.c{fill:#fce0cd;}.d{fill:#645d5c;}.e{fill:#efc0a0;}.f{fill:#a98a75;}.g{fill:#febe69;}</style></defs><path class="a" d="M70.324,394.081c-1.929-49.239-3.1-95.659-5.215-146.949,0,0-.421-10.885-.51-13.009,10.124.283,28.076.059,40.223.059,14.423,0,33.414-.278,42.913-.7-.018.185-.021.284-.021.284l-.517,13.782c-2.214,53.682-3.389,102.043-5.5,153.919a58.818,58.818,0,0,1-16.156,2.5c-5.843-.058-15.091-.572-19.374-1.679-4.278,1.106-13.547,1.618-19.394,1.675a58.679,58.679,0,0,1-16.159-2.493Q70.468,397.761,70.324,394.081Z"/><path class="b" d="M128.437,431.475c-2.916-2.391-5.716-4.785-9.008-7.219-1.633-1.207-3.665-2.043-5.217-3.354a9.153,9.153,0,0,1-2.1-2.795c-1.831-3.487-1.669-9.994-.973-13.87l.2-1.092c4.524.519,10.178.776,14.21.816a53.428,53.428,0,0,0,9.745-.952l1.794,2.817c1.3,1.46,3.729,4.378,5.136,5.736,4.2,4.048,5.707,5.969,8.76,9.354,2.346,2.6,4.405,7.819,3.811,11.482-.458,2.826-3.175,4.373-5.824,5.46a21.243,21.243,0,0,1-7.72.4,20.909,20.909,0,0,1-9.093-3.813C130.867,433.451,129.642,432.463,128.437,431.475Z"/><path class="b" d="M83.978,431.266c2.9-2.267,5.635-4.568,9.839-6.243,2.153-.857,4.406-1.177,6.055-2.8a8.689,8.689,0,0,0,2.046-4.091,33.481,33.481,0,0,0,.132-13.561s-.117-.571-.3-1.512a146.413,146.413,0,0,1-14.97.9,54.757,54.757,0,0,1-10.7-1.131l-3.1,4.929q-6.84,7.637-13.679,15.274c-6.726,6.9-4.421,13.872,3.382,15.131a21.37,21.37,0,0,0,12.1-1.816,29.78,29.78,0,0,0,6.774-3.254C82.4,432.493,83.193,431.881,83.978,431.266Z"/><path class="b" d="M105.634,404.21c5.6,1.406,11.654,1.544,17.4,1.7a59.614,59.614,0,0,0,19.2-2.518,2.064,2.064,0,0,0,1.468-1.929c1.012-24.953,1.838-49.913,2.661-74.873.836-25.356,1.681-50.712,2.712-76.06.228-5.589.43-11.178.64-16.768.1-2.574-3.9-2.57-4,0-.634,16.889-1.325,33.776-1.925,50.666-.885,24.922-1.659,49.847-2.517,74.769q-.729,21.135-1.571,42.266l1.468-1.928a56.029,56.029,0,0,1-18.136,2.375c-5.394-.149-11.075-.24-16.336-1.56-2.5-.626-3.562,3.23-1.063,3.857Z"/><path class="b" d="M105.63,400.356c-5.263,1.317-10.945,1.405-16.341,1.553a56.019,56.019,0,0,1-18.139-2.374l1.468,1.929c-1.007-24.862-1.832-49.731-2.652-74.6-.833-25.254-1.674-50.507-2.695-75.754q-.351-8.671-.678-17.346c-.1-2.565-4.1-2.578-4,0,.655,16.989,1.345,33.976,1.947,50.967.881,24.828,1.654,49.66,2.509,74.488q.727,21.124,1.569,42.244a2.063,2.063,0,0,0,1.469,1.928,59.6,59.6,0,0,0,19.2,2.517c5.747-.157,11.8-.294,17.4-1.7,2.5-.624,1.439-4.483-1.063-3.857Z"/><path class="b" d="M104.161,255.886q.013,8.669.007,17.337,0,16.617,0,33.234,0,19.478,0,38.954l0,34.825q0,10.395,0,20.79v1.1c0,2.574,4,2.578,4,0l0-18.33,0-33.746q0-19.491,0-38.983,0-17.187,0-34.374,0-9.929-.005-19.857c0-.315,0-.631,0-.946,0-2.574-4-2.579-4,0Z"/><path class="c" d="M52.817,141.227a176.936,176.936,0,0,1-8.65-19.4l.111.407a28.714,28.714,0,0,1-1.466-7.71c.09-2.212.106-3.266.171-5.479a11.3,11.3,0,0,0-1.016-4.855,12.444,12.444,0,0,0-2.751-3.764c-2.94-2.492-4.888-4.57-8.01-6.657a4.889,4.889,0,0,0-3.132-.729,2.85,2.85,0,0,0-2.493,1.794c-.42,1.327.469,2.679,1.309,3.788l2.607,3.437,1.077,1.42-.305-.155c-.989-.5-5.471-2.487-6.316-3.2-3.771-3.209-6.815-6.19-10.543-9.106a4.363,4.363,0,0,0-3.082-1.164,3.266,3.266,0,0,0-2.467,1.331c-.958-1.718-3.518-1.063-4.207,1.082a2.457,2.457,0,0,0-2.032.614C.66,93.817.885,95.7,1.148,96.3a9.622,9.622,0,0,0,2.307,3.223l-.286-.1a2.457,2.457,0,0,0-2.727.8c-.908,1.254-.195,3.378.175,3.93a80.848,80.848,0,0,0,11.28,13.4c3.468,3.937,10.177,8.577,14.255,10.084,4.046,13.512,8.425,31.628,14.088,46.156a20.958,20.958,0,0,0,3.518,6.053c1.9,2.1,4.246,4.122,7.044,4.557,2.738.434,5.129.767,7.9-.189.631-.331,2.178-.874,3.534-1.373l.209-.077q.145-1.239.29-2.389c.515-9.667.481-19.305.111-29.345a74.573,74.573,0,0,0-6.926-3.755C54.9,145.321,53.859,143.294,52.817,141.227Z"/><path class="c" d="M133.881,46.828a4.493,4.493,0,0,1,3.251-1.19,4.173,4.173,0,0,1,3.748,2.082c1.274,2.209,1.22,6.28.365,8.8a13.581,13.581,0,0,1-3.989,6.469,4.955,4.955,0,0,1-3.821,1.1l-.367-.062a29.125,29.125,0,0,1-1.315,3.569c-.972,2.637-6.342,11.887-13.136,15.494.1,1.3.269,2.594.5,3.892.355,2.034.245,3.847,3.075,4.87.1.035,2.344,1.1,4.5,2.123l-.154.17c-3.637,3.475-10.032,6.451-17.631,7.159a2.278,2.278,0,0,0-1.855,1.346,14.33,14.33,0,0,1-1.844,3.105,25.587,25.587,0,0,1-1.8-3.136,2.3,2.3,0,0,0-1.9-1.285,32.565,32.565,0,0,1-16.939-6.149s-.34-.27-.881-.68l-.076-.057c2.605-1.2,5.511-2.558,5.615-2.6,2.83-1.023,2.707-2.836,3.075-4.87.2-1.177.361-2.261.459-3.4A25.326,25.326,0,0,1,83.6,76.265a34.184,34.184,0,0,1-6.489-12.243,4.86,4.86,0,0,1-4.135-1.035,13.6,13.6,0,0,1-3.989-6.469c-.855-2.518-.909-6.589.365-8.8A4.173,4.173,0,0,1,73.1,45.638a4.492,4.492,0,0,1,3.25,1.19s-9.234-29.053,28.766-29.053S133.881,46.828,133.881,46.828Z"/><path class="d" d="M82.873,9.171l-4.148,3.412c-6.255,4.548-8.335,10.337-8.828,22A36.971,36.971,0,0,0,71.278,46.01a5.141,5.141,0,0,1,1.821-.372,4.492,4.492,0,0,1,3.25,1.19l2.74-.706a18.161,18.161,0,0,1,2.9-8.324A21.264,21.264,0,0,1,95.1,28.536l1.072-3.347c4-1.414,24.971,5.787,32.729,8.274l1.618.418a13.775,13.775,0,0,1,1.018,2.428,15.3,15.3,0,0,1,.66,3.23c.211,2.558.106,4.507.2,7.583l1.485-.294a4.493,4.493,0,0,1,3.251-1.19,4.752,4.752,0,0,1,2.419.682,38.37,38.37,0,0,0,.117-21.406A32.924,32.924,0,0,0,128.8,8.235C122.633,3.344,114.974.461,105.29.03,97.311-.324,89.011,2.423,83.845,8.372Z"/><path class="e" d="M99.505,71.584a12.288,12.288,0,0,0,5.914,1.38,9.74,9.74,0,0,0,6.074-1.836,2,2,0,0,0,0-2.829,2.062,2.062,0,0,0-2.828,0c.689-.537-.037,0-.256.111-.169.088-.626.23,0,.02-.162.054-.318.123-.481.175-.205.066-.413.122-.623.171a4.62,4.62,0,0,0-.725.136c.2-.088.317-.037.014-.007-.132.013-.265.024-.4.032-.319.021-.639.029-.958.027q-.429,0-.858-.031c-.131-.009-.262-.019-.392-.032l-.224-.025c-.156-.019-.1-.011.176.023-.113.055-.519-.092-.645-.12-.207-.046-.411-.1-.614-.159-.176-.053-.348-.116-.522-.176-.453-.155.415.2,0,.006-.215-.1-.428-.208-.639-.32a2,2,0,1,0-2.019,3.454Z"/><path class="e" d="M104.16,57.967a26.448,26.448,0,0,1,.623,2.852l-.071-.532a1.732,1.732,0,0,1,.01.394l.072-.532a.955.955,0,0,1-.044.177l.2-.477a.671.671,0,0,1-.063.114l.313-.405a.623.623,0,0,1-.093.092l.405-.313a1.738,1.738,0,0,1-.226.119l.478-.2a1.646,1.646,0,0,1-.381.111l.532-.072a1.479,1.479,0,0,1-.358,0l.532.071c-.135-.019-.267-.051-.4-.069a1.506,1.506,0,0,0-.8-.036,1.486,1.486,0,0,0-.743.237,2,2,0,0,0-.718,2.737,1.918,1.918,0,0,0,1.2.919c.354.047.7.136,1.059.152a3.483,3.483,0,0,0,1.622-.4,2.455,2.455,0,0,0,1.327-1.606,3.811,3.811,0,0,0-.013-1.67c-.156-.919-.368-1.829-.6-2.731a2,2,0,0,0-2.461-1.4,2.028,2.028,0,0,0-1.195.919,2.106,2.106,0,0,0-.2,1.542Z"/><path class="d" d="M89.6,49.746c-.477,1.548-.166,5.109,2.766,5.412,3.876-.023,4.083-4.329,2.778-6.353C94.072,47.148,90.93,46.458,89.6,49.746Z"/><path class="d" d="M120.634,49.746c.477,1.548.167,5.109-2.766,5.412-3.876-.024-4.082-4.329-2.778-6.353C116.158,47.148,119.3,46.459,120.634,49.746Z"/><path class="f" d="M173.327,147.238c-6.062,2.705-19,5.283-25.86,6.443q-.132,4.26-.167,8.45l2.116,34.466c.16,2.02-.06.19.97,10.75.98,9.42,1.72,17.24,2.27,24.57a1.261,1.261,0,0,1-1.15,1.35c-7.08.54-29.955.915-46.684.915-15.1,0-39.176.345-46.026-.365a1.354,1.354,0,0,1-1.22-1.47c.71-8.59,1.3-15.082,2.613-26.862.829-9.29,1.7-18.4,2.545-25.116.515-9.665.481-19.3.109-29.343a73.294,73.294,0,0,0-6.923-3.754c-3.68-7.068-7.771-15.181-10.622-22.423,1.137-2.8,2.655-6.494,3.435-8.263,2.73-6.15,8.43-11.79,11.82-13.22a235.561,235.561,0,0,1,22.765-9.141c.75.564,1.251.961,1.251.961a32.565,32.565,0,0,0,16.939,6.149,2.3,2.3,0,0,1,1.9,1.285,25.587,25.587,0,0,0,1.8,3.136,14.33,14.33,0,0,0,1.844-3.105,2.278,2.278,0,0,1,1.855-1.346c7.681-.715,14.132-3.748,17.747-7.272l3.172,1.26c4.406,1.7,15.268,5.873,20.069,8.317a53.426,53.426,0,0,1,5.7,3.52,26.418,26.418,0,0,1,2.05,1.98,22.9,22.9,0,0,1,3.714,6.323c.765,1.694,6.846,17.015,11.761,31.027"/><path class="a" d="M140.67,121.96H126.709a.983.983,0,0,0-.982.983V127.2a.98.98,0,0,0,.979.982h13.961a.982.982,0,0,0,.982-.982v-4.252A.979.979,0,0,0,140.67,121.96Z"/><path class="g" d="M144.559,187.778c.2-.162.385-.306.54-.431-3.064-4.566-20.831-30.1-31.6-44.164a1.346,1.346,0,0,0-1.832-.293c-6.163,4.22-25.364,18.582-30.307,22.424a1.342,1.342,0,0,0-.305,1.792c5.832,9.055,24.838,36.062,30.47,43.943a1.351,1.351,0,0,0,1.894.305C119.866,206.67,139.516,191.772,144.559,187.778Z"/><path class="c" d="M167.6,149.251a195.324,195.324,0,0,1-20.132,4.429c-.11,3.633-.172,7.221-.175,10.791-5.6,5.152-9.04,6.607-17.976,11.92l-7.353,3.1a4.735,4.735,0,0,1-3.442.094c-1.87-.674-3.571-1.2-5.933-2.041a35.525,35.525,0,0,0-4.026-.663c-1.751-.178-3.044-.383-4.8-.435-2.328-.069-3.682-.222-4.584.783a2.67,2.67,0,0,0-.607,2.176c.333,3.189,6.077,4.786,8.8,6.525a30.529,30.529,0,0,1-7.579,2.759,43.914,43.914,0,0,1-4.869-1.293,3.34,3.34,0,0,0-3.507,1.569,3.026,3.026,0,0,0,.916,3.737,12.3,12.3,0,0,0,1.869,1.05,6.183,6.183,0,0,0,.571,4.607,7.61,7.61,0,0,0,2.9,3.054,15.878,15.878,0,0,0,4.272,7.291,7.388,7.388,0,0,0,4.657,1.249c7.376-2.045,13.113-6.318,18.791-11.421a15.952,15.952,0,0,1,2.942-1.989c2.911-1.144,31.518-12.233,36.26-15.5,3.52-2.411,6.761-6.591,7.593-10.356.695-3.111.661-6.808-.419-12.555a83.862,83.862,0,0,0-2.326-9.443Q168.554,148.971,167.6,149.251Z"/></svg>