<svg xmlns="http://www.w3.org/2000/svg" width="177.307" height="442.504" viewBox="0 0 177.307 442.504" style="color: initial !important;"><defs><style>.a{fill:#ffffff;}.b{fill:#211715;}.c{fill:#645d5c;}.d{fill:none;}.e{fill:#a98a75;}.f{fill:#febe69;}</style></defs><path class="a" d="M54.812,143.249a177.126,177.126,0,0,1-8.65-19.4l.112.407a28.661,28.661,0,0,1-1.466-7.71c.09-2.212.106-3.266.171-5.479a11.315,11.315,0,0,0-1.016-4.855,12.473,12.473,0,0,0-2.751-3.764c-2.94-2.492-4.888-4.57-8.01-6.657a4.888,4.888,0,0,0-3.132-.728,2.847,2.847,0,0,0-2.493,1.794c-.42,1.326.469,2.678,1.309,3.787l2.607,3.438,1.077,1.419-.3-.155c-.99-.5-5.472-2.487-6.316-3.2-3.772-3.208-6.816-6.189-10.543-9.106a4.358,4.358,0,0,0-3.083-1.163,3.265,3.265,0,0,0-2.466,1.33C8.9,91.489,6.338,92.143,5.65,94.288a2.457,2.457,0,0,0-2.032.614c-.962.938-.738,2.823-.475,3.415a9.614,9.614,0,0,0,2.308,3.223l-.286-.1a2.458,2.458,0,0,0-2.727.8c-.908,1.254-.2,3.378.175,3.93a80.847,80.847,0,0,0,11.28,13.4c3.467,3.936,10.177,8.576,14.255,10.083,4.045,13.512,8.425,31.628,14.088,46.157a20.972,20.972,0,0,0,3.517,6.052c1.9,2.1,4.247,4.122,7.045,4.558,2.738.433,5.129.766,7.9-.19.63-.33,2.178-.873,3.533-1.372l.21-.078q.146-1.237.29-2.388c.515-9.667.48-19.306.111-29.346a74.809,74.809,0,0,0-6.926-3.755C56.9,147.343,55.855,145.316,54.812,143.249Z"/><path class="a" d="M135.876,48.85a4.5,4.5,0,0,1,3.251-1.19,4.172,4.172,0,0,1,3.749,2.083c1.274,2.208,1.22,6.279.365,8.8a13.6,13.6,0,0,1-3.989,6.469,4.956,4.956,0,0,1-3.822,1.1l-.367-.062a28.923,28.923,0,0,1-1.314,3.569c-.972,2.638-6.342,11.887-13.137,15.494.1,1.3.27,2.595.5,3.892.355,2.034.245,3.847,3.074,4.87.1.035,2.345,1.1,4.5,2.123l-.155.17c-3.636,3.475-10.031,6.452-17.63,7.159a2.277,2.277,0,0,0-1.855,1.346,14.334,14.334,0,0,1-1.845,3.105,25.579,25.579,0,0,1-1.8-3.136,2.3,2.3,0,0,0-1.905-1.284,32.581,32.581,0,0,1-16.939-6.15s-.34-.27-.88-.68l-.076-.057c2.6-1.2,5.511-2.558,5.615-2.6,2.829-1.023,2.707-2.836,3.074-4.87.2-1.176.362-2.261.46-3.4a25.316,25.316,0,0,1-9.163-7.317,34.176,34.176,0,0,1-6.489-12.243,4.863,4.863,0,0,1-4.136-1.035,13.586,13.586,0,0,1-3.988-6.469c-.855-2.518-.909-6.589.365-8.8a4.171,4.171,0,0,1,3.748-2.083,4.494,4.494,0,0,1,3.251,1.19S69.111,19.8,107.111,19.8,135.876,48.85,135.876,48.85Z"/><path class="b" d="M82.077,100.238c.9-.314,1.765-.765,2.628-1.16q1.995-.914,3.986-1.84c1.043-.483,2.085-.969,3.129-1.449.108-.05.218-.1.324-.149.09-.044.272-.119-.16.066-.516.221-.058.032.075-.021.256-.1.513-.207.761-.326a5.555,5.555,0,0,0,2.47-2.284,8.811,8.811,0,0,0,.837-2.935c.233-1.51.492-3.011.63-4.534a2.008,2.008,0,0,0-2-2,2.053,2.053,0,0,0-2,2,38.265,38.265,0,0,1-.925,5.491c-.06.248.194-.3.035-.1a1.892,1.892,0,0,0-.136.241c-.221.39.167-.107-.08.106a2.307,2.307,0,0,0-.22.212c.216-.246.136-.086.015-.013-.1.062-.2.128-.3.187-.038.022-.453.23-.293.158-.144.065-.7.288-1.022.436-2.221,1.02-4.433,2.058-6.654,3.078q-.864.4-1.73.789l-.551.245c-.453.2.494-.184.12-.053a2.048,2.048,0,0,0-1.4,2.46,2.017,2.017,0,0,0,2.46,1.4Z"/><path class="b" d="M118.638,85.441c.128,1.421.334,2.83.567,4.238a16.442,16.442,0,0,0,.408,2.193,5.5,5.5,0,0,0,1.506,2.486,6.174,6.174,0,0,0,1.34.938,10.692,10.692,0,0,0,1,.435c.655.251-.46-.225-.211-.1,1.971,1.011,4.02,1.9,6.023,2.844.952.45,1.9.917,2.87,1.324a2,2,0,0,0,2.46-1.4,2.062,2.062,0,0,0-1.4-2.46c1,.417.062.01-.172-.1l-1.286-.607q-1.74-.822-3.48-1.647c-.9-.425-1.794-.851-2.694-1.271-.1-.045-.194-.092-.292-.135l-.075-.034c-.144-.064-.336-.144-.483-.2-.049-.02-.371-.164-.08-.027-.186-.088-.364-.186-.542-.29-.055-.033-.346-.228-.123-.07.2.14,0,0-.031-.032-.145-.144-.392-.471-.149-.105-.107-.162-.191-.34-.3-.5-.118-.176.1.168.074.186,0,0-.118-.348-.122-.364-.05-.166-.09-.335-.125-.5-.084-.4-.138-.8-.2-1.207-.2-1.316-.373-2.3-.49-3.594a2.043,2.043,0,0,0-2-2,2.022,2.022,0,0,0-2,2Z"/><path class="c" d="M84.869,11.194l-4.148,3.411c-6.255,4.548-8.336,10.337-8.829,22.005a36.94,36.94,0,0,0,1.382,11.422,5.162,5.162,0,0,1,1.82-.372,4.494,4.494,0,0,1,3.251,1.19l2.74-.706a18.149,18.149,0,0,1,2.9-8.324,21.268,21.268,0,0,1,13.108-9.262l1.072-3.346C102.171,25.8,123.137,33,130.9,35.485l1.618.418a13.807,13.807,0,0,1,1.018,2.428,15.235,15.235,0,0,1,.659,3.231c.212,2.557.107,4.506.2,7.583l1.485-.3a4.5,4.5,0,0,1,3.251-1.19,4.763,4.763,0,0,1,2.42.682,38.379,38.379,0,0,0,.117-21.406,32.924,32.924,0,0,0-10.87-16.679c-6.166-4.891-13.824-7.774-23.508-8.2-7.98-.355-16.279,2.392-21.445,8.341Z"/><path class="d" d="M85.425,10.522C91.38,3.887,99.3,2.052,107.1,2.052A35.356,35.356,0,0,1,128.98,9.246a31.935,31.935,0,0,1,6.168,6.423c4,3.913,7.188,12.463,6.949,20.941a45.068,45.068,0,0,1-1.281,10.947"/><path class="d" d="M73.265,47.557A36.258,36.258,0,0,1,72,36.61c.493-11.668,3.214-16.932,8.829-22"/><path class="b" d="M87.255,11.809c7.828-8.852,20.957-9.167,31.5-5.762,9.815,3.17,17.956,10.8,20.823,20.838a38.07,38.07,0,0,1,.217,20.281c-.647,2.493,3.21,3.557,3.857,1.063,3.146-12.119,1.042-25.36-7.074-35.1A35.884,35.884,0,0,0,121.943,2.945,42.537,42.537,0,0,0,103.028.157c-7,.657-13.877,3.481-18.6,8.823-1.7,1.922,1.119,4.761,2.828,2.829Z"/><path class="b" d="M75.084,47.025a43.6,43.6,0,0,1-.156-19.711,17.807,17.807,0,0,1,6.8-10.982,2.06,2.06,0,0,0,.718-2.736,2.014,2.014,0,0,0-2.736-.717A21.819,21.819,0,0,0,71.14,25.942a48.032,48.032,0,0,0,.087,22.146c.609,2.5,4.467,1.442,3.857-1.063Z"/><path class="b" d="M133.678,63.407a29.05,29.05,0,0,1-1.31,4.367c-.193.508-.355.841-.584,1.41-.2.507.136-.275-.036.087-.063.132-.122.266-.186.4a37.078,37.078,0,0,1-3.2,5.326c-2.786,3.947-6.6,8.256-11.493,9.407-2.505.589-1.445,4.446,1.063,3.857,5.778-1.358,10.224-6.183,13.572-10.809a38.088,38.088,0,0,0,3.477-5.691c.207-.427.391-.862.575-1.3.216-.518-.147.343.081-.187.149-.347.3-.694.436-1.045a29.068,29.068,0,0,0,1.461-4.756c.524-2.512-3.331-3.586-3.857-1.063Z"/><path class="b" d="M76.6,64.368c2.482,10.883,10.671,22.749,22.434,24.523a2.065,2.065,0,0,0,2.46-1.4,2.014,2.014,0,0,0-1.4-2.46c-10.47-1.579-17.437-12.068-19.64-21.73-.572-2.508-4.429-1.447-3.857,1.064Z"/><path class="b" d="M101.5,73.607a12.273,12.273,0,0,0,5.914,1.379,9.736,9.736,0,0,0,6.074-1.836,2,2,0,0,0,0-2.829,2.062,2.062,0,0,0-2.828,0c.689-.537-.038,0-.256.111-.17.089-.626.23,0,.02-.162.054-.319.123-.482.175-.2.066-.413.122-.622.171a4.509,4.509,0,0,0-.725.137c.2-.089.316-.038.014-.008-.133.013-.265.024-.4.032-.319.021-.639.029-.958.027q-.429,0-.858-.031c-.131-.009-.262-.019-.393-.032l-.223-.025q-.236-.028.176.023c-.113.055-.519-.092-.645-.12q-.31-.069-.614-.159c-.177-.053-.348-.116-.522-.176-.453-.155.415.2,0,.006-.216-.1-.428-.208-.64-.319a2,2,0,1,0-2.018,3.454Z"/><path class="b" d="M106.155,59.989a26.5,26.5,0,0,1,.624,2.852l-.072-.531a1.722,1.722,0,0,1,.011.393l.071-.531a.914.914,0,0,1-.043.177l.2-.478a.845.845,0,0,1-.063.114l.313-.405a.578.578,0,0,1-.093.092l.405-.313a2.04,2.04,0,0,1-.226.12l.477-.2a1.624,1.624,0,0,1-.38.111l.531-.071a1.523,1.523,0,0,1-.357,0l.532.072c-.135-.019-.267-.052-.4-.07a1.516,1.516,0,0,0-.8-.036,1.486,1.486,0,0,0-.743.237,2,2,0,0,0-.718,2.737,1.916,1.916,0,0,0,1.195.919c.355.048.7.136,1.06.152a3.473,3.473,0,0,0,1.622-.394,2.462,2.462,0,0,0,1.327-1.607,3.8,3.8,0,0,0-.014-1.67c-.155-.918-.367-1.829-.6-2.731a2.06,2.06,0,0,0-.919-1.2,2.038,2.038,0,0,0-1.541-.2,2.017,2.017,0,0,0-1.2.919,2.1,2.1,0,0,0-.2,1.541Z"/><path class="b" d="M91.591,51.768c-.476,1.548-.165,5.109,2.767,5.412,3.876-.023,4.082-4.328,2.778-6.353C96.067,49.17,92.926,48.481,91.591,51.768Z"/><path class="b" d="M122.63,51.768c.477,1.548.166,5.109-2.766,5.412-3.876-.023-4.083-4.329-2.778-6.353C118.154,49.17,121.3,48.481,122.63,51.768Z"/><path class="b" d="M137.291,50.264a2.673,2.673,0,0,1,2.316-.552,2.142,2.142,0,0,1,1.1.469c-.277-.2.544.732.235.244a5.262,5.262,0,0,1,.785,2.119,12.019,12.019,0,0,1,.079,3.132,13.236,13.236,0,0,1-1.616,5.024c-.988,1.823-2.479,3.708-4.759,3.412a2.01,2.01,0,0,0-2,2,2.052,2.052,0,0,0,2,2c5.265.683,8.5-5,9.811-9.26,1.179-3.814,1.131-9.738-2.6-12.18a6.866,6.866,0,0,0-8.179.764c-1.925,1.717.912,4.538,2.829,2.828Z"/><path class="b" d="M79.759,47.436a6.9,6.9,0,0,0-7.517-1.121,6.562,6.562,0,0,0-3.434,4.417A16.5,16.5,0,0,0,71.2,63.754c1.69,2.513,4.356,4.777,7.588,4.358a2.066,2.066,0,0,0,2-2,2.011,2.011,0,0,0-2-2c-2.278.3-3.77-1.589-4.759-3.412a13.229,13.229,0,0,1-1.615-5.024,8.6,8.6,0,0,1,.864-5.251c-.317.5.513-.449.235-.244a2.045,2.045,0,0,1,.967-.441,2.7,2.7,0,0,1,2.448.524c1.915,1.709,4.754-1.11,2.828-2.828Z"/><path class="b" d="M96.562,28.629a22.507,22.507,0,0,0-11.467,6.6,21.767,21.767,0,0,0-6.01,12.912,2.013,2.013,0,0,0,2,2,2.045,2.045,0,0,0,2-2c.81-7.606,7.153-14.085,14.541-15.657a2,2,0,1,0-1.064-3.858Z"/><path class="b" d="M131.427,33.556c-4.512-1.448-9.006-2.95-13.538-4.338A113.149,113.149,0,0,0,103.155,25.4c-1.731-.282-3.8-.683-5.521-.12-2.436.8-1.393,4.66,1.064,3.857.231-.076.771-.114.23-.081.339-.021.674-.034,1.014-.024a15.054,15.054,0,0,1,2.041.208c2.238.359,4.448.9,6.639,1.475,5.057,1.325,10.046,2.9,15.019,4.51,2.242.725,4.479,1.465,6.722,2.185,2.457.789,3.509-3.072,1.064-3.857Z"/><path class="b" d="M128.081,33.364a13.645,13.645,0,0,1,3.972,7.264c.543,2.752.258,5.727.338,8.517.075,2.568,4.075,2.579,4,0-.094-3.282.162-6.675-.549-9.9a17.417,17.417,0,0,0-4.933-8.706c-1.843-1.8-4.674,1.026-2.828,2.828Z"/><path class="e" d="M175.323,149.26c-6.062,2.705-19,5.284-25.861,6.443q-.13,4.26-.166,8.45l2.116,34.467c.16,2.02-.06.19.97,10.75.98,9.42,1.72,17.24,2.27,24.57a1.261,1.261,0,0,1-1.15,1.35c-7.08.54-29.955.915-46.684.915-15.1,0-39.176.345-46.026-.365a1.354,1.354,0,0,1-1.22-1.47c.71-8.59,1.3-15.083,2.612-26.863.83-9.29,1.7-18.4,2.546-25.115.515-9.666.48-19.3.109-29.344a73.294,73.294,0,0,0-6.923-3.754c-3.681-7.068-7.771-15.181-10.622-22.423,1.136-2.8,2.655-6.494,3.435-8.263,2.73-6.15,8.43-11.79,11.82-13.22a235.613,235.613,0,0,1,22.765-9.141c.75.564,1.25.961,1.25.961a32.581,32.581,0,0,0,16.939,6.15,2.3,2.3,0,0,1,1.905,1.284,25.579,25.579,0,0,0,1.8,3.136,14.334,14.334,0,0,0,1.845-3.105,2.277,2.277,0,0,1,1.855-1.346c7.681-.715,14.132-3.748,17.747-7.272l3.172,1.261c4.405,1.695,15.268,5.873,20.069,8.317a53.457,53.457,0,0,1,5.7,3.519,26.318,26.318,0,0,1,2.05,1.981,22.929,22.929,0,0,1,3.714,6.323c.765,1.694,6.846,17.014,11.761,31.026"/><path class="a" d="M72.32,396.1c-1.93-49.238-3.1-95.659-5.216-146.948,0,0-.42-10.885-.509-13.009,10.124.282,28.076.059,40.223.059,14.422,0,33.413-.279,42.913-.7-.018.185-.022.285-.022.285l-.517,13.781c-2.213,53.682-3.388,102.043-5.5,153.919a58.861,58.861,0,0,1-16.156,2.5c-5.843-.059-15.092-.573-19.374-1.679-4.278,1.105-13.548,1.617-19.394,1.674a58.679,58.679,0,0,1-16.159-2.493Q72.464,399.784,72.32,396.1Z"/><path class="a" d="M130.433,433.5c-2.916-2.391-5.716-4.785-9.008-7.218-1.633-1.208-3.666-2.044-5.217-3.355a9.164,9.164,0,0,1-2.1-2.794c-1.83-3.488-1.668-9.994-.972-13.871,0,0,.072-.4.195-1.092,4.525.519,10.179.777,14.211.817a53.527,53.527,0,0,0,9.745-.953l1.794,2.818c1.3,1.46,3.728,4.377,5.136,5.735,4.2,4.048,5.707,5.969,8.76,9.354,2.346,2.6,4.405,7.82,3.811,11.482-.459,2.826-3.175,4.373-5.824,5.46a21.245,21.245,0,0,1-7.72.4,20.909,20.909,0,0,1-9.093-3.813C132.863,435.473,131.638,434.485,130.433,433.5Z"/><path class="a" d="M85.974,433.288c2.9-2.267,5.634-4.568,9.839-6.242,2.153-.857,4.405-1.178,6.055-2.805a8.683,8.683,0,0,0,2.045-4.091,33.446,33.446,0,0,0,.132-13.561s-.116-.57-.3-1.512a146.128,146.128,0,0,1-14.97.9,54.749,54.749,0,0,1-10.7-1.131l-3.1,4.929-13.68,15.274c-6.725,6.9-4.421,13.873,3.382,15.131a21.382,21.382,0,0,0,12.1-1.815,29.761,29.761,0,0,0,6.774-3.255C84.392,434.515,85.189,433.9,85.974,433.288Z"/><path class="b" d="M135.559,406.04c2.635,4.9,7.144,8.66,10.9,12.645,3.814,4.043,9.068,8.944,8.4,15.093-.26,2.4-3.212,4.007-5.369,4.419a17.92,17.92,0,0,1-8.434-.5c-3.645-1.08-6.413-3.321-9.306-5.7-3.17-2.6-6.273-5.359-9.651-7.691-1.59-1.1-3.536-1.819-4.907-3.2a8.524,8.524,0,0,1-2.093-4.185,26.5,26.5,0,0,1-.039-10.134,2.058,2.058,0,0,0-1.4-2.46,2.015,2.015,0,0,0-2.46,1.4c-1.173,6.759-1.238,15.559,5.146,19.773,1.749,1.154,3.566,2.11,5.238,3.387,1.778,1.358,3.5,2.783,5.227,4.208,3.246,2.683,6.445,5.735,10.352,7.422,6.016,2.6,14.4,3.244,19.45-1.758,2.733-2.707,2.6-6.654,1.583-10.11-1.052-3.589-3.057-6.259-5.493-9.01-2.494-2.816-5.151-5.435-7.75-8.149a36.225,36.225,0,0,1-5.947-7.469c-1.221-2.268-4.675-.25-3.454,2.018Z"/><path class="b" d="M102.117,407.121a31.725,31.725,0,0,1,.043,11.54,8.19,8.19,0,0,1-1.483,3.929c-1.03,1.251-2.792,1.619-4.25,2.113a31.033,31.033,0,0,0-8.58,4.62c-2.608,1.945-5.03,4.184-7.978,5.617-3.265,1.587-6.972,3.116-10.617,3.414-2.706.221-6,.064-8.208-1.739-5.041-4.12,1.823-10.2,4.539-13.239,2.921-3.267,5.787-6.582,8.71-9.846a40.361,40.361,0,0,0,5.312-7.672c1.228-2.263-2.224-4.285-3.454-2.019A38.59,38.59,0,0,1,71,411.226c-2.871,3.206-5.675,6.473-8.554,9.672-2.6,2.892-5.6,5.544-6.711,9.42a8.87,8.87,0,0,0,1.606,8.224c2.138,2.562,5.511,3.537,8.716,3.809,4.359.371,8.3-.9,12.293-2.453a30.641,30.641,0,0,0,5.665-2.688c1.472-.954,2.838-2.083,4.216-3.166a31.565,31.565,0,0,1,9.073-5.418c2.007-.69,4.056-1.265,5.686-2.7a9.772,9.772,0,0,0,2.822-5.088,35.858,35.858,0,0,0,.167-14.784c-.5-2.523-4.352-1.455-3.857,1.064Z"/><path class="b" d="M107.63,406.233c5.6,1.4,11.654,1.543,17.4,1.7a59.621,59.621,0,0,0,19.2-2.518,2.063,2.063,0,0,0,1.468-1.929c1.012-24.953,1.838-49.913,2.661-74.873.836-25.356,1.681-50.711,2.712-76.06.227-5.588.43-11.178.639-16.767.1-2.575-3.9-2.571-4,0-.633,16.889-1.324,33.775-1.924,50.666-.885,24.921-1.659,49.846-2.518,74.768q-.727,21.135-1.57,42.266l1.468-1.928a56.029,56.029,0,0,1-18.136,2.375c-5.395-.149-11.075-.24-16.336-1.56-2.5-.626-3.563,3.231-1.063,3.858Z"/><path class="b" d="M107.626,402.378c-5.264,1.317-10.946,1.406-16.341,1.553a56.018,56.018,0,0,1-18.139-2.373l1.468,1.928c-1.007-24.862-1.832-49.73-2.652-74.6-.834-25.253-1.674-50.507-2.7-75.753q-.351-8.673-.679-17.346c-.1-2.566-4.1-2.579-4,0,.656,16.988,1.346,33.976,1.948,50.966.88,24.828,1.653,49.66,2.509,74.489q.728,21.123,1.569,42.243a2.065,2.065,0,0,0,1.468,1.929,59.6,59.6,0,0,0,19.2,2.516c5.746-.157,11.8-.293,17.4-1.695,2.5-.625,1.438-4.483-1.063-3.858Z"/><path class="b" d="M106.157,257.908q.014,8.668.007,17.337,0,16.617,0,33.235,0,19.476,0,38.953l0,34.825,0,20.79v1.1c0,2.574,4,2.578,4,0q0-9.165,0-18.33,0-16.874,0-33.746,0-19.491,0-38.982,0-17.188,0-34.375,0-9.929-.006-19.857c0-.315,0-.631,0-.946,0-2.574-4-2.578-4,0Z"/><path class="b" d="M149.412,198.62q.442,5.628,1.021,11.244c.5,4.822.983,9.645,1.42,14.473q.292,3.242.556,6.484.063.785.125,1.568a6.737,6.737,0,0,0,.118,1.551c-.256-.195,1.116-.374.532-.627a1.54,1.54,0,0,0-.337.023,7.19,7.19,0,0,0-.731.046c-15,.885-30.1.818-45.116.823-14.395,0-28.854.513-43.238-.162-.531-.025-1.062-.053-1.592-.089-.2-.014-.406-.028-.609-.045-.336-.027-1.061-.237-.168.141.287.122.017.725.209-.037a4.849,4.849,0,0,0,.058-.707l.1-1.217q.122-1.442.246-2.882.478-5.52,1.036-11.032c1-9.83,1.894-19.672,2.956-29.494.227-2.1.542-4.19.73-6.289.2-2.277.214-4.594.276-6.879.129-4.693.14-9.39.062-14.084-.164-9.808-.71-19.6-1.368-29.39q-.263-3.9-.545-7.791c-.184-2.552-4.186-2.572-4,0,.749,10.4,1.441,20.809,1.769,31.232.153,4.88.225,9.762.18,14.644a129.441,129.441,0,0,1-.6,14.121c-1.208,10.119-2.027,20.28-3.095,30.413q-.635,6.02-1.179,12.048-.249,2.776-.481,5.556c-.182,2.165-.359,4.639,2.208,5.442a14.361,14.361,0,0,0,3.382.318c1.362.07,2.726.112,4.089.145,3.533.086,7.067.108,10.6.118,8.177.022,16.354-.048,24.53-.073,15.84-.049,31.706.005,47.533-.725,1.083-.05,2.174-.084,3.255-.186a3.448,3.448,0,0,0,2.823-1.575,5.291,5.291,0,0,0,.365-3.337c-.361-4.627-.78-9.25-1.228-13.869-.61-6.272-1.391-12.54-1.818-18.827-.024-.358-.048-.716-.076-1.073-.2-2.55-4.2-2.571-4,0Z"/><path class="a" d="M142.666,123.983H128.705a.982.982,0,0,0-.982.982v4.252a.979.979,0,0,0,.979.982h13.961a.982.982,0,0,0,.982-.982v-4.252A.98.98,0,0,0,142.666,123.983Z"/><path class="b" d="M142.666,121.983h-11.76c-1.207,0-2.686-.231-3.759.441a3.1,3.1,0,0,0-1.424,2.606c-.038,1.056,0,2.119,0,3.176,0,.326-.014.656,0,.982a3.044,3.044,0,0,0,2.065,2.863,7.537,7.537,0,0,0,2.261.148h9.482c1.1,0,2.233.074,3.33-.02a3.017,3.017,0,0,0,2.784-2.962c.045-1.03,0-2.072,0-3.1,0-.382.017-.768,0-1.149a3.062,3.062,0,0,0-2.979-2.982,2.014,2.014,0,0,0-2,2,2.045,2.045,0,0,0,2,2c-.546-.055-1.078-.693-1.021-.953a1.785,1.785,0,0,0,0,.358v2.68a3.919,3.919,0,0,0,0,1.06c.095.275.238-.551.3-.631l.72-.3H129.025a1.293,1.293,0,0,0-.323,0l.721.3.3.72a1.123,1.123,0,0,0,0-.174,7.06,7.06,0,0,0,0-1.117c0-.895.072-1.823,0-2.714a1.031,1.031,0,0,0,0-.229v-.011q0-.4-.3.713c-.665.664-.982.206-.4.3a21.991,21.991,0,0,0,3.277,0h10.368C145.24,125.983,145.244,121.983,142.666,121.983Z"/><path class="b" d="M49.227,127.41c1.221-3.022,2.342-6.147,3.832-9.05a30.474,30.474,0,0,1,6.3-8.277,25.463,25.463,0,0,1,7.479-4.483c3.431-1.534,6.917-2.944,10.426-4.291,3.473-1.333,6.971-2.605,10.5-3.783,2.43-.81,1.389-4.675-1.063-3.857-7.09,2.367-14.092,5.051-20.935,8.058a31.611,31.611,0,0,0-8.464,4.832,34.054,34.054,0,0,0-7.018,8.546c-2.037,3.513-3.393,7.486-4.91,11.241a2.013,2.013,0,0,0,1.4,2.46,2.048,2.048,0,0,0,2.46-1.4Z"/><path class="b" d="M65.848,151.321q-2.748-1.692-5.64-3.13a2.126,2.126,0,0,0-1.541-.2,2,2,0,0,0-.478,3.656q2.886,1.444,5.64,3.13a2,2,0,1,0,2.019-3.454Z"/><path class="b" d="M126.958,97.522c3.229,1.283,6.469,2.536,9.7,3.8a142.053,142.053,0,0,1,14.376,6.115c.986.519,1.944,1.095,2.894,1.677.755.462,2.043,1.277,2.372,1.557a16.652,16.652,0,0,1,4.207,5.439c.394.774.754,1.563,1.119,2.351.066.142.294.695.038.081q.377.906.742,1.817,1.335,3.314,2.619,6.647c2.829,7.293,5.568,14.623,8.161,22,.847,2.413,4.713,1.374,3.857-1.063-2.413-6.868-4.954-13.69-7.572-20.482-1.477-3.831-2.877-7.73-4.592-11.464a23.308,23.308,0,0,0-4.391-6.88,27.15,27.15,0,0,0-5.763-4.193c-4.541-2.666-9.586-4.517-14.464-6.459-4.074-1.622-8.169-3.189-12.243-4.808a2.015,2.015,0,0,0-2.461,1.4,2.048,2.048,0,0,0,1.4,2.46Z"/><path class="f" d="M82.393,168.1c2.532-2.09,27.379-20.705,32.329-23.9,10.672,13.819,29.235,40.49,32.372,45.166-4.22,3.4-27.731,21.226-32.787,24.8-4.51-6.262-26.772-37.855-31.914-46.072"/><path class="b" d="M83.807,169.512c.17-.14.343-.277.516-.413s.931-.724.5-.39q1.224-.945,2.457-1.878,3.433-2.608,6.889-5.19c5.269-3.943,10.55-7.87,15.884-11.725,1.873-1.354,3.74-2.73,5.68-3.986L113,145.213c9.846,12.762,19.1,26,28.3,39.237,1.367,1.97,2.739,3.938,4.075,5.929l.313-2.424c-3.677,2.96-7.309,5.668-11.228,8.649q-7.761,5.9-15.57,11.739c-1.852,1.379-3.7,2.765-5.584,4.1l2.736.718q-13.463-18.7-26.412-37.782c-1.865-2.741-3.741-5.481-5.5-8.291-1.365-2.176-4.827-.17-3.454,2.019,3.742,5.969,7.837,11.731,11.848,17.52Q99.908,197.3,107.4,207.9c1.719,2.433,3.437,4.867,5.177,7.285a2.03,2.03,0,0,0,2.737.717c9.429-6.679,18.563-13.818,27.723-20.858,1.831-1.408,3.67-2.807,5.469-4.255a2,2,0,0,0,.312-2.424c-7.853-11.694-16.094-23.157-24.411-34.523-2.616-3.576-5.255-7.135-7.961-10.643a2.044,2.044,0,0,0-2.737-.718c-4.3,2.781-8.378,5.933-12.5,8.97q-7.773,5.734-15.477,11.566c-1.595,1.21-3.214,2.4-4.761,3.672-1.991,1.635.853,4.451,2.828,2.828Z"/><path class="a" d="M169.593,151.274a195.564,195.564,0,0,1-20.132,4.428c-.11,3.633-.172,7.221-.175,10.792-5.6,5.151-9.041,6.607-17.977,11.919l-7.352,3.1a4.735,4.735,0,0,1-3.442.094c-1.871-.674-3.571-1.2-5.934-2.041a35.283,35.283,0,0,0-4.025-.662c-1.751-.178-3.044-.384-4.8-.436-2.328-.068-3.683-.222-4.584.783a2.67,2.67,0,0,0-.607,2.176c.332,3.19,6.077,4.786,8.805,6.525a30.489,30.489,0,0,1-7.579,2.759,43.655,43.655,0,0,1-4.87-1.293,3.339,3.339,0,0,0-3.506,1.569,3.026,3.026,0,0,0,.916,3.737,12.25,12.25,0,0,0,1.869,1.05,6.178,6.178,0,0,0,.571,4.607,7.6,7.6,0,0,0,2.9,3.054,15.878,15.878,0,0,0,4.272,7.291,7.389,7.389,0,0,0,4.657,1.25c7.376-2.046,13.113-6.318,18.79-11.422a16.039,16.039,0,0,1,2.943-1.989c2.911-1.144,31.517-12.232,36.259-15.5,3.521-2.41,6.761-6.591,7.594-10.355.695-3.112.661-6.809-.419-12.556a83.936,83.936,0,0,0-2.327-9.443C170.847,150.9,170.229,151.087,169.593,151.274Z"/><path class="b" d="M108.358,186.221a28.8,28.8,0,0,1-7.1,2.557h1.063a39.333,39.333,0,0,1-4.722-1.244,5.275,5.275,0,0,0-5.736,2.156,5.035,5.035,0,0,0,.739,6.188c1.589,1.574,4.168,2.4,6.3,2.865a2.047,2.047,0,0,0,2.461-1.4,2.021,2.021,0,0,0-1.4-2.46,13.633,13.633,0,0,1-3.177-1.044,11.556,11.556,0,0,1-1.4-.821,1.426,1.426,0,0,1-.261-.563c.04.251-.009-.332-.007-.357-.022.276.009-.271.024-.108.114-.182.106-.188-.024-.021a2.309,2.309,0,0,1,.2-.209,2.521,2.521,0,0,1,.224-.2c-.119.108-.079.092.121-.051a1.064,1.064,0,0,1,.64-.2c-.322-.028.151.056.234.082.2.062.4.127.6.189q1.315.4,2.651.732c.411.1.823.2,1.239.279a4.79,4.79,0,0,0,2.077-.12,35,35,0,0,0,7.277-2.8,2.019,2.019,0,0,0,.718-2.736,2.041,2.041,0,0,0-2.736-.718Z"/><path class="b" d="M94.264,195.238c-.82,3.729.837,8.142,4.4,9.92l-.919-1.195c1.345,4.195,3.736,8.886,8.435,9.828,2.357.473,4.319-.216,6.512-1.093a41.441,41.441,0,0,0,6.952-3.563,63.116,63.116,0,0,0,6.471-4.828c1.011-.847,1.97-1.763,3.006-2.576a16.089,16.089,0,0,1,1.34-.967c-.039.025.966-.53.455-.294.057-.026.117-.043.175-.068,1.687-.735,3.44-1.346,5.151-2.021,6.42-2.533,12.823-5.109,19.174-7.809,5.278-2.245,11.23-4.28,15.367-8.42a20.791,20.791,0,0,0,4.928-7.532,19.342,19.342,0,0,0,.944-6.54c-.021-5.63-1.411-11.24-2.927-16.628-.7-2.475-4.556-1.423-3.857,1.063a64.125,64.125,0,0,1,2.754,14.384,19.028,19.028,0,0,1-.448,5.617,14.933,14.933,0,0,1-3.649,6.211,20.7,20.7,0,0,1-6.564,4.566c-2.775,1.34-5.607,2.565-8.442,3.771-6.137,2.612-12.332,5.089-18.537,7.536-1.681.663-3.372,1.306-5.049,1.98-2.195.882-3.929,2.565-5.7,4.088a59.152,59.152,0,0,1-6.276,4.793,36.169,36.169,0,0,1-7.494,3.82c-.72.258-1.454.512-2.2.7-.621.161.42.048-.224.039a4.393,4.393,0,0,1-.514-.035,5.152,5.152,0,0,1-2.318-.827c-1.869-1.748-2.743-3.933-3.616-6.262-.325-.867-.9-1.061-1.583-1.593a5.725,5.725,0,0,1-1.148-1.356,4.457,4.457,0,0,1-.748-3.649c.553-2.509-3.3-3.581-3.857-1.064Z"/><path class="b" d="M110.376,186.221c-1.866-1.156-3.957-1.892-5.836-3.029-.709-.428-3.066-2.324-1.607-2.724a11.888,11.888,0,0,1,3.289.014c1.614.079,3.232.275,4.834.474a38.855,38.855,0,0,1,7.887,2.209,7.993,7.993,0,0,0,6.091.043l4.372-1.841a92.211,92.211,0,0,0,10.963-5.923,63.632,63.632,0,0,0,12.271-9.381c1.844-1.8-.985-4.63-2.828-2.828a58.763,58.763,0,0,1-11.326,8.675c-2.578,1.526-5.157,3.08-7.777,4.533-.858.476-2.307,1.042-3.378,1.493-1.287.542-2.564,1.13-3.868,1.629a3.981,3.981,0,0,1-3.112-.137c-1.456-.511-2.924-.986-4.381-1.493a35.536,35.536,0,0,0-9.3-1.428c-2.584-.161-5.807-.521-7.425,1.978-1.8,2.776-.04,5.81,2.282,7.5,2.106,1.535,4.626,2.322,6.829,3.687s4.2-2.1,2.018-3.454Z"/><path class="b" d="M29.075,140.135c2.5,8.943,4.94,17.91,7.851,26.731,2.547,7.719,5.125,17.612,13.5,20.957a17.847,17.847,0,0,0,7.166,1.008c2.566-.135,4.8-1.175,7.168-2.045,2.4-.878,1.362-4.745-1.063-3.857a26.119,26.119,0,0,1-5.5,1.852,15.225,15.225,0,0,1-5.8-.5c-3.417-.981-6.007-4.386-7.518-7.419a85.25,85.25,0,0,1-4.233-11.486c-1.345-4.1-2.59-8.236-3.79-12.382-1.341-4.632-2.624-9.279-3.921-13.923-.692-2.475-4.553-1.424-3.857,1.064Z"/><path class="b" d="M29.238,127.917c-.261-.085-.52-.176-.776-.275-.125-.048-.25-.1-.374-.15.435.181-.1-.049-.146-.071-.627-.286-1.242-.6-1.847-.931a45.276,45.276,0,0,1-3.923-2.436,37.446,37.446,0,0,1-6.865-5.9,2,2,0,1,0-2.828,2.828,42.223,42.223,0,0,0,7.675,6.524,31.566,31.566,0,0,0,8.021,4.266,2,2,0,1,0,1.063-3.857Z"/><path class="b" d="M33.22,103.076c-1.035-1.365-2.161-2.7-3.106-4.13-.313-.473-.951-1.236-.411-1.7.5-.436,1.625-.164,2.14.072a20.981,20.981,0,0,1,4.64,3.622,39.238,39.238,0,0,1,4.247,3.882,9.812,9.812,0,0,1,2.108,4.431,24.479,24.479,0,0,1,.044,5.269,25.865,25.865,0,0,0,.237,5.283,41.384,41.384,0,0,0,1.226,4.991c.743,2.457,4.605,1.41,3.857-1.064a42.2,42.2,0,0,1-1.192-4.8,22.034,22.034,0,0,1-.123-4.586c.113-3.664.13-7.07-1.845-10.307a17.776,17.776,0,0,0-3.645-4.06c-1.426-1.258-2.814-2.562-4.3-3.758C35.593,95,33.988,93.587,32.032,93.2a5.826,5.826,0,0,0-5.184,1.223c-3.614,3.42.77,7.837,2.918,10.67a2.067,2.067,0,0,0,2.737.718,2.014,2.014,0,0,0,.717-2.737Z"/><path class="b" d="M33.274,103.623c-1.577-.788-3.2-1.481-4.766-2.291-.349-.18-.686-.386-1.035-.566-.056-.029-.48-.307-.2-.112.331.234-.565-.488-.65-.562-1.244-1.074-2.467-2.17-3.692-3.265a59.648,59.648,0,0,0-7.14-5.967,5.6,5.6,0,0,0-7.344.932l3.141.405c-1.609-2.425-4.5-2.445-6.583-.591-1.926,1.715.911,4.536,2.828,2.828.194-.172.325-.184.3-.218a2.021,2.021,0,0,0,3.141.4c1.585-1.827,3.559.478,4.886,1.592,2.166,1.819,4.247,3.735,6.368,5.6a20.956,20.956,0,0,0,4.588,3.285c1.37.681,2.774,1.292,4.142,1.975,2.3,1.148,4.324-2.3,2.019-3.454Z"/><path class="b" d="M24.836,106.765c-.112-.082-.746-.565-.3-.217-.248-.192-.493-.386-.738-.582-.6-.476-1.188-.96-1.778-1.446-1.436-1.184-2.859-2.384-4.28-3.586-2.487-2.106-4.953-4.238-7.454-6.326A8.835,8.835,0,0,0,6.441,92.4a4.434,4.434,0,0,0-5.5,4.093c-.392,4.389,4.155,7.469,7.1,9.988,3.463,2.967,6.971,5.88,10.44,8.839a2.052,2.052,0,0,0,2.828,0,2.016,2.016,0,0,0,0-2.828c-2.827-2.412-5.68-4.794-8.513-7.2-1.248-1.059-2.5-2.117-3.726-3.2-1.428-1.26-3.027-2.451-3.906-4.184-.43-.849,0,.1-.181-.4-.177-.48,0,.18-.043-.169-.027-.246-.117-.878.095-1.058s1,.144,1.275.285c.435.227.75.57.292.162.1.094.221.178.33.267.364.3.723.6,1.082.9,2.373,2,4.725,4.021,7.094,6.024,2.53,2.141,5.041,4.338,7.715,6.3a2.013,2.013,0,0,0,2.736-.717,2.046,2.046,0,0,0-.717-2.737Z"/><path class="b" d="M5.7,99.507a4.386,4.386,0,0,0-5.666,3.8c-.237,2.329.963,4.089,2.249,5.887a86.683,86.683,0,0,0,10.2,11.791c1.848,1.794,4.679-1.032,2.828-2.828a83.574,83.574,0,0,1-8.049-8.919c-.62-.806-1.22-1.628-1.807-2.458q-.423-.6-.835-1.208c-.113-.167-.22-.338-.334-.5-.194-.281.077.25-.02-.013A3.14,3.14,0,0,1,4,103.61c.017-.108.144-.265.019-.148-.036.033.183-.116.139-.111.262-.033.137-.086.475.013,2.474.73,3.531-3.129,1.063-3.857Z"/><path class="b" d="M21.062,117.082a4.819,4.819,0,0,1,.165-.713c.013-.042.122-.379.039-.142s.043-.089.065-.133a8.821,8.821,0,0,1,.726-1.2c.08-.113.165-.222.245-.334.172-.243-.2.255-.008.007.149-.187.3-.374.448-.559q.508-.626,1.042-1.23c1.361-1.549,2.82-3.007,4.292-4.45a2,2,0,1,0-2.829-2.829c-1.557,1.527-3.1,3.071-4.527,4.72s-3.152,3.544-3.515,5.8a2.05,2.05,0,0,0,1.4,2.46,2.023,2.023,0,0,0,2.46-1.4Z"/><path class="b" d="M61.923,152.641c-5.011-9.547-10.2-19.143-13.832-29.32-.86-2.406-4.726-1.369-3.857,1.064,3.752,10.5,9.062,20.42,14.236,30.275,1.2,2.28,4.65.261,3.453-2.019Z"/><path class="b" d="M127.12,94.754a24.731,24.731,0,0,1-10.2,5.42q-1.621.463-3.282.77c-1.181.219-2.454.209-3.611.514-2.482.654-2.848,3.128-4.24,4.906l3.141.4c-1.276-1.947-2.024-4.655-4.551-5.285-1.18-.294-2.472-.275-3.673-.488a36.154,36.154,0,0,1-3.559-.816,29.979,29.979,0,0,1-5.932-2.355A30.8,30.8,0,0,1,86.694,94.8a2.013,2.013,0,0,0-2.737.717,2.051,2.051,0,0,0,.718,2.737,33.649,33.649,0,0,0,9.828,5.291,36.774,36.774,0,0,0,6.673,1.545c.774.107,1.988-.031,2.5.561a10.338,10.338,0,0,1,.839,1.593c.3.525.625,1.036.957,1.542.629.96,2.3,1.481,3.141.4a16.692,16.692,0,0,0,1.907-2.976c.132-.271.241-.712.495-.868a4.511,4.511,0,0,1,1.478-.2,36.909,36.909,0,0,0,7.039-1.6,28.337,28.337,0,0,0,10.412-5.965c1.88-1.766-.953-4.59-2.829-2.828Z"/><path class="b" d="M151.3,164.153c.114-13.32.979-26.618,1.93-39.9.184-2.568-3.817-2.557-4,0-.951,13.282-1.816,26.58-1.93,39.9-.022,2.575,3.978,2.577,4,0Z"/><path class="b" d="M149.992,157.632c4.5-.763,8.974-1.647,13.414-2.684a73.5,73.5,0,0,0,12.927-3.961,2.013,2.013,0,0,0,.717-2.736,2.05,2.05,0,0,0-2.736-.718,69.576,69.576,0,0,1-12.335,3.642q-6.483,1.5-13.05,2.6a2.016,2.016,0,0,0-1.4,2.46,2.046,2.046,0,0,0,2.46,1.4Z"/></svg>