<svg xmlns="http://www.w3.org/2000/svg" width="341.364" height="318.95" viewBox="0 0 341.364 318.95" style="color: initial !important;"><defs><style>.a{fill:#211715;}.b{fill:#c6c6c6;}.c{fill:#3d8dcc;}.d{fill:#ffffff;}</style></defs><path class="a" d="M95.157,207.9a66.552,66.552,0,0,0-52.088-.445,54.212,54.212,0,0,0-28.836,29.608,67.462,67.462,0,0,0-4.7,25.375c-.007,3.089,4.793,3.094,4.8,0,.031-13.661,3.955-27.532,13.042-37.88,8.938-10.178,21.752-15.884,35.193-17.063a61.245,61.245,0,0,1,30.167,4.55,2.476,2.476,0,0,0,3.284-.861,2.419,2.419,0,0,0-.861-3.284Z"/><path class="a" d="M44.689,314.412a66.455,66.455,0,0,0,50.687-1A54.172,54.172,0,0,0,123.4,283.805a67.636,67.636,0,0,0,4.528-24.948c.007-3.089-4.793-3.093-4.8,0-.031,13.506-3.862,27.243-12.752,37.547-8.717,10.1-21.235,15.933-34.466,17.3a62.835,62.835,0,0,1-29.944-3.919,2.416,2.416,0,0,0-2.952,1.676,2.459,2.459,0,0,0,1.676,2.952Z"/><path class="a" d="M123.35,239.933l-8.834,15.3a1.483,1.483,0,0,0,1.284,2.224h17.668a1.482,1.482,0,0,0,1.284-2.224l-8.834-15.3A1.482,1.482,0,0,0,123.35,239.933Z"/><path class="a" d="M121.623,238.923l-6.692,11.591-1.613,2.794a7.136,7.136,0,0,0-.906,1.862,3.536,3.536,0,0,0,3.437,4.288c.585.023,1.177,0,1.763,0h15.13a4.588,4.588,0,0,0,2.643-.581,3.551,3.551,0,0,0,1.01-4.8c-.948-1.749-1.992-3.451-2.987-5.174l-4.656-8.064c-.36-.624-.7-1.267-1.083-1.876a3.537,3.537,0,0,0-6.046-.042,2.02,2.02,0,0,0,.718,2.737,2.041,2.041,0,0,0,2.736-.718c-.123.178-.951.388-.886,0,0,.019.039.047.038.065-.007.116.225.391.283.491l1.234,2.137,3.817,6.61,3.077,5.331a2.985,2.985,0,0,0,.312.541c.227.236-.08-.253.2-.551.261-.279.435-.046.128-.108a3.936,3.936,0,0,0-.72,0H116.288c-.047,0-.408-.04-.439,0,.112-.143.764.6.4.775.226-.11.512-.887.63-1.092l1.462-2.532,6.736-11.667C126.366,238.709,122.911,236.692,121.623,238.923Z"/><path class="a" d="M13.556,283.087l8.834-15.3a1.482,1.482,0,0,0-1.284-2.224H3.438a1.483,1.483,0,0,0-1.284,2.224l8.834,15.3A1.482,1.482,0,0,0,13.556,283.087Z"/><path class="a" d="M15.283,284.1l6.692-11.591,1.613-2.794a7.136,7.136,0,0,0,.906-1.862,3.536,3.536,0,0,0-3.436-4.288c-.586-.023-1.177,0-1.764,0H4.164a4.586,4.586,0,0,0-2.642.581,3.552,3.552,0,0,0-1.011,4.8c.948,1.748,1.993,3.451,2.987,5.173l4.656,8.065c.36.623.7,1.267,1.083,1.876a3.537,3.537,0,0,0,6.046.042,2.019,2.019,0,0,0-.717-2.737,2.041,2.041,0,0,0-2.737.718c.124-.178.951-.388.886,0,0-.019-.039-.047-.038-.065.007-.116-.225-.391-.283-.491l-1.234-2.137-3.816-6.61-3.078-5.331a2.872,2.872,0,0,0-.312-.541c-.227-.236.08.253-.2.551-.261.279-.435.046-.127.108a3.925,3.925,0,0,0,.719,0H20.619a1.653,1.653,0,0,0,.439,0c-.112.143-.764-.6-.4-.775-.226.109-.511.886-.63,1.091l-1.462,2.533-6.736,11.667C10.54,284.311,14,286.328,15.283,284.1Z"/><path class="b" d="M88.145,249.5a10.7,10.7,0,0,1,2.244,6.609,13.17,13.17,0,0,1-.1,1.519,10.658,10.658,0,0,1,10.414,10.8c0,6.525-4.544,11.019-10.883,11.019H52.368c-8.434,0-13.941-5.81-13.941-14.115a13.616,13.616,0,0,1,10.358-13.427,15.264,15.264,0,0,1,28.984-6.216,11.583,11.583,0,0,1,1.962-.175A10.482,10.482,0,0,1,88.145,249.5Z"/><path class="a" d="M86.072,250.708a9.276,9.276,0,0,1,1.819,6.917,2.433,2.433,0,0,0,2.4,2.4,8.333,8.333,0,0,1,7.426,5.211,9.228,9.228,0,0,1-1.366,9.016c-2.965,3.439-7.723,2.8-11.847,2.8H56.122a45.441,45.441,0,0,1-5.634-.1,10.8,10.8,0,0,1-7.477-4.221,12.86,12.86,0,0,1-1.682-10.842,11.239,11.239,0,0,1,8.094-7.664,2.451,2.451,0,0,0,1.762-2.314,12.6,12.6,0,0,1,9.419-12A13,13,0,0,1,75.7,246.9a2.454,2.454,0,0,0,2.711,1.1,8.515,8.515,0,0,1,8.041,3.19,2.416,2.416,0,0,0,3.394,0,2.457,2.457,0,0,0,0-3.394c-3.1-3.832-7.965-5.168-12.711-4.424l2.71,1.1a17.461,17.461,0,0,0-15.072-9.759,17.645,17.645,0,0,0-15.51,7.745,17.962,17.962,0,0,0-2.874,9.441l1.762-2.315c-9.392,2.441-14.294,12.6-11.2,21.656a15.181,15.181,0,0,0,7.775,8.936c4.178,1.964,8.68,1.665,13.176,1.665H83.767c5.626,0,11.689.524,15.879-4.09a13.966,13.966,0,0,0,2.586-14.1,13.269,13.269,0,0,0-11.941-8.437l2.4,2.4a13.206,13.206,0,0,0-2.474-9.339,2.476,2.476,0,0,0-3.284-.861A2.417,2.417,0,0,0,86.072,250.708Z"/><circle class="c" cx="277.232" cy="84.198" r="8.043"/><path class="a" d="M262.146,67.93a24.48,24.48,0,0,1,30.172,0,3.706,3.706,0,0,0,5.091,0c1.268-1.268,1.514-3.856,0-5.091a31.292,31.292,0,0,0-40.354,0c-1.507,1.23-1.277,3.814,0,5.091a3.682,3.682,0,0,0,5.091,0Z"/><path class="a" d="M247.362,51.23a42.871,42.871,0,0,1,10.372-7.258,44.41,44.41,0,0,1,12.284-4,26.345,26.345,0,0,1,2.672-.359q1.849-.177,3.708-.208,1.663-.029,3.325.057.822.042,1.642.113.408.036.816.078c-.031,0,1.124.127.662.068a43.789,43.789,0,0,1,6.489,1.374q1.622.465,3.208,1.046c.494.181.985.372,1.473.569.4.162.46.189,1.127.5a47.089,47.089,0,0,1,6.475,3.624,38.834,38.834,0,0,1,5.487,4.4,3.6,3.6,0,1,0,5.091-5.091A50.726,50.726,0,0,0,286.16,32.993a51.857,51.857,0,0,0-30.291,3.912,50.537,50.537,0,0,0-13.6,9.234,3.6,3.6,0,0,0,5.091,5.091Z"/><path class="a" d="M232.278,35.268a62.384,62.384,0,0,1,15.355-11.326,55.708,55.708,0,0,1,8.62-3.757,66.66,66.66,0,0,1,9.776-2.565,60.033,60.033,0,0,1,9.754-.952q2.683-.055,5.366.1,1.224.069,2.444.184c.4.038.809.08,1.212.125.176.019,1.2.145.85.1a64.706,64.706,0,0,1,10.12,2.223,58.528,58.528,0,0,1,8.8,3.406,67.152,67.152,0,0,1,9.5,5.594,48,48,0,0,1,3.85,2.968q2.211,1.861,4.255,3.905c3.291,3.27,8.384-1.819,5.092-5.091a70.862,70.862,0,0,0-37.324-19.571,71.843,71.843,0,0,0-43.35,5.81,70.956,70.956,0,0,0-19.418,13.761c-3.291,3.27,1.8,8.362,5.092,5.091Z"/><circle class="d" cx="68.453" cy="52.647" r="50.286"/><path class="a" d="M116.339,52.647A48.357,48.357,0,0,1,107.425,80.5,47.85,47.85,0,0,1,84.909,97.639,47.9,47.9,0,0,1,27.5,27.819a47.9,47.9,0,0,1,88.3,17.512,47.648,47.648,0,0,1,.54,7.316c.011,3.088,4.811,3.094,4.8,0a52.793,52.793,0,0,0-9.76-30.538A52.656,52.656,0,0,0,27.9,19.027a52.664,52.664,0,0,0,18.7,81.562A52.67,52.67,0,0,0,120.48,60.9a56.057,56.057,0,0,0,.659-8.254C121.15,49.558,116.35,49.554,116.339,52.647Z"/><path class="a" d="M93.6,52.647a79.209,79.209,0,0,1-4.84,28.066,47.709,47.709,0,0,1-5.4,10.323,27.07,27.07,0,0,1-6.554,6.711,20.268,20.268,0,0,1-1.838,1.108,10.743,10.743,0,0,1-1.772.8,16.361,16.361,0,0,1-1.953.573q-.522.118-1.052.2a7.014,7.014,0,0,0-.782.069,12,12,0,0,1-3.864-.3,13.311,13.311,0,0,1-3.609-1.351c-5.951-3.167-9.977-9.417-12.757-15.629a73.155,73.155,0,0,1-5.793-26.67A82.375,82.375,0,0,1,47.056,27.67C49.334,20.659,52.832,13.6,58.5,8.764a16.861,16.861,0,0,1,7.28-3.729,6.735,6.735,0,0,1,1.6-.236,13.272,13.272,0,0,1,6.047.919A20.3,20.3,0,0,1,80.3,10.55a36.612,36.612,0,0,1,6.1,8.771c4.073,7.862,6.131,16.809,6.874,25.589.218,2.574.318,5.155.324,7.737.008,3.088,4.808,3.094,4.8,0-.024-10.274-1.556-20.764-5.4-30.336C90.057,14.982,85.751,7.7,79.016,3.261A18.893,18.893,0,0,0,59.845,2.122c-6.79,3.442-11.5,10.312-14.6,17.054a78.88,78.88,0,0,0-6.661,29.562A85.866,85.866,0,0,0,42.659,79.6c2.6,7.7,6.6,15.653,13.063,20.834,5.3,4.246,12.176,6.233,18.751,3.854,7.188-2.6,12.357-8.878,15.844-15.451,4.579-8.63,6.857-18.354,7.724-28.033.243-2.713.354-5.434.36-8.157C98.409,49.558,93.609,49.554,93.6,52.647Z"/><path class="a" d="M25.186,28.271c5.346,2.083,11.135,2.955,16.8,3.675,5.948.755,11.944,1.158,17.935,1.378a222.916,222.916,0,0,0,33.065-1.147c6.293-.708,12.79-1.595,18.728-3.9a2.471,2.471,0,0,0,1.677-2.952,2.418,2.418,0,0,0-2.953-1.676,67.109,67.109,0,0,1-16,3.553c-5.789.716-11.622,1.1-17.45,1.318a224.2,224.2,0,0,1-32.61-1.1c-6.028-.661-12.235-1.574-17.915-3.786a2.417,2.417,0,0,0-2.952,1.676,2.455,2.455,0,0,0,1.676,2.952Z"/><path class="a" d="M26.762,82.131a68.338,68.338,0,0,1,15.652-3.445c5.843-.731,11.73-1.12,17.613-1.331a223.159,223.159,0,0,1,32.329,1.08c5.982.657,12.12,1.562,17.78,3.686a2.42,2.42,0,0,0,2.953-1.676,2.452,2.452,0,0,0-1.677-2.952,72.626,72.626,0,0,0-16.223-3.517c-6-.779-12.048-1.19-18.091-1.414a221.279,221.279,0,0,0-33.024,1.125C37.827,74.4,31.4,75.271,25.486,77.5a2.467,2.467,0,0,0-1.676,2.952,2.418,2.418,0,0,0,2.952,1.676Z"/><path class="a" d="M19.732,55.047h97.442c3.089,0,3.094-4.8,0-4.8h-1.656c-3.089,0-3.094,4.8,0,4.8h1.656v-4.8H19.732c-3.089,0-3.094,4.8,0,4.8Z"/><path class="a" d="M66.053,3.926v97.442c0,3.089,4.8,3.094,4.8,0V99.712c0-3.089-4.8-3.094-4.8,0v1.656h4.8V3.926c0-3.089-4.8-3.094-4.8,0Z"/><path class="d" d="M311.867,291.316c16.386,0,27.086-11.288,27.086-27.424A26.458,26.458,0,0,0,318.829,237.8c-.305-15.674-12.349-28.761-29.538-28.761-12.507,0-22.247,6.936-26.775,16.685a22.408,22.408,0,0,0-3.813-.341,20.366,20.366,0,0,0-16.347,7.737A20.8,20.8,0,0,0,238,245.966a25.281,25.281,0,0,0,.19,2.95,20.707,20.707,0,0,0-20.234,20.992c0,12.678,8.828,21.408,21.145,21.408h72.769Z"/><path class="a" d="M311.867,293.716c10.832-.054,21.262-5.172,26.194-15.136,5.017-10.137,4.41-23.178-2.445-32.331a28.994,28.994,0,0,0-16.149-10.759l1.762,2.314A31.882,31.882,0,0,0,306.1,211.163a33.45,33.45,0,0,0-33.24-.218,31.1,31.1,0,0,0-12.418,13.571l2.71-1.1a23.907,23.907,0,0,0-20.11,5.459,23.414,23.414,0,0,0-7.257,20.043l2.4-2.4a23.055,23.055,0,0,0-22.57,21.714c-.853,11.2,5.882,21.86,16.948,24.682,4.515,1.151,9.344.8,13.958.8,3.088,0,3.093-4.8,0-4.8a88.187,88.187,0,0,1-10.127-.144,18.172,18.172,0,0,1-11.307-5.641c-6.047-6.573-6.324-17.738-.866-24.789a18.622,18.622,0,0,1,13.964-7.026,2.419,2.419,0,0,0,2.4-2.4c-.68-6.12,1.006-12.137,5.592-16.412a18.716,18.716,0,0,1,15.7-4.462,2.47,2.47,0,0,0,2.711-1.1,26.829,26.829,0,0,1,23.153-15.46c9.486-.447,18.85,3.638,24.154,11.68a27.734,27.734,0,0,1,4.533,14.645,2.452,2.452,0,0,0,1.762,2.314,24.251,24.251,0,0,1,18.189,20.631c1.032,8.948-2.109,18.706-9.645,23.865a26.225,26.225,0,0,1-14.868,4.3c-3.088.016-3.1,4.816,0,4.8Z"/><path class="a" d="M277.239,278.445v21c0,3.089,4.8,3.094,4.8,0v-21c0-3.088-4.8-3.093-4.8,0Z"/><path class="c" d="M279.574,305.8h.132a4.975,4.975,0,0,1,4.975,4.975v.133a4.975,4.975,0,0,1-4.975,4.975h-.133a4.975,4.975,0,0,1-4.975-4.975v-.132A4.976,4.976,0,0,1,279.574,305.8Z"/><rect class="c" x="297.088" y="305.798" width="10.083" height="10.083" rx="4.975"/><rect class="c" x="251.98" y="306.168" width="10.083" height="10.083" rx="4.975"/><path class="a" d="M266.645,278.442v13.25l2.4-2.4H257.157a2.435,2.435,0,0,0-2.4,2.4v7.754c0,3.089,4.8,3.094,4.8,0v-7.754l-2.4,2.4h11.888a2.435,2.435,0,0,0,2.4-2.4v-13.25c0-3.088-4.8-3.093-4.8,0Z"/><path class="a" d="M287.982,278.442v13.25a2.435,2.435,0,0,0,2.4,2.4h11.737l-2.4-2.4v7.754c0,3.089,4.8,3.094,4.8,0v-7.754a2.435,2.435,0,0,0-2.4-2.4H290.382l2.4,2.4v-13.25c0-3.088-4.8-3.093-4.8,0Z"/></svg>