<svg id="b" xmlns="http://www.w3.org/2000/svg" width="246.18" height="146.813" viewBox="0 0 246.18 146.813" style="color: initial !important;"><defs><style>.d{fill:#bdbdbd;}.d,.e,.f,.g,.h{stroke-width:0px;}.e{fill:#f2635f;}.f{fill:#ffffff;}.g{fill:#95cbeb;}.h{fill:#211715;}</style></defs><g id="c"><path class="f" d="M8.093,52.807v92.005c96.386.001,133.618.001,230,.001,0-35.428,0-58.797,0-92.006"/><path class="f" d="M243.093,2.017H3.093c-.552,0-1,.448-1,1v48.79c0,.552.448,1,1,1h240c.552,0,1-.442,1-.995,0-11.997,0-42.85,0-48.798,0-.552-.448-.997-1-.997Z"/><path class="g" d="M107.913,102.997v41.82H8.093V52.807h99.82v50.19Z"/><path class="h" d="M6.093,52.807v92.005c0,1.081.916,2,2,2,16.851,0,33.702,0,50.553,0,14.104,0,28.207,0,42.311,0,13.115,0,26.23,0,39.345,0,13.885,0,27.771,0,41.656,0,16.415,0,32.829,0,49.244,0,2.296,0,4.593,0,6.889,0,1.081,0,2-.916,2-2,0-23.742,0-47.483,0-71.225,0-6.927,0-13.854,0-20.781,0-2.574-4-2.578-4,0,0,23.36,0,46.72,0,70.08,0,7.309,0,14.617,0,21.926l2-2c-16.85,0-33.701,0-50.551,0-14.103,0-28.207,0-42.31,0-13.115,0-26.23,0-39.345,0-13.886,0-27.772,0-41.657,0-16.415,0-32.831,0-49.246,0-2.297,0-4.593,0-6.89,0l2,2V52.807c0-2.574-4-2.578-4,0h0Z"/><path class="h" d="M243.093.017H7.146C5.887.017,4.62-.022,3.361.017,1.588.072.214,1.16.093,3.024.029,4.003.093,5.007.093,5.988c0,12.097,0,24.195,0,36.292,0,3.151-.209,6.382,0,9.527.197,2.959,2.599,3,4.738,3h162.881c11.885,0,23.771,0,35.656,0h39.194c.465,0,.922.009,1.379-.122,2.471-.709,2.152-3.407,2.152-5.418,0-1.792,0-3.584,0-5.376,0-8.637,0-17.274,0-25.911,0-3.442,0-6.885,0-10.327,0-2.41.804-7.039-2.468-7.564-1.065-.171-2.152.275-2.46,1.397-.262.953.324,2.288,1.397,2.46-1.389-.223-.294-1.25-.468-.624-.018.064.006.157,0,.226-.017.209,0,.426,0,.636,0,.579,0,1.157,0,1.736,0,1.397,0,2.794,0,4.191,0,3.848,0,7.696,0,11.544,0,8.395,0,16.789,0,25.184,0,.81,0,1.62,0,2.43,0,.267-.171,2.259,0,2.351-.227-.121,1.375-.563.863-.81-.245-.118-.85,0-1.116,0H4.646c-.412,0-.886-.065-1.294,0-.072.011-.174-.025-.242,0,1.445-.537.867,1.734.983.653.148-1.379,0-2.857,0-4.242v-7.802c0-6.623,0-13.246,0-19.87V4.685c0-.406.122-1.039,0-1.429-.241-.772-.68,1.032-.969.761.095.089.71,0,.832,0h239.136c2.574,0,2.578-4,0-4Z"/><path class="h" d="M105.913,52.997v91.82c0,2.574,4,2.578,4,0V52.997c0-2.574-4-2.578-4,0h0Z"/><path class="h" d="M55.963,52.807v92.01c0,2.574,4,2.578,4,0V52.807c0-2.574-4-2.578-4,0h0Z"/><path class="h" d="M145.003,117.571v-35.422c0-.081.056-.444,0-.509.143.165-.729.319-.42.533.269.186,1.347,0,1.664,0h45.315c.532,0,1.327.151,1.842,0,.041-.012.131.024.167,0,.008-.006.033.007.04,0,.145-.134-.416-.673-.543-.553-.044.042.009.315,0,.374-.122.817,0,1.748,0,2.572v31.404c0,.239-.172,1.399,0,1.585-.163-.177.733-.322.42-.539-.097-.068-.49,0-.607,0h-47.55c-.192,0-.478-.054-.664,0-.545.16.189-.729.336.554-.124-1.073-.831-2-2-2-.985,0-2.124.92-2,2,.244,2.122,1.627,3.393,3.744,3.446.698.018,1.398,0,2.096,0h43.518c1.743,0,4.193.375,5.578-.904,1.645-1.518,1.127-4.634,1.127-6.657v-11.372c0-6.693.117-13.398,0-20.09-.036-2.065-1.265-3.694-3.447-3.821-.368-.021-.743,0-1.111,0h-32.267c-5.217,0-10.498-.241-15.711,0-2.038.094-3.437,1.517-3.527,3.542-.032.719,0,1.446,0,2.165v33.69c0,2.574,4,2.578,4,0Z"/><path class="h" d="M159.931,80.174v-3.282c0-.76,0-1.52,0-2.28,0-.211.144-1.237,0-1.361-.222-.191-.033.81-.55.475.027.017.086-.014.114,0,.182.092.681,0,.876,0h3.309c3.18,0,6.36,0,9.54,0h3.895c.316,0,1.296.18,1.574,0-.568.369-.317-.795-.55-.446-.075.112,0,.544,0,.677v2.279c0,1.312,0,2.625,0,3.937,0,2.574,4,2.578,4,0v-3.72c0-1.309.199-2.813-.101-4.105-.762-3.281-4.774-2.623-7.278-2.623h-10.309c-1.324,0-2.648,0-3.972,0-1.194,0-2.344-.022-3.324.833-1.537,1.342-1.223,3.417-1.223,5.247v4.368c0,2.574,4,2.578,4,0h0Z"/><path class="d" d="M173.858,103.202h4.697c.719,0,1.302-.58,1.302-1.298v-4.179c0-.985-.58-1.564-1.299-1.564-1.124,0-2.856,0-4.697,0-.719,0-1.304-.583-1.304-1.302v-5.003c0-.719-.58-1.302-1.299-1.302-1.286,0-3.159,0-4.445,0-.719,0-1.298.583-1.298,1.302v4.881c0,.719-.583,1.302-1.302,1.302h-4.697c-.719,0-1.302.58-1.302,1.298v4.179c0,.985.575,1.564,1.294,1.564,1.328,0,3.384,0,4.712,0,.719,0,1.294.583,1.294,1.302v4.954c0,.719.58,1.302,1.298,1.302,1.286,0,3.159,0,4.445,0,.719,0,1.298-.583,1.298-1.302v-4.832c0-.719.583-1.302,1.302-1.302Z"/><path class="e" d="M183.277,109.725c-2.524,2.94-1.752,7.439,1.651,10.295,2.844,2.387,7.619,2.771,10.428-.439.879-1.005,3.62-4.188,5.066-5.902-3.304-2.772-8.539-7.165-11.974-10.048-1.481,1.758-4.372,5.165-5.17,6.094Z"/><path class="f" d="M206.934,102.106c-.259-1.767-1.234-3.34-2.612-4.496-3.889-3.263-7.948-3.22-11.005.422-.867,1.033-3.158,3.558-4.46,5.11-.119.142-.257.306-.41.488,3.396,2.851,8.716,7.316,11.974,10.049.096-.113.186-.22.269-.32,1.344-1.602,4.263-5.217,4.263-5.217,1.722-2.052,2.257-4.154,1.981-6.035Z"/><path class="h" d="M201.012,111.573c-2.965-2.488-5.929-4.975-8.894-7.463l-1.696-1.423c-.8-.672-2.054-.843-2.828,0-.68.741-.856,2.11,0,2.828,3.008,2.524,6.016,5.048,9.025,7.573l1.565,1.313c.8.672,2.054.843,2.828,0,.68-.741.856-2.11,0-2.828h0Z"/><path class="h" d="M199.277,111.944c-1.47,1.749-2.962,3.481-4.457,5.209-1.337,1.547-2.623,2.777-4.812,2.744-4.048-.06-8.124-5.058-5.317-8.759,1.22-1.609,2.64-3.101,3.944-4.643,1.438-1.7,2.882-3.391,4.357-5.059,1.396-1.579,2.815-3.822,5.06-4.175,2.296-.361,4.946,1.314,6.155,3.19,1.398,2.17.726,4.53-.796,6.433-1.36,1.7-2.737,3.389-4.135,5.059-.693.828-.811,2.017,0,2.828.712.712,2.132.832,2.828,0,3.29-3.931,8.298-8.571,6.524-14.219-1.039-3.305-4.015-5.847-7.257-6.898-3.373-1.094-6.878.093-9.218,2.675-3.475,3.834-6.781,7.831-10.122,11.782-2.024,2.394-2.806,5.45-1.792,8.485,1.035,3.096,3.46,5.595,6.522,6.713,3.337,1.219,7.287.507,9.787-2.077,1.965-2.031,3.738-4.299,5.556-6.462.695-.826.81-2.018,0-2.828-.713-.713-2.13-.831-2.828,0Z"/></g></svg>