<svg xmlns="http://www.w3.org/2000/svg" width="227.74" height="418.584" viewBox="0 0 227.74 418.584" style="color: initial !important;"><defs><style>.a{fill:#ffffff;}.b{fill:#b3b3b3;}.c{fill:#211715;}.d{fill:#a095c1;}.e{fill:none;}</style></defs><path class="a" d="M111.239,31.37c6.006,5.633,10.185,8.963,18.63,20.852a65.925,65.925,0,0,1,6.185,11.37c2.05,5-1.543,12.3-1.543,12.3a16.218,16.218,0,0,0-1.408,6.693c-11.123,4.745-28.672,11.919-28.672,11.919-.428-3.89-3.07-8.331-3.374-8.936a1.7,1.7,0,0,0-2.082-.846c-3.354,1.194-8.684,1.1-12.661-.016a9.786,9.786,0,0,1-5.754-4.533c-2.017-3.186-3.293-9.33-3.655-12.081a7.811,7.811,0,0,0-2.032-3.177c-1.474-1.359-3.749-2.329-2.829-4.96a4.762,4.762,0,0,1,2-2.345c4.476-2.893,4.119-10,3.873-15.114a38.021,38.021,0,0,1-.173-8.307,43.285,43.285,0,0,1,1.7-9.088S82.054,10.036,98.2,21.3A114.671,114.671,0,0,1,111.239,31.37Z"/><path class="b" d="M117.4,2.346c8.889,1.118,17.013,4.913,20.394,10.786,9.543,6,13.541,18.121,12.836,29.7.158,5.873-2.012,13.591-5.364,17.92-3.048,3.938-4.751,5.621-7.147,9.159A34.308,34.308,0,0,0,135.3,74.26c-4.92-1.73-9.415-5.681-10.838-9.075l-2.539-7.069a13.09,13.09,0,0,0,1.089-5.9,5.524,5.524,0,0,0-2.9-4.847,5.2,5.2,0,0,0-4.035-.106,6.271,6.271,0,0,0-1.38.753c-7.727-4.005-14.005-8.893-18.229-14.4-4.362.751-12.741-2.309-17.06-7.886l-.119-.155c2.425-8.271,7.154-13.46,13.066-17.92C98.8,2.792,108.486,1.224,117.4,2.346Z"/><path class="c" d="M136.763,72.63c-.335-.1-.667-.2-1-.322-.15-.054-.3-.109-.449-.167-.04-.015-.5-.2-.3-.115s-.251-.112-.291-.13q-.264-.12-.525-.247c-.289-.141-.576-.29-.859-.444q-.887-.484-1.728-1.048-.4-.264-.78-.546c-.127-.093-.254-.186-.378-.282.3.233-.167-.14-.182-.152a19.158,19.158,0,0,1-2.586-2.54c-.089-.105-.174-.213-.261-.32.294.36-.037-.056-.075-.109q-.226-.314-.433-.641a10.1,10.1,0,0,1-.734-1.392,2,2,0,0,0-2.736-.717,2.062,2.062,0,0,0-.717,2.736,16.258,16.258,0,0,0,4.858,5.929,23.686,23.686,0,0,0,8.1,4.364,2,2,0,1,0,1.063-3.857Z"/><path class="c" d="M75.74,34.192c-.461,5.192.715,10.352.158,15.541a9.623,9.623,0,0,1-1.884,5.28c-.751.867-1.815,1.352-2.587,2.2A5.861,5.861,0,0,0,69.839,61.3c.089,2.442,2.031,3.558,3.62,5.037,1.654,1.541,1.663,3.542,2.106,5.613C76.6,76.8,78.2,82.073,82.449,85.073c2.357,1.664,5.357,2.147,8.17,2.4a21.974,21.974,0,0,0,8.888-.819c2.426-.82,1.385-4.685-1.063-3.857a18.369,18.369,0,0,1-7,.738,14.071,14.071,0,0,1-6.413-1.545c-3.742-2.282-4.849-7.459-5.674-11.432-.175-.845-.308-1.7-.457-2.546a7.915,7.915,0,0,0-1.511-3.248,11.957,11.957,0,0,0-2.234-2.193c-.494-.395-1.33-.884-1.318-1.581.016-.945,1.07-1.524,1.721-2.01a9.494,9.494,0,0,0,2.326-2.5A14.468,14.468,0,0,0,79.82,50.4c.685-5.41-.56-10.792-.08-16.2a2.014,2.014,0,0,0-2-2,2.042,2.042,0,0,0-2,2Z"/><path class="c" d="M91.7,29.9c4.556,8.609,12.7,14.853,21.128,19.384,2.267,1.218,4.289-2.234,2.019-3.454C106.983,41.6,99.4,35.916,95.151,27.879c-1.2-2.276-4.658-.257-3.454,2.019Z"/><path class="c" d="M79.74,34.192a35.071,35.071,0,0,1,4.738-15.443A34.78,34.78,0,0,1,93.6,9.211c7.3-5.347,17.516-6.168,26.167-4.472a30.91,30.91,0,0,1,11.979,4.8,15.4,15.4,0,0,1,3.68,3.59,9.834,9.834,0,0,0,.955,1.416,12.579,12.579,0,0,0,1.605,1.12,21.477,21.477,0,0,1,3.077,2.742,29.007,29.007,0,0,1,6.9,14.165,38.405,38.405,0,0,1,.74,8.383,42.54,42.54,0,0,1-.735,8.4,28.4,28.4,0,0,1-3.3,8.72c-1.663,2.746-3.977,5.092-5.942,7.621-4.132,5.317-8.145,11.162-7.555,18.224.212,2.547,4.214,2.57,4,0-.484-5.788,2.649-10.34,5.932-14.789,1.576-2.136,3.341-4.128,4.982-6.213a27.681,27.681,0,0,0,4.022-6.906,41.554,41.554,0,0,0,2.6-15.807,40.126,40.126,0,0,0-2.933-15.353A28.857,28.857,0,0,0,138.8,11.405l.718.718C134.168,3.013,121.654-.012,111.834,0A38.027,38.027,0,0,0,95.277,3.542,36.283,36.283,0,0,0,82.932,14c-4.511,5.856-6.536,12.914-7.192,20.2a2.016,2.016,0,0,0,2,2,2.042,2.042,0,0,0,2-2Z"/><path class="c" d="M78,27.142a23.881,23.881,0,0,0,15.869,8.524,2.014,2.014,0,0,0,2-2,2.045,2.045,0,0,0-2-2s-.52-.06-.242-.024-.2-.032-.253-.041q-.448-.075-.892-.173c-.626-.137-1.245-.306-1.855-.5a18.293,18.293,0,0,1-3.442-1.447,18.711,18.711,0,0,1-6.357-5.167,2.011,2.011,0,0,0-2.828,0,2.05,2.05,0,0,0,0,2.829Z"/><path class="c" d="M115.077,50.593a3.321,3.321,0,0,1,4.266-1.381c1.644.857,1.78,2.959,1.655,4.618a13,13,0,0,1-6.389,9.757c-2.209,1.318-.2,4.777,2.019,3.454,5.029-3,8.773-8.838,8.386-14.829-.2-3.161-1.951-6.231-5.189-7.073a7.437,7.437,0,0,0-8.2,3.435c-1.316,2.22,2.141,4.234,3.454,2.019Z"/><path class="a" d="M41.608,382.81a15.906,15.906,0,0,1-2.1,3.65c-.17,2.06-1.641,4.9-1.6,5a1.2,1.2,0,0,0,.748,1.137,48.137,48.137,0,0,0,6.409,3.379c3.113,1.457,8.331,3.189,11.283,1.433.057-.395.1-.652.1-.652.37-2.437,1.009-6.11,2.824-9.011-.45-.178-.971-.389-1.589-.618A97.224,97.224,0,0,1,42.8,379.438C42.4,380.6,42.07,381.694,41.608,382.81Z"/><path class="a" d="M197.117,385.011a17.032,17.032,0,0,0-3.1-3.707,21.185,21.185,0,0,0-4.146-6.564,34.842,34.842,0,0,0,7.067-3.1,49.4,49.4,0,0,0,8.6-6.686l.64,1.213a27.708,27.708,0,0,0,6.138,6.848c-.107,3.43-4.381,6.893-7.289,8.73a48.261,48.261,0,0,1-6.3,3.575,1.2,1.2,0,0,1-1.361.016A1.682,1.682,0,0,1,197.117,385.011Z"/><path class="a" d="M147.28,177.549c-.638-.328-1.165-.612-1.537-.823l-.137-.074a75.787,75.787,0,0,0,.849,18.167,18.577,18.577,0,0,0,2.1,4.865l1.146-.385a5.072,5.072,0,0,0,2.415-1.1,24.039,24.039,0,0,0,3.985-6.925,83.142,83.142,0,0,1,3.539-9.037C156.281,181.879,150.427,179.17,147.28,177.549Z"/><path class="a" d="M49.859,124.441v-7.135c-.464-4.518.133-8.012-1.208-12.442-.626-2.068-1.957-4.47-4.434-4.2-3.692.4-2.415,5.009-3.388,7.744-1.979-2.531-5.3-7.608-9.029-6.889-1.983.382-2.528,1.748-3.709,2.972s-3.064,1.142-4.443,2.378a11.22,11.22,0,0,0-1.468,1.788c-.869,1.192-.728.969-2.024,1.675-1.983,1.079-2.276,3-1.9,5.14a15.449,15.449,0,0,0,5.511,9.71c3.11,2.806,6.689,6.466,11.366,5.805Z"/><path class="a" d="M151.114,105.261c-5.191-8.7-14.11-14.554-15.206-25.377-5.153-1.524-15.686,4.34-21.511,6.329-5.352,1.827-11.706,4.389-12.983,5.8-.727,1.884-.649,5.4,1.033,11.536-10.7,4.763-18.235,23.8-22.6,31.1-2.953,4.025-6.667,10.871-10.581,10.291-3.873-.574-8.678-10.387-10.861-14.074a77.661,77.661,0,0,0-4.975-7.559,1.754,1.754,0,0,0-2.1-.522c-3.721,1.687-13.869,6.9-18.011,9.5-.887.556-1.888,2.13-1.4,3.055,3.812,7.2,17.138,28.6,20.517,32.965,4.6,5.939,8.4,8.753,16.232,8.1a34.472,34.472,0,0,0,14.4-5l.619,8.674c.3,4.7,2.468,30.084,3.241,39.307,11.16.387,32.238-2.6,46.5-3.238,4.122-.183,15.913.532,18.657-3.814,2.887-4.574-4.8-12.987-5.63-17.516a75.794,75.794,0,0,1-.848-18.174c2.56,1.483,15.04,7.738,16.447,4.909,1.516-3.048,2.464-7.631,3.433-10.386,2.278-6.475,4.3-13.01,6.557-19.461,2.117-6.054,2.689-11.07-.27-16.987-5.553-11.107-12.764-20.374-20.734-29.415"/><path class="d" d="M204.673,354.184c-2.213-4.189-4.872-9.03-5.571-10.055-3.141-4.608-19.866-28.822-24.972-37.863-4.812-8.522-11.851-19.461-15.457-28.637-2.881-7.33-12.2-34.025-15.326-44.74.043-.054.065-.085.065-.085,3.446-2.326,5.685-14.192,6.392-18.572-4.476,2.22-13,1.767-16.376,1.917-14.122.629-34.924,3.566-46.166,3.249,6.528,23.528,19,43.1,29.509,64.277,11.519,23.2,27.716,40.428,42.4,61.032,6.137,8.611,17.3,20.142,23.561,28.52,3.508,4.185,10.267.513,14.2-1.583,2.117-1.127,12.51-8.619,10.905-11.149C207.56,359.741,206.226,357.123,204.673,354.184Z"/><path class="d" d="M66.041,382.87a19.181,19.181,0,0,1-1.822,3.119c-2.629,3.253-2.731,2.552-6.537,1.141-2.467-.914-16.492-7.32-18.914-11.246-.6-1.464,3.778-13.367,4.607-16.415,1.41-5.184,18.121-54.4,21.024-63.567,5.1-16.085,15.061-41.089,22.185-59.289l3.373-8.619c6.308,18.118,15.8,34.142,24.413,50.929a93.784,93.784,0,0,0-6.8,9.221c-3.578,5.522-13.285,20.732-14.945,24.322-1.595,4.277-9.221,26.481-13.2,37.082C77.888,353.629,70.285,374.379,66.041,382.87Z"/><path class="c" d="M57.08,387.537a27.239,27.239,0,0,0-2.561,8.691,2.188,2.188,0,0,0,.2,1.541,2,2,0,0,0,3.656-.478c.2-1.289.421-2.574.74-3.84.182-.722.394-1.438.644-2.139q.1-.27.2-.535c.035-.089.071-.178.107-.266q-.165.385-.034.081c.16-.35.322-.7.5-1.036a2,2,0,0,0-3.454-2.019Z"/><path class="c" d="M40.559,379.827c-.285.86-.574,1.719-.924,2.555l.2-.477a16.688,16.688,0,0,1-2.1,3.605l.313-.4c-.078.1-.156.2-.235.3a2.173,2.173,0,0,0-.585,1.414,2.039,2.039,0,0,0,.585,1.414,2.014,2.014,0,0,0,1.415.586,1.937,1.937,0,0,0,1.414-.586,18.67,18.67,0,0,0,2.392-3.734,33.691,33.691,0,0,0,1.38-3.609,2.015,2.015,0,0,0-1.4-2.46,2.047,2.047,0,0,0-2.46,1.4Z"/><path class="a" d="M57.549,396.322c-2.473,3.391-8.883,1.34-12.481-.344a48.137,48.137,0,0,1-6.409-3.379,1.2,1.2,0,0,1-.748-1.137c-.048-.118,1.87-3.791,1.576-5.818s-2.387-3.3-4.246-3.565c-2.336-.33-5.209-.066-9.383.435.184-.053-6.717,1.182-10.551.676-1.774-.233-7.395-.964-9.309-.142-5.367,2.307-5.235,10.99-.186,14.187,3.9,2.471,12.52,6.547,16.593,8.654,8.235,4.26,25.8,12.913,29.708,10.169,2.95-2.079,4.167-5.452,5.323-8.615.569-1.557.944-2.882,1.406-4.529a7.638,7.638,0,0,0-1.293-6.592"/><path class="c" d="M204.451,367.18A27.277,27.277,0,0,0,210.408,374a2.114,2.114,0,0,0,1.414.586,2,2,0,0,0,1.414-3.414,32.206,32.206,0,0,1-4.321-4.432l.313.4a17.4,17.4,0,0,1-1.323-1.983,2,2,0,1,0-3.454,2.018Z"/><path class="c" d="M189.068,376.913c.3.374.606.748.9,1.129l-.313-.4a17.794,17.794,0,0,1,2.309,3.852l-.2-.477q.258.615.473,1.246a2.124,2.124,0,0,0,.919,1.195,2,2,0,0,0,2.938-2.259,18.827,18.827,0,0,0-1.883-4.024,33.867,33.867,0,0,0-2.315-3.086,2,2,0,0,0-1.414-.585,2.039,2.039,0,0,0-1.414.585,2.014,2.014,0,0,0-.586,1.415,2.3,2.3,0,0,0,.586,1.414Z"/><path class="a" d="M212.048,371.424c1.521,3.911-3.662,8.2-7.021,10.325a48.261,48.261,0,0,1-6.3,3.575,1.2,1.2,0,0,1-1.361.016c-.125-.022-2.184-3.619-4.05-4.464s-4.068.229-5.292,1.653c-1.537,1.789-2.864,4.351-4.693,8.136.054-.183-2.628,6.295-5.121,9.25-1.153,1.369-4.8,5.708-5.14,7.763-.952,5.764,6.432,10.335,11.848,7.807,4.185-1.953,12.265-7.013,16.235-9.306,8.029-4.638,24.786-14.761,24.585-19.535-.16-3.6-2.345-6.449-4.385-9.128-1-1.319-1.918-2.35-3.056-3.626a7.636,7.636,0,0,0-6.248-2.466"/><path class="c" d="M56.135,394.908c-1.547,1.973-4.551,1.23-6.624.627a38.916,38.916,0,0,1-8.383-3.763q-.493-.283-.976-.588c-.692-.437-.33-.228-.243.318-.029-.185.018.652-.009.305,0,.039-.178.346-.051.123a4.107,4.107,0,0,0,.165-.386,18.507,18.507,0,0,0,1.346-4c.593-3.4-1.4-6.165-4.648-7.184-3.371-1.057-7.446-.256-10.854.15l1.415,3.415v0c.987-1.164.473-3.622-1.414-3.414a58.387,58.387,0,0,1-9.412.776c-3.483-.173-7.273-1.317-10.713-.266-3.762,1.15-5.779,5.206-5.734,8.923A11.052,11.052,0,0,0,5.674,399.5c3.717,2.208,7.64,4.079,11.508,6,3.223,1.6,6.411,3.272,9.643,4.856,3.781,1.853,7.611,3.617,11.524,5.175a40.329,40.329,0,0,0,10.3,2.978,7.133,7.133,0,0,0,4.2-.564c2.256-1.246,3.862-3.685,4.914-5.966a52.654,52.654,0,0,0,2.877-8.09,9.81,9.81,0,0,0-1.37-8.574,2.063,2.063,0,0,0-2.737-.718,2.014,2.014,0,0,0-.717,2.736,6.245,6.245,0,0,1,.846,5.921,48.544,48.544,0,0,1-2.275,6.532,11.013,11.013,0,0,1-3.445,4.645c-.33.238.3-.043-.134.052-.137.03-.79.117-.293.077a9.474,9.474,0,0,1-1.562-.02c-2.533-.208-5.969-1.479-8.65-2.515-3.417-1.32-6.753-2.847-10.052-4.436-6.437-3.1-12.861-6.315-19.173-9.662-2.712-1.439-5.811-2.711-6.759-5.9-.728-2.446-.3-5.718,2.18-7.009,1.114-.579,3.181-.368,4.679-.264,1.661.116,3.307.406,4.967.518a34.712,34.712,0,0,0,6.238-.284c.908-.1,1.815-.224,2.72-.355.272-.039,1.855-.242.751-.12L24.446,381.1l0,0c-.979,1.155-.476,3.64,1.414,3.414,1.905-.227,3.814-.457,5.73-.547a12.086,12.086,0,0,1,3.9.21c1.065.313,2.137,1.032,2.013,2.259a12.912,12.912,0,0,1-1.073,3.389,3.3,3.3,0,0,0-.245,2.911c.7,1.593,2.8,2.463,4.268,3.224a39.488,39.488,0,0,0,9.122,3.728c3.151.728,7.176.868,9.386-1.952a2.063,2.063,0,0,0,0-2.828,2.012,2.012,0,0,0-2.828,0Z"/><path class="c" d="M210.119,371.955c1.037,2.99-2.991,5.941-5.074,7.386a54.788,54.788,0,0,1-5.516,3.372,6.492,6.492,0,0,0-1.442.717q-.712.234.331.214a1.563,1.563,0,0,1,.549.535c.066-.126-.888-1.286-.982-1.415a10.961,10.961,0,0,0-3.66-3.615,6.237,6.237,0,0,0-6.232.675c-3.188,2.18-4.872,6.491-6.49,9.832l3.656.478v0c-.473-1.54-2.857-2.089-3.656-.477-1.4,2.824-2.556,5.771-4.421,8.344-2.006,2.768-4.9,5.306-5.917,8.674-1.2,3.97,1.347,8.032,4.718,9.982a11.263,11.263,0,0,0,5.958,1.538,13.176,13.176,0,0,0,5.658-1.812c3.782-1.976,7.423-4.222,11.083-6.413,3.074-1.841,6.188-3.613,9.246-5.481,3.5-2.135,6.954-4.35,10.264-6.768a38.2,38.2,0,0,0,7.726-6.824,7.192,7.192,0,0,0,1.815-4c.122-2.648-1.16-5.36-2.572-7.518a48.922,48.922,0,0,0-5.574-7.03,9.634,9.634,0,0,0-7.538-2.919c-2.551.2-2.572,4.2,0,4a6.011,6.011,0,0,1,5.139,2.222,50.944,50.944,0,0,1,4.3,5.417,11.52,11.52,0,0,1,2.252,5.7c.021.306.1-.425-.027.115-.109.452.055-.023-.066.219a10.125,10.125,0,0,1-.716,1.169,32.488,32.488,0,0,1-6.5,5.807c-2.96,2.178-6.044,4.186-9.167,6.123-5.96,3.7-12.031,7.274-18.117,10.759-2.623,1.5-5.605,3.751-8.794,3.123-2.623-.517-5.8-2.832-5.353-5.871.206-1.416,1.605-3.072,2.538-4.3,1-1.321,2.136-2.54,3.1-3.89a59.151,59.151,0,0,0,4.421-8.344L181.4,391.2v0c.47,1.529,2.87,2.1,3.656.478,1.284-2.652,2.525-5.85,4.621-7.994.79-.808,2.068-1.51,3.125-.8a10.126,10.126,0,0,1,2.322,2.748,3.594,3.594,0,0,0,2.08,1.805c1.728.425,3.6-.843,5.053-1.656a39.96,39.96,0,0,0,8.314-5.815c2.384-2.3,4.6-5.631,3.4-9.071-.838-2.417-4.7-1.378-3.857,1.063Z"/><path class="c" d="M147.875,213.7a90.337,90.337,0,0,1-2.072,9.713c-.25.9-.52,1.8-.821,2.687-.249.734-.619,1.721-.818,2.152a15.1,15.1,0,0,1-1.057,1.981q-.135.207-.282.406c-.092.127.234-.226-.073.073-.1.1-.206.2-.3.307-.322.374.24-.148-.053.058a2.056,2.056,0,0,0-.717,2.737,2.016,2.016,0,0,0,2.736.717c2.921-2.058,4.1-6.106,5.045-9.369a87.458,87.458,0,0,0,2.266-10.4,2.061,2.061,0,0,0-1.4-2.46,2.017,2.017,0,0,0-2.461,1.4Z"/><path class="c" d="M140.454,229.705a73.042,73.042,0,0,0,2.421,8.469c1.5,4.727,3.07,9.429,4.667,14.122,2.889,8.492,5.772,17.009,9.012,25.375a134.425,134.425,0,0,0,9.606,18.894c2.9,4.983,5.725,10.028,8.767,14.927,5.607,9.029,11.626,17.809,17.617,26.585,1.737,2.545,3.625,5.037,5.217,7.676,2.271,3.767,4.3,7.7,6.32,11.608.449.865.9,1.732,1.325,2.607q.222.45.435.9c.05.106.095.213.145.319.118.249-.327-.631.03.076.189.375.032-.008-.006-.218.056.312.1-.35.008-.012-.1.355-.035.138-.056.178-.1.189-.2.372-.319.551a13.419,13.419,0,0,1-1.88,2.137,40.191,40.191,0,0,1-10.307,7.3c-2.2,1.082-5.424,2.679-7.915,1.686-1.232-.491-1.935-1.8-2.715-2.8-1.007-1.286-2.042-2.552-3.088-3.806-4.582-5.492-9.391-10.79-13.946-16.3-4.642-5.618-8.749-11.657-13.172-17.446-4.689-6.137-9.48-12.195-14.109-18.377-4.644-6.2-9.121-12.537-13.167-19.149-4.2-6.868-7.665-14.11-11.395-21.235-7.306-13.955-15.1-27.731-20.683-42.5q-2.123-5.617-3.79-11.389c-.711-2.469-4.572-1.419-3.857,1.063,4.54,15.77,11.952,30.434,19.605,44.88,3.781,7.136,7.429,14.336,11.162,21.5a185.52,185.52,0,0,0,12.7,20.642c9.1,12.981,19.283,25.16,28.548,38.021,4.165,5.782,8.936,11.117,13.6,16.5,2.354,2.715,4.707,5.432,6.981,8.215,1.951,2.389,3.606,5.465,6.836,6.216,3.2.743,6.469-.434,9.351-1.747a35.51,35.51,0,0,0,5.573-3.091,56.662,56.662,0,0,0,5.736-4.517c1.568-1.421,3.456-3.154,4.1-5.243a4.269,4.269,0,0,0,.2-1.263,3.28,3.28,0,0,0-.12-.822c-.08-.283-.422-.964-.159-.366-.295-.67-.586-1.334-.91-1.991-.994-2.013-2.046-4-3.1-5.977a100.028,100.028,0,0,0-5.434-9.569c-5.51-8.052-11.023-16.1-16.382-24.256-2.634-4.007-5.281-8.022-7.682-12.175-3.663-6.333-7.477-12.593-10.945-19.037-4.7-8.734-7.805-18.1-11.058-27.435-3.17-9.1-6.4-18.225-9.066-27.491-.312-1.085-.633-2.176-.84-3.287-.473-2.527-4.328-1.457-3.858,1.063Z"/><path class="c" d="M84.655,236.081c-5.533,14.135-11.147,28.241-16.368,42.5-3.218,8.783-6.071,17.679-9.024,26.552Q54.5,319.449,49.69,333.756c-2.578,7.717-5.208,15.422-7.642,23.186-.928,2.958-1.856,5.913-2.818,8.861-.771,2.363-1.564,4.737-2.129,7.159a10.31,10.31,0,0,0-.388,2.612,4.072,4.072,0,0,0,1.375,2.649,26.873,26.873,0,0,0,5.847,4.3c2.36,1.412,4.8,2.685,7.276,3.885,1.826.887,3.672,1.752,5.559,2.5,2.04.813,4.369,2.1,6.494.828,3.172-1.9,4.808-6.356,6.229-9.549,2.139-4.811,4.085-9.708,5.993-14.614q4.853-12.474,9.353-25.084,3.121-8.736,6.171-17.5,1.193-3.4,2.39-6.8c.273-.769.545-1.537.823-2.3.1-.267.19-.536.293-.8-.242.623.139-.235.249-.445,2.36-4.492,5.177-8.772,7.876-13.063,2.89-4.6,5.729-9.258,8.876-13.685.914-1.287,1.847-2.563,2.814-3.812.294-.38.592-.759.9-1.129.193-.233.889-.815.169-.32l-1.009.273h.015l-2-2,.058-.475c-.885,2.421,2.979,3.465,3.858,1.063a2.2,2.2,0,0,0,.084-.588,2.022,2.022,0,0,0-2-2,3.119,3.119,0,0,0-2.256,1.53c-.917,1.136-1.8,2.3-2.664,3.478-1.7,2.3-3.291,4.662-4.837,7.065-3.009,4.676-5.99,9.371-8.9,14.109-2.024,3.3-4.244,6.576-5.558,10.232-1.634,4.551-3.214,9.121-4.815,13.683-3.225,9.186-6.5,18.35-9.917,27.466-3.384,9.03-6.659,18.22-10.9,26.894-.356.728-.722,1.453-1.123,2.158-.145.256-.294.511-.453.76-.073.113-.152.223-.224.337-.307.494.265-.284-.076.105a13.71,13.71,0,0,1-1.343,1.485c-.159.135-.192.153-.169.13-.007.008.156.007-.024-.032.44.1-.2-.07-.3-.105-.266-.092-.531-.185-.794-.286q-.963-.372-1.923-.748c-.153-.06-.733-.3-.559-.222.252.105-.283-.122-.362-.156q-.351-.151-.7-.308-1.53-.681-3.037-1.412c-2.424-1.171-4.819-2.411-7.138-3.778a23.913,23.913,0,0,1-5.419-3.9c-.136-.144-.388-.346-.3-.335-.016,0,.044.138.047.157.15.9.155-.594.059-.012a27.224,27.224,0,0,1,.675-2.856c1.178-4.225,2.75-8.327,3.964-12.54,1.844-6.4,4.095-12.706,6.2-19.026q4.858-14.588,9.752-29.164c2.545-7.616,4.951-15.284,7.58-22.871,4.9-14.142,10.4-28.078,15.861-42.009q1.881-4.8,3.762-9.595a2.014,2.014,0,0,0-1.4-2.46,2.048,2.048,0,0,0-2.461,1.4Z"/><path class="e" d="M89.947,227.962c-1.013,2.633-2.147,5.542-3.363,8.651"/><path class="c" d="M81.686,180.08c.663,10.4,1.677,20.785,2.554,31.168q.345,4.07.687,8.139a2.051,2.051,0,0,0,2,2,160.547,160.547,0,0,0,19.332-.986c7.421-.66,14.833-1.45,22.266-1.967,5.526-.384,11.132-.079,16.621-.863,2.585-.37,5.337-1.018,7.378-2.745,2.121-1.8,2.509-4.521,1.929-7.118-.642-2.878-2.235-5.534-3.65-8.088a40.428,40.428,0,0,1-1.881-3.62,15.527,15.527,0,0,1-.9-3.959,88.025,88.025,0,0,1,.618-25.063c1.27-8.442,3.555-16.623,5.58-24.9,2.072-8.467,3.648-17.227,2.556-25.957a30.027,30.027,0,0,0-2.933-10.061,45.3,45.3,0,0,0-5.258-7.754c-3.563-4.432-7.8-8.707-9.695-14.193a19.427,19.427,0,0,1-.979-4.229,2.083,2.083,0,0,0-1.468-1.928c-3.045-.83-6.376.064-9.281,1.028-3.442,1.143-6.741,2.662-10.084,4.055-3.467,1.445-7.06,2.55-10.526,4-2.455,1.028-6.592,2.226-7.284,5.17-.887,3.775.218,8,1.186,11.637.661,2.486,4.521,1.431,3.857-1.063a35.842,35.842,0,0,1-1.287-6.67,7.723,7.723,0,0,1,.321-3.57l-.514.882c.341-.351-.053-.017.257-.237.186-.132.383-.251.578-.369.58-.347,1.186-.653,1.794-.947,1.56-.754,3.165-1.407,4.781-2.031,3.038-1.171,6.117-2.189,9.118-3.459,2.878-1.218,5.739-2.493,8.705-3.489,2.257-.758,5.121-1.68,7.315-1.082l-1.468-1.929c.685,6.265,3.779,11.357,7.661,16.172,3.595,4.461,7.751,8.76,9.8,14.221,2.791,7.457,2,16.147.532,23.8-1.575,8.242-4.129,16.257-5.807,24.477a118.217,118.217,0,0,0-2.664,24.85,61.209,61.209,0,0,0,1.122,12.045c.546,2.55,2.1,4.9,3.338,7.156,1.17,2.126,2.793,4.742,2.842,7.158a2.379,2.379,0,0,1-.789,2.023,6.942,6.942,0,0,1-2.508,1.227c-4.737,1.427-9.8.929-14.675,1.167-13.967.681-27.845,2.919-41.832,3.219-1.332.029-2.664.03-4-.013l2,2c-.937-11.171-1.906-22.339-2.8-33.514-.154-1.93-.316-3.86-.439-5.793-.163-2.556-4.164-2.575-4,0Z"/><path class="c" d="M114.341,135.519c-3.337,5.2-7.876,9.985-12.1,14.725-4.182,4.693-8.4,9.4-12.861,13.83-6.182,6.133-15.451,11.063-24.37,10.37-6.712-.523-10.615-6.577-13.989-11.674C46.87,156.5,42.905,150.1,39.03,143.655c-1.637-2.722-3.266-5.453-4.8-8.237-.145-.263-.284-.529-.43-.791-.183-.328-.047-.116-.046-.057.008.511.063.055.155-.024.217-.184.355-.462.6-.644a12.452,12.452,0,0,1,1.137-.684c1.679-.988,3.389-1.923,5.1-2.843,3.486-1.871,7-3.7,10.579-5.39a2.979,2.979,0,0,1,.841-.392c-.45,0-.053.264.173.57.733.992,1.416,2.02,2.082,3.057,1.057,1.645,2.074,3.317,3.031,5.022A68.572,68.572,0,0,0,63.8,143.275c2.331,2.854,5.552,4.89,9.128,2.749,3.719-2.227,6.067-6.635,8.46-10.1a78.317,78.317,0,0,0,4.573-8.535c3.606-6.956,7.467-14.492,13.557-19.626a15.327,15.327,0,0,1,4.012-2.513,2.062,2.062,0,0,0,1.4-2.46,2.014,2.014,0,0,0-2.46-1.4c-7.776,3.154-12.752,10.987-16.731,17.988-1.954,3.44-3.721,6.979-5.547,10.488a62.925,62.925,0,0,1-6.178,9.62c-.962,1.235-2.379,3.207-4.059,3.484-.478.078-.539.031-1.118-.338a8.627,8.627,0,0,1-1.645-1.525c-2.644-2.964-4.461-6.659-6.4-10.1-.984-1.746-2.033-3.458-3.124-5.138-1.256-1.935-2.756-5.055-5.36-5.215-1.753-.108-3.666,1.188-5.2,1.946q-2.914,1.44-5.791,2.951c-1.919,1-3.829,2.025-5.718,3.083-1.537.861-3.431,1.688-4.563,3.074a4.585,4.585,0,0,0-1.175,3.659,7.258,7.258,0,0,0,.915,2.069c.726,1.319,1.478,2.624,2.238,3.924C37,148.183,41.169,154.9,45.45,161.543c3.52,5.459,7.267,12.2,13.267,15.217,4.346,2.185,9.433,2.057,14.08,1.017a40.073,40.073,0,0,0,14.766-6.956c5.039-3.712,9.175-8.571,13.375-13.17,5.1-5.584,10.2-11.226,14.8-17.235.717-.937,1.421-1.885,2.058-2.878,1.393-2.174-2.068-4.182-3.454-2.019Z"/><path class="c" d="M96.939,208.754c4.473-.142,8.941-.4,13.409-.658,3.37-.2,6.747-.309,10.105-.669,6.671-.713,13.3-1.791,19.964-2.548a2.061,2.061,0,0,0,2-2,2.012,2.012,0,0,0-2-2c-6.666.757-13.293,1.835-19.964,2.548-3.358.36-6.735.473-10.105.669-4.468.259-8.936.516-13.409.658-2.568.081-2.579,4.082,0,4Z"/><path class="c" d="M137.236,87.876c-5.912,1.435-10.934,5.107-16.74,6.82-2.463.727-1.415,4.588,1.064,3.857,5.807-1.713,10.839-5.388,16.74-6.82,2.5-.607,1.441-4.465-1.064-3.857Z"/><path class="c" d="M149.626,106.719A166.069,166.069,0,0,1,163.3,124.15a108.746,108.746,0,0,1,5.831,9.789c1.755,3.341,2.927,6.609,2.626,10.433-.3,3.787-1.864,7.4-3.062,10.961-1.351,4.016-2.65,8.05-4.014,12.062-1.135,3.336-2.082,6.713-3.163,10.064-.242.748-.493,1.5-.794,2.223-.1.234-.39.621-.394.862,0,.178.3-.281.293-.269.207-.227.209.09-.061,0-.3-.094.286.006-.077,0-.175,0-.35,0-.526-.01-.095,0-.19-.015-.285-.025-.329-.033.277.045-.072-.011-4.456-.719-8.946-3.037-12.847-5.232-2.247-1.263-4.265,2.191-2.019,3.454a51.42,51.42,0,0,0,12.814,5.431c1.848.442,4.344.848,5.8-.726,1.082-1.17,1.548-3.156,2.026-4.635.56-1.737,1.018-3.5,1.541-5.253,1.231-4.114,2.748-8.159,4.095-12.238,1.382-4.185,3.105-8.358,4.113-12.65a20.847,20.847,0,0,0-.341-11.648,58.216,58.216,0,0,0-5.8-11.127,161.389,161.389,0,0,0-16.528-21.716c-1.7-1.937-4.524.9-2.828,2.828Z"/><path class="c" d="M157.91,181.223a54.09,54.09,0,0,0-3.485,8.783,21.255,21.255,0,0,1-1.832,4.031,19.218,19.218,0,0,1-1.484,2.284c-.028.036-.243.284-.337.389a2.139,2.139,0,0,1-.207.208c.1-.09.093-.094-.027-.014a5.4,5.4,0,0,1-1.369.466c-2.5.624-1.439,4.483,1.063,3.857a6.987,6.987,0,0,0,3.3-1.611,14.417,14.417,0,0,0,1.923-2.572,25.983,25.983,0,0,0,2.612-5.34c.5-1.458,1.017-2.912,1.56-4.356.325-.866.658-1.73,1.013-2.585-.143.345.084-.192.092-.212.068-.155.136-.309.208-.463.132-.287.271-.57.426-.846,1.261-2.248-2.193-4.267-3.454-2.019Z"/><path class="c" d="M51.859,117.306c-.488-4.988.192-10.257-2.044-14.921a6.049,6.049,0,0,0-5.147-3.744,4.879,4.879,0,0,0-4.781,3.3,11.366,11.366,0,0,0-.537,2.976c-.04.441-.071.884-.113,1.326-.012.121-.107.791-.04.391-.039.235-.083.468-.136.7a2.044,2.044,0,0,0,1.4,2.46,2.022,2.022,0,0,0,2.46-1.4,20.651,20.651,0,0,0,.384-2.912c.036-.438.067-.878.127-1.314-.062.454.059-.278.076-.356.037-.168.083-.333.13-.5.033-.106.069-.21.109-.313q-.147.344,0,.042c.118-.141.237-.388.043-.1a2.515,2.515,0,0,1,.221-.217q-.3.224-.015.036c.2-.1.2-.1-.008-.007l.175-.053c.229-.044.248-.057.056-.037a3.4,3.4,0,0,1,.451-.02c.41-.005-.05-.061.293.06q.343.116.074.028a3.457,3.457,0,0,1,.339.208c-.247-.18.217.232.271.289.07.075.138.153.2.233q-.16-.187.053.106c.133.21.249.428.368.647a1.607,1.607,0,0,1,.187.4c.089.226.165.456.238.688a18.332,18.332,0,0,1,.769,3.8c.255,2.729.131,5.476.4,8.2a2.056,2.056,0,0,0,2,2,2.014,2.014,0,0,0,2-2Z"/><path class="c" d="M42.4,107.191c-2.287-2.892-4.651-6.713-8.52-7.583a6.13,6.13,0,0,0-5.963,2,6.852,6.852,0,0,1-1.839,1.863,22.666,22.666,0,0,0-3.141,1.421,11.91,11.91,0,0,0-2.488,2.752c-.058.076-.529.626-.2.35a7.742,7.742,0,0,1-1.106.607,6.066,6.066,0,0,0-3.023,5.647,17.521,17.521,0,0,0,5.653,11.807c3.616,3.455,7.945,7.56,13.36,6.928a2.062,2.062,0,0,0,2-2,2.012,2.012,0,0,0-2-2c-3.829.446-6.662-2.223-9.3-4.624-2.732-2.489-4.717-4.964-5.5-8.651-.318-1.494-.5-2.918.986-3.739a6.9,6.9,0,0,0,1.6-1.05c.624-.61,1.035-1.425,1.6-2.086,1.216-1.422,3.305-1.473,4.714-2.689.989-.853,1.673-2.594,3.129-2.695,1.543-.108,2.939,1.4,3.889,2.429,1.2,1.3,2.218,2.753,3.315,4.14a2.013,2.013,0,0,0,2.829,0,2.05,2.05,0,0,0,0-2.828Z"/><path class="c" d="M122.312,127.755c2.024-8.092,1.347-18.078-5.487-23.788a2.054,2.054,0,0,0-2.828,0,2.015,2.015,0,0,0,0,2.828c5.751,4.806,6.159,13.1,4.458,19.9-.625,2.5,3.232,3.563,3.857,1.063Z"/><path class="c" d="M78.263,73.574a11.965,11.965,0,0,0,4.653-.619,7.356,7.356,0,0,0,2.776-1.637,2,2,0,1,0-2.829-2.828,3.327,3.327,0,0,1-.327.289l.405-.313a5.74,5.74,0,0,1-1.24.706l.478-.2a9.032,9.032,0,0,1-2.211.585l.532-.072a12.213,12.213,0,0,1-2.237.091,2.014,2.014,0,0,0-2,2,2.043,2.043,0,0,0,2,2Z"/><path class="c" d="M84.505,54.578a2.717,2.717,0,0,1,.582-.135l-.532.071a6.3,6.3,0,0,1,1.594.033l-.531-.072a6.789,6.789,0,0,1,1.671.435l-.477-.2a2.926,2.926,0,0,1,.6.336l-.405-.313a1.326,1.326,0,0,1,.213.2l-.312-.405.02.027a2.238,2.238,0,0,0,1.195.919,2,2,0,0,0,2.461-1.4,1.934,1.934,0,0,0-.2-1.541,3.727,3.727,0,0,0-1.017-1,3.125,3.125,0,0,0-.489-.266,7.986,7.986,0,0,0-1.777-.588,10.186,10.186,0,0,0-1.954-.209,5.14,5.14,0,0,0-1.7.242,2.15,2.15,0,0,0-1.195.92,2,2,0,0,0,.717,2.736,1.98,1.98,0,0,0,1.541.2Z"/><path class="c" d="M89.18,67.543a4.746,4.746,0,0,1,.7.741l-.312-.405a6.654,6.654,0,0,1,.824,1.44l-.2-.478a5.8,5.8,0,0,1,.405,1.431l-.071-.531.005.043A2.222,2.222,0,0,0,91.12,71.2a2,2,0,0,0,2.828,0,1.922,1.922,0,0,0,.586-1.414,7.913,7.913,0,0,0-.281-1.46,10.044,10.044,0,0,0-.6-1.448,6.487,6.487,0,0,0-.6-.971,6.8,6.8,0,0,0-1.05-1.19,2.139,2.139,0,0,0-1.414-.586,2.037,2.037,0,0,0-1.415.586,2.013,2.013,0,0,0-.585,1.414,1.963,1.963,0,0,0,.585,1.414Z"/></svg>