<svg id="b" xmlns="http://www.w3.org/2000/svg" width="156.956" height="416.948" viewBox="0 0 156.956 416.948" style="color: initial !important;"><defs><style>.e{fill:#febe69;}.e,.f,.g,.h{stroke-width:0px;}.f{fill:#211715;}.g{fill:#ffffff;}.h{fill:#3d8dcc;}</style></defs><g id="c"><path class="g" d="M56.364,382.843c.792,1.864,1.176,6.549,1.244,8.342.107,2.838.573,6.587-1.679,8.685-1.618,1.508-5.085,3.27-7.2,3.916-3.455,1.056-5.238,3.282-7.761,5.671-1.019.965-2.081,1.87-3.289,2.567-4.026,2.32-8.813,3.358-13.431,2.756-2.02-.263-4.041-.838-5.708-2.009-1.666-1.171-2.943-3.002-3.114-5.032-.244-2.886,1.508-5.619,3.56-7.662,4.18-4.161,8.56-8.261,12.515-12.644,1.855-2.242,2.714-5.18,5.063-4.304,2.527,2.282,6.582,2.822,9.115,2.007,2.243-.722,5.648-2.387,6.505-2.906.704-.427,2.005-.825,2.729-.671,1.542.33,1.593,1.12,1.932,2.413"/><path class="g" d="M75.443,382.843c-.792,1.864-1.176,6.549-1.244,8.342-.107,2.838-.573,6.587,1.679,8.685,1.618,1.508,5.085,3.27,7.2,3.916,3.455,1.056,5.238,3.282,7.761,5.671,1.019.965,2.081,1.87,3.289,2.567,4.026,2.32,8.813,3.358,13.431,2.756,2.02-.263,4.041-.838,5.708-2.009,1.666-1.171,2.943-3.002,3.114-5.032.244-2.886-1.508-5.619-3.56-7.662-4.18-4.161-8.56-8.261-12.515-12.644-1.855-2.242-2.714-5.18-5.063-4.304-2.527,2.282-6.582,2.822-9.115,2.007-2.243-.722-5.648-2.387-6.505-2.906-.704-.427-2.005-.825-2.729-.671-1.542.33-1.593,1.12-1.932,2.413"/><path class="g" d="M59.486,308.627l.192-5.277s.009-.255.026-.675c-7.283-.024-18.876.021-26.99.023.113,2.704.226,3.682.339,5.986.292,4.904.594,9.767.894,14.603h25.112c.169-4.741.311-9.603.427-14.66Z"/><path class="g" d="M98.754,308.683c.098-2.001.196-3.001.293-5,0,0,.018-.361.052-.986-8.158-.002-19.752-.049-26.936-.021.01.282.014.451.014.451l.144,5.499c.116,5.059.259,9.917.428,14.66h25.111c.301-4.837.602-9.698.894-14.603Z"/><path class="g" d="M12.91,234.452c-.202-.745-.383-1.496-.544-2.251h1.168c.369,1.12,1.857,1.658,3.028,1.297s1.996-1.408,2.372-2.526.373-2.316.367-3.49c-.032-5.728-.063-11.456-.095-17.184,0,0,2.441,0,5.202.009.235-10.981,1.07-33.248,1.673-52.494l-.525-.032c-4.107-.251-11.819-1.051-16.845-1.68-.013.158-.021.244-.021.244-.477,5.171-.954,24.651-.954,38.872l-1.363,7.411c-.34,2.204-2.588,12.83-3.375,14.927-.487,1.299-.732,2.67-.868,4.043-.67,6.795,1.295,13.6,4.066,19.892.514,1.168,1.067,2.34,1.909,3.319,1.296,1.507,3.636,2.466,5.407,1.495,1.331-.73,1.909-2.33,1.835-3.794-.074-1.464-.676-2.849-1.197-4.228-.475-1.257-.889-2.536-1.24-3.83Z"/><path class="g" d="M54.567,39.772c-5.749,2.739-11.618,5.118-16.762,6.794-.851-.668-1.909-.921-2.829-.888-2.251.079-3.209,1.297-3.621,2.012-1.23,2.134-1.178,6.066-.352,8.499.585,1.723,1.543,4.359,3.853,6.248,1.024.838,2.567,1.368,3.994.999,1.046,3.555,2.941,7.845,6.269,11.828,2.734,3.272,5.613,5.656,8.851,7.067-.093,1.1-.247,2.149-.443,3.286-.355,1.964-.237,3.716-2.97,4.704-.05.019-.786.359-1.824.841l.485.499c1.514,1.47,6.115,5.861,16.404,5.861,11.5,0,14.697-4.032,16.218-5.667l1.141-1.264c-.342-.161-.555-.26-.583-.27-2.734-.988-2.627-2.739-2.97-4.704-.22-1.254-.383-2.5-.48-3.76,6.563-3.484,11.751-12.42,12.69-14.967.321-.668.845-2.044,1.272-3.448l.352.059c1.339.226,2.74-.287,3.692-1.066,2.31-1.89,3.268-4.526,3.853-6.248.826-2.433.878-6.365-.352-8.499-.412-.715-1.37-1.932-3.621-2.012-.952-.034-2.052.238-2.916.96-4.076-2.376-8.512-5.839-11.513-10.529-1.66-2.594-3.744-6.867-5.226-10.305-5.197,4.68-13.76,9.751-22.609,13.968Z"/><path class="g" d="M27.855,195.216c-1.386,23.3-3.609,71.602-4.005,104.483-.02,1.629,1.098,2.975,2.525,2.984,7.277.05,30.504-.053,39.529,0,9.025-.053,32.251.05,39.529,0,1.427-.01,2.544-1.355,2.525-2.984-.396-32.88-2.619-81.182-4.005-104.483"/><path class="e" d="M103.748,68.961c-1.091-3.019-3.118-5.706-5.746-7.531-.31.35-.66.69-1.05,1.01-.95.77-2.35,1.29-3.69,1.06l-.34-.1c-.43,1.42-.97,2.82-1.29,3.49-.935,2.545-6.12,11.486-12.686,14.97.097,1.258.26,2.504.48,3.756.343,1.964.237,3.716,2.97,4.704.065.024,1.158.54,2.526,1.187,3.106,1.24,8.202,3.273,8.202,3.273,3.142.888,6.067,1.784,8.715,2.718-1.355-3.75-1.209-7.872-.187-11.748,1.13-4.27,3.32-8.68,2.93-13.07-.116-1.27-.402-2.52-.834-3.719Z"/><path class="f" d="M96.996,63.157c2.167,1.548,3.907,3.809,4.819,6.316,1.107,3.04.888,5.967.009,9.037-.911,3.184-2.189,6.245-2.674,9.54-.492,3.351-.36,6.747.736,9.972.824,2.424,4.688,1.384,3.857-1.063-1.134-3.337-1.105-6.841-.27-10.246.843-3.439,2.357-6.693,2.904-10.207,1.027-6.595-1.99-12.964-7.363-16.802-.879-.628-2.226-.155-2.736.718-.588,1.005-.164,2.107.718,2.736h0Z"/><path class="e" d="M55.728,39.212c-6.114,2.974-12.43,5.562-17.92,7.349-.854-.663-1.912-.916-2.832-.883-1.677.059-2.636.75-3.187,1.393-4.472-15.814.518-28.062,7.901-35.131,4.424-4.236,14.394-10.006,25.596-10.006,6.325,0,10.916,1.065,15.227,2.708,7.799,4.087,7.635,4.014,11.205,7.458,5.601,5.403,9.493,15.125,10.113,23.831.177,2.486-.028,8.915-.415,13.431l-.964-1.673c-.412-.715-1.37-1.932-3.621-2.012-.952-.034-2.052.238-2.917.96-4.076-2.376-8.512-5.838-11.513-10.528-1.66-2.594-3.743-6.866-5.226-10.305-4.969,4.475-13.017,9.308-21.447,13.408Z"/><path class="f" d="M82.078,3.119c-11.443-4.598-24.172-4.117-35.181,1.472-4.182,2.123-8.073,4.924-11.056,8.568-3.211,3.923-5.521,8.523-6.712,13.456-1.65,6.834-1.177,13.959.653,20.705.673,2.482,4.533,1.428,3.857-1.063-2.72-10.027-1.927-20.921,4.399-29.459,5.635-7.604,15.772-12.18,25.055-12.792,6.161-.406,12.212.676,17.922,2.97,1.003.403,2.197-.439,2.46-1.397.314-1.141-.391-2.056-1.397-2.46h0Z"/><path class="f" d="M103.404,49.499c.509-5.952.906-12.074-.124-17.99-1.153-6.62-3.815-13.188-8.016-18.464-2.128-2.673-4.769-5.126-7.706-6.881-2.215-1.324-4.229,2.133-2.019,3.454,6.513,3.892,10.619,10.958,12.731,18.062,2.123,7.14,1.762,14.477,1.134,21.819-.219,2.565,3.782,2.55,4,0h0Z"/><path class="f" d="M41.739,96.532c.871-.305,1.717-.743,2.555-1.127,1.285-.589,2.568-1.183,3.851-1.778,1.007-.467,2.014-.936,3.023-1.4.104-.048.21-.093.313-.143.089-.044.268-.117-.163.067-.513.22-.068.035.064-.017.253-.101.506-.203.752-.322.987-.476,1.886-1.258,2.41-2.23.486-.902.661-1.854.815-2.852.226-1.464.478-2.921.611-4.398.094-1.045-.987-2.045-2-2-1.164.052-1.899.881-2,2-.151,1.678-.46,3.49-.891,5.286-.059.246.197-.313.041-.115-.053.067-.089.158-.131.233-.223.395.179-.132-.067.089-.064.057-.154.137-.213.205.216-.252.158-.1.028-.023-.099.059-.192.124-.293.181-.037.021-.454.23-.275.149.176-.08-.145.055-.145.054-.153.062-.333.138-.484.204-.022.009-.043.019-.065.029-.101.044-.2.091-.3.137-2.145.985-4.282,1.988-6.428,2.973-.556.256-1.113.511-1.671.762-.177.08-.355.158-.532.237-.445.198.5-.187.132-.058-.985.345-1.745,1.384-1.397,2.46.315.974,1.403,1.767,2.46,1.397h0Z"/><path class="f" d="M76.97,82.173c.125,1.379.325,2.747.55,4.112.117.707.182,1.431.394,2.119.281.908.758,1.79,1.472,2.432.394.354.834.678,1.308.917.319.16.651.299.983.427.638.244-.464-.225-.22-.1,1.905.975,3.883,1.832,5.818,2.747.925.437,1.844.891,2.788,1.286.968.406,2.241-.436,2.46-1.397.266-1.17-.36-2.026-1.397-2.46.993.416.083.02-.15-.089-.414-.195-.828-.39-1.242-.586-1.121-.53-2.241-1.061-3.362-1.591-.867-.41-1.733-.822-2.602-1.228-.094-.044-.188-.089-.282-.131-.024-.011-.048-.022-.072-.032-.144-.063-.337-.145-.483-.204-.059-.024-.365-.17-.061-.019-.179-.089-.351-.18-.524-.281-.057-.033-.342-.221-.112-.062.204.141.014.012-.023-.026-.062-.062-.13-.132-.196-.191-.291-.26.101.076.063.103-.02.014-.265-.449-.288-.483-.111-.167.088.174.078.196.012-.027-.109-.318-.119-.351-.047-.161-.086-.324-.121-.488-.081-.386-.133-.776-.192-1.166-.085-.564-.187-1.125-.272-1.689-.036-.241-.041-.277-.081-.615-.045-.383-.083-.766-.118-1.15-.094-1.039-.853-2.051-2-2-1.003.045-2.101.884-2,2h0Z"/><path class="f" d="M91.501,60.87c-.3,1.437-.744,2.847-1.266,4.219-.192.506-.324.765-.564,1.363-.202.502.145-.292-.028.067-.061.127-.118.257-.179.384-.863,1.803-1.94,3.514-3.091,5.144-2.681,3.799-6.35,7.949-11.062,9.056-2.505.589-1.444,4.446,1.063,3.857,5.599-1.316,9.907-5.99,13.151-10.472,1.256-1.735,2.425-3.566,3.359-5.498.202-.418.383-.844.562-1.272.214-.513-.165.356.072-.165.153-.337.291-.682.428-1.025.59-1.488,1.085-3.026,1.412-4.594.524-2.512-3.331-3.586-3.857-1.063h0Z"/><path class="f" d="M36.369,61.834c2.402,10.534,10.334,22.02,21.718,23.737,1.067.161,2.15-.268,2.46-1.397.26-.945-.322-2.298-1.397-2.46-10.092-1.522-16.801-11.631-18.924-20.943-.572-2.509-4.43-1.447-3.857,1.063h0Z"/><path class="f" d="M60.45,70.8c1.792.946,3.72,1.355,5.748,1.342,2.136-.014,4.214-.468,5.916-1.794.829-.646.729-2.159,0-2.828-.88-.807-1.944-.689-2.828,0,.692-.539-.015-.018-.234.096-.169.089-.618.229.016.013-.156.053-.308.118-.465.169-.422.136-.888.157-1.302.297.212-.072.331-.04.031-.01-.128.013-.256.023-.384.032-.308.02-.617.028-.925.026-.276-.002-.553-.011-.828-.03-.127-.009-.253-.019-.379-.031-.072-.007-.144-.015-.216-.024-.157-.019-.095-.011.188.025-.015.053-1.105-.237-1.216-.27-.17-.051-.336-.112-.504-.17-.446-.153.425.203.021.012-.209-.098-.414-.201-.618-.308-.925-.488-2.217-.265-2.736.718-.488.924-.27,2.215.718,2.736h0Z"/><path class="f" d="M64.915,57.605c.238.907.466,1.827.602,2.755l-.071-.532c.016.127.023.253.01.38l.071-.532c-.009.059-.022.115-.042.171l.202-.478c-.018.04-.036.074-.06.11l.313-.405c-.028.034-.055.061-.09.089l.405-.313c-.07.045-.143.081-.218.115l.478-.202c-.12.05-.239.087-.368.107l.532-.071c-.116.014-.229.013-.345,0l.532.071c-.13-.018-.258-.05-.388-.067-.266-.083-.532-.095-.798-.036-.266.012-.514.091-.744.237-.415.243-.811.718-.919,1.195-.117.512-.091,1.087.202,1.541l.313.405c.25.248.544.419.883.514.348.047.687.134,1.041.15.572.025,1.093-.155,1.601-.39.639-.297,1.144-.905,1.314-1.592.145-.589.087-1.059-.013-1.649-.15-.888-.355-1.767-.583-2.638-.127-.483-.49-.944-.919-1.195s-1.061-.357-1.541-.202c-.484.157-.951.457-1.195.919-.253.48-.342,1.007-.202,1.541h0Z"/><path class="f" d="M39.531,45.412c-2.024-1.806-4.871-2.227-7.344-1.094-1.766.809-2.851,2.48-3.349,4.308-1.137,4.179-.075,9.066,2.321,12.631,1.644,2.446,4.242,4.652,7.389,4.244,1.071-.139,2-.82,2-2,0-.973-.921-2.14-2-2-2.177.282-3.594-1.52-4.538-3.262-.759-1.399-1.408-3.153-1.551-4.819-.155-1.803-.042-3.645.825-5.039-.326.524.512-.436.202-.21.399-.292.498-.326.918-.42.818-.182,1.647-.092,2.299.489,1.915,1.709,4.754-1.11,2.828-2.828h0Z"/><path class="f" d="M95.105,48.241c.616-.549,1.403-.659,2.172-.516.498.093.62.137,1.045.447-.303-.221.52.72.202.21.87,1.396.98,3.231.825,5.039-.143,1.662-.796,3.426-1.551,4.819-.944,1.741-2.36,3.544-4.538,3.262-1.073-.139-2,1.019-2,2,0,1.196.924,1.86,2,2,5.117.664,8.263-4.857,9.542-8.994,1.149-3.716,1.09-9.467-2.542-11.843-2.475-1.619-5.836-1.168-7.983.749-1.925,1.717.912,4.538,2.828,2.828h0Z"/><path class="f" d="M50.912,49.645c-.46,1.495-.16,4.935,2.673,5.228,3.744-.022,3.943-4.181,2.683-6.137-1.032-1.601-4.066-2.267-5.356.909Z"/><path class="f" d="M80.895,49.645c.46,1.495.16,4.935-2.672,5.228-3.744-.023-3.944-4.181-2.683-6.137,1.032-1.601,4.066-2.267,5.356.909Z"/><path class="f" d="M75.604,27.175c1.803,4.114,3.724,8.343,6.474,11.923,2.811,3.66,6.417,6.606,10.353,8.986,2.209,1.335,4.221-2.122,2.019-3.454-3.526-2.132-6.863-4.773-9.336-8.101-2.548-3.428-4.35-7.48-6.056-11.373-.434-.989-1.881-1.218-2.736-.718-1.021.597-1.153,1.743-.718,2.736h0Z"/><path class="f" d="M75.917,24.248c-5.094,4.603-11.223,8.101-17.281,11.263-6.671,3.482-13.594,6.526-20.732,8.917-2.429.813-1.387,4.678,1.063,3.857,7.459-2.498,14.717-5.682,21.687-9.32,6.368-3.324,12.738-7.052,18.09-11.888,1.914-1.73-.922-4.551-2.828-2.828h0Z"/><path class="h" d="M41.213,385.311c-1.458-.269-2.92-.841-4.123-1.75-.561-19.278-1.849-39.448-3.145-60.274,6.034,0,17.346,0,25.117,0-.712,19.943-1.892,37.703-3.568,58.444-.166-.067-.358-.124-.581-.172-.724-.155-2.025.244-2.729.671-.857.519-4.262,2.183-6.505,2.906-1.242.4-2.851.474-4.466.176Z"/><path class="h" d="M89.245,385.475c1.873-.11,3.896-.723,5.471-1.914.561-19.278,1.849-39.448,3.151-60.274-7.342,0-17.857,0-25.127,0,.716,19.943,1.896,37.703,3.573,58.444.165-.067.357-.124.58-.172.724-.155,2.025.244,2.729.671.857.519,4.262,2.183,6.505,2.906.894.288,1.978.407,3.118.34Z"/><path class="f" d="M54.435,383.375c.851,2.142.983,4.64,1.126,6.918.14,2.243.63,5.084-.336,7.187-.47,1.023-1.497,1.639-2.421,2.205-1.188.728-2.451,1.389-3.756,1.881-1.294.487-2.601.875-3.802,1.581-1.389.817-2.614,1.906-3.768,3.021-2.298,2.222-4.442,4.249-7.478,5.421-3.156,1.218-6.675,1.71-10.028,1.139-2.653-.451-5.948-1.781-6.503-4.771-.591-3.181,2.237-5.789,4.257-7.78,2.894-2.851,5.827-5.665,8.64-8.598,1.328-1.385,2.67-2.757,3.752-4.348.424-.624,1.198-2.399,1.914-2.176l-.883-.514c3.344,2.878,8.037,3.704,12.153,2.132,1.85-.706,3.691-1.516,5.433-2.462.547-.297,1.124-.681,1.769-.684.166,0,.315.125.153-.021.033.029.199.763.258.995.637,2.492,4.496,1.436,3.857-1.063-.526-2.061-1.547-3.667-3.86-3.881-1.81-.167-3.319.767-4.863,1.547-3.378,1.705-6.971,3.399-10.67,1.527-.949-.481-1.67-1.31-2.722-1.552-1.084-.249-2.204-.028-3.117.601-1.681,1.159-2.443,3.193-3.766,4.681-3.628,4.082-7.662,7.803-11.54,11.642-3.411,3.376-6.349,8.1-3.913,12.918,2.298,4.546,7.816,6.029,12.537,6.025,5.086-.004,10.35-1.684,14.275-4.957,1.719-1.434,3.16-3.182,4.919-4.567,1.644-1.294,3.594-1.762,5.476-2.583,2.113-.921,4.456-2.09,6.054-3.796,1.635-1.745,2.095-4.146,2.136-6.462.035-2.008-.106-4.051-.297-6.05-.196-2.055-.36-4.286-1.129-6.221-.398-1.003-1.337-1.706-2.46-1.397-.954.262-1.798,1.451-1.397,2.46h0Z"/><path class="f" d="M57.656,379.717c1.773-22.195,3.132-44.412,3.721-66.673.086-3.233.183-6.463.301-9.694.094-2.574-3.907-2.571-4,0-.696,19.151-1.28,38.278-2.6,57.402-.437,6.325-.917,12.646-1.422,18.965-.205,2.566,3.796,2.553,4,0h0Z"/><path class="f" d="M58.932,321.287c-7.981,0-15.962,0-23.943,0-2.574,0-2.578,4,0,4,7.981,0,15.962,0,23.943,0,2.574,0,2.578-4,0-4h0Z"/><path class="f" d="M73.514,382.311c-1.277,3.215-1.249,7.11-1.392,10.528-.091,2.178-.034,4.413.896,6.425.853,1.846,2.577,3.06,4.281,4.064,1.928,1.136,3.962,1.814,6.015,2.65,1.865.76,3.306,2.153,4.719,3.539,1.792,1.759,3.605,3.476,5.848,4.652,2.207,1.157,4.604,2.009,7.065,2.416,4.787.794,10.506.45,14.34-2.871,3.961-3.432,3.789-8.813.839-12.834-1.541-2.1-3.534-3.846-5.388-5.662-1.956-1.915-3.912-3.83-5.818-5.794-1.72-1.772-3.263-3.515-4.661-5.545-1.175-1.706-2.71-3.25-4.967-2.826-1.231.231-2.06,1.24-3.192,1.738-.983.432-2.088.665-3.158.696-2.046.06-3.917-.838-5.736-1.684-1.836-.854-3.67-2.198-5.756-2.273-2.559-.092-3.845,1.676-4.415,3.908-.637,2.495,3.219,3.56,3.857,1.063.068-.266.163-.908.271-1.023-.119.128-.119.065-.007.047.632-.1,1.3.351,1.827.638,1.77.964,3.64,1.791,5.522,2.51,4.116,1.572,8.809.745,12.153-2.132l-.883.514c.627-.195,1.132.994,1.512,1.569.944,1.429,2.014,2.689,3.187,3.937,2.516,2.677,5.146,5.243,7.77,7.813,2.226,2.179,5.18,4.414,5.997,7.578.798,3.089-1.684,5.43-4.421,6.296-3.055.967-6.428.897-9.517.124-3.383-.847-6.131-2.464-8.62-4.879-2.114-2.052-4.166-4.096-6.94-5.226-2.501-1.019-5.143-1.816-7.239-3.623-2.067-1.782-1.41-5.238-1.296-7.656.118-2.494.233-5.271,1.164-7.615.399-1.004-.436-2.196-1.397-2.46-1.138-.313-2.06.389-2.46,1.397h0Z"/><path class="f" d="M78.151,379.717c-1.786-22.357-3.149-44.736-3.734-67.159-.082-3.143-.158-6.287-.24-9.43-.067-2.569-4.067-2.579-4,0,.498,19.079,1.212,38.132,2.521,57.174.445,6.475.936,12.946,1.453,19.415.204,2.549,4.205,2.571,4,0h0Z"/><path class="f" d="M72.875,325.287c7.981,0,15.962,0,23.943,0,2.574,0,2.578-4,0-4-7.981,0-15.962,0-23.943,0-2.574,0-2.578,4,0,4h0Z"/><path class="f" d="M97.047,303.683c-1.027,20.364-2.612,40.696-3.591,61.063-.269,5.591-.5,11.184-.679,16.778-.082,2.575,3.918,2.572,4,0,.652-20.439,2.006-40.848,3.27-61.257.342-5.527.721-11.055.999-16.585.13-2.573-3.871-2.566-4,0h0Z"/><path class="f" d="M30.76,303.683c1.027,20.364,2.612,40.696,3.591,61.063.269,5.591.5,11.184.679,16.778.082,2.568,4.082,2.579,4,0-.652-20.439-2.006-40.848-3.27-61.257-.342-5.527-.721-11.055-.999-16.585-.129-2.562-4.13-2.577-4,0h0Z"/><path class="f" d="M25.855,195.216c-1.123,18.914-1.973,37.846-2.695,56.778-.41,10.747-.766,21.497-1.024,32.249-.121,5.035-.288,10.079-.282,15.116.003,2.734,1.611,5.174,4.521,5.324,1.682.087,3.387.013,5.071.014,10.045.004,20.09-.071,30.135-.014,2.574.015,2.577-3.985,0-4-8.828-.05-17.657.004-26.485.013-1.937.002-3.873.003-5.81,0-.701-.001-1.402-.003-2.103-.007-.853-.004-1.252-.004-1.333-.989-.187-2.283.065-4.693.107-6.985.045-2.448.096-4.896.153-7.343.485-20.801,1.309-41.594,2.289-62.377.437-9.262.906-18.522,1.456-27.778.153-2.571-3.848-2.562-4,0h0Z"/><path class="f" d="M101.952,195.216c1.068,17.986,1.884,35.988,2.587,53.992.411,10.537.772,21.076,1.046,31.618.127,4.909.236,9.819.314,14.73.017,1.041.032,2.081.045,3.122.009.69.225,1.79-.613,2.007-.623.161-1.498.008-2.143.009-.948.003-1.897.004-2.845.004-9.847.004-19.694-.07-29.541-.014-2.573.015-2.579,4.015,0,4,9.087-.051,18.174.008,27.26.014,1.95.001,3.901.001,5.851-.006,2.27-.009,4.371-.306,5.489-2.59,1.066-2.178.518-5.243.478-7.604-.041-2.42-.089-4.841-.142-7.261-.47-21.242-1.308-42.478-2.306-63.701-.444-9.442-.921-18.883-1.481-28.319-.152-2.558-4.153-2.576-4,0h0Z"/><path class="f" d="M63.904,231.512v66.671c0,2.574,4,2.578,4,0v-66.671c0-2.574-4-2.578-4,0h0Z"/><path class="h" d="M119.626,145.203c4.613-1.981,9.091-3.949,12.495-5.457.648-.287.998-1.005,1.143-1.654.183-.822-.243-1.644-.66-2.389-3.663-6.565-8.865-18.138-12.895-24.516-1.501-2.375-3.735-5.779-6.29-7.842-4.049-3.403-11.275-6.016-20.296-8.565,0,0-8.441-3.369-10.218-4.078-.608.658-1.068,1.152-1.068,1.152-1.52,1.635-4.718,5.667-16.218,5.667-10.289,0-14.89-4.391-16.404-5.861,0,0-.464-.451-.928-.902l-.063.032-10.26,5.13c-9.08,3.76-16.37,7.6-20.51,12.59-1.87,2.33-3.78,6.15-4.67,8.72-3.9,11.23-6.78,22.75-9.14,34.39-.39,1.93.69,3.88,2.5,4.14,4.48.64,14.51,1.72,19.41,2.02l.459.016c-.706,20.092-1.671,49.672-1.671,57.169,0,.898.872,1.623,1.96,1.623,19.243.069,54.822-.035,79.02.026,1.191,0,2.141-.785,2.141-1.761,0-5.609-1.099-43.715-1.711-63.887,1.08-.432,1.68-.672,1.68-.672,3.709-1.484,8.007-3.292,12.193-5.09Z"/><path class="f" d="M4.445,202.096c-.536,3.38-1.327,6.739-2.099,10.071-.35,1.511-.684,3.041-1.16,4.519-.895,2.781-1.263,5.609-1.173,8.534.194,6.34,2.171,12.788,4.993,18.441,1.314,2.631,3.578,4.859,6.663,5.022,2.927.154,5.176-2.092,5.588-4.885.505-3.425-1.605-6.823-2.465-10.051-.959-3.597-1.379-7.271-1.325-10.991.038-2.575-3.962-2.576-4,0-.085,5.82,1.028,11.453,3.072,16.886.44,1.17,1.856,5.11-.695,5.053-2.292-.051-3.36-2.91-4.103-4.635-2.194-5.094-3.83-10.607-3.738-16.197.061-3.674,1.378-7.085,2.2-10.633.772-3.332,1.563-6.691,2.099-10.071.169-1.066-.274-2.152-1.397-2.46-.951-.261-2.29.324-2.46,1.397h0Z"/><path class="f" d="M17.206,210.297c.025,4.522.05,9.044.075,13.567.011,1.966.348,4.288-.163,6.201-.146.545-.422,1.186-.961,1.445-.196.094-.228.049-.472.096-.297.057-.396-.353-.221.064-.418-.995-1.322-1.71-2.46-1.397-.938.258-1.818,1.458-1.397,2.46,1.004,2.386,3.602,3.521,6.037,2.478,2.62-1.122,3.55-3.903,3.649-6.551.227-6.099-.053-12.259-.086-18.363-.014-2.573-4.014-2.579-4,0h0Z"/><path class="g" d="M82.69,131.016l5.151,2.974c.588.339,1.312.339,1.899,0l5.151-2.974c.588-.339.95-.966.95-1.645v-8.024c0-1.049-.85-1.899-1.899-1.899h-10.302c-1.049,0-1.899.85-1.899,1.899v8.024c0,.679.362,1.306.95,1.645Z"/><path class="f" d="M81.681,132.743l4.392,2.536c1.115.644,2.231,1.166,3.576.866.814-.182,1.542-.682,2.255-1.094l2.841-1.641c.695-.401,1.463-.769,2.024-1.356,1.472-1.54,1.071-4.089,1.071-6.044,0-1.608.1-3.251-.01-4.856-.144-2.115-1.829-3.633-3.913-3.705-.501-.017-1.005,0-1.505,0h-6.313c-2.07,0-4.275-.254-5.652,1.682-.695.977-.707,2.057-.707,3.186v6.527c0,1.616.527,2.982,1.94,3.901.906.589,2.21.183,2.736-.718.569-.972.19-2.146-.718-2.736.264.172-.14-.269.022.022.14.251-.023.012-.01-.073-.024.166.028.16.029.064.002-.222,0-.444,0-.667v-2.627c0-1.535-.036-3.074,0-4.608.003-.145-.033.095-.033.095l.047-.182c-.076.162-.08.182-.01.059l.048-.078c-.04.097-.108.165-.205.205l.157-.095c-.197.075-.182.079.045.011.004.002-.16.033-.146.033.041-.001.083,0,.124,0,.54-.004,1.08,0,1.621,0h8.004c.162,0,.324-.003.485,0,.022,0,.044,0,.065,0-.443-.015.194.081-.036-.015-.123-.056-.094-.034.088.066-.097-.04-.165-.108-.205-.205.254.262.094.079.037.019.106.112.024.338.014.037.001.039,0,.078,0,.116.004.251,0,.502,0,.752v2.634c0,1.494.065,3.004,0,4.496.008-.181.001.022-.002.022-.147-.005.537-.302-.037-.005.121-.063.107-.095.065-.067-.182.12-.38.22-.569.328l-2.364,1.365c-.706.408-1.403.847-2.124,1.227-.065.034-.112.058-.01.02.232-.087-.25-.087-.018,0,.105.039.083.031.053.017-.225-.109-.437-.253-.654-.377l-4.482-2.587c-.935-.54-2.189-.218-2.736.718s-.221,2.195.718,2.736Z"/><path class="f" d="M25.556,155.78c-6.161-.387-12.512-.998-18.537-1.9-1.81-.271-1.458-1.677-1.155-3.143.471-2.278.962-4.552,1.479-6.821,1.032-4.534,2.162-9.046,3.421-13.523,1.249-4.443,2.538-8.927,4.174-13.245,1.216-3.212,2.967-6.423,5.427-8.846,5.205-5.126,12.181-7.66,18.667-10.683,3.443-1.605,6.806-3.403,10.204-5.102,2.303-1.151.279-4.603-2.019-3.454-3.321,1.66-6.624,3.362-9.965,4.982-3.154,1.53-6.763,2.912-9.996,4.634-3.343,1.78-6.609,3.844-9.369,6.457-2.846,2.695-4.797,6.135-6.309,9.721-1.836,4.354-3.113,9.008-4.409,13.547-1.386,4.857-2.619,9.757-3.736,14.683-.532,2.347-1.038,4.7-1.522,7.058-.449,2.185-.497,4.37,1.133,6.114,1.368,1.464,3.272,1.536,5.128,1.773,1.905.243,3.814.463,5.723.672,3.879.425,7.767.831,11.662,1.076,2.571.161,2.561-3.839,0-4h0Z"/><path class="f" d="M80.424,90.44c-.327.353-.649.711-.992,1.049-.22.216-.45.42-.681.626-.076.068-.499.403-.157.141-.162.124-.328.243-.496.358-1.758,1.207-3.577,1.839-5.681,2.291-5.768,1.24-12.659,1.011-17.949-1.832-.499-.268-.986-.558-1.458-.87-.196-.13-.388-.266-.581-.4-.078-.054-.153-.111-.229-.168-.258-.191.216.173-.021-.014-.542-.428-1.052-.893-1.548-1.374-1.849-1.793-4.68,1.032-2.828,2.828,3.337,3.237,7.595,5.219,12.173,5.975,6.235,1.029,13.833.804,19.423-2.523,1.471-.875,2.699-2.011,3.854-3.258,1.747-1.887-1.075-4.722-2.828-2.828h0Z"/><path class="f" d="M9.736,195.216c.002-7.61.112-15.221.298-22.83.131-5.339.176-10.72.656-16.043.097-1.077-.989-2-2-2-1.163,0-1.903.92-2,2-.48,5.323-.525,10.703-.656,16.043-.187,7.608-.296,15.219-.298,22.83,0,2.574,3.999,2.578,4,0h0Z"/><path class="f" d="M103.351,134.574c.008,12.833.623,25.685.999,38.511.397,13.532.929,27.07,1.105,40.606.004.283-.046.624.009.9.065.333-.113.153.036.062.294-.178-.147-.031-.177-.04-.373-.114-.976-.002-1.369-.003-2.759-.006-5.519-.01-8.278-.012-5.996-.005-11.993-.005-17.989-.002-11.976.005-23.953.02-35.929.016-4.879-.001-9.757-.006-14.636-.022-.176,0-.666-.084-.819-.003-.356.188.185-.456.04.377.03-.173,0-.376.002-.552.003-.517.009-1.035.016-1.552.018-1.268.045-2.536.075-3.804.183-7.753.455-15.505.716-23.256.592-17.588,1.326-35.182,1.561-52.779.018-1.385.031-2.77.032-4.155.001-2.574-3.999-2.578-4,0-.007,17.146-.826,34.307-1.407,51.44-.29,8.58-.593,17.16-.825,25.742-.072,2.668-.144,5.337-.165,8.006-.005.678-.031,1.356.189,2.009.592,1.751,2.316,2.488,4.037,2.525,2.258.049,4.522.013,6.781.016,11.813.018,23.625.003,35.438-.004,12.058-.008,24.133.19,36.19.012,2.625-.039,4.459-1.562,4.479-4.241.006-.771-.02-1.544-.035-2.316-.05-2.616-.118-5.232-.187-7.847-.207-7.849-.439-15.697-.668-23.546-.429-14.65-.966-29.304-1.199-43.959-.011-.71-.021-1.42-.022-2.131-.002-2.574-4.002-2.578-4,0h0Z"/><g id="d"><path class="g" d="M140.977,181.828l.024.081c4.66,15.576-2.405,29.553-18.224,34.285-15.229,4.556-29.371-2.976-34.058-18.645-4.192-14.014,2.921-29.178,18.369-33.799,11.63-3.479,22.623.607,29.122,8.888,2.095,2.664,3.73,5.768,4.766,9.19Z"/><path class="f" d="M112.375,214.338c.274.406.359.917.236,1.399l-.425,1.701c-4.48-.302-8.649-1.72-12.26-4.112l1.172-1.957c.227-.378.595-.662,1.03-.785l5.303-1.484c.728-.208,1.512.085,1.938.718l3.006,4.518Z"/><path class="f" d="M140.231,201.719l.009.009c-1.711,3.857-4.414,7.222-8.025,9.868l-1.191-1.229c-.34-.359-.529-.822-.52-1.314l.028-5.35c0-.813.529-1.531,1.304-1.777l4.981-1.588c.539-.17,1.115-.095,1.588.208l1.824,1.172Z"/><path class="f" d="M140.76,181.16h-.019l-.492.236-6.73-1.38c-.794-.161-1.389-.813-1.484-1.626l-.699-6.002c-.057-.529.104-1.068.463-1.465s.87-.917,1.427-1.484l.009-.009c1.078.974,2.07,2.051,2.977,3.204,1.947,2.486,3.507,5.369,4.547,8.526Z"/><path class="f" d="M121.515,185.924c.794.284,1.314,1.04,1.295,1.881l-.18,7.694c-.019.841-.577,1.569-1.389,1.815l-7.373,2.202c-.803.246-1.673-.057-2.155-.756l-4.367-6.324c-.482-.699-.463-1.616.047-2.287l4.669-6.116c.51-.671,1.399-.936,2.193-.662l7.259,2.552Z"/><path class="f" d="M90.927,195.84c-.293.284-.671.463-1.078.51l-1.418.151c-1.2-4.632-1.182-9.358-.038-13.753l3.252.331c.614.066,1.153.435,1.437.992l2.637,5.265c.359.699.217,1.55-.34,2.108l-4.452,4.395Z"/><path class="f" d="M114.265,164.231c.17.577.057,1.191-.312,1.673l-3.573,4.688c-.492.652-1.342.898-2.108.633l-5.567-1.957c-.567-.198-1.002-.652-1.172-1.229l-.51-1.701v-.009c1.853-1.059,3.875-1.928,6.068-2.58,2.259-.671,4.49-1.068,6.673-1.191v.009l.501,1.664Z"/><path class="f" d="M139.048,182.36c1.433,4.789,1.876,9.902.655,14.789-1.151,4.61-3.704,8.663-7.301,11.758-7.596,6.535-19.654,8.765-28.768,4.253s-14.574-14.962-14.066-25.03c.528-10.455,7.79-19.256,17.697-22.342,6.374-1.986,13.364-1.699,19.337,1.416,6.044,3.153,10.43,8.673,12.447,15.156.762,2.45,4.625,1.405,3.857-1.063-2.065-6.64-6.246-12.452-12.093-16.264-5.54-3.612-12.354-5.114-18.904-4.305-12.283,1.516-22.974,10.125-25.675,22.431-2.54,11.574,2.266,24.434,11.908,31.366,9.747,7.006,23.336,6.175,33.285.009,4.742-2.938,8.584-7.193,10.775-12.34,2.293-5.385,2.673-11.289,1.64-17.017-.237-1.311-.555-2.605-.936-3.88-.736-2.46-4.598-1.412-3.857,1.063Z"/><path class="f" d="M110.287,183.087l-2.998,3.929c-.482.632-.973,1.258-1.447,1.896-.943,1.271-1.07,2.995-.306,4.392.781,1.428,1.88,2.744,2.804,4.081,1.301,1.882,2.493,4.243,5.142,4.194.734-.013,1.461-.292,2.157-.5l2.984-.893c1.953-.584,4.499-.939,5.538-2.924.45-.859.471-1.775.493-2.713l.07-2.978c.042-1.799.472-4.202-.495-5.822-.688-1.152-1.794-1.616-2.981-2.033l-3.208-1.126c-2.429-.853-5.339-2.353-7.44.091-.704.819-.804,2.024,0,2.828.72.72,2.121.823,2.828,0,.392-.456-.053-.026.216-.225.192-.142.068.007-.014.002-.173-.009.063.012.184.05.176.056.349.123.524.184l2.341.822c1.398.491,2.79,1.049,4.209,1.478.045.014-.231-.042-.169-.143.036-.058.073.474.091.208-.009.135-.006.271-.01.406l-.055,2.336c-.037,1.56.035,3.165-.111,4.718-.002.021-.007.135.006.02.014-.128-.207.236-.035.063.159-.16-.106.077-.097.079.044.013.212-.119-.126-.025-.698.194-1.389.416-2.083.623-1.574.471-3.143,1-4.733,1.416-.043.011-.086.028-.129.039.096-.024-.278-.066-.113.01.264.123-.346-.44.069.104-.039-.051-.075-.106-.11-.16-.382-.58-.791-1.144-1.186-1.715-.949-1.372-1.912-2.736-2.847-4.118-.066-.098-.297-.545-.224-.286.049.175.017-.128.018-.13-.057.107.09-.113.136-.184.035-.054.08-.103.118-.154.474-.638.965-1.264,1.447-1.896l2.998-3.929c.656-.859.134-2.238-.718-2.736-1.029-.602-2.079-.144-2.736.718Z"/><path class="f" d="M111.834,163.095c.165.552.342,1.102.496,1.658.027.096-.08-.322.007-.036l.003.097c.038-.21.027-.198-.032.038.088-.066.111-.192-.086.051-.102.125-.196.257-.294.386l-2.702,3.545c-.145.19-.288.38-.434.569-.04.052-.077.108-.12.157-.006.007-.011.018-.019.024.222-.273.264-.338.125-.196-.103.098-.087.085.048-.038.333-.257-.164.036.074-.011.255-.05-.365-.11.083.011-.07-.019-.143-.037-.21-.064-.168-.069-.344-.121-.515-.181l-4.222-1.485c-.229-.081-.474-.204-.713-.251-.015-.003-.078-.039-.088-.031.082-.06.223.125.277.162-.158-.165-.168-.161-.029.011l-.088-.152s.099.3.008-.053c-.051-.198-.118-.393-.176-.588l-.273-.913c-.31-1.035-1.402-1.688-2.46-1.397-1.027.282-1.708,1.422-1.397,2.46.186.623.345,1.262.569,1.872.482,1.311,1.442,2.073,2.726,2.532,1.499.536,3.003,1.056,4.504,1.584.697.245,1.331.486,2.096.473,1.42-.025,2.436-.834,3.256-1.908.976-1.278,1.95-2.558,2.924-3.836.633-.83,1.178-1.655,1.17-2.771-.007-.951-.379-1.882-.649-2.782-.31-1.035-1.402-1.688-2.46-1.397-1.027.282-1.708,1.422-1.397,2.46h0Z"/><path class="f" d="M101.653,214.335l.924-1.538c.045-.075.304-.593.165-.311l-.117.068c.185-.105.218-.127.1-.068-.097.04-.076.035-.048.026.049-.016.102-.031.152-.042,1.299-.286,2.582-.723,3.863-1.081.413-.116.836-.215,1.244-.348-.103.034-.177-.066.045.001-.04-.012-.434-.188-.23-.049.239.163-.162-.108-.111-.159-.006.006.168.252.174.262l2.266,3.404c.155.233.314.465.467.701.029.045.06.088.089.133.293.468-.03.046.03-.01-.208.195.135-.226.008-.072-.032.039-.038.154-.05.2-.048.181-.091.364-.137.546l-.228.91c-.254,1.013.327,2.217,1.397,2.46,1.037.236,2.188-.311,2.46-1.397.142-.565.301-1.129.426-1.698.262-1.199-.007-2.289-.673-3.288l-2.506-3.763c-.597-.897-1.262-1.626-2.317-1.998-.902-.318-1.803-.142-2.685.105l-4.4,1.232c-1.116.312-1.997.868-2.63,1.876-.39.62-.754,1.256-1.131,1.884-.539.898-.23,2.236.718,2.736.968.511,2.161.241,2.736-.718h0Z"/><path class="f" d="M141.237,199.995c-.549-.354-1.095-.714-1.647-1.063-1.028-.651-2.215-.849-3.387-.496-1.365.412-2.719.866-4.078,1.299-.634.202-1.303.375-1.858.753-1.153.784-1.717,2.024-1.736,3.395-.02,1.444-.017,2.889-.026,4.333-.006,1.006.012,1.973.568,2.874.444.719,1.143,1.317,1.726,1.921.728.754,2.107.786,2.828,0,.744-.81.776-2.024,0-2.828-.387-.401-.789-.791-1.163-1.205-.054-.06-.065-.016.062.094l-.09-.156.068.144c-.114-.102,0-.358-.004-.009,0-.008,0-.016,0-.024.001-.167.002-.334.003-.501l.025-4.149c.001-.187.022-.384.003-.57-.003-.034.004-.069,0-.102.013.129-.087.317-.025.133.015-.077.036-.153.064-.226-.103.238-.1.259.008.064l-.12.164c.138-.128.149-.143.033-.046-.282.192.433-.13-.123.063.023-.008.049-.019.073-.023.197-.037.399-.127.59-.188l3.934-1.253c.129-.041.258-.08.386-.123.311-.106.178-.018.015-.018.521-.002-.156.041-.128-.066.002-.007.266.161.304.186.561.356,1.117.721,1.676,1.082.881.568,2.247.209,2.736-.718.525-.994.222-2.13-.718-2.736h0Z"/><path class="f" d="M131.815,168.021c-1.133,1.152-2.423,2.277-2.484,4.018-.015.429.067.867.117,1.292l.516,4.455c.089.768.149,1.522.52,2.224.534,1.008,1.521,1.721,2.629,1.96,1.307.283,2.621.536,3.932.805l2.206.451c.152.031.304.066.456.093.793.144,1.371-.113,2.048-.436.947-.452,1.269-1.881.718-2.736-.627-.973-1.724-1.201-2.736-.718l-.497.237,1.541-.202c-2.107-.431-4.215-.863-6.322-1.294-.121-.025-.242-.057-.364-.075-.037-.005-.087-.028-.119-.028-.281,0,.39.185-.032-.007.262.119.099.107-.064-.086.178.211.148.033.06.017.046.009.152.439.05.032.119.476.057.474.039.312-.017-.158-.037-.316-.055-.475l-.457-3.945c-.057-.49-.131-.981-.171-1.473-.006-.076-.012-.147-.018-.226-.029-.413.032-.055-.01.01-.262.403.15-.215-.1.117.405-.539.955-1.013,1.426-1.492.734-.747.8-2.094,0-2.828-.793-.728-2.045-.797-2.828,0h0Z"/><path class="f" d="M88.395,184.747l1.893.194,1.033.106c.096.01.195.026.292.03.091.003-.506.06-.231-.017.138.04.119.028-.056-.036.175.108.205.127.089.056-.134.001-.236-.378-.053.018.024.052.051.104.078.155.123.239.241.481.362.721l1.145,2.281.924,1.84c.074.147.086.356.058.132-.045-.361.001-.039-.017.031.075-.287.165-.257-.019-.124.035-.025.111-.154.025-.062-.973,1.03-2.022,1.998-3.031,2.994-.446.441-.886.89-1.34,1.323-.084.08.118-.052.164-.055-.532.039.484-.02-.141.047-.382.041-.763.083-1.145.124-1.074.117-2,.836-2,2,0,.991.919,2.117,2,2s2.239-.123,3.193-.69c.585-.348,1.07-.906,1.55-1.381,1.175-1.161,2.368-2.306,3.526-3.484,1.195-1.216,1.536-2.885.833-4.449-.224-.499-.482-.983-.727-1.471-.662-1.318-1.272-2.68-1.992-3.967-.55-.985-1.52-1.716-2.636-1.913-.413-.073-.838-.103-1.256-.146l-2.523-.258c-1.076-.11-2,.998-2,2,0,1.173.921,1.89,2,2h0Z"/></g><path class="g" d="M135.974,151.162c-.812-1.514-1.656-3.072-2.539-4.692-.26-.46-.52-.93-.78-1.41-.78-1.43-1.601-2.911-2.46-4.462-5.14,2.268-11.971,5.246-18.098,7.79,4.369,7.51,23.099,33.211,28.184,39.779l1.479,1.91c-2.141,3.12-8.198,11.63-8.726,12.49-.782,1.272-1.341,2.722-.737,4.088.678,1.534,2.543,2.142,4.09,1.33-5.485,3.466-10.584,7.529-10.57,10.779.004,1.032,1.009,2.412,2.087,2.721,1.24.356,2.638.277,4.527-.712,5.329-2.789,12.523-7.659,16.774-11.333.541-.467,1.416-1.47,1.828-2.038,3.421-4.717,4.542-10.719,3.693-15.848-.228-1.223-.508-2.358-.818-3.411-6.859-15.48-11.394-24.793-17.935-36.981Z"/><path class="f" d="M128.469,141.609c6.524,11.759,12.775,23.646,18.43,35.85.454.98,1.867,1.226,2.736.718,1.005-.588,1.173-1.753.718-2.736-5.655-12.204-11.906-24.091-18.43-35.85-1.249-2.251-4.705-.236-3.454,2.019h0Z"/><path class="f" d="M140.562,188.286c-2.441,3.689-5.072,7.257-7.609,10.88-1.228,1.754-2.624,3.501-2.865,5.707-.217,1.991.768,3.983,2.566,4.913,1.516.784,3.496.783,4.873-.274,2.198-1.686,3.934-4.244,5.488-6.508.611-.891.167-2.219-.718-2.736-.991-.579-2.124-.176-2.736.718-1.191,1.736-2.308,3.225-3.827,4.779-.163.167-.331.326-.501.486-.072.068-.15.132-.226.194.065-.052.353-.185.102-.093-.213.078.608.024-.013-.01-.08-.004-.389.002-.424-.009-1.184-.389-.39-1.988.088-2.756,1.856-2.985,4.044-5.799,6.064-8.674,1.072-1.525,2.161-3.041,3.19-4.596.596-.901.178-2.213-.718-2.736-.978-.572-2.139-.186-2.736.718h0Z"/><path class="f" d="M149.696,182.75c1.746,3.827,3.314,7.939,3.303,12.201s-1.372,8.864-4.244,12.094c-1.287,1.447-2.907,2.616-4.453,3.77-1.831,1.365-3.71,2.668-5.622,3.917-1.812,1.184-3.656,2.321-5.542,3.382-1.148.645-3.519,2.339-4.859,1.32-2.624-1.994,6.615-8.09,7.902-8.942,2.137-1.414.136-4.88-2.019-3.454-2.542,1.682-5.105,3.481-7.226,5.686-1.508,1.567-3.007,3.537-3.11,5.8-.127,2.799,2.338,4.933,4.967,5.131s4.988-1.287,7.173-2.55c4.676-2.702,9.186-5.774,13.377-9.182s6.667-8.373,7.407-13.714c.855-6.168-1.07-11.932-3.6-17.478-.448-.983-1.871-1.224-2.736-.718-1.01.591-1.168,1.75-.718,2.736h0Z"/><path class="f" d="M110.366,149.381c3.009,5.159,6.577,10.026,10.018,14.9,4.346,6.157,8.763,12.264,13.241,18.325,1.728,2.339,3.464,4.673,5.244,6.974.661.855,2.133.696,2.828,0,.844-.844.663-1.971,0-2.828.366.473-.133-.175-.203-.266-.129-.169-.258-.337-.386-.506-.369-.485-.735-.971-1.101-1.458-.831-1.106-1.657-2.216-2.48-3.328-2.065-2.79-4.114-5.592-6.151-8.403-4.38-6.043-8.729-12.113-12.927-18.285-1.594-2.344-3.2-4.694-4.629-7.144-1.296-2.223-4.755-.211-3.454,2.019h0Z"/><path class="f" d="M107.964,152.221c7.759-3.111,15.428-6.45,23.076-9.824,1.839-.811,3.528-1.473,4.108-3.61.573-2.111-.753-3.943-1.699-5.716-1.791-3.356-3.46-6.778-5.162-10.18-1.757-3.509-3.518-7.024-5.476-10.427-1.926-3.346-4.064-6.77-6.822-9.497-2.486-2.458-5.61-4.147-8.795-5.516-4.163-1.791-8.489-3.158-12.842-4.403-1.961-.561-3.847-1.455-5.739-2.21-1.834-.732-3.667-1.464-5.501-2.195-1.004-.401-2.197.438-2.46,1.397-.313,1.139.39,2.058,1.397,2.46,3.314,1.323,6.629,2.646,9.943,3.968,2.853,1.139,5.931,1.782,8.839,2.791,3.317,1.15,6.634,2.456,9.598,4.365,2.991,1.926,5.1,4.759,7.005,7.712,1.81,2.804,3.394,5.742,4.927,8.705,1.753,3.388,3.432,6.815,5.147,10.222.765,1.52,1.536,3.038,2.334,4.542.339.639.692,1.27,1.035,1.907.494.918.572,1.158-.34,1.562-7.833,3.466-15.685,6.903-23.637,10.091-1.002.402-1.706,1.335-1.397,2.46.262.952,1.452,1.801,2.46,1.397h0Z"/></g></svg>