<svg id="b" xmlns="http://www.w3.org/2000/svg" width="154.318" height="437.154" viewBox="0 0 154.318 437.154" style="color: initial !important;"><defs><style>.d{fill:none;}.d,.e,.f,.g,.h{stroke-width:0px;}.e{fill:#211715;}.f{fill:#f2635f;}.g{fill:#645d5c;}.h{fill:#ffffff;}</style></defs><g id="c"><path class="h" d="M98.091,12.061c-4.906-2.872-10.561-4.631-17.494-4.631-8.058,0-14.9,2.43-20.376,6.502-6.358,4.728-13.557,13.15-14.133,26.782-.138,3.258.277,6.991,1.262,10.779l.134.517c-1.343.408-2.001,1.28-2.327,1.845-1.265,2.194-1.212,6.237-.362,8.738.601,1.771,1.587,4.481,3.961,6.424,1.053.861,2.64,1.407,4.107,1.028,1.076,3.655,3.024,8.065,6.445,12.16,2.641,3.161,5.415,5.517,8.503,6.994-.094,1.233-.262,2.389-.479,3.652-.365,2.02-.243,3.82-3.054,4.836-.06.022-1.05.543-2.376,1.219,1.957,1.877,7.326,6.571,18.776,6.571,13.321,0,17.025-4.671,18.786-6.564,0,0,.02-.021.057-.063-1.396-.648-2.456-1.139-2.518-1.162-2.81-1.016-2.689-2.817-3.054-4.836-.212-1.231-.376-2.361-.471-3.559,7.035-3.333,12.663-12.997,13.657-15.695.33-.687.869-2.101,1.307-3.545l.364.061c1.377.233,2.817-.295,3.796-1.096,2.375-1.943,3.36-4.653,3.961-6.424.849-2.501.903-6.544-.362-8.738-.336-.583-1.026-1.492-2.453-1.883.075-.307.117-.479.117-.479.985-3.987,1.401-7.052,1.243-10.779-.554-13.106-6.975-21.397-13.364-26.22-1.174-.878-2.389-1.692-3.654-2.433Z"/><path class="h" d="M70.322,400.295c.86,2.024,1.277,7.111,1.35,9.057.116,3.081.622,7.151-1.823,9.43-1.757,1.637-5.521,3.55-7.818,4.252-3.752,1.147-5.687,3.563-8.426,6.157-1.106,1.048-2.26,2.031-3.571,2.787-4.371,2.519-9.568,3.646-14.583,2.993-2.193-.286-4.388-.91-6.197-2.182-1.809-1.272-3.195-3.26-3.381-5.464-.265-3.133,1.637-6.101,3.866-8.319,4.539-4.518,9.294-8.969,13.588-13.728,2.014-2.434,2.947-5.624,5.497-4.673,2.744,2.478,7.146,3.064,9.896,2.179,2.435-.784,6.132-2.591,7.063-3.155.765-.463,2.177-.896,2.963-.728,1.675.358,1.729,1.217,2.097,2.619"/><path class="h" d="M91.037,400.295c-.86,2.024-1.277,7.111-1.35,9.057-.116,3.081-.622,7.151,1.823,9.43,1.757,1.637,5.521,3.55,7.818,4.252,3.752,1.147,5.687,3.563,8.426,6.157,1.106,1.048,2.26,2.031,3.571,2.787,4.371,2.519,9.568,3.646,14.583,2.993,2.193-.286,4.388-.91,6.197-2.182,1.809-1.272,3.195-3.26,3.381-5.464.265-3.133-1.637-6.101-3.866-8.319-4.539-4.518-9.294-8.969-13.588-13.728-2.014-2.434-2.947-5.624-5.497-4.673-2.744,2.478-7.146,3.064-9.896,2.179-2.435-.784-6.132-2.591-7.063-3.155-.765-.463-2.177-.896-2.963-.728-1.675.358-1.729,1.217-2.097,2.619"/><path class="d" d="M99.655,13.03c-5.263-3.441-11.376-5.6-19.058-5.6-8.058,0-14.9,2.43-20.376,6.502-6.358,4.728-13.557,13.15-14.133,26.782-.138,3.258.277,6.991,1.262,10.779"/><path class="d" d="M113.866,51.493c.985-3.987,1.401-7.052,1.243-10.779-.485-11.489-5.48-19.277-11.009-24.272"/><path class="f" d="M80.68,2c-8.763,0-17.103,1.756-24.404,6.363-5.719,3.609-9.671,9.778-11.799,16.397-2.207,6.863-3.089,14.142-2.989,21.374-.998,2.74-1.463,7.276-1.171,8.702,1.184,5.773,3.476,15.403,7.508,15.923,1.719.222,3.043.294,4.343-1.435,1.782-2.371-2.63-18.687-.92-21.425.821-1.315,23.404,2.104,29.432,2.027,6.029.077,28.61-3.342,29.432-2.027,1.71,2.738-2.702,19.055-.92,21.425,1.3,1.73,2.624,1.657,4.343,1.435,4.032-.52,6.324-10.15,7.508-15.923.292-1.426-.172-5.962-1.171-8.702.101-7.232-.782-14.511-2.989-21.374-2.129-6.619-6.08-12.789-11.799-16.397-7.301-4.607-15.641-6.363-24.404-6.363"/><path class="f" d="M107.709,402.932c1.665-.34,3.32-1.045,4.633-2.158.11-3.621.196-6.329.196-6.329.564-17.837,1.547-36.436,2.28-55.556-6.949,0-18.704,0-26.157,0,.79,20.161,2.06,38.449,3.834,60.056.75-.258,2.275.197,3.082.685.931.564,4.627,2.371,7.063,3.155,1.406.453,3.244.521,5.071.148Z"/><path class="f" d="M54.749,403.104c-1.847-.202-3.775-.849-5.315-2.002-.504-19.849-1.646-40.701-2.469-62.213,7.309,0,18.487,0,26.165,0-.803,20.257-2.081,38.624-3.868,60.367-.348-.793-2.473-.235-3.479.373-.931.564-4.627,2.371-7.063,3.155-1.124.362-2.523.478-3.972.32Z"/><path class="e" d="M68.393,400.827c.941,2.359,1.08,5.119,1.233,7.629.15,2.45.677,5.554-.41,7.846-.573,1.206-1.833,1.93-2.937,2.587-1.25.744-2.564,1.424-3.931,1.929-1.543.571-3.073,1.051-4.468,1.954-1.366.884-2.582,1.981-3.745,3.112-2.547,2.477-4.957,4.66-8.355,5.903-3.424,1.252-7.215,1.758-10.824,1.096-2.942-.539-6.462-2.051-7.05-5.361-.608-3.427,2.398-6.27,4.58-8.42,3.192-3.146,6.428-6.248,9.53-9.484,1.476-1.539,2.949-3.063,4.137-4.84.427-.639.81-1.345,1.329-1.914.381-.417.361-.47.809-.328l-.883-.514c3.536,3.057,8.561,3.961,12.929,2.309,2.014-.761,4.012-1.646,5.908-2.668.648-.349,1.441-.904,2.215-.795.229.032.055-.068.201.156.038.058.188.785.251,1.03.638,2.492,4.496,1.436,3.857-1.063-.553-2.161-1.585-3.855-4.026-4.088-2.077-.198-3.808.975-5.584,1.85-1.817.896-3.805,1.953-5.815,2.32-1.899.346-4.067-.048-5.758-.963-.972-.526-1.701-1.368-2.816-1.582-1.095-.211-2.177.016-3.104.63-1.89,1.251-2.737,3.596-4.23,5.23-3.975,4.352-8.263,8.402-12.449,12.546-3.659,3.623-6.773,8.702-4.128,13.848,2.478,4.822,8.376,6.368,13.396,6.373,5.392.006,11.015-1.745,15.214-5.173,1.899-1.55,3.481-3.448,5.381-4.995,1.794-1.46,3.89-1.991,5.97-2.884,2.263-.971,4.644-2.186,6.441-3.904,1.919-1.835,2.471-4.505,2.527-7.063.047-2.189-.109-4.421-.315-6.6-.211-2.234-.385-4.666-1.225-6.77-.4-1.003-1.336-1.706-2.46-1.397-.953.262-1.799,1.451-1.397,2.46h0Z"/><path class="e" d="M89.109,399.764c-.741,1.857-.926,3.97-1.141,5.941-.205,1.882-.3,3.772-.374,5.663-.089,2.297-.012,4.702,1.02,6.805,1.003,2.042,3.007,3.361,4.93,4.451,1.981,1.123,4.066,1.797,6.153,2.655,2.131.876,3.759,2.51,5.373,4.096,1.833,1.802,3.713,3.539,6.002,4.75,2.445,1.293,5.103,2.224,7.835,2.666,5.179.838,11.411.419,15.478-3.279s3.764-9.349.664-13.557c-1.681-2.282-3.851-4.179-5.869-6.155-2.081-2.037-4.161-4.075-6.19-6.163-1.881-1.934-3.592-3.836-5.111-6.061-1.249-1.829-2.871-3.514-5.293-3.049-1.252.24-2.145,1.298-3.297,1.824-1.005.459-2.145.737-3.247.803-2.282.137-4.289-.748-6.327-1.68-2.012-.921-4.068-2.437-6.327-2.58-1.217-.077-2.562.296-3.452,1.172-.804.791-1.079,1.868-1.349,2.925-.638,2.495,3.219,3.56,3.857,1.063.069-.268.193-.939.251-1.03.173-.268-.028-.094.158-.132.744-.155,1.531.375,2.161.719,1.922,1.049,3.96,1.946,6.006,2.72,4.368,1.651,9.393.748,12.929-2.309l-.883.514c.393-.124.211-.156.511.019.525.306.91,1.132,1.231,1.62,1.014,1.539,2.14,2.903,3.4,4.248,2.743,2.927,5.614,5.73,8.48,8.536,2.428,2.377,5.629,4.801,6.594,8.216.914,3.236-1.355,5.902-4.272,7.011-6.696,2.546-14.933.27-19.987-4.545-2.333-2.223-4.526-4.615-7.539-5.92-2.797-1.211-5.679-2.027-8.12-3.968-2.473-1.967-1.8-5.714-1.672-8.497.127-2.758.241-5.835,1.275-8.427.4-1.004-.437-2.197-1.397-2.46-1.139-.313-2.058.39-2.46,1.397h0Z"/><path class="e" d="M94.129,396.901c-1.582-19.801-2.894-39.621-3.631-59.473-.219-5.903-.392-11.808-.528-17.714-.059-2.57-4.059-2.579-4,0,.461,20.009,1.429,39.996,2.85,59.959.409,5.745.85,11.487,1.308,17.228.204,2.549,4.205,2.571,4,0h0Z"/><path class="e" d="M114.452,398.864c.647-20.354,1.74-40.69,2.494-61.039.223-6.015.417-12.032.57-18.049.065-2.575-3.935-2.574-4,0-.526,20.746-1.585,41.472-2.44,62.205-.232,5.627-.446,11.255-.625,16.884-.082,2.575,3.918,2.572,4,0h0Z"/><path class="e" d="M71.553,396.901c1.582-19.801,2.894-39.621,3.631-59.473.219-5.903.392-11.808.528-17.714.059-2.575-3.941-2.574-4,0-.461,20.009-1.429,39.996-2.85,59.959-.409,5.745-.85,11.487-1.308,17.228-.205,2.566,3.796,2.553,4,0h0Z"/><path class="e" d="M51.329,398.864c-.647-20.354-1.74-40.69-2.494-61.039-.223-6.015-.417-12.032-.57-18.049-.065-2.569-4.065-2.579-4,0,.526,20.746,1.585,41.472,2.44,62.205.232,5.627.446,11.255.625,16.884.082,2.568,4.082,2.579,4,0h0Z"/><path class="h" d="M38.054,231.991c.609,21.009,3.385,65.357,4.808,90.481.295,5.199-1.31,7.313-1.156,10.779.166,3.757,3.063,5.403,6.823,5.427,12.69.081,24.857.229,32.368.22,7.508.009,19.67-.139,32.355-.22,3.76-.024,6.657-1.67,6.823-5.427.153-3.466-1.451-5.58-1.156-10.779,1.423-25.125,4.053-66.463,4.808-90.481"/><path class="e" d="M88.671,340.889c8.665,0,17.331,0,25.996,0,2.574,0,2.578-4,0-4-8.665,0-17.331,0-25.996,0-2.574,0-2.578,4,0,4h0Z"/><path class="e" d="M73.11,336.889c-8.665,0-17.331,0-25.996,0-2.574,0-2.578,4,0,4,8.665,0,17.331,0,25.996,0,2.574,0,2.578-4,0-4h0Z"/><path class="e" d="M121.725,231.991c-.557,17.598-1.592,35.183-2.606,52.76-.522,9.043-1.06,18.086-1.59,27.129-.239,4.085-.745,8.263-.642,12.355.052,2.071.486,4.072.904,6.09.3,1.448.625,3.261-.191,4.597-.989,1.621-3.152,1.746-4.849,1.76-3.26.028-6.52.047-9.78.074-5.805.048-11.61.105-17.415.133-2.573.012-2.579,4.012,0,4,5.254-.025,10.508-.074,15.762-.119,2.983-.025,5.966-.05,8.949-.071,2.538-.018,5.114.13,7.489-.913,4.186-1.838,4.748-6.215,3.949-10.246-.395-1.991-.834-3.892-.823-5.939s.205-4.115.323-6.164c1.09-18.837,2.247-37.67,3.234-56.512.505-9.641.98-19.285,1.286-28.934.081-2.575-3.919-2.572-4,0h0Z"/><path class="e" d="M36.054,231.991c.509,17.424,1.584,34.836,2.584,52.237.539,9.376,1.094,18.752,1.64,28.128.123,2.105.245,4.21.366,6.315s.349,4.247.211,6.358c-.262,4.023-2.474,8.375.021,12.151,1.418,2.146,3.812,3.128,6.285,3.413,3.341.386,6.848.124,10.211.151,6.283.052,12.566.115,18.85.145,2.574.012,2.577-3.988,0-4-5.332-.025-10.664-.076-15.997-.121-3.07-.026-6.14-.051-9.209-.073-1.981-.014-4.574.317-6.238-1.057-1.213-1.002-1.194-2.777-.998-4.201.279-2.028.874-3.98,1.048-6.031.339-4.01-.268-8.222-.502-12.234-1.075-18.463-2.191-36.924-3.146-55.394-.444-8.592-.875-17.187-1.127-25.788-.075-2.568-4.075-2.579-4,0h0Z"/><path class="e" d="M78.68,256.444v78.611c0,2.574,4,2.578,4,0v-78.611c0-2.574-4-2.578-4,0h0Z"/><path class="e" d="M58.481,102.808c1.604-.74,3.182-1.534,4.754-2.339.533-.273,1.066-.549,1.598-.824.125-.064.254-.124.376-.193.104-.058.31-.179-.215.095.313-.163.66-.264.977-.422,1.572-.784,2.62-2.236,2.988-3.938.404-1.867.66-3.814.83-5.712.094-1.045-.987-2.045-2-2-1.164.052-1.9.881-2,2-.025.281-.052.561-.084.841-.016.139-.033.278-.05.417.021-.15.022-.153.002-.01-.069.497-.149.993-.234,1.488-.109.637-.184,1.282-.321,1.913-.047.215-.266.621-.238.823-.029-.213.171-.352-.002-.038-.039.072-.081.142-.126.21-.12.172-.091.139.088-.102.013.014-.238.248-.272.287-.161.139-.135.125.079-.043-.081.06-.165.117-.25.17-.139.088-.286.159-.429.24-.204.094-.211.1-.022.019-.224.081-.444.172-.661.271-2.292,1.082-4.504,2.331-6.808,3.394-.953.44-1.264,1.889-.718,2.736.633.982,1.717,1.188,2.736.718h0Z"/><path class="e" d="M104.897,99.141c-1.484-.682-2.966-1.37-4.448-2.057-.961-.446-1.915-.934-2.903-1.321-.559-.219.152.108-.123-.048-.165-.094-.338-.17-.5-.271-.084-.052-.167-.108-.247-.166.216.171.243.187.082.05-.009-.01-.277-.276-.271-.279.18.244.21.281.088.11-.045-.067-.087-.135-.127-.204-.033-.057-.289-.502-.104-.189.173.293-.029-.122-.055-.21-.045-.155-.082-.312-.115-.469-.124-.584-.194-1.179-.294-1.767-.206-1.208-.284-1.716-.385-2.845-.093-1.039-.853-2.051-2-2-1.004.045-2.1.884-2,2,.169,1.889.429,3.817.822,5.675.365,1.724,1.415,3.192,3.01,3.982.314.156.641.289.967.417.619.242-.536-.251-.22-.1.122.059.247.113.371.17.571.263,1.141.528,1.711.792,1.574.73,3.147,1.46,4.724,2.185.948.436,2.198.301,2.736-.718.465-.88.297-2.27-.718-2.736h0Z"/><path class="e" d="M107.053,67.422c-.308,1.478-.765,2.927-1.301,4.337-.193.508-.349.826-.58,1.401-.204.506.138-.279-.034.082-.063.131-.121.264-.184.395-.887,1.853-1.995,3.613-3.178,5.289-2.765,3.918-6.547,8.195-11.407,9.337-2.505.589-1.444,4.446,1.063,3.857,5.742-1.349,10.161-6.144,13.487-10.741,1.291-1.784,2.494-3.667,3.454-5.652.206-.425.39-.859.572-1.295.216-.517-.148.347.08-.183.149-.345.295-.691.434-1.041.607-1.53,1.115-3.112,1.451-4.724.524-2.512-3.331-3.586-3.857-1.063h0Z"/><path class="e" d="M50.367,68.384c2.466,10.814,10.604,22.603,22.29,24.366,1.067.161,2.15-.268,2.46-1.397.26-.945-.322-2.298-1.397-2.46-10.394-1.568-17.309-11.981-19.497-21.573-.572-2.509-4.43-1.447-3.857,1.063h0Z"/><path class="e" d="M75.101,77.568c1.834.968,3.806,1.385,5.881,1.372,2.179-.014,4.306-.475,6.042-1.828.829-.646.729-2.159,0-2.828-.88-.807-1.944-.689-2.828,0,.69-.538-.033-.007-.252.108-.169.089-.624.23.003.019-.161.054-.316.122-.478.174-.204.065-.41.121-.618.17-.223.052-.511.051-.72.136.207-.084.318-.038.017-.008-.131.013-.263.024-.394.032-.317.02-.634.028-.951.027-.284-.002-.568-.011-.852-.031-.13-.009-.26-.019-.39-.032-.074-.007-.148-.015-.222-.025-.157-.019-.097-.011.178.024-.093.056-.529-.095-.641-.119-.205-.045-.408-.098-.61-.158-.175-.052-.346-.115-.519-.174-.452-.155.417.2.008.007-.214-.101-.426-.206-.635-.317-.925-.488-2.217-.265-2.736.718-.488.924-.27,2.215.718,2.736h0Z"/><path class="e" d="M79.717,64.035c.244.932.479,1.879.619,2.833l-.071-.532c.017.131.024.26.011.391l.071-.532c-.009.061-.023.118-.043.176l.202-.478c-.018.041-.037.076-.062.113l.313-.405c-.029.035-.057.063-.093.091l.405-.313c-.072.046-.147.083-.224.119l.478-.202c-.124.052-.246.089-.378.11l.532-.071c-.119.014-.236.013-.355,0l.532.071c-.134-.019-.265-.051-.399-.069-.266-.083-.532-.095-.798-.036-.266.012-.514.091-.744.237-.415.243-.811.718-.919,1.195-.117.512-.091,1.087.202,1.541.26.403.695.852,1.195.919.353.048.696.136,1.056.152.577.025,1.105-.156,1.618-.394.645-.299,1.153-.91,1.325-1.603.147-.593.087-1.071-.014-1.666-.154-.913-.365-1.817-.6-2.712-.127-.483-.49-.944-.919-1.195s-1.061-.357-1.541-.202c-.484.157-.951.457-1.195.919-.253.48-.342,1.007-.202,1.541h0Z"/><path class="e" d="M65.266,55.867c-.473,1.537-.165,5.074,2.748,5.375,3.85-.023,4.054-4.299,2.759-6.309-1.061-1.646-4.181-2.331-5.506.934Z"/><path class="e" d="M96.093,55.867c.473,1.537.165,5.074-2.748,5.375-3.85-.023-4.055-4.299-2.759-6.31,1.061-1.646,4.181-2.33,5.507.935Z"/><path class="d" d="M109.25,52.968c.923-.886,2.165-1.219,3.229-1.182,2.314.082,3.299,1.333,3.723,2.068,1.265,2.194,1.212,6.237.362,8.738-.601,1.771-1.587,4.481-3.961,6.424-.979.801-2.419,1.328-3.796,1.096"/><path class="d" d="M52.11,52.968c-.923-.886-2.165-1.219-3.229-1.182-2.314.082-3.299,1.333-3.723,2.068-1.265,2.194-1.212,6.237-.362,8.738.601,1.771,1.587,4.481,3.961,6.424.979.801,2.419,1.328,3.796,1.096"/><path class="e" d="M103,40.181c2.198-.511,1.761-3.38-.128-3.974-.957-.301-2.015-.396-3.002-.542-4.008-.593-8.045-1.026-12.088-1.285-8.412-.539-16.843-.021-25.185,1.127-1.281.176-2.619.303-3.871.638-.651.174-1.26.447-1.618,1.059-.656,1.122-.027,2.679,1.252,2.977,2.505.582,3.574-3.274,1.063-3.857l.822.488.514,1.946.003-.012-.514.883c-.15.133-.887.421-.628.416.104-.002.22-.057.323-.077.388-.073.775-.152,1.164-.218,1.126-.192,2.258-.351,3.391-.494,3.477-.44,6.971-.776,10.471-.956,6.86-.354,13.738-.009,20.555.793,1.422.167,2.842.352,4.256.579.489.079.979.158,1.464.26.136.029.28.08.417.093.534.049-.369-.236-.549-.396l-.514-.883.003.012.514-1.946.822-.488c-2.506.582-1.445,4.44,1.063,3.857h0Z"/><path class="e" d="M80.68,0c-7.26.024-14.486,1.229-21.105,4.294-6.268,2.902-11.189,7.512-14.401,13.643-3.497,6.675-4.989,14.369-5.512,21.829-.136,1.938.059,3.979-.18,5.896-.176,1.415-.715,2.816-.921,4.247-.196,1.362-.384,2.76-.324,4.14.053,1.241.385,2.471.657,3.678.613,2.716,1.315,5.437,2.357,8.024.924,2.294,2.073,4.76,4.197,6.182,2.17,1.454,5.554,1.27,7.48-.478,1.472-1.337,1.713-3.032,1.666-4.927-.106-4.323-1.069-8.602-1.529-12.893-.106-.987-.196-1.978-.216-2.971-.007-.372.01-.742.017-1.114.004-.205.053-.469-.009-.097.026-.156.07-.31.093-.465.048-.322.121-.133.032-.139.069.005-.151.236-.009.059.052-.064-.749.727-.613.627-.729.536.023.029.009.064-.037.098-.564.026-.134.028.118,0,.239-.015.357-.02.311-.013.623-.012.934-.007,8.406.111,16.745,1.8,25.133,2.266,3.33.185,6.653-.17,9.964-.501,4.658-.466,9.308-1.02,13.971-1.435,1.766-.157,3.54-.315,5.314-.332.285-.003.57-.003.854.009.118.005.239.02.357.02.407-.002-.076.018-.091-.021,0,.002.621.409-.033-.071.136.1-.664-.691-.613-.627.142.177-.078-.054-.009-.059-.067.004-.071-.259-.019-.036.018.079.049.156.067.235.03.134.055.269.077.405-.061-.372-.013-.108-.009.097.008.406.024.809.014,1.216-.025,1.001-.118,2.001-.227,2.995-.238,2.181-.576,4.35-.872,6.523-.286,2.1-.605,4.22-.645,6.342-.036,1.933.253,3.625,1.8,4.946,1.963,1.676,5.307,1.764,7.434.301,2.113-1.454,3.256-3.965,4.17-6.273,1.027-2.592,1.724-5.312,2.333-8.029.268-1.198.591-2.414.625-3.647.039-1.401-.147-2.815-.353-4.197-.213-1.43-.803-2.88-.894-4.302-.126-1.959-.053-3.932-.197-5.895-.294-4.011-.899-8.016-1.894-11.914-1.691-6.623-4.649-13.083-9.676-17.848-5.061-4.797-12.059-7.569-18.834-8.824C87.781.299,84.232.012,80.68,0c-2.574-.009-2.578,3.991,0,4,6.876.023,13.835,1.117,20.041,4.205,2.856,1.421,5.455,3.146,7.644,5.482,2.109,2.251,3.762,4.892,5.066,7.68,3.02,6.454,4.157,13.926,4.403,20.992.056,1.618-.169,3.368.316,4.919.444,1.423.724,2.914.87,4.397.061.619.106,1.242.11,1.864.001.171-.081,1.186-.014.765-.21,1.326-.561,2.65-.88,3.953-.612,2.497-1.287,5.057-2.409,7.38-.392.813-.851,1.685-1.425,2.336-.627.71-.829.834-1.852.888-.474.025-.891.048-1.295-.234-.361-.252-.498-.682-.333-.229-.053-.146-.175-.872-.104-.294-.048-.393-.057-.792-.057-1.188.002-1.815.248-3.637.487-5.433.525-3.938,1.549-8.109,1.235-12.1-.118-1.504-.504-3.092-2.126-3.579-1.08-.324-2.359-.224-3.471-.178-8.124.335-16.164,1.806-24.282,2.244-3.209.173-6.413-.163-9.604-.48-4.451-.442-8.893-.965-13.347-1.38-1.783-.166-3.57-.325-5.36-.392-1.077-.04-2.31-.127-3.349.204-3.228,1.029-2.026,6.685-1.728,9.1.497,4.019,1.432,8.115,1.384,12.179-.004.334-.015.669-.056,1.001.07-.572-.053.093-.086.241-.074.339.267-.283.033-.106.128-.097-.351.363-.385.387-.475.332-1.063.272-1.614.209-.777-.089-.92-.2-1.452-.776-.686-.742-1.197-1.753-1.635-2.697-1.09-2.346-1.754-4.922-2.357-7.429-.288-1.197-.607-2.412-.801-3.629.063.395-.015-.608-.014-.765.005-.738.063-1.477.146-2.21.155-1.365.424-2.739.834-4.051.529-1.695.261-3.625.333-5.391.154-3.751.597-7.479,1.398-11.148,1.383-6.332,3.746-12.59,8.318-17.331,4.516-4.682,10.987-7.234,17.263-8.486,3.346-.668,6.75-.911,10.157-.922C83.253,3.991,83.258-.009,80.68,0h0Z"/><path class="h" d="M148.363,147.876c-1.919-6.221-4.116-12.135-6.696-19.57-1.032-2.975-3.245-7.404-5.411-10.097-4.792-5.779-13.239-10.235-23.761-14.583l-12.724-4.822s-.021-.008-.148-.059c-1.699,1.767-5.21,6.732-18.944,6.732-11.919,0-17.248-5.086-19.002-6.789l-.307.116-12.724,4.822c-10.521,4.348-18.968,8.804-23.761,14.583-2.166,2.693-4.378,7.123-5.411,10.097-4.514,13.004-7.851,21.355-10.589,34.835-.455,2.241.803,4.499,2.902,4.798,5.5.784,18.2,2.14,23.425,2.395-.14,23.867-.365,52.529-.365,61.92,0,1.04,1.01,1.88,2.27,1.88,22.29.08,58.87-.04,86.9.03,1.38,0,2.48-.91,2.48-2.04,0-3.46-.02-14.91-.04-28.3,0,0-.024-15.984-.072-33.515,5.475-.307,17.62-1.609,22.965-2.371,2.099-.299,3.358-2.557,2.902-4.798-1.172-5.773-2.455-10.606-3.893-15.266Z"/><path class="h" d="M43.57,174.706c-1.837-.703-2.487-2.348-3.435-3.973-.007-.011-.012-.024-.018-.036-3.431-.21-5.936-.364-5.936-.364-5.165-.256-17.513-1.57-23.131-2.357-.878,4.419-1.72,9.258-1.499,14.239.078,1.758.325,3.487.753,5.135,1.584,6.091,5.656,11.067,12.905,12.247,6.41,1.04,12.458-1.929,16.625-7.637,0,0,4.79-7.107,7.787-16.713-1.395.048-2.788-.057-4.051-.54Z"/><path class="h" d="M150.084,169.896s-.234-.968-.512-2.121c-.695.094-1.177.159-1.219.165-5.488.784-18.144,2.134-23.39,2.393l-2.894,4.806c-12.672.321-33.306-.227-44.735-.5h-3.086c.153.089.292.187.451.273,1.455.785,2.363,2.312,2.442,3.963.119,2.507.146,5.864.066,8.006-.059,1.571-.048,3.409-1.172,4.508-.465.455-1.087.707-1.691.949-.042.023-.09.045-.133.068.684.18,1.288.338,1.757.461.719.189,1.143.3,1.143.3l6.556,1.722c10.055,2.793,19.433,4.914,32.16,7.117,3.816.661,15.978,1.781,20.396.216,10.667-3.778,14.825-10.145,14.87-20.362.03-6.825-.727-10.097-1.008-11.965Z"/><path class="e" d="M61.146,96.759c-4.17,1.58-8.339,3.16-12.509,4.741-3.88,1.47-7.697,3.234-11.38,5.141-4.096,2.121-8.11,4.577-11.494,7.739-3.433,3.208-5.748,7.326-7.536,11.631-1.98,4.767-3.525,9.776-5.195,14.661-1.608,4.703-3.096,9.446-4.324,14.264-.673,2.643-1.389,5.331-1.808,8.028-.365,2.349.485,4.862,2.543,6.184,1.668,1.072,4.043,1.029,5.963,1.265,2.311.284,4.625.544,6.941.79,4.267.454,8.546.91,12.832,1.13,2.573.132,2.566-3.869,0-4-7.256-.372-14.525-1.226-21.726-2.167-1.283-.168-2.672-.35-2.655-2.144.011-1.165.446-2.411.699-3.544.288-1.29.592-2.577.913-3.859,1.145-4.576,2.524-9.087,4.03-13.557,1.603-4.758,3.282-9.494,4.965-14.224,1.371-3.85,3.387-7.786,6.263-10.728s6.401-5.194,10.004-7.162c3.748-2.048,7.666-3.889,11.644-5.445,4.28-1.674,8.597-3.258,12.894-4.887,1.009-.383,1.702-1.349,1.397-2.46-.266-.968-1.445-1.782-2.46-1.397h0Z"/><path class="e" d="M98.934,100.616c4.015,1.522,8.029,3.043,12.044,4.565,3.205,1.215,6.342,2.645,9.412,4.166,3.872,1.918,7.741,4.065,11.048,6.871,7.009,5.947,9.254,15.253,12.154,23.602,1.533,4.413,2.995,8.851,4.235,13.356.666,2.419,1.271,4.854,1.818,7.303.305,1.365,1.526,4.284-.097,5.304-.615.386-1.484.335-2.123.418-.97.126-1.94.245-2.911.36-2.197.262-4.396.505-6.597.735-3.976.416-7.962.833-11.955,1.037-2.561.131-2.577,4.132,0,4,7.684-.394,15.389-1.304,23.01-2.339,2.278-.309,4.075-1.413,4.939-3.629.935-2.397.032-5.003-.509-7.393-1.139-5.034-2.549-9.997-4.154-14.901-1.618-4.94-3.394-9.826-5.109-14.733-1.6-4.577-3.586-9.18-6.771-12.899-2.804-3.274-6.469-5.824-10.169-7.982-4.507-2.629-9.322-4.856-14.176-6.763-4.321-1.698-8.686-3.292-13.027-4.937-1.01-.383-2.193.425-2.46,1.397-.309,1.124.383,2.076,1.397,2.46h0Z"/><path class="e" d="M98.051,97.498c-.396.428-.786.861-1.204,1.268-.26.253-.529.496-.804.732-.064.054-.472.381-.303.251.132-.101-.319.229-.433.307-2.028,1.397-4.207,2.161-6.615,2.683-6.748,1.463-14.791,1.202-20.995-2.091-1.997-1.06-3.073-1.888-4.605-3.375-1.848-1.793-4.68,1.032-2.828,2.828,3.86,3.745,8.789,6.005,14.086,6.861,4.545.734,9.219.67,13.762-.058,2.954-.474,5.927-1.366,8.498-2.93,1.628-.991,2.984-2.259,4.271-3.647,1.748-1.886-1.074-4.722-2.828-2.828h0Z"/><path class="e" d="M8.752,169.384c-1.491,8.007-2.473,17.201,2.156,24.43,4.121,6.436,12.292,9.435,19.64,7.309,4.564-1.321,8.22-4.395,11.013-8.153.645-.868.142-2.233-.718-2.736-1.019-.596-2.09-.152-2.736.718-4.077,5.486-10.669,8.297-17.302,5.979-5.448-1.904-8.359-7.225-9.088-12.69-.61-4.576.053-9.292.891-13.793.468-2.516-3.386-3.595-3.857-1.063h0Z"/><path class="e" d="M152.084,169.896c.007-.227-.012-.096-.057.391l-2.46,1.397.011.002-1.195-.919c-.423-.754-.071.043-.009.419.102.617.174,1.237.242,1.858.226,2.052.37,4.115.438,6.178.112,3.415.035,6.832-1.041,10.107-1.865,5.676-7.133,9.431-12.696,11.086-2.579.768-5.5.646-8.197.578-3.077-.077-6.154-.311-9.209-.687-.327-.04-.705-.091-1.224-.174-1.059-.17-2.115-.366-3.171-.555-2.227-.399-4.451-.815-6.671-1.253-4.09-.806-8.166-1.686-12.22-2.659-5.687-1.365-11.323-2.94-16.98-4.426-2.492-.655-3.555,3.203-1.063,3.857,13.551,3.56,27.166,7.403,41.096,9.181,3.238.413,6.508.656,9.772.724,3.009.063,6.32.128,9.215-.818,6.621-2.165,12.489-6.434,14.971-13.118,1.48-3.985,1.57-8.345,1.394-12.541-.096-2.285-.279-4.569-.575-6.837-.158-1.204-.176-3.622-1.822-3.859-1.137-.164-2.056.27-2.46,1.397-.074.206-.081.449-.086.672-.048,2.575,3.952,2.575,4,0h0Z"/><path class="e" d="M122.069,173.139c-14.905.367-29.835-.143-44.735-.5-2.575-.062-2.574,3.938,0,4,14.901.357,29.83.867,44.735.5,2.57-.063,2.579-4.063,0-4h0Z"/><path class="g" d="M53.455,148.547c-.887-3.837-1.811-7.837-2.762-11.948l-.104.016c-3.932.616-9.26,1.947-13.678,3.021,6.769,21.109,12.433,38.719,14.547,45.301l4.148,12.013c-1.241.242-2.414.818-3.367,1.649-1.1.959-1.931,2.436-1.568,3.849.277,1.08,1.211,1.903,2.254,2.298s2.189.418,3.302.353c3.022-.176,5.971-.964,8.881-1.795,1.359-.388,2.737-.796,3.92-1.569,1.183-.773,2.163-1.976,2.331-3.379.154-1.282-.43-2.626-1.472-3.388-1.282-.938-3.016-.947-4.587-.716,0,0-.432.064-1.13.166l-1.85-7.401c-1.183-5.197-4.585-19.942-8.866-38.47Z"/><path class="h" d="M50.59,136.615l.104-.018c-10.398-44.984-23.891-103.272-24.902-107.791-.711-3.178-1.904-6.352-4.261-8.686-3.643-3.607-8.66-3.794-13.32-2.426-5.512,1.618-6.768,6.969-5.959,12.111.456,2.902,20.111,64.45,34.662,109.831l.244-.059c4.368-1.064,9.574-2.357,13.434-2.962Z"/><path class="e" d="M65.833,196.182c.881-.119,2.116-.184,2.874.387.702.529.829,1.44.464,2.195-.483.998-1.58,1.586-2.566,1.973-1.446.567-3.002.932-4.503,1.321-1.479.383-2.98.735-4.498.921-1.291.158-2.968.414-4.183-.188-.837-.415-.994-1.064-.566-1.846.581-1.061,1.789-1.67,2.909-1.981,2.477-.688,1.425-4.549-1.063-3.857-3.078.856-6.393,3.508-6.087,7.039.357,4.121,4.779,5.199,8.206,4.912,3.59-.301,7.294-1.179,10.682-2.404,3.066-1.108,6.197-3.551,5.851-7.186-.175-1.843-1.22-3.567-2.853-4.477-1.782-.994-3.776-.93-5.73-.666-1.071.145-1.656,1.519-1.397,2.46.318,1.156,1.385,1.542,2.46,1.397h0Z"/><path class="e" d="M64.25,186.486c-1.853-8.135-3.738-16.263-5.615-24.393-3.181-13.778-6.366-27.554-9.551-41.33-3.476-15.034-6.954-30.067-10.43-45.101-2.717-11.751-5.435-23.502-8.146-35.254-.755-3.273-1.511-6.547-2.261-9.821-.17-.743-.338-1.487-.509-2.23-1.246-5.42-4-10.583-9.483-12.617-2.546-.944-5.321-.98-7.975-.559-2.614.414-5.231,1.288-7.127,3.217C.13,21.47-.496,26.349.339,30.429c.39,1.906,1.057,3.783,1.62,5.642,2.973,9.818,6.085,19.595,9.18,29.375,4.504,14.234,9.04,28.457,13.585,42.678,4.582,14.336,9.174,28.668,13.773,42.999,3.246,10.113,6.495,20.226,9.745,30.338.43,1.336.859,2.673,1.288,4.01.784,2.441,4.648,1.397,3.857-1.063-2.662-8.288-5.327-16.576-7.989-24.864-4.332-13.49-8.659-26.982-12.978-40.477-4.632-14.474-9.256-28.95-13.858-43.434-3.605-11.348-7.208-22.697-10.734-34.07-.997-3.215-1.996-6.429-2.94-9.66-.973-3.331-1.647-7.261.687-10.231,1.409-1.793,3.822-2.394,5.982-2.662,2.546-.316,5.135.047,7.299,1.483,3.155,2.093,4.335,5.895,5.129,9.394.552,2.433,1.115,4.863,1.675,7.294,2.42,10.502,4.848,21.001,7.276,31.501,3.349,14.485,6.699,28.97,10.049,43.455,3.297,14.257,6.594,28.513,9.887,42.771,2.241,9.701,4.484,19.402,6.711,29.106.27,1.179.541,2.357.809,3.536.571,2.509,4.429,1.447,3.857-1.063h0Z"/><path class="e" d="M50.058,134.687c-4.528.718-8.983,1.878-13.434,2.962-1.05.256-1.677,1.441-1.397,2.46.294,1.07,1.407,1.653,2.46,1.397,4.451-1.084,8.906-2.243,13.434-2.962,1.068-.169,1.66-1.502,1.397-2.46-.313-1.137-1.389-1.567-2.46-1.397h0Z"/><path class="h" d="M37.918,154.911c.088-.33.186-.657.294-.979,1.008-3.026,2.232-5.651,5.003-7.519,2.649-1.786,5.98-2.537,9.136-2.26,3.445.302,9.304,2.029,7.161,6.959.606.159,1.174.443,1.655.816.292.227.586.472.754.792.691,1.315.918,2.901-1.024,5.38,1.351.565,2.238,1.445,2.345,3.031.086,1.443-.822,3.531-2.444,3.765l-.797.115c.679.069,1.308.293,1.821.746,1.149,1.016,1.156,2.429.341,3.764-2.354,3.854-9.06,5.282-13.306,5.649-1.793.155-3.65.161-5.287-.465-1.837-.703-2.487-2.348-3.435-3.973-2.641-4.53-3.611-10.61-2.216-15.822Z"/><path class="e" d="M61.857,148.043c-.576-2.878-3.327-4.476-5.934-5.248-2.987-.884-6.263-.927-9.267-.109-3.373.919-6.353,2.924-8.236,5.891-1.773,2.794-2.758,6.213-3.053,9.485-.307,3.401.202,6.967,1.403,10.162.613,1.629,1.416,3.136,2.272,4.646.774,1.367,1.733,2.68,3.167,3.41,3.017,1.536,6.792,1.006,10,.455,2.766-.475,5.597-1.279,8.018-2.734,2.801-1.683,5.944-5.267,3.837-8.662-2.135-3.439-6.658-2.211-9.917-1.585-2.525.485-1.456,4.341,1.063,3.857.998-.192,4.994-1.421,5.499-.079.243.648-.645,1.53-1.061,1.935-.704.686-1.558,1.187-2.435,1.621-1.932.956-4.111,1.463-6.226,1.816-2.1.35-4.747.788-6.76-.079-.954-.411-1.433-1.44-1.91-2.293-.615-1.102-1.245-2.187-1.691-3.372-.924-2.458-1.394-5.047-1.34-7.674.096-4.683,1.949-9.999,6.376-12.186,2.386-1.179,5.241-1.492,7.844-.98,1.624.319,4.114.889,4.494,2.784.505,2.522,4.361,1.454,3.857-1.063h0Z"/><path class="e" d="M53.32,153.592c.525-.137,1.052-.263,1.585-.363.266-.049.536-.078.801-.13-.591.116-.188.027-.04.01.174-.019.349-.036.524-.051.719-.061,1.445-.099,2.167-.093.103,0,.205.002.308.009.229.021.204.015-.075-.018,0-.008.428.095.446.1.098.027.194.057.29.091.209.079.19.069-.058-.032.146.02.337.171.462.247.064.038.127.078.188.12.181.13.163.112-.056-.053.051.024.422.323.409.374.017-.069-.225-.356-.038.003.026.051.051.102.075.154.083.183.05.103-.098-.241.03.192.141.388.187.58.018.077.017.19.052.262-.047-.383-.06-.47-.039-.26.005.062.008.124.009.186.003.113-.006.225-.009.338-.011.457.103-.446.01-.075-.036.143-.065.287-.108.429-.013.042-.129.301-.117.337.124-.284.141-.327.052-.126-.038.082-.078.162-.119.242-.066.128-.136.253-.209.376-.224.379-.48.735-.748,1.083-.294.381-.322,1.103-.202,1.541.128.464.486.967.919,1.195.464.245,1.026.368,1.541.202.53-.172.858-.482,1.195-.919.783-1.015,1.489-2.218,1.688-3.504.197-1.275.019-2.418-.513-3.587-.628-1.38-2.086-2.292-3.482-2.754-1.366-.452-2.915-.323-4.326-.189-1.264.12-2.507.337-3.734.659-1.012.265-1.727,1.441-1.397,2.46.337,1.042,1.376,1.681,2.46,1.397h0Z"/><path class="e" d="M53.989,160.533c1.248-.367,2.6-.474,3.881-.678.11-.018.219-.035.329-.051-.254.033-.264.036-.031.008.168-.012.336-.032.505-.04.223-.011.446-.014.67-.004.13.006.588-.047.123-.003.163-.015.396.084.55.134.526.169-.202-.127.114.035.133.068.625.438.755.434-.244-.195-.286-.226-.126-.093l.087.078c.057.053.111.107.164.164.137.158.106.112-.093-.138.026.095.138.202.189.293.039.069.074.139.107.211-.119-.294-.142-.34-.069-.137.028.122.064.251.097.371.038.217.035.174-.011-.128.009.083.014.166.016.249.003.111-.006.221-.007.332-.003.343.106-.506-.01.047-.025.119-.055.237-.089.353-.023.079-.048.157-.076.234-.076.2-.054.156.064-.133-.055.035-.433.695-.429.746-.01-.136.297-.337.002-.038-.055.056-.113.11-.173.162.239-.176.297-.221.173-.135-.047.033-.096.065-.147.093-.188.097-.133.08.165-.051-.123-.006-.325.097-.454.119-1.033.18-1.707,1.501-1.397,2.46.36,1.113,1.353,1.59,2.46,1.397,2.994-.521,4.465-4.355,3.708-7.023-.401-1.412-1.415-2.573-2.715-3.238-1.674-.855-3.365-.886-5.186-.618-1.385.204-2.863.334-4.21.73-1.003.295-1.733,1.42-1.397,2.46.329,1.017,1.385,1.713,2.46,1.397h0Z"/><path class="h" d="M61.241,197.879c-.496.193-.975.382-1.431.564-1.545.617-3.183,1.246-4.828.997-2.891-.436-4.518-3.097-3.272-5.742-1.293-.067-2.751-2.061-2.937-3.342-.124-.858.286-2.561,1.555-3.259-1.648-.038-2.801-.815-3.151-2.426s.438-3.707,1.921-4.426c-1.087.319-2.175-.818-2.178-1.951-.004-1.514.731-2.736,1.528-3.542,2.753-2.782,6.922-5.314,10.6-6.505,3.665-.993,7.399.151,10.285,2.618,1.972,1.686,3.407,2.986,5.367,4.044,1.455.785,2.364,2.311,2.442,3.963.119,2.507.146,5.864.066,8.006-.059,1.571-.048,3.409-1.172,4.508-.465.455-1.087.707-1.691.949-3.642,1.959-8.972,3.932-13.103,5.542Z"/><path class="e" d="M60.709,195.951c-1.717.671-3.994,2.015-5.892,1.407-1.13-.362-1.885-1.467-1.381-2.65.441-1.033.227-2.729-1.195-2.938-1.244-.183-2.09-2.185-.904-2.945,1.704-1.093.977-3.615-1.009-3.727-1.755-.099-1.479-2.423-.22-3.124,2.107-1.175.577-4.004-1.541-3.655.615-.101.298.257.37-.428.034-.324.191-.653.34-.935.421-.797,1.198-1.401,1.869-1.979,1.592-1.37,3.395-2.51,5.263-3.465,1.796-.918,3.639-1.684,5.689-1.61,1.996.072,3.922.909,5.496,2.112,1.764,1.348,3.317,2.928,5.212,4.111.701.437,1.445.737,1.903,1.454.471.736.448,1.576.477,2.417.07,2.022.091,4.048.045,6.071-.02.885.011,1.813-.129,2.689-.144.901-.474,1.289-1.289,1.654-2.066.925-4.071,1.962-6.171,2.821-2.297.941-4.619,1.821-6.932,2.721-1.006.391-1.704,1.342-1.397,2.46.264.96,1.448,1.791,2.46,1.397,2.643-1.028,5.296-2.031,7.913-3.127,1.23-.515,2.455-1.041,3.661-1.61,1.184-.559,2.561-1.076,3.604-1.862,2.277-1.716,2.231-4.732,2.284-7.315s.209-5.343-.195-7.903c-.187-1.184-.682-2.263-1.434-3.194-.899-1.114-2.124-1.672-3.286-2.453-2.335-1.57-4.188-3.777-6.744-5.026-2.576-1.259-5.417-1.719-8.246-1.182-2.622.498-5.247,1.951-7.472,3.377-2.449,1.569-5.378,3.569-6.479,6.38-1.227,3.135.51,6.899,4.249,6.283l-1.541-3.655c-2.208,1.231-3.312,3.924-2.893,6.377.45,2.638,2.583,4.057,5.132,4.201l-1.009-3.727c-1.83,1.173-2.948,3.475-2.447,5.65.453,1.965,2.197,4.296,4.307,4.606l-1.195-2.938c-1.222,2.865-.657,6.001,2.083,7.769,3.13,2.02,6.602.562,9.707-.65,1.006-.393,1.704-1.341,1.397-2.46-.264-.959-1.449-1.792-2.46-1.397Z"/><path class="e" d="M50.108,181.904c1.763-1.136,3.623-2.095,5.554-2.912l-.478.202.098-.041c.504-.211.908-.428,1.195-.919.251-.429.357-1.061.202-1.541-.157-.484-.457-.951-.919-1.195-.44-.233-1.058-.404-1.541-.202-2.129.894-4.186,1.901-6.13,3.154-.435.28-.78.689-.919,1.195-.132.479-.072,1.116.202,1.541.566.878,1.796,1.324,2.736.718h0Z"/><path class="e" d="M51.336,188.825c.683-.351,1.38-.673,2.088-.973l-.478.202c1.423-.598,2.872-1.133,4.294-1.735.427-.181.802-.771.919-1.195.132-.479.072-1.116-.202-1.541-.275-.427-.685-.803-1.195-.919l-.532-.071c-.361.001-.697.092-1.009.273l-.1.042.478-.202c-2.098.882-4.253,1.623-6.282,2.665-.932.479-1.281,1.863-.718,2.736.613.951,1.739,1.23,2.736.718h0Z"/><path class="e" d="M53.096,195.214c1.933-.802,3.893-1.536,5.865-2.237.497-.177.922-.453,1.195-.919.251-.429.357-1.061.202-1.541-.314-.97-1.405-1.772-2.46-1.397-1.972.701-3.932,1.435-5.865,2.237-.503.209-.909.43-1.195.919-.251.429-.357,1.061-.202,1.541.157.484.457.951.919,1.195.442.233,1.057.403,1.541.202h0Z"/><path class="e" d="M124.461,203.826c.014,9.329.297,18.703.04,28.029-.009.33.087.127-.019.196-.322.209-.87.113-1.228.113-1.298-.003-2.595-.006-3.893-.008-2.681-.005-5.363-.008-8.044-.01-5.446-.004-10.892-.004-16.338-.002-10.86.004-21.72.016-32.58.02-4.964.001-9.928.001-14.892-.005-2.205-.003-4.41-.006-6.615-.012-1.002-.003-2.004-.005-3.006-.009-.349-.001-.78.08-1.1-.092.039.021.136.369.064.111-.057-.203,0-.509,0-.72.013-11.347.115-22.695.189-34.042.017-2.574-3.983-2.577-4,0-.072,10.967-.163,21.934-.187,32.901-.005,2.33.107,4.627,2.69,5.558,1.089.392,2.294.284,3.433.287,1.186.004,2.372.007,3.558.009,4.926.01,9.852.013,14.778.014,11.492,0,22.984-.013,34.477-.019,5.825-.003,11.649-.004,17.474,0,2.839.002,5.678.004,8.517.009,1.31.002,2.62.004,3.931.007,1.37.003,2.835.162,4.133-.356,1.436-.574,2.489-1.813,2.633-3.376.065-.707.026-1.429.026-2.139-.002-2.099-.005-4.198-.008-6.296-.01-6.722-.021-13.445-.031-20.167-.004-2.574-4.004-2.578-4,0h0Z"/></g></svg>