<svg xmlns="http://www.w3.org/2000/svg" width="372.477" height="421.006" viewBox="0 0 372.477 421.006" style="color: initial !important;"><defs><style>.a{fill:#ffffff;}.b{fill:#b3b3b3;}.c{fill:#89705d;}.d{fill:#211715;}.e{fill:#b5886a;}</style></defs><path class="a" d="M205.935,104.05h0c-10.417.794-19.917-1.7-25.248-7.017,0,0-3.219-4.053-5.641-7.106A22.423,22.423,0,0,0,173.111,77.9c-1.465-3.048-4.14-5.438-7.517-5.622a8.644,8.644,0,0,0-6.271,2.388,8.523,8.523,0,0,0-2.489,4.048c-.591.227-1.235.324-1.926.531a4.051,4.051,0,0,1-4.714-1.938c-3.663-6.724-10.567-12.262-16.237-14.879-4.08-1.883-7.387-2.12-12.5-2.272-9.99-.3-24.636.739-32.477,3.452a17.573,17.573,0,0,0,.206,2.159,74.323,74.323,0,0,0,2.922,13.051,63.2,63.2,0,0,0,5.519,12.662c3.615,7.713,8.653,18.408,3.6,25.686a7.908,7.908,0,0,0-1.587,4.868c.249,4.627,4.36,4.679,7.485,5.837a12.979,12.979,0,0,1,5.133,3.6c2.3,4,8.142,12.641,13.258,16.263,4.345,3.076,8.234,3.742,11.713,3.332,6.818-.8,15.072-4.024,19.475-7.98a2.823,2.823,0,0,1,3.735-.016c.85.737,7.72,5.9,10.838,11.606,0,0,2.623,4.723,4.811,8.669,4.248-6.454,9.731-13.841,15.394-21.371,5.79-7.7,11.768-15.543,16.812-22.694A28.08,28.08,0,0,1,205.935,104.05Z"/><path class="b" d="M212.61,55.479a48.329,48.329,0,0,0-2.976-9.465c-6.234-18.239-20.045-34.35-38.509-37.539-17.847-13.8-59.67-2.76-73.314,20.3-6.126,10.354-10.076,21.064-8.852,34.844,7.835-2.719,22.5-3.756,32.5-3.46,5.109.152,8.416.389,12.5,2.272,5.67,2.617,12.574,8.155,16.237,14.879a4.051,4.051,0,0,0,4.714,1.938c.691-.207,1.335-.3,1.926-.531a8.523,8.523,0,0,1,2.489-4.048,8.644,8.644,0,0,1,6.271-2.388c3.377.184,6.052,2.574,7.517,5.622a22.423,22.423,0,0,1,1.935,12.025c2.422,3.053,5.641,7.106,5.641,7.106,5.331,5.312,14.831,7.811,25.248,7.017a57.937,57.937,0,0,1,1.584-8.494c1.448-6.954,3-10.619,5.2-18.6C214.371,70.95,214.17,62.854,212.61,55.479Z"/><path class="c" d="M184.477,269.309c-3.065-10.885-9.56-55.6-10.59-64.473-.243-2.093-.452-4.105-.635-6.065l-1.693,2.187c-5.251,11.3-16.851,36.279-19.339,44.936-13.21,6.646-48.09,16.068-59.027,25.827-6.605,5.894,14.443,29.664,15.67,30.437l.722.455c10.866-3.88,57.883-14.239,62.493-18a95.885,95.885,0,0,0,11.6-13l1.333-.583C184.836,270.461,184.659,269.892,184.477,269.309Z"/><path class="d" d="M207.56,101.5c-8.454.877-18.754.117-25.176-6.165-2.21-2.161-5.607,1.23-3.394,3.394,7.338,7.179,18.8,8.585,28.57,7.571a2.469,2.469,0,0,0,2.4-2.4,2.415,2.415,0,0,0-2.4-2.4Z"/><path class="d" d="M117.188,138.279c4-1.411,8.207-3.942,9.867-8.047a2.407,2.407,0,0,0-.242-1.85,2.4,2.4,0,0,0-3.283-.861,2.8,2.8,0,0,0-1.1,1.435c-.112.276.314-.7.164-.391-.025.051-.048.1-.073.154-.048.1-.1.192-.153.286a7.591,7.591,0,0,1-.434.675c-.036.05-.141.146-.152.2.011-.064.454-.561.185-.244-.107.126-.212.253-.322.376a11.835,11.835,0,0,1-.853.853q-.23.208-.47.405c-.084.069-.171.135-.254.2.6-.507.232-.179.08-.068q-.622.454-1.287.847-.783.463-1.607.849c-.136.064-.274.127-.411.188-.07.032-.14.062-.211.093q-.252.108.227-.1a5.255,5.255,0,0,0-.944.358,2.4,2.4,0,0,0,1.276,4.629Z"/><path class="d" d="M89.8,79.459a65.357,65.357,0,0,0,2.988,7.8c1.151,2.53,2.549,4.93,3.713,7.452,1.966,4.262,4.028,8.857,4.4,13.592a12.217,12.217,0,0,1-.822,6.07c-.479,1.052-1.231,1.942-1.74,2.978a10.057,10.057,0,0,0-1.1,4.285,7.241,7.241,0,0,0,2.513,5.79,14.228,14.228,0,0,0,5.207,2.276,10.432,10.432,0,0,1,5.2,3.039,48.954,48.954,0,0,1,2.768,4.286,59.282,59.282,0,0,0,8.92,10.805c3.713,3.365,8.464,5.747,13.555,5.747,4.973,0,10.11-1.676,14.623-3.636a32.749,32.749,0,0,0,6.875-3.93c.665-.507,1.235-1.444,2.053-1.081-.335-.149.04.042.176.154.215.177.432.349.647.525,3.585,2.932,7.151,6.2,9.432,10.28,1.508,2.7,5.655.28,4.145-2.422a38.828,38.828,0,0,0-8.925-10.2,37.406,37.406,0,0,0-2.913-2.373,5.191,5.191,0,0,0-3.278-.9,6.365,6.365,0,0,0-3.721,1.826c-3.584,2.962-8.27,4.763-12.719,5.93-4.537,1.189-8.83,1.554-13.063-.816-3.886-2.176-6.873-5.759-9.5-9.288q-1.873-2.516-3.555-5.167c-.422-.667-.806-1.36-1.232-2.023a11.9,11.9,0,0,0-2.985-2.922,17.663,17.663,0,0,0-5.886-2.649,19.863,19.863,0,0,1-1.941-.645,2.345,2.345,0,0,1-1.293-1.048c-.929-1.8.369-3.78,1.365-5.435a15.243,15.243,0,0,0,2.033-7.042c.311-5.591-1.855-11.105-4.059-16.127-2.416-5.508-5.472-10.623-7.256-16.4-.907-2.943-5.542-1.688-4.628,1.276Z"/><path class="d" d="M94.426,78.183c-2.922-9.389-4.345-19.334-2.35-29.065a58.172,58.172,0,0,1,9.747-22.076c4.166-5.727,10.193-10.344,16.467-13.8A69.912,69.912,0,0,1,140.012,5.67a49.376,49.376,0,0,1,20.387.377,24.971,24.971,0,0,1,8.167,3.535,7.166,7.166,0,0,0,2.276,1.271c1.1.27,2.215.453,3.309.753a36.705,36.705,0,0,1,5.878,2.138A49.164,49.164,0,0,1,199.536,31a65.194,65.194,0,0,1,6.353,11.826,78.509,78.509,0,0,1,4.391,13.213,51.977,51.977,0,0,1,1.066,14.665c-.351,4.677-1.934,9.149-3.3,13.6-1.346,4.373-2.486,8.781-3.464,13.251a40.373,40.373,0,0,0-.692,15.837,28.489,28.489,0,0,0,2.82,8.045c1.422,2.743,5.566.319,4.145-2.423a26.834,26.834,0,0,1-2.392-16.075,95.736,95.736,0,0,1,3.2-14c1.369-4.686,3.18-9.352,4-14.175a50.448,50.448,0,0,0,.1-15.02,60.921,60.921,0,0,0-1.482-7.667c-.636-2.4-1.558-4.635-2.418-6.953a81.574,81.574,0,0,0-5.911-12.959,57.762,57.762,0,0,0-19.3-20.317,43.239,43.239,0,0,0-12.761-5.265,5.723,5.723,0,0,1-2.3-.746c-.65-.461-1.324-.887-2.016-1.281a31.654,31.654,0,0,0-4.589-2.106c-6.747-2.522-14.3-2.856-21.4-2.089-15.625,1.687-31.885,8.444-42.609,20.212-5.54,6.079-9.509,13.885-12.034,21.67a57.032,57.032,0,0,0-1.306,28.769A81.57,81.57,0,0,0,89.8,79.459c.915,2.94,5.55,1.685,4.628-1.276Z"/><path class="d" d="M115.062,104.954c.07-.064.142-.124.216-.183l-.485.375a6.649,6.649,0,0,1,1.477-.821l-.573.242a12.727,12.727,0,0,1,3.054-.821l-.638.085a8.109,8.109,0,0,1,2.023-.054l-.638-.086a3.229,3.229,0,0,1,.791.2l-.574-.242a1.876,1.876,0,0,1,.2.1,2.4,2.4,0,1,0,2.423-4.144c-1.672-.97-3.844-.723-5.649-.355a10.61,10.61,0,0,0-5.026,2.309,2.417,2.417,0,0,0,0,3.394,2.454,2.454,0,0,0,3.394,0Z"/><path class="d" d="M131.429,122.11c.209.066.413.141.615.225l-.573-.242a9.49,9.49,0,0,1,2.045,1.22l-.485-.375a11.432,11.432,0,0,1,1.993,1.988l-.376-.486a8.292,8.292,0,0,1,.639.96,2.4,2.4,0,0,0,3.284.861,2.448,2.448,0,0,0,.861-3.284,12.749,12.749,0,0,0-6.727-5.5,2.42,2.42,0,0,0-2.952,1.676,2.452,2.452,0,0,0,1.676,2.952Z"/><path class="d" d="M158.905,80.61c.47-3.276,3.147-6.212,6.689-5.929,3.249.259,5.178,3.328,6.125,6.129,2.373,7.023.624,14.858-3.767,20.7a2.416,2.416,0,0,0,.861,3.284,2.459,2.459,0,0,0,3.284-.861,27.788,27.788,0,0,0,5.075-21.111,18.148,18.148,0,0,0-4.5-9.686,10.489,10.489,0,0,0-10.36-2.855,11.318,11.318,0,0,0-8.038,9.052,2.48,2.48,0,0,0,1.676,2.952,2.418,2.418,0,0,0,2.952-1.676Z"/><path class="d" d="M121.461,62.559a27.819,27.819,0,0,1,10.4,1.565,31.591,31.591,0,0,1,8.361,5.128,33.167,33.167,0,0,1,7.3,8.235c1.055,1.75,2.036,3.2,4.041,3.94,1.868.693,3.648.24,5.5-.259,2.978-.806,1.714-5.438-1.276-4.629-1.126.3-2.428.914-3.339-.137a22.805,22.805,0,0,1-1.419-2.351c-.559-.841-1.165-1.649-1.789-2.444a40.845,40.845,0,0,0-7.951-7.57,34.321,34.321,0,0,0-8.859-4.806,32.868,32.868,0,0,0-10.97-1.472c-3.089-.007-3.094,4.793,0,4.8Z"/><path class="d" d="M101.447,60.532c-.022-.118-.043-.235-.065-.352-.109-.576.027.357,0,.018-.022-.267-.052-.533-.064-.8a12.191,12.191,0,0,1,.028-1.517,1.646,1.646,0,0,1,.043-.444c-.054.135-.068.426-.012.107.046-.265.093-.528.152-.79a12.768,12.768,0,0,1,.452-1.545c.04-.112.087-.222.126-.335.11-.319-.179.383-.035.078.114-.243.224-.487.348-.726a12.48,12.48,0,0,1,.83-1.377c.068-.1.138-.194.207-.29.263-.367-.187.208.009-.008.16-.176.307-.364.469-.539a12.331,12.331,0,0,1,1.238-1.159,2.407,2.407,0,0,0,0-3.394,2.467,2.467,0,0,0-3.394,0,15.019,15.019,0,0,0-4.959,14.35,2.413,2.413,0,0,0,2.952,1.676,2.462,2.462,0,0,0,1.676-2.952Z"/><path class="d" d="M110.562,60.99c.026-.067.285-.683.058-.161.079-.182.159-.364.242-.544q.209-.45.434-.892c.333-.646.695-1.278,1.086-1.891q.319-.5.663-.988c.1-.135.193-.268.292-.4.131-.177.252-.328.045-.067.473-.6.968-1.173,1.493-1.724q.752-.792,1.573-1.512c.273-.241.554-.471.835-.7.394-.322-.308.217.142-.11.134-.1.266-.2.4-.293a23.8,23.8,0,0,1,3.853-2.238,2.41,2.41,0,0,0,.861-3.284,2.468,2.468,0,0,0-3.284-.861,26.5,26.5,0,0,0-13.322,14.392,2.409,2.409,0,0,0,1.677,2.952,2.469,2.469,0,0,0,2.952-1.676Z"/><path class="c" d="M248.989,341.115c15.225-1.226,31-2.436,45.6-3.585,1.272-15.851,1.272-30.2.909-48.056-.86-22.734-6.484-57.947-12.881-81.556-4.1-15.119-13.655-38.258-24.23-52.881-8.5-11.542-39.233-39.347-48.037-38.7-11.411,16.628-29.078,37.916-37.555,52.262-1.63,11.085-1.185,21.852.593,35.852,1.126,8.867,8.107,53.5,11.29,64.354,4.153,12.869,7.332,22.406,8.722,27.306,1.956,11.982-.815,46.625,2.446,47.44,1.859.116,4.522.192,7.417.22"/><path class="e" d="M306.332,318.741c7.723,0,55.625-.023,63.826-.023V305.4c-8.2,0-56.1.023-63.826.023Z"/><path class="d" d="M306.22,307.827q11.341,0,22.684-.008l31.014-.012,10.24,0c3.089,0,3.094-4.8,0-4.8q-11.5,0-23.01.008l-30.922.012-10.006,0c-3.089,0-3.094,4.8,0,4.8Z"/><path class="d" d="M306.22,321.141q11.341,0,22.684-.008l31.014-.012q5.12,0,10.24,0c3.089,0,3.094-4.8,0-4.8q-11.5,0-23.01.008l-30.922.012-10.006,0c-3.089,0-3.094,4.8,0,4.8Z"/><path class="d" d="M346.25,325.757a12.824,12.824,0,0,0,.129,3.708,7.159,7.159,0,0,0,4.075,4.755,18.371,18.371,0,0,0,10.8.828c2.4-.472,4.858-1.749,5.973-4.032a11.582,11.582,0,0,0,.8-5.412,2.4,2.4,0,0,0-4.8,0c0,.513.041,1.025.038,1.539,0,.3-.026.587-.043.882-.028.5.143-.643.006-.079-.042.171-.072.343-.122.512-.037.127-.273.629-.058.221.229-.434-.075.13-.122.211s-.266.327-.25.387c-.052-.193.41-.444.113-.16-.089.086-.174.18-.26.27-.056.058-.153.106-.193.173-.129.22.5-.3.111-.085-.169.094-.325.214-.494.309-.089.049-.752.346-.438.223.38-.148-.173.053-.2.063q-.267.09-.539.164c-.263.072-.529.132-.8.185-.181.036-.362.066-.545.1-.387.061.348-.035-.063,0a23.72,23.72,0,0,1-2.584.114c-.4,0-.806-.02-1.208-.048-.207-.014-.413-.036-.619-.052-.079-.006-.483-.063-.056,0a11.291,11.291,0,0,1-1.869-.426c-.226-.074-.823-.426-.3-.1-.192-.12-.413-.2-.609-.319-.082-.049-.16-.1-.243-.152-.33-.191-.12.068.1.095-.137-.017-.368-.323-.468-.427-.053-.056-.1-.124-.161-.178-.289-.271.192.22.158.212-.084-.018-.254-.4-.3-.469-.327-.527.079.065.015.094-.007,0-.152-.442-.164-.483-.049-.174-.077-.351-.118-.527-.107-.456.033.7.017.079-.007-.3-.024-.6-.011-.9.018-.427.086-.85.1-1.276a2.4,2.4,0,0,0-4.8,0Z"/><path class="e" d="M183.361,317.782c-8,0-173.511.023-181.043.023V304.492c7.532,0,43.264-.023,51.262-.023l50.386-.913c7.532,0,71.254-.023,79.252-.023Z"/><path class="d" d="M100.147,305.956q14.563,0,29.128-.007l41.389-.013q6.24,0,12.481,0c3.088,0,3.093-4.8,0-4.8q-14.729,0-29.455.008l-41.3.013-12.246,0c-3.089,0-3.094,4.8,0,4.8Z"/><path class="d" d="M2.318,320.205l20.2,0,42.169,0,50.088-.007,43.94-.006,23.726,0h.838c3.089,0,3.094-4.8,0-4.8l-20.421,0-42.279,0L70.49,315.4l-43.842.006-23.524,0H2.318c-3.088,0-3.093,4.8,0,4.8Z"/><path class="d" d="M8.367,324.822a12.859,12.859,0,0,0,.13,3.708,7.15,7.15,0,0,0,4.075,4.754,18.363,18.363,0,0,0,10.8.828c2.4-.472,4.858-1.748,5.972-4.032a11.581,11.581,0,0,0,.8-5.411,2.4,2.4,0,0,0-4.8,0c0,.513.04,1.025.037,1.538,0,.3-.026.588-.043.883-.027.5.143-.643.006-.079-.041.17-.072.342-.121.511-.037.127-.274.63-.058.222.228-.435-.076.129-.122.211s-.266.327-.25.386c-.053-.193.41-.444.113-.159-.09.085-.175.18-.261.269-.055.058-.152.106-.192.174-.13.22.5-.3.11-.085-.168.094-.324.214-.494.308-.089.05-.751.346-.437.224.38-.149-.173.053-.2.063-.178.06-.358.114-.54.164-.262.071-.528.132-.795.185-.181.035-.363.065-.545.094-.388.061.347-.034-.064.006a23.47,23.47,0,0,1-2.584.113q-.6-.007-1.208-.047c-.207-.014-.412-.036-.619-.052-.079-.006-.483-.063-.056,0a11.193,11.193,0,0,1-1.869-.427c-.225-.073-.823-.425-.3-.1-.192-.121-.414-.2-.61-.319-.082-.049-.16-.105-.242-.152-.331-.191-.121.068.1.095-.138-.017-.368-.323-.468-.427-.054-.056-.105-.125-.162-.178-.289-.271.192.219.158.212-.084-.018-.254-.4-.3-.469-.328-.527.079.064.015.094-.008,0-.153-.442-.164-.484-.05-.174-.078-.35-.119-.526-.106-.456.033.7.018.079-.008-.3-.024-.6-.012-.9.018-.427.086-.85.1-1.276a2.4,2.4,0,0,0-4.8,0Z"/><path class="d" d="M129.328,324.51a12.859,12.859,0,0,0,.13,3.708,7.154,7.154,0,0,0,4.075,4.755,18.368,18.368,0,0,0,10.794.827c2.4-.472,4.859-1.748,5.973-4.031a11.573,11.573,0,0,0,.8-5.412,2.4,2.4,0,0,0-4.8,0c0,.513.041,1.025.038,1.539,0,.295-.026.587-.043.882-.028.5.143-.643.006-.079-.041.17-.072.343-.121.511-.037.128-.274.63-.059.222.229-.435-.075.13-.122.211s-.265.327-.249.387c-.053-.194.41-.445.112-.16-.089.086-.174.18-.26.269-.055.059-.152.106-.192.174-.13.22.5-.3.11-.085-.169.094-.324.214-.494.308-.089.05-.752.346-.437.224.38-.149-.173.053-.2.063-.178.06-.358.114-.539.164-.263.071-.528.132-.8.185-.18.035-.362.066-.544.094-.388.062.347-.034-.064.006a23.47,23.47,0,0,1-2.584.113q-.6-.006-1.208-.047c-.207-.014-.413-.036-.619-.052-.079-.006-.483-.063-.056,0a11.193,11.193,0,0,1-1.869-.427c-.225-.073-.823-.425-.3-.1-.191-.12-.413-.2-.609-.319-.082-.049-.16-.1-.243-.152-.33-.191-.12.068.1.1-.138-.017-.369-.323-.468-.427-.054-.056-.1-.125-.162-.178-.289-.271.192.219.158.212-.084-.018-.254-.4-.3-.469-.328-.527.079.065.015.094-.008,0-.153-.442-.165-.483-.049-.175-.077-.351-.118-.527-.106-.456.033.7.017.079-.007-.3-.024-.6-.011-.9.018-.427.086-.85.1-1.276a2.4,2.4,0,1,0-4.8,0Z"/><path class="a" d="M92.743,278.582l-.71.214c-2.5.626-4.715,1.757-9.032,3a92.653,92.653,0,0,1-13.081,2.512c-4.442.609-7.147.854-10.785,3.709q-4.29,3.368-8.6,6.714c-2.586,2.019-8.723,4.968-6.825,8.867,0,0,.139.287.39.8,3.518-.005,6.995-.008,10.1-.008-2.373,2.043-3.782,4.371-1.936,6.67,3.55,4.421,13.851-.271,17.322-2.507.855-.551,2.243-2.457,3-2.7,1.54-.487,3.959.782,5.613,1.163a40.11,40.11,0,0,0,10.873.83c6.146-.233,11.31-5.384,15.449-9.678l.537-.4C100.753,292.7,94.6,284.585,92.743,278.582Z"/><path class="a" d="M204.4,348.392l-.189.679c-.138,1.461-4.834,4.676-5.955,6.5-1.678,2.722-6.971,11.566-8.155,14.632-2.023,5.238-2.5,7.5-1.848,9.617,1.462,4.715,5.4,2.262,9.45.237-1.136,4.988-2.034,8.9-2.545,11.055-.8,3.376-3.24,9.068-3.938,12.367a4.763,4.763,0,0,0,2.528,4.487c1.583.567,5.1,0,6.31-1.67l.623-.858c-.721,2.119-1.435,4.044-1.919,5.2l-.011.027-.139.233c-1.8,3.038-.983,5.5.572,6.717,2.067,1.614,5.346,1.395,7.273-1.61a58.286,58.286,0,0,0,2.67-5.884l.065-.163-.094.54c-.381,2.188.616,4.344,2.336,4.984,2.4.893,4.68.163,6.227-2.962.6-.968,2.3-6.433,3.365-10.215l.286.08a3.142,3.142,0,0,0,3.44,2.829c1.5.025,5.448-.111,6.573-5.268.831-3.808,1.911-7.61,2.874-12.553.619-3.171,1.421-5.637,1.857-9.122.989-7.916-.178-16.286,1.955-23.99l.019-.077C228.43,352.859,215.278,351.12,204.4,348.392Z"/><path class="d" d="M199.958,341.322c-.742-.02-1.485-.043-2.227-.074q-.495-.021-.988-.046c-.251-.013-.8-.238-.3.021.114.06.918.549.757.393.234.228.355.539.147.123-.057-.113.173.615.039.062-.043-.179-.105-.354-.15-.533-.11-.443-.177-.893-.251-1.342-.087-.525.051.448.011.087-.015-.139-.033-.278-.048-.417-.033-.3-.062-.6-.088-.893-.058-.667-.1-1.334-.137-2-.085-1.578-.127-3.158-.153-4.737-.129-7.76.085-15.522-.015-23.282-.042-3.327-.115-6.664-.43-9.978a43.61,43.61,0,0,0-2.2-9.107c-1.466-4.629-2.98-9.243-4.48-13.861-1.184-3.646-2.457-7.262-3.331-11-3.313-14.171-5.468-28.663-7.74-43.029-.883-5.585-1.751-11.174-2.52-16.776.116.85.017.134-.008-.068-.039-.3-.078-.605-.116-.907q-.3-2.391-.56-4.788c-.319-2.966-.581-5.939-.755-8.917a111.214,111.214,0,0,1,.147-16.183c.109-1.239.239-2.477.4-3.71a3.566,3.566,0,0,1,.222-1.066,14.005,14.005,0,0,1,.971-1.589c1.185-1.907,2.421-3.781,3.684-5.637,2.871-4.22,5.877-8.347,8.916-12.446,6.417-8.657,13.022-17.176,19.329-25.915q2.2-3.054,4.342-6.155l-2.073,1.189a2.6,2.6,0,0,1,.5-.008c.089.013.7.06.222.005s.207.044.326.069c.233.05.464.111.693.176.407.117.807.256,1.2.407l.317.125c.537.207-.344-.155,0,0,.255.115.51.228.762.348a52.228,52.228,0,0,1,6.838,4.044,155.2,155.2,0,0,1,16.064,12.8,197.462,197.462,0,0,1,14.557,14.231c.916,1,1.816,2.02,2.689,3.059q.563.669,1.108,1.352l.3.379c-.049-.062-.3-.389-.034-.043q.322.425.634.857a114.424,114.424,0,0,1,7.029,11.232,192.864,192.864,0,0,1,18.858,49.093,433.022,433.022,0,0,1,9.385,55.215c.948,9.068,1.359,18.1,1.463,27.216.117,10.284.031,20.572-.561,30.842q-.213,3.7-.509,7.393l2.4-2.4q-22.8,1.8-45.6,3.58a2.461,2.461,0,0,0-2.4,2.4,2.419,2.419,0,0,0,2.4,2.4q22.8-1.825,45.6-3.58a2.475,2.475,0,0,0,2.4-2.4c.884-11.123,1.164-22.275,1.11-33.43-.049-10.145-.323-20.223-1.33-30.322a433.768,433.768,0,0,0-10.249-60.337,190.571,190.571,0,0,0-8.51-26.28,179.9,179.9,0,0,0-13.766-27.685,93.719,93.719,0,0,0-12.961-16.084,219.249,219.249,0,0,0-17.238-15.751c-5.209-4.275-10.667-8.649-16.728-11.67a15.873,15.873,0,0,0-6.527-2.041,3.062,3.062,0,0,0-2.822,1.648q-1.056,1.532-2.132,3.048-2.143,3.025-4.343,6.01c-6.194,8.433-12.6,16.707-18.791,25.143-2.8,3.817-5.561,7.665-8.184,11.607-1.171,1.761-2.315,3.541-3.4,5.354a9.064,9.064,0,0,0-.981,3.814q-.233,1.851-.39,3.71c-1.33,15.586,1.253,31.2,3.66,46.56,2.223,14.2,4.451,28.443,7.477,42.5,1.621,7.528,4.292,14.769,6.66,22.087,1.129,3.488,2.269,6.974,3.3,10.493.082.28.183.563.245.849.035.159.154,1.1.072.449.081.642.148,1.286.2,1.931.135,1.546.216,3.1.275,4.646.278,7.376.105,14.765.095,22.145,0,3.338,0,6.68.151,10.016a29.4,29.4,0,0,0,.811,6.938,5.023,5.023,0,0,0,1.192,2.222c1.459,1.413,4.227.975,6.073,1.025,3.09.083,3.088-4.717,0-4.8Z"/><path class="d" d="M168.944,199.393c-5.644,12.5-11.366,25-16.326,37.8-1.01,2.6-2.015,5.227-2.765,7.919l1.1-1.434c-6.124,3.147-12.626,5.388-19.234,7.873-8.049,3.028-16.122,6.029-23.971,9.554a98.1,98.1,0,0,0-9.793,4.956,43.581,43.581,0,0,0-3.919,2.583,13.069,13.069,0,0,0-3.183,2.921c-3,4.452.579,10.876,2.9,14.791a97.752,97.752,0,0,0,10.879,14.585,30.832,30.832,0,0,0,2.992,3.161,5.464,5.464,0,0,0,1.89,1.142,3.635,3.635,0,0,0,2.256-.348c.972-.333,1.952-.641,2.934-.941,12.655-3.87,25.551-6.943,38.291-10.514,5.455-1.529,10.965-3.028,16.268-5.035a18.792,18.792,0,0,0,4.293-2,21.251,21.251,0,0,0,2.8-2.609q2.34-2.412,4.522-4.972c1.789-2.091,3.5-4.252,5.1-6.49a2.419,2.419,0,0,0-.861-3.284,2.452,2.452,0,0,0-3.283.861,92.4,92.4,0,0,1-8.459,10.06c-.818.854-1.685,1.654-2.517,2.491-.384.386.6-.328-.063.029-.234.125-.458.264-.7.384-.274.14-.556.261-.834.392-.531.249.289-.114-.033.017-.2.08-.4.162-.6.241-.857.338-1.723.65-2.594.951-2.243.776-4.513,1.478-6.787,2.16-11.8,3.535-23.761,6.539-35.645,9.787-4.715,1.289-9.5,2.5-14.094,4.189l1.849.242c-.1-.064-.656-.493-.737-.454a1.31,1.31,0,0,0,.359.277c-.057-.108-.235-.21-.321-.3-.351-.354-.7-.708-1.041-1.072-1.129-1.207-2.215-2.455-3.278-3.72a88.433,88.433,0,0,1-7.865-10.7c-.6-.972-1.176-1.959-1.71-2.968-.234-.444-.462-.892-.678-1.346-.113-.235-.219-.473-.329-.71-.046-.1-.089-.2-.133-.3.136.314.018.048-.047-.12a18.9,18.9,0,0,1-.818-2.538c-.047-.2-.079-.411-.126-.615-.129-.556,0,.3-.021-.122-.018-.37-.023-.735-.028-1.106-.008-.536-.019.014-.011-.019.041-.155.086-.324.111-.481.053-.328.1-.245-.055.06.08-.154.185-.315.253-.473.14-.326-.375.316-.008,0,.136-.116.261-.26.393-.381.366-.334.752-.649,1.142-.955-.316.248.232-.172.323-.238q.282-.209.569-.409.752-.528,1.526-1.021c1.046-.668,2.119-1.295,3.2-1.9,10.618-5.87,22.284-9.8,33.6-14.073,5.093-1.923,10.207-3.84,15.157-6.112a10.756,10.756,0,0,0,3.07-1.627c.753-.753.941-2.192,1.271-3.188.719-2.175,1.534-4.319,2.369-6.452,4.344-11.1,9.269-21.976,14.164-32.84q.709-1.575,1.421-3.149a2.474,2.474,0,0,0-.861-3.283,2.418,2.418,0,0,0-3.284.861Z"/><path class="d" d="M293.7,345.023c0,3.186.119,6.373.013,9.559-.025.761-.063,1.522-.123,2.282-.055.689-.115,1.3-.2,1.821-.106.678-.238,1.352-.41,2.017q-.129.507-.292,1c-.027.084-.338.913-.2.6a2.482,2.482,0,0,0,.861,3.284,2.418,2.418,0,0,0,3.284-.861c2.628-6.148,1.86-13.184,1.868-19.7,0-3.089-4.8-3.094-4.8,0Z"/><path class="c" d="M210.968,262.207c.394-2.384.469-9.858-1.711-13.139-1.283-4.423-7.589-16.649-9.321-21.156-8.683-22.586-7.205-58.544,15.191-63.949,28.783-6.947,38.27,19.666,44.5,43.653,1.571,6.052,5.929,21.518,7.344,26.654,1.247,6.563,3.523,12.875,2.913,20.191-.465,5.579-4.346,15.365-5.953,20.2-2.685,9.105-4.909,20.038-7.9,34.963-2.891,14.451-10.623,38.173-13.515,45.217-10.929-1.62-29.842-3.768-43.119-7.823,1.056-6.458,1.823-9.951,2.564-12.816C205.172,313.13,208.182,282.4,210.968,262.207Z"/><path class="d" d="M213.282,262.845a29.671,29.671,0,0,0,.153-7.366,25.292,25.292,0,0,0-.76-4.475,14.834,14.834,0,0,0-.724-1.969,8.049,8.049,0,0,0-.355-.737c-.249-.437.029.187-.155-.289-1.873-4.861-4.07-9.558-6.283-14.274-.535-1.14-1.069-2.281-1.592-3.427q-.355-.777-.7-1.557c-.1-.217-.19-.433-.283-.651-.113-.262.011.028.028.069-.053-.126-.1-.251-.156-.377a64.027,64.027,0,0,1-2.3-6.924,76.671,76.671,0,0,1-2.581-15.394c-.633-9.8.273-20.459,5.149-28.949a21.387,21.387,0,0,1,8.613-8.617,14.728,14.728,0,0,1,2.757-1.159,33.786,33.786,0,0,1,12.019-1.431,23.213,23.213,0,0,1,12.328,4.717,35.465,35.465,0,0,1,8.888,10.78c5.154,9.053,7.789,19.239,10.457,29.234,1.4,5.253,2.869,10.488,4.329,15.725q.976,3.508,1.955,7.017c.78,2.805,1.347,5.663,2,8.5a46.911,46.911,0,0,1,1.514,11.05,31.176,31.176,0,0,1-1.523,8.527c-1.594,5.456-3.808,10.706-5.3,16.189-3.476,12.742-5.395,25.823-8.548,38.635a349.682,349.682,0,0,1-10.155,33.6c-.587,1.648-1.186,3.293-1.848,4.912l2.953-1.676c-14.421-2.131-29.117-3.579-43.119-7.823l1.677,2.952c.458-2.793.943-5.583,1.523-8.354.408-1.948.954-3.867,1.247-5.835.831-5.577,1.567-11.167,2.272-16.762,1.507-11.964,2.845-23.949,4.269-35.924.711-5.983,1.434-11.965,2.255-17.934a2.482,2.482,0,0,0-1.676-2.952,2.417,2.417,0,0,0-2.952,1.676c-3.137,22.8-5.2,45.735-8.488,68.514-.79,5.467-2.182,10.836-3.079,16.295a2.47,2.47,0,0,0,1.676,2.953c14,4.243,28.7,5.692,43.119,7.822a2.508,2.508,0,0,0,2.952-1.676,276.687,276.687,0,0,0,9.917-30.586c3.636-13.079,5.755-26.486,8.89-39.684.681-2.868,1.407-5.725,2.214-8.56.743-2.614,1.728-5.153,2.623-7.718,2.16-6.19,4.274-12.463,3.835-19.11a73.4,73.4,0,0,0-2.06-11.717c-.594-2.562-1.143-5.11-1.848-7.644-1.5-5.4-3.017-10.8-4.5-16.208-2.842-10.347-5.3-20.822-9.771-30.628-4.213-9.245-10.624-18.061-20.532-21.6a32.432,32.432,0,0,0-16.775-.874,25.48,25.48,0,0,0-13.265,6.5c-7.391,7.059-10.068,17.843-10.77,27.7a78.708,78.708,0,0,0,4.481,32.256c1.785,4.875,4.226,9.514,6.4,14.222,1.063,2.3,2.024,4.345,2.847,6.6.816,2.234,1.729,3.95,2.048,6.389a30.415,30.415,0,0,1,.219,4.148c0,.542-.019,1.085-.052,1.626-.016.266-.043.53-.061.8-.041.592.036-.163-.017.18a2.476,2.476,0,0,0,1.676,2.952A2.418,2.418,0,0,0,213.282,262.845Z"/><path class="d" d="M201.893,348.434c-.068.384.064-.167.111-.161,0,0-.157.277-.184.311.28-.358-.242.278-.355.4-.6.641-1.259,1.227-1.908,1.817a19.442,19.442,0,0,0-3.378,3.555c-1.673,2.549-3.163,5.248-4.667,7.9a59.436,59.436,0,0,0-4.38,9.038c-1.139,3.137-2.24,6.6-.942,9.859a5.478,5.478,0,0,0,4.984,3.773c2.232.05,4.375-1.1,6.31-2.074,2.759-1.391.332-5.533-2.423-4.145-.675.341-1.351.694-2.056.972a6.376,6.376,0,0,1-1.706.45c-.477.011-.217,0-.09.013-.212-.029-.228-.175-.091-.006-.3-.373.032.148-.165-.128a3.962,3.962,0,0,1-.573-1.583c.11.576,0-.224,0-.368,0-.258.012-.514.033-.771.031-.394-.059.337.006-.082.02-.128.044-.256.069-.383.083-.427.188-.85.3-1.27.22-.807.485-1.6.764-2.392q.252-.716.52-1.425c.112-.3.23-.595.341-.894.154-.412-.138.3,0,0a85.226,85.226,0,0,1,4.061-7.58q1.146-1.984,2.324-3.952.472-.789.949-1.575c.12-.2.24-.4.361-.592.057-.093.487-.738.208-.371a28.646,28.646,0,0,1,3.434-3.3c1.066-.994,2.51-2.245,2.776-3.758a2.469,2.469,0,0,0-1.676-2.953,2.42,2.42,0,0,0-2.952,1.677Z"/><path class="d" d="M196.971,370.265c-.671,3.5-1.1,7.013-1.892,10.491-.73,3.205-1.443,6.415-2.215,9.61-.792,3.282-2.128,6.413-3.164,9.621a10.536,10.536,0,0,0-.821,4.956,7.494,7.494,0,0,0,2.469,4.315c2.752,2.322,8.179,1.494,10.4-1.269a2.473,2.473,0,0,0,0-3.394,2.418,2.418,0,0,0-3.394,0,4.154,4.154,0,0,1-3.41,1.174c-.207-.01-.374-.092-.227.02a2.423,2.423,0,0,1-.633-.57,3.755,3.755,0,0,1-.359-.649c-.019-.046-.188-.9-.2-.457a9.506,9.506,0,0,1,.641-2.358c.286-.916.6-1.824.914-2.73.642-1.838,1.321-3.665,1.894-5.525,1.021-3.313,1.656-6.773,2.427-10.149.9-3.922,1.436-7.867,2.193-11.81a2.463,2.463,0,0,0-1.676-2.952,2.423,2.423,0,0,0-2.953,1.676Z"/><path class="d" d="M206.78,409.853a7.769,7.769,0,0,0,.306,4.182,6.359,6.359,0,0,0,2.727,3.326,6.84,6.84,0,0,0,6.982-.191,9.114,9.114,0,0,0,2.934-3.445,2.4,2.4,0,1,0-4.145-2.423c-.12.238-.245.473-.383.7-.084.139-.26.543-.41.613.089-.042.373-.46.1-.141-.066.077-.132.152-.2.225-.145.154-.313.284-.459.435-.169.175.523-.361.184-.141-.075.048-.146.1-.221.146a4.8,4.8,0,0,0-.5.267c0-.044.651-.236.247-.113-.079.025-.156.052-.236.074a4.25,4.25,0,0,1-.58.115l.638-.085a4.809,4.809,0,0,1-1.1-.009l.638.086a7.461,7.461,0,0,1-1.133-.277c-.405-.125.509.269.162.07-.1-.056-.194-.113-.291-.167-.328-.182.36.337.17.143-.078-.08-.17-.148-.25-.228s-.128-.141-.193-.21c-.292-.309.308.488.1.115-.108-.19-.219-.375-.319-.57-.131-.254.205.559.079.18-.039-.118-.079-.234-.112-.354a5.544,5.544,0,0,1-.147-.745l.085.638a5.933,5.933,0,0,1,0-1.312l-.086.638c.011-.09.025-.179.04-.268a2.611,2.611,0,0,0-.242-1.849,2.4,2.4,0,0,0-4.386.573Z"/><path class="d" d="M196.536,409.68a8.783,8.783,0,0,0-1.339,4.892,6.911,6.911,0,0,0,1.771,4.253,7.05,7.05,0,0,0,7.407,1.787,8.372,8.372,0,0,0,4.15-3.4,2.419,2.419,0,0,0-.861-3.284,2.454,2.454,0,0,0-3.283.861c-.089.135-.195.264-.278.4.38-.629.155-.2.007-.034a5.882,5.882,0,0,1-.553.541c-.448.383.4-.263.069-.052-.087.055-.17.115-.258.169a5.163,5.163,0,0,1-.707.36l.574-.242a5.1,5.1,0,0,1-1.188.319l.638-.086a4.933,4.933,0,0,1-1.279-.007l.638.086a5.1,5.1,0,0,1-1.131-.31l.573.242a5.078,5.078,0,0,1-.684-.352,2.806,2.806,0,0,0-.338-.231s.493.41.278.209c-.054-.05-.11-.1-.163-.147-.086-.081-.168-.166-.247-.255a1.425,1.425,0,0,0-.144-.172c.008.006.37.521.214.267a5.957,5.957,0,0,1-.4-.731l.242.573a4.665,4.665,0,0,1-.307-1.141l.086.638a5.366,5.366,0,0,1,.012-1.31l-.085.638a6.864,6.864,0,0,1,.444-1.583l-.242.573a9.513,9.513,0,0,1,.53-1.047,2.4,2.4,0,1,0-4.145-2.423Z"/><path class="d" d="M235.693,353.636c-2.38,8.87-.651,18.133-2.465,27.062-.825,4.06-1.725,8.126-2.69,12.154-.456,1.9-.936,3.8-1.367,5.711-.3,1.337-.7,2.785-1.556,3.484a8.512,8.512,0,0,1-.751.448c.375-.187-.311.1-.435.138a7.479,7.479,0,0,1-.77.165c.516-.087.014-.011-.224,0a4.433,4.433,0,0,1-1.268-.064c-.674-.171-.233-.1-.176-.066.23.123-.162-.179-.1-.078a3.719,3.719,0,0,1-.271-.85c-.674-3.014-5.3-1.738-4.628,1.276.874,3.906,4.474,5.032,8.035,4.395,3.711-.664,5.9-3.7,6.688-7.2,2.087-9.229,4.859-18.439,5.158-27.949.182-5.805-.073-11.686,1.446-17.347.8-2.987-3.827-4.261-4.628-1.276Z"/><path class="d" d="M222.08,385.385c-.954,4.822-1.65,9.728-2.887,14.49-.59,2.269-1.261,4.52-1.962,6.757-.327,1.042-.661,2.083-1.024,3.114-.138.394-.286.785-.432,1.176-.192.514.239-.451-.025.06-.055.107-.1.216-.166.32-1.559,2.674,2.588,5.093,4.145,2.423a26.8,26.8,0,0,0,2-5.392c.731-2.307,1.424-4.63,2.041-6.97,1.272-4.828,1.974-9.808,2.943-14.7a2.463,2.463,0,0,0-1.677-2.953,2.423,2.423,0,0,0-2.952,1.677Z"/><path class="d" d="M213.406,384.261c-1.059,5.1-2.315,10.164-3.377,15.267a58.622,58.622,0,0,1-5.648,15.259c-1.453,2.725,2.689,5.153,4.144,2.423,5.23-9.81,7.274-20.9,9.51-31.673.625-3.014-4-4.3-4.629-1.276Z"/><path class="d" d="M204.607,381.952c-.9,5.305-2.776,10.448-4.065,15.664a86.682,86.682,0,0,1-4.1,12.377,2.413,2.413,0,0,0,1.676,2.952,2.46,2.46,0,0,0,2.952-1.676,86.812,86.812,0,0,0,4.1-12.377c1.29-5.215,3.168-10.359,4.065-15.664a2.472,2.472,0,0,0-1.677-2.952,2.42,2.42,0,0,0-2.952,1.676Z"/><path class="d" d="M91.4,276.482c-3.688.953-7.168,2.562-10.875,3.493-4.647,1.167-9.388,1.668-14.109,2.424a19.832,19.832,0,0,0-5.268,1.541,28.693,28.693,0,0,0-5.461,3.754c-3.181,2.488-6.38,4.9-9.653,7.263-3.314,2.387-6.289,5.558-4.388,9.85a2.417,2.417,0,0,0,3.284.861,2.46,2.46,0,0,0,.861-3.284,1.324,1.324,0,0,1-.028-.206c-.023-.246-.023-.063-.038.023a2.634,2.634,0,0,1,.123-.479c-.1.251.207-.362.271-.46a4,4,0,0,1,.4-.49A17.967,17.967,0,0,1,49.7,298.24c3.319-2.253,6.418-4.834,9.576-7.305a19.841,19.841,0,0,1,4.342-2.873,18.971,18.971,0,0,1,4.612-1.118c4.31-.644,8.632-1.157,12.878-2.171,3.955-.945,7.647-2.649,11.568-3.662,2.988-.773,1.722-5.4-1.276-4.629Z"/><path class="d" d="M78.274,289.506a36.5,36.5,0,0,1-6.21,1.215,13.763,13.763,0,0,0-5.951,2.493c-1.509,1.124-2.861,2.48-4.427,3.522-.813.541-1.68,1-2.526,1.486-4.007,2.291-11.387,6.212-9.986,11.933.773,3.159,3.778,4.807,6.806,5.093,3.15.3,6.448-.716,9.333-1.889a20.287,20.287,0,0,0,7.287-4.343c.252-.261.5-.524.759-.779.663-.654.1-.1.106-.131.133-.479.621.76-.3.047a6.48,6.48,0,0,0,.846.083c.538.126,1.063.3,1.587.478a30.068,30.068,0,0,0,6.215,1.328c4.744.55,9.661.54,14.008-1.636,4.028-2.017,7.306-5.333,10.4-8.537,2.145-2.224-1.244-5.623-3.394-3.4a42.776,42.776,0,0,1-7.769,6.85,14.145,14.145,0,0,1-4.589,1.953,23.235,23.235,0,0,1-5.523.195,29.752,29.752,0,0,1-6.106-.767,38.821,38.821,0,0,0-4.721-1.293,4.958,4.958,0,0,0-4.366,1.642,9.486,9.486,0,0,1-2.446,2.068,28.684,28.684,0,0,1-7.141,2.9,12,12,0,0,1-3.64.457,4,4,0,0,1-1.428-.259,2.6,2.6,0,0,1-.8-.5c-.282-.274-.012.037-.235-.267a2.663,2.663,0,0,1-.221-.386c.029.06.186.276.046.091a.905.905,0,0,1-.08-.289c.091.5.02.195.016.062a1.446,1.446,0,0,1,.007-.287c.059-.35-.1.415,0,.066.047-.168.253-.675.065-.275a6.426,6.426,0,0,1,.371-.651c.059-.094.124-.186.189-.276-.029.04-.2.246-.019.031a9.674,9.674,0,0,1,.657-.716,26.94,26.94,0,0,1,5.744-4.035c.961-.557,1.943-1.085,2.888-1.67a37.474,37.474,0,0,0,4.03-3.135,11.06,11.06,0,0,1,5.17-2.567c2.219-.433,4.484-.519,6.629-1.292a2.462,2.462,0,0,0,1.676-2.952,2.42,2.42,0,0,0-2.952-1.676Z"/><path class="d" d="M2.318,306.892q20.857,0,41.714-.021l8.48,0c3.088,0,3.094-4.8,0-4.8q-20.974,0-41.948.02-4.123,0-8.246,0c-3.088,0-3.093,4.8,0,4.8Z"/></svg>