<svg xmlns="http://www.w3.org/2000/svg" width="372.477" height="419.336" viewBox="0 0 372.477 419.336" style="color: initial !important;"><defs><style>.a{fill:#ffffff;}.b{fill:#b3b3b3;}.c{fill:#211715;}.d{fill:#a095c1;}.e{fill:#b5886a;}</style></defs><path class="a" d="M171.609,153.508l4.887,8.951,0,0c8.224-13.381,20.848-29.948,31.375-45.127a26.791,26.791,0,0,1-2.05-11.095s-.132-1.1-.528-2.93c-10.06.625-19.183-1.852-24.353-7,0,0-5.681-6.236-5.586-7.185a22.211,22.211,0,0,0-1.932-11.8c-1.454-3.024-4.108-5.4-7.459-5.578a8.575,8.575,0,0,0-6.223,2.37,10.36,10.36,0,0,0-1.633,2.014c-13.373-1.187-25.6-4.284-34.881-9.639-1.461.568-2.8,1.093-2.8,1.093-6.736,2.263-20.741,1.688-26.987-2.7l-3.583-2.519c0-.046,0-.09-.007-.135a4.4,4.4,0,0,0,.087,1.081,71.44,71.44,0,0,0,3.113,14.928A62.729,62.729,0,0,0,98.524,90.8c3.587,7.654,8.587,18.267,3.573,25.489a7.844,7.844,0,0,0-1.574,4.83c.246,4.592,4.326,4.644,7.426,5.793a12.883,12.883,0,0,1,5.095,3.571c2.278,3.971,8.079,12.545,13.155,16.138,4.312,3.052,8.171,3.714,11.623,3.307,6.766-.8,14.957-3.994,19.326-7.919a2.8,2.8,0,0,1,3.707-.016C161.7,142.723,168.515,147.842,171.609,153.508Z"/><path class="b" d="M201.144,28.768a68.062,68.062,0,0,1,8.523,16.911c3.925,8.86,5.456,22,3.06,30.7-2.181,7.921-3.722,11.557-5.159,18.458A57.39,57.39,0,0,0,206,103.27c-10.337.788-19.764-1.693-25.054-6.963,0,0-5.681-6.236-5.586-7.185a22.211,22.211,0,0,0-1.932-11.8c-1.454-3.024-4.108-5.4-7.459-5.578a8.575,8.575,0,0,0-6.223,2.37,10.36,10.36,0,0,0-1.633,2.014c-13.373-1.187-25.6-4.284-34.881-9.639-1.461.568-2.8,1.093-2.8,1.093-6.736,2.263-20.741,1.688-26.987-2.7l-3.583-2.519c-1-13.3,2.887-23.711,8.849-33.787C112.242,5.689,153.743-5.27,171.454,8.428,183.7,10.543,193.889,18.39,201.144,28.768Z"/><path class="c" d="M207.609,100.722c-8.386.87-18.6.118-24.97-6.112-2.21-2.161-5.607,1.23-3.394,3.394,7.287,7.126,18.664,8.524,28.364,7.518a2.469,2.469,0,0,0,2.4-2.4,2.416,2.416,0,0,0-2.4-2.4Z"/><path class="c" d="M117.936,137.253c3.981-1.4,8.153-3.918,9.8-8a2.4,2.4,0,0,0-.242-1.849,2.4,2.4,0,0,0-3.284-.861,2.807,2.807,0,0,0-1.1,1.434c-.111.276.315-.7.165-.392-.025.051-.048.1-.073.153-.047.1-.1.19-.151.284a7.325,7.325,0,0,1-.431.669c-.039.055-.135.141-.15.2.016-.065.452-.56.186-.246-.106.125-.21.251-.32.373a11.458,11.458,0,0,1-.846.847c-.152.137-.308.271-.466.4-.083.068-.17.133-.252.2.606-.508.235-.182.083-.07q-.618.45-1.278.84c-.517.307-1.05.587-1.594.843-.136.064-.272.126-.408.187l-.209.091c-.169.073-.092.04.229-.1a6.078,6.078,0,0,0-.936.356,2.4,2.4,0,1,0,1.276,4.629Z"/><path class="c" d="M90.733,78.871A64.949,64.949,0,0,0,93.7,86.614c1.142,2.511,2.529,4.892,3.685,7.395,1.924,4.17,3.942,8.663,4.353,13.292a12.322,12.322,0,0,1-.8,6.2c-.491,1.086-1.269,2-1.784,3.076a9.719,9.719,0,0,0-1.036,4.324,7.2,7.2,0,0,0,2.858,5.856,15.471,15.471,0,0,0,5.036,2.047,10.02,10.02,0,0,1,5.07,3.081c1.087,1.377,1.893,3.08,2.891,4.534a56.4,56.4,0,0,0,8.815,10.528c3.691,3.258,8.383,5.543,13.385,5.487,5.021-.057,10.174-1.757,14.719-3.771a32.088,32.088,0,0,0,6.7-3.927c.647-.5,1.019-1.2,1.776-.885-.356-.147.025.029.171.15.238.2.48.388.719.584,3.528,2.891,7.033,6.115,9.279,10.134,1.508,2.7,5.655.279,4.145-2.422a38.369,38.369,0,0,0-8.757-10.039c-.929-.8-1.869-1.615-2.858-2.34a5.142,5.142,0,0,0-3.4-1,6.354,6.354,0,0,0-3.7,1.817c-3.5,2.9-8.074,4.668-12.419,5.828-4.365,1.166-8.617,1.652-12.753-.544-3.935-2.089-6.945-5.609-9.59-9.128q-1.891-2.517-3.589-5.172a17.576,17.576,0,0,0-3.865-4.789,16.86,16.86,0,0,0-5.989-2.908c-.622-.178-1.692-.481-2.021-.621a5.028,5.028,0,0,1-1.131-.635c.111.088.168.162-.1-.119-.377-.4.016.155-.261-.343-1.034-1.859.441-3.9,1.417-5.583a15.249,15.249,0,0,0,1.929-6.84c.311-5.616-1.887-11.151-4.109-16.192-2.381-5.4-5.369-10.42-7.119-16.095-.908-2.943-5.543-1.687-4.629,1.276Z"/><path class="c" d="M112.652,61.411c11.283,11.449,28.41,15.378,43.846,16.965a2.417,2.417,0,0,0,2.4-2.4,2.454,2.454,0,0,0-2.4-2.4c-14.143-1.454-30.111-5.066-40.451-15.559-2.172-2.2-5.566,1.191-3.395,3.394Z"/><path class="c" d="M95.362,77.6c-2.9-9.324-4.314-19.2-2.326-28.865a57.582,57.582,0,0,1,9.761-22c4.188-5.7,10.252-10.3,16.542-13.719A69.425,69.425,0,0,1,140.78,5.629a48.583,48.583,0,0,1,20.2.452A24.585,24.585,0,0,1,168.994,9.6a6.052,6.052,0,0,0,2.352,1.236q1.665.312,3.3.768a36.535,36.535,0,0,1,5.854,2.17,48.885,48.885,0,0,1,19.168,17.073,64.6,64.6,0,0,1,6.325,11.822,77.275,77.275,0,0,1,4.378,13.35,51.439,51.439,0,0,1,.976,14.161c-.348,4.639-1.919,9.075-3.278,13.5-1.34,4.354-2.477,8.743-3.447,13.194a39.915,39.915,0,0,0-.662,15.769,28.348,28.348,0,0,0,2.785,7.9c1.422,2.744,5.566.319,4.145-2.422A26.586,26.586,0,0,1,208.5,102.3a93.361,93.361,0,0,1,3.236-14.186c1.348-4.593,3.117-9.172,3.916-13.9a50.079,50.079,0,0,0,.1-14.91,60.42,60.42,0,0,0-1.471-7.613,71.692,71.692,0,0,0-2.4-6.9,83.355,83.355,0,0,0-5.817-12.776,57.517,57.517,0,0,0-18.977-20.108A43.167,43.167,0,0,0,174.545,6.62a7.553,7.553,0,0,1-2.447-.689c-.651-.458-1.311-.9-2-1.3A31.146,31.146,0,0,0,165.534,2.5c-6.671-2.542-14.161-2.9-21.2-2.166-15.525,1.621-31.679,8.3-42.38,19.936-5.549,6.033-9.514,13.8-12.047,21.551a56.564,56.564,0,0,0-1.355,28.553,81.179,81.179,0,0,0,2.182,8.494c.915,2.94,5.55,1.686,4.629-1.276Z"/><path class="c" d="M92.225,66.95c4.119,2.829,9.471,3.752,14.349,4.161A37.351,37.351,0,0,0,121.062,69.9c2.923-.957,1.671-5.593-1.276-4.629a33.337,33.337,0,0,1-12.867,1.071c-4.224-.321-8.78-1.136-12.271-3.533-2.553-1.753-4.956,2.405-2.423,4.144Z"/><path class="c" d="M115.834,104.179c.07-.063.141-.124.215-.182l-.486.375a6.653,6.653,0,0,1,1.466-.815l-.573.242a12.662,12.662,0,0,1,3.031-.814l-.638.085a8.075,8.075,0,0,1,2.007-.054l-.638-.086a3.226,3.226,0,0,1,.785.2l-.574-.242c.07.031.137.065.2.1a2.4,2.4,0,0,0,2.422-4.144c-1.663-.965-3.823-.72-5.619-.354a10.552,10.552,0,0,0-5,2.3,2.417,2.417,0,0,0,0,3.394,2.454,2.454,0,0,0,3.394,0Z"/><path class="c" d="M132.057,121.208c.207.066.41.14.611.223l-.574-.242a9.432,9.432,0,0,1,2.03,1.211l-.485-.375A11.29,11.29,0,0,1,135.616,124l-.375-.486a8.285,8.285,0,0,1,.634.952,2.4,2.4,0,1,0,4.144-2.423,11.684,11.684,0,0,0-2.556-3.059,11.838,11.838,0,0,0-4.13-2.4,2.421,2.421,0,0,0-2.952,1.677,2.453,2.453,0,0,0,1.676,2.952Z"/><path class="c" d="M159.345,80.014c.465-3.243,3.109-6.151,6.62-5.87,3.154.252,5.067,3.2,6.011,5.923,2.425,7,.7,14.836-3.687,20.673a2.416,2.416,0,0,0,.861,3.284,2.457,2.457,0,0,0,3.283-.861A27.592,27.592,0,0,0,177.455,82.1a17.823,17.823,0,0,0-4.573-9.641,10.427,10.427,0,0,0-10.176-2.713,11.238,11.238,0,0,0-7.989,8.994,2.481,2.481,0,0,0,1.676,2.953,2.418,2.418,0,0,0,2.952-1.676Z"/><path class="d" d="M199.385,343.775a19.627,19.627,0,0,1-3.189-.232c-3.28-.82-.08-38.856-2.111-50.589-1.079-9.944-3.921-14.988-8.6-26.1-5.3-6.9-16.06-22.121-19.393-39.193-1.077-5.517,1.956-16.622,3.667-23.467,2.466-9.863,3.666-28.274,5.3-39.355,8.385-14.189,22.513-32.527,33.86-49.014l1.464-.107c8.8-.651,39.523,27.143,48.019,38.681,10.571,14.618,20.126,37.748,24.221,52.862,6.394,23.6,12.016,58.8,12.877,81.527.362,17.851.362,32.192-.91,48.038-14.59,1.148-30.363,2.358-45.581,3.583Z"/><path class="e" d="M306.332,318.74c7.723,0,55.625-.023,63.826-.023V305.4c-8.2,0-56.1.024-63.826.024Z"/><path class="c" d="M306.22,307.827q11.341,0,22.684-.008l31.014-.013,10.24,0c3.089,0,3.094-4.8,0-4.8q-11.5,0-23.01.008l-30.922.013-10.006,0c-3.089,0-3.094,4.8,0,4.8Z"/><path class="c" d="M306.22,321.14q11.341,0,22.684-.008l31.014-.012,10.24,0c3.089,0,3.094-4.8,0-4.8q-11.5,0-23.01.008l-30.922.012-10.006,0c-3.089,0-3.094,4.8,0,4.8Z"/><path class="c" d="M346.25,325.756a12.829,12.829,0,0,0,.129,3.709,7.156,7.156,0,0,0,4.075,4.754,18.371,18.371,0,0,0,10.8.828c2.4-.472,4.858-1.748,5.973-4.032a11.58,11.58,0,0,0,.8-5.411,2.4,2.4,0,0,0-4.8,0c0,.513.041,1.025.038,1.538,0,.3-.026.588-.043.883-.028.5.143-.643.006-.08-.042.171-.072.343-.122.512-.037.127-.273.63-.058.221.229-.434-.075.13-.122.212s-.266.327-.25.386c-.052-.193.41-.444.113-.159-.089.085-.174.18-.26.269-.056.058-.153.106-.193.174-.129.22.5-.3.111-.085-.169.094-.325.213-.494.308-.089.049-.752.346-.438.223.38-.148-.173.054-.2.064q-.267.09-.539.163c-.263.072-.529.133-.8.185-.181.036-.362.066-.545.095-.387.061.348-.034-.063.006a23.719,23.719,0,0,1-2.584.113q-.6-.007-1.208-.047c-.207-.014-.413-.036-.619-.052-.079-.006-.483-.063-.056,0a11.293,11.293,0,0,1-1.869-.427c-.226-.074-.823-.425-.3-.1-.192-.121-.413-.2-.609-.319-.082-.049-.16-.105-.243-.153-.33-.191-.12.069.1.1-.137-.017-.368-.323-.468-.427-.053-.056-.1-.125-.161-.178-.289-.271.192.219.158.212-.084-.018-.254-.4-.3-.469-.327-.527.079.064.015.093-.007,0-.152-.441-.164-.483-.049-.174-.077-.351-.118-.527-.107-.456.033.7.017.08-.007-.3-.024-.6-.011-.9.018-.427.086-.85.1-1.277a2.4,2.4,0,0,0-4.8,0Z"/><path class="e" d="M183.361,317.782c-8,0-173.511.023-181.043.023V304.491c7.532,0,43.264-.023,51.262-.023l50.386-.912c7.532,0,71.254-.023,79.252-.023Z"/><path class="c" d="M100.147,305.956q14.563,0,29.128-.008l41.389-.013,12.481,0c3.088,0,3.093-4.8,0-4.8q-14.729,0-29.455.007l-41.3.013-12.246,0c-3.089,0-3.094,4.8,0,4.8Z"/><path class="c" d="M2.318,320.205l20.2,0,42.169-.006,50.088-.007,43.94-.006,23.726,0h.838c3.089,0,3.094-4.8,0-4.8l-20.421,0-42.279.006L70.49,315.4l-43.842.006-23.524,0H2.318c-3.088,0-3.093,4.8,0,4.8Z"/><path class="c" d="M8.367,324.821a12.859,12.859,0,0,0,.13,3.708,7.154,7.154,0,0,0,4.075,4.755,18.371,18.371,0,0,0,10.8.828c2.4-.472,4.858-1.749,5.972-4.032a11.583,11.583,0,0,0,.8-5.412,2.4,2.4,0,1,0-4.8,0c0,.513.04,1.026.037,1.539,0,.3-.026.587-.043.882-.027.5.143-.643.006-.079-.041.171-.072.343-.121.512-.037.127-.274.629-.058.221.228-.434-.076.13-.122.211s-.266.327-.25.387c-.053-.193.41-.444.113-.16-.09.086-.175.18-.261.27-.055.058-.152.106-.192.173-.13.22.5-.3.11-.085-.168.094-.324.214-.494.309-.089.049-.751.346-.437.223.38-.148-.173.053-.2.063q-.267.09-.54.164c-.262.072-.528.132-.795.185-.181.036-.363.066-.545.095-.388.061.347-.035-.064.005a23.72,23.72,0,0,1-2.584.114c-.4,0-.806-.02-1.208-.048-.207-.014-.412-.036-.619-.052-.079-.006-.483-.063-.056,0a11.291,11.291,0,0,1-1.869-.426c-.225-.074-.823-.426-.3-.1-.192-.12-.414-.2-.61-.319-.082-.049-.16-.1-.242-.152-.331-.191-.121.068.1.1-.138-.017-.368-.323-.468-.427-.054-.056-.105-.124-.162-.178-.289-.271.192.22.158.212-.084-.018-.254-.4-.3-.469-.328-.527.079.065.015.094-.008,0-.153-.442-.164-.483-.05-.174-.078-.351-.119-.527-.106-.456.033.7.018.079-.008-.3-.024-.6-.012-.9.018-.427.086-.85.1-1.276a2.4,2.4,0,1,0-4.8,0Z"/><path class="c" d="M129.328,324.509a12.868,12.868,0,0,0,.13,3.709,7.15,7.15,0,0,0,4.075,4.754,18.368,18.368,0,0,0,10.794.828c2.4-.472,4.859-1.749,5.973-4.032a11.57,11.57,0,0,0,.8-5.412,2.4,2.4,0,0,0-4.8,0c0,.513.041,1.026.038,1.539,0,.3-.026.588-.043.882-.028.5.143-.642.006-.079-.041.171-.072.343-.121.512-.037.127-.274.63-.059.221.229-.434-.075.13-.122.212s-.265.326-.249.386c-.053-.193.41-.444.112-.159-.089.085-.174.18-.26.269-.055.058-.152.106-.192.173-.13.22.5-.3.11-.085-.169.1-.324.214-.494.309-.089.049-.752.346-.437.223.38-.148-.173.053-.2.064q-.267.09-.539.163c-.263.072-.528.133-.8.185-.18.036-.362.066-.544.1-.388.061.347-.034-.064.006a23.973,23.973,0,0,1-2.584.113q-.6-.007-1.208-.047c-.207-.014-.413-.037-.619-.053-.079-.006-.483-.063-.056,0a11.4,11.4,0,0,1-1.869-.427c-.225-.074-.823-.425-.3-.1-.191-.12-.413-.2-.609-.319-.082-.048-.16-.1-.243-.152-.33-.191-.12.069.1.095-.138-.016-.369-.322-.468-.427-.054-.056-.1-.124-.162-.178-.289-.27.192.22.158.213-.084-.018-.254-.4-.3-.47-.328-.527.079.065.015.094-.008,0-.153-.442-.165-.483-.049-.174-.077-.351-.118-.527-.106-.456.033.7.017.08-.007-.3-.024-.6-.011-.9.018-.426.086-.849.1-1.276a2.4,2.4,0,1,0-4.8,0Z"/><path class="a" d="M92.743,278.582l-.71.214c-2.5.625-4.715,1.757-9.032,3a92.65,92.65,0,0,1-13.081,2.511c-4.442.61-7.147.854-10.785,3.71q-4.29,3.366-8.6,6.713c-2.586,2.02-8.723,4.968-6.825,8.867,0,0,.139.287.39.8,3.518,0,6.995-.008,10.1-.008-2.373,2.044-3.782,4.371-1.936,6.67,3.55,4.421,13.851-.27,17.322-2.507.855-.55,2.243-2.456,3-2.7,1.54-.488,3.959.781,5.613,1.162a40.07,40.07,0,0,0,10.873.83c6.146-.233,11.31-5.383,15.449-9.677l.537-.4C100.753,292.7,94.6,284.584,92.743,278.582Z"/><path class="d" d="M109.425,303.212c9.235-3.749,58.34-15.061,63.02-18.96,1.415-1.179,7.422-8.052,13.17-17.089-.042-.1-.085-.2-.128-.3-5.3-6.9-16.06-22.121-19.393-39.193-1.215-6.222,2.8-19.551,4.247-25.86-4.383,9.694-15.265,33.389-18.174,43.94-13.136,6.79-47.913,16.59-58.742,26.468-6.54,5.966,14.765,29.506,16,30.265"/><path class="a" d="M204.088,348.311l-.3,1.065c-.134,1.42-4.7,4.542-5.786,6.311-1.63,2.645-6.772,11.238-7.923,14.217-1.966,5.089-2.432,7.291-1.8,9.344,1.421,4.58,5.251,2.2,9.182.23-1.1,4.846-1.976,8.644-2.473,10.74-.776,3.281-3.147,8.811-3.825,12.016a4.627,4.627,0,0,0,2.455,4.36c1.539.551,4.953,0,6.131-1.622l.606-.834c-.7,2.058-1.395,3.929-1.865,5.049l-.011.026-.134.227c-1.748,2.952-.956,5.346.555,6.526,2.008,1.568,5.195,1.356,7.067-1.564a56.942,56.942,0,0,0,2.594-5.717l.063-.158-.092.525c-.369,2.125.6,4.22,2.271,4.842,2.328.867,4.546.158,6.049-2.878.582-.94,2.239-6.251,3.27-9.925.173.049.278.077.278.077a3.052,3.052,0,0,0,3.342,2.749c1.46.025,5.293-.107,6.386-5.118.808-3.7,1.857-7.394,2.793-12.2.6-3.082,1.38-5.478,1.8-8.863.961-7.691-.173-15.824,1.9-23.309l.1-.414C227.177,352.69,214.557,350.965,204.088,348.311Z"/><path class="c" d="M199.385,341.375c-.516-.006-1.032-.03-1.548-.036-.561-.007.175.044.139.025a2.242,2.242,0,0,0-.642-.1c-.208-.029-.424-.066-.635-.079-.581-.034.485.184.583.239.072.041.726.861.473.4-.19-.351.161.66.068.16-.029-.157-.1-.315-.141-.471-.094-.35-.154-.707-.218-1.063-.016-.09-.027-.182-.042-.272-.086-.5.055.478.017.131-.029-.262-.062-.524-.088-.787-.115-1.164-.178-2.333-.224-3.5-.26-6.6-.058-13.223.027-19.827.082-6.493.244-13.029-.242-19.51a61.287,61.287,0,0,0-5.622-22.336c-1.042-2.456-2.118-4.9-3.164-7.351a21.712,21.712,0,0,0-2.744-4.249c-2.341-3.213-4.546-6.528-6.576-9.946a95.5,95.5,0,0,1-6.474-12.829c-.947-2.338-1.791-4.72-2.5-7.14a36.215,36.215,0,0,1-1.526-6.693c-.271-4.15.693-8.386,1.6-12.407.891-3.969,2.045-7.882,2.837-11.873,1.777-8.962,2.512-18.129,3.511-27.2.245-2.226.5-4.452.782-6.674a13.31,13.31,0,0,1,.29-2.212,14.843,14.843,0,0,1,1.705-2.834c2.629-4.231,5.414-8.364,8.25-12.459,6.277-9.065,12.82-17.942,19.185-26.944q2.283-3.23,4.529-6.485l-2.072,1.188c.634-.046,1.268-.109,1.905-.116.158,0,.316.035.473.033-.6,0-.216-.032.132.043a11.321,11.321,0,0,1,1.131.31c.231.075.459.157.686.243.133.05.264.1.4.154.423.163-.283-.127,0,0a47.908,47.908,0,0,1,6.747,3.821,145.949,145.949,0,0,1,15.969,12.534,204.085,204.085,0,0,1,14.891,14.405q1.459,1.578,2.861,3.207.552.647,1.091,1.306.282.346.56.7c.079.1.157.2.236.3.119.153-.238-.328.072.1a113.973,113.973,0,0,1,6.916,10.833,190.845,190.845,0,0,1,19.26,49.391,430.871,430.871,0,0,1,9.494,55.349c.973,9.177,1.412,18.318,1.521,27.545.121,10.284.04,20.574-.546,30.844q-.217,3.805-.522,7.606l2.4-2.4c-15.193,1.195-30.39,2.36-45.581,3.583a2.461,2.461,0,0,0-2.4,2.4,2.419,2.419,0,0,0,2.4,2.4c15.191-1.223,30.388-2.388,45.581-3.583a2.475,2.475,0,0,0,2.4-2.4c.849-10.669,1.145-21.365,1.115-32.066-.027-9.959-.222-19.878-1.154-29.8a438.612,438.612,0,0,0-9.521-58.4,199.6,199.6,0,0,0-19.914-52.206,93.14,93.14,0,0,0-12.7-17.915,203.169,203.169,0,0,0-15.534-15.006,149.434,149.434,0,0,0-17.1-13.281,42.489,42.489,0,0,0-7.264-3.893,13.175,13.175,0,0,0-2.734-.8c-1.312-.214-3.339-.372-4.476.293-1.092.639-1.883,2.342-2.6,3.365q-1.2,1.722-2.41,3.436-2.4,3.395-4.82,6.77c-3.24,4.523-6.5,9.032-9.722,13.566-3.062,4.306-6.1,8.634-9.027,13.031q-1.965,2.946-3.852,5.943-.885,1.412-1.743,2.839a7.925,7.925,0,0,0-1.052,3.339c-1.222,9.032-1.914,18.128-3.169,27.156a108.768,108.768,0,0,1-2.214,11.729c-1.092,4.325-2.2,8.657-2.93,13.062a44.283,44.283,0,0,0-.7,6.695,25.053,25.053,0,0,0,.854,6.12,79.814,79.814,0,0,0,5.256,14.779A117.407,117.407,0,0,0,182.6,266.993a28.929,28.929,0,0,1,2.977,6.112c.924,2.132,1.855,4.262,2.7,6.427a53.018,53.018,0,0,1,3.272,12.22c.114.854.209,1.708.341,2.559.057.364-.073-.622,0-.04.013.12.029.239.042.358.036.312.068.626.1.939.125,1.327.2,2.659.257,3.991.136,3.254.151,6.513.14,9.769-.024,7-.219,14-.193,21.006.01,2.743.037,5.5.246,8.231.14,1.834.216,3.982,1.125,5.64a3.2,3.2,0,0,0,2.6,1.738c.336.034,1,.136.288,0,.118.022.235.052.354.072a15.943,15.943,0,0,0,2.547.156c3.09.036,3.092-4.764,0-4.8Z"/><path class="c" d="M165.408,206.912c-3.025,6.7-6.006,13.426-8.849,20.209a154.122,154.122,0,0,0-6.706,17.987l1.1-1.434c-6.079,3.125-12.519,5.348-19.077,7.815-7.951,2.991-15.923,5.955-23.685,9.414a102.519,102.519,0,0,0-9.89,4.951c-2.4,1.4-5.244,3-7.033,5.167-3.563,4.315-.1,10.876,2.233,14.906a95.267,95.267,0,0,0,10.761,14.591A37.316,37.316,0,0,0,107.514,304a3.69,3.69,0,0,0,3.808,1.045c.892-.315,1.794-.6,2.7-.886,12.46-3.881,25.2-6.887,37.767-10.387,5.573-1.551,11.18-3.088,16.623-5.057a24.188,24.188,0,0,0,4.841-2.105c2.3-1.473,4.07-4.042,5.747-6.132q2.564-3.192,4.936-6.531a2.418,2.418,0,0,0-.861-3.284,2.452,2.452,0,0,0-3.283.861,99.86,99.86,0,0,1-7.565,9.539c-.332.363-.667.725-1.02,1.068-.123.12-.264.23-.381.356-.344.371.554-.307.135-.106-.462.221-.893.515-1.362.732-.148.069-.3.132-.448.2-.366.172.512-.2.019-.008-.393.157-.785.315-1.181.465-.881.334-1.771.645-2.663.946-2.282.771-4.586,1.476-6.894,2.16-11.622,3.447-23.382,6.412-35.072,9.611-4.632,1.268-9.332,2.463-13.844,4.121l1.849.242c-.137-.085-.557-.456-.727-.447-.254.012.5.221.383.3a2.331,2.331,0,0,1-.275-.248c-.3-.305-.606-.6-.9-.915-.972-1.026-1.907-2.087-2.826-3.161a94.742,94.742,0,0,1-7.16-9.354,56.162,56.162,0,0,1-3.252-5.418c-.211-.408-.416-.82-.611-1.236-.094-.2-.185-.4-.277-.608-.034-.075-.182-.427-.015-.025-.054-.131-.108-.262-.159-.394a18.7,18.7,0,0,1-.758-2.35c-.042-.176-.078-.354-.115-.531-.019-.091-.1-.646-.055-.28s-.014-.169-.018-.26c-.008-.185-.019-.37-.018-.555,0-.15.029-.308.02-.456-.021-.358-.156.459.006-.01a2.308,2.308,0,0,0,.105-.406c.06-.464-.186.268-.019,0a2.62,2.62,0,0,0,.2-.351c.145-.337-.325.308-.054.055s.541-.525.831-.771c.163-.139.328-.275.494-.41.084-.069.17-.137.256-.2-.036.029-.264.2-.043.035.434-.329.878-.646,1.328-.954a80.707,80.707,0,0,1,12.769-6.786c5.2-2.321,10.5-4.382,15.82-6.406,5.225-1.988,10.474-3.913,15.679-5.952,2.279-.892,4.548-1.811,6.8-2.782,1.829-.791,5.068-1.672,5.75-3.7,1.745-5.2,3.555-10.315,5.644-15.39,2.443-5.938,5.032-11.816,7.656-17.676q.867-1.937,1.74-3.87a2.473,2.473,0,0,0-.861-3.284,2.42,2.42,0,0,0-3.284.861Z"/><path class="c" d="M293.7,345.022c0,3.186.119,6.374.013,9.559-.025.762-.063,1.523-.123,2.282-.055.689-.115,1.3-.2,1.821-.106.678-.238,1.353-.41,2.018q-.129.505-.292,1c-.027.085-.338.913-.2.6a2.482,2.482,0,0,0,.861,3.284,2.417,2.417,0,0,0,3.284-.861c2.628-6.147,1.86-13.183,1.868-19.7,0-3.088-4.8-3.093-4.8,0Z"/><path class="d" d="M210.968,262.206c.394-2.384.469-9.858-1.711-13.138-1.283-4.423-7.589-16.649-9.321-21.157-8.683-22.585-7.205-58.544,15.191-63.949,28.783-6.947,38.27,19.666,44.5,43.653,1.571,6.052,5.929,21.518,7.344,26.654,1.247,6.564,3.523,12.875,2.913,20.192-.465,5.578-4.346,15.365-5.953,20.2-2.685,9.105-4.909,20.037-7.9,34.962-2.891,14.451-10.623,38.173-13.515,45.217-10.929-1.62-29.842-3.767-43.119-7.822,1.056-6.459,1.823-9.951,2.564-12.817,3.207-21.07,6.452-53.2,9.238-73.4"/><path class="c" d="M213.282,262.844a29.662,29.662,0,0,0,.153-7.365,25.277,25.277,0,0,0-.76-4.475,14.834,14.834,0,0,0-.724-1.969,7.943,7.943,0,0,0-.355-.738c-.249-.437.029.187-.155-.288-1.873-4.862-4.07-9.559-6.283-14.275-.535-1.14-1.069-2.281-1.592-3.427q-.355-.775-.7-1.557c-.1-.216-.19-.433-.283-.65-.113-.263.011.028.028.068-.053-.125-.1-.251-.156-.377a64.011,64.011,0,0,1-2.3-6.923,76.692,76.692,0,0,1-2.581-15.395c-.633-9.8.273-20.458,5.149-28.948a21.381,21.381,0,0,1,8.613-8.617,14.662,14.662,0,0,1,2.757-1.159,33.72,33.72,0,0,1,12.019-1.431,23.205,23.205,0,0,1,12.328,4.717,35.441,35.441,0,0,1,8.888,10.78c5.154,9.052,7.789,19.239,10.457,29.234,1.4,5.252,2.869,10.487,4.329,15.724q.976,3.508,1.955,7.017c.78,2.805,1.347,5.663,2,8.5a46.918,46.918,0,0,1,1.514,11.05,31.183,31.183,0,0,1-1.523,8.528c-1.594,5.455-3.808,10.7-5.3,16.188-3.476,12.742-5.395,25.824-8.548,38.635a349.787,349.787,0,0,1-10.155,33.6c-.587,1.647-1.186,3.292-1.848,4.911l2.953-1.676c-14.421-2.13-29.117-3.579-43.119-7.823l1.677,2.953c.474-2.891.976-5.778,1.584-8.644.437-2.06.969-4.074,1.277-6.159.833-5.64,1.577-11.293,2.291-16.949,1.538-12.171,2.92-24.361,4.382-36.54.718-5.98,1.446-11.959,2.267-17.926a2.482,2.482,0,0,0-1.676-2.952,2.418,2.418,0,0,0-2.953,1.676c-3.185,23.143-5.338,46.418-8.667,69.542-.805,5.6-2.216,11.089-3.134,16.676a2.468,2.468,0,0,0,1.676,2.952c14,4.244,28.7,5.692,43.119,7.822a2.507,2.507,0,0,0,2.952-1.676,276.6,276.6,0,0,0,9.917-30.585c3.636-13.079,5.755-26.487,8.89-39.685.681-2.867,1.407-5.725,2.214-8.56.743-2.613,1.728-5.153,2.623-7.717,2.16-6.191,4.274-12.463,3.835-19.11a73.416,73.416,0,0,0-2.06-11.718c-.594-2.562-1.143-5.109-1.848-7.643-1.5-5.4-3.017-10.8-4.5-16.209-2.842-10.346-5.3-20.822-9.771-30.627-4.213-9.246-10.624-18.061-20.532-21.6a32.421,32.421,0,0,0-16.775-.874,25.478,25.478,0,0,0-13.265,6.5c-7.391,7.059-10.068,17.843-10.77,27.7a78.706,78.706,0,0,0,4.481,32.256c1.785,4.876,4.226,9.515,6.4,14.223,1.063,2.3,2.024,4.345,2.847,6.6.816,2.233,1.729,3.949,2.048,6.388a30.423,30.423,0,0,1,.219,4.148c0,.543-.019,1.085-.052,1.626-.016.266-.043.531-.061.8-.041.592.036-.162-.017.18a2.477,2.477,0,0,0,1.676,2.953,2.418,2.418,0,0,0,2.952-1.677Z"/><path class="c" d="M201.477,348.738c-.069.389.065-.17.108-.16,0,0-.16.28-.187.314.28-.344-.258.286-.37.4-.573.605-1.2,1.161-1.813,1.72a19.162,19.162,0,0,0-3.282,3.459c-1.635,2.474-3.079,5.108-4.542,7.685a58.023,58.023,0,0,0-4.273,8.834c-1.108,3.056-2.156,6.416-.889,9.587a5.38,5.38,0,0,0,4.891,3.7c2.188.04,4.276-1.07,6.174-2.027,2.759-1.391.331-5.533-2.423-4.145a13.358,13.358,0,0,1-3.751,1.372c.179-.026-.029,0-.051-.009-.07-.038-.087-.052-.156-.164a3.11,3.11,0,0,1-.34-.791c-.039-.133-.175-.8-.138-.542s-.015-.359-.015-.5a7.78,7.78,0,0,1,.04-.778c0-.014.019-.138.089-.481.079-.383.175-.763.278-1.14.225-.815.5-1.618.778-2.414.2-.559.405-1.115.617-1.67.067-.177.135-.353.2-.53.114-.292-.258.555,0-.006,1.163-2.5,2.532-4.894,3.908-7.278q1.13-1.956,2.291-3.894c.451-.753,1.16-2.019,1.5-2.476a32.526,32.526,0,0,1,3.28-3.128c1.041-.971,2.438-2.194,2.7-3.67a2.469,2.469,0,0,0-1.677-2.952,2.42,2.42,0,0,0-2.952,1.676Z"/><path class="c" d="M196.7,369.95c-.626,3.262-1.008,6.55-1.747,9.794-.732,3.211-1.449,6.426-2.218,9.628-.754,3.142-2.015,6.141-3.019,9.206a12.065,12.065,0,0,0-.958,4.513,7.321,7.321,0,0,0,2.457,4.78c2.7,2.316,8.039,1.525,10.243-1.2a2.472,2.472,0,0,0,0-3.394,2.417,2.417,0,0,0-3.394,0c-.819,1.014-2.155,1.049-3.482,1.107.122,0-.036.045-.222-.107a3.347,3.347,0,0,1-.43-.549,1.949,1.949,0,0,1-.382-1.118,26.119,26.119,0,0,1,1.629-5.182c.6-1.7,1.224-3.4,1.744-5.128.976-3.25,1.6-6.633,2.355-9.939.844-3.695,1.339-7.418,2.053-11.133a2.465,2.465,0,0,0-1.676-2.953,2.423,2.423,0,0,0-2.953,1.677Z"/><path class="c" d="M206.225,408.414a7.624,7.624,0,0,0,.3,4.1,6.251,6.251,0,0,0,2.68,3.272,6.715,6.715,0,0,0,6.854-.186,8.914,8.914,0,0,0,2.874-3.372,2.4,2.4,0,0,0-4.144-2.422c-.117.231-.239.46-.373.681-.047.079-.308.593-.4.6.041,0,.4-.5.109-.151-.063.075-.128.148-.195.22-.141.149-.3.275-.445.422-.168.172.526-.365.192-.148-.073.047-.142.1-.215.143s-.447.18-.484.259c.024-.052.64-.234.256-.117-.077.024-.152.051-.23.072a4.154,4.154,0,0,1-.563.112l.638-.086a4.709,4.709,0,0,1-1.068-.008l.638.085a6.95,6.95,0,0,1-1.1-.269c-.4-.123.516.272.173.075l-.282-.162c-.325-.18.369.342.179.15-.077-.078-.166-.144-.244-.222s-.124-.137-.188-.2c-.286-.3.313.492.1.126-.106-.185-.213-.365-.31-.554-.131-.253.208.566.084.191-.038-.115-.077-.228-.11-.344a5.549,5.549,0,0,1-.143-.724l.086.638a5.713,5.713,0,0,1,0-1.274l-.086.638c.011-.087.024-.174.039-.26a2.613,2.613,0,0,0-.242-1.85,2.4,2.4,0,0,0-4.387.574Z"/><path class="c" d="M196.279,408.229a8.6,8.6,0,0,0-1.31,4.787,6.79,6.79,0,0,0,1.741,4.181,6.916,6.916,0,0,0,7.263,1.753,8.207,8.207,0,0,0,4.073-3.336,2.419,2.419,0,0,0-.861-3.284,2.455,2.455,0,0,0-3.284.861c-.108.165-.22.325-.339.482l.375-.486a6.122,6.122,0,0,1-1.067,1.067l.486-.375a5.35,5.35,0,0,1-1.1.633l.573-.242a4.966,4.966,0,0,1-1.153.31l.638-.086a4.878,4.878,0,0,1-1.243-.006l.638.085a4.917,4.917,0,0,1-1.1-.3l.573.242a4.989,4.989,0,0,1-1.064-.62l.486.375a4.335,4.335,0,0,1-.723-.735l.376.486a4.352,4.352,0,0,1-.494-.854l.242.573a4.528,4.528,0,0,1-.3-1.108l.085.638a5.264,5.264,0,0,1,.012-1.273l-.085.638a6.627,6.627,0,0,1,.432-1.538l-.242.573a9.241,9.241,0,0,1,.514-1.018,2.4,2.4,0,0,0-4.145-2.422Z"/><path class="c" d="M234.317,353.793c-2.286,8.528-.645,17.419-2.337,26.007-.782,3.967-1.679,7.941-2.618,11.874-.443,1.854-.91,3.7-1.334,5.561-.312,1.371-.586,2.713-1.564,3.57-.017.015-.213.143-.5.314-.055.034-.484.226-.218.116.232-.1-.172.053-.216.064-.26.066-.516.129-.778.188-.349.079.433-.037.095-.01-.111.008-.223.023-.335.026a5.493,5.493,0,0,1-1.237-.037c-.069-.014-.4-.224-.247-.058a2.476,2.476,0,0,1-.312-.878c-.68-3.012-5.309-1.737-4.629,1.276.869,3.85,4.433,4.959,7.941,4.31,3.611-.669,5.728-3.642,6.5-7.049,2.056-9.094,4.753-18.137,5.022-27.508.158-5.521-.05-11.108,1.393-16.49.8-2.987-3.829-4.262-4.629-1.276Z"/><path class="c" d="M221.091,384.64c-.923,4.666-1.6,9.412-2.79,14.019-.566,2.185-1.211,4.352-1.884,6.5-.33,1.054-.667,2.105-1.032,3.146-.139.395-.289.785-.434,1.177-.189.512.055-.114,0-.007s-.106.219-.167.325c-1.557,2.675,2.589,5.094,4.144,2.422a26.617,26.617,0,0,0,1.979-5.356c.7-2.226,1.372-4.467,1.965-6.724,1.227-4.674,1.908-9.494,2.845-14.231a2.462,2.462,0,0,0-1.677-2.952,2.422,2.422,0,0,0-2.952,1.676Z"/><path class="c" d="M212.663,383.548c-1.028,4.957-2.247,9.872-3.28,14.828a56.889,56.889,0,0,1-5.482,14.815c-1.452,2.725,2.69,5.153,4.145,2.423,5.083-9.538,7.072-20.314,9.246-30.79.625-3.014-4-4.3-4.629-1.276Z"/><path class="c" d="M204.114,381.305c-.868,5.127-2.692,10.088-3.927,15.132a83.919,83.919,0,0,1-4,12.112,2.414,2.414,0,0,0,1.676,2.953,2.461,2.461,0,0,0,2.952-1.677,83.674,83.674,0,0,0,4-12.112c1.235-5.044,3.06-10,3.928-15.132a2.472,2.472,0,0,0-1.676-2.952,2.42,2.42,0,0,0-2.953,1.676Z"/><path class="c" d="M91.4,276.482c-3.688.953-7.168,2.562-10.875,3.492-4.647,1.168-9.388,1.669-14.109,2.424a19.832,19.832,0,0,0-5.268,1.541,28.739,28.739,0,0,0-5.461,3.754c-3.181,2.489-6.38,4.905-9.653,7.263-3.314,2.388-6.289,5.558-4.388,9.851a2.417,2.417,0,0,0,3.284.861,2.461,2.461,0,0,0,.861-3.284,1.34,1.34,0,0,1-.028-.206c-.023-.246-.023-.064-.038.023a2.592,2.592,0,0,1,.123-.479c-.1.251.207-.363.271-.461a4.081,4.081,0,0,1,.4-.49,18.013,18.013,0,0,1,3.181-2.532c3.319-2.253,6.418-4.833,9.576-7.3a19.881,19.881,0,0,1,4.342-2.874,18.97,18.97,0,0,1,4.612-1.117c4.31-.644,8.632-1.157,12.878-2.172,3.955-.944,7.647-2.649,11.568-3.662,2.988-.772,1.722-5.4-1.276-4.628Z"/><path class="c" d="M78.274,289.505a36.409,36.409,0,0,1-6.21,1.216,13.739,13.739,0,0,0-5.951,2.493c-1.509,1.124-2.861,2.479-4.427,3.522-.813.541-1.68,1-2.526,1.486-4.007,2.291-11.387,6.212-9.986,11.933.773,3.158,3.778,4.807,6.806,5.092,3.15.3,6.448-.716,9.333-1.889a20.271,20.271,0,0,0,7.287-4.342c.252-.262.5-.525.759-.78.663-.654.1-.1.106-.13.133-.48.621.759-.3.046a6.311,6.311,0,0,0,.846.083c.538.126,1.063.3,1.587.479a30,30,0,0,0,6.215,1.327c4.744.551,9.661.541,14.008-1.636,4.028-2.017,7.306-5.332,10.4-8.537,2.145-2.224-1.244-5.622-3.394-3.394a42.808,42.808,0,0,1-7.769,6.849,14.148,14.148,0,0,1-4.589,1.954,23.287,23.287,0,0,1-5.523.195,29.823,29.823,0,0,1-6.106-.768,38.636,38.636,0,0,0-4.721-1.292,4.955,4.955,0,0,0-4.366,1.641,9.466,9.466,0,0,1-2.446,2.068,28.687,28.687,0,0,1-7.141,2.906,12.034,12.034,0,0,1-3.64.456,4,4,0,0,1-1.428-.259,2.6,2.6,0,0,1-.8-.5c-.282-.274-.012.038-.235-.267a2.611,2.611,0,0,1-.221-.386c.029.06.186.277.046.092a.905.905,0,0,1-.08-.289c.091.5.02.195.016.061a1.45,1.45,0,0,1,.007-.287c.059-.35-.1.415,0,.067.047-.168.253-.676.065-.276a6.426,6.426,0,0,1,.371-.651c.059-.094.124-.186.189-.276-.029.041-.2.247-.019.031a9.659,9.659,0,0,1,.657-.715,26.943,26.943,0,0,1,5.744-4.036c.961-.557,1.943-1.085,2.888-1.67a37.474,37.474,0,0,0,4.03-3.135,11.069,11.069,0,0,1,5.17-2.567c2.219-.433,4.484-.519,6.629-1.291a2.463,2.463,0,0,0,1.676-2.953,2.421,2.421,0,0,0-2.952-1.676Z"/><path class="c" d="M2.318,306.891q20.857,0,41.714-.02,4.241,0,8.48,0c3.088,0,3.094-4.8,0-4.8q-20.974,0-41.948.02-4.123,0-8.246,0c-3.088,0-3.093,4.8,0,4.8Z"/></svg>