<svg id="b" xmlns="http://www.w3.org/2000/svg" width="138.986" height="383.866" viewBox="0 0 138.986 383.866" style="color: initial !important;"><defs><style>.d{fill:#89705d;}.d,.e,.f,.g,.h,.i,.j{stroke-width:0px;}.e{fill:#febe69;}.f{fill:none;}.g{fill:#211715;}.h{fill:#645d5c;}.i{fill:#ffffff;}.j{fill:#c6c6c6;}</style></defs><g id="c"><path class="i" d="M97.247,49.798c.929-.893,2.18-1.228,3.251-1.19,2.33.082,3.322,1.343,3.749,2.083,1.274,2.209,1.22,6.279.365,8.798-.605,1.784-1.597,4.512-3.988,6.468-.985.806-2.435,1.337-3.822,1.103,0,0-.205-.035-.561-.094-.377,1.144-.784,2.182-1.051,2.74-1.113,3.021-8.035,14.774-16.236,16.597l-1.772,1.784c-1.341.755-5.424,2.324-8.815,2.324-3.255,0-6.28-1.469-7.279-1.881l.155-1.599c-5.392-.764-9.794-3.726-13.881-8.617-3.233-3.869-5.15-8.021-6.259-11.55-1.633.759-3.549.184-4.761-.808-2.391-1.956-3.383-4.685-3.988-6.468-.855-2.518-.909-6.589.365-8.798.427-.74,1.418-2,3.749-2.083,1.071-.038,2.322.298,3.251,1.19,0,0-9.901-38.202,28.766-38.202s28.766,38.202,28.766,38.202Z"/><path class="i" d="M56.729,113.903c-3.453-10.278-6.81-20.797-8.832-27.723l-1.335-5.47s0-1.559-.002-3.393c.258.335.525.668.801.999,4.086,4.891,8.489,7.852,13.881,8.617l-.155,1.599c.999.412,4.024,1.881,7.279,1.881,3.391,0,7.474-1.569,8.815-2.324l1.772-1.784c4.439-.986,8.502-4.882,11.473-8.727-.002,1.414-.002,2.663-.002,2.663l-1.357,4.461c-.08.28-.16.56-.24.86-4.4,15.27-15.91,49.86-19.91,58.26h-1.21c-2.2-4.61-6.664-17.075-10.978-29.917Z"/><path class="d" d="M108.888,209.739c1.119,16.872,3.336,32.002,1.254,62.622-1.587,23.341-3.955,42.897-7.338,69.114-.212,1.641-1.5,2.995-3.26,3.369-3.61.749-8.3,1.379-12.51,1.534-.01-.009-.02,0-.03,0-.6.018-1.19.027-1.77.027-4.06,0-8.26-.256-11.88-.749-1.786-.246-3.446-.538-4.854-.909-1.426.367-3.095.662-4.892.909-3.62.493-7.82.749-11.88.749-.58,0-1.17-.009-1.77-.027-.01,0-.02-.009-.03,0-4.21-.155-8.9-.785-12.51-1.534-1.76-.374-3.048-1.728-3.26-3.369-3.383-26.217-5.751-45.774-7.338-69.114-2.082-30.62.135-45.75,1.254-62.622v-13.142h80.74l.146,14.203"/><path class="h" d="M93.906,377.389c-.449-.259-.888-.537-1.312-.838-.841-.597-1.638-1.209-2.423-1.824-2.896-2.267-5.634-4.568-9.839-6.242-2.152-.857-4.405-1.177-6.054-2.805-.982-.968-1.785-2.737-2.046-4.091-.895-4.652-1.089-8.875-.132-13.561,0,0,.199-.975.491-2.481.252.037.507.074.764.109,3.62.493,7.82.749,11.88.749.58,0,1.17-.009,1.77-.027.01,0,.02-.009.03,0,3.49-.129,7.31-.584,10.571-1.162.271.631.465,1.071.465,1.071,0,0,3.101,4.929,3.101,4.929,4.56,5.091,9.12,10.183,13.679,15.274,6.726,6.904,4.421,13.873-3.382,15.131-4.125.666-8.273-.115-12.101-1.816-1.862-.708-3.742-1.426-5.462-2.417Z"/><path class="g" d="M70.171,347.497c-.85,4.327-.845,8.608-.16,12.957.612,3.887,2.236,7.073,6.03,8.629,1.75.718,3.573,1.174,5.276,2.019,1.643.815,3.187,1.808,4.663,2.893,2.912,2.14,5.559,4.607,8.88,6.121,3.823,1.742,7.812,3.335,12.033,3.678,3.475.283,7.412-.208,10.292-2.325,2.345-1.723,3.786-4.431,3.616-7.379-.208-3.599-2.269-6.656-4.699-9.181-3.362-3.494-6.465-7.234-9.699-10.845-2.466-2.754-4.636-5.522-6.408-8.785-1.229-2.263-4.684-.246-3.454,2.019,3.161,5.822,7.84,10.446,12.158,15.401,1.234,1.416,2.476,2.827,3.766,4.194,1.163,1.232,2.337,2.401,3.194,3.877,1.093,1.881,1.725,4.3.412,6.238-1.471,2.172-4.457,2.751-6.894,2.839-3.76.136-7.078-1.1-10.521-2.446-3.208-1.255-5.797-3.097-8.487-5.2-2.512-1.964-5.072-3.805-8.003-5.098-1.715-.757-3.629-1.137-5.285-2.005-1.476-.773-2.259-2.134-2.651-3.72-1.019-4.13-1.018-8.66-.202-12.817.494-2.514-3.361-3.591-3.857-1.063h0Z"/><path class="h" d="M43.197,377.308c.4-.236.792-.486,1.172-.756.841-.597,1.638-1.209,2.423-1.824,2.896-2.267,5.634-4.568,9.839-6.242,2.152-.857,4.405-1.177,6.054-2.805.982-.968,1.785-2.737,2.046-4.091.895-4.652,1.089-8.875.132-13.561,0,0-.199-.975-.491-2.481-.252.037-.506.074-.764.109-3.62.493-7.82.749-11.88.749-.58,0-1.17-.009-1.77-.027-.01,0-.02-.009-.03,0-3.535-.13-7.408-.595-10.696-1.184-.196.642-.34,1.094-.34,1.094,0,0-3.101,4.929-3.101,4.929-4.56,5.091-9.12,10.183-13.679,15.274-6.726,6.904-4.421,13.873,3.382,15.131,4.125.666,8.273-.115,12.101-1.816,1.913-.727,3.844-1.465,5.602-2.498Z"/><path class="g" d="M62.934,348.561c.75,3.818.705,7.712.043,11.541-.24,1.387-.564,2.811-1.483,3.928-1.029,1.251-2.792,1.619-4.25,2.114-3.116,1.056-5.95,2.658-8.58,4.62-2.608,1.945-5.03,4.184-7.978,5.617-3.265,1.587-6.971,3.115-10.617,3.413-2.706.221-6.003.064-8.208-1.738-5.041-4.12,1.823-10.201,4.539-13.239,2.921-3.267,5.787-6.582,8.71-9.846,2.074-2.316,3.829-4.942,5.311-7.672,1.229-2.263-2.224-4.284-3.454-2.019-1.445,2.661-3.138,5.134-5.156,7.387-2.871,3.206-5.675,6.473-8.554,9.672-2.604,2.892-5.604,5.545-6.711,9.42-.82,2.872-.322,5.914,1.606,8.224,2.138,2.562,5.511,3.537,8.716,3.81,4.359.371,8.296-.904,12.293-2.453,1.945-.754,3.907-1.55,5.665-2.688,1.472-.954,2.838-2.083,4.216-3.166,2.78-2.186,5.697-4.258,9.073-5.418,2.007-.689,4.056-1.265,5.686-2.696,1.445-1.269,2.403-3.233,2.822-5.088,1.097-4.853,1.124-9.913.167-14.784-.496-2.524-4.352-1.455-3.857,1.063h0Z"/><path class="g" d="M26.074,209.739c-.53,7.945-1.298,15.871-1.714,23.824-.551,10.544-.495,21.103.036,31.646,1.251,24.868,4.332,49.619,7.509,74.3.213,1.651.263,3.356,1.259,4.763.9,1.272,2.217,2.125,3.723,2.501,3.355.839,6.941,1.185,10.381,1.451,6.996.541,14.414.149,21.263-1.424,2.508-.576,1.446-4.434-1.063-3.857-5.871,1.349-12.189,1.693-18.196,1.407-3.001-.143-5.995-.48-8.955-.988-1.077-.185-2.588-.2-3.468-.92-.913-.746-.838-2.118-.974-3.177-1.566-12.172-3.099-24.35-4.395-36.554-2.348-22.118-4.22-44.404-3.238-66.659.388-8.787,1.249-17.539,1.834-26.313.171-2.57-3.829-2.559-4,0h0Z"/><path class="g" d="M106.888,209.739c.513,7.69,1.253,15.364,1.673,23.061.549,10.044.557,20.104.112,30.152-1.056,23.849-3.922,47.607-6.939,71.273-.245,1.925-.492,3.849-.74,5.774-.149,1.155-.232,2.294-1.465,2.783-1.379.547-3.113.634-4.573.853-1.671.25-3.352.437-5.037.573-6.717.541-13.844.249-20.424-1.263-2.506-.576-3.575,3.28-1.063,3.857,6.144,1.412,12.749,1.83,19.039,1.56,3.149-.135,6.293-.503,9.403-1.003,2.697-.433,5.553-.802,7.108-3.354.795-1.304.853-2.775,1.043-4.251.237-1.843.474-3.686.709-5.529.41-3.217.816-6.435,1.214-9.654.746-6.03,1.464-12.064,2.129-18.103,2.535-23.032,4.633-46.272,3.685-69.462-.372-9.107-1.268-18.175-1.875-27.266-.17-2.555-4.172-2.574-4,0h0Z"/><path class="d" d="M28.961,86.552c-5.287,2.592-10.305,5.709-13.806,9.652-5.504,6.198-7.112,14.912-9.118,22.645-1.818,7.01-2.938,14.093-3.865,21.261-.682,5.27.21,13.438,1.93,18.427,2.806,8.138,5.805,11.906,12.865,16.818,2.003,1.394,4.137,2.725,6.663,3.717l.85.315c-1.111,10.737-2.336,24.655-2.993,32.542-.02.27.12,1.24.69,1.95.59.73,1.61,1.19,1.86,1.21,6.73.54,15.92.35,21.64-.52,5.31-.82,10.01-2.71,12.33-4.42,3.52-2.62,5.57-5.64,6.75-9.43.4-1.28,1.19-4.89,1.8-8.62.03-.19.47-.47.91-.45.4.02.82.33.85.51.66,3.87,1.52,7.66,1.92,8.97,1.18,3.79,3.28,6.67,6.37,9.27,3.03,2.54,6.28,3.44,11.04,4.22,6.24,1.01,17.65.44,24.93-.08.35-.02,1.54-.44,2.18-1.29.65-.82.75-2.08.72-2.46-.53-6.62-1.2-13.72-2.07-22.1-.15-1.552-.29-3.003-.42-4.365,4.978-1.598,8.917-3.492,14.657-6.712,1.98-1.109,3.766-2.913,5.167-4.641,1.542-1.902,2.399-3.82,2.819-5.498,1.6-6.258,1.582-11.853,1.112-18.255-1.23-17.067-4.078-36.768-13.773-51.377-6.215-9.365-19.829-14.63-29.957-18.436,0,0-.856-.322-2.294-.862-.861,3.208-1.653,6.156-1.653,6.156-.08.28-.16.56-.24.86-4.4,15.27-15.91,49.86-19.91,58.26h-1.21c-3.96-8.3-15.26-42.06-19.81-57.64,0,0-.784-3.211-1.629-6.673l-4.055,1.406c-4.104,1.625-8.774,3.444-13.251,5.639Z"/><path class="e" d="M72.618,134.617c.947-2.553,1.98-5.429,3.056-8.495-1.179-10.651-3.117-25.482-3.117-25.883,0-.613,1.972-7.023,2.453-8.88-.466-.641-.95-1.3-1.433-1.94l-10.38-.17c-.705.921-1.425,1.9-2.093,2.823.526,1.096,3.233,7.138,3.253,8.277.011.643-1.924,13.968-3.552,25.427,2.844,8.089,5.401,14.896,6.902,18.043h1.21c.905-1.901,2.196-5.145,3.701-9.203Z"/><path class="g" d="M57.099,142.315c-4.438-7.588-8.828-15.204-13.097-22.889-2.115-3.808-4.201-7.632-6.242-11.481-.498-.938-.992-1.878-1.484-2.819l-.209-.4c-.169-.511-.252-.538-.25-.081.174-.426.846-.914,1.165-1.246,1.469-1.536,3-3.01,4.54-4.474.925-.88.699-2.521-.405-3.141l-5.254-2.954c-2.247-1.263-4.265,2.191-2.019,3.454l5.254,2.954-.405-3.141c-1.76,1.674-3.509,3.361-5.167,5.137-.736.789-1.392,1.536-1.596,2.626-.229,1.223.344,2.239.891,3.286,2.145,4.105,4.346,8.18,6.582,12.235,4.626,8.386,9.405,16.687,14.241,24.954,1.299,2.221,4.758.21,3.454-2.019h0Z"/><path class="g" d="M66.015,211.391c.009,5.779.006,11.558.006,17.337.001,11.078.001,22.156.001,33.235,0,12.985,0,25.969-.002,38.954,0,11.608-.002,23.216-.003,34.825,0,6.93-.001,13.86-.003,20.79,0,.365,0,.731,0,1.096,0,2.574,4,2.578,4,0,.001-6.11.002-12.22.002-18.33.001-11.248.002-22.497.003-33.745.001-12.994.002-25.989.002-38.983,0-11.458,0-22.916,0-34.375,0-6.619,0-13.238-.006-19.857,0-.315,0-.631-.001-.946-.004-2.574-4.004-2.578-4,0h0Z"/><path class="g" d="M60.223,96.698c1.507-2.02,2.93-4.1,4.45-6.11.292-.386.323-1.099.202-1.541-.128-.464-.486-.967-.919-1.195-.464-.245-1.026-.368-1.541-.202-.528.171-.863.48-1.195.919-1.52,2.01-2.943,4.09-4.45,6.11-.29.389-.324,1.095-.202,1.541.128.464.486.967.919,1.195.464.245,1.026.368,1.541.202.526-.17.867-.479,1.195-.919h0Z"/><path class="g" d="M71.979,90.608c1.491,1.982,2.873,4.044,4.37,6.02.328.433.65.769,1.195.919.479.132,1.116.072,1.541-.202.427-.275.803-.685.919-1.195.111-.488.116-1.122-.202-1.541-1.497-1.976-2.879-4.038-4.37-6.02-.326-.433-.652-.77-1.195-.919-.479-.132-1.116-.072-1.541.202-.427.275-.803.685-.919,1.195-.111.489-.115,1.121.202,1.541h0Z"/><path class="g" d="M72.76,97.038c-2.828-.001-5.656-.059-8.484-.06-1.046,0-2.048.92-2,2s.879,2,2,2c2.828.001,5.656.059,8.484.06,1.046,0,2.048-.92,2-2s-.879-2-2-2h0Z"/><path class="g" d="M77.196,121.929c-.793-6.805-1.67-13.6-2.494-20.402-.054-.446-.093-.896-.142-1.342.058.523-.089.406.003.139.07-.204.104-.43.159-.639.135-.52.281-1.037.427-1.554.61-2.153,1.311-4.288,1.847-6.461.616-2.499-3.24-3.565-3.857-1.063-.556,2.256-1.288,4.472-1.916,6.709-.396,1.407-.714,2.594-.54,4.04.827,6.859,1.715,13.71,2.515,20.573.125,1.073.83,2,2,2,.984,0,2.126-.92,2-2h0Z"/><path class="g" d="M44.632,81.241c1.886,7.726,4.294,15.279,6.749,22.844,3.243,9.993,6.59,19.962,10.223,29.821,1.353,3.672,2.696,7.384,4.375,10.923.294.621,1.07.991,1.727.991h1.21c.657,0,1.433-.37,1.727-.991,3.506-7.404,6.011-15.365,8.666-23.099,3.383-9.854,6.638-19.758,9.682-29.722,1.143-3.74,2.222-7.497,3.36-11.238.751-2.468-3.109-3.523-3.857-1.063-5.384,17.705-10.848,35.374-17.209,52.761-.76,2.079-1.535,4.152-2.347,6.211-.686,1.74-.981,2.511-1.749,4.131l1.727-.991h-1.21l1.727.991c-.693-1.46-.923-2.053-1.503-3.5-.708-1.766-1.384-3.545-2.047-5.328-1.718-4.617-3.351-9.265-4.953-13.923-3.376-9.814-6.628-19.676-9.664-29.601-1.042-3.407-1.932-6.819-2.777-10.279-.61-2.5-4.468-1.441-3.857,1.063h0Z"/><path class="g" d="M59.359,93.049c.814,1.695,1.559,3.432,2.24,5.184.302.778.684,1.613.806,2.446-.096-.651-.044-.164-.08.034-.056.309-.075.631-.115.942-.814,6.354-1.845,13.138-2.773,19.643-.152,1.068.262,2.149,1.397,2.46.938.258,2.307-.321,2.46-1.397.993-6.958,2.06-13.912,2.939-20.886.204-1.619-.232-2.916-.826-4.431-.795-2.029-1.651-4.049-2.595-6.014-1.114-2.32-4.564-.293-3.454,2.019h0Z"/><path class="g" d="M82.995,144.334c4.836-8.267,9.615-16.568,14.241-24.954,2.237-4.055,4.438-8.13,6.582-12.235.547-1.047,1.12-2.063.891-3.286-.204-1.089-.864-1.841-1.596-2.626-1.657-1.776-3.407-3.463-5.167-5.137l-.405,3.141,5.254-2.954c2.244-1.262.23-4.718-2.019-3.454l-5.254,2.954c-1.104.62-1.33,2.261-.405,3.141,1.54,1.464,3.071,2.939,4.54,4.474.365.381.892.793,1.165,1.246.012-.382-.036-.422-.145-.119-.104.2-.209.4-.313.6-.492.941-.987,1.881-1.484,2.819-2.041,3.848-4.126,7.673-6.242,11.481-4.269,7.685-8.659,15.301-13.097,22.889-1.302,2.227,2.153,4.242,3.454,2.019h0Z"/><path class="g" d="M60.555,90.459c-.64-.267.079.036.231.101.376.16.752.32,1.131.472.662.265,1.334.503,2.018.702,1.751.508,3.616.782,5.44.635,2.997-.242,6.169-1.098,8.815-2.555,2.256-1.242.24-4.697-2.019-3.454-.176.097-.355.188-.537.275-.123.059-.248.115-.372.171-.132.059-.217.091-.033.016-.612.251-1.237.474-1.868.674-1.384.438-2.83.804-4.24.892-1.499.093-2.928-.145-4.36-.581-.633-.193-1.252-.423-1.868-.666-.079-.031-.482-.2-.088-.033-.092-.039-.183-.078-.275-.118-.303-.13-.607-.259-.912-.387-.997-.417-2.2.449-2.46,1.397-.317,1.153.396,2.042,1.397,2.46h0Z"/><path class="g" d="M24.162,177.144c-3.89-1.57-7.583-4.211-10.675-7.029-2.552-2.326-4.479-5.05-5.92-8.184-3.42-7.438-4.222-15.866-3.116-23.913,1.343-9.777,3.316-19.578,6.264-29.009,1.294-4.138,3.04-8.263,5.973-11.521,2.769-3.076,6.232-5.407,9.828-7.408,6.516-3.625,13.546-6.307,20.577-8.746,2.417-.838,1.378-4.704-1.063-3.857-6.625,2.298-13.216,4.836-19.461,8.043-3.964,2.036-7.821,4.43-11.085,7.487-3.42,3.204-5.754,7.195-7.442,11.533-1.712,4.4-2.712,9.03-3.883,13.591-1.411,5.495-2.444,11.069-3.261,16.682-.688,4.722-1.174,9.26-.718,14.03.424,4.436,1.313,8.738,2.981,12.877,1.617,4.012,3.779,7.666,6.918,10.68,3.72,3.573,8.239,6.672,13.022,8.601,1.002.404,2.197-.44,2.46-1.397.314-1.142-.391-2.054-1.397-2.46h0Z"/><path class="g" d="M104.675,188.617c4.497-1.043,8.972-2.216,13.253-3.964,1.994-.814,3.949-1.715,5.868-2.694,2.22-1.133,4.562-2.244,6.549-3.758,2.112-1.61,4.014-3.658,5.4-5.928,1.402-2.296,2.049-4.874,2.511-7.499.99-5.618.819-11.256.385-16.918-.779-10.157-2.063-20.361-4.812-30.191-1.384-4.948-3.161-9.804-5.445-14.411-2.086-4.205-4.56-8.272-8.011-11.5-7.466-6.985-17.415-10.737-26.828-14.276-1.011-.38-2.193.423-2.46,1.397-.308,1.122.382,2.079,1.397,2.46,7.879,2.962,16.047,6.061,22.758,11.274,7.104,5.518,10.964,14.2,13.665,22.566,2.961,9.173,4.469,18.759,5.368,28.335.478,5.087.947,10.227.668,15.339-.145,2.655-.531,5.281-1.18,7.861-.588,2.337-1.794,4.3-3.414,6.072-1.9,2.079-4.122,3.365-6.58,4.683-2.066,1.108-4.163,2.17-6.32,3.091-4.443,1.898-9.139,3.116-13.834,4.206-2.507.582-1.446,4.439,1.063,3.857h0Z"/><path class="g" d="M114.601,150.08c.023-11.003.232-22.004.234-33.007,0-2.574-4-2.578-4,0-.002,11.003-.211,22.004-.234,33.007-.005,2.574,3.995,2.578,4,0h0Z"/><path class="g" d="M24.117,117.074c.253,12.119.163,24.255.037,36.375-.043,4.153-.104,8.305-.192,12.457-.055,2.575,3.945,2.575,4,0,.296-13.953.35-27.915.243-41.87-.018-2.321-.039-4.641-.088-6.962-.054-2.57-4.054-2.579-4,0h0Z"/><path class="g" d="M110.988,184.33c.679,7.098,1.435,14.188,2.056,21.291.139,1.592.288,3.185.402,4.779.066.925-.045,1.819-1.058,2.138-.724.229-2.212.166-3.208.226-1.638.099-3.276.184-4.915.252-5.593.231-11.395.502-16.935-.468-2.792-.489-5.607-1.11-8.031-2.643-2.402-1.519-4.472-3.793-5.846-6.274-1.337-2.415-1.863-5.133-2.416-7.809-.189-.915-.368-1.832-.536-2.751-.127-.693-.161-1.462-.546-2.073-.995-1.579-3.422-1.763-4.719-.465-1.043,1.043-1.013,3.412-1.285,4.791-.296,1.498-.592,3.009-1.009,4.479-.701,2.472-1.94,4.754-3.714,6.619-4.125,4.337-10.429,5.888-16.197,6.479-3.138.322-6.298.454-9.452.485-1.51.015-3.021.004-4.531-.037-.795-.021-1.589-.051-2.383-.09-.654-.032-1.737.024-2.223-.125-1-.306-.947-1.293-.861-2.313.114-1.352.229-2.704.345-4.056.287-3.331.582-6.662.884-9.992.631-6.946,1.285-13.89,2.038-20.824.117-1.075-1.003-2-2-2-1.178,0-1.883.921-2,2-.731,6.736-1.369,13.482-1.984,20.23-.296,3.245-.584,6.49-.865,9.736-.125,1.441-.248,2.883-.37,4.324-.12,1.419-.222,2.666.432,3.999,1.624,3.31,5.465,3.002,8.583,3.097,3.61.11,7.229.065,10.835-.152,6.508-.392,13.84-1.317,19.327-5.156,2.978-2.084,5.452-4.907,6.919-8.246.66-1.502,1.131-3.024,1.496-4.619.211-.922.404-1.848.587-2.776.12-.61.236-1.22.346-1.832.068-.378.046-1.308.223-1.599l-.718.718-1.187-.499c.056.32.113.64.172.96.086.47.175.939.267,1.407.169.867.347,1.732.535,2.595.257,1.18.511,2.369.862,3.525.908,2.987,2.515,5.705,4.622,8.001,2.036,2.218,4.43,3.991,7.218,5.129,2.728,1.114,5.72,1.634,8.634,1.988,5.877.713,11.905.429,17.801.129,1.451-.074,2.9-.16,4.35-.256,1.34-.089,2.574-.124,3.776-.795,3.049-1.701,2.792-4.847,2.541-7.823-.666-7.91-1.508-15.803-2.264-23.705-.103-1.075-.846-2-2-2-1.002,0-2.104.918-2,2h0Z"/><path class="i" d="M67.034,188.187v189.552c0,2.209,1.791,4,4,4h0c2.209,0,4-1.792,4-4.001,0-98.06,0-185.025,0-185.025"/><path class="g" d="M65.034,188.187v185.733c0,1.256-.042,2.52,0,3.776.149,4.447,4.888,7.56,8.934,5.278,1.043-.588,1.93-1.511,2.446-2.593.742-1.559.62-3.205.62-4.887,0-3.556,0-7.113,0-10.669,0-26.723,0-53.446,0-80.169,0-20.199,0-40.398,0-60.597,0-10.015,0-20.03,0-30.046,0-.433,0-.866,0-1.299,0-2.574-4-2.578-4,0,0,6.749,0,13.497,0,20.246,0,17.749,0,35.497,0,53.246,0,24.923,0,49.847,0,74.77,0,6.964,0,13.927,0,20.891,0,3.463,0,6.927,0,10.39,0,1.743.024,3.489,0,5.232-.014,1.024-.454,1.924-1.522,2.193-2.683.676-2.478-2.327-2.478-3.949v-187.546c0-2.574-4-2.578-4,0h0Z"/><path class="i" d="M77.2,165.323c-.05-.006-.101-.013-.151-.019-2.255-.291-3.747-.39-6.015-.232-2.743.19-4.736,2.016-6.306,3.778-1.013,1.137-5.056,7.472-5.972,10.028-.764,2.131-.333,3.55.657,4.567.519.533,1.34.742,2.083.749.91.009,1.722-.393,2.408-.982-.397,1.548.364,3.196,1.089,3.614.596.343,1.469.558,2.04.559.99,0,1.979-.247,2.662-.72-.114.861-.197,1.508-.197,1.508-.25,1.938.493,3.062,1.002,3.378.551.341,1.094.578,1.741.615,1.042.06,2.134-.058,2.989-.654.428-.298.812-.65,1.174-1.026.47,1.816.795,3.07.795,3.07.276,1.065,1.448,1.723,2.547,1.682s2.107-.642,2.924-1.378,1.493-1.615,2.282-2.382c.574-.558,1.227-1.064,1.99-1.305.644-.204,1.343-.128,2.005-.265,4.599-.953,7.708-2.383,7.702-6.421-2.501-6.197-4.584-11.839-6.78-18.212-4.616.405-8.684.547-12.67.05Z"/><path class="g" d="M88.256,163.406c-2.653.194-5.315.308-7.974.18-2.425-.117-4.821-.586-7.252-.587-2.509-.001-4.826.369-6.906,1.862-1.418,1.018-2.634,2.264-3.661,3.67-1.878,2.573-3.624,5.39-4.982,8.273-.841,1.786-1.467,3.771-.877,5.739.658,2.196,2.606,3.633,4.891,3.651,2.874.022,4.506-2.275,6.112-4.291,1.534-1.925,3.112-3.813,4.632-5.75.666-.849.828-2,0-2.828-.693-.693-2.158-.855-2.828,0-1.096,1.397-2.22,2.771-3.34,4.148-1.11,1.364-2.132,3.141-3.497,4.251-1.031.839-2.228.432-2.208-.941.019-1.281.638-2.154,1.226-3.254,1.288-2.41,2.744-4.75,4.325-6.978.194-.273.207-.263.115-.156.193-.224.39-.443.593-.658.56-.593,1.148-1.176,1.824-1.637,1.642-1.118,3.465-1.154,5.394-1.086,2.3.081,4.571.502,6.874.591,2.515.097,5.03-.016,7.538-.199,2.552-.186,2.572-4.188,0-4h0Z"/><path class="g" d="M75.203,178.053c-2.033,2.07-3.94,4.26-5.981,6.323-.221.223-.437.462-.676.666-.131.111.195-.072-.115.056-.566.233.371-.074-.247.108-.202.059-.401.112-.607.153.265-.051-.122.012-.217.017-.18.01-.379-.025-.555-.001-.171.023.281.078-.069-.023-.182-.053-.363-.096-.544-.155-.42-.138.138.16-.189-.096.183.143.233.246.057.02-.113-.145.13.292-.011-.043-.038-.091-.198-.496-.101-.186-.06-.191-.116-.379-.154-.575.063.333,0-.247-.002-.299l.01-.214c-.026.174-.013.137.037-.112.237-1.017-.315-2.214-1.397-2.46-1.022-.233-2.206.307-2.46,1.397-.491,2.107.088,4.912,2.155,6.011,1.924,1.023,4.411.982,6.311-.085.794-.446,1.424-1.161,2.052-1.808s1.24-1.298,1.852-1.954c1.221-1.308,2.425-2.632,3.678-3.908.734-.747.801-2.093,0-2.828-.792-.727-2.045-.798-2.828,0h0Z"/><path class="g" d="M80.439,182.78c-.933,1.106-1.89,2.193-2.84,3.285-.956,1.1-1.853,2.292-2.905,3.302-.125.12-.253.237-.384.349-.183.154-.213.177-.088.068l-.163.106c-.074.037-.534.221-.221.12-.185.06-.372.105-.562.145.375-.079-.199.014-.247.017-.198.009-.393.004-.59.002-.513-.004.234.093-.281-.038-.49-.124.172.141-.279-.102-.053-.028-.352-.253-.427-.251.12-.003.413.386.153.081.142.167.261.341.062.058l-.06-.105c-.092-.188-.08-.148.037.12-.077-.061-.113-.339-.134-.422-.014-.054-.086-.495-.054-.225.031.254-.007-.313-.006-.381,0-.247.022-.492.049-.737.116-1.043-1.003-2.045-2-2-1.183.053-1.875.882-2,2-.206,1.847.307,3.887,1.872,5.018,1.82,1.315,4.496,1.258,6.452.292,1.685-.832,2.856-2.569,4.055-3.956,1.13-1.306,2.276-2.599,3.39-3.919.674-.799.842-2.056,0-2.828-.743-.682-2.108-.854-2.828,0h0Z"/><path class="g" d="M94.578,184.374c-.141.571-.36,1.032-.626,1.32-.477.516-.813.726-1.502,1.074-1.555.784-3.383,1.092-5.114,1.311-2.317.293-3.755,1.939-5.263,3.551-.4.427-2.604,2.423-2.945,1.394-.807-2.431-4.671-1.39-3.857,1.063.936,2.821,4.042,3.776,6.643,2.631,1.215-.535,2.204-1.414,3.1-2.38.739-.796,1.522-1.977,2.624-2.278.629-.172,1.349-.13,1.995-.257.589-.116,1.175-.261,1.753-.42,1.094-.302,2.182-.69,3.19-1.216,1.899-.991,3.34-2.63,3.859-4.729.617-2.499-3.239-3.565-3.857-1.063h0Z"/><path class="g" d="M106.558,155.644c-5.933,1.998-11.894,3.933-17.748,6.154-.963.365-1.773,1.359-1.397,2.46,2.553,7.478,5.298,14.882,8.3,22.192.41.998,1.329,1.708,2.46,1.397.945-.26,1.81-1.455,1.397-2.46-3.002-7.31-5.747-14.714-8.3-22.192l-1.397,2.46c5.854-2.222,11.815-4.156,17.748-6.154,2.427-.817,1.386-4.682-1.063-3.857h0Z"/><path class="j" d="M42.092,14.554c-6.255,4.548-8.336,10.337-8.829,22.004-.178,4.205.363,7.58,1.617,12.332.443-.155.967-.26,1.585-.281,1.071-.038,2.322.298,3.251,1.19l.028.027c-.092-.827-.182-1.652-.182-1.652-.581-5.311,1.411-10.616,4.251-15.141.894-1.424,1.875-2.796,2.967-4.075,2.252-2.639,4.974-4.877,7.999-6.575,0,0,5.283-2.254,16.116-2.254,6.505,0,10.444,2.723,14.468,6.271,1.854,1.635,3.314,2.966,4.844,4.871,1.435,1.787,3.122,4.775,3.803,7.456l3.237,11.073c.929-.893,2.18-1.228,3.251-1.19.691.024,1.264.152,1.739.339,1.581-7.157,2.259-13.712-.051-21.547-2.168-7.353-5.81-14.157-12.07-18.758-6.626-4.87-13.133-6.641-21.438-6.641-7.917,0-16.8,1.712-21.467,8.268l-5.12,4.285Z"/><path class="g" d="M41.562,48.173c-.483-5.006,1.258-9.741,3.864-13.948s6.06-7.66,10.363-10.117c2.235-1.276.222-4.734-2.019-3.454-4.887,2.79-8.841,6.778-11.798,11.552-2.939,4.744-4.955,10.32-4.41,15.967.104,1.075.845,2,2,2,1.001,0,2.104-.918,2-2h0Z"/><path class="g" d="M66.658,16.67c3.774-2.832,8.192-4.16,12.803-3.995,1.08.039,2-.947,2-2,0-1.116-.916-1.961-2-2-5.235-.187-10.62,1.388-14.822,4.541-.863.647-1.307,1.728-.718,2.736.497.85,1.867,1.37,2.736.718h0Z"/><path class="g" d="M70.633,22.127c3.422.114,6.848.022,10.268.195,3.139.159,6.455.419,9.263,1.949,2.261,1.232,4.283-2.221,2.019-3.454-3.223-1.756-6.867-2.221-10.483-2.45-3.684-.233-7.379-.117-11.067-.24-2.575-.086-2.572,3.915,0,4h0Z"/><path class="g" d="M83.949,27.813c4.78,4.211,8.967,8.659,10.629,15.003.652,2.488,4.511,1.433,3.857-1.063-.868-3.312-2.486-6.53-4.498-9.294-2.047-2.812-4.559-5.184-7.159-7.474-.81-.714-2.031-.798-2.828,0-.728.728-.814,2.111,0,2.828h0Z"/><path class="f" d="M46.795,10.47c5.955-6.635,13.87-8.47,21.671-8.47,8.183,0,15.355,2.323,21.884,7.194,1.459,1.089,4.317,3.743,6.168,6.423,3.998,3.913,7.188,12.463,6.95,20.941-.032,3.312-.281,7.1-1.282,10.947"/><path class="f" d="M34.635,47.505c-1-4.049-1.423-7.162-1.263-10.947.493-11.668,3.213-16.931,8.829-22.004"/><path class="g" d="M98.661,51.213c.64-.571,1.5-.706,2.317-.552.49.092.684.163,1.099.47-.276-.204.544.732.235.243.441.696.625,1.241.785,2.119.184,1.011.167,2.102.079,3.132-.152,1.774-.816,3.549-1.616,5.024-.988,1.822-2.48,3.707-4.759,3.412-1.073-.139-2,1.019-2,2,0,1.196.924,1.86,2,2,5.264.683,8.495-5.005,9.81-9.259,1.179-3.815,1.131-9.738-2.6-12.181-2.534-1.659-5.979-1.199-8.179.764-1.925,1.717.912,4.538,2.828,2.828h0Z"/><path class="g" d="M41.13,48.384c-2.071-1.848-4.987-2.279-7.517-1.121-1.812.829-2.923,2.542-3.434,4.418-1.173,4.308-.075,9.346,2.395,13.021,1.689,2.513,4.355,4.778,7.588,4.358,1.071-.139,2-.82,2-2,0-.973-.921-2.14-2-2-2.278.296-3.771-1.589-4.759-3.412-.802-1.479-1.463-3.248-1.616-5.024-.157-1.826-.056-3.799.864-5.252-.317.5.513-.449.235-.243.386-.285.55-.348.967-.442.862-.193,1.769-.082,2.448.524,1.915,1.709,4.754-1.11,2.828-2.828h0Z"/><path class="g" d="M48.938,11.278c2.965-4.065,7.91-5.924,12.702-6.748,5.086-.875,10.621-.812,15.658.317,5.362,1.202,10.491,3.912,14.415,7.777,3.855,3.797,6.406,8.691,8.075,13.795,2.197,6.719,2.249,13.399.882,20.29-.499,2.514,3.356,3.59,3.857,1.063,1.356-6.83,1.624-13.672-.277-20.435-1.681-5.985-4.419-11.788-8.627-16.416C87.129,1.582,74.14-1.212,62.018.454c-6.442.886-12.606,3.42-16.534,8.805-.637.873-.148,2.23.718,2.736,1.012.592,2.098.158,2.736-.718h0Z"/><path class="g" d="M36.454,46.973c-1.571-6.449-1.592-13.218-.156-19.711.987-4.464,3.079-8.242,6.803-10.981.869-.639,1.304-1.734.718-2.736-.501-.857-1.861-1.361-2.736-.718-4.472,3.291-7.316,7.646-8.571,13.063-1.686,7.277-1.679,14.904.086,22.147.609,2.5,4.467,1.441,3.857-1.063h0Z"/><path class="g" d="M62.871,74.555c1.844.974,3.828,1.393,5.915,1.38,2.19-.014,4.329-.477,6.074-1.836.829-.646.729-2.159,0-2.828-.88-.807-1.944-.689-2.828,0,.69-.537-.037-.004-.256.111-.169.089-.626.23,0,.02-.162.054-.319.123-.482.175-.205.066-.413.122-.623.171-.221.051-.52.048-.725.137.203-.088.316-.038.014-.008-.132.013-.265.024-.397.033-.319.021-.638.029-.958.027-.286-.002-.572-.011-.858-.031-.131-.009-.262-.019-.393-.033-.075-.007-.149-.016-.224-.025-.156-.019-.098-.011.176.023-.113.055-.519-.092-.645-.12-.206-.046-.411-.099-.614-.159-.176-.053-.348-.116-.522-.176-.453-.155.415.199.005.006-.216-.102-.429-.208-.64-.319-.925-.488-2.217-.265-2.736.718-.488.924-.27,2.215.718,2.736h0Z"/><path class="g" d="M67.526,60.937c.246.938.482,1.892.623,2.852l-.071-.532c.017.132.024.261.011.394l.071-.532c-.009.061-.023.119-.043.177l.202-.478c-.018.041-.037.076-.062.114l.313-.405c-.029.036-.057.063-.093.092l.405-.313c-.072.046-.148.084-.226.12l.478-.202c-.124.052-.248.09-.381.111l.532-.071c-.12.014-.237.013-.357,0l.532.071c-.135-.019-.267-.052-.402-.07-.266-.083-.532-.095-.798-.036-.266.012-.514.091-.744.237-.415.243-.811.718-.919,1.195-.117.512-.091,1.087.202,1.541.26.403.695.852,1.195.919.354.048.698.136,1.059.152.578.025,1.108-.156,1.622-.395.647-.299,1.156-.911,1.328-1.606.147-.594.087-1.074-.014-1.67-.155-.919-.368-1.83-.604-2.731-.127-.483-.49-.944-.919-1.195s-1.061-.357-1.541-.202c-.484.157-.951.457-1.195.919-.253.48-.342,1.007-.202,1.541h0Z"/><path class="g" d="M57.509,74.881c.328-.677.725-1.317,1.183-1.914l-.313.405c.122-.157.247-.31.377-.461.195-.181.333-.396.414-.644.125-.238.183-.495.172-.771.01-.275-.047-.532-.172-.771-.081-.248-.219-.463-.414-.644-.381-.35-.882-.61-1.414-.586-.507.023-1.071.187-1.414.586-.731.849-1.383,1.77-1.873,2.779-.146.23-.225.477-.237.744-.06.266-.048.532.036.798.062.26.181.487.358.68.141.218.328.389.561.515.464.245,1.026.368,1.541.202.474-.153.97-.455,1.195-.919h0Z"/><path class="g" d="M83.683,72.862c-.49-1.01-1.141-1.93-1.873-2.779-.181-.195-.396-.333-.644-.414-.238-.125-.495-.183-.771-.172-.275-.01-.532.047-.771.172-.248.081-.463.219-.644.414-.35.381-.61.882-.586,1.414l.071.532c.095.339.266.633.514.883.13.15.255.304.377.461l-.313-.405c.459.596.855,1.237,1.183,1.914.126.233.297.42.515.561.193.177.42.296.68.358.266.083.532.095.798.036.266-.012.514-.091.744-.237.427-.275.803-.685.919-1.195l.071-.532c-.001-.361-.092-.697-.273-1.009h0Z"/><path class="g" d="M82.911,52.871c-1.304.074-2.601.095-3.905.01-.492-.032-1.074.246-1.414.586-.347.347-.608.916-.586,1.414.023.517.193,1.054.586,1.414.405.372.862.55,1.414.586,1.304.085,2.601.064,3.905-.01.531-.03,1.031-.203,1.414-.586.347-.347.608-.916.586-1.414-.023-.517-.193-1.054-.586-1.414-.378-.347-.884-.616-1.414-.586h0Z"/><path class="g" d="M54.052,56.871c1.304.074,2.601.095,3.905.01.533-.035,1.028-.2,1.414-.586.347-.347.608-.916.586-1.414-.023-.517-.193-1.054-.586-1.414-.377-.346-.886-.62-1.414-.586-1.304.085-2.601.064-3.905-.01-.494-.028-1.071.243-1.414.586-.347.347-.608.916-.586,1.414.023.517.193,1.054.586,1.414.404.371.863.555,1.414.586h0Z"/><path class="g" d="M95.104,63.532c-.308,1.478-.765,2.927-1.301,4.337-.193.508-.349.826-.58,1.401-.204.506.138-.279-.034.082-.063.131-.121.264-.184.395-.887,1.853-1.995,3.613-3.178,5.289-2.765,3.918-6.547,8.195-11.407,9.337-2.505.589-1.444,4.446,1.063,3.857,5.742-1.349,10.161-6.144,13.487-10.741,1.291-1.784,2.494-3.667,3.454-5.652.206-.425.39-.859.572-1.295.216-.517-.148.347.08-.183.149-.345.295-.691.434-1.041.607-1.53,1.115-3.112,1.451-4.724.524-2.512-3.331-3.586-3.857-1.063h0Z"/><path class="g" d="M38.419,64.494c2.466,10.814,10.604,22.604,22.29,24.366,1.067.161,2.15-.268,2.46-1.397.26-.945-.322-2.298-1.397-2.46-10.394-1.568-17.31-11.981-19.497-21.573-.572-2.509-4.43-1.447-3.857,1.063h0Z"/></g></svg>