<svg id="b" xmlns="http://www.w3.org/2000/svg" width="443.657" height="302.536" xmlns:xlink="http://www.w3.org/1999/xlink" viewBox="0 0 443.657 302.536" style="color: initial !important;"><defs><style>.e{clip-path:url(#d);}.f{fill:none;}.f,.g,.h,.i,.j{stroke-width:0px;}.g{fill:#211715;}.h{fill:#645d5c;}.i{fill:#ffffff;}.j{fill:#c6c6c6;}</style><clipPath id="d"><path class="f" d="M381.835,180.351c-35.476,0-59.998,27.477-59.998,59.629,0,35.974,25.049,60.748,60,60.748,36.298,0,60-25.005,60-60.748,0-32.371-24.651-59.629-60.002-59.629Z"/></clipPath></defs><g id="c"><path class="i" d="M121.838,61.425c0,23.532-10.272,42.414-27.654,52.56-8.178,4.776-17.922,7.62-28.914,8.106-1.128.054-2.274.078-3.432.078-.954,0-1.896-.018-2.832-.06-10.824-.414-20.622-3.252-28.926-8.082C12.692,103.929,1.838,85.101,1.838,61.425,1.838,29.271,26.36,1.791,61.838,1.791s60,27.258,60,59.634Z"/><path class="i" d="M56.136,90.318c-2.371-1.662-4.378-3.172-5.891-4.31,0,0-.065-.049-.183-.139.057-.441.104-.882.141-1.34-1.904-1.18-3.668-2.8-5.364-4.83-2.771-3.316-4.348-6.888-5.219-9.848-1.188.307-2.473-.134-3.326-.832-1.923-1.574-2.721-3.768-3.208-5.203-.688-2.026-.731-5.299.293-7.076.343-.595,1.141-1.609,3.015-1.675.659-.023,1.403.129,2.051.524,15.079-1.945,23.678-9.068,32.56-16.181.901,2.349,2.687,5.659,3.607,7.201,1.76,2.952,6.835,8.507,10.647,9.444.745-.742,1.765-1.019,2.637-.988,1.874.066,2.672,1.08,3.015,1.675,1.024,1.777.981,5.051.293,7.076-.487,1.435-1.285,3.629-3.208,5.203-.792.648-1.959,1.076-3.074.887l-.295-.05c-.354,1.169-.791,2.315-1.058,2.871-.747,2.028-4.73,8.92-9.855,12.056.018.206.039.411.074.616-2.42,1.898-7.738,5.852-10.749,8.315h-1.815c-1.828-1.155-3.536-2.308-5.089-3.396Z"/><path class="i" d="M100.195,102.793c-.462-.515-.94-1.02-1.433-1.516-5.201-5.24-15.091-8.745-21.697-10.282-.755-2.602-1.222-4.034-1.671-5.519-.158-.521-.787-.724-1.213-.384-2.187,1.743-7.954,6.018-11.14,8.624h-1.815c-4.619-2.92-8.477-5.823-10.98-7.706-.412-.31-.997-.133-1.182.348-.329.853-1.17,2.967-1.781,4.492-6.597,1.446-16.986,5.007-22.369,10.429-1.722,1.74-3.27,3.588-4.596,5.538,2.959,2.743,6.225,5.158,9.762,7.212,8.304,4.83,18.102,7.668,28.926,8.082.936.042,1.878.06,2.832.06,1.158,0,2.304-.024,3.432-.078,10.992-.486,20.736-3.33,28.914-8.106,3.396-1.982,6.521-4.298,9.348-6.918-.993-1.481-2.11-2.909-3.337-4.274Z"/><path class="h" d="M39.009,56.023c-.747-.718-1.753-.988-2.615-.957-.276.01-.528.04-.76.086-.391-1.399-1.008-4.055-1.008-4.055-.616-2.606-.699-8.176-.025-11.44,2.465-12.098,14.638-21.698,27.393-20.991,3.855-.216,7.652.516,11.149,1.973,6.203,2.573,11.457,7.444,14.321,13.389.475.981.885,1.987,1.224,3.017.13.395.25.794.358,1.196.125.466.241.941.333,1.415.774,3.73,1.723,11.057.042,15.736-.406-.18-.907-.305-1.526-.327-.861-.03-1.868.239-2.615.957l-2.947-1.359c-3.15-2.084-6.388-5.817-7.723-8.055-.92-1.543-2.708-4.856-3.606-7.202-8.605,6.892-16.944,13.793-31.169,15.986l-.828.63Z"/><path class="g" d="M37.37,54.673c-1.467-5.339-2.15-10.985-.571-16.4,1.762-6.04,6.097-11.171,11.478-14.347,2.728-1.61,5.714-2.712,8.842-3.228,1.562-.258,3.118-.259,4.695-.241,2.063.024,4.046.009,6.081.434,7.044,1.472,13.378,5.988,17.027,12.196,1.953,3.322,2.892,6.996,3.334,10.798.421,3.626.632,7.526-.571,11.029-.754,2.196,2.723,3.139,3.471.957,1.188-3.461,1.149-7.32.811-10.921-.355-3.782-1.019-7.521-2.57-11.011-3.221-7.249-9.623-12.864-17.048-15.529-4.126-1.481-8.525-1.765-12.873-1.552-3.595.176-7.075,1.086-10.347,2.569-6.443,2.922-11.896,8.318-14.688,14.836-2.936,6.851-2.48,14.326-.545,21.367.613,2.231,4.087,1.284,3.471-.957h0Z"/><path class="g" d="M83.243,53.11c-4.961-3.333-8.326-8.682-10.461-14.071-.358-.903-1.204-1.535-2.214-1.257-.86.236-1.617,1.305-1.257,2.214,2.526,6.375,6.336,12.339,12.115,16.222.807.542,1.994.156,2.463-.646.518-.885.163-1.919-.646-2.463h0Z"/><path class="g" d="M69.672,38.183c-4.202,3.367-8.413,6.742-13.087,9.445-5.342,3.089-11.135,5.065-17.226,6.029-.968.153-1.485,1.35-1.257,2.214.27,1.026,1.259,1.408,2.214,1.257,6.38-1.01,12.492-3.157,18.086-6.392,4.936-2.854,9.377-6.452,13.815-10.008.765-.613.627-1.905,0-2.546-.741-.758-1.791-.604-2.546,0h0Z"/><path class="h" d="M34.388,74.253c.021-.296.049-.581.083-.857.25-1.885.802-3.353,1.56-4.612.834.829,2.27,1.408,3.588,1.07.87,2.957,2.448,6.53,5.219,9.846,1.924,2.303,3.935,4.077,6.139,5.281-.287,1.586-1.78,3.137-3.919,4.218-1.21.612-2.626,1.073-4.147,1.305-3.614.549-7.034-.257-9.255-1.619-.38-.23-.779-.513-1.022-.894-.084-.137-.155-.288-.159-.447-.004-.066.013-.323.093-.349,1.991-.672,2.535-2.73,2.438-4.818-.102-2.097-.633-4.243-.668-6.34-.009-.633.009-1.227.05-1.784Z"/><path class="g" d="M34.112,68.532c-1.396,2.815-1.794,5.975-1.468,9.085.171,1.636.519,3.261.568,4.908.026.879.003,2.072-.728,2.698-.488.417-1.098.458-1.468,1.062-.408.665-.408,1.475-.134,2.183.541,1.396,2.084,2.175,3.382,2.732,2.819,1.21,5.912,1.502,8.935,1.065,3.347-.485,6.706-2.043,8.693-4.858.561-.795.142-2.002-.646-2.463-.901-.527-1.901-.151-2.463.646-1.56,2.211-4.841,3.141-7.403,3.267-1.397.069-2.778-.049-4.131-.41-.564-.15-1.127-.33-1.659-.571-.309-.14-.609-.302-.901-.476-.139-.08-.274-.165-.407-.255-.238-.272-.234-.203.011.207l-.246.908.078-.16-1.076.827c3.398-1.303,4.016-4.656,3.64-7.936-.411-3.58-1.148-7.256.533-10.645,1.026-2.069-2.078-3.895-3.108-1.817h0Z"/><path class="j" d="M59.006,122.109c-10.824-.414-20.622-3.252-28.926-8.082v-16.662c4.932-2.934,11.046-5.022,15.756-6.18,2.04,5.862,9.498,22.422,13.17,30.924Z"/><path class="j" d="M94.19,97.725c-.006,5.73-.006,11.586-.006,16.26-8.178,4.776-17.922,7.62-28.914,8.106,3.648-8.442,11.01-24.81,13.11-30.774,4.824,1.236,10.962,3.396,15.81,6.408Z"/><path class="f" d="M42.923,93.403c2.058-.942,4.41-2.04,4.494-2.07,2.196-.792,2.106-2.202,2.388-3.786.186-1.074.324-2.052.408-3.126"/><path class="f" d="M73.7,84.643c.084.972.216,1.944.384,2.904.276,1.584.192,2.994,2.382,3.786.108.036,3.468,1.632,5.346,2.52"/><path class="g" d="M57.536,76.1c1.514.799,3.141,1.147,4.854,1.136,1.819-.012,3.574-.406,5.021-1.533.338-.263.527-.868.527-1.273,0-.441-.196-.969-.527-1.273-.343-.315-.793-.549-1.273-.527-.509.023-.875.217-1.273.527.627-.489.028-.043-.167.059-.152.08-.54.203.045-.003-.13.046-.256.099-.387.141-.356.115-.725.152-1.084.247.175-.047.345-.041.062-.013-.106.011-.213.019-.319.026-.256.017-.513.023-.77.022-.23-.001-.46-.009-.69-.025-.105-.007-.211-.016-.316-.026-.06-.006-.12-.013-.18-.02-.143-.017-.079-.009.192.026-.134-.068-.369-.063-.519-.097-.166-.037-.331-.079-.494-.128-.142-.042-.28-.093-.42-.141-.387-.133.401.189.049.024-.174-.082-.345-.167-.515-.257-.832-.439-1.995-.239-2.463.646-.439.832-.243,1.993.646,2.463h0Z"/><path class="g" d="M61.192,65.033c.198.755.388,1.522.501,2.294l-.064-.479c.013.106.019.21.009.317l.064-.479c-.007.049-.018.095-.035.142l.181-.43c-.015.033-.03.061-.05.092l.281-.364c-.024.029-.046.051-.075.074l.364-.281c-.058.037-.119.067-.182.096l.43-.181c-.1.042-.199.072-.306.089l.479-.064c-.097.011-.191.011-.287,0l.479.064c-.108-.015-.215-.041-.323-.056-.239-.075-.479-.086-.718-.032-.24.011-.463.082-.669.214-.373.218-.729.647-.827,1.076-.105.461-.082.978.181,1.387l.281.364c.225.223.489.377.794.463.302.041.595.116.903.129.501.022.956-.137,1.401-.344.562-.261,1.007-.802,1.156-1.406.128-.519.077-.924-.011-1.445-.125-.739-.296-1.472-.486-2.197-.114-.435-.441-.85-.827-1.076s-.954-.321-1.387-.181c-.436.141-.856.411-1.076.827-.228.432-.307.907-.181,1.387h0Z"/><path class="g" d="M49.663,58.37c-.383,1.245-.133,4.109,2.225,4.353,3.118-.019,3.283-3.481,2.234-5.109-.859-1.333-3.386-1.887-4.459.757Z"/><path class="g" d="M74.628,58.37c.383,1.245.134,4.109-2.225,4.353-3.118-.019-3.284-3.481-2.234-5.11.859-1.333,3.386-1.887,4.459.757Z"/><path class="g" d="M83.329,67.68c-.25,1.197-.62,2.37-1.054,3.513-.173.455-.229.536-.47,1.135-.176.437.158-.283-.01.024-.056.103-.099.214-.149.32-.718,1.501-1.615,2.925-2.573,4.283-2.211,3.133-5.313,6.581-9.13,7.478-2.254.53-1.3,4.002.957,3.471,4.698-1.104,8.309-5.021,11.03-8.781,1.046-1.445,2.019-2.969,2.797-4.577.173-.359.328-.724.481-1.092.187-.448-.161.35.046-.105.132-.291.252-.589.37-.886.491-1.239.903-2.52,1.175-3.825.198-.951-.278-1.945-1.257-2.214-.893-.245-2.015.301-2.214,1.257h0Z"/><path class="g" d="M37.424,68.555c2.009,8.812,8.655,18.422,18.177,19.858.96.145,1.935-.241,2.214-1.257.234-.85-.29-2.068-1.257-2.214-8.359-1.261-13.904-9.631-15.663-17.344-.515-2.258-3.987-1.302-3.471.957h0Z"/><path class="g" d="M86.554,57.296c.498-.445,1.104-.504,1.677-.395.471.089.429.072.838.359-.24-.168-.011.008.083.103.097.097.274.418.037.024.686,1.14.805,2.544.669,4.127-.11,1.282-.678,2.847-1.273,3.944-.768,1.417-1.901,2.878-3.662,2.649-.966-.125-1.8.917-1.8,1.8,0,1.077.831,1.674,1.8,1.8,4.323.561,6.994-4.089,8.075-7.588.976-3.157.9-8.001-2.179-10.013-2.114-1.381-4.978-.991-6.81.644-.726.648-.66,1.886,0,2.546.721.721,1.818.649,2.546,0h0Z"/><path class="g" d="M40.282,54.75c-1.733-1.546-4.163-1.904-6.278-.932-1.5.689-2.427,2.114-2.85,3.668-.956,3.512-.068,7.624,1.946,10.621,1.393,2.072,3.601,3.946,6.268,3.6.964-.125,1.8-.738,1.8-1.8,0-.875-.829-1.926-1.8-1.8-1.761.229-2.894-1.231-3.662-2.649-.6-1.107-1.163-2.654-1.273-3.944-.069-.807-.061-1.838.056-2.468.072-.391.166-.792.316-1.162-.104.255.115-.211.129-.234.052-.09.114-.174.167-.263-.226.377-.058.081.037-.024.048-.052.386-.315.083-.103.393-.275.34-.246.732-.336.625-.142,1.264-.091,1.783.372.725.647,1.831.715,2.546,0,.658-.658.728-1.896,0-2.546h0Z"/><path class="g" d="M64.417,83.26c-.118-1.686,1.168-2.817,3.45-2.897,2.297-.081,3.461.835,3.53,2.16.07,1.336-.995,2.952-3.293,3.103-2.075.136-3.591-.853-3.687-2.366Z"/><path class="g" d="M85.02,69.833c-1.765,3.18-3.828,6.321-6.9,8.38-3.416,2.289-7.074,3.227-11.144,3.382-2.309.088-2.321,3.689,0,3.6,4.676-.179,9.032-1.241,12.961-3.874,3.604-2.415,6.112-5.924,8.192-9.672,1.125-2.027-1.983-3.845-3.108-1.817h0Z"/><path class="g" d="M66.217,83.26c-.008-.135-.003-.268-.001-.403.005-.322-.099.482-.025.173.012-.049.02-.098.033-.147.018-.072.043-.141.065-.212.045-.143.151-.172-.097.228.076-.122.149-.251.224-.374-.292.48-.144.181.015.033.312-.29-.369.238.002-.004.115-.075.236-.136.358-.201.125-.066.248-.043-.193.078.085-.023.168-.063.253-.09.15-.048.302-.088.456-.12.092-.02.207-.022.295-.054-.027.01-.472.046-.169.025.411-.028.819-.047,1.231-.015.06.005.146.024.208.02-.45.031-.28-.043-.087-.005.149.029.298.065.443.11.055.017.108.037.163.055.316.099-.412-.208-.129-.055.122.066.238.143.359.21.18.1-.359-.337-.168-.128.03.033.069.062.101.095.045.045.087.112.136.151-.386-.304-.231-.336-.164-.204.028.055.065.119.099.17.082.124-.013.26-.101-.251.02.115.069.272.107.384-.153-.454-.04-.429-.036-.24.001.056.006.111.006.167,0,.045-.004.089-.004.134,0,.216-.133.221.034-.208-.04.104-.047.232-.08.339-.014.045-.031.09-.045.135-.09.284.232-.449.053-.13-.055.098-.105.197-.166.291-.092.142-.259.251.101-.117-.036.037-.067.081-.101.119-.09.1-.189.188-.287.28-.237.222.381-.252.1-.078-.073.045-.144.095-.218.138-.153.089-.601.218-.059.054-.155.047-.304.108-.461.148-.066.017-.132.032-.198.046-.157.032-.44.004.058.002-.201,0-.402.032-.604.032-.188,0-.386-.043-.571-.031.456-.028.281.042.088.004-.093-.019-.186-.04-.278-.065-.074-.02-.148-.043-.221-.067-.043-.014-.086-.029-.128-.045-.173-.068-.111-.042.186.079-.124-.085-.275-.151-.406-.227-.146-.086-.184-.226.135.112-.054-.057-.12-.104-.176-.16-.012-.012-.164-.165-.158-.173.006-.007.305.443.102.115-.033-.053-.058-.115-.093-.167-.071-.102.171.487.051.111-.016-.049-.03-.099-.042-.149-.105-.434.03.395.005.086-.075-.936-.774-1.846-1.8-1.8-.911.041-1.881.795-1.8,1.8.085,1.052.459,2.041,1.245,2.777.728.681,1.676,1.137,2.661,1.286,2.252.341,4.522-.252,5.892-2.166,1.097-1.532,1.027-3.68-.202-5.1-1.368-1.58-3.868-1.693-5.768-1.328-2.185.42-3.959,2.221-3.828,4.531.053.938.79,1.845,1.8,1.8.929-.042,1.857-.793,1.8-1.8Z"/><path class="i" d="M88.14,70.945c-3.355,0-5.897-3.115-5.897-8.623s3.072-8.252,5.898-8.252c2.874,0,6.7,2.267,6.7,8.252,0,5.206-2.96,8.623-6.702,8.623Z"/><path class="g" d="M88.14,69.145c-.881-.014-1.678-.329-2.352-1.022-.398-.409-.579-.689-.899-1.331-.26-.52-.451-1.166-.599-1.844-.636-2.91-.227-6.361,1.814-8.271.054-.051.355-.276.114-.102.092-.066.187-.13.283-.19.097-.061.778-.391.45-.261.246-.098.499-.163.756-.224.483-.115-.36.003.131-.02.147-.007.292-.012.439-.009.123.003.812.114.357.017.24.051.478.096.715.165.117.034.777.301.429.14.266.122.523.262.77.419.115.073.229.149.339.23-.24-.176-.011-.006.031.03.219.189.428.39.621.606.285.317.689.923.947,1.551.507,1.235.649,3.011.501,4.49s-.719,3.125-1.627,4.099c-.97,1.041-1.963,1.505-3.22,1.526-2.314.037-2.321,3.637,0,3.6,4.099-.066,7.133-3.191,8.093-7.026s.385-8.687-2.77-11.391c-2.396-2.053-5.903-2.793-8.707-1.094-3.678,2.228-4.67,6.986-4.204,10.976.49,4.2,2.883,8.459,7.589,8.535,2.317.037,2.318-3.563,0-3.6Z"/><path class="g" d="M31.88,114.027v-15.09c0-2.316-3.6-2.32-3.6,0v15.09c0,2.316,3.6,2.32,3.6,0h0Z"/><path class="g" d="M95.984,113.985v-14.61c0-2.316-3.6-2.32-3.6,0v14.61c0,2.316,3.6,2.32,3.6,0h0Z"/><path class="g" d="M21.872,107.723c2.955-4.287,6.589-7.566,11.203-9.962,4.177-2.169,8.679-3.707,13.24-4.841,2.247-.559,1.295-4.031-.957-3.471-4.979,1.238-9.901,2.976-14.44,5.382-5.016,2.66-8.938,6.409-12.154,11.075-1.318,1.912,1.801,3.714,3.108,1.817h0Z"/><path class="g" d="M77.901,93.053c4.545,1.175,9.029,2.742,13.176,4.96,4.504,2.409,8.03,5.737,10.901,9.963,1.294,1.906,4.415.106,3.108-1.817-3.13-4.608-6.954-8.391-11.854-11.072-4.501-2.462-9.415-4.224-14.373-5.505-2.245-.58-3.202,2.891-.957,3.471h0Z"/><path class="g" d="M66.824,122.999c2.471-5.72,5.01-11.411,7.487-17.128,1.242-2.865,2.474-5.735,3.666-8.621.936-2.265,1.952-4.558,2.606-6.925.618-2.236-2.854-3.191-3.471-.957-.641,2.321-1.633,4.568-2.55,6.789-1.136,2.754-2.315,5.49-3.501,8.223-2.433,5.608-4.922,11.191-7.346,16.802-.388.899-.259,1.921.646,2.463.756.453,2.078.245,2.463-.646h0Z"/><path class="g" d="M60.56,121.2c-2.446-5.656-4.955-11.285-7.407-16.939-2.104-4.852-4.575-9.783-6.001-14.893-.622-2.228-4.096-1.282-3.471.957.652,2.337,1.645,4.596,2.57,6.834,1.188,2.877,2.416,5.737,3.653,8.593,2.497,5.763,5.055,11.5,7.548,17.264.389.899,1.691,1.085,2.463.646.928-.528,1.029-1.576.646-2.463h0Z"/><path class="g" d="M69.639,99.06c-1.721-2.243-3.423-4.525-5.327-6.618v2.546c2.612-2.131,5.215-4.074,7.913-6.132.594-.453,1.187-.906,1.778-1.362.317-.245.635-.49.951-.737.099-.078.227-.15.31-.244.202-.145.115-.123-.26.068-.439.285-.851.166-1.235-.358-.068-.13-.08-.136-.036-.018.025.083.051.167.077.25.052.169.104.338.156.507.111.358.222.717.333,1.075.303.984.6,1.97.89,2.958.651,2.218,4.126,1.274,3.471-.957-.326-1.112-.662-2.221-1.005-3.329-.286-.926-.47-2.082-1.158-2.804-1.061-1.115-2.581-.878-3.683-.013-.249.195-.498.391-.748.586-.159.123-.161.125-.007.006-.088.068-.175.135-.263.202-.162.125-.324.249-.487.373-3.192,2.445-6.427,4.84-9.543,7.383-.778.635-.601,1.885,0,2.546,1.698,1.867,3.229,3.889,4.764,5.89.591.77,1.549,1.18,2.463.646.758-.443,1.241-1.687.646-2.463h0Z"/><path class="g" d="M57.605,101.046c1.579-2.055,3.148-4.14,4.893-6.059.797-.877.647-2.186-.364-2.827-2.368-1.501-4.682-3.083-6.955-4.725-.867-.627-1.729-1.262-2.586-1.902-.999-.745-1.969-1.717-3.332-1.414-1.918.426-2.422,3.011-3.062,4.621-.447,1.123-.894,2.246-1.343,3.368-.361.903.394,1.977,1.257,2.214,1.026.282,1.852-.351,2.214-1.257.366-.914.731-1.828,1.095-2.743.283-.711.566-1.423.847-2.135.116-.294.232-.587.347-.881.042-.106.117-.233.135-.346.11-.273-.034-.09-.432.547-.972-.157-1.255-.105-.849.155.599.602,1.431,1.075,2.114,1.58.844.625,1.693,1.244,2.548,1.854,2.025,1.445,4.084,2.84,6.186,4.172l-.364-2.827c-1.951,2.145-3.692,4.49-5.456,6.787-.593.772-.119,2.016.646,2.463.928.543,1.869.128,2.463-.646h0Z"/><path class="g" d="M120.038,61.425c-.031,12.525-3.061,25.065-10.146,35.516-7.039,10.383-17.759,17.662-29.79,21.026-14.275,3.992-30.541,3.271-44.103-2.906-10.943-4.985-19.911-13.411-25.495-24.066-5.774-11.019-7.844-24.034-6.497-36.357,1.178-10.783,5.438-21.334,12.247-29.795,6.94-8.624,16.315-15.073,26.871-18.418,11.498-3.643,24.172-3.807,35.77-.503,10.675,3.041,20.272,9.173,27.481,17.616,7.107,8.325,11.614,18.752,13.112,29.576.381,2.752.544,5.534.551,8.311.006,2.316,3.606,2.321,3.6,0-.031-11.829-3.27-23.614-9.652-33.606-6.268-9.813-15.377-17.73-26.044-22.427C76.274.254,63.197-1.157,50.644.924c-11.833,1.961-22.991,7.419-31.697,15.685C10.54,24.592,4.584,35.049,1.846,46.303c-3.032,12.463-2.293,26.094,1.946,38.192,4.155,11.858,11.893,22.188,22.354,29.197,12.838,8.601,28.854,11.53,44.072,9.812,13.865-1.565,27.166-7.261,36.891-17.431,8.932-9.34,14.123-21.576,15.833-34.299.461-3.434.686-6.886.694-10.351.006-2.317-3.594-2.32-3.6,0Z"/><path class="i" d="M381.835,180.351c-35.476,0-59.998,27.477-59.998,59.629,0,35.974,25.049,60.748,60,60.748,36.298,0,60-25.005,60-60.748,0-32.371-24.651-59.629-60.002-59.629Z"/><g class="e"><path class="i" d="M334.838,299.592c.787-3.334,2.607-7.739,4.46-10.598,1.53-2.361,4.482-4.772,6.838-6.269,5.084-3.224,11.029-4.953,16.25-7.003,4.106,3.438,11.673,6.222,19.562,6.245,7.842-.023,15.367-2.775,19.489-6.185,5.185,2.021,11.067,3.748,16.105,6.942,2.356,1.498,5.307,3.908,6.838,6.269,1.853,2.859,3.673,7.264,4.46,10.598h-94Z"/><path class="i" d="M405.345,236.046c.76-.73,1.783-1.004,2.659-.973,1.906.067,2.717,1.098,3.066,1.703,1.042,1.806.998,5.135.298,7.195-.495,1.459-1.306,3.69-3.262,5.29-.887.726-2.234,1.179-3.466.825-.872,3.041-2.463,6.722-5.275,10.145-1.855,2.258-3.637,3.795-5.665,4.937,0,2.194,0,3.647,0,3.647,0,.645,0,1.348.238,1.975.32.825.749,1.539,1.441,2.097,1.464,1.179,2.969,1.743,4.822,2.44l1.21.477c-4.126,3.399-11.636,6.14-19.464,6.163-7.774-.023-15.235-2.727-19.38-6.095.671-.264,1.387-.546,1.387-.546,1.853-.697,3.358-1.261,4.822-2.44.691-.558,1.121-1.272,1.441-2.097.238-.627.238-1.33.238-1.975,0,0,0-1.167-.002-3.097-2.27-1.244-4.333-3.088-6.305-5.487-2.802-3.41-4.392-7.078-5.266-10.113-1.199.293-2.488-.154-3.347-.857-1.955-1.6-2.767-3.831-3.262-5.29-.699-2.06-.743-5.388.298-7.195.349-.605,1.16-1.636,3.066-1.703.876-.031,1.899.243,2.659.973,0,0-7.029-21.69,22.486-21.69s24.563,21.69,24.563,21.69Z"/><path class="h" d="M408.863,217.11c-1.165-3.561-3.074-6.709-5.849-8.931l-3.127-3.279c-3.547-4.677-9.314-7.213-17.553-7.574-10.717-.363-18.629,4.434-22.131,8.9l.718.742c-7.269,6.309-9.915,17.595-6.39,28.274.32-.093.686-.154,1.105-.169.876-.031,1.899.243,2.659.973l3.76-3.157c2.822-3.144,7.802-7.883,11.297-9.716.41-.215.936.076,1.102.761.16.662.16,1.164.108,1.64-.079.722.622,1.247,1.217.917,2.495-1.386,6.94-4.175,10.093-5.504l4.674.574c1.505.654,2.649,1.283,4.305,2.708,2.837,2.441,5.558,5.791,6.762,8.822l3.731,2.956c.76-.73,1.783-1.004,2.659-.973.48.017.891.095,1.242.212,1.444-5.711,1.483-12.473-.383-18.174Z"/><path class="g" d="M361.906,277.623c5.538,4.249,13.15,6.15,20.041,6.144s14.496-1.89,20.041-6.144c.777-.596,1.17-1.542.646-2.463-.435-.764-1.693-1.236-2.463-.646-9.974,7.653-26.473,7.653-36.448,0-.777-.596-2.008-.114-2.463.646-.552.921-.121,1.874.646,2.463h0Z"/><path class="g" d="M391.9,265.794v2.429c0,1.014-.037,2.074.302,3.045.667,1.91,2.063,3.238,3.804,4.201,1.957,1.082,4.168,1.772,6.248,2.592.878.346,2.014-.379,2.214-1.257.236-1.036-.317-1.843-1.257-2.214l-2.042-.806c-.334-.132-.668-.26-1.003-.387-.379-.144-.758-.289-1.132-.444.328.136-.195-.088-.258-.116-.174-.079-.347-.162-.518-.248-.342-.172-.677-.359-1.001-.564-.142-.09-.281-.182-.418-.279-.093-.065-.185-.132-.276-.201.132.102.12.089-.037-.039-.119-.112-.231-.224-.345-.341-.133-.158-.139-.161-.017-.007-.061-.086-.12-.174-.175-.264-.084-.136-.161-.276-.233-.418-.048-.097-.094-.194-.137-.293.077.183.076.167-.003-.047-.003-.011-.124-.566-.076-.238-.035-.239-.033-.488-.037-.729-.007-.439-.001-.878-.001-1.316v-2.061c0-.942-.828-1.844-1.8-1.8s-1.8.791-1.8,1.8h0Z"/><path class="g" d="M368.655,266.34v2.198c0,.424.004.848-.03,1.271.026-.319-.016.076-.044.183-.027.108-.061.215-.1.319.085-.19.085-.191.001-.004-.156.315-.317.624-.529.906.244-.325-.069.052-.108.092-.044.045-.508.441-.245.236-.591.46-1.253.834-1.926,1.159-.168.081-.34.153-.508.234-.117.051-.098.044.058-.022-.101.042-.202.084-.304.125-.368.149-.74.29-1.112.43-.287.108-.573.22-.858.332l-2.014.793c-.873.344-1.579,1.221-1.257,2.214.274.847,1.276,1.626,2.214,1.257,2.005-.789,4.116-1.466,6.022-2.468,1.631-.857,3.055-2.029,3.797-3.751s.541-3.66.541-5.503c0-.942-.828-1.844-1.8-1.8s-1.8.791-1.8,1.8h0Z"/><path class="g" d="M361.477,207.498c4.206-5.276,11.185-7.944,17.771-8.335,7.044-.418,14.847,1.163,19.366,7.009.599.775,1.913.618,2.546,0,.767-.751.591-1.781,0-2.546-3.752-4.854-9.577-7.072-15.502-7.821-6.877-.869-14.05.241-20.117,3.683-2.484,1.409-4.823,3.223-6.61,5.464-.61.766-.734,1.795,0,2.546.621.635,1.941.759,2.546,0h0Z"/><path class="g" d="M356.227,234.638c-2.9-9.115-1.466-19.831,5.968-26.397,1.74-1.537-.814-4.075-2.546-2.546-8.344,7.37-10.157,19.643-6.894,29.9.7,2.2,4.177,1.26,3.471-.957h0Z"/><path class="g" d="M401.742,209.452c7.147,5.851,7.833,16.853,5.801,25.223-.546,2.251,2.924,3.211,3.471.957,2.312-9.526,1.401-22.071-6.727-28.725-1.778-1.456-4.34,1.076-2.546,2.546h0Z"/><path class="g" d="M356.684,248.764c1.995,8.988,8.678,18.886,18.387,20.403.959.15,1.936-.245,2.214-1.257.235-.854-.291-2.063-1.257-2.214-8.546-1.335-14.123-10.008-15.873-17.888-.502-2.261-3.973-1.304-3.471.957h0Z"/><path class="g" d="M403.358,247.807c-.865,3.898-2.507,7.636-4.976,10.791-2.432,3.107-5.393,5.304-9.144,6.533-2.192.718-1.253,4.196.957,3.471,4.358-1.428,7.918-3.905,10.769-7.505s4.868-7.835,5.866-12.333c.501-2.257-2.969-3.221-3.471-.957h0Z"/><path class="g" d="M377.15,256.292c1.534.81,3.184,1.162,4.92,1.151,1.841-.012,3.619-.409,5.084-1.55.338-.263.527-.868.527-1.273,0-.441-.196-.969-.527-1.273-.343-.315-.793-.549-1.273-.527-.509.023-.875.217-1.273.527.626-.488.019-.038-.176.065-.152.08-.543.204.039,0-.132.046-.26.1-.394.143-.362.116-.739.151-1.102.251.18-.049.335-.04.055-.012-.108.011-.216.02-.325.027-.261.017-.522.023-.783.022-.234-.001-.468-.009-.701-.025-.107-.007-.214-.016-.321-.027-.061-.006-.122-.013-.183-.02-.143-.017-.08-.009.188.025-.118-.073-.387-.067-.527-.098-.169-.037-.336-.081-.502-.13-.144-.043-.285-.095-.427-.144-.39-.134.397.188.043.021-.177-.083-.351-.17-.523-.261-.832-.439-1.995-.239-2.463.646-.439.832-.243,1.993.646,2.463h0Z"/><path class="g" d="M380.881,245.057c.201.767.394,1.547.51,2.333l-.064-.479c.014.108.02.214.009.322l.064-.479c-.008.05-.019.097-.035.145l.181-.43c-.015.034-.031.062-.051.093l.281-.364c-.024.029-.047.052-.076.075l.364-.281c-.059.038-.121.068-.185.098l.43-.181c-.102.042-.203.074-.311.091l.479-.064c-.098.012-.194.011-.292,0l.479.064c-.11-.015-.218-.042-.329-.057-.239-.075-.479-.086-.718-.032-.24.011-.463.082-.669.214-.373.218-.729.647-.827,1.076-.105.461-.082.978.181,1.387l.281.364c.225.223.489.377.794.463.304.041.6.117.91.13.504.022.962-.137,1.409-.345.565-.263,1.011-.805,1.161-1.412.129-.522.077-.93-.011-1.453-.127-.752-.301-1.496-.494-2.233-.114-.435-.441-.85-.827-1.076s-.954-.321-1.387-.181c-.436.141-.856.411-1.076.827-.228.432-.307.907-.181,1.387h0Z"/><path class="g" d="M369.129,238.291c-.39,1.266-.136,4.178,2.263,4.426,3.17-.019,3.338-3.54,2.271-5.195-.874-1.355-3.443-1.919-4.534.769Z"/><path class="g" d="M394.513,238.291c.39,1.266.136,4.178-2.262,4.426-3.17-.019-3.339-3.54-2.272-5.195.874-1.355,3.442-1.919,4.534.769Z"/><path class="g" d="M359.569,234.773c-1.751-1.563-4.208-1.924-6.347-.943-1.518.697-2.456,2.138-2.884,3.711-.97,3.564-.068,7.735,1.975,10.776,1.411,2.099,3.646,3.996,6.347,3.646.964-.125,1.8-.738,1.8-1.8,0-.875-.829-1.926-1.8-1.8-1.803.234-2.965-1.261-3.75-2.709-.617-1.138-1.184-2.692-1.299-4.026-.136-1.588-.018-3.048.684-4.212-.303.502.453-.368.133-.14.383-.273.364-.257.752-.344.653-.147,1.306-.092,1.842.386.725.647,1.831.715,2.546,0,.658-.658.728-1.896,0-2.546h0Z"/><path class="g" d="M406.618,237.319c.512-.457,1.132-.522,1.735-.41.463.087.459.081.859.368-.239-.171.003.022.091.11.095.095.279.421.042.03.706,1.164.821,2.619.684,4.212-.114,1.327-.686,2.896-1.299,4.026-.785,1.448-1.946,2.943-3.75,2.709-.966-.125-1.8.917-1.8,1.8,0,1.077.831,1.674,1.8,1.8,4.382.569,7.086-4.148,8.181-7.693.988-3.196.917-8.109-2.201-10.147-2.137-1.397-5.035-1.003-6.888.651-.726.648-.66,1.886,0,2.546.721.721,1.818.649,2.546,0h0Z"/><path class="g" d="M389.638,223.114c2.428,1.063,4.135,2.442,5.955,4.336.937.974,1.771,1.965,2.462,2.949.383.546.745,1.108,1.075,1.688.15.264.294.531.43.802.079.158.153.319.23.478.165.343-.064-.177.089.201.352.869,1.214,1.581,2.214,1.257.84-.272,1.636-1.28,1.257-2.214-1.152-2.843-2.968-5.342-5.072-7.561-1.97-2.079-4.188-3.89-6.823-5.044-.86-.377-1.973-.281-2.463.646-.412.779-.275,2.059.646,2.463h0Z"/><path class="g" d="M363.329,234.161c1.656-1.835,3.414-3.58,5.257-5.226.916-.818,1.851-1.62,2.832-2.359.437-.329.883-.647,1.339-.949.253-.167.509-.331.769-.487.238-.143.734-.185.257-.219l-.908-.246c-.17-.349-.203-.355-.098-.017.018.208.021.416.01.624-.001.366-.037.693.051,1.064.207.868.879,1.584,1.709,1.884,1.432.517,2.724-.51,3.901-1.196,2.722-1.586,5.432-3.248,8.332-4.494.9-.387,1.084-1.693.646-2.463-.529-.929-1.575-1.027-2.463-.646-2.646,1.137-5.132,2.625-7.615,4.075-.591.345-1.181.691-1.774,1.031l-.244.139c-.663.285-.319.583,1.032.896.116-.205.029-.703.015-.914-.102-1.526-.841-3.243-2.593-3.337-1.227-.066-2.411.886-3.371,1.557-1.178.824-2.305,1.725-3.398,2.658-2.206,1.885-4.288,3.925-6.232,6.079-1.549,1.716.989,4.27,2.546,2.546h0Z"/><path class="g" d="M336.573,300.071c.727-2.978,1.857-5.877,3.328-8.565,1.521-2.779,3.751-4.924,6.355-6.706,5.409-3.701,11.822-5.369,17.82-7.827.906-.371,1.526-1.193,1.257-2.214-.225-.854-1.316-1.625-2.214-1.257-6.514,2.67-13.551,4.465-19.329,8.647-2.784,2.015-5.223,4.347-6.903,7.371-1.662,2.991-2.974,6.269-3.785,9.594-.549,2.25,2.922,3.21,3.471.957h0Z"/><path class="g" d="M430.573,299.114c-.797-3.265-2.078-6.478-3.691-9.425-1.696-3.099-4.154-5.482-6.997-7.54-5.778-4.182-12.815-5.978-19.329-8.647-.907-.372-1.969.403-2.214,1.257-.295,1.028.362,1.847,1.257,2.214,5.998,2.458,12.411,4.126,17.82,7.827,2.54,1.738,4.759,3.833,6.261,6.536,1.52,2.735,2.681,5.695,3.422,8.734.549,2.25,4.021,1.297,3.471-.957h0Z"/></g><path class="g" d="M381.835,178.551c-13.424.036-26.783,4.005-37.558,12.129-10.133,7.64-17.62,18.344-21.399,30.458-3.902,12.505-3.745,26.389-.049,38.927,3.467,11.76,10.379,22.347,20.103,29.866,9.974,7.711,22.247,11.764,34.773,12.48,12.824.734,26.071-1.747,37.249-8.233,10.248-5.946,18.342-15.163,23.067-26.014,5.156-11.841,6.785-25.346,4.84-38.1-1.908-12.517-7.741-24.369-16.607-33.422-9.075-9.266-21.147-15.306-33.947-17.273-3.469-.533-6.964-.807-10.473-.817-2.317-.006-2.32,3.594,0,3.6,12.712.034,25.182,3.777,35.433,11.383,9.538,7.076,16.589,17.311,20.092,28.631,3.643,11.77,3.516,24.719.22,36.56-3.022,10.856-9.082,20.682-17.851,27.824-9.058,7.379-20.568,11.284-32.132,12.163-12.234.931-24.778-1.115-35.586-7.095-9.996-5.531-17.889-14.143-22.708-24.486-5.157-11.07-6.866-24.166-4.999-36.219,1.829-11.801,7.167-22.942,15.5-31.53,8.649-8.914,20.071-14.585,32.311-16.509,3.212-.505,6.468-.712,9.718-.721,2.316-.006,2.321-3.606,0-3.6Z"/><path class="i" d="M297.432,238.643l-24.594-8.198v-24.904c0-11.046-8.954-20-20-20H81.838c-11.046,0-20,8.954-20,20v70c0,11.046,8.954,20,20,20h171c11.046,0,20-8.954,20-20v-24.905l24.594-8.198c1.823-.608,1.823-3.187,0-3.795Z"/><path class="g" d="M297.911,236.907c-7.172-2.391-14.345-4.782-21.517-7.172l-3.077-1.026,1.321,1.736v-13.199c0-4.446.305-9.012-.075-13.449-.764-8.936-7.019-16.692-15.661-19.201-2.545-.739-5.132-.856-7.75-.856H82.489c-4.895,0-9.655,1.317-13.607,4.281-5.677,4.257-8.834,10.825-8.844,17.894-.012,8.49,0,16.981,0,25.471v35.464c0,2.81-.006,5.619,0,8.429.016,7.353,3.547,14.2,9.642,18.353,3.836,2.615,8.323,3.708,12.918,3.708h5.404c7.839,0,15.679,0,23.518,0h133.272c4.883,0,10.229.47,14.909-1.105,8.583-2.889,14.612-10.933,14.924-19.993.151-4.375.012-8.777.012-13.154v-12.452l-1.321,1.736c8.059-2.686,16.141-5.314,24.18-8.06,1.02-.348,1.969-.814,2.551-1.783,1.342-2.236.101-4.704-2.136-5.621-.907-.372-1.969.403-2.214,1.257-.295,1.028.362,1.847,1.257,2.214.1.041.006.277-.144.371-.353.222-.909.303-1.302.434l-5.678,1.893-14.061,4.687-3.41,1.137c-.757.252-1.321.914-1.321,1.736v12.826c0,4.361.199,8.772-.027,13.13-.437,8.445-6.943,15.48-15.205,16.918-1.665.29-3.374.231-5.06.231H82.754c-3.931,0-7.655-.844-10.985-3.034-5.302-3.488-8.131-9.417-8.131-15.673v-25.338c0-11.735,0-23.47,0-35.205,0-2.858-.004-5.717,0-8.575.009-6.508,3.188-12.592,8.826-15.978,3.2-1.922,6.721-2.597,10.396-2.597h168.035c1.989,0,3.947-.014,5.909.431,8.271,1.877,14.173,9.311,14.234,17.769.03,4.233,0,8.468,0,12.701,0,4.068,0,8.135,0,12.203,0,.826.565,1.484,1.321,1.736,7.172,2.391,14.345,4.782,21.517,7.172l3.077,1.026c2.203.734,3.148-2.741.957-3.471Z"/><path class="i" d="M361.838,6.98h-171c-11.046,0-20,8.954-20,20v24.904l-24.594,8.198c-1.823.608-1.823,3.187,0,3.795l24.594,8.198v24.904c0,11.046,8.954,20,20,20h171c11.046,0,20-8.954,20-20V26.98c0-11.046-8.954-20-20-20Z"/><path class="g" d="M361.838,5.18h-160.599c-3.328,0-6.657-.004-9.985,0-3.975.004-7.867.922-11.324,2.921-6.177,3.573-10.205,10.049-10.817,17.135-.283,3.274-.075,6.637-.075,9.917v16.731l1.321-1.736c-7.716,2.572-15.432,5.144-23.148,7.716-1.629.543-3.334,1.043-3.931,2.899-.799,2.483.873,4.312,3.083,5.049l12.408,4.136c3.863,1.288,7.725,2.575,11.588,3.863l-1.321-1.736v16.849c0,2.558-.003,5.116,0,7.673.006,4.236,1.066,8.397,3.348,11.992,4.106,6.47,11.215,10.179,18.828,10.19,2.066.003,4.133,0,6.199,0h161.952c3.168,0,6.277-.075,9.337-1.105,8.935-3.008,14.908-11.47,14.937-20.863.011-3.59,0-7.18,0-10.769,0-14.365,0-28.73,0-43.095v-14.433c0-1.606-.022-3.184-.255-4.783-.742-5.106-3.395-9.929-7.331-13.273-3.988-3.387-8.983-5.233-14.214-5.278-2.317-.02-2.319,3.58,0,3.6,9.99.086,18.125,8.217,18.2,18.211.022,2.979,0,5.96,0,8.939v57.877c0,1.033.007,2.066,0,3.099-.026,4.06-1.306,8.017-3.808,11.238-3.688,4.748-9.246,7.037-15.151,7.037h-167.426c-2.275,0-4.542.077-6.781-.431-4.836-1.097-9.081-4.138-11.637-8.394-1.858-3.093-2.597-6.496-2.597-10.072v-24.207c0-.826-.565-1.483-1.321-1.736-7.356-2.452-14.711-4.904-22.067-7.356-.528-.176-2.209-.493-2.494-.821-.178-.205-.045-.295.111-.393.353-.222.909-.303,1.302-.434l12.619-4.206c3.51-1.17,7.019-2.34,10.529-3.51.757-.252,1.321-.914,1.321-1.736v-22.847c0-1.208-.032-2.424.062-3.629.257-3.306,1.505-6.49,3.436-9.173,3.391-4.712,8.981-7.419,14.742-7.456,2.574-.016,5.149,0,7.724,0h152.9c3.3,0,6.607.062,9.907,0,.143-.003.287,0,.43,0,2.316,0,2.32-3.6,0-3.6Z"/></g></svg>