<svg id="b" xmlns="http://www.w3.org/2000/svg" width="364.093" height="415.742" viewBox="0 0 364.093 415.742" style="color: initial !important;"><defs><style>.d{fill:#3d8dcc;}.e{fill:#d9d9d9;}.f{fill:#ffffff;}.g{fill:none;}.h{fill:#a98a75;}.i{fill:#7abee6;}.j{fill:#211715;}.k{fill:#c6c6c6;}.l{fill:#645d5c;}.m{fill:#febe69;}</style></defs><g id="c"><path class="f" d="M82.138,413.741c-3.385,0-6.124-.017-8.794-1.455-2.167-1.167-3.633-3.421-3.655-5.889-.027-2.927-.031-4.502.216-7.145.514-5.507,10.972-5.272,14.961-3.161,1.652.874,4.43,2.598,6.567,3.889,3.115,1.881,5.319,2.861,7.528,5.861.95,1.29.95,3.317.403,5.028-.499,1.561-2.597,2.872-4.528,2.872h-12.698Z"/><path class="f" d="M56.25,413.741c3.385,0,6.124-.017,8.794-1.455,2.167-1.167,3.633-3.421,3.655-5.889.027-2.927.031-4.502-.216-7.145-.514-5.507-10.972-5.272-14.961-3.161-1.652.874-4.43,2.598-6.567,3.889-3.115,1.881-5.319,2.861-7.528,5.861-.95,1.29-.95,3.317-.403,5.028.499,1.561,2.597,2.872,4.528,2.872h12.698Z"/><path class="f" d="M124.87,200.709c-.056-.122-.118-.245-.185-.369-1.549-2.862-5.443-1.966-8.097-1.743-3.283.276-6.532.834-9.765,1.459-1.663.321-3.389.673-4.747,1.882-1.791,1.595-2.728,5.148-.364,7.274,4.198.959,7.009,1.778,11.197,2.742.393.091.822.209,1.134.444,3.34-1.992,13.625-5.628,10.826-11.689Z"/><path class="f" d="M25.46,199.208c-1.654-.258-3.315-.471-4.985-.611-2.654-.223-6.548-1.119-8.097,1.743-3.401,6.283,7.234,10.027,10.644,12.061.31-.238.738-.357,1.132-.447,4.188-.964,6.999-1.783,11.194-2.747,2.367-2.121,1.43-5.674-.361-7.268-1.358-1.209-3.084-1.561-4.747-1.882-1.589-.307-3.181-.598-4.78-.847Z"/><path class="j" d="M82.138,411.741c-2.602-.001-5.428.105-7.785-1.182-2.553-1.394-2.681-3.721-2.677-6.34.002-1.243.036-2.484.125-3.723.037-.525.073-1.074.149-1.38.078-.309.207-.537.262-.61.803-1.059,2.306-1.463,3.735-1.675,1.765-.261,3.658-.172,5.397.189,1.982.411,3.118,1.104,4.92,2.174,2.372,1.409,4.76,2.808,7.103,4.265,1.768,1.099,4.354,2.808,4.365,5.12.016,3.299-2.868,3.163-5.386,3.163h-10.21c-2.574,0-2.578,4,0,4h10.756c1.723,0,3.326.025,4.929-.697,1.528-.689,2.838-1.9,3.414-3.498,2.683-7.45-5.534-11.311-10.666-14.429-2.289-1.391-4.586-3.002-7.197-3.723-2.288-.632-4.796-.845-7.156-.593-2.321.248-4.718.85-6.466,2.493-2.047,1.924-1.992,4.815-2.056,7.425-.047,1.908-.212,3.975.294,5.834.487,1.788,1.574,3.399,3.016,4.553,3.151,2.521,7.282,2.634,11.133,2.636,2.574.001,2.578-3.999,0-4Z"/><path class="j" d="M56.25,415.741c3.401-.002,6.932-.072,9.963-1.82,3.249-1.874,4.474-5.085,4.495-8.67.009-1.587-.008-3.172-.122-4.756-.098-1.361-.195-2.701-.906-3.902-1.159-1.957-3.381-3.034-5.533-3.495-2.444-.524-4.948-.474-7.405-.077s-4.512,1.454-6.64,2.717c-2.798,1.661-5.758,3.227-8.401,5.125-2.694,1.935-5.233,4.551-5.036,8.099.107,1.931.701,3.765,2.228,5.026,1.56,1.288,3.362,1.752,5.354,1.752h12.002c2.574,0,2.578-4,0-4h-9.093c-1.834,0-5.145.622-6.204-1.403-1.259-2.408.869-4.59,2.629-5.919,2.102-1.587,4.537-2.807,6.786-4.171,1.825-1.106,3.689-2.405,5.481-2.932,1.699-.5,3.463-.667,5.231-.595,1.581.065,3.297.323,4.539,1.237.313.231.639.657.757.949.341.852.272,2.325.308,3.449.086,2.677.526,5.833-1.844,7.693s-5.763,1.691-8.59,1.693c-2.574.001-2.578,4.001,0,4Z"/><path class="i" d="M52.026,393.953c-1.691-16.336-2.878-51.588-3.297-64.119-.202-6.041-.112-11.573.487-17.413,5.116,0,10.316,0,10.316,0h29.742c.601,5.84.69,11.372.489,17.413-.434,12.994-2.657,50.722-3.88,66.055-5.398.12-10.985.206-16.689.206s-12.04.045-16.93-.006c-.08-.669-.159-1.383-.237-2.137Z"/><path class="j" d="M47.805,307.674c-1.711,12.262-1.02,24.559-.557,36.878.444,11.825.94,23.651,1.685,35.461.338,5.364.697,10.738,1.332,16.076.129,1.083.812,1.988,2,2,11.204.111,22.418.045,33.62-.201,1.145-.025,1.913-.9,2-2,.839-10.548,1.475-21.113,2.104-31.674s1.252-21.201,1.68-31.81c.335-8.287.168-16.506-.979-24.731-.149-1.071-1.516-1.656-2.46-1.397-1.153.317-1.547,1.386-1.397,2.46,1.668,11.955.875,24.016.249,36.016-.612,11.722-1.305,23.441-2.069,35.154-.347,5.329-.704,10.658-1.128,15.982l2-2c-11.201.246-22.416.311-33.62.201l2,2c-1.235-10.389-1.664-20.894-2.164-31.339-.509-10.639-.909-21.283-1.27-31.928-.273-8.058-.285-16.082.832-24.086.149-1.068-.26-2.148-1.397-2.46-.935-.257-2.31.32-2.46,1.397h0Z"/><path class="j" d="M67.194,330.635c0,16.888,0,33.776,0,50.665v14.405c0,2.574,4,2.578,4,0,0-16.888,0-33.776,0-50.665v-14.405c0-2.574-4-2.578-4,0h0Z"/><path class="f" d="M30.697,210.339c1.436-.364,2.914-.733,4.621-1.126,2.539,6.117,3.504,8.96,5.332,15.125l8.77,19.419h37.556l9.438-19.419c1.828-6.165,2.793-9.008,5.332-15.125,4.178.962,6.986,1.779,11.164,2.741.58.133,1.237.327,1.483.869.177.389.059.837-.016,1.257-2.705,15.209-5.817,23.538-10.681,36.751-3.117,8.467-12.229,22.488-12.229,22.488l-.944,1.452c.223,13.109.447,24.549.67,37.65h-31.662s-7.527,0-13.38,0c.221-12.958.442-24.292.662-37.224-.69-1.061-1.221-1.878-1.221-1.878,0,0-9.112-14.02-12.229-22.488-4.864-13.213-7.976-21.542-10.681-36.751-.075-.421-.193-.868-.016-1.257.247-.541.904-.735,1.483-.869,2.472-.569,4.464-1.087,6.544-1.615Z"/><path class="l" d="M84.702,258.484c4.679,1.678,8.749-2.562,8.719-5.837-.018-2.003-.343-3.548-1.011-5.481-.832-2.41-1.53-6.733-1.647-15.482-.072-3.252.001-5.826-.103-7.296-.363-5.096-3.106-11.755-6.846-15.172-.991-.905-1.678-1.517-2.453-2.101-1.121-.846-2.567-1.641-3.502-2.027-2.532-1.047-5.519-1.823-9.519-1.823-6.557,0-12.394,3.378-14.984,5.858-4.297,4.113-7.022,11.627-6.678,21.988,0,7.022-.575,12.086-1.382,14.965-.548,1.97-1.017,5.251-1.037,7.252-.024,2.907,2.764,6.061,7.05,5.958l33.391-.801Z"/><path class="f" d="M57.686,257.525c.065-.048.137-.089.216-.121,1.071-.437,2.442-.996,2.509-1.02,1.554-.562,1.492-1.563,1.694-2.678.17-.995.203-1.651.255-2.242.858.32,1.737.556,2.628.708,1.286.219,2.594.351,3.962.382,1.369-.044,2.808-.118,4.295-.434.742-.158,1.459-.363,2.153-.621.05.582.085,1.232.252,2.208.202,1.115.14,2.116,1.694,2.678.066.024,1.442.585,2.508,1.02.632.258.832,1.066.385,1.582-2.729,3.145-7.021,4.81-11.36,4.951-4.339-.141-8.631-1.806-11.361-4.951-.392-.451-.287-1.126.168-1.461Z"/><path class="f" d="M85.939,229.484c1.666-.361,3.554.43,4.384,1.969.872,1.618.636,3.809-.364,5.407-.975,1.558-2.627,2.849-4.328,3.47,0,0-.085.031-.171.069-.667,2.021-1.815,4.387-3.745,6.6-2.469,2.83-5.238,4.434-8.469,5.121-1.487.316-2.926.39-4.295.434-1.369-.031-2.677-.164-3.962-.382-3.26-.554-6.362-2.24-8.862-5.046-1.959-2.198-3.134-4.559-3.823-6.576-1.841-.595-3.667-2.035-4.676-3.767-.949-1.629-1.117-3.826-.194-5.416.86-1.482,2.715-2.214,4.346-1.854,4.5-.727,17.699-7.676,23.355-13.035.649,2.139,1.433,3.971,3.749,7.092,1.617,2.18,4.609,4.723,6.801,5.977.084-.025.169-.046.255-.065Z"/><path class="j" d="M44.821,274.878c-.186,10.875-.392,21.749-.583,32.623-.041,2.335-.802,6.068,2.234,6.821,1.005.25,2.199.098,3.229.098,2.675,0,5.349,0,8.024,0,6.816,0,13.631,0,20.447,0,2.814,0,5.627,0,8.441,0,2.345,0,5.906.581,6.493-2.492.295-1.545.023-3.335-.005-4.908-.026-1.507-.053-3.013-.08-4.52-.054-3.034-.11-6.067-.165-9.101-.112-6.174-.224-12.348-.33-18.522-.044-2.571-4.044-2.579-4,0,.173,10.156.365,20.311.545,30.467.021,1.202.042,2.405.063,3.607.004.253-.123,1.854.034,1.953l.913-.484h-.106c-.084-.026-.199.008-.286,0-.793-.069-1.626,0-2.422,0-2.484,0-4.967,0-7.451,0-6.325,0-12.649,0-18.974,0-2.811,0-5.622,0-8.433,0-1.115,0-2.23,0-3.345,0-.405,0-.809,0-1.214,0-.031,0-.557-.009-.558,0l.443.242c.436.408.586.325.451-.248.121-.327.015-.877.021-1.219.199-11.439.417-22.878.613-34.317.044-2.575-3.956-2.575-4,0h0Z"/><path class="j" d="M102.47,206.936c-.393-1.313.021-2.797,1.119-3.661,1.277-1.004,3.147-1.176,4.689-1.467,3.588-.676,7.205-1.188,10.846-1.467.999-.076,2.278-.221,3.184.311.767.45,1.071,1.566,1.036,2.198-.035.624-.359,1.321-.901,1.952-.712.83-1.581,1.5-2.489,2.098-2.091,1.376-4.385,2.368-6.571,3.572-2.256,1.242-.24,4.697,2.019,3.454,2.423-1.334,4.98-2.414,7.242-4.03,2.408-1.721,4.864-4.178,4.697-7.386-.09-1.725-.825-3.561-2.159-4.695-1.399-1.188-3.218-1.547-5.014-1.525-4.467.054-9.044.913-13.415,1.748-2.382.455-4.878,1.048-6.548,2.957-1.662,1.898-2.319,4.577-1.592,7.004.737,2.46,4.599,1.412,3.857-1.063h0Z"/><path class="j" d="M38.45,207.999c.638-2.129.225-4.523-1.069-6.333-1.287-1.801-3.241-2.781-5.357-3.278-4.514-1.061-9.176-1.614-13.789-2.021-3.689-.326-7.342.794-8.316,4.794-.767,3.147.968,5.946,3.352,7.862,2.563,2.06,5.535,3.332,8.391,4.904,2.256,1.242,4.277-2.211,2.019-3.454-1.907-1.05-3.899-1.931-5.763-3.062-.957-.581-1.885-1.204-2.695-1.981-.681-.654-1.247-1.36-1.436-2.124-.031-.124-.096-.627-.085-.727.051-.488.251-1.1.56-1.494.614-.783,1.718-.805,2.633-.794,3.413.042,6.92.627,10.27,1.221,2.839.503,8.742,1.039,7.428,5.425-.74,2.471,3.119,3.527,3.857,1.063h0Z"/><path class="j" d="M98.342,224.87c1.529-5.146,3.277-10.165,5.332-15.125l-2.46,1.397c3.119.723,6.211,1.553,9.323,2.306.357.086,2.005.725,2.282.553l.147.046c-.418-.679-.618-.688-.601-.025-.184.327-.186,1.02-.256,1.393-.3,1.605-.62,3.207-.962,4.804-1.184,5.516-2.682,10.952-4.458,16.306-1.71,5.156-3.438,10.403-5.564,15.404-1.851,4.353-4.205,8.507-6.595,12.582-1.543,2.63-3.127,5.241-4.788,7.799-1.406,2.165,2.056,4.172,3.454,2.019,4.217-6.494,8.312-13.263,11.383-20.381,2.338-5.42,4.236-11.104,6.083-16.709,1.862-5.652,3.404-11.395,4.609-17.223.4-1.934.812-3.878,1.113-5.831.318-2.067-.685-3.483-2.647-4.087-1.849-.569-3.798-.915-5.675-1.392-1.924-.49-3.849-.973-5.784-1.422-1.153-.267-2.031.361-2.46,1.397-2.055,4.96-3.803,9.979-5.332,15.125-.735,2.473,3.125,3.529,3.857,1.063h0Z"/><path class="j" d="M42.578,223.807c-1.529-5.146-3.277-10.165-5.332-15.125-.427-1.032-1.295-1.667-2.46-1.397-3.42.792-6.807,1.714-10.223,2.521-1.379.326-2.886.636-3.62,2.007-.854,1.597.01,3.924.326,5.572,1.151,5.999,2.615,11.929,4.455,17.755,1.806,5.716,3.81,11.413,6.006,16.991,1.84,4.672,4.279,9.105,6.793,13.443,1.713,2.957,3.483,5.887,5.344,8.754,1.397,2.151,4.861.149,3.454-2.019-3.949-6.081-7.725-12.394-10.759-18.984-2.227-4.837-3.879-10.011-5.597-15.047-1.773-5.196-3.321-10.462-4.549-15.814-.4-1.744-.771-3.495-1.116-5.251-.178-.907-.35-1.815-.516-2.724l-.085-.469c.038-.544-.077-.619-.343-.224-.36.273-.348.325.035.158.256-.065.513-.126.77-.183,3.57-.847,7.113-1.802,10.688-2.63l-2.46-1.397c2.055,4.96,3.803,9.979,5.332,15.125.731,2.462,4.593,1.414,3.857-1.063h0Z"/><path class="j" d="M51.311,257.286c-1.966.001-4.055-.845-4.834-2.795-.672-1.681-.029-4.116.288-5.826.336-1.817.87-3.577,1.142-5.409.352-2.368.558-4.753.666-7.144.245-5.421-.205-10.813,1.154-16.128.921-3.602,2.518-7.162,5.316-9.697,6.783-6.145,18.823-6.988,25.921-.938,3.734,3.183,6.065,7.308,7.209,12.076.475,1.98.545,3.918.552,5.944.01,2.87.033,5.74.156,8.608.165,3.843.362,7.895,1.555,11.584.702,2.17,1.689,4.905.339,6.998-1.239,1.922-3.383,2.704-5.54,1.998-2.452-.802-3.503,3.06-1.063,3.857,5.046,1.649,10.955-2.07,11.245-7.505.137-2.569-.749-4.907-1.398-7.334-.421-1.575-.649-3.184-.81-4.795-.546-5.458-.162-10.936-.547-16.391-.387-5.491-2.644-11.191-6.249-15.363-7.689-8.899-21.322-9.953-31.067-3.9-3.935,2.444-6.606,5.965-8.319,10.238-2.22,5.534-2.284,11.324-2.354,17.188-.036,3.065-.158,6.15-.557,9.191-.329,2.507-1.099,4.914-1.461,7.415-.4,2.755-.819,5.66.8,8.122,1.751,2.662,4.72,4.007,7.858,4.005,2.574-.002,2.578-4.002,0-4h0Z"/><path class="j" d="M86.216,231.478c.067-.018.376-.056.425-.098-.268.032-.326.042-.171.029.072-.006.145-.01.217-.01.091-.002.38-.039.436.016-.09-.089-.396-.073-.028.006.143.031.283.069.422.114.281.092.193-.011-.002-.015.111.002.287.145.387.205.063.037.124.076.184.118.12.083.083.051-.111-.096.006-.008.311.282.324.295l.1.106c.142.167.129.146-.037-.062.084.052.152.231.198.312.04.068.077.138.111.209-.08-.207-.094-.242-.042-.105.093.289.164.571.232.867-.105-.457-.008.019-.004.127.007.167.005.335-.003.501-.005.113-.086.603,0,.138-.026.139-.051.277-.084.414-.039.165-.085.327-.138.488-.057.173-.12.335-.009.074-.132.308-.297.601-.481.881-.028.042-.356.492-.084.143-.105.135-.217.265-.332.392-.212.236-.438.459-.674.67-.108.097-.219.189-.33.282.321-.266-.075.052-.15.104-.283.196-.576.376-.879.539-.149.08-.303.152-.455.227-.384.191.295-.11-.137.053-.976.368-1.751,1.367-1.397,2.46.309.954,1.412,1.792,2.46,1.397,3.59-1.354,6.737-4.549,6.697-8.597-.02-2.059-.907-3.934-2.577-5.147-1.456-1.057-3.406-1.362-5.131-.894-1.009.274-1.729,1.435-1.397,2.46.335,1.034,1.378,1.691,2.46,1.397h0Z"/><path class="j" d="M52.66,227.681c-1.702-.52-3.681-.232-5.151.781-1.707,1.178-2.599,3.043-2.684,5.096-.167,4.058,2.958,7.299,6.486,8.758.97.401,2.241-.433,2.46-1.397.266-1.166-.358-2.031-1.397-2.46.436.18-.075-.045-.129-.072-.151-.076-.301-.157-.447-.241-.274-.158-.528-.343-.792-.516-.114-.084-.094-.067.06.05-.068-.054-.135-.109-.201-.166-.11-.094-.219-.19-.325-.288-.254-.237-.487-.49-.716-.751-.363-.412.2.315-.107-.135-.095-.14-.191-.278-.28-.422-.073-.119-.142-.24-.206-.363-.04-.074-.077-.149-.112-.224.077.196.09.226.037.091-.101-.294-.201-.584-.268-.889-.019-.088-.065-.605-.037-.135-.01-.169-.028-.334-.031-.504-.003-.168.011-.334.013-.501.005-.385-.058.183.002-.043.078-.293.133-.581.243-.865-.166.43.024-.012.079-.107.037-.065.076-.127.118-.189.083-.121.052-.084-.094.109-.012-.016.283-.307.299-.322l.107-.099c.168-.141.147-.127-.062.041.044-.08.233-.153.307-.196.052-.03.496-.257.218-.126-.273.128.108-.033.171-.053.14-.043.282-.072.424-.108.453-.114-.421.004.046-.003.146-.002.29-.002.436-.002.406,0-.38-.115.044,0,.14.038.282.068.421.111,1.001.306,2.225-.364,2.46-1.397.246-1.081-.325-2.133-1.397-2.46h0Z"/><path class="j" d="M83.532,239.867c-1.042,3.067-2.93,5.919-5.505,7.915-2.557,1.983-5.683,2.715-8.87,2.764-3.281.051-6.537-.714-9.227-2.637-2.676-1.914-4.627-4.831-5.705-7.91-.845-2.414-4.711-1.375-3.857,1.063,1.395,3.985,3.797,7.541,7.215,10.062,3.314,2.444,7.487,3.486,11.574,3.422,4.044-.063,7.954-1.068,11.198-3.548,3.335-2.55,5.69-6.114,7.034-10.068.83-2.443-3.032-3.491-3.857-1.063h0Z"/><path class="j" d="M73.037,233.609c-.02-.15-.216-1.653.835-2.715.689-.696,1.509-.743,1.767-.753.199-.008,1.497-.037,2.315,1.085.775,1.063.854,2.796-.073,3.962-.962,1.209-2.528,1.276-3.556.58-.925-.627-1.168-1.399-1.288-2.159Z"/><path class="j" d="M59.567,233.609c-.02-.15-.216-1.653.835-2.715.689-.696,1.509-.743,1.767-.753.199-.008,1.497-.037,2.315,1.085.775,1.063.854,2.796-.073,3.962-.962,1.209-2.528,1.276-3.556.58-.925-.627-1.168-1.399-1.288-2.159Z"/><path class="j" d="M73.72,215.065c-3.305,3.098-7.297,5.5-11.241,7.686-3.365,1.865-6.967,3.86-10.746,4.744-2.506.586-1.445,4.444,1.063,3.857,4.096-.958,8.051-3.124,11.701-5.147,4.241-2.35,8.499-4.982,12.05-8.311,1.882-1.764-.951-4.589-2.828-2.828h0Z"/><path class="j" d="M86.693,227.822c-1.321-.767-2.165-1.418-3.211-2.329-.58-.505-1.142-1.032-1.677-1.585-.255-.263-.504-.533-.746-.81-.105-.12-.209-.242-.311-.365-.019-.023-.385-.501-.139-.171-.908-1.218-1.766-2.486-2.461-3.84-.124-.241-.242-.484-.354-.731-.033-.071-.234-.564-.044-.089-.046-.116-.094-.232-.139-.349-.205-.528-.382-1.065-.548-1.606-.316-1.033-1.398-1.689-2.46-1.397-1.022.281-1.714,1.423-1.397,2.46,1.813,5.928,6.115,11.157,11.469,14.265.934.542,2.19.216,2.736-.718s.219-2.193-.718-2.736h0Z"/><path class="j" d="M60.359,251.494c-.059.693-.132,1.374-.245,2.061-.084.507-.01.729-.264.912-.483.348-1.263.513-1.814.738-.994.405-1.888.761-2.418,1.759-1.053,1.984.533,3.691,1.974,4.886,1.499,1.243,3.15,2.168,4.965,2.865,3.622,1.393,7.572,1.531,11.292.454,1.79-.518,3.555-1.3,5.083-2.375,1.397-.983,3.45-2.425,3.537-4.302.117-2.53-2.364-3.095-4.222-3.888-.576-.246-.443-.136-.546-.68-.152-.805-.234-1.615-.304-2.43-.218-2.546-4.22-2.569-4,0,.111,1.302.177,2.701.549,3.961.448,1.518,1.524,2.306,2.926,2.88.539.221,1.08.438,1.619.658.058.024.458.232.504.206l-.201-.684c.013-.684-.093-.871-.32-.558-.284.113-.634.631-.874.84-1.045.914-2.331,1.638-3.63,2.125-2.89,1.083-5.852,1.268-8.828.44-1.49-.415-2.878-1.048-4.155-1.923-.529-.362-1.01-.78-1.464-1.233-.045-.045-.307-.376-.361-.374.231-.008-.86,1.283-.232,1.3.333.009.97-.396,1.271-.518,1.351-.549,2.667-1.046,3.334-2.457.661-1.397.694-3.146.824-4.661.219-2.565-3.782-2.55-4,0h0Z"/><path class="f" d="M194.869,413.741c-3.385,0-6.124-.017-8.794-1.455-2.167-1.167-3.633-3.421-3.655-5.889-.027-2.927-.031-4.502.216-7.145.514-5.507,10.972-5.272,14.961-3.161,1.652.874,4.43,2.598,6.567,3.889,3.115,1.881,5.319,2.861,7.528,5.861.95,1.29.95,3.317.403,5.028-.499,1.561-2.597,2.872-4.528,2.872h-12.698Z"/><path class="f" d="M168.981,413.741c3.385,0,6.124-.017,8.794-1.455,2.167-1.167,3.633-3.421,3.655-5.889.027-2.927.031-4.502-.216-7.145-.514-5.507-10.972-5.272-14.961-3.161-1.652.874-4.43,2.598-6.567,3.889-3.115,1.881-5.319,2.861-7.528,5.861-.95,1.29-.95,3.317-.403,5.028.499,1.561,2.597,2.872,4.528,2.872h12.698Z"/><path class="f" d="M224.327,199.304c-1.397.227-2.789.483-4.178.751-1.663.321-3.389.673-4.747,1.882-1.448,1.289-2.338,3.857-1.377,5.918,5.584,1.222,8.797,2.197,13.896,3.371.337.078.699.174,1.002.338,4.267-2.162,12.067-5.718,9.087-11.225-1.549-2.862-5.443-1.966-8.097-1.743-1.872.157-3.734.406-5.587.707Z"/><path class="f" d="M139.383,199.303c-1.851-.301-3.711-.549-5.581-.706-2.654-.223-6.548-1.119-8.097,1.743-2.982,5.509,4.827,9.066,9.094,11.23.303-.168.666-.265,1.005-.343,5.096-1.173,8.308-2.147,13.884-3.371.964-2.058.074-4.628-1.375-5.918-1.358-1.209-3.084-1.561-4.747-1.882-1.391-.269-2.785-.525-4.183-.752Z"/><path class="j" d="M215.797,206.936c-.393-1.313.021-2.797,1.119-3.661,1.277-1.004,3.147-1.176,4.689-1.467,3.588-.676,7.205-1.188,10.846-1.467.999-.076,2.278-.221,3.184.311.767.45,1.071,1.566,1.036,2.198-.035.624-.359,1.321-.901,1.952-.712.83-1.581,1.5-2.489,2.098-2.091,1.376-4.385,2.368-6.571,3.572-2.256,1.242-.24,4.697,2.019,3.454,2.423-1.334,4.98-2.414,7.242-4.03,2.408-1.721,4.864-4.178,4.697-7.386-.09-1.725-.825-3.561-2.159-4.695-1.399-1.188-3.218-1.547-5.014-1.525-4.467.054-9.044.913-13.415,1.748-2.382.455-4.878,1.048-6.548,2.957-1.662,1.898-2.319,4.577-1.592,7.004.737,2.46,4.599,1.412,3.857-1.063h0Z"/><path class="j" d="M151.776,207.999c.638-2.129.225-4.523-1.069-6.333-1.287-1.801-3.241-2.781-5.357-3.278-4.514-1.061-9.176-1.614-13.789-2.021-3.689-.326-7.342.794-8.316,4.794-.767,3.147.968,5.946,3.352,7.862,2.563,2.06,5.535,3.332,8.391,4.904,2.256,1.242,4.277-2.211,2.019-3.454-1.907-1.05-3.899-1.931-5.763-3.062-.957-.581-1.885-1.204-2.695-1.981-.681-.654-1.247-1.36-1.436-2.124-.031-.124-.096-.627-.085-.727.051-.488.251-1.1.56-1.494.614-.783,1.718-.805,2.633-.794,3.413.042,6.92.627,10.27,1.221,2.839.503,8.742,1.039,7.428,5.425-.74,2.471,3.119,3.527,3.857,1.063h0Z"/><path class="j" d="M194.869,411.741c-2.602-.001-5.428.105-7.785-1.182-2.553-1.394-2.681-3.721-2.677-6.34.002-1.243.036-2.484.125-3.723.037-.525.073-1.074.149-1.38.078-.309.207-.537.262-.61.803-1.059,2.306-1.463,3.735-1.675,1.765-.261,3.658-.172,5.397.189,1.982.411,3.118,1.104,4.92,2.174,2.372,1.409,4.76,2.808,7.103,4.265,1.768,1.099,4.354,2.808,4.365,5.12.016,3.299-2.868,3.163-5.386,3.163h-10.21c-2.574,0-2.578,4,0,4h10.756c1.723,0,3.326.025,4.929-.697,1.528-.689,2.838-1.9,3.414-3.498,2.683-7.45-5.534-11.311-10.666-14.429-2.289-1.391-4.586-3.002-7.197-3.723-2.288-.632-4.796-.845-7.156-.593-2.321.248-4.718.85-6.466,2.493-2.047,1.924-1.992,4.815-2.056,7.425-.047,1.908-.212,3.975.294,5.834.487,1.788,1.574,3.399,3.016,4.553,3.151,2.521,7.282,2.634,11.133,2.636,2.574.001,2.578-3.999,0-4Z"/><path class="j" d="M168.981,415.741c3.401-.002,6.932-.072,9.963-1.82,3.249-1.874,4.474-5.085,4.495-8.67.009-1.587-.008-3.172-.122-4.756-.098-1.361-.195-2.701-.906-3.902-1.159-1.957-3.381-3.034-5.533-3.495-2.444-.524-4.948-.474-7.405-.077s-4.512,1.454-6.64,2.717c-2.798,1.661-5.758,3.227-8.401,5.125-2.694,1.935-5.233,4.551-5.036,8.099.107,1.931.701,3.765,2.228,5.026,1.56,1.288,3.362,1.752,5.354,1.752h12.002c2.574,0,2.578-4,0-4h-9.093c-1.834,0-5.145.622-6.204-1.403-1.259-2.408.869-4.59,2.629-5.919,2.102-1.587,4.537-2.807,6.786-4.171,1.825-1.106,3.689-2.405,5.481-2.932,1.699-.5,3.463-.667,5.231-.595,1.581.065,3.297.323,4.539,1.237.313.231.639.657.757.949.341.852.272,2.325.308,3.449.086,2.677.526,5.833-1.844,7.693s-5.763,1.691-8.59,1.693c-2.574.001-2.578,4.001,0,4Z"/><path class="f" d="M175.285,250.414c-.054.598-.089,1.259-.259,2.251-.205,1.134-.143,2.153-1.724,2.724-.073.026-.978.518-1.807.982-.546.306-.675,1.027-.284,1.517,2.629,3.297,6.224,5.041,10.707,5.186,4.483-.145,8.079-1.89,10.707-5.187.389-.489.263-1.211-.282-1.515-.807-.451-1.738-.957-1.809-.983-1.581-.572-1.519-1.59-1.724-2.724-.17-.991-.205-1.652-.259-2.251"/><path class="f" d="M148.811,210.522c2.086,5.156,3.103,8.242,4.842,14.104l9.383,14.72,38.589-.168,8.448-14.553c1.978-6.67,3.022-9.746,5.769-16.365,4.521,1.041,7.559,1.925,12.079,2.965.627.144,1.338.354,1.605.94.192.421.064.905-.017,1.36-2.926,16.456-6.294,25.468-11.556,39.764-3.372,9.162-13.506,30.279-13.506,30.279.196,17.278.361,20.812.674,37.864.012.644-.489,1.185-1.133,1.208-2.537.091-41.682.091-44.219,0-.644-.023-1.144-.564-1.133-1.208.313-17.028.478-20.577.676-37.79l-.036-.075s-10.134-21.117-13.506-30.279c-5.262-14.296-8.63-23.308-11.556-39.764-.081-.455-.209-.94-.017-1.36.267-.586.978-.795,1.605-.94,4.521-1.041,7.559-1.925,12.079-2.965.333.801.64,1.551.928,2.261Z"/><path class="j" d="M173.285,250.414c-.057.659-.124,1.307-.228,1.96-.043.269-.093.537-.139.805-.036.211-.182.352-.042.212-.363.364-1.314.658-1.768.908-.892.492-1.71,1.076-2.005,2.112-.555,1.95,1.1,3.552,2.433,4.724,1.348,1.185,2.84,2.096,4.501,2.771,3.351,1.361,7.147,1.49,10.597.421,1.628-.505,3.184-1.269,4.547-2.294,1.306-.982,3.168-2.416,3.582-4.074.564-2.26-1.464-3.459-3.188-4.28-.041-.019-.65-.323-.593-.253.114.139-.019-.063-.04-.136-.052-.183-.077-.375-.109-.562-.133-.77-.216-1.535-.283-2.313-.092-1.076-.853-2-2-2-1.01,0-2.093.918-2,2,.109,1.272.209,2.585.51,3.829.16.658.456,1.283.906,1.792.25.282.544.528.861.733.262.169.853.428.828.415.234.118,1.579.99,1.677.916-.08.06-.01-1.463-.43-1.253-.104.052-.236.273-.316.361-.281.31-.576.608-.885.892-.932.857-2.035,1.566-3.207,2.048-2.638,1.084-5.519,1.166-8.23.324-1.212-.377-2.376-.966-3.388-1.737-.507-.386-.975-.831-1.413-1.293-.1-.106-.513-.709-.635-.715l-.162.687c-.341.689-.291.86.15.513.205-.067.415-.23.604-.333.706-.386.926-.398,1.586-.823.754-.486,1.287-1.164,1.601-1.998.507-1.346.555-2.935.677-4.356.092-1.078-.985-2-2-2-1.159,0-1.907.919-2,2h0Z"/><path class="f" d="M199.018,229.146c1.754-.514,3.832.291,4.72,1.937.888,1.646.647,3.876-.37,5.502-.992,1.586-2.673,2.899-4.403,3.531,0,0-.086.032-.174.07-.679,2.056-1.847,4.464-3.811,6.715-2.513,2.88-5.33,4.512-8.618,5.211-1.513.321-2.978.397-4.37.442-1.393-.031-2.724-.166-4.032-.389-3.317-.564-6.473-2.279-9.017-5.134-1.993-2.236-3.189-4.638-3.89-6.687-1.873-.609-3.731-2.074-4.758-3.837-.966-1.657-1.136-3.893-.197-5.511.939-1.618,3.042-2.357,4.778-1.789,0,0-3.225-14.616,17.164-14.616,19,0,16.979,14.554,16.979,14.554Z"/><path class="d" d="M162.014,395.76c-.411-23.729-1.182-54.518-1.858-72.912,0,0-.002-.067-.01-.198,4.617.08,39.541.079,43.591-.002-.021.401-.033.692-.033.692-.678,18.429-1.451,49.3-1.861,73.043-5.401.151-35.539.492-39.809.492l-.008-.491c-.004-.207-.007-.416-.011-.624Z"/><path class="j" d="M158.156,322.848c.703,19.171,1.162,38.351,1.563,57.53.115,5.499.22,10.998.315,16.497.019,1.081.901,2,2,2,11.049-.004,22.103-.203,33.15-.369,2.22-.033,4.44-.061,6.659-.122,1.095-.03,1.981-.892,2-2,.343-19.753.804-39.505,1.404-59.253.14-4.597.289-9.195.457-13.791.094-2.574-3.906-2.571-4,0-.691,18.831-1.144,37.673-1.542,56.513-.116,5.51-.224,11.02-.319,16.531l2-2c-11.239.309-22.492.342-33.734.448-2.025.019-4.05.043-6.075.044l2,2c-.342-19.977-.806-39.954-1.411-59.925-.142-4.701-.294-9.402-.467-14.102-.094-2.566-4.095-2.579-4,0h0Z"/><path class="j" d="M179.925,338.022v58.855c0,2.574,4,2.578,4,0v-58.855c0-2.574-4-2.578-4,0h0Z"/><path class="j" d="M157.313,283.57c-.122,10.685-.352,21.367-.563,32.05-.032,1.615-.063,3.23-.093,4.845-.033,1.756.39,3.481,2.275,4.053.719.218,1.599.14,2.345.146,2.595.023,5.19.027,7.784.033,7.7.017,15.401.018,23.101.005,2.98-.005,5.96-.01,8.941-.028.812-.005,1.627.006,2.439-.022,2.385-.081,3.612-1.576,3.568-3.947-.23-12.379-.52-24.755-.661-37.136-.029-2.572-4.029-2.579-4,0,.116,10.157.327,20.311.532,30.467.028,1.377.055,2.753.081,4.13.015.766.029,1.533.043,2.299l.009.481c-.105.82.176.719.842-.303-.03-.018-.092.014-.127.003-.531-.157-1.376.018-1.926.022-2.587.019-5.175.024-7.762.03-7.313.016-14.627.016-21.94.005-2.983-.005-5.967-.01-8.95-.026-.855-.005-1.711-.009-2.566-.019-.197-.002-.54-.071-.728-.011-.033.01-.082-.017-.113-.003,1.193-.546.55,1.759.804.302.153-.878.035-1.891.052-2.78.221-11.532.482-23.063.613-34.597.029-2.575-3.971-2.576-4,0h0Z"/><path class="j" d="M212.002,225.158c1.654-5.568,3.546-10.998,5.769-16.365l-2.46,1.397c3.88.899,7.724,1.941,11.601,2.854.081.019,1.072.331,1.114.289l-.19-.342c-.16-.458-.245-.457-.254.004-.091.177-.091.51-.127.707-.192,1.063-.392,2.125-.6,3.185-.372,1.897-.771,3.788-1.203,5.672-1.506,6.572-3.467,13.015-5.697,19.375-1.951,5.562-3.925,11.134-6.233,16.56-2.129,5.004-4.389,9.954-6.678,14.887-1.423,3.068-2.859,6.13-4.322,9.179-1.108,2.31,2.34,4.341,3.454,2.019,3.751-7.819,7.419-15.691,10.829-23.666,2.464-5.761,4.602-11.649,6.682-17.558,2.372-6.738,4.443-13.565,6.005-20.538.513-2.288.978-4.587,1.408-6.892.405-2.176,1.189-4.824-1.23-6.121-.994-.533-2.188-.682-3.271-.943-1.058-.255-2.114-.52-3.17-.787-2.348-.595-4.694-1.194-7.054-1.741-1.153-.267-2.031.361-2.46,1.397-2.223,5.367-4.115,10.797-5.769,16.365-.735,2.473,3.125,3.529,3.857,1.063h0Z"/><path class="j" d="M155.581,224.095c-1.654-5.568-3.546-10.998-5.769-16.365-.428-1.032-1.295-1.667-2.46-1.397-4.079.945-8.205,1.884-12.239,3.005-2.067.574-3.25,2.01-2.913,4.202.316,2.06.744,4.111,1.164,6.152,1.465,7.126,3.409,14.123,5.755,21.008,2.065,6.059,4.206,12.125,6.679,18.031,2.239,5.347,4.635,10.629,7.07,15.89,1.541,3.329,3.097,6.652,4.683,9.959,1.113,2.32,4.563.293,3.454-2.019-3.517-7.33-6.947-14.71-10.184-22.168-2.27-5.23-4.229-10.569-6.154-15.935-2.26-6.298-4.334-12.658-5.94-19.157-.512-2.073-.983-4.156-1.417-6.246-.227-1.093-.445-2.187-.654-3.283-.102-.534-.201-1.068-.299-1.603-.043-.234-.085-.467-.127-.701-.073-.405.005-1.115-.339-.477-.34.632-.175.241.127.243.244.002.561-.134.797-.19.606-.143,1.213-.286,1.818-.433,1.047-.255,2.091-.518,3.135-.784,2.212-.562,4.424-1.122,6.648-1.637l-2.46-1.397c2.223,5.367,4.115,10.797,5.769,16.365.731,2.462,4.593,1.414,3.857-1.063h0Z"/><path class="l" d="M189.567,219.514c1.111.544,1.957,1.067,3.179,2.252,2.095,2.03,4.104,4.816,4.994,7.337h1.352c.968-.264,2.029-.131,2.928.322,2.268-7.435.666-15.329-4.109-19.431l-4.419-3.815c-2.874-3.013-7.862-4.139-13.156-3.748-6.843.506-11.341,2.768-15.105,6.998-4.306,4.839-6.033,13.228-4.131,20.422,1.06-.804,2.514-1.081,3.776-.668,2.215-3.05,6.162-7.093,8.732-8.535.301-.169.689.06.811.599.118.521.117.916.079,1.291-.058.568.457.982.895.721,1.835-1.091,5.105-3.287,7.423-4.332l6.751.588Z"/><path class="j" d="M194.907,204.765c-5.282-5.339-14.567-5.256-21.278-3.145s-11.893,7.35-14.047,14.03c-1.386,4.298-1.561,8.914-.732,13.336.474,2.527,4.33,1.457,3.857-1.063-1.43-7.623,1.07-16.125,7.784-20.467,3.183-2.059,6.948-2.913,10.701-3.074,3.794-.163,8.091.388,10.886,3.212,1.813,1.833,4.642-.996,2.828-2.828h0Z"/><path class="j" d="M204.112,229.397c1.912-7.054.991-15.745-4.786-20.817-.811-.712-2.03-.799-2.828,0-.727.727-.815,2.113,0,2.828,4.729,4.152,5.317,11.172,3.758,16.926-.674,2.488,3.183,3.549,3.857,1.063h0Z"/><path class="j" d="M186.15,233.252c-.021-.153-.22-1.682.85-2.762.701-.708,1.535-.756,1.798-.766.203-.008,1.523-.037,2.355,1.104.788,1.081.869,2.845-.074,4.032-.978,1.23-2.572,1.299-3.618.59-.942-.638-1.189-1.424-1.311-2.197Z"/><path class="j" d="M172.444,233.252c-.021-.153-.22-1.682.85-2.762.701-.708,1.535-.756,1.798-.766.203-.008,1.523-.037,2.355,1.104.788,1.081.869,2.845-.074,4.032-.978,1.23-2.572,1.299-3.618.59-.942-.638-1.189-1.424-1.311-2.197Z"/><path class="j" d="M188.557,221.241c.394.195.784.399,1.158.631.191.118.374.246.558.374.261.181-.041-.063-.062-.055.024-.01.334.272.354.29.825.701,1.578,1.492,2.278,2.316.163.192.322.388.481.584.34.42-.136-.19.05.061.084.113.169.225.252.338.329.45.642.912.935,1.386.284.458.55.928.791,1.41.105.209.198.423.299.633.108.226-.128-.345.004.011.051.138.105.276.155.415.302.838,1,1.468,1.929,1.468h1.447c1.046,0,2.048-.92,2-2s-.879-2-2-2h-1.447l1.929,1.468c-.865-2.402-2.254-4.527-3.888-6.475-1.462-1.743-3.152-3.297-5.204-4.309-.937-.462-2.208-.283-2.736.718-.477.902-.284,2.242.718,2.736h0Z"/><path class="j" d="M166.603,230.192c1.158-1.58,2.517-3.073,3.92-4.466.697-.692,1.417-1.362,2.17-1.992.364-.304.547-.452.902-.704.172-.122.347-.242.525-.356l.169-.106c.329-.178.208-.164-.364.04l-1.009-.273c-.583-.276-.4-.92-.397-.145.001.386-.042.721.059,1.111.179.689.633,1.327,1.251,1.688,1.39.813,2.635-.03,3.807-.761,2.019-1.258,4.024-2.579,6.19-3.576.981-.452,1.225-1.869.718-2.736-.589-1.007-1.751-1.171-2.736-.718-1.348.62-2.628,1.377-3.893,2.149-.625.382-1.246.77-1.867,1.158-.279.174-.558.349-.838.522-.126.078-.266.147-.384.236-.501.379-.237-.225.545.069l.883.514c.147.119.185,1.042.263.461.027-.203-.003-.425-.023-.628-.051-.506-.123-.982-.327-1.449-.462-1.053-1.492-1.754-2.667-1.601-1.402.183-2.799,1.561-3.828,2.439-2.445,2.086-4.623,4.514-6.522,7.103-.639.872-.147,2.231.718,2.736,1.014.593,2.096.156,2.736-.718h0Z"/><path class="j" d="M199.55,231.075c.045-.012.408-.07.432-.099-.264.032-.319.041-.165.028.074-.006.147-.01.221-.011.101-.002.373-.041.443.016-.119-.098-.364-.067-.019.007.145.031.288.07.43.116.264.086.218.003.006-.012.118.008.288.145.394.209.095.057.438.344.081.028.112.099.224.193.329.3.088.09.33.448.07.052.069.105.139.208.201.318.04.069.078.14.113.213-.078-.202-.091-.235-.039-.099.095.294.169.581.236.882-.102-.453-.007.038-.003.138.007.17.005.34-.003.51-.005.109-.085.607-.002.149-.026.141-.052.282-.086.421-.04.168-.087.333-.14.497-.054.165-.124.347-.012.084-.133.313-.303.612-.489.896-.025.038-.356.494-.091.152-.107.138-.221.27-.338.399-.216.24-.446.467-.686.682-.11.098-.223.193-.336.287.314-.26-.087.061-.16.111-.288.199-.586.383-.895.549-.152.082-.308.155-.462.231-.385.191.285-.106-.148.057-.976.368-1.751,1.367-1.397,2.46.309.954,1.412,1.792,2.46,1.397,3.639-1.373,6.829-4.611,6.789-8.714-.02-2.082-.916-3.98-2.605-5.207-1.474-1.07-3.447-1.38-5.193-.906-1.009.274-1.729,1.435-1.397,2.46.335,1.034,1.378,1.691,2.46,1.397h0Z"/><path class="j" d="M165.407,227.28c-1.724-.526-3.726-.235-5.214.792-1.727,1.191-2.628,3.079-2.713,5.155-.169,4.112,2.998,7.399,6.574,8.877.97.401,2.241-.433,2.46-1.397.266-1.166-.358-2.031-1.397-2.46.427.177-.09-.052-.14-.077-.154-.077-.306-.159-.455-.245-.279-.161-.537-.349-.806-.525-.113-.084-.095-.068.054.045-.069-.055-.137-.111-.204-.169-.112-.095-.223-.193-.33-.293-.258-.241-.495-.499-.728-.764-.367-.418.198.311-.114-.144-.097-.142-.195-.283-.284-.43-.074-.121-.144-.244-.21-.369-.04-.075-.078-.151-.114-.228.075.191.086.219.034.084-.103-.299-.205-.594-.273-.905-.018-.082-.068-.609-.038-.147-.011-.172-.028-.34-.032-.513-.003-.17.011-.34.013-.51.005-.384-.057.171.003-.053.079-.298.135-.591.247-.88-.165.422.031-.025.084-.117.06-.102.343-.43.031-.089.101-.111.195-.223.304-.328.092-.089.453-.322.053-.065.104-.067.205-.138.313-.2.052-.03.5-.257.226-.13-.271.126.117-.036.178-.055.143-.044.287-.074.432-.11.459-.115-.416.003.056-.005.148-.002.295-.002.444-.002.408,0-.372-.115.054,0,.143.039.287.069.429.113,1.001.306,2.225-.364,2.46-1.397.246-1.081-.325-2.133-1.397-2.46h0Z"/><path class="j" d="M196.862,239.655c-1.062,3.126-2.986,6.04-5.615,8.072-2.613,2.02-5.791,2.77-9.046,2.82-3.322.051-6.626-.715-9.356-2.654-2.756-1.958-4.763-4.937-5.872-8.104-.845-2.414-4.711-1.375-3.857,1.063,1.406,4.017,3.809,7.572,7.227,10.143,3.378,2.541,7.665,3.616,11.857,3.552,4.106-.063,8.077-1.077,11.369-3.599,3.388-2.595,5.782-6.209,7.148-10.23.83-2.443-3.032-3.491-3.857-1.063h0Z"/><path class="f" d="M309.156,413.741c-3.385,0-6.124-.017-8.794-1.455-2.167-1.167-3.633-3.421-3.655-5.889-.027-2.927-.031-4.502.216-7.145.514-5.507,10.972-5.272,14.961-3.161,1.652.874,4.43,2.598,6.567,3.889,3.115,1.881,5.319,2.861,7.528,5.861.95,1.29.95,3.317.403,5.028-.499,1.561-2.597,2.872-4.528,2.872h-12.698Z"/><path class="f" d="M283.268,413.741c3.385,0,6.124-.017,8.794-1.455,2.167-1.167,3.633-3.421,3.655-5.889.027-2.927.031-4.502-.216-7.145-.514-5.507-10.972-5.272-14.961-3.161-1.652.874-4.43,2.598-6.567,3.889-3.115,1.881-5.319,2.861-7.528,5.861-.95,1.29-.95,3.317-.403,5.028.499,1.561,2.597,2.872,4.528,2.872h12.698Z"/><path class="f" d="M252.474,199.208c-1.654-.258-3.314-.471-4.983-.611-2.654-.223-6.548-1.119-8.097,1.743-3.401,6.284,7.236,10.027,10.645,12.062.31-.239.739-.357,1.133-.448,4.187-.964,6.998-1.782,11.191-2.747,2.369-2.121,1.432-5.674-.359-7.269-1.358-1.209-3.084-1.561-4.747-1.882-1.589-.307-3.183-.598-4.782-.848Z"/><path class="f" d="M338.616,199.209c-1.598.249-3.189.54-4.777.847-1.663.321-3.389.673-4.747,1.882-1.791,1.594-2.728,5.146-.365,7.273,4.2.96,7.011,1.779,11.2,2.743.393.09.821.209,1.133.444,3.409-2.032,14.04-5.776,10.64-12.058-1.549-2.862-5.443-1.966-8.097-1.743-1.671.14-3.332.354-4.987.612Z"/><path class="j" d="M309.156,411.741c-2.602-.001-5.428.105-7.785-1.182-2.553-1.394-2.681-3.721-2.677-6.34.002-1.243.036-2.484.125-3.723.037-.525.073-1.074.149-1.38.078-.309.207-.537.262-.61.803-1.059,2.306-1.463,3.735-1.675,1.765-.261,3.658-.172,5.397.189,1.982.411,3.118,1.104,4.92,2.174,2.372,1.409,4.76,2.808,7.103,4.265,1.768,1.099,4.354,2.808,4.365,5.12.016,3.299-2.868,3.163-5.386,3.163h-10.21c-2.574,0-2.578,4,0,4h10.756c1.723,0,3.326.025,4.929-.697,1.528-.689,2.838-1.9,3.414-3.498,2.683-7.45-5.534-11.311-10.666-14.429-2.289-1.391-4.586-3.002-7.197-3.723-2.288-.632-4.796-.845-7.156-.593-2.321.248-4.718.85-6.466,2.493-2.047,1.924-1.992,4.815-2.056,7.425-.047,1.908-.212,3.975.294,5.834.487,1.788,1.574,3.399,3.016,4.553,3.151,2.521,7.282,2.634,11.133,2.636,2.574.001,2.578-3.999,0-4Z"/><path class="j" d="M283.268,415.741c3.401-.002,6.932-.072,9.963-1.82,3.249-1.874,4.474-5.085,4.495-8.67.009-1.587-.008-3.172-.122-4.756-.098-1.361-.195-2.701-.906-3.902-1.159-1.957-3.381-3.034-5.533-3.495-2.444-.524-4.948-.474-7.405-.077s-4.512,1.454-6.64,2.717c-2.798,1.661-5.758,3.227-8.401,5.125-2.694,1.935-5.233,4.551-5.036,8.099.107,1.931.701,3.765,2.228,5.026,1.56,1.288,3.362,1.752,5.354,1.752h12.002c2.574,0,2.578-4,0-4h-9.093c-1.834,0-5.145.622-6.204-1.403-1.259-2.408.869-4.59,2.629-5.919,2.102-1.587,4.537-2.807,6.786-4.171,1.825-1.106,3.689-2.405,5.481-2.932,1.699-.5,3.463-.667,5.231-.595,1.581.065,3.297.323,4.539,1.237.313.231.639.657.757.949.341.852.272,2.325.308,3.449.086,2.677.526,5.833-1.844,7.693s-5.763,1.691-8.59,1.693c-2.574.001-2.578,4.001,0,4Z"/><path class="m" d="M279.044,393.953c-1.691-16.336-2.878-51.588-3.297-64.119-.202-6.041-.112-11.573.487-17.413,5.116,0,10.316,0,10.316,0h29.742c.601,5.84.69,11.372.489,17.413-.434,12.994-2.657,50.722-3.88,66.055-5.398.12-10.985.206-16.689.206s-12.04.045-16.93-.006c-.08-.669-.159-1.383-.237-2.137Z"/><path class="j" d="M274.823,307.674c-1.711,12.262-1.02,24.559-.557,36.878.444,11.825.94,23.651,1.685,35.461.338,5.364.697,10.738,1.332,16.076.129,1.083.812,1.988,2,2,11.204.111,22.418.045,33.62-.201,1.145-.025,1.913-.9,2-2,.839-10.548,1.475-21.113,2.104-31.674s1.252-21.201,1.68-31.81c.335-8.287.168-16.506-.979-24.731-.149-1.071-1.516-1.656-2.46-1.397-1.153.317-1.547,1.386-1.397,2.46,1.668,11.955.875,24.016.249,36.016-.612,11.722-1.305,23.441-2.069,35.154-.347,5.329-.704,10.658-1.128,15.982l2-2c-11.201.246-22.416.311-33.62.201l2,2c-1.235-10.389-1.664-20.894-2.164-31.339-.509-10.639-.909-21.283-1.27-31.928-.273-8.058-.285-16.082.832-24.086.149-1.068-.26-2.148-1.397-2.46-.935-.257-2.31.32-2.46,1.397h0Z"/><path class="j" d="M294.212,330.635c0,16.888,0,33.776,0,50.665v14.405c0,2.574,4,2.578,4,0,0-16.888,0-33.776,0-50.665v-14.405c0-2.574-4-2.578-4,0h0Z"/><path class="f" d="M257.715,210.339c1.436-.364,2.914-.733,4.621-1.126,2.539,6.117,3.504,8.96,5.332,15.125l8.77,19.419h37.556l9.438-19.419c1.828-6.165,2.793-9.008,5.332-15.125,4.178.962,6.986,1.779,11.164,2.741.58.133,1.237.327,1.483.869.177.389.059.837-.016,1.257-2.705,15.209-5.817,23.538-10.681,36.751-3.117,8.467-12.229,22.488-12.229,22.488l-.944,1.452c.223,13.109.447,24.549.67,37.65h-31.662s-7.527,0-13.38,0c.221-12.958.442-24.292.662-37.224-.69-1.061-1.221-1.878-1.221-1.878,0,0-9.112-14.02-12.229-22.488-4.864-13.213-7.976-21.542-10.681-36.751-.075-.421-.193-.868-.016-1.257.247-.541.904-.735,1.483-.869,2.472-.569,4.464-1.087,6.544-1.615Z"/><path class="l" d="M318.247,225.485c5.013.408,6.848,4.793,6.325,7.46-.856,4.469-2.685,10.939.775,13.792-1.724,2.271-6.591,1.328-8.261.782-2.127-.674-3.633-2.113-5.111-3.709-1.445-1.557-2.538-3.547-2.876-5.638-.037-.209-.057-.412-.054-.626"/><path class="j" d="M318.247,227.485c1.794.179,3.224,1.162,3.981,2.687.264.531.431,1.291.429,1.85,0,.189-.009.378-.031.566.046-.387-.031.084-.063.234-.121.572-.233,1.147-.35,1.72-.882,4.337-2.112,10.272,1.719,13.61v-2.828c-.67.81-1.787.896-3.003.855-1.166-.039-2.324-.229-3.478-.643-1.641-.589-2.913-1.876-4.063-3.139-1.168-1.283-2.274-3.068-2.344-4.85-.102-2.565-4.102-2.578-4,0,.196,4.955,4.487,10.003,9.018,11.727,3.129,1.19,8.303,1.774,10.698-1.121.652-.788.875-2.066,0-2.828-1.648-1.437-1.545-3.781-1.351-5.795.229-2.37,1.039-4.665,1.225-7.033.153-1.949-.535-3.971-1.704-5.516-1.647-2.176-4.011-3.227-6.684-3.494-1.076-.107-2,.996-2,2,0,1.171.921,1.892,2,2h0Z"/><path class="f" d="M284.704,257.525c.065-.048.137-.089.216-.121,1.071-.437,2.442-.996,2.509-1.02,1.554-.562,1.492-1.563,1.694-2.678.17-.995.203-1.651.255-2.242.858.32,1.737.556,2.628.708,1.286.219,2.594.351,3.962.382,1.369-.044,2.808-.118,4.295-.434.742-.158,1.459-.363,2.153-.621.05.582.085,1.232.252,2.208.202,1.115.14,2.116,1.694,2.678.066.024,1.442.585,2.508,1.02.632.258.832,1.066.385,1.582-2.729,3.145-7.021,4.81-11.36,4.951-4.339-.141-8.631-1.806-11.361-4.951-.392-.451-.287-1.126.168-1.461Z"/><path class="j" d="M271.84,274.878c-.186,10.875-.392,21.749-.583,32.623-.041,2.335-.802,6.068,2.234,6.821,1.005.25,2.199.098,3.229.098,2.675,0,5.349,0,8.024,0,6.816,0,13.631,0,20.447,0,2.814,0,5.627,0,8.441,0,2.345,0,5.906.581,6.493-2.492.295-1.545.023-3.335-.005-4.908-.026-1.507-.053-3.013-.08-4.52-.054-3.034-.11-6.067-.165-9.101-.112-6.174-.224-12.348-.33-18.522-.044-2.571-4.044-2.579-4,0,.173,10.156.365,20.311.545,30.467.021,1.202.042,2.405.063,3.607.004.253-.123,1.854.034,1.953l.913-.484h-.106c-.084-.026-.199.008-.286,0-.793-.069-1.626,0-2.422,0-2.484,0-4.967,0-7.451,0-6.325,0-12.649,0-18.974,0-2.811,0-5.622,0-8.433,0-1.115,0-2.23,0-3.345,0-.405,0-.809,0-1.214,0-.031,0-.557-.009-.558,0l.443.242c.436.408.586.325.451-.248.121-.327.015-.877.021-1.219.199-11.439.417-22.878.613-34.317.044-2.575-3.956-2.575-4,0h0Z"/><path class="j" d="M320.213,274.328c4.217-6.494,8.312-13.263,11.383-20.381,2.338-5.42,4.236-11.104,6.083-16.709,1.862-5.652,3.404-11.395,4.609-17.223.4-1.934.812-3.878,1.113-5.831.318-2.067-.685-3.483-2.647-4.087-1.849-.569-3.798-.915-5.675-1.392-1.924-.49-3.849-.973-5.784-1.422-1.153-.267-2.031.361-2.46,1.397-2.055,4.96-3.803,9.979-5.332,15.125-.735,2.473,3.125,3.529,3.857,1.063,1.529-5.146,3.277-10.165,5.332-15.125l-2.46,1.397c3.119.723,6.211,1.553,9.323,2.306.357.086,2.005.725,2.282.553l.147.046c-.418-.679-.618-.688-.601-.025-.184.327-.186,1.02-.256,1.393-.3,1.605-.62,3.207-.962,4.804-1.184,5.516-2.682,10.952-4.458,16.306-1.71,5.156-3.438,10.403-5.564,15.404-1.851,4.353-4.205,8.507-6.595,12.582-1.543,2.63-3.127,5.241-4.788,7.799-1.406,2.165,2.056,4.172,3.454,2.019h0Z"/><path class="j" d="M274.34,272.309c-3.949-6.081-7.725-12.394-10.759-18.984-2.227-4.837-3.879-10.011-5.597-15.047-1.773-5.196-3.321-10.462-4.549-15.814-.4-1.744-.771-3.495-1.116-5.251-.178-.907-.35-1.815-.516-2.724l-.085-.469c.038-.544-.077-.619-.343-.224-.36.273-.348.325.035.158.256-.065.513-.126.77-.183,3.57-.847,7.113-1.802,10.688-2.63l-2.46-1.397c2.055,4.96,3.803,9.979,5.332,15.125.731,2.462,4.593,1.414,3.857-1.063-1.529-5.146-3.277-10.165-5.332-15.125-.427-1.032-1.295-1.667-2.46-1.397-3.42.792-6.807,1.714-10.223,2.521-1.379.326-2.886.636-3.62,2.007-.854,1.597.01,3.924.326,5.572,1.151,5.999,2.615,11.929,4.455,17.755,1.806,5.716,3.81,11.413,6.006,16.991,1.84,4.672,4.279,9.105,6.793,13.443,1.713,2.957,3.483,5.887,5.344,8.754,1.397,2.151,4.861.149,3.454-2.019h0Z"/><path class="j" d="M287.378,251.494c-.059.693-.132,1.374-.245,2.061-.084.507-.01.729-.264.912-.483.348-1.263.513-1.814.738-.994.405-1.888.761-2.418,1.759-1.053,1.984.533,3.691,1.974,4.886,1.499,1.243,3.15,2.168,4.965,2.865,3.622,1.393,7.572,1.531,11.292.454,1.79-.518,3.555-1.3,5.083-2.375,1.397-.983,3.45-2.425,3.537-4.302.117-2.53-2.364-3.095-4.222-3.888-.576-.246-.443-.136-.546-.68-.152-.805-.234-1.615-.304-2.43-.218-2.546-4.22-2.569-4,0,.111,1.302.177,2.701.549,3.961.448,1.518,1.524,2.306,2.926,2.88.539.221,1.08.438,1.619.658.058.024.458.232.504.206l-.201-.684c.013-.684-.093-.871-.32-.558-.284.113-.634.631-.874.84-1.045.914-2.331,1.638-3.63,2.125-2.89,1.083-5.852,1.268-8.828.44-1.49-.415-2.878-1.048-4.155-1.923-.529-.362-1.01-.78-1.464-1.233-.045-.045-.307-.376-.361-.374.231-.008-.86,1.283-.232,1.3.333.009.97-.396,1.271-.518,1.351-.549,2.667-1.046,3.334-2.457.661-1.397.694-3.146.824-4.661.219-2.565-3.782-2.55-4,0h0Z"/><path class="f" d="M302.152,216.48c-5.656,5.358-18.854,12.307-23.355,13.035-1.63-.361-3.486.371-4.346,1.854-.922,1.59-.755,3.787.194,5.416,1.009,1.732,2.835,3.172,4.676,3.771.689,2.014,1.865,4.374,3.823,6.572,2.501,2.806,5.602,4.491,8.862,5.046,1.286.219,2.594.351,3.962.382,1.369-.044,2.808-.118,4.295-.434,3.232-.687,6-2.291,8.469-5.121,1.93-2.212,3.078-4.579,3.745-6.6.087-.038.171-.069.171-.069,1.701-.621,3.353-1.912,4.328-3.47.999-1.598,1.236-3.789.364-5.407-.872-1.618-2.915-2.409-4.639-1.904-2.192-1.254-5.184-3.798-6.801-5.977-2.316-3.121-3.1-4.953-3.749-7.092"/><path class="l" d="M302.152,216.48c.649,2.139,1.433,3.971,3.749,7.092,1.617,2.18,4.609,4.723,6.801,5.977,1.386-.406,2.978.026,4.002,1.052.401-2.878.895-4.823.693-6.855-.505-5.084-2.826-11.112-6.565-14.529-.991-.905-1.678-1.517-2.453-2.101-1.121-.846-2.567-1.641-3.502-2.027-2.532-1.047-5.519-1.823-9.519-1.823-6.557,0-12.394,3.378-14.984,5.858-4.419,4.23-7.365,11.001-5.708,21.913.931-1.258,2.625-1.855,4.129-1.522,4.501-.727,17.699-7.676,23.355-13.035"/><path class="j" d="M276.54,230.14c-.595-4.714-.574-9.738,1.405-14.153,1.536-3.428,4.06-6.094,7.32-7.93,8.624-4.856,20.714-3.372,26.425,5.245,1.55,2.339,2.589,4.967,3.227,7.692.294,1.253.537,2.539.527,3.831-.012,1.608-.364,3.201-.604,4.784-.161,1.067.269,2.15,1.397,2.46.945.26,2.298-.322,2.46-1.397.482-3.184.942-6.059.38-9.264-.495-2.827-1.45-5.597-2.772-8.143-2.584-4.977-7.159-8.913-12.474-10.696-10.154-3.407-22.791.11-28.395,9.588-3.192,5.399-3.665,11.882-2.895,17.984.135,1.071.822,2,2,2,.976,0,2.136-.921,2-2h0Z"/><path class="j" d="M313.234,231.478c.067-.018.376-.056.425-.098-.268.032-.326.042-.171.029.072-.006.145-.01.217-.01.091-.002.38-.039.436.016-.09-.089-.396-.073-.028.006.143.031.283.069.422.114.281.092.193-.011-.002-.015.111.002.287.145.387.205.063.037.124.076.184.118.12.083.083.051-.111-.096.006-.008.311.282.324.295l.1.106c.142.167.129.146-.037-.062.084.052.152.231.198.312.04.068.077.138.111.209-.08-.207-.094-.242-.042-.105.093.289.164.571.232.867-.105-.457-.008.019-.004.127.007.167.005.335-.003.501-.005.113-.086.603,0,.138-.026.139-.051.277-.084.414-.039.165-.085.327-.138.488-.057.173-.12.335-.009.074-.132.308-.297.601-.481.881-.028.042-.356.492-.084.143-.105.135-.217.265-.332.392-.212.236-.438.459-.674.67-.108.097-.219.189-.33.282.321-.266-.075.052-.15.104-.283.196-.576.376-.879.539-.149.08-.303.152-.455.227-.384.191.295-.11-.137.053-.976.368-1.751,1.367-1.397,2.46.309.954,1.412,1.792,2.46,1.397,3.59-1.354,6.737-4.549,6.697-8.597-.02-2.059-.907-3.934-2.577-5.147-1.456-1.057-3.406-1.362-5.131-.894-1.009.274-1.729,1.435-1.397,2.46.335,1.034,1.378,1.691,2.46,1.397h0Z"/><path class="j" d="M279.679,227.681c-1.702-.52-3.681-.232-5.151.781-1.707,1.178-2.599,3.043-2.684,5.096-.167,4.058,2.958,7.299,6.486,8.758.97.401,2.241-.433,2.46-1.397.266-1.166-.358-2.031-1.397-2.46.436.18-.075-.045-.129-.072-.151-.076-.301-.157-.447-.241-.274-.158-.528-.343-.792-.516-.114-.084-.094-.067.06.05-.068-.054-.135-.109-.201-.166-.11-.094-.219-.19-.325-.288-.254-.237-.487-.49-.716-.751-.363-.412.2.315-.107-.135-.095-.14-.191-.278-.28-.422-.073-.119-.142-.24-.206-.363-.04-.074-.077-.149-.112-.224.077.196.09.226.037.091-.101-.294-.201-.584-.268-.889-.019-.088-.065-.605-.037-.135-.01-.169-.028-.334-.031-.504-.003-.168.011-.334.013-.501.005-.385-.058.183.002-.043.078-.293.133-.581.243-.865-.166.43.024-.012.079-.107.037-.065.076-.127.118-.189.083-.121.052-.084-.094.109-.012-.016.283-.307.299-.322l.107-.099c.168-.141.147-.127-.062.041.044-.08.233-.153.307-.196.052-.03.496-.257.218-.126-.273.128.108-.033.171-.053.14-.043.282-.072.424-.108.453-.114-.421.004.046-.003.146-.002.29-.002.436-.002.406,0-.38-.115.044,0,.14.038.282.068.421.111,1.001.306,2.225-.364,2.46-1.397.246-1.081-.325-2.133-1.397-2.46h0Z"/><path class="j" d="M310.55,239.867c-1.042,3.067-2.93,5.919-5.505,7.915-2.557,1.983-5.683,2.715-8.87,2.764-3.281.051-6.537-.714-9.227-2.637-2.676-1.914-4.627-4.831-5.705-7.911-.845-2.414-4.711-1.375-3.857,1.063,1.395,3.985,3.797,7.541,7.215,10.062,3.314,2.444,7.487,3.486,11.574,3.422,4.044-.063,7.955-1.068,11.198-3.548,3.335-2.55,5.69-6.114,7.034-10.068.83-2.443-3.032-3.491-3.857-1.063h0Z"/><path class="j" d="M300.055,233.609c-.02-.15-.216-1.653.835-2.715.689-.696,1.509-.743,1.767-.753.199-.008,1.497-.037,2.315,1.085.775,1.063.854,2.796-.073,3.962-.962,1.209-2.528,1.276-3.556.58-.925-.627-1.168-1.399-1.288-2.159Z"/><path class="j" d="M286.585,233.609c-.02-.15-.216-1.653.835-2.715.689-.696,1.509-.743,1.767-.753.199-.008,1.497-.037,2.315,1.085.775,1.063.854,2.796-.073,3.962-.962,1.209-2.528,1.276-3.556.58-.925-.627-1.168-1.399-1.288-2.159Z"/><path class="j" d="M300.738,215.065c-3.305,3.098-7.297,5.5-11.241,7.686-3.365,1.865-6.967,3.86-10.746,4.744-2.506.586-1.445,4.444,1.063,3.857,4.096-.958,8.051-3.124,11.701-5.147,4.241-2.35,8.499-4.982,12.05-8.311,1.882-1.764-.951-4.589-2.828-2.828h0Z"/><path class="j" d="M313.711,227.822c-1.321-.767-2.165-1.418-3.211-2.329-.58-.505-1.142-1.032-1.677-1.585-.255-.263-.504-.533-.746-.81-.105-.12-.209-.242-.311-.365-.019-.023-.385-.501-.139-.171-.908-1.218-1.766-2.486-2.461-3.84-.124-.241-.242-.484-.354-.731-.033-.071-.234-.564-.044-.089-.046-.116-.094-.232-.139-.349-.205-.528-.382-1.065-.548-1.606-.316-1.033-1.398-1.689-2.46-1.397-1.022.281-1.714,1.423-1.397,2.46,1.813,5.928,6.115,11.157,11.469,14.265.934.542,2.19.216,2.736-.718s.219-2.193-.718-2.736h0Z"/><path class="j" d="M329.487,206.936c-.393-1.313.021-2.797,1.119-3.661,1.277-1.004,3.147-1.176,4.689-1.467,3.588-.676,7.205-1.188,10.846-1.467.999-.076,2.278-.221,3.184.311.767.45,1.071,1.566,1.036,2.198-.035.624-.359,1.321-.901,1.952-.712.83-1.581,1.5-2.489,2.098-2.091,1.376-4.385,2.368-6.571,3.572-2.256,1.242-.24,4.697,2.019,3.454,2.423-1.334,4.98-2.414,7.242-4.03,2.408-1.721,4.864-4.178,4.697-7.386-.09-1.725-.825-3.561-2.159-4.695-1.399-1.188-3.218-1.547-5.014-1.525-4.467.054-9.044.913-13.415,1.748-2.382.455-4.878,1.048-6.548,2.957-1.662,1.898-2.319,4.577-1.592,7.004.737,2.46,4.599,1.412,3.857-1.063h0Z"/><path class="j" d="M265.466,207.999c.638-2.129.225-4.523-1.069-6.333-1.287-1.801-3.241-2.781-5.357-3.278-4.514-1.061-9.176-1.614-13.789-2.021-3.689-.326-7.342.794-8.316,4.794-.767,3.147.968,5.946,3.352,7.862,2.563,2.06,5.535,3.332,8.391,4.904,2.256,1.242,4.277-2.211,2.019-3.454-1.907-1.05-3.899-1.931-5.763-3.062-.957-.581-1.885-1.204-2.695-1.981-.681-.654-1.247-1.36-1.436-2.124-.031-.124-.096-.627-.085-.727.051-.488.251-1.1.56-1.494.614-.783,1.718-.805,2.633-.794,3.413.042,6.92.627,10.27,1.221,2.839.503,8.742,1.039,7.428,5.425-.74,2.471,3.119,3.527,3.857,1.063h0Z"/><path class="h" d="M194.113,40.775c5.627,2.032,13.191,4.842,16.643,9.84,5.386,7.797,6.968,18.313,7.652,27.423.261,3.417.271,6.404-.618,9.744-.233.896-.71,1.92-1.566,2.935-.778.922-1.771,1.885-2.871,2.477-3.273,1.764-5.492,2.783-8.362,3.65.059,3.53.109,7.153.179,10.956.01.64-.49,1.189-1.13,1.2-11.053.186-41.678.1-44.218.004-.65-.019-1.15-.538-1.13-1.153.083-4.406.156-8.905.221-13.45-2.022-.528-3.597-1.442-5.048-2.412-3.922-2.622-5.588-4.633-7.147-8.977-.955-2.663-1.451-7.023-1.072-9.835.515-3.826,1.137-7.606,2.147-11.348,1.114-4.128,2.008-8.779,5.066-12.087,3.593-3.887,10.059-6.27,15.032-8.161l2.416-.805h23.807Z"/><path class="f" d="M194.417,187.067c-3.385,0-6.124-.017-8.794-1.455-2.167-1.167-3.633-3.421-3.655-5.889-.027-2.927-.031-4.502.216-7.145.514-5.507,10.972-5.272,14.961-3.161,1.652.874,4.43,2.598,6.567,3.889,3.115,1.881,5.319,2.861,7.528,5.861.95,1.29.95,3.317.403,5.028-.499,1.561-2.597,2.872-4.528,2.872h-12.698Z"/><path class="f" d="M168.529,187.067c3.385,0,6.124-.017,8.794-1.455,2.167-1.167,3.633-3.421,3.655-5.889.027-2.927.031-4.502-.216-7.145-.514-5.507-10.972-5.272-14.961-3.161-1.652.874-4.43,2.598-6.567,3.889-3.115,1.881-5.319,2.861-7.528,5.861-.95,1.29-.95,3.317-.403,5.028.499,1.561,2.597,2.872,4.528,2.872h12.698Z"/><path class="j" d="M194.417,185.067c-2.602-.001-5.428.105-7.785-1.182-2.553-1.394-2.681-3.721-2.677-6.34.002-1.243.036-2.484.125-3.723.037-.525.073-1.074.149-1.38.078-.309.207-.537.262-.61.803-1.059,2.306-1.463,3.735-1.675,1.765-.261,3.658-.172,5.397.189,1.982.411,3.118,1.104,4.92,2.174,2.372,1.409,4.76,2.808,7.103,4.265,1.768,1.099,4.354,2.808,4.365,5.12.016,3.299-2.868,3.163-5.386,3.163h-10.21c-2.574,0-2.578,4,0,4h10.756c1.723,0,3.326.025,4.929-.697,1.528-.689,2.838-1.9,3.414-3.498,2.683-7.45-5.534-11.311-10.666-14.429-2.289-1.391-4.586-3.002-7.197-3.723-2.288-.632-4.796-.845-7.156-.593-2.321.248-4.718.85-6.466,2.493-2.047,1.924-1.992,4.815-2.056,7.425-.047,1.908-.212,3.975.294,5.834.487,1.788,1.574,3.399,3.016,4.553,3.151,2.521,7.282,2.634,11.133,2.636,2.574.001,2.578-3.999,0-4Z"/><path class="j" d="M168.529,189.067c3.401-.002,6.932-.072,9.963-1.82,3.249-1.874,4.474-5.085,4.495-8.67.009-1.587-.008-3.172-.122-4.756-.098-1.361-.195-2.701-.906-3.902-1.159-1.957-3.381-3.034-5.533-3.495-2.444-.524-4.948-.474-7.405-.077s-4.512,1.454-6.64,2.717c-2.798,1.661-5.758,3.227-8.401,5.125-2.694,1.935-5.233,4.551-5.036,8.099.107,1.931.701,3.765,2.228,5.026,1.56,1.288,3.362,1.752,5.354,1.752h12.002c2.574,0,2.578-4,0-4h-9.093c-1.834,0-5.145.622-6.204-1.403-1.259-2.408.869-4.59,2.629-5.919,2.102-1.587,4.537-2.807,6.786-4.171,1.825-1.106,3.689-2.405,5.481-2.932,1.699-.5,3.463-.667,5.231-.595,1.581.065,3.297.323,4.539,1.237.313.231.639.657.757.949.341.852.272,2.325.308,3.449.086,2.677.526,5.833-1.844,7.693s-5.763,1.691-8.59,1.693c-2.574.001-2.578,4.001,0,4Z"/><path class="f" d="M159.081,108.695c-.17,5.122-.13,11.126.36,18.873.84,13.251,2.09,24.348,3.88,39.225.11.93.79,1.704,1.72,1.92,1.91.421,4.39.784,6.64.872.31.01.62.01.93.01,2.15,0,4.37-.147,6.28-.421.959-.144,1.83-.312,2.596-.52.74.209,1.621.377,2.564.52,1.91.274,4.14.421,6.28.421.31,0,.62,0,.96-.01,2.22-.088,4.7-.451,6.61-.872.93-.215,1.61-.989,1.73-1.92,1.79-14.877,3.04-25.974,3.88-39.225.48-7.6.53-13.516.37-18.569"/><path class="j" d="M157.081,108.695c-.329,10.212.351,20.418,1.249,30.586.467,5.295,1.023,10.581,1.622,15.862.312,2.749.634,5.497.962,8.244.322,2.706.183,6.059,3.26,7.147,1.268.449,2.731.565,4.058.738,1.455.191,2.912.32,4.38.321,3.052.001,6.169-.228,9.142-.943,2.502-.601,1.442-4.46-1.063-3.857-4.581,1.101-9.569,1.07-14.181.182-1.333-.256-1.202-.302-1.364-1.658-.171-1.429-.342-2.858-.51-4.288-.3-2.545-.595-5.092-.879-7.639-1.098-9.849-2.051-19.73-2.526-29.631-.241-5.018-.309-10.043-.148-15.064.083-2.575-3.917-2.572-4,0h0Z"/><path class="j" d="M201.881,108.999c.291,9.484-.299,18.959-1.096,28.406-.402,4.758-.877,9.51-1.396,14.256-.274,2.509-.561,5.016-.853,7.523-.145,1.243-.292,2.485-.44,3.728-.086.721-.172,1.442-.258,2.163-.04.336.007,1.41-.288,1.669-.192.168-1.028.218-1.309.27-.649.122-1.301.23-1.956.316-1.155.152-2.322.247-3.487.264-2.846.041-5.762-.126-8.535-.799-2.501-.607-3.568,3.249-1.063,3.857,5.104,1.239,10.557,1.202,15.707.292,1.201-.212,2.398-.426,3.333-1.273,1.155-1.046,1.334-2.398,1.51-3.863.337-2.812.672-5.624.996-8.437,1.218-10.556,2.291-21.135,2.881-31.747.308-5.536.424-11.082.254-16.624-.079-2.568-4.079-2.579-4,0h0Z"/><path class="j" d="M202.989,96.85c.041,2.429.077,4.858.117,7.287.005.282.029,3.662.063,3.663.212.009.594-.797.595-.796-.059-.055-.289.019-.377.006-.282-.044-.611.009-.897.012-2.508.032-5.016.048-7.524.061-6.164.03-12.328.032-18.493.021-4.826-.008-9.652-.016-14.477-.065-.548-.006-1.144-.083-1.689-.023-.43.048-.673-.246-.03.412.696.712.324.409.422-.037.057-.259.012-.644.017-.922.013-.694.025-1.389.037-2.083.084-4.792.155-9.583.219-14.375.146-10.939.257-21.878.388-32.817.031-2.575-3.969-2.576-4,0-.126,10.462-.232,20.924-.369,31.386-.068,5.192-.143,10.383-.234,15.574-.038,2.19-.697,5.2,1.605,6.466.743.409,1.581.391,2.4.403,11.351.174,22.712.114,34.064.06,2.913-.014,5.839.035,8.751-.077,1.195-.046,2.284-.314,2.997-1.362.776-1.14.582-2.5.559-3.812-.051-2.994-.095-5.989-.145-8.983-.043-2.571-4.043-2.579-4,0h0Z"/><path class="j" d="M158.098,92.044c-3.624-1.435-7.032-4.206-8.716-7.751-1.891-3.982-2.143-8.434-1.505-12.732.758-5.107,1.847-10.286,3.519-15.181.725-2.123,1.747-4.136,3.361-5.722,1.517-1.491,3.363-2.602,5.24-3.579,3.46-1.799,7.147-3.144,10.841-4.375,2.43-.81,1.389-4.674-1.063-3.857-3.715,1.238-7.409,2.612-10.927,4.339-4.68,2.297-8.559,5.396-10.609,10.304-1.005,2.405-1.612,4.929-2.276,7.442-.813,3.076-1.434,6.183-1.907,9.328-.78,5.189-.627,10.237,1.462,15.127,2.125,4.974,6.548,8.547,11.518,10.514,1.005.398,2.196-.436,2.46-1.397.312-1.137-.389-2.061-1.397-2.46h0Z"/><path class="j" d="M200.828,99.966c2.532-.567,5.053-1.2,7.469-2.157s5.046-2.033,7.124-3.589c2.45-1.834,4.012-4.264,4.611-7.255.618-3.087.587-6.189.345-9.313-.431-5.565-1.141-11.163-2.684-16.54-1.469-5.114-3.721-10.802-7.778-14.429-4.31-3.854-9.916-5.902-15.271-7.837-2.425-.876-3.47,2.987-1.063,3.857,4.243,1.533,8.572,3.132,12.258,5.797,3.826,2.767,5.934,7.348,7.39,11.714,1.606,4.814,2.441,9.854,2.928,14.894.251,2.596.499,5.22.372,7.83-.122,2.516-.481,5.09-2.27,6.98-1.746,1.844-4.397,2.952-6.72,3.911-2.503,1.033-5.138,1.69-7.774,2.28-2.511.562-1.448,4.419,1.063,3.857h0Z"/><path class="j" d="M206.44,76.97c.01-4.617.094-9.234.096-13.851,0-1.081-.919-2-2-2s-2,.915-2,2c-.001,4.617-.085,9.234-.096,13.851-.002,1.081.921,2,2,2,1.087,0,1.998-.915,2-2h0Z"/><path class="j" d="M179.473,95.328v79.379c0,3.667-.161,7.374,0,11.039.002.051,0,.102,0,.153,0,2.574,4,2.578,4,0v-79.379c0-3.667.161-7.374,0-11.039-.002-.051,0-.102,0-.153,0-2.574-4-2.578-4,0h0Z"/><path class="f" d="M196.134,96.633c-.372,1.659-1.977,2.325-4.215,2.789-.369.076-.759.034-1.118.148-.426.135-.789.417-1.11.728-.44.427-.928.986-1.427,1.341-.55.392-2.26.446-3.154-.038-2.903-1.572-8.487-4.933-8.487-4.933-.547-.268-.886-.552-1.175-.85-.552-.568-.792-1.359-.366-2.547.511-1.425,2.765-4.958,3.331-5.592.875-.983,1.987-2.001,3.516-2.107,1.265-.088,2.097-.033,3.354.129,1.988.256,4.009.225,6.25.057"/><path class="j" d="M194.205,96.101c-.111.413-.217.523-.714.773-.592.297-1.297.476-1.947.595-1.109.203-1.903.294-2.817,1.032-.324.262-.612.546-.906.841-.154.155-.331.309-.478.472-.303.236-.334.281-.093.135.19-.088.205-.106.046-.053-.016-.019-.989.045-1.177-.022-.612-.216-1.226-.678-1.79-.998-1.224-.697-2.441-1.408-3.654-2.124-.901-.532-1.797-1.073-2.699-1.604-.165-.097-.332-.191-.497-.288-.465-.273-.689-.303-.595-.667.157-.609.163-.514.522-1.19.348-.656.727-1.296,1.116-1.928.319-.517.645-1.03.988-1.532.134-.196.267-.393.411-.582-.359.467.147-.138.294-.288.481-.491,1.013-.968,1.712-1.1.946-.18,2.04-.024,2.989.084,2.215.253,4.392.262,6.615.102,1.077-.077,2-.864,2-2,0-1.022-.917-2.078-2-2-2.352.169-4.619.099-6.96-.141-2.359-.241-4.535-.007-6.422,1.532-1.171.955-2.005,2.196-2.804,3.462-.848,1.343-1.776,2.772-2.248,4.301-.71,2.297.387,4.242,2.362,5.402.783.46,1.563.926,2.344,1.389,1.458.864,2.919,1.722,4.391,2.562,1.606.916,3.102,1.806,5.031,1.666,1.249-.091,2.162-.544,3.066-1.404.306-.292.653-.83,1.039-1.028.472-.241,1.234-.162,1.77-.294,2.227-.548,4.325-1.679,4.96-4.04.669-2.489-3.188-3.551-3.857-1.063h0Z"/><path class="j" d="M201.402,79.477c-3.296,1.11-6.608,2.186-9.86,3.419-.963.365-1.773,1.359-1.397,2.46,1.419,4.154,2.944,8.268,4.611,12.329.41.998,1.329,1.708,2.46,1.397.945-.26,1.81-1.455,1.397-2.46-1.668-4.061-3.193-8.175-4.611-12.329l-1.397,2.46c3.252-1.234,6.564-2.309,9.86-3.419,1.023-.345,1.695-1.377,1.397-2.46-.274-.999-1.432-1.743-2.46-1.397h0Z"/><path class="f" d="M163.021,12.916c1.704-3.142,4.05-5.429,6.233-7.02,3.361-2.449,7.566-3.912,12.512-3.912s9.151,1.46,12.512,3.909c3.903,2.844,8.322,7.909,8.676,16.108.075,1.737-.117,3.699-.582,5.709.585.355,1.083.853,1.415,1.469.888,1.646.647,3.876-.37,5.502-.992,1.586-2.673,2.899-4.403,3.531,0,0-.086.031-.174.07-.679,2.056-1.847,4.464-3.811,6.715-1.273,1.459-2.624,2.597-4.074,3.457-1.413.837-2.921,2.028-4.544,2.373-1.513.321-2.978.397-4.37.442-1.393-.031-2.724-.166-4.032-.389-1.658-.282-3.277-1.471-4.798-2.327s-2.947-1.999-4.219-3.426c-1.993-2.236-3.189-4.638-3.89-6.69-1.874-.606-3.731-2.071-4.758-3.833-.966-1.657-1.136-3.893-.197-5.511.271-.467.639-.86,1.067-1.171-.503-2.082-.711-4.12-.634-5.917.156-3.611,1.1-6.615,2.442-9.089Z"/><path class="e" d="M202.496,27.144c-.039.189-.081.378-.125.568-1.257-.763-2.915-.868-4.191-.069-.493-1.767-.668-2.388-1.37-4.256-.753-2.004-1.735-3.939-2.931-5.763-.752-1.147-.985-2.359.359-3.274.968-.659,2.904-1.661,3.405-2.769,0,0,.319-.706.796-1.761,2.375,2.924,4.287,6.903,4.514,12.181.068,1.573-.083,3.331-.458,5.142Z"/><path class="e" d="M166.85,12.833c-.488-.385-.9-.8-1.094-1.231,0,0-.308-.681-.753-1.666-2.332,2.913-4.199,6.858-4.423,12.068-.078,1.798.13,3.836.632,5.919,1.155-.84,2.751-1.069,4.061-.487.431-1.536.662-2.285,1.317-4.03.753-2.004,1.735-3.939,2.931-5.763.752-1.147.985-2.359-.359-3.274-.592-.402-1.544-.933-2.31-1.538Z"/><path class="j" d="M196.91,37.75c-1.068,3.142-3.007,6.069-5.655,8.103-1.226.941-2.662,1.825-4.032,2.542-1.487.778-3.326.841-4.973.867-1.664.026-3.594-.058-5.125-.766-1.463-.676-2.972-1.605-4.281-2.541-2.731-1.953-4.721-4.927-5.821-8.07-.845-2.414-4.711-1.375-3.857,1.063,1.416,4.046,3.855,7.658,7.325,10.217,1.651,1.217,3.573,2.383,5.468,3.162,1.919.788,4.232.967,6.291.935,2.102-.032,4.336-.205,6.275-1.067,1.762-.783,3.537-1.963,5.069-3.131,3.401-2.595,5.805-6.22,7.174-10.249.83-2.443-3.032-3.491-3.857-1.063h0Z"/><path class="j" d="M187.984,42.301c.034.042.068.084.101.127l-.313-.405c.274.356.502.745.677,1.159l-.202-.478.009.021c.062.26.181.487.358.68.141.218.328.389.561.515.23.146.477.225.744.237.266.06.532.048.798-.036l.478-.202c.301-.178.54-.417.718-.718l.202-.478c.095-.354.095-.709,0-1.063-.166-.397-.324-.792-.546-1.161-.219-.364-.486-.702-.755-1.029-.181-.195-.396-.333-.644-.414-.238-.125-.495-.183-.771-.172-.275-.01-.532.047-.771.172-.248.081-.463.219-.644.414l-.313.405c-.181.312-.272.648-.273,1.009l.071.532c.095.339.266.633.514.883h0Z"/><path class="j" d="M204.107,29.017c1.506-5.894.961-12.181-2.09-17.51-2.343-4.093-6.11-7.556-10.427-9.468-10.339-4.579-22.769-1.259-29.191,8.066-3.806,5.525-4.613,12.499-2.974,18.915.637,2.492,4.496,1.436,3.857-1.063-1.258-4.924-.817-10.139,1.772-14.573,1.965-3.365,5.021-6.11,8.563-7.732,8.318-3.81,18.862-1.081,24.062,6.47,3.219,4.674,3.963,10.383,2.571,15.833-.637,2.495,3.219,3.56,3.857,1.063h0Z"/><path class="j" d="M164.028,12.612c.718,1.396,2.196,2.267,3.481,3.074.218.137.457.272.648.434-.119-.1.07-.204-.019-.057.032.119.035.128.007.027-.028-.065-.027-.131.002-.199-.106.11-.125.373-.291.643-.253.414-.522.817-.77,1.234-1.805,3.043-2.973,6.377-3.92,9.769-.693,2.483,3.165,3.543,3.857,1.063.466-1.67.971-3.317,1.598-4.934.703-1.813,1.679-3.46,2.689-5.114,1.078-1.766,1.142-3.987-.514-5.431-.613-.535-1.343-.922-2.021-1.366-.591-.388-1.071-.731-1.292-1.162-.494-.96-1.84-1.242-2.736-.718-.975.57-1.213,1.773-.718,2.736h0Z"/><path class="j" d="M195.916,10.572c-.022.043-.311.452-.113.215-.089.107-.197.204-.299.298-.311.286-.4.33-.784.585-.707.468-1.477.869-2.118,1.431-1.651,1.448-1.594,3.663-.514,5.431,1.01,1.653,1.984,3.301,2.689,5.114.613,1.579,1.099,3.186,1.554,4.816.691,2.476,4.551,1.424,3.857-1.063-.936-3.355-2.091-6.642-3.876-9.651-.227-.383-.473-.754-.706-1.133-.102-.166-.214-.33-.293-.509-.14-.316.072.322-.061-.236.021.087.028.186-.017.268.28-.509.005-.051.018-.063.059-.055.406-.264.549-.355,1.311-.827,2.833-1.701,3.568-3.129.494-.96.25-2.171-.718-2.736-.895-.524-2.24-.246-2.736.718h0Z"/><path class="g" d="M186.008,31.347c-.021-.153-.22-1.682.85-2.762.701-.708,1.535-.756,1.798-.766.203-.008,1.523-.037,2.355,1.104.788,1.081.869,2.845-.074,4.032-.978,1.23-2.572,1.299-3.618.59-.942-.638-1.189-1.424-1.311-2.197Z"/><path class="g" d="M172.302,31.347c-.021-.153-.22-1.682.85-2.762.701-.708,1.535-.756,1.798-.766.203-.008,1.523-.037,2.355,1.104.788,1.081.869,2.845-.074,4.032-.978,1.23-2.572,1.299-3.618.59-.942-.638-1.189-1.424-1.311-2.197Z"/><path class="j" d="M199.598,29.17c.045-.012.408-.07.432-.099-.264.032-.319.041-.165.028.074-.006.147-.01.221-.011.101-.002.373-.041.443.016-.119-.098-.364-.067-.019.007.145.031.288.07.43.116.264.086.218.003.006-.012.118.008.288.145.394.209.095.057.438.344.081.028.112.099.224.193.329.3.088.09.33.448.07.052.069.105.139.208.201.318.04.069.078.14.113.213-.078-.202-.091-.235-.039-.099.095.294.169.581.236.882-.102-.453-.007.038-.003.138.007.17.005.34-.003.51-.005.109-.085.607-.002.149-.026.141-.052.282-.086.421-.04.168-.087.333-.14.497-.054.165-.124.347-.012.084-.133.313-.303.612-.489.896-.025.038-.356.494-.091.152-.107.138-.221.27-.338.399-.216.24-.446.467-.686.682-.11.098-.223.193-.336.287.314-.26-.087.061-.16.111-.288.199-.586.383-.895.549-.152.082-.308.155-.462.231-.385.191.285-.106-.148.057-.976.368-1.751,1.367-1.397,2.46.309.954,1.412,1.792,2.46,1.397,3.639-1.373,6.829-4.611,6.789-8.714-.02-2.082-.916-3.98-2.605-5.207-1.474-1.07-3.447-1.38-5.193-.906-1.009.274-1.729,1.435-1.397,2.46.335,1.034,1.378,1.691,2.46,1.397h0Z"/><path class="j" d="M165.456,25.375c-1.724-.526-3.726-.235-5.214.792-1.727,1.191-2.628,3.079-2.713,5.155-.169,4.112,2.998,7.399,6.574,8.877.97.401,2.241-.433,2.46-1.397.266-1.166-.358-2.031-1.397-2.46.427.177-.09-.052-.14-.077-.154-.077-.306-.159-.455-.245-.279-.161-.537-.349-.806-.525-.113-.084-.095-.068.054.045-.069-.055-.137-.111-.204-.169-.112-.095-.223-.193-.33-.293-.258-.241-.495-.499-.728-.764-.367-.418.198.311-.114-.144-.097-.142-.195-.283-.284-.43-.074-.121-.144-.244-.21-.369-.04-.075-.078-.151-.114-.228.075.191.086.219.034.084-.103-.299-.205-.594-.273-.905-.018-.082-.068-.609-.038-.147-.011-.172-.028-.34-.032-.513-.003-.17.011-.34.013-.51.005-.384-.057.171.003-.053.079-.298.135-.591.247-.88-.165.422.031-.025.084-.117.06-.102.343-.43.031-.089.101-.111.195-.223.304-.328.092-.089.453-.322.053-.065.104-.067.205-.138.313-.2.052-.03.5-.257.226-.13-.271.126.117-.036.178-.055.143-.044.287-.074.432-.11.459-.115-.416.003.056-.005.148-.002.295-.002.444-.002.408,0-.372-.115.054,0,.143.039.287.069.429.113,1.001.306,2.225-.364,2.46-1.397.246-1.081-.325-2.133-1.397-2.46h0Z"/><path class="j" d="M190.047,29.799c-.789.045-1.574.057-2.364.006-.275-.01-.532.047-.771.172-.248.081-.463.219-.644.414-.195.181-.333.396-.414.644-.125.238-.183.495-.172.771.023.517.193,1.054.586,1.414l.405.313c.312.181.648.272,1.009.273.789.051,1.574.038,2.364-.006.275.01.532-.047.771-.172.248-.081.463-.219.644-.414.195-.181.333-.396.414-.644.125-.238.183-.495.172-.771-.023-.517-.193-1.054-.586-1.414-.378-.347-.884-.616-1.414-.586h0Z"/><path class="j" d="M176.214,29.799c-.789.045-1.574.057-2.364.006-.275-.01-.532.047-.771.172-.248.081-.463.219-.644.414-.195.181-.333.396-.414.644-.125.238-.183.495-.172.771.023.517.193,1.054.586,1.414l.405.313c.312.181.648.272,1.009.273.789.051,1.574.038,2.364-.006.275.01.532-.047.771-.172.248-.081.463-.219.644-.414.195-.181.333-.396.414-.644.125-.238.183-.495.172-.771-.023-.517-.193-1.054-.586-1.414-.378-.347-.884-.616-1.414-.586h0Z"/><rect class="k" x="2.039" y="187.066" width="360" height="13" rx="1" ry="1"/><path class="j" d="M3.039,202.066h356.957c.332,0,.673.024,1.004,0,3.752-.268,3.039-4.436,3.039-7.08v-6.038c0-1.972-.736-3.718-3-3.882-.237-.017-.483,0-.721,0H14.577c-3.799,0-7.709-.268-11.502,0-3.653.258-3.035,4.146-3.035,6.735v5.932c0,1.867.237,3.812,2.468,4.262,2.513.507,3.589-3.347,1.063-3.857,1.11.224.31,1.394.468.567.044-.23,0-.502,0-.737v-9.019c0-1.811-.247.491-.936.118.085.046.27-.017.365,0,1.446.257,3.178,0,4.641,0h347.181c1.667,0,3.44.172,5.1,0,.1-.01.415.061.495,0,.396-.303-.958-.883-.845-.939-.327.164,0,4.295,0,4.724,0,1.806-.259,3.827,0,5.616.006.042-.044.517,0,.539-.073-.037,1.078-.881.994-.939-.014-.01-.065.013-.075,0-.036-.046-.347.012-.406,0-.544-.106-1.219,0-1.771,0H3.039c-2.574,0-2.578,4,0,4Z"/></g></svg>