<svg id="b" xmlns="http://www.w3.org/2000/svg" width="304.261" height="326.342" viewBox="0 0 304.261 326.342" style="color: initial !important;"><defs><style>.d{fill:#3d8dcc;}.e{fill:#aaa0c7;}.f{fill:#d9d9d9;}.g{fill:#ffffff;}.h{fill:none;}.i{fill:#a98a75;}.j{fill:#211715;}.k{fill:#c6c6c6;}.l{fill:#645d5c;}</style></defs><g id="c"><path class="g" d="M74.695,187.067c-3.025,0-5.472-.015-7.858-1.3-1.936-1.043-3.246-3.057-3.266-5.262-.024-2.616-.027-4.023.193-6.385.459-4.921,9.805-4.711,13.369-2.824,1.476.781,3.958,2.321,5.868,3.475,2.783,1.681,4.753,2.557,6.727,5.237.849,1.153.849,2.964.36,4.493-.446,1.395-2.321,2.566-4.046,2.566h-11.347Z"/><path class="g" d="M51.562,187.067c3.025,0,5.472-.015,7.858-1.3,1.936-1.043,3.246-3.057,3.266-5.262.024-2.616.027-4.023-.193-6.385-.459-4.921-9.805-4.711-13.369-2.824-1.476.781-3.958,2.321-5.868,3.475-2.783,1.681-4.753,2.557-6.727,5.237-.849,1.153-.849,2.964-.36,4.493.446,1.395,2.321,2.566,4.046,2.566h11.347Z"/><path class="j" d="M74.695,185.067c-2.378-.001-5.072.124-7.166-1.21s-1.984-3.491-1.968-5.708c.008-1.063.048-2.124.129-3.184.066-.855.1-1.136.437-1.531.666-.78,2.077-1.142,3.29-1.293,1.542-.192,3.165-.107,4.666.222,1.76.385,2.813,1.064,4.466,2.051,1.997,1.192,4.006,2.372,5.985,3.594,1.553.959,3.903,2.465,3.884,4.504-.027,2.862-2.712,2.556-4.846,2.556h-8.877c-2.574,0-2.578,4,0,4h9.956c2.9,0,6.091-.728,7.258-3.759,2.577-6.696-4.591-10.254-9.239-13.078-2.162-1.314-4.342-2.869-6.811-3.55-2.019-.557-4.222-.754-6.307-.554-2.118.204-4.318.728-5.945,2.186-1.904,1.707-1.942,4.151-2.021,6.54-.115,3.484-.162,6.976,2.646,9.498,2.868,2.576,6.818,2.714,10.463,2.716,2.574.002,2.578-3.998,0-4Z"/><path class="j" d="M51.562,189.067c3.232-.002,6.709-.067,9.489-1.956,2.8-1.902,3.635-4.741,3.645-7.965.008-2.422.315-5.516-1.036-7.648-1.11-1.751-3.141-2.711-5.112-3.109-2.294-.464-4.644-.405-6.94.016-2.191.402-4.026,1.424-5.919,2.554-2.459,1.467-5.066,2.832-7.379,4.522-2.46,1.797-4.656,4.185-4.453,7.431.234,3.739,3.003,6.113,6.702,6.154,3.667.041,7.337,0,11.004,0,2.574,0,2.578-4,0-4h-8.138c-1.544,0-4.322.546-5.302-1.065-1.21-1.989.77-3.971,2.206-5.067,1.79-1.366,3.881-2.404,5.803-3.571,1.564-.95,3.432-2.232,4.882-2.695,1.5-.479,3.035-.646,4.607-.607,1.363.034,2.785.258,3.891.884.435.246.746.508.903.931-.102-.273.039.158.055.221.115.485-.073-1.037.063.453.058.644.098,1.29.126,1.936.099,2.354.577,5.347-1.461,7.034-2.062,1.707-5.131,1.543-7.635,1.545-2.574.002-2.578,4.002,0,4Z"/><path class="g" d="M63.159,115.623c-7.141,0-14.656,0-20.319,0-.216,0-.426-.027-.627-.078-.125,4.586-.067,9.953.363,16.766.784,12.361,1.95,22.713,3.619,36.59.103.868.737,1.59,1.604,1.791,1.782.393,4.095.731,6.194.813.289.009.578.009.868.009,2.006,0,4.077-.137,5.858-.393.895-.134,1.707-.291,2.422-.485.691.195,1.512.352,2.392.485,1.782.256,3.862.393,5.858.393.289,0,.578,0,.877-.009,2.09-.082,4.403-.42,6.185-.813.868-.201,1.502-.923,1.614-1.791,1.67-13.878,2.836-24.229,3.619-36.59.432-6.845.491-12.224.365-16.817-.251.084-.52.129-.8.129-3.725,0-11.648,0-20.093,0Z"/><path class="j" d="M40.24,114.706c-.307,9.572.333,19.139,1.177,28.67.438,4.942.958,9.876,1.517,14.806.295,2.6.601,5.2.911,7.798.292,2.446.195,5.339,2.87,6.441,1.156.476,2.51.583,3.741.751,1.317.18,2.641.324,3.971.341,2.999.04,6.075-.187,8.997-.883,2.503-.596,1.443-4.454-1.063-3.857-4.296,1.024-8.968.996-13.291.145-1.118-.22-.904-.251-1.052-1.49-.152-1.27-.304-2.539-.453-3.809-.291-2.468-.577-4.937-.852-7.407-1.015-9.127-1.896-18.283-2.335-27.457-.224-4.68-.288-9.365-.138-14.048.083-2.575-3.917-2.572-4,0h0Z"/><path class="j" d="M82.032,114.989c.268,8.782-.272,17.555-1.006,26.303-.375,4.475-.821,8.944-1.309,13.408-.258,2.359-.527,4.717-.802,7.073-.136,1.164-.273,2.328-.412,3.492-.066.559-.133,1.118-.2,1.677-.047.396.023,1.576-.293,1.845.093-.079-.658.097-.827.13-.671.132-1.346.249-2.024.34-1.03.138-2.072.229-3.111.252-2.715.06-5.5-.1-8.147-.737-2.502-.601-3.569,3.255-1.063,3.857,4.89,1.176,10.095,1.128,15.021.218,2.599-.48,3.944-1.799,4.268-4.441.336-2.739.655-5.48.972-8.221,1.144-9.913,2.154-19.848,2.703-29.814.282-5.123.387-10.255.23-15.384-.078-2.568-4.079-2.579-4,0h0Z"/><path class="e" d="M74.919,51.67c5.423,1.94,12.713,4.624,16.041,9.398,5.191,7.447,6.716,17.49,7.374,26.19.252,3.264.261,6.116-.596,9.306-.225.855-.684,1.833-1.51,2.803-.75.881-1.706,1.8-2.767,2.366-3.437,1.835-5.668,2.826-8.818,3.706.128.863.207,1.392.207,1.392l.933,6.256c0,1.402-1.131,2.538-2.533,2.538-6.874,0-28.052,0-40.412,0-1.402,0-2.553-1.137-2.537-2.538.035-3.025-.027-6.886-.123-11.105-1.037-.457-1.942-1.021-2.81-1.615-3.657-2.494-5.205-4.404-6.66-8.533-.896-2.531-1.137-6.66-.998-9.355.208-4.034.665-7.434,1.608-10.988,1.045-3.929,2.264-8.153,5.118-11.295,3.349-3.7,9.384-5.966,14.021-7.766l2.257-.758h22.204Z"/><path class="j" d="M41.393,100.251c-3.347-1.565-6.382-3.999-7.887-7.435-1.647-3.761-1.685-7.972-1.393-12,.34-4.692,1.3-9.369,2.92-13.792.752-2.053,1.781-4.076,3.293-5.676,1.415-1.497,3.166-2.604,4.97-3.574,3.199-1.719,6.62-3.006,10.05-4.179,2.422-.828,1.382-4.693-1.063-3.857-3.452,1.18-6.885,2.491-10.146,4.136-4.427,2.233-8.04,5.313-10.08,9.918-2.143,4.838-3.302,10.177-3.81,15.426-.454,4.691-.54,9.731,1.206,14.188,1.83,4.669,5.375,8.174,9.921,10.3.978.457,2.156.274,2.736-.718.507-.867.265-2.277-.718-2.736h0Z"/><path class="j" d="M81.265,108.287c2.431-.544,4.85-1.152,7.169-2.073,2.295-.911,4.81-1.939,6.796-3.424,2.375-1.776,3.886-4.141,4.459-7.044.58-2.942.55-5.897.319-8.874-.41-5.28-1.08-10.595-2.536-15.698-1.395-4.891-3.532-10.311-7.366-13.819-4.122-3.771-9.581-5.748-14.748-7.614-2.425-.876-3.47,2.988-1.063,3.857,4.057,1.466,8.212,2.992,11.727,5.555,3.617,2.636,5.61,6.99,6.99,11.128,1.515,4.542,2.31,9.299,2.775,14.054.247,2.521.489,5.069.367,7.603-.119,2.477-.497,4.918-2.284,6.748-1.651,1.691-4.177,2.725-6.345,3.609-2.361.963-4.84,1.58-7.323,2.135-2.511.562-1.448,4.419,1.063,3.857h0Z"/><path class="j" d="M86.439,85.747c.07-4.483.208-8.964.27-13.446.015-1.081-.93-2-2-2-1.097,0-1.985.916-2,2-.061,4.483-.2,8.964-.27,13.446-.017,1.081.931,2,2,2,1.098,0,1.983-.916,2-2h0Z"/><path class="j" d="M61.129,104.102v81.38c0,2.574,4,2.578,4,0v-81.38c0-2.574-4-2.578-4,0h0Z"/><path class="g" d="M76.805,105.319c-.347,1.547-1.844,2.169-3.932,2.602-.344.071-.708.032-1.043.138-.397.125-.736.389-1.035.679-.411.399-.865.919-1.331,1.251-.513.365-2.108.416-2.942-.035-2.708-1.467-7.917-4.602-7.917-4.602-.51-.25-.826-.515-1.096-.793-.515-.529-.739-1.268-.342-2.376.477-1.329,2.58-4.625,3.107-5.217.817-.917,1.853-1.866,3.28-1.965,1.18-.082,1.956-.031,3.129.121,1.854.239,3.739.21,5.83.053"/><path class="j" d="M74.876,104.787c-.097.362-.095.387-.604.641-.528.263-1.165.427-1.748.537-1.066.201-1.828.281-2.709.992-.308.248-.58.516-.858.795-.142.143-.312.287-.446.44-.291.228-.31.264-.057.109.208-.097.232-.119.073-.067.013.01-.929.017-.995-.007-.573-.212-1.139-.63-1.669-.931-1.142-.65-2.277-1.313-3.409-1.981-.841-.496-1.677-1.001-2.518-1.497-.154-.091-.309-.178-.463-.269-.214-.125-.392-.219-.549-.404.161.19-.029.225.059-.084.039-.137.092-.278.141-.416.093-.261-.142.302.001.008.107-.219.215-.438.329-.653.325-.612.678-1.209,1.041-1.798.297-.483.602-.961.921-1.429.125-.183.25-.366.383-.543-.362.476.094-.079.253-.241.421-.43.891-.864,1.502-.987.876-.176,1.908-.022,2.788.078,2.066.236,4.097.244,6.171.095,1.077-.077,2-.864,2-2,0-1.022-.917-2.078-2-2-2.194.158-4.309.092-6.493-.131-2.238-.229-4.298.008-6.085,1.468-1.1.898-1.885,2.067-2.637,3.256-.798,1.263-1.666,2.606-2.111,4.044-.68,2.199.372,4.079,2.265,5.191.73.429,1.458.864,2.187,1.296,1.36.806,2.723,1.607,4.096,2.39,1.519.866,2.938,1.704,4.761,1.572,1.201-.087,2.085-.521,2.955-1.349.261-.249.582-.759.91-.924.445-.223,1.147-.15,1.651-.274,2.124-.522,4.116-1.614,4.721-3.862.669-2.489-3.188-3.551-3.857-1.063h0Z"/><path class="j" d="M81.683,89.186c-3.075,1.035-6.164,2.039-9.198,3.19-.963.365-1.773,1.359-1.397,2.46,1.323,3.875,2.746,7.712,4.302,11.501.41.998,1.329,1.708,2.46,1.397.945-.26,1.81-1.455,1.397-2.46-1.556-3.788-2.978-7.626-4.302-11.501l-1.397,2.46c3.034-1.151,6.123-2.154,9.198-3.19,1.023-.345,1.695-1.377,1.397-2.46-.274-.999-1.432-1.743-2.46-1.397h0Z"/><path class="j" d="M39.24,72.299c-.156,7.072.064,14.153.235,21.222.09,3.732.186,7.464.254,11.197.03,1.67.055,3.34.065,5.011.009,1.456-.224,3.147.147,4.563,1.081,4.128,5.838,3.332,9.099,3.332h10.946c6.526,0,13.053,0,19.579,0,1.405,0,2.969.187,4.258-.473,1.769-.905,2.604-2.839,2.341-4.75-.28-2.035-.567-4.069-.85-6.104-.149-1.071-1.516-1.656-2.46-1.397-1.153.317-1.546,1.386-1.397,2.46l.722,5.184c.042.3.152.657.134.961s-.015-.307-.069-.278c-.101.055-.072.334-.254.376-.8.184-1.831.019-2.652.019-5.958,0-11.915,0-17.873,0-3.399,0-6.798,0-10.198,0h-4.676c-.775,0-2.624.447-2.802-.538-.221-1.227.01-2.713,0-3.964-.013-1.525-.036-3.05-.064-4.575-.063-3.422-.149-6.843-.232-10.264-.178-7.323-.415-14.658-.253-21.983.057-2.575-3.943-2.574-4,0h0Z"/><path class="g" d="M45.832,26.958c1.598-2.945,3.796-5.088,5.843-6.58,3.15-2.296,7.091-3.667,11.727-3.667s8.577,1.368,11.727,3.664c3.658,2.665,7.8,7.413,8.131,15.098.07,1.628-.109,3.467-.546,5.351.548.333,1.015.8,1.327,1.377.832,1.543.606,3.633-.347,5.157-.929,1.486-2.505,2.717-4.127,3.309,0,0-.081.029-.163.066-.636,1.927-1.731,4.184-3.572,6.294-1.193,1.367-2.459,2.435-3.819,3.24-1.325.785-2.738,1.901-4.259,2.224-1.418.301-2.791.372-4.096.414-1.305-.029-2.553-.156-3.779-.364-1.554-.264-3.071-1.378-4.497-2.181-1.426-.802-2.762-1.873-3.954-3.211-1.868-2.096-2.989-4.347-3.646-6.271-1.756-.568-3.497-1.941-4.459-3.593-.905-1.553-1.065-3.649-.185-5.165.254-.438.599-.807,1-1.097-.472-1.952-.666-3.861-.594-5.546.146-3.385,1.031-6.2,2.289-8.519Z"/><path class="j" d="M77.475,50.202c-.99,2.91-2.781,5.61-5.224,7.505-1.114.864-2.421,1.649-3.66,2.322-1.417.769-3.13.844-4.714.869-1.529.024-3.307-.036-4.718-.68-1.422-.65-2.902-1.55-4.162-2.476-2.476-1.82-4.285-4.536-5.294-7.414-.846-2.413-4.712-1.375-3.857,1.063,1.325,3.778,3.581,7.131,6.794,9.554,1.531,1.155,3.313,2.22,5.071,2.984,1.862.809,4.151,1.001,6.165.969s4.154-.217,6.007-1.053c1.704-.769,3.401-1.908,4.872-3.057,3.114-2.434,5.309-5.801,6.576-9.522.831-2.442-3.031-3.491-3.857-1.063h0Z"/><path class="j" d="M69.14,54.59c.032.039.064.079.095.119l-.313-.405c.257.334.47.698.634,1.086l-.202-.478.008.02c.062.26.181.487.358.68.141.218.328.389.561.515.23.146.477.225.744.237.266.06.532.048.798-.036l.478-.202c.301-.178.54-.417.718-.718l.202-.478c.095-.354.095-.709,0-1.063-.159-.382-.311-.763-.525-1.118-.211-.35-.468-.675-.727-.99-.181-.195-.396-.333-.644-.414-.238-.125-.495-.183-.771-.172-.275-.01-.532.047-.771.172-.248.081-.463.219-.644.414l-.313.405c-.181.312-.272.648-.273,1.009l.071.532c.095.339.266.633.514.883h0Z"/><path class="h" d="M67.377,44.234c-.019-.143-.206-1.576.796-2.589.657-.664,1.439-.708,1.685-.718.19-.008,1.428-.035,2.208,1.035.739,1.014.815,2.667-.069,3.779-.917,1.153-2.411,1.217-3.391.553-.883-.598-1.114-1.334-1.229-2.059Z"/><path class="h" d="M54.531,44.234c-.019-.143-.206-1.576.796-2.589.657-.664,1.439-.708,1.685-.718.19-.008,1.428-.035,2.208,1.035.739,1.014.815,2.667-.069,3.779-.917,1.153-2.411,1.217-3.391.553-.883-.598-1.114-1.334-1.229-2.059Z"/><path class="j" d="M80.148,42.314c.103-.028.313-.044.405-.093-.281.033-.343.044-.188.031.069-.006.138-.009.207-.01.064-.001.401-.021.415.015-.015-.039-.481-.09-.051.002.136.029.27.065.403.109.341.111.101-.05-.024-.024.079-.016.291.148.369.195.06.035.119.073.176.112.121.084.079.048-.125-.106.033.073.25.221.309.281l.096.102c.14.165.124.139-.05-.078.073.031.153.235.189.298.038.065.073.131.106.199-.085-.219-.101-.26-.049-.122.074.231.256.583.221.827-.029-.246-.037-.293-.023-.141.008.079.013.158.016.237.006.159.005.319-.003.478-.006.134.046.577.003.107.011.121-.053.28-.08.395-.037.157-.081.312-.131.466-.064.196-.108.3.001.049-.127.293-.283.573-.459.84-.036.054-.355.482-.066.117-.101.128-.207.252-.316.374-.202.225-.418.437-.643.639-.103.092-.209.18-.315.269.338-.283-.042.028-.124.085-.27.187-.55.359-.838.514-.142.077-.289.144-.433.217-.38.19.32-.12-.109.041-.976.368-1.751,1.367-1.397,2.46.309.954,1.412,1.792,2.46,1.397,3.463-1.306,6.493-4.384,6.455-8.288-.02-1.998-.883-3.813-2.504-4.989-1.408-1.021-3.297-1.315-4.964-.862-1.009.274-1.729,1.435-1.397,2.46.335,1.034,1.378,1.691,2.46,1.397h0Z"/><path class="j" d="M48.147,38.515c-1.646-.502-3.562-.225-4.983.755-1.657,1.142-2.523,2.948-2.605,4.94-.161,3.915,2.851,7.035,6.253,8.441.97.401,2.241-.433,2.46-1.397.266-1.166-.358-2.031-1.397-2.46.458.189-.036-.027-.101-.059-.144-.072-.287-.149-.426-.23-.262-.151-.503-.327-.755-.492-.115-.085-.09-.064.076.062-.065-.052-.129-.104-.191-.158-.105-.089-.209-.181-.31-.275-.242-.226-.464-.468-.683-.716-.35-.397.208.325-.087-.11-.09-.133-.182-.265-.267-.403-.069-.113-.135-.228-.197-.346-.038-.07-.073-.142-.107-.214.083.209.098.245.045.109-.096-.281-.192-.557-.255-.848-.018-.079-.033-.158-.046-.238-.025-.15-.02-.106.015.133-.047-.063-.028-.403-.03-.48-.003-.16.01-.319.012-.478.005-.385-.062.214-.002-.017.067-.256.089-.594.232-.825-.253.409.009.018.066-.08.035-.062.073-.121.113-.18.083-.122.049-.081-.104.122.051-.014.242-.266.285-.307l.102-.095c.166-.14.14-.122-.078.053.022-.067.238-.155.293-.187.053-.031.484-.259.197-.116-.275.138.084-.024.152-.045.134-.041.269-.068.404-.103.439-.112-.433.007.019,0,.139-.002.277-.002.416-.002.4,0-.399-.117.017-.004.134.037.269.065.402.106,1.001.306,2.225-.364,2.46-1.397.246-1.081-.325-2.133-1.397-2.46h0Z"/><path class="j" d="M71.163,42.657c-.74.042-1.475.054-2.215.006-.275-.01-.532.047-.771.172-.248.081-.463.219-.644.414-.195.181-.333.396-.414.644-.125.238-.183.495-.172.771.023.517.193,1.054.586,1.414l.405.313c.312.181.648.272,1.009.273.74.048,1.475.036,2.215-.006.275.01.532-.047.771-.172.248-.081.463-.219.644-.414.195-.181.333-.396.414-.644.125-.238.183-.495.172-.771-.023-.517-.193-1.054-.586-1.414-.378-.347-.884-.616-1.414-.586h0Z"/><path class="j" d="M58.197,42.657c-.74.042-1.475.054-2.215.006-.275-.01-.532.047-.771.172-.248.081-.463.219-.644.414-.195.181-.333.396-.414.644-.125.238-.183.495-.172.771.023.517.193,1.054.586,1.414l.405.313c.312.181.648.272,1.009.273.74.048,1.475.036,2.215-.006.275.01.532-.047.771-.172.248-.081.463-.219.644-.414.195-.181.333-.396.414-.644.125-.238.183-.495.172-.771-.023-.517-.193-1.054-.586-1.414-.378-.347-.884-.616-1.414-.586h0Z"/><path class="f" d="M77.106,33.199c-.753-1.296-1.707-2.501-2.871-3.608,0,0-1.475-1.143-2.827-2.19-1.558,2.08-3.99,3.495-6.235,4.407-2.925,1.188-4.916.917-8.093.151-.721.37-1.489.688-2.154.948-1.496.586-3.223.855-4.596,1.689-1.128.686-1.894,1.858-2.34,3.101-.271.755-.699,2.616-.873,3.377-.531-.51-1.246-.702-1.858-.68-.294.01-.55.053-.774.119-.645-1.674-1.165-4.372-1.168-6.358-.01-6.936,2.933-11.695,6.267-13.741,2.999-4.173,8.349-6.63,13.995-6.348,3.972.198,7.164,1.461,9.97,3.265,1.917,1.502,3.481,2.728,3.481,2.728,3.395,2.66,6.055,7.355,6.334,13.965.094,2.229-.168,4.047-.784,6.477-.213-.058-.455-.096-.729-.106-.612-.022-1.327.17-1.858.68,0,0-.322.309-.643.618l-.17-1.835c-.224-2.422-.906-4.65-2.072-6.659Z"/><path class="j" d="M48.572,18.689c-7.067,4.444-8.653,14.651-6.122,22.069.349,1.022,1.374,1.695,2.46,1.397.995-.274,1.747-1.433,1.397-2.46-1.214-3.558-1.31-7.405-.239-11.012.432-1.456,1.074-2.819,1.946-4.066.68-.974,1.669-1.903,2.578-2.474,2.174-1.367.169-4.83-2.019-3.454h0Z"/><path class="j" d="M75.481,16.227c-7.857-5.458-19.01-5.88-26.038,1.246-1.809,1.835,1.017,4.665,2.828,2.828,2.724-2.763,6.472-4.235,10.34-4.255,3.986-.02,7.612,1.384,10.851,3.634,2.119,1.472,4.121-1.994,2.019-3.454h0Z"/><path class="j" d="M84.576,40.758c1.855-7.661.336-16.954-6.133-22.113-.844-.673-2.004-.824-2.828,0-.698.698-.849,2.151,0,2.828,5.373,4.284,6.657,11.807,5.104,18.221-.605,2.501,3.251,3.568,3.857,1.063h0Z"/><path class="j" d="M72.821,31.005c.339.326.668.661.981,1.012.162.182.321.367.475.556.068.083.135.168.201.252-.267-.337-.029-.031.025.043.541.743,1.017,1.533,1.417,2.361.082.169.227.383.26.568-.044-.243-.081-.196.007.028.038.097.075.195.111.292.154.418.29.842.409,1.271.127.46.233.926.32,1.395.033.18.134.456.105.636l-.027-.21c.011.081.02.162.029.243.016.136.029.272.042.407.101,1.038.848,2.052,2,2,.997-.045,2.108-.885,2-2-.221-2.281-.759-4.432-1.737-6.508-.913-1.939-2.25-3.692-3.793-5.174-.755-.725-2.088-.807-2.828,0-.721.785-.806,2.054,0,2.828h0Z"/><path class="j" d="M70.044,25.867c-.063.095-.431.599-.277.408-.189.235-.391.459-.601.675-.187.193-.381.378-.582.557-.1.09-.202.177-.306.264-.027.022-.309.248-.192.159-.691.532-1.839,1.199-2.785,1.65-.117.056-.234.11-.352.163-.031.014-.376.168-.199.091.181-.079-.202.082-.225.091-.15.059-.3.116-.452.17-.585.208-1.185.37-1.797.474.215-.037.049-.003-.072.007-.133.012-.266.022-.399.029-.266.013-.532.015-.798.006-.305-.01-.61-.035-.914-.069-.345-.039.256.043-.097-.014-.181-.029-.36-.06-.54-.093-1.026-.186-2.206.279-2.46,1.397-.223.978.296,2.261,1.397,2.46,1.399.254,2.796.415,4.213.236,1.608-.202,3.072-.731,4.538-1.412,2.524-1.173,4.81-2.888,6.353-5.229.577-.875.202-2.25-.718-2.736-1.002-.529-2.12-.217-2.736.718h0Z"/><path class="j" d="M60.788,26.085c-.884,1.199-2.259,2.546-3.567,3.471-1.649,1.166-3.506,1.635-5.419,2.253-2.175.701-4.024,1.841-5.116,3.915-.789,1.499-1.123,3.182-1.498,4.819-.24,1.052.323,2.165,1.397,2.46,1.008.277,2.219-.339,2.46-1.397.324-1.417.588-3.032,1.265-4.171.385-.648.852-1.071,1.589-1.413.841-.391,1.815-.602,2.712-.89,2.022-.65,3.962-1.552,5.621-2.884,1.533-1.23,2.843-2.561,4.01-4.145.641-.87.145-2.232-.718-2.736-1.016-.594-2.093-.155-2.736.718h0Z"/><path class="i" d="M164.209,40.775c5.627,2.032,13.191,4.842,16.643,9.84,5.386,7.797,6.968,18.313,7.652,27.423.261,3.417.271,6.404-.618,9.744-.233.896-.71,1.92-1.566,2.935-.778.922-1.771,1.885-2.871,2.477-3.273,1.764-5.492,2.783-8.362,3.65.059,3.53.109,7.153.179,10.956.01.64-.49,1.189-1.13,1.2-11.053.186-41.678.1-44.218.004-.65-.019-1.15-.538-1.13-1.153.083-4.406.156-8.905.221-13.45-2.022-.528-3.597-1.442-5.048-2.412-3.922-2.622-5.588-4.633-7.147-8.977-.955-2.663-1.451-7.023-1.072-9.835.515-3.826,1.137-7.606,2.147-11.348,1.114-4.128,2.008-8.779,5.066-12.087,3.593-3.887,10.059-6.27,15.032-8.161l2.416-.805h23.807Z"/><path class="g" d="M164.514,187.067c-3.385,0-6.124-.017-8.794-1.455-2.167-1.167-3.633-3.421-3.655-5.889-.027-2.927-.031-4.502.216-7.145.514-5.507,10.972-5.272,14.961-3.161,1.652.874,4.43,2.598,6.567,3.889,3.115,1.881,5.319,2.861,7.528,5.861.95,1.29.95,3.317.403,5.028-.499,1.561-2.597,2.872-4.528,2.872h-12.698Z"/><path class="g" d="M138.626,187.067c3.385,0,6.124-.017,8.794-1.455,2.167-1.167,3.633-3.421,3.655-5.889.027-2.927.031-4.502-.216-7.145-.514-5.507-10.972-5.272-14.961-3.161-1.652.874-4.43,2.598-6.567,3.889-3.115,1.881-5.319,2.861-7.528,5.861-.95,1.29-.95,3.317-.403,5.028.499,1.561,2.597,2.872,4.528,2.872h12.698Z"/><path class="j" d="M164.514,185.067c-2.602-.001-5.428.105-7.785-1.182-2.553-1.394-2.681-3.721-2.677-6.34.002-1.243.036-2.484.125-3.723.037-.525.073-1.074.149-1.38.078-.309.207-.537.262-.61.803-1.059,2.306-1.463,3.735-1.675,1.765-.261,3.658-.172,5.397.189,1.982.411,3.118,1.104,4.92,2.174,2.372,1.409,4.76,2.808,7.103,4.265,1.768,1.099,4.354,2.808,4.365,5.12.016,3.299-2.868,3.163-5.386,3.163h-10.21c-2.574,0-2.578,4,0,4h10.756c1.723,0,3.326.025,4.929-.697,1.528-.689,2.838-1.9,3.414-3.498,2.683-7.45-5.534-11.311-10.666-14.429-2.289-1.391-4.586-3.002-7.197-3.723-2.288-.632-4.796-.845-7.156-.593-2.321.248-4.718.85-6.466,2.493-2.047,1.924-1.992,4.815-2.056,7.425-.047,1.908-.212,3.975.294,5.834.487,1.788,1.574,3.399,3.016,4.553,3.151,2.521,7.282,2.634,11.133,2.636,2.574.001,2.578-3.999,0-4Z"/><path class="j" d="M138.626,189.067c3.401-.002,6.932-.072,9.963-1.82,3.249-1.874,4.474-5.085,4.495-8.67.009-1.587-.008-3.172-.122-4.756-.098-1.361-.195-2.701-.906-3.902-1.159-1.957-3.381-3.034-5.533-3.495-2.444-.524-4.948-.474-7.405-.077s-4.512,1.454-6.64,2.717c-2.798,1.661-5.758,3.227-8.401,5.125-2.694,1.935-5.233,4.551-5.036,8.099.107,1.931.701,3.765,2.228,5.026,1.56,1.288,3.362,1.752,5.354,1.752h12.002c2.574,0,2.578-4,0-4h-9.093c-1.834,0-5.145.622-6.204-1.403-1.259-2.408.869-4.59,2.629-5.919,2.102-1.587,4.537-2.807,6.786-4.171,1.825-1.106,3.689-2.405,5.481-2.932,1.699-.5,3.463-.667,5.231-.595,1.581.065,3.297.323,4.539,1.237.313.231.639.657.757.949.341.852.272,2.325.308,3.449.086,2.677.526,5.833-1.844,7.693s-5.763,1.691-8.59,1.693c-2.574.001-2.578,4.001,0,4Z"/><path class="g" d="M129.178,108.695c-.17,5.122-.13,11.126.36,18.873.84,13.251,2.09,24.348,3.88,39.225.11.93.79,1.704,1.72,1.92,1.91.421,4.39.784,6.64.872.31.01.62.01.93.01,2.15,0,4.37-.147,6.28-.421.959-.144,1.83-.312,2.596-.52.74.209,1.621.377,2.564.52,1.91.274,4.14.421,6.28.421.31,0,.62,0,.96-.01,2.22-.088,4.7-.451,6.61-.872.93-.215,1.61-.989,1.73-1.92,1.79-14.877,3.04-25.974,3.88-39.225.48-7.6.53-13.516.37-18.569"/><path class="j" d="M127.178,108.695c-.329,10.212.351,20.418,1.249,30.586.467,5.295,1.023,10.581,1.622,15.862.312,2.749.634,5.497.962,8.244.322,2.706.183,6.059,3.26,7.147,1.268.449,2.731.565,4.058.738,1.455.191,2.912.32,4.38.321,3.052.001,6.169-.228,9.142-.943,2.502-.601,1.442-4.46-1.063-3.857-4.581,1.101-9.569,1.07-14.181.182-1.333-.256-1.202-.302-1.364-1.658-.171-1.429-.342-2.858-.51-4.288-.3-2.545-.595-5.092-.879-7.639-1.098-9.849-2.051-19.73-2.526-29.631-.241-5.018-.309-10.043-.148-15.064.083-2.575-3.917-2.572-4,0h0Z"/><path class="j" d="M171.978,108.999c.291,9.484-.299,18.959-1.096,28.406-.402,4.758-.877,9.51-1.396,14.256-.274,2.509-.561,5.016-.853,7.523-.145,1.243-.292,2.485-.44,3.728-.086.721-.172,1.442-.258,2.163-.04.336.007,1.41-.288,1.669-.192.168-1.028.218-1.309.27-.649.122-1.301.23-1.956.316-1.155.152-2.322.247-3.487.264-2.846.041-5.762-.126-8.535-.799-2.501-.607-3.568,3.249-1.063,3.857,5.104,1.239,10.557,1.202,15.707.292,1.201-.212,2.398-.426,3.333-1.273,1.155-1.046,1.334-2.398,1.51-3.863.337-2.812.672-5.624.996-8.437,1.218-10.556,2.291-21.135,2.881-31.747.308-5.536.424-11.082.254-16.624-.079-2.568-4.079-2.579-4,0h0Z"/><path class="j" d="M173.086,96.85c.041,2.429.077,4.858.117,7.287.005.282.029,3.662.063,3.663.212.009.594-.797.595-.796-.059-.055-.289.019-.377.006-.282-.044-.611.009-.897.012-2.508.032-5.016.048-7.524.061-6.164.03-12.328.032-18.493.021-4.826-.008-9.652-.016-14.477-.065-.548-.006-1.144-.083-1.689-.023-.43.048-.673-.246-.03.412.696.712.324.409.422-.037.057-.259.012-.644.017-.922.013-.694.025-1.389.037-2.083.084-4.792.155-9.583.219-14.375.146-10.939.257-21.878.388-32.817.031-2.575-3.969-2.576-4,0-.126,10.462-.232,20.924-.369,31.386-.068,5.192-.143,10.383-.234,15.574-.038,2.19-.697,5.2,1.605,6.466.743.409,1.581.391,2.4.403,11.351.174,22.712.114,34.064.06,2.913-.014,5.839.035,8.751-.077,1.195-.046,2.284-.314,2.997-1.362.776-1.14.582-2.5.559-3.812-.051-2.994-.095-5.989-.145-8.983-.043-2.571-4.043-2.579-4,0h0Z"/><path class="j" d="M128.195,92.044c-3.624-1.435-7.032-4.206-8.716-7.751-1.891-3.982-2.143-8.434-1.505-12.732.758-5.107,1.847-10.286,3.519-15.181.725-2.123,1.747-4.136,3.361-5.722,1.517-1.491,3.363-2.602,5.24-3.579,3.46-1.799,7.147-3.144,10.841-4.375,2.43-.81,1.389-4.674-1.063-3.857-3.715,1.238-7.409,2.612-10.927,4.339-4.68,2.297-8.559,5.396-10.609,10.304-1.005,2.405-1.612,4.929-2.276,7.442-.813,3.076-1.434,6.183-1.907,9.328-.78,5.189-.627,10.237,1.462,15.127,2.125,4.974,6.548,8.547,11.518,10.514,1.005.398,2.196-.436,2.46-1.397.312-1.137-.389-2.061-1.397-2.46h0Z"/><path class="j" d="M170.925,99.966c2.532-.567,5.053-1.2,7.469-2.157s5.046-2.033,7.124-3.589c2.45-1.834,4.012-4.264,4.611-7.255.618-3.087.587-6.189.345-9.313-.431-5.565-1.141-11.163-2.684-16.54-1.469-5.114-3.721-10.802-7.778-14.429-4.31-3.854-9.916-5.902-15.271-7.837-2.425-.876-3.47,2.987-1.063,3.857,4.243,1.533,8.572,3.132,12.258,5.797,3.826,2.767,5.934,7.348,7.39,11.714,1.606,4.814,2.441,9.854,2.928,14.894.251,2.596.499,5.22.372,7.83-.122,2.516-.481,5.09-2.27,6.98-1.746,1.844-4.397,2.952-6.72,3.911-2.503,1.033-5.138,1.69-7.774,2.28-2.511.562-1.448,4.419,1.063,3.857h0Z"/><path class="j" d="M176.537,76.97c.01-4.617.094-9.234.096-13.851,0-1.081-.919-2-2-2s-2,.915-2,2c-.001,4.617-.085,9.234-.096,13.851-.002,1.081.921,2,2,2,1.087,0,1.998-.915,2-2h0Z"/><path class="j" d="M149.57,95.328v79.379c0,3.667-.161,7.374,0,11.039.002.051,0,.102,0,.153,0,2.574,4,2.578,4,0v-79.379c0-3.667.161-7.374,0-11.039-.002-.051,0-.102,0-.153,0-2.574-4-2.578-4,0h0Z"/><path class="g" d="M166.231,96.633c-.372,1.659-1.977,2.325-4.215,2.789-.369.076-.759.034-1.118.148-.426.135-.789.417-1.11.728-.44.427-.928.986-1.427,1.341-.55.392-2.26.446-3.154-.038-2.903-1.572-8.487-4.933-8.487-4.933-.547-.268-.886-.552-1.175-.85-.552-.568-.792-1.359-.366-2.547.511-1.425,2.765-4.958,3.331-5.592.875-.983,1.987-2.001,3.516-2.107,1.265-.088,2.097-.033,3.354.129,1.988.256,4.009.225,6.25.057"/><path class="j" d="M164.302,96.101c-.111.413-.217.523-.714.773-.592.297-1.297.476-1.947.595-1.109.203-1.903.294-2.817,1.032-.324.262-.612.546-.906.841-.154.155-.331.309-.478.472-.303.236-.334.281-.093.135.19-.088.205-.106.046-.053-.016-.019-.989.045-1.177-.022-.612-.216-1.226-.678-1.79-.998-1.224-.697-2.441-1.408-3.654-2.124-.901-.532-1.797-1.073-2.699-1.604-.165-.097-.332-.191-.497-.288-.465-.273-.689-.303-.595-.667.157-.609.163-.514.522-1.19.348-.656.727-1.296,1.116-1.928.319-.517.645-1.03.988-1.532.134-.196.267-.393.411-.582-.359.467.147-.138.294-.288.481-.491,1.013-.968,1.712-1.1.946-.18,2.04-.024,2.989.084,2.215.253,4.392.262,6.615.102,1.077-.077,2-.864,2-2,0-1.022-.917-2.078-2-2-2.352.169-4.619.099-6.96-.141-2.359-.241-4.535-.007-6.422,1.532-1.171.955-2.005,2.196-2.804,3.462-.848,1.343-1.776,2.772-2.248,4.301-.71,2.297.387,4.242,2.362,5.402.783.46,1.563.926,2.344,1.389,1.458.864,2.919,1.722,4.391,2.562,1.606.916,3.102,1.806,5.031,1.666,1.249-.091,2.162-.544,3.066-1.404.306-.292.653-.83,1.039-1.028.472-.241,1.234-.162,1.77-.294,2.227-.548,4.325-1.679,4.96-4.04.669-2.489-3.188-3.551-3.857-1.063h0Z"/><path class="j" d="M171.498,79.477c-3.296,1.11-6.608,2.186-9.86,3.419-.963.365-1.773,1.359-1.397,2.46,1.419,4.154,2.944,8.268,4.611,12.329.41.998,1.329,1.708,2.46,1.397.945-.26,1.81-1.455,1.397-2.46-1.668-4.061-3.193-8.175-4.611-12.329l-1.397,2.46c3.252-1.234,6.564-2.309,9.86-3.419,1.023-.345,1.695-1.377,1.397-2.46-.274-.999-1.432-1.743-2.46-1.397h0Z"/><path class="g" d="M133.118,12.916c1.704-3.142,4.05-5.429,6.233-7.02,3.361-2.449,7.566-3.912,12.512-3.912s9.151,1.46,12.512,3.909c3.903,2.844,8.322,7.909,8.676,16.108.075,1.737-.117,3.699-.582,5.709.585.355,1.083.853,1.415,1.469.888,1.646.647,3.876-.37,5.502-.992,1.586-2.673,2.899-4.403,3.531,0,0-.086.031-.174.07-.679,2.056-1.847,4.464-3.811,6.715-1.273,1.459-2.624,2.597-4.074,3.457-1.413.837-2.921,2.028-4.544,2.373-1.513.321-2.978.397-4.37.442-1.393-.031-2.724-.166-4.032-.389-1.658-.282-3.277-1.471-4.798-2.327s-2.947-1.999-4.219-3.426c-1.993-2.236-3.189-4.638-3.89-6.69-1.874-.606-3.731-2.071-4.758-3.833-.966-1.657-1.136-3.893-.197-5.511.271-.467.639-.86,1.067-1.171-.503-2.082-.711-4.12-.634-5.917.156-3.611,1.1-6.615,2.442-9.089Z"/><path class="f" d="M172.592,27.144c-.039.189-.081.378-.125.568-1.257-.763-2.915-.868-4.191-.069-.493-1.767-.668-2.388-1.37-4.256-.753-2.004-1.735-3.939-2.931-5.763-.752-1.147-.985-2.359.359-3.274.968-.659,2.904-1.661,3.405-2.769,0,0,.319-.706.796-1.761,2.375,2.924,4.287,6.903,4.514,12.181.068,1.573-.083,3.331-.458,5.142Z"/><path class="f" d="M136.946,12.833c-.488-.385-.9-.8-1.094-1.231,0,0-.308-.681-.753-1.666-2.332,2.913-4.199,6.858-4.423,12.068-.078,1.798.13,3.836.632,5.919,1.155-.84,2.751-1.069,4.061-.487.431-1.536.662-2.285,1.317-4.03.753-2.004,1.735-3.939,2.931-5.763.752-1.147.985-2.359-.359-3.274-.592-.402-1.544-.933-2.31-1.538Z"/><path class="j" d="M167.007,37.75c-1.068,3.142-3.007,6.069-5.655,8.103-1.226.941-2.662,1.825-4.032,2.542-1.487.778-3.326.841-4.973.867-1.664.026-3.594-.058-5.125-.766-1.463-.676-2.972-1.605-4.281-2.541-2.731-1.953-4.721-4.927-5.821-8.07-.845-2.414-4.711-1.375-3.857,1.063,1.416,4.046,3.855,7.658,7.325,10.217,1.651,1.217,3.573,2.383,5.468,3.162,1.919.788,4.232.967,6.291.935,2.102-.032,4.336-.205,6.275-1.067,1.762-.783,3.537-1.963,5.069-3.131,3.401-2.595,5.805-6.22,7.174-10.249.83-2.443-3.032-3.491-3.857-1.063h0Z"/><path class="j" d="M158.081,42.301c.034.042.068.084.101.127l-.313-.405c.274.356.502.745.677,1.159l-.202-.478.009.021c.062.26.181.487.358.68.141.218.328.389.561.515.23.146.477.225.744.237.266.06.532.048.798-.036l.478-.202c.301-.178.54-.417.718-.718l.202-.478c.095-.354.095-.709,0-1.063-.166-.397-.324-.792-.546-1.161-.219-.364-.486-.702-.755-1.029-.181-.195-.396-.333-.644-.414-.238-.125-.495-.183-.771-.172-.275-.01-.532.047-.771.172-.248.081-.463.219-.644.414l-.313.405c-.181.312-.272.648-.273,1.009l.071.532c.095.339.266.633.514.883h0Z"/><path class="j" d="M174.204,29.017c1.506-5.894.961-12.181-2.09-17.51-2.343-4.093-6.11-7.556-10.427-9.468-10.339-4.579-22.769-1.259-29.191,8.066-3.806,5.525-4.613,12.499-2.974,18.915.637,2.492,4.496,1.436,3.857-1.063-1.258-4.924-.817-10.139,1.772-14.573,1.965-3.365,5.021-6.11,8.563-7.732,8.318-3.81,18.862-1.081,24.062,6.47,3.219,4.674,3.963,10.383,2.571,15.833-.637,2.495,3.219,3.56,3.857,1.063h0Z"/><path class="j" d="M134.125,12.612c.718,1.396,2.196,2.267,3.481,3.074.218.137.457.272.648.434-.119-.1.07-.204-.019-.057.032.119.035.128.007.027-.028-.065-.027-.131.002-.199-.106.11-.125.373-.291.643-.253.414-.522.817-.77,1.234-1.805,3.043-2.973,6.377-3.92,9.769-.693,2.483,3.165,3.543,3.857,1.063.466-1.67.971-3.317,1.598-4.934.703-1.813,1.679-3.46,2.689-5.114,1.078-1.766,1.142-3.987-.514-5.431-.613-.535-1.343-.922-2.021-1.366-.591-.388-1.071-.731-1.292-1.162-.494-.96-1.84-1.242-2.736-.718-.975.57-1.213,1.773-.718,2.736h0Z"/><path class="j" d="M166.013,10.572c-.022.043-.311.452-.113.215-.089.107-.197.204-.299.298-.311.286-.4.33-.784.585-.707.468-1.477.869-2.118,1.431-1.651,1.448-1.594,3.663-.514,5.431,1.01,1.653,1.984,3.301,2.689,5.114.613,1.579,1.099,3.186,1.554,4.816.691,2.476,4.551,1.424,3.857-1.063-.936-3.355-2.091-6.642-3.876-9.651-.227-.383-.473-.754-.706-1.133-.102-.166-.214-.33-.293-.509-.14-.316.072.322-.061-.236.021.087.028.186-.017.268.28-.509.005-.051.018-.063.059-.055.406-.264.549-.355,1.311-.827,2.833-1.701,3.568-3.129.494-.96.25-2.171-.718-2.736-.895-.524-2.24-.246-2.736.718h0Z"/><path class="h" d="M156.105,31.347c-.021-.153-.22-1.682.85-2.762.701-.708,1.535-.756,1.798-.766.203-.008,1.523-.037,2.355,1.104.788,1.081.869,2.845-.074,4.032-.978,1.23-2.572,1.299-3.618.59-.942-.638-1.189-1.424-1.311-2.197Z"/><path class="h" d="M142.399,31.347c-.021-.153-.22-1.682.85-2.762.701-.708,1.535-.756,1.798-.766.203-.008,1.523-.037,2.355,1.104.788,1.081.869,2.845-.074,4.032-.978,1.23-2.572,1.299-3.618.59-.942-.638-1.189-1.424-1.311-2.197Z"/><path class="j" d="M169.695,29.17c.045-.012.408-.07.432-.099-.264.032-.319.041-.165.028.074-.006.147-.01.221-.011.101-.002.373-.041.443.016-.119-.098-.364-.067-.019.007.145.031.288.07.43.116.264.086.218.003.006-.012.118.008.288.145.394.209.095.057.438.344.081.028.112.099.224.193.329.3.088.09.33.448.07.052.069.105.139.208.201.318.04.069.078.14.113.213-.078-.202-.091-.235-.039-.099.095.294.169.581.236.882-.102-.453-.007.038-.003.138.007.17.005.34-.003.51-.005.109-.085.607-.002.149-.026.141-.052.282-.086.421-.04.168-.087.333-.14.497-.054.165-.124.347-.012.084-.133.313-.303.612-.489.896-.025.038-.356.494-.091.152-.107.138-.221.27-.338.399-.216.24-.446.467-.686.682-.11.098-.223.193-.336.287.314-.26-.087.061-.16.111-.288.199-.586.383-.895.549-.152.082-.308.155-.462.231-.385.191.285-.106-.148.057-.976.368-1.751,1.367-1.397,2.46.309.954,1.412,1.792,2.46,1.397,3.639-1.373,6.829-4.611,6.789-8.714-.02-2.082-.916-3.98-2.605-5.207-1.474-1.07-3.447-1.38-5.193-.906-1.009.274-1.729,1.435-1.397,2.46.335,1.034,1.378,1.691,2.46,1.397h0Z"/><path class="j" d="M135.552,25.375c-1.724-.526-3.726-.235-5.214.792-1.727,1.191-2.628,3.079-2.713,5.155-.169,4.112,2.998,7.399,6.574,8.877.97.401,2.241-.433,2.46-1.397.266-1.166-.358-2.031-1.397-2.46.427.177-.09-.052-.14-.077-.154-.077-.306-.159-.455-.245-.279-.161-.537-.349-.806-.525-.113-.084-.095-.068.054.045-.069-.055-.137-.111-.204-.169-.112-.095-.223-.193-.33-.293-.258-.241-.495-.499-.728-.764-.367-.418.198.311-.114-.144-.097-.142-.195-.283-.284-.43-.074-.121-.144-.244-.21-.369-.04-.075-.078-.151-.114-.228.075.191.086.219.034.084-.103-.299-.205-.594-.273-.905-.018-.082-.068-.609-.038-.147-.011-.172-.028-.34-.032-.513-.003-.17.011-.34.013-.51.005-.384-.057.171.003-.053.079-.298.135-.591.247-.88-.165.422.031-.025.084-.117.06-.102.343-.43.031-.089.101-.111.195-.223.304-.328.092-.089.453-.322.053-.065.104-.067.205-.138.313-.2.052-.03.5-.257.226-.13-.271.126.117-.036.178-.055.143-.044.287-.074.432-.11.459-.115-.416.003.056-.005.148-.002.295-.002.444-.002.408,0-.372-.115.054,0,.143.039.287.069.429.113,1.001.306,2.225-.364,2.46-1.397.246-1.081-.325-2.133-1.397-2.46h0Z"/><path class="j" d="M160.144,29.799c-.789.045-1.574.057-2.364.006-.275-.01-.532.047-.771.172-.248.081-.463.219-.644.414-.195.181-.333.396-.414.644-.125.238-.183.495-.172.771.023.517.193,1.054.586,1.414l.405.313c.312.181.648.272,1.009.273.789.051,1.574.038,2.364-.006.275.01.532-.047.771-.172.248-.081.463-.219.644-.414.195-.181.333-.396.414-.644.125-.238.183-.495.172-.771-.023-.517-.193-1.054-.586-1.414-.378-.347-.884-.616-1.414-.586h0Z"/><path class="j" d="M146.311,29.799c-.789.045-1.574.057-2.364.006-.275-.01-.532.047-.771.172-.248.081-.463.219-.644.414-.195.181-.333.396-.414.644-.125.238-.183.495-.172.771.023.517.193,1.054.586,1.414l.405.313c.312.181.648.272,1.009.273.789.051,1.574.038,2.364-.006.275.01.532-.047.771-.172.248-.081.463-.219.644-.414.195-.181.333-.396.414-.644.125-.238.183-.495.172-.771-.023-.517-.193-1.054-.586-1.414-.378-.347-.884-.616-1.414-.586h0Z"/><path class="g" d="M250.811,187.067c-3.025,0-5.472-.015-7.858-1.3-1.936-1.043-3.246-3.057-3.266-5.262-.024-2.616-.027-4.023.193-6.385.459-4.921,9.805-4.711,13.369-2.824,1.476.781,3.958,2.321,5.868,3.475,2.783,1.681,4.753,2.557,6.727,5.237.849,1.153.849,2.964.36,4.493-.446,1.395-2.321,2.566-4.046,2.566h-11.347Z"/><path class="g" d="M227.677,187.067c3.025,0,5.472-.015,7.858-1.3,1.936-1.043,3.246-3.057,3.266-5.262.024-2.616.027-4.023-.193-6.385-.459-4.921-9.805-4.711-13.369-2.824-1.476.781-3.958,2.321-5.868,3.475-2.783,1.681-4.753,2.557-6.727,5.237-.849,1.153-.849,2.964-.36,4.493.446,1.395,2.321,2.566,4.046,2.566h11.347Z"/><path class="j" d="M250.811,185.067c-2.378-.001-5.072.124-7.166-1.21s-1.984-3.491-1.968-5.708c.008-1.063.048-2.124.129-3.184.066-.855.1-1.136.437-1.531.666-.78,2.077-1.142,3.29-1.293,1.542-.192,3.165-.107,4.666.222,1.76.385,2.813,1.064,4.466,2.051,1.997,1.192,4.006,2.372,5.985,3.594,1.553.959,3.903,2.465,3.884,4.504-.027,2.862-2.712,2.556-4.846,2.556h-8.877c-2.574,0-2.578,4,0,4h9.956c2.9,0,6.091-.728,7.258-3.759,2.577-6.696-4.591-10.254-9.239-13.078-2.162-1.314-4.342-2.869-6.811-3.55-2.019-.557-4.222-.754-6.307-.554-2.118.204-4.318.728-5.945,2.186-1.904,1.707-1.942,4.151-2.021,6.54-.115,3.484-.162,6.976,2.646,9.498,2.868,2.576,6.818,2.714,10.463,2.716,2.574.002,2.578-3.998,0-4Z"/><path class="j" d="M227.677,189.067c3.232-.002,6.709-.067,9.489-1.956,2.8-1.902,3.635-4.741,3.645-7.965.008-2.422.315-5.516-1.036-7.648-1.11-1.751-3.141-2.711-5.112-3.109-2.294-.464-4.644-.405-6.94.016-2.191.402-4.026,1.424-5.919,2.554-2.459,1.467-5.066,2.832-7.379,4.522-2.46,1.797-4.656,4.185-4.453,7.431.234,3.739,3.003,6.113,6.702,6.154,3.667.041,7.337,0,11.004,0,2.574,0,2.578-4,0-4h-8.138c-1.544,0-4.322.546-5.302-1.065-1.21-1.989.77-3.971,2.206-5.067,1.79-1.366,3.881-2.404,5.803-3.571,1.564-.95,3.432-2.232,4.882-2.695,1.5-.479,3.035-.646,4.607-.607,1.363.034,2.785.258,3.891.884.435.246.746.508.903.931-.102-.273.039.158.055.221.115.485-.073-1.037.063.453.058.644.098,1.29.126,1.936.099,2.354.577,5.347-1.461,7.034-2.062,1.707-5.131,1.543-7.635,1.545-2.574.002-2.578,4.002,0,4Z"/><path class="g" d="M239.274,115.623c-7.141,0-14.656,0-20.319,0-.216,0-.426-.027-.627-.078-.125,4.586-.067,9.953.363,16.766.784,12.361,1.95,22.713,3.619,36.59.103.868.737,1.59,1.604,1.791,1.782.393,4.095.731,6.194.813.289.009.578.009.868.009,2.006,0,4.077-.137,5.858-.393.895-.134,1.707-.291,2.422-.485.691.195,1.512.352,2.392.485,1.782.256,3.862.393,5.858.393.289,0,.578,0,.877-.009,2.09-.082,4.403-.42,6.185-.813.868-.201,1.502-.923,1.614-1.791,1.67-13.878,2.836-24.229,3.619-36.59.432-6.845.491-12.224.365-16.817-.251.084-.52.129-.8.129-3.725,0-11.648,0-20.093,0Z"/><path class="j" d="M216.356,114.706c-.307,9.572.333,19.139,1.177,28.67.438,4.942.958,9.876,1.517,14.806.295,2.6.601,5.2.911,7.798.292,2.446.195,5.339,2.87,6.441,1.156.476,2.51.583,3.741.751,1.317.18,2.641.324,3.971.341,2.999.04,6.075-.187,8.997-.883,2.503-.596,1.443-4.454-1.063-3.857-4.296,1.024-8.968.996-13.291.145-1.118-.22-.904-.251-1.052-1.49-.152-1.27-.304-2.539-.453-3.809-.291-2.468-.577-4.937-.852-7.407-1.015-9.127-1.896-18.283-2.335-27.457-.224-4.68-.288-9.365-.138-14.048.083-2.575-3.917-2.572-4,0h0Z"/><path class="j" d="M258.147,114.989c.268,8.782-.272,17.555-1.006,26.303-.375,4.475-.821,8.944-1.309,13.408-.258,2.359-.527,4.717-.802,7.073-.136,1.164-.273,2.328-.412,3.492-.066.559-.133,1.118-.2,1.677-.047.396.023,1.576-.293,1.845.093-.079-.658.097-.827.13-.671.132-1.346.249-2.024.34-1.03.138-2.072.229-3.111.252-2.715.06-5.5-.1-8.147-.737-2.502-.601-3.569,3.255-1.063,3.857,4.89,1.176,10.095,1.128,15.021.218,2.599-.48,3.944-1.799,4.268-4.441.336-2.739.655-5.48.972-8.221,1.144-9.913,2.154-19.848,2.703-29.814.282-5.123.387-10.255.23-15.384-.078-2.568-4.079-2.579-4,0h0Z"/><path class="e" d="M251.034,51.67c5.423,1.94,12.713,4.624,16.041,9.398,5.191,7.447,6.716,17.49,7.374,26.19.252,3.264.261,6.116-.596,9.306-.225.855-.684,1.833-1.51,2.803-.75.881-1.706,1.8-2.767,2.366-3.437,1.835-5.668,2.826-8.818,3.706.128.863.207,1.392.207,1.392l.933,6.256c0,1.402-1.131,2.538-2.533,2.538-6.874,0-28.052,0-40.412,0-1.402,0-2.553-1.137-2.537-2.538.035-3.025-.027-6.886-.123-11.105-1.037-.457-1.942-1.021-2.81-1.615-3.657-2.494-5.205-4.404-6.66-8.533-.896-2.531-1.137-6.66-.998-9.355.208-4.034.665-7.434,1.608-10.988,1.045-3.929,2.264-8.153,5.118-11.295,3.349-3.7,9.384-5.966,14.021-7.766l2.257-.758h22.204Z"/><path class="j" d="M217.509,100.251c-3.347-1.565-6.382-3.999-7.887-7.435-1.647-3.761-1.685-7.972-1.393-12,.34-4.692,1.3-9.369,2.92-13.792.752-2.053,1.781-4.076,3.293-5.676,1.415-1.497,3.166-2.604,4.97-3.574,3.199-1.719,6.62-3.006,10.05-4.179,2.422-.828,1.382-4.693-1.063-3.857-3.452,1.18-6.885,2.491-10.146,4.136-4.427,2.233-8.04,5.313-10.08,9.918-2.143,4.838-3.302,10.177-3.81,15.426-.454,4.691-.54,9.731,1.206,14.188,1.83,4.669,5.375,8.174,9.921,10.3.978.457,2.156.274,2.736-.718.507-.867.265-2.277-.718-2.736h0Z"/><path class="j" d="M257.381,108.287c2.431-.544,4.85-1.152,7.169-2.073,2.295-.911,4.81-1.939,6.796-3.424,2.375-1.776,3.886-4.141,4.459-7.044.58-2.942.55-5.897.319-8.874-.41-5.28-1.08-10.595-2.536-15.698-1.395-4.891-3.532-10.311-7.366-13.819-4.122-3.771-9.581-5.748-14.748-7.614-2.425-.876-3.47,2.988-1.063,3.857,4.057,1.466,8.212,2.992,11.727,5.555,3.617,2.636,5.61,6.99,6.99,11.128,1.515,4.542,2.31,9.299,2.775,14.054.247,2.521.489,5.069.367,7.603-.119,2.477-.497,4.918-2.284,6.748-1.651,1.691-4.177,2.725-6.345,3.609-2.361.963-4.84,1.58-7.323,2.135-2.511.562-1.448,4.419,1.063,3.857h0Z"/><path class="j" d="M262.554,85.747c.07-4.483.208-8.964.27-13.446.015-1.081-.93-2-2-2-1.097,0-1.985.916-2,2-.061,4.483-.2,8.964-.27,13.446-.017,1.081.931,2,2,2,1.098,0,1.983-.916,2-2h0Z"/><path class="j" d="M237.244,104.102v81.38c0,2.574,4,2.578,4,0v-81.38c0-2.574-4-2.578-4,0h0Z"/><path class="g" d="M252.92,105.319c-.347,1.547-1.844,2.169-3.932,2.602-.344.071-.708.032-1.043.138-.397.125-.736.389-1.035.679-.411.399-.865.919-1.331,1.251-.513.365-2.108.416-2.942-.035-2.708-1.467-7.917-4.602-7.917-4.602-.51-.25-.826-.515-1.096-.793-.515-.529-.739-1.268-.342-2.376.477-1.329,2.58-4.625,3.107-5.217.817-.917,1.853-1.866,3.28-1.965,1.18-.082,1.956-.031,3.129.121,1.854.239,3.739.21,5.83.053"/><path class="j" d="M250.991,104.787c-.097.362-.095.387-.604.641-.528.263-1.165.427-1.748.537-1.066.201-1.828.281-2.709.992-.308.248-.58.516-.858.795-.142.143-.312.287-.446.44-.291.228-.31.264-.057.109.208-.097.232-.119.073-.067.013.01-.929.017-.995-.007-.573-.212-1.139-.63-1.669-.931-1.142-.65-2.277-1.313-3.409-1.981-.841-.496-1.677-1.001-2.518-1.497-.154-.091-.309-.178-.463-.269-.214-.125-.392-.219-.549-.404.161.19-.029.225.059-.084.039-.137.092-.278.141-.416.093-.261-.142.302.001.008.107-.219.215-.438.329-.653.325-.612.678-1.209,1.041-1.798.297-.483.602-.961.921-1.429.125-.183.25-.366.383-.543-.362.476.094-.079.253-.241.421-.43.891-.864,1.502-.987.876-.176,1.908-.022,2.788.078,2.066.236,4.097.244,6.171.095,1.077-.077,2-.864,2-2,0-1.022-.917-2.078-2-2-2.194.158-4.309.092-6.493-.131-2.238-.229-4.298.008-6.085,1.468-1.1.898-1.885,2.067-2.637,3.256-.798,1.263-1.666,2.606-2.111,4.044-.68,2.199.372,4.079,2.265,5.191.73.429,1.458.864,2.187,1.296,1.36.806,2.723,1.607,4.096,2.39,1.519.866,2.938,1.704,4.761,1.572,1.201-.087,2.085-.521,2.955-1.349.261-.249.582-.759.91-.924.445-.223,1.147-.15,1.651-.274,2.124-.522,4.116-1.614,4.721-3.862.669-2.489-3.188-3.551-3.857-1.063h0Z"/><path class="j" d="M257.798,89.186c-3.075,1.035-6.164,2.039-9.198,3.19-.963.365-1.773,1.359-1.397,2.46,1.323,3.875,2.746,7.712,4.302,11.501.41.998,1.329,1.708,2.46,1.397.945-.26,1.81-1.455,1.397-2.46-1.556-3.788-2.978-7.626-4.302-11.501l-1.397,2.46c3.034-1.151,6.123-2.154,9.198-3.19,1.023-.345,1.695-1.377,1.397-2.46-.274-.999-1.432-1.743-2.46-1.397h0Z"/><path class="j" d="M215.355,72.299c-.156,7.072.064,14.153.235,21.222.09,3.732.186,7.464.254,11.197.03,1.67.055,3.34.065,5.011.009,1.456-.224,3.147.147,4.563,1.081,4.128,5.838,3.332,9.099,3.332h10.946c6.526,0,13.053,0,19.579,0,1.405,0,2.969.187,4.258-.473,1.769-.905,2.604-2.839,2.341-4.75-.28-2.035-.567-4.069-.85-6.104-.149-1.071-1.516-1.656-2.46-1.397-1.153.317-1.546,1.386-1.397,2.46l.722,5.184c.042.3.152.657.134.961s-.015-.307-.069-.278c-.101.055-.072.334-.254.376-.8.184-1.831.019-2.652.019-5.958,0-11.915,0-17.873,0-3.399,0-6.798,0-10.198,0h-4.676c-.775,0-2.624.447-2.802-.538-.221-1.227.01-2.713,0-3.964-.013-1.525-.036-3.05-.064-4.575-.063-3.422-.149-6.843-.232-10.264-.178-7.323-.415-14.658-.253-21.983.057-2.575-3.943-2.574-4,0h0Z"/><path class="g" d="M221.947,26.958c1.598-2.945,3.796-5.088,5.843-6.58,3.15-2.296,7.091-3.667,11.727-3.667s8.577,1.368,11.727,3.664c3.658,2.665,7.8,7.413,8.131,15.098.07,1.628-.109,3.467-.546,5.351.548.333,1.015.8,1.327,1.377.832,1.543.606,3.633-.347,5.157-.929,1.486-2.505,2.717-4.127,3.309,0,0-.081.029-.163.066-.636,1.927-1.731,4.184-3.572,6.294-1.193,1.367-2.459,2.435-3.819,3.24-1.325.785-2.738,1.901-4.259,2.224-1.418.301-2.791.372-4.096.414-1.305-.029-2.553-.156-3.779-.364-1.554-.264-3.071-1.378-4.497-2.181-1.426-.802-2.762-1.873-3.954-3.211-1.868-2.096-2.989-4.347-3.646-6.271-1.756-.568-3.497-1.941-4.459-3.593-.905-1.553-1.065-3.649-.185-5.165.254-.438.599-.807,1-1.097-.472-1.952-.666-3.861-.594-5.546.146-3.385,1.031-6.2,2.289-8.519Z"/><path class="j" d="M253.59,50.202c-.99,2.91-2.781,5.61-5.224,7.505-1.114.864-2.421,1.649-3.66,2.322-1.417.769-3.13.844-4.714.869-1.529.024-3.307-.036-4.718-.68-1.422-.65-2.902-1.55-4.162-2.476-2.476-1.82-4.285-4.536-5.294-7.414-.846-2.413-4.712-1.375-3.857,1.063,1.325,3.778,3.581,7.131,6.794,9.554,1.531,1.155,3.313,2.22,5.071,2.984,1.862.809,4.151,1.001,6.165.969s4.154-.217,6.007-1.053c1.704-.769,3.401-1.908,4.872-3.057,3.114-2.434,5.309-5.801,6.576-9.522.831-2.442-3.031-3.491-3.857-1.063h0Z"/><path class="j" d="M245.256,54.59c.032.039.064.079.095.119l-.313-.405c.257.334.47.698.634,1.086l-.202-.478.008.02c.062.26.181.487.358.68.141.218.328.389.561.515.23.146.477.225.744.237.266.06.532.048.798-.036l.478-.202c.301-.178.54-.417.718-.718l.202-.478c.095-.354.095-.709,0-1.063-.159-.382-.311-.763-.525-1.118-.211-.35-.468-.675-.727-.99-.181-.195-.396-.333-.644-.414-.238-.125-.495-.183-.771-.172-.275-.01-.532.047-.771.172-.248.081-.463.219-.644.414l-.313.405c-.181.312-.272.648-.273,1.009l.071.532c.095.339.266.633.514.883h0Z"/><path class="h" d="M243.492,44.234c-.019-.143-.206-1.576.796-2.589.657-.664,1.439-.708,1.685-.718.19-.008,1.428-.035,2.208,1.035.739,1.014.815,2.667-.069,3.779-.917,1.153-2.411,1.217-3.391.553-.883-.598-1.114-1.334-1.229-2.059Z"/><path class="h" d="M230.646,44.234c-.019-.143-.206-1.576.796-2.589.657-.664,1.439-.708,1.685-.718.19-.008,1.428-.035,2.208,1.035.739,1.014.815,2.667-.069,3.779-.917,1.153-2.411,1.217-3.391.553-.883-.598-1.114-1.334-1.229-2.059Z"/><path class="j" d="M256.264,42.314c.103-.028.313-.044.405-.093-.281.033-.343.044-.188.031.069-.006.138-.009.207-.01.064-.001.401-.021.415.015-.015-.039-.481-.09-.051.002.136.029.27.065.403.109.341.111.101-.05-.024-.024.079-.016.291.148.369.195.06.035.119.073.176.112.121.084.079.048-.125-.106.033.073.25.221.309.281l.096.102c.14.165.124.139-.05-.078.073.031.153.235.189.298.038.065.073.131.106.199-.085-.219-.101-.26-.049-.122.074.231.256.583.221.827-.029-.246-.037-.293-.023-.141.008.079.013.158.016.237.006.159.005.319-.003.478-.006.134.046.577.003.107.011.121-.053.28-.08.395-.037.157-.081.312-.131.466-.064.196-.108.3.001.049-.127.293-.283.573-.459.84-.036.054-.355.482-.066.117-.101.128-.207.252-.316.374-.202.225-.418.437-.643.639-.103.092-.209.18-.315.269.338-.283-.042.028-.124.085-.27.187-.55.359-.838.514-.142.077-.289.144-.433.217-.38.19.32-.12-.109.041-.976.368-1.751,1.367-1.397,2.46.309.954,1.412,1.792,2.46,1.397,3.463-1.306,6.493-4.384,6.455-8.288-.02-1.998-.883-3.813-2.504-4.989-1.408-1.021-3.297-1.315-4.964-.862-1.009.274-1.729,1.435-1.397,2.46.335,1.034,1.378,1.691,2.46,1.397h0Z"/><path class="j" d="M224.262,38.515c-1.646-.502-3.562-.225-4.983.755-1.657,1.142-2.523,2.948-2.605,4.94-.161,3.915,2.851,7.035,6.253,8.441.97.401,2.241-.433,2.46-1.397.266-1.166-.358-2.031-1.397-2.46.458.189-.036-.027-.101-.059-.144-.072-.287-.149-.426-.23-.262-.151-.503-.327-.755-.492-.115-.085-.09-.064.076.062-.065-.052-.129-.104-.191-.158-.105-.089-.209-.181-.31-.275-.242-.226-.464-.468-.683-.716-.35-.397.208.325-.087-.11-.09-.133-.182-.265-.267-.403-.069-.113-.135-.228-.197-.346-.038-.07-.073-.142-.107-.214.083.209.098.245.045.109-.096-.281-.192-.557-.255-.848-.018-.079-.033-.158-.046-.238-.025-.15-.02-.106.015.133-.047-.063-.028-.403-.03-.48-.003-.16.01-.319.012-.478.005-.385-.062.214-.002-.017.067-.256.089-.594.232-.825-.253.409.009.018.066-.08.035-.062.073-.121.113-.18.083-.122.049-.081-.104.122.051-.014.242-.266.285-.307l.102-.095c.166-.14.14-.122-.078.053.022-.067.238-.155.293-.187.053-.031.484-.259.197-.116-.275.138.084-.024.152-.045.134-.041.269-.068.404-.103.439-.112-.433.007.019,0,.139-.002.277-.002.416-.002.4,0-.399-.117.017-.004.134.037.269.065.402.106,1.001.306,2.225-.364,2.46-1.397.246-1.081-.325-2.133-1.397-2.46h0Z"/><path class="j" d="M247.278,42.657c-.74.042-1.475.054-2.215.006-.275-.01-.532.047-.771.172-.248.081-.463.219-.644.414-.195.181-.333.396-.414.644-.125.238-.183.495-.172.771.023.517.193,1.054.586,1.414l.405.313c.312.181.648.272,1.009.273.74.048,1.475.036,2.215-.006.275.01.532-.047.771-.172.248-.081.463-.219.644-.414.195-.181.333-.396.414-.644.125-.238.183-.495.172-.771-.023-.517-.193-1.054-.586-1.414-.378-.347-.884-.616-1.414-.586h0Z"/><path class="j" d="M234.312,42.657c-.74.042-1.475.054-2.215.006-.275-.01-.532.047-.771.172-.248.081-.463.219-.644.414-.195.181-.333.396-.414.644-.125.238-.183.495-.172.771.023.517.193,1.054.586,1.414l.405.313c.312.181.648.272,1.009.273.74.048,1.475.036,2.215-.006.275.01.532-.047.771-.172.248-.081.463-.219.644-.414.195-.181.333-.396.414-.644.125-.238.183-.495.172-.771-.023-.517-.193-1.054-.586-1.414-.378-.347-.884-.616-1.414-.586h0Z"/><path class="f" d="M253.221,33.199c-.753-1.296-1.707-2.501-2.871-3.608,0,0-1.475-1.143-2.827-2.19-1.558,2.08-3.99,3.495-6.235,4.407-2.925,1.188-4.916.917-8.093.151-.721.37-1.489.688-2.154.948-1.496.586-3.223.855-4.596,1.689-1.128.686-1.894,1.858-2.34,3.101-.271.755-.699,2.616-.873,3.377-.531-.51-1.246-.702-1.858-.68-.294.01-.55.053-.774.119-.645-1.674-1.165-4.372-1.168-6.358-.01-6.936,2.933-11.695,6.267-13.741,2.999-4.173,8.349-6.63,13.995-6.348,3.972.198,7.164,1.461,9.97,3.265,1.917,1.502,3.481,2.728,3.481,2.728,3.395,2.66,6.055,7.355,6.334,13.965.094,2.229-.168,4.047-.784,6.477-.213-.058-.455-.096-.729-.106-.612-.022-1.327.17-1.858.68,0,0-.322.309-.643.618l-.17-1.835c-.224-2.422-.906-4.65-2.072-6.659Z"/><path class="j" d="M224.687,18.689c-7.067,4.444-8.653,14.651-6.122,22.069.349,1.022,1.374,1.695,2.46,1.397.995-.274,1.747-1.433,1.397-2.46-1.214-3.558-1.31-7.405-.239-11.012.432-1.456,1.074-2.819,1.946-4.066.68-.974,1.669-1.903,2.578-2.474,2.174-1.367.169-4.83-2.019-3.454h0Z"/><path class="j" d="M251.596,16.227c-7.857-5.458-19.01-5.88-26.038,1.246-1.809,1.835,1.017,4.665,2.828,2.828,2.724-2.763,6.472-4.235,10.34-4.255,3.986-.02,7.612,1.384,10.851,3.634,2.119,1.472,4.121-1.994,2.019-3.454h0Z"/><path class="j" d="M260.691,40.758c1.855-7.661.336-16.954-6.133-22.113-.844-.673-2.004-.824-2.828,0-.698.698-.849,2.151,0,2.828,5.373,4.284,6.657,11.807,5.104,18.221-.605,2.501,3.251,3.568,3.857,1.063h0Z"/><path class="j" d="M248.936,31.005c.339.326.668.661.981,1.012.162.182.321.367.475.556.068.083.135.168.201.252-.267-.337-.029-.031.025.043.541.743,1.017,1.533,1.417,2.361.082.169.227.383.26.568-.044-.243-.081-.196.007.028.038.097.075.195.111.292.154.418.29.842.409,1.271.127.46.233.926.32,1.395.033.18.134.456.105.636l-.027-.21c.011.081.02.162.029.243.016.136.029.272.042.407.101,1.038.848,2.052,2,2,.997-.045,2.108-.885,2-2-.221-2.281-.759-4.432-1.737-6.508-.913-1.939-2.25-3.692-3.793-5.174-.755-.725-2.088-.807-2.828,0-.721.785-.806,2.054,0,2.828h0Z"/><path class="j" d="M246.16,25.867c-.063.095-.431.599-.277.408-.189.235-.391.459-.601.675-.187.193-.381.378-.582.557-.1.09-.202.177-.306.264-.027.022-.309.248-.192.159-.691.532-1.839,1.199-2.785,1.65-.117.056-.234.11-.352.163-.031.014-.376.168-.199.091.181-.079-.202.082-.225.091-.15.059-.3.116-.452.17-.585.208-1.185.37-1.797.474.215-.037.049-.003-.072.007-.133.012-.266.022-.399.029-.266.013-.532.015-.798.006-.305-.01-.61-.035-.914-.069-.345-.039.256.043-.097-.014-.181-.029-.36-.06-.54-.093-1.026-.186-2.206.279-2.46,1.397-.223.978.296,2.261,1.397,2.46,1.399.254,2.796.415,4.213.236,1.608-.202,3.072-.731,4.538-1.412,2.524-1.173,4.81-2.888,6.353-5.229.577-.875.202-2.25-.718-2.736-1.002-.529-2.12-.217-2.736.718h0Z"/><path class="j" d="M236.903,26.085c-.884,1.199-2.259,2.546-3.567,3.471-1.649,1.166-3.506,1.635-5.419,2.253-2.175.701-4.024,1.841-5.116,3.915-.789,1.499-1.123,3.182-1.498,4.819-.24,1.052.323,2.165,1.397,2.46,1.008.277,2.219-.339,2.46-1.397.324-1.417.588-3.032,1.265-4.171.385-.648.852-1.071,1.589-1.413.841-.391,1.815-.602,2.712-.89,2.022-.65,3.962-1.552,5.621-2.884,1.533-1.23,2.843-2.561,4.01-4.145.641-.87.145-2.232-.718-2.736-1.016-.594-2.093-.155-2.736.718h0Z"/><path class="g" d="M217.478,201.986c-1.871-.445-4.16-.015-5.931.133-3.506.294-6.975.891-10.427,1.558-1.776.343-3.619.719-5.069,2.01s-2.376,3.784-1.638,5.904l1.774,5.872c.54-.689,1.38-1.132,2.338-1.125l11.095.079c4.247-2.256,13.972-6.159,10.574-12.437-.62-1.146-1.593-1.728-2.716-1.995Z"/><path class="g" d="M102.525,203.556c-3.245-.618-6.506-1.161-9.799-1.437-2.834-.238-6.993-1.195-8.647,1.861-3.398,6.278,6.327,10.182,10.574,12.438,1.35-.01,11.094-.079,11.094-.079.826-.006,1.565.322,2.1.853.99-2.758,2.012-5.601,2.012-5.601.738-2.12-.188-4.613-1.638-5.904s-3.293-1.667-5.069-2.01c-.209-.04-.418-.081-.628-.12Z"/><path class="j" d="M210.211,218.371c4.668-2.571,12.772-5.418,12.688-11.927-.023-1.756-.782-3.648-2.049-4.871-1.455-1.403-3.526-1.805-5.48-1.782-4.766.058-9.646.975-14.311,1.866-2.49.476-5.136,1.091-6.884,3.088s-2.465,4.815-1.69,7.378c.743,2.458,4.605,1.41,3.857-1.063-.421-1.393-.015-2.999,1.124-3.959,1.379-1.161,3.423-1.354,5.128-1.676,3.809-.718,7.641-1.248,11.505-1.566,1.163-.096,2.724-.293,3.749.414.809.557,1.104,1.725,1.046,2.518-.047.63-.491,1.479-1.06,2.121-.779.88-1.706,1.592-2.686,2.233-2.216,1.449-4.642,2.499-6.954,3.772-2.255,1.242-.24,4.698,2.019,3.454h0Z"/><path class="j" d="M96.08,214.917c-2.026-1.116-4.143-2.052-6.124-3.251-1.708-1.033-3.896-2.515-4.447-4.293-.239-.772-.202-1.638.381-2.526.662-1.008,1.907-1.069,3.013-1.056,3.698.041,7.498.684,11.126,1.33,3.105.553,9.333,1.205,7.903,5.937-.746,2.47,3.113,3.525,3.857,1.063.665-2.201.247-4.676-1.064-6.566-1.35-1.946-3.442-3-5.703-3.531-4.809-1.13-9.775-1.72-14.689-2.154-1.866-.165-3.842-.134-5.548.735s-2.854,2.621-3.243,4.472c-.699,3.32,1.191,6.179,3.701,8.167,2.702,2.14,5.823,3.475,8.818,5.125,2.256,1.243,4.277-2.21,2.019-3.454h0Z"/><path class="j" d="M195.822,208.685c-.014-.082-.018-.187-.043-.263-.003-.008.05.433.027.208-.015-.148-.033-.296-.044-.444-.025-.324-.034-.649-.025-.973.008-.267.059-.537.06-.803,0-.022-.081.466-.032.256.016-.071.024-.145.038-.216.027-.141.057-.282.092-.421.059-.237.129-.471.211-.701.017-.048.037-.096.053-.144.101-.296-.08.182-.087.196.061-.118.109-.243.168-.362.102-.204.214-.404.336-.597.068-.109.14-.215.214-.32.027-.038.059-.076.084-.116.112-.18-.341.41-.109.143.299-.343.609-.655.95-.956.323-.284-.335.238-.081.058.087-.061.172-.124.26-.184.187-.126.38-.244.578-.352.183-.1.372-.187.56-.277.239-.115-.508.186-.069.035.111-.038.22-.079.331-.115.193-.062.388-.116.586-.161.098-.023.196-.043.294-.061.105-.02.516-.079.112-.024-.421.057.056,0,.153-.007.111-.008.222-.012.333-.014.219-.004.436.008.655.022.45.029-.381-.071-.132-.023.104.02.209.036.313.058.23.05.454.116.675.195.987.352,2.233-.397,2.46-1.397.256-1.122-.34-2.083-1.397-2.46-2.148-.767-4.569-.365-6.575.611-2.235,1.087-3.924,3.166-4.637,5.533-.506,1.681-.463,3.429-.17,5.141.177,1.034,1.503,1.707,2.46,1.397,1.115-.361,1.586-1.352,1.397-2.46h0Z"/><path class="j" d="M112.308,209.749c.269-1.571.317-3.118-.047-4.681-.314-1.345-.959-2.545-1.806-3.622-1.36-1.729-3.497-2.936-5.671-3.25-1.289-.187-2.615-.175-3.857.268-.983.351-1.747,1.379-1.397,2.46.313.969,1.405,1.773,2.46,1.397.172-.061.345-.115.522-.159.09-.022.18-.042.27-.06.235-.046.538.016-.097.004.397.008.789-.051,1.19-.021.084.006.219-.009.293.028.019.009-.579-.094-.28-.037.042.008.084.014.126.021.212.037.422.084.63.14.197.053.391.114.583.183.168.06.523.263-.067-.04.105.054.217.096.323.148.394.192.759.423,1.119.673.352.245-.315-.266-.079-.061.081.071.164.138.244.21.173.155.338.319.495.491.085.093.164.19.246.285.214.247-.267-.375-.08-.105.147.212.292.423.42.647.115.201.215.408.314.617.142.301-.162-.453-.029-.056.044.131.092.259.133.391.089.289.161.584.215.881.01.054.015.11.028.163.058.242-.049-.497-.019-.144.013.152.029.304.038.457.018.319.017.639,0,.958-.01.189-.025.377-.045.565-.007.064-.018.128-.023.192.044-.584.013-.135-.008-.008-.176,1.027.272,2.204,1.397,2.46.97.221,2.272-.294,2.46-1.397h0Z"/><path class="g" d="M154.576,307.369c.434-1.704,1.124-3.344,2.05-4.84,3.07,3.435,5.897,7.081,8.972,10.512-.84,1.61-1.906,3.148-3.416,4.155-1.641,1.095-3.902,1.436-5.588.413-1.953-1.185-2.572-3.74-2.561-6.024.007-1.42.191-2.839.542-4.216Z"/><path class="g" d="M113.32,322.905c-.565-.488-.993-1.067-1.191-1.681-.598-1.858-.598-4.059.441-5.46,2.415-3.258,4.827-4.322,8.234-6.364,1.411-.846,3.077-1.863,4.574-2.746.204.155.452.254.724.278l16.886,1.464c.523.045,1.006-.197,1.292-.598.041.49.071.811.071.811.27,2.87.266,4.58.236,7.759-.024,2.68-1.628,5.127-3.998,6.394-2.92,1.561-5.916,1.58-9.619,1.58h-13.889c-1.346,0-2.767-.579-3.762-1.437Z"/><path class="g" d="M170.094,224.003c5.304,1.951,10.609,3.902,15.913,5.853,2.505.921,5.465,1.8,7.691.328,1.454-.961,2.22-6.715,1.857-10.582-.165-1.759,1.202-3.276,2.969-3.264l11.25.08c.409.003.842.012,1.188.229.385.241.583.685.759,1.103,1.329,3.147,2.659,6.296,3.83,9.506,1.213,3.323,2.264,6.755,2.421,10.289.157,3.534-.654,7.213-2.842,9.993-2.74,3.482-7.304,5.128-11.73,5.329s-8.8-.863-13.103-1.92c-4.854-1.192-9.708-2.384-14.562-3.577.212,16.365.386,19.231.723,34.686.012.568-.512,1.045-1.185,1.065-2.655.08-43.619.08-46.274,0-.673-.02-1.198-.498-1.185-1.065.337-15.455.511-18.321.723-34.686-4.854,1.192-9.708,2.384-14.562,3.577-4.303,1.057-8.677,2.121-13.103,1.92s-8.99-1.847-11.73-5.329c-2.188-2.78-2.999-6.459-2.842-9.993.157-3.534,1.208-6.966,2.421-10.289,1.171-3.209,2.501-6.358,3.83-9.506.177-.418.375-.862.759-1.103.347-.217.779-.226,1.188-.229l11.25-.08c1.767-.013,3.134,1.504,2.969,3.264-.363,3.867.403,9.622,1.857,10.582,2.226,1.471,5.186.593,7.691-.328,5.304-1.951,10.609-3.902,15.913-5.853h35.916Z"/><path class="j" d="M154.252,302.663c-1.074,2.118-1.76,4.333-2.061,6.686-.249,1.948-.254,4.026.361,5.913.672,2.061,2.016,3.763,4.071,4.558,2.032.786,4.461.364,6.3-.729,2.099-1.248,3.545-3.327,4.623-5.468.486-.964.255-2.167-.718-2.736-.889-.52-2.249-.251-2.736.718-.415.823-1.041,1.926-1.501,2.495-.662.82-1.264,1.363-2.155,1.79.269-.129-.308.114-.315.117-.237.077-.478.138-.723.185-.142.025-.139.027.008.005-.14.013-.28.021-.42.024-.206.003-.422.004-.626-.028.324.05-.406-.129-.479-.156.294.11-.259-.147-.277-.155-.194-.136-.217-.143-.068-.021-.074-.06-.146-.122-.215-.188-.055-.051-.479-.515-.253-.231-.118-.148-.218-.314-.313-.478-.038-.065-.342-.723-.214-.395-.156-.4-.272-.815-.36-1.235-.016-.075-.118-.729-.073-.359-.024-.199-.04-.399-.053-.599-.031-.512-.026-1.026-.002-1.539.1-2.08.692-4.265,1.651-6.155.489-.963.253-2.169-.718-2.736-.891-.521-2.246-.249-2.736.718h0Z"/><path class="d" d="M187.468,303.658c-1.074-2.5-2.373-4.914-3.617-7.325-2.088-4.046-4.442-7.907-6.951-11.708,0,0-.442-.669-1.079-1.633-.163.076-.349.122-.548.128-1.55.047-16.163.066-28.582.058-.378,4.333-.735,7.754-1.132,11.189.938.462,1.525.752,1.525.752l5.054,2.491c1.009,1.017,1.937,2.168,2.84,3.122,4.604,4.862,8.516,10.328,13.237,15.094,2.905,2.932,6.937,6.444,11.313,6.33,4.654-.122,9.307-2.493,10.125-7.457.293-1.778.097-3.605-.294-5.364-.435-1.961-1.103-3.843-1.891-5.678Z"/><path class="j" d="M130.971,326.342c3.723-.002,7.65-.059,10.946-2.033,1.509-.903,2.831-2.251,3.63-3.824.891-1.754,1.04-3.521,1.051-5.457.009-1.734-.014-3.466-.143-5.197-.107-1.433-.223-2.801-.978-4.059-1.266-2.109-3.717-3.233-6.042-3.705-2.659-.539-5.383-.48-8.049-.029-2.634.446-4.832,1.599-7.111,2.945-3.03,1.789-6.239,3.47-9.105,5.513-2.935,2.092-5.704,4.932-5.421,8.798.153,2.088.813,3.956,2.487,5.287,1.625,1.292,3.495,1.761,5.541,1.761h13.195c2.574,0,2.578-4,0-4h-10.309c-2.017,0-5.483.613-6.603-1.65-1.329-2.684.875-5.038,2.857-6.545,2.246-1.707,4.868-3.003,7.28-4.456,2.057-1.239,4.264-2.764,6.312-3.358,1.864-.54,3.792-.722,5.731-.645,1.762.07,3.612.368,5.015,1.327.341.233.851.853.931,1.051.389.961.327,2.363.374,3.598.114,2.973.625,6.5-1.896,8.648-2.596,2.212-6.508,2.028-9.692,2.03-2.574.001-2.578,4.001,0,4Z"/><path class="j" d="M146.075,296.847l4,1.972c.852.42.965.519,1.537,1.149,1.167,1.284,2.339,2.566,3.497,3.858,4.712,5.254,8.826,11.184,14.222,15.788,2.453,2.093,5.263,3.956,8.516,4.42,2.85.407,5.981-.249,8.496-1.64,2.478-1.371,4.396-3.69,5.093-6.454.875-3.476.038-7.233-1.138-10.534-1.351-3.791-3.278-7.366-5.154-10.917-1.975-3.739-4.191-7.343-6.515-10.873-1.41-2.141-4.875-.139-3.454,2.019,3.711,5.635,7.1,11.513,9.943,17.637,2.046,4.407,5.001,11.974-.233,15.334-1.899,1.219-4.489,1.863-6.73,1.451-2.782-.511-5.162-2.449-7.172-4.326-4.803-4.485-8.671-9.853-13.045-14.733-1.253-1.398-2.51-2.803-3.789-4.177-.603-.648-1.115-.992-1.876-1.368l-4.179-2.06c-2.301-1.134-4.33,2.314-2.019,3.454h0Z"/><path class="j" d="M126.52,248.657c-.144,10.657-.437,21.309-.674,31.964-.034,1.529-.069,3.079,1.415,3.983.64.39,1.325.492,2.057.523.696.03,1.396.014,2.093.018,2.69.016,5.381.02,8.071.025,7.574.013,15.148.014,22.723.004,3.022-.004,6.043-.009,9.065-.021,1.652-.007,4.12.359,5.623-.465,1.887-1.034,1.555-3.181,1.514-4.984-.037-1.639-.075-3.279-.115-4.918-.066-2.721-.136-5.443-.203-8.164-.147-5.988-.255-11.977-.336-17.966-.035-2.572-4.035-2.579-4,0,.076,5.641.174,11.282.31,16.923.058,2.41.12,4.819.18,7.229.036,1.441.07,2.882.104,4.322.039,1.684.297,3.533.075,5.2l.273-1.009c.149-.322.753-.106.37-.195-.108-.025-.259.004-.37.005-.407.006-.814.008-1.221.011-1.187.008-2.374.013-3.561.017-3.566.012-7.131.016-10.697.019-7.914.007-15.827.007-23.741-.016-1.439-.004-2.879-.009-4.318-.018-.476-.003-.951-.006-1.427-.011-.146-.002-.325-.033-.469-.006-.471.086.154-.159.317.194l.273,1.009c-.223-1.669.035-3.514.075-5.2.032-1.383.066-2.766.1-4.149.061-2.467.125-4.935.184-7.402.136-5.64.234-11.281.31-16.923.035-2.575-3.965-2.576-4,0h0Z"/><path class="j" d="M169.563,225.932c5.367,1.974,10.723,3.983,16.103,5.921,3.903,1.406,9.192,2.062,10.916-2.652.66-1.805.878-3.811,1.003-5.716.063-.958.08-1.921.038-2.881-.029-.658-.33-1.63.319-2.089.447-.316,1.302-.171,1.817-.168l3.648.026,4.42.031c.808.006,1.849-.144,2.604.172l-.883-.514c.659.553.955,1.902,1.286,2.694.502,1.201.999,2.404,1.48,3.613.878,2.206,1.729,4.43,2.417,6.703,1.247,4.113,1.944,8.662.264,12.766-3.533,8.632-14.564,7.452-21.855,5.738-5.596-1.315-11.17-2.735-16.752-4.106-2.5-.614-3.566,3.242-1.063,3.857,5.583,1.371,11.156,2.79,16.752,4.106,5.047,1.187,10.318,2.064,15.45.869,4.418-1.029,8.555-3.677,10.63-7.811,2.301-4.584,2.158-9.834.928-14.702-.673-2.664-1.642-5.248-2.645-7.803-.981-2.5-1.878-5.185-3.132-7.561-1.338-2.535-4.551-2.015-6.979-2.032-2.44-.017-4.881-.051-7.322-.052-1.387,0-2.672.287-3.755,1.219-1.814,1.561-1.642,3.586-1.612,5.744.03,2.14-.109,4.402-.788,6.448-.064.193-.312.57-.319.762-.006.179-.166.232-.016.052.325-.391-.204.123-.401.2-1.152.45-2.497.127-3.635-.193-2.883-.811-5.688-2.023-8.498-3.057l-9.361-3.443c-2.42-.89-3.463,2.975-1.063,3.857h0Z"/><path class="j" d="M133.646,222.075c-5.429,1.997-10.841,4.053-16.292,5.99-1.018.362-2.092.744-3.171.87-.413.048-.878.075-1.289.02-.225-.03-.522-.1-.741-.188-.207-.083-.699-.56-.401-.2.213.257-.157-.303-.218-.447-.086-.202-.202-.638-.278-.924-.245-.917-.402-1.856-.494-2.8-.1-1.027-.147-2.06-.132-3.091.015-1.083.223-2.184-.06-3.25-.589-2.222-2.574-3.632-4.822-3.716-1.909-.071-3.839.027-5.749.041-1.956.014-3.961-.102-5.914.052-3.057.241-3.697,3.322-4.693,5.712-1.084,2.603-2.144,5.221-3.065,7.887-1.67,4.835-2.747,10.065-1.465,15.127,1.166,4.605,4.331,8.21,8.677,10.075,5.365,2.303,11.218,1.811,16.796.621,6.238-1.331,12.417-3.005,18.611-4.526,2.499-.614,1.44-4.472-1.063-3.857-4.89,1.201-9.78,2.404-14.671,3.603-4.496,1.102-9.198,2.291-13.861,1.666-3.706-.496-7.451-2.231-9.397-5.555-2.14-3.654-1.944-8.13-.968-12.108.654-2.664,1.616-5.248,2.612-7.799.503-1.288,1.026-2.568,1.556-3.845.397-.956.776-2.705,1.568-3.37l-.883.514c.619-.259,1.39-.163,2.057-.168l3.852-.027c1.934-.014,4.068-.291,5.99-.043,1.603.207.875,2.556.889,3.684.026,2.031.227,4.12.73,6.092.405,1.586,1.047,3.17,2.544,4,2.131,1.182,4.686.957,6.948.317,2.883-.817,5.687-2.023,8.498-3.057l9.361-3.443c2.396-.881,1.36-4.749-1.063-3.857h0Z"/><path class="g" d="M170.07,221.007c1.835-.538,4.011.305,4.939,2.027s.677,4.056-.387,5.758c-1.038,1.659-2.797,3.034-4.608,3.695,0,0-.09.033-.183.073-.71,2.152-1.933,4.672-3.988,7.027-2.629,3.014-5.577,4.722-9.018,5.453-1.583.336-3.116.415-4.573.462-1.457-.033-2.85-.174-4.219-.407-3.471-.59-6.774-2.385-9.436-5.373-2.086-2.34-3.337-4.853-4.071-6.998-1.96-.637-3.904-2.17-4.978-4.015-1.01-1.734-1.189-4.074-.207-5.767.982-1.693,3.183-2.467,5-1.872,0,0-2.937-14.444,16.795-14.444s18.934,14.379,18.934,14.379Z"/><path class="l" d="M160.18,210.927c1.163.569,2.048,1.117,3.327,2.356,2.193,2.125,4.295,5.04,5.226,7.678h1.414c1.013-.277,2.123-.137,3.065.337,2.374-7.781.697-16.041-4.3-20.334l-4.624-3.992c-3.008-3.153-8.227-4.332-13.767-3.922-7.161.529-11.868,2.897-15.807,7.323-4.506,5.063-6.314,13.843-4.323,21.37,1.109-.842,2.631-1.132,3.951-.7,2.318-3.191,6.448-7.422,9.138-8.932.315-.177.721.062.848.627.124.545.123.959.083,1.351-.061.595.478,1.027.937.755,1.92-1.142,5.342-3.439,7.768-4.533l7.065.615Z"/><path class="j" d="M165.702,195.559c-5.52-5.589-15.284-5.475-22.285-3.233-7.046,2.256-12.44,7.821-14.617,14.871-1.359,4.403-1.524,9.103-.675,13.617.475,2.527,4.331,1.457,3.857-1.063-1.17-6.224.086-13.586,4.495-18.348,4.322-4.667,10.301-6.531,16.57-6.427,3.504.058,7.281.834,9.826,3.411,1.812,1.834,4.64-.994,2.828-2.828h0Z"/><path class="j" d="M175.311,221.245c1.993-7.351,1.037-16.408-4.985-21.694-.811-.712-2.03-.799-2.828,0-.727.727-.815,2.113,0,2.828,4.973,4.366,5.596,11.751,3.956,17.803-.674,2.488,3.183,3.549,3.857,1.063h0Z"/><path class="h" d="M156.604,225.303c-.022-.16-.23-1.76.889-2.89.734-.741,1.606-.791,1.881-.802.212-.009,1.594-.039,2.465,1.155.825,1.132.909,2.978-.078,4.219-1.024,1.288-2.692,1.359-3.786.618-.985-.668-1.244-1.49-1.372-2.299Z"/><path class="h" d="M142.261,225.303c-.022-.16-.23-1.76.889-2.89.734-.741,1.606-.791,1.881-.802.212-.009,1.594-.039,2.465,1.155.825,1.132.909,2.978-.078,4.219-1.024,1.288-2.692,1.359-3.786.618-.985-.668-1.244-1.49-1.372-2.299Z"/><path class="j" d="M159.17,212.654c.413.204.82.417,1.212.66.2.124.391.257.584.391s.073.026-.046-.043c.127.073.26.209.371.304.863.734,1.651,1.562,2.384,2.424.171.201.338.406.504.611.354.438-.127-.179.067.083.088.118.177.235.264.354.344.471.671.954.978,1.45.297.48.575.972.828,1.476.109.218.207.442.313.662.108.223-.119-.324.013.033.054.145.11.289.163.434.302.838,1,1.468,1.929,1.468h1.514c1.046,0,2.048-.92,2-2s-.879-2-2-2h-1.514l1.929,1.468c-.9-2.497-2.346-4.71-4.045-6.735-1.526-1.819-3.286-3.438-5.427-4.495-.937-.462-2.208-.283-2.736.718-.477.902-.284,2.242.718,2.736h0Z"/><path class="j" d="M136.068,222.054c1.229-1.676,2.643-3.229,4.117-4.692.729-.724,1.483-1.425,2.271-2.085.346-.29.61-.501.963-.752.18-.128.363-.253.549-.372l.177-.111c.331-.177.219-.168-.334.029l-1.009-.273c-.57-.269-.373-.864-.37-.071.002.394-.044.74.059,1.138.18.698.641,1.345,1.267,1.711,1.42.831,2.695-.051,3.89-.796,2.112-1.316,4.211-2.699,6.477-3.742.981-.452,1.225-1.869.718-2.736-.589-1.007-1.751-1.171-2.736-.718-1.41.649-2.75,1.441-4.074,2.249-.654.399-1.304.806-1.954,1.212-.292.183-.584.365-.877.546-.131.081-.279.154-.402.247-.5.382-.263-.205.499.082l.883.514c.157.127.168,1.003.248.416.029-.212-.003-.445-.024-.657-.052-.516-.126-1.004-.335-1.48-.467-1.064-1.507-1.774-2.693-1.62-1.444.188-2.893,1.622-3.952,2.527-2.552,2.178-4.828,4.711-6.81,7.415-.639.872-.147,2.231.718,2.736,1.014.593,2.096.156,2.736-.718h0Z"/><path class="j" d="M170.602,222.935c.151-.041.301-.068.452-.104-.469.112-.051.017.083.015.155-.003.309.011.464.017-.255-.009-.246-.043.005.011.152.033.302.073.45.121.217.071.261.114.029-.003.139.07.278.138.412.218.081.049.455.348.104.044.118.103.235.202.345.314.082.084.342.454.088.074.073.109.146.218.211.333.042.073.082.147.118.222-.072-.189-.082-.216-.032-.081.1.307.18.607.247.923-.093-.438-.003.088,0,.169.007.178.006.356-.003.534-.005.101-.082.617-.005.181-.026.148-.055.295-.089.441-.042.175-.091.349-.147.52-.047.143-.134.376-.022.11-.137.328-.317.641-.512.938-.017.026-.356.5-.11.178-.11.145-.232.282-.353.417-.226.251-.466.488-.718.713-.115.103-.232.202-.352.3.295-.242-.121.086-.186.131-.301.209-.614.401-.936.574-.159.086-.322.162-.484.242-.385.19.257-.094-.177.069-.976.368-1.751,1.367-1.397,2.46.309.954,1.412,1.792,2.46,1.397,3.769-1.422,7.078-4.78,7.036-9.029-.021-2.144-.94-4.104-2.68-5.369-1.522-1.107-3.558-1.429-5.363-.939-1.009.274-1.729,1.435-1.397,2.46.335,1.034,1.378,1.691,2.46,1.397h0Z"/><path class="j" d="M134.873,219.143c-1.781-.544-3.847-.242-5.384.819-1.778,1.228-2.706,3.176-2.794,5.314-.175,4.259,3.106,7.668,6.811,9.2.97.401,2.241-.433,2.46-1.397.266-1.166-.358-2.031-1.397-2.46.403.167-.13-.071-.168-.09-.161-.081-.32-.167-.476-.257-.292-.169-.562-.365-.843-.549-.112-.083-.1-.072.038.033-.072-.058-.144-.117-.214-.177-.118-.1-.233-.202-.346-.307-.27-.252-.519-.522-.762-.799-.38-.433.19.301-.134-.17-.102-.148-.204-.296-.298-.45-.077-.126-.151-.255-.22-.386-.042-.079-.082-.158-.12-.239.069.178.078.2.026.066-.109-.313-.214-.622-.285-.947-.014-.065-.076-.621-.044-.179-.013-.179-.03-.356-.033-.536-.003-.178.011-.356.014-.534.006-.381-.052.138.007-.08.083-.311.139-.62.259-.921-.16.4.048-.061.097-.145.051-.087.348-.449.047-.111.105-.117.205-.234.318-.343.086-.083.459-.335.075-.083.108-.071.215-.144.327-.209.051-.03.509-.259.248-.141-.263.119.14-.045.198-.062.149-.046.3-.078.452-.115.473-.117-.403,0,.083-.008.155-.003.309-.002.464-.002.414,0-.351-.112.081.004.15.04.3.073.449.118,1.001.306,2.225-.364,2.46-1.397.246-1.081-.325-2.133-1.397-2.46h0Z"/><path class="j" d="M167.904,232.028c-1.106,3.259-3.096,6.271-5.81,8.416-2.763,2.184-6.15,2.997-9.622,3.051-3.541.055-7.063-.775-9.953-2.872-2.845-2.064-4.921-5.161-6.072-8.455-.844-2.414-4.71-1.376-3.857,1.063,1.445,4.133,3.917,7.828,7.425,10.486,3.552,2.691,8.032,3.845,12.457,3.777,4.325-.067,8.49-1.153,11.943-3.825,3.477-2.689,5.94-6.438,7.345-10.578.829-2.443-3.033-3.492-3.857-1.063h0Z"/><path class="j" d="M139.026,230.429c-.261.741-.369,1.554-.397,2.336-.026.744.041,1.54.272,2.25.28.862.783,1.724,1.618,2.154.519.267,1.085.395,1.669.346.614-.051,1.236-.187,1.76-.532,1.126-.742,1.728-1.951,1.741-3.292.005-.51-.226-1.055-.586-1.414-.347-.347-.916-.608-1.414-.586-1.092.049-1.989.879-2,2,0,.101-.007.2-.018.301l.071-.532c-.026.188-.071.368-.143.544l.202-.478c-.058.131-.127.252-.212.367l.313-.405c-.087.11-.183.206-.293.293l.405-.313c-.1.074-.205.135-.318.186l.478-.202c-.158.066-.319.107-.488.13l.532-.071c-.148.015-.298.021-.446.003l.532.071c-.073-.012-.142-.031-.21-.058l.478.202c-.067-.03-.128-.066-.188-.108l.405.313c-.081-.063-.152-.134-.217-.214l.313.405c-.096-.126-.172-.262-.236-.407l.202.478c-.125-.297-.198-.611-.244-.93l.071.532c-.074-.558-.065-1.123.006-1.681l-.071.532c.054-.393.139-.781.271-1.155.165-.469.043-1.123-.202-1.541-.243-.415-.718-.811-1.195-.919-.512-.117-1.087-.091-1.541.202s-.739.682-.919,1.195h0Z"/><path class="j" d="M142.659,226.897l3.675.747c.53.108,1.063.078,1.541-.202.415-.243.811-.718.919-1.195.117-.512.091-1.087-.202-1.541-.271-.421-.687-.816-1.195-.919l-3.675-.747c-.53-.108-1.063-.078-1.541.202-.415.243-.811.718-.919,1.195-.117.512-.091,1.087.202,1.541.271.421.687.816,1.195.919h0Z"/><path class="j" d="M160.979,222.946l-3.631.935c-.482.124-.945.492-1.195.919s-.357,1.061-.202,1.541c.157.484.457.951.919,1.195.481.254,1.006.339,1.541.202l3.631-.935c.482-.124.945-.492,1.195-.919s.357-1.061.202-1.541c-.157-.484-.457-.951-.919-1.195-.481-.254-1.006-.339-1.541-.202h0Z"/><path class="j" d="M154.917,205.564c0,3.657,0,7.315,0,10.972,0,1.046.92,2.048,2,2s2-.879,2-2c0-.139,0-.278,0-.417,0-1.046-.92-2.048-2-2s-2,.879-2,2c0,.139,0,.278,0,.417h4c0-3.657,0-7.315,0-10.972,0-1.046-.92-2.048-2-2s-2,.879-2,2h0Z"/><path class="j" d="M161.362,207.12v10.191c0,1.046.92,2.048,2,2s2-.879,2-2v-.635c0-1.046-.92-2.048-2-2s-2,.879-2,2v.635c0,1.046.92,2.048,2,2s2-.879,2-2v-10.191c0-1.046-.92-2.048-2-2s-2,.879-2,2h0Z"/><path class="d" d="M142.987,308.396c.771.067,1.456-.492,1.549-1.26,1.373-11.31,2.132-16.619,3.057-27.643.062-4.412-3.116-10.338-11.001-11.212-10.267-1.138-12.42,7.25-12.405,10.615.04,9.095.458,17.16.605,26.62.011.736.576,1.352,1.31,1.416l16.886,1.464Z"/><path class="j" d="M142.987,310.396c3.67-.096,3.609-3.767,3.949-6.529.326-2.651.658-5.301.977-7.953.61-5.073,1.142-10.154,1.58-15.245.331-3.849-.993-7.62-3.769-10.354-3.317-3.267-8.324-4.588-12.88-4.006-3.684.47-6.895,2.443-8.773,5.683-1.599,2.76-1.903,5.686-1.872,8.805.06,5.991.282,11.977.444,17.966.043,1.594.082,3.188.113,4.782.029,1.467-.142,3.056.91,4.232.854.956,1.997,1.117,3.188,1.221,5.378.466,10.755.932,16.133,1.399,2.564.222,2.549-3.779,0-4-4.314-.374-8.629-.748-12.943-1.122l-3.016-.261c-.245-.021-.513-.077-.759-.066-.039.002-.113-.029-.149-.013-.033.015.394.076.412.092.215.585.3.666.255.242-.004-.247-.008-.495-.012-.742-.096-5.445-.293-10.887-.435-16.331-.068-2.623-.122-5.246-.144-7.87-.006-.729-.035-1.461.021-2.189.009-.123.109-.825.031-.343.047-.292.101-.582.167-.87.493-2.166,1.508-4.191,3.44-5.438,2.904-1.873,7.072-1.648,10.142-.295,2.755,1.214,4.769,3.606,5.423,6.533.432,1.935-.056,4.494-.258,6.654-.232,2.468-.486,4.934-.763,7.397-.268,2.382-.557,4.761-.849,7.14-.167,1.359-.336,2.718-.503,4.077-.082.669-.165,1.338-.247,2.007-.046.377-.152.792-.143,1.17.017.727-.183.242.333.229-2.569.067-2.579,4.067,0,4Z"/><path class="j" d="M208.669,270.484c2.382.161,5.151-.502,6.809-2.326.792-.871,1.149-1.938,1.438-3.056.207-.802.201-1.344,1.078-1.509,1.273-.239,2.559-.009,3.807-.47,1.293-.478,2.23-1.402,2.792-2.654.442-.984.563-2.263,1.469-2.957.928-.711,2.195-.628,3.295-.736,1.075-.105,2-.844,2-2,0-1-.918-2.106-2-2-1.482.145-2.961.164-4.346.775-1.231.544-2.29,1.432-2.983,2.596-.341.571-.551,1.213-.758,1.842-.115.349-.235.944-.521,1.207-.618.567-1.988.319-2.756.397-1.383.14-2.683.553-3.631,1.614-.778.871-1.078,1.978-1.367,3.08-.232.889-.465,1.372-1.379,1.785-.92.416-1.956.478-2.947.411-1.079-.073-2,.971-2,2,0,1.143.918,1.927,2,2h0Z"/><path class="j" d="M95.603,266.484c-.995.067-2.022,0-2.947-.411-.871-.386-1.121-.828-1.347-1.661-.302-1.112-.572-2.199-1.323-3.108-.936-1.133-2.289-1.562-3.707-1.71-.767-.08-2.105.164-2.737-.383-.271-.235-.387-.76-.496-1.086-.209-.624-.399-1.266-.722-1.844-.682-1.222-1.791-2.17-3.062-2.729-1.388-.61-2.861-.63-4.346-.775-1.077-.106-2,.995-2,2,0,1.169.92,1.894,2,2,1.104.108,2.361.03,3.295.736.849.642.98,1.793,1.369,2.718.546,1.299,1.421,2.315,2.755,2.837,1.294.506,2.616.285,3.945.526.844.154.844.619,1.047,1.384.295,1.117.615,2.183,1.381,3.08,1.628,1.907,4.487,2.589,6.897,2.426,1.078-.073,2-.867,2-2,0-1.026-.917-2.073-2-2h0Z"/><rect class="k" x="2.136" y="187.066" width="300" height="13" rx="1" ry="1"/><path class="j" d="M3.136,202.066h297.398c.199,0,.403.013.602,0,4.061-.27,3-5.892,3-8.65,0-2.731,1.007-8.083-3-8.35-.199-.013-.403,0-.601,0H11.862c-2.885,0-5.845-.192-8.726,0-4.006.267-3,5.617-3,8.35,0,2.566-1.01,7.876,2.468,8.579,2.513.507,3.589-3.347,1.063-3.857,1.397.282.294,1.353.468.672.041-.158,0-.367,0-.531v-9.582c0-.084.048-.439,0-.5-.226-.288-.932.985-.996.87.011.02.159-.01.181,0,.257.125.899,0,1.18,0h291.837c1.393,0,2.868.138,4.256,0,.094-.009.333.05.413,0,.452-.285-1.09-.841-.871-.957-.256.136,0,3.221,0,3.544v5.284c0,.535-.094,1.175,0,1.703.016.089-.051.305,0,.384.228.355,1.358-.765.992-.957-.05-.026-.148.014-.203,0-.363-.092-.875,0-1.247,0H3.136c-2.574,0-2.578,4,0,4Z"/></g></svg>