<svg id="b" xmlns="http://www.w3.org/2000/svg" width="442.767" height="415.467" viewBox="0 0 442.767 415.467" style="color: initial !important;"><defs><style>.h{fill:#fac782;}.i{fill:#fcce61;}.j{fill:#211715;}.k{fill:#ffffff;}.l{fill:#f4b467;}.m{fill:#ef8561;}.n{fill:#7a7473;}.o{fill:#f29d81;}.p{fill:#645d5c;}</style></defs><g id="c"><g id="d"><path class="j" d="M23.883,55.834c-3.121-1.825-8.606-4.028-9.52-4.299-1.302-.385-3.441-.952-5.486-1.317-.01-.002-.02.003-.024.012-.154.333-.155.675-.105,1.06.001.01.011.018.021.018,1.16.012,3.359.465,4.582.784,1.728.45,8.549,2.573,10.532,3.742"/><path class="j" d="M24.892,54.107c-4.269-2.474-8.988-4.42-13.809-5.481-.997-.219-2.27-.679-3.216-.135-.914.526-1.207,1.699-1.131,2.686.113,1.45.99,2.062,2.357,2.144.111.007.751.073.434.033.401.051.801.126,1.197.201,1.95.37,3.841.952,5.728,1.56,1.269.409,2.534.836,3.784,1.3.332.123.663.249.992.379.144.057.868.368.409.164.419.186.836.373,1.233.602,2.234,1.288,4.251-2.167,2.019-3.454-2.405-1.386-5.264-2.18-7.895-3.015-2.649-.84-5.431-1.712-8.228-1.784l1.414.586-.021-.018.586,1.414c-.021-.147-.03-.295-.029-.444-.03.185-.009.157.062-.085l-.919,1.195.024-.012-1.541.202c2.527.462,5.02,1.077,7.402,2.039,1.108.447,2.009.835,3.308,1.433s2.582,1.226,3.819,1.942c2.232,1.293,4.248-2.162,2.019-3.454h0Z"/><path class="i" d="M24.394,56.845c1.285,2.955,1.539,6.039,1.612,9.218.041,1.784.074,7.198.127,8.119.021.369-.051.994.099,1.33.148.332.431.347.777.401,1.49.232,3.011.021,4.477-.27,1.896-.376,3.784-.899,5.472-1.84,2.633-1.469,4.843-4.135,5.926-6.577.209-.471.094-.699-.18-1.067-.598-.802-1.146-1.324-1.818-2.065-.355-.391-.71-.783-1.065-1.174-.345-.38-.789-.76-1.066-1.189.229.014.452-.039.681-.046.255-.008.51-.016.764-.024.527-.017,1.053-.033,1.58-.05.51-.016,1.019-.032,1.529-.048.255-.008.51-.018.764-.024.203-.005.513.007.704-.084.443-.209.672-1.144.835-1.584.471-1.268.614-2.641.584-3.986-.045-2.039-.471-4.072-1.274-5.947-.639-1.493-1.482-2.921-2.536-4.16-.522-.613-1.101-1.183-1.751-1.662s-1.095-.932-1.755-.21c-3.975,4.346-8.449,9.138-13.854,11.643,0,0-.827.351-1.014.404.08.172.382.891.382.891Z"/><path class="j" d="M22.465,57.376c2.217,5.309,1.533,11.481,1.671,17.122.023.952.088,1.822.776,2.548.726.765,1.768.866,2.769.939,2.017.148,4.137-.3,6.079-.811,3.851-1.013,6.995-3.157,9.342-6.37,1.13-1.548,2.559-3.64,1.416-5.528-1.054-1.741-2.828-2.946-4.035-4.556l-1.727,3.009c1.645-.072,3.291-.13,4.937-.181,1.929-.06,2.958-.723,3.641-2.541,1.31-3.488,1.073-7.535-.237-10.995-.676-1.784-1.566-3.451-2.74-4.957-.989-1.268-2.435-2.977-4.06-3.424-2.016-.553-3.294,1.379-4.484,2.655s-2.394,2.523-3.656,3.719c-1.442,1.366-2.948,2.667-4.592,3.785-.847.576-1.725,1.108-2.634,1.581-.183.095-1.265.603-.656.341-.261.112-.525.219-.793.311-1.319.456-1.74,1.712-1.195,2.938.049.11.42.983.18.413.419.995,1.322,1.71,2.46,1.397.938-.258,1.819-1.458,1.397-2.46-.192-.457-.382-.915-.584-1.368l-1.195,2.938c3.065-1.061,5.791-3.022,8.253-5.089,1.392-1.169,2.707-2.427,3.98-3.724,1.281-1.307,2.443-2.832,3.833-4.017l-.883.514.037-.005-1.009-.273c1.631.753,2.825,2.541,3.664,4.061.959,1.738,1.582,3.678,1.737,5.661.078,1.001.093,2.042-.103,3.03-.089.448-.229.865-.367,1.298-.376,1.178.161-.229.389.199-.098-.185-2.442.077-2.688.085-.878.028-1.754.069-2.631.107-1.359.06-2.697,1.715-1.727,3.009.273.364,3.808,4.604,4.008,4.505.086-.744.05-.926-.106-.548-.079.163-.164.325-.252.483-.243.443-.512.874-.802,1.288-.514.732-1.117,1.399-1.767,2.013-1.418,1.339-3.115,2.186-4.981,2.719-1.724.493-4.426,1.331-6.174.623l.883.514-.19-.239.514.883c-.237-.932-.066-2.242-.079-3.195-.019-1.392-.032-2.783-.05-4.175-.051-3.832-.212-7.714-1.709-11.297-.416-.996-1.324-1.709-2.46-1.397-.94.258-1.816,1.457-1.397,2.46Z"/><path class="j" d="M275.618,20.429c-1.99-2.439-5.793-5.905-6.457-6.405-.945-.71-2.517-1.824-4.074-2.744-.007-.004-.017-.003-.023.003-.227.224-.332.503-.408.833-.002.009.003.018.012.021.943.363,2.598,1.402,3.499,2.034,1.273.893,6.19,4.701,7.452,6.258"/><path class="j" d="M277.032,19.015c-2.676-3.257-5.877-6.185-9.398-8.499-.73-.48-1.642-1.233-2.548-1.236-1.272-.004-2.103,1.178-2.36,2.304-.161.704.009,1.45.526,1.967l.405.313c.563.239.637.269.221.091.037.057.237.109.304.142.549.267,1.077.579,1.597.899.723.446,1.423.924,2.103,1.432.299.223.594.451.891.677.22.168-.405-.316-.07-.053.1.078.199.155.299.233.208.163.415.326.622.491,1.57,1.248,3.297,2.511,4.579,4.068.668.811,2.146.744,2.828,0,.791-.862.713-1.963,0-2.828-.656-.796-1.464-1.475-2.244-2.145-.981-.843-1.989-1.656-3.008-2.453-2.052-1.605-4.143-3.233-6.582-4.209l1.195.919-.012-.021.202,1.541c.024-.106.054-.21.089-.312-.029.141-.094.261-.196.362l-1.414.586.023-.003-1.009-.273c1.287.767,2.531,1.605,3.737,2.494.113.083.222.172.337.251-.628-.433-.395-.315-.264-.201.103.089.209.175.312.264.327.283.648.573.966.865,1.767,1.622,3.513,3.308,5.038,5.163.667.812,2.146.743,2.828,0,.792-.863.711-1.963,0-2.828h0Z"/><path class="i" d="M275.727,21.41c.149,2.801-.583,5.394-1.491,8.01-.51,1.468-2.131,5.894-2.368,6.662-.095.307-.345.795-.325,1.115.02.315.246.414.512.563,1.145.643,2.45.934,3.734,1.143,1.661.271,3.361.419,5.024.165,2.595-.397,5.209-1.899,6.836-3.561.314-.321.29-.542.178-.926-.244-.836-.532-1.429-.854-2.238l-.511-1.281c-.165-.415-.412-.86-.507-1.294.183.081.381.106.57.17.21.071.421.142.631.213.435.147.869.294,1.304.44.421.142.841.284,1.262.426.21.071.421.141.631.213.167.058.416.161.6.146.425-.035.896-.728,1.164-1.038.77-.891,1.305-1.967,1.69-3.074.584-1.677.855-3.465.771-5.239-.067-1.413-.32-2.834-.803-4.165-.239-.659-.538-1.301-.923-1.888s-.61-1.094-1.368-.705c-4.565,2.335-9.673,4.882-14.846,5.28,0,0-.782.034-.951.021.013.165.041.843.041.843Z"/><path class="j" d="M273.727,21.41c.14,3.778-1.348,7.301-2.606,10.793-.401,1.113-.789,2.231-1.182,3.347-.343.973-.603,1.947-.04,2.909.514.878,1.615,1.3,2.512,1.648,4.187,1.621,9.229,1.505,13.194-.618,1.576-.844,4.225-2.397,4.294-4.421.068-1.991-1.469-3.975-2.015-5.832l-2.46,2.46c.977.316,1.952.637,2.925.965.816.275,1.729.715,2.603.715,1.806,0,3.258-2.261,3.971-3.659,1.91-3.746,2.214-8.429.78-12.389-.594-1.639-1.623-4.138-3.683-4.194-.967-.026-1.836.556-2.666.976-.892.451-1.786.896-2.69,1.322-3.359,1.584-7.192,3.203-10.976,3.135-1.033-.019-2.065.932-2,2,.017.281.029.562.041.843.106,2.565,4.106,2.578,4,0-.012-.281-.023-.562-.041-.843l-2,2c5.356.097,10.639-2.466,15.307-4.813.23-.116.556-.218.754-.382.563-.17.495-.308-.203-.413-.586-.357-.726-.35-.42.021.141.595.66,1.201.859,1.813.411,1.265.609,2.568.606,3.897-.003,1.443-.266,2.874-.78,4.225-.217.571-.491,1.122-.834,1.629-.132.195-.275.379-.424.561-.151.184-.672.512-.131.342h1.063c-1.672-.25-3.387-1.087-4.997-1.608-1.452-.47-2.878,1.039-2.46,2.46.258.876.675,1.728,1.019,2.576.15.37.31.737.457,1.109.098.24.189.483.272.729.121.522.162.534.124.036l.514-.883c-1.365,1.753-3.886,2.956-6.052,3.261-1.321.186-2.728.058-4.038-.153-.932-.15-2.561-.278-3.281-.939l.514.883c.164.502.165-.091.256-.349.052-.146.098-.295.149-.442.143-.42.294-.838.443-1.256.43-1.206.867-2.41,1.299-3.615,1.142-3.187,2.152-6.418,2.025-9.846-.095-2.566-4.095-2.579-4,0Z"/><path class="i" d="M402.46,33.643c.543-.279,2.305-2.568,2.665-3.201.656-1.153,1.263-2.387,1.928-4.309-.305-.21-.645-.262-1.036-.272-.19,1.128-.28,1.59-.701,2.755-.37,1.024-1.541,3.898-2.856,5.027"/><path class="m" d="M401.913,33.929c1.42-.521,4.716-.108,6.132.462,1.096.44,2.025,1.12,3.231,2.247-.643.943-1.851,2.493-3.189,3.074,1.184.83,2.835,2.725,3.373,3.834.686,1.415,1.674,5.189,1.015,7.242-2.117.081-3.843-.584-5.033-1.466-.945-.7-2.187-1.759-3.007-2.696l-.628-.718c.181.502.363,1.005.363,1.005.702,1.945.307,5.61-.638,7.398-1.889,3.571-4.54,5.382-5.269,5.594-1.172-1.263-2.335-2.897-3.021-4.238-.846-1.651-1.415-4.486-1.307-5.274,0,0,.024-.172.047-.343l-.136.301c-.34.75-3.634,3.288-5.421,4.171-2.454,1.213-7.439,1.898-9.028,1.314-.869-2.225.588-6.511,1.663-8.313,1.337-2.243,2.878-4.258,4.138-5.044,0,0,.174-.108.347-.216l-.398.08c-1.418.285-3.28-.197-4.754-.809-1.386-.575-4.389-2.066-5.554-3.956,2.422-2.935,6.154-5.03,9.272-5.426.671-.085,2.713-.15,4.189-.115-2.251-1.02-5.141-5.471-5.096-7.558.916-.485,2.245-.674,3.879-.404,1.53.253,3.274.945,4.529,1.798,1.09.74,2.078,1.303,3.088,2.416l.306.337c-.01-.036-.019-.072-.019-.072-.188-.693.813-2.376,1.1-3.02.206-.462,1.075-1.639,1.426-2.008,1.295.519,3.27,3.344,3.796,4.547.678,1.549,1.228,4.005.956,5.583"/><path class="j" d="M402.445,35.858c2.637-.836,5.517.451,7.418,2.194l-.313-2.424c-.66.95-1.42,1.839-2.471,2.357-1.48.728-1.1,2.641,0,3.454,1.198.884,2.423,2.359,2.859,3.658.527,1.568,1.068,3.516.61,5.159l1.929-1.468c-3.187.044-5.272-2.029-7.254-4.294-1.289-1.473-4.016.081-3.343,1.946.799,2.214.946,4.662-.073,6.862-.615,1.327-1.594,2.542-2.646,3.547-.286.273-.68.615-.909.777-.155.109-.334.195-.482.31-.39.304.167-.029-.036.04l1.946.514c-1.171-1.291-2.339-2.787-2.965-4.43-.293-.768-.496-1.576-.659-2.38-.05-.245-.073-.494-.118-.738-.011-.133-.015-.266-.012-.4-.055.353-.06.366-.013.039.136-.988-.153-1.955-1.158-2.359-.843-.339-2.081-.101-2.498.818.004-.008-.297.571-.128.318.142-.213-.326.32-.389.379-.38.362-.787.7-1.201,1.022-1.035.804-2.18,1.647-3.394,2.16-1.24.524-2.661.811-3.989.989-1.081.145-2.375.27-3.225-.002l1.397,1.397c-.622-1.816.219-4.195.985-5.861.91-1.981,2.362-4.28,4.244-5.454,1.972-1.23.663-4.098-1.541-3.655-1.573.316-3.233-.308-4.636-.992-1.36-.664-2.949-1.479-3.812-2.774l-.313,2.424c1.581-1.862,3.577-3.414,5.88-4.277,2.009-.753,4.005-.718,6.167-.678,1.914.035,2.816-2.831,1.009-3.727-1.141-.565-1.997-1.617-2.692-2.661-.415-.624-.825-1.291-1.108-1.986-.181-.445-.301-.954-.306-1.184l-.991,1.727c1.48-.71,3.612-.034,4.997.605,1.638.756,3.175,1.9,4.382,3.23,1.373,1.512,3.848-.081,3.343-1.946.14.515.081.128.218-.205.164-.397.38-.781.575-1.164.327-.643.717-1.245,1.199-1.784l-2.424.313c1.212.572,2.144,2.087,2.77,3.226.703,1.276,1.262,3.173,1.063,4.645-.145,1.069.257,2.147,1.397,2.46.932.256,2.314-.319,2.46-1.397.343-2.527-.159-5.241-1.346-7.509-.931-1.778-2.457-3.998-4.326-4.88-.774-.365-1.802-.383-2.424.313-.831.93-1.504,1.947-2.058,3.059-.606,1.214-1.341,2.59-.963,3.987l3.343-1.946c-3.318-3.656-9.369-6.789-14.226-4.46-.61.293-1.004,1.071-.991,1.727.039,1.86.95,3.669,1.96,5.189,1.052,1.582,2.39,3.236,4.127,4.096l1.009-3.727c-2.574-.047-5.147-.004-7.573.952-2.81,1.108-5.344,2.867-7.303,5.175-.551.65-.828,1.65-.313,2.424,2.539,3.811,8.477,6.505,12.965,5.604l-1.541-3.655c-2.973,1.854-5.14,5.272-6.356,8.502-.914,2.428-2.452,8.235,1.347,8.876,3.1.523,6.837-.238,9.662-1.55,1.459-.677,2.773-1.677,4.033-2.664.941-.738,1.982-1.526,2.487-2.641l-3.655-1.541c-.604,4.4,1.955,8.669,4.796,11.801.452.498,1.306.732,1.946.514,2.796-.95,5.196-3.982,6.465-6.513,1.539-3.071,1.629-6.753.476-9.944l-3.343,1.946c2.695,3.079,5.807,5.524,10.083,5.465.882-.012,1.69-.613,1.929-1.468.67-2.407.145-5.242-.702-7.546-.865-2.355-2.605-4.311-4.606-5.788v3.454c1.661-.817,2.87-2.3,3.906-3.792.483-.695.301-1.861-.313-2.424-1.627-1.492-3.354-2.713-5.548-3.162-1.825-.373-3.949-.635-5.762-.061-2.445.775-1.4,4.638,1.063,3.857h0Z"/><path class="j" d="M403.469,35.37c.621-.346,1.119-.952,1.568-1.49.547-.657,1.077-1.334,1.562-2.038,1.066-1.548,1.768-3.416,2.381-5.177.295-.847-.202-1.811-.919-2.259-.625-.39-1.32-.517-2.046-.545-.8-.031-1.788.638-1.929,1.468-.135.8-.296,1.58-.558,2.349-.095.278-.195.553-.301.827-.048.124-.098.248-.148.372-.055.134-.207.459.063-.147-.032.073-.063.146-.095.219-.292.667-.612,1.323-.981,1.951-.18.307-.377.601-.581.892-.221.316.317-.369.067-.089-.053.059-.103.121-.157.18-.111.122-.228.237-.352.345-.787.694-.762,2.129,0,2.828.84.771,1.988.74,2.828,0,1.205-1.061,1.994-2.64,2.629-4.09.653-1.49,1.17-2.967,1.442-4.575l-1.929,1.468c.085.002.169.006.254.014-.31-.05-.388-.058-.235-.024.46.171-.334-.205.008.008l-.919-2.259c-.183.525-.381,1.044-.586,1.561-.144.363.177-.398.01-.023-.04.09-.079.18-.119.27-.085.189-.172.376-.261.563-.295.612-.602,1.233-.985,1.796-.171.251-.351.496-.534.738-.09.12-.31.383.089-.114-.059.073-.116.148-.174.222-.107.135-.216.269-.326.402-.21.253-.424.503-.651.74-.093.097-.192.187-.287.282-.259.257.481-.306.149-.121-.915.509-1.294,1.842-.718,2.736.597.926,1.758,1.262,2.736.718h0Z"/><path class="i" d="M113.814,11.082c-.485-.37-1.816-2.934-2.059-3.62-.443-1.251-.822-2.572-1.138-4.582.337-.153.681-.144,1.068-.085-.012,1.144-.004,1.615.204,2.836.183,1.073.83,4.109,1.925,5.451"/><path class="m" d="M114.301,11.46c-1.306-.763-4.623-.937-6.118-.626-1.156.24-2.19.746-3.577,1.642.466,1.042,1.383,2.78,2.597,3.588-1.312.609-3.271,2.183-3.996,3.179-.925,1.272-2.562,4.813-2.275,6.95,2.069.453,3.886.102,5.213-.556,1.053-.522,2.463-1.346,3.435-2.124l.745-.596c-.267.463-.534.925-.534.925-1.034,1.791-1.291,5.468-.676,7.395,1.23,3.848,3.521,6.097,4.201,6.435,1.376-1.036,2.809-2.441,3.72-3.639,1.123-1.476,2.184-4.167,2.216-4.961,0,0,.007-.173.014-.346l.081.32c.202.799,2.998,3.877,4.601,5.061,2.202,1.627,6.988,3.179,8.655,2.884,1.247-2.037.568-6.513-.172-8.476-.921-2.444-2.083-4.699-3.185-5.694,0,0-.152-.137-.303-.274l.378.149c1.345.53,3.263.384,4.822.041,1.466-.322,4.684-1.26,6.164-2.915-1.867-3.315-5.171-6.036-8.171-6.975-.645-.202-2.644-.626-4.103-.851,2.396-.607,6.024-4.48,6.348-6.542-.817-.638-2.092-1.059-3.747-1.081-1.55-.021-3.389.353-4.775.972-1.203.537-2.275.916-3.466,1.834l-.361.278c.016-.034.032-.067.032-.067.307-.649-.381-2.482-.55-3.167-.121-.491-.769-1.803-1.05-2.227-1.366.282-3.807,2.715-4.538,3.807-.94,1.405-1.914,3.726-1.925,5.327"/><path class="j" d="M115.311,9.733c-3.714-1.952-8.331-1.128-11.713,1.016-.979.621-1.183,1.721-.718,2.736.78,1.7,1.796,3.188,3.314,4.305v-3.454c-2.065,1.02-4.077,2.687-5.223,4.705-1.176,2.07-2.269,4.724-2.039,7.152.078.827.561,1.753,1.468,1.929,2.121.41,4.221.342,6.223-.521,1.881-.811,3.525-1.997,5.115-3.27l-3.141-2.424c-1.684,2.916-2.387,6.562-1.412,9.861.789,2.669,2.554,6.212,5.12,7.63.568.314,1.463.429,2.019,0,3.284-2.533,6.761-6.262,6.941-10.673l-3.929.532c.321,1.266,1.203,2.262,2.046,3.225,1.069,1.22,2.236,2.4,3.555,3.351,2.434,1.755,5.969,3.089,8.987,3.188,4.078.133,3.512-5.85,3.067-8.531-.545-3.286-2.131-7.096-4.635-9.358l-1.946,3.343c2.298.906,4.885.597,7.216-.047,2.191-.605,4.493-1.524,6.095-3.192.617-.643.765-1.645.313-2.424-1.513-2.601-3.656-4.846-6.216-6.436-2.229-1.384-4.697-1.9-7.253-2.309v3.857c1.874-.545,3.503-1.85,4.834-3.24,1.23-1.284,2.552-2.909,2.911-4.699.191-.952-.151-1.705-.919-2.259-4.141-2.984-10.719-.809-14.367,2.003l2.736,2.736c1.051-2.223-.369-5.533-1.569-7.48-.468-.759-1.389-1.154-2.259-.919-2.05.553-3.875,2.36-5.167,3.976-1.57,1.962-2.657,4.566-2.764,7.087-.109,2.574,3.891,2.569,4,0,.064-1.518.902-3.354,1.749-4.453.76-.987,2.127-2.451,3.246-2.753l-2.259-.919c.38.617.69,1.254.901,1.944.111.362.222.726.32,1.092.055.207.084.456.164.65.125.304-.242.66.184-.242-.385.813-.354,1.757.313,2.424.572.572,1.732.846,2.424.313,2.533-1.952,7.331-4.163,10.329-2.003l-.919-2.259c-.403,2.005-2.993,4.576-4.951,5.145-1.755.51-2.049,3.529,0,3.857,2.06.33,4.161.65,5.984,1.716,2.127,1.245,3.86,3.067,5.095,5.19l.313-2.424c-1.129,1.177-2.791,1.738-4.33,2.163-1.702.47-3.411.708-5.089.047-1.877-.74-3.368,2.058-1.946,3.343,1.667,1.506,2.71,3.924,3.282,6.066.46,1.724.983,4.304.066,5.954l1.727-.991c-2.235.299-5.177-1.038-7.064-2.22-1.052-.659-1.936-1.603-2.777-2.509-.393-.424-.797-.853-1.147-1.315-.13-.172-.242-.355-.363-.532-.234-.343.113.453-.058-.221-.568-2.241-3.838-1.68-3.929.532-.028.692.101-.13-.04.355-.075.259-.152.516-.242.77-.27.763-.628,1.496-1.035,2.195-.882,1.515-2.265,2.836-3.643,3.899h2.019c-.239-.132-.131-.121.005.038-.115-.134-.279-.243-.408-.368-.312-.302-.603-.631-.865-.976-.881-1.162-1.597-2.537-2.015-3.934-.685-2.294-.156-4.763,1.008-6.779,1.206-2.089-1.448-3.779-3.141-2.424-2.153,1.723-4.578,3.316-7.447,2.762l1.468,1.929c-.167-1.767.635-3.622,1.493-5.133.764-1.345,2.263-2.516,3.788-3.27,1.476-.729,1.104-2.641,0-3.454-.893-.657-1.432-1.894-1.879-2.87l-.718,2.736c1.305-.828,2.538-1.473,4.049-1.511,1.135-.029,2.631-.028,3.626.495,2.277,1.197,4.301-2.254,2.019-3.454h0Z"/><path class="j" d="M115.228,9.668c-.029-.024-.207-.175-.194-.204.004-.009.357.496.176.222-.034-.052-.071-.102-.106-.154-.184-.275-.351-.56-.514-.847-.34-.599-.662-1.211-.945-1.839-.198-.441.171.472.053.126-.056-.163-.115-.326-.17-.489-.128-.383-.248-.77-.356-1.159-.271-.978-.468-1.972-.628-2.974l-1.397,2.46c.061-.029.125-.052.191-.068.152-.04.083-.034-.207.017l.134-.002c.22.015.182.004-.113-.032l-1.468-1.929c-.016,1.639.198,3.251.585,4.843.421,1.734,1.012,3.449,2.131,4.858.297.374.96.586,1.414.586.491,0,1.076-.218,1.414-.586.35-.381.61-.882.586-1.414-.025-.563-.238-.976-.586-1.414.433.546.084.097-.008-.054-.088-.145-.169-.294-.246-.446-.074-.146-.299-.719-.067-.113-.067-.175-.139-.348-.203-.524-.243-.672-.437-1.361-.603-2.055-.133-.556-.246-1.116-.335-1.68-.012-.074-.07-.485-.023-.134.046.348-.003-.046-.008-.094-.019-.182-.033-.364-.042-.547-.02-.409-.015-.818-.011-1.227.008-.78-.621-1.812-1.468-1.929-.721-.099-1.431-.191-2.131.085-1.094.431-1.583,1.29-1.397,2.46.297,1.862.727,3.727,1.503,5.452.289.643.62,1.269.969,1.881.334.584.717,1.322,1.24,1.751.422.346.848.586,1.414.586.491,0,1.076-.218,1.414-.586.674-.734.864-2.12,0-2.828h0Z"/><path class="l" d="M201.611,54.302c-3.161-.06-6.133.327-9.112,1.73-6.392,3.009-8.477,11.774-3.029,16.469.829,1.164,5.665,2.945,9.025,2.033,3.224-.876,5.959-2.754,7.77-5.438,2.058-3.049,2.291-4.976,1.94-8.445-.255-2.521-.279-6.077,2.404-7.604-1.665.064-7.034,1.292-8.997,1.255Z"/><path class="j" d="M201.611,52.302c-5.375-.071-11.188,1.239-14.619,5.7-2.753,3.58-3.467,8.444-1.513,12.56,1.985,4.181,6.449,6.216,10.929,6.222,5.309.008,10.33-3.841,12.638-8.451,1.277-2.55,1.383-5.132,1.136-7.921-.163-1.843-.387-4.523,1.436-5.638,1.617-.989,1.044-3.835-1.009-3.727-3.051.161-6.063,1.262-8.997,1.255-2.574-.006-2.578,3.994,0,4,1.625.004,3.27-.34,4.866-.613.843-.144,1.686-.296,2.53-.435.826-.136.808-.164,1.602-.206l-1.009-3.727c-1.867,1.142-2.981,3.009-3.318,5.153-.327,2.087.019,4.07.055,6.157.072,4.146-2.969,7.816-6.68,9.403-1.863.796-3.686.923-5.651.447-.763-.185-1.537-.411-2.238-.769-.125-.064-.907-.576-.595-.322-.317-.257-.612-.582-.898-.876-2.306-2.375-2.458-5.937-.967-8.755,2.367-4.473,7.637-5.516,12.304-5.455,2.575.034,2.576-3.966,0-4Z"/><path class="j" d="M187.416,72.114c-.023.123-.065.239-.112.355l.202-.478c-.248.573-.599,1.103-.956,1.612-.098.14-.198.278-.3.414-.024.032-.048.064-.073.096-.096.127-.031.043.195-.252-.045.056-.089.113-.134.168-.176.216-.366.42-.557.623-.486.517-.991,1.016-1.518,1.491-.303.274-.612.54-.927.8-.18.149-.362.296-.546.442-.08.064-.161.127-.242.19-.117.091-.066.051.154-.119-.069.053-.138.105-.207.158l2.424.313c-.05-.041-.096-.084-.144-.126-.237-.202.218.345.106.154-.073-.124-.143-.243-.202-.375l.202.478c-.039-.093-.075-.186-.109-.281l-.919,2.259c.685-.358,1.363-.723,1.995-1.17.19-.135.377-.274.562-.416.213-.162.874-.646.245-.189.052-.037.102-.077.153-.116.241-.181.485-.357.726-.538,1.419-1.068,2.919-2.277,3.641-3.953.221-.514.357-.977.202-1.541-.128-.464-.486-.967-.919-1.195-.464-.245-1.026-.368-1.541-.202-.46.149-.995.454-1.195.919-.152.353-.345.677-.565.992-.195.279.315-.376.077-.099-.063.073-.124.149-.188.221-.117.133-.24.262-.365.387-.257.257-.528.499-.808.731-.139.115-.282.225-.422.339.561-.453.081-.065-.066.045-.224.167-.45.33-.672.499-.109.083-.217.167-.325.25-.272.21-.27.208.006-.005l-.094.071c-.169.125-.337.252-.509.372-.62.436-1.284.792-1.955,1.142-.729.38-1.207,1.464-.919,2.259.257.71.576,1.424,1.177,1.915.352.288.686.488,1.148.55.401.054.938.018,1.275-.237,1.546-1.171,3.018-2.41,4.331-3.841.548-.597,1.035-1.26,1.484-1.935.416-.625.905-1.372,1.046-2.116.102-.536.082-1.057-.202-1.541-.243-.415-.718-.811-1.195-.919-.985-.224-2.252.298-2.46,1.397h0Z"/><g id="e"><path class="h" d="M389.611,258.844c-2.455,2.829-6.029,1.889-8.144-.891-3.284,2.656-6.693.872-8.079-2.445-4.499,1.717-7.254-1.67-7.052-5.653-4.003,1.041-6.419-2.13-6.265-5.843-3.743-.024-5.359-3.386-4.6-6.825-7.786-2.07-7.249-22.126-2.102-25.217-3.547-2.269-2.797-6.262.123-8.655-2.551-2.512-1.495-5.971,1.294-7.975-2.761-3.19-1.287-13.335,4.937-16.706-2.487-3.623-.038-7.084,3.754-8.019-1.356-4.103,1.812-6.721,5.618-6.666-1.653-4.396,1.819-7.174,5.868-6.942-.065-4.715,4.462-6.125,8.324-4.282,1.032-4.387,5.308-4.856,8.545-2.589,2.149-3.872,6.592-3.067,9.131.178,3.151-3.059,6.914-1.297,8.49,2.203,4.054-1.499,6.814,1.673,6.841,5.556,4.212.117,5.632,3.829,4.428,7.332,4.573.448,5.593,4.598,3.776,8.079,4.399,1.099,4.813,5.348,2.524,8.537,3.573,1.385,3.854,5.115,1.877,8.037,4.026,1.289,4.321,5.332,2.112,8.383,4.01.816,4.777,4.841,2.929,8.171,3.675,2.37,2.843,6.392-.163,8.722,3.642,2.7,2.549,6.622-.585,8.703,2.684,3.524.464,7.055-3.219,8.183,1.817,4.398-1.455,7.245-5.422,7.187.99,3.735-1.852,6.144-5.364,6.256l-.671.021c.002.009.004.019.004.019.884,3.857-2.366,6.242-6.123,6.036-.429,4.254-4.491,5.354-8.005,3.685-.984,3.682-4.614,4.381-7.716,2.777"/><path class="o" d="M213.243,258.677c-2.455,2.829-6.029,1.889-8.144-.891-3.284,2.656-6.693.872-8.079-2.445-4.499,1.717-7.254-1.67-7.052-5.653-4.003,1.041-6.419-2.13-6.265-5.843-7.37-1.395-8.927-11.785-7.045-14.984-3.364-2.007-2.862-5.992-.144-8.578-3.203-2.312-2.384-6.166.488-8.48-3.547-2.269-5.021-12.612,1.417-16.63-2.761-3.19-.69-6.999,3.044-8.408-2.895-2.986-1.363-6.608,1.893-8.298-2.487-3.623-.038-7.084,3.754-8.019-1.356-4.103,1.812-6.721,5.618-6.666-1.653-4.396,1.819-7.174,5.868-6.942-.065-4.715,4.462-6.125,8.324-4.282,1.032-4.387,5.308-4.856,8.545-2.589,2.149-3.872,6.592-3.067,9.131.178,3.151-3.059,6.914-1.297,8.49,2.203,4.054-1.499,6.814,1.673,6.841,5.556,5.611.395,10.021,11.93,8.204,15.41,4.399,1.099,4.813,5.348,2.524,8.537,3.573,1.385,3.854,5.115,1.877,8.037,4.026,1.289,4.321,5.332,2.112,8.383,4.01.816,4.777,4.841,2.929,8.171,3.675,2.37,2.843,6.392-.163,8.722,3.642,2.7,4.313,13.395-3.804,16.886,1.817,4.398-1.455,7.245-5.422,7.187.99,3.735-1.852,6.144-5.364,6.256l-.671.021c.002.009.004.019.004.019.884,3.857-2.366,6.242-6.123,6.036-.429,4.254-4.491,5.354-8.005,3.685-.984,3.682-4.614,4.381-7.716,2.777"/><path class="h" d="M40.837,258.677c-2.455,2.829-6.029,1.889-8.144-.891-3.284,2.656-6.693.872-8.079-2.445-4.499,1.717-7.254-1.67-7.052-5.653-4.003,1.041-6.419-2.13-6.265-5.843-3.743-.024-5.359-3.386-4.6-6.825-3.737-1.04-4.328-4.96-2.446-8.159-3.364-2.007-2.862-5.992-.144-8.578-3.203-2.312-2.384-6.166.488-8.48-3.547-2.269-2.797-6.262.123-8.655-2.551-2.512-1.495-5.971,1.294-7.975-2.761-3.19-.69-6.999,3.044-8.408-2.895-2.986-1.363-6.608,1.893-8.298-2.487-3.623-.038-7.084,3.754-8.019-1.356-4.103,1.812-6.721,5.618-6.666-1.653-4.396,1.819-7.174,5.868-6.942-.065-4.715,4.462-6.125,8.324-4.282,1.032-4.387,5.308-4.856,8.545-2.589,2.149-3.872,6.592-3.067,9.131.178,3.151-3.059,6.914-1.297,8.49,2.203,4.054-1.499,6.814,1.673,6.841,5.556,4.212.117,5.632,3.829,4.428,7.332,4.573.448,5.593,4.598,3.776,8.079,6.925,1.652,6.378,13.651,4.401,16.573,4.026,1.289,4.321,5.332,2.112,8.383,4.01.816,4.777,4.841,2.929,8.171,3.675,2.37,2.843,6.392-.163,8.722,3.642,2.7,2.549,6.622-.585,8.703,2.684,3.524.86,13.581-8.641,15.371.99,3.735-1.852,6.144-5.364,6.256l-.671.021c.002.009.004.019.004.019.884,3.857-2.366,6.242-6.123,6.036-.429,4.254-4.491,5.354-8.005,3.685-.984,3.682-4.614,4.381-7.716,2.777"/><path class="j" d="M36.625,258.289c-1.071-.336-1.828-1.058-2.518-1.917-.495-.616-1.781-.803-2.424-.313-.91.693-1.957,1.31-3.115.849-1.119-.445-1.761-1.531-2.227-2.577-.334-.75-1.497-1.189-2.259-.919-1.171.416-2.456.66-3.441-.268-.931-.877-1.117-2.24-1.079-3.456.041-1.348-1.307-2.212-2.532-1.929-2.616.605-3.782-1.583-3.733-3.914.023-1.109-.936-1.962-2-2-2.342-.083-3.078-2.244-2.671-4.294.216-1.086-.302-2.122-1.397-2.46-2.456-.759-2.324-3.308-1.25-5.221.544-.969.208-2.147-.718-2.736-2.213-1.41-1.304-3.884.26-5.437,1.007-.999.593-2.375-.405-3.141-2.081-1.597-.682-4.013.893-5.339,1.051-.885.572-2.478-.405-3.141-2.311-1.569-1.249-3.995.528-5.514.836-.715.698-2.093,0-2.828-1.514-1.595-.722-3.617.89-4.834,1.099-.83,1.288-2.057.405-3.141-1.654-2.028.135-4.25,2.162-5.065,1.401-.563,1.975-2.147.883-3.343-1.812-1.982-.572-4.028,1.488-5.157.917-.503,1.292-1.846.718-2.736-.64-.992-1.025-2.034-.4-3.131.617-1.083,1.804-1.638,2.959-1.95,1.024-.277,1.709-1.427,1.397-2.46-.809-2.682,1.133-4.119,3.689-4.135,1.228-.008,2.363-1.282,1.929-2.532-.414-1.192-.588-2.399.382-3.359.93-.921,2.309-1.097,3.557-1.051,1.089.04,1.989-.949,2-2,.031-3,2.897-3.653,5.314-2.555,1.143.519,2.585.157,2.938-1.195.769-2.942,3.399-2.877,5.607-1.394.9.605,2.213.168,2.736-.718,1.602-2.712,4.367-1.406,5.989.583.704.863,2.097.67,2.828,0,2.153-1.972,4.272-.455,5.349,1.799.359.752,1.477,1.184,2.259.919,1.103-.374,2.176-.492,3.088.345.899.825,1.189,2.112,1.221,3.283.031,1.124.893,1.941,2,2,2.718.146,3.222,2.553,2.5,4.8-.439,1.365.713,2.384,1.929,2.532,2.723.331,3.108,2.943,2.049,5.069-.582,1.169-.101,2.545,1.195,2.938.248.046.476.137.685.275,2.279,1.192,4.303-2.259,2.019-3.454-.529-.277-1.07-.505-1.641-.678l1.195,2.938c1.122-2.251,1.551-4.83.508-7.195-1.092-2.476-3.449-3.581-6.011-3.893l1.929,2.532c.691-2.15.69-4.594-.453-6.596-1.235-2.163-3.502-3.139-5.904-3.267l2,2c-.064-2.323-.811-4.726-2.604-6.304-1.894-1.666-4.416-1.98-6.768-1.181l2.259.919c-.991-2.075-2.74-3.883-4.998-4.526-2.46-.701-4.817.254-6.633,1.918h2.828c-1.537-1.885-3.795-3.258-6.267-3.35-2.584-.096-4.728,1.416-6.005,3.576l2.736-.718c-1.952-1.311-4.449-1.997-6.77-1.369-2.481.671-4.083,2.743-4.713,5.154l2.938-1.195c-2.44-1.108-5.155-1.48-7.653-.318-2.479,1.153-3.652,3.696-3.68,6.327l2-2c-2.39-.088-4.915.63-6.58,2.425-1.794,1.934-2.06,4.621-1.216,7.048l1.929-2.532c-2.296.014-4.664.73-6.252,2.465-1.701,1.857-2.004,4.381-1.294,6.733l1.397-2.46c-2.24.606-4.409,1.936-5.495,4.057-1.162,2.271-.81,4.799.546,6.9l.718-2.736c-1.954,1.072-3.646,2.799-4.21,5.008-.613,2.402.292,4.659,1.912,6.431l.883-3.343c-2.35.945-4.426,2.493-5.352,4.934-.934,2.46-.178,4.85,1.426,6.817l.405-3.141c-3.668,2.77-5.147,7.486-1.699,11.116v-2.828c-1.743,1.49-2.995,3.602-3.08,5.932-.091,2.498,1.376,4.516,3.362,5.864l-.405-3.141c-1.734,1.461-2.972,3.511-3.122,5.804-.159,2.443,1.181,4.391,3.038,5.817l-.405-3.141c-3.477,3.451-3.887,8.892.549,11.719l-.718-2.736c-2.376,4.233-1.358,9.551,3.641,11.097l-1.397-2.46c-.922,4.643,1.439,9.176,6.528,9.357l-2-2c-.047,2.246.61,4.613,2.259,6.219,1.778,1.731,4.188,2.095,6.537,1.552l-2.532-1.929c-.072,2.351.648,4.859,2.45,6.468,1.987,1.774,4.693,1.98,7.134,1.113l-2.259-.919c1.928,4.325,6.885,6.157,10.815,3.163l-2.424-.313c1.125,1.401,2.568,2.407,4.283,2.946,2.462.773,3.515-3.088,1.063-3.857h0Z"/><path class="j" d="M255.286,228.426c-.592.852-1.518,1.374-2.483,1.697-.947.317-1.803,1.406-1.397,2.46.439,1.141.746,2.401-.121,3.421-.822.966-2.166,1.228-3.372,1.235-1.337.008-2.225,1.269-1.929,2.532.647,2.753-1.816,3.673-4.107,3.746-1.337.042-2.225,1.241-1.929,2.532.598,2.603-2.07,3.596-4.19,3.524-1.179-.04-1.868.957-2,2-.322,2.539-3.028,2.846-4.995,1.958-1.181-.533-2.537-.141-2.938,1.195-.295.982-.799,1.703-1.803,2.014-2.452.758-1.406,4.62,1.063,3.857,2.357-.729,3.895-2.469,4.597-4.807l-2.938,1.195c2.285,1.031,4.818,1.423,7.178.379,2.403-1.064,3.519-3.292,3.836-5.79l-2,2c4.882.166,9.232-3.424,8.047-8.587l-1.929,2.532c2.293-.073,4.527-.547,6.248-2.174,1.846-1.744,2.279-4.236,1.716-6.635l-1.929,2.532c2.357-.014,4.809-.775,6.382-2.616,1.717-2.011,1.898-4.692.969-7.103l-1.397,2.46c2.023-.677,3.651-1.775,4.874-3.535,1.472-2.119-1.994-4.121-3.454-2.019h0Z"/><path class="j" d="M178.001,198.087c.349-.427.716-.851,1.158-1.187,1.095-.834,1.291-2.054.405-3.141-1.654-2.028.135-4.25,2.162-5.065,1.401-.563,1.975-2.147.883-3.343-1.812-1.982-.572-4.028,1.488-5.157.917-.503,1.292-1.846.718-2.736-.64-.992-1.025-2.034-.4-3.131.617-1.083,1.804-1.638,2.959-1.95,1.024-.277,1.709-1.427,1.397-2.46-.809-2.682,1.133-4.119,3.689-4.135,1.228-.008,2.363-1.282,1.929-2.532-.414-1.192-.588-2.399.382-3.359.93-.921,2.309-1.097,3.557-1.051,1.089.04,1.989-.949,2-2,.031-3,2.897-3.653,5.314-2.555,1.143.519,2.585.157,2.938-1.195.769-2.942,3.399-2.877,5.607-1.394.9.605,2.213.168,2.736-.718,1.602-2.712,4.367-1.406,5.989.583.704.863,2.097.67,2.828,0,2.153-1.972,4.272-.455,5.349,1.799.359.752,1.477,1.184,2.259.919,1.103-.374,2.176-.492,3.088.345.899.825,1.189,2.112,1.221,3.283.043,1.562,1.653,2.43,3.009,1.727l.035-.018-1.009.273c.344.004-.536-.112.116.017.23.045.46.095.688.149.433.102.563.116.913.363,1.086.767,1.749,2.112,2.268,3.291.436.989,1.88,1.219,2.736.718,1.019-.596,1.155-1.744.718-2.736-.856-1.941-2.21-3.996-4.158-4.984-1.185-.601-3.096-1.164-4.326-.526l3.009,1.727c-.064-2.323-.811-4.726-2.604-6.304-1.894-1.666-4.416-1.98-6.768-1.181l2.259.919c-.991-2.075-2.74-3.883-4.998-4.526-2.46-.701-4.817.254-6.633,1.918h2.828c-1.537-1.885-3.795-3.258-6.267-3.35-2.584-.096-4.728,1.416-6.005,3.576l2.736-.718c-1.952-1.311-4.449-1.997-6.77-1.369-2.481.671-4.083,2.743-4.713,5.154l2.938-1.195c-2.44-1.108-5.155-1.48-7.653-.318-2.479,1.153-3.652,3.696-3.68,6.327l2-2c-2.39-.088-4.915.63-6.58,2.425-1.794,1.934-2.06,4.621-1.216,7.048l1.929-2.532c-2.296.014-4.664.73-6.252,2.465-1.701,1.857-2.004,4.381-1.294,6.733l1.397-2.46c-2.24.606-4.409,1.936-5.495,4.057-1.162,2.271-.81,4.799.546,6.9l.718-2.736c-1.954,1.072-3.646,2.799-4.21,5.008-.613,2.402.292,4.659,1.912,6.431l.883-3.343c-2.35.945-4.426,2.493-5.352,4.934-.934,2.46-.178,4.85,1.426,6.817l.405-3.141c-.726.553-1.387,1.103-1.967,1.812-1.618,1.976,1.196,4.822,2.828,2.828h0Z"/><path class="j" d="M208.687,258.268c-1.034-.341-1.775-1.062-2.443-1.896-.494-.617-1.781-.802-2.424-.313-.91.693-1.957,1.31-3.115.849-1.119-.445-1.761-1.531-2.227-2.577-.334-.75-1.497-1.189-2.259-.919-1.171.416-2.456.66-3.441-.268-.931-.877-1.117-2.24-1.079-3.456.041-1.347-1.307-2.213-2.532-1.929-2.621.609-3.783-1.582-3.733-3.914.055-2.575-3.945-2.574-4,0-.049,2.26.617,4.592,2.257,6.215,1.761,1.742,4.201,2.099,6.539,1.557l-2.532-1.929c-.072,2.351.648,4.859,2.45,6.468,1.987,1.774,4.693,1.98,7.134,1.113l-2.259-.919c1.928,4.325,6.885,6.157,10.815,3.163l-2.424-.313c1.11,1.384,2.525,2.37,4.209,2.925,2.45.808,3.501-3.054,1.063-3.857h0Z"/><path class="j" d="M211.083,285.768c.711-8.972,1.51-19.203,1.829-25.596.288-5.756,1.338-22.176,1.418-24.516.091-2.657-.213-5.592-.236-8.824-2.376-1.059-5.896-3.372-8.08-5.908-2.206-2.597-4.769-8.281-4.296-11.692.536-.161,2.26-.604,2.947-.67.6,1.356,2.201,6.391,4.092,8.417,2.514,2.694,3.917,3.242,5.538,3.579.203-4.643.421-10.972.647-15.425.081-1.587.522-10.327.643-12.215.683,0,2.568.121,3.371.121.177,1.444.457,19.129.521,22.663.042,2.295.472,16.736.484,18.524,3.444-2.296,8.215-7.637,9.986-11.517.737-1.614,2.058-4.287,2.583-5.754.532-.076,3.035.543,3.263.796-.161,3.295-3.244,9.615-5.625,13.26-3.444,4.457-6.822,7.243-9.97,9.851-.057,1.472-.23,14.947-.23,20.132,0,5.969.532,15.955,1.02,24.891"/><path class="j" d="M358.014,183.191c.286-1.429,1.205-2.309,2.452-2.997.916-.505,1.293-1.844.718-2.736-.64-.992-1.025-2.034-.4-3.131.617-1.083,1.804-1.638,2.959-1.95,1.024-.277,1.709-1.427,1.397-2.46-.809-2.682,1.133-4.119,3.689-4.135,1.228-.008,2.363-1.282,1.929-2.532-.414-1.192-.588-2.399.382-3.359.93-.921,2.309-1.097,3.557-1.051,1.089.04,1.989-.949,2-2,.031-3,2.897-3.653,5.314-2.555,1.143.519,2.585.157,2.938-1.195.769-2.942,3.399-2.877,5.607-1.394.9.605,2.213.168,2.736-.718,1.602-2.712,4.367-1.406,5.989.583.704.863,2.097.67,2.828,0,2.153-1.972,4.272-.455,5.349,1.799.359.752,1.477,1.184,2.259.919,1.103-.374,2.176-.492,3.088.345.899.825,1.189,2.112,1.221,3.283.031,1.124.893,1.941,2,2,2.718.146,3.222,2.553,2.5,4.8-.439,1.365.713,2.384,1.929,2.532,2.723.331,3.108,2.943,2.049,5.069-.57,1.144-.115,2.577,1.195,2.938,2.921.806,2.838,3.408,1.329,5.599-.816,1.184.107,2.48,1.195,2.938,2.251.948,1.758,3.433.682,5.099-.744,1.151.036,2.534,1.195,2.938,2.644.922,2.25,3.526.917,5.445-.724,1.042.005,2.662,1.195,2.938,2.642.611,2.88,3.068,1.734,5.233-.533,1.006-.207,2.105.718,2.736,2.385,1.63,1.326,4.048-.568,5.581-.772.625-.79,2.211,0,2.828.961.752,1.9,1.701,1.679,3.025-.174,1.045-1.025,1.956-1.859,2.536-.823.572-1.387,1.803-.718,2.736s1.211,1.975.71,3.112c-.486,1.104-1.64,1.771-2.733,2.133-.948.314-1.802,1.408-1.397,2.46.439,1.141.746,2.401-.121,3.421-.822.966-2.166,1.228-3.372,1.235-1.337.008-2.225,1.269-1.929,2.532.647,2.753-1.816,3.673-4.107,3.746-1.337.042-2.225,1.241-1.929,2.532.598,2.603-2.07,3.596-4.19,3.524-1.179-.04-1.868.957-2,2-.322,2.539-3.028,2.846-4.995,1.958-1.18-.533-2.538-.141-2.938,1.195-.365,1.219-1.039,1.869-2.276,2.118-2.522.507-1.454,4.363,1.063,3.857,2.582-.519,4.332-2.448,5.07-4.911l-2.938,1.195c2.285,1.031,4.818,1.423,7.178.379,2.403-1.064,3.519-3.292,3.836-5.79l-2,2c4.882.166,9.232-3.424,8.047-8.587l-1.929,2.532c2.293-.073,4.527-.547,6.248-2.174,1.846-1.744,2.279-4.236,1.716-6.635l-1.929,2.532c2.357-.014,4.809-.775,6.382-2.616,1.717-2.011,1.898-4.692.969-7.103l-1.397,2.46c2.198-.729,4.262-2.09,5.255-4.255,1.061-2.311.616-4.834-.841-6.866l-.718,2.736c1.966-1.368,3.514-3.26,3.802-5.703s-.92-4.661-2.813-6.141v2.828c1.794-1.452,3.08-3.563,3.182-5.905.112-2.542-1.415-4.586-3.424-5.958l.718,2.736c2.297-4.339,1.14-9.89-4.125-11.109l1.195,2.938c1.311-1.889,1.97-4.249,1.456-6.526-.549-2.433-2.505-4.008-4.763-4.795l1.195,2.938c1.197-1.853,1.797-4.09,1.316-6.278-.513-2.33-2.285-3.812-4.388-4.697l1.195,2.938c1.33-1.931,2.022-4.406,1.416-6.722-.652-2.49-2.738-4.092-5.136-4.753l1.195,2.938c1.122-2.251,1.551-4.83.508-7.195-1.092-2.476-3.449-3.581-6.011-3.893l1.929,2.532c.691-2.15.69-4.594-.453-6.596-1.235-2.163-3.502-3.139-5.904-3.267l2,2c-.064-2.323-.811-4.726-2.604-6.304-1.894-1.666-4.416-1.98-6.768-1.181l2.259.919c-.991-2.075-2.74-3.883-4.998-4.526-2.46-.701-4.817.254-6.633,1.918h2.828c-1.537-1.885-3.795-3.258-6.267-3.35-2.584-.096-4.728,1.416-6.005,3.576l2.736-.718c-1.952-1.311-4.449-1.997-6.77-1.369-2.481.671-4.083,2.743-4.713,5.154l2.938-1.195c-2.44-1.108-5.155-1.48-7.653-.318-2.479,1.153-3.652,3.696-3.68,6.327l2-2c-2.39-.088-4.915.63-6.58,2.425-1.794,1.934-2.06,4.621-1.216,7.048l1.929-2.532c-2.296.014-4.664.73-6.252,2.465-1.701,1.857-2.004,4.381-1.294,6.733l1.397-2.46c-2.24.606-4.409,1.936-5.495,4.057-1.162,2.271-.81,4.799.546,6.9l.718-2.736c-2.082,1.149-3.812,3-4.29,5.387-.503,2.514,3.351,3.589,3.857,1.063h0Z"/><path class="j" d="M385.409,258.357c-1.207-.304-2.027-1.027-2.796-1.985-.494-.617-1.781-.802-2.424-.313-.91.693-1.957,1.31-3.115.849-1.119-.445-1.761-1.531-2.227-2.577-.334-.75-1.497-1.189-2.259-.919-1.171.416-2.456.66-3.441-.268-.931-.877-1.117-2.24-1.079-3.456.041-1.348-1.307-2.212-2.532-1.929-2.616.605-3.782-1.583-3.733-3.914.023-1.109-.936-1.962-2-2-2.342-.083-3.078-2.244-2.671-4.294.216-1.085-.302-2.122-1.397-2.46-.864-.267-1.498-.655-2.104-1.326-1.73-1.914-4.551.922-2.828,2.828,1.052,1.164,2.381,1.895,3.869,2.354l-1.397-2.46c-.922,4.643,1.439,9.176,6.528,9.357l-2-2c-.047,2.246.61,4.613,2.259,6.219,1.778,1.731,4.188,2.095,6.537,1.552l-2.532-1.929c-.072,2.351.648,4.859,2.45,6.468,1.987,1.774,4.693,1.98,7.134,1.113l-2.259-.919c1.928,4.325,6.885,6.157,10.815,3.163l-2.424-.313c1.173,1.463,2.731,2.552,4.561,3.014,2.497.63,3.562-3.227,1.063-3.857h0Z"/><path class="j" d="M387.401,286.427c.723-9.127,1.554-19.706,1.882-26.255.288-5.756,1.338-22.176,1.418-24.516.091-2.657-.213-5.592-.236-8.824-2.376-1.059-5.896-3.372-8.08-5.908-2.206-2.597-4.769-8.281-4.296-11.692.536-.161,2.26-.604,2.947-.67.6,1.356,2.201,6.391,4.092,8.417,2.514,2.694,3.917,3.242,5.538,3.579.203-4.643.421-10.972.647-15.425.081-1.587.522-10.327.643-12.215.683,0,2.568.121,3.371.121.177,1.444.457,19.129.521,22.663.042,2.295.472,16.736.484,18.524,3.444-2.296,8.215-7.637,9.986-11.517.737-1.614,2.058-4.287,2.583-5.754.532-.076,3.035.543,3.263.796-.161,3.295-3.244,9.615-5.625,13.26-3.444,4.457-6.822,7.243-9.97,9.851-.057,1.472-.23,14.947-.23,20.132,0,6.095.555,16.382,1.051,25.459"/><path class="j" d="M38.944,285.792c.711-8.978,1.511-19.222,1.831-25.62.288-5.756,1.338-22.176,1.418-24.516.091-2.657-.213-5.592-.236-8.824-2.376-1.059-5.896-3.372-8.08-5.908-2.206-2.597-4.769-8.281-4.296-11.692.536-.161,2.26-.604,2.947-.67.6,1.356,2.201,6.391,4.092,8.417,2.514,2.694,3.917,3.242,5.538,3.579.203-4.643.421-10.972.647-15.425.081-1.587.522-10.327.643-12.215.683,0,2.568.121,3.371.121.177,1.444.457,19.129.521,22.663.042,2.295.472,16.736.484,18.524,3.444-2.296,8.215-7.637,9.986-11.517.737-1.614,2.058-4.287,2.583-5.754.532-.076,3.035.543,3.263.796-.161,3.295-3.244,9.615-5.625,13.26-3.444,4.457-6.822,7.243-9.97,9.851-.057,1.472-.23,14.947-.23,20.132,0,5.973.533,15.97,1.021,24.91"/><path class="j" d="M354.12,287.851c12.469,0,24.939.005,37.408.009,13.126.004,26.252.009,39.379.014,3.309.001,6.618.003,9.928.003,2.574,0,2.578-4,0-4-8.441,0-16.883-.006-25.324-.009-14.254-.005-28.508-.01-42.762-.014-6.209-.002-12.419-.003-18.628-.003-2.574,0-2.578,4,0,4h0Z"/><path class="j" d="M172.831,287.851c12.098,0,24.197.002,36.295.004,16.234.002,32.467.004,48.701.006,3.823,0,7.646.001,11.47.001,2.574,0,2.578-4,0-4-10.26,0-20.519-.003-30.779-.004-16.752-.002-33.504-.004-50.257-.006-5.143,0-10.287-.001-15.43-.001-2.574,0-2.578,4,0,4h0Z"/><path class="j" d="M4.802,287.851c12.732,0,25.463.005,38.195.009,13.693.004,27.386.009,41.079.014,3.446.001,6.892.003,10.338.003,2.574,0,2.578-4,0-4-8.71,0-17.419-.006-26.129-.009-14.808-.005-29.616-.01-44.425-.014-6.353-.002-12.705-.003-19.058-.003-2.574,0-2.578,4,0,4h0Z"/><path class="j" d="M80.139,234.67c-.576,1.316-2.221,3.112-3.831,2.64-1.513-.444-2.8,1.013-2.46,2.46.658,2.802-1.831,3.595-4.102,3.765-1.357.102-2.196,1.191-1.929,2.532.518,2.597-2.034,3.578-4.194,3.505-1.179-.04-1.868.957-2,2-.322,2.539-3.028,2.846-4.995,1.958-1.181-.533-2.537-.141-2.938,1.195-.345,1.15-.957,1.817-2.131,2.091-2.506.585-1.445,4.442,1.063,3.857s4.197-2.459,4.925-4.885l-2.938,1.195c2.285,1.031,4.818,1.423,7.178.379,2.403-1.064,3.519-3.292,3.836-5.79l-2,2c2.282.078,4.64-.571,6.321-2.178,1.771-1.693,2.194-4.065,1.731-6.39l-1.929,2.532c2.31-.173,4.489-.534,6.244-2.193,1.846-1.744,2.279-4.236,1.716-6.635l-2.46,2.46c3.278.962,7.042-1.493,8.348-4.478.433-.989.291-2.147-.718-2.736-.848-.496-2.301-.277-2.736.718h0Z"/></g><g id="f"><path class="k" d="M298.866,116.305c-2.29-1.526-4.931-2.713-8.265-3.248l-5.897-1.249-2.906,1.222c-.293,2.119-.325,4.465-.034,7.056.14,3.911.344,9.34-3.101,11.507-.682.429-1.272,1.016-1.547,1.772-.728,2.001,1.001,2.763,2.113,3.815.734.694,1.204,1.528,1.522,2.446.25,2.105,1.166,6.81,2.677,9.261,1.283,2.082,2.807,3.064,4.352,3.517,3.027.887,7.096,1.012,9.67.132.619-.211,1.296.078,1.582.665.226.465,2.202,3.882,2.492,6.857,2.749-.985,6.464-2.103,8.932-2.946,2.892-.987,9.454-3.481,13.892-4.533-.071-.373-.145-.76-.22-1.156-.123-.648-.004-1.173-.042-1.845-.066-1.162.212-2.297.687-3.393-4.666-2.935-8.398-7.88-11.011-11.495,1.424-1.951,2.253-4.34,2.239-6.758-.009-1.616-.508-3.423-1.929-4.193-.94-.509-2.124-.441-3.09.018-1.15.547-2.015,1.592-2.608,2.699-2.528.093-3.594-5.296-6.493-7.822-.952-.829-1.946-1.616-3.016-2.33Z"/><path class="p" d="M284.705,111.808l-3.048,1.282c.164-2.921.806-4.967,1.908-7.597.606-1.446,4.305-9.007,12.995-12.688,4.147-1.757,7.703-1.889,9.674-1.943,2.171-.06,17.414-.281,25.741,11.586,2.783,3.967,4.801,9.583,4.887,15.292.077,11.189-5.801,19.055-8.159,22.392-1.288,1.823-2.994,3.865-3.928,6.055-4.666-2.935-8.398-7.88-11.011-11.495,1.424-1.951,2.253-4.34,2.239-6.758-.009-1.616-.508-3.423-1.929-4.193-.94-.509-2.124-.441-3.09.018-1.15.547-2.015,1.592-2.608,2.699-2.528.093-3.594-5.296-6.493-7.822-2.987-2.602-6.389-4.792-11.281-5.578l-5.897-1.249Z"/><path class="j" d="M312.721,136.642c2.979,4.05,6.205,7.967,10.383,10.837.865.594,2.257.19,2.736-.718.537-1.017.205-2.102-.718-2.736-.234-.16-.465-.324-.693-.492-.037-.027-.489-.371-.139-.1-.113-.087-.224-.176-.335-.266-.468-.377-.923-.769-1.366-1.174-.864-.788-1.684-1.623-2.471-2.489-.763-.84-1.494-1.708-2.203-2.594-.166-.208-.331-.418-.495-.628-.317-.404.155.205-.024-.031-.078-.103-.157-.205-.236-.308-.333-.438-.661-.878-.986-1.321-.618-.84-1.763-1.345-2.736-.718-.832.537-1.38,1.835-.718,2.736h0Z"/><path class="j" d="M290.07,114.985c3.931.658,7.391,2.437,10.309,4.986,1.287,1.125,2.054,2.6,2.935,4.163.808,1.433,1.703,3.064,3.21,3.865,2.272,1.208,4.295-2.243,2.019-3.454-.184-.098-.336-.217-.09-.013-.125-.103-.241-.217-.352-.335-.069-.074-.338-.409-.137-.144-.116-.154-.223-.315-.328-.476-.477-.728-.885-1.5-1.314-2.256-.992-1.75-2.103-3.346-3.658-4.641-3.365-2.801-7.179-4.825-11.53-5.553-1.064-.178-2.153.28-2.46,1.397-.263.958.326,2.281,1.397,2.46h0Z"/><path class="j" d="M310.408,126.937c.387-.589.948-1.199,1.56-1.439.235-.092.539-.144.76-.121-.25-.027.584.142.368.097-.091-.03-.046,0,.135.088-.122-.111-.131-.12-.028-.028.059.05.384.419.283.283-.089-.12.201.368.238.445-.146-.303.056.181.077.249.057.19.095.384.141.577.098.404.015-.195.036.256.009.196.024.391.025.588.004.42-.017.845-.069,1.263.041-.336-.056.3-.056.301-.04.207-.086.413-.137.617-.103.41-.238.808-.376,1.206-.209.601.147-.276-.121.301-.089.191-.181.381-.279.568-.195.374-.412.738-.646,1.088-.399.597-.804,1.07-1.46,1.677-.372.345-.578.504-.826.675-.377.26-.769.492-1.174.706-.955.504-1.246,1.833-.718,2.736.566.967,1.778,1.224,2.736.718,4.278-2.26,7.168-7.002,7.125-11.856-.022-2.553-1.058-5.251-3.602-6.222-2.988-1.141-5.851.778-7.447,3.208-.593.903-.18,2.211.718,2.736.975.57,2.142.188,2.736-.718h0Z"/><path class="j" d="M281.756,144.296c.688.043,1.366-.002,2.048-.093.557-.075,1.105-.17,1.637-.357.853-.301,1.689-.708,2.339-1.354.363-.361.586-.903.586-1.414,0-.491-.218-1.076-.586-1.414-.8-.735-2.036-.788-2.828,0-.071.071-.148.136-.227.198l.405-.313c-.285.218-.602.387-.931.527l.478-.202c-.535.221-1.096.357-1.668.436l.532-.071c-.591.076-1.188.095-1.783.058-.492-.031-1.074.245-1.414.586-.347.347-.608.916-.586,1.414.023.517.193,1.054.586,1.414.405.372.862.551,1.414.586h0Z"/><path class="j" d="M285.786,125.751c-.326,1.145-.089,3.769,1.972,3.971,2.722-.045,2.844-3.222,1.917-4.705-.759-1.215-2.969-1.7-3.889.734Z"/><path class="j" d="M279.71,113.739c-.436,4.398.838,9.012-.322,13.337-.202.755-.484,1.506-.987,2.117-.618.751-1.553,1.134-2.19,1.876-1.591,1.851-1.67,4.396.047,6.181.61.635,1.421,1.073,1.964,1.774.646.833.601,1.293.781,2.378.336,2.028.803,4.068,1.537,5.992.838,2.195,2.038,4.173,3.957,5.588,1.852,1.365,4.187,1.791,6.426,2.03,1.351.144,2.716.168,4.069.03.669-.068,1.346-.159,2.003-.306.226-.051.634-.085.829-.223.383-.272-.433-.412-.482-.231-.094.352.968,1.917,1.115,2.257.478,1.102.923,2.318,1.067,3.518.128,1.072.827,2,2,2,.981,0,2.129-.92,2-2-.278-2.32-1.056-4.453-2.083-6.543-.845-1.72-1.985-3.4-4.211-2.973-1.025.197-1.968.503-3.023.564-1.184.069-2.396.034-3.571-.128-2.132-.293-3.967-.893-5.238-2.724-1.154-1.663-1.663-3.752-2.104-5.698-.466-2.055-.417-3.797-1.619-5.55-.606-.884-1.368-1.497-2.163-2.19-.224-.195-.489-.378-.615-.653.148.323.072-.197.371-.518.646-.695,1.534-1.099,2.153-1.854.682-.831,1.165-1.737,1.536-2.745,1.803-4.894.253-10.269.752-15.308.107-1.076-.996-2-2-2-1.17,0-1.893.92-2,2h0Z"/><path class="j" d="M283.615,115.096c-.037-7.22,3.493-13.871,9.47-18.074,5.482-3.854,12.515-4.748,18.706-3.851,7.843,1.137,15.357,4.873,19.487,11.888,5.276,8.963,4.231,19.764-.737,28.589-.894,1.588-1.896,3.109-2.946,4.598-1.393,1.975-2.982,3.859-4.109,6.005-1.439,2.74-1.681,5.618-1.109,8.629.498,2.616.91,5.343,1.944,7.814.417.996,1.324,1.709,2.46,1.397.939-.258,1.817-1.457,1.397-2.46-.976-2.332-1.386-4.893-1.858-7.362-.512-2.679-.147-4.871,1.313-7.189,2.078-3.298,4.61-6.247,6.506-9.671,5.367-9.694,6.45-21.348,1.168-31.336-4.308-8.147-12.612-13.082-21.521-14.611-7.018-1.204-14.375-.74-20.696,2.825-8.219,4.636-13.524,13.365-13.476,22.808.013,2.573,4.013,2.579,4,0h0Z"/><path class="j" d="M282.29,114.975l2.947-1.239c.26-.062.487-.181.68-.358.218-.141.389-.328.515-.561.146-.23.225-.477.237-.744.06-.266.048-.532-.036-.798-.157-.484-.457-.951-.919-1.195l-.478-.202c-.354-.095-.709-.095-1.063,0l-2.947,1.239c-.26.062-.487.181-.68.358-.218.141-.389.328-.515.561-.146.23-.225.477-.237.744-.06.266-.048.532.036.798.157.484.457.951.919,1.195l.478.202c.354.095.709.095,1.063,0h0Z"/><path class="k" d="M264.546,395.426c.872-2.475,2.867-6.742,3.748-8.343-.154-.06-.317-.122-.49-.186-1.41-.523-7.801-3.411-11.649-6.077-.872,1.597-1.941,3.263-2.435,4.19l-5.249,9.864c1.422,1.282,5.095,2.537,6.874,3.085,2.275.701,6.001,2.038,8.51,1.774.157-1.473.27-2.702.27-2.702.005-.305.164-.878.421-1.605Z"/><path class="k" d="M384.647,374.843c1.282,1.894,2.573,3.634,3.142,4.008l2.136,1.675c-1.113,2.257-4.236,4.692-6.046,6.241-1.784,1.527-6.128,5-7.449,4.124-.347-1.682-.952-4.518-2.225-5.183-.066-.01-.133-.016-.199-.018-.971-2.237-1.939-4.471-1.939-4.471-.573-1.005-1.529-3.08-2.51-4.772,1.471-.555,2.882-1.314,3.997-1.907,1.125-.599,5.332-3.568,7.332-5.952.315.633.541,1.083.541,1.083.431.856,1.82,3.105,3.219,5.171Z"/><path class="k" d="M390.326,378.701c1.407.2,2.436.822,3.708,2.031,1.911,1.816,5.278,6.646,5.405,9.406.052,4.139-11.09,12.353-17.013,15.728-3.051,1.738-10.067,6.468-14.256,7.325-4.485.917-10.466-1.062-9.744-5.478.257-1.574,3.608-6.365,4.49-7.414,1.906-2.267,5.149-8.76,7.295-11.451.897-1.125,2.387-3.386,3.994-3.138,1.273.665,1.878,3.501,2.225,5.183,1.321.876,5.666-2.597,7.449-4.124,2.312-1.979,6.766-5.404,6.446-8.067"/><path class="k" d="M265.609,399.094c.583,1.297.607,2.498.265,4.22-.513,2.586-2.795,8.013-5.06,9.596-3.471,2.256-16.368-2.77-22.386-5.972-3.1-1.65-10.847-5.051-13.811-8.134-3.172-3.3-4.697-9.413-.579-11.163,1.468-.624,7.308-.353,8.666-.169,2.935.399,10.156-.33,13.577.045,1.43.157,4.138.208,4.787,1.699.119,1.432-1.955,3.459-3.191,4.651-.034,1.585,5.223,3.4,7.468,4.091,2.908.896,8.184,2.83,10.263,1.136"/><path class="n" d="M390.331,379.216c-.241,2.576-4.286,5.698-6.451,7.551-1.784,1.527-6.128,5-7.449,4.124-.347-1.682-.952-4.518-2.225-5.183-1.607-.248-3.097,2.013-3.994,3.138-2.146,2.691-5.389,9.183-7.295,11.451-.882,1.049-4.232,5.84-4.49,7.414-.256,1.563.328,2.82,1.388,3.752,4.344-.361,13.037-6.643,19.719-10.676,6.148-3.711,17.21-11.788,18.135-15.263-1.139-1.944-2.6-3.811-3.635-4.794-1.272-1.209-2.301-1.831-3.708-2.031.02.169.021.341.005.516Z"/><path class="n" d="M281.979,194.722c-2.241,3.053-5.059,8.248-8.028,7.808-2.939-.435-6.585-7.881-8.241-10.679-.845-1.426-2.452-4.068-3.775-5.736-.383-.482-1.034-.65-1.595-.395-2.824,1.28-10.524,5.237-13.666,7.208-.673.422-1.433,1.617-1.061,2.319,2.893,5.464,13.004,21.703,15.568,25.012,3.492,4.507,6.37,6.642,12.316,6.144,4.435-.371,9.042-2.388,12.834-5.023-.007,3.726-.014,8.117-.014,8.117-1.286,3.858.214,23.576,2.143,29.148,8.468.294,26.084-1.607,36.906-2.088,3.127-.139,12.074.404,14.156-2.894,2.191-3.47-3.642-9.854-4.272-13.291-.804-4.389-.939-9.127-.638-13.88-2.776-1.283,11.165,6.447,12.474,3.815,1.15-2.313,1.869-5.79,2.605-7.88,1.728-4.913,3.263-9.871,4.975-14.766,1.606-4.594,2.04-8.399-.205-12.89-4.044-8.088-9.247-14.89-15.005-21.489-3.327-7.023-9.385-11.791-10.591-19.827-.119-.795-.792-1.381-1.596-1.351-3.715.136-13.172,3.766-16.812,5.009-4.06,1.386-11.493,3.515-12.462,4.585-.576,1.493-.733,5.776-.242,10.147-7.397,4.515-12.655,17.653-15.775,22.876"/><path class="k" d="M315.794,257.159c-8.946.657-19.087,1.531-25.553,1.517.754,2.754,1.615,5.435,2.564,8.06l-.273.697c-5.405,13.809-15.675,37.433-19.542,49.638-2.203,6.952-14.883,44.299-15.953,48.233-.629,2.313-3.953,11.344-3.496,12.455,1.838,2.979,12.48,7.839,14.352,8.533,2.888,1.071,2.965,1.603,4.96-.866,2.515-3.112,10.174-24.029,11.534-27.65,3.02-8.044,8.806-24.892,10.017-28.137,1.259-2.724,8.625-14.265,11.34-18.454,1.926-2.972,4.867-6.786,5.165-6.999.611,1.199,1.219,2.4,1.818,3.608,8.74,17.605,21.029,30.675,32.172,46.309,4.657,6.534,13.128,15.283,17.877,21.64,2.662,3.175,7.79.389,10.778-1.202,1.606-.855,9.492-6.539,8.275-8.459-.522-1.388-5.73-11.095-6.633-12.418-2.383-3.496-15.074-21.869-18.948-28.729-3.652-6.466-8.992-14.766-11.728-21.728-2.527-6.431-10.802-29.747-11.58-34.012,2.615-1.765,4.314-10.769,4.85-14.092-3.397,1.685-9.864,1.341-12.425,1.455-2.823.126-6.108.348-9.572.602Z"/><path class="k" d="M335.876,227.269c-.484-.249-.884-.465-1.166-.624,0,0-.038-.021-.104-.056-.293,4.721-.155,9.424.644,13.784.187,1.022.834,2.303,1.593,3.692.506-.17.869-.293.869-.293.786-.187,1.485-.459,1.832-.832,1.24-1.335,2.592-3.973,3.024-5.254.453-1.344,1.956-5.595,2.685-6.857-2.548-.274-6.991-2.329-9.378-3.558Z"/><path class="j" d="M335.863,254.57c-.402,2.479-.901,4.949-1.573,7.37-.19.685-.395,1.365-.623,2.038-.109.321-.223.641-.344.958-.058.153-.119.305-.18.457-.058.145.14-.295-.047.103-.243.515-.49,1.025-.802,1.503-.068.104-.149.203-.214.308-.098.161.33-.338.02-.042-.076.072-.157.153-.225.233-.29.34.335-.226.057-.031-.882.621-1.296,1.748-.718,2.736.51.872,1.849,1.343,2.736.718,2.337-1.647,3.289-4.778,4.049-7.398.751-2.585,1.289-5.234,1.72-7.89.173-1.065-.276-2.152-1.397-2.46-.954-.262-2.286.325-2.46,1.397h0Z"/><path class="j" d="M330.232,266.971c.417,2.213,1.19,4.385,1.868,6.526,1.126,3.554,2.31,7.09,3.511,10.619,2.192,6.443,4.375,12.907,6.838,19.253,1.941,5.002,4.57,9.695,7.263,14.323,2.208,3.794,4.358,7.633,6.671,11.364,4.232,6.824,8.779,13.458,13.305,20.089,1.349,1.977,2.804,3.913,4.052,5.957,1.727,2.828,3.242,5.807,4.767,8.746.323.623.645,1.247.957,1.876.112.225.22.452.331.678.197.4.243.536.105.211.435,1.025.074.305.074.058,0-.134-.101-.616,0-.293.055.175-.083.141.036-.047-.096.15-.171.315-.266.467-.286.454-.795.98-1.329,1.503-2.284,2.235-4.902,4.09-7.766,5.496-1.491.732-3.905,1.971-5.598,1.228-.837-.367-1.333-1.327-1.873-2.016-.781-.997-1.583-1.976-2.394-2.948-3.453-4.134-7.073-8.126-10.505-12.278-3.512-4.248-6.616-8.817-9.962-13.195-3.55-4.644-7.176-9.23-10.679-13.91s-6.904-9.49-9.969-14.493c-3.195-5.215-5.824-10.716-8.657-16.128-5.532-10.569-11.446-21.002-15.669-32.19-1.068-2.83-2.024-5.699-2.862-8.605-.712-2.469-4.573-1.419-3.857,1.063,3.479,12.059,9.149,23.27,15.004,34.318,2.918,5.506,5.71,11.077,8.614,16.589,2.842,5.393,6.115,10.546,9.622,15.53,6.93,9.847,14.595,19.161,21.694,28.886,3.216,4.404,6.863,8.483,10.43,12.6,1.777,2.051,3.553,4.105,5.263,6.213,1.513,1.864,2.768,4.052,5.307,4.573,3.868.795,8.256-1.497,11.373-3.633,1.543-1.057,3.04-2.21,4.437-3.456,1.192-1.062,2.478-2.275,3.164-3.742.367-.786.556-1.641.299-2.498-.395-1.318.254.553-.353-.823-.094-.213-.193-.424-.294-.634-.697-1.452-1.456-2.876-2.21-4.299-1.36-2.565-2.651-5.244-4.291-7.647-9.286-13.609-18.484-27.205-26.383-41.687-3.686-6.758-6.119-13.959-8.644-21.205-2.423-6.953-4.893-13.922-6.929-21.001-.237-.825-.48-1.655-.639-2.5-.476-2.527-4.331-1.457-3.857,1.063h0Z"/><path class="j" d="M290.603,266.901c-6.841,17.458-14.575,34.558-20.434,52.385-4.546,13.831-9.302,27.594-13.795,41.443-.555,1.71-1.056,3.435-1.6,5.148-1.105,3.483-2.626,6.999-3.173,10.627-.284,1.884.623,3.079,2.038,4.239,1.663,1.363,3.516,2.475,5.396,3.509,3.169,1.742,6.463,3.314,9.859,4.565,3.651,1.345,5.811-2.191,7.203-5.022,1.725-3.508,3.173-7.162,4.615-10.793,2.59-6.517,5.055-13.09,7.432-19.687,1.654-4.59,3.269-9.194,4.883-13.799.692-1.975,1.384-3.95,2.08-5.923.237-.672.474-1.344.714-2.015.096-.267.191-.535.288-.802.036-.1.077-.2.11-.301.173-.529-.168.298.012-.039,1.78-3.315,3.789-6.503,5.788-9.689,2.252-3.59,4.466-7.23,6.905-10.697.742-1.055,1.502-2.1,2.291-3.12.202-.261.406-.522.616-.777.225-.272.801-.67.103-.25l-2.424-.313.007.009-.514-1.946-.011.034c-.816,2.448,3.046,3.497,3.857,1.063.247-.741-.062-1.42-.51-1.99-.533-.678-1.731-.73-2.424-.313-.553.333-.941.904-1.332,1.4-.766.972-1.511,1.962-2.24,2.963-1.274,1.751-2.458,3.557-3.628,5.378-2.349,3.659-4.68,7.331-6.943,11.044-1.548,2.54-2.996,4.991-3.993,7.795-1.356,3.814-2.683,7.638-4.027,11.457-2.469,7.019-4.993,14.014-7.623,20.974-1.428,3.78-2.882,7.552-4.41,11.294-1.21,2.963-2.383,6.045-4.023,8.804-.107.18-.232.351-.334.532-.031.055-.252.359-.024.047.344-.47-.39.461-.382.451-.133.152-.647.754-.7.7.001.001.529-.216.548-.064-.002-.017-.53-.15-.612-.178-.773-.262-1.533-.584-2.29-.891.508.206-.317-.138-.439-.192-.394-.174-.785-.351-1.175-.532-3.436-1.589-7.376-3.368-10.166-5.806-.253-.221-.5-.588-.778-.762-.292-.183.202.663.152.556-.035-.073.086-.416-.002-.124-.103.341.036-.188.041-.212.09-.406.177-.811.281-1.214.51-1.973,1.162-3.911,1.8-5.846.682-2.067,1.308-4.146,1.966-6.22,4.288-13.523,8.959-26.927,13.429-40.391,2.171-6.541,4.364-13.047,6.875-19.471,3.913-10.012,8.098-19.915,12.136-29.877.822-2.029,1.638-4.062,2.437-6.101.394-1.006-.433-2.195-1.397-2.46-1.134-.312-2.065.387-2.46,1.397h0Z"/><path class="j" d="M299.676,171.129c-.276-2.779-.701-6.197.248-8.9l-.514.883c.203-.201-.363.201-.023.018.18-.097.355-.2.538-.291.43-.214.702-.317,1.186-.502,1.356-.519,2.737-.974,4.117-1.423,2.453-.8,4.917-1.564,7.348-2.428,2.631-.935,5.259-1.883,7.921-2.729,1.316-.418,2.64-.816,3.98-1.15.568-.141,1.139-.272,1.715-.376.137-.025.565-.093.539-.09.077-.009.559.066.418-.092-.296-.331.044,1.293.095,1.509.186.779.422,1.544.702,2.294.526,1.409,1.169,2.773,1.915,4.079,1.458,2.553,3.257,4.887,4.905,7.317,1.683,2.482,3.219,5.079,4.072,7.972,1.087,3.691,1.17,7.661.852,11.471-.656,7.865-3.348,15.401-4.983,23.083-1.606,7.548-2.621,15.372-2.12,23.097.206,3.185.51,6.291,1.976,9.16,1.167,2.283,2.873,4.548,3.377,7.106.164.831.097,1.346-.356,1.741-.512.447-1.506.801-2.403,1.02-2.396.584-4.913.597-7.366.621-11.986.118-23.904,1.93-35.892,2.142-1.154.02-2.309.02-3.463-.016l1.929,1.468c-1.565-4.626-1.846-9.855-2.206-14.685-.207-2.775-.349-5.56-.345-8.344.002-1.082.022-2.165.106-3.244.019-.241.043-.482.067-.723.045-.443-.066.339.013-.104.059-.333.12-.661.222-.984.778-2.46-3.082-3.513-3.857-1.063-.569,1.798-.536,3.878-.549,5.744-.021,2.908.128,5.82.344,8.719.229,3.07.553,6.133.99,9.181.315,2.199.645,4.456,1.359,6.568.292.864,1.008,1.439,1.929,1.468,13.018.416,25.974-2.012,38.978-2.123,4.455-.038,13.138.312,14.434-5.404.673-2.966-1.084-6.037-2.457-8.536-.654-1.191-1.443-2.455-1.922-3.674-.603-1.537-.687-3.33-.826-4.959-.724-8.499.474-17.102,2.4-25.373,1.994-8.561,4.902-17.079,4.768-25.973-.062-4.127-.758-8.154-2.463-11.923-1.354-2.993-3.285-5.656-5.164-8.332-1.799-2.563-3.628-5.207-4.632-8.199-.536-1.596-.501-3.734-1.721-4.985-1.271-1.304-2.986-1.097-4.605-.815-5.649.985-11.006,3.419-16.428,5.202-3.055,1.005-6.164,1.889-9.155,3.075-1.01.4-2.219.801-3.015,1.586-1.035,1.021-1.05,3.085-1.14,4.428-.144,2.161-.05,4.334.164,6.488.107,1.075.843,2,2,2,.999,0,2.107-.919,2-2h0Z"/><path class="j" d="M297.679,251.428c5.95-.191,11.981-.377,17.903-1.013,5.041-.542,10.05-1.353,15.087-1.927,1.073-.122,2-.832,2-2,0-.986-.92-2.123-2-2-5.038.574-10.046,1.385-15.087,1.927-5.921.637-11.953.823-17.903,1.013-2.568.082-2.579,4.083,0,4h0Z"/><path class="j" d="M327.546,159.385c-.884.43-1.771.853-2.671,1.249-.085.038-.171.075-.257.112-.063.027-.435.179-.136.059.275-.11-.011.004-.066.026-.1.041-.199.082-.299.122-.349.14-.7.274-1.054.403-1.631.593-3.305,1.063-4.971,1.544-1.004.29-1.732,1.423-1.397,2.46.33,1.021,1.384,1.708,2.46,1.397,1.706-.493,3.42-.974,5.088-1.587,1.819-.668,3.581-1.485,5.322-2.331.943-.459,1.272-1.876.718-2.736-.624-.967-1.728-1.208-2.736-.718h0Z"/><path class="j" d="M337.315,173.867c3.692,4.197,7.234,8.525,10.335,13.183,1.538,2.31,2.969,4.69,4.267,7.143,1.355,2.56,2.306,5.054,2.041,7.997-.254,2.814-1.43,5.507-2.322,8.16-1.008,3-1.979,6.012-2.997,9.009-.851,2.506-1.572,5.035-2.375,7.555-.18.564-.365,1.13-.588,1.679-.202.499-.498.913.102.316-.054.054.269-.044.07-.051-.428-.014-.42-.005-.609-.038-3.311-.587-6.609-2.267-9.519-3.901-2.247-1.262-4.266,2.192-2.019,3.454,3.043,1.708,6.413,3.347,9.816,4.164,1.582.38,3.593.655,4.858-.63.798-.81,1.132-2.119,1.495-3.166.475-1.372.841-2.777,1.247-4.17.929-3.186,2.11-6.311,3.15-9.462s2.31-6.286,3.119-9.503c.763-3.039.882-6.235-.111-9.238-.978-2.959-2.685-5.752-4.3-8.402-3.692-6.058-8.152-11.607-12.831-16.925-1.704-1.936-4.524.902-2.828,2.828h0Z"/><path class="j" d="M343.525,229.813c-1.175,2.093-1.91,4.519-2.693,6.78-.065.187-.127.374-.192.56-.042.12-.088.238-.131.358-.137.382.172-.362-.029.075-.305.664-.628,1.316-.99,1.951-.192.336-.393.668-.606.992-.086.131-.174.261-.264.389-.037.052-.359.477-.218.302.146-.18-.185.204-.218.246-.049.056-.101.109-.157.158.18-.137.205-.166.077-.086-.076.045-.154.086-.235.122.155-.066.164-.073.026-.023-.236.079-.473.145-.714.205-1.015.254-1.724,1.449-1.397,2.46.34,1.051,1.372,1.669,2.46,1.397.986-.246,1.979-.621,2.715-1.347.596-.588,1.088-1.342,1.535-2.049.822-1.302,1.528-2.711,2.031-4.168.382-1.106.772-2.209,1.184-3.305.247-.658.51-1.308.769-1.961-.196.495.108-.245.178-.397.101-.218.206-.433.324-.643.512-.912.249-2.226-.718-2.736-.945-.499-2.19-.257-2.736.718h0Z"/><path class="k" d="M252.397,174.731c-.008.025-.017.049-.025.073-1.501-1.914-3.999-5.638-6.851-5.227-3.088.445-7.91,4.838-8.835,6.687-.766,1.532-1.727,2.273-1.438,3.9.567,3.197,1.761,5.184,4.181,7.368,2.36,2.13,5.075,4.906,8.624,4.404l.375-.053c3.298-1.883,8.392-4.502,11.109-5.791-.127-2.683-.281-6.014-.281-6.32,0-3.446.069-4.293-.948-7.654-.475-1.569-1.485-3.392-3.365-3.19-2.768.298-1.854,3.719-2.545,5.802Z"/><path class="j" d="M261.773,184.809c-.265-2.681-.355-5.377-.644-8.056-.276-2.565-.534-5.498-2.068-7.672-1.568-2.222-4.913-3.061-6.942-.896-1.604,1.712-1.033,4.072-1.677,6.087l3.343-.883c-1.897-2.44-4.032-5.505-7.392-5.814-3.061-.281-6.114,2.142-8.264,4.036-1.045.922-2.06,1.942-2.841,3.102-.857,1.272-1.885,2.82-2.046,4.369-.357,3.417,1.868,7.057,4.214,9.341,2.845,2.77,6.314,5.981,10.596,5.511,1.074-.118,2-.835,2-2,0-.99-.919-2.119-2-2-1.789.196-3.243-.488-4.64-1.56-1.363-1.047-2.729-2.28-3.88-3.556-1.062-1.178-1.742-2.551-2.125-4.086-.177-.71-.308-1.183.05-1.836.367-.67.761-1.357,1.174-2,1.22-1.901,3.914-4.114,6.192-5.053,2.693-1.11,4.736,2.576,6.134,4.373.984,1.266,2.934.396,3.343-.883.441-1.381.248-3.071.668-4.295.075-.218.158-.126-.04-.072.183-.05.298-.081.473-.015.567.216.864,1.32,1.016,1.835,1.135,3.858.963,8.05,1.355,12.021.106,1.075.843,2,2,2,.999,0,2.107-.919,2-2h0Z"/><path class="j" d="M299.013,169.015c-5.209,2.127-8.735,6.878-11.6,11.528-2.626,4.263-4.613,8.868-7.162,13.17-1.315,2.22,2.141,4.234,3.454,2.019,2.388-4.03,4.268-8.34,6.674-12.365,2.319-3.88,5.366-8.725,9.697-10.494.999-.408,1.707-1.33,1.397-2.46-.26-.947-1.454-1.808-2.46-1.397h0Z"/><path class="j" d="M280.252,193.712c-1.541,2.124-2.899,4.975-5.119,6.486-.363.247-.603.344-.935.356.336-.011-.306-.133.045.016-.191-.081-.384-.207-.551-.33-.7-.516-1.498-1.55-2.074-2.373-1.444-2.063-2.614-4.292-3.862-6.474-.612-1.071-1.258-2.124-1.922-3.163-.85-1.331-1.797-3.215-3.149-4.092-2.254-1.464-5.313.771-7.358,1.806-2.495,1.262-4.976,2.559-7.412,3.933-2.112,1.19-5.221,2.951-4.232,5.901.594,1.772,1.879,3.491,2.822,5.091,2.583,4.384,5.261,8.714,7.997,13.003,2.18,3.417,4.318,6.995,7.089,9.978,1.803,1.941,4.008,3.529,6.604,4.189,2.932.746,6.121.474,9.03-.242,5.716-1.407,10.609-4.686,14.889-8.617,3.53-3.242,7.028-6.521,10.444-9.883,3.329-3.276,6.991-6.632,9.542-10.582,1.401-2.169-2.06-4.176-3.454-2.019-.818,1.267-1.733,2.284-2.91,3.583-1.522,1.68-3.107,3.303-4.711,4.905-3.138,3.135-6.36,6.187-9.612,9.204-3.177,2.947-6.297,5.769-10.235,7.713-4.459,2.201-10.87,3.899-15.159.449-2.889-2.324-4.831-5.688-6.834-8.784-2.66-4.111-5.245-8.273-7.768-12.47-1.039-1.728-2.068-3.462-3.062-5.216-.201-.356-.401-.713-.598-1.071-.074-.134-.152-.369-.26-.477-.312-.315-.069.332.062.315.073-.01.585-.476.712-.552.549-.33,1.106-.649,1.664-.964,2.342-1.32,4.725-2.568,7.121-3.785.966-.491,1.936-.976,2.911-1.447.101-.049,1.221-.519,1.214-.574.1.757-1.13-.653-.329.455.226.312.445.629.662.948,1.559,2.297,2.896,4.713,4.27,7.121,1.337,2.342,2.762,4.85,4.74,6.715,5.664,5.34,10.265-3.01,13.183-7.032.635-.875.15-2.229-.718-2.736-1.01-.591-2.1-.159-2.736.718h0Z"/><path class="j" d="M315.302,190.486c2.664-6.497.835-15.816-5.331-19.703-2.184-1.377-4.194,2.083-2.019,3.454.652.411.893.608,1.475,1.223.495.522.742.855,1.165,1.565.767,1.289,1.198,2.508,1.529,4.083.571,2.716.43,5.617-.676,8.315-.41,1,.444,2.199,1.397,2.46,1.147.315,2.049-.393,2.46-1.397h0Z"/><path class="j" d="M379.702,370.682c.641,1.262,1.437,2.457,2.206,3.642,1.046,1.613,2.132,3.201,3.323,4.711.46.584.93,1.121,1.55,1.543.867.59,2.255.193,2.736-.718.536-1.014.208-2.106-.718-2.736-.207-.141.471.426.19.14-.08-.082-.164-.159-.242-.243-.206-.22-.399-.453-.587-.688-.051-.064-.1-.129-.152-.192-.075-.092.319.42.102.132-.12-.159-.24-.319-.359-.48-.248-.338-.492-.679-.732-1.023-1.005-1.437-1.966-2.908-2.88-4.404-.341-.559-.686-1.12-.983-1.704-.475-.935-1.866-1.279-2.736-.718-.955.615-1.225,1.737-.718,2.736h0Z"/><path class="j" d="M370.575,383.03c.691,1.227,1.263,2.517,1.957,3.742.246.434.717.787,1.195.919s1.116.072,1.541-.202c.427-.275.803-.685.919-1.195.121-.529.07-1.061-.202-1.541-.694-1.224-1.266-2.515-1.957-3.742-.244-.434-.718-.788-1.195-.919s-1.116-.072-1.541.202c-.427.275-.803.685-.919,1.195-.121.53-.069,1.06.202,1.541h0Z"/><path class="j" d="M389.795,380.629c2.937.503,4.964,3.81,6.326,6.207.593,1.045,1.284,2.331,1.316,3.451-.013-.458-.026.08-.08.265-.025.086-.057.171-.089.254-.112.294.12-.252-.029.048-.245.494-.544.966-.873,1.408-1.694,2.283-4.056,4.22-6.286,5.99-2.397,1.902-4.934,3.652-7.552,5.234-2.438,1.472-4.874,2.96-7.344,4.378-2.522,1.449-5.418,3.286-8.395,3.513-1.93.147-5.876-.206-6.384-2.562-.202-.935.25-1.474.832-2.483.702-1.218,1.483-2.393,2.295-3.54.182-.257.367-.512.554-.766.306-.417-.048.057.245-.315.457-.58.904-1.161,1.314-1.775,1.007-1.51,1.907-3.091,2.826-4.655.914-1.555,1.819-3.126,2.857-4.603.519-.738,1.837-3.038,2.878-2.969l-1.009-.273c.569.356.876,2.07,1.049,2.803.17.719.22,1.516.771,2.067.476.476,1.174.69,1.831.72,2.203.103,4.422-1.681,6.069-2.933,1.927-1.465,3.821-3.033,5.583-4.692,1.804-1.697,4.009-4.019,3.827-6.7-.173-2.555-4.175-2.574-4,0,.077,1.139-1.069,2.286-1.894,3.128-1.174,1.2-2.477,2.263-3.757,3.346-1.029.871-2.066,1.723-3.181,2.483-.574.391-1.165.779-1.79,1.086-.143.07-.544.158-.654.262-.255.056-.268.064-.037.024.151.016.293.061.427.134l.919,1.195c-.397-1.916-.832-4.102-2.185-5.601-1.784-1.977-4.344-.799-5.884.836-2.729,2.897-4.584,6.543-6.609,9.93-1.654,2.765-3.558,4.998-5.295,7.784-.836,1.342-1.772,2.805-1.961,4.404-.22,1.864.446,3.692,1.794,5.001,2.794,2.711,7.495,3.233,11.118,2.251,3.965-1.075,7.627-3.459,11.104-5.573,6.258-3.806,12.739-7.621,17.729-13.089,1.195-1.31,2.344-2.748,2.953-4.433.666-1.843.051-3.702-.714-5.412-.935-2.091-2.265-4.014-3.717-5.777-1.513-1.837-3.424-3.496-5.836-3.909-1.063-.182-2.154.283-2.46,1.397-.264.962.326,2.277,1.397,2.46h0Z"/><path class="j" d="M390.675,388.531c-.117.379.188-.294-.027.068-.11.185-.221.368-.348.542-.084.116-.548.635-.825.921-.837.865-1.747,1.66-2.674,2.427-2.127,1.762-4.389,3.369-6.704,4.873-2.556,1.66-5.16,3.26-7.746,4.873-2.254,1.406-4.673,3.107-7.309,3.685-2.513.551-1.45,4.408,1.063,3.857,2.968-.651,5.725-2.504,8.265-4.089,2.762-1.723,5.554-3.42,8.269-5.216,2.593-1.715,5.122-3.56,7.491-5.575,1.672-1.423,3.73-3.123,4.402-5.303.759-2.466-3.101-3.52-3.857-1.063h0Z"/><path class="n" d="M265.176,399.374c-2.306,1.173-7.107-.577-9.83-1.416-2.244-.691-7.502-2.507-7.468-4.091,1.236-1.192,3.309-3.219,3.191-4.651-.649-1.491-3.357-1.542-4.787-1.699-3.421-.375-10.642.354-13.577-.045-1.358-.185-7.198-.455-8.666.169-1.457.619-2.208,1.785-2.429,3.179,2.627,3.479,12.583,7.468,19.563,10.96,6.423,3.213,19.161,8.244,22.593,7.169,1.035-2.002,1.831-4.235,2.109-5.634.342-1.722.318-2.923-.265-4.22-.132.108-.277.2-.433.28Z"/><path class="j" d="M266.757,385.739c-1.001,1.682-1.787,3.521-2.573,5.309-.509,1.158-1.008,2.324-1.445,3.511-.292.793-.582,1.618-.613,2.472-.037,1.047.947,2.047,2,2,1.116-.05,1.96-.879,2-2,.008-.217.123-.304-.051.32.019-.068.026-.142.041-.211.033-.152.075-.302.119-.451.115-.391.252-.776.394-1.159.189-.508.391-1.011.598-1.512.045-.108.092-.215.135-.324-.239.592-.021.052.032-.071.112-.26.226-.52.34-.779.758-1.713,1.515-3.473,2.475-5.086.535-.9.232-2.235-.718-2.736-.965-.51-2.165-.243-2.736.718h0Z"/><path class="j" d="M254.54,379.604c-.589,1.093-1.281,2.128-1.866,3.222-.251.468-.345,1.021-.202,1.541.128.464.486.967.919,1.195.464.245,1.026.368,1.541.202.485-.157.948-.457,1.195-.919.585-1.094,1.278-2.129,1.866-3.222.252-.467.344-1.023.202-1.541-.128-.464-.486-.967-.919-1.195-.464-.245-1.026-.368-1.541-.202-.486.157-.946.457-1.195.919h0Z"/><path class="j" d="M263.68,399.626c1.171,2.835-.585,6.433-1.965,8.927-.354.64-.731,1.29-1.19,1.862-.17.212-.357.428-.56.609-.085.076-.462.33-.333.27.194-.091-.291.076-.405.106-.117.03-.247.052-.366.068.045-.006.281-.035.037-.017-.566.042-1.134.025-1.699-.021-2.839-.231-5.77-1.222-8.474-2.182-2.863-1.016-5.673-2.196-8.384-3.567-2.675-1.353-5.38-2.663-8.02-4.083-2.525-1.359-5.478-2.826-7.149-5.255-1.053-1.531-2.742-5.09-.874-6.568.699-.553,1.646-.479,2.77-.509,1.427-.038,2.858,0,4.283.09,3.087.195,6.104.204,9.201.109,1.742-.053,3.5-.123,5.24.009.843.064,3.147-.003,3.549.753l-.273-1.009c0,.793-1.325,1.97-1.931,2.578-1.056,1.059-1.67,2.147-.835,3.578,1.15,1.972,3.96,2.898,5.961,3.648,2.154.807,4.387,1.517,6.614,2.089,2.379.612,5.58,1.294,7.741-.288.87-.637,1.303-1.736.718-2.736-.502-.859-1.86-1.359-2.736-.718-.966.707-2.472.377-3.623.131-1.642-.351-3.237-.884-4.836-1.387-1.28-.402-2.564-.812-3.801-1.335-.641-.271-1.277-.575-1.875-.932-.134-.08-.628-.425-.592-.396-.17-.186-.194-.194-.072-.025-.176-.323-.15-.175.079.443l-.586,1.414c1.447-1.399,3.168-3.01,3.668-5.036.605-2.454-1.654-3.944-3.759-4.37-3.813-.771-7.787-.422-11.641-.317-3.169.087-6.285-.305-9.449-.306-1.49,0-3.183-.047-4.604.46-1.832.654-3.224,2.206-3.722,4.081-.999,3.757,1.01,8.114,3.693,10.698,2.945,2.836,6.912,4.662,10.532,6.462,6.579,3.271,13.254,6.73,20.545,8.106,1.796.339,3.648.581,5.463.249,1.886-.345,3.135-1.682,4.197-3.193,1.313-1.868,2.264-4.047,3.003-6.199.807-2.349,1.298-4.985.319-7.354-.412-.998-1.327-1.708-2.46-1.397-.943.259-1.812,1.456-1.397,2.46h0Z"/><path class="j" d="M257.224,404.497c-.232.063-.351.042-.051.025-.182.01-.363.004-.545,0-.424-.009-.616-.055-1.173-.168-1.171-.239-2.321-.581-3.456-.95-2.56-.833-5.071-1.835-7.518-2.957-2.651-1.217-5.274-2.509-7.905-3.771-2.396-1.15-5.205-2.283-7.105-4.202-1.814-1.832-4.642.996-2.828,2.828,2.16,2.182,5.187,3.518,7.914,4.827,2.817,1.352,5.623,2.75,8.473,4.029,2.729,1.225,5.517,2.354,8.371,3.252,2.089.657,4.686,1.539,6.885.943,2.482-.673,1.429-4.532-1.063-3.857h0Z"/></g><g id="g"><path class="k" d="M105.233,135.328c-.232,1.85-.264,3.874-.054,6.089.068,3.755.174,8.966-3.168,10.987-.661.4-1.237.953-1.514,1.674-.732,1.907.914,2.667,1.963,3.695.693.678,1.129,1.486,1.42,2.372.205,2.023,1.005,6.552,2.413,8.93,1.196,2.019,2.642,2.987,4.116,3.447,2.889.902,6.791,1.089,9.274.289.597-.192,1.242.096,1.507.665.209.45,2.048,3.761,2.276,6.62l.033.416c5.682-1.968,8.469-2.821,15.978-5.109,1.533-.467,3.942-1.394,6.018-2.05-.064-.375-.131-.765-.199-1.162-.107-.623.016-1.125-.009-1.771-.043-1.116.242-2.2.712-3.246-4.45-2.904-7.94-7.795-10.339-11.247,1.382-1.841,2.206-4.105,2.233-6.408.018-1.55-.43-3.292-1.78-4.055-.893-.504-2.031-.459-2.965-.035-.618.28-1.153.71-1.603,1.221-3.71-.726-11.25-5.873-13.481-7.429-3.463-2.417-8.136-6.904-10.829-10.146,0,0-.198-.268-.495-.669-1.064,2.582-1.602,4.73-1.622,8.222"/><path class="p" d="M167.475,154.174c.385-3.392-2.665-8.92-9.776-7.735l-.394.058c.452-1.983.744-4.116.769-6.409.013-5.478-1.828-10.9-4.432-14.752-7.79-11.524-22.416-11.567-24.501-11.546-.43.004-.938.011-1.514.038-1.959.092-4.702.415-7.799,1.664-8.398,3.386-12.073,10.578-12.679,11.955-.15.341-.291.672-.424.995,2.573,3.265,7.645,8.199,11.34,10.777,2.231,1.557,9.77,6.703,13.48,7.429.45-.511.986-.94,1.603-1.221.934-.424,2.071-.47,2.965.035,1.35.762,1.798,2.504,1.78,4.055-.027,2.304-.852,4.567-2.233,6.408,2.399,3.452,5.889,8.343,10.343,11.249.933-2.085,2.603-4.015,3.869-5.742.103-.141.221-.301.337-.458l.083.724c.889,2.667,2.671,4.88,3.842,5.946,1.819,1.679,3.654,3.172,6.128,3.757,1.948.468,7.566,1.107,9.318-1.627-4.18-2.94-2.68-10.441-2.104-15.6Z"/><path class="j" d="M134.765,158.126c2.737,3.861,5.718,7.58,9.601,10.35.855.609,2.263.178,2.736-.718.545-1.031.195-2.086-.718-2.736-.219-.156-.435-.315-.649-.477.376.285-.056-.049-.104-.087-.084-.068-.168-.136-.251-.206-.438-.364-.863-.742-1.277-1.133-.806-.76-1.57-1.565-2.301-2.397-.35-.399-.693-.805-1.029-1.216-.165-.202-.329-.405-.491-.61-.08-.101-.16-.203-.24-.304-.138-.177-.192-.21-.016-.02-.68-.734-1.232-1.65-1.81-2.465-.604-.851-1.774-1.338-2.736-.718-.845.545-1.365,1.824-.718,2.736h0Z"/><path class="j" d="M132.629,148.482c.198-.29.003-.051.217-.3.144-.168.301-.32.456-.479.125-.128.557-.418.686-.467.107-.041.546-.145.486-.138-.244.03.595.034.343,0-.271-.037.569.161.328.102-.099-.027-.06.002.117.087-.136-.115-.152-.126-.048-.033.068.059.131.123.191.19-.103-.15-.115-.167-.036-.051.121.174.228.362.313.556-.141-.319.028.136.053.224.052.183.09.369.126.556-.068-.348.011.12.018.226.012.188.016.376.014.564-.002.202-.011.405-.025.607-.005.074-.072.641-.018.272-.248,1.706-.697,2.776-1.667,4.175-.239.345-.22.322-.565.706-.27.301-.557.587-.858.857-.427.382-.357.324-.792.614-.366.244-.746.459-1.138.657-.963.488-1.239,1.844-.718,2.736.573.98,1.769,1.207,2.736.718,4.173-2.112,7.005-6.661,7.045-11.341.022-2.491-.977-5.118-3.443-6.083-2.901-1.135-5.679.688-7.274,3.028-.609.893-.169,2.218.718,2.736.988.578,2.126.177,2.736-.718h0Z"/><path class="j" d="M104.798,164.724c.573.046,1.152.041,1.724-.027.621-.073,1.242-.156,1.837-.355.841-.28,1.65-.676,2.296-1.296.365-.351.586-.912.586-1.414,0-.491-.218-1.076-.586-1.414-.812-.745-2.022-.775-2.828,0-.056.054-.115.104-.177.153l.405-.313c-.255.196-.539.349-.833.477l.478-.202c-.502.212-1.031.342-1.57.418l.532-.071c-.617.081-1.242.095-1.863.045-.486-.039-1.08.251-1.414.586-.347.347-.608.916-.586,1.414.023.517.193,1.054.586,1.414.409.375.86.541,1.414.586h0Z"/><path class="j" d="M108.851,146.871c-.346,1.141-.155,3.774,1.899,4.012,2.718.002,2.896-3.178,1.996-4.68-.737-1.23-2.934-1.754-3.895.668Z"/><path class="j" d="M103.233,135.328c-.487,4.171.619,8.544-.503,12.642-.198.724-.474,1.454-.957,2.04-.655.795-1.654,1.186-2.322,1.989-1.484,1.785-1.464,4.182.124,5.876.575.613,1.335,1.048,1.834,1.73.599.819.589,1.619.745,2.609.303,1.922.723,3.86,1.413,5.683.814,2.147,2.029,4.071,3.931,5.412,1.713,1.208,3.876,1.601,5.914,1.851,1.292.159,2.605.213,3.903.097.651-.058,1.306-.14,1.947-.272.138-.028.503-.071.646-.155.724-.423-.436-.096-.411-.271-.06.426.792,1.613.96,2.018.462,1.11.883,2.318,1.007,3.518.111,1.074.84,2,2,2,.996,0,2.111-.919,2-2-.238-2.308-1.001-4.433-1.997-6.517-.79-1.654-1.926-3.14-4.017-2.753-3.454.639-8.55,1.181-10.972-2.05-1.217-1.623-1.697-3.745-2.11-5.692-.394-1.856-.388-3.723-1.424-5.379-.579-.925-1.345-1.556-2.139-2.272-.205-.185-.452-.362-.56-.626.042.104.008.312.069.149.117-.311.214-.457.485-.685.663-.556,1.398-.947,1.964-1.629.679-.819,1.163-1.718,1.534-2.713,1.738-4.663.373-9.79.935-14.599.125-1.075-1.009-2-2-2-1.185,0-1.874.922-2,2h0Z"/><path class="j" d="M107.118,136.628c.087-6.899,3.645-13.202,9.352-17.078,3.802-2.582,8.137-3.731,12.7-3.76,1.845-.012,3.842.16,5.36.412,7.503,1.247,14.579,4.973,18.395,11.788,4.86,8.679,3.598,18.976-1.308,27.31-1.998,3.394-4.757,6.281-6.728,9.674-1.527,2.629-1.915,5.469-1.403,8.448.443,2.581.794,5.273,1.767,7.721.399,1.003,1.337,1.706,2.46,1.397.954-.262,1.798-1.451,1.397-2.46-.889-2.237-1.241-4.679-1.65-7.038-.482-2.783.039-4.891,1.619-7.211,2.043-3,4.398-5.731,6.212-8.891,5.305-9.241,6.474-20.413,1.556-30.088-3.99-7.847-11.85-12.702-20.325-14.339-6.8-1.314-13.999-.971-20.184,2.429-7.939,4.364-13.106,12.627-13.221,21.687-.033,2.575,3.967,2.576,4,0h0Z"/><path class="j" d="M158.231,148.367c2.274-.344,4.721.2,6.167,2.102,1.197,1.574,1.178,2.927.931,4.933-.669,5.425-1.785,12.362,3.241,16.098l-.718-2.736c-.631.902-2.281,1.01-3.3,1.045-1.434.05-2.645-.045-3.962-.39-3.749-.982-7.109-4.678-8.37-8.253-.85-2.411-4.716-1.373-3.857,1.063,1.748,4.955,6.171,9.897,11.448,11.118,3.795.878,9.021.972,11.496-2.565.667-.953.09-2.136-.718-2.736-2.077-1.544-1.93-5.005-1.813-7.274.076-1.474.251-2.941.432-4.405.147-1.187.378-2.378.245-3.575-.264-2.39-1.439-4.677-3.299-6.22-2.579-2.14-5.758-2.551-8.987-2.062-1.069.162-1.659,1.507-1.397,2.46.314,1.143,1.388,1.559,2.46,1.397h0Z"/><path class="j" d="M105.821,130.489c3.528,4.212,7.663,8.025,12.2,11.126,3.823,2.613,7.966,5.54,12.462,6.837,2.478.715,3.536-3.143,1.063-3.857-2.063-.596-3.969-1.71-5.809-2.792-1.943-1.142-3.837-2.371-5.697-3.642-4.252-2.905-8.087-6.556-11.391-10.5-.694-.829-2.112-.716-2.828,0-.82.82-.696,1.998,0,2.828h0Z"/><path class="l" d="M115.477,200.266c-2.083,3.497-4.331,6.339-5.181,10.092-.45.365-.723.58-.723.58-2.016,1.591-5.001,3.506-7.352,4.496-2.876-3.132-7.535-10.178-11.787-15.796-2.182.71-10.17,5.245-11.972,6.327-2.751,1.652-2.308,1.873-1.001,4.772,1.042,2.312,7.901,15.064,10.747,19.179,2.508,3.626,5.959,8.365,10.604,9.042,2.552.372,4.771-.411,6.851-1.695,1.385-.855,5.956-4.278,7.206-5.301,0,0,.777-.636,1.979-1.619,2.027,5.422,2.004,11.106,2.004,17.122,0,4.297-2.196,13.648-4.23,19.805,4.795-.608,39.657.354,46.606.339-.51-1.904-1.136-4.773-1.084-6.651l.389-9.087c4.382-3.285,9.188-7.081,10.628-8.487,4.293-4.194,9.856-8.675,11.705-14.774,1.35-5.175-3.983-15.697-6.922-21.409-3.024-7.422-10.12-17.101-17.966-18.47l-1.566-1.969c-2.004-2.519-4.906-9.429-4.893-12.852.003-.701-.601-1.344-1.295-1.248-2.155.297-6.442,2.038-8.747,2.741-8.63,2.63-11.023,3.363-18.741,6.074-.09.032-.111.152-.117.247-.069,1.18-.663,5.614-.739,9.337,0,.031-.005.062-.012.092-.857,3.414-2.874,6.407-3.621,7.769-.252.461-.51.908-.77,1.345Z"/><path class="k" d="M192.17,373.694c1.282,1.894,2.573,3.634,3.142,4.008l2.136,1.675c-1.113,2.257-4.236,4.692-6.046,6.241-1.784,1.527-6.128,5-7.449,4.124-.347-1.682-.952-4.518-2.225-5.183-.066-.01-.133-.016-.199-.018-.971-2.237-1.939-4.471-1.939-4.471-.573-1.005-1.529-3.08-2.51-4.772,1.471-.555,2.882-1.314,3.997-1.907,1.125-.599,5.332-3.568,7.332-5.952.315.633.541,1.083.541,1.083.431.856,1.82,3.105,3.219,5.171Z"/><path class="k" d="M91.402,398.341c.629,1.275.696,2.474.417,4.207-.42,2.603-2.505,8.109-4.712,9.772-3.387,2.38-16.457-2.18-22.586-5.164-3.158-1.537-11.022-4.658-14.094-7.632-3.288-3.184-5.032-9.238-.979-11.135,1.445-.676,7.291-.616,8.655-.48,2.947.293,10.137-.695,13.57-.443,1.435.105,4.143.059,4.845,1.526.17,1.426-1.829,3.527-3.022,4.762.023,1.585,5.342,3.21,7.61,3.82,2.938.791,8.281,2.534,10.297.766"/><path class="k" d="M197.905,377.523c1.41.178,2.448.783,3.74,1.972,1.94,1.785,5.383,6.561,5.554,9.319.118,4.138-10.892,12.528-16.761,15.996-3.023,1.787-9.963,6.627-14.138,7.55-4.47.988-10.482-.895-9.83-5.322.232-1.578,3.506-6.422,4.371-7.485,1.87-2.297,5.01-8.84,7.112-11.565.879-1.139,2.333-3.424,3.944-3.201,1.284.645,1.934,3.47,2.307,5.146,1.335.855,5.624-2.687,7.383-4.242,2.28-2.015,6.68-5.511,6.317-8.168"/><path class="k" d="M89.997,394.19c.872-2.475,2.867-6.742,3.748-8.343-.154-.06-.317-.122-.49-.186-1.41-.523-7.801-3.411-11.649-6.077-.872,1.597-1.941,3.263-2.435,4.19l-5.249,9.864c1.422,1.282,5.095,2.537,6.874,3.085,2.275.701,6.001,2.038,8.51,1.774.157-1.473.27-2.702.27-2.702.005-.305.164-.878.421-1.605Z"/><path class="k" d="M88.84,197.35c.9-.635,1.734-4.652,2.039-6.061.579-2.668.127-4.963-1.169-7.484-1.028-2-2.971-5.017-5.406-5.329-2.681-.344-4.257,2.192-2.126,4.313l-1.95-.262c-3.508-2.076-18.758,6.372-11.275,10.775l-1.57,2.511c.282,2.3.935,2.931,2.79,4.348,1.417,1.082,2.874,2.17,4.318,3.218l3.46,4.414,12.593-6.37-1.705-4.073Z"/><path class="k" d="M119.252,267.777c-2.506.012-4.511.02-5.748.02-.941,4.729-3.365,14.444-6.32,24.61-3.029,9.445-12.937,34.97-14.136,38.553-4.817,14.395-9.48,29.522-14.436,42.538-.762,2.002.092,4.249,1.991,5.24,3.97,2.071,8.935,4.826,13.388,6.989,2.519,1.224,5.539.033,6.555-2.576,2.249-5.776,5.816-15.025,7.713-20.334,2.924-8.182,4.027-11.063,7.455-19.413,4.222-10.285,10.806-19.436,16.61-29.023.443-.731.898-1.438,1.362-2.131,2.91,5.686,14.711,28.738,17.139,33.82,2.366,4.952,13.09,20.46,18.784,28.744,1.624,2.362,4.862,2.947,7.215,1.31,3.218-2.238,7.101-5.054,10.037-7.248,2.366-1.768,2.969-5.052,1.385-7.544-6.225-9.792-19.698-32.218-23.643-46.152-2.073-7.323-1.884-12.08-2.194-19.517.207-7.672-.319-20.549-3.577-28.057-7.563-.018-28.484.116-39.581.169Z"/><path class="j" d="M108.16,209.523c-2.12,1.652-4.48,3.114-6.947,4.183l2.424.313c-4.284-4.723-7.64-10.31-11.474-15.391-.515-.682-1.359-1.226-2.259-.919-2.114.72-4.114,1.879-6.071,2.936-2.007,1.084-4.005,2.191-5.97,3.351-2.142,1.264-4.134,2.796-3.111,5.537.672,1.8,1.614,3.532,2.505,5.232,2.423,4.628,4.931,9.23,7.647,13.693,2.886,4.743,6.59,10.464,12.186,12.161,3.67,1.113,7.398-.098,10.448-2.203,2.304-1.59,4.571-3.274,6.745-5.039.839-.681.708-2.12,0-2.828-.83-.83-1.987-.683-2.828,0-1.543,1.252-3.286,2.525-4.985,3.742-2.03,1.454-4.207,2.906-6.818,2.75-2.815-.168-5.038-2.246-6.796-4.263-1.512-1.734-2.83-3.652-4.045-5.603-2.502-4.018-4.772-8.19-7.004-12.361-.812-1.518-1.632-3.036-2.381-4.587-.315-.652-.613-1.313-.899-1.976-.433-1.003-.024.525-.298.311-.038-.029,1.223-.856,1.347-.931,1.885-1.128,3.812-2.192,5.741-3.242,1.111-.604,2.227-1.2,3.356-1.77.937-.473,1.647-.832,2.295-1.052l-2.259-.919c4.04,5.354,7.585,11.225,12.1,16.201.649.715,1.626.659,2.424.313,2.801-1.214,5.357-2.938,7.757-4.809.853-.665.698-2.131,0-2.828-.842-.842-1.974-.666-2.828,0h0Z"/><path class="j" d="M90.28,198.764c.711-.583,1.071-1.589,1.375-2.423.357-.98.609-2,.845-3.014.592-2.542.919-5.027.173-7.586-1.25-4.286-5.615-11.319-11.015-8.805-1.172.546-2.065,1.617-2.343,2.885-.362,1.652.358,3.194,1.475,4.381,1.768,1.878,4.593-.954,2.828-2.828-.161-.171-.216-.282-.348-.458-.051-.068-.05-.115-.056-.162-.003-.032-.016-.091,0-.097-.052.119-.027.083.076-.107-.11.148-.083.135.079-.04-.216.175.288-.032.037.006.335-.051.009-.065.403-.073.324-.006.589.074.867.217,1.711.875,2.869,3.088,3.639,4.779.956,2.1.937,4.106.444,6.308-.2.896-.415,1.791-.68,2.67-.126.418-.253.848-.431,1.247.152-.341-.116.177-.147.24-.067.135.289-.248-.05.03-.836.685-.711,2.118,0,2.828.827.827,1.99.687,2.828,0h0Z"/><path class="j" d="M71.051,192.101c-.095-.037-.189-.074-.284-.111.055.021.394.183.077.03-.164-.079-.329-.154-.49-.238-.289-.151-.555-.332-.832-.502s.341.32-.019-.018c-.085-.08-.172-.155-.254-.238-.066-.067-.335-.429-.12-.111.22.325-.045-.079-.09-.155-.041-.07-.089-.244-.15-.292.129.102.162.516.08.144-.021-.095-.086-.498-.037-.073s.006-.009.006-.116c0-.089.019-.182.013-.27,0,.008-.125.556-.01.143.025-.091.045-.183.072-.273.088-.286.299-.401-.024.008.12-.152.186-.379.287-.548.063-.106.131-.21.2-.312.035-.052.075-.102.109-.155.173-.269-.27.303-.107.134.387-.401.729-.83,1.144-1.208.206-.187.419-.366.634-.542.398-.326-.193.133.047-.037.142-.101.281-.206.423-.306.501-.351,1.019-.677,1.551-.979.549-.312,1.112-.599,1.688-.86.071-.032.142-.062.213-.095.266-.123-.124.1-.159.065.019.018.377-.153.423-.171.276-.107.555-.208.836-.301.52-.172,1.05-.319,1.589-.424.123-.024.248-.041.372-.066.317-.063-.559.048-.129.019.237-.016.471-.04.709-.037.09,0,.18.008.27.01.424.01-.18-.034-.171-.031.14.051.361.113.509.132.11.014-.562-.254-.206-.075.164.083.333.153.493.244.07.04.617.442.354.22.224.189.434.391.631.608.029.031.291.341.16.176s.11.159.134.194c.126.188.235.384.345.582.185.332.064.124.029.034.043.112.083.227.116.343.033.113.055.226.083.34-.064-.262-.011-.171-.015.049-.002.077-.066.404-.003.157.062-.242-.024.037-.034.069-.111.354-.012.082.022.006-.047.106-.102.21-.16.311-.044.077-.428.616-.2.333-.174.216-.366.418-.563.613-.368.365-.765.7-1.171,1.022-.09.072-.181.143-.272.213.323-.252.021-.017-.047.035-.205.156-.408.314-.62.459-.461.316-.946.594-1.447.841-.113.056-.228.108-.342.162-.325.156.069-.021-.132.06-.263.105-.529.204-.797.295-.524.178-1.058.326-1.598.445-.23.051-.461.096-.693.135-.112.019-.226.037-.339.052.493-.067-.056-.003-.125.003-.422.036-.847.049-1.271.022-.089-.006-.179-.019-.268-.022-.254-.009.438.106.096.007-.18-.052-.359-.086-.537-.149-.987-.352-2.233.397-2.46,1.397-.256,1.123.34,2.083,1.397,2.46,1.958.699,4.398.251,6.326-.323,2.371-.706,4.341-1.93,6.235-3.489,2.022-1.665,3.685-4.116,2.706-6.826-.791-2.191-2.624-4.244-4.915-4.912-2.62-.764-5.72.512-8.031,1.655-2.515,1.245-5.262,3.093-6.62,5.633-.824,1.542-1.011,3.265-.22,4.862.875,1.764,2.769,2.725,4.518,3.401.978.378,2.237-.416,2.46-1.397.261-1.145-.35-2.056-1.397-2.46Z"/><path class="j" d="M75.527,201.652c-.904-.656-1.802-1.32-2.695-1.99-.446-.335-.891-.671-1.335-1.009-.096-.073-.192-.146-.288-.219-.062-.047-.123-.094-.185-.141l.228.176c-.159-.131-.324-.255-.483-.386-.25-.208-.494-.424-.718-.66-.148-.157-.426-.616-.044-.019-.083-.13-.175-.253-.251-.388-.032-.057-.06-.115-.091-.172-.18-.339.145.39.071.185-.053-.147-.108-.293-.151-.443-.053-.182-.095-.366-.132-.551-.033-.166-.132-.901-.046-.221-.07-.551-.177-1.005-.586-1.414-.347-.347-.916-.608-1.414-.586-.517.023-1.054.193-1.414.586-.332.362-.651.902-.586,1.414.139,1.091.318,2.094.821,3.084.37.728.948,1.362,1.565,1.891.889.762,1.848,1.449,2.784,2.153.97.73,1.946,1.452,2.929,2.165.396.287,1.089.326,1.541.202.464-.128.967-.486,1.195-.919.548-1.038.189-2.078-.718-2.736h0Z"/><path class="j" d="M155.826,185.347c-.905-1.17-1.807-3.091-2.454-4.627-.774-1.835-1.501-3.825-1.783-5.806-.129-.908-.02-1.847-.523-2.671-.735-1.202-2.013-1.72-3.374-1.511-2.073.319-4.078,1.13-6.047,1.824-4.092,1.443-8.283,2.593-12.413,3.924-1.879.605-3.75,1.235-5.617,1.879-1.136.392-2.293.751-3.412,1.189-1.172.458-1.492,1.316-1.609,2.49-.208,2.087-.44,4.173-.584,6.266-.081,1.173-.039,2.326-.375,3.368-.389,1.204-.924,2.343-1.522,3.456-2.003,3.727-4.633,7.156-6.418,10.99-2.193,4.712-2.063,9.672-.614,14.599,1.518,5.165,4.269,9.9,5.189,15.243,1.798,10.442-.324,20.859-3.576,30.779-.804,2.452,3.057,3.502,3.857,1.063,1.763-5.377,3.199-10.951,3.969-16.562.381-2.777.363-5.538.302-8.338-.072-3.326-.315-6.682-1.087-9.927-1.537-6.458-5.636-12.242-5.787-19.043-.122-5.515,3.679-9.943,6.299-14.48,1.529-2.648,3.51-5.673,3.643-8.807.076-1.803.204-3.599.38-5.395.066-.674.137-1.347.207-2.02.027-.26.055-.519.08-.779.011-.11.127-.95.017-.342l-.514.883.09-.1-.883.514c5.544-1.946,11.123-3.75,16.743-5.465,2.952-.901,5.832-2.034,8.794-2.896.149-.043,1.703-.357,1.713-.417.011-.064-.907-.509-.988-.363-.041.074.029.289.026.374-.013.387.096.823.156,1.201.209,1.322.584,2.615,1.02,3.879,1.026,2.976,2.332,5.956,4.268,8.457.661.855,2.133.696,2.828,0,.844-.844.663-1.971,0-2.828h0Z"/><path class="j" d="M142.734,191.733c-4.355,3.823-5.008,11.231-1.713,15.89.623.881,1.747,1.296,2.736.718.871-.509,1.344-1.85.718-2.736-.731-1.033-1.12-1.771-1.374-2.89-.033-.144-.063-.288-.086-.434-.057-.357.015.228-.014-.141-.023-.299-.034-.598-.037-.898-.006-.609.021-1.219.093-1.823-.026.219-.002.011.016-.089.024-.135.047-.271.074-.406.054-.266.116-.531.188-.792.071-.257.152-.512.242-.763.045-.124.09-.248.142-.37-.083.198-.016.04.037-.062.12-.232.235-.464.368-.688.082-.139.169-.276.26-.411.018-.028.229-.329.127-.192-.101.136.125-.152.148-.178.085-.099.172-.196.261-.291.204-.217.42-.419.643-.615.812-.713.729-2.1,0-2.828-.806-.806-2.014-.715-2.828,0h0Z"/><path class="j" d="M156.144,260.957c-.028,1.268.172,2.548.392,3.792.202,1.14.462,2.27.758,3.39.267,1.011,1.44,1.727,2.46,1.397,1.04-.337,1.683-1.376,1.397-2.46-.395-1.497-.732-3.015-.939-4.55l.071.532c-.091-.696-.155-1.397-.14-2.1.023-1.047-.937-2.048-2-2-1.104.049-1.975.879-2,2h0Z"/><path class="j" d="M159.471,265.608c-13.291.073-26.583-.572-39.876-.538-2.307.006-4.676-.079-6.972.2-1.072.13-2,.826-2,2,0,.98.92,2.131,2,2,1.953-.238,3.961-.184,5.923-.196,3.429-.021,6.859.013,10.288.054,7.637.092,15.272.252,22.908.386,2.576.045,5.153.108,7.729.094s2.579-4.014,0-4h0Z"/><path class="j" d="M156.144,260.957c-.028,1.268.172,2.548.392,3.792.202,1.14.462,2.27.758,3.39.267,1.011,1.44,1.727,2.46,1.397,1.04-.337,1.683-1.376,1.397-2.46-.395-1.497-.732-3.015-.939-4.55l.071.532c-.091-.696-.155-1.397-.14-2.1.023-1.047-.937-2.048-2-2-1.104.049-1.975.879-2,2h0Z"/><path class="j" d="M159.471,265.608c-13.291.073-26.583-.572-39.876-.538-2.307.006-4.676-.079-6.972.2-1.072.13-2,.826-2,2,0,.98.92,2.131,2,2,1.953-.238,3.961-.184,5.923-.196,3.429-.021,6.859.013,10.288.054,7.637.092,15.272.252,22.908.386,2.576.045,5.153.108,7.729.094s2.579-4.014,0-4h0Z"/><path class="j" d="M157.009,268.381c2.939,7.145,3.352,15.365,3.434,22.999.09,8.418-.006,16.856,2.429,25.007,2.108,7.057,5.405,13.791,8.785,20.311,3.453,6.66,7.194,13.173,11.093,19.581.779,1.281,1.566,2.557,2.36,3.828.694,1.11,1.766,2.342,1.977,3.659.264,1.648-.591,2.905-1.855,3.848-1.837,1.371-3.693,2.719-5.556,4.055-.944.677-1.892,1.351-2.842,2.019-.729.512-1.453,1.141-2.353,1.311-1.467.278-2.642-.463-3.448-1.634-1.929-2.806-3.86-5.611-5.778-8.425-3.876-5.688-7.826-11.372-11.307-17.315-1.961-3.349-3.552-6.938-5.302-10.4-4.23-8.367-8.509-16.71-12.792-25.05-.09-.175-.183-.349-.27-.526l-3.454,2.019c.027.052.053.104.08.156,1.179,2.289,4.632.268,3.454-2.019-.027-.052-.053-.104-.08-.156-1.194-2.294-4.59-.275-3.454,2.019,3.846,7.763,7.913,15.423,11.833,23.15,1.876,3.697,3.629,7.473,5.577,11.132,3.117,5.855,7.056,11.334,10.771,16.816,2.088,3.081,4.195,6.15,6.304,9.217.993,1.444,1.892,2.977,3.399,3.95,1.695,1.094,3.908,1.412,5.844.843,2.1-.617,3.906-2.268,5.656-3.522,1.924-1.378,3.837-2.772,5.736-4.184,1.714-1.275,3.111-2.692,3.642-4.836.502-2.027.14-4.121-.919-5.907-3.497-5.893-7.186-11.654-10.537-17.637-3.888-6.943-7.656-14.033-10.61-21.433-1.422-3.561-2.618-7.208-3.337-10.98-.83-4.357-.865-8.798-1.026-13.216-.144-3.958.004-7.91-.249-11.87-.269-4.21-.742-8.448-1.696-12.562-.419-1.809-.947-3.59-1.654-5.309-.411-.998-1.328-1.708-2.46-1.397-.944.26-1.81,1.455-1.397,2.46h0Z"/><path class="j" d="M111.565,267.392c-1.699,8.28-3.838,16.594-6.365,24.658-1.692,5.4-3.748,10.701-5.719,16.003-2.12,5.702-4.279,11.389-6.417,17.084-2.173,5.79-4.061,11.67-5.982,17.548-3.066,9.38-6.111,18.773-9.549,28.024-.757,2.035-1.623,3.969-.904,6.162.701,2.141,2.285,3.231,4.186,4.235,4.086,2.159,8.115,4.513,12.327,6.419,3.952,1.788,7.914-.27,9.448-4.133,1.47-3.703,2.881-7.433,4.296-11.157,2.714-7.141,5.178-14.377,7.994-21.479,1.642-4.141,3.274-8.292,5.293-12.268,2.183-4.299,4.685-8.426,7.247-12.508,2.526-4.025,4.982-8.11,7.579-12.089,2.215-3.394,4.777-6.556,6.803-10.074,1.137-1.974,2.082-4.046,2.865-6.184.886-2.421-2.978-3.465-3.857-1.063-1.428,3.903-3.687,7.356-6.082,10.725-2.437,3.428-4.641,6.964-6.88,10.523-4.944,7.858-10.099,15.637-13.714,24.225-2.962,7.037-5.598,14.182-8.203,21.356-1.304,3.591-2.664,7.161-4.031,10.729-.684,1.785-1.371,3.568-2.061,5.35-.512,1.322-.893,3.314-2.101,4.195-1.457,1.062-2.877.27-4.281-.434-1.988-.997-3.956-2.034-5.919-3.079-1.917-1.02-3.843-2.025-5.753-3.058-1.72-.93-1.547-2.263-.934-3.887,3.356-8.892,6.316-17.929,9.27-26.96,2.009-6.143,3.917-12.329,6.177-18.386,1.949-5.222,3.932-10.431,5.885-15.652,2.069-5.532,4.143-11.067,6.057-16.655,2.559-7.471,4.451-15.24,6.255-22.925.326-1.39.64-2.782.927-4.18.516-2.513-3.339-3.587-3.857-1.063h0Z"/><path class="l" d="M197.919,378.038c-.2,2.579-4.195,5.765-6.33,7.653-1.759,1.555-6.048,5.097-7.383,4.242-.373-1.676-1.024-4.502-2.307-5.146-1.611-.223-3.065,2.062-3.944,3.201-2.103,2.725-5.243,9.268-7.112,11.565-.865,1.063-4.139,5.907-4.371,7.485-.231,1.567.373,2.815,1.448,3.73,4.338-.43,12.93-6.849,19.547-10.988,6.089-3.808,17.02-12.06,17.89-15.549-1.169-1.926-2.66-3.769-3.711-4.736-1.292-1.189-2.329-1.794-3.74-1.972.023.169.027.341.013.516Z"/><path class="j" d="M187.138,369.646c.662,1.255,1.48,2.44,2.27,3.616,1.064,1.585,2.165,3.153,3.37,4.635.469.578.956,1.13,1.584,1.543.876.576,2.25.203,2.736-.718.529-1.001.217-2.122-.718-2.736-.209-.138.476.423.189.145-.088-.086-.179-.168-.264-.257-.2-.208-.388-.428-.572-.65-.105-.127-.209-.256-.312-.386-.055-.069-.108-.139-.163-.208-.13-.161.201.262.173.225-.037-.05-.076-.099-.114-.149-.262-.344-.519-.692-.772-1.042-1.029-1.424-2.015-2.881-2.954-4.366-.347-.548-.697-1.098-.999-1.672-.489-.927-1.856-1.285-2.736-.718-.943.608-1.241,1.745-.718,2.736h0Z"/><path class="j" d="M178.034,381.907c.855,1.463,1.567,3.004,2.426,4.464.255.434.709.785,1.195.919.479.132,1.116.072,1.541-.202.909-.586,1.285-1.771.718-2.736-.858-1.46-1.571-3.001-2.426-4.464-.254-.434-.711-.786-1.195-.919-.479-.132-1.116-.072-1.541.202-.911.587-1.282,1.77-.718,2.736h0Z"/><path class="j" d="M197.374,379.451c2.955.458,5.03,3.697,6.439,6.087.606,1.028,1.322,2.392,1.387,3.425.021.34-.004.027.015-.062-.022.106-.043.23-.082.329-.033.083-.055.171-.085.255-.104.297.12-.252-.021.052-.232.5-.532.973-.85,1.422-1.657,2.339-3.981,4.289-6.184,6.094-2.368,1.941-4.868,3.735-7.463,5.36-2.414,1.511-4.827,3.037-7.273,4.495-2.51,1.495-5.355,3.353-8.334,3.662-1.913.198-5.868-.098-6.447-2.429-.234-.941.202-1.48.767-2.499.683-1.229,1.445-2.417,2.238-3.576.178-.26.359-.518.542-.775.075-.106.153-.211.23-.316.195-.266-.254.329.004-.008.45-.588.891-1.169,1.292-1.791.983-1.525,1.857-3.121,2.752-4.699.89-1.569,1.769-3.155,2.784-4.648.379-.558.783-1.105,1.199-1.636.308-.393.642-.813,1.026-1.134.083-.069.141-.127.229-.184.468-.304-.153-.114.361-.088l-1.009-.273c.606.367.922,2.021,1.112,2.771.18.713.243,1.516.79,2.063.476.476,1.176.685,1.833.714,2.266.098,4.521-1.833,6.186-3.135,1.854-1.449,3.666-3.014,5.353-4.653,1.769-1.718,3.966-4.08,3.742-6.751-.214-2.547-4.215-2.569-4,0,.097,1.153-1.003,2.303-1.821,3.167-1.155,1.219-2.441,2.302-3.703,3.406-1.014.886-2.035,1.762-3.136,2.539-.57.402-1.155.789-1.772,1.115-.23.121-.501.165-.646.28-.255.057-.267.068-.036.034.151.02.292.068.425.144l.919,1.195c-.422-1.885-.881-4.126-2.259-5.574-1.832-1.924-4.329-.805-5.87.884-2.686,2.943-4.483,6.607-6.457,10.029-1.639,2.842-3.448,5.003-5.17,7.867-.814,1.353-1.731,2.833-1.907,4.43-.204,1.856.489,3.701,1.851,4.981,2.837,2.666,7.528,3.147,11.144,2.105,3.952-1.139,7.571-3.57,11.017-5.742,6.196-3.904,12.623-7.818,17.524-13.363,1.174-1.328,2.308-2.778,2.897-4.471.646-1.856.013-3.698-.775-5.403-.958-2.072-2.327-3.988-3.802-5.722-1.539-1.808-3.475-3.456-5.889-3.83-1.066-.165-2.151.271-2.46,1.397-.261.948.323,2.294,1.397,2.46h0Z"/><path class="j" d="M198.067,387.568c-.111.381.189-.301-.018.067-.089.158-.182.311-.282.462-.112.169-.468.589-.774.918-.809.87-1.695,1.669-2.597,2.441-2.035,1.743-4.196,3.341-6.418,4.837-2.406,1.62-4.862,3.177-7.295,4.755-2.225,1.443-4.622,3.213-7.243,3.833-2.504.592-1.444,4.45,1.063,3.857,2.962-.701,5.683-2.605,8.199-4.236,2.606-1.69,5.247-3.347,7.809-5.104,2.451-1.68,4.844-3.476,7.083-5.431,1.639-1.432,3.698-3.162,4.331-5.335.721-2.476-3.138-3.534-3.857-1.063h0Z"/><path class="l" d="M90.979,398.637c-2.262,1.255-7.123-.321-9.874-1.062-2.268-.61-7.587-2.235-7.61-3.82,1.192-1.236,3.192-3.336,3.022-4.762-.702-1.467-3.41-1.42-4.845-1.526-3.433-.252-10.623.736-13.57.443-1.364-.136-7.21-.196-8.655.48-1.434.671-2.142,1.863-2.313,3.264,2.75,3.382,12.843,7.011,19.944,10.249,6.534,2.98,19.445,7.55,22.836,6.352.962-2.038,1.678-4.298,1.905-5.707.28-1.733.212-2.932-.417-4.207-.128.112-.269.21-.423.295Z"/><path class="j" d="M92.104,384.891c-1.002,1.832-1.766,3.828-2.537,5.763-.414,1.037-.814,2.082-1.163,3.143-.265.803-.558,1.682-.558,2.537,0,1.046.92,2.048,2,2s2-.879,2-2c0-.044-.012-.129.008-.168.119-.238-.114.63-.037.295.035-.153.064-.306.102-.458.106-.418.237-.829.373-1.237.342-1.028.73-2.041,1.132-3.047.213-.534.449-1.061.654-1.598-.224.587-.022.052.031-.071.046-.107.091-.213.137-.32.103-.237.206-.474.311-.711.314-.71.628-1.426,1.001-2.108.502-.918.256-2.222-.718-2.736-.936-.495-2.2-.263-2.736.718h0Z"/><path class="j" d="M79.674,379.199c-.597,1.21-1.308,2.361-1.901,3.572-.239.488-.35,1.003-.202,1.541.128.464.486.967.919,1.195.464.245,1.026.368,1.541.202.475-.154.968-.455,1.195-.919.593-1.211,1.304-2.362,1.901-3.572.24-.486.349-1.004.202-1.541-.128-.464-.486-.967-.919-1.195-.464-.245-1.026-.368-1.541-.202-.476.154-.966.455-1.195.919h0Z"/><path class="j" d="M89.675,399.351c.597,1.3.236,2.86-.127,4.178-.411,1.496-.961,2.959-1.663,4.342-.341.671-.706,1.354-1.157,1.96-.152.205-.31.4-.488.584-.115.118-.237.24-.365.345.132-.109.078-.073-.037-.007-.307.177-.042.019.032-.007-.106.038-.225.081-.335.102-.114.022-.599.118-.49.104-.225.03-1.086.038-1.532.018-2.9-.131-5.797-.99-8.55-1.857-2.895-.911-5.757-1.974-8.514-3.246-2.614-1.206-5.251-2.373-7.839-3.634-2.67-1.301-5.807-2.691-7.667-5.108-1.17-1.521-3.037-5.122-1.049-6.704.581-.463,1.789-.469,2.71-.523,1.376-.08,2.759-.093,4.137-.055,3.092.084,6.107-.016,9.199-.221,1.739-.116,3.493-.248,5.237-.179.764.03,3.219-.11,3.609.562l-.273-1.009c.032.899-1.189,2.021-1.786,2.665-1.037,1.118-1.66,2.231-.748,3.666,1.234,1.942,4.109,2.778,6.157,3.453,2.246.741,4.571,1.398,6.886,1.876,2.661.55,5.53.885,7.791-.898.849-.669.701-2.128,0-2.828-.838-.838-1.977-.671-2.828,0-.636.501-2.668.109-3.551-.061-1.578-.303-3.12-.758-4.668-1.183-1.316-.362-2.625-.75-3.903-1.233-.591-.223-1.171-.471-1.725-.776-.13-.071-.66-.388-.617-.359-.483-.325-.114-.324-.029.439l-.586,1.414c1.448-1.504,3.222-3.259,3.552-5.412.363-2.364-1.825-3.67-3.862-4.018-3.838-.655-7.793-.162-11.643.082-3.163.201-6.292-.079-9.454.034-1.584.056-3.351.069-4.826.707-1.813.784-3.118,2.46-3.45,4.407-.656,3.839,1.457,8.069,4.376,10.496,3.148,2.618,7.034,4.291,10.734,5.963,6.773,3.062,13.636,6.301,21.08,7.326,1.728.238,3.563.407,5.269-.074,1.899-.536,3.129-2.123,4.094-3.759,2.269-3.848,4.331-9.273,2.351-13.589-.451-.982-1.87-1.224-2.736-.718-1.008.59-1.17,1.751-.718,2.736h0Z"/><path class="j" d="M82.698,403.798c-.219.067-.354.079-.047.044-.181.021-.365.019-.547.016-.41-.005-.768-.05-1.064-.098-1.176-.191-2.337-.5-3.481-.83-2.53-.731-5.021-1.627-7.453-2.635-2.548-1.057-5.072-2.192-7.599-3.298-2.276-.996-4.983-1.976-6.819-3.7-1.875-1.761-4.709,1.061-2.828,2.828,2.129,2,4.99,3.172,7.629,4.326,2.844,1.244,5.684,2.519,8.555,3.701,2.634,1.085,5.33,2.058,8.079,2.812,2.013.552,4.561,1.334,6.64.692,2.452-.757,1.406-4.619-1.063-3.857h0Z"/><path class="l" d="M147.684,210.919c1.025.969,2.109,1.883,3.145,2.784,3.289,2.859,6.033,5.935,8.353,9.48.992,1.515.728,3.531-.585,4.779-5.681,5.399-15.765,12.852-17.869,14.735,1.499,2.39,8.318,12.277,10.136,14.55,2.541-1.317,15.737-11.364,18.297-13.864,4.293-4.194,9.856-8.675,11.705-14.774,1.364-5.228-4.091-15.91-7.013-21.582"/><path class="k" d="M127.573,253.344c1.024-1.025,2.444-1.75,3.546-2.446-1.991-.81-4.428-.921-4.384-3.562.03-1.824,1.895-2.574,3.454-2.843,3.339-.575,6.869.064,10.193.134h1.609c1.904,2.841,5.136,7.517,7.25,10.443-1.428,2.555-3.061,5.48-3.061,5.48-1.072,1.571-1.56,2.196-3.475,3.853-2.379,2.058-4.423,2.965-7.552,3.128-1.592.083-2.188-.925-3.564-1.841-1.66-1.105-5.295-6.245-5.353-9.255-.025-1.301.534-2.289,1.337-3.091Z"/><path class="j" d="M140.382,242.627c-2.695-.075-5.386-.471-8.085-.351-2.184.097-4.76.413-6.353,2.09-1.509,1.588-1.604,4.213-.257,5.927,1.209,1.539,3.175,1.861,4.901,2.534l-.478-3.655c-2.721,1.693-5.824,3.476-5.871,7.108-.041,3.176,2.057,6.352,3.939,8.753.829,1.057,1.71,1.847,2.777,2.651,1.593,1.202,2.841,1.998,4.929,1.794,3.48-.341,6.758-1.871,9.085-4.53,2.15-2.456,3.748-5.325,5.568-8.018,1.445-2.139-2.019-4.143-3.454-2.019-2.457,3.637-4.64,8.624-9.137,10.113-.923.305-2.481.805-3.403.387-.599-.272-1.11-.856-1.64-1.235.006.004-.49-.349-.23-.151.199.151-.036-.03-.063-.054-.182-.16-.355-.328-.523-.502-1.576-1.63-3.001-3.816-3.645-5.998-.288-.975-.312-1.797.488-2.655.881-.945,2.117-1.518,3.199-2.192,1.561-.972,1.092-3.043-.478-3.655-.802-.313-2.388-.548-2.827-1.131-.353-.47.18-.915.773-1.14,1.492-.565,3.273-.477,4.836-.421,1.986.07,3.962.294,5.949.349,2.575.072,2.573-3.928,0-4h0Z"/><path class="j" d="M178.921,243.533c.439.653,1.027,1.198,1.751,1.52.391.174.783.339,1.195.455.289.082.583.146.879.203.266.083.532.095.798.036.266-.012.514-.091.744-.237.233-.126.42-.297.561-.515.177-.193.296-.42.358-.68.117-.512.091-1.087-.202-1.541-.27-.418-.688-.822-1.195-.919-.513-.098-1.024-.22-1.508-.419l.478.202c-.245-.104-.48-.228-.693-.388l.405.313c-.131-.102-.25-.216-.353-.347l.313.405c-.026-.034-.051-.069-.075-.105-.292-.434-.679-.777-1.195-.919-.266-.083-.532-.095-.798-.036-.266.012-.514.091-.744.237-.427.275-.803.685-.919,1.195-.115.506-.098,1.096.202,1.541h0Z"/><path class="j" d="M148.885,178.246c-.884.43-1.771.853-2.671,1.249-.085.038-.171.075-.257.112-.063.027-.435.179-.136.059.275-.11-.011.004-.066.026-.1.041-.199.082-.299.122-.349.14-.7.274-1.054.403-1.631.593-3.305,1.063-4.971,1.544-1.004.29-1.732,1.423-1.397,2.46.33,1.021,1.384,1.708,2.46,1.397,1.706-.493,3.42-.974,5.088-1.587,1.819-.668,3.581-1.485,5.322-2.331.943-.459,1.272-1.876.718-2.736-.624-.967-1.728-1.208-2.736-.718h0Z"/><path class="j" d="M151.136,191.111c6.375-2.201,12.2,3.201,15.784,7.882,2.037,2.661,3.758,5.607,5.075,8.688s3.018,5.985,4.33,9.072c1.21,2.845,2.486,5.988,2.721,9.103.237,3.151-1.714,6.121-3.768,8.563-3.641,4.328-8.017,8.151-12.451,11.651-2.473,1.951-4.982,3.857-7.522,5.72-1.755,1.287-3.521,2.708-5.45,3.731l2.424.313c-.302-.38.105.148-.18-.233-.171-.228-.341-.456-.51-.686-.422-.574-.838-1.152-1.252-1.732-1.018-1.426-2.023-2.861-3.021-4.301-1.648-2.376-3.318-4.747-4.861-7.193l-.313,2.424c3.777-3.346,7.95-6.271,11.844-9.481,1.207-.995,2.405-2.003,3.581-3.034,1.144-1.003,2.494-2.016,3.32-3.309,2.262-3.538-.325-6.832-2.498-9.589-2.739-3.474-6.078-6.193-9.292-9.194-1.88-1.755-4.715,1.067-2.828,2.828,3.289,3.07,6.742,5.849,9.49,9.452.889,1.165,2.759,2.963,1.672,4.504-.917,1.298-2.561,2.378-3.759,3.404-4.668,4-9.761,7.517-14.358,11.59-.64.567-.763,1.71-.313,2.424,3.223,5.11,6.692,10.221,10.449,14.954.56.705,1.703.695,2.424.313,1.773-.94,3.399-2.234,5.015-3.413,2.551-1.861,5.065-3.773,7.555-5.714,4.769-3.717,9.46-7.711,13.412-12.305,2.46-2.86,5.019-6.452,5.215-10.354.173-3.436-1.087-6.977-2.327-10.123-1.365-3.465-2.993-6.817-4.69-10.129-1.653-3.227-3.09-6.425-5.247-9.38-4.616-6.325-12.27-13.225-20.735-10.302-2.419.835-1.379,4.7,1.063,3.857h0Z"/></g></g></g></svg>