<svg id="b" xmlns="http://www.w3.org/2000/svg" width="318.374" height="337.966" viewBox="0 0 318.374 337.966" style="color: initial !important;"><defs><style>.d{fill:#ffffff;}.e{fill:#211715;}.f{fill:#ffda71;}.g{fill:#f2635f;}</style></defs><g id="c"><path class="g" d="M239.705,83.327h75.187c-4.891-9.728-9.781-19.455-14.672-29.197,4.891-9.742,9.781-19.469,14.672-29.197h-75.187v58.394Z"/><path class="e" d="M239.705,85.727h75.187c1.906,0,2.875-2.016,2.072-3.611-4.893-9.731-9.785-19.463-14.672-29.197v2.423c4.887-9.734,9.78-19.465,14.672-29.197.802-1.596-.166-3.611-2.072-3.611h-75.187c-1.297,0-2.4,1.1-2.4,2.4v58.394c0,3.089,4.8,3.094,4.8,0V24.933l-2.4,2.4h75.187l-2.072-3.611c-3.928,7.813-7.857,15.627-11.782,23.442-.962,1.914-1.996,3.808-2.89,5.755-.622,1.353-.05,2.324.556,3.53.519,1.033,1.037,2.066,1.556,3.099,1.963,3.909,3.927,7.817,5.891,11.725,2.223,4.422,4.446,8.844,6.669,13.266l2.072-3.611h-75.187c-3.089,0-3.094,4.8,0,4.8Z"/><path class="e" d="M223.81,122.265V19.835s5.573,0,5.573,0v102.43c0,.677-.549,1.226-1.226,1.226h-3.121c-.677,0-1.226-.549-1.226-1.226Z"/><path class="e" d="M226.21,122.265c0-3.392,0-6.785,0-10.177,0-8.148,0-16.297,0-24.445v-29.581c0-8.529,0-17.058,0-25.586v-8.442c0-1.319.122-2.704,0-4.019-.005-.059,0-.121,0-.18l-2.4,2.4h5.573l-2.4-2.4c0,3.392,0,6.785,0,10.177,0,8.188,0,16.376,0,24.564,0,9.861,0,19.722,0,29.583v25.636c0,4.091-.172,8.224,0,12.313.007.168-.02.308-.044.483l.328-1.211c-.058.208-.163.388-.315.541l.861-.861c-.153.152-.333.257-.541.315l1.211-.328c-.622.084-1.259.044-1.886.044-.37,0-.745-.018-1.115,0-1.087.053.537-.248.643.536-.173-1.286-1.824-1.986-2.952-1.676-1.388.382-1.85,1.662-1.676,2.952.276,2.051,2.206,2.988,4.075,2.988,1.129,0,2.445.173,3.55-.13,1.799-.493,2.627-2.152,2.662-3.88.035-1.707,0-3.418,0-5.125,0-7.727,0-15.454,0-23.18v-31.355c0-9.389,0-18.779,0-28.168,0-4.661.163-9.354,0-14.013-.002-.068,0-.136,0-.204,0-1.297-1.1-2.4-2.4-2.4h-5.573c-1.297,0-2.4,1.1-2.4,2.4,0,3.392,0,6.785,0,10.177,0,8.148,0,16.297,0,24.445v29.581c0,8.529,0,17.058,0,25.586,0,4.142-.161,8.321,0,12.46.002.06,0,.12,0,.18,0,3.089,4.8,3.094,4.8,0Z"/><path class="d" d="M226.336,22.062c4.897.155,8.402-3.519,8.543-7.944.157-4.951-3.193-8.469-8.018-8.622-5.011-.159-8.392,3.179-8.548,8.097-.141,4.455,3.143,8.314,8.023,8.468Z"/><path class="e" d="M226.336,24.462c4.695.088,8.826-2.733,10.385-7.165,1.391-3.954.255-8.95-3.009-11.661-3.443-2.859-8.539-3.353-12.5-1.26-3.861,2.041-5.752,6.631-5.198,10.853.696,5.301,5.044,8.999,10.322,9.234,1.296.058,2.4-1.144,2.4-2.4,0-1.348-1.1-2.342-2.4-2.4-.24-.011-.481-.022-.72-.051.502.059-.242-.055-.282-.064-.369-.08-.723-.198-1.082-.312-.438-.14-.135-.053-.037-.008-.197-.091-.39-.188-.58-.293-.187-.104-.37-.216-.547-.335-.092-.062-.56-.452-.192-.132-.264-.23-.521-.465-.758-.724-.044-.048-.473-.583-.156-.158-.104-.139-.202-.283-.296-.43-.208-.324-.389-.661-.553-1.009.043.092.142.422.001-.01-.088-.27-.181-.535-.251-.81-.044-.171-.173-1.139-.136-.633-.027-.368-.046-.731-.035-1.099.007-.228.028-.454.043-.681.032-.479.017-.124-.001-.021.079-.456.18-.905.322-1.346.053-.164.112-.325.171-.487-.192.518.048-.089.087-.166.15-.296.333-.568.502-.853.314-.531-.205.225.034-.061.104-.124.209-.247.32-.365.133-.141.271-.277.414-.408.093-.085.556-.428.115-.115.267-.189.54-.367.827-.524.175-.095.353-.183.535-.265-.455.206-.038.019.086-.018.369-.109.729-.224,1.108-.299.14-.028.282-.054.424-.074-.549.078.369-.011.468-.014.386-.013.764.015,1.149.024.703.016-.433-.109.244.023.142.028.284.052.426.084.38.084.748.2,1.116.326.375.129-.485-.258.092.036.211.108.423.211.627.331.144.085.281.182.425.267.542.319-.317-.314.149.105.246.221.49.44.714.686,0,0,.413.496.193.214s.163.243.162.242c.222.338.413.694.584,1.061-.211-.455.134.419.184.597.058.206.108.414.151.623.014.069.1.77.048.23.037.379.057.758.054,1.139-.002.189-.016.376-.022.565-.007.109-.016.219-.029.327.04-.278.037-.276-.009.006-.098.42-.212.824-.331,1.238-.182.634.218-.378-.079.208-.095.187-.186.376-.29.559s-.225.353-.331.533c-.25.423.228-.22-.128.18-.28.316-.575.602-.879.893-.469.45.371-.21-.178.142-.179.115-.352.235-.536.342-.186.108-.377.202-.568.301-.473.248.246-.049-.229.091-.432.128-.854.251-1.296.343-.684.143.431.016-.282.03-.321.006-.639.025-.96.019-1.297-.024-2.4,1.121-2.4,2.4,0,1.321,1.099,2.376,2.4,2.4Z"/><path class="f" d="M7.518,295.382c0-10.888,0-21.776,0-32.662,0-1.728,1.797-2.682,3.022-1.61,7.985,6.985,16.28,13.711,24.861,20.158.865.65,2.049.385,2.619-.583,5.712-9.688,11.422-19.377,17.132-29.066.736-1.249,2.388-1.25,3.124-.002,5.187,8.802,14.037,23.817,17.135,29.075.571.969,1.751,1.227,2.615.577,8.576-6.443,16.865-13.164,24.845-20.144,1.225-1.072,3.022-.118,3.022,1.61,0,18.988,0,34.95,0,53.942,0,1.14-.83,2.063-1.86,2.063-27.59,0-67.066,0-94.655,0-1.03,0-1.86-.924-1.86-2.063,0-8.108,0-13.188,0-21.296Z"/><path class="e" d="M9.918,295.382c0-6.764,0-13.527,0-20.291,0-3.299,0-6.598,0-9.897,0-.334.252-2.208,0-2.474.227.241-.936.433-.801.295-.019.02,2.81,2.465,3.141,2.748,4.897,4.193,9.889,8.273,14.97,12.242,1.295,1.012,2.595,2.017,3.9,3.015,1.199.917,2.473,2.212,3.903,2.731,3.641,1.321,5.318-2.289,6.826-4.846,3.36-5.699,6.719-11.398,10.078-17.098.84-1.425,1.679-2.85,2.519-4.274.42-.712.84-1.425,1.26-2.137s1.174-1.57,1.386-2.351c.14-.516.175.003-.157.002.022,0-.375-.024-.51-.021l-.228-.196c.1.17.2.34.3.51.103.174.205.348.308.522.604,1.025,1.208,2.049,1.812,3.074,4.599,7.804,9.199,15.608,13.798,23.412,1.109,1.882,2.268,3.764,4.767,3.668,1.59-.061,2.767-1.21,3.965-2.12,1.372-1.042,2.737-2.093,4.098-3.15,5.09-3.953,10.092-8.019,15-12.196,1.206-1.027,2.414-2.053,3.602-3.101.593-.524.594-.366-.104-.425-.024-.002-.282-.267-.26-.295-.127.16.004,1.015.004,1.254,0,3.309,0,6.619,0,9.928,0,6.186,0,12.371,0,18.557,0,6.427,0,12.854,0,19.28,0,.817,0,1.633,0,2.45,0,.326-.14,2.422,0,2.482-.379-.161.987-.178.365-.337-.567-.144-1.348,0-1.943,0-2.517,0-5.033,0-7.55,0-11.068,0-22.137,0-33.205,0-11.251,0-22.503,0-33.754,0-5.125,0-10.249,0-15.374,0-.534,0-1.067,0-1.601,0-.082,0-1.038-.043-1.053,0,.029-.081.723.273.57.344.2-.093-.03-3.731-.03-4.206,0-2.757,0-5.514,0-8.271,0-2.942,0-5.884,0-8.827,0-3.089-4.8-3.094-4.8,0,0,6.148,0,12.295,0,18.443,0,1.626-.263,3.523.535,5.013.759,1.418,2.136,2.231,3.726,2.304,2.52.116,5.074,0,7.597,0,11.617,0,23.234,0,34.852,0,11.921,0,23.842,0,35.763,0,5.362,0,10.732.086,16.093,0,1.514-.024,2.839-.533,3.739-1.793,1.006-1.408.872-3.005.872-4.659,0-3.535,0-7.07,0-10.605,0-13.451,0-26.901,0-40.352,0-1.529-.131-2.944-1.214-4.117-1.006-1.089-2.62-1.588-4.061-1.213-1.457.379-2.537,1.635-3.635,2.586-1.379,1.193-2.766,2.376-4.16,3.551-5.203,4.385-10.509,8.65-15.92,12.776-.696.53-1.44,1.026-2.104,1.594-.951.813.557.072.284.573.098-.18-1.014-1.721-1.152-1.955-1.006-1.706-2.011-3.412-3.017-5.119-2.614-4.436-5.229-8.872-7.843-13.308-1.293-2.194-2.586-4.387-3.878-6.581-1.34-2.273-2.795-4.875-5.928-4.102-1.612.398-2.429,1.725-3.216,3.059-.966,1.639-1.931,3.277-2.897,4.916-1.763,2.992-3.527,5.984-5.29,8.976-1.848,3.135-3.695,6.269-5.543,9.404-.823,1.396-1.848,2.799-2.52,4.274-.412.904-.31.305-.031.233.123-.032.411.083.443-.083.033-.169-2.057-1.555-2.299-1.739-5.417-4.126-10.729-8.392-15.939-12.778-1.214-1.022-2.422-2.05-3.625-3.086-1.25-1.076-2.6-2.684-4.222-3.165-1.39-.412-2.944-.02-3.996.972-1.244,1.173-1.414,2.692-1.414,4.308,0,7.093,0,14.186,0,21.279,0,3.464,0,6.929,0,10.393,0,3.089,4.8,3.094,4.8,0Z"/><path class="d" d="M56.706,230.39c-3.755,0-6.35,2.899-6.35,6.291,0,3.795,2.651,6.409,6.35,6.409,3.842,0,6.35-2.638,6.35-6.409,0-3.415-2.609-6.291-6.35-6.291Z"/><path class="e" d="M56.706,227.99c-3.834.049-7.198,2.412-8.364,6.096-1.066,3.367.047,7.39,2.858,9.561,2.829,2.186,6.979,2.453,10.093.679,3.242-1.848,4.559-5.646,4.012-9.207-.645-4.203-4.462-7.076-8.599-7.129-1.256-.016-2.458,1.115-2.4,2.4.059,1.314,1.054,2.383,2.4,2.4.185.002.368.017.553.021.599.013-.502-.129.07.007.281.067.561.123.836.213.026.009.284.073.318.114l-.265-.113c.101.045.2.093.298.144.184.095.726.322.83.517l-.232-.176c.083.068.163.139.242.211.079.072.156.147.23.223.04.041.332.303.322.356.02-.103-.276-.42-.037-.04.157.25.301.503.448.759.142.248.122.017-.044-.132.113.102.17.47.212.614.046.158.25.674.177.804.099-.177-.026-.473-.023-.056.001.141.014.282.014.424,0,.154.068.748-.045.862l.043-.306c-.017.109-.036.217-.057.325-.037.185-.081.368-.133.549-.036.127-.083.25-.12.377-.149.52.253-.474.008,0-.116.225-.228.451-.364.665-.066.104-.15.203-.211.309-.158.277.399-.431.05-.079-.054.055-.643.562-.639.619-.007-.132.441-.308.005-.02-.084.055-.169.109-.256.16-.132.077-.269.142-.403.216-.445.245.392-.098.075-.027-.283.063-.556.19-.841.256-.107.025-.216.042-.323.067-.265.043-.219.039.138-.013-.114.013-.229.023-.344.03-.293.019-.587.023-.88.009-.102-.005-.428.02-.511-.041.01.008.6.118.143.011-.291-.068-.578-.129-.862-.223-.048-.016-.368-.101-.372-.136.332.143.38.159.146.05-.07-.034-.138-.07-.206-.107-.071-.039-.69-.467-.709-.454.087-.058.384.338.132.088-.108-.107-.224-.204-.33-.314-.084-.087-.162-.205-.255-.281-.243-.197.318.485.048.064-.168-.263-.32-.527-.473-.798-.266-.471.16.512-.008-.008-.033-.102-.072-.202-.105-.305-.054-.172-.316-.807-.229-.967-.005.008.049.617.021.127-.01-.176-.026-.352-.03-.528-.003-.144-.002-.289.003-.433.002-.084.007-.168.014-.251.027-.27.017-.222-.029.142-.083-.126.183-.829.224-.956.028-.089.089-.402.164-.457l-.114.278c.045-.097.093-.193.143-.288.093-.176.323-.715.513-.811l-.177.234c.068-.082.139-.162.211-.241.109-.118.222-.231.34-.34l.12-.108c.198-.165.162-.141-.109.071.046-.083.323-.226.402-.275.139-.087.282-.169.427-.244.098-.051.198-.099.298-.145l-.265.112c.158-.182.749-.244.984-.294l.172-.034c.268-.044.232-.041-.109.009.18-.085.539-.035.735-.038,1.255-.016,2.459-1.092,2.4-2.4-.058-1.286-1.055-2.417-2.4-2.4Z"/><path class="d" d="M104.849,241.517c-3.752-.119-6.438,2.696-6.545,6.086-.12,3.793,2.447,6.489,6.143,6.606,3.839.122,6.43-2.435,6.549-6.204.108-3.413-2.408-6.37-6.147-6.488Z"/><path class="e" d="M104.849,239.117c-3.858-.073-7.221,2.272-8.498,5.902-1.126,3.203-.19,7.283,2.45,9.481,2.837,2.361,6.986,2.782,10.257,1.053,3.152-1.666,4.713-5.429,4.25-8.874-.263-1.959-1.121-3.829-2.585-5.191-1.621-1.508-3.676-2.272-5.874-2.37-1.256-.056-2.456,1.144-2.4,2.4.06,1.348,1.055,2.34,2.4,2.4.157.007.403-.018.552.039-.553-.212-.104-.008.067.029.283.062.554.152.829.239.449.143-.09-.053-.106-.051.096-.011.36.178.444.225.143.08.283.166.419.257l.134.092c.209.153.175.127-.101-.079.118-.013.486.451.581.555l.107.119c.165.199.14.161-.075-.112.076.03.18.256.227.329.062.096.478.677.424.773-.004.008-.203-.576-.058-.126.067.207.139.41.193.621.027.106.051.212.073.319l.03.162c.042.266.036.217-.019-.145.075.042.029.758.027.842-.005.175-.022.348-.033.522-.032.49.023-.13.021-.133.097.132-.196.875-.246,1.032-.013.04-.114.376-.131.373.013.002.245-.511-.01-.007-.115.227-.255.436-.385.654-.256.429.291-.288.062-.067-.088.085-.161.19-.245.28-.102.108-.207.212-.317.312l-.111.098c-.196.162-.15.129.136-.098-.085-.022-.524.342-.634.402-.033.018-.41.185-.41.203-.002-.121.529-.174.068-.043-.283.081-.559.171-.849.229-.022.004-.281.075-.325.056.362-.047.407-.056.136-.028-.115.009-.23.016-.345.019-.296.01-.585-.013-.88-.019-.584-.012.525.12-.038.002-.109-.023-.218-.04-.326-.064-.284-.063-.571-.205-.855-.25-.318-.051.516.265.063.029-.161-.084-.324-.162-.481-.254-.111-.065-.215-.139-.325-.204-.455-.269.388.363,0,.008-.187-.171-.375-.337-.547-.525-.09-.099-.224-.414-.104-.107.131.336-.026-.046-.08-.128-.031-.046-.49-.782-.447-.813-.006.004.193.529.01-.016-.034-.102-.066-.205-.095-.308-.044-.158-.083-.317-.116-.478l-.031-.163c-.043-.266-.038-.22.015.136-.116-.136-.043-.701-.041-.873.001-.145.014-.289.017-.433.011-.626-.103.361.009-.106.077-.321.163-.631.254-.949.151-.531-.252.462.004-.025.075-.143.143-.288.222-.428s.172-.27.254-.408c.237-.401-.329.348.01-.025.217-.239.442-.46.674-.684.391-.38-.441.27.023-.021.138-.087.27-.18.411-.262.142-.083.29-.153.435-.231.451-.243-.417.119.042-.014.331-.096.656-.186.993-.263.571-.13-.529.003.067-.003.246-.003.489-.019.736-.015,1.256.024,2.457-1.121,2.4-2.4-.059-1.321-1.054-2.375-2.4-2.4Z"/><path class="d" d="M8.762,241.513c-3.755,0-6.35,2.899-6.35,6.291,0,3.795,2.651,6.409,6.35,6.409,3.842,0,6.35-2.638,6.35-6.409,0-3.415-2.609-6.291-6.35-6.291Z"/><path class="e" d="M8.762,239.113c-3.834.049-7.198,2.412-8.364,6.096-1.066,3.367.047,7.39,2.858,9.561,2.829,2.186,6.979,2.453,10.093.679,3.242-1.848,4.559-5.646,4.012-9.207-.645-4.203-4.462-7.076-8.599-7.129-1.256-.016-2.458,1.115-2.4,2.4.059,1.314,1.054,2.383,2.4,2.4.185.002.368.017.553.021.599.013-.502-.129.07.007.281.067.561.123.836.213.026.009.284.073.318.114l-.265-.113c.101.045.2.093.298.144.184.095.726.322.83.517l-.232-.176c.083.068.163.139.242.211.079.072.156.147.23.223.04.041.332.303.322.356.02-.103-.276-.42-.037-.04.157.25.301.503.448.759.142.248.122.017-.044-.132.113.102.17.47.212.614.046.158.25.674.177.804.099-.177-.026-.473-.023-.056.001.141.014.282.014.424,0,.154.068.748-.045.862l.043-.306c-.017.109-.036.217-.057.325-.037.185-.081.368-.133.549-.036.127-.083.25-.12.377-.149.52.253-.474.008,0-.116.225-.228.451-.364.665-.066.104-.15.203-.211.309-.158.277.399-.431.05-.079-.054.055-.643.562-.639.619-.007-.132.441-.308.005-.02-.084.055-.169.109-.256.16-.132.077-.269.142-.403.216-.445.245.392-.098.075-.027-.283.063-.556.19-.841.256-.107.025-.216.042-.323.067-.265.043-.219.039.138-.013-.114.013-.229.023-.344.03-.293.019-.587.023-.88.009-.102-.005-.428.02-.511-.041.01.008.6.118.143.011-.291-.068-.578-.129-.862-.223-.048-.016-.368-.101-.372-.136.332.143.38.159.146.05-.07-.034-.138-.07-.206-.107-.071-.039-.69-.467-.709-.454.087-.058.384.338.132.088-.108-.107-.224-.204-.33-.314-.084-.087-.162-.205-.255-.281-.243-.197.318.485.048.064-.168-.263-.32-.527-.473-.798-.266-.471.16.512-.008-.008-.033-.102-.072-.202-.105-.305-.054-.172-.316-.807-.229-.967-.005.008.049.617.021.127-.01-.176-.026-.352-.03-.528-.003-.144-.002-.289.003-.433.002-.084.007-.168.014-.251.027-.27.017-.222-.029.142-.083-.126.183-.829.224-.956.028-.089.089-.402.164-.457l-.114.278c.045-.097.093-.193.143-.288.093-.176.323-.715.513-.811l-.177.234c.068-.082.139-.162.211-.241.109-.118.222-.231.34-.34l.12-.108c.198-.165.162-.141-.109.071.046-.083.323-.226.402-.275.139-.087.282-.169.427-.244.098-.051.198-.099.298-.145l-.265.112c.158-.182.749-.244.984-.294l.172-.034c.268-.044.232-.041-.109.009.18-.085.539-.035.735-.038,1.255-.016,2.459-1.092,2.4-2.4-.058-1.286-1.055-2.417-2.4-2.4Z"/><rect class="d" x="230.702" y="325.922" width="71.796" height="9.644"/><path class="f" d="M235.244,216.371c-4.752-2.802-11.421-3.131-15.417,1.473-3.078,3.546-3.389,9.311-1.555,13.791,2.03,4.961,6.426,9.001,11.007,10.831,4.523,1.807,9.62,1.791,14.134-.044"/><path class="f" d="M297.955,216.371c4.752-2.802,11.421-3.131,15.417,1.473,3.078,3.546,3.389,9.311,1.555,13.791-2.03,4.961-6.426,9.001-11.007,10.831-4.523,1.807-9.62,1.791-14.134-.044"/><path class="e" d="M236.456,214.299c-3.679-2.114-8.185-3.035-12.334-1.882-4.346,1.207-7.612,4.69-8.802,9.004-2.537,9.19,3.492,18.784,11.746,22.682,5.317,2.511,11.498,2.79,16.985.635,1.206-.473,2.046-1.608,1.676-2.952-.316-1.149-1.739-2.153-2.952-1.676-7.335,2.88-15.473.558-20.211-5.757-3.628-4.836-4.955-14.033,1.824-16.966,3.122-1.351,6.798-.578,9.645,1.058,2.683,1.541,5.104-2.605,2.423-4.145h0Z"/><path class="e" d="M299.166,218.443c2.579-1.481,5.715-2.217,8.635-1.398,3.045.854,4.968,3.338,5.623,6.355,1.513,6.974-3.649,13.728-9.713,16.557-4.208,1.963-9.023,1.825-13.286.151-1.207-.474-2.635.52-2.952,1.676-.374,1.361.465,2.477,1.676,2.952,9.631,3.782,20.403-.174,26.085-8.607,5.034-7.471,4.438-19.496-4.883-23.269-4.427-1.792-9.558-.888-13.607,1.438-2.678,1.538-.263,5.687,2.423,4.145h0Z"/><path class="f" d="M262.376,260.413v22.089c-3.178,0-6.529.502-8.835,2.161-3.089,2.222-4.642,6.091-4.642,9.53h35.402c0-3.439-1.553-7.308-4.642-9.53-2.306-1.658-5.657-2.161-8.835-2.161v-22.089"/><path class="e" d="M259.976,260.413v19.311c0,.926,0,1.852,0,2.779l2.4-2.4c-4.138.029-8.435.768-11.549,3.706-2.817,2.659-4.27,6.557-4.328,10.384-.019,1.297,1.115,2.4,2.4,2.4h35.402c1.283,0,2.419-1.1,2.4-2.4-.057-3.828-1.51-7.726-4.328-10.384-3.114-2.939-7.41-3.677-11.549-3.706l2.4,2.4c0-6.437,0-12.874,0-19.311v-2.779c0-3.089-4.8-3.094-4.8,0,0,6.437,0,12.874,0,19.311v2.779c0,1.304,1.1,2.391,2.4,2.4,2.801.02,6.013.28,8.155,2.3,1.915,1.807,2.883,4.386,2.922,6.99l2.4-2.4h-35.402l2.4,2.4c.039-2.604,1.007-5.183,2.922-6.99,2.141-2.02,5.355-2.281,8.155-2.3,1.297-.009,2.4-1.092,2.4-2.4v-19.311c0-.926,0-1.852,0-2.779,0-3.089-4.8-3.094-4.8,0h0Z"/><rect class="d" x="236.274" y="293.056" width="60.651" height="32.866"/><path class="e" d="M294.526,293.056v32.866l2.4-2.4h-60.651l2.4,2.4v-32.866l-2.4,2.4h60.651c3.089,0,3.094-4.8,0-4.8h-60.651c-1.297,0-2.4,1.1-2.4,2.4v32.866c0,1.297,1.1,2.4,2.4,2.4h60.651c1.297,0,2.4-1.1,2.4-2.4v-32.866c0-3.089-4.8-3.094-4.8,0Z"/><path class="e" d="M304.898,335.566v-9.644c0-1.297-1.1-2.4-2.4-2.4h-71.796c-1.297,0-2.4,1.1-2.4,2.4v9.644c0,1.297,1.1,2.4,2.4,2.4h71.796c3.089,0,3.094-4.8,0-4.8h-71.796l2.4,2.4v-9.644l-2.4,2.4h71.796l-2.4-2.4v9.644c0,3.089,4.8,3.094,4.8,0Z"/><polygon class="f" points="247.428 303.07 247.428 315.908 247.428 315.908 285.772 315.908 285.772 315.908 285.772 303.07 285.772 303.07 247.428 303.07 247.428 303.07"/><path class="e" d="M245.028,303.07v12.838c0,.806.448,1.697,1.189,2.072,1.317.667,3.364.328,4.779.328h9.359c6.991,0,13.983,0,20.974,0h3.379c.804,0,1.52.055,2.276-.328.741-.375,1.189-1.266,1.189-2.072v-12.838c0-.806-.448-1.697-1.189-2.072-1.317-.667-3.364-.328-4.779-.328h-33.712c-.804,0-1.52-.055-2.276.328-2.756,1.396-.329,5.539,2.423,4.145h0c-.404.109-.808.218-1.211.328h38.345l-1.211-.328h0c-.396-.691-.792-1.382-1.189-2.072v12.838l1.189-2.072h0c.404-.109.808-.218,1.211-.328-11.188,0-22.375,0-33.563,0h-4.782l1.211.328h0c.396.691.792,1.382,1.189,2.072v-12.838c0-3.089-4.8-3.094-4.8,0Z"/><path class="f" d="M241.264,256.681c-.161-.216-.32-.436-.476-.66-4.582-6.575-5.925-14.9-5.917-22.914.007-7.098.993-15.907,2.014-23.652.143-1.082,1.063-1.889,2.155-1.889,11.308,0,43.771.001,55.122.001,1.092,0,2.012.807,2.155,1.89,1.02,7.745,2.006,16.553,2.012,23.651.008,8.014-1.335,16.339-5.917,22.914-5.925,8.501-15.811,11.72-25.812,11.72-9.738,0-19.367-3.052-25.336-11.06Z"/><path class="e" d="M243.336,255.47c-4.569-6.233-5.979-13.946-6.061-21.532-.043-3.993.223-7.988.581-11.963.364-4.035.687-8.153,1.39-12.143-.036.202-.451.086.239.134.447.031.906,0,1.353,0,1.046,0,2.092,0,3.138,0,2.557,0,5.114,0,7.671,0,6.044,0,12.088,0,18.133,0,5.758,0,11.516,0,17.275,0,2.127,0,4.255,0,6.382,0,.197,0,.923.149.594-.079-.227-.158-.044.152-.001.434.089.582.151,1.169.224,1.752.263,2.093.511,4.187.734,6.285,1.473,13.899,3.104,32.666-10.025,41.828-5.629,3.928-12.554,5.285-19.323,5.144-6.615-.138-13.581-1.827-18.744-6.17-1.304-1.097-2.53-2.332-3.56-3.691-.781-1.032-2.07-1.571-3.284-.861-1.016.594-1.648,2.244-.861,3.284,4.834,6.381,11.874,10.267,19.73,11.593,7.592,1.281,15.766.812,22.921-2.173,7.686-3.207,13.275-9.254,16.199-17.026,3.006-7.99,2.969-16.79,2.359-25.185-.327-4.502-.833-8.99-1.401-13.468-.287-2.261-.363-4.587-2.571-5.86-1.251-.721-2.685-.606-4.071-.606-5.542,0-11.084,0-16.626,0-11.99,0-23.98,0-35.969,0-1.859,0-3.594.503-4.627,2.193-.592.968-.649,2.083-.791,3.179-.143,1.104-.282,2.208-.416,3.312-.551,4.539-1.026,9.091-1.282,13.656-.477,8.485-.052,17.197,3.457,25.065.839,1.882,1.872,3.659,3.09,5.321.765,1.044,2.083,1.563,3.284.861,1.03-.602,1.632-2.232.861-3.284Z"/><path class="g" d="M54.388,82.856s13.478,23.345,26.4,45.726c2.208-4.735,4.416-9.471,6.624-14.206,5.205.455,10.41.911,15.615,1.366-12.922-22.381-26.4-45.726-26.4-45.726"/><path class="g" d="M59.024,82.856l-26.4,45.726c-2.208-4.735-4.416-9.471-6.624-14.206-5.205.455-10.41.911-15.615,1.366,12.922-22.381,26.4-45.726,26.4-45.726"/><path class="e" d="M52.316,84.068c5.952,10.31,11.905,20.619,17.857,30.929l8.543,14.797c.84,1.454,3.366,1.671,4.145,0,2.208-4.735,4.416-9.471,6.624-14.206l-2.072,1.189c5.205.455,10.41.911,15.615,1.366,1.867.163,2.92-2.143,2.072-3.611-8.186-14.178-16.371-28.356-24.557-42.534-.614-1.064-1.228-2.128-1.843-3.192-1.544-2.674-5.694-.26-4.145,2.423,5.952,10.31,11.905,20.619,17.857,30.929,2.848,4.932,5.695,9.864,8.543,14.797l2.072-3.611c-5.205-.455-10.41-.911-15.615-1.366-.764-.067-1.747.491-2.072,1.189-2.208,4.735-4.416,9.471-6.624,14.206h4.145c-8.186-14.178-16.371-28.356-24.557-42.534-.614-1.064-1.228-2.128-1.843-3.192-1.544-2.674-5.694-.26-4.145,2.423h0Z"/><path class="e" d="M56.952,81.645c-5.952,10.31-11.905,20.619-17.857,30.929l-8.543,14.797h4.145c-2.208-4.735-4.416-9.471-6.624-14.206-.325-.698-1.308-1.256-2.072-1.189-5.205.455-10.41.911-15.615,1.366l2.072,3.611c8.186-14.178,16.371-28.356,24.557-42.534.614-1.064,1.228-2.128,1.843-3.192,1.547-2.68-2.599-5.1-4.145-2.423-5.952,10.31-11.905,20.619-17.857,30.929-2.848,4.932-5.695,9.864-8.543,14.797-.848,1.468.205,3.775,2.072,3.611,5.205-.455,10.41-.911,15.615-1.366l-2.072-1.189c2.208,4.735,4.416,9.471,6.624,14.206.779,1.671,3.305,1.454,4.145,0l24.557-42.534c.614-1.064,1.228-2.128,1.843-3.192,1.547-2.68-2.599-5.1-4.145-2.423h0Z"/><path class="f" d="M56.704,2.4c-27.79,0-46.998,21.456-46.998,46.563,0,28.092,19.622,47.437,47,47.437,28.434,0,47-19.526,47-47.437,0-25.278-19.31-46.563-47.002-46.563Z"/><path class="e" d="M56.704,0c-10.718.037-21.411,3.187-30.015,9.679-8.146,6.146-14.158,14.713-17.173,24.469-5.973,19.331.016,42.228,16.256,54.711,15.899,12.221,40.084,13.275,57.357,3.295,8.112-4.687,14.595-11.96,18.375-20.527,4.201-9.523,5.523-20.304,3.972-30.585-1.506-9.982-6.217-19.452-13.301-26.649-7.212-7.328-16.811-12.149-26.961-13.712C62.394.246,59.559.01,56.704,0c-3.089-.011-3.093,4.789,0,4.8,9.814.034,19.381,2.914,27.296,8.783,7.239,5.366,12.601,13.193,15.258,21.776,5.309,17.157.558,37.784-13.552,49.251-6.823,5.545-15.678,8.55-24.468,9.22-9.353.713-18.945-.789-27.23-5.312-7.693-4.201-13.739-10.709-17.495-18.634-3.969-8.376-5.314-18.372-3.952-27.526,1.351-9.08,5.417-17.667,11.81-24.281,6.625-6.854,15.345-11.188,24.73-12.709,2.512-.407,5.061-.559,7.604-.568C59.793,4.789,59.799-.011,56.704,0Z"/><path class="e" d="M56.705,12.368c-7.986.037-15.98,2.358-22.4,7.192-6.112,4.601-10.63,10.963-12.928,18.269-4.566,14.519-.053,31.758,12.153,41.141,11.908,9.154,29.989,9.958,42.938,2.494,13.292-7.662,18.989-23.567,16.795-38.316-2.3-15.467-14.753-27.917-30.199-30.268-2.109-.321-4.225-.502-6.359-.511-3.089-.014-3.093,4.786,0,4.8,7.125.033,14.087,2.112,19.82,6.404,5.218,3.907,9.075,9.572,10.97,15.791,3.779,12.399.333,27.195-9.799,35.478-10.03,8.199-26.16,9.003-37.457,2.803-11.718-6.431-17.402-20.286-15.438-33.352.991-6.594,3.946-12.821,8.607-17.609,4.798-4.929,11.081-8.02,17.851-9.117,1.798-.291,3.626-.389,5.446-.398,3.088-.014,3.094-4.814,0-4.8Z"/></g></svg>