<svg id="b" xmlns="http://www.w3.org/2000/svg" width="331.431" height="313.969" viewBox="0 0 331.431 313.969" style="color: initial !important;"><defs><style>.d{fill:#ffffff;}.e{fill:#211715;}.f{fill:#ffda71;}</style></defs><g id="c"><path class="f" d="M58.416,235.248c-5.608,11.13-11.217,22.259-16.827,33.389-.799,1.586-2.888,1.996-4.219.82-7.646-6.755-15.074-13.756-22.27-20.988-1.879-1.888-5.064-.233-4.588,2.388,3.539,19.493,7.074,38.989,10.609,58.485.234,1.29,1.357,2.228,2.668,2.228,24.699,0,49.398,0,74.096,0,1.311,0,2.434-.938,2.668-2.228,3.535-19.496,7.07-38.991,10.608-58.484.476-2.621-2.709-4.276-4.588-2.388-7.196,7.232-14.625,14.233-22.271,20.988-1.331,1.176-3.418.768-4.217-.818-3.457-6.86-11.551-22.922-16.828-33.394-1.002-1.989-3.84-1.986-4.842.003Z"/><path class="d" d="M60.836,210.96c-3.843,0-6.5,2.967-6.5,6.44,0,3.885,2.714,6.56,6.5,6.56,3.932,0,6.5-2.7,6.5-6.56,0-3.496-2.67-6.44-6.5-6.44Z"/><path class="e" d="M56.344,234.036c-3.141,6.233-6.282,12.465-9.423,18.698-1.533,3.042-3.066,6.084-4.6,9.126-.711,1.41-1.421,2.819-2.132,4.229-.198.393-.502,1.404-.87,1.615-.029.017-.371-.004-.208.047-.459-.141-1.088-.917-1.476-1.262-.595-.53-1.189-1.062-1.782-1.595-1.304-1.173-2.601-2.353-3.891-3.54-2.405-2.213-4.787-4.45-7.146-6.711s-4.695-4.547-7.007-6.857c-.996-.995-1.922-1.967-3.317-2.361-1.283-.362-2.753-.131-3.897.537-1.07.624-1.897,1.645-2.285,2.82-.507,1.539-.036,3.142.243,4.678.595,3.276,1.189,6.552,1.784,9.829,1.249,6.88,2.497,13.761,3.745,20.641,1.218,6.717,2.436,13.434,3.654,20.151.297,1.638.594,3.277.891,4.915.295,1.625.817,3.019,2.211,4.015,1.198.856,2.513.958,3.944.958,1.823,0,3.647,0,5.47,0,13.676,0,27.351,0,41.027,0,6.879,0,13.758,0,20.638,0,1.658,0,3.315,0,4.973,0,1.648,0,3.156-.186,4.43-1.333,1.017-.916,1.443-2.082,1.681-3.394.312-1.72.624-3.44.936-5.161,2.466-13.597,4.931-27.195,7.399-40.792.624-3.44,1.248-6.88,1.873-10.32.254-1.4.614-2.788.154-4.186-.401-1.218-1.274-2.268-2.401-2.88-1.105-.601-2.421-.794-3.648-.503-1.468.347-2.42,1.36-3.45,2.388-2.368,2.366-4.762,4.707-7.18,7.022s-4.86,4.605-7.326,6.869c-1.174,1.078-2.354,2.15-3.539,3.217-.533.48-1.068.958-1.603,1.436-.441.393-1.112,1.252-1.654,1.421.16-.05-.109.008-.2-.056-.156-.111-.287-.442-.4-.659-.423-.815-.827-1.641-1.24-2.461-.991-1.967-1.983-3.935-2.974-5.902-2.334-4.633-4.669-9.265-7.003-13.898-1.187-2.355-2.374-4.71-3.56-7.066-1.057-2.098-1.907-4.821-4.192-5.863-2.473-1.129-5.305-.152-6.648,2.189-1.54,2.684,2.606,5.104,4.145,2.423.145-.252.28-.276.307-.305-.019.02.108-.1.273.081.353.389.836,1.646,1.177,2.323,1.046,2.075,2.092,4.151,3.137,6.226,2.283,4.531,4.567,9.062,6.85,13.593,1.81,3.592,3.62,7.184,5.43,10.776,1.143,2.268,3.222,3.792,5.872,3.268,1.379-.273,2.343-1.156,3.361-2.061,1.192-1.059,2.379-2.123,3.56-3.193,4.666-4.228,9.249-8.549,13.744-12.958,1.024-1.005,2.044-2.014,3.059-3.028.411-.411.801-.851,1.252-1.171-.166.118.003.053.242.119-.268-.074.061.029.117.254-.096-.387-.138.469-.154.572-.27,1.725-.625,3.442-.937,5.16-2.319,12.778-4.636,25.556-6.954,38.334-.579,3.195-1.159,6.389-1.738,9.584-.134.737-.267,1.474-.401,2.212-.135.746-.166,1.754-.446,2.457-.306.771-.947.466-1.846.466-6.465,0-12.93,0-19.394,0-12.93,0-25.859,0-38.789,0-3.315,0-6.631,0-9.946,0-.663,0-1.326,0-1.989,0-.595,0-1.923.252-2.486,0s-.497-1.255-.621-1.941c-1.159-6.389-2.317-12.779-3.476-19.168s-2.318-12.778-3.477-19.167c-.594-3.276-1.189-6.553-1.783-9.829-.268-1.474-.535-2.949-.803-4.423-.237-1.303-.851-3.16-.767-4.357-.005.07-.005.415.074-.134-.003.021-.353.51.141-.113-.154.194.01-.042.246.022-.375-.102.142.183.248.276.655.573,1.243,1.244,1.861,1.858,2.206,2.19,4.433,4.359,6.681,6.505,4.459,4.257,8.918,8.646,13.688,12.555,2.108,1.728,5.238,1.696,7.128-.382.989-1.088,1.537-2.622,2.19-3.918.785-1.558,1.571-3.116,2.356-4.674,2.917-5.787,5.833-11.575,8.75-17.362,1.421-2.82,2.842-5.639,4.262-8.459,1.387-2.752-2.753-5.185-4.145-2.423Z"/><path class="e" d="M60.836,208.56c-3.899.05-7.321,2.451-8.507,6.199-1.084,3.425.046,7.518,2.905,9.727,2.878,2.224,7.101,2.495,10.269.69,3.295-1.878,4.636-5.74,4.081-9.36-.656-4.277-4.536-7.202-8.748-7.256-1.256-.016-2.458,1.115-2.4,2.4.059,1.314,1.054,2.383,2.4,2.4.189.002.377.018.566.022.608.013-.494-.128.087.009.288.068.574.125.856.218.043.014.279.07.326.116l-.258-.11c.103.046.205.096.305.148.225.116.696.314.85.53l-.226-.172c.085.07.167.142.248.216.08.074.159.15.236.229.055.056.328.286.329.365-.004-.215-.235-.356-.029-.029.161.256.308.515.458.777.097.169.226.214-.039-.122.116.147.166.45.217.629.059.206.236.623.181.823l-.042-.299c.009.086.016.171.021.257.001.144.014.289.014.434,0,.197.07.715-.046.883l.042-.298c-.017.111-.036.222-.058.332-.038.189-.083.376-.136.562-.037.13-.085.256-.122.386-.151.527.251-.468.002.014-.119.231-.233.461-.372.681-.068.107-.154.207-.216.317-.159.279.397-.426.042-.069-.03.03-.648.645-.655.634-.023-.041.464-.322-.006-.012-.086.057-.173.111-.262.163-.135.079-.276.145-.413.221-.451.249.383-.092.063-.022-.289.063-.569.194-.861.262-.11.025-.221.043-.33.068-.266.043-.225.04.126-.011-.117.013-.235.023-.352.031-.3.02-.601.023-.901.01-.131-.006-.406.019-.523-.042.029.015.58.114.131.009-.297-.07-.592-.132-.883-.228-.087-.029-.327-.07-.38-.139.326.14.371.155.136.046-.071-.035-.141-.071-.211-.11-.101-.055-.725-.353-.726-.464,0-.013.386.341.123.082-.11-.109-.229-.209-.338-.321-.086-.089-.165-.211-.261-.288-.246-.197.314.481.04.054-.172-.269-.327-.54-.484-.817-.271-.478.157.507-.014-.022-.034-.105-.074-.207-.107-.312-.068-.216-.309-.772-.234-.989-.008.025.048.599.02.115-.01-.181-.026-.36-.03-.541-.003-.148-.002-.296.003-.443.003-.086.007-.172.014-.257.027-.271.018-.227-.027.131-.066-.216.165-.777.229-.979.038-.12.083-.374.168-.468l-.111.271c.046-.1.095-.198.146-.295.119-.224.312-.675.525-.831l-.173.229c.07-.084.142-.166.216-.246.111-.121.228-.237.348-.348l.122-.11c.199-.166.166-.145-.1.064.071-.097.311-.219.412-.282.142-.089.288-.173.437-.25.1-.052.202-.102.305-.148l-.258.109c.2-.188.741-.244,1.007-.301.181-.039.606-.245.08-.028.198-.081.541-.036.752-.039,1.255-.016,2.459-1.092,2.4-2.4-.058-1.286-1.055-2.417-2.4-2.4Z"/><path class="d" d="M8.913,227.818c-3.843,0-6.5,2.967-6.5,6.44,0,3.885,2.714,6.56,6.5,6.56,3.932,0,6.5-2.7,6.5-6.56,0-3.496-2.67-6.44-6.5-6.44Z"/><path class="d" d="M112.76,227.818c-3.843,0-6.5,2.967-6.5,6.44,0,3.885,2.714,6.56,6.5,6.56,3.932,0,6.5-2.7,6.5-6.56,0-3.496-2.67-6.44-6.5-6.44Z"/><path class="e" d="M8.913,225.418c-3.899.05-7.321,2.451-8.507,6.199-1.084,3.425.046,7.518,2.905,9.727,2.878,2.224,7.101,2.495,10.269.69,3.295-1.878,4.636-5.74,4.081-9.36-.656-4.277-4.536-7.202-8.748-7.256-1.256-.016-2.458,1.115-2.4,2.4.059,1.314,1.054,2.383,2.4,2.4.189.002.377.018.566.022.608.013-.494-.128.087.009.288.068.574.125.856.218.043.014.279.07.326.116l-.258-.11c.103.046.205.096.305.148.225.116.696.314.85.53l-.226-.172c.085.07.167.142.248.216.08.074.159.15.236.229.055.056.328.286.329.365-.004-.215-.235-.356-.029-.029.161.256.308.515.458.777.097.169.226.214-.039-.122.116.147.166.45.217.629.059.206.236.623.181.823l-.042-.299c.009.086.016.171.021.257.001.144.014.289.014.434,0,.197.07.715-.046.883l.042-.298c-.017.111-.036.222-.058.332-.038.189-.083.376-.136.562-.037.13-.085.256-.122.386-.151.527.251-.468.002.014-.119.231-.233.461-.372.681-.068.107-.154.207-.216.317-.159.279.397-.426.042-.069-.03.03-.648.645-.655.634-.023-.041.464-.322-.006-.012-.086.057-.173.111-.262.163-.135.079-.276.145-.413.221-.451.249.383-.092.063-.022-.289.063-.569.194-.861.262-.11.025-.221.043-.33.068-.266.043-.225.04.126-.011-.117.013-.235.023-.352.031-.3.02-.601.023-.901.01-.131-.006-.406.019-.523-.042.029.015.58.114.131.009-.297-.07-.592-.132-.883-.228-.087-.029-.327-.07-.38-.139.326.14.371.155.136.046-.071-.035-.141-.071-.211-.11-.101-.055-.725-.353-.726-.464,0-.013.386.341.123.082-.11-.109-.229-.209-.338-.321-.086-.089-.165-.211-.261-.288-.246-.197.314.481.04.054-.172-.269-.327-.54-.484-.817-.271-.478.157.507-.014-.022-.034-.105-.074-.207-.107-.312-.068-.216-.309-.772-.234-.989-.008.025.048.599.02.115-.01-.181-.026-.36-.03-.541-.003-.148-.002-.296.003-.443.003-.086.007-.172.014-.257.027-.271.018-.227-.027.131-.066-.216.165-.777.229-.979.038-.12.083-.374.168-.468l-.111.271c.046-.1.095-.198.146-.295.119-.224.312-.675.525-.831l-.173.229c.07-.084.142-.166.216-.246.111-.121.228-.237.348-.348l.122-.11c.199-.166.166-.145-.1.064.071-.097.311-.219.412-.282.142-.089.288-.173.437-.25.1-.052.202-.102.305-.148l-.258.109c.2-.188.741-.244,1.007-.301.181-.039.606-.245.08-.028.198-.081.541-.036.752-.039,1.255-.016,2.459-1.092,2.4-2.4-.058-1.286-1.055-2.417-2.4-2.4Z"/><path class="e" d="M112.76,225.418c-3.899.05-7.321,2.451-8.507,6.199-1.084,3.425.046,7.518,2.905,9.727,2.878,2.224,7.101,2.495,10.269.69,3.295-1.878,4.636-5.74,4.081-9.36-.656-4.277-4.536-7.202-8.748-7.256-1.256-.016-2.458,1.115-2.4,2.4.059,1.314,1.054,2.383,2.4,2.4.189.002.377.018.566.022.608.013-.494-.128.087.009.288.068.574.125.856.218.043.014.279.07.326.116l-.258-.11c.103.046.205.096.305.148.225.116.696.314.85.53l-.226-.172c.085.07.167.142.248.216.08.074.159.15.236.229.055.056.328.286.329.365-.004-.215-.235-.356-.029-.029.161.256.308.515.458.777.097.169.226.214-.039-.122.116.147.166.45.217.629.059.206.236.623.181.823l-.042-.299c.009.086.016.171.021.257.001.144.014.289.014.434,0,.197.07.715-.046.883l.042-.298c-.017.111-.036.222-.058.332-.038.189-.083.376-.136.562-.037.13-.085.256-.122.386-.151.527.251-.468.002.014-.119.231-.233.461-.372.681-.068.107-.154.207-.216.317-.159.279.397-.426.042-.069-.03.03-.648.645-.655.634-.023-.041.464-.322-.006-.012-.086.057-.173.111-.262.163-.135.079-.276.145-.413.221-.451.249.383-.092.063-.022-.289.063-.569.194-.861.262-.11.025-.221.043-.33.068-.266.043-.225.04.126-.011-.117.013-.235.023-.352.031-.3.02-.601.023-.901.01-.131-.006-.406.019-.523-.042.029.015.58.114.131.009-.297-.07-.592-.132-.883-.228-.087-.029-.327-.07-.38-.139.326.14.371.155.136.046-.071-.035-.141-.071-.211-.11-.101-.055-.725-.353-.726-.464,0-.013.386.341.123.082-.11-.109-.229-.209-.338-.321-.086-.089-.165-.211-.261-.288-.246-.197.314.481.04.054-.172-.269-.327-.54-.484-.817-.271-.478.157.507-.014-.022-.034-.105-.074-.207-.107-.312-.068-.216-.309-.772-.234-.989-.008.025.048.599.02.115-.01-.181-.026-.36-.03-.541-.003-.148-.002-.296.003-.443.003-.086.007-.172.014-.257.027-.271.018-.227-.027.131-.066-.216.165-.777.229-.979.038-.12.083-.374.168-.468l-.111.271c.046-.1.095-.198.146-.295.119-.224.312-.675.525-.831l-.173.229c.07-.084.142-.166.216-.246.111-.121.228-.237.348-.348l.122-.11c.199-.166.166-.145-.1.064.071-.097.311-.219.412-.282.142-.089.288-.173.437-.25.1-.052.202-.102.305-.148l-.258.109c.2-.188.741-.244,1.007-.301.181-.039.606-.245.08-.028.198-.081.541-.036.752-.039,1.255-.016,2.459-1.092,2.4-2.4-.058-1.286-1.055-2.417-2.4-2.4Z"/><path class="d" d="M109.832,74.008c-28.154,0-97.991,0-97.991,0"/><path class="d" d="M30.634,39.975c-5.802-4.267-11.479-8.544-17.196-12.81-.659-.491-1.597-.025-1.597.797,0,12.983,0,51.787,0,63.055,0,1.105.886,1.992,1.991,1.992,12.628,0,81.385,0,94.012,0,1.105,0,1.993-.894,1.993-1.999,0-18.309,0-44.682,0-62.995,0-.829-.943-1.297-1.6-.792-8.642,6.638-17.871,13.276-26.886,19.765-.462.333-1.103.215-1.414-.262-2.666-4.09-12.964-19.888-18.257-28.008-.393-.603-1.273-.598-1.666.005-6.084,9.334-12.169,18.667-18.255,28-.311.476-.959.598-1.423.269-3.29-2.334-6.514-4.674-9.701-7.018Z"/><path class="e" d="M109.832,71.608c-15.136,0-30.272,0-45.408,0-14.568,0-29.135,0-43.703,0-2.96,0-5.92,0-8.881,0-3.089,0-3.094,4.8,0,4.8,8.435,0,16.87,0,25.305,0,16.452,0,32.905,0,49.357,0,7.776,0,15.553,0,23.329,0,3.089,0,3.094-4.8,0-4.8h0Z"/><path class="e" d="M31.845,37.903c-3.147-2.315-6.28-4.649-9.409-6.988-1.558-1.164-3.114-2.33-4.671-3.494-1.398-1.046-3-2.802-4.854-2.854-1.951-.054-3.357,1.543-3.47,3.395-.045.729,0,1.474,0,2.204,0,1.822,0,3.644,0,5.466,0,9.852,0,19.703,0,29.555,0,8.356,0,16.711,0,25.067,0,2.921,1.614,5.097,4.675,5.155.96.018,1.921,0,2.881,0,2.865,0,5.73,0,8.595,0,17.592,0,35.184,0,52.776,0,7.54,0,15.081,0,22.621,0,2.22,0,4.448.056,6.668,0,1.363-.034,2.579-.479,3.494-1.521,1.249-1.423,1.086-3.222,1.086-4.984,0-3.003,0-6.007,0-9.01,0-13.193,0-26.386,0-39.578,0-3.039,0-6.077,0-9.116,0-1.287.238-2.873-.128-4.115-.592-2.012-2.952-3.075-4.826-2.079-1.44.765-2.746,2.047-4.05,3.031-1.602,1.208-3.21,2.409-4.822,3.603-3.124,2.314-6.265,4.605-9.413,6.886-1.51,1.094-3.022,2.186-4.535,3.276-.787.567-1.574,1.134-2.362,1.701-.523.376-1.448,1.285-1.997,1.36h1.276c.701.13.674.846.441.366-.053-.11-.14-.215-.207-.318-.142-.217-.283-.434-.425-.652-.364-.558-.728-1.117-1.092-1.675-.972-1.491-1.944-2.982-2.915-4.472-2.344-3.596-4.689-7.193-7.033-10.789-1.16-1.779-2.32-3.559-3.48-5.338-1.051-1.612-2.005-3.53-3.294-4.963-.895-.995-2.284-1.391-3.568-.982-1.604.51-2.375,2.251-3.23,3.563-1.725,2.647-3.451,5.294-5.176,7.941-1.907,2.925-3.814,5.851-5.722,8.776-.999,1.532-1.998,3.065-2.997,4.597-.454.697-.908,1.393-1.362,2.09-.227.348-.454.697-.681,1.045-.136.209-.273.418-.409.627-.467.57-.334.59.401.06l1.211.328c-1.767-.859-3.4-2.357-4.992-3.509-1.674-1.211-3.342-2.43-5.006-3.653-1.045-.768-2.678-.175-3.284.861-.713,1.218-.187,2.514.861,3.284,1.793,1.318,3.59,2.631,5.394,3.934.909.657,1.82,1.312,2.733,1.964.949.678,1.867,1.513,3.082,1.592,2.569.167,3.628-2.26,4.834-4.109,1.317-2.02,2.634-4.04,3.951-6.06,2.543-3.9,5.086-7.801,7.629-11.702,1.271-1.95,2.543-3.901,3.814-5.851.151-.232,1.032-1.289.954-1.463.046.102-2.089-.527-1.995-.098.033.151.204.313.29.445.36.552.719,1.103,1.079,1.655,3.458,5.304,6.916,10.609,10.373,15.913,1.464,2.246,2.929,4.493,4.393,6.739,1.326,2.034,2.753,5.262,5.74,4.442,1.037-.285,1.976-1.186,2.831-1.801.919-.662,1.837-1.323,2.756-1.985,1.908-1.376,3.814-2.753,5.717-4.136,3.661-2.659,7.31-5.335,10.931-8.048.832-.623,1.662-1.248,2.49-1.875.444-.336.887-.673,1.33-1.01.42-.32,1.248-.705,1.51-1.154l.188-.144-2.011-.934c-.053.092,0,.554,0,.699,0,.354,0,.708,0,1.062,0,.908,0,1.815,0,2.723,0,3.624,0,7.247,0,10.871,0,15.181,0,30.363,0,45.544,0,.41,0,.82,0,1.23,0,.721-.166.447.121.237.334-.245.139-.118-.248-.118-.539,0-1.079,0-1.618,0-1.42,0-2.841,0-4.261,0-4.004,0-8.007,0-12.011,0-10.512,0-21.024,0-31.536,0-10.109,0-20.217,0-30.326,0-3.473,0-6.946,0-10.419,0-.611,0-1.223,0-1.834,0-.194,0-1.376-.132-1.473,0,.248-.336.358.983.409-.041.021-.41,0-.827,0-1.238,0-.907,0-1.813,0-2.72,0-11.061,0-22.122,0-33.183,0-5.589,0-11.177,0-16.766,0-2.198,0-4.396,0-6.595,0-.411,0-.823,0-1.234,0-.163.066-.467,0-.617-.086-.193-2.003,1.067-2.014,1.021.036.153.806.602.974.727,1.817,1.357,3.633,2.717,5.45,4.075,3.583,2.68,7.169,5.355,10.772,8.007,1.045.769,2.678.174,3.284-.861.713-1.219.186-2.513-.861-3.284Z"/><path class="f" d="M271.619,236.101c-.231-1.041-1.71-1.041-1.941,0-.827,3.726-2.11,7.203-3.817,10.26-4.076,7.298-9.744,11.521-16.212,13.55-10.091,3.166-19.887-1.128-28.078-9.205-.712-.702-1.897-.031-1.671.943,4.651,20.009,8.557,36.404,13.347,56.166.239.985,1.173,1.644,2.179,1.523,5.709-.688,22.78-2.784,35.212-2.784,13.344,0,29.54,2.09,35.223,2.781,1.01.123,1.944-.541,2.181-1.53,4.765-19.971,8.739-36.315,13.335-56.136.226-.973-.959-1.644-1.671-.943-8.186,8.064-17.975,12.349-28.058,9.185-6.468-2.029-12.137-6.252-16.212-13.55-1.707-3.057-2.99-6.534-3.817-10.26Z"/><path class="e" d="M273.934,235.463c-1.14-3.195-5.502-3.379-6.57,0-.925,2.929-1.571,5.802-2.979,8.568-2.298,4.516-5.604,8.505-9.974,11.135-4.182,2.517-9.07,3.839-13.955,3.255-5.304-.634-10.249-3.39-14.29-6.774-2.012-1.685-4.288-4.94-7.191-3.026-1.477.974-1.61,2.561-1.276,4.148.369,1.75.812,3.488,1.219,5.23,1.441,6.171,2.891,12.341,4.352,18.507,1.448,6.109,2.906,12.215,4.374,18.318.751,3.125,1.505,6.25,2.261,9.374.715,2.956,1.045,7.161,4.87,7.508,1.513.137,3.182-.276,4.689-.452,2.111-.246,4.223-.481,6.336-.702,5.285-.552,10.581-1.023,15.886-1.32,11.112-.622,22.184.071,33.24,1.231,2.277.239,4.552.497,6.825.769,1.6.191,3.487.707,5.087.428,3.602-.628,3.852-4.611,4.546-7.514.77-3.222,1.542-6.443,2.314-9.665,2.915-12.166,5.831-24.332,8.677-36.514.366-1.569.732-3.138,1.096-4.707.402-1.733.508-3.516-1.167-4.621-2.989-1.972-5.436,1.586-7.518,3.294-3.965,3.252-8.798,5.868-13.95,6.486-10.46,1.256-19.672-5.764-24.112-14.772-1.28-2.597-2.147-5.37-2.788-8.188-.685-3.011-5.314-1.737-4.629,1.276,2.32,10.198,8.406,19.824,18.231,24.16,4.801,2.118,9.861,2.917,15.061,2.087,5.165-.825,9.982-3.334,14.1-6.487,1.127-.863,2.223-1.763,3.274-2.719.236-.215.642-.472.8-.744l.317-.305-1.059.058-1.077-1.279c-.055.239-.111.477-.166.716-.128.553-.257,1.106-.386,1.659-.681,2.924-1.365,5.847-2.053,8.769-1.355,5.758-2.723,11.513-4.098,17.266-1.384,5.794-2.774,11.586-4.162,17.378-.73,3.048-1.459,6.097-2.187,9.146-.335,1.405.168.22.294.504-.016-.036-.937-.086-1.08-.104-.764-.094-1.528-.188-2.293-.28-9.857-1.194-19.769-2.21-29.703-2.387-9.905-.176-19.825.753-29.662,1.828-1.837.201-3.672.412-5.507.63-.667.079-1.335.16-2.002.24-.161.019-1.076.079-.705.103.132.008.353.171.317.2.046-.038-.326-1.345-.346-1.429-1.434-5.92-2.862-11.841-4.28-17.765-2.795-11.674-5.552-23.356-8.273-35.047-.051-.22-.103-.736-.223-.96l-.112-.482c-.278,1.014-.813,1.429-1.608,1.246-.994-.053-.269.226.107.578.212.199.427.396.642.591,1.105.998,2.26,1.936,3.449,2.832,2.162,1.629,4.478,3.051,6.959,4.139,4.866,2.134,10.05,2.973,15.315,2.088,10.103-1.697,18.237-9.262,22.249-18.454.551-1.263,1.054-2.546,1.483-3.856.233-.711.444-1.428.637-2.151.078-.292.153-.586.225-.879l.106-.443c.419-1.171-.443-1.319-2.586-.446.435,1.22,1.636,2.038,2.952,1.676,1.181-.324,2.114-1.726,1.676-2.952Z"/><path class="d" d="M270.647,213.177c-3.843,0-6.5,2.967-6.5,6.44,0,3.885,2.714,6.56,6.5,6.56,3.932,0,6.5-2.7,6.5-6.56,0-3.496-2.67-6.44-6.5-6.44Z"/><path class="e" d="M270.647,210.777c-3.899.05-7.321,2.451-8.507,6.199-1.084,3.425.046,7.518,2.905,9.727,2.878,2.224,7.101,2.495,10.269.69,3.295-1.878,4.636-5.74,4.081-9.36-.656-4.277-4.536-7.202-8.748-7.256-1.256-.016-2.458,1.115-2.4,2.4.059,1.314,1.054,2.383,2.4,2.4.189.002.377.018.566.022.608.013-.494-.128.087.009.288.068.574.125.856.218.043.014.279.07.326.116l-.258-.11c.103.046.205.096.305.148.225.116.696.314.85.53l-.226-.172c.085.07.167.142.248.216.08.074.159.15.236.229.055.056.328.286.329.365-.004-.215-.235-.356-.029-.029.161.256.308.515.458.777.097.169.226.214-.039-.122.116.147.166.45.217.629.059.206.236.623.181.823l-.042-.299c.009.086.016.171.021.257.001.144.014.289.014.434,0,.197.07.715-.046.883l.042-.298c-.017.111-.036.222-.058.332-.038.189-.083.376-.136.562-.037.13-.085.256-.122.386-.151.527.251-.468.002.014-.119.231-.233.461-.372.681-.068.107-.154.207-.216.317-.159.279.397-.426.042-.069-.03.03-.648.645-.655.634-.023-.041.464-.322-.006-.012-.086.057-.173.111-.262.163-.135.079-.276.145-.413.221-.451.249.383-.092.063-.022-.289.063-.569.194-.861.262-.11.025-.221.043-.33.068-.266.043-.225.04.126-.011-.117.013-.235.023-.352.031-.3.02-.601.023-.901.01-.131-.006-.406.019-.523-.042.029.015.58.114.131.009-.297-.07-.592-.132-.883-.228-.087-.029-.327-.07-.38-.139.326.14.371.155.136.046-.071-.035-.141-.071-.211-.11-.101-.055-.725-.353-.726-.464,0-.013.386.341.123.082-.11-.109-.229-.209-.338-.321-.086-.089-.165-.211-.261-.288-.246-.197.314.481.04.054-.172-.269-.327-.54-.484-.817-.271-.478.157.507-.014-.022-.034-.105-.074-.207-.107-.312-.068-.216-.309-.772-.234-.989-.008.025.048.599.02.115-.01-.181-.026-.36-.03-.541-.003-.148-.002-.296.003-.443.003-.086.007-.172.014-.257.027-.271.018-.227-.027.131-.066-.216.165-.777.229-.979.038-.12.083-.374.168-.468l-.111.271c.046-.1.095-.198.146-.295.119-.224.312-.675.525-.831l-.173.229c.07-.084.142-.166.216-.246.111-.121.228-.237.348-.348l.122-.11c.199-.166.166-.145-.1.064.071-.097.311-.219.412-.282.142-.089.288-.173.437-.25.1-.052.202-.102.305-.148l-.258.109c.2-.188.741-.244,1.007-.301.181-.039.606-.245.08-.028.198-.081.541-.036.752-.039,1.255-.016,2.459-1.092,2.4-2.4-.058-1.286-1.055-2.417-2.4-2.4Z"/><path class="d" d="M218.715,230.036c-3.843,0-6.5,2.967-6.5,6.44,0,3.885,2.714,6.56,6.5,6.56,3.932,0,6.5-2.7,6.5-6.56,0-3.496-2.67-6.44-6.5-6.44Z"/><path class="d" d="M322.562,230.036c-3.843,0-6.5,2.967-6.5,6.44,0,3.885,2.714,6.56,6.5,6.56,3.932,0,6.5-2.7,6.5-6.56,0-3.496-2.67-6.44-6.5-6.44Z"/><path class="e" d="M218.715,227.636c-3.899.05-7.321,2.451-8.507,6.199-1.084,3.425.046,7.518,2.905,9.727,2.878,2.224,7.101,2.495,10.269.69,3.295-1.878,4.636-5.74,4.081-9.36-.656-4.277-4.536-7.202-8.748-7.256-1.256-.016-2.458,1.115-2.4,2.4.059,1.314,1.054,2.383,2.4,2.4.189.002.377.018.566.022.608.013-.494-.128.087.009.288.068.574.125.856.218.043.014.279.07.326.116l-.258-.11c.103.046.205.096.305.148.225.116.696.314.85.53l-.226-.172c.085.07.167.142.248.216.08.074.159.15.236.229.055.056.328.286.329.365-.004-.215-.235-.356-.029-.029.161.256.308.515.458.777.097.169.226.214-.039-.122.116.147.166.45.217.629.059.206.236.623.181.823l-.042-.299c.009.086.016.171.021.257.001.144.014.289.014.434,0,.197.07.715-.046.883l.042-.298c-.017.111-.036.222-.058.332-.038.189-.083.376-.136.562-.037.13-.085.256-.122.386-.151.527.251-.468.002.014-.119.231-.233.461-.372.681-.068.107-.154.207-.216.317-.159.279.397-.426.042-.069-.03.03-.648.645-.655.634-.023-.041.464-.322-.006-.012-.086.057-.173.111-.262.163-.135.079-.276.145-.413.221-.451.249.383-.092.063-.022-.289.063-.569.194-.861.262-.11.025-.221.043-.33.068-.266.043-.225.04.126-.011-.117.013-.235.023-.352.031-.3.02-.601.023-.901.01-.131-.006-.406.019-.523-.042.029.015.58.114.131.009-.297-.07-.592-.132-.883-.228-.087-.029-.327-.07-.38-.139.326.14.371.155.136.046-.071-.035-.141-.071-.211-.11-.101-.055-.725-.353-.726-.464,0-.013.386.341.123.082-.11-.109-.229-.209-.338-.321-.086-.089-.165-.211-.261-.288-.246-.197.314.481.04.054-.172-.269-.327-.54-.484-.817-.271-.478.157.507-.014-.022-.034-.105-.074-.207-.107-.312-.068-.216-.309-.772-.234-.989-.008.025.048.599.02.115-.01-.181-.026-.36-.03-.541-.003-.148-.002-.296.003-.443.003-.086.007-.172.014-.257.027-.271.018-.227-.027.131-.066-.216.165-.777.229-.979.038-.12.083-.374.168-.468l-.111.271c.046-.1.095-.198.146-.295.119-.224.312-.675.525-.831l-.173.229c.07-.084.142-.166.216-.246.111-.121.228-.237.348-.348l.122-.11c.199-.166.166-.145-.1.064.071-.097.311-.219.412-.282.142-.089.288-.173.437-.25.1-.052.202-.102.305-.148l-.258.109c.2-.188.741-.244,1.007-.301.181-.039.606-.245.08-.028.198-.081.541-.036.752-.039,1.255-.016,2.459-1.092,2.4-2.4-.058-1.286-1.055-2.417-2.4-2.4Z"/><path class="e" d="M322.562,227.636c-3.899.05-7.321,2.451-8.507,6.199-1.084,3.425.046,7.518,2.905,9.727,2.878,2.224,7.101,2.495,10.269.69,3.295-1.878,4.636-5.74,4.081-9.36-.656-4.277-4.536-7.202-8.748-7.256-1.256-.016-2.458,1.115-2.4,2.4.059,1.314,1.054,2.383,2.4,2.4.189.002.377.018.566.022.608.013-.494-.128.087.009.288.068.574.125.856.218.043.014.279.07.326.116l-.258-.11c.103.046.205.096.305.148.225.116.696.314.85.53l-.226-.172c.085.07.167.142.248.216.08.074.159.15.236.229.055.056.328.286.329.365-.004-.215-.235-.356-.029-.029.161.256.308.515.458.777.097.169.226.214-.039-.122.116.147.166.45.217.629.059.206.236.623.181.823l-.042-.299c.009.086.016.171.021.257.001.144.014.289.014.434,0,.197.07.715-.046.883l.042-.298c-.017.111-.036.222-.058.332-.038.189-.083.376-.136.562-.037.13-.085.256-.122.386-.151.527.251-.468.002.014-.119.231-.233.461-.372.681-.068.107-.154.207-.216.317-.159.279.397-.426.042-.069-.03.03-.648.645-.655.634-.023-.041.464-.322-.006-.012-.086.057-.173.111-.262.163-.135.079-.276.145-.413.221-.451.249.383-.092.063-.022-.289.063-.569.194-.861.262-.11.025-.221.043-.33.068-.266.043-.225.04.126-.011-.117.013-.235.023-.352.031-.3.02-.601.023-.901.01-.131-.006-.406.019-.523-.042.029.015.58.114.131.009-.297-.07-.592-.132-.883-.228-.087-.029-.327-.07-.38-.139.326.14.371.155.136.046-.071-.035-.141-.071-.211-.11-.101-.055-.725-.353-.726-.464,0-.013.386.341.123.082-.11-.109-.229-.209-.338-.321-.086-.089-.165-.211-.261-.288-.246-.197.314.481.04.054-.172-.269-.327-.54-.484-.817-.271-.478.157.507-.014-.022-.034-.105-.074-.207-.107-.312-.068-.216-.309-.772-.234-.989-.008.025.048.599.02.115-.01-.181-.026-.36-.03-.541-.003-.148-.002-.296.003-.443.003-.086.007-.172.014-.257.027-.271.018-.227-.027.131-.066-.216.165-.777.229-.979.038-.12.083-.374.168-.468l-.111.271c.046-.1.095-.198.146-.295.119-.224.312-.675.525-.831l-.173.229c.07-.084.142-.166.216-.246.111-.121.228-.237.348-.348l.122-.11c.199-.166.166-.145-.1.064.071-.097.311-.219.412-.282.142-.089.288-.173.437-.25.1-.052.202-.102.305-.148l-.258.109c.2-.188.741-.244,1.007-.301.181-.039.606-.245.08-.028.198-.081.541-.036.752-.039,1.255-.016,2.459-1.092,2.4-2.4-.058-1.286-1.055-2.417-2.4-2.4Z"/><path class="d" d="M235.094,84.697c-8.953-11.403-19.391-28.989-9.551-40.854,4.622-5.574,13.665-6.498,19.438-2.744.409-2.489,1.264-4.915,2.795-7.249,4.94-7.534,17.472-8.742,22.863-1.031,5.391-7.711,17.922-6.503,22.863,1.031,1.531,2.334,2.386,4.759,2.799,7.248.075-.049.115-.075.115-.075,5.778-3.665,14.729-2.716,19.319,2.82,11.209,13.515-3.892,34.453-13.141,45.22-.425.495-.884,1.009-1.534,1.24-.475.169-1.002.167-1.514.162h-57.814c-.512.005-1.039.007-1.514-.162-.649-.231-1.109-.745-1.534-1.24-1.129-1.314-2.345-2.78-3.59-4.366Z"/><path class="e" d="M246.073,38.95c-4.108-2.533-9.28-3.117-13.92-1.896-4.694,1.235-8.537,4.395-10.755,8.701-4.428,8.594-1.474,18.524,2.699,26.591,2.137,4.131,4.723,8.023,7.518,11.734,1.349,1.792,2.741,3.551,4.179,5.272.641.768,1.263,1.606,2.028,2.253,1.147.972,2.449,1.249,3.92,1.258,4.482.027,8.964,0,13.446,0h43.141c.404,0,.809.003,1.213,0,1.361-.011,2.568-.22,3.669-1.071.915-.707,1.627-1.669,2.364-2.553,2.943-3.531,5.735-7.207,8.22-11.076,4.944-7.697,9.416-17.014,8.037-26.405-.655-4.46-2.979-8.868-6.556-11.662-3.87-3.023-8.891-4.128-13.712-3.434-2.25.324-4.423,1.092-6.361,2.287-2.625,1.618-.217,5.772,2.423,4.145,3.349-2.065,7.475-2.351,11.181-1.128,3.634,1.2,6.365,4.214,7.608,7.786,2.68,7.705-1.028,16.263-4.916,22.968-2.103,3.626-4.504,7.09-7.096,10.384-1.176,1.494-2.365,2.996-3.637,4.409-.576.64-.405.543-1.256.55-.153.001-.307,0-.46,0-4.819,0-9.637,0-14.456,0h-40.289c-.705,0-1.409,0-2.114,0-.138,0-.277,0-.415,0-.882-.005-.78.002-1.396-.699-2.585-2.941-4.987-6.068-7.205-9.293-4.615-6.711-9.334-14.8-9.207-23.21.054-3.587,1.274-7.26,3.829-9.949,2.704-2.847,6.772-3.988,10.617-3.609,1.867.184,3.644.81,5.235,1.791,2.637,1.626,5.05-2.524,2.423-4.145h0Z"/><rect class="f" x="240.721" y="97.548" width="59.836" height="11.413" rx="2" ry="2"/><path class="e" d="M242.721,111.361c8.766,0,17.532,0,26.299,0,9.757,0,19.538.204,29.293,0,1.148-.024,2.241-.313,3.123-1.089,1.352-1.189,1.522-2.757,1.522-4.423v-4.595c0-1.428.099-2.826-.714-4.099-1.169-1.831-3.07-2.008-4.983-2.008h-5.129c-12.225,0-24.449,0-36.674,0h-11.955c-.255,0-.513-.012-.768,0-2.491.116-4.287,1.928-4.413,4.411-.122,2.386-.079,4.849,0,7.237.086,2.6,1.827,4.358,4.4,4.565,1.294.104,2.4-1.178,2.4-2.4,0-1.385-1.103-2.295-2.4-2.4.453.037.318.62.4.146.089-.52,0-1.141,0-1.668v-4.379c0-.162.113-.945,0-1.07.036.04-.273.505-.376.357.043.062.657,0,.726,0h10.937c11.746,0,23.492,0,35.238,0h7.813c.243,0,.754.101.981,0,.021-.009.102.017.118,0-.361.393-.3-.944-.4-.04-.142,1.287,0,2.668,0,3.961v1.979c0,.114-.104,1.021,0,1.101-.421-.329.865-.277.117-.389-1.052-.159-2.254,0-3.315,0h-6.177c-5.84,0-11.68,0-17.52,0h-28.541c-3.089,0-3.094,4.8,0,4.8Z"/><path class="e" d="M263.432,89.254c-3.524-5.726-6.75-11.643-9.564-17.75-2.202-4.781-4.244-9.744-5.415-14.891-1.201-5.276-2.169-11.394-.771-16.708,1.225-4.655,4.275-8.211,8.897-9.461,4.206-1.137,9.255-.215,11.988,3.586,1.103,1.534,3.042,1.534,4.145,0,2.374-3.303,6.666-4.474,10.376-3.932,4.573.668,8.163,3.522,9.874,7.841,2.166,5.468,1.174,11.717.141,17.329-.898,4.877-2.758,9.615-4.747,14.136-3.018,6.857-6.585,13.473-10.51,19.851-1.624,2.638,2.527,5.052,4.145,2.423,3.853-6.26,7.359-12.751,10.343-19.472,2.295-5.17,4.532-10.566,5.488-16.173,1.177-6.901,2.164-14.113-.793-20.719-2.304-5.146-6.922-8.867-12.517-9.819-6.14-1.045-12.248.971-15.945,6.114h4.145c-6.647-9.248-21.345-8.061-27.248,1.409-3.882,6.228-3.475,13.519-2.414,20.474.878,5.754,2.659,11.112,4.924,16.467,3.183,7.525,7.034,14.764,11.315,21.719,1.616,2.626,5.77.218,4.145-2.423h0Z"/><path class="e" d="M268.239,2.318v18.688c0,3.089,4.8,3.094,4.8,0V2.318c0-3.089-4.8-3.094-4.8,0h0Z"/><path class="e" d="M260.139,14.062c7,0,14,0,21,0,3.089,0,3.094-4.8,0-4.8-7,0-14,0-21,0-3.089,0-3.094,4.8,0,4.8h0Z"/></g></svg>