<svg id="b" xmlns="http://www.w3.org/2000/svg" width="255.673" height="291.142" viewBox="0 0 255.673 291.142" style="color: initial !important;"><defs><style>.g{fill:#ffffff;}.h{fill:#f4b467;}.i{fill:#211715;}.j{fill:#79c6e0;}.k{fill:#645d5c;}</style></defs><g id="c"><g id="d"><path class="g" d="M183.029,90.018c1.71-1.53,4.23-2.28,6.59-1.92,2.35.35,4.5,1.77,5.58,3.71.76,1.36,1.01,2.91,1.15,4.42.52,5.95-.66,12.02-3.35,17.44-1.32,2.65-3.03,5.18-5.41,7.1-1.789,1.43-4.808,1.81-7.287,1.795-.581,2.439-1.343,4.561-1.686,5.602-2.125,5.767-15.342,28.21-31.001,31.69l-32.772,2.101c-10.295-1.46-19.747-8.015-27.549-17.353-5.877-7.034-9.08-14.894-10.908-21.697-.396.099-.615.154-.615.154-3.282.82-5.866-.831-7.696-2.29-2.382-1.926-4.095-4.456-5.409-7.099-2.699-5.425-3.872-11.492-3.356-17.446.141-1.51.387-3.059,1.15-4.418,1.079-1.938,3.227-3.361,5.585-3.713s4.881.39,6.582,1.926c0,0-.051-49.716,54.764-49.716,60.741,0,55.636,49.714,55.636,49.714Z"/><path class="k" d="M173.918,28.903c8.471,4.643,12.654,12.689,15.383,19.671,3.757,9.588,4.944,25.289,1.595,38.297l-.365,1.419c-.299-.083-.604-.147-.912-.193-2.799-.427-5.824.708-7.444,2.852-.877-5.547-2.907-10.985-5.946-16.065-2.841-4.748-10.409-13.751-18.063-17.025l-10.548-3.639c-8.558,6.092-23.135,13.983-29.259,14.157-.55.016-.833-5.679-1.021-9.285-.08-1.538-1.664-2.68-2.814-1.801-10.302,7.867-24.355,21.804-34.077,30.849l-7.817,1.879c-1.701-1.536-4.224-2.278-6.582-1.926-.424.063-.842.162-1.247.295-4.438-10.775-4.291-28.9-.919-41.551,3.381-12.699,11.34-25.012,22.617-30.164l10.107-6.908c9.846-8.513,36.862-9.018,49.179-4.316,9.51,3.63,16.879,9.492,20.368,16.579l7.767,6.874Z"/><path class="j" d="M104.808,111.66c-1.934-.2-3.976-1.527-5.126-2.579l-4.246,4.036c-3.537,2.685-5.765,9.435-5.685,12.982.099,4.383-1.918,7.735-5.642,10.778,4.178,1.042,8.391,2.194,12.497,3.446,2.027-2.674,3.642-5.411,3.636-8.985-.005-3.046.339-9.465,2.51-13.313l2.988-6.403c-.302.023-.613.036-.933.038Z"/><path class="j" d="M168.02,125.914c.08-3.547-2.148-10.296-5.685-12.982l-4.394-4.907c-1.228,1.611-3.417,3.372-5.951,3.634-.106,0-.204-.01-.308-.013l3.336,6.193c2.172,3.847,2.516,10.267,2.51,13.313-.006,3.183,1.275,5.702,2.987,8.104,4.012-1.249,8.105-2.387,12.167-3.409-3.096-2.821-4.752-5.951-4.662-9.934Z"/><path class="i" d="M168.223,20.818c-5.077-10.131-16.429-16.942-27.254-19.24-10.296-2.186-21.478-2.071-31.754.162-5.101,1.109-10.283,2.902-14.309,6.329-.988.841-.865,2.529,0,3.394.979.979,2.404.843,3.394,0,.557-.474.995-.79,1.845-1.309.892-.545,1.824-1.022,2.777-1.451,1.691-.76,4.025-1.48,6.049-1.982,4.795-1.189,9.732-1.701,14.663-1.814,9.641-.221,19.104.945,27.64,5.74,5.307,2.981,10.045,7.088,12.803,12.593,1.384,2.762,5.526.334,4.145-2.423h0Z"/><path class="i" d="M66.669,86.606c-3.413-9.476-3.42-20.242-2.212-30.127,1.198-9.802,4.535-19.522,10.62-27.39,3.376-4.366,7.611-8.011,12.631-10.343,1.176-.546,1.471-2.24.861-3.284-.705-1.206-2.104-1.409-3.284-.861-9.932,4.612-16.909,13.98-21.061,23.863-4.216,10.037-5.59,21.273-5.156,32.098.234,5.835.983,11.802,2.97,17.32.439,1.219,1.634,2.039,2.952,1.676,1.178-.324,2.118-1.727,1.676-2.952h0Z"/><path class="i" d="M172.707,30.975c6.644,3.705,10.882,10.002,13.742,16.898,3.065,7.39,4.109,15.467,4.008,23.426-.064,5.04-.637,10.045-1.876,14.934-.759,2.995,3.869,4.273,4.629,1.276,2.358-9.308,2.596-19.126,1.185-28.6-1.161-7.799-3.921-15.615-8.457-22.113-2.849-4.082-6.447-7.534-10.809-9.966-2.701-1.506-5.124,2.638-2.423,4.145h0Z"/><path class="i" d="M146.406,52.149c-4.823,3.419-9.941,6.459-15.213,9.132-2.358,1.196-4.756,2.33-7.236,3.25-1.053.391-2.12.749-3.207,1.033-.502.131-1.006.234-1.515.335-.108.019-.216.037-.325.053.256-.033.296-.039.122-.02-.281.076-.881-.094-.083.12l1.059.617c.273.237.452,1.054.364.458-.041-.275-.107-.546-.145-.822.049.348-.008-.111-.012-.15-.021-.197-.042-.394-.06-.59-.053-.546-.096-1.094-.135-1.641-.142-1.953.058-4.212-.489-6.099-.642-2.214-3.009-3.726-5.263-3.055-1.05.313-1.916,1.183-2.76,1.848-.781.615-1.554,1.241-2.321,1.873-6.96,5.734-13.52,11.949-20.062,18.149-3.454,3.273-6.893,6.562-10.375,9.805-2.266,2.11,1.134,5.498,3.394,3.394,9.945-9.26,19.552-18.925,30.019-27.607.595-.494,1.194-.983,1.796-1.467.466-.375,1.137-.741,1.516-1.2.365-.443.181-.039-.279-.2-.562-.197-.383-.147-.275-.267-.159.178.106,1.684.124,1.996.136,2.46.013,5.364.823,7.717.992,2.885,4.439,1.875,6.66,1.246,2.697-.764,5.301-1.883,7.842-3.055,6.448-2.974,12.668-6.601,18.461-10.707,1.056-.749,1.556-2.095.861-3.284-.611-1.044-2.221-1.615-3.284-.861h0Z"/><path class="i" d="M156.954,59.932c6.071,2.661,11.195,7.801,15.1,13.063,4.381,5.903,7.278,13.044,8.028,20.37.132,1.289,1.009,2.4,2.4,2.4,1.195,0,2.533-1.103,2.4-2.4-.835-8.159-3.771-16.192-8.684-22.793-4.386-5.894-9.989-11.79-16.822-14.785-1.186-.52-2.576-.348-3.284.861-.595,1.018-.332,2.761.861,3.284h0Z"/><path class="i" d="M178.651,117.335c-.082,2.502-.684,4.939-1.412,7.324-.255.835-.53,1.664-.811,2.491-.068.199-.138.396-.208.594-.254.721.119-.224-.092.229-1.089,2.348-2.329,4.607-3.691,6.809-3.967,6.409-8.782,12.479-14.676,17.222-3.198,2.573-6.802,4.622-10.784,5.536-3.009.691-1.736,5.32,1.276,4.629,8.213-1.887,15.043-7.907,20.403-14.134,4.468-5.191,8.618-11.033,11.463-17.293,1.881-4.14,3.183-8.863,3.333-13.407.102-3.09-4.698-3.086-4.8,0h0Z"/><path class="i" d="M74.325,88.323c-3.265-2.788-7.717-3.489-11.635-1.665-4.046,1.884-5.504,5.823-5.815,10.014-.62,8.357,1.955,17.832,7.698,24.095,3.057,3.334,7.235,5.619,11.836,4.608,3.016-.663,1.739-5.291-1.276-4.629-3.259.716-6.273-2.083-8.09-4.468-2.538-3.33-4.088-7.475-4.902-11.55-.412-2.064-.579-4.163-.545-6.267.03-1.839.059-3.97,1.027-5.594,1.678-2.818,5.895-3.212,8.309-1.151.985.841,2.427.967,3.394,0,.862-.862.99-2.549,0-3.394h0Z"/><path class="i" d="M71.699,110.627c1.007,8.25,2.827,16.295,6.365,23.86,4.486,9.592,11.963,18.073,20.859,23.82,4.618,2.984,9.828,5.158,15.283,5.964,1.281.189,2.579-.319,2.952-1.676.311-1.131-.386-2.762-1.676-2.952-9.325-1.378-17.261-6.792-23.635-13.523-6.584-6.953-10.955-15.321-13.335-24.57-.519-2.018-.951-4.058-1.308-6.111-.162-.93-.308-1.862-.441-2.796-.097-.678-.144-1.04-.263-2.015-.157-1.286-.991-2.4-2.4-2.4-1.175,0-2.558,1.105-2.4,2.4h0Z"/><path class="i" d="M184.726,91.715c2.399-2.033,6.436-1.659,8.221,1.002,1.076,1.604,1.087,3.894,1.117,5.746.033,2.027-.118,4.054-.501,6.045-.782,4.059-2.295,8.061-4.705,11.441-.927,1.3-2.135,2.785-3.625,3.453-1.518.68-3.302.755-4.934.755-3.089,0-3.094,4.799,0,4.8,3.962,0,7.52-.859,10.365-3.744,2.912-2.954,4.868-6.776,6.234-10.656,1.406-3.993,2.086-8.309,1.957-12.542s-1.042-8.262-4.759-10.73c-3.983-2.645-9.211-1.975-12.763,1.035-.989.838-.863,2.531,0,3.394.98.98,2.402.841,3.394,0h0Z"/><path class="i" d="M160.638,114.63c1.593,1.255,2.627,2.939,3.448,4.8.422.957.751,1.962,1.02,2.972.125.47.236.944.328,1.422.051.268.103.539.137.81-.039-.311.009.144.015.25.135,2.368.188,4.572,1.126,6.8,1.012,2.404,2.667,4.432,4.605,6.158.968.862,2.44.954,3.394,0,.877-.877.972-2.529,0-3.394-1.624-1.446-3.148-3.117-3.825-5.228-.651-2.029-.398-4.173-.749-6.261-.702-4.18-2.692-9.034-6.104-11.721-1.017-.801-2.401-.993-3.394,0-.833.833-1.024,2.588,0,3.394h0Z"/><path class="i" d="M93.739,111.421c-3.415,2.69-5.398,7.54-6.104,11.721-.343,2.033-.095,4.129-.702,6.107-.669,2.181-2.201,3.893-3.873,5.382-.968.862-.879,2.515,0,3.394.962.962,2.423.865,3.394,0,1.849-1.647,3.486-3.588,4.484-5.871,1.018-2.329,1.097-4.597,1.247-7.086.032-.54.249-1.616.479-2.482.256-.958.564-1.914.955-2.825.821-1.913,1.883-3.662,3.513-4.946,1.019-.803.84-2.554,0-3.394-1.006-1.006-2.372-.805-3.394,0h0Z"/><path class="i" d="M152.948,119.049c1.609,2.946,1.988,6.69,2.137,10.071.08,1.828.019,3.641.464,5.436.532,2.146,1.626,4.118,2.89,5.913.745,1.058,2.098,1.555,3.284.861,1.047-.612,1.611-2.218.861-3.284-1.142-1.623-2.121-3.297-2.516-5.262-.306-1.524-.138-3.181-.241-4.732-.258-3.89-.84-7.96-2.733-11.426-1.481-2.712-5.628-.292-4.145,2.423h0Z"/><path class="i" d="M98.683,141.529c1.357-1.801,2.534-3.7,3.262-5.848.658-1.943.654-3.929.725-5.949.122-3.495.464-7.404,2.153-10.493,1.483-2.711-2.66-5.137-4.145-2.423-1.959,3.581-2.528,7.816-2.759,11.837-.094,1.636.06,3.325-.353,4.921-.535,2.068-1.758,3.847-3.028,5.532-.781,1.036-.165,2.683.861,3.284,1.229.719,2.501.177,3.284-.861h0Z"/><path class="g" d="M39.456,238.676c1.37,4.38-3.055,12.708-5.328,14.681-3.882,3.368-7.422,4.856-12.482,4.952-4.889.093-10.702-1.122-14.173-5.14-2.92-3.381-4.352-5.728-5.025-11.86-.312-2.842.842-11.847,3.255-16.249l33.752,13.616Z"/><path class="i" d="M37.142,239.314c.197.689.226,1.423.127,2.215-.143,1.145-.499,2.29-.886,3.373-.688,1.926-1.66,3.787-2.828,5.466-.345.495-.117.22-.482.633-.204.232-.415.45-.643.659-.979.897-2.096,1.667-3.247,2.325-2.128,1.216-4.49,1.801-6.93,1.905-4.847.207-10.009-.837-13.294-4.663-2.647-3.083-4.15-6.802-4.161-11.03-.006-2.281.321-4.575.759-6.809.476-2.427,1.081-4.983,2.218-7.116,1.453-2.725-2.689-5.152-4.145-2.423-2.47,4.633-3.449,10.452-3.62,15.657-.17,5.164,1.557,10.16,4.762,14.161,3.988,4.978,9.932,7.006,16.185,7.047,3.128.02,6.204-.504,9.066-1.785,2.377-1.064,4.89-2.687,6.581-4.696,1.839-2.186,3.15-4.787,4.177-7.437,1.051-2.713,1.808-5.882.988-8.756-.846-2.965-5.479-1.705-4.629,1.276h0Z"/><path class="g" d="M249.957,225.061c2.413,4.402,3.567,13.407,3.255,16.249-.673,6.132-2.104,8.479-5.025,11.86-3.471,4.018-9.284,5.233-14.173,5.14-5.06-.096-8.599-1.584-12.482-4.952-2.273-1.972-6.698-10.301-5.328-14.681l33.752-13.616Z"/><path class="i" d="M213.891,238.038c-.73,2.56-.192,5.364.65,7.83.827,2.424,1.956,4.817,3.421,6.922,3.254,4.677,8.882,7.362,14.463,7.838,5.997.512,12.98-.907,17.214-5.486,3.719-4.022,5.739-8.848,6.011-14.341.131-2.657-.316-5.404-.789-8.008-.557-3.068-1.355-6.177-2.831-8.944-1.454-2.727-5.599-.305-4.145,2.423,1.965,3.684,2.723,8.522,2.943,12.731.207,3.959-.816,7.971-3.158,11.047-1.427,1.874-3.138,3.488-5.372,4.445-2.165.927-4.555,1.327-6.897,1.405-4.742.157-9.557-1.261-12.813-4.899-1.047-1.17-2.346-3.606-3.08-5.483-.448-1.145-.813-2.331-1.039-3.54-.175-.941-.176-1.869.051-2.664.849-2.976-3.781-4.246-4.629-1.276h0Z"/><g id="e"><path class="h" d="M125.642,158.272c-14.593-9.78-72.103-20.327-87.286-20.675-1.107-.025-2.013.859-2.015,1.966-.034,18.082-.338,106.275-.441,123.784-.006.993.792,1.878,1.781,1.961,14.257,1.188,74.379,16.755,87.984,23.049,1.144.529,3.007.523,4.147-.014,13.566-6.39,73.281-22.264,88.124-23.053,1.012-.054,1.83-.941,1.824-1.955-.104-17.545-.407-105.774-.441-123.797-.002-1.065-.856-1.922-1.921-1.929-17.255-.124-72.25,11.616-87.609,20.8-1.16.694-3.025.615-4.148-.138Z"/><path class="g" d="M42.846,129.515c11.829.6,66.961,9.895,84.859,25.174,19.064-15.424,65.421-24.411,84.186-25.526.585-.035,1.074.435,1.074,1.021v7.589c-20.761,1.439-68.963,12.135-83.179,20.639-1.158.692-3.024.61-4.145-.141-13.671-9.162-64.997-18.995-83.915-20.49v-.046c0-2.089.031-5.511.048-7.217.006-.581.492-1.031,1.072-1.002Z"/><path class="i" d="M44.127,137.735c.001-1.296.009-2.593.021-3.889.005-.541.01-1.082.015-1.623.003-.301.025-.607.009-.907-.05-.916.289-.03-.445.31l-1.211.328c1.536-.171,3.253.188,4.78.364.468.054.936.11,1.403.169.248.031.495.062.743.094.156.02.99.131.427.055,1.198.162,2.395.335,3.59.516,5.823.882,11.62,1.948,17.385,3.149,13.391,2.79,26.826,6.195,39.513,11.375,2.824,1.153,5.908,2.576,8.732,4.126,1.337.734,2.651,1.514,3.922,2.358.561.372,1.113.757,1.655,1.156.117.086.233.173.349.26.568.428-.356-.291.19.149.271.218.539.438.804.662,1.072.909,2.31.872,3.394,0,1.63-1.311,3.942-2.848,6.022-4.072,2.442-1.437,4.969-2.728,7.54-3.919,5.604-2.596,11.434-4.697,17.32-6.555,11.957-3.774,24.254-6.565,36.634-8.531,2.917-.463,5.243-.793,8.059-1.119,1.24-.144,2.481-.274,3.724-.386,1.14-.103,2.387-.329,3.526-.205l-1.211-.328c-.861-.407-.373-1.591-.451-.731-.025.275,0,.566,0,.842v2.633c0,1.277,0,2.555,0,3.832,0,3.089,4.8,3.094,4.8,0v-6.559c0-1.357-.056-2.641-1.146-3.648-1.304-1.204-3.155-.837-4.76-.703-6.217.521-12.408,1.446-18.548,2.54-15.129,2.695-30.279,6.451-44.537,12.25-7.205,2.93-14.276,6.366-20.367,11.263h3.394c-4.772-4.044-10.435-6.859-16.164-9.278-6.929-2.926-14.098-5.247-21.339-7.266-13.189-3.678-26.689-6.505-40.255-8.374-2.439-.336-4.883-.657-7.338-.859-1.784-.147-3.579-.057-4.543,1.76-.616,1.162-.397,2.76-.409,4.037-.015,1.574-.027,3.148-.028,4.722-.002,3.089,4.798,3.094,4.8,0h0Z"/><path class="i" d="M126.853,156.199c-3.609-2.399-7.796-3.982-11.854-5.436-5.502-1.972-11.135-3.58-16.789-5.051-12.489-3.249-25.169-5.83-37.904-7.902-5.193-.845-10.406-1.611-15.639-2.155-1.804-.187-3.612-.35-5.425-.428-1.598-.068-3.084.2-4.208,1.461-.985,1.106-1.093,2.456-1.096,3.856-.017,8.052-.043,16.104-.069,24.156-.038,11.923-.078,23.847-.12,35.77-.042,12.011-.086,24.022-.133,36.033-.032,8.315-.064,16.63-.108,24.946-.003.581-.028,1.167-.01,1.748.066,2.138,1.376,3.995,3.542,4.426.837.166,1.727.195,2.575.297.405.049-.566-.083.1.014.181.027.362.052.543.078.469.069.938.142,1.406.218,4.585.744,9.135,1.706,13.669,2.707,12.074,2.664,24.068,5.712,35.991,8.98,10.112,2.772,20.317,5.557,30.129,9.28.382.145.763.292,1.142.443.19.075.379.151.568.228.109.044.753.314.381.156-.324-.138.498.221.684.303.917.405,1.758.682,2.764.781,1.72.169,3.185-.325,4.722-1.01.145-.065.292-.127.438-.192.086-.038.174-.074.26-.112.285-.124-.462.191-.168.072.386-.158.772-.317,1.16-.471,4.15-1.643,8.406-3.025,12.661-4.366,11.789-3.716,23.728-6.976,35.713-9.995,10.474-2.638,21.047-5.271,31.741-6.865.206-.031.412-.061.619-.09.237-.034.772-.104.211-.031.423-.055.846-.109,1.27-.156.73-.082,1.462-.13,2.193-.194,2.338-.207,4.18-1.76,4.332-4.195.039-.624.008-1.258.004-1.883-.018-3.424-.033-6.849-.048-10.273-.046-10.599-.086-21.197-.125-31.796-.046-12.396-.089-24.791-.13-37.187-.035-10.518-.069-21.035-.1-31.553-.01-3.353-.019-6.707-.026-10.06-.002-1.142.016-2.264-.545-3.308-.91-1.697-2.686-2.25-4.488-2.232-2.002.02-4.002.163-5.995.345-12.08,1.107-24.087,3.455-35.917,6.079-12.218,2.71-24.504,5.76-36.232,10.178-2.191.825-4.365,1.709-6.486,2.703-.863.404-1.717.829-2.552,1.289-.894.492-1.646.996-2.655.395-2.661-1.584-5.078,2.564-2.423,4.145,1.792,1.067,4.089,1.249,6.004.405.919-.405,1.775-.966,2.673-1.421,2.149-1.088,3.576-1.673,5.598-2.46,5.251-2.043,10.645-3.717,16.061-5.261,12.539-3.574,25.303-6.44,38.14-8.719,5.522-.98,10.681-1.795,16.006-2.357,2.105-.222,4.217-.405,6.333-.485.427-.016.854-.028,1.282-.034.183-.003.382.022.562-.004-.024.003.309.005.31,0-.056.181-.447-.297-.415-.288-.216-.061.023-.288-.064.025-.032.116,0,.311,0,.432,0,.311.001.622.002.934.018,8.057.044,16.114.069,24.17.037,11.712.077,23.423.118,35.135.041,11.844.084,23.688.131,35.533.032,8.304.064,16.608.107,24.912.003.617.006,1.235.01,1.852,0,.118-.017.254.002.37.07.419-.1.069.084-.013.503-.224.214-.166-.262-.129-1.804.14-3.601.395-5.388.669-4.688.72-9.34,1.683-13.972,2.697-11.994,2.624-23.897,5.685-35.721,8.986-9.881,2.758-19.851,5.548-29.425,9.262-.9.349-1.794.715-2.682,1.096-.314.134-.627.268-.937.411-.105.048-.562.219-.181.091-.38.127-.735.195-1.135.198-.406.003-.748-.061-1.137-.186.306.098.024.002-.122-.059-.48-.2-.955-.415-1.436-.615-.74-.309-1.485-.605-2.234-.89-4.169-1.587-8.43-2.938-12.692-4.249-11.562-3.556-23.255-6.7-34.985-9.647-10.297-2.586-20.656-5.134-31.127-6.924-1.774-.303-3.557-.578-5.346-.775-.124-.014-.777-.164-.864-.086.446-.399.45.965.505.021.037-.618.007-1.249.01-1.868.018-3.434.033-6.869.048-10.303.045-10.438.084-20.876.123-31.315.045-12.248.088-24.497.129-36.745.035-10.385.069-20.77.099-31.155.01-3.388.019-6.776.027-10.164,0-.295.189-1.566.004-1.774.329.369-.916.241.014.393.368.06.777.031,1.151.051,1.862.102,3.72.279,5.573.482,1.125.123,2.249.257,3.372.4.27.034.539.069.809.104.096.012.948.126.546.071.654.088,1.307.179,1.96.272,2.758.392,5.511.822,8.259,1.279,6.148,1.022,12.273,2.178,18.373,3.453,11.844,2.475,23.758,5.242,35.156,9.355,1.104.399,2.203.813,3.293,1.251.274.11.548.222.821.335.384.159-.201-.091.32.135.473.206.945.414,1.414.63,1.595.736,3.164,1.544,4.629,2.518,2.58,1.715,4.986-2.441,2.423-4.145Z"/><path class="i" d="M125.562,167.305c0,12.549-.053,25.097-.089,37.646-.05,17.217-.102,34.434-.142,51.651-.016,6.938-.032,13.877-.032,20.815,0,3.089,4.8,3.094,4.8,0,0-14.265.049-28.53.089-42.795.046-16.733.099-33.467.142-50.2.015-5.706.032-11.411.032-17.117,0-3.089-4.8-3.094-4.8,0h0Z"/></g><path class="g" d="M10.737,199.429c1.133-1.458,2.651-3.454,4.209-4.233,4.773-3.903,15.467-2.589,20.526-.904,3.616,1.204,8.204,3.092,10.464,6.211,2.156,2.976,2.357,6.812-2.965,7.678,2.139.977,4.26,2.282,5.262,3.938,1.861,3.076,1.063,6.874-2.511,8.398,3.217,2.055,5.398,9.718-1.768,10.769,2.483,3.82,1.167,6.548-2.142,7.375-2.871.718-7.579-.698-12.415.961-6.028,2.966-11.534,2.635-15.431-.144-6.068-4.328-7.766-12.159-7.812-20.507-.022-4.071.175-8.388,1.263-12.326.586-2.121,1.397-4.816,2.81-6.567.159-.198.33-.416.51-.647Z"/><path class="i" d="M44.883,210.203c2.717-.917,4.892-2.925,4.875-5.968-.015-2.552-1.472-4.998-3.261-6.727-3.657-3.533-9.143-5.513-14.065-6.47-4.858-.944-10.394-1.391-15.156.255-5.084,1.757-9.236,6.449-11.147,11.473-2.321,6.101-2.677,12.943-2.267,19.403.357,5.613,1.597,11.342,5.143,15.848,3.787,4.812,9.502,6.811,15.49,5.773,1.666-.289,3.251-.832,4.801-1.498,1.673-.719,3.302-1.052,5.127-1.108,2.741-.084,5.69.509,8.366-.302,3.181-.964,5.263-3.668,4.748-7.045-.504-3.312-2.894-5.365-5.893-6.496-3.082-1.162-6.474-1.939-9.766-2.033-3.881-.111-7.736.735-11.515,1.512-3.024.622-1.744,5.25,1.276,4.629,2.684-.553,5.378-1.156,8.122-1.309,2.719-.152,5.225.242,7.834.983,1.494.424,3.579.743,4.621,2.029.406.501.69,1.485.642,1.883-.064.537-.389.847-1.023,1.113-1.866.783-4.475.224-6.545.225-1.409,0-2.817.109-4.206.35-1.618.281-2.983.96-4.503,1.524-4.268,1.584-8.951,1.524-12.429-1.7-3.215-2.979-4.619-7.288-5.215-11.526-.726-5.157-.692-10.865.369-15.966.483-2.322,1.115-4.835,2.369-6.873,1.053-1.712,2.539-3.617,4.199-4.758,1.428-.981,2.83-1.675,4.76-2.052,1.96-.384,4.007-.383,5.995-.269,4.259.244,8.516,1.277,12.365,3.135,2.047.988,4.209,2.232,5.381,4.257.251.433.355.684.499,1.178.022.075.108.635.075.299.002.024-.034.758.027.391-.024.148-.073.345-.135.487.148-.341-.259.241-.062.046-.31.307-.693.516-1.169.677-2.911.983-1.662,5.621,1.276,4.629h0Z"/><path class="i" d="M20.232,207.84c2.947-.723,6.075-.676,9.084-.474,2.945.198,5.911.629,8.738,1.501,2.491.768,5.333,1.76,7.292,3.538,1.794,1.629,2.068,4.372-.179,5.718-2.647,1.586-.236,5.738,2.423,4.145,3.792-2.272,4.988-6.797,3.054-10.734-1.741-3.544-5.839-5.314-9.336-6.614s-7.152-1.933-10.851-2.265c-3.803-.341-7.771-.359-11.501.556-2.999.736-1.729,5.366,1.276,4.629h0Z"/><path class="i" d="M19.279,219.985c6.892-1.337,14.3-1.117,21.113.599,2.33.587,4.67,1.778,5.544,3.942.771,1.909.608,3.34-1.373,4.21-1.187.522-1.462,2.256-.861,3.284.716,1.224,2.092,1.385,3.284.861,3.397-1.493,4.661-5.082,3.9-8.551-.78-3.56-3.506-6.236-6.797-7.583-3.645-1.492-7.929-1.994-11.826-2.23-4.808-.29-9.525-.079-14.259.839-1.273.247-2.001,1.772-1.676,2.952.366,1.331,1.675,1.924,2.952,1.676h0Z"/><path class="g" d="M244.923,199.429c-1.133-1.458-2.651-3.454-4.209-4.233-4.773-3.903-15.467-2.589-20.526-.904-3.616,1.204-8.204,3.092-10.464,6.211-2.156,2.976-2.357,6.812,2.965,7.678-2.139.977-4.26,2.282-5.262,3.938-1.861,3.076-1.063,6.874,2.511,8.398-3.217,2.055-5.398,9.718,1.768,10.769-2.483,3.82-1.167,6.548,2.142,7.375,2.871.718,7.579-.698,12.415.961,6.028,2.966,11.534,2.635,15.431-.144,6.068-4.328,7.766-12.159,7.812-20.507.022-4.071-.175-8.388-1.263-12.326-.586-2.121-1.397-4.816-2.81-6.567-.159-.198-.33-.416-.51-.647Z"/><path class="i" d="M212.054,205.575c-.339-.115-.746-.296-.971-.479-.12-.098-.339-.426-.26-.244-.2-.464-.156-.37-.109-.878-.028.301.033-.134.04-.164.062-.273.144-.555.256-.812.712-1.64,2.404-2.949,3.993-3.877,3.44-2.006,7.427-3.226,11.362-3.767,3.584-.492,7.998-.675,11.258.761,3.53,1.555,6.503,5.406,7.731,9.218,1.67,5.183,1.948,10.634,1.69,16.045-.213,4.465-1.011,9.116-3.55,12.89-2.46,3.656-6.49,5.557-10.877,4.928-2.831-.406-5.245-1.996-8.038-2.472-2.735-.466-5.419-.263-8.17-.243-1.008.007-1.844.025-2.742-.415-.67-.328-.881-.689-.848-1.275.111-1.98,2.047-2.727,3.701-3.227,2.672-.807,5.303-1.483,8.114-1.464,3.18.022,6.29.712,9.39,1.35,1.268.261,2.593-.369,2.952-1.676.326-1.188-.401-2.69-1.676-2.952-3.373-.694-6.787-1.432-10.243-1.514-3.167-.076-6.168.586-9.191,1.448-2.62.747-5.258,1.81-6.739,4.244s-1.538,5.659.38,7.85c1.855,2.121,4.802,2.487,7.451,2.42,3.259-.082,6.348-.291,9.41,1.024,5.868,2.52,12.452,2.553,17.599-1.548,4.406-3.511,6.578-9.013,7.389-14.448.941-6.307.929-13.193-.569-19.41-.727-3.017-1.726-6.04-3.655-8.508-.813-1.041-1.605-2.108-2.507-3.074-.951-1.02-2.07-1.771-3.128-2.507-4.036-2.81-9.778-2.845-14.47-2.325-5.535.614-11.435,2.205-15.999,5.512-2.362,1.712-4.519,4.104-5.001,7.085-.567,3.506,1.525,6.044,4.752,7.134,2.933.99,4.192-3.644,1.276-4.629h0Z"/><path class="i" d="M236.705,203.211c-3.73-.915-7.698-.897-11.501-.556-3.699.331-7.362.967-10.851,2.265s-7.595,3.07-9.336,6.614c-1.934,3.937-.738,8.463,3.054,10.734,2.656,1.591,5.073-2.557,2.423-4.145-2.245-1.345-1.975-4.088-.179-5.718,1.959-1.778,4.8-2.77,7.292-3.538,2.827-.872,5.793-1.302,8.738-1.501,3.009-.203,6.137-.249,9.084.474,3,.736,4.279-3.892,1.276-4.629h0Z"/><path class="i" d="M237.658,215.357c-4.734-.918-9.452-1.131-14.259-.839-3.897.237-8.181.738-11.826,2.23-3.291,1.347-6.017,4.025-6.797,7.583-.76,3.469.502,7.057,3.9,8.551,1.186.521,2.577.347,3.284-.861.596-1.019.332-2.759-.861-3.284-1.98-.87-2.151-2.284-1.373-4.21.874-2.164,3.215-3.352,5.544-3.942,6.807-1.723,14.226-1.935,21.113-.599,1.271.247,2.59-.359,2.952-1.676.323-1.176-.397-2.704-1.676-2.952h0Z"/><g id="f"><path class="i" d="M127.746,112.957c.463,1.766.908,3.561,1.173,5.369l-.086-.638c.031.248.045.492.02.741l.086-.638c-.018.115-.043.223-.082.333l.242-.573c-.034.078-.07.144-.118.214l.375-.486c-.055.067-.108.119-.175.173l.486-.375c-.136.087-.279.158-.425.225l.573-.242c-.234.098-.466.169-.717.209l.638-.086c-.226.027-.447.025-.673-.001l.638.086c-.254-.035-.503-.097-.756-.131-.67-.09-1.239-.115-1.849.242-.498.291-.973.862-1.103,1.434-.14.614-.11,1.304.242,1.849.312.484.835,1.022,1.434,1.103.546.074,1.076.214,1.631.238.836.037,1.616-.216,2.364-.556.916-.417,1.628-1.221,1.872-2.208.206-.834.115-1.583-.026-2.418-.292-1.73-.692-3.444-1.137-5.14-.318-1.214-1.729-2.072-2.952-1.676-1.25.404-2.018,1.651-1.676,2.952h0Z"/><path class="i" d="M97.455,97.276c-1.266,4.114-.441,13.579,7.353,14.384,10.302-.062,10.85-11.504,7.382-16.884-2.839-4.405-11.188-6.237-14.736,2.5Z"/><path class="i" d="M159.343,97.276c1.266,4.114.441,13.579-7.353,14.384-10.302-.062-10.85-11.505-7.383-16.885,2.839-4.405,11.188-6.237,14.736,2.501Z"/><path class="i" d="M119.153,137.766c.23-.16.46-.319.701-.463.082-.049.771-.384.539-.295-.268.103.302-.073.362-.092.161-.05-.466-.072.038.003.624.093-.394-.169.08-.017.154.049.318.075.473.121.338.101.665.235.993.364,2.191.864,4.449,1.365,6.823,1.268,2.464-.101,4.591-.898,6.814-1.882.607-.269-.452.156.14-.06.169-.062.335-.128.507-.179.162-.049.328-.079.491-.124-.602.167-.204.008.004.03.509.056-.475.025.005.014.245.084.218.069-.08-.046l.168.091c.118.069.233.143.343.224-.161-.121-.174-.124-.04-.01.232.215.448.441.66.676,2.071,2.301,5.457-1.102,3.394-3.394-1.632-1.813-3.793-2.821-6.221-2.09-.552.166-1.083.413-1.611.642-.22.096-.439.196-.658.293-.079.035-.766.323-.352.156-1.046.421-2.196.77-3.234.841-2.399.163-4.222-.504-6.468-1.306s-4.383-.244-6.295,1.09c-1.062.741-1.553,2.101-.861,3.284.615,1.051,2.215,1.606,3.284.861h0Z"/><path class="g" d="M152.377,98.044c.429,1.396.149,4.608-2.488,4.881-3.486-.021-3.672-3.904-2.498-5.73.961-1.495,3.786-2.117,4.987.849Z"/><path class="g" d="M155.509,104.943c.251.818.087,2.699-1.457,2.859-2.042-.012-2.15-2.286-1.463-3.356.563-.875,2.217-1.239,2.92.497Z"/><path class="g" d="M106.48,97.675c.441,1.436.154,4.741-2.56,5.022-3.587-.022-3.778-4.017-2.57-5.895.988-1.538,3.895-2.177,5.13.873Z"/><path class="g" d="M109.703,104.773c.258.841.09,2.776-1.499,2.941-2.1-.013-2.212-2.352-1.505-3.452.579-.901,2.281-1.275,3.004.511Z"/></g></g></g></svg>