<svg id="b" xmlns="http://www.w3.org/2000/svg" width="141.996" height="420.903" viewBox="0 0 141.996 420.903" style="color: initial !important;"><defs><style>.d{fill:#3d8dcc;}.e{fill:#ffffff;}.f{fill:none;}.g{fill:#211715;}.h{fill:#b3b3b3;}.i{fill:#febe69;}</style></defs><g id="c"><path class="e" d="M106.517,49.128c1.27,2.19,1.22,6.23.37,8.74-.6,1.77-1.59,4.48-3.96,6.42-.98.8-2.42,1.33-3.8,1.1,0,0-.13-.03-.36-.07-.44,1.45-.98,2.86-1.31,3.55-.99,2.68-6.56,12.26-13.55,15.64.07.85.21,1.71.37,2.62.36,2.01.24,3.82,3.05,4.83.06.03,1.19.55,2.65,1.23-.54.25-1,.66-1.34,1.14-4.54,6.38-10.55,11.56-17.87,15.97l-2.63-.91c-3.58-1.72-6.3-3.85-9.53-6.7-3.03-2.67-4.17-4.16-6.79-7.11-.37-.41-.92-.95-1.62-1.37,2.22-1.1,4.32-2.21,4.41-2.25,2.81-1.01,2.69-2.82,3.05-4.83.15-.95.31-1.83.39-2.7-3.06-1.48-5.8-3.82-8.42-6.95-3.42-4.1-5.37-8.51-6.44-12.16-1.47.38-3.06-.17-4.11-1.03-2.38-1.94-3.36-4.65-3.96-6.42-.85-2.51-.9-6.55.36-8.74.42-.74,1.41-1.99,3.72-2.07,1.07-.04,2.31.3,3.23,1.18,0,0-8.13-26.21,26.22-26.21s30.92,26.21,30.92,26.21c.92-.88,2.17-1.22,3.23-1.18,2.32.08,3.3,1.33,3.72,2.07Z"/><path class="e" d="M16.117,214.558c-.17,3.49-.34,6.97-.51,10.46l-1.13-.06c-1.28-.06-2.37.92-2.43,2.2l-.16,3.36c-.07,1.27.92,2.36,2.19,2.42l1.13.06c-.18,3.71-.37,7.42-.55,11.13l-1.86-.09c-7.43-.81-10.33-7.21-10.81-11.18-.22-1.94.18-3.88.58-5.79.94-4.4,1.89-8.8,2.88-13.19l10.67.68Z"/><path class="e" d="M139.427,227.068c.4,1.91.8,3.85.58,5.79-.48,3.97-3.38,10.37-10.81,11.18l-1.86.09c-.18-3.71-.36-7.42-.55-11.13l1.13-.06c1.28-.06,2.26-1.15,2.2-2.42l-.17-3.36c-.06-1.28-1.14-2.26-2.42-2.2l-1.13.06c-.17-3.49-.35-6.97-.52-10.46l10.67-.68c.99,4.39,1.94,8.79,2.88,13.19Z"/><path class="d" d="M72.417,228.699c-15.342.008-30.814.028-43.604.014-.826,23.678-1.143,57.869-1.273,68.024-.026,2,.229,3.989.757,5.919l.664,2.424c1.748,4.136,3.906,9.17,5.713,13.433l.491,1.157c8.438-2.368,23.131-7.607,30.454-10.152-.004-2.276-.004-5.805-.004-5.805,1.05-17.885,2.728-34.374,5.194-52.156h8.917s0-12.082,0-22.86c-2.426,0-4.866.001-7.309.002Z"/><path class="g" d="M36.402,317.503c-.987-2.326-1.978-4.65-2.968-6.974-.832-1.953-2.007-4.317-2.572-6.085-.923-2.889-1.344-5.786-1.307-8.819.06-4.948.115-9.896.179-14.845.189-14.703.418-29.406.833-44.105.202-7.127.428-14.257.855-21.375.154-2.571-3.846-2.562-4,0-.836,13.948-1.064,27.939-1.324,41.907-.233,12.547-.383,25.094-.533,37.642-.019,1.552-.058,3.099.12,4.645.218,1.902.692,3.717,1.195,5.555.604,2.208,1.758,4.348,2.655,6.453,1.139,2.673,2.279,5.345,3.414,8.02.422.995,1.889,1.213,2.736.718,1.03-.602,1.141-1.738.718-2.736h0Z"/><path class="e" d="M79.017,393.32c.101-.231.201-.463.299-.696,1.698-4.043,3.181-8.232,4.619-12.375,2.304-6.641,5.931-19.109-2.091-23.642-.11-.062-.224-.119-.341-.168-4.153-11.815-9.506-32.863-13.457-49.758-7.266,2.458-32.289,11.554-38.056,12.169l-1.219.13c1.018,2.356,2.035,4.712,2.035,4.712,2.628,6.085,17.078,44.876,17.08,45.815l.004,1.67c-.706,2.257-4.39,15.146-5.554,20.893-1.556,7.677-.278,15.67,7.917,18.706,3.924,1.454,8.361,1.187,12.296-.237,7.954-2.878,13.177-9.705,16.468-17.219Z"/><path class="g" d="M29.079,324.702c.222.515-.159-.396.108.257.121.295.242.59.361.885.295.731.585,1.463.873,2.196.776,1.976,1.538,3.957,2.296,5.94,1.935,5.06,3.841,10.131,5.733,15.208,1.761,4.725,3.511,9.455,5.225,14.198.562,1.556,1.123,3.113,1.661,4.678.157.457.317.914.46,1.376.039.126.063.274.118.393.165.356-.006-.328-.027-.289-.171.317.041,1.088.002,1.341-.059.377-.231.769-.339,1.136-.342,1.163-.675,2.329-1.006,3.496-.893,3.155-1.76,6.319-2.58,9.494-1.584,6.135-3.468,12.923-1.096,19.116,3.047,7.957,11.823,10.844,19.716,9.071s14.064-7.695,17.99-14.541c2.187-3.813,3.735-7.978,5.241-12.095,1.24-3.387,2.502-6.79,3.463-10.27,1.589-5.754,2.864-13.181-.981-18.352-.997-1.34-2.279-2.487-3.784-3.227l.919,1.195c-2.592-7.402-4.676-14.984-6.694-22.559-2.335-8.764-4.504-17.573-6.58-26.402-.589-2.505-4.447-1.444-3.857,1.063,2.33,9.913,4.774,19.802,7.448,29.628,1.21,4.444,2.465,8.876,3.834,13.274.574,1.844,1.167,3.682,1.8,5.506.212.611.379,1.174.909,1.591.402.316.897.505,1.315.809.559.406,1.075.914,1.482,1.472,1.971,2.701,1.908,6.482,1.474,9.643-.458,3.342-1.459,6.603-2.556,9.783-3.12,9.043-6.15,19.001-13.795,25.331-6.261,5.185-18.509,7.585-23.063-1.074-1.691-3.216-1.64-7.216-1.011-10.704s1.6-6.94,2.519-10.365c.873-3.253,1.775-6.5,2.724-9.732.466-1.586.764-3.211.262-4.828-1.199-3.858-2.692-7.642-4.084-11.433-3.938-10.723-7.856-21.474-12.129-32.07-.291-.723-.589-1.443-.897-2.159-.427-.992-1.885-1.215-2.736-.718-1.026.6-1.146,1.74-.718,2.736h0Z"/><path class="g" d="M29.99,320.851c4.689-.531,9.321-2.285,13.782-3.735,6.002-1.951,11.962-4.029,17.918-6.112,2.336-.817,4.668-1.643,7.013-2.435,2.426-.82,1.385-4.684-1.063-3.857-10.567,3.57-21.013,7.532-31.724,10.663-1.218.356-2.44.7-3.673,1.002-.497.122-.995.238-1.496.338-.188.038-.377.07-.565.106-.086.016-.172.027-.258.042-.389.068.459-.055.067-.01-1.073.122-2,.832-2,2,0,.987.92,2.122,2,2h0Z"/><path class="g" d="M31.222,327.461c6.628,3.452,13.787,4.771,21.22,4.791,2.574.007,2.578-3.993,0-4-6.713-.018-13.205-1.122-19.201-4.244-2.28-1.188-4.305,2.263-2.019,3.454h0Z"/><path class="g" d="M67.021,311.512c-5.928,12.174-16.518,20.921-28.364,27.057-2.287,1.184-.266,4.637,2.019,3.454,12.393-6.419,23.6-15.761,29.799-28.492,1.122-2.305-2.326-4.335-3.454-2.019h0Z"/><path class="g" d="M70.881,329.205c-3.097,13.166-15.057,22.132-27.386,26.133-2.438.791-1.395,4.655,1.063,3.857,13.621-4.42,26.759-14.385,30.18-28.927.589-2.504-3.267-3.572-3.857-1.063h0Z"/><path class="g" d="M50.461,392.134c2.101-1.598,4.668-1.643,7.132-.862,2.767.878,5.305,2.266,7.614,4.017.861.653,2.237.136,2.736-.718.6-1.026.146-2.082-.718-2.736-4.934-3.742-13.096-7.483-18.783-3.156-.858.653-1.31,1.724-.718,2.736.494.845,1.872,1.376,2.736.718h0Z"/><path class="g" d="M61.626,373.799c4.956-2.113,9.447-5.182,13.282-8.965,1.771-1.747,3.503-3.636,4.922-5.685,1.336-1.929,2.451-4.541,1.6-6.884-.369-1.015-1.359-1.699-2.46-1.397-.979.269-1.767,1.44-1.397,2.46.503,1.385-.622,3.035-1.54,4.277.366-.496-.137.165-.244.297-.203.251-.408.5-.616.746-.376.447-.759.888-1.15,1.322-.834.926-1.703,1.821-2.608,2.678-3.45,3.266-7.439,5.834-11.807,7.696-.994.424-1.214,1.888-.718,2.736.601,1.028,1.739,1.143,2.736.718h0Z"/><path class="d" d="M79.154,377.409c-3.057-39.482-6.594-96.77-7.797-132.156,0,0,0-9.274-.005-16.541,13.755-.009,28.512-.025,42.041-.011.081,1.93.134,3.862.158,5.794.074,6.017-.139,12.027-.352,18.033-.783,22.125-1.567,44.25-2.35,66.375-.14,3.941-.279,7.882-.419,11.823-.156,4.395-.311,8.791-.467,13.186-.453,12.804-.907,25.608-1.36,38.413h-29.063c-.128-1.605-.256-3.245-.386-4.916Z"/><path class="g" d="M69.357,245.254c.585,17.144,1.47,34.278,2.438,51.405,1.077,19.045,2.285,38.083,3.62,57.111.668,9.522,1.369,19.041,2.124,28.556.202,2.549,4.204,2.571,4,0-1.409-17.748-2.642-35.511-3.784-53.279-1.212-18.854-2.317-37.715-3.242-56.585-.444-9.067-.847-18.136-1.156-27.208-.088-2.567-4.088-2.579-4,0h0Z"/><path class="g" d="M110.406,215.3c2.17,21.081.613,42.307-.135,63.429-.749,21.158-1.498,42.316-2.247,63.474-.426,12.041-.853,24.082-1.279,36.123-.091,2.575,3.909,2.571,4,0,.751-21.222,1.503-42.443,2.254-63.665s1.516-42.558,2.26-63.838c.415-11.883.366-23.684-.853-35.524-.111-1.074-.84-2-2-2-.996,0-2.111.919-2,2h0Z"/><path class="g" d="M68.88,251.025c-2.421,17.494-4.225,35.056-5.266,52.688-.152,2.571,3.849,2.563,4,0,1.02-17.272,2.751-34.486,5.123-51.624.148-1.069-.259-2.148-1.397-2.46-.935-.257-2.311.32-2.46,1.397h0Z"/><path class="g" d="M48.802,97.083c2.096-.969,4.151-2.025,6.201-3.087.191-.099.395-.187.579-.298.006-.003-.498.213-.136.067.256-.104.514-.21.764-.329.272-.129.53-.281.773-.458,1.117-.809,1.878-1.885,2.229-3.226.326-1.246.466-2.582.649-3.854.08-.555.094-1.037-.202-1.541-.243-.415-.718-.811-1.195-.919-.946-.215-2.301.289-2.46,1.397-.117.818-.267,1.63-.391,2.447-.082.541-.156,1.086-.315,1.611-.06.198-.283.513.021.014-.072.118-.121.254-.192.374-.036.061-.075.121-.115.18-.12.166-.083.118.112-.145-.098.044-.244.249-.324.328-.16.133-.122.106.114-.082-.071.051-.144.1-.219.146-.163.102-.333.185-.503.274-.2.091-.187.086.039-.014-.216.078-.428.165-.637.261-.017.008-.034.017-.051.025-2.263,1.106-4.471,2.318-6.759,3.375-.953.44-1.264,1.889-.718,2.736.633.982,1.717,1.188,2.736.718h0Z"/><path class="g" d="M82.013,85.466c.173,1.297.35,2.614.611,3.898.234,1.149.766,2.294,1.65,3.088.593.532,1.233.902,1.961,1.209-.018-.008.702.307.24.094-.267-.123-.195-.089-.14-.063.024.011.048.022.072.033.101.047.202.093.304.14.852.393,1.703.788,2.554,1.181,1.312.607,2.625,1.213,3.939,1.817.949.436,2.198.301,2.736-.718.465-.88.298-2.27-.718-2.736-2.272-1.043-4.531-2.119-6.811-3.144-.024-.011-.047-.022-.071-.032.314.14-1.124-.485-.474-.19-.182-.083-.362-.171-.534-.273-.079-.046-.156-.095-.232-.147-.142-.102-.144-.101-.006.003.133.105.136.104.009-.002-.059-.053-.116-.108-.172-.165-.373-.386.121.243-.041-.033-.073-.124-.145-.248-.216-.374-.182-.321.149.479.017.034-.159-.535-.267-1.068-.351-1.62-.044-.291-.089-.582-.139-.872-.043-.25-.086-.499-.127-.749-.012-.078-.123-.84-.062-.379-.074-.552-.175-1.003-.586-1.414-.347-.347-.916-.608-1.414-.586-.965.043-2.148.889-2,2h0Z"/><path class="d" d="M39.379,96.316s-4.768,1.715-10.092,3.63c-1.6.674-3.026,1.311-4.173,1.867-1.21.591-4.736,3.024-5.733,3.889-5,4.333-8.76,12.215-9.847,18.339-3.614,20.358-6.116,63.62-6.669,86.868-.036,1.524,1.034,2.836,2.552,2.973l15.435.98h5.194c-.027,5.167-.044,9.344-.044,11.982,0,1.021.992,1.846,2.229,1.846,21.889.079,57.81-.039,85.336.029,1.355,0,2.435-.893,2.435-2.003v-11.854c2.531,0,5.144,0,5.144,0l15.435-.98c1.518-.137,2.589-1.448,2.552-2.973-.554-23.249-3.055-66.511-6.669-86.868-1.087-6.124-4.847-14.005-9.847-18.339-.997-.864-4.523-3.298-5.733-3.889-1.148-.556-2.573-1.193-4.173-1.867-5.324-1.915-10.092-3.63-10.092-3.63,0,0-6.738-2.424-10.556-3.364-1.396-.344-2.682.327-3.426,1.375-4.579,6.445-10.66,11.662-18.078,16.109-4.852-1.894-8.028-4.288-11.95-7.747-3.033-2.674-4.163-4.16-6.785-7.111-.703-.792-2.09-2.027-3.845-2.099l-1.107.338c-3.557,1.087-7.485,2.5-7.485,2.5"/><path class="g" d="M3.566,213.15c-.968,4.296-1.912,8.597-2.825,12.904-.697,3.287-1.176,6.489-.147,9.754,1.788,5.675,6.293,9.5,12.2,10.229,1.074.132,2-1.014,2-2,0-1.191-.923-1.867-2-2-4.35-.537-7.471-3.874-8.542-7.985-.72-2.76.104-5.814.755-8.849.786-3.668,1.593-7.331,2.417-10.991.565-2.507-3.291-3.578-3.857-1.063h0Z"/><path class="f" d="M51.892,91.851c1.641,1.598,6.942,6.897,19.108,6.897,14.189,0,17.467-5.3,19.108-6.897"/><path class="g" d="M114,140.232v85.639c0,.193.087.667,0,.844.094-.19-.523-.001-.818.002-.773.009-1.546-.004-2.319-.005-6.389-.013-12.777-.017-19.166-.016-12.975,0-25.951.017-38.926.021-5.7.002-11.399,0-17.099-.009-2.509-.004-5.118-.213-7.618-.041-.122.008-.111.269-.054-.079.042-.258,0-.559,0-.82,0-.626.002-1.251.004-1.877.022-7.614.074-15.229.122-22.843.119-18.901.271-37.802.316-56.704.004-1.617.006-3.235.007-4.852,0-2.574-4-2.578-4,0-.001,18.658-.168,37.317-.287,55.975-.055,8.555-.113,17.109-.148,25.664-.006,1.399-.011,2.797-.013,4.196,0,.503-.026,1.013-.002,1.516.082,1.657,1.113,3.009,2.67,3.569,1.257.452,2.73.281,4.048.285s2.623.007,3.935.009c2.837.005,5.674.008,8.51.01,13.069.007,26.137-.011,39.206-.017,6.57-.003,13.14-.004,19.71.001,3.187.003,6.374.007,9.562.014,1.558.003,3.171.143,4.536-.759,1.18-.779,1.773-1.982,1.824-3.375.177-4.869,0-9.777,0-14.648v-71.7c0-2.574-4-2.578-4,0h0Z"/><path class="g" d="M103.148,94.387c-2.118-.761-4.251-1.482-6.396-2.161-1.556-.492-3.179-1.104-4.804-1.308-2.077-.261-3.834.781-5.042,2.399-4.435,5.941-9.905,10.763-16.194,14.678-3.936,2.451-8.079,4.549-12.31,6.438-.986.44-1.22,1.877-.718,2.736.594,1.016,1.746,1.16,2.736.718,7.033-3.14,13.794-6.894,19.787-11.764,2.674-2.173,5.165-4.573,7.384-7.211.579-.689,1.137-1.395,1.684-2.109.423-.552.877-1.478,1.525-1.799.994-.492,2.916.47,3.906.773,2.478.76,4.938,1.59,7.378,2.467,2.427.872,3.472-2.992,1.063-3.857h0Z"/><path class="g" d="M20.85,212.861l-8.091-.514-5.162-.328-1.636-.104c-.138-.009-.28-.009-.418-.027-.036-.005-.072-.001-.108-.007.444.068-.158-.012-.267-.16-.507-.691-.287-1.627-.265-2.448.031-1.149.064-2.298.101-3.447.079-2.506.171-5.012.273-7.518.223-5.49.491-10.978.798-16.463.648-11.591,1.45-23.178,2.553-34.736.485-5.077,1.021-10.152,1.702-15.207.616-4.573,1.217-9.17,2.914-13.491,1.174-2.99,2.783-5.925,4.803-8.429,1.852-2.296,3.757-3.725,6.186-5.309,4.707-3.07,10.424-4.54,15.676-6.43,2.404-.865,1.367-4.731-1.063-3.857-2.02.727-4.039,1.453-6.059,2.18-3.159,1.136-6.483,2.193-9.389,3.91-1.977,1.168-3.981,2.507-5.695,4.042-2.344,2.1-4.249,4.747-5.793,7.475-2.758,4.871-4.13,10.023-4.958,15.507-.77,5.097-1.37,10.221-1.9,15.348-1.227,11.866-2.084,23.771-2.786,35.679-.349,5.928-.653,11.858-.905,17.79-.109,2.567-.209,5.135-.296,7.703-.081,2.374-.368,4.866-.191,7.235.212,2.838,2.355,4.462,5.038,4.657,1.628.118,3.259.207,4.888.31,3.35.213,6.7.425,10.049.638,2.57.163,2.561-3.837,0-4h0Z"/><path class="g" d="M121.144,216.861l8.587-.545,5.178-.329c1.357-.086,2.727-.075,3.934-.811,2.728-1.664,2.279-4.872,2.199-7.597-.071-2.44-.156-4.881-.249-7.32-.222-5.774-.497-11.546-.814-17.315-.66-12.016-1.484-24.027-2.631-36.007-.516-5.39-1.105-10.773-1.834-16.138-.676-4.967-1.387-9.852-3.342-14.509-1.426-3.397-3.268-6.591-5.634-9.423-1.853-2.219-4.101-3.892-6.499-5.476-5.067-3.347-11.219-4.963-16.891-7.004-2.426-.873-3.471,2.991-1.063,3.857,1.882.677,3.764,1.354,5.646,2.031,2.979,1.072,6.105,2.036,8.847,3.656,4.554,2.691,7.859,5.994,10.429,10.763,2.45,4.547,3.509,9.347,4.259,14.403.694,4.679,1.229,9.382,1.712,14.087,2.253,21.944,3.526,44.041,4.113,66.09.025.945.377,2.242-.701,2.627.379-.135-.442.021-.631.033l-5.289.336-9.325.592c-2.556.162-2.575,4.164,0,4h0Z"/><path class="g" d="M134.571,214.214c.824,3.659,1.631,7.323,2.417,10.991.65,3.032,1.473,6.092.755,8.849-1.071,4.111-4.192,7.448-8.542,7.985-1.072.132-2,.825-2,2,0,.978.921,2.133,2,2,5.91-.729,10.406-4.554,12.2-10.229,1.031-3.263.55-6.469-.147-9.754-.914-4.308-1.857-8.609-2.825-12.904-.566-2.51-4.423-1.448-3.857,1.063h0Z"/><path class="g" d="M39.915,98.244c2.204-.792,4.425-1.543,6.66-2.244,1.173-.368,1.841-.666,2.927.131,1.115.819,1.975,2.079,2.882,3.11,4.134,4.703,9.085,9.099,14.74,11.87,2.303,1.128,4.333-2.32,2.019-3.454-6.026-2.952-10.813-7.701-15.191-12.684-1.006-1.145-2.049-2.23-3.46-2.873-1.537-.701-2.795-.633-4.36-.15-2.445.754-4.872,1.572-7.279,2.436s-1.368,4.73,1.063,3.857h0Z"/><path class="e" d="M135.556,410.568c-4.328-87.69-8.657-175.38-12.985-263.071h-8.001c4.328,87.69,8.657,175.38,12.985,263.071h8.001Z"/><path class="g" d="M133.271,401.322l-4.165.206c-1.029.051-1.823.921-1.772,1.95.139,2.817.294,5.953.389,7.888.051,1.029.926,1.815,1.956,1.765l4.165-.206c1.029-.051,1.823-.927,1.772-1.956l-.389-7.875c-.051-1.029-.927-1.823-1.956-1.772Z"/><path class="g" d="M133.271,399.322l-2.943.145c-.401.02-.804.032-1.205.059-1.308.09-2.44.673-3.177,1.776-.749,1.121-.601,2.405-.538,3.676.057,1.162.115,2.325.172,3.487.049.992.069,1.991.151,2.981.114,1.377.838,2.631,2.1,3.258,1.22.606,2.565.391,3.871.326,1.264-.062,2.766.044,3.903-.578,1.513-.827,2.064-2.388,1.984-4.014l-.165-3.349-.178-3.611c-.03-.607-.087-1.201-.327-1.769-.622-1.473-2.048-2.399-3.648-2.388-1.046.007-2.049.915-2,2,.048,1.078.879,2.008,2,2,.223-.002.161.081-.058-.035.052.028.291.043.053-.008-.243-.052.024.004.1.068.172.144-.1-.07-.11-.078.086.072.2.284-.03-.051.035.051.106.262.032.037-.114-.343.058.309-.017-.053-.016-.078-.017-.144-.014-.102.013.174.017.35.026.525l.139,2.824.157,3.178.051,1.035c.004.084.006.168.012.251.001.017,0,.034.002.05.033.359.068-.132.016.023-.093.275.142-.317.036-.051-.027.068-.078.133-.118.194.245-.369.056-.143.01-.07.008-.013.283-.22.094-.096-.233.153.323-.108.051-.028-.217.064.117-.008.14-.009-.022,0-.045.005-.068.003-.378-.02-.776.038-1.154.057-.946.047-1.892.106-2.839.14-.031.001-.062.002-.093.005-.398.036-.015-.031.047.036-.038-.041-.302-.04-.053.008.242.047-.024.004-.1-.066-.16-.146.093.067.11.08-.34-.244.112.17-.007-.014-.118-.182.042.101.048.127-.091-.358-.017-.005-.012.065-.014-.178-.018-.357-.026-.535-.021-.434-.043-.868-.064-1.302-.099-2.006-.087-4.054-.299-6.051-.04-.379.023-.012-.035.059l.038-.15c-.105.215-.123.257-.055.127.006-.055.087-.148.118-.193l-.119.174c.137-.125.147-.137.03-.036-.214.112.012.032.052-.007-.22.086-.259.108-.117.066.111-.026.1-.028-.032-.006-.205.042-.104.006-.055.012.406.047.872-.043,1.279-.063l2.833-.14c1.043-.051,2.05-.883,2-2-.047-1.039-.881-2.055-2-2Z"/><path class="g" d="M112.57,147.498l2.538,51.416,2.526,51.166c.846,17.139,1.692,34.277,2.538,51.416l2.538,51.416c.842,17.055,1.684,34.111,2.526,51.166l.32,6.489c.126,2.562,4.127,2.577,4,0-.846-17.139-1.692-34.277-2.538-51.416-.842-17.055-1.684-34.111-2.526-51.166-.846-17.139-1.692-34.277-2.538-51.416l-2.538-51.416-2.526-51.166-.32-6.489c-.126-2.562-4.127-2.577-4,0h0Z"/><path class="g" d="M120.571,147.498c.846,17.139,1.692,34.277,2.538,51.416.842,17.055,1.684,34.111,2.526,51.166l2.538,51.416,2.538,51.416c.842,17.055,1.684,34.111,2.526,51.166l.32,6.489c.126,2.562,4.127,2.577,4,0-.846-17.139-1.692-34.277-2.538-51.416s-1.684-34.111-2.526-51.166l-2.538-51.416-2.538-51.416c-.842-17.055-1.684-34.111-2.526-51.166l-.32-6.489c-.126-2.562-4.127-2.577-4,0h0Z"/><path class="i" d="M120.847,143.806l-4.858.255c-2.399.126-4.175,2.28-3.841,4.66l1.196,8.507c.296,2.106,2.155,3.634,4.278,3.519,1.052-.057,2.22-.122,3.368-.186,2.116-.117,3.792-1.828,3.866-3.946l.3-8.576c.084-2.401-1.908-4.358-4.307-4.232Z"/><path class="g" d="M120.847,141.806l-4.22.221c-2.462.129-4.78,1.08-5.893,3.446-.822,1.748-.562,3.45-.306,5.267l.74,5.263c.233,1.658.424,3.137,1.53,4.512.915,1.137,2.253,1.914,3.696,2.138.816.127,1.595.073,2.415.027.98-.054,1.973-.066,2.945-.212,2.948-.441,4.938-3.006,5.102-5.894.077-1.357.095-2.721.143-4.08.052-1.481.139-2.965.155-4.446.039-3.48-2.817-6.33-6.307-6.243-2.569.064-2.579,4.064,0,4,1.395-.035,2.328.887,2.305,2.301-.019,1.154-.081,2.308-.121,3.461l-.151,4.33c-.011.31.005.641-.04.95-.084.582-.512,1.201-1.225,1.543-.256.123-.682.172-1.096.195-.771.043-1.542.085-2.313.128-.639.035-.922.087-1.415-.052-.338-.095-.687-.308-.981-.636-.304-.339-.452-.768-.555-1.457-.065-.432-.122-.866-.183-1.299l-.636-4.527-.262-1.863c-.024-.174-.05-.347-.073-.521-.06-.448-.011.451.008-.113.03-.909.335-1.585,1.231-2.012.372-.177.781-.182,1.408-.215l4.099-.215c1.079-.057,2-.879,2-2,0-1.039-.916-2.057-2-2Z"/><rect class="i" x="115.098" y="225.206" width="14.945" height="7.994" rx="2.314" ry="2.314" transform="translate(-11.15 6.321) rotate(-2.826)"/><path class="e" d="M6.444,410.568c4.328-87.69,8.657-175.38,12.985-263.071h8.001c-4.328,87.69-8.657,175.38-12.985,263.071H6.444Z"/><path class="g" d="M8.729,401.322l4.165.206c1.029.051,1.823.921,1.772,1.95-.139,2.817-.294,5.953-.389,7.888-.051,1.029-.926,1.815-1.956,1.765l-4.165-.206c-1.029-.051-1.823-.927-1.772-1.956l.389-7.875c.051-1.029.927-1.823,1.956-1.772Z"/><path class="g" d="M8.729,403.322l2.376.117,1.469.073c.101.005.202.008.302.015.103.007-.236-.037-.198-.028.378.091-.006.007-.042-.046l.133.074c-.178-.154-.213-.181-.106-.083.143.173-.057-.112-.064-.123.057.085.103.171.154.26-.008-.013-.144-.335-.072-.119.081.242.051-.317-.015-.064-.124.47-.051,1.094-.075,1.581-.051,1.028-.101,2.055-.152,3.083-.044.897-.089,1.793-.133,2.69-.008.171-.051.371-.027.541.037.259.081-.328.005-.066-.063.218.052-.102.065-.118-.15.183-.086.051.059-.03-.06.033-.16.228-.017.049.152-.189-.001.032-.107.057-.266.064.317-.129.051-.037-.186.064.346.026-.021-.017-.027-.003-.055-.003-.082-.004-.153-.005-.305-.015-.458-.023l-1.598-.079-1.52-.075c-.138-.007-.28-.025-.418-.021-.027,0-.055-.002-.082-.004-.041-.003.007-.006.103.014.158.026.144.017-.043-.026l.193.085c-.018-.039-.28-.131-.052-.008.307.166-.239-.16.03.05.154.12.029.041-.022-.04-.191-.301.005-.014.019.06-.076-.401-.044.354-.003-.093.001-.015.001-.03.002-.045.018-.228.023-.457.034-.685l.144-2.914.169-3.426c.012-.233.08-.536.038-.768-.002-.011.001-.025.002-.036-.019.48.013.138.012.064l-.085.193c.099-.158.102-.176.008-.052-.104.191-.025.02.036-.03-.226.182-.175.038.02.001.199-.037-.093.042-.126.055.408-.156-.359-.006.092-.003,1.046.007,2.048-.925,2-2-.049-1.09-.879-1.992-2-2-2.285-.016-3.842,1.76-3.965,3.948-.054.963-.095,1.927-.143,2.89l-.18,3.643c-.057,1.15-.132,2.234.514,3.28.706,1.144,1.896,1.75,3.211,1.842.367.026.736.036,1.104.054,1.013.05,2.032.138,3.046.15,1.338.017,2.584-.635,3.329-1.746.665-.992.639-2.167.695-3.311.055-1.124.111-2.248.166-3.371.057-1.154.25-2.392.148-3.543-.142-1.595-1.179-3.031-2.762-3.477-.569-.16-1.177-.163-1.764-.192l-3.4-.168c-1.047-.052-2.047.957-2,2,.051,1.128.879,1.945,2,2Z"/><path class="g" d="M25.43,147.498l-2.538,51.416c-.842,17.055-1.684,34.111-2.526,51.166s-1.692,34.277-2.538,51.416c-.846,17.139-1.692,34.277-2.538,51.416-.842,17.055-1.684,34.111-2.526,51.166l-.32,6.489c-.127,2.573,3.873,2.566,4,0,.846-17.139,1.692-34.277,2.538-51.416l2.526-51.166c.846-17.139,1.692-34.277,2.538-51.416.846-17.139,1.692-34.277,2.538-51.416.842-17.055,1.684-34.111,2.526-51.166l.32-6.489c.127-2.573-3.873-2.566-4,0h0Z"/><path class="g" d="M17.429,147.498c-.846,17.139-1.692,34.277-2.538,51.416-.842,17.055-1.684,34.111-2.526,51.166-.846,17.139-1.692,34.277-2.538,51.416s-1.692,34.277-2.538,51.416-1.684,34.111-2.526,51.166l-.32,6.489c-.127,2.573,3.873,2.566,4,0,.846-17.139,1.692-34.277,2.538-51.416.842-17.055,1.684-34.111,2.526-51.166.846-17.139,1.692-34.277,2.538-51.416s1.692-34.277,2.538-51.416,1.684-34.111,2.526-51.166l.32-6.489c.127-2.573-3.873-2.566-4,0h0Z"/><path class="i" d="M21.153,143.806l4.858.255c2.399.126,4.175,2.28,3.841,4.66l-1.196,8.507c-.296,2.106-2.155,3.634-4.278,3.519-1.052-.057-2.22-.122-3.368-.186-2.116-.117-3.792-1.828-3.866-3.946l-.3-8.576c-.084-2.401,1.908-4.358,4.307-4.232Z"/><path class="g" d="M21.153,145.806l3.55.186c.434.023.877.02,1.309.069.643.072,1.319.493,1.651,1.134.101.195.228.642.229.936,0,.312-.004.425.03.074-.004.043-.013.087-.018.13-.058.448-.126.894-.189,1.341l-.638,4.538c-.136.967-.194,1.99-.44,2.938-.185.716-.717,1.275-1.321,1.475-.545.181-.709.13-1.374.094-.768-.042-1.536-.084-2.303-.127-.157-.009-.314-.017-.471-.026-.484-.028.173.052-.2-.011-.088-.015-.647-.184-.484-.116-.448-.187-.724-.422-.954-.737-.237-.325-.369-.748-.39-1.242-.052-1.209-.085-2.42-.127-3.629-.053-1.51-.112-3.02-.158-4.53-.003-.088-.008-.177-.009-.265-.004-.36-.013-.354.043-.589.081-.336.082-.329.195-.532.455-.82,1.168-1.134,2.069-1.112,2.575.064,2.574-3.936,0-4-3.233-.08-5.946,2.35-6.275,5.549-.128,1.246.033,2.553.076,3.8l.172,4.929c.081,2.311.96,4.442,3.044,5.655,1.499.872,3.188.841,4.867.934,1.605.088,3.08.101,4.534-.694,1.9-1.038,2.828-2.908,3.117-4.962l.71-5.054c.186-1.321.575-2.842.477-4.178-.241-3.299-2.869-5.543-6.076-5.735-1.549-.093-3.099-.162-4.648-.244-1.08-.057-2,.96-2,2,0,1.13.917,1.943,2,2Z"/><path class="i" d="M17.746,221.73h3.366c1.277,0,2.313,1.037,2.313,2.313v10.318c0,1.277-1.037,2.314-2.314,2.314h-3.366c-1.277,0-2.314-1.037-2.314-2.314v-10.317c0-1.277,1.037-2.314,2.314-2.314Z" transform="translate(-210.453 237.309) rotate(-87.174)"/><path class="g" d="M127.526,222.956l-7.543.372c-.918.045-1.841.065-2.758.136-1.535.119-2.906.859-3.669,2.233-.806,1.452-.481,3.197-.403,4.778.084,1.707.455,3.204,1.938,4.229.78.54,1.72.771,2.662.736,1.154-.042,2.308-.114,3.462-.171l4.775-.236c1.15-.057,2.428.004,3.5-.452,1.629-.693,2.649-2.306,2.627-4.073-.009-.681-.067-1.364-.101-2.044-.041-.836-.011-1.754-.285-2.549-.622-1.806-2.301-2.969-4.205-2.961-2.573.011-2.579,4.011,0,4,.061,0,.385-.049.087-.019.02-.002.302.109.14.028-.209-.104.26.171.072.038-.145-.102.087.088.095.102-.084-.145-.025-.136.033.078-.011-.042-.091-.232-.015-.01.098.289-.004-.145.017.034.064.56.056,1.138.084,1.701.026.524.049,1.049.078,1.573.005.086.022.369.012.182-.009-.17-.021.097-.043.133.169-.27-.033.045-.051.062.118-.115.13-.063-.065.05.037-.021.204-.138.008-.018.014-.009-.251.077-.057.049-.688.098-1.418.07-2.112.104l-4.156.205-3.443.17c-.197.01-.395.013-.592.029-.002,0-.35.005-.149.01.24.006-.303-.072-.078-.019.161.038-.091-.048-.117-.075.217.223-.036-.042-.05-.065.021.037.142.201.018.008-.169-.262.055.228-.035-.076-.064-.216-.022-.031-.014.02-.032-.206-.021-.433-.032-.642-.033-.661-.065-1.321-.098-1.982-.015-.31-.061-.638-.037-.949-.013.172-.101.144.034-.071-.122.193-.01-.004.051-.062-.224.217.042-.036.065-.049-.036.021-.202.142-.008.018.272-.174-.233.077.076-.035.2-.073.041-.023-.02-.014.058-.008.119-.005.177-.009.951-.065,1.905-.094,2.857-.141l7.271-.359c1.079-.053,2-.881,2-2,0-1.042-.916-2.054-2-2Z"/><path class="g" d="M14.474,226.956l6.196.306,3.516.174c.194.01.398.002.591.029-.319-.045.28.081-.028-.002.016.004.26.182.124.067-.174-.147.203.236.055.061-.115-.136.06.11.062.126-.056-.326.005.079.004.086.004-.037-.018-.27-.019-.019,0,.232-.018.464-.03.696-.033.665-.066,1.331-.099,1.996-.009.175-.019.35-.026.524,0-.009-.029.399-.006.192-.002.014-.061.14-.073.154.148-.174-.236.203-.061.055.137-.115-.111.06-.126.062.326-.056-.079.005-.086.004.037.004.269-.016.019-.019-.081,0-.161-.004-.242-.007-.943-.035-1.886-.093-2.829-.14-2.385-.118-4.78-.182-7.162-.354-.058-.004-.119,0-.177-.009.303.044-.043-.016-.079-.041.19.133-.02-.007-.063-.059.205.246-.042-.064-.045-.072.129.279-.095-.216-.001-.026.08.162-.03-.121-.028-.14-.031.309.015-.042.019-.091.004-.053.006-.106.008-.158.012-.312.031-.624.046-.936.034-.688.083-1.377.102-2.066.002-.061.001-.127.009-.188.008-.057-.015.135-.013.11l.055-.197c-.061.136-.058.144.008.023.044-.068.041-.069.118-.107.207-.103.012-.023-.023-.001.217-.05.261-.065.133-.043-.132.016-.082.02.149.01,2.574.011,2.578-3.989,0-4-1.583-.007-3.104.805-3.881,2.208-.467.844-.533,1.755-.579,2.69-.086,1.734-.441,3.662.612,5.185.82,1.186,2.06,1.801,3.48,1.901.329.023.66.033.989.049l4.512.223,4.185.207c2.077.102,4.001-.768,4.761-2.837.248-.675.259-1.396.294-2.106.04-.813.092-1.626.12-2.439.056-1.608-.711-3.149-2.115-3.977-1.138-.671-2.495-.616-3.77-.679-2.87-.142-5.739-.283-8.609-.425-1.08-.053-2,.957-2,2,0,1.127.917,1.947,2,2Z"/><path class="e" d="M81.88,410.547c-1.609-3.12-2.224-6.81-2.421-10.472-.318-5.895.014-12.054,2.792-17.263,3.723-6.98,13.779-11.62,20.831-6.381,7.833,5.82,11.583,18.325,12.158,27.597.432,6.956-2.841,12.361-9.868,13.988-5.848,1.354-12.762,1.337-18.091-1.743-2.494-1.441-4.217-3.429-5.402-5.726Z"/><path class="g" d="M83.607,409.537c-2.071-4.145-2.303-9.035-2.241-13.588.06-4.437.709-9.13,3.096-12.965,3.478-5.587,11.66-9.153,17.467-4.931,5.951,4.327,8.878,12.269,10.36,19.186,1.307,6.099,2.27,14.086-4.161,17.636-3.768,2.08-9.034,2.355-13.215,1.816-4.763-.614-9.01-2.825-11.307-7.155-1.207-2.275-4.661-.256-3.454,2.019,4.952,9.334,17.128,10.796,26.441,8.212,3.877-1.076,7.36-3.581,9.11-7.272,1.874-3.951,1.709-8.174,1.127-12.402-1.164-8.466-4.273-17.734-10.683-23.7-3.235-3.01-7.245-4.633-11.693-4.098-4.266.513-8.302,2.67-11.233,5.801-3.904,4.169-5.387,9.891-5.762,15.461-.404,6-.032,12.542,2.694,17.998,1.151,2.303,4.602.28,3.454-2.019Z"/><path class="h" d="M47.664,31.373c-.641.697-1.224,1.511-1.754,2.455-1.939,3.453-.484,12.49-3.034,14.929-.93-1.277-2.426-1.743-3.674-1.699-.532.019-.994.099-1.394.222-1.06-3.933-1.783-8.201-1.639-11.608.482-11.41,4.165-18.27,10.197-23.066.231-.184.443-.388.635-.612,5.207-6.057,14.282-10.452,23.918-9.971,7.672.383,13.795,2.324,19.058,6.029l1.783,1.256c1.331,1.202,2.661,2.404,2.661,2.404,5.529,4.995,10.524,12.784,11.009,24.272.164,3.874-.292,7.034-1.364,11.257-.37-.101-.791-.167-1.267-.184-1.064-.037-2.306.295-3.229,1.182l-.731-.162c-.051-5.01-2.729-16.724-9.508-19.12-1.568-.585-7.719-2.4-10.865-2.829-4.269-.582-8.245.089-12.51.698-2.801.4-5.71.73-9.517.993-3.529.156-6.268,1.072-8.397,3.164-.128.126-.254.256-.378.391Z"/><path class="g" d="M90.985,6.326c-10.054-6.991-24.1-8.354-35.231-3.257-2.676,1.225-5.162,2.839-7.396,4.754-.998.855-1.872,1.804-2.772,2.757-.873.924-1.931,1.666-2.837,2.563-3.435,3.404-5.786,7.705-7.087,12.346-2.026,7.227-1.767,14.581.081,21.806.638,2.492,4.496,1.436,3.857-1.063-1.515-5.92-1.864-11.774-.554-17.771.939-4.295,2.72-8.382,5.718-11.644.662-.721,1.367-1.401,2.107-2.042.973-.843,1.83-1.742,2.736-2.656,1.799-1.815,3.859-3.318,6.095-4.552,4.932-2.722,10.49-3.864,16.096-3.493,6.17.409,12.069,2.158,17.17,5.705,2.118,1.473,4.12-1.993,2.019-3.454h0Z"/><path class="g" d="M106.115,47.296c1.794-7.369,1.816-15.013-.638-22.25-1.917-5.655-5.229-10.727-9.643-14.748-1.899-1.731-4.736,1.09-2.828,2.828,3.9,3.553,6.92,7.969,8.614,12.983,2.225,6.585,2.272,13.411.638,20.123-.609,2.5,3.247,3.567,3.857,1.063h0Z"/><path class="g" d="M100.839,48.077c-.057-3.856-.981-7.834-2.432-11.395-1.67-4.096-4.219-8.06-8.544-9.654-1.014-.373-2.191.418-2.46,1.397-.307,1.116.38,2.085,1.397,2.46.299.11-.015-.039.356.15.21.107.417.215.619.336.174.104.343.215.51.33.317.218-.079-.086.246.183.626.518,1.318,1.248,1.735,1.794,1.005,1.314,1.965,3.207,2.541,4.715.668,1.75,1.175,3.563,1.541,5.399.087.435.165.872.235,1.31.013.081.109.746.054.33.024.183.046.366.066.549.077.696.127,1.394.137,2.094.038,2.572,4.038,2.579,4,0h0Z"/><path class="g" d="M84.562,26.53c-.524-1.916-1.127-3.838-2.403-5.396-.541-.66-1.25-1.172-1.945-1.657-.79-.552-1.609-1.011-2.505-1.37-.45-.181-1.141-.032-1.541.202-.415.243-.811.718-.919,1.195-.117.512-.091,1.087.202,1.541.3.465.685.714,1.195.919-.724-.29-.151-.06.025.03.167.086.331.178.493.273.338.198.667.411.988.634.162.112.321.229.479.346.193.143-.393-.315-.153-.117.064.053.13.105.193.159.118.1.232.205.34.315.08.082.217.322.318.357-.075-.026-.338-.457-.117-.147.048.067.094.135.139.204.085.13.164.264.239.4.079.143.153.288.222.435.04.084.077.169.115.253.15.33-.176-.447-.053-.123.325.855.588,1.727.829,2.609.276,1.009,1.434,1.729,2.46,1.397,1.033-.334,1.692-1.379,1.397-2.46h0Z"/><path class="g" d="M77.187,25.816c-1.049-1.401-2.161-2.648-3.557-3.709-1.103-.839-2.327-1.516-3.584-2.098-1.208-.559-2.498-.929-3.794-1.22-1.36-.306-2.807-.589-4.207-.514-1.079.058-2,.878-2,2,0,1.038.916,2.058,2,2,.539-.029,1.066.024,1.602.074.234.022-.306-.053.083.015.181.032.362.06.543.094.306.057.612.12.916.188.611.138,1.219.296,1.818.478.248.075.495.155.739.241.108.038.215.08.323.118.421.147-.392-.201-.042-.02,1.109.573,2.21,1.113,3.233,1.836.126.089.305.235.084.058.139.111.276.225.41.342.231.201.455.412.671.629.231.232.453.473.667.719.259.297.5.6.64.787.646.863,1.729,1.307,2.736.718.851-.498,1.369-1.867.718-2.736h0Z"/><path class="g" d="M56.439,25.818c-2.822.144-5.731.704-8.093,2.347-2.209,1.536-4.151,3.851-4.895,6.473-.684,2.41-.686,5.014-.861,7.496-.083,1.185-.159,2.233-.382,3.294-.1.473-.216.957-.4,1.406.145-.354-.16.273-.198.338-.163.276.171-.137-.203.221-1.861,1.786.97,4.612,2.828,2.828,1.632-1.566,1.953-4.017,2.188-6.15.247-2.239.246-4.774.562-6.836.074-.482.166-.964.294-1.435.071-.26.146-.523.248-.772-.144.349.092-.163.109-.192.635-1.085,1.342-2.078,2.31-2.893,1.809-1.524,4.19-2.008,6.492-2.126,2.561-.131,2.577-4.132,0-4h0Z"/><path class="g" d="M78.978,69.5c.164.158.315.328.455.508l-.313-.405c.305.401.542.844.739,1.307l-.202-.478c.068.163.132.327.192.493.062.26.181.487.358.68.141.218.328.389.561.515.23.146.477.225.744.237.266.06.532.048.798-.036.484-.157.951-.457,1.195-.919.24-.455.383-1.039.202-1.541-.209-.578-.441-1.158-.746-1.693-.112-.198-.237-.388-.374-.569-.244-.324-.487-.647-.779-.929-.373-.36-.892-.586-1.414-.586-.275-.01-.532.047-.771.172-.248.081-.463.219-.644.414-.35.381-.61.882-.586,1.414.024.525.199,1.04.586,1.414h0Z"/><path class="g" d="M97.373,62.694c-.308,1.478-.765,2.927-1.301,4.337-.193.508-.349.826-.58,1.401-.204.506.138-.279-.034.082-.063.131-.121.264-.184.395-.887,1.853-1.995,3.613-3.178,5.289-2.765,3.918-6.547,8.195-11.407,9.337-2.505.589-1.444,4.446,1.063,3.857,5.742-1.349,10.161-6.144,13.487-10.741,1.291-1.784,2.494-3.667,3.454-5.652.206-.425.39-.859.572-1.295.216-.517-.148.347.08-.183.149-.345.295-.691.434-1.041.607-1.53,1.115-3.112,1.451-4.724.524-2.512-3.331-3.586-3.857-1.063h0Z"/><path class="g" d="M40.688,63.655c2.466,10.814,10.604,22.603,22.29,24.366,1.067.161,2.15-.268,2.46-1.397.26-.945-.322-2.298-1.397-2.46-10.394-1.568-17.309-11.981-19.497-21.573-.572-2.509-4.43-1.447-3.857,1.063h0Z"/><path class="g" d="M65.421,72.84c1.834.968,3.806,1.385,5.881,1.372,2.179-.014,4.306-.475,6.042-1.828.829-.646.729-2.159,0-2.828-.88-.807-1.944-.689-2.828,0,.69-.538-.033-.007-.252.108-.169.089-.624.23.003.019-.161.054-.316.122-.478.174-.204.065-.41.121-.618.17-.223.052-.511.051-.72.136.207-.084.318-.038.017-.008-.131.013-.263.024-.394.032-.317.02-.634.028-.951.027-.284-.002-.568-.011-.852-.031-.13-.009-.26-.019-.39-.032-.074-.007-.148-.015-.222-.025-.157-.019-.097-.011.178.024-.093.056-.529-.095-.641-.119-.205-.045-.408-.098-.61-.158-.175-.052-.346-.115-.519-.174-.452-.155.417.2.008.007-.214-.101-.426-.206-.635-.317-.925-.488-2.217-.265-2.736.718-.488.924-.27,2.215.718,2.736h0Z"/><path class="g" d="M70.038,59.306c.244.932.479,1.879.619,2.833l-.071-.532c.017.131.024.26.011.391l.071-.532c-.009.061-.023.118-.043.176l.202-.478c-.018.041-.037.076-.062.113l.313-.405c-.029.035-.057.063-.093.091l.405-.313c-.072.046-.147.083-.224.119l.478-.202c-.124.052-.246.089-.378.11l.532-.071c-.119.014-.236.013-.355,0l.532.071c-.134-.019-.265-.051-.399-.069-.266-.083-.532-.095-.798-.036-.266.012-.514.091-.744.237-.415.243-.811.718-.919,1.195-.117.512-.091,1.087.202,1.541.26.403.695.852,1.195.919.353.048.696.136,1.056.152.577.025,1.105-.156,1.618-.394.645-.299,1.153-.91,1.325-1.603.147-.593.087-1.071-.014-1.666-.154-.913-.365-1.817-.6-2.712-.127-.483-.49-.944-.919-1.195s-1.061-.357-1.541-.202c-.484.157-.951.457-1.195.919-.253.48-.342,1.007-.202,1.541h0Z"/><path class="g" d="M55.586,51.138c-.473,1.537-.165,5.074,2.748,5.375,3.85-.023,4.054-4.299,2.759-6.309-1.061-1.646-4.181-2.331-5.506.934Z"/><path class="g" d="M86.414,51.138c.473,1.537.165,5.074-2.748,5.375-3.85-.023-4.055-4.299-2.759-6.31,1.061-1.646,4.181-2.33,5.507.935Z"/><path class="g" d="M100.984,49.654c.635-.567,1.481-.697,2.288-.545.492.092.671.158,1.088.465-.282-.208.539.73.228.237.438.694.618,1.223.779,2.102.181.99.165,2.087.078,3.107-.15,1.752-.812,3.524-1.603,4.983-.979,1.806-2.456,3.675-4.715,3.382-1.073-.139-2,1.019-2,2,0,1.196.924,1.86,2,2,5.235.679,8.449-4.975,9.757-9.206,1.173-3.795,1.123-9.684-2.588-12.113-2.522-1.651-5.95-1.193-8.14.761-1.925,1.717.912,4.538,2.828,2.828h0Z"/><path class="g" d="M43.844,46.825c-2.061-1.839-4.963-2.269-7.483-1.116-1.803.825-2.909,2.53-3.417,4.396-1.166,4.282-.075,9.29,2.38,12.943,1.68,2.5,4.333,4.753,7.548,4.335,1.071-.139,2-.82,2-2,0-.973-.921-2.14-2-2-2.258.293-3.736-1.576-4.715-3.382-.793-1.463-1.452-3.229-1.603-4.983-.088-1.024-.1-2.113.078-3.107.156-.875.347-1.418.779-2.102-.319.505.513-.446.228-.237.388-.286.54-.344.958-.437.853-.19,1.744-.084,2.418.517,1.915,1.709,4.754-1.11,2.828-2.828h0Z"/></g></svg>