<svg id="b" xmlns="http://www.w3.org/2000/svg" width="113.421" height="358.462" viewBox="0 0 113.421 358.462" style="color: initial !important;"><defs><style>.d{fill:#3d8dcc;}.e{fill:#ffffff;}.f{fill:#211715;}.g{fill:#645d5c;}.h{fill:#febe69;}</style></defs><g id="c"><path class="e" d="M11.894,200.296l.85.04c-.18,3.8-.37,7.62-.55,11.43l-.65-.03c-6.47-.7-9-6.28-9.41-9.73-.2-1.68.15-3.38.51-5.04.66-3.12,1.33-6.23,2.03-9.34l8.67.55c-.1,1.87-.19,3.74-.28,5.62l-.85-.04c-1.04-.05-1.93.75-1.98,1.8l-.14,2.75c-.05,1.05.76,1.94,1.8,1.99Z"/><path class="e" d="M110.724,196.966c.36,1.66.71,3.36.51,5.04-.4,3.39-2.85,8.83-9.07,9.68-.19-3.79-.37-7.57-.55-11.35l.84-.04c1.05-.05,1.86-.94,1.8-1.99l-.13-2.75c-.05-1.05-.94-1.85-1.99-1.8l-.84.04c-.11-2.08-.21-4.16-.31-6.24l7.59-.5c.73,3.3,1.45,6.6,2.15,9.91Z"/><path class="f" d="M106.253,185.848c.728,3.231,1.44,6.466,2.134,9.705.325,1.52.75,3.061.87,4.614.096,1.243.038,1.726-.24,2.8-.894,3.45-3.508,6.31-7.188,6.771-1.072.134-2,.823-2,2,0,.977.921,2.135,2,2,5.238-.656,9.226-3.992,10.846-9.023.888-2.759.569-5.49-.017-8.282-.816-3.89-1.674-7.772-2.548-11.649-.565-2.51-4.423-1.448-3.857,1.063h0Z"/><path class="f" d="M3.259,184.784c-.855,3.797-1.69,7.598-2.496,11.406-.608,2.872-.984,5.681-.069,8.525,1.62,5.032,5.608,8.367,10.846,9.023,1.074.134,2-1.015,2-2,0-1.193-.923-1.865-2-2-3.683-.461-6.291-3.321-7.188-6.771-.273-1.049-.333-1.577-.24-2.8.112-1.471.511-2.932.819-4.371.71-3.32,1.439-6.636,2.185-9.948.565-2.507-3.291-3.578-3.857-1.063h0Z"/><path class="e" d="M44.481,84.873c.394-.918.593-1.871.751-2.774.089-.506.159-.933.206-1.304-3.599-1.467-6.915-4.012-9.8-7.235-3.119-3.484-5.013-7.214-6.137-10.43-.467.126-.734.198-.734.198-1.572.423-2.773-.415-3.73-1.179-1.247-1.008-2.143-2.332-2.831-3.715-1.412-2.839-2.026-6.014-1.756-9.13.074-.79.203-1.601.602-2.312.237-.425.572-.803.972-1.112.555-.428,1.234-.724,1.951-.832.833-.124,1.705.012,2.458.361l1.787-.576c1.628-.207,3.657-1.161,5.135-1.885,7.073-3.549,15.028-10.2,21.689-14.585-.836,2.129-2.567,6.715-1.42,6.524,4.357-.18,10.114-3.463,14.15-8.177,1.908,4.129,4.839,8.72,8.984,12.513,2.076,1.9,7.048,4.935,8.525,5.779l.983.562c.422-.152.843-.305.843-.305.658-.238,1.382-.316,2.078-.212,1.234.184,2.358.929,2.923,1.943.399.711.528,1.522.602,2.312.27,3.116-.344,6.291-1.756,9.13-.688,1.383-1.584,2.707-2.831,3.715-.957.764-1.919,1.197-3.309.774,0,0-.182-.055-.497-.15-.305,1.2-.707,2.246-.887,2.757-.986,2.498-6.536,11.401-13.495,14.571.068.543.158,1.172.307,1.998.36,2.12.96,4.52,3.78,6.08.19.06,3.87,1.81,4.16,1.93,0,0-.573,21.949-19.907,21.949s-20.993-21.949-20.993-21.949c.3-.12,3.97-1.87,4.17-1.93,1.613-.896,2.498-2.068,3.029-3.306Z"/><path class="g" d="M70.971,9.132c.642-4.507,4.316-6.441,8.378-7.017,4.264-.604,7.262.511,10.671,3.556,1,.886,2.23,2.419,2.865,4.027.979,2.479,1.478,4.185,2.043,6.787.687,3.106,1.39,5.086,3.507,7.261-3.777,1.178-7.064,1.409-10.156.116l-17.309-14.729Z"/><path class="f" d="M73.354,7.892c1.331-2.691,4.319-3.711,7.164-3.903,3.203-.216,5.886,1.045,8.207,3.207,2.521,2.349,3.386,5.903,4.124,9.154.76,3.349,1.761,6.271,4.172,8.807l.883-3.343c-3.06.93-6.049,1.325-9.086.115-1.004-.4-2.197.437-2.46,1.397-.313,1.139.389,2.059,1.397,2.46,3.641,1.45,7.547,1,11.213-.115,1.457-.443,1.933-2.238.883-3.343-2.655-2.792-2.842-6.475-3.915-10.003-.604-1.986-1.293-4.052-2.499-5.759-1.131-1.6-2.548-2.878-4.135-4.02-3.121-2.245-6.716-2.916-10.48-2.363-3.633.534-7.228,2.27-8.92,5.69-1.138,2.3,2.311,4.329,3.454,2.019h0Z"/><path class="g" d="M42.191,7.189c-.142.063-.283.127-.423.191-1.87.86-3.604,1.864-5.165,2.982-4.774,3.42-11.564,11.149-12.681,22.753-.057.588-.099,1.185-.125,1.793-.147,3.384.058,7.051.77,10.102,1.05-.011,2.102.371,2.851,1.047l.8-1.222c1.628-.207,3.657-1.161,5.128-1.886,7.08-3.548,15.035-10.199,21.696-14.584-.836,2.129-2.567,6.715-1.42,6.524,4.357-.18,10.114-3.463,14.15-8.177,1.908,4.129,4.839,8.72,8.984,12.513,2.076,1.9,7.048,4.935,8.525,5.779l.46,1.053c.761-.687,1.836-1.071,2.903-1.052.913-3.286,1.154-6.253.987-10.096-.549-12.603-7.082-20.434-13.481-24.76-5.34-3.61-11.489-6.011-19.437-6.011-5.222,0-10.215,1.143-14.521,3.052Z"/><path class="f" d="M82.703,60.24c-.06,1.387-.485,2.732-.943,4.034-.085.242-.181.481-.26.725-.107.333.222-.41.039-.098-.156.266-.272.563-.417.837-.9,1.696-1.995,3.331-3.158,4.837-2.831,3.667-6.596,7.478-11.292,8.507-2.513.551-1.45,4.408,1.063,3.857,5.557-1.218,10.008-5.587,13.371-9.941,2.876-3.723,5.386-7.922,5.596-12.758.112-2.574-3.889-2.568-4,0h0Z"/><path class="f" d="M87.154,47.471c.95-.794,2.644-.556,3.226.531.375.699.37,1.622.387,2.395.02.966-.031,1.939-.205,2.891-.35,1.913-1.008,3.76-2.046,5.409-.434.689-.968,1.375-1.608,1.884-.573.456-.883.595-1.563.414-2.49-.664-3.552,3.193-1.063,3.857,3.162.843,5.64-1.188,7.364-3.648,1.701-2.426,2.633-5.395,2.989-8.312.338-2.768.328-6.271-1.911-8.284-2.431-2.185-5.961-2.002-8.397.035-.829.693-.716,2.112,0,2.828.821.821,1.997.695,2.828,0h0Z"/><path class="f" d="M90.834,44.529c1.951-8.394.716-17.901-3.595-25.393-3.576-6.214-9.312-11.04-15.839-13.929-8.317-3.681-17.96-4.03-26.585-1.165-6.921,2.298-12.692,6.492-16.872,12.457-5.684,8.109-7.272,18.373-5.52,28.016.46,2.529,4.315,1.458,3.857-1.063-1.413-7.777-.261-16.081,3.803-22.904,3.172-5.326,7.613-9.246,13.24-11.686,13.366-5.796,30.485-2.119,39.04,10.059,4.879,6.945,6.533,16.294,4.615,24.544-.582,2.505,3.274,3.574,3.857,1.063h0Z"/><path class="f" d="M66.045,27.721c2.177,4.673,5.175,9.038,8.935,12.581,2.715,2.558,6.067,4.577,9.292,6.429,2.236,1.284,4.253-2.171,2.019-3.454-2.967-1.703-6.129-3.586-8.482-5.803-3.534-3.33-6.264-7.382-8.309-11.771-.456-.979-1.866-1.227-2.736-.718-1.004.587-1.175,1.754-.718,2.736h0Z"/><path class="f" d="M28.75,46.763c1.974-.309,3.832-1.219,5.613-2.086,1.453-.708,1.222-3.414-.478-3.655h-.007c.159,1.218.319,2.436.478,3.655,7.793-3.952,14.441-9.784,21.696-14.584l-2.938-2.259c-.708,1.808-1.484,3.671-1.777,5.601-.155,1.023-.122,2.084.68,2.845.947.899,2.331.59,3.484.391,5.312-.915,10.222-4.564,13.686-8.544,1.683-1.934-1.135-4.775-2.828-2.828-1.886,2.168-4.055,4.039-6.55,5.475-1.059.609-2.155,1.141-3.317,1.524-.522.172-1.053.318-1.59.43-.228.047-.458.092-.689.12-.272.032-.944-.124-.249.09l.883.514c.237.258.369.552.397.883l.006-.174c-.136.156.022-.143.067-.34.128-.558.29-1.107.465-1.652.356-1.105.768-2.191,1.192-3.271.636-1.624-1.551-3.176-2.938-2.259-7.255,4.8-13.903,10.633-21.696,14.584-1.431.726-1.238,3.412.478,3.655h.007c-.159-1.218-.319-2.436-.478-3.655-1.494.728-3.002,1.424-4.657,1.683-1.068.167-1.66,1.504-1.397,2.46.313,1.139,1.389,1.565,2.46,1.397h0Z"/><path class="f" d="M28.832,44.642c-2.435-2.036-5.968-2.218-8.397-.035-2.3,2.067-2.246,5.686-1.881,8.512.38,2.935,1.373,5.913,3.13,8.322,1.782,2.444,4.437,4.515,7.614,3.815,1.055-.233,1.672-1.458,1.397-2.46-.299-1.088-1.402-1.63-2.46-1.397-1.344.296-2.781-1.476-3.433-2.457-1.103-1.66-1.8-3.55-2.176-5.501-.181-.938-.247-1.891-.238-2.845.008-.831-.017-1.843.39-2.594.587-1.084,2.273-1.328,3.226-.531.828.692,2.017.812,2.828,0,.712-.712.832-2.132,0-2.828h0Z"/><path class="f" d="M26.477,59.686c1.151,5.598,3.831,10.849,7.607,15.129,3.998,4.533,9.348,8.282,15.44,9.149,1.068.152,2.148-.262,2.46-1.397.258-.938-.321-2.307-1.397-2.46-10.486-1.493-18.22-11.602-20.253-21.485-.518-2.52-4.375-1.453-3.857,1.063h0Z"/><path class="f" d="M50.991,68.941c1.527,1.495,3.891,1.974,5.951,1.973s4.424-.477,5.952-1.973c.749-.733.79-2.103,0-2.828-.805-.739-2.029-.782-2.828,0-.077.075-.371.31-.041.055.342-.264-.04.018-.137.078-.118.072-.239.139-.362.201-.081.041-.174.073-.252.118.101-.058.465-.177.15-.069-.396.136-.793.253-1.206.33-.151.028-.489.171-.019.014-.111.037-.256.028-.37.038-.295.025-.59.036-.886.036-.27,0-.541-.009-.811-.03-.127-.01-.321-.059-.447-.044.192-.023.352.053.048-.002-.415-.074-.826-.179-1.223-.323-.161-.059-.419-.229.101.051-.068-.037-.142-.064-.211-.098-.137-.067-.272-.14-.402-.221-.099-.061-.191-.136-.291-.197.577.35.276.223.113.063-.748-.733-2.092-.802-2.828,0-.726.791-.799,2.046,0,2.828h0Z"/><path class="f" d="M55.959,56.397c.244.931.479,1.877.619,2.831l-.071-.532c.017.131.024.259.011.391l.071-.532c-.009.061-.023.118-.043.176l.202-.478c-.018.041-.037.076-.062.113l.313-.405c-.029.035-.057.063-.092.091l.405-.313c-.072.046-.147.083-.224.119l.478-.202c-.123.052-.246.089-.378.11l.532-.071c-.119.014-.236.013-.355,0l.532.071c-.134-.019-.265-.051-.399-.069-.266-.083-.532-.095-.798-.036-.266.012-.514.091-.744.237-.415.243-.811.718-.919,1.195-.117.512-.091,1.087.202,1.541.26.403.695.852,1.195.919.353.048.696.136,1.055.152.577.025,1.105-.156,1.617-.394.645-.299,1.153-.91,1.324-1.603.147-.593.087-1.071-.014-1.665-.154-.912-.365-1.816-.599-2.71-.127-.483-.49-.944-.919-1.195s-1.061-.357-1.541-.202c-.484.157-.951.457-1.195.919-.253.48-.342,1.007-.202,1.541h0Z"/><path class="f" d="M41.689,48.811c-.462,1.502-.161,4.957,2.684,5.251,3.761-.022,3.961-4.199,2.695-6.163-1.036-1.608-4.084-2.277-5.379.913Z"/><path class="f" d="M71.679,48.811c.462,1.502.161,4.957-2.684,5.251-3.761-.023-3.961-4.2-2.695-6.163,1.036-1.608,4.084-2.277,5.379.913Z"/><path class="f" d="M37.813,92.038c1.417-.584,2.785-1.287,4.178-1.925.105-.048.211-.094.316-.143.249-.115-.549.229-.351.148.193-.079.39-.153.575-.251.678-.36,1.319-.865,1.871-1.394,1.003-.963,1.683-2.159,2.162-3.452.438-1.183.639-2.464.807-3.71.076-.558.096-1.033-.202-1.541-.243-.415-.718-.811-1.195-.919-.939-.214-2.31.288-2.46,1.397-.141,1.042-.31,2.099-.609,3.109-.065.221-.142.438-.219.655-.017.049-.057.111-.063.163,0,.008.184-.396.087-.208-.064.122-.116.251-.179.374-.121.233-.255.46-.402.678-.042.061-.288.399-.102.151.184-.245-.116.127-.175.191-.184.2-.382.38-.584.561-.275.247.267-.177-.047.04-.145.1-.289.2-.439.293-.369.229-.023.027.111.008-.164.024-.374.156-.523.22-.087.037-.173.076-.259.115-.664.301-1.323.614-1.983.924-.38.178-.76.357-1.141.535-.234.109-1.214.528-.237.126-.503.207-.909.431-1.195.919-.251.429-.357,1.061-.202,1.541.3.928,1.424,1.824,2.46,1.397h0Z"/><path class="f" d="M67.931,80.089c.336,2.608.682,5.323,2.338,7.468.467.604.979,1.104,1.582,1.571.323.25.653.495,1.011.694.203.113.419.214.639.29.109.038-.617-.273-.343-.144.662.312,1.328.614,1.99.925.672.316,1.339.653,2.023.943.517.219.975.358,1.541.202.464-.128.967-.486,1.195-.919.453-.857.311-2.3-.718-2.736-.748-.317-1.477-.687-2.212-1.032-.454-.213-.909-.427-1.364-.637-.145-.067-.29-.134-.436-.199-.163-.072-.539-.25-.573-.243-.156.031.432.237.205.054-.142-.115-.327-.212-.482-.31-.182-.133-.172-.122.03.033-.078-.063-.156-.127-.231-.193-.213-.186-.704-.54-.787-.818.173.227.196.255.069.082-.051-.072-.1-.145-.148-.219-.094-.145-.182-.295-.264-.447-.033-.061-.172-.441-.226-.456.117.286.136.329.055.131-.03-.077-.06-.155-.088-.233-.219-.607-.367-1.236-.486-1.869-.073-.389-.141-.78-.204-1.171-.034-.206-.065-.413-.095-.62-.014-.094-.027-.188-.04-.282.041.308.047.353.019.137-.133-1.034-.824-2.053-2-2-.969.043-2.143.889-2,2h0Z"/><path class="d" d="M89.399,93.239c-.267-.115-.54-.232-.819-.35-4.812-1.737-9.122-3.293-9.122-3.293l-.577-.208c-.937-.392-1.827-.752-2.573-1.031-1.032-.386-2.427.628-3.063,1.548-3.904,5.645-9.086,10.218-15.406,14.117-4.336-1.72-7.212-3.889-10.749-7.006-2.76-2.44-3.8-3.8-6.19-6.49-.67-.76-2.044-2.423-3.618-1.773-.917.378-2.621.962-4.406,1.784-1.562.564-4.7,1.697-8.087,2.919-1.446.611-2.735,1.19-3.772,1.694-1.093.536-4.28,2.747-5.181,3.532-4.517,3.937-7.911,11.103-8.888,16.672-3.25,18.514-4.5,48.387-4.98,69.533-.031,1.386.937,2.58,2.311,2.706l13.958.905s.579.038,1.452.094c.139.721.891,1.269,1.805,1.269,16.657.06,43.191-.019,65.002.014,1.772.003,3.512.006,5.214.01,1.115,0,2.004-.735,2.004-1.648,0-.066,0-.137,0-.211.856-.057,1.422-.094,1.422-.094l13.958-.905c1.373-.126,2.342-1.32,2.311-2.706-.48-21.146-1.73-51.019-4.98-69.533-.978-5.569-4.371-12.735-8.888-16.672-.901-.785-4.087-2.996-5.181-3.532-.837-.407-1.838-.863-2.954-1.345Z"/><path class="d" d="M31.971,189.881c10.156.008,22.163-.007,34.077-.013,0,9.835,0,20.621,0,20.621h-8.937c-2.151,15.508-3.615,29.889-4.53,45.488v3.318c-6.129,2.132-18.192,6.432-25.66,8.606-1.486-3.493-3.174-7.439-4.561-10.735l-.58-2.11c-.46-1.68-.68-3.42-.66-5.16.12-8.959.4-39.363,1.127-60.033,2.971.01,6.238.015,9.724.018Z"/><path class="f" d="M54.581,255.977c.889-15.04,2.394-30.032,4.459-44.956.148-1.069-.259-2.148-1.397-2.46-.934-.257-2.311.32-2.46,1.397-2.114,15.28-3.691,30.619-4.602,46.019-.152,2.571,3.849,2.563,4,0h0Z"/><path class="f" d="M20.26,189.856c-.415,11.651-.63,23.309-.811,34.966-.081,5.203-.15,10.406-.214,15.61-.044,3.603-.308,7.289-.078,10.887.166,2.594.784,5.22,1.795,7.615,1.545,3.658,3.108,7.308,4.661,10.962.422.994,1.889,1.213,2.736.718,1.029-.602,1.142-1.738.718-2.736-1.33-3.131-2.668-6.259-3.996-9.392-.794-1.872-1.452-3.794-1.769-5.814-.299-1.907-.167-3.877-.144-5.802.022-1.866.044-3.731.067-5.597.13-10.718.282-21.436.509-32.152.136-6.422.298-12.844.526-19.264.092-2.574-3.909-2.571-4,0h0Z"/><path class="e" d="M64.27,334.129c.088-.202.175-.404.26-.607,1.481-3.526,2.775-7.18,4.028-10.793,2.01-5.792,5.173-16.666-1.824-20.619-.096-.054-.195-.104-.297-.146-3.622-10.304-8.29-28.662-11.737-43.396-6.337,2.144-28.161,10.077-33.19,10.613l-1.063.113c.887,2.055,1.775,4.109,1.775,4.109,2.292,5.307,14.895,39.139,14.897,39.957l.004,1.456c-.616,1.969-3.828,13.21-4.844,18.222-1.357,6.696-.242,13.667,6.905,16.315,3.423,1.268,7.292,1.035,10.724-.207,6.937-2.51,11.492-8.464,14.362-15.017Z"/><path class="f" d="M20.495,274.412c.146.34-.173-.427.072.173.106.259.212.518.317.778.258.638.511,1.278.762,1.919.691,1.761,1.37,3.526,2.046,5.293,1.689,4.418,3.352,8.845,5.003,13.276,1.541,4.137,3.073,8.277,4.572,12.43.48,1.331.96,2.662,1.419,4.001.131.383.251.769.382,1.151.034.099.045.225.093.316.131.249.087-.637-.042-.214-.119.388.04.751-.035,1.107-.076.361-.215.72-.319,1.075-.306,1.046-.605,2.094-.901,3.143-.776,2.75-1.53,5.506-2.24,8.274-1.398,5.443-2.939,11.374-.737,16.827,2.846,7.046,10.922,9.404,17.874,7.63,6.756-1.725,12.007-6.832,15.385-12.755,1.907-3.343,3.259-6.994,4.577-10.599,1.095-2.993,2.21-6.001,3.048-9.079,1.397-5.136,2.423-11.662-1.081-16.209-.864-1.121-1.969-2.086-3.244-2.713l.919,1.195c-4.864-13.895-8.211-28.387-11.577-42.701-.589-2.505-4.447-1.444-3.857,1.063,2.033,8.646,4.164,17.27,6.496,25.84,1.04,3.82,2.119,7.631,3.292,11.412.509,1.64,1.036,3.275,1.597,4.898.381,1.102.835,1.516,1.8,2.129.542.344,1.037.793,1.429,1.303,1.73,2.253,1.672,5.51,1.326,8.182-.377,2.911-1.25,5.76-2.203,8.527-2.691,7.813-5.292,16.433-11.84,21.955-5.373,4.532-16.164,6.758-19.967-.925-1.382-2.792-1.285-6.222-.719-9.21.575-3.036,1.409-6.032,2.211-9.014.753-2.801,1.53-5.597,2.349-8.379.409-1.389.629-2.827.194-4.238-1.044-3.389-2.365-6.711-3.587-10.038-3.431-9.342-6.842-18.708-10.568-27.937-.258-.638-.521-1.274-.793-1.906-.427-.992-1.886-1.215-2.736-.718-1.026.6-1.146,1.74-.718,2.736h0Z"/><path class="f" d="M21.511,271.18c4.125-.472,8.191-2,12.117-3.276,5.211-1.694,10.385-3.498,15.557-5.307,2.051-.717,4.099-1.443,6.158-2.139,2.426-.82,1.385-4.685-1.063-3.857-9.198,3.108-18.291,6.555-27.614,9.284-1.052.308-2.108.606-3.173.869-.446.11-.894.216-1.345.307-.166.033-.333.062-.5.095-.571.113.032.006-.137.025-1.073.123-2,.831-2,2,0,.986.92,2.123,2,2h0Z"/><path class="f" d="M22.457,276.911c5.821,3.032,12.107,4.196,18.636,4.213,2.574.007,2.578-3.993,0-4-5.811-.015-11.437-.969-16.617-3.667-2.28-1.188-4.305,2.263-2.019,3.454h0Z"/><path class="f" d="M53.586,262.651c-5.16,10.583-14.346,18.167-24.646,23.506-2.286,1.185-.266,4.638,2.019,3.454,10.847-5.623,20.648-13.8,26.081-24.941,1.124-2.305-2.325-4.335-3.454-2.019h0Z"/><path class="f" d="M56.927,278.143c-2.693,11.4-13.029,19.142-23.706,22.613-2.438.792-1.395,4.656,1.063,3.857,11.971-3.891,23.482-12.631,26.5-25.407.591-2.503-3.265-3.572-3.857-1.063h0Z"/><path class="f" d="M39.493,333.315c1.817-1.383,3.856-1.413,6.023-.726,2.362.749,4.542,1.933,6.579,3.478.861.653,2.237.136,2.736-.718.6-1.026.146-2.082-.718-2.736-4.374-3.318-11.607-6.582-16.64-2.752-.858.653-1.31,1.724-.718,2.736.494.845,1.872,1.376,2.736.718h0Z"/><path class="f" d="M49.231,317.324c4.341-1.851,8.277-4.545,11.636-7.858,1.56-1.539,3.083-3.205,4.332-5.01,1.202-1.736,2.186-4.095,1.421-6.201-.369-1.015-1.359-1.699-2.46-1.397-.979.269-1.767,1.44-1.397,2.46.194.535.106,1.057-.162,1.653-.303.673-.722,1.286-1.155,1.88.346-.474-.021.019-.173.207-.177.219-.356.436-.537.651-.328.39-.662.774-1.003,1.153-.727.808-1.485,1.588-2.275,2.336-2.993,2.834-6.456,5.056-10.246,6.672-.994.424-1.214,1.888-.718,2.736.601,1.028,1.739,1.143,2.736.718h0Z"/><path class="d" d="M89.013,305.238c.168-4.733.336-9.467.506-14.202.13-3.83.27-7.66.4-11.5.12-3.44.25-6.87.37-10.31.68-19.3,1.36-38.59,2.05-57.89.18-5.24.37-10.48.3-15.73-.019-1.948-.075-3.897-.164-5.845-.236.08-.495.124-.768.124-10.501-.026-22.487-.019-34.119-.011,0,7.184,0,15.119,0,15.119,1.093,32.168,4.398,85.09,7.136,119.547,0,0,13.106,0,23.598,0,.233-6.437.461-12.869.689-19.301Z"/><path class="f" d="M55.589,204.992c.51,14.947,1.281,29.885,2.125,44.816.939,16.605,1.992,33.204,3.156,49.795.583,8.315,1.195,16.627,1.855,24.936.202,2.549,4.204,2.571,4,0-1.228-15.474-2.304-30.96-3.3-46.45-1.057-16.439-2.02-32.884-2.827-49.337-.388-7.918-.739-15.837-1.01-23.76-.088-2.567-4.088-2.579-4,0h0Z"/><path class="f" d="M90.46,189.516c.403,8.439.056,16.878-.245,25.314-.309,8.65-.616,17.3-.922,25.95-.604,17.08-1.196,34.161-1.809,51.241-.347,9.678-.687,19.357-1.035,29.035-.093,2.574,3.908,2.571,4,0,.609-16.949,1.206-33.898,1.805-50.847.612-17.295,1.219-34.59,1.835-51.885.342-9.597.828-19.207.369-28.808-.122-2.563-4.123-2.578-4,0h0Z"/><path class="e" d="M66.767,349.153c-1.404-2.721-1.939-5.939-2.111-9.133-.277-5.141.012-10.513,2.435-15.056,3.247-6.088,12.017-10.135,18.168-5.566,6.832,5.075,10.102,15.982,10.604,24.068.376,6.067-2.478,10.781-8.607,12.2-5.1,1.181-11.13,1.166-15.778-1.52-2.175-1.257-3.678-2.991-4.711-4.994Z"/><path class="f" d="M68.494,348.143c-1.759-3.536-1.962-7.692-1.922-11.574.039-3.81.565-7.828,2.561-11.152,2.874-4.785,9.826-7.991,14.83-4.497,5.178,3.615,7.726,10.538,9.025,16.447,1.135,5.162,2.125,12.132-3.292,15.247-3.216,1.849-7.712,2.077-11.315,1.67-4.155-.47-7.881-2.377-9.888-6.141-1.211-2.273-4.665-.254-3.454,2.019,4.408,8.27,15.348,9.667,23.608,7.205,3.425-1.021,6.445-3.299,7.94-6.602,1.604-3.545,1.407-7.299.872-11.061-1.052-7.395-3.843-15.53-9.517-20.674-3-2.721-6.65-4.009-10.69-3.428-3.649.524-7.119,2.478-9.604,5.186-3.395,3.7-4.676,8.723-4.998,13.622-.347,5.264.008,10.966,2.389,15.753,1.146,2.305,4.598.281,3.454-2.019Z"/><path class="f" d="M49.272,110.807c6.068-2.785,11.887-6.115,17.021-10.409,2.321-1.941,4.473-4.085,6.381-6.434.854-1.052,1.595-2.545,2.652-3.388.176-.14.38-.301.611-.324-.459.046.422.256.544.305.928.363,1.846.749,2.762,1.141.992.425,2.144.296,2.736-.718.492-.842.281-2.309-.718-2.736-.981-.42-1.963-.838-2.953-1.239-.825-.334-1.68-.765-2.594-.728-1.76.07-3.205,1.259-4.198,2.619-1.903,2.607-3.974,5.013-6.36,7.195-5.236,4.786-11.487,8.318-17.904,11.263-.982.451-1.224,1.87-.718,2.736.59,1.008,1.751,1.17,2.736.718h0Z"/><path class="f" d="M91.606,119.026c0,10.31.028,20.62.046,30.931.02,11.799.044,23.598.057,35.397,0,.692.002,1.383.002,2.075,0,.246-.007.493,0,.738-.009-.301.345-.18-.195-.283-.643-.122-1.465-.003-2.122-.005-4.947-.01-9.893-.013-14.84-.013-10.273,0-20.547.012-30.82.016-4.674.002-9.348.002-14.022-.003-2.067-.003-4.135-.006-6.202-.012-.469-.001-.938-.003-1.407-.004-.086,0-.595-.028-.611-.002.002-.004.126.483.166.481.008,0,.002-1.359.002-1.477.013-5.945.057-11.889.096-17.834.101-15.332.233-30.665.271-45.998.003-1.336.005-2.671.006-4.007,0-2.574-4-2.578-4,0-.001,15.267-.145,30.533-.249,45.8-.045,6.7-.094,13.4-.119,20.1-.004,1.046-.037,2.097-.007,3.143.08,2.81,2.25,3.787,4.754,3.795,4.379.014,8.758.018,13.137.02,10.394.003,20.788-.011,31.182-.015,5.297-.002,10.593-.003,15.89.002,2.516.002,5.032.006,7.549.011,1.272.003,2.558.092,3.701-.575,1.125-.657,1.772-1.778,1.84-3.07.203-3.864-.009-7.797-.015-11.664-.01-6.637-.022-13.274-.033-19.911-.02-11.915-.046-23.829-.056-35.744,0-.63-.001-1.26-.001-1.89,0-2.574-4-2.578-4,0h0Z"/><path class="f" d="M95.133,189.932c4.601-.298,9.222-.491,13.815-.896,2.082-.183,3.786-1.432,4.317-3.51.27-1.059.113-2.253.086-3.336-.032-1.285-.065-2.57-.101-3.855-.145-5.186-.326-10.37-.552-15.553-.463-10.619-1.089-21.239-2.147-31.817-.938-9.379-1.516-19.373-6.373-27.69-2.531-4.334-6.04-7.74-10.41-10.198-4.27-2.401-9.187-3.751-13.779-5.409-2.425-.876-3.47,2.988-1.063,3.857,7.292,2.632,15.369,4.762,20.094,11.16,5.408,7.322,6.231,16.318,7.195,25.079,1.1,9.999,1.756,20.047,2.254,30.093.247,4.975.447,9.953.612,14.931.078,2.344.147,4.688.21,7.033.029,1.088.056,2.175.082,3.263.018.749.269,1.602-.479,1.961.33-.158-.171.006-.404.021l-1.58.102-4.798.311-6.979.453c-2.556.166-2.574,4.167,0,4h0Z"/><path class="f" d="M18.235,186.498c-4.504-.292-9.006-.609-13.511-.876-.239-.014-.544-.153-.249-.011-.713-.345-.5-1.053-.483-1.783.055-2.334.117-4.669.187-7.003.146-4.902.325-9.804.546-14.703.457-10.146,1.068-20.292,2.074-30.399.432-4.343.935-8.681,1.607-12.993.692-4.436,1.808-8.594,4.042-12.527,2.297-4.045,5.264-6.947,9.264-9.158,3.956-2.186,8.491-3.422,12.731-4.953,2.403-.867,1.366-4.734-1.063-3.857-4.269,1.541-8.609,2.944-12.721,4.878-3.592,1.689-6.898,4.371-9.303,7.511-3.036,3.962-5.275,8.799-6.244,13.704-.888,4.494-1.411,9.084-1.918,13.634-1.164,10.463-1.838,20.98-2.345,31.493-.255,5.278-.459,10.559-.624,15.84-.078,2.487-.147,4.975-.208,7.462-.059,2.424-.105,4.921,2.306,6.283,1.049.592,2.273.575,3.438.65l4.873.316,7.601.493c2.57.167,2.56-3.834,0-4h0Z"/><path class="f" d="M33.839,92.283c1.146-.519,2.322-.953,3.493-1.411.16-.063.324-.12.481-.191.593-.267.2-.077.182-.082.361.102.661.447.911.702,1.458,1.487,2.728,3.154,4.174,4.656,3.369,3.501,7.323,6.752,11.701,8.896,2.303,1.128,4.333-2.321,2.019-3.454-4.65-2.277-8.718-5.793-12.152-9.637-1.444-1.616-2.844-3.801-4.867-4.735-1.311-.605-2.496-.403-3.789.094-1.403.539-2.8,1.086-4.17,1.707-.984.446-1.223,1.873-.718,2.736.592,1.012,1.749,1.165,2.736.718h0Z"/><path class="e" d="M5.642,345.792c3.545-71.828,7.091-145.742,10.636-217.57h6.553c-3.545,71.828-7.091,145.742-10.636,217.57h-6.553Z"/><path class="f" d="M7.513,338.218l3.412.168c.843.042,1.493.754,1.452,1.598-.114,2.308-.241,4.877-.319,6.461-.042.843-.759,1.487-1.602,1.445l-3.412-.168c-.843-.042-1.493-.759-1.451-1.602l.318-6.45c.042-.843.759-1.493,1.602-1.451Z"/><path class="f" d="M7.513,340.218l1.946.096,1.203.059c.079.004.169.021.248.012.093-.011-.294-.044-.258-.036.321.071-.068-.046-.121-.074.303.163-.19-.238-.051-.064.132.166-.105-.181-.109-.174-.01.017.161.21.126.213.003,0-.171-.386-.095-.184.087.233.025-.397-.025-.149-.083.404-.041.882-.061,1.295-.042.842-.083,1.683-.125,2.525-.036.734-.073,1.469-.109,2.203-.007.143-.038.301-.022.443.027.246.099-.394.017-.151-.071.211.094-.191.09-.183-.074.14-.181.192.105-.097-.064.064-.188.135.023.012.28-.164.003.008-.051.018-.237.047.361-.156.129-.067-.194.074.435.014.079-.027-.022-.002-.045-.003-.067-.003-.125-.004-.25-.012-.375-.019l-1.309-.065-1.245-.061c-.113-.006-.23-.021-.342-.017-.02,0-.047-.008-.067-.003-.019.004-1.261-.092.133.018.177.03.182.025.012-.015l.244.106c-.072-.04-.193-.153-.006.022.283.265-.104-.235.09.106.153.27.026.044.01.004-.126-.314.039.101.052.135-.121-.314-.028.38.01.02.001-.012,0-.025.002-.037.016-.186.018-.375.028-.561l.118-2.387.138-2.806c.01-.205.044-.424.031-.629,0-.008.004-.022.001-.03.079.249-.083.369-.003.149l-.106.244c.088-.143.081-.145-.022-.006-.206.221-.037.043.002.012l-.215.154c.05-.037.103-.069.159-.097.19-.03-.177.076-.19.081.37-.142-.43.008-.021.01,1.046.007,2.048-.925,2-2-.049-1.09-.879-1.992-2-2-1.242-.008-2.473.627-3.105,1.717-.343.591-.467,1.207-.504,1.879-.044.789-.078,1.578-.117,2.367l-.147,2.984c-.05,1.007-.094,1.951.47,2.869.645,1.05,1.737,1.605,2.943,1.688.301.021.603.03.904.045.83.041,1.664.113,2.495.123,1.223.015,2.365-.591,3.039-1.609.577-.873.569-1.891.619-2.895.045-.92.091-1.841.136-2.761.047-.947.201-1.957.121-2.902-.123-1.464-1.071-2.792-2.528-3.197-.499-.138-1.027-.145-1.541-.17-.928-.046-1.857-.092-2.785-.137-1.047-.052-2.047.957-2,2,.051,1.128.879,1.945,2,2Z"/><path class="f" d="M20.831,128.222c-1.397,28.303-2.778,56.606-4.156,84.91-1.381,28.361-2.758,56.722-4.144,85.083-.775,15.859-1.553,31.718-2.336,47.577-.127,2.573,3.873,2.566,4,0,1.397-28.303,2.778-56.606,4.156-84.91,1.381-28.361,2.758-56.722,4.144-85.083.775-15.859,1.553-31.718,2.336-47.577.127-2.573-3.873-2.566-4,0h0Z"/><path class="f" d="M14.278,128.222c-1.397,28.303-2.778,56.606-4.156,84.91-1.381,28.361-2.758,56.722-4.144,85.083-.775,15.859-1.553,31.718-2.336,47.577-.127,2.573,3.873,2.566,4,0,1.397-28.303,2.778-56.606,4.156-84.91,1.381-28.361,2.758-56.722,4.144-85.083.775-15.859,1.553-31.718,2.336-47.577.127-2.573-3.873-2.566-4,0h0Z"/><path class="h" d="M17.69,125.198l3.98.209c1.965.103,3.42,1.868,3.146,3.817l-.979,6.968c-.242,1.725-1.765,2.977-3.504,2.883-.862-.047-1.818-.1-2.758-.152-1.733-.096-3.106-1.498-3.166-3.232l-.245-7.025c-.069-1.967,1.563-3.57,3.528-3.467Z"/><path class="f" d="M17.69,127.198l2.907.152c.357.019.715.032,1.072.056-.331-.022.195.051.314.083.217.06-.006-.013-.046-.032.112.052.213.12.321.177.279.147-.036-.104.165.136.077.092.171.171.245.266-.173-.225-.027-.001.041.12.111.195.006-.029-.009-.066.047.113.069.235.112.349.008.022.067.323.033.099-.037-.245.002.145.003.203.002.639.068-.268.023.071-.049.367-.103.733-.154,1.099l-.522,3.717c-.111.792-.159,1.63-.36,2.407-.024.091-.052.18-.083.269-.103.298.13-.241-.025.028-.046.08-.092.158-.141.235.049-.077.245-.236-.024.023-.083.08-.402.346-.14.161-.1.071-.206.124-.308.191-.293.189.086-.003-.108.048-.128.033-.646.089-.289.083-.248.004-.492-.005-.741-.019-.629-.034-1.258-.069-1.887-.104-.125-.007-.26-.028-.385-.021-.395.022.237.066-.068.004-.113-.023-.638-.21-.31-.059-.082-.038-.162-.083-.241-.129-.046-.027-.353-.242-.17-.1.152.118-.383-.439-.269-.283.131.181-.258-.512-.085-.109-.049-.113-.07-.236-.114-.351-.007-.019-.072-.323-.035-.102.031.181-.005-.154-.008-.236-.043-.99-.069-1.982-.104-2.973-.043-1.237-.092-2.473-.13-3.71-.002-.072-.007-.145-.008-.217-.001-.126.001-.249.008-.376-.01.203-.044.163.015-.01.039-.114.063-.23.104-.344-.068.189-.079.137.019-.006.066-.097.119-.202.187-.298-.116.164-.107.109.022,0,.089-.076.166-.164.256-.239-.219.18-.038.038.099-.037.077-.042.154-.086.235-.122-.264.118-.043.029.11-.007.088-.021.176-.044.265-.057-.432.063.157.028.209.029,1.081.027,2-.938,2-2,0-1.106-.916-1.973-2-2-2.855-.071-5.22,2.094-5.501,4.907-.102,1.021.027,2.09.063,3.112l.141,4.037c.071,2.021.853,3.885,2.673,4.944,1.287.749,2.727.735,4.169.814,1.38.076,2.648.065,3.897-.618,1.632-.892,2.47-2.509,2.719-4.28l.582-4.14c.156-1.11.484-2.397.404-3.519-.209-2.908-2.507-4.89-5.339-5.059-1.269-.076-2.538-.133-3.807-.2-1.08-.057-2,.96-2,2,0,1.13.917,1.943,2,2Z"/><rect class="h" x="13.004" y="191.114" width="6.548" height="12.241" rx="1.895" ry="1.895" transform="translate(-181.519 203.769) rotate(-87.174)"/><path class="e" d="M108.714,345.792c-3.545-71.828-7.091-145.742-10.636-217.57h-6.553c3.545,71.828,7.091,145.742,10.636,217.57h6.553Z"/><path class="f" d="M106.842,338.218l-3.412.168c-.843.042-1.493.754-1.452,1.598.114,2.308.241,4.877.319,6.461.042.843.759,1.487,1.602,1.445l3.412-.168c.843-.042,1.493-.759,1.451-1.602l-.318-6.45c-.042-.843-.759-1.493-1.602-1.451Z"/><path class="f" d="M106.842,336.218c-.804.04-1.607.079-2.411.119-.329.016-.658.026-.987.049-1.203.081-2.241.618-2.915,1.634-.649.978-.545,2.085-.49,3.194.047.952.094,1.904.141,2.856.04.813.058,1.631.123,2.442.101,1.253.75,2.405,1.9,2.981,1.074.538,2.205.373,3.354.317,1.108-.055,2.384.026,3.38-.523,1.345-.741,1.876-2.141,1.804-3.6l-.135-2.743-.146-2.958c-.027-.546-.084-1.078-.299-1.588-.565-1.339-1.862-2.189-3.319-2.179-1.046.007-2.049.915-2,2,.048,1.078.879,2.008,2,2,.166-.001.272.063-.144-.041.084.021.224.099,0-.024-.279-.155-.007-.008.039.037.149.148-.165-.122-.163-.121.091.073.218.301-.081-.115.033.046.136.255.008-.013-.162-.338-.008.249-.038-.135-.104-1.296-.015-.147-.018-.132-.028.125.015.303.021.43l.114,2.313.128,2.603.042.848c.003.068.004.137.01.206.001.014,0,.028.002.041.038.35.07-.238.026-.078-.07.255.182-.363.066-.128-.007.015-.101.152-.097.159-.033-.055.277-.335.064-.131-.008.007.33-.262.151-.136-.208.146.379-.12.128-.059-.213.051.211-.02.211-.02-.015-.005-.04.003-.055.003-.313-.007-.633.031-.946.047-.775.038-1.55.087-2.325.115-.025,0-.051.001-.076.004-.328.034.045.02.135.042-.087-.022-.221-.099,0,.025.281.159.003.008-.039-.036-.141-.149.163.121.163.122-.303-.242.166.241.051.062s.076.191.076.191c-.119-.335.042.109.003.149.047-.049-.018-.356-.022-.438-.018-.355-.035-.711-.053-1.066-.04-.801-.079-1.602-.119-2.403-.042-.843-.021-1.716-.126-2.553-.04-.321-.023.065-.041.144.083-.351-.149.289-.05.068.007-.015.101-.151.097-.158l-.154.216c.124-.112.12-.113-.012,0-.184.175-.067.063.006.023-.268.103-.329.133-.182.09.107-.026.082-.025-.074.002-.28.032-.142.014-.093.016.343.018.704-.035,1.047-.052l2.321-.115c1.043-.051,2.05-.883,2-2-.047-1.039-.881-2.055-2-2Z"/><path class="f" d="M89.524,128.222c1.397,28.303,2.778,56.606,4.156,84.91s2.758,56.722,4.144,85.083c.775,15.859,1.553,31.718,2.336,47.577.126,2.562,4.127,2.577,4,0-1.397-28.303-2.778-56.606-4.156-84.91s-2.758-56.722-4.144-85.083c-.775-15.859-1.553-31.718-2.336-47.577-.126-2.562-4.127-2.577-4,0h0Z"/><path class="f" d="M96.078,128.222c1.397,28.303,2.778,56.606,4.156,84.91s2.758,56.722,4.144,85.083c.775,15.859,1.553,31.718,2.336,47.577.126,2.562,4.127,2.577,4,0-1.397-28.303-2.778-56.606-4.156-84.91s-2.758-56.722-4.144-85.083c-.775-15.859-1.553-31.718-2.336-47.577-.126-2.562-4.127-2.577-4,0h0Z"/><path class="h" d="M96.665,125.198l-3.98.209c-1.965.103-3.42,1.868-3.146,3.817l.979,6.968c.242,1.725,1.765,2.977,3.504,2.883.862-.047,1.818-.1,2.758-.152,1.733-.096,3.106-1.498,3.166-3.232l.245-7.025c.069-1.967-1.563-3.57-3.528-3.467Z"/><path class="f" d="M96.665,123.198l-3.456.181c-.732.038-1.472.083-2.163.348-1.276.49-2.383,1.402-2.976,2.654-.529,1.117-.619,2.217-.451,3.428.054.388.109.776.164,1.165l.606,4.311c.201,1.427.39,2.671,1.346,3.855.787.974,1.95,1.649,3.187,1.845.705.112,1.366.074,2.074.035.836-.046,1.68-.062,2.509-.186,2.577-.387,4.302-2.663,4.445-5.177.063-1.112.078-2.229.117-3.342.042-1.213.114-2.428.127-3.642.034-3.043-2.475-5.551-5.528-5.476-1.08.027-2,.9-2,2,0,1.063.915,2.027,2,2,.126-.003.25,0,.376.001-.031,0-.311-.06-.077-.012.121.025.616.195.286.047.108.048.205.116.311.166.022.01.263.176.085.044-.191-.142.405.43.263.252-.149-.187.064.11.094.158.047.074.087.154.127.232-.168-.336.031.167.06.281.078.298-.002-.3,0,.015,0,.094.004.188.003.282,0,.019-.002.038-.002.056-.016.945-.066,1.891-.099,2.835l-.124,3.546c-.009.257-.004.522-.033.778.041-.371-.07.174-.11.287-.104.293.134-.244-.024.021-.046.078-.092.156-.14.233.185-.293-.129.123-.215.209-.211.213.235-.137-.022.02-.104.063-.207.124-.314.182-.267.146.267-.073-.03.007-.09.024-.179.05-.269.074-.379.102-.122.014-.031.008-.128.01-.257.014-.385.021-.631.035-1.263.07-1.894.105-.289.016-.573.029-.861.025.324.005-.067-.03-.202-.055-.329-.061-.143-.044-.034.007-.11-.051-.21-.119-.318-.174-.02-.01-.257-.184-.092-.054.177.139-.205-.211-.2-.206-.019-.018-.19-.247-.072-.08.133.189-.068-.134-.093-.179-.111-.194-.01.022.006.06-.047-.113-.084-.24-.114-.357-.041-.157-.065-.317-.089-.478-.053-.354-.1-.709-.15-1.064l-.521-3.708-.214-1.526c-.02-.142-.041-.284-.06-.427-.057-.413,0,.526.019.003.005-.127,0-.253.012-.379-.03.293.002.045.05-.106.027-.087.051-.176.086-.261-.111.265.002.029.082-.091.125-.188-.028.008-.05.037.092-.12.203-.223.311-.328.16-.155-.02.003-.053.027.123-.089.257-.165.391-.235.203-.106-.018.006-.054.018.151-.05.3-.089.455-.122.295-.064-.174.012-.014.009.194-.004.389-.02.583-.031l3.358-.176c1.079-.057,2-.879,2-2,0-1.039-.916-2.057-2-2Z"/><rect class="h" x="91.957" y="193.96" width="12.241" height="6.548" rx="1.895" ry="1.895" transform="translate(-9.604 5.075) rotate(-2.826)"/><path class="f" d="M12.219,195.756l5.075.251,2.88.142c.16.008.324.008.484.024.017.002-.204-.027-.192-.024.478.094-.042-.008-.014-.027.022-.015.267.193.065.027-.243-.2.166.242-.02-.015-.145-.2.003.049.023.067-.118-.106-.135-.229-.033-.016-.037-.076.025-.301-.028-.111-.047.166-.016.393-.024.57-.027.545-.054,1.09-.081,1.635-.007.143-.017.286-.021.43-.001.042-.052.356.002.109.07-.322-.132.273.003-.023.127-.278-.185.213.009-.022.201-.243-.242.166.015-.02.2-.145-.049.003-.067.023.104-.117.23-.136.016-.033.061-.03.317.012.111-.028-.055-.011-.139-.004-.198-.006-.773-.028-1.545-.076-2.317-.114-1.951-.096-3.913-.264-5.867-.29-.048,0-.097-.004-.145-.007.418.03.114-.016.032-.021.136.008.255.03.035-.012l.15.113-.114-.115.117.148c-.092-.171-.106-.189-.043-.053.091.234.01-.048-.005-.072.127.208.006.244.029.022.004-.043.005-.087.006-.13.01-.256.025-.511.038-.767.028-.564.069-1.128.084-1.692.001-.051.004-.103.008-.154.004-.059-.032.218-.024.186.098-.366-.095.144.015-.056.107-.194-.047.059-.071.08.293-.241-.169.09.038-.037.189-.117-.075.031-.106.036.542-.078-.435-.017.135-.014,1.046.005,2.048-.923,2-2-.049-1.088-.879-1.995-2-2-1.424-.006-2.79.73-3.491,1.988-.416.747-.483,1.556-.524,2.386-.074,1.498-.352,3.108.551,4.43.741,1.085,1.869,1.647,3.163,1.736.27.019.54.027.81.04l3.696.182,3.428.169c1.866.092,3.581-.743,4.249-2.589.413-1.142.311-2.614.352-3.819.05-1.442-.656-2.83-1.912-3.57-.996-.587-2.157-.55-3.271-.605l-7.051-.348c-1.047-.052-2.047.957-2,2,.051,1.128.879,1.945,2,2Z"/><path class="f" d="M102.136,191.756l-6.179.305c-.752.037-1.508.054-2.259.112-1.388.106-2.624.768-3.318,2.008-.702,1.255-.447,2.728-.38,4.097.076,1.531.436,2.867,1.767,3.777.692.473,1.529.683,2.363.653.946-.035,1.891-.093,2.836-.14l3.912-.193c.998-.049,2.075-.008,3.007-.401,1.467-.619,2.394-2.076,2.374-3.667-.007-.558-.055-1.118-.083-1.674-.035-.717-.013-1.501-.246-2.184-.558-1.632-2.069-2.698-3.793-2.691-1.046.005-2.049.917-2,2s.879,2.005,2,2c.231-.001.158.083-.025-.029.024.015.305.096.072.005-.3-.117.236.17-.021-.015-.214-.154.051.031.041.055.011-.026-.293-.358-.03-.01-.02-.026-.104-.314-.049-.095.069.275-.01-.251,0-.068.028.464.046.929.069,1.393.021.429.031.86.064,1.289.007.089-.012.338.016.101.029-.248-.024.022-.029.061l.076-.176-.081.141c0-.011.283-.372.003-.033.02-.025.273-.178.08-.071-.202.111.083-.032.105-.03-.317-.023-.084.033.031.021-1.698.169-3.43.169-5.134.253l-2.82.139c-.161.008-.324.011-.485.024-.041.003-.324-.014-.074.015.332.039-.274-.109.027.009.223.087-.017-.028-.053-.043.252.111.159.107.033.003.025.02.178.273.071.08-.14-.254.079.311.008.024-.056-.225,0,.087.002.112-.015-.174-.017-.351-.026-.526-.027-.541-.053-1.082-.08-1.623-.013-.259-.03-.518-.031-.777,0,.057-.042.432.015.038-.02.138-.091.255.005.035-.11.251-.108.16-.003.033-.02.025-.273.178-.08.071.254-.14-.311.079-.024.008.224-.056-.086,0-.112.002.048-.003.097-.006.145-.007.78-.015,1.561-.077,2.34-.116l5.955-.294c1.043-.051,2.05-.883,2-2-.047-1.039-.881-2.055-2-2Z"/></g></svg>