<svg id="b" xmlns="http://www.w3.org/2000/svg" width="421.854" height="272.596" viewBox="0 0 421.854 272.596" style="color: initial !important;"><defs><style>.d{fill:#ffffff;}.e{fill:#e2e2e2;}.f{fill:none;}.g{fill:#a0a0a0;}.h{fill:#7abee6;}.i{fill:#211715;}.j{fill:#645d5c;}.k{fill:#febe69;}</style></defs><g id="c"><path class="d" d="M271.863,151.49H119.433c-.48-3.72-.97-7.43-1.47-11.15h150.08c.15.23.31.45.47.68.75,1.04,1.77,1.96,2.91,2.72.12,2.47.22,5.09.44,7.75Z"/><path class="d" d="M237.903,132.91v6.29c0,.63-.51,1.14-1.14,1.14h-41.02c-1.21,0-2.17-.97-2.17-2.18v-5.25c0-.64.51-1.15,1.14-1.15h42.05c.63,0,1.14.51,1.14,1.15Z"/><path class="d" d="M228.843,130.62v1.14h-26.21v-13.86c8.65-.01,17.56-.02,26.21-.01v12.73Z"/><path class="d" d="M281.353,34.51c0,13.71.02,56.15.03,79,0,2.4-1.95,4.36-4.35,4.36-10.51,0-28.65.01-48.19.02-8.65-.01-17.56,0-26.21.01-19.44,0-37.53.01-48.15.01-2.41,0-4.36-1.94-4.36-4.35-.01-24.47-.02-57.68-.03-79,0-2.41,1.95-4.36,4.36-4.36,23.62,0,103-.03,122.55-.04,2.4,0,4.35,1.94,4.35,4.35Z"/><path class="e" d="M128.833,142.341c17.445,0,34.89,0,52.335,0,16.563,0,33.126,0,49.689,0,9.417,0,18.833,0,28.25,0,2.574,0,2.578-4,0-4-16.616,0-33.231,0-49.847,0-16.794,0-33.589,0-50.383,0h-30.043c-2.574,0-2.578,4,0,4h0Z"/><path class="e" d="M128.833,153.491c17.799,0,35.597,0,53.396,0h51.381c9.546,0,19.093,0,28.639,0,2.574,0,2.578-4,0-4-16.969,0-33.939,0-50.908,0h-52.075c-10.144,0-20.288,0-30.432,0-2.574,0-2.578,4,0,4h0Z"/><path class="e" d="M152.123,113.561c-.007-18.854-.015-37.707-.022-56.561-.002-4.403-.004-8.805-.005-13.208,0-2.039-.002-4.079-.002-6.118,0-1.501-.48-3.78.803-4.892.865-.75,2.046-.578,3.111-.579,1.021,0,2.041,0,3.062,0,2.388,0,4.776-.002,7.164-.002,12.992-.004,25.984-.009,38.976-.014,14.201-.005,28.402-.01,42.603-.016,5.767-.002,11.534-.004,17.301-.006,3.937-.001,7.956-.237,11.887-.004,3.062.181,2.354,3.944,2.355,6.081.001,2.841.002,5.682.003,8.523.003,7.464.006,14.928.009,22.391.003,8.302.007,16.604.01,24.906.001,3.81.003,7.62.004,11.431,0,1.747.001,3.493.002,5.24,0,1.335.382,3.243-.577,4.329-.91,1.031-2.318.806-3.556.807-1.204,0-2.408,0-3.612.001-2.71,0-5.421.002-8.131.003-6.725.002-13.451.005-20.176.007-15.435.006-30.869.011-46.304.017-12.935.005-25.869.01-38.804.014-2.092,0-5.98.719-6.099-2.349-.1-2.566-4.1-2.579-4,0,.087,2.25,1.171,4.329,3.15,5.484,1.537.897,3.206.866,4.917.865,2.644,0,5.288-.002,7.932-.003,6.593-.002,13.185-.005,19.778-.007,15.907-.006,31.814-.012,47.721-.018,13.591-.005,27.181-.01,40.772-.015,2.966-.001,6.342.499,8.775-1.545,3.064-2.575,2.214-7.268,2.213-10.832-.003-8.092-.006-16.184-.009-24.275-.006-15.061-.012-30.122-.018-45.184-.001-3.244.273-6.636-2.749-8.74-2.089-1.454-4.738-1.131-7.154-1.13-4.942.002-9.883.004-14.825.005-13.949.005-27.899.01-41.848.015-14.251.005-28.501.01-42.752.015-5.291.002-10.583.004-15.874.005-2.818,0-5.856-.359-8.084,1.751-1.702,1.612-1.976,3.674-1.975,5.897,0,2.049.002,4.098.002,6.147.008,19.342.016,38.683.023,58.025.002,4.513.003,9.025.005,13.538,0,2.574,4.001,2.578,4,0Z"/><path class="e" d="M200.633,117.912v12.709c0,1.046.92,2.048,2,2s2-.879,2-2v-12.709c0-1.046-.92-2.048-2-2s-2,.879-2,2h0Z"/><path class="e" d="M226.842,117.912v12.709c0,1.046.92,2.048,2,2s2-.879,2-2v-12.709c0-1.046-.92-2.048-2-2s-2,.879-2,2h0Z"/><path class="e" d="M194.711,133.763c11.326,0,22.651,0,33.977,0h6.881c.273,0,.921.124,1.178,0,.167-.081-.647-1.182-.841-.747-.063.142,0,.461,0,.608v2.676c0,.779,0,1.558,0,2.337,0,.127-.052.388,0,.512v.038c-.002.364.203.082.616-.845-.181-.109-.802,0-1.019,0-2.156,0-4.312,0-6.468,0-5.285,0-10.57,0-15.855,0-5.005,0-10.01,0-15.015,0-.746,0-1.523.065-2.266,0-.457-.04-.33-.217-.33-.824v-2.949c0-.391.017-.788,0-1.178-.046-1.037.17.235-.327.302,1.072-.144,1.655-1.52,1.397-2.46-.318-1.157-1.385-1.541-2.46-1.397-2.726.366-2.61,3.148-2.61,5.208,0,1.827-.319,3.99.804,5.558,1.483,2.071,3.997,1.74,6.231,1.74s4.462,0,6.692,0c5.667,0,11.333,0,17,0,2.772,0,5.545,0,8.317,0,1.18,0,2.359,0,3.539,0,1.235,0,2.795.237,3.927-.314,2.119-1.031,1.826-3.272,1.826-5.236,0-1.535.384-3.766-.314-5.199-1.098-2.256-3.708-1.829-5.783-1.829h-21.671c-5.809,0-11.618,0-17.427,0-2.574,0-2.578,4,0,4Z"/><path class="i" d="M89.802,17.023c7.717,8.371,9.092,21.523,7.475,32.349-.159,1.067.267,2.15,1.397,2.46.944.259,2.3-.322,2.46-1.397,1.841-12.33.28-26.713-8.504-36.241-1.749-1.897-4.572.937-2.828,2.828h0Z"/><path class="i" d="M31.986,54.922c-2.112-5.647-2.867-11.971-2.361-17.96.252-2.979.776-5.937,1.704-8.784.911-2.794,2.381-5.317,4.115-7.679,3.879-5.283,9.183-9.746,15.297-12.203,4.822-1.938,9.825-2.499,14.983-2.303,6.986.266,13.742,1.956,19.209,6.504,1.965,1.635,4.81-1.18,2.828-2.828-5.392-4.487-11.716-6.756-18.652-7.448-5.794-.578-11.721-.348-17.296,1.45-6.765,2.182-12.761,6.382-17.406,11.736-4.549,5.244-7.417,11.218-8.387,18.105-1.051,7.459-.551,15.365,2.108,22.473.378,1.011,1.352,1.701,2.46,1.397.971-.267,1.777-1.443,1.397-2.46h0Z"/><path class="h" d="M102.963,198.598H17.9l-1.903,6.303c-3.94,16.724-.762,23.293,1.756,28.794,1.477,3.233,4.005,5.863,6.838,8.613,1.858,1.803,4.711,3.075,7.442,4.831,2.722,1.737,17.189,7.944,21.649,9.719,1.691,1.654,2.221,5.361,2.276,9.078h79.626c.158-12.887-.334-32.984-2.564-40.965-.929-3.345-3.912-8.121-6.067-10.843-2.76-3.475-12.107-10.323-17.839-13.008,0,0-2.154-1.009-5.382-2.521h-.769Z"/><path class="k" d="M29.944,102.754c-6.199-2.55-6.499-6.745-6.669-9.263-.261-3.59.121-6.407,1.065-9.961,1.157-4.434,3.247-13.419,2.22-29.113-.52-2.992-.729-6.897-.813-9.924-.043-1.548-.057-2.859-.057-3.718-.037-8.788,3.823-18.911,9.557-24.769,7.141-8.196,20.909-12.218,28.277-12.055,9.261.205,16.489,2.666,22.597,7.386l3.822,2.953c.624.695,1.248,1.389,1.248,1.389,3.747,4.172,6.528,10.31,7.68,15.816,1.068,5.106,1.3,12.83.191,19.336-.616,12.356,3.581,25.191,3.109,35.301-.141,3.213-1.568,7.132-5.866,10.371l-66.359,6.25Z"/><path class="d" d="M43.254,52.332l-5.831.653c-1.117-.734-2.488-.86-3.607-.643-2.436.47-3.279,1.898-3.609,2.708-.984,2.425-.281,6.486,1.021,8.866.917,1.683,2.307,4.01,5.129,5.569.822.451,2.797,1.046,4.685.893l.382.66c.645,1.218,2.141,3.335,2.141,3.335,1.775,2.413,3.688,4.664,6.131,6.835-.078,1.877-.158,2.98-.393,4.56-.177,1.217-.446,2.444-.92,3.586-1.315,3.154-7.322,5.028-11.073,6.153,9.273,7.381,20.496,11.267,31.658,11.093,4.123-.064,8.503-.209,12.383-1.845,3.757-1.597,6.642-4.343,8.435-7.918-2.889-.995-6.501-2.13-8.543-3.031-2.082-.716-4.777-2.166-4.167-4.851,4.821-.768,9.063-2.885,13.066-6.438,5.285-4.69,7.38-11.837,7.923-19.668.36-5.181.287-10.95,1.357-16.465-.196-.055-.393-.109-.393-.109-4.994-1.382-10.883-6.792-13.225-10.071-.949-1.33-2.241-3.301-3.472-5.395-10.944,9.03-24.875,16.602-39.077,21.524"/><path class="i" d="M78.472,72.682c-.13.076-.262.15-.398.216-.058.029-.168.055-.214.1.275-.113.341-.141.198-.084-.038.015-.077.03-.115.045-.321.121-.651.221-.984.305-.195.049-.392.092-.59.13-.089.017-.179.031-.268.047-.267.049.015-.007.125-.012-.388.018-.772.079-1.162.088-.357.008-.714,0-1.07-.03-.086-.007-.172-.019-.258-.025-.268-.021.412.073.154.02-.18-.037-.362-.065-.541-.109-.16-.039-.318-.085-.474-.138-.093-.031-.183-.067-.275-.101-.218-.08-.087-.028.052.026-.559-.215-1.099-.484-1.657-.704-.975-.386-2.238.422-2.46,1.397-.262,1.152.353,2.047,1.397,2.46.357.141-.182-.085.043.014.098.043.197.086.295.129.327.143.655.285.985.421.374.155.752.292,1.148.381.91.205,1.866.289,2.798.255,1.812-.066,3.711-.45,5.291-1.376.903-.529,1.303-1.827.718-2.736s-1.771-1.284-2.736-.718h0Z"/><path class="i" d="M68.251,57.456c.372-1.637-.224-5.292-3.278-5.378-4.004.324-3.884,4.789-2.378,6.78,1.232,1.63,4.532,2.099,5.657-1.402Z"/><path class="i" d="M91.615,56.428c.335-1.64-.225-5.309-3.023-5.407-3.666.31-3.539,4.789-2.153,6.792,1.135,1.64,4.159,2.122,5.175-1.384Z"/><path class="i" d="M76.321,62.533c.296.455.582.916.861,1.381.301.5.615,1.005.856,1.537l-.202-.478c.052.124.092.246.113.379l-.071-.532c.006.063.006.119.001.182l.071-.532c-.005.039-.014.077-.028.114l.202-.478c-.014.037-.032.072-.055.105l.313-.405c-.093.118-.204.219-.321.313l.405-.313c-.101.074-.204.136-.318.187l.478-.202c-.154.062-.311.097-.475.12l.532-.071c-.274.035-.549.062-.82.113-.469.088-.962.52-1.195.919-.251.429-.357,1.061-.202,1.541.157.484.457.951.919,1.195.498.263.987.306,1.541.202.04-.007.079-.014.119-.02l-.532.071c.374-.05.767-.064,1.125-.193.559-.201,1.062-.488,1.476-.924.302-.319.565-.693.674-1.126.124-.494.109-.842.018-1.331-.08-.431-.292-.829-.497-1.214-.467-.878-.993-1.727-1.535-2.56-.283-.435-.687-.779-1.195-.919-.479-.132-1.116-.072-1.541.202-.427.275-.803.685-.919,1.195s-.093,1.089.202,1.541h0Z"/><path class="i" d="M53.148,81.487c-2.438-1.905-4.638-4.074-6.587-6.476-.222-.273-.441-.549-.656-.827.223.288-.147-.196-.154-.204-.096-.128-.192-.256-.288-.384-.178-.24-.349-.485-.518-.731-.632-.921-1.264-1.852-1.794-2.836-.497-.922-1.85-1.289-2.736-.718-.937.604-1.249,1.75-.718,2.736,1.081,2.007,2.489,3.872,3.914,5.643,1.98,2.46,4.219,4.681,6.708,6.625.823.643,2.037.862,2.828,0,.659-.718.881-2.141,0-2.828h0Z"/><path class="i" d="M38.432,51.258c-2.622-1.596-6.177-1.231-8.484.773-1.78,1.546-2.288,4.036-2.192,6.295.215,5.047,3.093,10.67,7.77,12.977,2.633,1.298,6.026,1.564,8.675.212.962-.491,1.241-1.842.718-2.736-.572-.977-1.771-1.21-2.736-.718-.841.429-2.134.405-2.998.242-.549-.103-1.073-.264-1.602-.439-.406-.134.246.15-.1-.046-.295-.167-.588-.331-.871-.517-1.786-1.179-3.15-3.126-3.946-4.965-.47-1.087-.779-2.334-.876-3.49-.056-.668-.08-1.36.005-2.027-.01.074.101-.493.135-.617.048-.176.429-.963.095-.348.084-.155.164-.31.252-.463.05-.087.343-.414.057-.095.425-.474.44-.494.999-.745.901-.405,2.08-.448,3.081.161,2.205,1.342,4.217-2.116,2.019-3.454h0Z"/><path class="i" d="M57.777,88.021c8.677,3.556,18.489,4.767,27.149.486,4.059-2.007,7.78-5.063,10.283-8.853,2.476-3.749,3.773-8.208,4.404-12.62.853-5.961.547-12.016,1.375-17.98.148-1.068-.26-2.148-1.397-2.46-.935-.257-2.311.32-2.46,1.397-1.256,9.044.142,19.016-4.093,27.423-3.682,7.31-11.725,11.738-19.784,11.869-5.014.081-9.803-1.229-14.413-3.119-1-.41-2.199.444-2.46,1.397-.315,1.147.393,2.049,1.397,2.46h0Z"/><path class="i" d="M89.775,17.094c7.123,8.063,8.687,19.319,7.797,29.676-.117,1.363-.387,2.705-.512,4.063-.138,1.496-.077,3.038-.028,4.536.098,2.957.405,5.904.79,8.836.742,5.639,1.856,11.248,2.256,16.928.167,2.367.363,4.899-.271,7.214-.71,2.594-2.403,4.799-4.516,6.431-.853.659-1.313,1.719-.718,2.736.491.84,1.876,1.382,2.736.718,4.327-3.343,6.81-7.717,6.891-13.218.086-5.883-1.048-11.748-1.913-17.544-.929-6.225-1.688-12.476-.92-18.749.703-5.743.623-11.739-.504-17.425-1.227-6.192-4.074-12.288-8.261-17.028-1.708-1.933-4.528.905-2.828,2.828h0Z"/><path class="i" d="M87.13,9.61c-8.187-6.26-19.249-8.831-29.397-7.155-9.64,1.592-19.216,6.215-25.447,13.875-3.544,4.356-5.989,9.587-7.371,15.017-1.408,5.534-1.347,11.167-1.011,16.827.187,3.137.692,6.23.824,9.37.126,3.017.148,6.039.031,9.056-.159,4.145-.576,8.278-1.401,12.346-.307,1.516-.685,3.013-1.067,4.511-.855,3.354-1.252,6.746-1.005,10.204.136,1.91.446,3.741,1.336,5.459,1.315,2.537,3.739,4.264,6.312,5.361.993.423,2.143.297,2.736-.718.492-.841.282-2.311-.718-2.736-1.973-.841-3.871-1.956-4.877-3.926-.628-1.229-.718-2.352-.802-3.61-.194-2.903.068-5.695.76-8.518.322-1.313.675-2.616.964-3.937.807-3.687,1.307-7.445,1.581-11.208.399-5.479.591-11.267-.216-16.709-.404-2.722-.522-5.497-.607-8.244-.079-2.579-.152-5.169.127-7.739.565-5.201,2.371-10.38,5.071-14.852,4.93-8.165,13.418-13.029,22.499-15.28,10.18-2.523,21.307-.325,29.655,6.059.859.657,2.239.133,2.736-.718.602-1.029.143-2.078-.718-2.736h0Z"/><path class="i" d="M74.987,89.659c.034,2.058,1.212,3.635,2.87,4.746.718.481,1.524.825,2.326,1.138.119.046.547.183.196.055.267.097.525.224.788.332.344.142.69.277,1.037.408,3.154,1.191,6.41,2.103,9.548,3.337,1.006.395,2.196-.434,2.46-1.397.312-1.135-.388-2.063-1.397-2.46-2.818-1.108-5.733-1.96-8.582-2.982-.618-.222-1.23-.456-1.841-.696-.54-.212.356.155-.142-.06-.244-.105-.491-.2-.739-.295-.148-.057-.298-.11-.444-.171.301.126-.098-.05-.151-.077-.327-.165-.651-.332-.958-.532-.038-.025-.432-.314-.277-.189.156.126-.206-.193-.237-.223-.028-.027-.386-.468-.175-.168-.071-.102-.13-.21-.195-.315-.094-.187-.111-.22-.051-.098.056.124.05.086-.019-.113-.004-.434-.009.263-.017-.24-.042-2.571-4.042-2.579-4,0h0Z"/><path class="i" d="M38.127,97.351c3.451-1.041,7.095-2.172,9.94-4.469,1.5-1.211,2.31-2.79,2.786-4.64.563-2.186.73-4.49.831-6.738.049-1.08-.954-2-2-2-1.124,0-1.951.917-2,2-.091,2.023-.181,3.555-.629,5.434-.115.484-.267.952-.422,1.424-.199.606.08-.097-.096.241-.079.151-.17.291-.257.436-.214.357.054-.005-.051.073-.137.102-.251.279-.374.4-.116.114-.236.223-.359.329-.071.062-.467.357-.124.108-2.58,1.877-5.206,2.609-8.308,3.545-1.034.312-1.688,1.401-1.397,2.46.282,1.025,1.422,1.71,2.46,1.397h0Z"/><path class="i" d="M80.605,31.82c2.084,3.528,4.323,6.909,7.322,9.728s6.556,5.504,10.571,6.657c2.479.712,3.537-3.147,1.063-3.857-3.305-.949-6.417-3.351-8.982-5.795-.612-.583-1.204-1.186-1.771-1.813-.277-.306-.548-.618-.81-.937-.012-.014-.398-.501-.156-.186-.106-.138-.209-.279-.311-.421-1.249-1.735-2.385-3.555-3.472-5.395-1.308-2.215-4.767-.205-3.454,2.019h0Z"/><path class="i" d="M43.786,54.263c14.423-5.026,28.14-12.327,39.96-22.038,1.99-1.635-.854-4.451-2.828-2.828-11.257,9.249-24.465,16.226-38.195,21.01-2.416.842-1.377,4.707,1.063,3.857h0Z"/><path class="f" d="M79.481,75.061c-1.882-.109-4.901-.218-6.953-.218-.623,0-1.351.16-2.065.218"/><path class="d" d="M120.289,187.492c2.611-2.389,2.899-7.605,2.417-11.253-1.957-14.829-3.913-29.658-5.87-44.486-.941-7.128-1.921-14.393-5.026-20.877-4.02-8.393-12.291-15.459-22.409-13.324-3.091,5.404-8.97,8.117-15.081,8.832-13.208,1.546-26.862-2.743-37.169-10.995-12.494,3.792-20.475,11.624-25.276,22.37-1.29,2.887-2.568,6.991-3.265,10.075-1.354,5.991-2.321,12.069-2.895,18.185-.623,6.636-.782,13.305-.94,19.968-.198,8.319-.301,17.059,3.599,24.409,1.785,3.364,4.371,6.3,7.482,8.496,4.296,3.032,9.286,5.035,14.322,6.545,2.745.823,15.889,4.582,23.532,4.58h13.968s33.737-7.483,40.111-11.08c7.833-4.42,12.5-11.444,12.5-11.444Z"/><path class="i" d="M88.218,95.501c-3.127,6.371-9.878,8.726-16.567,9.115-7.653.445-15.431-1.033-22.418-4.187-3.96-1.788-7.719-4.06-11.093-6.8-.838-.68-2.009-.819-2.828,0-.703.703-.843,2.144,0,2.828,6.663,5.41,14.51,9.301,22.924,11.086,7.876,1.671,16.889,1.993,24.369-1.391,3.896-1.762,7.178-4.781,9.068-8.632,1.13-2.302-2.319-4.332-3.454-2.019h0Z"/><path class="i" d="M36.414,141.972c-2.151,10.631-2.639,21.532-1.347,32.303.129,1.072.827,2,2,2,.981,0,2.13-.92,2-2-1.249-10.41-.876-20.962,1.204-31.24.509-2.513-3.346-3.588-3.857-1.063h0Z"/><path class="i" d="M34.857,94.029c-9.369,3.288-17.193,9.397-22.267,17.978-2.667,4.509-4.507,9.483-5.738,14.565-1.544,6.374-2.525,12.92-3.138,19.445-.608,6.476-.774,12.982-.928,19.481-.14,5.88-.249,11.818.935,17.612,1.145,5.604,3.744,10.869,7.892,14.858,4.194,4.032,9.665,6.576,15.105,8.455,3.827,1.321,7.773,2.346,11.711,3.274,4.978,1.174,10.145,2.289,15.281,2.318,2.574.014,2.577-3.986,0-4-4.179-.023-8.34-.857-12.404-1.76-3.356-.745-6.691-1.604-9.99-2.57-4.815-1.409-9.538-3.224-13.728-6.027-4.332-2.898-7.495-7.164-9.099-12.116-1.68-5.187-1.842-10.69-1.78-16.097.07-6.107.23-12.229.611-18.326.388-6.208,1.136-12.379,2.322-18.486,1.006-5.183,2.263-10.396,4.566-15.174,4.471-9.276,11.971-16.156,21.712-19.575,2.413-.847,1.375-4.713-1.063-3.857h0Z"/><path class="i" d="M98.986,137.296c2.236,6.477,2.449,13.421.556,20.012-.712,2.479,3.147,3.537,3.857,1.063,2.076-7.228,1.9-15.026-.556-22.138-.835-2.419-4.7-1.379-3.857,1.063h0Z"/><path class="g" d="M9.242,226.048c-3.559,2.462-5.881,6.476-6.764,10.713-.883,4.237-.511,8.715.855,12.831,2.834,8.548,11.661,16.343,52.626,16.343-.056-3.717-.585-7.424-2.276-9.078-4.46-1.775-18.926-7.981-21.649-9.719-2.732-1.756-5.584-3.029-7.442-4.831-2.834-2.75-5.361-5.38-6.838-8.613-1.245-2.722-2.657-5.705-3.28-10.062l-1.264.056-3.967,2.36Z"/><path class="i" d="M12.2,221.961c-2.065,1.229-4.227,2.338-6,3.985-3.373,3.132-5.323,7.539-5.944,12.049-.761,5.523.128,11.956,3.321,16.69,4.932,7.313,14.507,9.82,22.695,11.222,9.786,1.675,19.778,2.022,29.687,2.029,2.574.002,2.578-3.998,0-4-8.507-.006-17.075-.248-25.513-1.406-2.966-.407-5.921-.94-8.824-1.674-1.219-.308-2.429-.653-3.622-1.048-.494-.163-.984-.335-1.472-.516-.248-.092-.496-.187-.742-.285-.084-.033-.82-.34-.497-.201-1.655-.712-3.261-1.56-4.734-2.602-.159-.112-.315-.228-.472-.344-.014-.01.195.167-.1-.08-.297-.248-.594-.495-.879-.757-.517-.476-.998-.986-1.453-1.521-.105-.123-.205-.251-.306-.378.262.328.087.121-.046-.072-.176-.257-.355-.51-.522-.773-.33-.524-.628-1.068-.893-1.627-.055-.116-.105-.235-.161-.35-.227-.466.106.282-.013-.025-.111-.286-.225-.57-.326-.86-.676-1.92-1.139-3.94-1.302-5.97-.38-4.706.598-9.785,3.762-13.443,1.778-2.055,4.078-3.221,6.377-4.589,2.21-1.315.201-4.774-2.019-3.454h0Z"/><path class="i" d="M137.585,265.935c.128-10.829.006-21.756-1.149-32.533-.483-4.51-1.088-8.921-3.138-13.019-2.164-4.326-4.97-8.184-8.672-11.299-4.408-3.709-9.284-7.215-14.503-9.692-2.313-1.098-4.346,2.35-2.019,3.454,4.381,2.078,8.501,4.908,12.289,7.919,1.612,1.282,3.226,2.618,4.61,4.149,1.628,1.801,2.937,3.987,4.109,6.102,2.054,3.708,2.784,7.583,3.254,11.752.577,5.113.845,10.262,1.024,15.402.205,5.919.265,11.843.195,17.765-.03,2.575,3.97,2.576,4,0h0Z"/><path class="i" d="M14.068,204.369c-1.378,5.919-2.393,12.137-1.728,18.225.417,3.818,1.528,7.328,3.096,10.817,2.576,5.73,7.055,10.466,12.475,13.602,1.792,1.037,3.527,2.151,5.384,3.068,1.999.987,4.033,1.906,6.068,2.816,4.56,2.039,9.148,4.038,13.788,5.889l-.883-.514c1.73,1.825,1.644,5.339,1.691,7.663.052,2.571,4.052,2.579,4,0-.067-3.311-.229-7.556-2.572-10.17-.718-.801-1.813-1.091-2.79-1.493-.91-.375-1.817-.754-2.723-1.138-4.723-1.999-9.45-4.024-14.064-6.265-1.968-.956-3.793-2.108-5.688-3.201-1.583-.913-3.125-1.814-4.441-3.093-1.352-1.313-2.691-2.661-3.869-4.134-1.498-1.873-2.515-4.034-3.438-6.231.133.317-.092-.228-.126-.315-.072-.182-.144-.363-.213-.545-.168-.441-.328-.886-.476-1.334-.3-.904-.555-1.823-.762-2.753-1.444-6.482-.363-13.415,1.13-19.831.583-2.504-3.273-3.573-3.857-1.063h0Z"/><path class="i" d="M121.703,188.906c5.006-4.847,2.914-13.343,2.122-19.341-1.141-8.65-2.283-17.3-3.424-25.95-1.08-8.185-1.76-16.567-3.685-24.608-1.656-6.92-4.702-13.694-10.209-18.399-2.778-2.373-6.047-4.212-9.628-5.031-2.346-.537-4.781-.775-7.167-1.073-1.074-.134-2,1.015-2,2,0,1.192.923,1.866,2,2,4.655.581,9.03,1.259,12.921,4.101,5.244,3.831,8.191,9.815,9.841,15.944,1.978,7.348,2.609,15.07,3.601,22.595,1.065,8.073,2.131,16.147,3.196,24.22.545,4.13,1.339,8.314,1.587,12.473.16,2.688.092,6.231-1.983,8.24-1.853,1.794.977,4.621,2.828,2.828h0Z"/><path class="i" d="M36.413,54.712c.644.373,1.36.662,2.079.854.677.18,1.409.304,2.112.27,1.502-.073,3.039-.677,4.001-1.874.344-.428.586-.843.586-1.414,0-.491-.218-1.076-.586-1.414-.381-.35-.882-.61-1.414-.586-.496.022-1.089.181-1.414.586-.171.213-.361.403-.575.573l.405-.313c-.226.17-.466.31-.725.424l.478-.202c-.319.132-.647.218-.989.265l.532-.071c-.369.043-.732.033-1.101-.014l.532.071c-.595-.087-1.173-.253-1.728-.485l.478.202c-.223-.097-.44-.204-.65-.326-.906-.524-2.23-.24-2.736.718s-.25,2.177.718,2.736h0Z"/><path class="d" d="M111.112,194.001c-.984-4.108-3.157-8.06-6.607-10.357-3.399-2.262-7.609-2.914-11.589-2.709-2.165.112-10.202.707-11.017,3.446l-.324,1.271c-2.547-.393-5.148-.471-7.716-.352-3.948.184-8.08.404-11.396,2.744-1.559,1.1-2.922,2.456-4.201,3.865-1.032,1.137-1.453,2.515-1.612,4.111-.141,1.412-.083,2.953.193,4.461.433,2.363,1.405,4.641,2.998,6.206,1.441,1.416,3.321,2.328,5.275,2.842,3.335.879,6.781.692,10.181.437,1.161-.087,2.318.16,3.345.708,1.87.998,4.159,2.175,5.624,3.086,1.479.919,3.322,1.214,5.031.883.648-.125,1.309-.36,1.75-.851.441-.492.587-1.294.182-1.816,0,0-.606-.782-1.212-1.563.856.444,1.822.944,1.822.944.627.325,1.287.625,1.991.677.704.052,1.467-.188,1.877-.762.411-.574.778-1.979.267-2.632,0,0-.006-.007-.006-.008,6.46-.123,10.655-2.83,10.655-2.83,2.591-1.192,4.369-3.637,4.782-5.659.413-2.023.187-4.134-.293-6.141Z"/><path class="i" d="M97.388,207.225l-.006-.008-1.414,3.414c2.81-.065,5.643-.549,8.281-1.533,1.149-.428,2.345-.904,3.383-1.571.879-.565,1.32-1.802.718-2.736-.567-.879-1.795-1.322-2.736-.718-.229.147-.471.276-.712.402-.282.147-.569.286-.859.418-.088.04-.176.077-.264.117-.339.157.431-.175.097-.04-.229.092-.458.184-.689.27-1.055.394-2.141.707-3.242.942-.322.069-.645.131-.969.186-.169.029-.338.051-.507.081-.147.021-.114.018.099-.011-.088.012-.176.022-.265.033-.775.091-1.554.142-2.335.16-.805.019-1.515.488-1.828,1.229-.338.801-.099,1.53.414,2.185l.006.008c.648.828,2.158.73,2.828,0,.806-.878.691-1.945,0-2.828h0Z"/><path class="i" d="M107.633,207.528c3.969-1.94,6.163-5.857,5.974-10.225-.188-4.335-1.842-8.744-4.543-12.132-5.039-6.322-13.451-6.858-20.867-5.753-2.97.442-7.087,1.214-8.226,4.431-.861,2.431,3.002,3.477,3.857,1.063-.107.302.105-.057.115-.064.393-.27.825-.478,1.225-.625,1.135-.418,2.342-.663,3.532-.86,2.196-.364,4.482-.54,6.706-.439,3.324.151,6.813,1.107,9.303,3.414,2.398,2.222,3.809,5.276,4.528,8.426.416,1.827.709,4.011-.045,5.792-.678,1.6-2.05,2.77-3.578,3.517-2.312,1.13-.287,4.581,2.019,3.454h0Z"/><path class="i" d="M86.363,196.243c2.098,1.286,4.122,2.692,6.023,4.255.965.793,1.903,1.617,2.813,2.472.455.427.903.862,1.343,1.305.22.221.431.453.655.669.007.007.31.327.136.121-.166-.197.109.181.138.227.013.02.126.287.051.095-.085-.218.037.156.049.206.022.093.048.186.061.281-.006-.044-.028-.285-.024-.052,0,.053-.017.453.01.215.024-.214-.025.092-.03.112-.013.062-.055.368-.004.058-.012.072-.099.283-.02.073-.06.161-.327.144.004.019.063-.024.249-.163.106-.047-.12.097.017.017.119.006-.119.014-.234.002-.353.01-.023.002-.326-.022-.101.002.248.026-.144-.031-.2-.045-.219-.054-.436-.112-.649-.184-.12-.041-.24-.085-.358-.131.032.013.259.117.056.021-.177-.084-.354-.168-.526-.263-.391-.215-.743-.479-1.106-.738-.95-.679-1.909-1.347-2.88-1.995-2.243-1.497-4.559-2.877-6.899-4.215-2.239-1.279-4.256,2.176-2.019,3.454,2.375,1.357,4.725,2.758,6.998,4.281,1.984,1.328,3.85,3.029,6.227,3.606,1.429.347,2.982.292,4.143-.707,1.057-.908,1.56-2.35,1.47-3.723-.097-1.482-.737-2.656-1.757-3.706-1.026-1.055-2.093-2.069-3.199-3.04-2.572-2.26-5.341-4.303-8.26-6.093-2.201-1.349-4.212,2.109-2.019,3.454h0Z"/><path class="i" d="M94.247,209.649c.172.265-.017.024.006-.008-.025-.189-.036-.208-.032-.057-.007.12-.004.132.009.035.058-.168-.049.195-.059.232-.024.096-.054.19-.088.283l.058-.141-.079.145.098-.117c-.017-.094.141.036-.097.056.295-.026-.263-.071-.073-.02.172.046-.186-.04-.154-.028-1.375-.496-2.685-1.312-3.947-2.088-2.799-1.721-5.487-3.611-8.382-5.173-2.266-1.223-4.288,2.23-2.019,3.454,3.692,1.992,7.046,4.542,10.733,6.539,1.902,1.03,4.23,1.953,6.211.543,1.637-1.166,2.406-3.918,1.27-5.673-.586-.906-1.774-1.28-2.736-.718-.901.527-1.307,1.826-.718,2.736h0Z"/><path class="i" d="M100.96,204.678c4.235-1.653,2.075-6.136.288-8.856-2.069-3.149-4.808-5.796-7.964-7.845-7.021-4.56-15.588-5.352-23.737-4.363-4.333.526-7.868,2.084-11.021,5.137-1.463,1.416-2.823,2.876-3.443,4.858-.518,1.655-.592,3.528-.453,5.247.292,3.614,1.544,7.383,4.396,9.784,3.346,2.817,7.83,3.575,12.086,3.535,2.289-.021,4.768-.687,6.876.414,1.896.991,3.729,2.096,5.616,3.098,2.029,1.077,4.59,1.44,6.804.733,2.34-.748,3.843-3.141,2.549-5.454-1.257-2.247-4.714-.232-3.454,2.019-.474-.847.405-.309-.348-.36-.289-.02-.751.137-1.056.147-.631.021-1.249-.066-1.847-.27-1.39-.474-2.709-1.484-4.009-2.18-1.37-.734-2.767-1.633-4.272-2.065-1.793-.515-3.636-.194-5.462-.119-3.285.136-6.839.018-9.741-1.715-2.373-1.417-3.504-3.819-3.992-6.461-.475-2.574-.358-5.317,1.498-7.285,2.284-2.421,4.675-4.177,7.983-4.846,3.144-.636,6.552-.692,9.746-.536,3.223.158,6.45.779,9.422,2.062,2.924,1.263,5.61,3.075,7.835,5.354,1.122,1.149,2.105,2.397,2.94,3.769.389.638.802,1.314,1.084,2.007.075.185.117.403.198.583.203.45-.147-.032.415-.251-1.006.393-1.704,1.342-1.397,2.46.264.959,1.448,1.792,2.46,1.397h0Z"/><path class="d" d="M355.273,265.94c.06-3.72.59-7.43,2.28-9.08,4.46-1.78,18.92-7.98,21.65-9.72,2.73-1.76,5.58-3.03,7.44-4.83,2.83-2.75,5.36-5.38,6.84-8.62,2.51-5.5,5.69-12.06,1.75-28.79l-1.38-6.22c5.34-2.39,9.09-6.33,11-11.22,2.74-6.98,3.17-14.63,3.32-22.13.28-13.73-1.54-30.62-6.32-43.62l8,1.43c6.08,1.94,9.77,8.43,9.86,13.95.49,29.52-.45,63.18-5.62,94.09-2.48,14.87-6.62,26.94-21.58,33.26-11.15,4.71-24.3,5.27-36.24,6.15l-1-4.65h0Z"/><path class="d" d="M360.603,79.48c-.27,2.48-.31,5.01-.11,7.51.05.58.11,1.18.4,1.69.21.37.53.68.87.95-1.26,3.14-3.12,7.35-5.28,12.03l-1.12-.22c-8.46.84-17.01,1.69-25.43.48l-1.28.12c-.5-5.21-.94-9.78-1.25-12.9l1.33-2.54c-3.32-1.12-6.37-2.97-9.29-5.59-5.3-4.74-7.38-11.94-7.89-19.83-.25-3.79-.44-7.85-.74-11.96l-.22.02c-.21-1.25-.37-2.54-.48-3.86h2.68c2.69-6.01,7.2-11.32,12.89-15.1.5-.34,1.49-1.2,1.97-1.82l4.54,2.56c.5,2.06,2.27,4.69,3.6,6.04,7.49,7.57,18.35,11.82,28.84,12.93l8,1.54c1.13-.74,2.51-.86,3.63-.63,2.45.48,3.29,1.92,3.62,2.74.18.44.3.95.36,1.49.34,2.39-.34,5.48-1.43,7.43-.93,1.69-2.34,4.02-5.18,5.58-.87.47-3.03,1.1-5.02.84l-.09.7c-.65,1.22-2.17,3.35-2.17,3.35-1.69,2.27-3.5,4.4-5.75,6.45Z"/><path class="d" d="M301.653,173.04c-2.93,1.97-6.44,3.09-9.97,3.11-4.67.04-9.32-1.84-12.67-5.1-5.28-5.15-6.65-12.78-7.19-20.14l-.5-7.24c1.19.81,2.52,1.44,3.8,1.85,2.02.64,3.89.44,5.09-1.49.54-.87,2.1-4.6,3.13-7.14.64-1.6,2.39-4.59,3.56-5.91.72-.8,3.5-2.44,5.14-3.2.61-.28,1-.88,1.19-1.52.58-1.9-.1-3.86-1.51-5.19l2.41-2.99c.55.16.97-.49.96-.96-.01-.43-.23-.83-.45-1.2l3.38-6.14c.41-.8.84-1.58,1.29-2.35,2.46-4.22,5.79-8.3,10.28-10.44,4.58-2.18,8.16-3.5,13.08-5.17,1.58-.89,3.15-1.78,4.73-2.68.31,3.12.75,7.69,1.25,12.9.85,8.84,1.89,19.49,2.82,27.89,3.81-.08,7.63-.17,11.44-.25,4.18-8.22,9.43-18.99,13.57-28.02,2.16-4.68,4.02-8.89,5.28-12.03.26-.62.49-1.21.69-1.74,2.06,1.61,4.05,3.29,5.97,5.05,14.23,4.6,27.82,14.12,33.11,27.91,5.02,13.11,6.93,30.45,6.64,44.48-.15,7.5-.58,15.15-3.32,22.13-1.91,4.89-5.66,8.83-11,11.22l1.38,6.22c3.94,16.73.76,23.29-1.75,28.79-1.48,3.24-4.01,5.87-6.84,8.62-1.86,1.8-4.71,3.07-7.44,4.83-2.73,1.74-17.19,7.94-21.65,9.72-1.69,1.65-2.22,5.36-2.28,9.08h-79.63c-.15-12.89.34-32.99,2.57-40.97.93-3.34,3.91-8.12,6.07-10.84,2.76-3.48,12.1-10.33,17.84-13.01l4.91-3.01c-1.65-7.68-3.5-16.33-5.38-25.07Z"/><path class="j" d="M377.938,64.369c-.055-.027-.11-.052-.166-.076-.91,1.342-2.186,2.777-4.141,3.845-.897.487-3.149,1.136-5.178.828,1.503-.99-2.099,4.06-2.099,4.06-1.688,2.273-3.498,4.403-5.757,6.455-.002.017-.004.034-.005.05-.288,2.694,1.896,5.019,4.605,5.019,3.346,0,6.441,0,6.441,0,2.674.272,5.444-.581,7.503-2.309s3.378-4.309,3.574-6.989c.222-3.037-.946-6.03-2.573-8.604-.572-.905-1.241-1.807-2.205-2.279Z"/><path class="i" d="M376.968,66.115c.8.452,1.261,1.221,1.723,1.992.546.912,1.039,1.861,1.39,2.867.687,1.972.901,4.01.263,6.022-1.192,3.759-4.873,5.878-8.706,5.553-1.078-.091-2,.985-2,2,0,1.158.919,1.908,2,2,5.63.477,10.865-3.135,12.564-8.49.856-2.699.632-5.674-.323-8.315-.934-2.584-2.403-5.678-4.891-7.084-2.244-1.269-4.262,2.186-2.019,3.454h0Z"/><path class="i" d="M299.753,110.784c2.455-4.72,5.614-9.408,10.485-11.888,4.843-2.466,10.057-4.172,15.196-5.895,2.428-.814,1.387-4.678-1.063-3.857-5.567,1.865-11.313,3.7-16.507,6.484-5.26,2.819-8.873,7.963-11.564,13.137-1.186,2.281,2.264,4.306,3.454,2.019h0Z"/><path class="f" d="M401.991,226.048c3.559,2.462,5.881,6.476,6.764,10.713.883,4.237.511,8.715-.855,12.831-2.834,8.548-11.661,16.343-52.626,16.343.056-3.717.585-7.424,2.276-9.078,4.46-1.775,18.926-7.981,21.649-9.719,2.732-1.756,5.584-3.029,7.442-4.831,2.834-2.75,5.361-5.38,6.838-8.613,1.245-2.722,2.657-5.705,3.28-10.062l1.264.056,3.967,2.36Z"/><path class="f" d="M398.024,223.688l3.967,2.36c3.559,2.462,5.881,6.476,6.764,10.713.883,4.237.507,8.717-.855,12.831-2.831,8.551-11.657,16.343-52.626,16.343"/><path class="i" d="M358.598,79.461c-.182,1.74-.262,3.488-.222,5.238.039,1.67-.049,3.723.908,5.174.888,1.346,2.468,2.31,3.834,3.118,1.453.859,3.019,1.542,4.622,2.067,1.026.336,2.184-.391,2.46-1.397.298-1.086-.367-2.123-1.397-2.46-1.237-.406-2.286-.867-3.46-1.543-.588-.338-1.158-.706-1.71-1.1-.394-.282-.863-.586-1.012-.888.085.173-.025-.068-.039-.128-.034-.141-.068-.284-.088-.428.029.213.004-.062,0-.126-.008-.179-.028-.359-.04-.538-.052-.762-.081-1.526-.088-2.289-.015-1.57.067-3.138.231-4.699.113-1.076-1-2-2-2-1.175,0-1.887.921-2,2h0Z"/><path class="i" d="M277.648,265.935c-.124-10.51.011-21.095,1.049-31.561.388-3.914.784-8.047,2.522-11.629,2.035-4.195,4.654-7.836,8.216-10.833,4.151-3.493,8.782-6.736,13.694-9.066,2.324-1.103.297-4.553-2.019-3.454-4.648,2.205-8.943,5.256-12.965,8.439-1.687,1.335-3.381,2.726-4.816,4.336-1.734,1.946-3.185,4.223-4.467,6.484-1.22,2.151-2.277,4.413-2.843,6.828-.49,2.092-.783,4.23-1.043,6.36-.631,5.163-.913,10.37-1.105,15.566-.229,6.173-.295,12.353-.222,18.53.03,2.572,4.03,2.579,4,0h0Z"/><path class="i" d="M393.308,205.432c1.365,5.862,2.41,12.207,1.449,18.17-.312,1.933-.829,3.825-1.522,5.656-.349.923-.414,1.065-.818,1.969-.468,1.048-.933,2.099-1.522,3.086-.922,1.545-2.076,2.909-3.31,4.213-1.219,1.289-2.449,2.619-3.932,3.606-2.236,1.488-4.618,2.911-7.013,4.135-4.371,2.233-8.919,4.147-13.428,6.079-2.056.881-4.124,1.732-6.193,2.584-1.731.713-2.568,2.908-3.013,4.598-.547,2.076-.688,4.27-.732,6.408-.052,2.575,3.948,2.575,4,0,.047-2.326-.04-5.838,1.691-7.663l-.883.514c4.116-1.642,8.185-3.41,12.238-5.201,3.772-1.666,7.523-3.328,11.063-5.446,1.369-.819,2.783-1.568,4.119-2.442,1.546-1.012,2.857-2.241,4.149-3.555,2.318-2.357,4.393-4.897,5.775-7.918,1.463-3.2,2.726-6.433,3.245-9.933.988-6.664.009-13.411-1.507-19.923-.584-2.506-4.441-1.445-3.857,1.063h0Z"/><path class="h" d="M345.084,102.327c-5.509.332-11.019.315-16.464-.609,1.208,12.514,2.8,28.808,3.902,37.136,0,0,.529,3.996,1.058,7.992,2.163-3.85,4.325-7.7,4.325-7.7,4.036-7.185,12.626-24.503,18.749-37.839-3.841.383-7.706.787-11.571,1.02Z"/><path class="i" d="M369.988,95.595c7.631,2.76,14.89,6.906,20.703,12.615,2.794,2.744,5.213,5.834,7.089,9.277,1.992,3.655,3.252,7.681,4.33,11.687,2.36,8.768,3.538,17.844,3.946,26.904.205,4.54.187,9.087-.017,13.626-.223,4.941-.743,9.885-2.207,14.629-1.193,3.866-3.12,7.235-6.295,9.809-3.384,2.743-7.622,4.137-11.877,4.782-1.069.162-1.659,1.507-1.397,2.46.314,1.143,1.388,1.559,2.46,1.397,7.942-1.203,15.611-5.427,19.227-12.868,2.184-4.493,3.131-9.536,3.666-14.466.541-4.988.648-10.047.571-15.062-.149-9.674-1.178-19.418-3.364-28.85-1.03-4.445-2.307-8.884-4.129-13.075-1.718-3.952-4.141-7.56-6.993-10.782-6.569-7.421-15.4-12.596-24.65-15.941-2.425-.877-3.469,2.987-1.063,3.857h0Z"/><path class="d" d="M332.523,138.854c-1.549-11.7-4.064-39.125-5.122-49.711-3.109,1.767-6.221,3.529-9.332,5.292.875,2.043,2.927,5.513,4.101,7.768-2.52,1.18-4.988,2.349-7.289,3.596,1.1,5.786,2.323,11.86,3.744,18.026"/><path class="i" d="M334.523,138.854c-1.779-13.496-2.933-27.084-4.238-40.632-.292-3.027-.581-6.054-.884-9.079-.148-1.478-1.593-2.532-3.009-1.727-3.109,1.767-6.221,3.529-9.332,5.292-1.017.576-1.148,1.757-.718,2.736,1.177,2.681,2.742,5.179,4.101,7.768l.718-2.736c-2.454,1.15-4.902,2.313-7.289,3.596-.826.444-1.082,1.403-.919,2.259,1.148,6.029,2.37,12.044,3.744,18.026.576,2.508,4.434,1.446,3.857-1.063-1.374-5.982-2.596-11.997-3.744-18.026l-.919,2.259c2.388-1.284,4.835-2.446,7.289-3.596,1.009-.473,1.182-1.851.718-2.736-1.358-2.589-2.924-5.088-4.101-7.768l-.718,2.736c3.111-1.763,6.223-3.525,9.332-5.292l-3.009-1.727c1.333,13.352,2.532,26.718,3.986,40.058.351,3.221.713,6.441,1.136,9.653.141,1.071.818,2,2,2,.971,0,2.142-.921,2-2h0Z"/><path class="d" d="M357.965,127.768c5.155-6.719,10.928-14.295,11.978-15.499-1.247-1.145-5.487-4.144-7.51-5.492,2.468-2.158,7.356-6.376,10.51-9.423-3.264-3.398-6.772-6.562-10.487-9.461-4.122,10.861-18.86,41.124-24.549,51.253"/><path class="i" d="M359.692,128.777c3.856-5.027,7.529-10.29,11.665-15.095.675-.785.852-2.063,0-2.828-2.417-2.17-5.22-4.002-7.915-5.805l.405,3.141c3.543-3.095,7.119-6.161,10.51-9.423.788-.759.74-2.062,0-2.828-3.275-3.394-6.775-6.551-10.487-9.461-1.236-.969-2.77-.62-3.343.883-2.418,6.346-5.44,12.673-8.4,18.952-3.6,7.637-7.304,15.229-11.146,22.748-1.557,3.047-3.129,6.091-4.803,9.076-1.26,2.248,2.194,4.267,3.454,2.019,3.437-6.131,6.548-12.453,9.651-18.758,3.752-7.623,7.423-15.291,10.897-23.045,1.469-3.278,2.924-6.571,4.203-9.928l-3.343.883c3.712,2.91,7.211,6.067,10.487,9.461v-2.828c-3.391,3.263-6.967,6.328-10.51,9.423-1.027.897-.595,2.473.405,3.141,2.411,1.613,4.942,3.237,7.106,5.179v-2.828c-4.357,5.061-8.228,10.608-12.29,15.904-.658.858-.132,2.239.718,2.736,1.031.603,2.077.142,2.736-.718h0Z"/><path class="i" d="M378.177,134.681c.12,5.225-.259,10.446-1.192,15.59-.193,1.062.29,2.156,1.397,2.46.97.266,2.267-.328,2.46-1.397.996-5.494,1.463-11.07,1.335-16.653-.059-2.57-4.059-2.579-4,0h0Z"/><path class="i" d="M307.343,164.963v28.906c0,2.574,4,2.578,4,0v-28.906c0-2.574-4-2.578-4,0h0Z"/><path class="i" d="M329.404,103.852c8.66,1.201,17.304.451,25.958-.416,1.075-.108,2-.842,2-2,0-.998-.919-2.108-2-2-8.241.825-16.638,1.703-24.894.559-1.069-.148-2.148.259-2.46,1.397-.257.935.32,2.311,1.397,2.46h0Z"/><path class="i" d="M269.818,150.911c.526,6.903,1.696,14.077,6.095,19.664,4.502,5.718,11.95,8.464,19.092,7.261,4.032-.679,7.785-2.7,10.696-5.549,1.842-1.804-.987-4.631-2.828-2.828-5.637,5.519-14.471,6.199-20.858,1.533-6.255-4.569-7.646-12.87-8.196-20.081-.194-2.551-4.196-2.572-4,0h0Z"/><path class="j" d="M325.68,30.275c-5.69,3.783-10.199,9.096-12.891,15.105,0,0-1.648,0-2.682,0-.488-5.655-.12-11.668.802-15.892,1.209-5.541,4.067-11.704,7.88-15.877,6.606-7.228,16.221-11.423,27.993-11.582,7.429-.1,14.798,1.545,22.597,7.514,0,0,2.424,1.855,4.849,3.711.458.455.917.911.917.911,4.625,4.594,6.782,9.73,8.092,15.95.657,3.131.843,6.348.514,9.522-.343,3.305-.878,10.944-3.36,15.254l-.504-1.254c-.328-.817-1.171-2.258-3.62-2.742-1.125-.223-2.505-.102-3.633.631l-8.002-1.534c-10.484-1.11-21.349-5.36-28.835-12.931-1.333-1.348-3.104-3.979-3.604-6.042,0,0-5.062-.604-6.512-.744Z"/><path class="i" d="M373.729,15.579c5.305,5.344,8.054,12.994,8.174,20.476.049,3.048-.334,6.196-.786,9.21-.462,3.078-1.049,6.366-2.714,9.047-1.362,2.193,2.097,4.203,3.454,2.019,1.882-3.028,2.631-6.692,3.143-10.174s1.003-7.074.892-10.58c-.265-8.382-3.388-16.837-9.334-22.826-1.816-1.829-4.645.999-2.828,2.828h0Z"/><path class="i" d="M370.388,7.816c-5.514-4.172-11.811-6.834-18.699-7.571-6.11-.654-12.556.007-18.403,1.896-5.596,1.807-10.78,4.853-14.935,9.032-4.49,4.516-7.536,10.5-9.101,16.642-1.8,7.065-1.755,14.797-.589,21.956.174,1.067,1.499,1.661,2.46,1.397,1.134-.312,1.571-1.39,1.397-2.46-1.835-11.263-.402-24.527,7.427-33.395,7.36-8.337,18.599-11.751,29.48-11.241,7.026.329,13.368,2.978,18.945,7.198.862.652,2.237.137,2.736-.718.6-1.026.147-2.083-.718-2.736h0Z"/><path class="i" d="M330.157,74.458c1.561.925,3.445,1.311,5.241,1.384.906.037,1.829-.043,2.716-.231.388-.082.76-.206,1.126-.356.328-.134.653-.274.978-.414.096-.041.192-.093.292-.126-.459.153.043-.013.112-.04.971-.379,1.753-1.358,1.397-2.46-.305-.944-1.417-1.805-2.46-1.397-.309.121-.615.251-.921.381-.098.042-.195.084-.293.126-.007.003-.469.199-.194.085.243-.1-.069.027-.114.045-.091.036-.182.07-.275.102-.158.055-.318.103-.48.144-.176.044-.353.075-.531.11-.273.053.074-.021.16-.019-.083-.002-.172.019-.255.026-.373.032-.749.04-1.123.03-.181-.005-.361-.015-.541-.029-.09-.007-.181-.015-.271-.024-.063-.006-.38-.048-.072-.004s-.008-.003-.07-.013c-.089-.014-.177-.03-.266-.047-.196-.037-.392-.079-.586-.127-.331-.082-.659-.181-.978-.3-.07-.026-.415-.161-.099-.036.291.115.031.01-.03-.021-.15-.078-.299-.155-.445-.241-.901-.534-2.234-.233-2.736.718-.509.964-.244,2.166.718,2.736h0Z"/><path class="i" d="M341.904,55.998c-.361-1.621.245-5.235,3.267-5.307,3.96.339,3.821,4.756,2.323,6.719-1.226,1.607-4.493,2.056-5.59-1.412Z"/><path class="i" d="M318.324,54.867c-.324-1.624.247-5.252,3.015-5.336,3.626.323,3.48,4.754,2.1,6.729-1.13,1.617-4.124,2.081-5.115-1.393Z"/><path class="i" d="M329.998,58.959c-.535.815-1.064,1.644-1.52,2.506-.196.37-.407.751-.497,1.163-.199.912,0,1.749.621,2.453.406.46.915.742,1.475.963.358.141.75.159,1.128.209l-.532-.071c.053.007.106.015.158.026.535.103,1.058.081,1.541-.202.415-.243.811-.718.919-1.195.117-.512.091-1.087-.202-1.541-.27-.418-.688-.821-1.195-.919-.27-.052-.544-.077-.817-.114l.532.071c-.162-.023-.317-.058-.469-.121l.478.202c-.112-.051-.214-.113-.314-.186l.405.313c-.116-.093-.225-.194-.316-.311l.313.405c-.022-.032-.04-.067-.054-.104l.202.478c-.013-.037-.022-.074-.027-.113l.071.532c-.005-.062-.004-.118.002-.18l-.071.532c.018-.109.048-.21.087-.312l-.202.478c.228-.54.56-1.052.864-1.552.284-.468.574-.932.875-1.389.276-.42.332-1.067.202-1.541-.128-.464-.486-.967-.919-1.195-.464-.245-1.026-.368-1.541-.202-.511.165-.898.467-1.195.919h0Z"/><path class="i" d="M359.508,82.986c2.514-1.946,4.778-4.171,6.781-6.638,1.441-1.775,2.865-3.647,3.961-5.661.5-.919.257-2.221-.718-2.736-.934-.494-2.202-.264-2.736.718-.538.988-1.178,1.923-1.818,2.846-.153.221-.307.441-.467.656-.115.155-.232.309-.349.463-.249.329.121-.147-.159.206-.22.278-.44.555-.664.829-1.973,2.409-4.197,4.582-6.659,6.488-.832.644-.727,2.161,0,2.828.882.809,1.941.687,2.828,0h0Z"/><path class="i" d="M350.93,82.826c-7.734,3.129-16.655,4.648-24.403.694-3.567-1.82-6.883-4.463-9.001-7.897-2.143-3.476-3.22-7.544-3.711-11.571-.697-5.728-.708-11.547-1.199-17.296-.217-2.546-4.219-2.569-4,0,.474,5.551.537,11.149,1.131,16.687.492,4.591,1.528,9.166,3.769,13.243,4.404,8.012,13.501,12.898,22.493,13.2,5.522.186,10.894-1.144,15.984-3.204,1.001-.405,1.707-1.332,1.397-2.46-.261-.949-1.453-1.804-2.46-1.397h0Z"/><path class="i" d="M373.642,53.253c1.009-.608,2.202-.556,3.115-.139.556.254.584.282,1.004.758-.212-.241-.033-.054.058.1s.168.31.251.467c-.329-.62.047.184.093.355.035.131.138.682.131.625.081.671.058,1.368-.004,2.04-.107,1.163-.421,2.425-.9,3.512-.819,1.857-2.199,3.802-4.005,4.983-.285.186-.579.357-.879.517-.404.215.411-.119-.105.045-.535.17-1.061.334-1.615.434-.88.159-2.17.176-3.026-.266-2.284-1.179-4.309,2.271-2.019,3.454,2.38,1.229,5.328,1.131,7.804.204,2.557-.957,4.6-2.982,6.079-5.229,1.43-2.172,2.293-4.546,2.608-7.127.291-2.387.026-4.991-1.59-6.878-2.155-2.516-6.24-2.983-9.019-1.308-2.202,1.327-.194,4.787,2.019,3.454h0Z"/><path class="i" d="M326.236,27.044c-1.214,1.508-2.602,2.174-4.21,3.433-1.547,1.211-2.999,2.541-4.334,3.983-2.712,2.929-4.982,6.273-6.629,9.911-.445.983-.282,2.152.718,2.736.858.502,2.289.271,2.736-.718,1.548-3.419,3.618-6.565,6.19-9.301,1.285-1.367,2.674-2.654,4.165-3.795,1.435-1.099,3.044-1.993,4.194-3.421.677-.841.822-2.007,0-2.828-.701-.701-2.148-.846-2.828,0h0Z"/><path class="i" d="M330.263,31.551c1.757,6.53,8.373,11.21,13.995,14.266,6.303,3.426,13.262,5.395,20.373,6.175,1.075.118,2-1.004,2-2,0-1.179-.922-1.882-2-2-6.244-.684-12.447-2.482-17.998-5.437-2.746-1.462-5.354-3.193-7.683-5.26-2.087-1.852-4.086-4.043-4.83-6.807-.668-2.483-4.528-1.43-3.857,1.063h0Z"/><path class="d" d="M358.583,168.016c-2.72-11.461-6.208-26.263-8.583-36.373-.291-1.237-1.406-2.093-2.676-2.064-17.192.392-34.385.746-51.579,1.064-1.697.031-2.939,1.605-2.576,3.262,4.035,18.413,10.125,46.775,14.48,67.074.271,1.261,1.397,2.15,2.687,2.124,13.278-.271,37.501-.542,50.727-1.451"/><path class="i" d="M360.512,167.485c-1.806-7.609-3.603-15.219-5.397-22.831-.835-3.542-1.668-7.083-2.501-10.626-.383-1.627-.558-3.551-1.71-4.844-1.444-1.62-3.299-1.611-5.316-1.565-9.175.208-18.35.405-27.525.591-4.629.094-9.258.186-13.887.274-2.315.044-4.629.088-6.944.131-1.952.036-3.728.141-5.055,1.758-1.249,1.522-1.124,3.213-.729,5.019.341,1.558.682,3.117,1.021,4.676.73,3.349,1.458,6.699,2.184,10.049,1.623,7.49,3.239,14.982,4.853,22.475,1.582,7.348,3.161,14.696,4.738,22.045.366,1.705.732,3.41,1.098,5.115.388,1.807.736,3.51,2.391,4.598,1.388.912,3.01.745,4.585.715,1.399-.027,2.798-.052,4.197-.077,13.486-.24,26.987-.385,40.458-1.09,1.363-.071,2.726-.152,4.089-.244,2.554-.174,2.574-4.175,0-4-12.453.847-24.961.982-37.437,1.208-2.958.054-5.916.104-8.874.158-1.288.023-2.576.047-3.864.073-.468.009-.911.1-1.198-.33-.342-.511-.36-1.473-.489-2.074-1.446-6.741-2.894-13.482-4.343-20.222-2.939-13.67-5.883-27.34-8.865-41.001-.145-.666-.291-1.333-.437-1.999-.132-.603-.529-1.536-.453-2.154.145-1.19,2.566-.704,3.371-.72,4.381-.082,8.762-.166,13.143-.253,8.597-.17,17.193-.35,25.789-.538,2.149-.047,4.298-.095,6.447-.143,1.072-.024,2.151-.085,3.224-.073.636.007.856.135,1.034.756.898,3.129,1.499,6.378,2.246,9.546,1.698,7.209,3.398,14.418,5.105,21.625.398,1.679.795,3.357,1.194,5.036.594,2.504,4.452,1.444,3.857-1.063h0Z"/><path class="i" d="M409.323,125.071c4.549,1.526,7.721,6.109,8.313,10.781.385,3.042.153,6.264.174,9.328.023,3.355.025,6.71.004,10.065-.087,13.76-.556,27.522-1.606,41.244-1.012,13.227-2.273,26.659-5.078,39.644-1.969,9.115-5.576,17.994-13.606,23.369-5.639,3.774-12.366,5.642-18.978,6.832-7.353,1.324-14.833,1.71-22.272,2.256-2.552.187-2.572,4.189,0,4,13.404-.983,27.748-1.39,39.952-7.684,4.679-2.414,8.709-5.86,11.756-10.155,2.893-4.078,4.756-8.838,6.059-13.64,1.602-5.904,2.464-12.008,3.314-18.056,1.022-7.271,1.838-14.57,2.471-21.885,1.251-14.442,1.826-28.938,1.967-43.431.039-3.965.044-7.929.02-11.894-.022-3.574.22-7.292-.288-10.837-.887-6.191-5.161-11.787-11.141-13.793-2.446-.821-3.495,3.041-1.063,3.857h0Z"/><path class="d" d="M375.367,202.328c2.551-1.541,4.053-4.547,4.503-7.525,1.027-6.789-2.784-13.69-7.847-17.974-3.991-3.376-8.605-4.051-13.674-3.145-.642.141-1.963.422-1.963.422-2.276.485-4.7,1.884-5.342,3.809-.642,1.925-.135,4.216,1.805,5.019-1.965.941-3.023,2.245-2.914,4.21.109,1.965,1.675,3.302,3.483,3.494-1.492.576-1.752,2.642-1.365,3.853s1.616,2.612,3.271,2.375c-.974.936-.988,2.404-.3,3.737.515.999,2.264,1.9,4.458,2.146,4.485.502,9.177,1.431,13.661.462.813-.176,1.554-.479,2.223-.883Z"/><path class="i" d="M376.377,204.055c4.002-2.556,5.802-7.377,5.654-11.993-.153-4.779-2.167-9.266-5.087-12.986-2.866-3.652-6.712-6.657-11.38-7.459-3.944-.678-8.67-.268-12.326,1.484-2.358,1.13-4.126,3.09-4.409,5.747-.25,2.351.814,4.777,3.012,5.814v-3.454c-2.372,1.195-4.111,3.331-3.888,6.107.216,2.684,2.26,4.867,4.934,5.252l-.478-3.655c-4.814,2.264-2.168,10.34,2.915,9.954l-1.414-3.414c-1.699,1.881-1.81,4.769-.181,6.764,1.504,1.842,3.988,2.317,6.218,2.587,5.228.632,11.575,2.012,16.429-.747,2.238-1.272.225-4.729-2.019-3.454-3.163,1.798-7.689,1.032-11.125.612-1.707-.209-3.611-.233-5.235-.836-.757-.281-2.109-1.156-1.259-2.097,1.069-1.184.424-3.554-1.414-3.414-1.229.093-2.13-1.92-.896-2.501,1.473-.693,1.206-3.413-.478-3.655-1.022-.147-1.96-.575-2.018-1.735-.062-1.233.944-1.818,1.927-2.313,1.28-.645,1.333-2.825,0-3.454-1.032-.487-1.315-1.532-.932-2.607.484-1.357,2.164-2.08,3.45-2.432,2.784-.762,5.829-1.185,8.681-.588,6.672,1.395,11.969,8.519,12.865,15.07.482,3.528-.364,7.905-3.566,9.951-2.163,1.382-.159,4.845,2.019,3.454Z"/><path class="i" d="M354.055,184.77c3.421-.768,6.91-1.223,10.355-1.87,1.03-.194,1.71-1.492,1.397-2.46-.356-1.101-1.356-1.604-2.46-1.397-3.445.647-6.934,1.103-10.355,1.87-1.022.229-1.718,1.467-1.397,2.46.347,1.072,1.365,1.643,2.46,1.397h0Z"/><path class="i" d="M354.393,192.413c3.554-.849,7.154-1.554,10.776-2.046,1.041-.141,1.699-1.528,1.397-2.46-.37-1.144-1.345-1.548-2.46-1.397-3.621.492-7.222,1.197-10.776,2.046-1.018.243-1.722,1.457-1.397,2.46.343,1.06,1.369,1.657,2.46,1.397h0Z"/><path class="i" d="M355.857,198.794c3.112-.928,6.401-1.322,9.589-1.902,1.032-.188,1.709-1.496,1.397-2.46-.358-1.106-1.355-1.598-2.46-1.397-3.188.581-6.477.975-9.589,1.902-1.002.299-1.734,1.417-1.397,2.46.328,1.014,1.386,1.717,2.46,1.397h0Z"/><path class="i" d="M263.554,96.967c5.347,6.202,10.402,12.643,15.149,19.315.625.879,1.745,1.297,2.736.718.869-.508,1.347-1.852.718-2.736-4.944-6.948-10.207-13.666-15.775-20.125-.706-.819-2.104-.724-2.828,0-.812.812-.707,2.008,0,2.828h0Z"/><path class="d" d="M294.644,115.922c-1.26-2.124-2.713-4.469-4.505-6.192-1.475-1.418-3.968-2.32-5.929-1.458-1.028.452-1.763,1.454-2.017,2.548-.324,1.396.081,2.867.83,4.058l1.055,1.362c-1.475-.694-3.282-1.514-4.016-1.746-2.601-.821-3.793-.933-6.606.14-2.636,1.005-5.526,3.736-7.163,9.4-1.679,5.808-1.985,11.131,2.224,16.99,1.507,2.097,4.146,3.715,6.608,4.496,2.021.641,3.892.44,5.088-1.488.543-.875,2.102-4.6,3.128-7.144.644-1.598,2.39-4.582,3.566-5.907.712-.802,3.497-2.437,5.137-3.201.604-.282.999-.879,1.192-1.518.593-1.967-.157-4.014-1.67-5.339-.216-.189-.431-.359-.646-.538l3.217-2.308c.548.162.967-.485.956-.958-.01-.431-.23-.825-.45-1.196Z"/><path class="i" d="M284.75,113.868c-.444-.731-.664-1.316-.669-1.993,0-.008.046-.631-.002-.314.03-.195.09-.382.145-.571.08-.221.085-.235.015-.042.042-.084.087-.166.136-.246.047-.081.097-.16.152-.237-.105.131-.112.145-.021.04.065-.07.527-.437.224-.237.069-.046.538-.286.185-.14.174-.072.357-.111.537-.162.423-.118-.198-.036.209-.027.221.005.439-.003.66.015.146.014.126.011-.059-.009.095.016.189.036.282.058.221.051.432.123.649.186.384.112-.15-.104.237.095,1.275.652,2.352,1.886,3.24,3.127.559.782,1.078,1.592,1.58,2.412.225.367.45.735.666,1.108.075.124.146.25.212.379l-.036-.08c-.004-.117.006-.232.029-.347.17-.593.685-.838,1.547-.736-1.029-.163-2.202.264-2.46,1.397-.218.959.292,2.285,1.397,2.46,1.553.246,2.907-.507,3.374-2.058.391-1.3-.291-2.508-.937-3.584-1.109-1.846-2.296-3.668-3.741-5.272-1.356-1.505-3.123-2.721-5.163-3.031-2.382-.363-4.661.344-6.065,2.388-1.536,2.237-1.121,5.229.223,7.44.56.922,1.793,1.269,2.736.718.923-.54,1.28-1.81.718-2.736h0Z"/><path class="i" d="M268.222,124.564c1.313-4.398,4.72-9.819,9.997-8.519,2.157.532,4.158,1.579,6.149,2.54,1.075.519,2.129,1.072,3.132,1.723,1.215.789,2.788,1.765,3.517,3.052.417.737.755,2.078.019,2.691-.445.371-1.186.592-1.698.877-.703.391-1.398.802-2.067,1.249-2.235,1.492-3.628,3.716-4.871,6.062-1.269,2.394-2.116,5.004-3.25,7.465-.323.7-.666,1.717-1.439,2.034-1.128.462-2.706-.317-3.696-.813-3.318-1.662-5.476-4.715-6.421-8.28-.894-3.371-.304-6.789.631-10.081.705-2.48-3.154-3.539-3.857-1.063-1.061,3.733-1.63,7.602-.814,11.443.828,3.896,3.041,7.714,6.258,10.091,2.741,2.026,7.126,4.016,10.331,1.902,1.236-.815,1.926-2.042,2.523-3.348.735-1.607,1.41-3.242,2.081-4.876,1.006-2.451,2.268-5.562,4.545-7.082,1.294-.864,2.759-1.445,4.05-2.292,1.685-1.104,2.258-3.28,2.042-5.188-.444-3.924-4.205-6.469-7.41-8.218-2.295-1.252-4.764-2.46-7.232-3.32-3.466-1.208-7.213-.803-10.241,1.353-3.204,2.281-5.029,5.842-6.132,9.535-.738,2.472,3.121,3.528,3.857,1.063Z"/></g></svg>