<svg id="b" xmlns="http://www.w3.org/2000/svg" width="283.388" height="290.579" viewBox="0 0 283.388 290.579" style="color: initial !important;"><defs><style>.d{fill:#ffffff;}.e{fill:none;}.f{fill:#a98a75;}.g{fill:#211715;}.h{fill:#f2635f;}.i{fill:#cfcfcf;}</style></defs><g id="c"><path class="d" d="M49.617,174.396l-6.715,2.956v102.358h6.715v-105.314Z"/><path class="g" d="M42.878,279.646v6.871c0,1.121.909,2.03,2.03,2.03h2.704c1.121,0,2.03-.909,2.03-2.03v-6.871h-6.763Z"/><path class="g" d="M47.617,174.396c0,3.75,0,7.5,0,11.249v27.098c0,10.852,0,21.705,0,32.557v28.027c0,4.362.103,8.738,0,13.099-.004.19-.038.123-.029.121-.673.141-2.006.17-2.671,0,.008.002-.011.068-.015-.133-.004-.168,0-.336,0-.504v-5.585c0-7.989,0-15.978,0-23.966v-32.257c0-9.866,0-19.731,0-29.597v-16.399c0-.251,0-.503,0-.754,0-2.574-4-2.578-4,0,0,3.989,0,7.979,0,11.968v28.051c0,11.068,0,22.136,0,33.204v26.629c0,2.495,0,4.99,0,7.485,0,.541-.013,1.084,0,1.625.056,2.343,1.645,4.128,4.042,4.231.928.04,1.894.048,2.821-.013,2.191-.144,3.744-1.839,3.852-4.003.014-.291,0-.586,0-.878v-6.068c0-8.326,0-16.652,0-24.978v-32.736c0-10.063,0-20.125,0-30.188v-16.505c0-.261,0-.522,0-.782,0-2.574-4-2.578-4,0h0Z"/><path class="g" d="M54.462,167.517c.442.378.444.5.586.983.046.257.05.263.012.019.011.131.019.262.024.394.012.252.02.505.021.757.004.916-.058,2.021-.557,2.511-.682.67-2.208,1.315-3.184,1.787-1.223.591-2.483,1.091-3.769,1.527-1.175.398-2.369.744-3.58,1.019-1.144.261-1.575.394-2.647.148-.492-.113-.364.055-.662-.408-.125-.194-.184-.364-.253-.586-.035-.115-.063-.232-.083-.35.03.208.035.201.017-.02-.022-.642.027-1.525.453-1.85.856-.655,1.311-1.722.718-2.736-.493-.843-1.873-1.378-2.736-.718-2.11,1.614-3.034,4.548-2.109,7.096.523,1.441,1.461,2.706,2.941,3.242,1.276.462,2.698.546,4.024.322,2.67-.452,5.278-1.318,7.768-2.367,2.566-1.081,5.988-2.342,7.101-5.111,1.018-2.532.96-6.593-1.259-8.487-.821-.701-2.022-.806-2.828,0-.718.718-.825,2.124,0,2.828h0Z"/><path class="d" d="M59.266,147.351c-3.492,2.276-8.01,1.869-12.167,1.562-4.157-.306-8.817-.253-11.846,2.61-2.289,2.163-3.082,5.428-3.769,8.501-.42,1.88-.363,2.701-.599,4.613-.31,2.51.149,5.722,2.562,6.478.702.22,1.023,1.253,1.625,1.676.466.328.723.868,1.041,1.34,1.428,2.124,4.499,2.946,6.797,1.819,4.188-.975,13.959-3.753,16.921-5.002,1.86-.785,3.582-1.855,5.165-3.109,1.82-1.442,2.096-2.826,1.754-4.816"/><path class="g" d="M58.514,145.265c-3.07,1.911-6.785,1.662-10.251,1.416s-7.075-.504-10.413.629c-7.365,2.5-8.628,10.409-9.383,17.178-.328,2.939.107,6.612,2.91,8.274.797.473.66.157,1.209.888.479.638,1.033,1.135,1.485,1.793.988,1.438,2.36,2.453,4.017,3,2.798.924,5.63-.29,8.337-1.003,2.815-.742,5.617-1.536,8.402-2.383,2.882-.876,5.827-1.742,8.462-3.235,1.791-1.015,3.806-2.276,4.992-3.999,1.114-1.619,1.128-3.431.836-5.302-.166-1.068-1.504-1.66-2.46-1.397-1.14.313-1.564,1.389-1.397,2.46.184,1.182-.079,1.941-.97,2.728-1.282,1.134-2.855,2.037-4.392,2.771-1.797.858-3.776,1.393-5.674,1.976-2.494.765-5.003,1.483-7.52,2.165-1.032.279-2.066.553-3.103.813-1.128.283-2.303.876-3.479.769-2.561-.233-3.53-2.976-5.164-4.575-.776-.76-1.796-.756-2.248-1.828-.482-1.144-.392-2.497-.269-3.698.293-2.847.7-5.637,1.657-8.353,1.009-2.865,2.905-4.771,5.883-5.491,3.24-.783,6.629-.242,9.909-.077,3.667.185,7.449-.077,10.643-2.065,2.181-1.358.175-4.82-2.019-3.454h0Z"/><path class="g" d="M43.502,281.646h5.516c1.046,0,2.048-.92,2-2s-.879-2-2-2h-5.516c-1.046,0-2.048.92-2,2s.879,2,2,2h0Z"/><path class="d" d="M78.286,54.406c-2.005.062-4.639-.593-5.153-1.307-2.469-3.43-1.49-6.705-1.24-13.399.187-5.03-1.188-12.818-3.333-17.224-2.382-4.891-5.911-9.544-10.21-12.879-2.444-1.896-10.947-7.787-22.883-7.608-11.421.171-18.384,5.323-21.126,7.306-4.707,3.406-8.926,8.706-10.872,15.407-2.042,7.032-3.124,17.154,4.892,27.16,1.142,1.761,2.548,3.529,4.255,5.297,2.972,3.585,7.109,8.548,5.437,13.093-.332.903-.459,1.883-.171,2.797.766,2.413,2.952,1.874,4.762,2.058,1.198.12,2.245.569,3.211,1.197,1.064,1.086,3.039,2.882,5.143,4.409,1.387,1.005,2.835,1.895,4.111,2.373,2.72,1.032,4.872.848,6.656.154,3.497-1.361,6.662-3.428,8.447-6.126.427-.648,1.279-.868,1.975-.524.112.058,9.047,3.307,9.047,3.307"/><path class="i" d="M45.473,22.531c1.01-.769,1.973-1.596,2.875-2.494,2.841-2.816,6.401-8.214,7.339-12.287,1.196.748,2.094,1.406,2.663,1.848,4.298,3.334,7.828,7.988,10.21,12.879,2.146,4.406,3.521,12.193,3.333,17.224-.069,1.84-.207,3.509-.319,5.033-4.389,1.903-11.862,2.435-17.727,1.973-.128-2.291-.992-4.492-2.67-6.603-1.196-1.505-3.265-2.794-5.15-2.621-1.267.116-2.393.87-3.201,2.042-.897,1.3-.987,2.617-.919,4.123-2.864-.903-5.724-1.807-8.603-2.706-1.322-.421-2.616-1.046-3.23-2.306-.345-.69-.489-1.674-.39-2.43.55-4.26,4.18-7.167,8.037-9.044,2.712-1.319,5.363-2.809,7.753-4.628Z"/><path class="g" d="M43.887,42.787c.022-.81.159-1.596.65-2.245.254-.336.567-.615.822-.769.007-.004.525-.25.33-.178.054-.02.619-.155.337-.114,1.532-.228,3.112,1.121,4.015,2.428,2.344,3.39,2.23,7.047.447,10.691-.474.97-.263,2.163.718,2.736.88.515,2.26.257,2.736-.718,1.271-2.598,2.152-5.468,1.867-8.391s-1.52-5.628-3.454-7.819c-1.841-2.086-4.947-3.576-7.73-2.672-3.044.99-4.656,3.994-4.738,7.049-.069,2.575,3.931,2.573,4,0h0Z"/><path class="g" d="M9.671,50.318c-3.447-4.412-5.538-9.734-5.663-15.35-.101-4.54.839-9.355,2.783-13.469,3.447-7.293,10.195-12.854,17.751-15.551,9.584-3.421,20.271-2.217,29.033,2.864,7.857,4.555,13.405,12.4,15.327,21.242.597,2.745.974,5.551,1.005,8.363.031,2.827-.365,5.638-.413,8.462-.039,2.311.299,4.625,1.516,6.632,1.476,2.435,4.622,2.922,7.275,2.895,2.572-.026,2.579-4.026,0-4-1.093.011-2.457-.058-3.464-.548-.021-.01-.365-.221-.162-.048.172.148-.282-.463-.267-.438-.229-.391-.413-.784-.546-1.218-.583-1.896-.348-3.977-.218-5.928.184-2.758.384-5.499.164-8.261-.217-2.723-.645-5.446-1.29-8.1-2.293-9.434-8.703-17.826-17.128-22.635C45.97-.137,34.442-1.582,24.115,1.87,15.87,4.626,8.234,10.354,4.059,18.054,1.382,22.989-.022,28.829,0,34.442c.028,6.938,2.605,13.282,6.842,18.704.666.852,2.13.698,2.828,0,.841-.841.667-1.974,0-2.828h0Z"/><path class="e" d="M21.243,57.761c.626,1.733,3.293,4.816,6.057,3.214,3.368-2.508.65-6.609-1.851-7.638-2.048-.842-5.254.538-4.206,4.425Z"/><path class="g" d="M6.226,52.224c1.772,2.85,4.068,5.197,6.161,7.793,1.698,2.105,3.687,4.624,4.022,7.402.171,1.42-.523,2.638-.653,4.026-.137,1.456.289,3.072,1.328,4.142,1.93,1.987,4.503.897,6.767,1.882,1.13.492,2.012,1.633,2.931,2.427,1.38,1.192,2.825,2.337,4.351,3.336,2.569,1.681,5.601,2.869,8.719,2.508,2.945-.341,5.92-1.916,8.264-3.681,1.152-.867,2.197-1.805,3.092-2.94-.009.012.657-.801.626-.84.212.265-.598.168-.643.046.027.073.694.282.859.345,2.871,1.087,5.768,2.109,8.652,3.158,2.423.881,3.467-2.983,1.063-3.857-2.587-.941-5.174-1.881-7.758-2.829-.331-.122-.844-.439-1.204-.444l-.043-.017c.595.252.581.246-.042-.017-.298-.104-.571-.168-.887-.196-.943-.081-1.849.166-2.577.786-.898.764-1.5,1.862-2.38,2.677-1.136,1.052-2.471,1.875-3.849,2.572-2.548,1.289-4.91,1.741-7.619.558-2.807-1.225-5.306-3.433-7.493-5.534-1.002-.962-2.067-1.632-3.406-2.064-1.276-.412-2.528-.287-3.826-.439-.774-.091-1.042-.429-.944-1.31.075-.677.4-1.312.53-1.983.147-.76.202-1.539.141-2.31-.555-7.052-7.255-11.627-10.729-17.213-1.357-2.182-4.818-.176-3.454,2.019h0Z"/><path class="e" d="M37.166,68.509c.943-.313,1.941-.462,2.934-.438"/><path class="g" d="M54.341,48.743c5.475.357,11.397.133,16.633-1.643,1.023-.347,1.695-1.375,1.397-2.46-.274-.997-1.433-1.745-2.46-1.397-4.933,1.673-10.411,1.837-15.57,1.501-1.079-.07-2,.97-2,2,0,1.141.918,1.929,2,2h0Z"/><path class="g" d="M41.034,41.275c-1.948-.615-3.897-1.229-5.846-1.84-1.248-.391-3.128-.667-3.474-2.163-.631-2.732,2.297-5.498,4.287-6.831,2.891-1.937,6.177-3.188,9.063-5.161,2.854-1.951,5.31-4.243,7.397-6.995,2.245-2.96,4.265-6.367,5.155-10.004.612-2.5-3.244-3.567-3.857-1.063-.811,3.313-2.708,6.418-4.784,9.09-2.299,2.959-5.246,5.24-8.469,7.115-3.194,1.859-6.667,3.167-9.332,5.822-2.377,2.368-4.381,6.208-3.164,9.607.78,2.18,2.662,3.32,4.762,4.016,2.387.79,4.802,1.507,7.2,2.264,2.461.776,3.514-3.084,1.063-3.857h0Z"/><path class="g" d="M23.984,49.676l1.738-.477c.26-.062.487-.181.68-.358.218-.141.389-.328.515-.561.146-.23.225-.477.237-.744.06-.266.048-.532-.036-.798l-.202-.478c-.178-.301-.417-.54-.718-.718l-.478-.202c-.354-.095-.709-.095-1.063,0l-1.738.477c-.26.062-.487.181-.68.358-.218.141-.389.328-.515.561-.146.23-.225.477-.237.744-.06.266-.048.532.036.798l.202.478c.178.301.417.54.718.718l.478.202c.354.095.709.095,1.063,0h0Z"/><path class="e" d="M25.17,59.11c.354-.452.678-.928.969-1.423"/><path class="g" d="M27.384,59.27c.003-.028.006-.056.009-.083l-.086.638c.027-.194.079-.382.155-.562l-.242.573c.078-.18.178-.347.297-.503l-.375.486c.121-.154.259-.293.413-.414l-.486.375c.155-.119.323-.218.503-.295l-.573.242c.095-.039.192-.071.291-.097.312-.074.584-.217.816-.43.261-.169.467-.394.618-.673.175-.275.27-.573.285-.892.071-.319.057-.638-.043-.957l-.242-.573c-.213-.361-.5-.648-.861-.861l-.573-.242c-.425-.114-.851-.114-1.276,0-.308.079-.601.222-.89.349-.11.049-.217.105-.319.171-.265.172-.515.369-.752.577-.087.077-.169.16-.244.249-.275.327-.559.67-.734,1.065-.122.274-.272.586-.35.889-.081.314-.112.648-.142.967-.012.33.056.639.207.925.097.298.262.555.496.772.217.234.475.399.772.496.286.15.594.219.925.207l.638-.086c.407-.114.76-.32,1.059-.617l.375-.486c.217-.374.326-.778.328-1.211h0Z"/><path class="f" d="M67.062,129.843c-1.852,5.168-5.003,10.053-9.899,14.562-1.045.962-1.34,2.501-.707,3.773,3.236,6.5,6.604,12.944,10.102,19.315,10.169,1.517,20.966-1.517,28.991-8.025,5.9-4.768,10.264-11.279,12.742-18.456,5.228,3.944,13.534,10.201,13.534,10.201,4.464.301,9.492.552,14.621.777,13.292.577,27.336.903,34.22,1.229.213.013.439.013.652-.025.614-.038,1.216-.213,1.655-.64.552-.514.727-1.342.853-2.107,1.556-9.635-.624-20.322-4.607-30.511l.406-.171c2.072-6.205,3.755-11.248,3.755-11.248,2.722-8.155-1.21-17.329-7.449-23.232s-14.416-9.23-22.37-12.479c-6.351-2.588-12.703-5.209-19.032-7.864l-5.819-3.521s-.216-.131-.432-.261l-.1-.049s-10.902-5.336-16.531-7.045c-2.332-1.003-13.809-2.902-18.825-2.738-4.425.144-8.855,1.597-11.388,3.578-4.602,3.599-8.495,7.219-10.021,13.767-.803,5.066-.258,9.634.935,14.549,5.175,16.386,9.755,32.552,4.713,46.62Z"/><path class="i" d="M100.703,288.068c-1.362-.323-2.692-.8-3.955-1.426-.94-.466-1.84-1.072-2.635-1.8-1.323-1.212-2.355-2.762-2.791-4.567-1.075-4.449,1.764-9.07,5.387-11.455,3.623-2.385,7.919-3.158,11.988-4.444,4.069-1.285,8.258-3.366,10.398-7.334,0,0,.291-.54.77-1.427,6.657.207,14.082.324,20.502.267,1.966,2.275,4.439,6.561,4.439,6.561,3.73,3.669,3.969,9.196,4.024,14.744.023,2.29-.922,4.621-1.818,6.231-1.668,2.998-4.993,4.991-9.249,4.942-11.046-.129-21.954.298-32.987.204-1.365-.012-2.735-.179-4.074-.496Z"/><path class="g" d="M117.369,256.032c-4.215,7.506-14.694,6.711-21.305,10.827-3.294,2.051-6.074,5.478-6.76,9.37-.747,4.237.964,8.214,4.352,10.814,3.608,2.77,8.174,3.511,12.603,3.53,5.085.023,10.169-.056,15.253-.128s10.176-.14,15.264-.096c3.88.034,7.725-.836,10.435-3.824,1.485-1.637,2.5-3.727,3.108-5.841.666-2.316.544-4.748.414-7.128-.25-4.573-1.198-9.151-4.512-12.527-1.806-1.84-4.634.989-2.828,2.828,2.39,2.435,3.079,5.805,3.303,9.103.244,3.589.317,7.221-1.922,10.265-1.986,2.7-5.124,3.148-8.246,3.123-4.514-.036-9.029.014-13.543.077s-9.014.138-13.522.151c-4.135.012-8.269.191-12.031-1.829-2.851-1.531-4.922-4.481-4.2-7.818.74-3.417,3.31-5.933,6.349-7.451,3.761-1.878,8.027-2.422,11.913-3.98,3.806-1.526,7.277-3.795,9.328-7.447,1.262-2.247-2.192-4.266-3.454-2.019h0Z"/><path class="d" d="M144.999,242.964c-3.193-11.998-7.272-25.665-8.606-33.61-.413-2.46-.256-5.471,1.828-6.839,6.966-4.563,13.933-9.139,20.899-13.703,3.208-2.109,6.481-4.269,8.909-7.248,1.227-1.508,2.186-3.042,2.953-4.614,1.815-3.796,2.378-7.785,2.25-11.977-.102-3.809-.78-7.797-1.611-11.964-.217.038-.447.038-.665.026-7.018-.332-21.334-.665-34.883-1.253-5.228-.23-10.354-.486-14.904-.793,0,0-1.424-.096-2.849-.192-1.423,1.123-2.846,2.245-2.846,2.245-1.601,1.263-14.786,15.737-20.203,26.295-1.652,3.22-2.029,7.829-2.024,12.836.003,2.628,2.275,13.532,3.657,17.808,3.862,13.528,8.058,29.414,12.583,42.734.241.71.509,1.457,1.089,1.931.52.424,1.199.653,1.869.684,8.687.401,20.701.67,29.997.526,2.962-.046,5.096-2.832,4.396-5.711-.554-2.278-1.178-4.694-1.84-7.181Z"/><path class="g" d="M114.06,151.628c-1.506,1.219-2.782,2.821-4.064,4.261-2.452,2.755-4.815,5.59-7.084,8.497-2.597,3.327-5.108,6.734-7.321,10.332-1.024,1.665-2.031,3.369-2.746,5.193-.852,2.175-1.19,4.535-1.396,6.849-.327,3.67-.15,7.075.494,10.682.652,3.657,1.436,7.305,2.4,10.893,2.554,9.512,5.303,18.995,8.072,28.448,1.457,4.974,2.965,9.935,4.603,14.853.82,2.462,1.592,5.009,4.495,5.581,2.193.432,4.629.273,6.859.349,4.957.168,9.917.275,14.878.314,2.416.019,4.831.023,7.247,0,2.372-.022,4.55-.113,6.389-1.811,3.606-3.328,1.435-8.357.387-12.335-1.208-4.59-2.483-9.163-3.742-13.739-1.208-4.394-2.413-8.79-3.498-13.216-.449-1.83-.877-3.666-1.253-5.513-.343-1.685-.795-3.488-.48-5.21.403-2.203,2.916-3.115,4.619-4.231,2.459-1.612,4.918-3.225,7.376-4.838,4.58-3.004,9.31-5.862,13.727-9.103,4.34-3.185,7.782-7.147,9.669-12.248,1.809-4.891,1.807-10.255,1.164-15.366-.34-2.702-.821-5.379-1.355-8.049-.504-2.522-4.361-1.455-3.857,1.063,1.001,5.004,1.909,10.108,1.518,15.232-.373,4.883-2.378,9.554-5.825,13.057-3.482,3.539-8.018,6.031-12.141,8.734-4.645,3.045-9.288,6.093-13.933,9.137-1.991,1.305-3.789,2.373-4.597,4.734-.671,1.963-.48,4.09-.133,6.093.615,3.549,1.495,7.054,2.392,10.54,2.242,8.712,4.788,17.343,7.032,26.055.251.973.497,1.946.738,2.921.208.842.436,1.629.084,2.472-.752,1.801-2.661,1.603-4.281,1.618-4.786.044-9.573-.005-14.358-.104-2.318-.048-4.637-.109-6.954-.184-2.159-.07-4.415.019-6.558-.254-1.027-.131-1.111-.864-1.412-1.757-.389-1.153-.77-2.309-1.144-3.467-.772-2.388-1.518-4.784-2.246-7.186-2.938-9.698-5.59-19.478-8.349-29.228-.94-3.322-1.872-6.623-2.609-9.999-.644-2.948-1.407-6.229-1.593-8.975-.138-2.038.006-4.151.199-6.181s.547-4.196,1.453-6.048c1.65-3.371,3.826-6.521,6.02-9.555,3.855-5.331,8.073-10.495,12.648-15.229.417-.431.832-.881,1.299-1.259.84-.68.707-2.121,0-2.828-.831-.831-1.986-.682-2.828,0h0Z"/><path class="g" d="M121.825,153.212c13.058.872,26.146,1.223,39.224,1.65,2.448.08,4.897.16,7.344.258,2.433.097,5.415.416,6.745-2.162.629-1.218.735-2.648.896-3.988.165-1.373.259-2.753.288-4.136.06-2.898-.182-5.786-.591-8.653-1.65-11.552-6.456-22.621-12.265-32.659s-12.953-19.275-21.376-27.252c-8.634-8.175-18.533-15.205-29.381-20.124-4.165-1.889-8.547-3.696-13.018-4.721-4.324-.992-8.787-1.628-13.208-1.972-5.178-.402-10.792.266-15.243,3.148-4.114,2.664-8.103,6.588-10.186,11.062-2.736,5.874-2.31,12.526-.951,18.716.617,2.812,1.635,5.549,2.453,8.309.824,2.781,1.603,5.575,2.289,8.394,2.39,9.823,3.78,20.396.32,30.145-1.792,5.05-4.941,9.495-8.796,13.182-.981.938-1.807,1.862-2.116,3.234-.388,1.726.264,3.12,1.018,4.626,1.554,3.104,3.137,6.193,4.749,9.267,1.576,3.004,3.181,5.991,4.812,8.965,1.238,2.258,4.694.242,3.454-2.019-3.184-5.805-6.264-11.666-9.236-17.583-.417-.83-1.295-1.885-.717-2.829.311-.509,1.041-.996,1.464-1.418.58-.577,1.143-1.169,1.688-1.779,1.727-1.932,3.295-4.029,4.609-6.264,5.158-8.768,5.852-18.983,4.496-28.864-.718-5.227-1.964-10.366-3.4-15.439-1.546-5.463-3.669-10.818-4.073-16.528-.211-2.981-.116-6.017.889-8.854.769-2.17,2.024-4.158,3.561-5.864s3.295-3.268,5.136-4.625c2.08-1.532,4.632-2.34,7.146-2.801,4.204-.77,8.681-.088,12.86.552,3.658.56,7.154,1.347,10.657,2.528,10.526,3.549,20.33,9.355,28.954,16.314,8.685,7.008,16.348,15.247,22.633,24.471,6.181,9.07,11.422,18.974,14.612,29.506,1.565,5.167,2.638,10.506,2.754,15.917.027,1.268.003,2.537-.078,3.803-.08,1.237-.055,2.789-.499,3.961-.308.813-1.18.525-1.964.491-1.02-.045-2.041-.084-3.062-.122-11.891-.439-23.787-.731-35.672-1.318-3.075-.152-6.148-.321-9.22-.527-2.57-.172-2.559,3.829,0,4h0Z"/><path class="g" d="M66.026,169.421c9.308,1.333,18.892-.626,26.884-5.623,7.667-4.793,13.366-12.144,16.665-20.511,1.86-4.718,2.857-9.753,3.047-14.817.097-2.574-3.904-2.57-4,0-.617,16.459-11.324,31.742-27.492,36.144-4.547,1.238-9.365,1.619-14.04.95-1.068-.153-2.149.263-2.46,1.397-.258.939.321,2.306,1.397,2.46h0Z"/><path class="h" d="M195.57,105.376c9.882-6.777,19.108-14.506,28.675-21.711,2.203-1.659,4.417-3.309,6.695-4.864l-3.526-1.434c2.093,5.104,3.711,10.388,5.698,15.533.498,1.289,2.159,2.442,3.526,1.434,10.345-7.633,21.008-14.826,31.345-22.469,1.041-.769,1.565-2.079.861-3.284-.6-1.026-2.235-1.636-3.284-.861-10.337,7.644-21,14.837-31.345,22.469l3.526,1.434c-1.987-5.144-3.605-10.429-5.698-15.533-.541-1.318-2.11-2.401-3.526-1.434-9.793,6.683-18.907,14.366-28.376,21.491-2.303,1.733-4.618,3.453-6.995,5.083-2.532,1.736-.134,5.898,2.423,4.145h0Z"/><path class="h" d="M213.615,126.066c11.436-1.28,22.818-3.007,34.257-4.262l-2.4-2.4c-.549,5.488-1.602,10.915-2.263,16.389-.208,1.721,1.692,2.514,3.038,2.314,11.804-1.753,23.59-3.62,35.392-5.386,1.283-.192,1.99-1.81,1.676-2.952-.377-1.374-1.665-1.869-2.952-1.676-11.802,1.765-23.588,3.632-35.392,5.386l3.038,2.314c.639-5.289,1.717-10.924,2.263-16.389.12-1.197-1.201-2.532-2.4-2.4-11.439,1.254-22.821,2.981-34.257,4.262-1.288.144-2.4,1-2.4,2.4,0,1.185,1.104,2.545,2.4,2.4h0Z"/><path class="g" d="M123.998,66.871c4.824,2.023,9.656,4.025,14.495,6.01,4.361,1.788,8.765,3.493,13.034,5.494,7.797,3.654,15.342,8.592,18.972,16.721,1.815,4.065,2.321,8.623.951,12.889-.789,2.457,3.072,3.509,3.857,1.063,2.827-8.805-1.119-18.352-7.411-24.641-6.911-6.907-16.295-10.465-25.166-14.085-5.901-2.409-11.792-4.844-17.671-7.309-.997-.418-2.2.45-2.46,1.397-.317,1.154.396,2.041,1.397,2.46h0Z"/><path class="d" d="M162.583,109.971c2.044-4.155,8.081-5.018,12.086-2.694,4.006,2.324,6.233,6.839,7.424,11.314,1.446,5.428,1.593,11.573-1.439,16.301-3.032,4.729-9.996,7.117-14.556,3.838-7.259-5.221-2.746-18.109-8.986-24.513"/><path class="g" d="M164.309,110.98c1.074-2.053,3.224-2.966,5.474-2.97,2.664-.005,4.866,1.313,6.592,3.275,1.929,2.193,3.047,5.049,3.79,7.836.783,2.938,1.178,6.045.784,9.078-.69,5.307-4.599,10.288-10.365,10.037-5.018-.218-6.511-5.398-7.126-9.509-.83-5.547-.837-11.591-4.932-15.926-1.772-1.875-4.597.957-2.828,2.828,3.783,4.003,3.191,10.637,4.16,15.683.529,2.755,1.509,5.459,3.416,7.568,2.084,2.305,5.179,3.52,8.272,3.348,7.179-.4,12.286-6.248,13.281-13.103,1.009-6.957-.916-15.317-5.623-20.669-2.43-2.763-5.864-4.509-9.58-4.444-3.546.062-7.079,1.719-8.768,4.948-1.192,2.279,2.259,4.303,3.454,2.019h0Z"/><path class="g" d="M166.652,117.986c.14-.025.28-.049.42-.072.346-.059.138-.08-.056.005.238-.104.665-.05.923-.041.092.003.184.01.276.018-.3-.045-.338-.048-.115-.009.137.038.277.075.416.111.206.076.183.065-.069-.033.091.045.179.095.265.149.181.124.173.114-.022-.029.064.054.124.112.182.173.062.061.121.125.176.191-.126-.166-.121-.15.016.048.072.115.138.233.198.355-.057-.139-.063-.144-.018-.015.037.12.086.704.081.304.006.122.006.243-.001.365.038-.204.043-.233.015-.088-.05.199-.09.396-.166.588.167-.424-.118.117-.147.195-.082.12-.06.092.066-.082-.07.079-.144.154-.222.225.303-.321-.07.029-.221.104-1.744.858-.949,3.887,1.009,3.727.194-.016.385-.022.58-.014-.406-.016.091.033.193.057.468.109-.227-.165.187.07.157.089.307.178.455.282-.327-.227.101.108.14.145.127.124.244.256.359.391-.267-.313.063.109.094.157.09.143.164.292.248.438.203.35-.045-.311.035.099.03.152.079.3.105.454-.059-.339-.047-.128-.028.093.034.391.121-.314-.002.091-.033.11-.192.548.004.118-.053.117-.148.228-.19.346-.079.119-.055.091.072-.085-.054.062-.111.121-.172.175-.104.094-.078.078.077-.049-.097.066-.199.126-.304.18-.946.521-1.253,1.821-.718,2.736.558.954,1.787,1.24,2.736.718,2.375-1.307,3.039-4.229,1.97-6.608-1.001-2.229-3.324-3.999-5.843-3.793l1.009,3.727c2.948-1.45,3.348-5.511,1.479-7.939-1.643-2.135-4.109-2.269-6.557-1.835-1.033.183-1.708,1.499-1.397,2.46.359,1.11,1.354,1.593,2.46,1.397h0Z"/></g></svg>