<svg id="b" xmlns="http://www.w3.org/2000/svg" width="261.867" height="309.769" viewBox="0 0 261.867 309.769" style="color: initial !important;"><defs><style>.d{fill:#ffffff;}.e{fill:none;}.f{fill:#a98a75;}.g{fill:#211715;}.h{fill:#f2635f;}.i{fill:#cfcfcf;}</style></defs><g id="c"><path class="g" d="M253.752,262.178h-81.6c-2.574,0-2.578,4,0,4h81.6c2.574,0,2.578-4,0-4h0Z"/><path class="i" d="M206.238,283.971c3.069,1.791,6.138,3.583,9.158,5.347,1.724-.187,3.31-.905,4.466-2.26,3.56-4.17,5.58-11.43,6.77-16.68,1.36-5.94,2.18-12.21,1.03-17.87-1.19-5.89-4.63-8.56-10.34-9.04-.12-.01-.24-.02-.35-.03-.06.83-.46,1.86-1.36,3.18-3.53,5.2-9.64,12.62-13.48,17.09l.18,2.31c.505,5.623,1.853,13.167,3.926,17.953Z"/><path class="g" d="M214.136,246.473c1.83-2.13,6.146-.769,8.171.563,2.47,1.624,3.317,4.733,3.68,7.5.577,4.403.039,8.919-.837,13.244-.753,3.719-1.686,7.436-3.011,10.996-.687,1.846-1.515,3.647-2.571,5.313-.994,1.568-2.192,2.989-4.147,3.251-1.07.144-2,.816-2,2,0,.969.922,2.145,2,2,2.394-.321,4.5-1.229,6.07-3.125,1.349-1.629,2.407-3.465,3.276-5.389,1.851-4.097,3.044-8.448,3.998-12.831,1.157-5.321,1.875-10.829,1.118-16.257-.547-3.926-1.986-7.654-5.332-10.002-1.667-1.17-3.697-1.796-5.695-2.085-2.741-.396-5.612-.26-7.549,1.994-1.67,1.943,1.147,4.785,2.828,2.828h0Z"/><path class="g" d="M200.312,266.018c.583,6.408,1.657,13,4.193,18.949.424.994,1.888,1.214,2.736.718,1.028-.601,1.143-1.739.718-2.736-1.05-2.463-1.781-5.447-2.347-8.185-.598-2.889-1.033-5.808-1.3-8.746-.098-1.076-.849-2-2-2-1.006,0-2.098.918-2,2h0Z"/><path class="g" d="M58.107,262.491h107.587l-1.009-.273c9.873,5.592,19.67,11.322,29.476,17.03,12.238,7.124,24.463,14.268,36.682,21.424,5.007,2.933,10.014,5.867,15.017,8.807,2.224,1.307,4.239-2.149,2.019-3.454-7.909-4.648-15.826-9.283-23.745-13.915-10.228-5.983-20.46-11.957-30.703-17.915-8.193-4.766-16.386-9.535-24.619-14.232-.656-.374-1.304-.778-1.975-1.123-.908-.467-1.892-.349-2.887-.349H58.107c-2.574,0-2.578,4,0,4h0Z"/><path class="h" d="M205.6,200.815c5.841,2.427,12.176,3.574,18.471,2.654,5.722-.837,10.973-3.666,14.915-7.881l-3.769-2.908c-4.259,6.073-3.87,14.697.747,20.447,4.382,5.457,12.437,7.603,18.978,5.193l-2.335-4.011c-3.715,4.627-5.691,10.379-4.649,16.314s5.413,10.244,10.87,12.355c1.209.468,2.633-.516,2.952-1.676.373-1.356-.463-2.483-1.676-2.952-4.06-1.571-6.803-4.846-7.517-9.002-.663-3.861.792-8.377,3.415-11.644.678-.844.956-1.916.375-2.908-.504-.862-1.725-1.466-2.71-1.103-4.908,1.809-10.742.439-14.086-3.685-3.438-4.239-3.278-10.54-.218-14.903,1.571-2.239-1.925-4.881-3.769-2.908-3.401,3.638-7.835,6.006-12.796,6.647-5.442.703-10.911-.573-15.919-2.654-1.198-.498-2.639.538-2.952,1.676-.379,1.381.474,2.453,1.676,2.952h0Z"/><path class="i" d="M145.372,245.888c5.37,2,7.95,5.51,7.51,11.5-.42,5.76-2.9,11.58-5.81,16.93-2.57,4.73-6.47,11.18-11.03,14.23-2.73,1.83-6.31,1.24-9.1-.89-1.29-.98-2.56-2.6-2.91-4.18-1.13-5.07.02-13.47,1.66-19.11l.06-.39c2.45-1.25,4.25-4.12,5.64-6.11,2.5-3.55,5.04-6.9,6.91-10.48.08-.16.16-.31.22-.46l1.99-.75c.73-.54,1.61-.8,2.47-.79.87.02,1.58.2,2.39.5Z"/><path class="f" d="M130.362,158.652c14.443-1.12,21.791-1.782,31.119-6.158,2.138-4.605.13-9.22-1.819-13.446-4.41-9.562-8.819-19.124-13.221-28.69,16.429,1.52,30.695,10.327,41.258,22.105,1.009,1.031,2.704,1.198,4.099.747,1.481-.478,2.704-1.515,3.886-2.527,3.479-2.981,7.116-6.197,8.565-10.523.526-1.571.151-3.32-.895-4.605-7.664-9.42-16.745-17.037-26.504-24.16-5.681-4.147-15.763-9.485-22.381-11.867-17.208-6.195-26.673-7.332-43.463-7.675l-4.93-.034h-3.092c-1.742,2.562-3.738,4.982-6.426,7.385,0,0-1.979,1.401-3.167,2.093-1.067.622-3.083,1.493-3.083,1.493-2.622,1.307-6.347,2.801-9.154,3.421-1.084.24-2.198.427-3.354.564-4.878.574-9.225-.029-13.317-1.86-12.601,10.314-20.351,25.725-27.575,40.516-4.451,9.112-8.901,18.225-13.352,27.337,6.602,2.896,13.204,5.792,19.806,8.688,1.7.746,3.859,1.432,5.251.204,6.427-13.289,13.619-26.208,21.529-38.671,1.116-1.759,3.654-1.89,4.949-.258,8.674,10.933,16.875,22.242,24.581,33.879,6.232.799,14.608,2.025,22.068,2.282,2.391.082,4.687.065,6.789-.098.624-.048,1.235-.096,1.835-.142Z"/><path class="d" d="M141.711,33.922c1.472-6.823,2.995-12.665,5.419-18.251,1.943-4.475,5.317-9.513,9.412-11.496,3.095-1.499,7.122-1.006,9.603,1.376,3.36,3.227,2.316,7.834-.22,11.303-5.474,7.488-15.634,12.64-23.379,17.403"/><path class="d" d="M168.012,32.965c2.781-5.341,5.808-9.668,9.211-12.355,3.019-2.383,6.32-4.465,10.353-4.622,2.709-.105,5.857,1.449,6.921,3.943,1.441,3.378-.739,6.398-3.65,8.131-6.283,3.741-15.244,4.34-22.333,5.404"/><path class="d" d="M229.486,142.209c.43,1.54.78,3.13.73,4.73-.05,1.61-.53,3.24-1.6,4.44-.21.25-.46.48-.77.59-.65.24-1.88.31-3.03-.07,0,0-.25-.02-.6-.03.81,1.76.9,3.89-.59,5.14-1.57,1.32-3.74.69-4.55-.31-3.23-3.94-5.26-6.72-8.46-10.68l-.79.4c.84,1.85,1.27,3.89,1.26,5.92,0,1.04-.16,2.18-.9,2.92-.77.78-2.03.93-3.08.6s-1.92-1.07-2.68-1.87c-1.85-1.95-3.17-4.34-4.47-6.69-1.36-2.45-2.71-4.9-4.06-7.35l-2.94-7.24c.99-.54,1.87-1.29,2.73-2.03,3.44-2.94,7.04-6.12,8.51-10.38l3.25,1.13c8.24,3.36,14.78,6.37,19.02,13.09,1.26,2.45,2.26,5.03,3.02,7.69Z"/><path class="d" d="M42.656,161.149l-.83,5.05c-.65,3.93.36,8.11-1.01,11.85-1.38,3.8-4.68,6.18-8.01,8.48-.94.64-2.04,1.16-3.32,1.27-1.13.1-2.46-.4-3.32-1.13-1.08-.92-.86-3.11-.86-3.11l.03-.3c-2.59,2.47-5.35,5.08-7.47,6.96-3.23,2.88-4.42,2.01-5.27-.67-3.05,1.66-6.97.2-8.31-.81-2.46-1.84,1.83-6.6-.64-8.28-7.6-5.2,13.45-18.31,15.85-22.68l4.44-4.84c6.24,2.73,12.47,5.47,18.72,8.21Z"/><path class="d" d="M149.985,156.377c4.116-.876,7.864-2.135,12.036-4.139,4.205,14.733,7.623,26.407,11.485,41.44.877,3.412,1.677,6.739,3.171,10.177,1.173,2.699,2.338,6.06,4.512,8.296,4.63,4.763,23.353,19.431,34.851,29.128,1.109.936,1.539,2.46-.425,5.343-4.083,5.994-11.594,14.97-15.081,18.931-.894,1.016-2.358,1.121-3.519.424-17.614-10.58-33.897-19.385-45.88-35.422-2.87-3.841-5.351-8.177-7.528-12.24-4.169-7.782-7.302-14.956-10.522-22.364-3.664,5.439-8.5,10.664-11.872,16.53-.862,1.5-1.629,3.042-2.256,4.64-1.243,3.168-.601,4.83,1.498,7.453,4.301,5.376,10.122,9.823,15.043,14.919,2.235,2.314,4.676,4.325,2.805,7.899-1.871,3.574-4.413,6.93-6.91,10.481-1.475,2.097-3.391,5.191-6.056,6.303s-4.926-.419-7.302-1.76c-11.281-6.367-22.228-12.549-30.503-22.752-5.899-7.274-8.569-15.646-8.37-24.885.199-9.239,4.356-17.908,8.269-25.789,5.502-11.08,11.705-20.19,16.655-31.797,7.735,1.006,17.234,2.16,24.441,1.602,9.287-.719,15.729-1.198,21.457-2.417Z"/><path class="g" d="M161.745,158.549c2.517,8.791,5.033,17.583,7.403,26.416,1.259,4.692,2.362,9.437,3.717,14.102.629,2.164,1.427,4.242,2.305,6.315.765,1.807,1.48,3.648,2.48,5.343,1.334,2.261,3.238,3.971,5.183,5.686,2.191,1.932,4.435,3.804,6.683,5.668,5.721,4.741,11.508,9.4,17.256,14.108,1.387,1.136,2.772,2.274,4.153,3.418,1.274,1.055,2.679,2.058,3.852,3.226.197.196.23.139.198.514-.07.81-.65,1.607-1.09,2.268-.972,1.461-2.03,2.87-3.087,4.269-2.271,3.006-4.645,5.934-7.054,8.83-1.031,1.24-2.071,2.472-3.123,3.695-.424.493-.849.985-1.278,1.473-.522.595-.78.637-1.507.258-3.781-1.971-7.405-4.402-11.053-6.611-3.548-2.149-7.072-4.342-10.514-6.66-6.776-4.563-13.198-9.66-18.727-15.697-6.111-6.673-10.579-14.453-14.617-22.504-4.09-8.154-7.569-16.587-11.267-24.921-.955-2.153-1.927-4.297-2.921-6.433-.456-.979-1.866-1.226-2.736-.718-1.004.587-1.175,1.753-.718,2.736,4.036,8.674,7.622,17.551,11.692,26.209,4.035,8.585,8.438,17.146,14.401,24.57,10.858,13.518,25.897,22.428,40.585,31.178,1.785,1.064,3.775,2.725,5.862,3.053,2.073.326,3.538-.7,4.83-2.187,2.292-2.637,4.53-5.322,6.726-8.038,2.492-3.083,4.951-6.204,7.236-9.445,2.032-2.882,3.648-6.424.47-9.114-10.761-9.107-22.152-17.53-32.589-27.013-.737-.669-1.487-1.342-2.154-2.082-1.292-1.435-2.109-3.302-2.862-5.058-1.85-4.315-3.127-8.68-4.298-13.218-2.408-9.33-4.991-18.613-7.634-27.879-.649-2.274-1.3-4.547-1.95-6.821-.707-2.47-4.568-1.42-3.857,1.063h0Z"/><path class="g" d="M194.166,140.962c1.253,2.267,2.505,4.533,3.758,6.8,1.173,2.123,2.342,4.238,3.834,6.158,1.469,1.89,3.293,3.734,5.779,4.048,2.63.332,4.964-1.373,5.4-4.001.482-2.906-.211-5.896-1.382-8.553-.436-.989-1.88-1.219-2.736-.718-1.019.596-1.155,1.744-.718,2.736s.735,2.094.89,3.168c.141.975.282,2.304-.115,3.124.085-.175-.236.283-.058.105-.152.153-.168.118-.37.17-.115.029-.492.039-.81-.071-.883-.306-1.631-1.145-2.263-1.869-1.537-1.762-2.646-3.873-3.772-5.909-1.328-2.403-2.656-4.805-3.983-7.208-1.245-2.254-4.701-.238-3.454,2.019h0Z"/><path class="g" d="M145.993,112.318c12.923,1.137,24.943,7.138,34.509,15.758,1.16,1.045,2.288,2.127,3.381,3.242,1.136,1.158,2.201,2.749,3.674,3.486,3.365,1.685,6.651-.269,9.215-2.432,2.615-2.206,5.188-4.503,7.176-7.309,1.879-2.652,3.342-5.982,1.933-9.164-.677-1.53-1.953-2.797-3.037-4.051-1.236-1.43-2.512-2.827-3.823-4.189-2.504-2.604-5.134-5.084-7.854-7.461-5.385-4.706-11.111-9.012-16.945-13.142-4.348-3.079-9.129-5.276-14.026-7.347-5.597-2.367-11.34-4.364-17.205-5.962-12.085-3.291-24.46-3.844-36.918-3.928-2.574-.018-2.577,3.982,0,4,10.079.069,20.203.285,30.099,2.386,10.887,2.312,21.871,6.152,31.665,11.49,2.3,1.253,4.395,2.822,6.517,4.35,2.817,2.028,5.601,4.103,8.317,6.264,5.317,4.23,10.4,8.769,15.015,13.762,1.089,1.178,2.151,2.38,3.184,3.607.92,1.093,1.859,2.092,1.545,3.614-.61,2.961-3.29,5.58-5.401,7.548-1.1,1.025-2.233,2.027-3.397,2.979-1.018.832-2.425,1.924-3.842,1.571-1.098-.274-2.015-1.822-2.792-2.622-1.133-1.167-2.303-2.298-3.509-3.39-10.429-9.447-23.38-15.82-37.483-17.061-1.077-.095-2,.987-2,2,0,1.161.919,1.905,2,2h0Z"/><path class="g" d="M145.879,113.916c2.806,6.085,5.612,12.169,8.418,18.254,1.371,2.974,2.768,5.938,4.111,8.924,1.259,2.8,2.287,5.695,1.87,8.803-.144,1.072,1.022,2,2,2,1.2,0,1.856-.924,2-2,.432-3.224-.515-6.351-1.752-9.294-1.355-3.224-2.895-6.376-4.359-9.551-2.945-6.385-5.889-12.77-8.834-19.155-.452-.981-1.869-1.225-2.736-.718-1.007.589-1.172,1.752-.718,2.736h0Z"/><path class="g" d="M72.81,123.043c7.862,9.876,15.332,20.058,22.411,30.509,1.436,2.12,4.903.12,3.454-2.019-7.271-10.734-14.961-21.176-23.036-31.319-.673-.846-2.125-.703-2.828,0-.835.835-.675,1.981,0,2.828h0Z"/><path class="g" d="M100.984,158.788c7.741,1.006,15.53,2.146,23.353,2.152,3.93.003,7.861-.416,11.773-.749,3.497-.298,6.992-.642,10.462-1.172,3.301-.504,6.557-1.23,9.727-2.287,2.43-.81,1.388-4.675-1.063-3.857-5.802,1.935-11.852,2.672-17.919,3.212-3.918.348-7.866.776-11.8.845-3.883.068-7.77-.209-11.632-.586-4.312-.421-8.606-.999-12.901-1.557-1.073-.139-2,1.019-2,2,0,1.197.924,1.86,2,2h0Z"/><path class="g" d="M67.544,80.157c-17.964,12.202-26.882,33.041-36.085,51.883-3.21,6.573-6.421,13.146-9.631,19.719-.431.883-.329,2.277.718,2.736,4.726,2.073,9.453,4.147,14.179,6.22,2.316,1.016,4.614,2.153,6.988,3.028,1.936.713,4.164.921,5.909-.355.999-.731,1.428-2.182,1.962-3.267.557-1.131,1.12-2.259,1.689-3.385,1.101-2.181,2.224-4.351,3.366-6.51,2.322-4.388,4.729-8.732,7.219-13.027,2.846-4.909,5.803-9.753,8.86-14.533,1.391-2.175-2.07-4.183-3.454-2.019-8.239,12.883-15.712,26.243-22.379,40.005l.718-.718c-1.317,1.008-3.284-.227-4.582-.797-2.026-.889-4.051-1.777-6.077-2.666-4.126-1.81-8.252-3.62-12.379-5.43l.718,2.736c5.357-10.967,10.635-21.977,16.091-32.895,4.521-9.049,9.377-18.116,15.885-25.916,3.59-4.303,7.663-8.202,12.305-11.355,2.117-1.438.118-4.906-2.019-3.454h0Z"/><path class="g" d="M73.438,84.13c-.617,2.906-.559,6.642,2.606,8.026,1.67.731,3.499.378,5.22.024,1.562-.321,3.1-.761,4.598-1.308,5.973-2.181,11.388-5.9,15.517-10.744,2.346-2.752,4.298-5.802,5.731-9.125.427-.991.294-2.145-.718-2.736-.844-.494-2.306-.28-2.736.718-2.624,6.087-7.002,11.303-12.591,14.882-2.758,1.766-5.735,3.124-8.896,3.986-.77.21-1.548.391-2.331.544-.602.117-1.727.467-2.293.06-.842-.607-.425-2.442-.251-3.262.533-2.511-3.322-3.584-3.857-1.063h0Z"/><path class="g" d="M39.895,165.669c-.462,3.071-.094,6.145-.407,9.218-.266,2.618-1.489,4.751-3.362,6.553-.876.843-1.83,1.591-2.816,2.299-1.004.721-2.044,1.593-3.252,1.932-.791.222-2.192.163-2.624-.599-.207-.365-.178-.972-.13-1.51.095-1.077-.987-2-2-2-1.161,0-1.905.919-2,2-.262,2.974,1.474,5.341,4.372,6.057,3.657.903,6.855-1.721,9.531-3.842,2.608-2.068,4.853-4.663,5.775-7.925,1.032-3.652.213-7.424.769-11.119.161-1.067-.268-2.15-1.397-2.46-.945-.26-2.298.322-2.46,1.397h0Z"/><path class="d" d="M53.709,15.077c.035-.043.07-.087.105-.13,6.07-7.451,15.258-12.096,26.784-12.907,7.274-.511,14.586.69,22.56,6.104,0,0,2.479,1.683,4.957,3.366.474.421.949.841.949.841,4.787,4.244,7.187,9.156,8.817,15.178.818,3.032,1.179,6.173,1.034,9.302-.165,3.529-.267,12.058-3.036,16.157.31,2.229-.134,4.969-.976,6.797-.788,1.717-1.996,4.101-4.666,5.826-.748.481-2.534,1.164-4.33,1.2-.562,1.247-1.896,3.449-1.896,3.449-1.996,3.148-4.226,6.057-7.454,8.943l-6.25,3.586c-2.622,1.307-6.347,2.801-9.154,3.421-1.084.24-2.198.427-3.354.564-7.211.849-13.26-.875-19.043-5.334-5.517-4.254-8.064-11.14-9.131-18.805-.473-3.396-.915-7.02-1.456-10.692-1.831-6.696-2.088-15.391-1.194-21.001.868-5.442,3.284-11.571,6.733-15.866Z"/><path class="i" d="M106.85,49.271l-.705-1.538c-1.141-2.49-2.833-3.942-3.658-6.209-.499-1.372-.01-3.5,1.096-4.444.619-.528,1.575-.945,2.376-1.049,1.909-.667,8.84,2.776,12.977.37-.009.138-.015.283-.021.429-.165,3.53-.267,12.06-3.04,16.159-.103-.737-.289-1.419-.571-1.995-.38-.775-1.306-2.122-3.734-2.418-1.397-.171-3.146.213-4.235,1.598l-.045.057-.441-.961Z"/><path class="g" d="M49.691,49.783c-2.066-9.318-1.9-19.692,2.4-28.37,3.948-7.97,11.365-13.435,19.828-15.855,8.265-2.364,17.192-2.178,25.151,1.204,7.598,3.229,13.832,9.151,17.253,16.678,2.183,4.802,2.743,9.836,2.522,15.053-.178,4.227-.259,9.097-2.331,12.9-1.232,2.261,2.221,4.282,3.454,2.019,2.158-3.961,2.547-8.749,2.794-13.172.285-5.108.14-10.082-1.478-14.994-2.898-8.798-9.208-16.168-17.348-20.558C85.334-4.265,61.508-.311,50.682,15.842c-6.807,10.157-7.428,23.365-4.848,35.004.557,2.512,4.414,1.449,3.857-1.063h0Z"/><path class="g" d="M45.743,49.142c.623,3.891,1.115,7.8,1.638,11.706.455,3.392.967,6.761,2.05,10.02,2.05,6.166,5.789,11.078,11.407,14.406,5.877,3.48,12.527,4.309,19.197,3.187,3.338-.562,6.515-1.763,9.592-3.145,2.093-.94,4.202-1.875,6.122-3.142,2.815-1.857,5.104-4.224,7.17-6.886,1.789-2.306,3.473-4.784,4.698-7.444.452-.98.278-2.154-.718-2.736-.862-.504-2.282-.268-2.736.718-.931,2.021-2.145,3.935-3.431,5.746-1.556,2.19-3.489,4.583-5.554,6.165-1.772,1.358-3.748,2.35-5.766,3.277-2.527,1.161-5.05,2.282-7.744,3.011-5.758,1.558-12.056,1.325-17.414-1.43-5.117-2.632-8.77-6.641-10.718-12.069-1.177-3.277-1.755-6.691-2.216-10.129-.55-4.109-1.065-8.222-1.72-12.316-.171-1.067-1.501-1.66-2.46-1.397-1.136.312-1.568,1.39-1.397,2.46h0Z"/><path class="g" d="M78.328,55.673c-.556-1.848-.161-6.088,3.335-6.427,4.618.056,4.832,5.186,3.263,7.588-1.285,1.967-5.032,2.765-6.598-1.161Z"/><path class="g" d="M85.987,45.796l2.715.805c.266.083.532.095.798.036.266-.012.514-.091.744-.237.233-.126.42-.297.561-.515.177-.193.296-.42.358-.68.117-.512.091-1.087-.202-1.541-.286-.443-.682-.767-1.195-.919l-2.715-.805c-.266-.083-.532-.095-.798-.036-.266.012-.514.091-.744.237-.233.126-.42.297-.561.515-.177.193-.296.42-.358.68-.117.512-.091,1.087.202,1.541.286.443.682.767,1.195.919h0Z"/><path class="g" d="M76.566,72.14c.436.306.864.623,1.286.949l-.405-.313c.991.767,1.947,1.575,2.903,2.385.412.349.857.586,1.414.586.491,0,1.076-.218,1.414-.586.35-.381.61-.882.586-1.414-.023-.505-.185-1.075-.586-1.414-1.492-1.264-2.993-2.522-4.594-3.646-.404-.284-1.082-.328-1.541-.202-.464.128-.967.486-1.195.919-.245.464-.368,1.026-.202,1.541l.202.478c.178.301.417.54.718.718h0Z"/><path class="g" d="M55.561,56.2c-.504-1.819-.158-5.989,2.981-6.316,4.147.065,4.351,5.112,2.947,7.472-1.149,1.932-4.513,2.709-5.928-1.156Z"/><path class="g" d="M109.077,51.183c.952-.674,1.951-.803,3.055-.448.243.078.304.098.577.261.115.069.227.143.336.222-.158-.116-.152-.102.017.043.116.118.229.236.333.365-.321-.398.021.078.076.174.866,1.533.562,4.317-.036,6.238-.576,1.851-1.813,3.912-3.429,5.278-.911.77-1.455.977-2.462,1.245-.933.248-2.121.457-2.998.085-.994-.421-2.142-.298-2.736.718-.491.839-.282,2.312.718,2.736,2.64,1.119,5.529.77,8.09-.427,2.287-1.068,4.114-3.261,5.301-5.439,1.216-2.232,1.933-4.605,2.044-7.153.101-2.308-.326-4.882-2.012-6.588-2.249-2.275-6.294-2.604-8.893-.764-.88.623-1.296,1.747-.718,2.736.509.871,1.85,1.345,2.736.718h0Z"/><path class="g" d="M68.979,72.592c.021-.091.047-.181.076-.27.076-.206.062-.179-.04.08-.011-.086.227-.445.296-.497-.168.212-.18.237-.036.073.066-.068.135-.133.208-.195l-.179.144c.078-.052.158-.098.242-.14-.245.099-.256.105-.034.018.104-.039.209-.077.315-.112.204-.069.411-.13.62-.184.176-.045.353-.084.532-.117.531-.098-.273-.001.136-.021.382-.019.751-.022,1.133-.007.464.018-.441-.097.006-.002.173.037.346.069.517.116.039.011.496.159.494.162-.278-.122-.319-.139-.123-.051.058.027.115.055.172.085.132.068.262.141.388.22.072.045.143.092.212.14.172.125.139.097-.1-.083.015-.023.584.579.646.623-.365-.257-.295-.416-.136-.155.055.09.1.186.15.279.232.438-.131-.379-.013-.039.036.102.075.203.11.306.104.312.189.631.258.953.029.133.054.267.077.401.016.093.03.185.044.278-.039-.294-.045-.327-.02-.099.024.409.054.812.041,1.222-.005.159-.015.318-.028.477-.009.107-.02.214-.034.321.035-.262.034-.278-.004-.046-.106.44-.204.87-.36,1.297-.36.984.403,2.234,1.397,2.46,1.129.257,2.075-.343,2.46-1.397.606-1.658.663-3.425.424-5.156-.156-1.131-.464-2.362-1.085-3.335-.801-1.255-2.156-2.112-3.534-2.601-1.483-.526-3.157-.478-4.671-.123-1.038.243-2.069.638-2.882,1.34-.754.652-1.286,1.618-1.532,2.575-.261,1.012.332,2.218,1.397,2.46,1.042.237,2.181-.313,2.46-1.397h0Z"/><path class="g" d="M117.957,34.659c-.175.099-.352.2-.539.278.251-.105-.289.081-.379.107-.198.056-.397.099-.599.14-.101.021-.204.039-.306.053.309-.041-.143.004-.198.007-.859.038-1.961-.008-2.648-.104-1.515-.212-3.39-.742-5.061-1.014-1.923-.313-3.816-.092-5.459,1.074-2.006,1.424-2.9,4.195-2.297,6.565.664,2.611,2.814,4.584,3.946,6.978.462.976,1.862,1.229,2.736.718,1-.585,1.181-1.756.718-2.736-.609-1.288-1.431-2.425-2.231-3.597-.542-.794-1.336-2.016-1.345-2.632-.014-.956.162-1.678.931-2.126.303-.177,1.096-.572,1.437-.454-.371.041-.447.053-.229.035.076-.004.153-.005.229-.004.151.001.299.02.45.029.15.016.091.007-.177-.027.102.015.203.031.304.048.218.041.437.079.655.124.491.1.98.211,1.47.319,1.124.248,2.249.476,3.39.631,2.461.335,4.999.297,7.218-.957,2.241-1.266.228-4.723-2.019-3.454h0Z"/><path class="e" d="M90.928,58.468c-.214.787-.235,1.612-.223,2.428.017,1.201.188,2.567,1.165,3.266,1.038.743,2.55.349,3.514-.488.616-.535,1.105-1.276,1.133-2.092"/><path class="g" d="M143.64,34.454c1.256-5.799,2.667-11.607,4.936-17.105,1.761-4.267,4.644-9.644,9.151-11.527,4.295-1.795,9.592,1.389,8.329,6.294-.589,2.288-2.091,4.191-3.675,5.89-1.728,1.854-3.664,3.514-5.701,5.017-4.804,3.544-10.063,6.393-15.143,9.508-2.191,1.343-.184,4.804,2.019,3.454,5.192-3.184,10.572-6.09,15.461-9.743,4.437-3.315,9.73-7.71,10.978-13.403.637-2.905.069-5.858-1.902-8.135-1.918-2.215-4.862-3.376-7.762-3.38-6.388-.008-11.003,5.745-13.747,10.895-3.488,6.545-5.243,13.977-6.801,21.172-.544,2.51,3.312,3.582,3.857,1.063h0Z"/><path class="g" d="M169.739,33.974c2.041-3.89,4.348-7.772,7.574-10.806,2.744-2.581,6.524-5.15,10.427-5.183,3.153-.026,6.621,2.828,4.575,6.075-1.011,1.605-2.801,2.549-4.472,3.322-1.853.857-3.846,1.432-5.826,1.907-4.614,1.107-9.349,1.553-14.034,2.247-1.069.159-1.658,1.51-1.397,2.46.315,1.146,1.388,1.556,2.46,1.397,4.948-.734,9.956-1.188,14.812-2.44,4.368-1.127,9.761-2.979,12.091-7.177,2.619-4.719-.4-9.785-5.187-11.332-4.828-1.56-9.973.973-13.76,3.83-4.736,3.574-7.986,8.476-10.717,13.68-1.195,2.277,2.256,4.302,3.454,2.019h0Z"/><path class="g" d="M206.914,123.357c5.711,2.33,11.689,4.837,15.87,9.55,2.36,2.66,3.649,6.013,4.641,9.389.536,1.824,1.076,3.806.664,5.711-.148.684-.406,1.428-.884,1.958-.456.504.002.108-.302.19-.487.132-1.089-.056-1.552-.189-2.479-.712-3.537,3.146-1.063,3.857,2.148.617,4.507.494,6-1.339,1.475-1.811,2.05-4.196,1.915-6.502-.148-2.523-.92-5.008-1.785-7.367-.778-2.12-1.626-4.327-2.939-6.176-4.738-6.675-12.155-9.942-19.502-12.939-1.001-.408-2.198.443-2.46,1.397-.315,1.145.393,2.051,1.397,2.46h0Z"/><path class="g" d="M209.198,147.434c1.452,1.794,2.871,3.613,4.29,5.434.679.871,1.359,1.742,2.046,2.608.722.91,1.411,1.899,2.213,2.739,1.568,1.643,4.251,1.969,6.234.951,1.929-.99,2.963-3.153,2.794-5.275-.171-2.136-1.184-4.359-2.868-5.726-.838-.68-2.009-.819-2.828,0-.703.703-.843,2.144,0,2.828.233.189.451.393.651.617.114.128.26.372.083.09.101.161.215.313.313.477.085.142.162.289.24.435.04.073.07.152.11.225-.014-.025-.11-.309-.038-.093.124.371.246.731.327,1.115.017.08.03.161.042.242-.006-.042-.003-.339-.027-.129-.017.149.009.327.011.479,0,.079-.015.158-.012.236-.001-.03.086-.356.02-.145-.053.169-.087.351-.134.523-.091.328.154-.19-.05.083-.115.153-.283.313-.051.106-.122.109-.22.244-.351.344.268-.204-.394.171-.182.085.143-.058-.284.064-.368.086-.227.061.058-.018.094-.016-.085-.006-.175.004-.261.004-.086,0-.172-.01-.258-.013.058.002.3.09.114.007-.168-.075-.376-.096-.551-.162.382.143-.009-.081-.142-.113-.17-.041.064.045.115.099-.047-.05-.105-.088-.15-.14-.32-.366-.624-.746-.93-1.124-1.187-1.467-2.35-2.953-3.51-4.442-1.374-1.763-2.751-3.524-4.157-5.263-.68-.84-2.121-.707-2.828,0-.831.831-.682,1.986,0,2.828h0Z"/><path class="g" d="M10.719,190.239c.644,1.89,1.806,3.824,4.072,3.766,2.396-.06,4.332-2.203,5.974-3.705,3.547-3.244,6.996-6.595,10.45-9.937,1.853-1.793-.977-4.62-2.828-2.828-2.96,2.864-5.921,5.73-8.935,8.537-1.334,1.243-2.674,2.75-4.25,3.684-.15.089-.303.182-.465.25.355-.149-.098.025-.183.029.283-.027.315-.036.097-.027l.268.043c-.405-.198.418.202.007.013.461.213.048.14,0-.042.073.277.085.128-.037-.104-.021-.04-.229-.451-.131-.239.069.151-.154-.422-.181-.503-.348-1.022-1.374-1.695-2.46-1.397-.996.274-1.747,1.433-1.397,2.46h0Z"/><path class="g" d="M17.77,156.767c-.114.199-.243.384-.378.57.345-.475-.133.137-.228.243-.471.527-.981,1.021-1.496,1.506-1.218,1.147-2.488,2.237-3.75,3.335-2.858,2.486-5.776,4.968-8.25,7.848-1.948,2.268-4.255,5.322-3.531,8.519.332,1.468,1.488,2.644,2.426,3.367-.266-.205-.054-.113-.136.327.002-.01-.154.679-.213.902-.28,1.068-.63,2.125-.699,3.236-.168,2.692,1.725,4.123,4.025,4.97,2.856,1.051,6.239,1.021,8.792-.773,2.09-1.469.094-4.938-2.019-3.454-1.758,1.235-3.938,1.137-5.866.309-.319-.137-.622-.312-.914-.497-.003-.002-.024-.056-.02-.003.032.372.016-.683-.006-.494.057-.498.225-1.001.358-1.483.471-1.707,1.021-3.694-.033-5.308-.324-.495-.72-.798-1.172-1.158-.469-.375.28.25-.146-.123-.08-.07-.16-.151-.231-.23-.338-.376.142.239-.021-.017-.065-.102-.138-.203-.188-.315-.149-.328.006.036.033.085-.066-.125-.141-.742-.082-.156-.022-.218-.017-.433-.009-.652.012-.304-.114.491,0,.006.024-.101.04-.208.071-.308.261-.837.195-.699.633-1.465.746-1.302,1.483-2.161,2.494-3.265,2.38-2.598,5.07-4.899,7.724-7.208,2.14-1.861,4.856-3.787,6.289-6.299,1.278-2.239-2.177-4.257-3.454-2.019h0Z"/><path class="g" d="M141.524,247.905c1.951-1.291,4.886.368,6.52,1.642,1.433,1.118,2.32,2.638,2.696,4.402.532,2.496.038,5.224-.566,7.659-.78,3.147-2.012,6.156-3.452,9.055-2.432,4.898-5.235,9.951-9.07,13.898-1.736,1.787-3.703,3.501-6.367,2.972-2.611-.519-4.97-2.517-5.446-5.183-.501-2.806-.285-5.796.024-8.61.328-2.984.93-5.95,1.759-8.835.712-2.479-3.146-3.537-3.857-1.063-1.749,6.089-2.856,12.951-1.836,19.262.565,3.493,3.176,6.268,6.366,7.641,3.276,1.41,6.755,1.082,9.607-1.08,5.2-3.944,8.688-10.053,11.649-15.752,3.193-6.145,6.482-13.796,5.075-20.875-.588-2.957-2.361-5.402-4.804-7.115-2.893-2.028-7.095-3.601-10.317-1.469-2.137,1.414-.136,4.88,2.019,3.454h0Z"/><path class="g" d="M100.097,161.167c-6.696,13.847-15.897,26.659-20.707,41.379-2.281,6.978-2.85,14.291-1.424,21.508,1.358,6.875,4.695,13.051,9.247,18.331s10.035,9.625,15.825,13.439c2.951,1.944,5.989,3.752,9.051,5.514,1.519.874,3.044,1.735,4.569,2.597s3.061,1.845,4.767,2.326c3.49.984,6.592-.856,8.8-3.454s4.103-5.579,6.055-8.388c1.136-1.634,2.238-3.295,3.213-5.03.853-1.517,1.61-3.119,1.444-4.906-.299-3.211-3.126-5.541-5.273-7.665-2.639-2.611-5.438-5.051-8.123-7.612-1.323-1.262-2.619-2.553-3.847-3.909-1.083-1.196-2.3-2.462-3.012-3.929-.609-1.255-.281-2.461.203-3.715.625-1.619,1.462-3.169,2.345-4.659,1.827-3.087,4.005-5.947,6.194-8.782,1.1-1.424,2.204-2.845,3.279-4.288.646-.867.141-2.234-.718-2.736-1.02-.597-2.089-.151-2.736.718-4.089,5.484-8.737,10.72-11.531,17.034-1.3,2.937-1.994,5.805-.328,8.745,1.65,2.914,4.299,5.425,6.685,7.738,2.557,2.479,5.241,4.823,7.806,7.294,1.186,1.142,2.355,2.309,3.483,3.508.745.792,1.683,1.749,1.601,2.923-.1,1.445-1.343,2.987-2.088,4.174-1.032,1.644-2.148,3.233-3.272,4.815-1.721,2.423-3.323,5.348-5.613,7.293-.96.816-2.052,1.315-3.314,1.031-1.687-.38-3.25-1.552-4.736-2.391-2.914-1.647-5.825-3.302-8.685-5.042-5.62-3.419-11.049-7.181-15.764-11.794-4.584-4.486-8.466-9.662-10.505-15.803-2.099-6.323-2.414-13.216-.901-19.702,1.842-7.894,5.694-15.304,9.489-22.411,3.951-7.399,8.319-14.569,11.973-22.126,1.116-2.307-2.332-4.338-3.454-2.019h0Z"/></g></svg>