<svg id="b" xmlns="http://www.w3.org/2000/svg" width="265.486" height="309.505" viewBox="0 0 265.486 309.505" style="color: initial !important;"><defs><style>.d{fill:#ffffff;}.e{fill:none;}.f{fill:#a095c1;}.g{fill:#211715;}.h{fill:#f2635f;}.i{fill:#cfcfcf;}</style></defs><g id="c"><path class="d" d="M232.437,148.575c.39,1.57.68,3.19.57,4.8-.11,1.62-.65,3.24-1.77,4.41-.23.24-.49.47-.8.57-.66.22-1.9.25-3.04-.18,0,0-.28-.06-.65-.14.79,1.82.83,4.02-.74,5.25-1.63,1.27-3.79.55-4.57-.48-3.12-4.09-5.06-6.96-8.15-11.07l-.8.38c.78,1.9,1.14,3.96,1.06,6.01-.05,1.05-.25,2.19-1.02,2.91-.81.76-2.08.86-3.12.49-1.05-.37-1.9-1.15-2.63-1.98-1.8-2.03-3.04-4.48-4.27-6.9-1.28-2.52-2.55-5.03-3.83-7.55l-3.08-7.24c1.17-.49,2.2-1.31,3.21-2.1,3.53-2.83,7.23-5.86,8.9-10.03l3.28,1.13c8.18,3.67,14.66,6.95,18.69,13.87,1.18,2.52,2.1,5.15,2.76,7.85Z"/><path class="d" d="M12.197,188.465c-3.13,1.53-7-.07-8.31-1.12-2.41-1.95,2.08-6.59-.34-8.37-7.47-5.52,14.2-17.96,16.78-22.28l4.27-4.9c6.24,3,12.49,6.01,18.72,9.03l-.8,5.16c-.79,3.94.07,8.18-1.44,11.9-1.53,3.78-4.94,6.06-8.38,8.25-.96.62-2.09,1.1-3.39,1.17-1.13.06-2.46-.5-3.3-1.27-1.05-.96-.76-3.15-.76-3.15,0,0,.02-.11.05-.31-2.7,2.4-5.57,4.93-7.78,6.75-3.29,2.72-4.48,1.9-5.24-.71l-.08-.15Z"/><path class="g" d="M257.458,261.563h-81.867c-2.574,0-2.578,4,0,4h81.867c2.574,0,2.578-4,0-4h0Z"/><path class="i" d="M225.422,287.025c2.942-3.556,4.75-9.299,5.911-14.162.215-.899.407-1.768.581-2.588,1.259-5.948,1.972-12.22.737-17.849-1.284-5.855-4.753-8.469-10.458-8.851-.834-.056-1.549-.029-2.348.181-.067.177-.159.348-.274.513-3.943,5.666-10.875,15.023-14.471,19.354,1.402,1.519,2.474,2.686,2.474,2.686.632,5.992,2.262,14.136,4.644,18.776,2.486,1.451,4.961,2.896,7.403,4.323,2.243.085,4.37-.654,5.801-2.382Z"/><path class="g" d="M205.577,266.305c.712,6.653,1.852,13.765,4.913,19.789.489.963,1.843,1.24,2.736.718.979-.572,1.209-1.77.718-2.736-1.323-2.605-2.112-5.536-2.778-8.402-.717-3.086-1.251-6.218-1.589-9.368-.115-1.074-.837-2-2-2-.992,0-2.116.919-2,2h0Z"/><path class="g" d="M219.041,246.649c1.845-2.197,6.324-.899,8.379.54,2.456,1.72,3.274,4.886,3.643,7.698.599,4.555.045,9.23-.84,13.708-.724,3.664-1.612,7.326-2.921,10.828-.72,1.925-1.61,3.807-2.781,5.502-1.202,1.74-2.757,2.537-4.874,2.499-2.575-.046-2.575,3.954,0,4,2.454.044,4.859-.703,6.662-2.415,1.582-1.502,2.715-3.601,3.619-5.561,1.888-4.091,3.047-8.474,3.965-12.872,1.128-5.406,1.832-10.985,1.066-16.489-.557-4.003-1.98-7.883-5.41-10.275-1.697-1.184-3.732-1.789-5.762-2.067-2.761-.379-5.653-.213-7.575,2.075-1.645,1.959,1.17,4.803,2.828,2.828h0Z"/><path class="g" d="M61.728,262.227h107.587l-1.009-.273c9.873,5.592,19.67,11.322,29.476,17.03,12.238,7.124,24.463,14.268,36.682,21.424,5.007,2.933,10.014,5.867,15.017,8.807,2.224,1.307,4.239-2.149,2.019-3.454-7.909-4.648-15.826-9.283-23.745-13.915-10.228-5.983-20.46-11.957-30.703-17.915-8.193-4.766-16.386-9.535-24.619-14.232-.656-.374-1.304-.778-1.975-1.123-.908-.467-1.892-.349-2.887-.349H61.728c-2.574,0-2.578,4,0,4h0Z"/><path class="h" d="M209.219,201.283c5.841,2.427,12.176,3.574,18.471,2.654,5.722-.837,10.973-3.666,14.915-7.881l-3.769-2.908c-4.259,6.073-3.87,14.697.747,20.447,4.382,5.457,12.437,7.603,18.978,5.193l-2.335-4.011c-3.715,4.627-5.691,10.379-4.649,16.314s5.413,10.244,10.87,12.355c1.209.468,2.633-.516,2.952-1.676.373-1.356-.463-2.483-1.676-2.952-4.06-1.571-6.803-4.846-7.517-9.002-.663-3.861.792-8.377,3.415-11.644.678-.844.956-1.916.375-2.908-.504-.862-1.725-1.466-2.71-1.103-4.908,1.809-10.742.439-14.086-3.685-3.438-4.239-3.278-10.54-.218-14.903,1.571-2.239-1.925-4.881-3.769-2.908-3.401,3.638-7.835,6.006-12.796,6.647-5.442.703-10.911-.573-15.919-2.654-1.198-.498-2.639.538-2.952,1.676-.379,1.381.474,2.453,1.676,2.952h0Z"/><path class="f" d="M138.313,109.709c12.273,12.233,21.923,27.083,28.117,43.266-10.324,5.358-17.821,5.997-34.197,7.529-7.318.685-17.037-.365-24.842-1.257-2.924-.334-5.292-2.386-6.256-5.168-2.67-7.706-11.768-12.713-17.179-19.229-3.85-4.635-6.442-10.046-8.267-15.809-9.626,13.623-18.373,27.867-26.168,42.614-1.446,1.187-3.597.417-5.283-.395-6.547-3.156-13.093-6.311-19.64-9.467,4.812-9.02,9.625-18.04,14.437-27.059,7.812-14.642,16.176-29.889,29.245-39.826,3.287,1.618,6.773,2.426,10.604,2.46-.047,1.461.346,2.802,1.62,3.442.864.434,1.888.358,2.847.23,10.762-1.429,20.581-8.378,25.755-17.889l1.545.066,4.965.212c16.903.951,26.397,2.437,43.51,9.299,6.581,2.639,16.546,8.38,22.12,12.762,9.575,7.528,18.449,15.53,25.83,25.296,1.007,1.332,1.322,3.108.735,4.671-1.616,4.306-5.396,7.415-9.008,10.293-1.227.977-2.497,1.978-4.006,2.406-1.422.404-3.123.175-4.103-.901-10.309-12.357-24.526-21.803-41.216-23.813l-7.41-1.105"/><path class="d" d="M125.792,214.189c-.836,1.51-1.577,3.061-2.176,4.666-1.189,3.181-.522,4.829,1.614,7.413,4.378,5.295,10.257,9.64,15.248,14.646,2.267,2.274,4.735,4.241,2.926,7.837-1.81,3.596-4.292,6.985-6.727,10.568-1.438,2.116-3.3,5.234-5.942,6.386s-4.922-.34-7.314-1.64c-11.358-6.172-22.38-12.166-30.799-22.214-6.002-7.163-8.801-15.475-8.75-24.696.051-9.221,4.06-17.939,7.839-25.865,5.312-11.143,11.356-20.333,16.11-31.993,7.734.881,17.23,1.879,24.413,1.207,15.886-1.486,23.416-2.132,33.277-7.059,4.633,14.604,7.583,26.269,11.675,41.202.929,3.391,1.806,6.862,3.352,10.269,1.214,2.674,2.988,5.694,5.094,7.985,3.382,3.68,22.814,19.337,34.507,29.358,1.1.943,1.574,2.43-.339,5.338-3.978,6.046-10.597,14.271-14.012,18.279-.876,1.028-2.335,1.156-3.504.479-17.744-10.275-34.133-18.801-46.346-34.611-2.925-3.787-5.47-8.074-7.707-12.093-4.285-7.698-7.525-14.807-10.856-22.147-3.569,5.486-8.311,10.777-11.582,16.684Z"/><path class="g" d="M165.362,159.699c2.652,8.732,5.303,17.464,7.81,26.239,1.311,4.589,2.479,9.227,3.868,13.793.676,2.222,1.517,4.361,2.459,6.482.832,1.874,1.604,3.791,2.706,5.529,1.352,2.133,3.213,3.743,5.113,5.365,2.259,1.928,4.571,3.794,6.888,5.651,5.742,4.603,11.548,9.127,17.315,13.698,2.684,2.128,5.601,4.149,8.094,6.501.195.184.254.135.234.497-.043.803-.618,1.623-1.042,2.283-.946,1.473-1.979,2.896-3.012,4.309-2.218,3.035-4.532,6-6.89,8.928-1.009,1.253-2.027,2.5-3.057,3.737-.415.499-.836.993-1.251,1.49-.491.588-.79.692-1.489.32-3.774-2.005-7.444-4.265-11.134-6.42-3.517-2.054-7.011-4.151-10.429-6.368-6.783-4.4-13.234-9.313-18.831-15.172-6.244-6.536-10.86-14.175-15.039-22.145-4.279-8.16-7.93-16.621-11.797-24.977-.998-2.157-2.014-4.306-3.051-6.444-1.123-2.316-4.574-.29-3.454,2.019,4.181,8.622,7.912,17.455,12.131,26.059,4.181,8.527,8.732,17.037,14.842,24.357,11.043,13.229,26.119,21.846,40.858,30.309,1.838,1.055,3.932,2.765,6.082,2.99,2.066.216,3.441-.867,4.693-2.356,2.215-2.637,4.379-5.318,6.501-8.031,2.438-3.116,4.848-6.265,7.076-9.536,1.891-2.775,3.614-6.424.485-9.011-10.862-8.976-22.399-17.167-32.994-26.464-.681-.597-1.366-1.198-2.001-1.844-1.472-1.496-2.386-3.443-3.235-5.337-1.94-4.326-3.282-8.717-4.54-13.28-2.533-9.192-5.236-18.334-7.998-27.459-.684-2.259-1.369-4.517-2.055-6.774-.746-2.456-4.608-1.409-3.857,1.063h0Z"/><path class="i" d="M151.775,276.994c-2.467,4.541-5.932,10.061-9.964,12.856-2.704,1.874-6.282,1.341-9.094-.738-1.304-.964-2.598-2.554-2.976-4.124-1.212-5.046-.197-13.446,1.353-19.094l.764-4.64c2.033-1.296,3.913-3.414,5.355-4.889,2.531-2.59,4.807-5.143,6.992-7.801.843-.648,1.388-1.061,1.388-1.061.721-.546,1.593-.826,2.453-.823s1.576.173,2.389.461c5.389,1.909,8.024,5.363,7.679,11.346-.331,5.754-2.712,11.6-5.53,16.987-.256.49-.526.998-.809,1.519Z"/><path class="g" d="M146.601,249.231c1.926-1.319,4.727.216,6.406,1.418,1.516,1.085,2.483,2.609,2.899,4.416.58,2.522.13,5.293-.454,7.77-.744,3.159-1.932,6.192-3.331,9.114-2.383,4.974-5.142,10.16-9.012,14.145-1.711,1.762-3.611,3.346-6.223,2.787-2.537-.542-4.832-2.424-5.346-5.022-.553-2.792-.387-5.774-.122-8.59.28-2.986.823-5.949,1.605-8.844.672-2.488-3.186-3.55-3.857-1.063-1.637,6.062-2.627,12.848-1.567,19.093,1.204,7.095,10.201,10.995,15.983,6.558,5.137-3.943,8.514-10.092,11.372-15.78,3.124-6.217,6.372-13.982,4.842-21.084-.633-2.938-2.423-5.368-4.89-7.04-2.906-1.969-7.145-3.509-10.322-1.333-2.111,1.446-.112,4.914,2.019,3.454h0Z"/><path class="g" d="M103.916,163.296c-6.459,13.922-15.445,26.856-20.008,41.617-2.17,7.018-2.636,14.357-1.08,21.553,1.457,6.741,4.815,12.797,9.363,17.939,4.646,5.254,10.255,9.576,16.157,13.327,3.009,1.912,6.104,3.686,9.223,5.412,1.547.856,3.101,1.699,4.654,2.545,1.527.832,3.086,1.805,4.799,2.204,3.523.821,6.52-1.1,8.664-3.75,2.21-2.731,4.111-5.786,6.057-8.708,1.056-1.586,2.076-3.199,2.974-4.881.821-1.537,1.472-3.114,1.249-4.889-.385-3.059-3.091-5.241-5.179-7.252-2.721-2.621-5.613-5.056-8.387-7.62-1.34-1.238-2.654-2.506-3.901-3.839-1.102-1.179-2.33-2.417-3.074-3.867-.602-1.173-.376-2.299.046-3.5.575-1.636,1.373-3.199,2.224-4.707,1.801-3.191,3.98-6.148,6.17-9.079,1.067-1.428,2.137-2.853,3.18-4.299.632-.877.152-2.228-.718-2.736-1.008-.59-2.103-.161-2.736.718-3.998,5.544-8.521,10.839-11.233,17.181-1.255,2.936-1.928,5.829-.22,8.736,1.698,2.889,4.365,5.345,6.788,7.62,2.591,2.432,5.306,4.729,7.905,7.153,1.185,1.106,2.352,2.237,3.485,3.397.707.724,1.629,1.599,1.711,2.677.111,1.452-1.174,3.077-1.881,4.255-.954,1.591-1.991,3.131-3.038,4.662-1.713,2.503-3.278,5.394-5.479,7.513-.983.947-2.137,1.641-3.542,1.36-1.561-.312-3.026-1.356-4.405-2.106-2.968-1.614-5.935-3.234-8.852-4.939-5.73-3.348-11.287-7.038-16.124-11.609-4.714-4.454-8.737-9.636-10.864-15.826-2.139-6.222-2.559-13.027-1.167-19.458,1.711-7.907,5.429-15.363,9.102-22.516,3.824-7.446,8.068-14.67,11.593-22.269.454-.979.276-2.155-.718-2.736-.864-.506-2.28-.267-2.736.718h0Z"/><path class="g" d="M77.323,84.517c-.725,2.902-.737,6.665,2.412,8.12,1.668.771,3.506.46,5.252.165,1.585-.267,3.151-.655,4.68-1.152,6.089-1.98,11.669-5.571,15.995-10.293,2.456-2.681,4.528-5.709,6.086-8.994,1.097-2.314-2.35-4.346-3.454-2.019-2.869,6.049-7.486,11.11-13.252,14.518-2.843,1.681-5.9,2.924-9.117,3.679-.783.184-1.573.342-2.368.464-.603.092-1.794.397-2.316-.08-.777-.71-.269-2.509-.061-3.345.624-2.498-3.233-3.563-3.857-1.063h0Z"/><path class="g" d="M110.652,75.218c11.304.482,22.563,1.259,33.494,4.382,6.112,1.746,12.122,3.95,17.901,6.599,5.185,2.377,10.238,4.907,14.78,8.377,5.969,4.561,11.79,9.34,17.19,14.568,2.696,2.611,5.285,5.334,7.724,8.186,1.214,1.419,2.419,2.858,3.529,4.36.994,1.346.996,2.554.256,4.037-1.524,3.055-4.139,5.361-6.742,7.487-1.304,1.066-2.692,2.405-4.314,2.948-1.586.53-2.252-.213-3.235-1.352-4.373-5.064-9.403-9.574-14.962-13.302-5.635-3.778-11.89-6.711-18.446-8.477-4.742-1.278-8.898-1.679-13.728-2.399l-1.498-.223c-1.067-.159-2.15.267-2.46,1.397-.259.943.322,2.3,1.397,2.46,3.717.554,7.481.985,11.172,1.69,6.964,1.33,13.572,4.01,19.589,7.744,5.955,3.695,11.253,8.37,15.854,13.646,1.171,1.343,2.214,2.539,4.065,2.872,1.878.337,3.708-.153,5.334-1.109s3.08-2.249,4.523-3.447c1.43-1.186,2.824-2.429,4.054-3.826,2.298-2.61,4.713-6.186,3.746-9.831-.495-1.866-1.904-3.345-3.081-4.816-1.224-1.531-2.491-3.026-3.797-4.487-5.247-5.871-11.101-11.165-17.206-16.126-3.015-2.45-6.058-4.917-9.221-7.174-2.198-1.568-4.644-2.815-7.048-4.032-5.777-2.928-11.729-5.45-17.848-7.574-6.633-2.303-13.424-4.011-20.384-4.967-6.143-.843-12.333-1.258-18.526-1.522l-2.112-.09c-2.574-.11-2.569,3.891,0,4h0Z"/><path class="g" d="M71.479,80.278c-18.546,11.65-28.292,32.432-38.244,51.085-3.454,6.474-6.908,12.948-10.362,19.422-.478.895-.287,2.252.718,2.736,4.761,2.295,9.522,4.59,14.284,6.885,2.276,1.097,4.533,2.34,6.892,3.25,1.884.727,4.325,1.007,5.968-.43.851-.744,1.314-2.068,1.847-3.059.633-1.177,1.273-2.351,1.918-3.522,1.177-2.135,2.374-4.258,3.591-6.37,2.512-4.361,5.11-8.672,7.79-12.932,3.015-4.792,6.138-9.516,9.357-14.174,1.467-2.123-1.998-4.125-3.454-2.019-8.765,12.681-16.775,25.871-23.988,39.496l.718-.718c-1.336.949-3.359-.441-4.603-1.041-2.009-.968-4.017-1.936-6.026-2.905-4.092-1.972-8.183-3.945-12.275-5.917l.718,2.736c5.753-10.783,11.434-21.609,17.279-32.343,4.878-8.959,10.081-17.895,16.894-25.545,3.824-4.293,8.124-8.121,12.998-11.183,2.175-1.366.169-4.829-2.019-3.454h0Z"/><path class="d" d="M59.941,14.165c.037-.042.073-.085.11-.127,6.384-7.287,15.808-11.636,27.449-12.037,7.346-.253,14.67,1.221,22.508,6.963,0,0,2.436,1.785,4.873,3.57.463.441.926.882.926.882,4.67,4.448,6.91,9.483,8.335,15.609.715,3.084.965,6.262.707,9.408-.294,3.55-.704,12.138-3.641,16.167.232,2.257-.314,5.002-1.228,6.812-.856,1.702-2.159,4.06-4.91,5.701-.771.457-2.595,1.081-4.406,1.053-.611,1.236-2.034,3.407-2.034,3.407-2.124,3.099-4.476,5.95-7.832,8.741l-6.426,3.388c-2.689,1.222-6.495,2.593-9.345,3.117-1.101.202-2.23.351-3.4.447-7.296.595-13.327-1.359-18.993-6.06-5.405-4.484-7.722-11.514-8.521-19.274-.354-3.438-.669-7.105-1.081-10.824-1.603-6.812-1.549-15.58-.445-21.2,1.07-5.451,3.726-11.538,7.355-15.742Z"/><path class="i" d="M124.691,32.056c-.133-1.017-.316-2.029-.549-3.031-3.957-17.01-20.025-27.596-36.641-27.024-11.641.401-21.065,4.75-27.449,12.037-3.686,4.207-6.384,10.363-7.465,15.869-1.016,5.173-1.143,13.016.095,19.544l.44,2.32c.761-2.257,1.522-4.515,1.522-4.515.435-1.291,1.505-4.445,2.108-5.708.992-2.079,2.527-3.98,4.606-4.972,2.53-1.207,5.574-1.371,8.274-2.125,1.2-.336,2.588-.752,3.903-1.267,5.382,1.885,8.791,2.706,14.077,1.157,4.126-1.209,8.511-3.259,12.319-6.255,8.493,7.281,10.568,13.94,9.708,23.249l-.21,2.273c2.019-1.425,4.039-2.849,4.039-2.849,1.085-.766,2.443-.936,3.561-.758,2.435.386,3.32,1.777,3.674,2.571l.751,1.682c.071-.116.142-.232.142-.232,2.589-4.223,2.975-12.201,3.255-15.589.175-2.124.118-4.263-.157-6.378Z"/><path class="g" d="M54.609,48.919c-1.757-9.529-1.143-20.016,3.57-28.633,4.312-7.884,12.075-13.04,20.703-15.134,8.395-2.038,17.437-1.478,25.269,2.298,7.362,3.549,13.524,9.644,16.562,17.301.957,2.413,1.671,4.966,2.007,7.542.351,2.685.192,5.357-.02,8.042-.333,4.199-.639,8.975-2.834,12.679-1.315,2.22,2.141,4.234,3.454,2.019,2.327-3.926,2.853-8.793,3.258-13.251.464-5.107.471-10.069-.967-15.048-2.588-8.961-8.724-16.582-16.74-21.296C92.457-4.216,68.372-.979,56.874,14.852c-7.256,9.99-8.302,23.307-6.121,35.13.466,2.528,4.322,1.457,3.857-1.063h0Z"/><path class="g" d="M50.65,47.731c.491,3.969.849,7.952,1.236,11.932.336,3.452.72,6.9,1.661,10.249,1.798,6.397,5.409,11.552,10.999,15.178s12.217,4.84,18.805,3.992c3.402-.438,6.647-1.417,9.82-2.708,2.15-.875,4.515-1.779,6.758-3.146,2.89-1.762,5.303-4.083,7.457-6.691,1.871-2.264,3.657-4.707,4.985-7.338,1.157-2.293-2.293-4.32-3.454-2.019-1.008,1.997-2.296,3.898-3.664,5.665-1.656,2.138-3.671,4.469-5.849,5.99-1.728,1.207-3.594,2.127-5.536,2.927-2.724,1.121-5.431,2.235-8.312,2.905-5.662,1.317-11.82.9-16.996-1.853s-8.861-6.927-10.709-12.497c-1.1-3.314-1.582-6.735-1.922-10.196-.405-4.132-.772-8.268-1.281-12.39-.132-1.072-.824-2-2-2-.978,0-2.133.921-2,2h0Z"/><path class="g" d="M83.28,55.951c-.494-1.881.057-6.139,3.592-6.355,4.65.223,4.681,5.399,3.014,7.763-1.365,1.935-5.169,2.604-6.606-1.408Z"/><path class="g" d="M91.425,46.282c.902.303,1.804.606,2.706.909.266.083.532.095.798.036.266-.012.514-.091.744-.237.233-.126.42-.297.561-.515.177-.193.296-.42.358-.68.117-.512.091-1.087-.202-1.541l-.313-.405c-.25-.248-.544-.419-.883-.514-.902-.303-1.804-.606-2.706-.909-.266-.083-.532-.095-.798-.036-.266.012-.514.091-.744.237-.233.126-.42.297-.561.515-.177.193-.296.42-.358.68-.117.512-.091,1.087.202,1.541l.313.405c.25.248.544.419.883.514h0Z"/><path class="g" d="M80.981,72.501c.083.063.166.126.249.19l-.405-.313c1.342,1.038,2.598,2.178,3.851,3.32.391.356.876.586,1.414.586.491,0,1.076-.218,1.414-.586.35-.381.61-.882.586-1.414-.023-.516-.192-1.056-.586-1.414-1.459-1.328-2.931-2.631-4.505-3.822-.385-.292-1.099-.323-1.541-.202-.464.128-.967.486-1.195.919-.245.464-.368,1.026-.202,1.541l.202.478c.178.301.417.54.718.718h0Z"/><path class="g" d="M60.325,55.661c-.442-1.85.057-6.039,3.231-6.255,4.175.215,4.199,5.307,2.699,7.634-1.228,1.905-4.644,2.567-5.931-1.379Z"/><path class="g" d="M114.475,52.487c.958-.628,2.045-.706,3.113-.287.463.181.653.352.906.6.078.081.153.166.224.254-.151-.196-.165-.206-.044-.031.067.116.135.232.2.349.079.167.072.143-.019-.071.053.136.101.273.144.413.09.292.162.595.207.897.04.267.061,1.005.047,1.459-.037,1.238-.286,2.453-.706,3.64-.642,1.811-2.03,3.921-3.698,5.165-.248.185-.519.361-.788.513-.074.042-.635.312-.226.138-.489.209-1.011.355-1.53.472-.92.208-2.136.322-3.003-.084-.978-.458-2.156-.274-2.736.718-.507.867-.265,2.276.718,2.736,2.45,1.147,5.309.965,7.78-.055,2.484-1.024,4.452-3.097,5.819-5.37,1.339-2.228,2.126-4.628,2.335-7.222.185-2.301-.171-4.854-1.777-6.622-2.197-2.42-6.283-2.834-8.983-1.065-2.144,1.405-.143,4.871,2.019,3.454h0Z"/><path class="g" d="M73.256,72.586c.024-.087.051-.172.082-.256-.119.266-.131.3-.037.101.042-.082.088-.163.136-.241.122-.179.098-.157-.071.066.021-.064.316-.393.384-.393-.229.17-.254.196-.076.076.193-.101.153-.092-.118.027.345-.201.847-.284,1.234-.37.189-.042.402-.106.596-.11-.581.013.075.007.192.001.091-.004,1.102.033,1.1.039-.29-.041-.358-.048-.204-.022.065.011.129.023.193.037.168.036.335.079.499.13.081.025.161.052.241.081.201.077.159.057-.127-.061.048.079.358.174.446.223.145.081.28.175.42.262.172.124.136.094-.107-.091.064.052.128.105.189.16.124.11.244.226.357.347.057.061.113.123.167.187.167.202.11.127-.169-.224.034.075.091.145.131.219.114.212.069.415-.034-.116.042.215.163.438.226.652.089.302.159.609.216.919.015.084.03.169.043.254-.04-.314-.046-.36-.018-.136.017.184.037.368.047.553.022.39.022.782-.004,1.172-.008.119-.002.779-.011.229.003.195-.074.427-.118.616-.098.421-.232.828-.395,1.228-.396.972.429,2.24,1.397,2.46,1.161.264,2.037-.356,2.46-1.397.598-1.47.795-3.15.638-4.726-.129-1.29-.373-2.679-1.042-3.816-.759-1.289-2.113-2.166-3.471-2.703-1.506-.596-3.205-.576-4.77-.256-1.035.211-2.022.577-2.85,1.243-.799.643-1.342,1.599-1.629,2.572-.296,1.003.357,2.223,1.397,2.46,1.073.244,2.144-.323,2.46-1.397h0Z"/><path class="e" d="M95.873,59.221c-.244.785-.294,1.616-.312,2.438-.026,1.211.097,2.592,1.056,3.333,1.019.786,2.557.444,3.558-.365.64-.517,1.159-1.246,1.216-2.066"/><path class="g" d="M102.732,33.661c2.024,2.383,3.59,5.108,4.388,8.142.818,3.113.8,6.346.516,9.532-.096,1.077.988,2,2,2,1.162,0,1.904-.92,2-2,.323-3.624.246-7.331-.73-10.858-1-3.615-2.932-6.803-5.346-9.645-.7-.824-2.108-.72-2.828,0-.816.816-.702,2.003,0,2.828h0Z"/><path class="g" d="M99.231,26.091c-3.144,2.59-6.826,4.556-10.681,5.857-1.888.637-3.821,1.161-5.825,1.202-1.896.038-3.71-.348-5.525-.87-2.479-.712-3.537,3.146-1.063,3.857,4.597,1.321,8.942,1.198,13.477-.332s8.743-3.836,12.446-6.886c.834-.687.712-2.116,0-2.828-.825-.825-1.992-.689-2.828,0h0Z"/><path class="g" d="M82.408,24.28c-2.152,2.378-4.641,4.349-7.396,5.993-3.048,1.819-6.69,2.443-10.115,3.143-3.702.757-6.766,2.247-8.922,5.448-1.575,2.337-2.369,5.215-3.262,7.862-.825,2.445,3.037,3.493,3.857,1.063s1.517-5.131,3.079-7.223c2.128-2.849,5.627-3.111,8.857-3.791,6.512-1.371,12.265-4.734,16.729-9.666,1.724-1.905-1.097-4.742-2.828-2.828h0Z"/><path class="g" d="M69.52,96.762c1.007,9.001,2.258,18.135,5.585,26.616,1.616,4.121,3.671,8.03,6.373,11.546,2.576,3.351,5.743,6.091,8.887,8.888,3.392,3.017,6.875,6.16,8.711,10.407.429.992,1.884,1.216,2.736.718,1.024-.599,1.148-1.741.718-2.736-3.248-7.511-10.883-11.822-16.207-17.671-5.791-6.362-8.762-14.761-10.547-23.039-1.048-4.86-1.704-9.79-2.256-14.728-.12-1.073-.833-2-2-2-.988,0-2.121.92-2,2h0Z"/><path class="g" d="M136.899,111.123c12,12.003,21.47,26.472,27.577,42.315.388,1.007,1.345,1.703,2.46,1.397.963-.265,1.787-1.447,1.397-2.46-6.361-16.503-16.096-31.567-28.606-44.08-1.822-1.823-4.652,1.005-2.828,2.828h0Z"/><path class="g" d="M104.719,160.942c7.741.88,15.53,1.893,23.336,1.774,3.921-.06,7.837-.54,11.735-.936,3.484-.353,6.969-.744,10.423-1.329,3.286-.556,6.523-1.332,9.669-2.438,2.413-.848,1.374-4.714-1.063-3.857-5.755,2.022-11.784,2.865-17.826,3.499-3.904.41-7.836.9-11.76,1.031-3.874.13-7.756-.084-11.616-.398-4.309-.351-8.603-.859-12.898-1.348-1.075-.122-2,1.007-2,2,0,1.183.922,1.877,2,2h0Z"/><path class="g" d="M196.955,146.106c1.538,3.034,3.045,6.086,4.62,9.1,1.393,2.665,3.021,5.497,5.489,7.305,2.516,1.843,6.428,1.634,7.85-1.458,1.304-2.836.612-6.681-.499-9.468-.4-1.003-1.336-1.706-2.46-1.397-.953.262-1.799,1.451-1.397,2.46.438,1.097.787,2.251.922,3.427.122,1.057.218,2.288-.137,3.209-.171.442-.645.55-1.179.382-.877-.276-1.566-1.053-2.166-1.757-1.581-1.858-2.669-4.118-3.765-6.279-1.275-2.515-2.549-5.03-3.824-7.545-.488-.963-1.844-1.239-2.736-.718-.979.573-1.208,1.77-.718,2.736h0Z"/><path class="g" d="M40.59,165.454c-.562,2.994-.295,6.022-.689,9.025-.367,2.795-1.745,4.987-3.836,6.824-.965.848-2.021,1.575-3.093,2.28-1.034.68-2.084,1.483-3.338,1.683-.772.123-2.033-.209-2.311-.789-.176-.368-.146-1.009-.073-1.597.134-1.074-1.015-2-2-2-1.192,0-1.866.923-2,2-.372,2.98,1.374,5.393,4.245,6.192,3.51.977,6.771-1.406,9.437-3.381,2.808-2.08,5.225-4.587,6.33-7.978,1.183-3.63.489-7.499,1.183-11.197.199-1.061-.294-2.157-1.397-2.46-.975-.268-2.26.33-2.46,1.397h0Z"/><path class="g" d="M209.978,128.578c5.743,2.586,11.767,5.297,15.923,10.207,2.338,2.762,3.531,6.191,4.438,9.651.487,1.86.987,3.896.531,5.812-.148.621-.456,1.736-1.044,2.127-.521.346-1.335.053-1.901-.132-2.453-.801-3.504,3.06-1.063,3.857,2.125.694,4.536.614,6.06-1.199s2.162-4.153,2.109-6.492c-.058-2.535-.769-5.085-1.552-7.48-.704-2.154-1.495-4.399-2.743-6.301-4.416-6.731-11.618-10.297-18.738-13.504-.984-.443-2.151-.284-2.736.718-.501.856-.272,2.291.718,2.736h0Z"/><path class="g" d="M211.564,152.749c1.397,1.859,2.761,3.742,4.124,5.626.674.932,1.35,1.863,2.032,2.789.762,1.034,1.49,2.144,2.34,3.108,1.555,1.765,4.314,2.13,6.367,1.102,1.928-.965,2.972-3.127,2.846-5.234-.129-2.146-1.088-4.374-2.727-5.802-.788-.687-2.063-.833-2.828,0-.691.753-.842,2.094,0,2.828.237.207.432.439.649.664.15.156-.073-.091-.083-.108.04.065.09.124.131.188.097.153.196.305.285.463.077.138.144.281.217.421.047.088.123.345-.011-.04.026.075.059.148.084.224.107.33.195.656.271.995.085.381-.002-.299.01.087.005.179.01.357.011.536,0,.075-.017.152-.012.227-.001-.02.083-.376.024-.161-.045.164-.081.337-.121.503-.084.347.161-.242-.022.064-.038.063-.331.487-.168.293.165-.196-.153.138-.207.189-.145.14.033-.021.059-.039-.11.073-.223.139-.338.203.27-.15-.202.043-.311.081-.21.074.036-.006.088-.006-.088,0-.176.008-.265.008-.087,0-.175-.01-.262-.01.05,0,.307.087.106.011-.179-.068-.38-.096-.563-.16.391.138-.044-.095-.161-.115-.159-.027.037.038.102.096-.053-.047-.106-.093-.158-.142-.05-.047-.094-.098-.142-.148.035.037.178.226.003.004-.177-.224-.344-.455-.516-.683-1.172-1.559-2.318-3.136-3.46-4.717-1.301-1.799-2.605-3.594-3.938-5.369-.626-.834-1.756-1.349-2.736-.718-.825.532-1.39,1.842-.718,2.736h0Z"/><path class="g" d="M10.35,189.146c.581,1.925,1.786,3.974,4.091,3.857,2.404-.123,4.335-2.113,6.06-3.581,3.681-3.134,7.268-6.377,10.86-9.612,1.917-1.726-.919-4.548-2.828-2.828-3.068,2.763-6.136,5.527-9.255,8.232-1.399,1.213-2.799,2.647-4.421,3.56-.065.036-.617.269-.291.156l-.174.056c-.204.044-.224.054-.059.031.013-.022.12.006.149.022-.214-.117.388.173.053.024.44.195.046.136-.007-.055.109.391.018.007-.034-.125-.156-.395.079.279-.093-.2-.071-.197-.134-.397-.194-.598-.741-2.458-4.603-1.411-3.857,1.063h0Z"/><path class="g" d="M18.603,155.684c-.057.092-.118.179-.177.269-.231.351.314-.351.009-.017-.161.176-.315.357-.48.529-.489.51-1.015.985-1.546,1.451-1.256,1.102-2.563,2.146-3.862,3.197-2.952,2.388-5.963,4.769-8.557,7.553-2.067,2.218-4.469,5.189-3.906,8.441.111.644.348,1.256.695,1.812.318.509,1.234,1.546,1.526,1.612-.028-.006-.05.048-.01-.019.13-.219.005.161-.016.304.008-.052-.156.669-.216.88-.281.983-.644,1.934-.803,2.949-.999,6.379,8.707,7.711,12.729,5.101,2.152-1.396.149-4.861-2.019-3.454-1.857,1.205-4.227.949-6.127-.072-.232-.125-.658-.426-.749-.468.093.043.069.106.11.188-.15-.299-.036-.222-.045-.088.043-.687.268-1.511.531-2.348.543-1.726,1.003-3.63-.098-5.243-.198-.29-.379-.481-.633-.701-.006-.005-.639-.547-.283-.224-.108-.098-.633-.692-.358-.31-.099-.137-.377-.782-.214-.296-.029-.085-.068-.18-.085-.27-.107-.583-.008.2-.03-.168-.006-.093-.006-.197.002-.289.04-.484-.071.327-.012.014.043-.234.113-.456.173-.685.125-.475-.043-.025.189-.468.175-.333.354-.659.556-.977.734-1.151,1.6-2.093,2.671-3.173,2.485-2.507,5.26-4.713,8.001-6.93,2.216-1.792,4.959-3.609,6.488-6.08,1.358-2.195-2.1-4.206-3.454-2.019h0Z"/></g></svg>