<svg id="b" xmlns="http://www.w3.org/2000/svg" width="265.291" height="313.106" viewBox="0 0 265.291 313.106" style="color: initial !important;"><defs><style>.d{fill:#ffffff;}.e{fill:none;}.f{fill:#a095c1;}.g{fill:#a98a75;}.h{fill:#211715;}.i{fill:#f2635f;}.j{fill:#cfcfcf;}</style></defs><g id="c"><path class="g" d="M263.388,184.919c-58.764-20.836-117.528-41.673-176.293-62.509l-21.366-7.584c-11.427-4.054-22.855-8.108-34.282-12.162v12.146c77.313,27.447,154.627,54.868,231.94,82.316"/><path class="h" d="M263.923,195.199c-24.795-8.805-49.592-17.606-74.39-26.405-24.638-8.743-49.277-17.485-73.915-26.228-13.966-4.956-27.932-9.913-41.898-14.871-2.43-.863-3.476,3.001-1.063,3.857,24.793,8.802,49.587,17.6,74.382,26.398,24.639,8.743,49.279,17.485,73.917,26.23,13.968,4.958,27.936,9.916,41.903,14.876,2.43.863,3.476-3,1.063-3.857h0Z"/><path class="d" d="M70.649,119.583c.361-1.673-.662-3.79-4.919-4.757-4.021-1.426-8.041-2.853-12.06-4.283.236-.33.486-.636.745-.907,1.515-1.589,4.726-3.57,6.671-4.361,2.834-1.153,4.321-1.453,7.332-1.835,4.784-.605,9.401,1.108,15.032,3.316,1.01,4.85,2.019,9.701,3.029,14.551-1.069,2.408-3.159,4.22-5.473,5.46-2.446,1.311-5.299,2.272-7.996,2.896-2.594.6-5.561.45-7.269-1.868-.511-.694-.838-1.565-.706-2.416.166-1.067,1.01-1.907,1.927-2.478.667-.415,1.378-.832,2.106-1.203.744-.38,1.38-1.178,1.582-2.114Z"/><path class="h" d="M69.044,114.779c-3.034-1.097-5.989-.122-8.772,1.119-1.438.641-5.722,2.897-6.317.145-.681-3.152,2.495-5.801,4.805-7.264,2.743-1.737,5.718-2.781,8.928-3.242,4.512-.648,8.66.653,12.847,2.225,1.011.38,2.193-.423,2.46-1.397.308-1.122-.382-2.079-1.397-2.46-4.379-1.644-8.898-3.014-13.621-2.409-3.959.507-7.665,1.604-11.074,3.728-3.512,2.189-6.553,5.221-6.973,9.559-.204,2.106.56,4.244,2.305,5.495,1.534,1.099,3.418,1.22,5.22.871,3.494-.678,6.824-3.851,10.525-2.514,2.425.877,3.47-2.987,1.063-3.857h0Z"/><path class="g" d="M36.514,104.461l-1.453-.515-3.613-1.282v12.145c10.073,3.576,20.146,7.151,30.219,10.726l3.531,1.253c-.168-.452-.238-.934-.164-1.41.166-1.067,1.01-1.907,1.927-2.478.667-.415,1.378-.832,2.106-1.203,2.075-1.06,3.301-5.363-3.338-6.871l-2.047-.726c-9.056-3.213-18.113-6.425-27.169-9.638Z"/><path class="h" d="M30.917,104.593c11.427,4.054,22.855,8.108,34.282,12.162,2.431.862,3.477-3.001,1.063-3.857-11.427-4.054-22.855-8.108-34.282-12.162-2.431-.862-3.477,3.001-1.063,3.857h0Z"/><path class="h" d="M81.522,107.293c1.009,4.848,2.019,9.697,3.028,14.545l.202-1.541c-1.404,2.999-4.23,4.714-7.219,5.888-1.686.662-3.44,1.203-5.212,1.584-1.148.247-2.481.353-3.599-.095-.855-.343-2.226-1.468-1.475-2.455s2.245-1.366,3.234-2.052c1.655-1.147,2.522-3.205,2.126-5.189-.596-2.984-3.671-4.437-6.346-5.081-2.502-.602-3.569,3.254-1.063,3.857.884.213,1.749.458,2.53.936.263.161.361.246.538.408.327.299.254.171.394.534-.184-.476.108.568.063.224-.035-.27-.132.741.008.143-.035.149-.242.676-.036.245-.066.138-.478.746-.17.341-.109.143-.479.434-.118.17-.275.201-.593.34-.891.502-1.047.57-2.152,1.182-2.995,2.04-1.765,1.795-1.953,4.448-.508,6.506,2.753,3.921,7.627,3.409,11.669,2.227,4.446-1.301,9.078-3.338,11.744-7.313.34-.506.677-1.064.879-1.641.29-.827.045-1.57-.129-2.404l-.918-4.408c-.627-3.012-1.254-6.024-1.881-9.036-.524-2.519-4.381-1.453-3.857,1.063h0Z"/><path class="h" d="M65.727,124.854c-11.362-4.022-22.72-8.058-34.077-12.093-2.43-.863-3.476,3-1.063,3.857,11.358,4.035,22.715,8.071,34.077,12.093,2.431.861,3.477-3.003,1.063-3.857h0Z"/><path class="h" d="M263.923,182.987c-23.041-8.171-46.082-16.341-69.123-24.511-23.043-8.171-46.086-16.341-69.129-24.511-13.011-4.613-26.022-9.226-39.033-13.84-2.431-.862-3.477,3.001-1.063,3.857,23.044,8.17,46.087,16.341,69.131,24.511,23.042,8.17,46.085,16.34,69.127,24.511,13.009,4.613,26.018,9.226,39.028,13.84,2.431.862,3.477-3.001,1.063-3.857h0Z"/><path class="d" d="M112.548,53.924c-1.993.07-4.614-.57-5.128-1.278-2.469-3.4-1.509-6.66-1.288-13.315.166-5.002-1.234-12.737-3.385-17.109-2.388-4.852-5.916-9.464-10.203-12.761-2.438-1.875-10.914-7.696-22.78-7.469-11.353.217-18.254,5.367-20.971,7.351-4.665,3.405-8.838,8.692-10.744,15.362-2.001,6.999-3.035,17.066,4.976,26.98,1.143,1.746,2.548,3.498,4.251,5.248,2.97,3.552,7.103,8.468,5.46,12.994-.326.899-.449,1.874-.158,2.781.772,2.395,2.942,1.85,4.743,2.026,1.191.114,2.234.556,3.197,1.177,1.062,1.075,3.033,2.853,5.131,4.362,1.383.993,2.826,1.872,4.096,2.342,2.708,1.015,4.847.823,6.617.125,3.471-1.368,6.608-3.436,8.372-6.125.422-.646,1.268-.868,1.961-.529.111.057,9.008,3.25,9.008,3.25"/><path class="j" d="M41.523,17.064c-1.471,2.278-2.672,4.837-3.474,7.641-1.358,4.752-2.271,10.918-.21,17.491,5.786,3.979,15.594,1.457,18.642-1.805,5.774,1.572,12.676,1.597,20.111.212.135-.45.342-.889.642-1.327.799-1.169,1.915-1.923,3.174-2.043,1.874-.179,3.935,1.093,5.131,2.584,2.377,2.965,3.13,6.117,2.476,9.452.334.202.539.324.539.324,3.912,2.332,11.743,2.739,17.519.174-.643-2.595-.098-5.631.061-10.437.166-5.002-1.234-12.737-3.385-17.109-2.388-4.852-5.916-9.464-10.203-12.761-2.438-1.875-10.914-7.696-22.78-7.469-11.353.217-18.254,5.367-20.971,7.351-2.704,1.974-5.243,4.58-7.27,7.721Z"/><path class="h" d="M78.315,42.523c.018-.803.149-1.587.628-2.229.25-.336.564-.617.81-.767.005-.003.527-.256.324-.179.055-.02.619-.161.331-.116,1.516-.235,3.093,1.09,3.996,2.384,2.338,3.352,2.253,6.987.497,10.614-.47.972-.266,2.161.718,2.736.877.513,2.264.259,2.736-.718,1.254-2.592,2.12-5.445,1.828-8.354-.291-2.893-1.53-5.597-3.464-7.77-1.842-2.069-4.936-3.544-7.704-2.635-3.027.994-4.629,3.989-4.698,7.033-.058,2.575,3.942,2.574,4,0h0Z"/><path class="h" d="M44.334,50.141c-3.404-4.319-5.511-9.534-5.691-15.051-.146-4.469.73-9.198,2.568-13.282,3.361-7.47,10.231-13.166,17.897-15.89,9.46-3.362,20.008-2.188,28.674,2.788,3.381,1.941,6.286,4.445,8.761,7.47,3.367,4.115,5.544,8.769,6.645,13.949.577,2.712.947,5.482.957,8.258.011,2.8-.38,5.587-.381,8.386,0,2.201.37,4.392,1.534,6.293,1.481,2.421,4.604,2.899,7.251,2.861,2.572-.037,2.579-4.037,0-4-1.093.016-2.43-.051-3.442-.525-.021-.01-.369-.218-.161-.043.175.147-.279-.449-.267-.43-.229-.387-.415-.776-.549-1.205-.587-1.881-.365-3.945-.243-5.889.164-2.62.353-5.229.157-7.852-.211-2.828-.661-5.659-1.343-8.411-2.323-9.371-8.721-17.693-17.122-22.442C80.223-.164,68.77-1.568,58.527,1.894c-8.29,2.802-15.965,8.617-20.057,16.435-2.598,4.962-3.95,10.809-3.836,16.412.138,6.778,2.708,12.945,6.872,18.229.669.849,2.128.7,2.828,0,.838-.838.671-1.977,0-2.828h0Z"/><path class="e" d="M55.855,57.495c.629,1.72,3.294,4.774,6.035,3.17,3.338-2.508.619-6.573-1.871-7.586-2.039-.829-5.221.556-4.163,4.416Z"/><path class="h" d="M40.889,52.051c1.774,2.826,4.065,5.153,6.157,7.725,1.677,2.062,3.64,4.523,4.016,7.242.179,1.29-.348,2.322-.547,3.563-.26,1.621.082,3.441,1.263,4.654,1.917,1.968,4.492.87,6.736,1.846,1.086.472,1.884,1.499,2.766,2.262,1.31,1.133,2.678,2.218,4.116,3.185,2.66,1.79,5.799,3.1,9.064,2.715,2.81-.331,5.63-1.814,7.895-3.458,1.159-.841,2.245-1.773,3.154-2.883.132-.161.782-.795.748-.982l.094-.142c-.595.051-.658.13-.19.236.083.056.214.081.307.115,2.894,1.062,5.8,2.094,8.701,3.135,2.427.871,3.472-2.993,1.063-3.857-2.591-.93-5.182-1.859-7.77-2.797-1.587-.575-3.205-1.132-4.692.143-.984.844-1.642,2.047-2.635,2.925-1.057.935-2.279,1.675-3.531,2.318-2.523,1.295-4.86,1.755-7.56.594-2.793-1.201-5.291-3.392-7.471-5.467-1.046-.996-2.174-1.701-3.579-2.103-1.203-.344-2.406-.23-3.627-.366-.83-.092-1.06-.484-.93-1.413.087-.621.386-1.216.505-1.836.145-.759.197-1.531.134-2.3-.58-7.016-7.255-11.531-10.734-17.075-1.365-2.175-4.828-.17-3.454,2.019h0Z"/><path class="e" d="M71.729,68.114c.936-.315,1.927-.467,2.915-.447"/><path class="h" d="M60.273,50.533l1.726-.481c.26-.062.487-.181.68-.358.218-.141.389-.328.515-.561.146-.23.225-.477.237-.744.06-.266.048-.532-.036-.798l-.202-.478c-.178-.301-.417-.54-.718-.718l-.478-.202c-.354-.095-.709-.095-1.063,0-.575.16-1.151.321-1.726.481-.26.062-.487.181-.68.358-.218.141-.389.328-.515.561-.146.23-.225.477-.237.744-.06.266-.048.532.036.798l.202.478c.178.301.417.54.718.718l.478.202c.354.095.709.095,1.063,0h0Z"/><path class="h" d="M104.49,48.265c-2.678.967-5.47,1.354-8.31,1.238-1.293-.053-2.329-.178-3.596-.485-.609-.147-1.207-.33-1.795-.547-.298-.11-.725-.313-1.227-.605-2.23-1.296-4.246,2.159-2.019,3.454,2.518,1.464,5.503,2.022,8.38,2.171,3.235.167,6.58-.267,9.63-1.369,1.015-.367,1.699-1.361,1.397-2.46-.269-.98-1.439-1.766-2.46-1.397h0Z"/><path class="h" d="M51.085,40.519c7.646,3.53,16.22,3.575,24.402,2.296,1.068-.167,1.66-1.504,1.397-2.46-.313-1.139-1.389-1.564-2.46-1.397-7.01,1.096-14.752,1.14-21.32-1.892-.98-.453-2.154-.277-2.736.718-.505.863-.268,2.281.718,2.736h0Z"/><path class="h" d="M40.716,45.664c4.923,1.279,10.724.431,15.081-2.21.923-.559,1.269-1.794.718-2.736-.54-.923-1.809-1.28-2.736-.718-3.388,2.054-8.114,2.816-11.998,1.807-1.045-.271-2.171.345-2.46,1.397-.284,1.033.347,2.188,1.397,2.46h0Z"/><path class="h" d="M61.98,58.979c.003-.037.007-.074.012-.11l-.086.638c.027-.183.077-.361.148-.532l-.242.573c.077-.179.175-.346.293-.501l-.375.486c.125-.161.269-.305.431-.43l-.486.375c.148-.112.307-.205.477-.278l-.573.242c.094-.039.19-.071.289-.097.312-.074.584-.217.816-.43.261-.169.467-.394.618-.673.175-.275.27-.573.285-.892.071-.319.057-.638-.043-.957l-.242-.573c-.213-.361-.5-.648-.861-.861l-.573-.242c-.425-.114-.851-.114-1.276,0-.307.08-.6.222-.887.35-.11.049-.215.105-.316.171-.263.172-.514.368-.75.577-.087.077-.167.16-.242.249-.275.328-.556.668-.729,1.063-.121.276-.271.584-.348.888-.014.054-.025.108-.034.163-.045.265-.082.535-.107.803-.012.33.056.639.207.925.097.298.262.555.496.772.217.234.475.399.772.496.286.15.594.219.925.207l.638-.086c.407-.114.76-.32,1.059-.617l.375-.486c.217-.374.326-.778.328-1.211h0Z"/><path class="e" d="M60.651,57.422c-.352.45-.674.923-.964,1.416"/><path class="d" d="M179.929,147.412c-5.415-.175-11.447-.378-17.322-.633-4.822-.212-9.549-.448-13.746-.731h-1.737c-.489,1.49-1.016,3.049-1.478,4.398-.75,2.19-2.862,3.594-5.174,3.483-2.264-.109-4.53-.186-6.796-.232-3.917,13.046-10.566,35.192-10.566,35.192l3.373,11.565c3.561,12.477,7.432,27.128,11.605,39.413.222.654.469,1.344,1.005,1.781.479.391,1.115.518,1.723.631,11.503,2.137,23.095,3.79,34.736,4.954,4.409,3.999,8.871,8.06,12.098,10.96,2.573,2.313,6.436,2.38,9.096.167,4.391-3.654,10.885-9.499,15.656-14.717,2.556-2.795,2.358-7.129-.404-9.721l-19.267-18.08c-1.464-1.374-2.953-2.779-3.918-4.54-.706-1.289-1.105-2.72-1.489-4.139-2.421-8.951-4.038-15.327-5.804-24.698.781-.512,1.562-1.024,2.343-1.535,2.959-1.945,5.977-3.938,8.217-6.684,1.132-1.391,2.016-2.806,2.723-4.256,1.674-3.501,2.193-7.18,2.075-11.046-.094-3.513-.719-7.191-1.485-11.035-.2.035-.413.035-.613.024-3.429-.162-8.748-.325-14.85-.522Z"/><path class="j" d="M208.687,297.183c-1.392.405-2.935.457-4.676.089-3.974-.841-6.403-5.105-6.73-9.154-.327-4.049.537-8.036,1.27-12.032.733-3.996.75-7.427-1.463-10.833,0,0-1.561-2.403-3.665-5.64.797-.268,1.557-.685,2.238-1.252,4.391-3.654,10.885-9.499,15.656-14.717.03-.033.059-.066.089-.099,6.659-1.494,17.374,3.2,19.217,9.655,1.687,5.91-1.024,11.874-3.811,16.861-2.906,5.201-5.796,10.254-8.419,15.789-2.72,5.739-5.536,10.12-9.705,11.334Z"/><path class="j" d="M118.495,271.03c-1.218-1.121-2.166-2.552-2.564-4.218-.982-4.105,1.647-8.361,4.993-10.553,3.347-2.192,7.311-2.896,11.066-4.072s7.623-3.087,9.606-6.742c0,0,.606-1.117,1.496-2.748,5.665,1.02,13.942,2.271,19.645,3.056,2.896,2.847,2.561,4.728,2.561,4.728,3.432,3.392,3.64,8.49,3.679,13.607.016,2.112-.86,4.26-1.69,5.743-1.545,2.762-4.615,4.593-8.541,4.538-10.187-.143-20.249.228-30.424.117-2.54-.028-5.093-.64-7.401-1.791-.866-.432-1.695-.993-2.427-1.666Z"/><path class="h" d="M253.853,309.106h-74.25l2,2c0-12.196,0-24.391,0-36.587,0-1.081-.916-2-2-2h-83.017l2,2c0-12.196,0-24.391,0-36.587,0-1.081-.916-2-2-2h-14.881c-2.574,0-2.578,4,0,4h14.881l-2-2c0,12.196,0,24.391,0,36.587,0,1.081.916,2,2,2h83.017l-2-2c0,12.196,0,24.391,0,36.587,0,1.081.916,2,2,2h74.25c2.574,0,2.578-4,0-4h0Z"/><path class="h" d="M172.316,231.399c-2.346-6.505-4.223-13.172-5.59-19.951-.679-3.366-1.242-6.758-1.659-10.167-.164-1.341-.396-2.759-.243-4.115.138-1.225.592-1.751,1.594-2.407,6.016-3.942,12.03-7.888,18.045-11.832,2.643-1.733,5.336-3.479,7.601-5.703s4.03-4.967,5.202-7.921c2.807-7.067,1.45-14.95.008-22.161-.504-2.522-4.361-1.455-3.857,1.063,1.252,6.261,2.47,13.011.299,19.214-2.195,6.272-7.634,9.668-12.913,13.128-3.008,1.971-6.015,3.944-9.022,5.917-1.504.986-3.007,1.973-4.511,2.958-1.445.947-3.044,1.798-4.357,2.922-2.047,1.75-2.272,4.7-2.043,7.201.312,3.41.861,6.819,1.469,10.187,1.397,7.734,3.455,15.337,6.122,22.729.867,2.403,4.733,1.366,3.857-1.063h0Z"/><path class="h" d="M125.995,200.986c2.583,9.366,5.031,18.77,7.745,28.1.682,2.346,1.382,4.687,2.107,7.021.617,1.985,1.042,4.434,2.208,6.177,1.396,2.086,4.303,2.142,6.545,2.553,2.552.468,5.109.91,7.671,1.326,5.937.965,11.897,1.792,17.871,2.495,1.074.126,2-1.01,2-2,0-1.186-.922-1.873-2-2-4.895-.576-9.777-1.243-14.646-2.007-2.483-.39-4.963-.803-7.438-1.241-1.118-.198-2.235-.4-3.351-.607-.638-.118-1.276-.237-1.913-.36-.366-.071-1.071-.066-1.372-.316-.478-.397-.623-1.634-.807-2.203-.353-1.097-.7-2.196-1.04-3.297-.679-2.195-1.336-4.397-1.978-6.604-1.273-4.376-2.487-8.769-3.685-13.166-1.356-4.977-2.688-9.961-4.06-14.934-.683-2.478-4.544-1.426-3.857,1.063h0Z"/><path class="h" d="M179.394,184.334c.991,5.194,2.124,10.356,3.404,15.487.642,2.573,1.311,5.14,1.99,7.704.703,2.655,1.581,5.045,3.335,7.196,2.637,3.235,6.013,6.057,8.994,8.962l11.042,10.76c1.256,1.224,2.439,2.377,2.623,4.262.215,2.214-1.068,3.669-2.47,5.195-1.732,1.886-3.528,3.711-5.359,5.5-1.94,1.895-3.922,3.749-5.942,5.559-1.593,1.428-3.177,3.239-5.512,3.069-2.318-.17-3.923-2.285-5.499-3.766-2.323-2.183-4.641-4.371-6.96-6.558-1.872-1.766-4.706,1.058-2.828,2.828,2.163,2.04,4.326,4.081,6.492,6.118,1.766,1.661,3.487,3.685,5.745,4.666,2.239.972,4.736.919,6.951-.089,2.007-.914,3.667-2.733,5.283-4.2,3.924-3.561,7.746-7.261,11.284-11.209,1.627-1.816,2.701-3.782,2.821-6.262.112-2.309-.736-4.615-2.233-6.361-.904-1.054-1.983-1.983-2.976-2.95l-5.938-5.786c-3.349-3.263-6.698-6.526-10.047-9.789-1.298-1.265-2.643-2.521-3.534-4.118-.746-1.337-1.09-2.855-1.479-4.324-.415-1.57-.826-3.14-1.23-4.713-1.551-6.04-2.934-12.115-4.102-18.242-.482-2.526-4.338-1.456-3.857,1.063h0Z"/><path class="h" d="M211.937,245.472c5.156-1.088,11.581,1.507,15.049,5.337,5.356,5.915-.027,14.896-3.162,20.493-2.143,3.826-4.275,7.66-6.214,11.595-1.531,3.107-2.912,6.409-5.116,9.12-1.561,1.921-3.559,3.467-6.127,3.497-3.106.036-5.352-1.795-6.435-4.659-1.64-4.34-.343-9.38.462-13.762.825-4.49.923-8.85-1.575-12.855-1.36-2.179-4.822-.174-3.454,2.019,2.461,3.945,1.45,8.114.685,12.411-.797,4.475-1.544,9.403.218,13.747,1.455,3.589,4.253,6.38,8.185,6.945,3.427.492,6.593-.5,9.193-2.77,2.738-2.39,4.561-5.783,6.129-9.005,2.15-4.417,4.42-8.751,6.816-13.039,2.304-4.123,4.829-8.264,5.956-12.901.946-3.892.939-8.459-1.358-11.904-2.174-3.261-5.607-5.446-9.19-6.876-3.492-1.395-7.415-2.033-11.127-1.25-2.517.531-1.452,4.388,1.063,3.857h0Z"/><path class="h" d="M139.869,244.435c-3.884,6.852-13.521,6.12-19.594,9.868-3.064,1.891-5.634,5.037-6.33,8.63-.728,3.756.658,7.499,3.616,9.925,3.301,2.708,7.569,3.606,11.746,3.638,4.578.036,9.156-.019,13.733-.074,4.66-.056,9.321-.112,13.982-.072,3.814.033,7.481-.44,10.303-3.281,3.276-3.298,3.797-7.872,3.572-12.28-.219-4.283-1.098-8.55-4.185-11.722-1.798-1.848-4.626.982-2.828,2.828,2.213,2.274,2.805,5.423,2.991,8.487.199,3.271.246,6.676-1.933,9.376-2.069,2.563-5.145,2.614-8.165,2.59-4.089-.032-8.178.008-12.267.056s-8.169.105-12.253.103c-3.84-.001-7.691.101-11.099-1.967-2.473-1.501-3.973-4.193-3.23-7.089.795-3.099,3.245-5.272,6.044-6.598,3.444-1.632,7.312-2.124,10.836-3.555,3.481-1.413,6.626-3.51,8.516-6.844,1.271-2.243-2.183-4.261-3.454-2.019h0Z"/><path class="h" d="M111.571,210.193c-1.843-.487-4.262-1.451-5.824-1.654.091.352.144.415.159.189.03-.19.065-.38.104-.569.112-.605.231-1.209.351-1.812.182-.914.37-1.827.564-2.738.438-2.061.684-4.122-1.369-5.414-.839-.528-1.968-.774-2.891-1.105-.916-.328-1.839-.764-2.778-1.013-.716-.19-.097-.201-.238.141.17-.41.281-.875.419-1.297.304-.927.722-1.884.905-2.843.43-2.258-1.139-3.454-2.771-4.622-.742-.531-1.481-1.068-2.218-1.608-.311-.228-1.013-.563-1.211-.892.04.067.002.505.12.13.247-.79.865-1.619,1.264-2.337.374-.671.753-1.339,1.156-1.994,1.353-2.199-2.106-4.21-3.454-2.019-.985,1.601-2.129,3.337-2.778,5.106-.823,2.246.553,3.743,2.252,4.994.889.655,1.782,1.306,2.679,1.95.247.177.822.474,1.005.716.121.07.128.026.021-.135-.093.277-.185.554-.278.83-.672,2.014-1.82,4.267-.362,6.205.674.896,1.621,1.231,2.636,1.61,1.134.424,2.275.83,3.415,1.237.2.072,1.087.6.882.1.093.227-.216.969-.264,1.195-.258,1.213-.506,2.428-.742,3.646-.406,2.096-.853,4.323,1.226,5.693.954.629,2.24.823,3.323,1.139,1.208.354,2.417.704,3.634,1.026,2.491.659,3.554-3.198,1.063-3.857h0Z"/><path class="f" d="M111.023,99.346l-24.92,3.117c-1.896.053-3.46,1.684-3.645,3.818,0,0,1.444,13.333,2.345,18.198.438,2.364,1.471,4.441,3.592,4.507,7.066.239,22.39.424,33.008.093"/><path class="h" d="M111.023,97.346c-8.279,1.036-16.552,2.147-24.84,3.107-1.629.189-3.067.667-4.167,1.961-.974,1.145-1.623,2.677-1.523,4.194.176,2.662.601,5.334.924,7.981.413,3.384.799,6.786,1.406,10.142.356,1.969,1.077,4.023,2.731,5.27,1.568,1.182,3.558,1.013,5.42,1.061,10.135.258,20.294.327,30.428.017,2.568-.078,2.579-4.079,0-4-8.726.266-17.465.223-26.193.072-1.733-.03-3.466-.067-5.198-.115-.54-.015-1.322.106-1.829-.097-.574-.23-.859-.905-1.059-1.46-.492-1.36-.632-2.884-.842-4.309-.226-1.539-.428-3.081-.623-4.624-.373-2.954-.718-5.912-1.049-8.872-.156-1.399-.201-2.934,1.607-3.225,3.963-.637,7.991-1,11.974-1.498,4.277-.535,8.554-1.07,12.831-1.605,1.072-.134,2-.823,2-2,0-.977-.921-2.135-2-2h0Z"/><path class="d" d="M141.537,158.481c.383,2.6-.877,6.893-2.61,8.959-1.622,1.925-3.96,3.205-5.653,5.089-.393.433-.756.917-.867,1.481-.151.695-.222,1.622-.212,2.338.02,2.963-.423,4.041-1.058,4.777-.625.746-1.834,1.27-2.801,1.018-.343-.091-.665-.232-.947-.423-.02.131-.03.212-.03.212-.01,1.169-.202,3.063-.685,4.112-.494,1.068-1.421,1.814-2.6,2.116-.776.141-1.542-.151-2.106-.544v.887c0,1.814-1.29,2.56-2.59,2.922-.776.212-1.723.03-2.318-.484-.605-.504-1.028-.967-1.371-1.663-.272-.544-.494-1.098-.685-1.683-.383.564-.736,1.078-.736,1.078-.816.917-2.771.776-3.688-.03-.897-.776-1.784-2.106-2.056-3.275-1.522-6.611-1.935-9.674-2.026-16.043-.02-1.058.746-3.749,1.31-4.676.715-1.199,1.643-2.136,2.469-2.882,3.991-3.577,5.593-3.849,9.009-8.545.766.363,1.633.554,2.539.524,6.218-.171,12.435-.111,18.643.181.141.01.282.01.413,0l.655,4.555Z"/><path class="f" d="M127.752,53.727c-3.585-1.007-13.117-2.558-17.316-2.422-4.16.136-7.222,2.34-9.604,4.203-4.327,3.383-7.069,7.73-8.768,12.941-.754,4.763-1.854,9.211.586,13.372,3.607,6.166,10.103,10.056,14.63,15.585,7.356,8.995,8.83,21.303,9.054,32.962.012.377.024.743.024,1.108.047,3.549.024,7.109-.083,10.657-.051,1.909-.124,3.817-.218,5.725-.161,3.276,2.492,5.986,5.77,5.891,6.214-.18,12.436-.12,18.643.179,2.313.111,4.425-1.292,5.174-3.483.474-1.384,1.015-2.988,1.515-4.513,1.025.07,1.699.115,1.699.115,4.197.283,8.924.519,13.746.731,12.496.542,25.7.849,32.172,1.155.2.012.413.012.613-.024.578-.035,1.144-.2,1.556-.601.519-.483.684-1.261.802-1.981,2.9-17.955-7.993-39.8-18.556-54.171-12.119-16.469-31.453-31.335-50.41-37.088-.24-.103-.591-.219-1.032-.343Z"/><path class="h" d="M135.209,82.033c9.712,9.743,15.028,22.861,14.942,36.623-.048,7.661-1.515,15.237-3.621,22.581-.825,2.877-1.633,5.924-2.814,8.677-.44,1.025-1.307,1.783-2.423,1.977-.742.129-1.545.003-2.293-.028-1.144-.048-2.288-.088-3.433-.12-3.925-.109-7.852-.123-11.778-.041-1.405.029-2.893.283-4.127-.548-1.006-.678-1.556-1.746-1.613-2.946-.08-1.682.145-3.435.197-5.119.064-2.094.11-4.188.126-6.283.026-3.492-.004-6.988-.174-10.477-.32-6.583-1.142-13.283-3.425-19.501-1.146-3.123-2.619-6.137-4.558-8.847-1.887-2.639-4.145-4.925-6.527-7.116-4.449-4.092-10.647-8.638-10.537-15.302.053-3.18.605-6.505,1.912-9.41,1.299-2.888,3.076-5.505,5.38-7.684,1.966-1.859,4.363-3.711,6.952-4.583,2.422-.816,4.934-.607,7.433-.361,4.301.423,8.825.983,12.956,2.302,25.185,8.04,46.003,27.19,58.484,50.224,6.038,11.144,11.036,24.166,9.765,37.061-.067.683-.137,1.376-.28,2.048-.136.638-.062.75-.671.78-1.2.059-2.448-.1-3.648-.145-2.935-.11-5.871-.202-8.807-.297-7.503-.241-15.007-.485-22.507-.832-3.756-.174-7.511-.369-11.263-.619-2.57-.172-2.559,3.829,0,4,14.86.992,29.752,1.2,44.628,1.829,1.424.06,2.94.172,4.204-.627,1.589-1.004,1.912-2.774,2.146-4.493.454-3.33.488-6.688.165-10.032-.691-7.141-2.729-14.071-5.489-20.673-5.421-12.971-13.297-25.048-23.118-35.117-10.168-10.424-22.402-19.169-35.944-24.622-4.749-1.912-9.476-3.192-14.525-3.989-5.713-.901-11.767-1.993-17.133.793-5.914,3.071-10.367,8.461-12.844,14.57-.696,1.718-1.019,3.393-1.304,5.22-.281,1.803-.545,3.633-.487,5.462.121,3.8,1.762,6.874,4.099,9.779,4.304,5.351,10.366,9.052,14.179,14.831,3.773,5.719,5.521,12.529,6.285,19.273.856,7.562.759,15.243.526,22.838-.109,3.57-.793,7.249,1.772,10.157s6.225,2.467,9.734,2.423c4.253-.054,8.507.004,12.757.174,1.903.076,3.663.192,5.425-.665,1.392-.677,2.576-1.846,3.244-3.245.748-1.569,1.203-3.323,1.747-4.971.495-1.502.985-3.006,1.423-4.525,1.127-3.905,2.06-7.872,2.719-11.883,1.31-7.98,1.564-16.144-.122-24.091-1.458-6.867-4.326-13.622-8.323-19.397-1.949-2.817-4.168-5.436-6.585-7.861-1.82-1.826-4.649,1.002-2.828,2.828h0Z"/><path class="h" d="M117.603,152.148c-1.745,2.38-3.82,4.198-6.118,6.014-2.55,2.015-5.085,4.136-6.182,7.295-1.11,3.197-.834,6.548-.537,9.867.315,3.533.899,7.154,1.834,10.578.498,1.823,1.751,3.875,3.462,4.792,1.796.962,4.12.793,5.62-.61,1.884-1.762-.949-4.586-2.828-2.828-.955.893-2.257-1.923-2.396-2.416-.566-2.002-.928-4.119-1.267-6.169-.263-1.59-.432-3.191-.535-4.799-.108-1.691-.39-3.617-.068-5.285.297-1.536.786-2.947,1.832-4.133,1.112-1.26,2.459-2.326,3.773-3.367,2.635-2.088,4.862-4.188,6.865-6.919.639-.872.146-2.231-.718-2.736-1.014-.593-2.096-.156-2.736.718h0Z"/><path class="h" d="M111.023,173.002c.089,4.117.658,8.363,1.367,12.417.514,2.943,1.728,6.935,4.963,7.891,1.475.436,3.124.071,4.404-.749,1.441-.924,2.146-2.378,2.211-4.062.098-2.574-3.902-2.57-4,0-.025.648-.277.768-.916.934-.719.186-1.128-.307-1.5-.914-.97-1.583-1.237-3.61-1.497-5.426-.024-.17-.048-.339-.072-.509-.01-.074-.096-.706-.044-.319-.056-.421-.11-.842-.163-1.264-.121-.959-.235-1.919-.34-2.88-.186-1.699-.375-3.409-.412-5.12-.055-2.57-4.055-2.579-4,0h0Z"/><path class="h" d="M125.363,181.932c-.022.917-.073,1.682-.279,2.544-.053.222-.109.445-.187.659.097-.263-.064.126-.113.211-.124.213-.33.438-.439.52-.525.392-.885.398-1.235.12l-.15-.138c-.167-.183-.176-.187-.027-.011-.064.075.127.386-.025-.09-.141-.439-.265-.882-.372-1.331-.98-4.118-.842-8.551-.719-12.78.075-2.575-3.925-2.573-4,0-.083,2.839-.108,5.686.104,8.52.106,1.42.27,2.844.531,4.244.208,1.117.434,2.388.992,3.39.628,1.128,1.897,1.96,3.131,2.268,1.489.372,2.986-.113,4.177-1.027,2.184-1.677,2.552-4.517,2.612-7.099s-3.94-2.574-4,0h0Z"/><path class="h" d="M126.647,167.605c-1.28,1.308-2.121,2.996-2.487,4.789-.404,1.981-.113,3.961-.064,5.957.041,1.668.292,3.337,1.569,4.54,1.26,1.186,3.095,1.608,4.731,1.04,3.236-1.123,3.771-4.363,3.799-7.372.007-.727-.087-1.67.275-2.328.399-.725,1.252-1.33,1.879-1.855,1.36-1.139,2.847-2.158,3.996-3.527,2.247-2.676,3.63-6.879,3.192-10.372-.134-1.072-.823-2-2-2-.977,0-2.135.921-2,2,.361,2.883-.704,6.332-2.795,8.372-1.277,1.247-2.778,2.235-4.08,3.453-1.642,1.535-2.323,3.045-2.445,5.274-.049.885.015,1.778-.087,2.661-.032.276-.084.528-.143.8-.035.138-.075.274-.122.408.088-.179.083-.17-.014.029-.075.142-.157.279-.25.409.308-.434-.234.196-.433.255-.385.114-.642.027-.845-.249-.357-.485-.217-1.364-.237-1.934-.034-.957-.133-1.91-.149-2.868-.028-1.687.325-3.413,1.54-4.654,1.802-1.841-1.024-4.672-2.828-2.828h0Z"/><path class="i" d="M80.073,176.042c-11.429-1.739-22.689-4.578-34.025-6.821-2.623-.519-5.251-1.025-7.896-1.421-1.428-.214-3.143.598-3.038,2.314.326,5.317,1.138,10.592,1.572,15.9l3.038-2.314c-12.202-2.289-24.496-4.063-36.696-6.365-1.272-.24-2.589.354-2.952,1.676-.322,1.171.396,2.711,1.676,2.952,12.2,2.302,24.493,4.076,36.696,6.365,1.403.263,3.175-.639,3.038-2.314-.434-5.308-1.247-10.583-1.572-15.9l-3.038,2.314c11.312,1.695,22.455,4.541,33.672,6.756,2.741.541,5.487,1.066,8.249,1.487,1.28.195,2.58-.323,2.952-1.676.312-1.135-.387-2.756-1.676-2.952h0Z"/><path class="i" d="M70.61,201.837c-10.482,3.692-21.103,6.974-31.576,10.69-1.417.503-2.294,2.123-1.434,3.526,2.784,4.542,5.979,8.817,8.855,13.299l1.434-3.526c-11,3.435-22.032,6.765-33.036,10.189-2.94.915-1.685,5.55,1.276,4.629,11.003-3.424,22.036-6.754,33.036-10.189,1.42-.443,2.3-2.176,1.434-3.526-2.876-4.482-6.07-8.758-8.855-13.299l-1.434,3.526c10.473-3.716,21.095-6.998,31.576-10.69,1.222-.43,2.037-1.64,1.676-2.952-.326-1.185-1.724-2.109-2.952-1.676h0Z"/></g></svg>