<svg id="b" xmlns="http://www.w3.org/2000/svg" width="397.88" height="291.53" viewBox="0 0 397.88 291.53" style="color: initial !important;"><defs><style>.d{fill:#ffffff;}.e{fill:none;}.f{fill:#a095c1;}.g{fill:#211715;}.h{fill:#645d5c;}.i{fill:#cfcfcf;}</style></defs><g id="c"><path class="d" d="M325.296,106.923c-2.514-2.046-5.147-3.941-7.907-5.645-1.428-.882-2.979-1.737-4.657-1.728-3.495.02-5.773,3.563-7.377,6.668l-3.128,4.364c2.817,2.414,4.852,5.734,5.711,9.346v7.834c5.432-1.423,10.139-2.661,13.663-3.588,1.456-.383,8.056.396,11.262,10.683,1.023,3.281,1.685,8.761,1.116,13.268-.312.105-.624.209-.937.314,6.468,2.602,13.3,4.284,20.232,4.986,3.298.334,6.791.412,9.74-1.101,2.949-1.512,5.075-5.097,3.907-8.199-1.259-3.344-5.33-4.465-8.12-6.697-1.353-1.083-3.107-2.624-4.511-3.64-5.112-3.696-6.642-8.404-12.014-10.541-.765-.304-1.817-.361-2.871-.252-.201-1.888-1.541-3.667-2.852-5.154-3.459-3.924-7.203-7.618-11.258-10.919Z"/><path class="g" d="M307.081,107.228c1.101-2.111,2.743-5.47,5.478-5.671,1.651-.122,3.244,1.075,4.564,1.913,1.54.978,3.042,2.017,4.505,3.108,2.966,2.211,5.751,4.67,8.389,7.261,1.304,1.281,2.572,2.599,3.805,3.948,1.165,1.275,2.477,2.572,3.217,4.158.707,1.516.337,2.933-1.106,3.795-1.749,1.044-3.969.79-5.903.589-1.076-.112-2,.999-2,2,0,1.174.921,1.888,2,2,4.223.438,9.44-.237,11.068-4.859,1.611-4.576-2.673-8.643-5.49-11.637-3.155-3.352-6.534-6.499-10.163-9.334-1.861-1.454-3.768-2.843-5.75-4.128-1.882-1.22-3.856-2.498-6.134-2.758-4.86-.555-7.951,3.797-9.933,7.596-1.189,2.28,2.262,4.304,3.454,2.019h0Z"/><path class="d" d="M329.538,130.233c2.928-1.453,3.44-4.675,6.733-6.379,1.534-.794,4.402-1.245,6.007-.606,5.371,2.137,6.902,6.844,12.014,10.541,1.404,1.016,3.158,2.557,4.511,3.64,2.791,2.232,6.862,3.353,8.12,6.697,1.168,3.102-.958,6.686-3.907,8.199-2.949,1.512-6.442,1.435-9.74,1.101-7.123-.721-14.14-2.477-20.763-5.196"/><path class="g" d="M330.547,131.96c2.234-1.19,3.306-3.297,4.992-5.058,1.474-1.541,4.113-2.526,6.207-1.725,2.283.873,4.005,2.786,5.576,4.573,1.853,2.109,3.701,4.08,5.96,5.766,2.092,1.562,3.964,3.419,6.189,4.8,1.833,1.138,4.472,2.146,5.457,4.218.951,2-.373,4.31-2.005,5.51-2.348,1.726-5.579,1.697-8.348,1.497-7.377-.533-14.694-2.458-21.53-5.239-1.001-.407-2.198.442-2.46,1.397-.315,1.145.392,2.051,1.397,2.46,7.061,2.873,14.556,4.717,22.159,5.348,3.435.285,7.136.138,10.198-1.624,2.636-1.517,4.631-4.316,4.882-7.379.254-3.097-1.546-5.568-3.94-7.303-1.111-.805-2.325-1.448-3.496-2.158-1.203-.729-2.255-1.586-3.336-2.484-2.457-2.041-4.967-3.868-7.1-6.269-1.931-2.174-3.786-4.431-6.332-5.924-3.022-1.772-6.618-1.847-9.755-.238-1.577.809-2.764,2.102-3.828,3.486-.856,1.114-1.64,2.219-2.905,2.893-2.273,1.211-.254,4.665,2.019,3.454h0Z"/><path class="d" d="M234.387,180.081c34.179-9.721,67.286-21.12,99.593-31.956.569-4.507-.094-9.987-1.116-13.268-3.206-10.287-9.806-11.066-11.262-10.683-2.986.786-6.875,1.806-11.372,2.981l-2.291-7.226c-.949-3.99-3.332-7.623-6.615-10.077-.871-.651-1.993-.859-3.053-.613-25.978,6.031-53.205,11.808-79.131,17.85l-21.772,4.548"/><path class="d" d="M27.048,206.485c7.233,3.761,11.766,6.087,19.32,9.442,12.452,5.53,26.957,9.617,40.046,7.105.651-.137,1.309-.294,1.975-.469l5.636-1.723c-.161-.231-.293-.487-.392-.764-1.939-5.421-6.038-12.701-8.859-15.427-2.211-2.136-4.102-4.583-6.221-6.807-1.984,1.493-3.953,2.883-6.477,4.178-2.207.858-6.021,1.347-8.187,1.1s-4.401-.825-6.351-1.826c-6.864-3.522-12.216-6.081-18.285-9.297-2.948-1.563-8.488-4.971-12.105-6.909l.055.812c-3.786-1.639-8.111-1.863-11.515-.648-2.791.996-5.792,2.797-8.046,4.619-3.418,2.763-6.297,7.211-5.581,11.413.474,2.778,2.766,4.834,5.65,5.593,5.708,1.502,14.902-2.852,19.338-.402"/><path class="d" d="M107.148,214.318c2.466-2.58,4.857-3.951,7.552-5.016,1.563-.617,4.411-1.519,6.011-2.693-.872-2.365-1.813-4.708-2.847-7.018-3.923-8.758-9.253-16.029-16.062-22.969-6.546-6.672-14.768-11.28-22.619-16.485h-35.028l-24.355,10.357c-3.46,1.779-6.77,4.922-8.858,8.107-1.901,2.899-2.811,6.613-1.311,9.8,1.885-1.273,4.026-2.424,6.056-3.148,3.404-1.215,7.729-.991,11.515.648l-.055-.812c3.617,1.938,9.157,5.346,12.105,6.909,6.069,3.217,11.421,5.775,18.285,9.297,1.95,1.001,4.185,1.579,6.351,1.826s5.98-.242,8.187-1.1c2.524-1.296,4.493-2.685,6.477-4.178,2.119,2.225,4.01,4.671,6.221,6.807,2.821,2.726,6.92,10.006,8.859,15.427.628,1.756,2.562,2.698,4.308,2.045,3.583-1.339,6.443-4.529,8.984-7.539"/><path class="g" d="M219.67,129.017c24.708-5.755,49.521-11.042,74.246-16.722,1.606-.369,3.378-1.024,5.02-1.142,1.26-.091,2.329,1.191,3.124,2.023,1.953,2.043,3.266,4.551,3.948,7.284.623,2.496,4.482,1.439,3.857-1.063-.666-2.666-1.861-5.159-3.531-7.34s-3.954-4.69-6.863-4.905c-1.503-.111-3.072.468-4.522.803-1.711.395-3.422.787-5.134,1.178-3.288.751-6.578,1.496-9.868,2.236-13.105,2.949-26.225,5.83-39.332,8.77-7.342,1.647-14.68,3.313-22.009,5.02-2.506.584-1.445,4.441,1.063,3.857h0Z"/><path class="g" d="M234.918,182.009c26.247-7.472,52.169-16.019,78.034-24.707,7.187-2.414,14.371-4.838,21.559-7.249.926-.311,1.359-1,1.468-1.929.729-6.209-.169-13.21-3.264-18.716-1.894-3.37-5.049-6.498-9.003-7.165-2.824-.476-5.828.84-8.527,1.549-4.028,1.058-8.057,2.114-12.086,3.167-19.098,4.99-38.201,9.982-57.386,14.631-6.536,1.584-13.107,3.007-19.657,4.533-2.506.584-1.445,4.442,1.063,3.857,14.119-3.289,28.215-6.602,42.267-10.179,17.372-4.422,34.715-8.954,52.051-13.518.272-.072.557-.126.825-.212-.679.216-.123.037.19.029.116-.003.231.017.346.022.38.016-.461-.102.055.012.325.072.647.143.965.245.69.221,1.106.427,1.93.979.724.485,1.526,1.256,2.166,2.038,4.053,4.953,4.784,12.61,4.066,18.727l1.468-1.929c-25.632,8.598-51.218,17.346-77.066,25.283-7.487,2.299-14.994,4.529-22.527,6.673-2.472.704-1.421,4.564,1.063,3.857h0Z"/><path class="f" d="M77.816,155.538c5.62-1.448,10.391-2.676,10.391-2.676,15.075-4.742,30.517-8.313,46.144-10.67l68.99-10.326c2.803-.419,5.678.144,8.08,1.648,8.559,5.361,15.125,13.726,19.7,22.804,5.277,10.471,8.176,21.95,10.994,33.331.659,2.662,1.311,5.499.431,8.097-14.737,7.378-32.352,7.329-46.927,10.452-11.252,2.412-22.123,7.168-32.762,11.455-11.475,4.624-23.568,9.547-35.949,7.274-2.527-9.254-5.1-18.536-9.043-27.338-3.923-8.758-9.253-16.029-16.062-22.969-8.011-8.165-18.532-13.239-27.81-20.099,1.288-.332,2.577-.664,3.824-.985Z"/><path class="g" d="M84.58,190.272c-1.285.967-2.503,2.023-3.73,3.061-.673.569-1.345,1.14-2.019,1.706-.309.26-.618.519-.93.776-.135.111-.841.668-.358.298-1.029.787-1.374,2.113-.405,3.141,1.688,1.79,3.242,3.702,4.929,5.493,1.087,1.154,2.212,2.214,3.139,3.507,2.181,3.043,3.981,6.4,5.491,9.821.719,1.63,1.114,3.533,2.448,4.797,1.415,1.34,3.49,1.77,5.328,1.175,4.08-1.319,7.192-4.893,9.866-8.054,1.653-1.954-1.163-4.797-2.828-2.828-1.25,1.477-2.522,2.945-3.949,4.257-1.165,1.071-2.858,2.604-4.482,2.872-1.346.222-1.623-1.076-2.013-2.059-.672-1.69-1.421-3.35-2.239-4.974-1.489-2.955-3.178-5.833-5.231-8.434-1.014-1.284-2.228-2.378-3.327-3.586-1.449-1.592-2.825-3.249-4.303-4.816l-.405,3.141c1.254-.959,2.447-1.993,3.652-3.013.677-.573,1.353-1.146,2.033-1.715.317-.265.633-.529.953-.79.105-.086.211-.171.317-.257.459-.374-.276.203.083-.067.862-.649,1.308-1.727.718-2.736-.497-.849-1.868-1.371-2.736-.718h0Z"/><path class="g" d="M26.138,186.814c6.03,3.249,11.839,6.835,17.955,9.935,3.637,1.843,7.293,3.65,10.926,5.5,3.549,1.807,7.236,3.144,11.284,2.896,1.914-.117,3.892-.394,5.72-.991,2.106-.688,4.049-2.078,5.846-3.345,2.088-1.471.092-4.941-2.019-3.454-1.433,1.01-2.969,2.151-4.592,2.84-1.399.594-3.09.807-4.594.924-3.681.286-6.819-.897-10.05-2.54-6.338-3.222-12.813-6.232-18.98-9.777-3.158-1.816-6.271-3.714-9.478-5.443-2.266-1.221-4.288,2.231-2.019,3.454h0Z"/><path class="g" d="M26.038,208.212c15.15,7.877,31.05,16.221,48.393,17.444,4.845.342,9.776.049,14.488-1.165,2.491-.642,1.435-4.501-1.063-3.857-7.921,2.042-16.361,1.192-24.213-.757-8.207-2.037-15.964-5.393-23.567-9.039-4.049-1.942-8.036-4.008-12.019-6.08-2.281-1.186-4.306,2.265-2.019,3.454h0Z"/><path class="g" d="M27.734,183.971c-4.842-2.021-10.036-1.903-14.787.26-4.419,2.012-8.744,5.166-11.181,9.449-2.252,3.958-2.718,9.181.803,12.57,3.133,3.015,7.405,3.212,11.477,2.677,2.291-.301,4.557-.787,6.851-1.056,1.632-.191,3.682-.427,5.142.33,2.282,1.184,4.307-2.267,2.019-3.454-3.003-1.558-6.501-1.028-9.703-.524-3.168.499-6.775,1.535-9.973.758-1.518-.369-2.967-1.198-3.796-2.558-.903-1.481-.727-3.3-.207-4.883,1.291-3.926,4.829-6.698,8.281-8.672,2.019-1.154,4.197-2.163,6.545-2.345,2.582-.201,5.084.309,7.464,1.303.997.416,2.2-.449,2.46-1.397.317-1.152-.396-2.042-1.397-2.46h0Z"/><path class="g" d="M36.67,291.464c6.221-1.523,12.392-3.256,18.561-4.975,10.02-2.791,20.02-5.653,30.015-8.533,12.877-3.709,25.744-7.456,38.606-11.219,14.783-4.325,29.56-8.672,44.332-13.033,15.735-4.645,31.466-9.305,47.194-13.975,15.734-4.672,31.464-9.355,47.192-14.046,14.778-4.407,29.553-8.822,44.327-13.244,12.867-3.851,25.733-7.708,38.597-11.57,10.002-3.004,20.003-6.011,30.002-9.025,6.183-1.864,12.366-3.728,18.544-5.607.814-.248,1.627-.495,2.441-.744,2.454-.751,1.408-4.614-1.063-3.857-5.111,1.565-10.23,3.106-15.347,4.651-9.164,2.766-18.33,5.524-27.497,8.279-12.259,3.684-24.52,7.362-36.783,11.035-14.4,4.313-28.801,8.62-43.205,12.92-15.585,4.652-31.172,9.297-46.763,13.932-15.815,4.702-31.634,9.394-47.456,14.072-15.091,4.462-30.185,8.912-45.286,13.34-13.411,3.933-26.827,7.852-40.252,11.737-10.775,3.119-21.556,6.22-32.353,9.261-7.182,2.023-14.367,4.044-21.59,5.914-1.092.283-2.185.561-3.281.829-2.499.612-1.441,4.47,1.063,3.857h0Z"/><path class="g" d="M11.203,186.969c-.935-3.06.415-6.07,2.262-8.493,1.957-2.569,4.485-4.757,7.345-6.256,2.281-1.195.261-4.649-2.019-3.454-3.556,1.864-6.589,4.688-8.947,7.917s-3.705,7.4-2.498,11.35c.75,2.455,4.612,1.408,3.857-1.063h0Z"/><path class="g" d="M78.174,161.863c4.523,2.992,9.172,5.798,13.593,8.943,4.376,3.114,8.279,6.676,11.856,10.679,7.079,7.924,12.088,16.998,15.639,26.985,2.216,6.232,3.976,12.612,5.717,18.989.17.623.73,1.279,1.397,1.397,15.234,2.687,29.762-4.332,43.512-9.916,7.119-2.891,14.291-5.72,21.722-7.714,6.781-1.82,13.743-2.707,20.685-3.664,8.185-1.128,16.397-2.386,24.227-5.117,2.415-.842,1.376-4.708-1.063-3.857-13.502,4.709-27.908,4.787-41.738,7.986-14.544,3.365-27.857,10.292-41.882,15.19-7.803,2.726-16.121,4.695-24.4,3.234l1.397,1.397c-3.082-11.285-6.209-22.813-11.889-33.121-5.185-9.41-12.476-17.905-21.048-24.375-5.029-3.796-10.456-7.018-15.706-10.49-2.153-1.424-4.159,2.039-2.019,3.454h0Z"/><path class="g" d="M209.522,134.7c16.353,9.794,23.565,28.514,28.26,46.047.72,2.687,1.398,5.386,2.069,8.086.675,2.719,1.613,5.581.771,8.363-.747,2.469,3.113,3.525,3.857,1.063.803-2.655.445-5.372-.168-8.026-.608-2.629-1.29-5.245-1.965-7.858-1.332-5.157-2.774-10.291-4.549-15.315-3.301-9.349-7.779-18.311-14.353-25.805-3.432-3.912-7.435-7.333-11.904-10.009-2.214-1.326-4.227,2.131-2.019,3.454h0Z"/><path class="d" d="M164.957,61.126c-8.175-3.282-15.311-6.147-15.311-6.147l-.214.103c-.783.378-3.59,1.733-6.34,3.06l-6.097,2.943s0,0-.001,0c-10.55,7.015-17.251,10.649-25.858,21.271-12.367,15.263-21.964,36.382-25.572,56.368l-.884,6.401c-.59,4.267,3.425,7.741,7.551,6.504,13.793-4.134,27.88-7.289,42.118-9.437l7.76-1.17c.008-.001.011-.011.005-.016l-2.654-2.281c-3.246-2.79-10.797-8.604-17.389-13.835l.198-.133c4.508-3.031,10.913-8.111,16.086-11.841,0,0,0,0,.001,0,4.324,6.005,11.2,15.44,14.691,19.413.003.003.008.003.01,0,3.859-4.604,8.999-10.723,8.999-10.723,6.398-7.645,13.24-14.96,20.443-21.887.004-.004.011-.003.014.001,1.038,1.436,2.031,2.905,2.967,4.409,6.187-2.92,14.681-6.287,21.192-9.771l.01-.033c-2.903-6.043-5.479-10.788-10.364-15.969l-7.562-7.672s-.002-.002-.003-.002l-23.799-9.555Z"/><path class="d" d="M198.506,21.133c-.023-.042-.046-.084-.07-.126-4.054-7.241-11.178-12.561-20.862-14.967-6.111-1.518-12.51-1.585-20.099,1.833,0,0-2.359,1.063-4.718,2.125-.466.287-.933.574-.933.574-4.704,2.898-7.477,6.719-9.76,11.599-1.147,2.457-1.922,5.076-2.265,7.758-.385,3.027-1.568,10.297.177,14.195-.595,1.85-.626,4.247-.182,5.927.415,1.578,1.087,3.786,3.101,5.65.565.52,1.982,1.367,3.505,1.665.292,1.145,1.099,3.216,1.099,3.216,1.229,2.975,2.693,5.782,5.009,8.717l4.783,3.981c2.036,1.502,4.982,3.328,7.277,4.273.887.365,1.806.691,2.769.979,6.008,1.796,11.41,1.23,16.993-1.702,5.326-2.797,8.518-8.276,10.567-14.637.908-2.818,1.823-5.836,2.83-8.878,2.554-5.423,4.068-12.781,4.142-17.686.072-4.758-1.071-10.332-3.365-14.499Z"/><path class="e" d="M178.685,67.668c-.042-.758-.423-1.581-1.063-1.99-2.344-1.497-4.675-1.399-6.303-.091-.648.521-2.101,3.21-1.571,5.98"/><path class="h" d="M136.147,15.29c-.214,1.07-.512,2.107-1.037,3.066-1.539,2.809-5.045,4.382-8.166,3.663-.845.867-.262,2.323.465,3.291,2.837,3.775,7.443,6.174,12.175,6.266-.434,3.309-1.022,8.63.172,11.998l.078.22c.464-.638.928-1.276.928-1.276.438-.603,1.427-1.61,3.536-1.501.969.05,2.076.434,2.849,1.269l6.204-.628c6.768,2.109,12.646.637,18.664-1.345,2.431-.659,5.849-2.316,8.735-3.982,2.14-1.235,4.528-.622,5.838,1.654.698,1.214,1.527,2.94,2.441,4.547,1.506,2.649,4.874,3.401,7.364,1.668l2.692-1.874s.871-.606,2.324-1.618c.282-1.838.44-3.572.463-5.076.073-4.806-1.094-10.444-3.435-14.625-4.054-7.241-11.178-12.561-20.862-14.967-5.968-1.482-12.21-1.581-19.567,1.601-2.275-4.063-7.218-6.348-11.782-5.595-4.183.69-7.847,3.899-9.084,7.954-.521,1.708-.645,3.541-.994,5.289Z"/><path class="d" d="M205.346,146.93c1.417-1.97,1.476-4.832.677-7.431-1.369-4.456-4.71-8.259-7.604-11.565,3.776-5.764,5.092-9.402,7.505-15.484,1.107-2.79,2.647-6.563,2.669-9.544.023-3.077-.639-5.692-1.942-8.537-6.53,3.492-15.037,6.861-21.219,9.783.874,1.35,1.697,2.732,2.48,4.137,0,0,.512.949,1.202,2.227l-.254,2.059c-.778,3.885-2.058,11.375-3.031,14.941-.541.311-.99.575-.99.575-.082.048-.165.094-.249.14-1.167.649-2.358,1.256-3.539,1.88-1.332.704-2.893,1.292-3.645,2.686-.452.838-.588,1.842-.375,2.77.122.531.388,1.082.849,1.397.499.34,1.155.406,1.729.545.604.146,1.284.202,2.226.428,3.729,4.301,9.342,9.305,14.554,10.768,2.267.637,4.788.968,6.905-.062.87-.423,1.545-1.011,2.049-1.712Z"/><path class="g" d="M87.494,139.353c2.345-12.852,6.812-25.317,12.921-36.855,5.699-10.765,12.848-21.223,22.319-29.018,4.782-3.936,10.122-7.151,15.271-10.571,2.135-1.418.134-4.883-2.019-3.454-4.822,3.202-9.755,6.254-14.334,9.804-4.765,3.694-8.947,7.996-12.684,12.722-8.219,10.397-14.572,22.194-19.245,34.577-2.66,7.048-4.734,14.318-6.086,21.731-.459,2.517,3.395,3.596,3.857,1.063h0Z"/><path class="e" d="M180.634,82.178c-.495,1.526-1.25,3.018-2.474,4.055-1.969,1.667-4.782,1.876-7.352,1.641-8.025-.736-15.626-5.231-20.137-11.909"/><path class="g" d="M187.915,127.454c1.19-4.73,1.921-9.568,2.875-14.349.211-1.058-.303-2.16-1.397-2.46-.985-.271-2.248.333-2.46,1.397-.954,4.78-1.686,9.618-2.875,14.349-.263,1.047.339,2.17,1.397,2.46,1.027.282,2.196-.345,2.46-1.397h0Z"/><path class="g" d="M180.639,98.832c-9.702,9.389-18.414,19.618-27.153,29.885-1.659,1.95,1.157,4.793,2.828,2.828,8.738-10.268,17.45-20.497,27.153-29.885,1.853-1.793-.977-4.62-2.828-2.828h0Z"/><path class="g" d="M179.077,98.533c.085.108.169.217.254.326-.103-.132-.081-.103.065.086.166.22.333.439.498.659.33.441.656.885.977,1.332.643.894,1.269,1.801,1.878,2.719,1.217,1.836,2.362,3.719,3.438,5.642.511.914,1.84,1.295,2.736.718.924-.596,1.265-1.759.718-2.736-2.273-4.06-4.873-7.907-7.735-11.573-.647-.829-2.159-.729-2.828,0-.807.879-.69,1.944,0,2.828h0Z"/><path class="g" d="M194.906,79.866c2.38,2.546,4.462,5.295,6.243,8.292,1.719,2.892,3.482,5.993,4.549,9.192,1.139,3.414,1.072,6.664-.024,10.068-1.035,3.212-2.374,6.356-3.664,9.473-1.455,3.516-3.242,6.845-5.317,10.034-.507.779-.256,1.774.313,2.424,2.699,3.084,5.638,6.332,6.964,10.291.975,2.91.914,7.054-2.896,7.61-3.921.573-8-1.923-10.971-4.183-1.69-1.286-3.262-2.741-4.745-4.259-.679-.696-1.297-1.457-1.982-2.145-.829-.833-1.984-.826-3.077-1.05-1.021-.209-1.564-.123-1.318-1.333.192-.947,1.033-1.383,1.818-1.799,1.949-1.032,3.927-2.004,5.83-3.122,2.219-1.303.208-4.761-2.019-3.454-1.594.936-3.232,1.796-4.877,2.639-1.635.838-3.274,1.711-4.139,3.427-.914,1.814-.956,4.318.411,5.931,1.309,1.544,3.462,1.554,5.301,1.962l-.883-.514c4.75,5.437,10.974,11.009,18.435,11.868,3.567.41,7.273-.976,8.832-4.382,1.456-3.184.835-6.786-.501-9.892-1.696-3.944-4.557-7.225-7.356-10.424l.313,2.424c3.972-6.103,6.842-12.986,9.185-19.866,1.279-3.754,1.617-7.493.641-11.37-.918-3.649-2.845-7.123-4.684-10.383-2.101-3.724-4.634-7.164-7.555-10.287-1.762-1.884-4.586.949-2.828,2.828h0Z"/><path class="g" d="M205.241,92.853c-6.454,3.391-13.247,6.069-19.86,9.123-.981.453-1.225,1.868-.718,2.736.589,1.006,1.752,1.172,2.736.718,6.613-3.054,13.406-5.732,19.86-9.123,2.28-1.198.26-4.651-2.019-3.454h0Z"/><path class="g" d="M138.004,62.909c2.026-1.256,4.187-2.299,6.286-3.425.923-.495,1.288-1.851.718-2.736-.605-.938-1.749-1.247-2.736-.718-2.099,1.126-4.26,2.168-6.286,3.425-.889.551-1.313,1.812-.718,2.736.574.891,1.785,1.307,2.736.718h0Z"/><path class="g" d="M189.047,74.362c2.045,1.73,4.068,3.507,5.859,5.504.701.781,2.125.766,2.828,0,.766-.834.747-1.995,0-2.828-1.791-1.997-3.814-3.774-5.859-5.504-.413-.349-.857-.586-1.414-.586-.491,0-1.076.218-1.414.586-.683.744-.853,2.107,0,2.828h0Z"/><path class="d" d="M154.438,133.874c-2.627-2.327-11.118-13.968-16.124-20.93-5.165,3.728-11.549,8.789-16.045,11.812l-.25.183c7.2,5.721,15.57,12.149,18.216,14.567,0,0,1.696,1.55,3.393,3.1.143.862.286,1.723.286,1.723.48,2.894.56,7.924.711,11.119.099,2.096.416,4.303,1.178,6.266.617,1.59,1.657,3.076,3.15,3.9,2.214,1.22,4.985.881,7.201-.133,2.908-1.331,3.809-3.831,4.739-6.698,1.194-3.678,1.745-7.543,1.962-11.394.027-.476.061-.991.368-1.356.303-.36.794-.484,1.248-.609,1.54-.422,3.279-1.044,4.52-2.07.82-.678,1.443-1.681,1.398-2.745-.06-1.444-1.245-2.715-2.403-3.454-2.106-1.342-4.244-1.127-6.612-1.223-1.372-.056-2.723-.336-4.067-.616-.524-.109-1.062-.224-1.51-.517-.367-.24-.901-.588-1.36-.924"/><path class="g" d="M134.498,111.052c3.184,4.442,6.382,8.875,9.652,13.254,1.724,2.309,3.466,4.607,5.264,6.859,1.13,1.415,2.259,2.907,3.61,4.124,1.908,1.719,4.746-1.101,2.828-2.828-1.29-1.162-2.373-2.581-3.455-3.931-1.706-2.127-3.348-4.305-4.979-6.491-3.206-4.298-6.343-8.647-9.467-13.006-.628-.877-1.743-1.299-2.736-.718-.866.507-1.35,1.854-.718,2.736h0Z"/><path class="g" d="M109.723,117.166c3.481,3.65,7.729,6.69,11.67,9.813,4.82,3.819,9.7,7.564,14.471,11.444,2.194,1.784,4.262,3.69,6.35,5.598l-.514-.883c.87,5.24.43,10.589,1.301,15.813.479,2.875,1.579,5.824,3.926,7.686,2.442,1.938,5.777,2.146,8.672,1.199,2.651-.867,4.736-2.591,5.933-5.127,1.301-2.757,2.088-5.804,2.599-8.798.29-1.7.496-3.417.631-5.136.028-.357.126-.798.079-1.156-.067-.508.235-.331-.182-.171.704-.27,1.46-.415,2.169-.684,2.697-1.023,5.595-2.919,5.561-6.157-.037-3.532-3.747-5.968-6.886-6.438-1.674-.251-3.364-.118-5.04-.308-.88-.1-1.759-.283-2.623-.477-.95-.213-1.603-.677-2.392-1.239-.88-.627-2.226-.156-2.736.718-.587,1.004-.165,2.108.718,2.736,2.238,1.594,4.769,2.098,7.49,2.303,2.213.166,4.681-.242,6.51,1.312.581.494,1.195,1.196.822,1.974-.416.867-1.651,1.384-2.485,1.717-.971.388-2.05.532-2.984,1.005-1.327.672-1.788,1.89-1.913,3.295-.245,2.748-.467,5.444-1.098,8.14-.487,2.079-1.051,4.355-2.149,6.212-1.018,1.721-2.906,2.652-4.872,2.814-2.288.189-3.984-.942-4.93-2.995-.986-2.139-1.143-4.59-1.237-6.906-.09-2.208-.15-4.417-.3-6.622-.067-.982-.153-1.961-.28-2.936-.125-.96-.172-2.198-.546-3.08-.467-1.101-1.87-1.974-2.746-2.775-.413-.378-.824-.759-1.241-1.132-4.332-3.878-9.072-7.338-13.638-10.93-3.086-2.427-6.17-4.858-9.209-7.344-2.071-1.694-4.219-3.377-6.07-5.317-1.78-1.867-4.606.965-2.828,2.828h0Z"/><path class="g" d="M123.279,126.483c6.141-4.144,11.839-8.907,17.917-13.14.885-.616,1.293-1.752.718-2.736-.513-.876-1.846-1.338-2.736-.718-6.079,4.232-11.776,8.996-17.917,13.14-.894.603-1.288,1.761-.718,2.736.519.887,1.837,1.324,2.736.718h0Z"/><path class="g" d="M150.815,8.846c-5.961,3.738-10.151,9.867-12.113,16.588-.856,2.933-1.178,6.075-1.459,9.114-.291,3.14-.429,6.524.585,9.556.812,2.429,4.677,1.388,3.857-1.063-.868-2.596-.705-5.452-.474-8.142.229-2.66.52-5.389,1.225-7.968,1.607-5.875,5.201-11.373,10.398-14.631,2.176-1.364.171-4.827-2.019-3.454h0Z"/><path class="g" d="M158.484,9.601c4.793-2.121,10.013-3.039,15.225-2.299,4.605.654,9.169,2.247,13.152,4.649,3.683,2.221,6.87,5.237,9.154,8.892,2.629,4.21,3.83,9.261,3.858,14.2.031,5.566-1.374,11.294-3.484,16.418-.412.999.446,2.199,1.397,2.46,1.148.316,2.047-.394,2.46-1.397,4.195-10.183,5.449-22.76-.167-32.675-5.037-8.893-14.465-14.484-24.373-16.251-6.659-1.187-13.08-.178-19.24,2.549-.988.437-1.219,1.879-.718,2.736.595,1.018,1.745,1.156,2.736.718h0Z"/><path class="g" d="M156.282,75.01c6.707,4.895,14.981,7.973,23.299,5.827,3.863-.996,7.609-2.91,10.408-5.783,2.636-2.705,4.446-6.048,5.834-9.53,1.873-4.696,3.106-9.656,4.753-14.436.84-2.439-3.022-3.487-3.857-1.063-1.372,3.981-2.548,8.024-3.874,12.02-1.038,3.126-2.422,6.259-4.498,8.845-4.448,5.542-12.135,7.729-18.952,6.123-4.099-.965-7.714-2.99-11.094-5.458-.873-.637-2.23-.148-2.736.718-.592,1.013-.158,2.098.718,2.736h0Z"/><path class="g" d="M170.874,54.359c.748-1.489,1.043-5.154-1.88-5.964-3.936-.64-4.883,3.692-3.906,5.969.8,1.864,3.869,3.101,5.786-.005Z"/><path class="g" d="M190.161,58.197c.699-1.472,1.026-5.071-1.596-5.816-3.537-.562-4.462,3.701-3.619,5.917.69,1.815,3.436,2.976,5.215-.101Z"/><path class="g" d="M148.562,40.87c-1.928-1.933-4.974-2.382-7.423-1.22-1.856.881-2.887,2.855-3.311,4.781-.963,4.372.264,9.682,3.702,12.728,1.969,1.745,4.896,2.713,7.485,2.119,1.053-.242,1.674-1.451,1.397-2.46-.297-1.081-1.404-1.639-2.46-1.397-.3.069-.744.069-1.07.009-.471-.087-1.018-.272-1.308-.403-.427-.193-.816-.442-1.211-.691-.359-.227.135.228-.052-.047-.201-.296-.553-.535-.784-.817-.575-.701-1.037-1.588-1.287-2.266-.162-.439-.298-.886-.423-1.337-.059-.213-.116-.426-.164-.642-.015-.069-.122-.691-.086-.419-.07-.533-.083-1.079-.071-1.616.01-.417.062-1.023.099-1.24.084-.487.201-.97.362-1.437.073-.212.295-.6.532-.989-.318.521-.044.083.078-.051.085-.093.43-.302.058-.07.063-.039.535-.301.384-.236-.12.052.446-.126.549-.144.667-.114,1.539.037,2.175.674,1.82,1.825,4.649-1.003,2.828-2.828h0Z"/><path class="g" d="M153.923,67.888c-.662-.845-1.493-2.067-2.129-3.129-.648-1.081-1.232-2.2-1.763-3.343-.127-.273-.25-.548-.372-.824-.054-.123-.107-.245-.16-.368-.079-.183.051.143-.071-.17-.07-.179-.138-.359-.205-.538-.327-.872-.649-1.753-.883-2.656-.262-1.013-1.444-1.726-2.46-1.397-1.045.338-1.677,1.375-1.397,2.46.489,1.893,1.273,3.743,2.094,5.512,1.214,2.615,2.741,5.015,4.518,7.282.648.827,2.158.73,2.828,0,.806-.878.692-1.946,0-2.828h0Z"/><path class="g" d="M159.109,5.651c-4.843-6.501-14.186-7.668-20.214-2.059-1.385,1.288-2.479,2.875-3.212,4.615-.802,1.905-.999,3.915-1.351,5.932-.314,1.797-.78,3.592-2.264,4.783-1.271,1.021-2.99,1.492-4.593,1.167-.645-.131-1.5-.055-1.946.514-2.515,3.209.55,6.77,3.101,8.844,2.827,2.298,6.109,3.63,9.719,4.051,1.075.125,2-1.009,2-2,0-1.185-.922-1.874-2-2-2.173-.253-4.254-1.089-6.069-2.293-.863-.573-1.642-1.253-2.353-2.006-.349-.37-.702-.752-.985-1.176-.108-.162-.246-.601-.365-.686-.188-.135.25-.505-.219.094l-1.946.514c3.721.753,7.565-.616,9.842-3.693,2.373-3.206,1.599-7.3,3.208-10.762,1.358-2.924,4.253-5.161,7.482-5.539,3.249-.381,6.751,1.086,8.711,3.717.644.865,1.73,1.306,2.736.718.853-.499,1.367-1.865.718-2.736h0Z"/><path class="g" d="M198.074,40.598c-1.311.912-2.946,2.534-4.629,2.531-1.391-.003-2.274-.867-2.916-2.012-.96-1.713-1.694-3.656-2.951-5.181-1.084-1.316-2.676-2.149-4.386-2.223-1.968-.085-3.533.969-5.195,1.858-3.407,1.823-6.968,3.093-10.702,4.073-4.48,1.176-8.937,1.427-13.412.083-2.471-.742-3.527,3.117-1.063,3.857,8.014,2.407,16.768.336,24.204-3.069.945-.433,1.875-.898,2.794-1.385.82-.434,1.699-1.12,2.603-1.35,1.596-.405,2.346,1.006,2.987,2.208.905,1.697,1.661,3.647,3.023,5.041,1.226,1.255,2.948,2.005,4.695,2.088,2.79.133,4.819-1.571,6.967-3.066,2.098-1.46.101-4.929-2.019-3.454h0Z"/><path class="g" d="M176.91,66.123c-.133.04-.267.076-.403.106-.097.021-.549.091-.169.04.386-.051-.133.009-.246.016-.142.009-.284.014-.427.015-.312.003-.625-.011-.936-.04-.091-.008-.189-.009-.278-.03.057.013.476.073.198.025-.165-.029-.33-.057-.494-.091-.303-.064-.603-.143-.897-.24-.033-.011-.396-.142-.396-.143.003-.008.462.208.196.082-.075-.035-.15-.07-.224-.107-.648-.33-1.195-.82-1.786-1.237-.858-.604-2.261-.182-2.736.718-.542,1.026-.198,2.092.718,2.736.619.436,1.189.948,1.875,1.281.731.355,1.499.631,2.297.791,1.551.31,3.241.401,4.773-.064,1-.303,1.735-1.414,1.397-2.46-.327-1.009-1.388-1.722-2.46-1.397h0Z"/><path class="d" d="M78.594,146.888c.49,3.121,1.442,9.034.238,12.691,0,0-.066.276-.161.687.588,1.789.658,4.069.27,5.689-.372,1.562-.984,3.749-2.924,5.629-.545.525-1.923,1.392-3.418,1.723-.257,1.144-1.001,3.184-1.001,3.184-3.036,7.856-8.674,13.687-16.41,17.083-.864.379-1.761.72-2.702,1.025-5.87,1.902-11.197,1.468-16.757-1.291-5.303-2.631-8.567-7.949-10.727-14.161-.957-2.752-1.926-5.7-2.977-8.673-2.644-5.275-4.299-12.479-4.483-17.303-.18-4.727.841-10.3,3.049-14.466,3.825-7.216,10.714-12.611,20.186-15.196,13.399-3.657,29.022,2.416,35.299,15.068,1.184,2.391,2.006,4.95,2.403,7.582.033.221.071.465.113.729Z"/><path class="i" d="M17.528,152.592c.003.194.009.387.016.579.104,2.722.676,6.201,1.628,9.664,1.375,0,2.507,0,2.507,0,.197-1.138.685-3.918,1.026-5.054.561-1.87,1.601-3.661,3.214-4.761,1.962-1.339,4.491-1.87,6.654-2.852.962-.437,2.07-.965,3.104-1.566,4.752.882,7.714,1.128,11.94-.855,3.299-1.547,6.706-3.832,9.507-6.834,8.056,4.996,10.657,10.305,11.144,18.215l.175,2.843c1.545-1.746,3.09-3.491,3.09-3.491.742-.838,1.823-1.241,2.775-1.312,2.072-.155,3.068.814,3.513,1.397.337.443.609.994.82,1.607.125-.38.194-.59.194-.59,1.305-3.966.076-10.587-.351-13.421-.398-2.632-1.219-5.19-2.403-7.582-6.277-12.652-21.9-18.725-35.299-15.068-9.472,2.585-16.361,7.98-20.186,15.196-2.119,3.997-3.144,9.29-3.065,13.887Z"/><path class="g" d="M19.122,168.313c2.106,5.686,3.579,11.764,6.421,17.145,2.452,4.644,6.023,8.287,10.881,10.353,5.882,2.501,12.223,2.465,18.166.158,4.76-1.847,9.149-4.707,12.587-8.501,3.459-3.817,6.133-8.586,7.348-13.613.604-2.501-3.252-3.568-3.857-1.063-1.986,8.22-7.909,14.967-15.462,18.584-4.904,2.348-10.322,3.122-15.546,1.408-4.54-1.489-7.871-4.401-10.216-8.53-2.982-5.251-4.377-11.371-6.465-17.005-.886-2.393-4.754-1.358-3.857,1.063h0Z"/><path class="e" d="M42.091,184.385c1.623.464,4.238.08,5.73-.868.453-.288.927-.722,1.422-1.085"/><path class="e" d="M53.929,164.418c.705,1.363,1.016,4.734-1.667,5.511-3.617.631-4.535-3.347-3.66-5.453.716-1.725,3.528-2.896,5.326-.057Z"/><path class="e" d="M34.206,167.418c.658,1.329.986,4.598-1.439,5.314-3.275.563-4.162-3.302-3.396-5.33.627-1.661,3.164-2.757,4.835.017Z"/><path class="e" d="M41.256,173.523c-.174.508-.575,1.755-.723,2.404-.088.319-.163.741.111.925.553.373.909.229,1.21.215"/><path class="g" d="M72.945,159.893c.635-.667,1.469-.825,2.081-.747.205.026.411.087.607.153-.352-.121.24.143.318.185.358.197-.163-.233.059.054.097.126.228.234.331.358-.26-.315-.024-.003.071.161.062.108.269.541.255.506.092.23.263.855.345,1.251.166.795.197,1.904.126,2.912-.033.46.033-.09-.043.308-.047.247-.105.491-.166.734-.104.412-.218.822-.352,1.226-.265.795-.621,1.572-1.22,2.355-.227.297-.501.548-.753.822-.076.083-.403.314-.036.051-.373.267-.765.502-1.176.707-.289.144-.784.327-1.265.434-.321.071-.743.1-1.036.039-1.057-.217-2.161.307-2.46,1.397-.272.99.334,2.242,1.397,2.46,2.307.474,4.741-.256,6.623-1.632,1.962-1.435,3.215-3.668,3.908-5.962,1.112-3.684,1.029-9.199-2.523-11.59-2.4-1.616-5.964-1.061-7.917.989-1.776,1.864,1.048,4.697,2.828,2.828h0Z"/><path class="g" d="M49.998,169.473c.415.048.829-.017,1.24-.084s.78-.232,1.158-.4c.372-.165.679-.413.998-.666.327-.259.572-.591.818-.927.146-.23.225-.477.237-.744.06-.266.048-.532-.036-.798-.062-.26-.181-.487-.358-.68-.141-.218-.328-.389-.561-.515-.464-.245-1.026-.368-1.541-.202l-.478.202c-.301.178-.54.417-.718.718-.015.02-.03.04-.045.06l.313-.405c-.139.178-.297.335-.475.474l.405-.313c-.19.144-.394.262-.613.356l.478-.202c-.22.091-.448.154-.683.189l.532-.071c-.223.03-.447.033-.671.007-.275-.01-.532.047-.771.172-.248.081-.463.219-.644.414-.195.181-.333.396-.414.644-.125.238-.183.495-.172.771.023.517.193,1.054.586,1.414l.405.313c.312.181.648.272,1.009.273h0Z"/><path class="g" d="M31.054,173.063c.373.015.746-.046,1.112-.105.209-.034.415-.09.612-.168.339-.133.688-.268.996-.466.217-.14.419-.306.621-.466.088-.069.172-.143.252-.221.195-.181.333-.396.414-.644.125-.238.183-.495.172-.771.01-.275-.047-.532-.172-.771-.081-.248-.219-.463-.414-.644-.381-.35-.882-.61-1.414-.586l-.532.071c-.339.095-.633.266-.883.514-.084.083-.173.16-.266.232l.405-.313c-.198.15-.411.274-.639.373l.478-.202c-.251.105-.512.177-.781.214l.532-.071c-.164.02-.328.028-.493.021-.275-.01-.532.047-.771.172-.248.081-.463.219-.644.414-.195.181-.333.396-.414.644-.125.238-.183.495-.172.771l.071.532c.095.339.266.633.514.883l.405.313c.312.181.648.272,1.009.273h0Z"/><path class="g" d="M59.782,145.264c2.163,1.869,3.698,3.705,4.874,6.32.014.032.158.369.102.231-.069-.169.111.291.127.333.122.322.234.648.338.976.202.637.371,1.284.513,1.937.32,1.475.431,2.507.532,4.064.069,1.078.87,2,2,2,1.029,0,2.07-.916,2-2-.209-3.241-.772-6.387-2.075-9.374-1.239-2.842-3.248-5.301-5.582-7.317-.817-.706-2.025-.803-2.828,0-.722.722-.821,2.119,0,2.828h0Z"/><path class="g" d="M56.235,138.918c-2.319,2.603-5.064,4.716-8.138,6.355-1.499.799-3.04,1.47-4.714,1.801-1.625.322-3.317.186-4.947-.021-1.073-.137-2,1.017-2,2,0,1.194.923,1.863,2,2,1.918.244,3.794.267,5.705-.065,2.007-.349,3.907-1.182,5.704-2.118,3.451-1.799,6.628-4.215,9.219-7.123.718-.806.795-2.034,0-2.828-.731-.731-2.107-.81-2.828,0h0Z"/><path class="g" d="M41.598,139.985c-1.459,2.215-3.319,4.24-5.404,5.887-2.258,1.785-5.073,2.728-7.728,3.723-2.996,1.123-5.548,2.719-6.94,5.72-1.021,2.202-1.365,4.616-1.777,6.988-.185,1.063.284,2.155,1.397,2.46.964.265,2.274-.327,2.46-1.397.37-2.131.575-4.564,1.602-6.5,1.411-2.66,4.109-3.287,6.731-4.29,2.734-1.046,5.424-2.386,7.62-4.347,2.095-1.87,3.945-3.875,5.493-6.226,1.42-2.156-2.042-4.162-3.454-2.019h0Z"/><path class="g" d="M80.761,160.111c1.2-3.886.592-8.197.011-12.138-.63-4.276-1.662-8.327-3.88-12.089-4.021-6.82-10.791-11.708-18.32-13.978-15.431-4.653-34.451,2.753-40.759,18.078-4.001,9.72-2.245,20.839,1.87,30.211.434.989,1.881,1.218,2.736.718,1.02-.597,1.153-1.743.718-2.736-3.229-7.355-4.704-15.927-2.597-23.778,1.924-7.17,7.133-12.812,13.632-16.208,6.4-3.344,13.761-4.61,20.852-3.07,6.627,1.439,12.967,5.076,16.996,10.62,2.598,3.575,4,7.54,4.679,11.882.573,3.666,1.325,7.801.206,11.426-.761,2.465,3.099,3.519,3.857,1.063h0Z"/><path class="g" d="M88.738,154.79c15.084-4.732,30.514-8.3,46.144-10.67,1.069-.162,1.659-1.507,1.397-2.46-.314-1.143-1.388-1.559-2.46-1.397-15.63,2.37-31.06,5.938-46.144,10.67-2.448.768-1.403,4.631,1.063,3.857h0Z"/></g></svg>