<svg id="b" xmlns="http://www.w3.org/2000/svg" width="234.769" height="222.922" viewBox="0 0 234.769 222.922" style="color: initial !important;"><defs><style>.d{fill:#ffffff;}.e{fill:#211715;}.f{fill:#fce0cd;}</style></defs><g id="c"><path class="d" d="M22.591,2.406c1.644,3.907,3.291,7.82,4.573,11.86.025.079.05.158.075.238,3.788,12.089,2.715,25.182-2.62,36.673-2.213,4.766-4.425,9.532-6.637,14.298-2.93,6.314-5.866,12.639-8.189,19.2-7.084,20.002-8.284,41.663-6.943,62.84,1.402,22.149,5.494,44.033,8.153,66.064.484,4.014,3.888,7.03,7.931,7.03,40.125,0,87.702,0,87.702,0,.093-2.023.765-16.049,2.839-20.514,1.281-2.758,3.421-5.606,7.896-5.606,4.831,0,6.614,2.848,7.894,5.606,2.074,4.465,2.746,18.491,2.839,20.514h87.699c4.043,0,7.451-3.017,7.935-7.031,2.658-22.031,6.749-43.915,8.151-66.064,1.341-21.177.141-42.838-6.943-62.84-2.324-6.561-5.259-12.887-8.189-19.2-2.212-4.766-4.424-9.532-6.637-14.298-5.335-11.491-6.408-24.583-2.62-36.673.025-.079.05-.158.075-.238,1.282-4.04,2.929-7.953,4.573-11.86H22.591Z"/><path class="d" d="M125.085,69.439h-15.433c-5.117,0-9.266-4.149-9.266-9.266h0c0-4.104,3.327-7.432,7.432-7.432h19.101c4.104,0,7.432,3.327,7.432,7.432h0c0,5.117-4.149,9.266-9.266,9.266Z"/><path class="d" d="M125.085,26.556h-15.433c-5.117,0-9.266,4.149-9.266,9.266h0c0,4.104,3.327,7.432,7.432,7.432h19.101c4.104,0,7.432-3.327,7.432-7.432h0c0-5.117-4.149-9.266-9.266-9.266Z"/><path class="d" d="M192.096,210.439c1.736-7.729,3.357-16.63,4.815-22.953.279-1.209,1.001-2.256,1.939-3.067,3.576-3.092,9.04-8.306,9.477-14.002.119-1.556-.109-3.169-.869-4.533-.717-1.288-1.865-2.287-3.097-3.096-5.593-3.675-11.8-2.68-17.8-.737-.362-1.39.458-2.793.615-4.221.245-2.222-1.247-4.412-3.268-5.368-6.036-2.853-12.448,3.368-15.357,7.5-.463.658-.85,1.364-1.076,2.136-1.211,4.134,2.195,5.74,5.566,6.18,1.439.188,2.624,3.163,2.834,4.45.359,2.203-.422,4.697-1.022,6.8-.567,1.986-1.1,4.057-.696,6.097.366,1.847,2.241,3.676,4.08,4.081l.021.005c-.243,1.442-2.363,14.236-2.843,17.084"/><path class="d" d="M42.641,210.439c-1.736-7.729-3.357-16.63-4.815-22.953-.279-1.209-1.001-2.256-1.939-3.067-3.576-3.092-9.04-8.306-9.477-14.002-.119-1.556.109-3.169.869-4.533.717-1.288,1.865-2.287,3.097-3.096,5.593-3.675,11.8-2.68,17.8-.737.362-1.39-.458-2.793-.615-4.221-.245-2.222,1.247-4.412,3.268-5.368,6.036-2.853,12.448,3.368,15.357,7.5.463.658.85,1.364,1.076,2.136,1.211,4.134-2.195,5.74-5.566,6.18-1.439.188-2.624,3.163-2.834,4.45-.359,2.203.422,4.697,1.022,6.8.567,1.986,1.1,4.057.696,6.097-.366,1.847-2.241,3.676-4.08,4.081l-.021.005c.243,1.442,2.363,14.236,2.843,17.084"/><path class="d" d="M220.618,96.685c-1.176-13.189-8.403-24.889-19.038-32.611-6.489-4.712-13.836-6.521-21.531-4.026-7.76,2.516-14.483,7.411-20.997,12.175,0,0-3.817,2.854-7.431,5.556-.888-1.057-2.05-1.784-3.559-1.914-5.383-.466-9.103,1.938-13.649,5.112-2.912,2.033-5.709,4.467-9.163,5.295-2.67.64-4.692.716-7.882.716s-5.212-.076-7.882-.716c-3.454-.828-6.25-3.262-9.163-5.295-4.546-3.174-8.266-5.578-13.649-5.112-1.509.131-2.671.857-3.559,1.914-3.614-2.702-7.431-5.556-7.431-5.556-6.514-4.764-13.237-9.659-20.997-12.175-7.694-2.495-15.041-.686-21.531,4.026-10.635,7.722-17.862,19.422-19.038,32.611-.455,5.104-.031,10.332,1.409,15.258,1.448,4.955,6.197,8.474,10.775,10.538,4.535,2.044,9.486,2.949,14.383,3.821,3.037.54,6.206,1.13,8.629,3.055,2.507,1.992,3.215,5.999,1.656,8.797-.686,1.231-1.961,2.011-3.369,2.071-2.351.099-5.941.362-7.851,1.188-5.046,2.183-5.22,7.856-3.548,12.314,5.457,11.04,13.696,19.505,23.61,24.729,6.625,4.055,15.007,5.062,22.473,2.96,4.436-1.249,8.545-3.601,11.915-6.737,2.78-2.587,4.702-5.975,7.519-8.512,2.59-2.332,5.96-3.805,9.441-4.053l.003.041h12.765c3.355.307,6.586,1.758,9.088,4.012,2.817,2.537,4.739,5.926,7.519,8.512,3.371,3.137,7.48,5.488,11.915,6.737,7.465,2.102,15.847,1.095,22.473-2.96,9.914-5.223,18.153-13.689,23.61-24.729,1.672-4.458,1.498-10.131-3.548-12.314-1.91-.826-5.5-1.089-7.851-1.188-1.408-.059-2.683-.84-3.369-2.071-1.558-2.798-.851-6.804,1.656-8.797,2.423-1.925,5.592-2.515,8.629-3.055,4.897-.871,9.848-1.776,14.383-3.821,4.578-2.064,9.327-5.584,10.775-10.538,1.44-4.926,1.864-10.153,1.409-15.258ZM92.287,164.165c-.513.755-1.165,1.238-1.806,1.706-3.696,2.694-7.743,5.301-11.93,5.035-1.608-.102-3.347-1.258-3.919-3.567-.232-.938-.248-1.978-.136-2.966.277-2.445,1.349-4.225,2.933-4.753,4.101-1.37,9.018-2.21,13.233-1.85.11.009.219.02.328.031.594.06,1.232.204,1.661.839.379.561.52,1.419.493,2.226-.04,1.178-.29,2.469-.856,3.3ZM97.257,150.512c-7.658-2.156-14.566-6.205-19.536-11.828-1.23-1.391-2.363-2.919-2.746-4.653-.845-3.82,1.83-8.028,4.397-11.139.235-.285.469-.561.7-.826,0,0,2.48-2.267,4.937-4.514.036.086.078.169.12.251,3.163,6.19,10.035,9.475,13.443,15.5,1.756,3.105,2.451,6.677,3.212,10.162.327,1.501.696,3.051,1.63,4.271.462.603,1.14,1.075,1.979,1.445-4.149.675-8.135,1.329-8.135,1.329ZM137.479,150.512s-3.887-.656-8.076-1.356c.812-.366,1.469-.831,1.92-1.419.935-1.22,1.303-2.769,1.63-4.271.76-3.485,1.455-7.057,3.212-10.162,3.409-6.025,10.28-9.31,13.443-15.5.223-.437.436-.88.639-1.328,2.134,2.702,4.418,5.59,4.418,5.59.163.187.327.379.492.576,2.628,3.133,5.473,7.466,4.605,11.389-.384,1.734-1.517,3.262-2.746,4.653-4.97,5.623-11.879,9.672-19.536,11.828ZM160.106,167.339c-.572,2.31-2.311,3.465-3.919,3.567-4.187.266-8.234-2.341-11.93-5.035-.641-.467-1.293-.951-1.806-1.706-.565-.832-.816-2.123-.856-3.3-.027-.807.115-1.665.493-2.226.429-.634,1.066-.779,1.661-.839.109-.011.218-.021.328-.031,4.215-.36,9.132.48,13.233,1.85,1.583.529,2.655,2.309,2.933,4.753.112.988.096,2.029-.136,2.966Z"/><path class="e" d="M125.085,67.039c-4.163,0-8.326,0-12.489,0-1.744,0-3.632.189-5.298-.408-2.851-1.021-4.901-4.099-4.48-7.154.362-2.629,2.65-4.318,5.203-4.336,1.745-.012,3.49,0,5.235,0,4.476,0,8.953-.03,13.428,0,2.848.019,5.252,2.081,5.266,5.032.017,3.804-3.13,6.797-6.866,6.866-3.085.057-3.095,4.857,0,4.8,4.864-.089,9.157-3.022,10.913-7.574,1.739-4.508.312-9.64-3.747-12.35-2.24-1.496-4.751-1.574-7.319-1.574h-8.435c-2.558,0-5.116,0-7.673,0-3.19,0-6.24.838-8.398,3.362-3.124,3.655-3.152,9.083-.438,12.996,2.286,3.296,5.921,5.12,9.913,5.14,5.061.026,10.123,0,15.184,0,3.089,0,3.094-4.8,0-4.8Z"/><path class="e" d="M125.085,24.156c-4.74,0-9.48,0-14.22,0-3.227,0-6.191.653-8.742,2.768-3.424,2.839-5.127,7.945-3.561,12.199,1.463,3.974,5.196,6.497,9.406,6.532,2.072.017,4.145,0,6.217,0h9.12c1.953,0,4.04.167,5.956-.282,5.48-1.286,8.362-6.938,7.181-12.219s-6.048-8.899-11.357-8.997c-3.09-.057-3.09,4.743,0,4.8,3.352.062,6.254,2.446,6.796,5.802.478,2.964-1.516,5.883-4.612,6.088-3.966.262-8.03.008-12.003.008h-6.558c-2.019,0-3.905-.445-5.091-2.26-1.754-2.685-.561-6.447,1.901-8.276,1.694-1.259,3.567-1.362,5.569-1.362,4.666,0,9.332,0,13.998,0,3.089,0,3.094-4.8,0-4.8Z"/><path class="e" d="M117.368,148.122c-2.21-.001-4.426-.01-6.63-.202-1.586-.138-3.447-.373-4.759-1.123-1.263-.721-1.625-2.791-1.976-4.405-.522-2.397-1.025-4.813-1.902-7.111-1.589-4.163-4.338-7.352-7.558-10.355-2.951-2.751-5.937-5.371-7.706-9.071-3.875-8.105-3.965-17.624-4.041-26.421-.027-3.086-.04-5.693,1.197-8.54.4-.922,1.115-1.945,1.904-2.358.224-.117.212-.123.614-.223.264-.066.545-.082,1.002-.097,1.025-.032,2.026.039,3.024.273,4.096.959,7.58,3.84,10.919,6.252,1.894,1.368,3.832,2.611,6.034,3.428,2.047.76,4.327,1.032,6.496,1.153,4.284.237,9.179.364,13.263-1.153,4.341-1.611,7.776-4.911,11.669-7.321,1.715-1.062,3.483-1.965,5.465-2.402.87-.192,1.748-.251,2.638-.234.818.015,1.365.085,1.821.324.836.437,1.55,1.503,1.954,2.487.264.643.459,1.321.624,1.995.171.699.338,1.652.382,2.04.423,3.702.145,7.563-.015,11.274-.195,4.53-.625,9.06-1.76,13.461-1.057,4.097-2.644,7.927-5.568,11.041-2.737,2.913-5.967,5.336-8.452,8.488-3.039,3.856-4.246,8.354-5.273,13.072-.223,1.022-.401,2.11-.834,3.07-.369.819-.641,1.066-1.264,1.401-1.336.718-3.231.942-4.83,1.074-2.14.177-4.291.184-6.437.185-3.088.002-3.094,4.802,0,4.8,4.356-.003,9.286.199,13.314-1.725,4.591-2.193,4.598-8.041,5.818-12.317.648-2.272,1.565-4.426,3.014-6.31,1.27-1.652,2.823-3.089,4.346-4.502,3.263-3.03,6.464-6.054,8.36-10.163,4.209-9.123,4.454-19.415,4.528-29.286.025-3.397-.359-6.832-1.778-9.953-.727-1.598-1.82-3.021-3.281-4.012-1.708-1.157-3.861-1.346-5.867-1.215-4.859.315-8.911,2.851-12.788,5.585-1.958,1.381-3.838,2.904-5.971,4.015-1.879.978-4.025,1.344-6.121,1.471-4.323.263-9.504.54-13.446-1.567-4.194-2.242-7.621-5.698-11.958-7.726-3.653-1.708-8.987-2.992-12.59-.489-2.917,2.027-4.149,5.665-4.643,9.038-.585,3.996-.332,8.122-.172,12.142.199,5.016.666,10.08,1.897,14.958,1.172,4.642,3.039,9.074,6.236,12.685,2.821,3.186,6.398,5.677,8.992,9.068,1.431,1.871,2.338,4.01,2.979,6.262.717,2.52.997,5.198,1.89,7.662.733,2.024,1.949,3.72,3.928,4.654,2.039.963,4.264,1.3,6.492,1.506,2.267.21,4.548.218,6.822.219,3.089.002,3.094-4.798,0-4.8h0Z"/><path class="e" d="M99.377,103.251c2.363,1.114,5.048,1.48,7.61,1.837,3.323.463,6.677.787,10.035.809,3.432.023,6.863-.294,10.26-.758,2.739-.374,5.523-.789,8.077-1.888,1.191-.513,1.458-2.263.861-3.284-.72-1.231-2.088-1.376-3.284-.861.563-.242-.02-.004-.151.036-.224.067-.446.142-.671.206-.587.168-1.182.305-1.779.433-1.326.283-2.668.506-4.012.686-3.075.412-6.198.653-9.301.63-2.924-.022-5.861-.251-8.759-.638-1.333-.178-2.663-.398-3.978-.681-.566-.122-1.13-.254-1.686-.416-.211-.062-.419-.136-.63-.198-.605-.176.188.11-.169-.058-1.172-.552-2.589-.327-3.284.861-.61,1.043-.317,2.728.861,3.284h0Z"/><path class="e" d="M99.377,117.21c2.363,1.114,5.048,1.48,7.61,1.837,3.323.463,6.677.787,10.035.809,3.432.023,6.863-.294,10.26-.758,2.739-.374,5.523-.789,8.077-1.888,1.191-.513,1.458-2.263.861-3.284-.72-1.231-2.088-1.376-3.284-.861.563-.242-.02-.004-.151.036-.224.067-.446.142-.671.206-.587.168-1.182.305-1.779.433-1.326.283-2.668.506-4.012.686-3.075.412-6.198.653-9.301.63-2.924-.022-5.861-.251-8.759-.638-1.333-.178-2.663-.398-3.978-.681-.566-.122-1.13-.254-1.686-.416-.211-.062-.419-.136-.63-.198-.605-.176.188.11-.169-.058-1.172-.552-2.589-.327-3.284.861-.61,1.043-.317,2.728.861,3.284h0Z"/><path class="e" d="M107.304,152.367l.612,8.581c.089,1.25,1.04,2.461,2.4,2.4,1.224-.055,2.496-1.059,2.4-2.4l-.612-8.581c-.089-1.25-1.04-2.461-2.4-2.4-1.224.055-2.496,1.059-2.4,2.4h0Z"/><path class="e" d="M111.161,159.714c-3.906.331-7.488,1.748-10.527,4.233-2.946,2.408-4.869,5.762-7.525,8.448-5.151,5.209-12.442,7.941-19.727,7.669-4.126-.154-8.161-1.293-11.754-3.322-2.693-1.521-5.115,2.624-2.423,4.145,6.965,3.934,15.369,5.002,23.114,3.007,3.764-.969,7.394-2.692,10.518-5.003,1.629-1.205,3.177-2.51,4.529-4.023,1.265-1.415,2.387-2.95,3.603-4.405,2.655-3.178,5.946-5.588,10.193-5.948,1.292-.109,2.4-1.025,2.4-2.4,0-1.214-1.101-2.51-2.4-2.4h0Z"/><path class="e" d="M78.375,120.369c-2.498,2.899-5.041,6.259-5.746,10.115-.793,4.336,1.3,7.712,4.182,10.757,5.338,5.64,12.389,9.461,19.809,11.585,2.975.852,4.245-3.778,1.276-4.629-6.147-1.76-11.976-4.775-16.595-9.244-1.947-1.884-4.445-4.229-4.043-7.193.41-3.025,2.583-5.759,4.511-7.997.846-.981.964-2.43,0-3.394-.865-.865-2.544-.986-3.394,0h0Z"/><path class="f" d="M109.035,220.608c.149-3.219.374-6.437.708-9.643.22-2.111.455-4,.867-6.106.175-.891.372-1.781.635-2.65.1-.329.209-.654.331-.976-.239.628.07-.141.093-.187.13-.26.259-.52.401-.774.976-1.754,2.381-3.108,4.488-3.352,2.147-.248,4.206.489,5.309,2.003.561.77,1.026,1.664,1.397,2.541-.243-.576.125.409.165.536.14.441.259.888.368,1.337.47,1.925.772,3.952.995,5.808.458,3.805.734,7.634.911,11.462.142,3.076,4.943,3.093,4.8,0-.172-3.726-.44-7.453-.875-11.159-.515-4.386-.996-9.228-3.616-12.948-1.714-2.433-4.085-3.929-7.059-4.299-3.154-.392-6.283.401-8.656,2.56-3.501,3.185-4.308,8.092-4.912,12.538-.599,4.413-.944,8.859-1.149,13.307-.143,3.088,4.658,3.081,4.8,0h0Z"/><path class="f" d="M20.276,3.044c2.65,6.297,5.328,12.648,6.342,19.451.932,6.252.516,12.729-1.039,18.845-1.687,6.633-4.937,12.725-7.804,18.902-3.04,6.549-6.156,13.074-8.8,19.796C-1.279,106.109-1.248,134.679,1.726,162.14c1.758,16.233,4.469,32.342,6.518,48.537.163,1.286.987,2.4,2.4,2.4,1.171,0,2.564-1.105,2.4-2.4-3.611-28.539-9.336-57.072-8.105-85.974.583-13.701,2.792-27.365,7.488-40.285,2.369-6.516,5.332-12.791,8.249-19.074,3.007-6.48,6.511-12.927,8.679-19.749,2.241-7.049,3.052-14.632,2.21-21.987-.882-7.703-3.675-14.746-6.66-21.84-.502-1.194-1.587-2.052-2.952-1.676-1.125.309-2.182,1.75-1.676,2.952h0Z"/><path class="e" d="M90.661,155.369c-4.292-.336-8.723.364-12.83,1.605-1.95.589-3.533,1.463-4.554,3.301-1.059,1.908-1.423,4.273-1.171,6.425.261,2.227,1.267,4.251,3.155,5.529,1.719,1.164,3.766,1.218,5.755.932,4.333-.624,8.339-3.312,11.694-5.993,1.987-1.587,2.825-3.956,2.832-6.456.004-1.385-.341-2.827-1.282-3.879-.964-1.078-2.224-1.336-3.6-1.464-1.292-.121-2.4,1.189-2.4,2.4,0,1.398,1.104,2.279,2.4,2.4.091.008.6-.008.14.012.026-.001.353.006.152.029-.063.007-.272-.201-.288-.196.09-.031.027,1.54-.003,1.702-.239,1.272-.91,1.74-1.935,2.475-2.508,1.8-5.266,3.737-8.381,4.248-.522.086-1.174.095-1.795.066.532.025-.21-.067-.372-.116.037.011.33.161.078.035-.165-.082-.324-.174-.478-.275.327.215-.213-.207-.301-.303-.263-.29.15.244-.076-.096-.071-.107-.138-.217-.199-.329-.203-.371-.359-1.084-.372-1.714-.028-1.331.171-2.435.844-3.418-.215.314.198-.195.285-.279.267-.256-.28.186.023-.009.088-.056.18-.106.273-.153-.434.219.007.014.106-.013.2-.055.399-.128.596-.188.405-.124.812-.242,1.221-.352,3.417-.927,6.943-1.404,10.484-1.126,1.294.101,2.4-1.176,2.4-2.4,0-1.383-1.102-2.298-2.4-2.4Z"/><path class="e" d="M123.576,164.514c3.566.302,6.685,2.09,9.086,4.682,2.688,2.902,4.792,6.194,7.923,8.681,6.226,4.945,14.056,7.553,22.027,6.912,4.551-.366,8.941-1.656,12.921-3.904,2.69-1.519.273-5.667-2.423-4.145-6.424,3.628-14.229,4.307-21.223,1.993-3.371-1.115-6.541-2.968-9.19-5.33-2.844-2.536-4.787-5.868-7.522-8.503-3.174-3.058-7.224-4.816-11.599-5.187-1.293-.11-2.4,1.181-2.4,2.4,0,1.389,1.103,2.29,2.4,2.4h0Z"/><path class="e" d="M152.968,123.763c1.912,2.218,3.971,4.849,4.476,7.814.519,3.047-2.001,5.44-4.007,7.377-4.626,4.466-10.444,7.483-16.595,9.244-2.964.849-1.704,5.482,1.276,4.629,7.42-2.124,14.471-5.946,19.809-11.585,2.891-3.055,4.957-6.413,4.182-10.757-.687-3.852-3.255-7.225-5.746-10.115-.847-.982-2.525-.869-3.394,0-.974.974-.849,2.409,0,3.394h0Z"/><path class="e" d="M194.41,211.077c1.178-5.263,2.209-10.557,3.29-15.84.483-2.358.859-4.798,1.524-7.113.522-1.818,2.428-2.939,3.741-4.202,3.271-3.145,6.581-7.058,7.501-11.63.526-2.613.355-5.458-1.039-7.791-1.374-2.301-3.76-3.974-6.176-5.037-5.612-2.469-11.671-1.537-17.329.273l2.952,1.676c-.094-.522.214-1.168.345-1.666.191-.732.368-1.508.381-2.267.023-1.349-.368-2.707-1.045-3.869-1.342-2.305-3.765-3.757-6.367-4.139-5.126-.753-9.835,2.511-13.154,6.103-1.604,1.736-3.306,3.742-3.923,6.071s-.166,4.839,1.63,6.536c.857.81,1.894,1.352,2.989,1.764.474.178.958.322,1.452.434.442.1,1.029.067,1.433.262-.449-.217-.024.229.074.388.221.355.397.735.54,1.126.357.975.401,1.885.256,2.937-.469,3.405-2.189,6.536-1.808,10.062.342,3.166,2.744,6.167,5.94,6.871l-1.676-2.952c-.958,5.693-1.884,11.391-2.843,17.084-.215,1.277.337,2.584,1.676,2.952,1.151.316,2.736-.391,2.952-1.676.958-5.693,1.885-11.391,2.843-17.084.206-1.226-.308-2.651-1.676-2.952-1.999-.44-2.627-2.308-2.441-4.132.247-2.422,1.317-4.708,1.694-7.114.55-3.517-.469-9.47-4.776-10.229-.794-.14-1.621-.28-2.365-.604-.439-.191-1.058-.678-1.173-.857-.107-.165-.186-.327-.19-.349-.061-.342-.015-.673.047-1.006.179-.949.785-1.766,1.359-2.518,2.059-2.697,5.022-5.613,8.462-6.327,1.67-.347,3.647.031,4.711,1.475.525.712.663,1.463.48,2.311-.352,1.628-.759,2.955-.456,4.643.223,1.242,1.803,2.044,2.952,1.676,4.265-1.365,8.847-2.41,13.219-.895,1.838.637,4.012,1.852,4.968,3.625.963,1.786.61,4.017-.104,5.826-1.409,3.572-4.393,6.475-7.2,8.985-1.632,1.459-2.993,2.917-3.526,5.116-.507,2.092-.924,4.209-1.357,6.318-1.129,5.49-2.194,10.993-3.418,16.462-.673,3.009,3.953,4.294,4.629,1.276h0Z"/><path class="e" d="M200.847,154.365c1.764-4.847,1.456-10.857-3.046-14.099-2.295-1.652-5.144-2.01-7.887-2.262-.96-.088-2.321.087-3.227-.282-.927-.377-1.258-1.52-1.333-2.426-.509-6.155,8.268-6.449,12.453-7.25,6.329-1.21,12.604-3.041,17.736-7.089,2.268-1.789,4.211-4.046,5.358-6.714,1.348-3.136,1.859-6.716,2.142-10.096.523-6.24-.31-12.669-2.394-18.574-1.956-5.544-4.921-10.623-8.696-15.124s-8.554-8.745-13.902-11.285c-6.823-3.24-14.109-3.32-21.101-.544s-13.082,7.121-19.111,11.53c-1.045.764-1.563,2.084-.861,3.284.603,1.031,2.232,1.63,3.284.861,9.228-6.748,20.754-15.891,32.899-11.957,5.358,1.736,9.969,5.586,13.758,9.651,3.626,3.89,6.626,8.477,8.572,13.437,2.11,5.376,3.092,11.082,2.868,16.855-.125,3.22-.531,6.694-1.693,9.721-.879,2.289-2.683,4.202-4.631,5.638-4.906,3.618-10.956,4.95-16.84,6.026-5.547,1.015-12.353,2.08-14.243,8.332-.895,2.962-.377,6.753,1.981,8.923s5.637,1.608,8.575,2.07c2.197.345,4.313,1.129,5.135,3.219.862,2.192.383,4.661-.424,6.878-.443,1.218.498,2.629,1.676,2.952,1.336.367,2.507-.454,2.952-1.676h0Z"/><path class="e" d="M44.955,209.801c-1.084-4.845-2.045-9.715-3.033-14.58-.447-2.199-.898-4.397-1.38-6.588-.506-2.3-1.16-4.279-2.958-5.911-2.87-2.606-5.773-5.218-7.608-8.696-.862-1.633-1.436-3.558-1.128-5.417.356-2.149,2.079-3.463,3.892-4.437,4.653-2.498,10.039-1.33,14.798.193,1.154.369,2.729-.435,2.952-1.676.238-1.326.116-2.498-.227-3.795-.238-.901-.499-1.66-.106-2.553.656-1.493,2.326-2.199,3.871-2.201,3.595-.005,6.766,3.033,8.95,5.582.988,1.152,2.422,2.747,2.115,4.389-.015.08-.274.517-.426.645-.593.499-1.213.689-1.942.884-.793.212-1.625.238-2.376.581-.979.446-1.699,1.232-2.283,2.123-1.074,1.639-1.71,3.691-1.693,5.65.025,2.948,1.237,5.645,1.786,8.495.389,2.02.048,4.386-2.317,4.907-1.357.299-1.882,1.729-1.676,2.952.958,5.693,1.884,11.391,2.843,17.084.215,1.279,1.794,1.995,2.952,1.676,1.355-.372,1.892-1.669,1.676-2.952-.958-5.693-1.885-11.391-2.843-17.084l-1.676,2.952c2.608-.574,4.937-2.881,5.691-5.416.925-3.113-.274-6.366-1.073-9.358-.581-2.174-.921-4.242.31-6.222.056-.09.498-.611.154-.404.007-.004.754-.123,1.051-.182,1.162-.232,2.349-.634,3.372-1.238,2.014-1.189,3.277-3.193,3.286-5.554.01-2.661-1.51-4.852-3.12-6.825-3.028-3.71-7.302-7.152-12.258-7.472-2.817-.182-5.791.982-7.581,3.185-1.001,1.232-1.633,2.659-1.781,4.246-.079.851.042,1.708.236,2.537.148.636.574,1.437.456,2.091l2.952-1.676c-4.915-1.573-10.321-2.617-15.375-1.026-5.278,1.662-9.889,5.761-9.429,11.706.375,4.844,3.334,8.969,6.613,12.361.694.718,1.414,1.409,2.151,2.083s1.639,1.29,2.227,2.101c.54.745.637,1.706.832,2.582.284,1.281.556,2.564.823,3.849,1.226,5.895,2.356,11.81,3.671,17.686.674,3.013,5.303,1.738,4.629-1.276h0Z"/><path class="e" d="M38.518,153.089c-1.323-3.636-1.531-8.527,3.005-9.744,2.434-.653,4.99-.32,7.408-.894,3.077-.731,4.818-3.504,5.179-6.488.33-2.73-.516-5.58-2.378-7.622-1.981-2.172-5.029-3.234-7.822-3.852-6.096-1.349-12.419-1.916-18.033-4.877-2.294-1.21-4.461-2.726-6.115-4.747-1.792-2.189-2.39-4.92-2.875-7.647-1.07-6.022-.601-12.34,1.124-18.194,2.998-10.174,10.252-19.794,19.609-24.949,2.833-1.561,5.993-2.591,9.238-2.727,3.369-.142,6.538.666,9.65,1.904,6.546,2.604,12.319,6.917,17.964,11.046,1.047.766,2.677.177,3.284-.861.711-1.216.188-2.516-.861-3.284-10.178-7.443-22.486-16.509-35.823-12.677-5.952,1.71-11.123,5.558-15.456,9.886-4.074,4.069-7.495,8.873-9.873,14.122-2.508,5.533-3.951,11.452-4.171,17.53-.131,3.632.194,7.3.955,10.854.659,3.075,1.71,5.804,3.722,8.249,3.91,4.751,9.995,7.367,15.812,8.866,3.292.848,6.65,1.326,9.976,2.008,2.309.474,5.413,1.117,6.699,3.329.896,1.542,1.21,5.085-1.135,5.507-1.385.249-2.872.165-4.277.345-1.653.212-3.257.483-4.785,1.17-5.849,2.63-6.628,9.591-4.651,15.025.443,1.217,1.631,2.039,2.952,1.676,1.174-.323,2.122-1.728,1.676-2.952h0Z"/><path class="f" d="M209.832,1.768c-2.652,6.301-5.317,12.647-6.342,19.451-.999,6.628-.779,13.345.68,19.892,1.521,6.823,4.685,13.02,7.609,19.32,3.01,6.485,6.142,12.933,8.826,19.562,10.571,26.113,10.597,54.545,7.606,82.149-1.759,16.232-4.469,32.342-6.518,48.537-.163,1.288,1.22,2.4,2.4,2.4,1.432,0,2.237-1.108,2.4-2.4,3.592-28.387,9.278-56.761,8.124-85.509-.55-13.714-2.617-27.479-7.128-40.475-2.324-6.694-5.283-13.148-8.262-19.57-1.515-3.266-3.031-6.531-4.547-9.797-1.429-3.078-2.964-6.123-4.103-9.324-2.455-6.897-3.402-14.225-2.698-21.516.727-7.533,3.674-14.535,6.582-21.442.503-1.195-.542-2.64-1.676-2.952-1.386-.381-2.447.476-2.952,1.676h0Z"/><path class="e" d="M144.076,160.169c3.108-.243,6.206.093,9.232.809.729.172,1.453.365,2.17.579.397.118.804.231,1.193.376-.518-.194.42.327.028.005.517.425.437.378.73.979.111.226.351,1.057.413,1.456.098.632.125,1.382.019,2.012-.033.199-.088.405-.147.599,0-.003-.158.432-.058.203-.058.134-.49.784-.315.572-.11.134-.531.506-.443.443.114-.081-.391.218-.515.271.432-.186-.316.051-.431.071.1-.018.416,0,.081-.031-.248-.024-.512.014-.764.006-2.895-.096-5.76-1.905-8.158-3.553-.37-.254-.737-.513-1.101-.775-.182-.13-.363-.261-.543-.393-.238-.176-.115-.076-.258-.193-.54-.445-.861-.841-.996-1.315-.201-.708-.251-1.262-.207-2.034-.009.161.048-.247.065-.241.002,0-.151.16-.167.136.008.012-.183.082-.193.087.418-.223-.289-.008.363-.069,1.291-.12,2.4-1.017,2.4-2.4,0-1.205-1.102-2.521-2.4-2.4-1.22.114-2.395.31-3.329,1.182-.966.902-1.374,2.12-1.509,3.402-.23,2.191.344,4.574,1.783,6.262,1.325,1.555,3.357,2.74,5.07,3.823,1.89,1.194,3.948,2.263,6.121,2.829,1.957.51,4.198.744,6.109-.044s3.263-2.354,3.932-4.293c1.281-3.715.118-9.387-3.825-11.032-2.163-.902-4.585-1.39-6.894-1.742-2.473-.378-4.96-.583-7.459-.387-1.292.101-2.4,1.031-2.4,2.4,0,1.22,1.101,2.502,2.4,2.4Z"/><path class="e" d="M122.633,152.367l-.612,8.581c-.089,1.255,1.168,2.455,2.4,2.4,1.377-.062,2.304-1.056,2.4-2.4l.612-8.581c.089-1.255-1.168-2.455-2.4-2.4-1.377.062-2.304,1.056-2.4,2.4h0Z"/><path class="e" d="M111.164,164.555h12.587c1.255,0,2.458-1.104,2.4-2.4s-1.055-2.4-2.4-2.4h-12.587c-1.255,0-2.458,1.104-2.4,2.4s1.055,2.4,2.4,2.4h0Z"/></g></svg>