<svg id="b" xmlns="http://www.w3.org/2000/svg" width="337.742" height="331.932" viewBox="0 0 337.742 331.932" style="color: initial !important;"><defs><style>.d{fill:#3d8dcc;}.e{fill:#ffffff;}.f{fill:#211715;}.g{fill:#febe69;}</style></defs><g id="c"><path class="f" d="M231.878,272.794c13.704-.008,27.408-.022,41.112-.033,6.001-.005,12.003-.01,18.004-.013,5.8-.003,11.665.193,17.293-1.466,5.274-1.555,9.964-4.619,13.022-9.242,2.712-4.1,3.829-9.11,3.907-13.974.1-6.277-1.598-12.571-5.96-17.232-4.328-4.625-11.121-7.72-17.472-7.538-7.675.22-14.623,5.024-16.766,12.53-2.056,7.204,1.53,15.067,8.528,17.94,1.638.672,3.41.985,5.181.876,3.069-.187,3.09-4.989,0-4.8-5.846.357-10.208-5.611-9.442-11.124.877-6.308,6.523-10.513,12.698-10.626,5.302-.097,10.827,2.645,14.272,6.569,3.372,3.84,4.36,9.238,4.134,14.307-.176,3.949-1.199,7.785-3.576,11.163-.424.602-1.187,1.47-1.944,2.19-.843.802-1.37,1.215-2.338,1.839-2.117,1.366-4.35,2.236-6.796,2.837-4.95,1.218-10.091.948-15.148.951-5.441.003-10.881.007-16.322.012-12.745.011-25.491.024-38.236.032-1.384,0-2.767.002-4.151.003-3.088.002-3.094,4.802,0,4.8h0Z"/><path class="f" d="M276.557,317.572c3.94-.039,7.722-1.216,10.732-3.808,2.89-2.49,4.488-6.125,4.962-9.852.917-7.213-2.367-14.141-9.296-16.868-3.33-1.31-6.898-1.265-10.415-1.265h-9.511c-7.68,0-15.359,0-23.039,0h-22.172c-3.089,0-3.094,4.8,0,4.8,13.175,0,26.35,0,39.525,0,5.925,0,11.851-.009,17.776,0,3.066.005,6.437.558,8.744,2.348,2.196,1.703,3.26,3.954,3.649,6.739.406,2.904-.192,6.693-2.205,9.265-2.046,2.615-5.364,3.807-8.751,3.841-3.087.031-3.095,4.831,0,4.8h0Z"/><path class="f" d="M252.554,231.388c3.592.039,6.817,1.5,8.549,4.61,1.633,2.933,1.683,6.744.477,9.713-.462,1.138-1.343,2.392-2.539,3.316-1.212.937-3.079,1.607-4.782,1.887-2.48.407-5.104.188-7.607.188h-8.958c-6.625,0-13.251,0-19.876,0-3.089,0-3.094,4.8,0,4.8,6.625,0,13.251,0,19.876,0h9.922c2.984,0,5.999.138,8.925-.566,4.413-1.061,7.958-3.991,9.62-8.224,1.629-4.148,1.302-9.188-.703-13.142-2.464-4.86-7.611-7.323-12.903-7.381-3.09-.034-3.092,4.766,0,4.8h0Z"/><path class="f" d="M118.318,58.06h-18.518c-3.089,0-3.094,4.8,0,4.8h18.518c3.089,0,3.094-4.8,0-4.8h0Z"/><path class="f" d="M99.61,17.694c-4.365,4.365-8.73,8.73-13.094,13.094-.889.889-.955,2.517,0,3.394s2.445.949,3.394,0c4.365-4.365,8.73-8.73,13.094-13.094.889-.889.955-2.517,0-3.394s-2.445-.949-3.394,0h0Z"/><path class="f" d="M20.867,103.226c4.365-4.365,8.73-8.73,13.094-13.094.889-.889.955-2.517,0-3.394s-2.445-.949-3.394,0c-4.365,4.365-8.73,8.73-13.094,13.094-.889.889-.955,2.517,0,3.394s2.445.949,3.394,0h0Z"/><path class="f" d="M103.004,99.831c-4.365-4.365-8.73-8.73-13.094-13.094-.889-.889-2.517-.955-3.394,0s-.949,2.445,0,3.394c4.365,4.365,8.73,8.73,13.094,13.094.889.889,2.517.955,3.394,0s.949-2.445,0-3.394h0Z"/><path class="g" d="M60.318,87.364c15.926,0,26.935-12.296,26.935-26.685,0-16.099-11.245-27.185-26.935-27.185-15.69,0-26.935,11.086-26.935,27.185,0,14.389,11.009,26.685,26.935,26.685Z"/><path class="f" d="M60.318,89.764c6.296-.037,12.605-1.85,17.675-5.653,4.85-3.639,8.436-8.647,10.283-14.432,3.59-11.248.247-24.891-9.157-32.317s-23.524-8.329-33.968-2.469c-10.794,6.056-15.608,18.776-13.752,30.701,1.882,12.094,11.702,21.893,23.796,23.747,1.701.261,3.403.413,5.123.423,3.089.018,3.093-4.782,0-4.8-10.643-.063-20.263-6.536-23.425-16.867-2.927-9.563-.15-21.03,7.9-27.248,7.79-6.018,19.709-6.615,28.27-1.812,8.803,4.939,13.01,15.41,11.546,25.28-.834,5.623-3.573,10.811-7.805,14.61-4.52,4.057-10.47,6.001-16.486,6.037-3.088.018-3.094,4.818,0,4.8Z"/><path class="f" d="M62.638,118.54v-18.518c0-3.089-4.8-3.094-4.8,0v18.518c0,3.089,4.8,3.094,4.8,0h0Z"/><path class="f" d="M62.638,118.54v-18.518c0-3.089-4.8-3.094-4.8,0v18.518c0,3.089,4.8,3.094,4.8,0h0Z"/><path class="f" d="M57.998,2.318v18.518c0,3.089,4.8,3.094,4.8,0V2.318c0-3.089-4.8-3.094-4.8,0h0Z"/><path class="f" d="M2.318,62.798h18.518c3.089,0,3.094-4.8,0-4.8H2.318c-3.089,0-3.094,4.8,0,4.8h0Z"/><path class="f" d="M17.633,21.027c4.365,4.365,8.73,8.73,13.094,13.094.889.889,2.517.955,3.394,0s.949-2.445,0-3.394c-4.365-4.365-8.73-8.73-13.094-13.094-.889-.889-2.517-.955-3.394,0s-.949,2.445,0,3.394h0Z"/><path class="e" d="M231.537,42.105c-2.987,3.821-4.684,8.647-4.684,13.797,0,1.089.084,2.139.204,3.17-12.902.492-21.739,10.678-21.739,22.553,0,13.621,9.484,23.001,22.717,23.001h78.181c17.605,0,29.101-12.128,29.101-29.464,0-13.298-8.578-24.814-21.621-28.028-.328-16.84-13.268-30.9-31.736-30.9-13.437,0-23.902,7.451-28.766,17.926-1.319-.226-2.679-.366-4.097-.366-7.472,0-13.634,3.287-17.562,8.313Z"/><path class="f" d="M229.464,40.894c-3.974,5.182-5.523,11.735-4.807,18.178l2.4-2.4c-8.965.407-17.307,5.252-21.386,13.383-3.93,7.835-3.665,17.767.83,25.33,4.405,7.413,12.515,11.475,21.014,11.635,3.121.059,6.248.005,9.369.005h50.206c4.568,0,9.136,0,13.703,0,4.514,0,9.004.115,13.443-.857,7.864-1.72,14.825-6.515,18.957-13.457,4.388-7.373,5.6-16.792,3.642-25.105-2.05-8.707-7.967-16.389-16.001-20.38-2.074-1.03-4.254-1.84-6.499-2.408l1.762,2.314c-.283-11.538-6.176-22.459-16.144-28.457-10.609-6.383-24.779-6.469-35.491-.282-5.798,3.349-10.489,8.501-13.339,14.553l2.71-1.103c-8.955-1.463-18.235,1.319-23.994,8.564-.806,1.014-.99,2.404,0,3.394.836.836,2.583,1.02,3.394,0,4.645-5.844,11.96-8.533,19.324-7.33.982.16,2.232-.087,2.71-1.103,4.649-9.872,14.225-16.23,25.142-16.703,10.306-.447,20.421,4.058,26.117,12.831,3.033,4.672,4.634,10.077,4.771,15.636.025,1.039.726,2.052,1.762,2.314,7.861,1.988,14.262,7.316,17.595,14.718,3.17,7.037,2.968,15.68.083,22.777-2.554,6.284-7.71,11.273-14.125,13.557-3.704,1.319-7.481,1.727-11.391,1.727-4.268,0-8.535,0-12.803,0-16.603,0-33.205,0-49.808,0-4.448,0-8.897,0-13.345,0-5.05,0-9.989-.947-14.068-4.091-5.801-4.471-8.329-12.335-7.285-19.505,1.07-7.348,6.155-13.759,13.264-16.091,1.916-.628,3.869-.976,5.88-1.067,1.186-.054,2.549-1.061,2.4-2.4-.638-5.737.613-11.14,4.152-15.755.789-1.029.159-2.687-.861-3.284-1.237-.723-2.492-.171-3.284.861Z"/><path class="f" d="M41.36,321.234c.084,4.15,2.436,8.04,6.278,9.751,3.93,1.75,8.484,1.041,11.695-1.833,2.295-2.054,3.472-5.044,3.494-8.089.007-1.029,0-2.057,0-3.086,0-10.084,0-20.167,0-30.251v-9.205c0-3.089-4.8-3.094-4.8,0,0,6.994,0,13.988,0,20.983s.126,14.483,0,21.718c-.054,3.087-2.431,5.795-5.59,5.939-3.422.156-6.208-2.527-6.277-5.926-.062-3.085-4.863-3.095-4.8,0h0Z"/><path class="f" d="M58.026,216.464v6.467c0,1.255,1.104,2.458,2.4,2.4s2.4-1.055,2.4-2.4v-6.467c0-1.255-1.104-2.458-2.4-2.4s-2.4,1.055-2.4,2.4h0Z"/><path class="e" d="M60.426,277.337h49.751c1.551,0,2.798-1.287,2.746-2.837-.005-.143-.01-.272-.015-.383-1.336-26.967-22.417-49.495-52.487-49.495s-51.325,22.55-52.493,49.845c0,.008,0,.016-.001.024-.064,1.554,1.19,2.847,2.745,2.847h49.754"/><path class="f" d="M60.426,279.737h49.05c1.194,0,2.361-.119,3.413-.774,3.246-2.019,2.429-6.102,2.015-9.297-1.575-12.151-7.069-23.645-15.881-32.218-9.13-8.882-21.208-14.013-33.855-15.036-12.827-1.038-26.088,2.103-36.678,9.525-10.015,7.018-17.357,17.345-20.778,29.084-.871,2.987-1.45,6.039-1.828,9.125-.389,3.178-1.054,7.151,2.341,8.97,1.745.935,4.168.62,6.086.62h46.114c3.089,0,3.094-4.8,0-4.8h-14.44c-8.444,0-16.889,0-25.333,0h-8.296c-.487,0-1.149.12-1.625,0-.298-.075-.367-.082-.44-.438-.075-.367.092-1.11.122-1.538.054-.775.125-1.549.213-2.321,1.249-11.031,6.304-21.585,14.175-29.412,8.194-8.147,19.218-13.038,30.709-14.003,12.049-1.012,24.219,1.789,34.202,8.717,9.079,6.301,15.716,15.82,18.802,26.401.775,2.658,1.37,5.389,1.692,8.14.083.712.152,1.425.207,2.14.042.551.296,1.575.101,2.036-.093.219-.183.225-.406.278-.495.116-1.16,0-1.664,0h-3.472c-7.965,0-15.929,0-23.894,0-6.529,0-13.059,0-19.588,0h-1.063c-3.089,0-3.094,4.8,0,4.8h0Z"/><path class="d" d="M94.063,212.222c-.913-1.241-2.812-1.241-3.725,0-3.695,5.023-6.833,10.457-9.336,16.168-1.655,3.778-3.056,7.904-2.325,11.963.62,3.442,2.836,6.563,5.881,8.283,2.298,1.298,5.086,1.768,7.644,1.768,2.746,0,5.346-.471,7.643-1.768,3.045-1.72,5.261-4.841,5.881-8.283.731-4.059-.67-8.185-2.325-11.963-2.502-5.71-5.638-11.141-9.339-16.169Z"/><path class="f" d="M95.761,210.525c-1.154-1.357-3.073-1.931-4.794-1.472-1.939.518-2.954,2.27-4.027,3.814-2.256,3.248-4.285,6.654-6.065,10.185-3.425,6.792-7.072,15.078-2.846,22.356,3.857,6.642,12.305,8.642,19.404,6.769,3.525-.93,6.529-3.107,8.548-6.133,2.146-3.218,2.655-7.08,2.091-10.845-.671-4.476-2.799-8.767-4.851-12.756s-4.433-7.809-7.085-11.433c-.764-1.044-2.083-1.563-3.284-.861-1.031.603-1.631,2.232-.861,3.284,3.82,5.219,7.163,10.882,9.637,16.867,1.205,2.917,2.305,6.22,1.785,9.415-.392,2.409-1.756,4.708-3.716,6.175-2.266,1.695-5.134,2.166-7.9,2.111-2.605-.052-5.33-.649-7.377-2.35-4.919-4.087-3.73-10.405-1.527-15.629,1.416-3.36,3.116-6.617,4.98-9.748.973-1.634,2.001-3.234,3.081-4.798.304-.441.82-1.572,1.295-1.807-.131.065-.25-.182.117.249.84.988,2.529.865,3.394,0,.979-.979.843-2.404,0-3.394Z"/></g></svg>