<svg id="b" xmlns="http://www.w3.org/2000/svg" width="342.608" height="300.056" viewBox="0 0 342.608 300.056" style="color: initial !important;"><defs><style>.d{fill:#3d8dcc;}.e{fill:#b29683;}.f{fill:#ffffff;}.g{fill:#e2e2e2;}.h{fill:#a0a0a0;}.i{fill:#7abee6;}.j{fill:#211715;}.k{fill:#f2635f;}.l{fill:#645d5c;}</style></defs><g id="c"><path class="d" d="M113.064,2.403H6.084c-2.016,0-3.65,1.634-3.65,3.65v58.657c0,3.024,2.451,5.475,5.475,5.475h103.33c3.024,0,5.475-2.451,5.475-5.475V6.053c0-2.016-1.634-3.65-3.65-3.65Z"/><rect class="f" x="2.432" y="13.941" width="114.284" height="19.244"/><path class="j" d="M112.824.003H39.758c-6.864,0-13.729,0-20.593,0H7.438c-1.942,0-3.787.245-5.328,1.632C.137,3.408.034,5.712.034,8.11v42.235C.034,54.516-.043,58.696.034,62.867c.099,5.372,4.361,9.623,9.73,9.719.806.014,1.614,0,2.421,0,4.77,0,9.54,0,14.31,0h81.451c1.383,0,2.743.023,4.099-.361,4.372-1.238,7.053-5.266,7.069-9.703.018-5.005,0-10.011,0-15.016V7.067c0-.314.009-.629-.007-.942-.181-3.456-2.862-5.977-6.283-6.122-3.089-.131-3.082,4.669,0,4.8,1.781.076,1.49,1.99,1.49,3.259v7.074c0,7.564,0,15.129,0,22.693,0,6.845,0,13.691,0,20.536,0,1.449.011,2.898,0,4.347-.021,2.836-2.107,5.025-4.967,5.074-8.983.156-17.983,0-26.967,0-15.65,0-31.3,0-46.95,0-8.556,0-17.133.175-25.688,0-2.976-.061-4.896-2.406-4.908-5.265-.007-1.683,0-3.367,0-5.05,0-7.045,0-14.09,0-21.135,0-7.432,0-14.865,0-22.297v-6.461c0-1.235-.116-2.638,1.51-2.775,2.426-.205,4.957,0,7.39,0,5.858,0,11.716,0,17.574,0,15.675,0,31.351,0,47.026,0,10.949,0,21.898,0,32.847,0h1.644C115.913,4.803,115.918.003,112.824.003Z"/><path class="j" d="M13.785,60.451h21.18c3.089,0,3.094-4.8,0-4.8H13.785c-3.089,0-3.094,4.8,0,4.8h0Z"/><path class="j" d="M2.434,35.584h113.505c3.089,0,3.094-4.8,0-4.8H2.434c-3.089,0-3.094,4.8,0,4.8h0Z"/><path class="l" d="M86.849,72.273l34.654-34.654c.747-.747,1.824-1.087,2.854-.85,1.718.394,4.555,1.626,8.211,5.282,3.656,3.656,4.888,6.493,5.282,8.211.236,1.03-.103,2.107-.85,2.854l-34.808,34.808"/><path class="j" d="M88.546,73.97l14.084-14.084,18.993-18.993c.497-.497.98-1.115,1.541-1.541.565-.429,1.117-.138,1.739.089.292.107.779.339,1.366.67.757.428,1.487.912,2.171,1.447,1.78,1.39,3.469,3.073,4.822,4.883.483.647.925,1.329,1.316,2.035.424.766.49.893.706,1.538.356,1.06.099,1.325-.579,2.003l-17.423,17.423c-5.495,5.495-11.089,10.908-16.493,16.493-.096.1-.196.196-.294.294-2.187,2.187,1.206,5.582,3.394,3.394l14.854-14.854,19.017-19.017c.735-.735,1.5-1.432,1.972-2.382,1.746-3.514-.919-7.578-3.038-10.28-3.291-4.196-11.559-12.309-17.055-6.998-5.665,5.474-11.149,11.149-16.719,16.719-5.816,5.816-11.73,11.549-17.454,17.454-.103.106-.209.209-.313.313-2.187,2.187,1.206,5.582,3.394,3.394h0Z"/><path class="k" d="M91.363,83.291c3.684,3.734,8.264,7.233,10.545,4.952,2.362-2.362-2.035-7.937-4.798-10.699-2.762-2.762-8.184-7.313-10.699-4.798-2.25,2.25,1.217,6.861,4.952,10.545Z"/><path class="j" d="M89.665,84.988c1.734,1.749,3.598,3.444,5.692,4.756,1.773,1.111,4.007,2.027,6.121,1.442,2.131-.59,3.561-2.61,3.499-4.802-.055-1.955-.971-3.824-2.013-5.437-2.114-3.275-4.913-6.086-8.002-8.441-3.019-2.302-8.044-4.711-10.838-.73-1.444,2.057-.741,4.683.338,6.721,1.291,2.437,3.257,4.562,5.202,6.491.92.913,2.475.919,3.394,0s.923-2.478,0-3.394c-.709-.703-1.4-1.423-2.059-2.174-.755-.861-1.093-1.274-1.679-2.157-.214-.324-.419-.654-.608-.994-.106-.191-.199-.389-.302-.582-.299-.559.041.261-.043-.087-.079-.328-.199-.66-.287-.989.155.578.017.161.015-.034-.002-.166.035-.699-.028.012.012-.129.206-.677-.045,0,.02-.055.297-.463.063-.147-.266.36.108-.134.131-.105.111.134-.545.232-.006.041-.716.253-.172.054-.043.037.279-.035.034-.168-.211.011.088-.065.345.004.449-.012.415-.063-.498-.146.07.005.308.082.607.169.91.266.574.185-.442-.238.111.046.115.059.232.111.347.17.733.374,1.428.822,2.096,1.301.173.124.345.252.515.38-.077-.058-.336-.272.02.018.327.267.654.533.973.809.544.47,1.073.957,1.588,1.459.477.464.941.942,1.389,1.435.226.248.448.5.666.756.135.159.269.318.401.48.055.068.592.753.284.348.429.564.838,1.144,1.212,1.746.215.346.42.699.608,1.061.06.116.119.233.175.351.055.115.108.231.16.348-.12-.287-.131-.306-.035-.059.087.276.186.546.25.829l.034.161c.046.267.04.211-.017-.168.062.09.002.344.014.449.054.464-.002-.256.041-.212.017.017-.083.389-.108.399.06-.025.306-.499-.007-.087.461-.607.044-.156-.015-.047.199-.361.286-.143-.033-.024.342-.134.391-.16.146-.078-.258.057-.198.056.181-.002,0,0-.348.013-.32.013-.111-.001-.221-.008-.331-.019.354.051.394.051.121,0-.177-.057-.361-.093-.538-.152-.114-.038-.643-.274-.172-.054-.399-.187-.787-.394-1.165-.621-1.825-1.102-3.295-2.489-4.919-4.127-.913-.92-2.48-.914-3.394,0-.923.923-.916,2.471,0,3.394Z"/><path class="f" d="M331.323,6.838h-102.289c-4.891,0-8.856,3.966-8.856,8.857,0,23.893,0,47.902,0,59.987,0,4.891,3.965,8.85,8.856,8.85,34.096,0,68.192,0,102.289,0,4.891,0,8.856-3.965,8.856-8.856V15.694c0-4.891-3.965-8.856-8.856-8.856Z"/><path class="j" d="M331.323,4.438h-83.107c-6.266,0-12.532-.02-18.797,0-2.026.006-3.983.411-5.781,1.377-1.908,1.025-3.565,2.702-4.557,4.628-1.196,2.322-1.302,4.668-1.302,7.229,0,11.602,0,23.205,0,34.807,0,4.759,0,9.518,0,14.276,0,1.944,0,3.887,0,5.831,0,1.918-.122,3.881.32,5.763,1.028,4.38,4.834,7.804,9.265,8.437,2.905.415,5.976.145,8.906.145,3.077,0,6.154,0,9.231,0,24.616,0,49.232,0,73.847,0,3.077,0,6.154,0,9.231,0,2.644,0,5.103.027,7.553-1.089,3.951-1.8,6.374-5.893,6.447-10.172.039-2.294,0-4.592,0-6.886,0-11.293,0-22.585,0-33.878v-14.489c0-3.09.295-6.33-.961-9.231-1.779-4.11-5.857-6.664-10.295-6.749-3.09-.06-3.09,4.74,0,4.8,3.569.069,6.399,2.877,6.456,6.456.009.56,0,1.12,0,1.68v56.486c0,.604.01,1.208,0,1.812-.055,3.233-2.47,6.117-5.764,6.435-2.841.274-5.821.027-8.676.027-2.994,0-5.988,0-8.981,0-5.988,0-11.975,0-17.963,0-11.892,0-23.784,0-35.676,0-5.904,0-11.809,0-17.713,0-2.994,0-5.988,0-8.981,0-2.346,0-5.101.435-7.338-.43-1.553-.6-2.838-1.826-3.535-3.338-.701-1.522-.572-3.156-.572-4.789,0-3.951,0-7.901,0-11.852,0-10.43,0-20.86,0-31.29,0-2.937,0-5.874,0-8.811,0-1.482,0-2.963,0-4.445,0-1.092-.06-2.142.231-3.199.779-2.832,3.355-4.696,6.254-4.741,5.037-.078,10.081,0,15.118,0h87.141c3.089,0,3.094-4.8,0-4.8Z"/><path class="j" d="M234.717,27.995h92.765c3.089,0,3.094-4.8,0-4.8h-92.765c-3.089,0-3.094,4.8,0,4.8h0Z"/><path class="i" d="M281.112,44.263h-.934v24.574c20.844,0,41.859,0,45.669,0-.003-6.686-.003-24.573-.003-24.573h-44.731Z"/><path class="j" d="M281.112,41.863h-.934c-1.297,0-2.4,1.1-2.4,2.4v24.574c0,1.297,1.1,2.4,2.4,2.4,15.223,0,30.446,0,45.669,0,1.297,0,2.401-1.1,2.4-2.4-.004-8.191-.003-16.382-.003-24.573,0-1.297-1.1-2.4-2.4-2.4h-44.731c-3.089,0-3.094,4.8,0,4.8h44.731l-2.4-2.4c0,8.191,0,16.382.003,24.573l2.4-2.4c-15.223,0-30.446,0-45.669,0l2.4,2.4v-24.574l-2.4,2.4h.934c3.089,0,3.094-4.8,0-4.8Z"/><path class="j" d="M280.178,58.95h45.666c3.089,0,3.094-4.8,0-4.8h-45.666c-3.089,0-3.094,4.8,0,4.8h0Z"/><rect class="g" x="232.512" y="34.735" width="36.103" height="36.102" rx="4" ry="4"/><path class="f" d="M243.056,64.693c-1.372,0-2.529-1.113-2.492-2.485.05-1.861.653-3.712,1.839-5.35.515-.711,1.142-1.38,1.861-1.987,3.59-3.032,9.008-3.032,12.597,0,.719.608,1.346,1.276,1.861,1.987,1.186,1.639,1.789,3.489,1.839,5.35.037,1.372-1.119,2.485-2.492,2.485h-15.015Z"/><path class="f" d="M256.968,45.004c-.677-1.133-1.732-2.199-2.943-2.749-1.061-.481-1.719-.66-2.891-.776-.767-.076-1.544.025-2.299.154-1.366.234-2.852,1.072-3.75,2.131-.762.899-1.161,1.572-1.57,2.673-.262.704-.351,1.486-.361,2.232,0,1.363.36,2.839,1.147,3.971.378.543.781,1.086,1.3,1.502.897.718,1.518,1.097,2.619,1.491,1.312.469,2.994.417,4.335.103,1.264-.296,2.635-1.084,3.48-2.079.431-.508.859-1.028,1.135-1.636.489-1.076.681-1.787.786-2.984.119-1.357-.292-2.87-.986-4.032Z"/><circle class="e" cx="188.041" cy="285.914" r="10.717"/><path class="j" d="M196.358,285.914c-.047,3.403-2.166,6.662-5.379,7.79-3.453,1.212-7.158.235-9.477-2.63-2.102-2.598-2.348-6.503-.595-9.438,1.73-2.895,5.264-4.547,8.549-3.928,4.046.763,6.846,4.181,6.902,8.206.042,3.086,4.842,3.095,4.8,0-.076-5.523-3.478-10.365-8.636-12.321-5.018-1.902-11.107-.29-14.501,3.875-3.486,4.276-4.124,10.349-1.257,15.147s8.399,7.136,13.826,6.159c6.128-1.103,10.485-6.751,10.569-12.86.042-3.09-4.758-3.091-4.8,0Z"/><circle class="h" cx="219.213" cy="273.193" r="11.829"/><path class="j" d="M228.643,273.193c-.053,3.872-2.425,7.509-6.121,8.84-3.826,1.378-8.153.219-10.703-2.968-2.429-3.035-2.683-7.393-.695-10.72,1.97-3.296,5.911-5.143,9.718-4.45,4.511.821,7.738,4.741,7.801,9.298.042,3.086,4.842,3.095,4.8,0-.082-5.98-3.762-11.24-9.35-13.359-5.48-2.079-12.049-.31-15.765,4.213-3.792,4.616-4.443,11.239-1.349,16.417s9.101,7.742,14.981,6.684c6.656-1.198,11.392-7.315,11.483-13.955.042-3.09-4.758-3.091-4.8,0Z"/><path class="e" d="M124.995,185.793c0,19.472,0,38.943,0,58.415,38.943,0,73.436,0,112.379,0v-58.415h-112.379Z"/><path class="j" d="M122.595,185.793c0,19.472,0,38.943,0,58.415,0,1.297,1.1,2.4,2.4,2.4,29.073,0,58.146,0,87.219,0,8.387,0,16.774,0,25.161,0,1.297,0,2.4-1.1,2.4-2.4v-58.415c0-1.297-1.1-2.4-2.4-2.4h-112.379c-3.089,0-3.094,4.8,0,4.8h112.379l-2.4-2.4v58.415l2.4-2.4c-29.073,0-58.146,0-87.219,0-8.387,0-16.774,0-25.161,0l2.4,2.4c0-19.472,0-38.943,0-58.415,0-3.089-4.8-3.094-4.8,0Z"/><path class="f" d="M194.273,209.623c-.403-1.055-.805-2.129-1.35-3.122-.547-.997-1.323-1.893-2.038-2.76-.228-.278-.465-.54-.737-.777-.86-.748-1.776-1.508-2.763-2.091-.987-.584-2.112-.999-3.176-1.395-.423-.158-.855-.279-1.3-.36-1.215-.219-2.484-.43-3.727-.469-1.3-.042-2.635.227-3.904.415-.523.078-1.036.183-1.535.359-1.127.397-2.298.841-3.335,1.449-2.209,1.295-3.581,2.845-5.049,4.873-.227.314-.43.641-.597.991-.494,1.036-.993,2.119-1.325,3.225-.235.782-.307,1.596-.416,2.403-.024.177-.03.352-.054.527-.131.615-.2,1.249-.195,1.901.01,1.412.239,2.855.504,4.231.272,1.408.922,2.76,1.509,4.045.608,1.331,1.596,2.528,2.557,3.601.23.256.484.481.752.697.872.702,1.761,1.508,2.776,2.022,2.454,1.241,4.174,1.623,6.869,1.909,1.73.184,3.557-.111,5.237-.441,1.545-.304,3.1-.972,4.437-1.773.954-.572,1.848-1.312,2.685-2.027.28-.24.536-.498.774-.779,1.844-2.181,3.444-4.687,3.887-7.57.231-1.5.49-2.945.34-4.451-.149-1.508-.274-3.183-.828-4.633Z"/><path class="j" d="M196.588,208.985c-.688-1.8-1.38-3.574-2.548-5.123-1.184-1.57-2.445-2.887-4.014-4.076-3.138-2.378-7.351-3.598-11.277-3.538-3.8.058-7.842,1.175-10.91,3.458-2.964,2.206-5.043,5.161-6.359,8.591-1.383,3.606-1.311,7.863-.471,11.577.827,3.654,2.99,7.228,5.882,9.594,5.951,4.868,14.835,5.718,21.55,1.796,7.494-4.377,11.035-14.058,8.146-22.279-.43-1.222-1.64-2.037-2.952-1.676-1.185.326-2.108,1.724-1.676,2.952,1.932,5.496.329,11.928-4.194,15.637-4.295,3.522-10.788,4.007-15.682,1.418-2.548-1.348-4.419-3.643-5.58-6.237-1.317-2.942-1.467-5.969-1.028-9.117.773-5.547,5.468-9.796,10.868-10.648,3.35-.528,6.867-.121,9.832,1.632,2.85,1.685,4.626,4.28,5.785,7.315.462,1.21,1.616,2.043,2.952,1.676,1.158-.318,2.141-1.735,1.676-2.952Z"/><path class="j" d="M153.431,213.662c-.1-.263-.2-.53-.336-.777-.136-.248-.329-.471-.507-.687-.057-.069-.116-.135-.184-.193-.214-.186-.442-.376-.688-.521-.246-.145-.526-.249-.791-.347-.105-.039-.213-.07-.324-.09-.302-.054-.618-.107-.928-.117-.324-.01-.656.057-.972.103-.13.019-.258.046-.382.089-.281.099-.572.209-.83.361-.55.322-.892.708-1.257,1.213-.057.078-.107.16-.149.247-.123.258-.247.527-.33.803-.059.195-.076.397-.103.598-.006.044-.007.088-.013.131-.033.153-.05.311-.049.473.002.352.059.711.126,1.053.068.351.23.687.376,1.007.151.331.397.629.637.897.057.064.121.12.187.173.217.175.438.375.691.503.611.309,1.039.404,1.71.475.431.046.886-.028,1.304-.11.385-.076.772-.242,1.105-.441.237-.142.46-.327.669-.505.07-.06.133-.124.193-.194.459-.543.858-1.167.968-1.885.057-.373.122-.733.085-1.108-.037-.375-.068-.792-.206-1.154Z"/><path class="j" d="M141.439,213.662c-.1-.263-.2-.53-.336-.777-.136-.248-.329-.471-.507-.687-.057-.069-.116-.135-.184-.193-.214-.186-.442-.376-.688-.521-.246-.145-.526-.249-.791-.347-.105-.039-.213-.07-.324-.09-.302-.054-.618-.107-.928-.117-.324-.01-.656.057-.972.103-.13.019-.258.046-.382.089-.281.099-.572.209-.83.361-.55.322-.892.708-1.257,1.213-.057.078-.107.16-.149.247-.123.258-.247.527-.33.803-.059.195-.076.397-.103.598-.006.044-.007.088-.013.131-.033.153-.05.311-.049.473.002.352.059.711.126,1.053.068.351.23.687.376,1.007.151.331.397.629.637.897.057.064.121.12.187.173.217.175.438.375.691.503.611.309,1.039.404,1.71.475.431.046.886-.028,1.304-.11.385-.076.772-.242,1.105-.441.237-.142.46-.327.669-.505.07-.06.133-.124.193-.194.459-.543.858-1.167.968-1.885.057-.373.122-.733.085-1.108-.037-.375-.068-.792-.206-1.154Z"/><path class="j" d="M222.645,219.945c.566.384,1.122.837,1.639,1.334.993.961,1.857,2.012,2.572,3.132,1.649,2.589,2.483,5.506,2.553,8.434.05,2.171-1.549,3.923-3.456,3.923h-20.798c-1.907,0-3.506-1.752-3.456-3.923.07-2.928.904-5.845,2.553-8.434.705-1.119,1.579-2.171,2.572-3.132.526-.509,1.083-.961,1.659-1.357"/><path class="j" d="M221.434,222.017c2.316,1.634,4.077,4.228,4.915,6.919.354,1.137,1.553,4.721-.113,5.378-.392.154-1.104.054-1.579.054h-13.471c-1.93,0-4.065.26-5.982,0-1.782-.242-1.019-3.208-.726-4.414.757-3.113,2.581-6.085,5.216-7.96,1.055-.75,1.557-2.094.861-3.284-.61-1.043-2.222-1.616-3.284-.861-3.167,2.254-5.516,5.364-6.866,9.007-1.081,2.915-1.903,6.986.015,9.729,2.117,3.028,5.512,2.583,8.714,2.583h11.574c2.514,0,5.973.525,8.211-.862,3.551-2.201,3.173-6.749,2.18-10.24-1.169-4.11-3.756-7.735-7.242-10.193-1.06-.748-2.669-.19-3.284.861-.702,1.201-.201,2.534.861,3.284h0Z"/><path class="f" d="M224.215,206.123c-.916-1.662-2.342-3.225-3.981-4.032-1.435-.706-2.325-.969-3.911-1.138-1.037-.111-2.089.037-3.11.227-1.847.343-3.857,1.572-5.072,3.127-1.03,1.318-1.57,2.306-2.124,3.921-.354,1.032-.475,2.18-.489,3.274,0,2,.487,4.165,1.551,5.825.511.797,1.056,1.593,1.758,2.203,1.213,1.054,2.054,1.609,3.542,2.187,1.775.689,4.049.612,5.864.15,1.71-.435,3.565-1.591,4.707-3.05.583-.745,1.161-1.508,1.535-2.401.661-1.579.921-2.622,1.063-4.378.161-1.99-.395-4.21-1.334-5.915Z"/><path class="j" d="M226.287,204.912c-2.823-4.943-8.181-7.182-13.712-6.047-5.049,1.036-8.68,5.895-9.31,10.841-.67,5.259,1.618,10.595,6.266,13.31,4.541,2.653,10.686,1.949,14.45-1.761,4.308-4.246,5.093-11.081,2.306-16.343-1.446-2.731-5.591-.308-4.145,2.423,1.592,3.005,1.296,6.824-.726,9.563-1.872,2.535-5.446,3.69-8.427,2.498-3.08-1.231-4.97-4.267-5.057-7.56-.085-3.206,1.619-6.752,4.722-8.011,1.707-.693,3.733-.662,5.455-.056,1.813.637,3.092,1.923,4.031,3.567,1.532,2.682,5.681.267,4.145-2.423Z"/><path class="j" d="M136.062,198.609h6.676c1.255,0,2.458-1.104,2.4-2.4s-1.055-2.4-2.4-2.4h-6.676c-1.255,0-2.458,1.104-2.4,2.4s1.055,2.4,2.4,2.4h0Z"/><path class="k" d="M155.557,262.269c-.034-.004-.068,0-.102-.006-2.94-.448-4.554-3.188-6.358-4.981-2.003-1.982-4.135-3.852-6.487-5.515-4.764-3.353-10.496-4.972-16.742-4.972s-11.976,1.619-16.74,4.972c-2.352,1.663-4.484,3.533-6.487,5.515-1.803,1.792-3.418,4.533-6.358,4.981-.033.005-.067.001-.1.005l-.03.054c-3.571,5.669-5.393,13.047-3.674,19.647,2.088,8.043,9.455,12.126,17.089,13.907,5.229,1.228,10.775,1.74,16.301,1.699,5.526.041,11.072-.471,16.301-1.699,7.634-1.781,15.001-5.863,17.089-13.907,1.719-6.6-.102-13.978-3.674-19.647l-.028-.054Z"/><path class="f" d="M125.868,237.066c-11.729,0-23.418,4.801-30.413,13.16-2.033,2.43-4.345,5.446-4.056,8.574.09.939.478,1.879,1.246,2.551.927.801,2.342,1.112,3.637.913,2.94-.448,4.554-3.188,6.358-4.981,2.003-1.982,4.135-3.852,6.487-5.515,4.764-3.353,10.483-4.972,16.74-4.972s11.978,1.619,16.742,4.972c2.352,1.663,4.484,3.533,6.487,5.515,1.804,1.792,3.418,4.533,6.358,4.981,1.295.198,2.71-.112,3.637-.913.767-.672,1.156-1.611,1.246-2.551.289-3.128-2.023-6.144-4.056-8.574-6.995-8.358-18.291-13.16-30.413-13.16Z"/><ellipse class="f" cx="119.204" cy="231.901" rx="5.307" ry="5.521"/><ellipse class="f" cx="132.734" cy="231.901" rx="5.307" ry="5.521"/><path class="j" d="M125.868,234.666c-11.873.056-24.327,4.615-32.11,13.863-1.967,2.336-4.082,4.983-4.614,8.08-.574,3.34.757,6.676,4.171,7.78,3.1,1.003,6.184-.356,8.389-2.531,1.996-1.97,3.765-4.073,5.917-5.9,4.747-4.03,10.262-6.412,16.515-6.719,5.974-.294,11.94.978,16.929,4.371,2.565,1.744,5.01,3.866,7.086,6.171,1.793,1.99,3.58,4.098,6.32,4.733,3.266.757,6.855-.718,7.95-4.033,1.032-3.123-.386-6.481-2.168-9.03-7.777-11.124-21.05-16.725-34.385-16.784-3.089-.014-3.093,4.786,0,4.8,10.02.045,20.202,3.48,27.244,10.815,1.688,1.758,3.517,3.797,4.44,6.083.325.806.725,2.126.175,2.92-.496.716-1.542.75-2.315.515-1.889-.573-3.102-2.643-4.402-3.994-2.07-2.152-4.401-4.098-6.819-5.845-9.17-6.624-22.32-7.28-32.438-2.499-4.976,2.351-9.089,6.257-12.755,10.278-1.011,1.109-2.972,3.077-4.656,1.914-1.845-1.274.592-4.808,1.407-5.952,6.768-9.508,18.727-14.181,30.12-14.235,3.088-.015,3.094-4.815,0-4.8Z"/><path class="j" d="M94.079,261.112c-4.518,7.287-6.422,16.945-2.634,24.943,3.291,6.948,10.776,10.62,17.932,12.24,9.514,2.155,19.725,2.263,29.338.704,7.639-1.239,15.537-4.004,20.186-10.572,5.696-8.048,3.644-19.431-1.245-27.316-1.625-2.62-5.779-.213-4.145,2.423,3.631,5.856,5.735,14.095,2.403,20.567-2.999,5.825-9.439,8.416-15.509,9.713-4.234.905-8.553,1.301-12.88,1.356s-8.705-.084-13-.764c-6.243-.989-13.307-2.848-17.348-8.127-5.067-6.619-3.016-16.194,1.046-22.746,1.632-2.633-2.518-5.046-4.145-2.423h0Z"/><path class="j" d="M122.111,231.901c-.002.157-.014.312-.019.468-.01.319-.119-.019.03-.181-.089.096-.128.596-.17.734-.036.119-.082.234-.12.352-.101.315.28-.539.039-.1-.129.235-.261.463-.4.692-.197.325-.18.001.074-.081-.037.012-.15.175-.188.217-.162.177-.339.334-.516.496-.372.342.466-.285.03-.031-.082.048-.16.104-.241.153-.102.061-.21.112-.313.172-.501.292.419-.116-.019.014-.232.069-.464.133-.698.196-.241.065-.192-.09.202-.016-.106-.02-.261.024-.372.029-.227.01-.45-.005-.676-.014-.525-.02.556.139.054,0-.14-.039-.284-.065-.423-.106-.113-.033-.228-.091-.342-.115-.307-.066.535.28.112.043-.208-.117-.412-.236-.618-.358-.204-.12-.077-.196.14.122-.059-.086-.193-.16-.272-.232-.137-.125-.378-.517-.543-.571l.198.258c-.057-.078-.112-.157-.165-.237-.053-.081-.104-.163-.153-.246-.062-.105-.113-.215-.174-.321-.109-.19-.093-.436.032.104-.056-.239-.166-.469-.225-.71-.024-.098-.04-.198-.064-.295-.116-.469.04.572-.001-.047-.016-.234-.018-.469-.005-.704l.01-.155c.027-.265.017-.205-.03.181.026-.026.054-.285.057-.298.053-.245.129-.481.207-.718.156-.474-.221.365-.044.097.092-.139.153-.307.238-.452.049-.083.1-.166.153-.246.033-.05.307-.451.066-.108-.235.335.042-.037.089-.088.081-.088.164-.173.25-.256s.177-.159.265-.239c.302-.275-.11.116-.147.113.111.009.61-.369.736-.439.348-.194-.128.076-.179.069.088.013.32-.114.409-.14.093-.027.187-.052.281-.075l.143-.031c.259-.046.191-.041-.202.016.196.041.469-.037.673-.034.125.002.249.013.375.018.509.022-.54-.133-.054,0,.198.054.633.258.833.247-.286.017-.423-.204-.179-.069.146.081.295.154.438.242.066.041.229.195.298.197-.275-.22-.343-.272-.202-.158.056.045.11.091.163.139.139.123.429.559.596.62-.21-.077-.273-.392-.114-.141.09.143.186.282.27.43.06.106.112.216.17.323.241.442-.162-.515-.013-.031.089.29.166.572.237.866.101.417-.047-.147-.018-.185-.051.066.032.523.033.622.017,1.255,1.092,2.459,2.4,2.4,1.286-.058,2.418-1.055,2.4-2.4-.045-3.356-2.061-6.297-5.202-7.484-2.897-1.094-6.399-.077-8.33,2.318-2.111,2.618-2.505,6.307-.781,9.248,1.693,2.887,5.021,4.318,8.278,3.648,3.583-.736,5.987-4.187,6.035-7.73.017-1.256-1.116-2.458-2.4-2.4-1.315.059-2.382,1.054-2.4,2.4Z"/><path class="j" d="M135.641,231.901c-.002.157-.014.312-.019.468-.01.319-.119-.019.03-.181-.089.096-.128.596-.17.734-.036.119-.082.234-.12.352-.101.315.28-.539.039-.1-.129.235-.261.463-.4.692-.197.325-.18.001.074-.081-.037.012-.15.175-.188.217-.162.177-.339.334-.516.496-.372.342.466-.285.03-.031-.082.048-.16.104-.241.153-.102.061-.21.112-.313.172-.501.292.419-.116-.019.014-.232.069-.464.133-.698.196-.241.065-.192-.09.202-.016-.106-.02-.261.024-.372.029-.227.01-.45-.005-.676-.014-.525-.02.556.139.054,0-.14-.039-.284-.065-.423-.106-.113-.033-.228-.091-.342-.115-.307-.066.535.28.112.043-.208-.117-.412-.236-.618-.358-.204-.12-.077-.196.14.122-.059-.086-.193-.16-.272-.232-.137-.125-.378-.517-.543-.571l.198.258c-.057-.078-.112-.157-.165-.237-.053-.081-.104-.163-.153-.246-.062-.105-.113-.215-.174-.321-.109-.19-.093-.436.032.104-.056-.239-.166-.469-.225-.71-.024-.098-.04-.198-.064-.295-.116-.469.04.572-.001-.047-.016-.234-.018-.469-.005-.704l.01-.155c.027-.265.017-.205-.03.181.026-.026.054-.285.057-.298.053-.245.129-.481.207-.718.156-.474-.221.365-.044.097.092-.139.153-.307.238-.452.049-.083.1-.166.153-.246.033-.05.307-.451.066-.108-.235.335.042-.037.089-.088.081-.088.164-.173.25-.256s.177-.159.265-.239c.302-.275-.11.116-.147.113.111.009.61-.369.736-.439.348-.194-.128.076-.179.069.088.013.32-.114.409-.14.093-.027.187-.052.281-.075l.143-.031c.259-.046.191-.041-.202.016.196.041.469-.037.673-.034.125.002.249.013.375.018.509.022-.54-.133-.054,0,.198.054.633.258.833.247-.286.017-.423-.204-.179-.069.146.081.295.154.438.242.066.041.229.195.298.197-.275-.22-.343-.272-.202-.158.056.045.11.091.163.139.139.123.429.559.596.62-.21-.077-.273-.392-.114-.141.09.143.186.282.27.43.06.106.112.216.17.323.241.442-.162-.515-.013-.031.089.29.166.572.237.866.101.417-.047-.147-.018-.185-.051.066.032.523.033.622.017,1.255,1.092,2.459,2.4,2.4,1.286-.058,2.418-1.055,2.4-2.4-.045-3.356-2.061-6.297-5.202-7.484-2.897-1.094-6.399-.077-8.33,2.318-2.111,2.618-2.505,6.307-.781,9.248,1.693,2.887,5.021,4.318,8.278,3.648,3.583-.736,5.987-4.187,6.035-7.73.017-1.256-1.116-2.458-2.4-2.4-1.315.059-2.382,1.054-2.4,2.4Z"/></g></svg>