<svg id="b" xmlns="http://www.w3.org/2000/svg" width="338.635" height="337.651" viewBox="0 0 338.635 337.651" style="color: initial !important;"><defs><style>.d{fill:#3d8dcc;}.e{fill:#908b8a;}.f{fill:#ffffff;}.g{fill:#211715;}.h{fill:#ffda71;}.i{fill:#c6c6c6;}.j{fill:#645d5c;}</style></defs><g id="c"><path class="d" d="M234.236,250.574v64.221c19.967,0,54.162,0,89.996,0,0-20.362,0-44.06,0-64.222h-89.996Z"/><path class="i" d="M222.235,250.574v64.222c3.004,0,7.075,0,12.002,0v-64.221h-12.002Z"/><path class="i" d="M336.235,250.574h-12.002c0,20.162,0,43.859,0,64.222,3.987,0,7.992,0,12.002,0,0-16.944,0-63.047,0-64.222Z"/><path class="g" d="M326.633,314.796c0-16.696,0-33.393,0-50.089,0-4.711,0-9.422,0-14.133,0-3.089-4.8-3.094-4.8,0,0,17.104,0,34.209,0,51.313,0,4.303,0,8.606,0,12.909,0,3.089,4.8,3.094,4.8,0h0Z"/><path class="f" d="M293.283,271.068h-28.096c-6.322,0-11.447,5.125-11.447,11.447v.339c0,6.322,5.118,11.447,11.44,11.447h28.792c5.631,0,10.757-5.125,10.757-11.447v-.284c0-6.377-5.125-11.502-11.447-11.502Z"/><path class="g" d="M231.836,251.17c0,16.58,0,33.16,0,49.74,0,4.43,0,8.86,0,13.29,0,3.089,4.8,3.094,4.8,0,0-16.64,0-33.279,0-49.919,0-4.37,0-8.74,0-13.111,0-3.089-4.8-3.094-4.8,0h0Z"/><path class="g" d="M293.283,268.668c-7.035,0-14.07,0-21.106,0-2.55,0-5.14-.132-7.688.021-7.169.431-12.909,6.285-13.144,13.476-.219,6.689,4.413,13.052,11.14,14.266,2.77.5,5.721.27,8.52.27,7.58,0,15.161.038,22.742,0,6.101-.03,11.435-4.461,12.936-10.337,1.768-6.922-1.822-14.131-8.46-16.773-1.566-.623-3.259-.898-4.941-.923-3.09-.046-3.091,4.754,0,4.8,5.547.083,9.51,4.867,9.009,10.307-.405,4.402-4.118,8.105-8.571,8.126-6.926.033-13.853,0-20.778,0-2.547,0-5.096.023-7.643,0-4.661-.043-8.847-3.564-9.139-8.35-.315-5.153,3.308-9.904,8.676-10.078,2.192-.071,4.395-.005,6.587-.005,7.126,0,14.26.101,21.385,0,.158-.002.315,0,.473,0,3.089,0,3.094-4.8,0-4.8Z"/><path class="g" d="M336.235,248.174h-114c-1.297,0-2.4,1.1-2.4,2.4,0,16.95,0,33.9,0,50.85,0,4.457,0,8.915,0,13.372,0,1.297,1.1,2.4,2.4,2.4,10.67-.001,21.339-.001,32.009-.001,16.724,0,33.448,0,50.172,0,10.606,0,21.212,0,31.819.001,1.297,0,2.4-1.1,2.4-2.4,0-9.575,0-19.15,0-28.726,0-9.658,0-19.317,0-28.975,0-2.174,0-4.348,0-6.522,0-3.089-4.8-3.094-4.8,0,0,5.824,0,11.649,0,17.473,0,10.701,0,21.403,0,32.104,0,4.882,0,9.763,0,14.645l2.4-2.4c-18.376,0-36.752-.001-55.127-.001-14.568,0-29.136,0-43.704,0-5.056,0-10.112,0-15.168,0l2.4,2.4c0-16.951,0-33.901,0-50.852,0-4.457,0-8.914,0-13.37l-2.4,2.4h114c3.089,0,3.094-4.8,0-4.8Z"/><path class="f" d="M261.491,273.189l-3.222-7.572c-.754-1.772,1.132-3.512,2.836-2.616,1.856.976,3.71,1.865,5.765,1.751,2.344-.13,4.379-1.56,6.495-2.578,3.305-1.59,7.301-2.224,10.811-.927,2.358.871,4.402,2.705,7.064,1.845,2.797-.904,5.799-1.445,8.836-1.599,1.513-.077,2.62,1.417,2.047,2.819-2.522,6.176-5.232,12.275-8.116,18.29-.082.171-.17.348-.322.46-.197.144-.459.15-.703.149-8.883-.005-17.767-.011-26.65-.016-.18,0-.373-.004-.522-.105-.145-.098-.22-.267-.289-.428-1.344-3.158-2.687-6.317-4.031-9.475Z"/><path class="g" d="M263.563,271.978l-2.854-6.709c-.021-.049-.296-.849-.363-.854.627.046-.19.791-.167.754-.096.154.17-1.496-.285-.095-.013.041,1.031.528,1.195.606,2.833,1.351,5.777,1.98,8.803.839,2.585-.974,4.817-2.603,7.533-3.247,2.528-.599,4.943-.315,7.264.826,1.174.577,2.366,1.2,3.659,1.456,1.544.305,2.894.027,4.375-.406,1.29-.377,2.602-.676,3.928-.898.684-.115,1.37-.198,2.062-.26.302-.027.605-.05.908-.069.183.059.343.045.482-.042.026.059-.007.03-.101-.088.07-.056-.657-.335-.09-.44-.034.006-.46,1.195-.473,1.228-.332.807-.667,1.612-1.007,2.416-.688,1.628-1.391,3.25-2.106,4.866-.724,1.637-1.461,3.268-2.21,4.893-.375.813-.753,1.624-1.134,2.433-.289.614-.678,1.828-.994,2.179l1.059-.617c-.797.307-2.127.062-3.026.062-1.152,0-2.303-.001-3.455-.002-2.303-.001-4.606-.003-6.909-.004s-4.606-.003-6.909-.004c-1.152,0-2.303-.001-3.455-.002-.494,0-.987,0-1.481,0-.329,0-.658,0-.987,0-.531.026-.656.02-.377-.019l1.059.617c.179.197-.298-.846-.297-.845-.16-.376-.32-.752-.48-1.128-.352-.827-.704-1.654-1.056-2.482-.704-1.654-1.408-3.309-2.111-4.963-.508-1.193-2.266-1.456-3.284-.861-1.235.722-1.371,2.086-.861,3.284,1.024,2.406,2.047,4.813,3.071,7.219.429,1.009.751,2.275,1.537,3.075,1.027,1.044,2.441.903,3.786.904,5.1.003,10.2.006,15.299.009,2.632.002,5.264.003,7.896.005,1.179,0,2.514.181,3.601-.355,1.292-.637,1.728-1.976,2.309-3.205,2.209-4.675,4.305-9.401,6.305-14.169.896-2.135,2.174-4.369.816-6.617-1.392-2.306-3.873-2.253-6.233-1.984-2.471.283-4.816.832-7.206,1.497-1.669.465-3.222-.747-4.689-1.391-4.48-1.967-9.428-1.357-13.759.714-1.785.854-3.654,2.303-5.721,2.259-2.295-.048-4.028-2.005-6.287-2.004-2.609.002-4.673,2.359-4.399,4.92.111,1.036.659,2.043,1.065,2.999l2.605,6.124c.508,1.193,2.266,1.456,3.284.861,1.235-.722,1.371-2.086.861-3.284Z"/><path class="g" d="M277.901,282.149c-.795-2.844-1.604-5.685-2.367-8.538-.325-1.213-1.725-2.073-2.952-1.676-1.245.403-2.024,1.653-1.676,2.952.764,2.853,1.572,5.694,2.367,8.538.338,1.209,1.715,2.076,2.952,1.676s2.038-1.657,1.676-2.952h0Z"/><path class="g" d="M285.397,270.618c-1.082,3.64-2.163,7.28-3.245,10.92-.358,1.203.43,2.668,1.676,2.952,1.29.294,2.569-.388,2.952-1.676,1.082-3.64,2.163-7.28,3.245-10.92.358-1.203-.43-2.668-1.676-2.952-1.29-.294-2.569.388-2.952,1.676h0Z"/><path class="f" d="M106.341,246.944v72.447c0,3.568-1.761,6.949-4.784,8.845-5.043,3.162-14.756,6.993-32.216,6.993s-27.173-3.83-32.216-6.993c-3.023-1.896-4.784-5.276-4.784-8.845v-73.181"/><path class="g" d="M94.076,332.082c-.153-2.726-2.489-5.089-3.951-7.231-.402-.589-.796-1.186-1.148-1.807-.147-.259-.291-.521-.418-.791-.215-.457-.062-.159-.029-.062-.057-.163-.099-.328-.151-.492-.015-.049-.03.253-.028.2.004-.082.045-.214.08-.287-.193.399-.017.038.02-.034.331-.634.746-1.224,1.18-1.791,1.72-2.247,4.468-4.808,4.38-7.925-.082-2.914-2.796-5.544-4.356-7.792-.406-.585-.803-1.181-1.143-1.807-.054-.099-.36-.766-.229-.425-.052-.137-.089-.276-.138-.414-.051-.242-.063-.266-.036-.07.014.159.017.172.01.038.001,0-.019.315-.037.126-.007-.08.162-.433.029-.17-.1.197.197-.373.272-.501.318-.542.733-1.091,1.053-1.49,1.737-2.167,4.64-4.722,4.64-7.735,0-2.974-2.811-5.496-4.375-7.769-.407-.592-.816-1.205-1.114-1.861-.03-.067-.091-.184-.165-.489-.117-.478-.055-.14-.033-.034-.015-.071.047-.588-.014-.236-.08.459.225-.584.016-.056.117-.296.285-.579.444-.854.372-.645.802-1.257,1.238-1.859,1.698-2.347,4.631-5.062,3.744-8.249-.988-3.549-3.752-6.677-5.757-9.69-1.703-2.56-5.862-.159-4.145,2.423.94,1.413,1.921,2.799,2.854,4.217.473.719.937,1.445,1.371,2.188.184.314.363.632.532.954.068.129.135.258.199.388-.003-.006.307.73.177.376.037.101.061.222.108.318l.032.103c.052.242.065.26.038.053-.11-.021.055-.245-.005.018.168-.735.04-.388.02-.237-.015.116-.182.404.056-.098-.055.117-.114.244-.182.353-.162.259-.312.524-.481.779-.813,1.229-1.751,2.372-2.617,3.562-.839,1.152-1.661,2.35-2.134,3.706-.529,1.515-.236,2.997.397,4.426,1.207,2.726,3.537,4.737,4.902,7.364.183.351-.114-.307.02.029.007.017.093.283.089.284.06-.016-.007.322-.013-.109s.064-.091.013-.111c.013.005-.137.412-.123.377.018-.048.148-.323.013-.075-.179.328-.37.645-.58.954-.732,1.075-1.682,2.109-2.556,3.195-.96,1.193-1.996,2.438-2.479,3.918s-.118,2.877.518,4.239c1.246,2.67,3.464,4.749,4.864,7.328.066.121.39.768.183.34.041.084.112.288.113.369,0-.188-.091-.251-.023-.215.079.041-.093.481.003.171.096-.308-.057.156-.088.213.001-.002-.123.271-.289.56-.73,1.269-1.711,2.37-2.611,3.516-1.004,1.278-2.182,2.678-2.529,4.313-.35,1.648.271,3.212,1.064,4.634.829,1.489,1.871,2.853,2.85,4.243.434.617.87,1.236,1.256,1.885.148.248.292.5.417.761-.259-.542.039.751-.012-.158.172,3.071,4.973,3.091,4.8,0h0Z"/><path class="f" d="M69.341,230.146c-17.711-.145-37,2.946-37,15.977,0,13.494,23.809,16.859,37,16.859,13.191,0,37-2.486,37-16.859,0-12.855-19.288-16.122-37-15.977Z"/><path class="i" d="M69.391,241.658c-5.625-.04-11.751.822-11.751,4.455,0,3.763,7.561,4.701,11.751,4.701,4.189,0,11.751-.693,11.751-4.701,0-3.584-6.126-4.495-11.751-4.455Z"/><path class="g" d="M103.941,246.944v70.14c0,1.779.1,3.529-.522,5.24-.869,2.393-2.781,3.767-4.931,4.912-.829.441-1.676.843-2.536,1.22-.251.11.007,0,.05-.019-.143.061-.287.12-.432.178-.222.089-.445.178-.669.264-.591.228-1.187.442-1.788.645-6.013,2.029-12.355,2.899-18.675,3.19-7.54.348-15.229.065-22.631-1.503-4.66-.987-8.717-2.276-12.586-4.515-3.045-1.762-4.479-4.488-4.479-7.96v-5.722c0-7.673,0-15.346,0-23.019s0-17.802,0-26.703v-17.08c0-3.089-4.8-3.094-4.8,0v12.096c0,8.705,0,17.41,0,26.115v25.347c0,2.539,0,5.078,0,7.617,0,2.469.079,4.831,1.076,7.171,2.153,5.05,7.319,7.432,12.184,9.211,5.966,2.183,12.356,3.164,18.67,3.608,8.086.568,16.322.289,24.307-1.151,5.028-.907,10.022-2.373,14.561-4.754,2.522-1.323,4.782-2.996,6.24-5.507,1.184-2.039,1.737-4.351,1.762-6.698.016-1.522,0-3.045,0-4.567v-67.755c0-3.089-4.8-3.094-4.8,0h0Z"/><path class="g" d="M69.341,227.746c-7.661-.053-15.518.348-22.962,2.294-5.715,1.494-12.226,4.258-14.991,9.876-2.576,5.234-1.562,11.349,2.459,15.53,4.071,4.233,10.117,6.352,15.693,7.697,11.527,2.781,23.87,2.893,35.55,1.031,10.359-1.651,25.279-6.751,23.504-19.971-.851-6.337-6.003-10.27-11.572-12.545-6.816-2.784-14.473-3.545-21.768-3.826-1.97-.076-3.941-.099-5.913-.086-3.088.021-3.094,4.821,0,4.8,6.978-.047,14.067.297,20.868,1.971,2.799.689,5.516,1.573,8.007,3.006,2.083,1.199,3.747,2.608,4.821,4.653.867,1.651,1.102,4.134.715,5.881-.457,2.061-1.35,3.472-2.904,4.944-1.459,1.382-3.765,2.714-5.663,3.522-2.513,1.069-5.182,1.796-7.847,2.368-10.021,2.149-21.213,2.294-31.318.661-5.386-.87-10.876-2.175-15.475-4.931-1.853-1.111-3.534-2.512-4.553-4.154-.663-1.068-.766-1.3-1.056-2.527-.062-.261-.117-.526-.155-.791.063.437-.017-.297-.023-.419-.035-.651-.024-1.317.056-1.965-.04.321.082-.429.102-.521.062-.29.136-.577.222-.861.205-.677.199-.688.566-1.373.602-1.124.976-1.586,1.899-2.474,1.708-1.643,4.118-2.903,6.49-3.767,6.335-2.307,13.215-2.95,19.909-3.164,1.779-.057,3.56-.073,5.34-.06,3.089.021,3.093-4.779,0-4.8Z"/><path class="g" d="M69.391,239.258c-4.26-.016-11.14.006-13.525,4.359-1.103,2.013-.676,4.547.926,6.156,1.481,1.488,3.611,2.246,5.617,2.698,4.154.936,8.522.939,12.718.3,3.861-.588,9.026-2.611,8.337-7.43-.845-5.919-9.605-6.099-14.074-6.083-3.088.011-3.094,4.811,0,4.8,1.988-.007,4.006.043,5.96.44.69.14,1.714.407,2.163.605.31.137.625.306.901.505-.079-.056-.305-.224.069.067.334.259-.045-.06.123.104.069.067.331.514.085.098.081.137.005.389.04.007-.014.148.036.297.001.445.023-.1.113-.45-.023-.031-.032.1-.168.424.013-.022-.066.163-.248.232.036.013-.102.078-.184.215-.282.304-.489.445.38-.214-.199.168-.604.399-.933.526-1.436.694-.79.264-1.606.45-2.426.595-2.683.474-6.007.505-8.919.124-.492-.065-1.427-.236-2.094-.396-.679-.163-1.643-.458-1.997-.623-.294-.137-.573-.297-.849-.464-.066-.04-.367-.274-.059-.022-.107-.088-.222-.187-.313-.289-.31-.349-.073-.047-.011.014-.096-.095-.109-.245-.197-.34.295.318.01.207.045.022-.102.533.114-.042.026-.196.06.104-.16.431.04-.015-.2.446.092-.143.144-.194-.26.256.384-.247.238-.152.707-.456,1.274-.635,2.171-.859,2.199-.549,4.493-.609,6.748-.601,3.089.011,3.093-4.789,0-4.8Z"/><path class="f" d="M308.525,49.515v.34c-.54,17.22-1.24,34.44-2.08,51.65,0,0-.05.95-.12,2.48-1.32-.92-2.93-1.47-4.67-1.47h-45c-1.57,0-3.03.44-4.27,1.21-.06-1.38-.11-2.22-.11-2.22-.84-17.21-1.53-34.43-2.08-51.65v-.34h58.33Z"/><path class="e" d="M309.784,109.939c-.377-4.161-3.874-7.421-8.133-7.421h-45c-4.51,0-8.167,3.659-8.167,8.169,0,5.743,0,10.164,0,10.164v1.512c.082-.01.166-.012.25-.012h61c.028,0,.056,0,.083.004v-11.671c0-.251-.011-.5-.034-.746Z"/><circle class="h" cx="279.151" cy="112.518" r="5.722"/><path class="e" d="M301.401,41.018v-.778c0-4.142-3.358-7.5-7.5-7.5h-30.167c-4.142,0-7.5,3.358-7.5,7.5v.778c11.66,0,30.131,0,45.167,0Z"/><path class="g" d="M242.418,45.601c0,1.482-.045,2.891.802,4.195.887,1.367,2.378,2.055,3.971,2.121.567.024,1.141,0,1.708,0h9.545c10.181,0,20.362,0,30.543,0h21.542c1.744,0,3.386-.48,4.46-1.986,1.175-1.649,1.189-4.385.616-6.283-.588-1.952-2.003-3.577-3.865-4.402-1.89-.837-3.989-.628-6.008-.628-1.946,0-3.892,0-5.838,0-4.039,0-8.077,0-12.116,0-8.036,0-16.073,0-24.109,0-3.221,0-6.443,0-9.664,0-3.092,0-6.504-.471-9.062,1.626-1.626,1.333-2.448,3.285-2.524,5.358-.113,3.089,4.687,3.085,4.8,0,.1-2.725,3.288-2.183,5.182-2.183,2.784,0,5.568,0,8.352,0,7.266,0,14.533,0,21.799,0,7.498,0,14.997,0,22.495,0,.845,0,1.691,0,2.536,0,.643,0,1.423-.112,2.035.1,1.548.534,1.404,1.988,1.469,3.307.012.253-.112.474.042.336.213-.191.067-.05.03-.043-.029.006-.074.004-.102,0-.194-.029-.416,0-.612,0h-19.45c-9.652,0-19.305,0-28.957,0h-10.707c-1.376,0-2.806.113-4.179,0,.097.008.015.234.067-.098.07-.451,0-.961,0-1.419,0-3.089-4.8-3.094-4.8,0Z"/><path class="h" d="M290.985,71.932c0-5.201-4.216-9.414-9.417-9.414h-3.5c-5.201,0-9.417,4.216-9.417,9.417v21.25h22.333v-21.252Z"/><path class="g" d="M251.718,38.185c0-4.329,0-8.658,0-12.987,0-2.65-.227-5.194,1.831-7.175,1.121-1.08,2.579-1.582,4.119-1.604,4.83-.069,9.665,0,14.495,0,7.132,0,14.264,0,21.396,0,1.886,0,3.773-.008,5.659,0,3.37.014,6.135,2.372,6.199,5.85.106,5.746,0,11.503,0,17.25,0,3.089,4.8,3.094,4.8,0,0-5.694.043-11.39,0-17.084-.041-5.53-4.092-10.146-9.615-10.751-1.553-.17-3.164-.064-4.722-.064-12.691,0-25.385-.073-38.075,0-5.679.033-10.425,4.25-10.859,9.967-.287,3.776-.029,7.662-.029,11.452,0,1.716,0,3.432,0,5.148,0,3.089,4.8,3.094,4.8,0h0Z"/><path class="e" d="M262.71,12.811v3.248c0,1.542,1.25,2.793,2.793,2.793,8.877,0,17.753,0,26.63,0,1.542,0,2.793-1.25,2.793-2.793v-3.247c0-1.542-1.246-2.793-2.789-2.793-5.547,0-18.152,0-26.634,0-1.542,0-2.792,1.25-2.792,2.793Z"/><path class="g" d="M303.801,40.24c0-5.651-4.719-9.875-10.217-9.9-2.788-.013-5.576,0-8.364,0-7.074,0-14.149-.04-21.222,0-2.672.015-5.204.921-7.148,2.789-2.392,2.298-3.015,5.262-3.015,8.444,0,3.089,4.8,3.094,4.8,0,0-1.966.141-3.762,1.725-5.161,1.044-.922,2.303-1.265,3.666-1.272,2.461-.013,4.923,0,7.384,0h21.057c.699,0,1.452-.062,2.145.035,2.497.351,4.39,2.557,4.39,5.065,0,3.089,4.8,3.094,4.8,0h0Z"/><path class="j" d="M244.485,131.101v-4.611c0-2.233,1.903-4.138,4.25-4.138h61c2.347,0,4.25,1.903,4.25,4.25v4.5c0,2.347-1.899,4.25-4.246,4.25-19.369,0-49.876-.002-61.009-.003-2.347,0-4.245-1.901-4.245-4.248Z"/><path class="e" d="M244.818,45.601v1.583c0,1.289,1.045,2.333,2.333,2.333h64.007c1.286,0,2.328-1.037,2.327-2.323,0-.481,0-1.012,0-1.582,0-2.536-2.057-4.595-4.593-4.595-18.987,0-48.286,0-59.497,0-2.531,0-4.578,2.052-4.578,4.583Z"/><path class="g" d="M247.799,49.855c.545,17.222,1.239,34.439,2.08,51.648.15,3.075,4.951,3.093,4.8,0-.841-17.21-1.534-34.427-2.08-51.648-.098-3.081-4.898-3.095-4.8,0h0Z"/><path class="g" d="M306.126,49.855c-.545,17.222-1.239,34.439-2.08,51.648-.151,3.088,4.649,3.08,4.8,0,.841-17.21,1.534-34.427,2.08-51.648.098-3.09-4.702-3.086-4.8,0h0Z"/><path class="g" d="M271.048,93.181v-23.66c0-3.089-4.8-3.094-4.8,0v23.66c0,3.089,4.8,3.094,4.8,0h0Z"/><path class="g" d="M293.388,93.181v-24.33c0-3.089-4.8-3.094-4.8,0v24.33c0,3.089,4.8,3.094,4.8,0h0Z"/><path class="g" d="M252.762,95.585h53.111c3.089,0,3.094-4.8,0-4.8h-53.111c-3.089,0-3.094,4.8,0,4.8h0Z"/><path class="g" d="M250.885,120.851c0-1.49,0-2.98,0-4.47,0-1.416,0-2.832,0-4.248,0-1.291-.065-2.548.464-3.76,1.053-2.411,3.382-3.455,5.872-3.455h41.903c1.156,0,2.434-.124,3.576.089,2.228.415,4.001,2.12,4.554,4.305.286,1.128.164,2.402.164,3.558v8.982c0,3.089,4.8,3.094,4.8,0v-8.454c0-1.016.038-2.041-.007-3.058-.124-2.808-1.32-5.574-3.439-7.457-2.32-2.062-5.101-2.764-8.117-2.764h-43.162c-3.969,0-7.591,1.513-9.797,4.96-1.892,2.956-1.612,6.37-1.612,9.725,0,2.016,0,4.032,0,6.048,0,3.089,4.8,3.094,4.8,0h0Z"/><path class="g" d="M246.885,131.101v-2.796c0-.808-.183-1.908.228-2.621.516-.895,1.388-.932,2.286-.932h59.757c.946,0,1.874.119,2.298,1.145.344.831.131,2.081.131,2.955s.173,1.957-.084,2.794c-.471,1.535-2.081,1.306-3.365,1.306-1.806,0-3.612,0-5.419,0-3.92,0-7.839,0-11.759,0-13.952,0-27.907.093-41.859-.002-1.179-.008-2.163-.558-2.215-1.848-.124-3.078-4.925-3.094-4.8,0,.096,2.375,1.243,4.561,3.339,5.765,1.587.912,3.313.883,5.075.883,2.991,0,5.982,0,8.972,0,8.144,0,16.289,0,24.433.001,8.4,0,16.8,0,25.199,0,4.296,0,7.281-2.903,7.281-7.218,0-3.137.406-6.523-2.187-8.856-2.36-2.123-5.522-1.726-8.441-1.726h-55.705c-.672,0-1.338-.017-2.007.056-2.383.259-4.471,1.759-5.42,3.969-.572,1.332-.541,2.679-.541,4.089v3.035c0,3.089,4.8,3.094,4.8,0Z"/><path class="g" d="M242.418,45.601c0,1.482-.045,2.891.802,4.195.887,1.367,2.378,2.055,3.971,2.121.567.024,1.141,0,1.708,0h9.545c10.181,0,20.362,0,30.543,0h21.542c1.744,0,3.386-.48,4.46-1.986,1.175-1.649,1.189-4.385.616-6.283-.588-1.952-2.003-3.577-3.865-4.402-1.89-.837-3.989-.628-6.008-.628-1.946,0-3.892,0-5.838,0-4.039,0-8.077,0-12.116,0-8.036,0-16.073,0-24.109,0-3.221,0-6.443,0-9.664,0-3.092,0-6.504-.471-9.062,1.626-1.626,1.333-2.448,3.285-2.524,5.358-.113,3.089,4.687,3.085,4.8,0,.1-2.725,3.288-2.183,5.182-2.183,2.784,0,5.568,0,8.352,0,7.266,0,14.533,0,21.799,0,7.498,0,14.997,0,22.495,0,.845,0,1.691,0,2.536,0,.643,0,1.423-.112,2.035.1,1.548.534,1.404,1.988,1.469,3.307.012.253-.112.474.042.336.213-.191.067-.05.03-.043-.029.006-.074.004-.102,0-.194-.029-.416,0-.612,0h-19.45c-9.652,0-19.305,0-28.957,0h-10.707c-1.376,0-2.806.113-4.179,0,.097.008.015.234.067-.098.07-.451,0-.961,0-1.419,0-3.089-4.8-3.094-4.8,0Z"/><path class="g" d="M260.31,12.811c0,1.76-.256,3.762.49,5.401,1.674,3.674,5.799,3.04,9.141,3.04,3.945,0,7.89,0,11.835,0,1.973,0,3.945,0,5.918,0,1.898,0,4.191.348,6.018-.249,2.805-.915,3.613-3.425,3.613-6.087,0-2.424-.02-4.801-2.232-6.356-2.072-1.456-5.202-.941-7.613-.941-2.909,0-5.818,0-8.728,0-3.483,0-6.965,0-10.448,0-1.732,0-3.662-.245-5.242.612-1.738.941-2.642,2.653-2.753,4.581-.178,3.086,4.623,3.076,4.8,0,.048-.839,3.861-.393,4.675-.393,2.531,0,5.062,0,7.593,0,4.525,0,9.05,0,13.575,0,.417,0,1.198-.156,1.459.115.192.198.113.753.113,1.086,0,.658.381,2.631-.376,2.876-.294.095-1.137-.044-1.496-.044-.822,0-1.644,0-2.466,0-1.644,0-3.288,0-4.931,0-3.205,0-6.411,0-9.616,0-1.808,0-3.616,0-5.425,0-.643,0-2.733.384-3.074-.241-.153-.282-.032-1.052-.032-1.413v-1.985c0-3.089-4.8-3.094-4.8,0Z"/><path class="g" d="M282.473,112.518c-.002.16-.014.318-.02.477-.016.449-.009-.154.028-.172-.059.029-.142.634-.177.749-.016.053-.173.39-.152.43-.023-.044.266-.528.057-.16-.149.264-.295.517-.461.771-.269.413.297-.269.054-.075-.092.074-.168.19-.251.275-.069.071-.14.14-.213.208l-.111.1c-.195.163-.149.132.139-.093-.126-.004-.516.346-.626.408-.087.049-.179.091-.266.14-.399.229.515-.148-.053.022-.246.074-.485.154-.737.206-.461.096.01-.095.1,0-.027-.028-.337.027-.394.029-.267.011-.529-.009-.795-.022-.348-.016.612.125.097.008-.151-.034-.3-.065-.449-.106-.147-.041-.29-.094-.435-.141-.331-.106.133-.044.154.068-.012-.065-.559-.296-.659-.359-.104-.066-.202-.149-.309-.21-.277-.159.432.399.078.05-.068-.067-.583-.645-.623-.639.095-.013.292.422.102.131-.082-.125-.168-.247-.245-.376-.051-.086-.1-.173-.147-.261l-.068-.134c-.109-.233-.09-.18.057.16.044-.096-.205-.605-.235-.725-.025-.1-.044-.201-.067-.301-.108-.476.038.565-.005-.06-.016-.239-.019-.478-.005-.717.014-.254.178-.528-.017.014.032-.088.038-.209.059-.304.056-.251.139-.489.216-.733.159-.503-.264.474-.003.018.075-.13.138-.266.216-.395.064-.107.136-.209.203-.314.243-.389.065.087-.06.07.037.005.464-.495.512-.54l.111-.1c.155-.129.151-.129-.013-.002-.316.097.008-.004.118-.078.113-.076.777-.375.784-.441-.004.034-.57.202-.154.068.145-.047.288-.1.435-.141.099-.028.198-.052.298-.075.083-.018.547-.045.14-.037-.43.008.09-.001.15-.004.133-.007.266-.009.399-.008s.265.014.397.019c.514.017-.477-.115-.019,0,.3.075.59.154.885.247.477.152-.343-.22-.086-.035.137.099.317.161.463.248.086.051.17.105.253.16.083.055.164.113.244.173-.287-.225-.334-.256-.139-.093.175.175.351.351.526.526.367.368-.289-.454-.006-.018.082.126.168.247.245.376s.141.265.216.395c.226.399-.154-.491-.003-.018.094.295.172.584.247.885.085.342-.118-.079-.016-.176-.042.04.034.554.035.634.017,1.255,1.092,2.459,2.4,2.4,1.286-.058,2.418-1.055,2.4-2.4-.048-3.474-2.203-6.441-5.433-7.657-3.026-1.139-6.777-.142-8.831,2.357-2.189,2.662-2.647,6.43-.846,9.443s5.247,4.414,8.646,3.803c3.757-.676,6.413-4.222,6.464-7.945.017-1.256-1.116-2.458-2.4-2.4-1.315.059-2.382,1.054-2.4,2.4Z"/><path class="j" d="M135.825,121.535c-1.294-6.785-4.594-14.432-10.862-17.992-1.524-.865-3.243-1.48-5.043-1.872l.481-.668c1.145-1.209,1.923-2.71,2.686-4.19.008-.016.016-.032.024-.047,1.204-2.341-.5-5.127-3.132-5.162-2.993-.04-6.941-.04-9.934,0-2.632.035-4.336,2.821-3.132,5.162.008.016.016.032.024.047.763,1.48,1.541,2.981,2.686,4.19l.492.815c-1.584.4-3.094.981-4.45,1.759-5.231,3.001-8.389,8.549-10.393,14.057-1.466,4.029-2.057,8.476-1.003,12.632,3.459,13.65,21.978,15.029,32.713,10.092,3.677-1.691,6.945-4.565,8.41-8.337,1.283-3.304,1.098-7.003.434-10.485Z"/><path class="g" d="M111.32,99.305c-.68-.74-1.191-1.597-1.73-2.596-.132-.245-.261-.492-.389-.739-.029-.056-.283-.566-.182-.328.086.201-.074-.325-.11-.409-.1-.235.021.07.016.138.008-.119.014-.278-.002-.397.006.048-.111.402-.024.152.029-.083.053-.197.067-.284.061-.39-.165.186.049-.145.107-.165.331-.454.062-.153.084-.094.516-.478.328-.342-.303.219.485-.257.151-.093-.223.11.284-.077.387-.106.263-.074-.073.006-.116.008.113-.006.226-.008.34-.011.293-.007.586-.007.879-.01,2.337-.023,4.674-.025,7.01-.008.518.004,1.035.009,1.553.015.108.001.724.03.477-.001-.224-.028.36.104.483.152-.384-.151-.024.028.133.124-.336-.204-.04-.003.111.128.294.256-.07-.222.096.129.037.078.089.185.14.255.142.193-.03-.275-.023-.035.002.078.054.205.077.281.087.287-.029.127-.005-.056-.003.026.023.291.002.297-.009.139-.004.133.015-.02.026-.152.025-.159-.003-.019-.055.13-.264.696-.076.319-.112.223-.229.444-.344.664-.602,1.149-1.211,2.239-1.991,3.088-.876.954-.944,2.45,0,3.394.888.888,2.514.958,3.394,0,1.084-1.18,1.932-2.523,2.677-3.936.664-1.26,1.23-2.521,1.109-3.984-.265-3.194-2.854-5.507-6.027-5.578-2.891-.065-5.789-.039-8.68-.011-1.478.014-2.9.082-4.195.885-1.249.774-2.184,1.994-2.613,3.399-.491,1.606-.181,3.208.561,4.672.826,1.632,1.754,3.199,2.997,4.553.877.955,2.505.889,3.394,0,.951-.951.879-2.437,0-3.394h0Z"/><path class="g" d="M111.39,99.107c-5.642.926-10.245,4.019-13.637,8.558-3.222,4.312-5.502,9.798-6.198,15.133-.62,4.754.165,9.858,3.001,13.825,2.294,3.21,5.454,5.418,9.094,6.867,6.901,2.747,15.384,2.461,22.291-.123,4.593-1.718,8.973-4.731,11.145-9.27,2.497-5.219,1.782-11.247.234-16.642-1.49-5.191-4.084-10.473-8.309-13.98-4.951-4.109-11.364-5.266-17.621-4.369-1.284.184-1.989,1.816-1.676,2.952.379,1.379,1.664,1.861,2.952,1.676,4.324-.62,9.149.231,12.674,2.909,3.127,2.376,5.241,6.03,6.566,9.666,1.498,4.11,2.742,9.039,1.694,13.388-.996,4.136-4.299,7.01-8.063,8.691-2.376,1.061-5.916,1.865-8.638,2.078-3.253.254-6.275.072-9.324-.736-6.243-1.654-11.092-6.068-11.419-12.959-.248-5.239,1.774-10.539,4.532-14.924,2.792-4.439,6.779-7.261,11.978-8.114,1.28-.21,1.994-1.798,1.676-2.952-.374-1.36-1.668-1.887-2.952-1.676Z"/><path class="g" d="M112.521,102.609v5.196c0,.615.268,1.262.703,1.697.416.416,1.099.73,1.697.703.621-.028,1.264-.232,1.697-.703s.703-1.047.703-1.697v-5.196c0-.615-.268-1.262-.703-1.697-.416-.416-1.099-.73-1.697-.703-.621.028-1.264.232-1.697.703s-.703,1.047-.703,1.697h0Z"/><path class="f" d="M79.645,102.025l-.14.5c.8,2.83-2.05,7.39-3.11,9.96-1.4,3.36-2.74,6.81-2.86,10.49-.15,4.54,1.49,9.47-.78,13.4-2.45,4.26-8.24,5.29-12.69,5.96-4.77.73-8.67.63-14.1.63-4.89,0-9.33.1-14.1-.63-4.45-.67-10.24-1.7-12.69-5.96-2.27-3.93-.63-8.86-.78-13.4-.12-3.68-1.47-7.13-2.86-10.49-1.06-2.57-3.91-7.13-3.11-9.96l-.14-.5c3.09-.89,6.33-2.51,9.47-2.11,2.46.32,4.6,1.85,6.94,2.69,4.5,1.61,9.34.57,13.96-.91,2.16-.69,4.46-.69,6.62,0,4.62,1.48,9.45,2.52,13.95.91,2.35-.84,4.49-2.37,6.94-2.69,3.14-.4,6.38,1.22,9.48,2.11Z"/><path class="f" d="M16.974,19.429c-.892,1.553-1.666,3.176-2.306,4.854-5.061,13.262-2.265,29.013,5.725,40.607,7.135-2.02,16.555-2.642,25.57-2.581,9.002-.061,18.407.597,25.539,2.625,8.013-11.595,10.823-27.371,5.756-40.651C72.325,11.357,59.431,1.644,45.963,2.448c-11.72-.699-23.006,6.566-28.988,16.981Z"/><path class="f" d="M45.963,62.309c-17.922-.121-37.44,2.458-37.44,13.329,0,11.258,24.092,14.065,37.44,14.065,13.348,0,37.44-2.074,37.44-14.065,0-10.725-19.518-13.45-37.44-13.329Z"/><path class="j" d="M45.963,70.901c-7.199-.043-15.04.867-15.04,4.701,0,3.971,9.678,4.96,15.04,4.96,5.362,0,15.04-.731,15.04-4.96,0-3.782-7.84-4.744-15.04-4.701Z"/><path class="j" d="M84.044,77.331c2.22,3.746,3.875,7.866,4.884,12.158.825,3.511,1.222,7.263-.963,10.638-5.103,6-11.638-.999-17.798-.207-2.452.316-4.597,1.848-6.937,2.685-4.5,1.609-9.336.565-13.956-.911-2.161-.69-4.461-.69-6.622,0-4.62,1.476-9.455,2.52-13.955.911-2.34-.837-4.485-2.37-6.937-2.685-6.16-.793-12.695,6.206-17.798.207-2.184-3.375-1.788-7.126-.963-10.638,1.107-4.71,2.993-9.215,5.551-13.245.845,10.755,24.308,13.46,37.414,13.46,13.348,0,37.44-2.074,37.44-14.065"/><path class="g" d="M21.423,62.096c-5.585-8.966-8.241-20.066-6.296-30.546,1.789-9.634,7.506-18.208,16.071-23.1,3.951-2.256,8.417-3.606,12.981-3.648,4.642-.042,9.015.238,13.359,2.054,8.822,3.688,15.62,11.644,18.317,20.756,3.429,11.586.967,24.339-5.351,34.483-1.638,2.629,2.513,5.042,4.145,2.423,6.33-10.162,8.996-22.634,6.741-34.443-2.065-10.817-8.889-20.573-18.551-25.946C58.238,1.572,53.027.043,47.746.002c-5.391-.042-10.442.438-15.454,2.571C22.354,6.805,14.727,15.677,11.561,25.949c-3.96,12.846-1.314,27.281,5.717,38.57,1.63,2.617,5.784.209,4.145-2.423h0Z"/><path class="g" d="M5.81,76.119c-2.631,4.495-4.677,9.546-5.526,14.702-.79,4.793-.139,10.667,4.655,13.172,3.789,1.979,7.772.423,11.508-.815,1.602-.53,3.368-1.133,5.08-.882,2.387.351,4.488,1.932,6.749,2.696,2.572.869,5.359.97,8.034.632,2.714-.343,5.205-1.247,7.85-1.856,2.607-.6,4.922.456,7.405,1.09,2.625.67,5.409,1.129,8.123.9,2.762-.232,5.136-1.171,7.613-2.352,1.773-.846,3.474-1.394,5.438-.995,3.788.769,7.346,2.979,11.329,2.477,5.867-.739,8.346-6.704,7.843-12.033-.554-5.867-2.837-11.684-5.795-16.737-1.56-2.664-5.71-.251-4.145,2.423,2.38,4.065,4.127,8.514,4.973,13.159.546,2.999.312,8.04-3.515,8.468-3.017.337-6.376-1.768-9.414-2.385-2.037-.414-4.083-.451-6.081.192-2.146.691-4.047,1.981-6.217,2.595-2.138.605-4.429.552-6.602.16-2.463-.444-4.804-1.45-7.275-1.798-4.912-.692-9.354,2.098-14.251,2.083-2.306-.007-4.294-.681-6.352-1.662s-4.12-1.878-6.436-1.897c-3.662-.03-6.876,1.839-10.38,2.567-1.394.29-2.774.249-3.959-.764-1.703-1.456-1.831-4.136-1.666-6.202.405-5.044,2.632-10.198,5.159-14.515,1.564-2.671-2.583-5.09-4.145-2.423h0Z"/><path class="g" d="M10.106,101.89c-.965,4.017,1.593,7.805,3.146,11.317.934,2.113,1.756,4.327,2.29,6.576.567,2.39.484,4.747.272,7.175-.402,4.608-.512,9.43,3.066,12.912,2.872,2.795,6.945,3.883,10.786,4.534,4.933.837,9.854.971,14.845.96,4.903-.01,9.819.134,14.693-.503,3.884-.508,7.99-1.132,11.417-3.155,4.082-2.41,5.849-6.545,5.742-11.181-.062-2.673-.572-5.331-.408-8.01.172-2.811,1.194-5.539,2.233-8.13,1.567-3.904,4.693-8.082,3.633-12.496-.721-3.002-5.351-1.731-4.629,1.276.083.346.05.967-.088,1.508-.207.812-.478,1.604-.809,2.374-.696,1.62-1.539,3.17-2.219,4.799-1.838,4.404-3.2,8.809-2.881,13.635.237,3.587,1.363,8.17-1.542,10.996-2.309,2.246-5.937,2.85-8.986,3.353-4.013.661-8.048.744-12.106.738-4.851-.007-9.737.159-14.568-.355-3.312-.352-7.027-.851-9.978-2.487-1.296-.718-2.438-1.704-3.056-3.083-.798-1.782-.645-3.893-.506-5.786.183-2.499.51-4.972.213-7.477-.323-2.724-1.124-5.302-2.128-7.846-.765-1.937-1.659-3.79-2.537-5.675-.409-.878-.781-1.77-1.049-2.702-.206-.717-.331-1.508-.215-1.99.721-3.002-3.906-4.283-4.629-1.276h0Z"/><path class="g" d="M45.963,59.909c-7.771-.044-15.671.292-23.288,1.941-5.484,1.187-12.104,3.304-15.124,8.464-2.656,4.538-1.37,10.068,2.536,13.401,4.337,3.701,10.196,5.37,15.679,6.473,11.591,2.333,23.818,2.511,35.527.974,5.881-.772,12.003-1.908,17.244-4.831,4.354-2.428,7.798-6.614,7.185-11.861-.709-6.063-6.253-9.374-11.526-11.204-7.043-2.445-14.784-3.045-22.185-3.284-2.016-.065-4.032-.085-6.049-.074-3.088.017-3.094,4.817,0,4.8,7.108-.039,14.32.228,21.301,1.666,2.772.571,5.646,1.319,8.131,2.527.539.262,1.067.545,1.58.854.495.298,1.099.708,1.306.877.404.328.786.685,1.141,1.066.075.081.524.611.291.309.16.207.305.429.443.652.923,1.502,1.091,3.077.581,4.746-.027.089-.213.622-.121.388.091-.232-.171.356-.223.455-.112.212-.234.419-.363.621-.076.119-.436.62-.17.277-.306.395-.654.762-1.015,1.107-.16.153-.327.3-.494.446-.113.099-.23.195-.348.288.199-.158.058-.045-.062.043-4.029,2.917-9.077,4.071-14.065,4.931-10.336,1.783-21.431,1.846-31.886.432-5.048-.683-10.717-1.815-15.13-3.984-1.034-.508-2.027-1.089-2.966-1.758-.308-.219.045.059-.326-.257-.197-.168-.392-.337-.579-.515-.359-.341-.704-.704-1.01-1.094.251.32-.025-.047-.108-.178-.126-.199-.247-.399-.363-.605-.083-.147-.322-.679-.141-.236-.1-.245-.185-.497-.256-.752-.054-.193-.093-.389-.138-.584-.093-.404-.017.29-.031-.27-.005-.214-.019-.427-.017-.641.002-.159.056-.864.038-.734.122-.86.337-1.439.91-2.333.344-.536.195-.343.678-.86.381-.408.797-.793,1.237-1.137-.203.158.334-.231.431-.297.253-.171.511-.335.774-.492.551-.33,1.121-.63,1.701-.906,1.14-.542,2.399-.98,3.685-1.367,6.444-1.94,13.287-2.442,19.981-2.628,1.867-.052,3.736-.066,5.604-.056,3.089.017,3.093-4.783,0-4.8Z"/><path class="g" d="M45.963,68.501c-3.346-.011-6.737.128-10.025.797-2.474.503-5.298,1.454-6.696,3.722-1.292,2.096-.73,4.802,1.098,6.374,1.882,1.618,4.422,2.332,6.815,2.781,5.059.948,10.353,1.039,15.456.396,4.145-.522,11.548-1.977,10.717-7.704-.444-3.061-3.497-4.56-6.187-5.281-3.605-.966-7.465-1.097-11.177-1.085-3.088.01-3.094,4.81,0,4.8,2.679-.009,5.407.043,8.052.51.981.173,1.963.392,2.904.723.806.284,1.222.546,1.75,1.073-.392-.391.052.243-.069-.075-.135-.354.319.437-.005-.142.007.013.029.354.001.407.375-.713-.248.414.091-.308-.047.099-.111.251-.183.328.402-.432-.067.062-.127.115-.063.055-.335.288,0,.029-.178.138-.376.254-.571.367-1.335.772-3.527,1.22-5.366,1.464-3.727.496-7.702.499-11.485.113-2.004-.204-4.057-.555-5.953-1.269-.286-.108-.303-.109-.716-.331-.129-.069-.899-.594-.551-.307-.156-.129-.305-.269-.438-.421.301.344.105.135.039.028-.259-.422-.016.393-.033-.095.016.455.085.125.03-.123.14.624-.122.026.036.033-.117.259-.111.266.018.022-.177.2-.172.195.014-.015.305-.369.206-.23.644-.481.838-.478,2.055-.794,3.169-1.021,2.863-.583,5.837-.635,8.749-.625,3.089.01,3.093-4.789,0-4.8Z"/></g></svg>