<svg id="b" xmlns="http://www.w3.org/2000/svg" width="416.002" height="290.651" viewBox="0 0 416.002 290.651" style="color: initial !important;"><defs><style>.d{fill:#ffffff;}.e{fill:#211715;}.f{fill:#645d5c;}.g{fill:#febe69;}</style></defs><g id="c"><path class="g" d="M380.356,253.047c7.107,3.007,15.723-.96,18.474-8.06,2.254-5.818.328-13.64-1.092-19.714-2.448-10.469-3.063-20.992-2.583-31.716.563-6.174.558-13.533.516-16.616-.144-10.689-4.244-22.854-10.755-29.862-2.593-2.791-3.466-4.184-6.044-5.901,0,0-1.492-.994-2.984-1.988l-2.996-1.423c-5.569-2.644-11.421-4.524-19.859-5.015-13.835-.805-26.564,5.606-32.333,10.52-9.57,8.151-16.242,23.669-16.788,45.571-.862,14.815-2.698,25.429-4.752,31.405-1.398,4.089-2.79,10.953-3.077,15.174-.407,6.131,5.945,15.047,16.78,13.891l67.494,3.734Z"/><path class="d" d="M383.643,191.187c-5.318-2.653-10.787-8.734-13.948-15.646-1.405-3.071-2.863-9.289-3.858-14.278-6.369,7.643-14.631,13.1-24.339,15.644-.572.15-1.407.215-1.961-.024-.713-.39-.9-.737-.781-1.699.296-2.394,1.489-6.31,1.899-8.617-6.868,6.003-14.362,12.326-21.265,17.334,0,0-1.097.799-2.425,1.765-.673.49-1.404,1.022-2.083,1.516-1.026-.912-2.346-1.317-3.514-1.348-2.841-.076-4.142,1.382-4.717,2.25-1.716,2.591-1.958,7.547-1.108,10.675.602,2.215,1.602,5.609,4.363,8.17,1.224,1.135,3.126,1.923,4.952,1.571,1.04,4.558,3.09,10.109,6.969,15.384,2.944,4.004,6.104,7.064,9.697,9.108-.013,1.454.014,2.233-.139,4.333-.078,1.069-.161,2.224-.557,3.266-.531,1.371-1.246,2.559-2.395,3.486-2.433,1.96-4.934,2.897-8.014,4.055l-2.878,1.133c7.543,4.216,21.616,7.918,32.35,7.876,11.564-.029,23.814-3.695,31.91-7.901l-2.812-1.107c-3.08-1.159-5.581-2.095-8.014-4.055-1.149-.927-1.863-2.115-2.395-3.486-.396-1.043-.479-2.198-.557-3.266-.169-2.321-.119-3.028-.146-4.817,6.729-4.812,12.023-12.896,13.184-15.531.456-.816,1.224-2.508,1.87-4.243l.441.103c1.669.39,3.473-.147,4.733-1.053,3.057-2.199,4.469-5.444,5.341-7.568,1.23-2.999,1.603-7.947.221-10.73-.463-.933-1.574-2.541-4.403-2.817-1.3-.127-2.847.187-4.045,1.202-.523-.193-1.049-.423-1.577-.686Z"/><path class="e" d="M365.888,233.436c.014,2.577-.104,5.508.861,7.929.56,1.406,1.311,2.743,2.425,3.79,1.066,1.002,2.353,1.835,3.642,2.52,3.114,1.655,6.58,2.757,9.862,4.049,1.005.396,2.196-.434,2.46-1.397.312-1.135-.388-2.063-1.397-2.46-2.731-1.075-5.587-2.011-8.222-3.297-2.106-1.028-4.136-2.264-5.015-4.509-.437-1.117-.465-2.394-.536-3.59-.06-1.011-.074-2.021-.08-3.034-.014-2.573-4.014-2.579-4,0h0Z"/><path class="e" d="M329.522,233.436c-.005,1.012-.02,2.023-.08,3.034-.071,1.194-.096,2.478-.536,3.59-.889,2.245-2.902,3.478-5.015,4.509-2.636,1.286-5.491,2.223-8.222,3.297-1.004.395-1.705,1.34-1.397,2.46.263.957,1.449,1.795,2.46,1.397,3.282-1.292,6.748-2.394,9.862-4.049,1.289-.685,2.576-1.518,3.642-2.52,1.114-1.047,1.865-2.384,2.425-3.79.965-2.421.847-5.352.861-7.929s-3.986-2.577-4,0h0Z"/><path class="e" d="M381.004,212.204c-1.705,4.512-4.277,8.551-7.413,12.206-3.699,4.312-8.397,8.752-14.208,9.733-1.066.18-1.662,1.495-1.397,2.46.31,1.129,1.391,1.577,2.46,1.397,6.438-1.087,11.865-5.973,15.973-10.762,3.622-4.223,6.474-8.763,8.442-13.971.382-1.011-.424-2.193-1.397-2.46-1.123-.309-2.077.383-2.46,1.397h0Z"/><path class="e" d="M312.401,206.305c1.176,7.208,4.147,14.033,8.619,19.803,4.239,5.469,9.74,9.845,16.622,11.316,2.51.537,3.583-3.318,1.063-3.857-12.749-2.725-20.489-16.326-22.447-28.326-.174-1.067-1.499-1.661-2.46-1.397-1.134.312-1.571,1.39-1.397,2.46h0Z"/><path class="e" d="M343.8,220.242c.119-.055.239-.108.358-.162.29-.134-.152.076-.207.086.081-.015.184-.074.261-.103.374-.141.757-.258,1.146-.352.251-.06.504-.104.758-.153.382-.074-.253.02.013-.005.14-.013.279-.031.419-.043.723-.061,1.451-.063,2.175-.024.345.019.688.053,1.032.088-.407-.042.176.03.211.036.143.025.286.052.428.082.515.107,1.024.247,1.517.432.415.155.053-.045-.013-.012.035-.018.228.106.261.122.17.083.336.173.498.27.126.076.245.159.367.24.381.253-.413-.351-.017-.007.789.686,2.063.834,2.828,0,.691-.753.843-2.095,0-2.828-1.905-1.659-4.431-2.243-6.897-2.409-2.508-.169-4.884.242-7.158,1.289-.953.439-1.263,1.89-.718,2.736.634.983,1.717,1.187,2.736.718h0Z"/><path class="e" d="M347.334,201.976c-.336,1.046-.647,2.104-.89,3.176-.096.422-.196.862-.165,1.296.064.924.458,1.698,1.25,2.208.555.357,1.155.518,1.804.579.391.037.791-.052,1.175-.106l-.532.071c.056-.008.112-.014.169-.019.538-.043,1.023-.194,1.414-.586.347-.347.608-.916.586-1.414-.023-.517-.193-1.054-.586-1.414-.373-.342-.89-.628-1.414-.586-.28.022-.557.07-.835.109l.532-.071c-.19.025-.376.034-.567.008l.532.071c-.13-.023-.253-.059-.376-.107l.478.202c-.143-.062-.281-.134-.408-.226l.405.313c-.029-.024-.055-.05-.079-.08l.313.405c-.034-.047-.058-.09-.082-.143l.202.478c-.019-.055-.033-.107-.044-.165l.071.532c-.019-.146-.012-.286.006-.432l-.071.532c.095-.621.282-1.238.453-1.842.163-.578.334-1.154.517-1.725.32-.997-.374-2.227-1.397-2.46-1.094-.249-2.118.33-2.46,1.397h0Z"/><path class="e" d="M331.099,191.985c-.696,1.847-.588,6.202,2.957,6.793,4.717.265,5.293-4.957,3.859-7.518-1.174-2.097-4.944-3.173-6.816.726Z"/><path class="e" d="M368.857,194.329c.463,1.919-.184,6.227-3.774,6.375-4.713-.321-4.639-5.574-2.899-7.938,1.425-1.935,5.298-2.537,6.673,1.563Z"/><path class="e" d="M386.634,193.288c.942-.741,2.325-.791,3.424-.434.334.109.797.335.969.466.167.128.321.294.463.448.394.43-.137-.252.145.192,1.151,1.814,1.065,4.405.762,6.449-.347,2.338-1.225,4.431-2.446,6.424s-3.409,4.587-6.045,4.077c-1.059-.205-2.158.298-2.46,1.397-.269.98.331,2.254,1.397,2.46,6.454,1.248,10.558-4.932,12.585-10.149,1.664-4.283,2.123-11.298-1.954-14.428-2.886-2.215-6.89-1.917-9.667.268-.85.668-.7,2.129,0,2.828.839.839,1.977.67,2.828,0h0Z"/><path class="e" d="M316.648,186.114c-2.68-2.707-7.295-3.096-10.285-.659-2.475,2.017-3.16,5.583-3.281,8.606-.135,3.393.722,6.762,2.176,9.814,1.704,3.574,4.949,6.972,9.214,6.686,2.555-.172,2.574-4.173,0-4-2.91.195-4.743-2.485-5.83-4.854-.944-2.06-1.543-4.372-1.574-6.639-.017-1.264.082-2.52.392-3.748.13-.514.279-1.029.508-1.509.119-.249.264-.481.409-.716.078-.126.286-.351.078-.114,1.282-1.459,3.84-1.577,5.363-.038,1.814,1.832,4.642-.996,2.828-2.828h0Z"/><path class="e" d="M363.994,162.225c1.342,6.6,2.807,13.169,6.48,18.912,3.422,5.352,8.178,10.358,14.215,12.665,1.009.386,2.194-.427,2.46-1.397.31-1.127-.384-2.073-1.397-2.46-5.245-2.004-9.423-6.867-12.267-11.535-3.199-5.25-4.423-11.289-5.634-17.248-.512-2.521-4.369-1.454-3.857,1.063h0Z"/><path class="e" d="M364.39,159.889c-4.373,5.195-9.678,9.453-15.83,12.36-1.464.692-2.967,1.288-4.502,1.805-.827.279-1.663.534-2.505.766-.198.055-.927.105-1.043.221l-.144.009c-.237-.156-.129-.003.325.461.052,0,.767-3.594.854-3.947.364-1.483.759-2.961,1.039-4.464.368-1.978-1.792-3.301-3.343-1.946-6.757,5.903-13.601,11.739-20.86,17.021-.872.635-1.302,1.738-.718,2.736.504.861,1.858,1.357,2.736.718,7.535-5.483,14.655-11.519,21.67-17.647l-3.343-1.946c-.35,1.881-.874,3.724-1.309,5.586-.366,1.564-1.04,3.587-.512,5.159,1.455,4.328,7.952,1.315,10.651.233,7.652-3.065,14.356-7.993,19.661-14.296,1.648-1.958-1.168-4.801-2.828-2.828h0Z"/><path class="e" d="M393.155,193.557c-.473,10.956.244,21.925,2.742,32.621,1.799,7.706,4.526,18.296-3.36,23.614-3.494,2.356-7.727,2.923-11.649,1.325-1.001-.408-2.198.443-2.46,1.397-.315,1.145.392,2.051,1.397,2.46,8.291,3.377,18.131-1.524,21.067-9.815,1.697-4.794.932-10.217-.034-15.078-1.079-5.428-2.463-10.744-3.098-16.258-.775-6.726-.896-13.506-.604-20.266.111-2.574-3.889-2.568-4,0h0Z"/><path class="e" d="M377.862,142.905c1.344.914,2.455,2.036,3.533,3.246,1.186,1.331,2.445,2.616,3.543,4.021,2.178,2.788,3.887,6.013,5.181,9.298,2.663,6.757,3.593,13.697,3.565,20.914-.017,4.394-.142,8.795-.531,13.173-.096,1.077.988,2,2,2,1.161,0,1.904-.92,2-2,1.358-15.307,1.079-32.149-8.481-45.034-1.292-1.741-2.769-3.307-4.206-4.927-1.392-1.569-2.845-2.961-4.586-4.145-2.134-1.451-4.138,2.013-2.019,3.454h0Z"/><path class="e" d="M373.901,136.041c-6.875-3.244-14.158-5.057-21.769-5.331-8.1-.291-16.208,1.736-23.489,5.214-5.29,2.527-10.089,5.937-13.797,10.509-3.936,4.853-6.742,10.473-8.732,16.379-2.817,8.359-3.966,17.241-4.203,26.031-.069,2.575,3.931,2.573,4,0,.354-13.14,2.805-27.13,10.6-38.047,7.13-9.986,20.043-15.475,32.056-16.062,8.022-.392,16.07,1.342,23.314,4.76,2.315,1.092,4.348-2.355,2.019-3.454h0Z"/><path class="e" d="M301.911,188.843c-.601,10.164-1.351,20.835-4.578,30.57-1.643,4.957-2.754,10.197-3.204,15.403-.351,4.059,1.361,7.977,4.027,10.976,3.687,4.147,9.24,6.047,14.706,5.521,1.075-.104,2-.845,2-2,0-1.001-.918-2.104-2-2-4.352.419-8.55-.803-11.59-4.036-2.469-2.625-3.433-5.697-3.082-9.098.491-4.761,1.627-9.469,3.103-14.013,1.206-3.712,1.949-7.578,2.564-11.426,1.051-6.588,1.662-13.241,2.055-19.897.152-2.571-3.849-2.563-4,0h0Z"/><path class="e" d="M367.663,187.346c.554.76,1.159,1.485,1.839,2.136.393.376.816.714,1.253,1.039.396.294.803.483,1.265.665.266.083.532.095.798.036.266-.012.514-.091.744-.237.415-.243.811-.718.919-1.195.117-.512.091-1.087-.202-1.541l-.313-.405c-.25-.248-.544-.419-.883-.514-.019-.007-.038-.015-.057-.023l.478.202c-.301-.13-.573-.318-.831-.518l.405.313c-.79-.616-1.491-1.364-2.104-2.155l.313.405c-.057-.074-.113-.149-.168-.225-.126-.233-.297-.42-.515-.561-.193-.177-.42-.296-.68-.358-.479-.132-1.116-.072-1.541.202-.427.275-.803.685-.919,1.195-.113.494-.11,1.114.202,1.541h0Z"/><path class="d" d="M345.557,288.661h67.732c.046-2.158.065-4.28.057-6.342-.671-11.432-5.557-17.959-10.141-22.99-5.254-5.169-11.654-8.132-20.048-10.818-8.04,4.503-21.036,8.602-33.265,8.632-10.962.043-25.406-3.819-32.821-8.146-.129-.083-.432-.048-.87.077,0,0-.782.224-1.956.559-9.995,3.259-19.517,6.209-25.417,15.097-3.822,5.758-6.952,15.27-8.787,23.931h65.515Z"/><path class="e" d="M281.97,289.192c1.679-7.869,3.933-16.181,8.311-23.025,3.951-6.176,10.378-9.648,17.088-12.104,4.094-1.499,8.278-2.735,12.393-4.174,2.414-.844,1.376-4.71-1.063-3.857-7.449,2.605-15.356,4.514-22.144,8.682-3.319,2.038-6.227,4.62-8.558,7.743-2.435,3.263-4.122,7.043-5.575,10.825-1.85,4.815-3.233,9.806-4.309,14.848-.536,2.511,3.319,3.584,3.857,1.063h0Z"/><path class="e" d="M380.823,247.499c-7.921,4.088-16.909,6.616-25.78,7.403-8.59.762-17.185-.538-25.427-2.962-3.979-1.17-7.932-2.591-11.535-4.67-2.234-1.289-4.25,2.167-2.019,3.454,7.191,4.149,15.74,6.378,23.893,7.6,9.624,1.443,19.209.7,28.592-1.869,4.926-1.349,9.755-3.159,14.295-5.502,2.288-1.181.267-4.634-2.019-3.454h0Z"/><path class="e" d="M376.156,248.506c7.606,2.158,15.448,4.457,21.955,9.114,5.249,3.757,9.459,9.541,11.515,15.651,1.7,5.053,1.789,10.114,1.657,15.39-.064,2.575,3.936,2.574,4,0,.127-5.099.062-10.095-1.359-15.037-1.068-3.715-2.769-7.246-4.994-10.406-2.023-2.873-4.308-5.553-7.068-7.741-3.039-2.409-6.388-4.316-9.946-5.848-4.761-2.051-9.716-3.566-14.696-4.979-2.481-.704-3.54,3.154-1.063,3.857h0Z"/><path class="d" d="M384.831,212.941c-.386-1.038-2.079-2.163-3.35-2.041-2.502.24-3.249,1.864-3.539,3.38-.114.594-.24,1.501-.326,2.225-.034-.042-.053-.065-.053-.065-.443-.541-1.613-1.824-3.329-1.661-1.895.175-3.12,1.609-3.573,3.856-.684,3.454-2.083,9.237-3.295,13.758.069-1.563.11-3.021.158-4.778.021-.74-.137-1.622-.429-2.303-.291-.681-.818-1.19-1.536-1.372-.983-.249-2.367.416-2.925,1.45-.478.885-.698,2.231-.846,3.396-.421,3.312-1.22,6.575-2.378,9.706-2.343,5.533-9.113,12.603-9.959,17.104-.472,2.512-.06,4.554.274,6.773.339,2.246,1.048,4.674,1.157,7.496.247,3.715.416,6.422.574,9.406,7.062-1.543,14.107-3.161,21.137-4.843-1.154-3.063-1.998-6.092-1.78-8.127.228-4.773,1.374-7.797,3.862-11.261.886-1.237,1.701-2.361,2.453-3.454.994-1.444,1.88-2.836,2.685-4.367.405-.771.787-1.574,1.152-2.442,2.43-7.879,3.913-21.338,4.259-28.36.08-1.626.088-2.186-.392-3.477Z"/><path class="e" d="M369.56,231.927c1.021-3.884,1.991-7.787,2.817-11.718.073-.346.138-.694.213-1.04.052-.241.107-.482.18-.718-.003.009.208-.564.125-.38.073-.164.165-.319.255-.473.047-.08.275-.38.106-.176.121-.146.269-.297.418-.415-.256.204.178-.087.234-.116-.343.178.684-.15.328-.109.401-.046.577-.01.818.099-.13-.059.271.167.314.194.397.249-.097-.116.192.154.211.197.406.406.59.628.691.831,2.114.715,2.828,0,.822-.822.693-1.996,0-2.828-1.409-1.693-3.497-2.57-5.685-2.116-2.239.465-3.746,2.376-4.38,4.475-.613,2.03-.917,4.193-1.405,6.258-.571,2.414-1.173,4.82-1.804,7.218-.655,2.492,3.202,3.555,3.857,1.063h0Z"/><path class="e" d="M382.894,245.309c1.517-4.984,2.332-10.18,3.023-15.333.648-4.828,1.35-9.805,1.347-14.687-.002-2.582-1.097-4.835-3.531-5.913-2.542-1.126-5.701-.06-7.028,2.398-1.027,1.903-1.007,4.312-1.298,6.269-.325,2.185-.659,4.369-1.002,6.552-.789,5.025-1.532,10.084-2.648,15.049-.563,2.507,3.292,3.578,3.857,1.063.86-3.829,1.469-7.719,2.096-11.591.638-3.938,1.336-7.886,1.818-11.847.157-1.293.022-3.758,1.543-4.262,2.204-.731,2.217,2.052,2.151,3.41-.203,4.192-.632,8.378-1.172,12.539-.666,5.137-1.504,10.324-3.015,15.288-.751,2.468,3.109,3.523,3.857,1.063h0Z"/><path class="e" d="M353.448,279.278c-.201-4.053-.271-8.192-.844-12.21-.51-3.576-2-7.544-1.171-11.173.636-2.783,2.681-5.309,4.272-7.607,1.951-2.82,4.056-5.621,5.43-8.783.43-.99.292-2.146-.718-2.736-.846-.495-2.303-.278-2.736.718-1.424,3.275-3.626,6.166-5.643,9.09-1.727,2.504-3.768,5.234-4.462,8.255-.914,3.976.265,8.104.964,12.017.723,4.048.705,8.324.909,12.429.127,2.562,4.128,2.577,4,0h0Z"/><path class="e" d="M374.516,273.909c-.93-2.502-1.87-5.118-1.689-7.821.152-2.275.518-4.566,1.521-6.638,1.106-2.284,2.707-4.266,4.152-6.337,1.622-2.323,3.078-4.722,4.197-7.33.425-.992.295-2.144-.718-2.736-.842-.493-2.308-.281-2.736.718-1.176,2.742-2.73,5.246-4.444,7.681-1.615,2.295-3.305,4.481-4.393,7.088-1.009,2.419-1.407,4.951-1.58,7.555-.203,3.05.782,6.061,1.832,8.885.889,2.392,4.757,1.357,3.857-1.063h0Z"/><path class="e" d="M372.055,272.512c-7.042,1.682-14.1,3.292-21.172,4.846-2.513.552-1.45,4.409,1.063,3.857,7.071-1.554,14.13-3.164,21.172-4.846,2.503-.598,1.443-4.456-1.063-3.857h0Z"/><path class="e" d="M361.338,239.026c.963-2.628,1.688-5.337,2.144-8.099.226-1.37.268-2.433.619-3.761.039-.151.083-.3.131-.448.09-.238.102-.282.037-.133.056-.122.12-.239.193-.352-.115.14-.093.122.068-.055.177-.159.199-.181.068-.065.112-.074.229-.14.35-.199-.423.19.485-.19.176-.036-.142.019-.11.024.096.015-.255-.04-.255-.028,0,.036-.181-.07-.169-.05.036.062-.16-.112-.154-.088.017.071-.123-.145-.119-.118.011.081-.059-.159-.045-.115.042.133.048.152.089.306.124.462.04.257.055.318.046.184.161,1.073-.014,2.272-.049,3.353-.078,2.387-.21,4.77-.386,7.152-.08,1.079.976,2,2,2,1.149,0,1.92-.918,2-2,.161-2.173.288-4.347.365-6.525.081-2.268.428-4.8-.737-6.865-1.35-2.394-4.393-2.701-6.478-1.107s-2.164,4.281-2.543,6.666c-.453,2.854-1.193,5.653-2.187,8.367-.372,1.014.417,2.191,1.397,2.46,1.115.306,2.087-.379,2.46-1.397h0Z"/><path class="d" d="M111.227,181.704c1.148-1.191,2.736-1.682,4.112-1.687,2.993-.009,4.327,1.558,4.911,2.487,1.743,2.771,1.874,7.995.902,11.268-.689,2.318-1.827,5.867-4.798,8.494-1.224,1.083-3.058,1.836-4.848,1.603,0,0-.172-.022-.473-.061-.493,1.886-1.119,3.74-1.511,4.643-1.111,3.415-7.491,15.45-15.97,20.454.135,2.491.336,4.49.863,6.714.338,1.666,1.536,2.812,2.72,3.602,2,1.332,6.016,2.34,9.244,2.902-.064.064-.096.099-.096.099-5.997,6.49-17.268,10.088-28.939,10.573-11.916.421-24.544-2.859-30.007-8.673,2.786-.827,6.157-1.645,8.46-3.043,1.289-.782,2.598-2.764,2.925-4.424.165-1.338.131-4.973.052-6.442-3.778-1.77-7.246-4.558-10.598-8.27-4.622-5.119-7.357-10.719-8.927-15.384-1.877.56-3.954-.066-5.356-1.126-3.164-2.392-4.571-5.843-5.435-8.101-1.221-3.189-1.49-8.407.035-11.304.511-.97,1.721-2.636,4.706-2.856,1.372-.101,2.993.267,4.229,1.366,0,0-4.823-32.334,39.844-32.334,39.333,0,33.957,29.499,33.957,29.499Z"/><path class="d" d="M154.576,288.661c-1.179-7.756-2.968-15.375-6.675-22.383-1.724-3.244-3.805-6.317-6.269-9.041-2.594-2.886-5.358-4.764-8.675-6.699-7.98-4.645-17.226-6.888-26.213-8.844-5.859,6.826-17.419,10.605-29.401,11.103-12.191.431-25.127-3.013-30.374-9.08-14.794,4.745-22.417,8.407-29.659,13.407-5.464,3.773-8.773,8.724-11.651,15.83-1.61,5.797-2.797,10.879-3.691,15.708"/><path class="f" d="M115.603,151.789c-2.043-5.516-5.227-10.339-9.712-13.656l-5.103-4.955c-5.846-7.123-15.045-10.753-27.989-10.823-16.833.077-28.954,8.077-34.177,15.294l1.172,1.121c-11.022,10.334-14.492,28.197-8.319,44.735.496-.165,1.067-.284,1.724-.332,1.372-.101,2.993.267,4.229,1.366l5.708-5.179c4.236-5.102,11.763-12.836,17.134-15.922.63-.362,1.473.063,1.775,1.127.292,1.028.321,1.816.267,2.565-.081,1.137,1.05,1.919,1.964,1.364,3.83-2.324,10.635-6.968,15.499-9.241l7.366.619c2.4.935,4.233,1.853,6.916,3.988,4.598,3.659,9.067,8.748,11.139,13.431l6.031,4.412c1.147-1.191,2.736-1.682,4.112-1.687.754-.002,1.403.095,1.961.258,1.92-9.046,1.575-19.654-1.696-28.485Z"/><path class="e" d="M40.348,138.658c4.543-6.209,12.055-10.356,19.386-12.466,9.264-2.666,19.963-2.675,29.032.797,4.147,1.588,7.774,4.191,10.608,7.602,1.646,1.982,4.463-.861,2.828-2.828-6.142-7.394-15.452-10.483-24.775-11.22-10.587-.837-21.55,1.34-30.598,7.038-3.825,2.408-7.261,5.403-9.935,9.058-.638.872-.147,2.231.718,2.736,1.014.593,2.097.157,2.736-.718h0Z"/><path class="e" d="M33.33,182.779c-5.202-14.306-3.599-31.714,7.877-42.595,1.872-1.775-.96-4.6-2.828-2.828-9.34,8.856-13.092,22.286-11.632,34.873.461,3.974,1.36,7.854,2.727,11.614.873,2.4,4.74,1.364,3.857-1.063h0Z"/><path class="e" d="M104.881,139.86c5.63,4.224,8.786,10.962,10.345,17.664,1.669,7.175,1.661,14.804.188,22.011-.514,2.513,3.341,3.588,3.857,1.063,2.465-12.058,1.523-26.088-5.324-36.643-1.903-2.934-4.252-5.452-7.047-7.549-.865-.649-2.235-.139-2.736.718-.598,1.023-.149,2.086.718,2.736h0Z"/><path class="e" d="M38.841,183.125c-2.578-2.128-6.116-2.581-9.127-1.034-2.143,1.101-3.395,3.25-3.891,5.546-1.184,5.483.396,11.661,3.72,16.144,2.387,3.22,5.686,5.509,9.839,4.807,1.066-.18,1.662-1.495,1.397-2.46-.31-1.129-1.391-1.578-2.46-1.397-2.833.479-5.114-2.402-6.362-4.553-1.18-2.034-2.088-4.325-2.385-6.667-.279-2.202-.336-4.957.898-6.904.201-.317-.085.054.171-.233.151-.17.315-.346.496-.485.325-.249.734-.416,1.134-.538,1.24-.378,2.716-.246,3.742.601.832.687,2.013.815,2.828,0,.708-.708.837-2.137,0-2.828h0Z"/><path class="e" d="M112.641,183.118c1.637-1.578,4.45-1.436,5.796.244-.199-.248.028.057.086.152.15.246.297.5.413.764.228.518.371,1.081.496,1.632.311,1.36.367,2.771.302,4.161-.11,2.337-.818,4.727-1.852,6.824-1.243,2.52-3.254,5.26-6.376,4.976-2.563-.233-2.547,3.769,0,4,6.528.593,10.229-6.52,11.655-11.851,1.248-4.667,1.08-12.056-3.564-14.904-3.068-1.881-7.239-1.277-9.784,1.175-1.857,1.79.974,4.616,2.828,2.828h0Z"/><path class="e" d="M109.695,200.541c-.449,2.675-1.289,5.249-2.243,7.78-.05.131-.101.262-.152.393-.139.362.009-.011-.045.112-.162.371-.331.739-.506,1.105-.431.9-.896,1.783-1.384,2.654-2.483,4.435-5.529,8.661-9.348,12.043-2.084,1.845-4.472,3.396-7.175,4.137-2.48.68-1.427,4.54,1.063,3.857,5.542-1.519,10.029-5.678,13.538-10.063,3.022-3.777,5.708-7.941,7.565-12.422,1.135-2.737,2.052-5.607,2.543-8.532.179-1.064-.28-2.153-1.397-2.46-.959-.263-2.28.326-2.46,1.397h0Z"/><path class="e" d="M36.477,204.285c3.757,14.015,14.783,28.411,30.054,30.098,1.075.119,2-1.004,2-2,0-1.18-.922-1.881-2-2-6.764-.747-12.326-4.782-16.793-9.692-4.507-4.954-7.673-11.015-9.404-17.47-.666-2.484-4.525-1.43-3.857,1.063h0Z"/><path class="e" d="M72.203,214.255c.265-.153.531-.304.805-.441.041-.021.489-.229.489-.228.007.018-.464.184-.023.017.104-.039.209-.077.315-.113.523-.178,1.059-.316,1.601-.42.182-.035.365-.065.548-.094-.297.048.035-.004.163-.018.404-.043.809-.071,1.215-.087.733-.028,1.47-.014,2.2.061.184.019.387.059.088.007.163.028.326.053.488.086.245.049.488.106.728.173.231.065.457.143.683.222.373.13-.039-.071-.103-.05.033-.011.251.116.285.133.271.135.531.289.777.466.852.613,2.264.176,2.736-.718.546-1.034.192-2.082-.718-2.736-1.999-1.438-4.783-1.734-7.165-1.644-2.528.095-4.936.661-7.131,1.93-.906.524-1.301,1.831-.718,2.736.589.914,1.767,1.278,2.736.718h0Z"/><path class="e" d="M75.756,195.614c.184.605.354,1.214.516,1.826.169.639.356,1.291.446,1.947l-.071-.532c.014.132.02.261.008.393l.071-.532c-.012.082-.03.157-.058.235l.202-.478c-.026.055-.052.1-.089.149l.313-.405c-.025.031-.053.058-.084.083l.405-.313c-.113.079-.235.143-.36.201l.478-.202c-.154.064-.306.111-.471.137l.532-.071c-.167.02-.332.016-.499-.004l.532.071c-.316-.043-.63-.099-.948-.13-.481-.046-1.085.256-1.414.586-.347.347-.608.916-.586,1.414.023.517.193,1.054.586,1.414.412.378.859.533,1.414.586.029.002.058.006.088.009l-.532-.071c.392.054.785.15,1.181.139.655-.018,1.232-.192,1.809-.498.663-.351,1.189-.987,1.351-1.727.141-.646.07-1.235-.065-1.876-.242-1.151-.554-2.289-.896-3.415-.149-.49-.474-.934-.919-1.195-.429-.251-1.061-.357-1.541-.202-1.009.327-1.723,1.388-1.397,2.46h0Z"/><path class="e" d="M56.149,186.032c-.535,2.009.039,6.562,3.816,6.806,4.971-.221,5.023-5.754,3.25-8.286-1.452-2.073-5.516-2.803-7.066,1.48Z"/><path class="e" d="M95.965,184.502c.687,1.962.465,6.545-3.282,7.079-4.973.161-5.45-5.351-3.876-8.012,1.289-2.179,5.284-3.217,7.158.934Z"/><path class="e" d="M55.266,174.171c-.335.372-.73.69-1.124.997l.405-.313c-.898.694-1.87,1.387-2.919,1.836l.478-.202c-.101.042-.202.08-.308.11-.486.137-.94.482-1.195.919-.251.429-.357,1.061-.202,1.541.157.484.457.951.919,1.195.475.251,1.013.351,1.541.202.965-.272,1.875-.861,2.698-1.419.552-.374,1.084-.777,1.605-1.194.326-.261.65-.534.93-.845.355-.393.586-.874.586-1.414,0-.491-.218-1.076-.586-1.414-.381-.35-.882-.61-1.414-.586-.515.023-1.058.191-1.414.586h0Z"/><path class="e" d="M3.897,289.192c.508-2.723,1.085-5.432,1.727-8.126.65-2.723,1.156-5.688,2.246-8.269,1.872-4.434,4.311-8.654,7.899-11.919,2.653-2.414,5.87-4.306,8.999-6.038,3.354-1.856,6.848-3.447,10.411-4.856,5.603-2.216,11.344-4.073,17.102-5.837,2.454-.752,1.408-4.614-1.063-3.857-9.419,2.885-18.939,5.969-27.647,10.648-3.277,1.76-6.523,3.731-9.419,6.072-3.912,3.162-6.786,7.388-8.907,11.913-1.48,3.158-2.337,6.418-3.168,9.795-.766,3.117-1.45,6.254-2.038,9.41-.469,2.516,3.385,3.595,3.857,1.063h0Z"/><path class="e" d="M103.872,243.116c9.328,2.008,18.904,4.026,27.318,8.716,4.029,2.246,7.547,4.891,10.461,8.493,3.047,3.767,5.404,8.156,7.083,12.69,1.932,5.22,3.071,10.687,3.914,16.177.164,1.069,1.506,1.659,2.46,1.397,1.141-.314,1.561-1.389,1.397-2.46-1.569-10.216-4.381-20.421-10.632-28.833-2.95-3.97-6.42-7.159-10.643-9.734-4.305-2.625-8.95-4.608-13.743-6.153-5.419-1.748-10.991-2.953-16.551-4.15-2.51-.54-3.583,3.315-1.063,3.857h0Z"/><path class="e" d="M56.772,230.194c.084,1.604.091,3.217.047,4.822-.01.381-.024.763-.052,1.144-.009.125-.011.261-.033.385.098-.556-.099.185-.135.291-.226.669-.754,1.522-1.3,2.08-.142.145-.291.296-.454.419.275-.206-.345.187-.407.221-.367.206-.746.388-1.129.563-.223.098-.265.116-.126.056-.137.056-.275.111-.414.164-.211.081-.422.159-.635.235-.505.181-1.016.347-1.528.507-1.878.586-3.795,1.053-5.652,1.706-1.018.358-1.697,1.367-1.397,2.46.271.987,1.437,1.757,2.46,1.397,2.075-.73,4.223-1.231,6.312-1.917s4.425-1.483,5.945-3.139c1.562-1.701,2.429-3.752,2.525-6.047.075-1.777.064-3.57-.029-5.347-.056-1.079-.879-2-2-2-1.039,0-2.057.916-2,2h0Z"/><path class="e" d="M108.638,240.463c-.466-.059.272.043-.174-.022-.189-.028-.377-.055-.566-.084-.438-.067-.875-.141-1.311-.219-.87-.157-1.736-.335-2.596-.536-.905-.212-1.805-.45-2.692-.729-.402-.126-.802-.261-1.197-.408-.188-.07-.374-.141-.56-.217.309.127-.153-.071-.218-.102-.583-.273-1.329-.717-1.613-.965-.163-.142-.323-.285-.475-.44.009.009-.389-.431-.257-.262-.266-.341-.428-.654-.519-.929-.659-2.008-.761-4.142-.888-6.236-.065-1.078-.873-2-2-2-1.032,0-2.065.916-2,2,.149,2.461.276,5.177,1.106,7.52.723,2.04,2.395,3.642,4.302,4.608,3.566,1.806,7.726,2.526,11.657,3.02,1.074.135,2-1.016,2-2,0-1.193-.923-1.865-2-2h0Z"/><path class="e" d="M86.608,161.801c3.616,1.421,6.692,3.8,9.48,6.513,2.973,2.893,5.665,6.182,7.38,9.986.444.985,1.874,1.222,2.736.718,1.013-.593,1.163-1.748.718-2.736-1.884-4.179-4.951-7.865-8.237-11.019-1.725-1.656-3.575-3.218-5.555-4.562-1.704-1.156-3.547-2.006-5.459-2.757-1.006-.395-2.196.434-2.46,1.397-.312,1.135.388,2.064,1.397,2.46h0Z"/><path class="e" d="M44.548,180.774c4.216-5.057,8.913-10.093,14.253-13.98.561-.408,1.132-.803,1.72-1.173.39-.245,1.235-.443.205-.472-.915-.026-.52.016-.422.774.096.744-.072,1.482.126,2.219.248.924.879,1.719,1.726,2.166,1.644.869,3.111-.065,4.494-.932,1.344-.843,2.679-1.702,4.019-2.552,3.285-2.081,6.594-4.178,10.114-5.844,2.325-1.101.298-4.55-2.019-3.454-3.113,1.473-6.056,3.293-8.969,5.122-1.452.912-2.894,1.838-4.342,2.756-.57.361-1.14.721-1.714,1.074-.059.037-.476.276-.474.29,0-.004,1.09.272,1.017.308.104-.052.041-.888.021-1.126-.147-1.772-.713-3.849-2.604-4.47-1.612-.53-2.983.507-4.245,1.381-2.824,1.956-5.412,4.258-7.878,6.642-2.764,2.672-5.395,5.49-7.857,8.443-1.637,1.964,1.178,4.809,2.828,2.828h0Z"/><path class="e" d="M46.264,245.889c5.924,5.768,14.991,7.827,22.946,8.635,9.089.924,18.777-.126,27.269-3.597,4.16-1.7,8.117-3.989,11.217-7.29,1.761-1.875-1.062-4.71-2.828-2.828-5.223,5.56-13.055,8.066-20.388,9.276-8.334,1.376-17.133.936-25.217-1.567-3.664-1.135-7.386-2.748-10.17-5.458-1.846-1.797-4.677,1.029-2.828,2.828h0Z"/><path class="d" d="M47.696,244.365c1.207-3.771,2.442-5.963,4.213-8.253,1.773-2.382,3.223-3.984,5.277-5.81,1.347-1.198,4.175-2.529,7.759-2.978,5.357-.672,9.263-.607,12.66-.377,1.508.102,3.249,1.248,3.249,3.376,0,1.694-1.504,2.888-2.811,3.09-1.926.298-4.584.383-7.784.964-3.662.665-3.762,1.005-5.566,2.683l-.168.25c3.597-.073,7.879.137,9.778,1.004.713.326,3.311,1.837,3.956,2.283,3.034,2.098,4.615,3.626,5.558,5.583.421.874.242,2.434-.187,3.304-.374.759-1.634,1.755-3.62,1.132,1.224,1.16,1.592,2.682,1.254,4.084-.275,1.138-1.5,2.645-3.658,2.803.804.762.365,2.797-.262,3.677-.655.92-2.517.995-3.495.646-.535-.191-1.498-.6-2.528-.801-.054.281-.085.442-.085.442-.191.997-.582,3.309-.901,4.274-.901,2.807-2.193,5.916-4.76,7.424-1.22.718-2.639.989-3.923,1.579-1.11.519-2.095,3.059-2.688,4.842-.013.04-.054.059-.093.046-5.571-1.83-12.096-4.065-17.319-5.748-.36-.116-.549-.506-.422-.862.857-2.407,1.414-3.705,1.943-5.302.572-2.399,1.27-4.543,1.795-8.105,1.054-7.156,1.379-9.969,2.32-13.553.171-.599.34-1.163.51-1.695Z"/><path class="e" d="M60.227,239.56c2.506-.27,5.049-.316,7.566-.232,1.246.042,2.506.103,3.738.307,1.116.184,1.637.324,2.386.725,2.312,1.24,4.624,2.631,6.491,4.495.651.651,1.518,1.543,1.647,2.484.15,1.095-.226,1.639-1.296,1.411-2.51-.537-3.583,3.318-1.063,3.857,3.386.724,6.015-1.177,6.331-4.608.269-2.92-1.944-5.371-4.05-7.101-1.963-1.613-4.121-3.044-6.399-4.18-2.142-1.068-4.644-1.239-6.999-1.357-2.775-.138-5.589-.099-8.353.199-1.074.116-2,.836-2,2,0,.992.919,2.116,2,2h0Z"/><path class="e" d="M65.398,246.957c4.241.02,7.701,1.488,11.236,3.666.381.235.757.478,1.124.734.067.047.484.352.366.26-.134-.104.245.204.292.245.274.24.501.47.683.786.158.274.258.609.274.788.044.475.013.531-.099.94-.047.135-.028.095.058-.119-.035.075-.074.148-.115.219-.035.051-.322.455-.193.302-.112.133-.368.337-.551.434-.246.131-.533.256-.867.289-1.075.107-2,.843-2,2,0,.999.919,2.108,2,2,2.506-.249,4.921-1.695,5.587-4.271.76-2.942-.791-5.412-3.08-7.088-4.249-3.112-9.425-5.161-14.714-5.187-2.574-.012-2.577,3.988,0,4h0Z"/><path class="e" d="M66.832,254.843c.059.007.395.05.056.004.097.013.194.027.29.042.224.033.447.068.669.107.47.081.938.176,1.402.289.432.105.86.224,1.282.361.213.069.426.142.636.22.091.034.182.069.272.104.102.04.408.175.157.062,1.53.684,2.921,1.619,4.255,2.626.028.021.359.273.207.156-.135-.104.142.109.132.103.084.048.268.386-.113-.15.035.048.165.223-.007-.033-.154-.229-.043-.075-.014.043.05.204-.034-.216-.025-.221-.023.014.001.463,0,.534-.003.319.022-.116.021-.118.014.015-.034.184-.04.206-.043.156-.075.315-.124.47-.02.063-.051.128-.066.192-.057.253.193-.324.053-.12-.07.101-.33.469-.107.249.215-.212.057-.074.01-.026-.244.257.099-.11.121-.088-.002-.002-.152.087-.164.093-.226.118.376-.087.118-.051-.149.021-.314.085-.461.119-.135.031-.188-.039-.01.004.15-.019.169-.024.057-.014-.07.006-.14.009-.21.01-.159.004-.323-.022-.48-.013-.211.012.185.014.205.034-.021-.021-.232-.043-.244-.046-.267-.061-.52-.164-.775-.26-1.009-.379-2.008-.662-3.083-.781-1.141-.126-2.269.246-3.232.848-.887.554-1.315,1.81-.718,2.736.573.889,1.787,1.31,2.736.718.095-.06.669-.349.281-.192.086-.035.533-.238.607-.184.037.027-.516-.032-.136.035.116.02.253.016.369.027-.09-.009-.364-.072.02.012.15.033.301.064.45.101.788.198,1.521.559,2.302.768,1.94.52,4.41.099,5.57-1.675.983-1.504,1.371-3.91.372-5.489-.378-.598-.967-.971-1.52-1.391-.434-.329-.874-.651-1.322-.961-.759-.524-1.544-1.011-2.369-1.424-2.355-1.176-4.834-1.717-7.428-2.038-1.042-.129-2.044,1.012-2,2,.053,1.194.883,1.862,2,2h0Z"/><path class="e" d="M50.182,235.102c-6.696,8.745-6.003,20.283-8.633,30.468-.296,1.145-.613,2.252-1.028,3.361-.531,1.421-1.707,3.352-1.36,4.89.375,1.661,1.969,2.024,3.383,2.485,1.631.532,3.258,1.073,4.886,1.616,3.369,1.124,6.733,2.26,10.105,3.373,1.926.635,2.921.022,3.581-1.835.322-.905.854-2.523,1.544-2.991.729-.494,1.873-.655,2.692-.994.813-.337,1.536-.743,2.228-1.289,1.26-.995,2.245-2.301,2.989-3.718,1.415-2.693,2.035-5.514,2.594-8.47.476-2.516-3.379-3.594-3.857-1.063-.639,3.38-1.251,7.37-3.881,9.855-1.567,1.48-4.019,1.346-5.575,2.801-1.486,1.39-2.184,3.589-2.816,5.462l.919-1.195-.093.046,1.541-.202c-2.934-.965-5.861-1.949-8.79-2.929-1.399-.468-2.798-.936-4.198-1.4-1.275-.423-2.922-.689-4.089-1.351l.718.718-.023.018v1.063c.229-1.612,1.186-3.296,1.73-4.839.535-1.516.881-3.136,1.251-4.701.862-3.645,1.248-7.389,1.815-11.087.88-5.741,2.226-11.376,5.822-16.071.657-.858.133-2.239-.718-2.736-1.03-.602-2.078-.143-2.736.718h0Z"/><path class="e" d="M53.636,237.121c1.896-2.527,4.13-5.355,7.097-6.647,3.403-1.481,7.431-1.593,11.089-1.673,1.508-.033,3.018-.007,4.525.071.903.046,2.209-.016,2.47,1.111.287,1.241-1.117,1.491-2.014,1.59-1.817.2-3.635.354-5.446.614-1.753.252-3.602.501-5.224,1.254-1.108.514-1.972,1.382-2.853,2.206-1.884,1.762.949,4.586,2.828,2.828.253-.236.502-.476.757-.71.1-.092.599-.519.37-.347.492-.368.747-.462,1.203-.593,2.009-.577,4.119-.826,6.192-1.036,1.81-.183,3.937-.115,5.553-1.054,1.885-1.095,2.932-3.148,2.584-5.309-.317-1.964-1.703-3.486-3.551-4.163-1.579-.578-3.549-.446-5.211-.47-4.384-.065-9.229.046-13.407,1.474-4.551,1.556-7.6,5.085-10.414,8.836-.649.865-.139,2.235.718,2.736,1.023.598,2.086.149,2.736-.718h0Z"/><path class="e" d="M18.675,2.522c1.859,12.383,6.529,24.392,14.671,34.012,7.453,8.805,17.677,14.975,28.865,17.714,3.37.825,6.822,1.348,10.28,1.617,3.698.287,7.345.074,11.042.015l-1.414-.586c10.806,13.866,25.355,24.574,41.785,30.814,17.771,6.748,37.272,7.581,55.896,4.352,10.686-1.853,21.098-5.426,30.38-11.085h-2.019c9.09,5.255,19.126,8.711,29.437,10.604s21.087,2.566,31.574,1.688c18.79-1.573,36.987-8.475,51.986-19.926,8.314-6.347,15.564-13.9,21.578-22.458l-1.727.991c12.902.61,26.153-.669,38.266-5.373,10.468-4.065,19.874-10.605,26.864-19.445,4.082-5.161,7.275-10.853,9.756-16.94.408-1.001-.443-2.198-1.397-2.46-1.145-.315-2.051.392-2.46,1.397-4.795,11.766-12.959,21.946-23.825,28.617-12.016,7.378-26.205,10.203-40.167,10.344-2.08.021-4.161-.016-6.24-.104-1.279-.054-1.976.2-2.735,1.257-.611.85-1.221,1.701-1.851,2.536-2.303,3.052-4.817,5.952-7.474,8.7-5.318,5.5-11.267,10.358-17.736,14.444-13.322,8.414-28.67,13.473-44.397,14.538-17.42,1.18-35.931-1.286-51.774-8.873-1.925-.922-3.81-1.923-5.657-2.991-.611-.353-1.409-.372-2.019,0-14.847,9.052-32.287,12.242-49.483,12.344-15.839.094-31.52-3.765-45.387-11.457-6.675-3.702-12.872-8.215-18.432-13.444-2.764-2.6-5.372-5.366-7.804-8.279-.599-.717-1.186-1.443-1.763-2.178-.872-1.11-1.922-1.056-3.233-.985-1.757.095-3.512.155-5.271.134-12.466-.152-24.893-4.058-34.477-12.197-9.983-8.478-16.073-20.427-18.818-33.104-.38-1.755-.695-3.522-.962-5.297-.16-1.069-1.508-1.658-2.46-1.397-1.144.314-1.558,1.388-1.397,2.46h0Z"/><path class="e" d="M144.806,114.786c-.03.502-.147,1.122-.394,1.815-.066.185-.137.341-.323.678-.102.183-.211.363-.327.538-.031.047-.367.494-.184.266-.862,1.071-1.881,1.727-2.978,2.059-1.273.385-2.418.381-3.768-.064-.436-.143-1.019-.438-1.59-.838-.542-.38.12.114-.173-.134-.133-.112-.262-.228-.387-.349s-.245-.245-.362-.374c-.05-.055-.431-.533-.277-.323-.366-.502-.753-1.257-.856-1.563-.277-.819-.348-1.188-.364-1.901-.03-1.351.281-2.426,1.05-3.587.249-.376.154-.249.458-.581.234-.256.485-.498.751-.72.135-.113.267-.208.611-.415.119-.072.241-.141.363-.207.072-.039.713-.323.479-.232,1.274-.489,2.462-.571,3.649-.283,1.431.348,2.519,1.023,3.471,2.267-.206-.269.183.288.173.272.113.176.219.356.318.541.253.473.238.457.371.879.28.883.324,1.253.291,2.257-.085,2.575,3.915,2.572,4,0,.136-4.118-2.308-7.966-6.103-9.569-3.829-1.617-8.48-.667-11.271,2.461-2.819,3.16-3.403,7.77-1.396,11.516,1.965,3.667,6.132,5.662,10.211,5.097,4.796-.664,8.271-4.747,8.558-9.505.065-1.079-.966-2-2-2-1.137,0-1.935.917-2,2Z"/><path class="e" d="M128.044,128.278c-.011.177-.111.483.027-.09-.017.07-.025.144-.04.215-.038.176-.091.346-.148.517-.125.378.228-.434.036-.087-.034.061-.063.125-.097.187-.051.092-.105.181-.163.269-.114.172-.315.24.064-.069-.128.105-.234.264-.356.379-.051.048-.105.091-.156.138-.287.263.406-.263.073-.061-.15.09-.293.186-.45.264-.06.03-.132.055-.19.089.489-.29.22-.094.032-.038-.101.031-.693.14-.309.091.387-.049-.231.008-.335.007-.093,0-.186-.009-.279-.011-.399-.009.411.08.148.024-.195-.042-.387-.081-.577-.144-.217-.072-.301-.225.082.047-.052-.037-.136-.064-.19-.092-.156-.081-.3-.178-.448-.272-.315-.201.285.275.116.089-.057-.063-.132-.115-.193-.174-.062-.06-.123-.123-.181-.187-.035-.038-.07-.077-.103-.117-.13-.159-.089-.106.121.158-.063-.152-.197-.296-.276-.443-.033-.062-.062-.125-.094-.187-.182-.349.149.467.043.088-.048-.171-.096-.341-.14-.514-.041-.157.025-.29.02.212.001-.126-.024-.256-.026-.383-.004-.161.04-.344.02-.501.057.438-.057.35-.003.098.015-.07.032-.141.051-.21.028-.104.066-.204.097-.307.091-.298-.062.158-.081.183.122-.154.194-.383.306-.551.035-.053.243-.344.028-.051-.212.289-.001.013.045-.037.118-.129.246-.243.375-.36.276-.251-.339.205-.116.091.076-.038.146-.098.218-.142.06-.036.12-.071.182-.104.062-.033.124-.064.187-.094.189-.085.127-.059-.187.079.166-.019.343-.115.508-.153.069-.016.143-.023.211-.043-.5.142-.344.039-.155.025.185-.014.369-.016.554-.004.208.013.306.119-.146-.03.101.033.216.039.32.064s.208.055.31.089c.221.074.282.206-.082-.047.169.117.378.191.551.306.053.035.113.09.171.12-.265-.209-.318-.248-.161-.117.052.046.104.092.154.141.125.12.226.266.35.384-.377-.36-.174-.229-.07-.066.056.088.109.178.159.27.048.09.083.197.138.283l-.122-.283c.025.066.048.133.069.2.027.085.05.17.071.256.05.204.005.521.015-.055-.004.219.031.44.023.661-.034,1.047.945,2.047,2,2,1.113-.05,1.963-.879,2-2,.081-2.46-1.411-4.747-3.666-5.698-2.269-.957-5.064-.428-6.728,1.437-1.717,1.925-2.079,4.684-.854,6.97,1.176,2.194,3.676,3.352,6.102,3.026,1.324-.178,2.608-.816,3.517-1.808,1.007-1.1,1.54-2.445,1.63-3.927.063-1.046-.965-2.046-2-2-1.138.051-1.932.879-2,2Z"/><path class="e" d="M277.129,114.786c.254,4.2,2.92,7.815,6.941,9.149,3.997,1.325,8.463-.186,10.997-3.485,2.507-3.264,2.738-8.006.45-11.459-2.335-3.524-6.594-5.245-10.721-4.302-4.594,1.05-7.82,5.429-7.666,10.097.085,2.567,4.085,2.579,4,0s1.272-4.905,3.645-5.911,5.067-.372,6.83,1.554c.746.815,1.328,2.047,1.476,3.213.011.086.036.59.034.844-.002.22-.015.44-.033.659-.035.433-.029.203-.014.113-.06.351-.146.698-.253,1.038-.134.423-.106.385-.371.879-1.208,2.254-3.585,3.56-6.276,3.18.357.05-.331-.079-.318-.076-.207-.048-.414-.104-.617-.168-.421-.133-.406-.118-.879-.371-.734-.393-.987-.574-1.582-1.191-.94-.975-1.564-2.436-1.645-3.763-.065-1.078-.873-2-2-2-1.032,0-2.066.916-2,2Z"/><path class="e" d="M293.89,128.278c.155,2.563,1.752,4.725,4.205,5.539,2.386.791,5.042-.149,6.549-2.101,1.493-1.932,1.668-4.78.303-6.84-1.424-2.148-3.971-3.186-6.49-2.61-2.714.62-4.658,3.254-4.567,6.013.034,1.045.895,2.049,2,2,1.054-.047,2.037-.88,2-2-.006-.186.003-.368.012-.553.019-.407-.112.494-.009.103.018-.069.03-.14.048-.209.027-.103.063-.203.092-.305.042-.147.165-.247-.086.183.106-.181.182-.375.296-.553.038-.06.252-.325.024-.053-.234.278-.001.007.041-.04.116-.131.245-.245.37-.366.219-.213-.133.104-.161.117.089-.042.175-.124.259-.177.059-.037.12-.073.181-.107.065-.036.492-.229.141-.083-.344.144.219-.063.318-.088.088-.023.177-.039.265-.059.385-.089-.421.03-.15.02.186-.007.369-.02.556-.011.09.004.183.023.272.022-.525.005-.308-.044-.107.002.163.037.344.134.508.153l-.283-.122c.064.028.127.058.19.089.062.031.124.064.185.099.076.043.147.093.222.137.155.089.24.263-.11-.099.145.149.314.271.456.426.039.043.089.119.137.157-.347-.276-.194-.266-.064-.069.097.147.176.301.261.456s.007.224-.074-.187c.02.1.075.205.105.303.021.069.04.138.057.208.018.072.103.553.043.164-.058-.372,0,.177,0,.289,0,.11-.011.219-.016.33-.016.339.03-.205.029-.209.027.142-.083.381-.127.519-.057.181-.223.383.053-.083-.053.089-.088.191-.138.283-.079.147-.211.292-.276.443.165-.381.237-.277.087-.119-.06.063-.115.13-.176.191s-.127.118-.189.179c-.135.135-.299.137.122-.082-.184.096-.347.236-.533.333-.058.03-.138.056-.19.092.381-.271.299-.118.082-.047-.154.051-.311.092-.469.124-.229.046-.261-.062.152-.014-.086-.01-.19.015-.279.018-.203.007-.404-.028-.605-.025.546-.009.306.044.107-.002-.104-.024-.207-.052-.308-.084-.071-.023-.38-.165-.059-.008.345.169-.079-.043-.142-.077-.061-.033-.122-.067-.182-.104-.175-.106-.417-.399-.022.015-.119-.124-.264-.225-.384-.35-.069-.071-.132-.171-.208-.233.322.263.197.269.064.069-.115-.174-.188-.383-.306-.551.252.363.133.331.064.132-.041-.119-.077-.239-.106-.361-.017-.071-.03-.142-.046-.213-.073-.345.042.538.008-.018-.063-1.042-.875-2.05-2-2-1.03.046-2.068.882-2,2Z"/></g></svg>