<svg id="b" xmlns="http://www.w3.org/2000/svg" width="418.207" height="357.192" viewBox="0 0 418.207 357.192" style="color: initial !important;"><defs><style>.d{fill:#3d8dcc;}.e{fill:#ffffff;}.f{fill:#211715;}.g{fill:#c6c6c6;}</style></defs><g id="c"><path class="e" d="M416.207,148.03c0-40.867-25.804-75.704-62.006-89.116C337.957,25.233,303.487,1.994,263.589,1.994c-24.756,0-47.419,8.953-64.938,23.79-11.64-5.262-24.56-8.191-38.164-8.191-51.222,0-92.745,41.523-92.745,92.745,0,9.733,1.503,19.113,4.283,27.927-6.854,12.938-10.742,27.69-10.742,43.351,0,22.315,7.883,42.787,21.013,58.789,5.667,43.967,43.24,77.938,88.749,77.938,5.363,0,10.616-.473,15.72-1.378,17.194,11.499,37.863,18.209,60.101,18.209,29.903,0,56.974-12.125,76.565-31.726,44.362-2.722,79.504-39.545,79.504-84.592,0-6.51-.758-12.839-2.148-18.927,9.749-14.92,15.422-32.745,15.422-51.898Z"/><path class="f" d="M418.207,148.03c-.03-15.708-3.829-31.276-11.146-45.184-7.068-13.433-17.336-25.072-29.675-33.893-6.978-4.988-14.618-8.975-22.652-11.968l1.195.919c-10.011-20.662-27.02-37.731-47.712-47.71-22.474-10.838-48.634-13.134-72.652-6.323-14.086,3.994-27.148,11.066-38.328,20.497l2.424-.313c-15.086-6.777-31.769-9.626-48.247-8.026-13.038,1.266-25.737,5.195-37.172,11.596-11.075,6.2-20.869,14.656-28.638,24.687-7.932,10.241-13.766,22.064-16.95,34.63-3.761,14.843-3.866,30.579-.319,45.474.511,2.147,1.104,4.272,1.763,6.379l.202-1.541c-7.051,13.384-10.864,28.315-11.01,43.449-.138,14.32,3,28.564,9.119,41.507,3.326,7.034,7.555,13.585,12.475,19.608l-.586-1.414c2.44,18.645,10.475,36.174,23.148,50.092,12.468,13.694,29.137,23.471,47.207,27.562,12.033,2.725,24.498,2.954,36.645.835l-1.541-.202c17.05,11.356,37.113,17.767,57.589,18.425,19.503.627,39.046-3.988,56.188-13.314,9.288-5.053,17.827-11.479,25.313-18.941l-1.414.586c19.015-1.206,37.206-8.61,51.616-21.085,14.033-12.149,23.992-28.861,27.909-47.011,2.7-12.509,2.573-25.476-.24-37.955l-.202,1.541c7.879-12.116,12.958-25.885,14.853-40.21.557-4.211.832-8.45.842-12.698.006-2.574-3.994-2.578-4,0-.034,14.941-3.584,29.762-10.524,43.01-.836,1.596-1.718,3.169-2.644,4.714-.462.771-.935,1.536-1.418,2.294-.715,1.121-.904,1.762-.61,3.098.879,4,1.466,8.054,1.737,12.141.435,6.548.127,13.169-.996,19.637-2.006,11.551-6.446,22.569-13.006,32.285-6.394,9.47-14.797,17.588-24.463,23.677-9.939,6.261-21.164,10.366-32.803,11.972-1.429.197-2.866.346-4.304.464-.791.065-1.781-.012-2.517.297-.831.35-1.52,1.285-2.162,1.903-2.416,2.325-4.94,4.538-7.56,6.63-5.276,4.212-10.992,7.894-16.973,11.023-12.261,6.414-25.818,10.389-39.606,11.587-14.819,1.288-29.811-.48-43.894-5.281-6.843-2.332-13.423-5.384-19.643-9.066-1.534-.908-3.046-1.854-4.534-2.837-1.05-.694-1.805-.579-2.984-.383-1.07.178-2.142.338-3.218.471-4.017.496-8.069.717-12.116.669-11.975-.141-23.945-2.725-34.859-7.679-10.621-4.82-20.214-11.718-28.161-20.254s-14.135-18.59-18.102-29.501c-2.056-5.655-3.534-11.518-4.408-17.472-.13-.885-.153-1.713-.729-2.44-.524-.661-1.063-1.311-1.579-1.979-1.084-1.405-2.122-2.848-3.12-4.315-1.949-2.867-3.739-5.843-5.356-8.91-6.696-12.703-10.239-26.96-10.369-41.313-.07-7.759.831-15.496,2.725-23.022.934-3.71,2.099-7.361,3.488-10.926.664-1.705,1.385-3.386,2.158-5.045.361-.775.734-1.545,1.116-2.309.427-.854,1.25-1.927,1.25-2.906,0-.958-.53-2.015-.792-2.93-.272-.952-.529-1.908-.77-2.868-.505-2.007-.941-4.032-1.309-6.069-.718-3.969-1.151-7.983-1.324-12.013-.274-6.367.078-12.779,1.139-19.065,1.941-11.496,6.074-22.545,12.18-32.477,5.936-9.656,13.709-18.242,22.784-25.043,9.25-6.932,19.756-12.094,30.919-15.099,12.789-3.442,26.372-4.065,39.416-1.75,7.355,1.305,14.56,3.498,21.375,6.56.886.398,1.681.314,2.424-.313,16.242-13.701,36.785-21.908,58.011-23.056,19.305-1.044,38.67,3.568,55.35,13.365,16.037,9.419,29.219,23.351,37.771,39.863.47.907.861,2.23,1.59,2.959.804.804,2.465,1.11,3.513,1.534,2.117.857,4.196,1.809,6.24,2.828,4.107,2.048,8.065,4.397,11.833,7.017,7.401,5.147,14.023,11.411,19.653,18.448,11.51,14.387,18.53,32.286,19.911,50.653.181,2.403.266,4.812.271,7.222.005,2.574,4.005,2.578,4,0Z"/><path class="f" d="M46.298,199.789c.999-.35,1.967-.853,2.928-1.293,1.516-.694,3.03-1.396,4.543-2.097,1.188-.551,2.376-1.105,3.566-1.652.123-.057.248-.109.37-.169.091-.045.285-.126-.149.061-.53.229-.018.016.119-.039.269-.108.539-.217.801-.344,1.113-.536,2.123-1.405,2.714-2.502.556-1.033.749-2.136.926-3.278.262-1.696.554-3.382.708-5.093.097-1.077-.989-2-2-2-1.163,0-1.903.92-2,2-.117,1.298-.335,2.573-.539,3.859-.132.836-.238,1.672-.525,2.473-.096.269.162-.292.012-.049-.055.089-.103.184-.155.274-.22.379.107-.033-.135.177-.086.075-.167.164-.251.242.235-.218.028-.014-.039.029-.226.143-.534.323-.713.407-.288.135-.765.315-1.131.483-2.531,1.162-5.052,2.345-7.583,3.508-.656.301-1.313.603-1.972.899-.209.094-.418.186-.627.279-.486.216.469-.172.07-.032-1.019.357-1.697,1.368-1.397,2.46.272.989,1.436,1.756,2.46,1.397h0Z"/><path class="f" d="M88.317,183.195c.144,1.595.375,3.176.636,4.755.138.834.215,1.688.465,2.499.314,1.015.846,1.993,1.644,2.711.442.398.939.757,1.471,1.025.348.175.711.327,1.074.467.727.28-.446-.223-.173-.082,2.241,1.161,4.582,2.162,6.864,3.241,1.063.503,2.119,1.027,3.203,1.481.997.418,2.2-.45,2.46-1.397.317-1.153-.396-2.041-1.397-2.46,1.008.422-.026-.03-.263-.141-.489-.229-.977-.46-1.466-.691-1.322-.625-2.644-1.251-3.966-1.877-1.023-.484-2.044-.97-3.069-1.448-.111-.052-.221-.105-.333-.155-.028-.013-.057-.026-.085-.038-.141-.063-.34-.147-.484-.204-.007-.003-.37-.155-.158-.059-.213-.097-.416-.212-.618-.332-.046-.027-.366-.248-.169-.101.173.129-.043-.038-.064-.059-.105-.105-.467-.536-.213-.177-.128-.181-.215-.39-.34-.569-.119-.172.048.118.056.145-.044-.139-.098-.274-.14-.415-.056-.19-.102-.382-.142-.576-.095-.455-.157-.916-.227-1.375-.21-1.391-.442-2.768-.568-4.17-.097-1.076-.85-2-2-2-1.007,0-2.098.918-2,2h0Z"/><path class="g" d="M74.332,327.105c-.754,4.698-1.804,9.517-2.33,11.147-1.401,4.355-3.814,7.819-7.972,10.827-2.741,1.972-8.299,4.134-14.58,5.078-7.256,1.089-19.278,1.249-27.31.434-.868-.076-1.515-.83-1.431-1.675.838-9.784,1.53-17.184,3.061-30.607.327-3.531.655-7.04.989-10.433-2.511-.065-4.981-.652-7.181-1.84-5.459-2.946-9.337-8.14-11.487-13.856-3.596-9.559-3.825-20.047-4.09-30.66-.262-7.742.384-15.541,1.27-23.226.805-6.987,1.717-14.128,3.931-20.832,1.799-5.448,4.557-10.75,8.93-14.575,6.572-5.747,14.432-8.668,23.315-11.46,1.138-.358,7.696-2.086,8.375-2.284,0,0,1.348-.393,3.305-.963,4.726,16.884,18.432,58.462,23.105,68.393h1.386c4.977-10.597,20.222-57.234,23.879-71.448,1.948,1.235,4.584,3.105,7.108,5.211,11.874,4.31,24.091,7.611,31.631,18.603,5.13,7.479,5.783,15.339,6.615,24.023.927,9.679,1.102,19.495,1.093,29.212,0,8.869-.425,18.276-3.947,26.545-3.622,8.504-9.918,12.976-17.32,15.426.456,4.52.913,9.315,1.354,14.163,1.538,13.423,2.231,20.824,3.061,30.607.084.845-.563,1.599-1.424,1.675-8.032.815-20.055.655-27.31-.434-6.281-.944-11.839-3.106-14.58-5.078-4.165-3.007-6.578-6.472-7.972-10.827-.525-1.629-1.584-6.449-2.33-11.147h-1.142Z"/><path class="e" d="M64.095,233.133c-4.634-13.668-9.51-28.959-12.288-38.563-.181-1.313.427-2.882,1.214-3.794,1.551-1.796,3.505-4.394,5.09-6.168.674.545,14.406,10.31,15.447,11.048h2.685c1.041-.738,14.774-10.503,15.447-11.048,1.585,1.773,3.539,4.372,5.09,6.168.79.915,1.399,2.491,1.213,3.807-5.237,18.133-17.922,56.503-22.377,65.99h-1.386c-2.1-4.462-6.023-15.311-10.135-27.44Z"/><path class="d" d="M81.191,219.407c-.486-3.899-.818-6.559-.818-6.734,0-.732.98-5.582,1.396-7.291,0,0,.198-.815.506-2.079-2.303-3.047-4.706-6.156-6.03-7.646h-2.685c-1.381,1.553-3.933,4.866-6.323,8.034.562,1.17.935,1.946.935,1.946.554,1.155,1.803,5.851,1.825,7.159.012.695-1.938,14.226-3.71,26.725,3.274,9.436,6.223,17.393,7.945,21.053h1.386c1.731-3.685,4.703-11.727,7.998-21.249-.059-.503-.091-.778-.091-.778-.772-6.625-1.688-13.971-2.333-19.139Z"/><path class="e" d="M107.683,141.496c1.059-1.017,2.485-1.399,3.705-1.356,2.656.094,3.786,1.53,4.272,2.373,1.452,2.517,1.39,7.156.416,10.026-.69,2.033-1.82,5.142-4.545,7.372-1.123.919-2.775,1.524-4.356,1.257,0,0-.152-.026-.418-.07-.501,1.656-1.12,3.28-1.499,4.068-1.04,2.822-6.497,12.284-13.567,16.833,0,1.437,0,2.611,0,2.611-.674.545-14.406,10.31-15.447,11.048h-2.685c-1.041-.738-14.774-10.503-15.447-11.048v-2.649c-2.751-1.673-5.29-3.995-7.732-6.917-3.925-4.698-6.161-9.759-7.395-13.952-1.684.434-3.505-.192-4.713-1.18-2.725-2.23-3.855-5.339-4.545-7.372-.974-2.87-1.036-7.509.416-10.026.486-.843,1.616-2.28,4.272-2.373,1.22-.043,2.646.339,3.705,1.356,0,0-7.676-31.319,32.782-31.319s32.782,31.319,32.782,31.319Z"/><path class="d" d="M103.997,136.093c-1.058-3.455-2.2-6.109-3.274-7.564-2.802-3.795-3.872-4.93-9.45-6.212l-18.897-2.842c-3.055-.564-10.261-.711-12.962-.427-1.744.184-3.552.57-4.906,1.711-1.799,1.515-2.425,4.003-3.476,6.132-1.826,3.696-6.122,5.604-6.803,9.744-.41,2.491-.478,3.706-.644,5.886-.73-.511-1.465-1.026-1.465-1.026-1.059-1.017-2.485-1.399-3.705-1.356-.774.027-1.418.168-1.954.376-1.25-4.553-1.555-9.053-1.593-12.969-.272-9.662,3.363-19.405,7.92-23.865,2.109-3.054,5.365-6.079,7.029-7.319,7.441-5.55,15.614-8.198,24.94-8.198,8.89,0,17.911,2.09,24.697,9.652l5.235,4.653c2.291,2.069,4.159,4.167,5.639,6.617,2.655,4.394,4.062,9.923,4.422,18.46.188,4.451-.33,8.086-1.545,12.921-.507-.182-1.107-.302-1.816-.327-1.22-.043-2.646.339-3.705,1.356l-3.686-5.403Z"/><path class="f" d="M115.239,140.554c1.978-8.107,2.063-16.654-.024-24.768-1.501-5.835-4.679-10.698-9.113-14.729-1.901-1.728-4.738,1.092-2.828,2.828,3.953,3.593,6.745,7.756,8.084,12.964,1.909,7.422,1.833,15.228.024,22.642-.61,2.5,3.246,3.567,3.857,1.063h0Z"/><path class="f" d="M105.447,158.159c-1.09,5.226-3.004,8.917-6.124,13.327-3.21,4.537-7.595,9.472-13.226,10.794-2.505.588-1.445,4.446,1.063,3.857,6.494-1.524,11.499-6.95,15.267-12.144,1.485-2.047,2.864-4.206,3.972-6.483.235-.483.443-.976.653-1.471.077-.181.131-.313.022-.055.169-.4.346-.796.508-1.199.724-1.798,1.326-3.663,1.722-5.562.524-2.512-3.331-3.586-3.857-1.063h0Z"/><path class="f" d="M40.405,159.106c2.805,12.31,12.059,25.752,25.371,27.753,1.067.16,2.15-.268,2.46-1.397.259-.944-.322-2.299-1.397-2.46-12.02-1.807-20.05-13.869-22.577-24.959-.572-2.509-4.429-1.447-3.857,1.063h0Z"/><path class="f" d="M74.081,154.116c.28,1.07.55,2.156.711,3.251l-.071-.532c.019.15.027.298.012.449l.071-.532c-.011.07-.026.135-.049.202l.202-.478c-.021.047-.043.087-.071.13l.313-.405c-.033.041-.065.072-.106.105l.405-.313c-.082.053-.169.095-.257.136l.478-.202c-.142.059-.282.102-.434.127l.532-.071c-.137.016-.27.015-.407,0l.532.071c-.154-.021-.304-.059-.458-.079-.266-.083-.532-.095-.798-.036-.266.012-.514.091-.744.237-.415.243-.811.718-.919,1.195-.117.512-.091,1.087.202,1.541.26.403.695.852,1.195.919.379.051.747.147,1.133.164.607.027,1.167-.162,1.707-.412.675-.311,1.205-.937,1.385-1.664.153-.618.089-1.135-.016-1.755-.177-1.047-.419-2.085-.688-3.112-.127-.483-.49-.944-.919-1.195s-1.061-.357-1.541-.202c-1.042.337-1.681,1.376-1.397,2.46h0Z"/><path class="f" d="M57.215,144.821c-.543,1.764-.189,5.822,3.153,6.168,4.417-.026,4.652-4.933,3.165-7.24-1.217-1.889-4.797-2.674-6.318,1.072Z"/><path class="f" d="M92.587,144.821c.543,1.764.189,5.822-3.153,6.167-4.417-.027-4.652-4.933-3.166-7.24,1.217-1.889,4.797-2.674,6.318,1.072Z"/><path class="f" d="M109.097,142.91c.793-.708,1.884-.902,2.912-.701.482.094.926.263,1.319.563-.141-.108.627.752.368.377,1.188,1.717,1.194,4.129,1.023,6.126-.174,2.03-.912,4.082-1.879,5.867-1.169,2.156-2.969,4.376-5.664,4.026-1.073-.139-2,1.019-2,2,0,1.196.924,1.86,2,2,5.869.762,9.447-5.61,10.911-10.347,1.303-4.217,1.303-10.853-2.834-13.566-2.778-1.822-6.567-1.328-8.982.827-1.925,1.717.912,4.538,2.828,2.828h0Z"/><path class="f" d="M43.534,140.082c-2.262-2.018-5.461-2.494-8.228-1.234-2.004.913-3.221,2.796-3.785,4.868-1.318,4.842-.073,10.496,2.702,14.624,1.875,2.79,4.82,5.294,8.406,4.828,1.071-.139,2-.82,2-2,0-.973-.921-2.14-2-2-2.694.35-4.496-1.87-5.664-4.026-.968-1.785-1.705-3.837-1.879-5.867-.171-1.995-.168-4.412,1.023-6.126-.263.378.495-.475.368-.377.352-.269.742-.43,1.169-.531,1.069-.254,2.229-.074,3.061.669,1.915,1.709,4.754-1.11,2.828-2.828h0Z"/><path class="f" d="M100.867,96.402c-9.44-10.364-25.31-12.29-38.304-8.611-6.454,1.827-12.604,5.251-17.366,9.994-1.323,1.318-2.515,2.73-3.65,4.21-.879,1.145-1.886,2.169-2.706,3.369-1.892,2.767-3.229,5.948-4.198,9.146-2.512,8.296-2.363,17.674-.243,26.043.632,2.494,4.49,1.437,3.857-1.063-1.719-6.789-2.028-14.406-.462-21.252.721-3.153,1.793-6.238,3.387-9.06.584-1.034,1.225-2.049,1.986-2.962,1.047-1.256,2.054-2.555,3.139-3.782,8.435-9.536,21.221-13.35,33.705-12.001,6.936.75,13.299,3.606,18.027,8.797,1.737,1.907,4.559-.928,2.828-2.828h0Z"/><path class="f" d="M72.908,117.546c-2.743-.483-5.561-.587-8.341-.629s-5.82-.141-8.476.762c-1.768.601-3.207,1.637-4.305,3.145-1.003,1.378-1.536,3.013-2.24,4.548-1.274,2.776-3.812,4.544-5.581,6.97-2.25,3.087-2.151,7.248-2.437,10.905-.201,2.567,3.8,2.554,4,0,.158-2.025.245-4.079.629-6.079.303-1.579,1.15-2.754,2.228-3.913,1.193-1.281,2.458-2.48,3.486-3.906,1.084-1.504,1.614-3.266,2.427-4.913.904-1.831,2.018-2.789,4.035-3.215,1.347-.284,2.749-.293,4.121-.309,3.088-.035,6.412-.033,9.391.492,1.063.187,2.155-.286,2.46-1.397.265-.966-.327-2.272-1.397-2.46h0Z"/><path class="f" d="M90.742,124.245c.916.213,1.829.441,2.724.731.364.118.719.259,1.078.389-.47-.171-.012-.003.07.036.171.079.34.163.506.251.256.136.506.285.748.445.126.084.247.175.372.262-.443-.307-.099-.08,0,.009.475.422.921.864,1.336,1.347.232.271.455.549.676.829-.292-.368.06.079.093.123.125.165.249.331.373.497.438.589.833,1.19,1.176,1.839.206.391.398.789.579,1.192.167.37.246.56.46,1.114.421,1.091.791,2.199,1.135,3.316.318,1.032,1.396,1.689,2.46,1.397,1.02-.28,1.717-1.424,1.397-2.46-.692-2.242-1.479-4.498-2.577-6.578-.78-1.477-1.858-2.834-2.943-4.097-.92-1.071-2.015-2.021-3.266-2.688-1.664-.887-3.508-1.386-5.334-1.81-1.051-.244-2.166.326-2.46,1.397-.278,1.011.34,2.215,1.397,2.46h0Z"/><path class="f" d="M85.211,119.697c-.523-2.226-2.251-4.139-4.006-5.505-2.914-2.27-6.341-3.443-9.977-3.921-1.042-.137-2.044,1.018-2,2,.054,1.201.884,1.853,2,2-.345-.045.306.052.377.064.228.039.456.081.683.128.376.077.749.165,1.12.264.752.201,1.486.452,2.209.741-.41-.163.054.026.142.066.175.079.348.162.519.247.308.153.611.316.908.488.283.164.562.338.834.52.141.094.281.191.419.29.097.07.454.348.048.026.448.354.877.729,1.277,1.137.169.172.333.349.49.532.087.101.168.21.257.309.084.094-.278-.399-.013-.01.242.356.476.711.667,1.099.038.077.064.172.112.241-.28-.405-.14-.378-.076-.166.052.172.111.338.153.514.239,1.019,1.46,1.721,2.46,1.397,1.063-.344,1.653-1.368,1.397-2.46h0Z"/><path class="f" d="M22.759,311.87c-.844,8.572-1.779,17.132-2.64,25.702-.335,3.329-.648,6.661-.944,9.994-.153,1.718-.375,3.448-.451,5.171-.093,2.116,1.366,3.617,3.416,3.853,7.457.861,15.203.713,22.672.09,7.393-.617,15.481-2.097,21.451-6.804,3.3-2.602,5.745-5.959,7.242-9.881s2.089-8.254,2.756-12.358c.173-1.065-.276-2.152-1.397-2.46-.954-.262-2.286.325-2.46,1.397-1.056,6.505-1.916,13.654-6.784,18.544-4.799,4.821-11.978,6.621-18.547,7.346-7.026.775-14.192.839-21.244.419-.778-.046-1.556-.101-2.333-.166-.209-.018-.846-.188-1.023-.092-.297.162.262.051.15.164l.086.128.031-.357c.34-1.529.282-3.261.421-4.824.27-3.037.553-6.072.854-9.106.885-8.923,1.867-17.834,2.745-26.758.106-1.076-.995-2-2-2-1.17,0-1.894.92-2,2h0Z"/><path class="f" d="M122.674,308.139c.86,8.529,1.718,17.054,2.615,25.579.345,3.278.671,6.559.976,9.841.145,1.56.285,3.12.423,4.681.07.797.139,1.593.208,2.39.035.407.07.814.105,1.221.015.177.03.354.045.53.01.119.02.237.03.356-.019.22.015.237.101.05-.085-.068.591-.136-.179-.132-.401.002-.81.071-1.211.103-.913.071-1.827.129-2.741.175-1.827.093-3.656.145-5.486.164-3.701.037-7.406-.05-11.098-.305-3.563-.246-7.088-.678-10.548-1.59-3.233-.851-6.569-1.982-9.295-3.973-3.033-2.215-5.398-5.262-6.651-8.811-1.334-3.778-1.931-7.906-2.565-11.845-.172-1.067-1.5-1.661-2.46-1.397-1.135.312-1.569,1.39-1.397,2.46,1.217,7.564,2.501,15.351,8.353,20.837,5.745,5.386,13.892,7.288,21.514,8.061,7.681.779,15.553.83,23.244.152,1.979-.174,3.879-.711,4.36-2.927.354-1.628-.17-3.699-.315-5.35-.302-3.437-.621-6.873-.963-10.306-.998-9.99-2.057-19.973-3.064-29.963-.108-1.075-.842-2-2-2-.997,0-2.109.919-2,2h0Z"/><path class="f" d="M56.698,183.195c-1.343,1.519-2.584,3.124-3.864,4.696-1.167,1.433-2.411,2.757-2.858,4.609-.581,2.413.542,4.355,1.527,6.453,1.192,2.541,2.468,5.053,3.951,7.438,1.442,2.32,3.094,4.691,5.4,6.227.972.647,2.12.105,2.736-.718,3.726-4.972,7.268-10.166,11.383-14.828.907-1.027.686-2.367-.405-3.141-2.588-1.835-5.171-3.678-7.754-5.52-1.66-1.184-3.319-2.368-4.975-3.556-.591-.424-1.181-.847-1.769-1.274-.229-.166-1.332-1.011-.544-.386-.846-.67-2.003-.825-2.828,0-.696.696-.851,2.154,0,2.828,5.079,4.027,10.565,7.612,15.852,11.361l-.405-3.141c-4.34,4.917-8.079,10.394-12.008,15.638l2.736-.718c-1.571-1.046-2.969-3.177-4.047-4.924-1.32-2.139-2.475-4.378-3.557-6.645-.377-.79-.744-1.586-1.106-2.383-.321-.707-.446-.866-.376-1.439.18-1.469,1.514-2.603,2.392-3.691,1.1-1.365,2.185-2.743,3.347-4.057,1.699-1.922-1.119-4.762-2.828-2.828Z"/><path class="f" d="M90.276,186.023c1.162,1.314,2.246,2.692,3.347,4.057.854,1.059,2.159,2.17,2.369,3.587.099.667.02.722-.32,1.47-.373.822-.75,1.642-1.139,2.457-1.06,2.22-2.19,4.413-3.475,6.513-1.097,1.791-2.515,3.983-4.128,5.057l2.736.718c-3.929-5.243-7.669-10.721-12.008-15.638l-.405,3.141c5.287-3.749,10.773-7.333,15.852-11.361.847-.672.702-2.126,0-2.828-.837-.837-1.979-.673-2.828,0,.791-.627-.315.22-.544.386-.561.406-1.123.81-1.685,1.213-1.684,1.209-3.371,2.413-5.059,3.616-2.583,1.842-5.166,3.685-7.754,5.52-1.091.774-1.311,2.114-.405,3.141,4.115,4.663,7.657,9.856,11.383,14.828.618.825,1.755,1.371,2.736.718,2.306-1.535,3.958-3.907,5.4-6.227,1.483-2.385,2.759-4.897,3.951-7.438.984-2.095,2.113-4.041,1.527-6.453-.452-1.856-1.689-3.174-2.858-4.609-1.28-1.572-2.521-3.176-3.864-4.696-1.708-1.933-4.529.905-2.828,2.828Z"/><path class="f" d="M79.972,209.302c-3.223-.001-6.445-.067-9.668-.069-1.046,0-2.048.92-2,2s.879,2,2,2c3.223.001,6.445.067,9.668.069,1.046,0,2.048-.92,2-2s-.879-2-2-2h0Z"/><path class="f" d="M79.839,204.851c-.319,1.329-.591,2.67-.854,4.012-.228,1.164-.569,2.419-.601,3.611-.036,1.35.288,2.77.453,4.106.91,7.321,1.829,14.64,2.685,21.967.125,1.073.83,2,2,2,.984,0,2.126-.92,2-2-.845-7.239-1.753-14.47-2.652-21.702-.173-1.391-.443-2.812-.497-4.215-.004-.096.059-.556.001-.1.033-.259.082-.517.127-.775.114-.662.241-1.322.371-1.981.254-1.29.517-2.58.824-3.859.6-2.502-3.257-3.57-3.857-1.063h0Z"/><path class="f" d="M68.389,238.824c1.054-7.423,2.137-14.842,3.141-22.272.214-1.581.584-3.184.353-4.775-.349-2.402-.98-4.934-1.985-7.15-.447-.984-1.872-1.223-2.736-.718-1.011.591-1.166,1.749-.718,2.736-.225-.495.051.149.089.26.091.27.181.539.265.811.172.556.33,1.116.479,1.678.179.672.346,1.348.492,2.028.055.256.106.512.154.769.004.024.078.716.054.3.075,1.284-.252,2.63-.411,3.796-.978,7.162-2.017,14.316-3.033,21.473-.152,1.068.262,2.148,1.397,2.46.937.258,2.307-.321,2.46-1.397h0Z"/><path class="f" d="M97.552,188.668c-2.386,9.208-5.352,18.283-8.268,27.333-3.495,10.846-7.092,21.667-10.992,32.375-.823,2.259-1.661,4.513-2.539,6.751-.349.889-.706,1.776-1.073,2.658-.089.214.04-.094.048-.112-.05.117-.099.235-.15.351-.077.178-.153.356-.231.533-.148.337-.3.673-.456,1.006l1.727-.991h-1.386l1.727.991c-.282-.601-.548-1.209-.809-1.819-.089-.207.042.099.048.115-.042-.1-.084-.2-.126-.3-.064-.156-.129-.311-.193-.467-.171-.416-.339-.833-.506-1.251-.757-1.9-1.48-3.813-2.19-5.731-1.845-4.986-3.597-10.006-5.317-15.036-3.749-10.965-7.348-21.985-10.745-33.064-1.357-4.425-2.707-8.86-3.871-13.341-.646-2.49-4.505-1.434-3.857,1.063,2.403,9.259,5.392,18.382,8.331,27.481,3.525,10.915,7.152,21.806,11.094,32.579,1.45,3.963,2.893,7.964,4.685,11.79.291.621,1.072.991,1.727.991h1.386c.654,0,1.436-.369,1.727-.991,3.756-8.034,6.467-16.637,9.33-25.014,3.782-11.065,7.409-22.187,10.833-33.369,1.368-4.468,2.73-8.945,3.903-13.469.646-2.494-3.211-3.557-3.857-1.063h0Z"/><path class="f" d="M90.582,263.482c4.43-7.68,8.826-15.38,13.131-23.131,4.246-7.646,8.532-15.309,12.409-23.151.534-1.08.852-2.121.501-3.318-.332-1.133-1.279-1.971-2.07-2.795-1.781-1.857-3.647-3.629-5.522-5.389l-.405,3.141c1.565-.893,3.13-1.787,4.695-2.68,1.211-.691,2.748-1.367,2.796-2.989.067-2.235-2.338-4.669-3.744-6.183-3.396-3.655-7.494-6.771-11.679-9.467-2.17-1.398-4.178,2.063-2.019,3.454,2.65,1.707,5.186,3.596,7.562,5.669,1.282,1.118,2.523,2.291,3.66,3.558.467.52.921,1.052,1.324,1.623.171.242.336.489.492.741.077.124.416.872.405.605l.273-1.009c.324-.282.245-.263-.234.058-.285.162-.569.325-.854.487-.498.284-.996.568-1.494.853-1.067.609-2.134,1.218-3.201,1.827-1.092.623-1.342,2.262-.405,3.141,1.477,1.386,2.948,2.779,4.376,4.216.614.618,1.714,1.411,2.106,2.191.185.368.267-.201-.119.447-.267.449-.482.939-.722,1.403-1.866,3.617-3.77,7.215-5.7,10.798-3.952,7.337-8.014,14.614-12.13,21.861-2.28,4.015-4.578,8.02-6.886,12.019-1.289,2.234,2.167,4.25,3.454,2.019h0Z"/><path class="f" d="M147.941,266.174c.005-7.151-.085-14.304-.501-21.444-.375-6.449-.813-13.037-2.066-19.385-1.19-6.026-3.668-11.627-7.642-16.338-3.532-4.186-8.119-7.36-13.008-9.764-5.652-2.779-11.672-4.693-17.581-6.832-2.425-.878-3.469,2.986-1.063,3.857,9.672,3.501,20.227,6.449,27.54,14.134,3.944,4.144,6.411,9.27,7.649,14.824,1.312,5.884,1.695,12.042,2.082,18.044.492,7.624.596,15.266.59,22.904-.002,2.574,3.998,2.578,4,0h0Z"/><path class="f" d="M4.001,265.52c.033-7.219.329-14.435,1.092-21.616.767-7.218,1.663-14.526,3.892-21.462,1.941-6.041,5.056-11.502,10.125-15.436,4.863-3.775,10.597-6.205,16.38-8.185,4.241-1.452,8.559-2.518,12.863-3.749,2.471-.707,1.42-4.567-1.063-3.857-10.12,2.894-20.641,5.404-29.319,11.682-2.736,1.979-5.164,4.202-7.181,6.918-1.992,2.682-3.478,5.687-4.684,8.794-2.701,6.962-3.738,14.446-4.616,21.819C.496,248.767.04,257.123,0,265.52c-.012,2.574,3.988,2.578,4,0h0Z"/><path class="f" d="M0,265.52c.246,9.875.418,20.027,3.561,29.495,2.599,7.83,8.112,15.738,16.42,18.143,8.408,2.434,17.171-1.35,22.56-7.891,2.803-3.402,4.858-7.286,6.727-11.258,2.149-4.569,3.938-9.302,5.478-14.11,3.569-11.146,5.86-22.641,8.598-34.005.603-2.501-3.253-3.569-3.857-1.063-2.278,9.455-4.247,18.99-6.898,28.352-2.448,8.645-5.44,17.329-10.031,25.097-1.968,3.329-4.437,6.532-7.7,8.685-3.142,2.074-6.9,3.101-10.66,2.886-7.601-.435-13.437-7.177-16.043-13.846-3.778-9.667-3.9-20.255-4.155-30.485-.064-2.569-4.064-2.579-4,0H0Z"/><path class="f" d="M20.489,256.014c5.366-8.371,10.18-17.081,15.138-25.696,1.286-2.235-2.169-4.252-3.454-2.019-4.958,8.615-9.772,17.324-15.138,25.696-1.393,2.174,2.067,4.182,3.454,2.019h0Z"/><path class="e" d="M47.443,197.436c.766-3.328,1.751-6.41,2.985-8.972,2.882-5.984,7.172-7.915,13.558-8.787,3.078-.42,6.281-.142,9.154,1.041,3.239,1.333,5.805,4.201,4.019,7.981,2.768.609,3.93,2.387,3.821,4.628-.059,1.214-.892,3.433-2.968,3.857l-.353.072c1.786.873,2.079,2.449,2.108,3.509.05,1.879-1.628,3.883-3.182,3.708-1.123-.126-2.041-.227-2.891-.304.564.315.883.493.883.493,1.068.596,1.722,1.865,1.798,2.8.08.984-.146,2.024-.71,2.818-.888,1.25-2.397,1.321-3.695,1.468-1.697.192-3.232.638-3.801,2.227-.221.617-1.068,4.639-1.394,5.824-.656,2.384-1.704,4.718-3.451,6.511-1.747,1.793-4.267,2.987-6.83,2.791,0,0-1.052-.081-1.834-.14-4.034-1.674-9.497-4.246-10.81-6.269-1.467-2.26,1.331-6.731,1.564-10.506.302-4.892.949-10.065,2.028-14.751Z"/><path class="f" d="M79.317,188.687c1.634-4.839-1.986-8.587-6.267-10.135-4.594-1.662-9.94-1.238-14.531.259-3.799,1.239-6.898,3.619-8.965,7.055-2.444,4.062-3.677,8.918-4.566,13.53-.522,2.708-.903,5.446-1.191,8.188-.253,2.408-.253,4.829-.912,7.171-.586,2.082-1.53,4.248-1.455,6.451.07,2.045,1.23,3.41,2.788,4.587,1.717,1.297,3.664,2.282,5.602,3.201.988.469,1.988.913,2.994,1.342,1.174.5,2.19.661,3.453.747,5.057.345,9.273-3.112,11.273-7.545.92-2.038,1.405-4.165,1.899-6.332.182-.797.276-1.731.593-2.489.293-.701,1.047-.822,1.753-.94,1.204-.201,2.384-.22,3.514-.731,1.261-.57,2.154-1.587,2.653-2.871,1.055-2.718.071-5.671-2.368-7.239-2.172-1.396-4.179,2.065-2.019,3.454,1.182.76,1.113,2.735-.292,3.152-1.773.526-3.57.276-5.173,1.401-2.398,1.684-2.484,5.282-3.143,7.887-.903,3.572-2.98,7.563-6.996,8.222-.648.106-1.295.059-1.945.012-.925-.067-1.55-.333-2.401-.71-1.816-.805-3.617-1.661-5.333-2.665-.637-.373-1.286-.758-1.868-1.215-.237-.186-.466-.39-.672-.609-.227-.242-.213-.166-.273-.397-.342-1.325.501-3.108.886-4.364,1.271-4.153,1.217-8.464,1.832-12.738.608-4.225,1.478-8.46,2.951-12.476,1.094-2.982,2.645-6.001,5.385-7.777,3.113-2.017,7.352-2.769,11.006-2.601,3.187.146,9.415,1.707,7.927,6.111-.826,2.444,3.036,3.493,3.857,1.063h0Z"/><path class="f" d="M66.088,189.314c2.166.147,4.336.305,6.488.598-.269-.037.37.054.354.052.221.032.441.066.662.101.521.083,1.041.173,1.56.27.463.086.926.173,1.386.274.221.049.44.101.657.167.136.041.27.087.402.136-.133-.06-.138-.061-.015-.003.173.082.333.181.499.275.078.048.154.098.228.152-.169-.133-.168-.126.004.02.115.125.24.238.349.369-.28-.337.026.075.062.139.089.156.175.442.073.12.06.187.11.373.158.563.123.48.042-.143.026.24-.007.174-.015.369-.001.541.031.372.119-.423.009-.018-.038.142-.061.288-.101.43-.016.056-.216.601-.114.364.1-.234-.171.312-.203.365-.271.451-.483.643-1.091.787-1.052.248-1.675,1.446-1.397,2.46.296,1.076,1.406,1.646,2.46,1.397,4.642-1.096,5.93-7.752,2.4-10.755-1.888-1.606-4.475-1.881-6.84-2.234-2.659-.396-5.334-.627-8.016-.809-1.079-.073-2,.972-2,2,0,1.143.918,1.927,2,2h0Z"/><path class="f" d="M65.89,197.641c2.054.107,4.105.266,6.148.502.265.031.53.063.795.096.112.014.225.028.337.044-.093-.013-.286-.042.132.02.495.074.99.149,1.483.237.472.084.951.165,1.414.294.195.054.393.114.58.194-.312-.133.222.153.317.204.105.057.248.236-.021-.028.054.053.116.097.167.152.126.135.311.478.104.079.06.116.144.227.211.34.044.074.07.158.114.231-.054-.09-.121-.378-.065-.129.03.136.081.268.112.404.013.056.02.115.035.171.081.3-.115-.199-.022-.2.046,0,.027.858.022.904.041-.354-.088.235-.122.335-.074.218-.007.023.011-.017-.057.12-.13.231-.191.35-.147.285.062-.005-.152.226-.087.094-.178.181-.267.272-.112.114-.201.134-.03.028-.101.062-.199.124-.306.176.089-.043.238-.034.082-.049-.216-.021.094.003.129.003-.11,0-.212,0-.323-.006-.564-.034-1.13-.127-1.693-.186-2.273-.238-4.536-.326-6.82-.291-1.081.016-2,.907-2,2,0,1.071.915,2.017,2,2,2.361-.036,4.697.064,7.045.314,1.347.144,2.516.291,3.754-.415,1.21-.691,2.06-1.877,2.549-3.156.658-1.721.378-3.936-.701-5.436-1.505-2.092-3.961-2.514-6.352-2.859-2.811-.405-5.64-.658-8.476-.805-1.08-.056-2,.959-2,2,0,1.13.917,1.944,2,2h0Z"/><path class="f" d="M143.941,266.174c-.007,8.882-.283,18.349-4.123,26.542-2.82,6.017-7.698,10.46-13.884,12.858s-12.864,3.11-19.434,3.539c-9.284.606-18.593.917-27.895,1.024-11.459.132-23.041.19-34.464-.83-1.077-.096-2,.988-2,2,0,1.162.92,1.904,2,2,10.521.939,21.175.923,31.73.854,9.832-.064,19.665-.384,29.479-.976,13.778-.831,29.217-3.158,36.775-16.249,5.311-9.2,5.809-20.405,5.817-30.762.002-2.574-3.998-2.578-4,0h0Z"/><path class="f" d="M57.094,282.508c16.603-1.36,33.177-2.897,49.708-4.974,1.072-.135,2-.823,2-2,0-.976-.921-2.136-2-2-16.531,2.078-33.104,3.614-49.708,4.974-2.548.209-2.57,4.211,0,4h0Z"/><path class="f" d="M112.987,246.277c-.012,3.47-.472,6.977-.794,10.428-.199,2.134-.408,4.267-.64,6.398-.09.827-.182,1.655-.285,2.481-.023.187-.048.375-.072.562.074-.582.027-.184.005-.047-.037.236-.07.473-.113.708-.196,1.061.293,2.157,1.397,2.46.973.267,2.263-.329,2.46-1.397.664-3.586.884-7.296,1.224-10.922.331-3.53.804-7.119.817-10.67.009-2.574-3.991-2.578-4,0h0Z"/><path class="f" d="M68.649,169.468c2.058,1.087,4.272,1.549,6.599,1.534,2.411-.016,4.799-.511,6.725-2.011.829-.646.729-2.159,0-2.828-.88-.807-1.944-.689-2.828,0,.676-.527-.127.054-.348.17-.177.093-.649.22-.067.051-.185.054-.364.14-.549.199-.502.161-1.016.265-1.536.35.291-.048.15-.02-.059,0-.151.015-.301.027-.453.037-.363.023-.727.033-1.092.03-.326-.002-.652-.013-.977-.035-.149-.01-.299-.022-.448-.037-.082-.008-.629-.109-.129-.012-.483-.094-.962-.177-1.435-.318-.201-.06-.397-.132-.595-.2-.48-.164.372.183-.061-.022-.246-.116-.489-.237-.729-.364-.925-.488-2.217-.265-2.736.718-.488.924-.27,2.215.718,2.736h0Z"/></g></svg>