<svg id="b" xmlns="http://www.w3.org/2000/svg" width="406.108" height="375.774" viewBox="0 0 406.108 375.774" style="color: initial !important;"><defs><style>.d{fill:#3d8dcc;}.e{fill:#ffffff;}.f{fill:#211715;}.g{fill:#c6c6c6;}</style></defs><g id="c"><path class="e" d="M356.176,171.395c1.269-1.22,2.979-1.678,4.443-1.626,3.185.112,4.54,1.835,5.123,2.846,1.741,3.019,1.667,8.581.499,12.023-.827,2.437-2.183,6.166-5.451,8.84-1.347,1.102-3.328,1.828-5.223,1.508,0,0-.182-.031-.501-.085-.601,1.986-1.344,3.933-1.797,4.878-1.247,3.384-7.791,14.731-16.27,20.185v3.131c-.808.654-17.275,12.364-18.524,13.249h-3.219c-1.249-.885-17.716-12.595-18.524-13.249v-3.177c-3.298-2.006-6.344-4.791-9.272-8.295-4.707-5.634-7.388-11.703-8.868-16.732-2.019.521-4.203-.23-5.651-1.415-3.268-2.674-4.623-6.402-5.451-8.84-1.168-3.442-1.242-9.004.499-12.023.583-1.011,1.938-2.734,5.123-2.846,1.463-.052,3.173.407,4.443,1.626,0,0-5.921-34.923,39.311-34.923,46.468,0,39.311,34.923,39.311,34.923Z"/><path class="e" d="M299.291,265.082c-4.481-11.817-8.512-23.111-10.411-29.315h.469c-.623-1.679.183-4.007,1.277-5.275,1.86-2.154,4.203-5.27,6.104-7.396.808.654,17.275,12.364,18.524,13.249h3.219c1.249-.885,17.716-12.595,18.524-13.249,1.901,2.127,4.244,5.242,6.104,7.396,1.095,1.268,1.9,3.596,1.28,5.275-4.981,16.081-21.033,58.675-26.741,69.19l-1.661-.007c-3.491-6.328-10.517-23.593-16.688-39.867Z"/><path class="d" d="M310.535,259.287c.179-1.367.279-2.213.275-2.389-.027-1.572-1.517-7.202-2.187-8.582,0,0-.36-.978-.89-2.419,2.848-3.774,5.877-7.703,7.521-9.552h3.219c1.593,1.792,4.486,5.536,7.254,9.2l-.8,2.457c-.492,2.05-1.667,7.872-1.667,8.746,0,.465,1.817,14.537,3.361,27.628-3.655,9.143-6.964,16.866-8.981,20.582l-1.661-.007c-2.067-3.747-5.374-11.33-9.009-20.271,1.49-10.504,2.967-20.836,3.564-25.391Z"/><path class="g" d="M299.678,266.099c6.076,15.971,12.884,32.654,16.302,38.85l1.661.007c5.674-10.451,21.566-52.594,26.65-68.896l.089-.293c.623-1.679-.183-4.007-1.277-5.275-1.583-1.834-3.517-4.364-5.227-6.383,1.753-.796,3.156-1.432,3.156-1.432,4.456,2.08,10.392,5.233,13.543,7.515,4.639,3.359,7.676,6.543,10.499,9.92,4.133,1.528,8.144,3.33,11.909,5.526,3.69,2.146,6.751,4.223,9.635,7.434,2.733,3.02,5.043,6.437,6.956,10.031,5.808,10.988,7.38,23.314,8.774,35.532,1.367,12.012,1.64,24.148,1.052,36.229-.451,9.43-1.599,15.402-5.658,22.658-3.321,5.931-13.051,11.521-21.565,12.45-13.365,1.462-24.134.861-36.707.191-9.238-.492-18.941-1.189-27.715-2.392l-8.155-.989c-14.244,3.251-28.812,5.624-40.742,6.551-5.507.437-18.723-.752-24.736-6.942-5.343-5.521-8.063-12.354-8.91-17.985-1.749-11.726-1.449-21.565-1.039-29.382.998-19.488,2.036-31.746,7.516-51.453,3.184-7.885,6.86-13.393,12.928-17.575,5.518-3.825,11.378-6.612,19.858-9.671,2.874-3.456,5.941-6.705,10.678-10.134,3.151-2.281,9.088-5.435,13.543-7.515l2.935,1.695c-1.653,1.97-3.49,4.364-5.005,6.12-1.095,1.268-1.9,3.596-1.277,5.275h-.469c1.954,6.381,6.162,18.15,10.797,30.332Z"/><path class="e" d="M333.574,343.253c-2.064-8.036-4.54-17.23-6.179-22.633,6.233-2.86,9.347-3.703,15.388-5.447,4.982-1.439,10.304-2.943,17.17-2.943,4.566,0,9.451,1.976,12.839,3.169l1.023.36c-.866,9.262-1.84,18.287-2.719,24.729l-1.004.903s-3.806,3.423-6.625,3.971c-4.162.809-24.647,2.249-28.431.328,0,0-.356-.181-.963-.487-.163-.64-.329-1.292-.499-1.95Z"/><path class="f" d="M295.034,221.398c-1.2,1.355-2.33,2.77-3.463,4.18-1.12,1.395-2.424,2.732-3.411,4.224-1.649,2.491-1.734,5.291-.531,7.934,1.938,4.257,3.954,8.507,6.519,12.429,1.597,2.443,3.407,4.888,5.871,6.518,1.169.773,2.542.129,3.284-.861,4.482-5.98,8.713-12.195,13.65-17.781,1.089-1.232.823-2.841-.486-3.769-3.111-2.206-6.215-4.42-9.32-6.634-1.994-1.422-3.988-2.845-5.978-4.273-.706-.506-1.412-1.013-2.115-1.523-.287-.208-1.552-1.18-.626-.443-1.014-.806-2.404-.99-3.394,0-.836.836-1.02,2.583,0,3.394,3.041,2.419,6.313,4.581,9.475,6.836s6.352,4.531,9.535,6.788l-.486-3.769c-5.207,5.893-9.688,12.466-14.4,18.753l3.284-.861c-.118-.076-.234-.155-.348-.237.195.157.183.146-.038-.034-.242-.203-.474-.417-.7-.637-.497-.485-.958-1.008-1.396-1.546-.742-.911-1.617-2.233-2.324-3.375-1.617-2.612-3.028-5.35-4.349-8.121-.456-.957-.898-1.92-1.337-2.884-.135-.297-.282-.592-.407-.894-.089-.215-.009-.298.02-.004-.026-.263-.042-.525-.003-.794.243-1.685,1.736-2.97,2.75-4.227,1.355-1.679,2.687-3.378,4.118-4.994,2.042-2.305-1.341-5.712-3.394-3.394Z"/><path class="f" d="M335.301,224.792c1.431,1.616,2.762,3.315,4.118,4.994,1.01,1.252,2.477,2.516,2.74,4.185.045.285.035.555.008.835.029-.293.109-.211.02.004-.125.302-.272.596-.407.894-.438.965-.881,1.928-1.337,2.884-1.299,2.725-2.685,5.417-4.268,7.99-.729,1.186-1.631,2.556-2.405,3.506-.438.538-.899,1.061-1.396,1.546-.226.22-.458.434-.7.637-.22.18-.233.191-.038.034-.114.082-.23.161-.348.237l3.284.861c-4.713-6.287-9.193-12.86-14.4-18.753l-.486,3.769c3.183-2.257,6.359-4.522,9.535-6.788s6.434-4.417,9.475-6.836c1.015-.807.843-2.551,0-3.394-1.003-1.003-2.376-.809-3.394,0,.919-.731-.284.196-.57.403-.694.503-1.39,1.003-2.086,1.503-2.018,1.448-4.04,2.891-6.062,4.333-3.105,2.214-6.209,4.429-9.32,6.634-1.309.928-1.574,2.537-.486,3.769,4.937,5.587,9.167,11.802,13.65,17.781.743.992,2.103,1.642,3.284.861,4.336-2.868,7.05-8.115,9.364-12.614.981-1.907,1.896-3.846,2.783-5.798.239-.525.496-1.046.715-1.58.746-1.817.412-3.875-.349-5.628-.797-1.836-2.298-3.29-3.542-4.834-1.31-1.626-2.602-3.268-3.987-4.832-2.052-2.317-5.437,1.088-3.394,3.394Z"/><path class="e" d="M269.434,299.312c-1.154-1.063-2.227-2.035-3.186-2.884-1.367-1.21-3.096-2.012-4.65-2.18-1.467-.158-3.218.251-4.121,1.251-1.051,1.164-1.458,2.963-.642,4.695.788,1.674,2.417,2.995,4.195,4.719-3.041-4.648-6.849-3.328-8.138-1.864-.733.832-1.157,2.258-.538,3.667,1.091,2.483,3.651,4.413,6.07,6.984-2.497-.443-4.334-.743-5.732.813-.74.823-.925,2.468-.581,3.52.344,1.052,1.062,1.931,1.742,2.804,2.16,2.775,3.844,5.065,5.849,7.567l.645.805c6.444-1.192,20.202-3.593,33.722-5.942-1.368-1.397-2.343-2.393-2.343-2.393-5.392-5.437-15.314-15.139-22.291-21.562Z"/><path class="f" d="M322.776,252.705c-3.865-.001-7.729-.081-11.594-.082-1.255,0-2.458,1.104-2.4,2.4s1.055,2.399,2.4,2.4c3.865.001,7.729.081,11.594.082,1.255,0,2.458-1.104,2.4-2.4s-1.055-2.4-2.4-2.4h0Z"/><path class="f" d="M322.614,247.363c-.635,2.676-1.212,5.396-1.604,8.119-.228,1.583.05,3.054.246,4.64.995,8.085,2.012,16.168,2.968,24.258.152,1.287.994,2.4,2.4,2.4,1.179,0,2.553-1.104,2.4-2.4-.946-8.007-1.951-16.007-2.937-24.009-.118-.956-.238-1.913-.347-2.87-.025-.216-.067-.438-.071-.656-.003-.141.059-.749.016-.415-.052.404.072-.422.083-.492.057-.342.119-.684.181-1.025.136-.743.28-1.484.428-2.224.27-1.353.549-2.706.867-4.05.712-3.003-3.915-4.285-4.629-1.276h0Z"/><path class="f" d="M306.551,249.527c.098.214.08.171-.053-.13.049.127.096.255.142.384.086.272.184.54.27.812.207.653.395,1.312.573,1.973.361,1.336.72,2.699.918,4.071-.072-.497.009.195.003.391-.007.224-.044.45-.07.671-.044.383-.093.765-.142,1.146-.027.209-.054.417-.082.626-.011.081-.124.932-.076.571-1.055,7.847-2.199,15.682-3.311,23.521-.182,1.282.314,2.578,1.676,2.952,1.125.309,2.769-.385,2.952-1.676,1.166-8.22,2.367-16.437,3.465-24.667.235-1.763.475-3.273.176-5.039-.456-2.694-1.147-5.542-2.297-8.031-.543-1.177-2.242-1.47-3.284-.861-1.208.706-1.406,2.102-.861,3.284h0Z"/><path class="f" d="M368.395,339.694c-1.501,1.341-3.409,2.897-5.566,3.354-.283.06-.57.096-.855.142-.647.104.271-.029-.144.021-.24.029-.479.059-.718.087-1.061.123-2.124.224-3.187.316-5.452.47-10.962.767-16.435.589-1.222-.04-2.441-.114-3.656-.252-.464-.053-.012-.004.069.009-.118-.019-.238-.034-.355-.056-.242-.046-.483-.087-.723-.144-.185-.044-.366-.1-.55-.148-.548-.142.096.065-.027.006-1.166-.564-2.594-.319-3.284.861-.615,1.052-.311,2.717.861,3.284,1.902.92,4.106,1.054,6.184,1.175,2.881.168,5.775.124,8.657.028,5.025-.168,10.208-.338,15.167-1.239,2.978-.541,5.745-2.662,7.956-4.638,2.308-2.063-1.096-5.448-3.394-3.394h0Z"/><path class="f" d="M330.01,322.058c3.162-1.393,6.408-2.522,9.72-3.501,3.444-1.018,6.896-2.07,10.406-2.839,3.67-.804,7.564-1.344,11.324-1.021,3.69.317,7.234,1.789,10.694,3.015,1.222.433,2.626-.49,2.952-1.676.365-1.327-.45-2.518-1.676-2.952-3.847-1.363-7.659-2.771-11.753-3.167s-8.425.241-12.431,1.091c-7.371,1.564-14.764,3.87-21.657,6.906-1.186.523-1.462,2.256-.861,3.284.716,1.223,2.093,1.386,3.284.861h0Z"/><path class="f" d="M293.422,319.177c-6.736-6.788-13.595-13.466-20.591-19.987-3.405-3.174-7.177-7.653-12.281-7.361-3.021.173-5.666,1.928-6.375,4.98-.714,3.076.971,5.714,3.058,7.796,4.606,4.596,9.305,9.113,13.978,13.641,2.22,2.151,5.618-1.24,3.394-3.394-3.645-3.532-7.258-7.098-10.879-10.656-.871-.856-1.76-1.693-2.64-2.539-.756-.726-1.672-1.516-2.104-2.502-.806-1.839.948-2.738,2.522-2.508,2.015.294,3.469,1.841,4.902,3.143,1.44,1.308,2.865,2.633,4.283,3.965,3.276,3.076,6.515,6.191,9.736,9.325s6.434,6.296,9.604,9.491c2.179,2.196,5.573-1.198,3.394-3.394h0Z"/><path class="f" d="M256.844,299.346c-2.586-.334-5.465.998-6.592,3.41-1.386,2.965.027,5.751,1.966,8.047,1.767,2.092,3.834,3.978,5.747,5.938,1.948,1.995,3.92,3.966,5.996,5.83.964.865,2.443.951,3.394,0,.88-.88.968-2.525,0-3.394-3.341-2.999-6.401-6.284-9.554-9.474-.741-.75-1.517-1.478-2.189-2.293-.439-.532-1.073-1.271-1.159-1.981-.059-.49.161-.773.424-.969.443-.33,1.177-.415,1.967-.313,1.288.167,2.4-1.222,2.4-2.4,0-1.435-1.108-2.233-2.4-2.4h0Z"/><path class="f" d="M256.922,311.055c-2.16-.283-4.391.079-5.928,1.761-1.463,1.601-1.849,4.21-1.063,6.212.861,2.194,2.509,3.865,3.88,5.66,1.385,1.814,2.768,3.631,4.193,5.414.788.985,2.584.883,3.394,0,.96-1.045.84-2.343,0-3.394-1.143-1.429-1.872-2.384-2.964-3.815-.544-.713-1.088-1.426-1.635-2.136-.356-.463-.713-.925-1.071-1.386.029.037-.469-.606-.275-.352-.13-.17-.257-.342-.38-.517s-.241-.351-.351-.533c-.031-.051-.311-.559-.229-.389.063.132-.105-.319-.118-.355-.148-.411-.023.26-.018-.02.003-.165-.006-.339-.01-.504-.009-.451-.077.18-.002-.077.046-.157.089-.332.125-.491-.095.42-.13-.032.032-.042.072-.114.061-.108-.033.02-.129.155-.105.135.072-.06l.155-.146c-.193.138-.22.161-.081.068.112.022.428-.218.03-.065.143-.055.332-.066.461-.137.202-.112-.386-.007.048-.013.174-.002.348-.013.523-.01.418.008.832.054,1.246.109,1.25.164,2.453-1.221,2.4-2.4-.065-1.44-1.061-2.225-2.4-2.4h0Z"/><path class="f" d="M373.775,285.001c-.868,17.25-2.459,34.534-4.584,51.673-.397,3.205-.758,6.148-1.414,9.56-.244,1.272.357,2.59,1.676,2.952,1.174.323,2.707-.397,2.952-1.676,1.35-7.028,2.027-14.214,2.776-21.324.98-9.299,1.82-18.615,2.529-27.939.335-4.412.642-8.827.865-13.246.155-3.087-4.645-3.079-4.8,0h0Z"/><path class="f" d="M258.671,331.957c11.839-2.35,23.793-4.207,35.677-6.317,6.333-1.124,12.678-2.187,19.015-3.289,3.494-.608,6.986-1.219,10.479-1.834.324-.057.742-.068,1.049-.185.679-.257.219.136.041-.133-.664-1.001-.116.21-.013.546.313,1.014.614,2.031.911,3.05,2.914,10.017,5.552,20.134,7.969,30.283.106.445.211.89.315,1.335.039.168.054.462.141.611.376.642-.093-.776.318-.564-.287-.148-1.887.659-2.228.776-.998.344-1.998.679-3.001,1.008-3.759,1.233-7.549,2.369-11.36,3.429-7.236,2.013-14.543,3.769-21.898,5.291-7.183,1.487-14.417,2.768-21.689,3.737-5.37.716-10.884,1.552-16.314,1.239-5.021-.29-10.376-1.256-14.845-3.72-5.029-2.772-8.453-8.424-10.294-13.745-2.226-6.434-2.476-13.655-2.643-20.403-.158-6.378.183-12.747.544-19.112.387-6.808.863-13.624,1.779-20.385.925-6.823,2.31-13.576,4.012-20.246.434-1.699.803-3.457,1.367-5.119.532-1.569,1.335-3.102,2.091-4.571,1.341-2.605,2.91-5.103,4.879-7.281,3.986-4.409,9.393-7.422,14.725-9.91,3.074-1.435,6.239-2.657,9.427-3.811,1.218-.441,2.039-1.632,1.676-2.952-.323-1.176-1.728-2.12-2.952-1.676-6.573,2.38-13.08,5.086-18.955,8.916-5.467,3.564-9.728,8.163-12.768,13.952-.836,1.593-1.574,3.234-2.27,4.893-.785,1.87-1.227,3.87-1.732,5.832-.945,3.672-1.8,7.369-2.53,11.091-1.329,6.777-2.219,13.632-2.807,20.511-1.219,14.261-2.141,28.787-.28,43.028.438,3.348,1.027,6.583,2.257,9.742,1.304,3.35,3.026,6.45,5.229,9.292,1.947,2.511,4.151,4.654,6.96,6.176,2.586,1.401,5.42,2.37,8.278,3.04,5.03,1.179,10.192,1.561,15.333,1.112,7.328-.64,14.625-1.671,21.872-2.923,15.669-2.707,31.271-6.399,46.336-11.514,1.69-.574,3.94-.989,5.195-2.345,1.244-1.344,1.159-3.019.774-4.672-.521-2.237-1.07-4.468-1.628-6.696-1.418-5.667-2.893-11.32-4.426-16.957-.7-2.573-1.412-5.143-2.154-7.704-.635-2.19-1.075-5.476-3.179-6.725-1.623-.963-3.435-.405-5.159-.102-1.872.329-3.744.658-5.617.985-3.706.649-7.413,1.292-11.121,1.934-8.005,1.386-16.008,2.782-24.009,4.196-7.483,1.322-14.967,2.639-22.448,3.971-.536.095-1.073.183-1.607.289-1.272.252-2.002,1.768-1.676,2.952.365,1.326,1.677,1.929,2.952,1.676h0Z"/><path class="f" d="M364.414,242.416c6.367,2.371,13.04,5.429,18.153,10.002,5.195,4.646,8.995,11.016,11.479,17.477,2.631,6.841,4.018,14.089,5,21.33,1.037,7.647,1.783,15.334,2.079,23.047.303,7.87.267,15.801-.309,23.659-.435,5.939-1.638,11.672-4.398,16.989-2.683,5.169-7.639,8.609-12.984,10.715-6.55,2.58-13.865,2.666-20.818,2.805-8.193.163-16.384-.301-24.561-.754-8.57-.474-17.155-1.073-25.664-2.229-1.283-.174-2.577.309-2.952,1.676-.307,1.119.383,2.777,1.676,2.952,8.077,1.097,16.2,1.766,24.335,2.251,7.64.456,15.298.904,22.954.936,3.92.016,7.841-.094,11.753-.364,3.737-.257,7.545-.501,11.168-1.507,6.218-1.727,12.709-5.167,16.811-10.266,3.84-4.774,5.918-11.256,6.82-17.243,1.177-7.811,1.214-15.854,1.117-23.737-.101-8.251-.716-16.46-1.69-24.651-.917-7.704-1.998-15.444-4.317-22.871-2.306-7.389-5.855-14.365-10.889-20.275-4.738-5.562-11.231-9.352-17.846-12.279-1.857-.822-3.739-1.583-5.642-2.291-1.215-.452-2.63.505-2.952,1.676-.369,1.343.457,2.498,1.676,2.952h0Z"/><path class="f" d="M342.534,233.592c-2.731,9.201-6.1,18.233-9.428,27.23-3.956,10.696-8.034,21.358-12.461,31.869-.274.651-.914,2.147-1.344,3.133-.46,1.056-.928,2.11-1.406,3.158-.733,1.607-1.485,3.209-2.325,4.763l2.072-1.189-1.661-.007,2.072,1.189c-4.205-7.654-7.151-15.623-10.368-23.669-4.195-10.494-8.212-21.065-12.011-31.709-1.565-4.384-3.113-8.78-4.479-13.23-.904-2.944-5.538-1.689-4.629,1.276,2.781,9.061,6.136,17.962,9.472,26.83,3.984,10.591,8.101,21.142,12.562,31.543,1.647,3.839,3.294,7.718,5.307,11.383.405.738,1.243,1.185,2.072,1.189l1.661.007c.822.004,1.676-.455,2.072-1.189,1.726-3.194,3.156-6.555,4.581-9.891,2.126-4.977,4.155-9.995,6.138-15.03,4.286-10.886,8.391-21.848,12.262-32.889,1.567-4.468,3.121-8.949,4.469-13.49.881-2.968-3.75-4.235-4.629-1.276h0Z"/><path class="f" d="M368.725,287.164c-6.777,0-13.555.002-20.332.063-1.681.015-3.607-.205-5.254.174-2.627.604-3.251,3.004-3.253,5.345-.002,2.169-.005,4.339-.008,6.508-.003,2.549,1.332,4.714,4.062,4.918,4.446.333,9.015.091,13.475.092,3.089,0,3.094-4.799,0-4.8-3.439,0-6.878-.02-10.317-.048-.834-.007-1.67-.035-2.503-.023-.568.008-.416-.129-.101.163.198.183.064.539.184.213.064-.175,0-.508,0-.696.002-1.921.005-3.842.007-5.763,0-.426,0-.853.001-1.279,0-.618.126-.379-.185-.117-.363.306-.424.166.11.158.359-.006.718-.011,1.077-.016,1.446-.019,2.892-.032,4.338-.043,3.307-.024,6.615-.035,9.922-.042,2.925-.006,5.851-.008,8.776-.008,3.089,0,3.094-4.8,0-4.8h0Z"/><path class="f" d="M264.271,291.964c5.493,0,10.986.005,16.478.035,1.495.008,2.989.019,4.484.033.692.007,1.383.014,2.074.024.272.004.544.007.816.012.172.003.344.005.516.008.297.022.332.013.104-.029-.155-.009-.274-.087-.355-.233-.084-.396-.111-.381-.08.044-.031.345,0,.726.001,1.072.001.93.002,1.86.003,2.79s.002,1.866.003,2.799c0,.35-.031.733.001,1.082.058.627.009-.158.572-.214-1.29.128-2.4,1.011-2.4,2.4,0,1.198,1.102,2.529,2.4,2.4,1.95-.194,3.639-1.275,4.114-3.282.382-1.615.112-3.538.11-5.185s.26-3.559-.12-5.161c-.463-1.951-2.161-3.157-4.104-3.28-2.582-.163-5.207-.064-7.793-.079-3.018-.018-6.036-.027-9.053-.032-2.591-.004-5.181-.006-7.772-.006-3.089,0-3.094,4.8,0,4.8h0Z"/><path class="f" d="M319.129,319.338v-14.377c0-1.255-1.104-2.458-2.4-2.4s-2.4,1.055-2.4,2.4v14.377c0,1.255,1.104,2.458,2.4,2.4s2.4-1.055,2.4-2.4h0Z"/><path class="f" d="M339.896,280.881c5.049-4.97,10.367-9.601,15.944-13.969,3.23-2.529,6.465-5.071,9.84-7.403,3.031-2.095,6.158-4.04,9.262-6.023,1.013-.647,1.646-2.197.861-3.284-2.889-4.001-5.807-7.93-8.974-11.72-2.625-3.142-5.483-6.05-8.702-8.588-3.198-2.522-6.649-4.579-10.246-6.48-2.955-1.562-5.892-2.941-9.046-4.032-2.925-1.013-4.182,3.623-1.276,4.629.874.302,1.756.588,2.623.908.444.164-.305-.15.132.064.396.194.796.379,1.193.572.959.467,1.913.945,2.861,1.435,3.291,1.7,6.588,3.484,9.569,5.696,3.204,2.378,6.064,5.183,8.662,8.204,1.172,1.364,2.298,2.766,3.422,4.17.32.399.639.798.959,1.197.122.152.244.304.367.456.048.059.553.687.312.375-.131-.17.249.343.32.442,1.227,1.699,2.453,3.397,3.68,5.096l.861-3.284c-3.168,2.023-6.359,4.008-9.448,6.151-3.536,2.453-6.922,5.131-10.311,7.779-5.688,4.444-11.114,9.151-16.259,14.216-2.205,2.171,1.19,5.564,3.394,3.394h0Z"/><path class="f" d="M297.227,277.486c-5.145-5.064-10.571-9.772-16.259-14.216-3.39-2.649-6.776-5.327-10.311-7.779-3.089-2.143-6.28-4.128-9.448-6.151l.861,3.284,3.199-4.431c1.417-1.962,2.951-3.82,4.788-6.034,2.501-3.015,5.2-5.842,8.243-8.316,2.903-2.36,6.134-4.236,9.425-5.996,1.926-1.03,3.878-2.015,5.854-2.945-.359.169-.074.023.11-.049.266-.105.534-.207.801-.31l1.379-.533c1.208-.467,2.044-1.613,1.676-2.952-.317-1.154-1.737-2.147-2.952-1.676-6.146,2.378-12.325,5.459-17.6,9.439-5.93,4.475-10.962,10.154-15.303,16.167l-3.765,5.214c-.78,1.081-.147,2.64.861,3.284,3.041,1.942,6.104,3.848,9.077,5.895,3.442,2.37,6.737,4.955,10.026,7.531,5.577,4.368,10.895,8.999,15.944,13.969,2.203,2.169,5.6-1.223,3.394-3.394h0Z"/><path class="d" d="M287.228,117.675c3.389-3.122,8.792-6.67,12.443-8.048,12.375-4.669,27.022-4.436,37.069,1.708,10.169,6.218,11.437,9.194,20.271,17.197,2.479,2.245,4.414,4.996,6.321,7.744,3.137,4.52,3.32,11.568,2.644,17.028-.713,5.756-2.384,11.402-2.358,17.217-.755-.409-1.732-.708-3-.753-1.463-.052-3.173.407-4.443,1.626l-3.505-2.788c.17-5.139-1.006-10.298-3.451-15.144-1.367-2.709-3.166-5.362-5.915-7.495-2.749-2.133-6.549-3.712-10.646-3.882-1.999-.083-3.994.166-5.956.445-4.783.679-9.669,1.548-14.482.985-3.205-.375-6.245-1.376-9.488-1.517-5.311-.231-10.462,1.987-13.38,5.102-2.918,3.115-3.825,6.99-3.485,10.708.092,1.005.258,2.061-.331,2.98-.456.712-1.31,1.252-2.088,1.811-3.217,2.311-5.441,5.294-6.272,8.466-1.218-.973-2.744-1.344-4.067-1.297-.999.035-1.817.229-2.488.508-1.483-5.855-2.115-10.237-1.888-15.61.674-15.945,3.517-23.856,12.065-30.071l6.428-6.921Z"/><path class="f" d="M272.774,168.99c-.911-3.726-1.597-7.467-1.675-11.312-.075-3.665.21-7.378.648-11.016.628-5.223,1.871-10.292,4.832-14.568,1.32-1.907,3.461-3.981,5.432-5.426,1.044-.765,1.564-2.082.861-3.284-.602-1.03-2.233-1.632-3.284-.861-4.61,3.381-8.067,7.599-10.139,12.952-2.477,6.4-3.041,13.702-3.153,20.503-.08,4.835.705,9.604,1.85,14.287.733,2.999,5.363,1.729,4.629-1.276h0Z"/><path class="f" d="M353.493,191.377c-.591,2.856-1.678,5.671-2.67,8.101.29-.711-.105.221-.215.454-.187.394-.384.782-.587,1.168-.483.92-1,1.821-1.539,2.708-2.805,4.615-6.221,8.97-10.402,12.419-2.309,1.905-4.902,3.402-7.79,4.074-3.007.7-1.734,5.329,1.276,4.629,6.011-1.398,11.026-5.753,14.962-10.316,3.282-3.805,6.357-8.097,8.429-12.7.112-.249.218-.5.323-.751.011-.027.366-.878.205-.5-.145.341.013-.017.038-.072.138-.307.266-.619.394-.93.155-.376.305-.754.449-1.135.721-1.911,1.341-3.872,1.755-5.873.623-3.015-4.002-4.304-4.629-1.276h0Z"/><path class="f" d="M275.495,192.513c1.798,7.917,5.519,15.314,10.821,21.461,5.118,5.934,11.715,10.645,19.604,11.82,1.28.191,2.58-.32,2.952-1.676.311-1.132-.386-2.76-1.676-2.952-7.174-1.068-12.831-5.189-17.486-10.586-4.767-5.527-7.975-12.246-9.587-19.343-.684-3.011-5.313-1.737-4.629,1.276h0Z"/><path class="f" d="M357.873,173.092c.951-.848,2.258-1.081,3.49-.841.578.113,1.11.315,1.581.676-.17-.13.752.902.441.452,1.425,2.059,1.431,4.951,1.226,7.345-.209,2.433-1.093,4.894-2.253,7.034-1.401,2.585-3.56,5.247-6.791,4.827-1.288-.167-2.4,1.223-2.4,2.4,0,1.436,1.109,2.232,2.4,2.4,7.039.913,11.33-6.728,13.086-12.409,1.563-5.057,1.562-13.016-3.399-16.27-3.332-2.186-7.876-1.593-10.774.992-2.31,2.061,1.095,5.446,3.394,3.394h0Z"/><path class="f" d="M279.25,169.698c-2.713-2.421-6.55-2.992-9.869-1.48-2.403,1.094-3.864,3.354-4.54,5.838-1.581,5.807-.087,12.588,3.24,17.538,2.249,3.346,5.781,6.349,10.082,5.791,1.285-.167,2.4-.984,2.4-2.4,0-1.167-1.106-2.568-2.4-2.4-3.23.419-5.39-2.242-6.791-4.827-1.16-2.14-2.045-4.601-2.253-7.034-.205-2.392-.201-5.29,1.226-7.345-.316.455.594-.569.441-.452.422-.323.889-.515,1.402-.637,1.281-.305,2.671-.089,3.67.802,2.299,2.051,5.705-1.332,3.394-3.394h0Z"/><path class="f" d="M315.88,185.162c.336,1.283.659,2.585.852,3.898l-.086-.638c.023.18.033.357.015.538l.086-.638c-.013.084-.031.162-.059.242l.242-.573c-.025.056-.051.104-.085.156l.375-.486c-.04.049-.078.086-.127.126l.486-.375c-.099.063-.202.114-.309.163l.573-.242c-.17.071-.338.123-.52.152l.638-.086c-.164.019-.324.018-.488,0l.638.086c-.184-.026-.365-.07-.549-.095-.319-.1-.638-.114-.957-.043-.319.014-.617.109-.892.285-.498.291-.973.862-1.103,1.434-.14.614-.11,1.304.242,1.849.312.484.835,1.022,1.434,1.103.455.061.896.176,1.359.196.728.032,1.4-.195,2.048-.494.81-.374,1.446-1.124,1.661-1.996.183-.742.107-1.362-.019-2.105-.212-1.256-.502-2.5-.825-3.732-.152-.579-.588-1.133-1.103-1.434s-1.273-.429-1.849-.242c-1.25.404-2.018,1.651-1.676,2.952h0Z"/><path class="f" d="M295.655,174.016c-.651,2.115-.227,6.982,3.781,7.396,5.297-.032,5.579-5.915,3.796-8.682-1.46-2.265-5.753-3.207-7.577,1.286Z"/><path class="f" d="M338.073,174.016c.651,2.115.227,6.982-3.781,7.396-5.297-.032-5.579-5.915-3.796-8.682,1.46-2.265,5.753-3.207,7.577,1.286Z"/><path class="f" d="M288.925,119.372c2.846-2.591,6.097-4.819,9.522-6.573,3.467-1.776,7.435-2.744,11.258-3.39,7.462-1.26,15.754-.837,22.713,2.348,6.075,2.781,11.27,7.177,15.975,11.839,2.677,2.653,5.563,5.132,8.169,7.848,1.471,1.533,2.731,3.234,3.95,4.969,1.058,1.506,1.949,2.971,2.476,4.745,2.804,9.431-1.457,19.016-1.767,28.469-.101,3.09,4.699,3.086,4.8,0,.164-4.99,1.446-9.826,2.147-14.75.605-4.257.76-8.543-.026-12.79-1.614-8.73-8.923-14.542-14.896-20.44-5.094-5.03-10.368-9.805-16.736-13.208-7.498-4.008-16.41-5.085-24.78-4.122-4.934.568-9.9,1.678-14.443,3.727-4.274,1.929-8.296,4.785-11.754,7.934-2.289,2.084,1.113,5.471,3.394,3.394h0Z"/><path class="f" d="M279.772,170.725c1.269-2.946,3.38-4.887,5.893-6.776,1.566-1.178,2.619-2.59,2.692-4.618.055-1.512-.263-2.992-.081-4.512.73-6.097,6.511-9.955,12.317-10.383,3.6-.265,7.006.84,10.532,1.337,3.986.562,7.92.229,11.887-.309,3.582-.486,7.323-1.359,10.951-.876,2.991.398,6.008,1.658,8.311,3.621,5.678,4.839,8.182,13.15,7.996,20.398-.079,3.09,4.721,3.088,4.8,0,.194-7.582-2.237-15.543-7.091-21.433-4.965-6.025-12.604-8.165-20.142-7.199-4.15.532-8.281,1.337-12.481,1.32-4.062-.017-7.906-1.334-11.933-1.653-7.048-.557-15.106,2.834-18.334,9.406-.899,1.831-1.412,3.743-1.614,5.77-.087.87-.096,1.746-.038,2.618.042.64.339,1.615-.024,2.184-.415.649-1.504,1.142-2.103,1.608-.844.656-1.648,1.356-2.379,2.137-1.359,1.453-2.516,3.107-3.304,4.937-.512,1.189-.353,2.574.861,3.284,1.012.592,2.768.336,3.284-.861h0Z"/><path class="f" d="M309.366,203.573c2.468,1.303,5.123,1.858,7.915,1.84,2.892-.019,5.756-.613,8.065-2.412.995-.775.875-2.591,0-3.394-1.055-.969-2.332-.827-3.394,0,.811-.632-.152.064-.417.203-.213.111-.779.265-.08.061-.222.065-.437.168-.658.239-.602.194-1.218.318-1.841.42.348-.057.181-.024-.07.001-.181.018-.362.033-.543.045-.436.028-.872.039-1.309.037-.391-.002-.782-.016-1.172-.042-.179-.012-.358-.027-.537-.045-.099-.01-.755-.13-.154-.014-.58-.112-1.153-.212-1.72-.382-.241-.072-.476-.159-.714-.24-.575-.197.447.22-.073-.026-.295-.139-.586-.284-.874-.436-1.11-.586-2.66-.318-3.284.861-.586,1.109-.324,2.658.861,3.284h0Z"/><path class="e" d="M226.345,132.197c0-3.902-.455-7.695-1.289-11.344,5.833-8.93,9.235-19.591,9.235-31.053,0-24.462-15.446-45.313-37.116-53.343-9.724-20.164-30.359-34.077-54.244-34.077-14.825,0-28.388,5.37-38.877,14.257-6.969-3.151-14.696-4.919-22.841-4.919-30.662,0-55.518,24.856-55.518,55.518,0,1.791.093,3.56.259,5.307-14.222,9.486-23.595,25.67-23.595,44.048,0,21.535,12.872,40.052,31.335,48.312,8.292,18.86,27.128,32.036,49.052,32.036,7.883,0,15.361-1.717,22.101-4.775,9.415,6.104,20.633,9.662,32.689,9.662,17.429,0,33.118-7.416,44.11-19.255,25.175-2.99,44.702-24.395,44.702-50.374ZM210.312,191.186c-6.034,0-10.925,4.891-10.925,10.925s4.891,10.925,10.925,10.925,10.925-4.891,10.925-10.925-4.891-10.925-10.925-10.925ZM226.863,216.128c-3.017,0-5.463,2.446-5.463,5.463s2.446,5.463,5.463,5.463,5.463-2.446,5.463-5.463-2.446-5.463-5.463-5.463Z"/><path class="f" d="M228.745,132.197c-.02-4.032-.494-8.048-1.375-11.982l-.242,1.849c8.297-12.803,11.31-28.459,8.502-43.441-2.392-12.762-9.21-24.643-18.951-33.218-5.559-4.893-11.934-8.668-18.866-11.262l1.434,1.103c-6.097-12.547-16.458-22.962-29.039-29.016-13.73-6.607-29.68-8.053-44.358-3.886-8.653,2.456-16.622,6.813-23.494,12.597l2.908-.375c-15.675-7.015-33.707-6.928-49.212.497-13.172,6.307-23.513,17.675-28.843,31.232-3.264,8.302-4.464,17.378-3.657,26.249l1.189-2.072C11.718,79.223,2.677,93.194.525,108.793c-2.14,15.513,2.324,31.227,12.33,43.273,5.289,6.367,12.086,11.505,19.626,14.909l-.861-.861c9.001,20.289,29.857,33.596,52.049,33.217,7.757-.133,15.322-1.924,22.387-5.094h-2.423c19.639,12.638,45.422,13.252,65.569,1.388,5.223-3.076,10.001-6.929,14.138-11.357l-1.697.703c10.167-1.243,19.657-5.213,27.617-11.674,7.705-6.253,13.514-14.731,16.707-24.115,1.855-5.452,2.758-11.231,2.778-16.986.011-3.089-4.789-3.093-4.8,0-.036,10.462-3.409,20.601-9.648,29.001-5.916,7.965-14.457,14.014-23.9,17.025-2.504.798-5.071,1.4-7.668,1.799-.751.115-1.632.088-2.296.477-.601.352-1.056.987-1.538,1.481-1.066,1.092-2.174,2.144-3.32,3.153-4.453,3.92-9.536,7.114-14.96,9.512-11.235,4.967-24.172,6.086-36.117,3.302-6.161-1.436-12.025-3.863-17.401-7.195-.906-.561-1.749-1.216-2.89-.902-.674.186-1.351.594-2.003.86-1.625.664-3.287,1.24-4.97,1.737-3.229.952-6.547,1.609-9.901,1.897-11.39.978-22.826-1.823-32.426-8.037-4.445-2.877-8.403-6.462-11.773-10.543-1.659-2.009-3.139-4.167-4.464-6.41-.658-1.115-1.276-2.254-1.852-3.414-.315-.634-.581-1.297-.907-1.924-.46-.883-1.093-1.215-1.972-1.63-9.744-4.598-17.858-12.187-23.036-21.64-5.291-9.658-7.307-21.117-5.552-32.001,1.792-11.114,7.227-21.356,15.437-29.059,1.989-1.866,4.115-3.55,6.378-5.071.664-.446,1.267-1.213,1.189-2.072-1.288-14.157,2.89-28.464,12.096-39.38,8.581-10.176,20.899-17.087,34.167-18.658,9.585-1.135,19.403.255,28.226,4.204,1.065.477,2.015.377,2.908-.375,11.62-9.781,26.776-14.545,41.899-13.372,13.352,1.036,26.128,6.934,35.686,16.291,2.336,2.287,4.503,4.759,6.413,7.414,1.991,2.768,3.551,5.708,5.198,8.679.868,1.566,3.02,1.94,4.587,2.646,1.537.692,3.043,1.453,4.512,2.279,2.789,1.568,5.461,3.364,7.926,5.405,10.125,8.384,16.972,20.144,19.189,33.107,1.244,7.273.93,14.858-.834,22.015-.932,3.78-2.25,7.461-3.976,10.95-.852,1.722-1.791,3.4-2.813,5.027-.76,1.21-.952,1.96-.644,3.4.247,1.151.462,2.312.623,3.478.298,2.167.418,4.356.429,6.542.015,3.088,4.815,3.094,4.8,0Z"/><path class="f" d="M210.312,188.786c-5.609.077-10.529,3.531-12.515,8.77-1.934,5.102-.296,11.288,3.938,14.738,4.344,3.54,10.513,4.185,15.385,1.274s7.25-8.531,6.258-14.043c-1.12-6.227-6.857-10.655-13.066-10.74-3.09-.042-3.091,4.758,0,4.8,3.49.048,6.821,2.214,7.987,5.518,1.243,3.522.232,7.345-2.694,9.707-2.681,2.164-6.67,2.411-9.678.613-2.971-1.775-4.659-5.386-4.026-8.768.773-4.132,4.287-7.014,8.411-7.07,3.086-.042,3.095-4.842,0-4.8Z"/><path class="f" d="M226.863,213.728c-3.368.046-6.237,2.136-7.415,5.266-1.1,2.923-.134,6.552,2.278,8.537,2.578,2.122,6.226,2.57,9.147.825s4.273-5.083,3.68-8.377c-.654-3.634-4.091-6.202-7.69-6.251-1.256-.017-2.458,1.116-2.4,2.4.059,1.315,1.054,2.382,2.4,2.4.152.002.303.013.456.019.42.015-.155.003-.193-.031.117.102.544.116.715.169.103.032.306.15.41.145-.057.003-.521-.26-.179-.066.251.142.494.282.736.44.403.262-.29-.307-.093-.069.072.088.181.16.263.239.068.066.134.134.198.204l.095.106c.162.193.126.142-.106-.154.069.199.285.412.39.598.047.083.087.171.134.254.227.396-.157-.535.01.025.07.235.147.463.197.704.074.354-.107.187-.004-.124-.03.089.024.277.028.376.011.255-.008.505-.021.759-.017.342.124-.621.012-.122-.033.144-.062.287-.101.429-.039.141-.09.276-.135.415-.091.284-.111-.037.076-.173-.132.096-.245.474-.343.629-.063.099-.142.193-.201.295-.158.273.404-.441.064-.097-.123.125-.562.45-.61.595.064-.192.401-.28.147-.115-.12.078-.236.16-.359.234-.082.049-.165.096-.25.14l-.128.065c-.231.108-.172.086.179-.066-.204,0-.488.173-.692.224-.095.024-.192.042-.288.064-.471.106.586-.041-.028,0-.228.016-.457.018-.685.005-.239-.013-.547-.167.042.02-.089-.028-.197-.036-.29-.056-.239-.053-.467-.132-.7-.206-.489-.154.486.267.044.014-.124-.071-.254-.132-.377-.206-.102-.061-.199-.13-.3-.193-.322-.201.006-.175.089.074-.042-.125-.418-.384-.515-.489-.064-.069-.28-.419-.088-.082.203.356-.026-.043-.066-.101-.114-.17-.271-.66-.421-.748.038.022.201.563.076.173-.045-.139-.095-.275-.135-.415-.026-.094-.05-.189-.071-.285-.016-.073-.072-.548-.034-.119.039.441.001-.066-.002-.129-.007-.127-.009-.254-.007-.381s.013-.253.018-.379c.017-.503-.116.497-.004.047.071-.286.147-.564.236-.844.148-.465-.225.365-.045.108.093-.133.153-.302.237-.442.049-.082.1-.162.153-.241.053-.079.108-.156.165-.233-.232.296-.268.348-.106.154.167-.168.335-.335.502-.502.358-.356-.463.298-.039.022.12-.078.235-.16.359-.234s.252-.135.377-.206c.391-.221-.506.162-.044.014.282-.09.557-.165.844-.236.278-.069.087.113-.197.019.142.047.449-.031.605-.033,1.255-.017,2.459-1.092,2.4-2.4-.058-1.286-1.055-2.418-2.4-2.4Z"/></g></svg>