<svg id="b" xmlns="http://www.w3.org/2000/svg" width="334.844" height="351.54" viewBox="0 0 334.844 351.54" style="color: initial !important;"><defs><style>.d{fill:#ffffff;}.e{fill:#211715;}.f{fill:#3d8dcc;}.g{fill:#f2635f;}</style></defs><g id="c"><path class="d" d="M332.434,62.029c0-32.371-24.651-59.629-60.002-59.629s-59.998,27.477-59.998,59.629c0,33.171,21.305,56.801,52.025,60.286,2.482,5.267,5.189,11.016,7.975,16.837,2.782-5.811,5.484-11.551,7.962-16.81,31.758-3.404,52.038-27.258,52.038-60.313Z"/><path class="e" d="M334.434,62.029c-.049-18.396-8.051-36.45-22.483-48.053-15.325-12.321-36.14-16.333-55.163-11.743-17.979,4.338-33.283,16.945-40.825,33.854-7.721,17.311-7.311,38.088.758,55.219,7.728,16.406,22.949,27.996,40.587,31.846,2.361.516,4.75.884,7.151,1.163l-1.727-.991c2.647,5.618,5.295,11.235,7.975,16.837.625,1.307,2.828,1.307,3.454,0,2.676-5.593,5.32-11.201,7.962-16.81l-1.727.991c11.916-1.307,23.32-5.489,32.662-13.11,8.882-7.246,15.146-17.29,18.428-28.224,2.037-6.786,2.933-13.903,2.948-20.979.006-2.574-3.994-2.578-4,0-.029,13.129-3.395,26.252-11.209,36.951-7.36,10.077-18.342,16.873-30.378,19.858-1.841.457-3.702.83-5.576,1.126-.956.151-1.914.261-2.875.379-1.613.198-1.981,1.53-2.594,2.83-2.354,4.996-4.712,9.989-7.096,14.971h3.454c-1.547-3.232-3.083-6.469-4.614-9.709-.669-1.416-1.337-2.832-2.004-4.248-.72-1.527-1.164-3.627-3.084-3.871-4.578-.581-9.079-1.567-13.436-3.103-8.236-2.902-15.724-7.766-21.656-14.18-12.455-13.468-17.222-33.415-14.059-51.305,3.154-17.841,14.484-33.439,30.808-41.444,17.259-8.463,39.014-7.853,55.736,1.625,15.687,8.891,26.196,25.244,28.194,43.13.259,2.322.382,4.655.388,6.991.007,2.573,4.007,2.578,4,0Z"/><path class="f" d="M272.881,79.253c-1.637,0-2.919-.401-3.81-1.192-.527-.467-.936-1.009-1.216-1.611-.999-2.146-1.098-5.877-.277-10.504,1.056-5.952,4.155-8.551,7.743-11.561.84-.704,1.708-1.432,2.565-2.221,1.785-1.608,2.704-3.746,2.583-6.016-.113-2.128-1.182-4.124-2.86-5.341-1.435-1.151-3.324-1.795-5.295-1.795s-3.883.655-5.241,1.796c-2.382,1.799-3.816,4.305-4.902,6.518-.276.562-.933,1.587-2.238,2.14-.708.301-1.569.466-2.424.466-.942,0-1.848-.194-2.62-.559-2.071-.982-2.995-2.812-2.826-5.594.179-2.93,1.331-5.919,3.247-8.417,3.756-4.898,10.69-8.063,17.666-8.063,3.964,0,9.705,1.031,14.546,5.943,3.413,3.463,5.395,8.491,5.3,13.45-.086,4.526-1.866,8.646-5.012,11.603-1.985,1.866-3.556,3.152-4.942,4.286-.819.67-1.525,1.248-2.198,1.849-1.635,1.458-2.71,3.693-2.806,5.832l-.038.901c-.059,1.459-.109,2.719-.329,4.096-.122.764-.602,1.899-1.397,2.712-.797.814-1.97,1.282-3.218,1.282Z"/><path class="f" d="M272.459,98.299c-1.999,0-3.832-.923-4.902-2.47-1.598-2.553-.939-5.531.547-7.142.963-1.043,2.381-1.616,4.102-1.659l.126-.002c.793,0,3.493.168,4.975,2.328,1.574,2.294,1.097,5.78-1.042,7.612-1.002.859-2.354,1.332-3.805,1.332Z"/><path class="e" d="M272.881,77.253c-1.278-.029-2.435-.291-3.116-1.459-.513-.879-.652-2.086-.71-3.124-.17-3.053.188-6.382,1.266-9.255.814-2.169,2.276-3.927,3.955-5.485,2.108-1.957,4.673-3.574,6.396-5.903,1.749-2.365,2.308-5.619,1.325-8.412-1.03-2.926-3.383-5.073-6.303-6.066-3.024-1.028-6.73-.602-9.331,1.295-2.446,1.783-4.224,4.158-5.599,6.833-.528,1.029-.922,1.795-2.116,2.115s-2.661.141-3.63-.681c-1.853-1.571-.827-5.103-.127-6.976,2.056-5.507,7.55-8.939,13.052-10.248,4.919-1.17,10.269-.65,14.644,1.979,5.162,3.101,8.349,8.794,8.235,14.826-.059,3.105-1.065,6.219-3.009,8.665-2.035,2.56-4.857,4.548-7.356,6.629-2.637,2.197-4.378,4.835-4.596,8.342-.148,2.375.431,6.783-2.979,6.924-2.565.107-2.578,4.107,0,4,3.761-.156,6.219-2.822,6.682-6.449.356-2.781-.149-5.769,1.709-8.12.951-1.203,2.329-2.129,3.507-3.096,1.28-1.051,2.541-2.123,3.761-3.243,2.469-2.266,4.345-4.943,5.386-8.149,2.122-6.53.377-13.95-3.935-19.191-3.969-4.825-10.041-7.474-16.219-7.691-6.452-.226-13.182,2.086-17.93,6.503-2.49,2.315-4.371,5.344-5.249,8.635-.796,2.985-.977,6.599,1.19,9.068,2.207,2.513,6.199,3.047,9.159,1.675,2.905-1.346,3.549-4.674,5.457-6.974,2.133-2.572,5.329-4.107,8.612-2.674,2.69,1.173,4.242,4.169,3.089,6.983-.682,1.666-2.228,2.782-3.559,3.907-1.2,1.015-2.425,2.005-3.554,3.1-2.366,2.295-4.124,5.065-4.982,8.264-.96,3.576-1.369,7.7-.645,11.358.761,3.847,3.677,6.007,7.521,6.094,2.575.058,2.574-3.942,0-4Z"/><path class="e" d="M272.459,96.299c-.176-.002-.35-.015-.525-.021-.099-.003-.372-.073.017.008-.279-.058-.555-.111-.828-.195-.134-.041-.264-.093-.397-.139-.3-.103.399.219-.057-.035-.29-.162-.576-.32-.845-.52.346.257-.184-.188-.276-.283-.096-.099-.182-.206-.276-.305.252.264.062.101.012.01-.095-.173-.197-.341-.29-.516-.183-.343-.065-.133-.031-.046-.137-.346-.219-.699-.302-1.06-.122-.531-.016.233-.01-.085.002-.144-.019-.292-.02-.437,0-.115.001-.231.007-.346.004-.083.084-.634,0-.145.048-.274.107-.544.188-.81.032-.104.069-.206.103-.31.143-.433-.153.248.05-.112.128-.227.251-.451.39-.672.261-.418-.286.275.052-.071.071-.073.135-.151.207-.223.092-.094.196-.175.289-.267.21-.21-.385.236.036-.021.091-.056.179-.115.271-.169.087-.05.708-.317.257-.149.239-.089.48-.166.728-.227.142-.035.285-.063.429-.09.388-.073.087-.007.007-.001.361-.027.717-.045,1.078-.024.145.008.296.039.44.039-.662,0-.127-.017.099.03.292.06.986.141,1.201.36l-.228-.093c.084.039.167.08.249.122.084.044.166.089.248.137.125.074.242.158.365.236-.056-.035-.319-.281-.051-.039.195.176.364.365.549.549-.254-.252-.077-.113-.015-.015.108.171.217.339.311.518.047.089.087.181.131.271-.2-.411-.05-.105-.011.014.072.215.131.434.176.656l.028.149c.036.226.033.199-.01-.081-.003.001.02.265.022.303.01.216.078.71-.024.913.132-.263.049-.267.009-.078-.042.2-.079.399-.134.596-.027.098-.057.196-.089.292-.066.199-.16.396-.019.091-.129.277-.269.546-.436.802-.01.015-.303.414-.11.169.177-.225-.203.219-.242.259-.071.073-.148.14-.22.213-.16.134-.153.136.021.004-.069.052-.14.102-.212.149-.12.081-.243.157-.37.227-.038.021-.555.274-.156.101-.33.144-.682.224-1.03.309-.372.091-.104.027-.012.015-.248.031-.497.039-.747.042-1.046.015-2.049.909-2,2,.048,1.071.879,2.016,2,2,3.494-.05,6.534-2.201,7.478-5.61.865-3.124-.21-6.54-2.942-8.356-2.022-1.344-4.879-1.648-7.182-.945-3.252.993-5.347,4.168-5.173,7.55.103,1.999.898,4.018,2.44,5.344,1.516,1.304,3.381,1.99,5.379,2.018,1.047.014,2.048-.93,2-2-.049-1.096-.879-1.985-2-2Z"/><path class="d" d="M122.434,62.029c0-32.371-24.651-59.629-60.002-59.629S2.434,29.877,2.434,62.029c0,33.171,21.305,56.801,52.025,60.286,2.482,5.267,5.189,11.016,7.975,16.837,2.782-5.811,5.484-11.551,7.962-16.81,31.758-3.404,52.038-27.258,52.038-60.313Z"/><path class="e" d="M124.434,62.029c-.049-18.396-8.051-36.45-22.483-48.053C86.625,1.656,65.81-2.356,46.787,2.233,28.808,6.571,13.504,19.178,5.962,36.087c-7.721,17.311-7.311,38.088.758,55.219,7.728,16.406,22.949,27.996,40.587,31.846,2.361.516,4.75.884,7.151,1.163l-1.727-.991c2.647,5.618,5.295,11.235,7.975,16.837.625,1.307,2.828,1.307,3.454,0,2.676-5.593,5.32-11.201,7.962-16.81l-1.727.991c11.916-1.307,23.32-5.489,32.662-13.11,8.882-7.246,15.146-17.29,18.428-28.224,2.037-6.786,2.933-13.903,2.948-20.979.006-2.574-3.994-2.578-4,0-.029,13.129-3.395,26.252-11.209,36.951-7.36,10.076-18.342,16.873-30.378,19.858-1.841.457-3.702.83-5.576,1.126-.956.151-1.914.261-2.875.379-1.613.198-1.981,1.53-2.594,2.83-2.354,4.996-4.712,9.989-7.096,14.971h3.454c-1.547-3.232-3.083-6.469-4.614-9.709-.669-1.416-1.337-2.832-2.004-4.248-.72-1.527-1.164-3.627-3.084-3.871-4.578-.581-9.079-1.567-13.436-3.103-8.236-2.902-15.724-7.766-21.656-14.18C6.912,89.564,2.145,69.617,5.308,51.727c3.154-17.841,14.484-33.439,30.808-41.444,17.259-8.463,39.014-7.853,55.736,1.625,15.687,8.891,26.196,25.244,28.194,43.13.259,2.322.382,4.655.388,6.991.007,2.573,4.007,2.578,4,0Z"/><path class="g" d="M62.456,98.299c-2.014,0-3.86-.93-4.938-2.488-1.61-2.572-.946-5.572.551-7.194.97-1.051,2.398-1.628,4.132-1.671l.126-.002c.798,0,3.519.169,5.012,2.345,1.585,2.311,1.105,5.822-1.05,7.668-1.01.865-2.371,1.341-3.833,1.341Z"/><path class="e" d="M62.456,96.299c-.177-.002-.352-.015-.529-.022-.097-.003-.374-.072.013.008-.281-.058-.56-.112-.834-.197-.135-.042-.266-.094-.4-.14-.301-.104.397.219-.06-.037-.292-.163-.581-.322-.851-.523.067.05.278.25.018,0-.1-.096-.203-.187-.299-.286s-.183-.207-.278-.308c.25.262.059.096.01.007-.096-.174-.198-.344-.292-.52-.183-.344-.067-.137-.032-.05-.139-.348-.221-.704-.304-1.067-.122-.534-.016.23-.011-.09.003-.145-.019-.294-.02-.44,0-.116.001-.232.007-.348.004-.08.084-.636,0-.15.048-.276.107-.548.189-.816.032-.105.07-.208.104-.312.144-.434-.151.245.051-.116.129-.229.253-.454.392-.676.263-.42-.285.273.055-.074.071-.073.136-.152.208-.225.093-.094.197-.176.291-.269.211-.21-.384.235.039-.024.092-.056.18-.116.273-.17.085-.049.709-.318.262-.152.241-.09.484-.168.733-.229.143-.035.288-.064.433-.091.389-.073.091-.008.011-.002.363-.028.722-.045,1.086-.024.145.009.298.04.443.039-.658.003-.125-.016.104.031.316.065.962.142,1.21.363l-.226-.093c.085.039.169.08.251.123.084.044.168.09.25.138.126.074.244.159.368.237-.057-.036-.317-.279-.049-.037.196.177.367.367.553.553-.253-.252-.073-.108-.013-.012.109.172.219.341.313.522.047.09.088.182.132.273-.198-.409-.048-.101-.009.017.072.216.132.437.177.66l.029.15c.036.227.033.201-.009-.078.002,0,.021.267.022.305.011.223.077.71-.024.92.134-.277.047-.256.009-.074-.042.201-.08.402-.135.601-.027.099-.057.197-.089.294-.064.195-.162.402-.02.096-.129.279-.271.55-.439.808-.009.014-.304.416-.112.171.175-.222-.206.222-.245.262-.072.074-.149.141-.222.214-.16.135-.154.137.018.006-.07.052-.141.103-.214.15-.121.081-.245.158-.373.229-.036.02-.555.276-.16.103-.332.145-.687.225-1.037.311-.372.091-.108.027-.016.016-.249.032-.501.039-.752.043-1.046.015-2.049.909-2,2,.048,1.071.879,2.016,2,2,3.513-.05,6.569-2.213,7.518-5.641.869-3.14-.21-6.575-2.957-8.4-2.034-1.352-4.907-1.658-7.223-.951-3.269.998-5.375,4.191-5.2,7.591.104,2.01.904,4.04,2.453,5.373,1.524,1.31,3.399,2.001,5.408,2.028,1.047.014,2.048-.93,2-2-.049-1.096-.879-1.985-2-2Z"/><path class="g" d="M62.434,80.18c1.399.019,2.784-.361,3.814-1.298,1.06-.965,1.566-2.451,1.749-3.897,0,0,.07-.556.083-.657.48-15.422.95-23.676,1.19-39.047.059-2.039-.176-3.811-1.104-5.247-1.714-2.655-4.746-2.718-5.732-2.736-.986.018-4.018.081-5.732,2.736-.927,1.436-1.163,3.208-1.104,5.247.24,15.371.715,23.624,1.196,39.047.013.1.083.657.083.657.183,1.446.684,2.932,1.744,3.897,1.03.937,2.415,1.317,3.814,1.298"/><path class="e" d="M62.434,82.18c2.381-.03,4.639-.885,6.065-2.863,1.138-1.577,1.513-3.576,1.596-5.483.209-4.81.327-9.626.504-14.438.156-4.26.308-8.52.426-12.781.066-2.352.122-4.705.169-7.057.051-2.528.306-5.157-.177-7.657-.769-3.973-4.078-6.324-7.966-6.579-3.138-.206-6.329.994-8.076,3.704-1.242,1.926-1.411,4.276-1.373,6.503.043,2.519.089,5.038.15,7.556.105,4.347.245,8.692.402,13.037.187,5.181.386,10.362.555,15.543.078,2.39.063,4.828,1.239,6.994,1.303,2.399,3.854,3.488,6.487,3.521,2.575.032,2.576-3.968,0-4-4.284-.053-3.669-4.869-3.772-7.911-.132-3.948-.28-7.896-.425-11.843-.288-7.85-.646-15.72-.647-23.576,0-1.591.16-3.364,1.436-4.486.834-.733,2.033-1.004,2.881-1.047,2.082-.105,4.367.493,5.078,2.914.553,1.881.272,4.009.236,5.941-.039,2.13-.086,4.26-.141,6.39-.095,3.727-.216,7.453-.349,11.178-.151,4.242-.313,8.483-.459,12.724-.071,2.075.068,4.443-.263,6.408-.338,2.004-1.391,3.281-3.575,3.308-2.572.032-2.579,4.032,0,4h0Z"/><path class="d" d="M122.54,272.029c0-32.371-24.651-59.629-60.002-59.629S2.54,239.877,2.54,272.029c0,33.171,21.305,56.801,52.025,60.286,2.482,5.267,5.189,11.016,7.975,16.837,2.782-5.811,5.484-11.551,7.962-16.81,31.758-3.404,52.038-27.258,52.038-60.313Z"/><path class="e" d="M124.54,272.029c-.049-18.396-8.051-36.45-22.483-48.053-15.325-12.321-36.14-16.333-55.163-11.743-17.979,4.338-33.283,16.945-40.825,33.854-7.721,17.311-7.311,38.088.758,55.219,7.728,16.406,22.949,27.996,40.587,31.846,2.361.516,4.75.884,7.151,1.163l-1.727-.991c2.647,5.618,5.295,11.235,7.975,16.837.625,1.307,2.828,1.307,3.454,0,2.676-5.593,5.32-11.201,7.962-16.81l-1.727.991c11.916-1.307,23.32-5.489,32.662-13.11,8.882-7.246,15.146-17.29,18.428-28.224,2.037-6.786,2.933-13.903,2.948-20.979.006-2.574-3.994-2.578-4,0-.029,13.129-3.395,26.252-11.209,36.951-7.36,10.077-18.342,16.873-30.378,19.858-1.841.457-3.702.83-5.576,1.126-.956.151-1.914.261-2.875.379-1.613.198-1.981,1.53-2.594,2.83-2.354,4.996-4.712,9.989-7.096,14.971h3.454c-1.547-3.232-3.083-6.469-4.614-9.709-.669-1.416-1.337-2.832-2.004-4.248-.72-1.527-1.164-3.627-3.084-3.871-4.578-.581-9.079-1.567-13.436-3.103-8.236-2.902-15.724-7.766-21.656-14.18-12.455-13.468-17.222-33.415-14.059-51.305s14.484-33.439,30.808-41.444c17.259-8.463,39.014-7.853,55.736,1.625,15.687,8.891,26.196,25.244,28.194,43.13.259,2.322.382,4.655.388,6.991.007,2.573,4.007,2.578,4,0Z"/><path class="f" d="M76.121,306.6c-1.859,0-3.562-.858-4.557-2.296-1.486-2.374-.873-5.143.508-6.64.895-.97,2.214-1.503,3.814-1.542l.117-.002c.737,0,3.248.156,4.626,2.165,1.463,2.133,1.019,5.374-.969,7.077-.932.799-2.188,1.238-3.538,1.238Z"/><path class="f" d="M76.482,288.908c-.324.041-.653.047-.979.016-1.472-.143-2.825-1.014-3.65-2.228-.669-.984-.808-2.373-.862-3.532-.103-2.222.04-4.305.595-6.644,1.298-5.468,3.863-7.95,7.199-10.748.781-.655,1.588-1.332,2.385-2.064,1.659-1.495,2.514-3.483,2.402-5.593-.105-1.978-1.099-3.834-2.659-4.965-1.334-1.07-3.09-1.669-4.923-1.669s-3.61.609-4.872,1.67c-2.215,1.672-3.548,4.003-4.557,6.06-.256.522-.867,1.475-2.081,1.99-.658.28-1.459.433-2.254.433-.876,0-1.718-.18-2.436-.52-1.925-.913-2.785-2.614-2.628-5.2.166-2.724,1.238-5.503,3.018-7.826,3.492-4.554,9.938-7.497,16.425-7.497,3.685,0,9.023.959,13.524,5.526,3.173,3.219,5.015,7.894,4.928,12.505-.08,4.208-1.735,8.038-4.659,10.787-1.846,1.735-3.306,2.93-4.595,3.985-.761.623-1.406,1.136-1.919,1.8-1.245,1.608-2.241,4.42-2.62,6.244-.505,2.432-.415,5.532-3.037,6.884-.513.264-1.17.516-1.743.589Z"/><path class="e" d="M76.482,286.908c-1.195.086-2.344-.285-2.994-1.375-.617-1.035-.529-2.533-.527-3.689.004-2.806.503-5.763,1.742-8.303.973-1.993,2.376-3.598,4.014-5.074,2.008-1.81,4.519-3.371,5.809-5.822,2.814-5.344-.531-11.719-6.344-12.927-3.039-.631-6.062.09-8.478,2.018-2.207,1.761-3.539,4.031-4.87,6.465-.949,1.734-3.764,1.992-5.076.461-1.408-1.642-.375-4.89.366-6.592,2.195-5.044,7.388-8.049,12.595-9.103,4.622-.936,9.542-.181,13.487,2.459,4.688,3.136,7.344,8.793,6.783,14.406-.297,2.97-1.616,5.786-3.727,7.893-1.138,1.135-2.375,2.183-3.609,3.212-1.039.867-2.193,1.667-3.07,2.704-1.813,2.142-2.882,5.121-3.36,7.859-.417,2.391-.41,4.963-3.272,5.481-2.529.458-1.458,4.313,1.063,3.857,3.06-.554,4.999-2.844,5.645-5.785.558-2.54.796-5.02,2.026-7.371,1.255-2.399,3.83-3.882,5.81-5.653,2.387-2.134,4.288-4.451,5.445-7.471,2.337-6.097.889-13.275-3.086-18.346-3.604-4.597-9.128-7.208-14.901-7.578-6.049-.388-12.35,1.679-16.931,5.656-2.391,2.077-4.203,4.81-5.168,7.828-.85,2.661-1.222,6.072.406,8.524,1.767,2.661,5.449,3.606,8.41,2.616s3.655-3.55,5.227-5.897c1.637-2.443,4.14-4.347,7.221-3.786,2.613.475,4.766,2.708,4.446,5.472-.194,1.671-1.294,2.804-2.493,3.861-1.207,1.065-2.476,2.058-3.651,3.16-2.188,2.051-3.864,4.442-4.944,7.245-1.341,3.484-1.828,7.501-1.365,11.205.467,3.74,3.459,6.671,7.371,6.391,2.553-.183,2.573-4.184,0-4Z"/><path class="e" d="M76.121,304.6c-.163-.002-.325-.015-.488-.02-.124-.004-.346.041.053.013-.233.016-.545-.112-.77-.181-.125-.038-.246-.087-.369-.129-.29-.099.412.222-.019-.018-.271-.151-.534-.3-.785-.483.369.268-.12-.13-.228-.241-.089-.091-.167-.194-.257-.284.272.274.09.143.033.038-.087-.161-.182-.318-.27-.48-.181-.333-.046-.092-.014-.009-.125-.324-.202-.649-.281-.985-.118-.504-.008.267-.005-.042.001-.135-.018-.271-.019-.406,0-.107.001-.214.007-.321.006-.124-.045-.592-.005-.098-.019-.23.109-.537.174-.753.03-.097.064-.192.096-.288.141-.425-.167.284.032-.07.119-.211.234-.419.362-.624.25-.398-.297.292.026-.037.066-.067.126-.14.192-.208.086-.087.182-.163.268-.249.205-.203-.396.247.005.002.085-.052.166-.107.252-.157.103-.06.616-.42.205-.125.171-.123.476-.162.677-.211.132-.032.266-.058.399-.084.376-.073.043,0-.031.004.336-.022.666-.042,1.002-.022.136.008.273.032.409.036-.696-.02-.161-.021.055.023.183.037.365.082.544.135.157.046.417.212.572.2l-.246-.101c.078.036.156.074.232.114.078.041.155.083.23.128.048.028.331.166.34.219,0-.003-.37-.327-.076-.058.122.112.463.347.511.511-.074-.251-.136-.203-.036-.042.1.159.202.315.289.482.033.063.079.209.122.252-.221-.219-.104-.261-.024-.021.067.2.122.403.164.61l.026.138c.036.223.031.185-.014-.113-.017.055.017.213.021.282.006.124.076.751-.022.849.063-.062.074-.396.014-.11-.039.186-.074.371-.125.554-.025.091-.053.182-.082.272-.03.09-.062.179-.096.267l.093-.216c-.026.236-.275.545-.405.746-.017.026-.293.396-.091.142.195-.245-.175.186-.214.226-.066.068-.138.13-.205.198-.157.133-.142.127.048-.018-.064.048-.13.095-.197.139-.112.075-.226.146-.344.211-.059.033-.547.26-.111.08-.311.129-.632.205-.957.287-.363.091-.059.019.026.009-.231.027-.462.036-.694.039-1.046.015-2.049.909-2,2,.048,1.071.879,2.016,2,2,3.31-.047,6.194-2.089,7.088-5.319.821-2.968-.207-6.204-2.8-7.927-1.91-1.269-4.611-1.557-6.785-.893-3.081.94-5.078,3.947-4.913,7.155.098,1.894.849,3.811,2.309,5.068,1.438,1.237,3.203,1.891,5.101,1.917,1.047.014,2.048-.93,2-2-.049-1.096-.879-1.985-2-2Z"/><path class="g" d="M43.397,306.6c-1.859,0-3.562-.858-4.557-2.296-1.486-2.374-.873-5.143.508-6.64.895-.97,2.214-1.503,3.814-1.542l.117-.002c.737,0,3.248.156,4.626,2.165,1.463,2.133,1.019,5.374-.969,7.077-.932.799-2.188,1.238-3.538,1.238Z"/><path class="e" d="M43.397,304.6c-.163-.002-.325-.015-.488-.02-.124-.004-.346.041.053.013-.233.016-.545-.112-.77-.181-.125-.038-.246-.087-.369-.129-.29-.099.412.222-.019-.018-.271-.151-.534-.3-.785-.483.369.268-.12-.13-.228-.241-.089-.091-.167-.194-.257-.284.272.274.09.143.033.038-.087-.161-.182-.318-.27-.48-.181-.333-.046-.092-.014-.009-.125-.324-.202-.649-.281-.985-.118-.504-.008.267-.005-.042.001-.135-.018-.271-.019-.406,0-.107.001-.214.007-.321.006-.124-.045-.592-.005-.098-.019-.23.109-.537.174-.753.03-.097.064-.192.096-.288.141-.425-.167.284.032-.07.119-.211.234-.419.362-.624.25-.398-.297.292.026-.037.066-.067.126-.14.192-.208.086-.087.182-.163.268-.249.205-.203-.396.247.005.002.085-.052.166-.107.252-.157.103-.06.616-.42.205-.125.171-.123.476-.162.677-.211.132-.032.266-.058.399-.084.376-.073.043,0-.031.004.336-.022.666-.042,1.002-.022.136.008.273.032.409.036-.696-.02-.161-.021.055.023.183.037.365.082.544.135.157.046.417.212.572.2l-.246-.101c.078.036.156.074.232.114.078.041.155.083.23.128.048.028.331.166.34.219,0-.003-.37-.327-.076-.058.122.112.463.347.511.511-.074-.251-.136-.203-.036-.042.1.159.202.315.289.482.033.063.079.209.122.252-.221-.219-.104-.261-.024-.021.067.2.122.403.164.61l.026.138c.036.223.031.185-.014-.113-.017.055.017.213.021.282.006.124.076.751-.022.849.063-.062.074-.396.014-.11-.039.186-.074.371-.125.554-.025.091-.053.182-.082.272-.03.09-.062.179-.096.267l.093-.216c-.026.236-.275.545-.405.746-.017.026-.293.396-.091.142.195-.245-.175.186-.214.226-.066.068-.138.13-.205.198-.157.133-.142.127.048-.018-.064.048-.13.095-.197.139-.112.075-.226.146-.344.211-.059.033-.547.26-.111.08-.311.129-.632.205-.957.287-.363.091-.059.019.026.009-.231.027-.462.036-.694.039-1.046.015-2.049.909-2,2,.048,1.071.879,2.016,2,2,3.31-.047,6.194-2.089,7.088-5.319.821-2.968-.207-6.204-2.8-7.927-1.91-1.269-4.611-1.557-6.785-.893-3.081.94-5.078,3.947-4.913,7.155.098,1.894.849,3.811,2.309,5.068,1.438,1.237,3.203,1.891,5.101,1.917,1.047.014,2.048-.93,2-2-.049-1.096-.879-1.985-2-2Z"/><path class="g" d="M43.376,289.876c1.291.018,2.569-.333,3.52-1.198.978-.891,1.446-2.262,1.614-3.597,0,0,.065-.513.077-.606.443-14.235.877-21.852,1.099-36.039.055-1.882-.163-3.517-1.019-4.843-1.582-2.451-4.38-2.509-5.291-2.525-.91.016-3.708.074-5.291,2.525-.856,1.326-1.073,2.961-1.019,4.843.222,14.187.66,21.804,1.104,36.039.012.093.077.606.077.606.169,1.335.631,2.706,1.609,3.597.95.865,2.229,1.216,3.52,1.198"/><path class="e" d="M43.376,291.876c2.154-.033,4.229-.765,5.575-2.517,1.078-1.404,1.49-3.148,1.636-4.884.374-4.443.303-8.973.466-13.431.146-3.992.29-7.985.402-11.978.062-2.201.115-4.402.159-6.603.046-2.311.276-4.712-.134-7-.68-3.801-3.747-6.101-7.474-6.37-2.954-.212-6.018.919-7.648,3.491-1.153,1.821-1.323,4-1.288,6.098.039,2.358.084,4.717.141,7.075.098,4.069.231,8.137.378,12.205.175,4.856.361,9.712.519,14.568.067,2.06.122,4.164,1.147,6.019,1.248,2.258,3.623,3.288,6.12,3.326,2.575.039,2.576-3.961,0-4-3.813-.058-3.231-4.268-3.321-6.982-.121-3.607-.255-7.214-.388-10.82-.268-7.28-.543-14.567-.604-21.852-.012-1.456.069-3.127,1.234-4.172.745-.668,1.749-.913,2.542-.962,1.953-.121,4.022.446,4.625,2.701.471,1.759.206,3.726.173,5.526-.036,1.902-.078,3.804-.126,5.705-.089,3.457-.201,6.914-.324,10.371-.142,3.973-.293,7.947-.43,11.92-.06,1.742.023,4.183-.228,5.604-.324,1.836-1.192,2.932-3.152,2.962-2.572.039-2.579,4.039,0,4h0Z"/><path class="d" d="M332.434,272.029c0-32.371-24.651-59.629-60.002-59.629s-59.998,27.477-59.998,59.629c0,33.171,21.305,56.801,52.025,60.286,2.482,5.267,5.189,11.016,7.975,16.837,2.782-5.811,5.484-11.551,7.962-16.81,31.758-3.404,52.038-27.258,52.038-60.313Z"/><path class="e" d="M334.434,272.029c-.049-18.396-8.051-36.45-22.483-48.053-15.325-12.321-36.14-16.333-55.163-11.743-17.979,4.338-33.283,16.945-40.825,33.854-7.721,17.311-7.311,38.088.758,55.219,7.728,16.406,22.949,27.996,40.587,31.846,2.361.516,4.75.884,7.151,1.163l-1.727-.991c2.647,5.618,5.295,11.235,7.975,16.837.625,1.307,2.828,1.307,3.454,0,2.676-5.593,5.32-11.201,7.962-16.81l-1.727.991c11.916-1.307,23.32-5.489,32.662-13.11,8.882-7.246,15.146-17.29,18.428-28.224,2.037-6.786,2.933-13.903,2.948-20.979.006-2.574-3.994-2.578-4,0-.029,13.129-3.395,26.252-11.209,36.951-7.36,10.077-18.342,16.873-30.378,19.858-1.841.457-3.702.83-5.576,1.126-.956.151-1.914.261-2.875.379-1.613.198-1.981,1.53-2.594,2.83-2.354,4.996-4.712,9.989-7.096,14.971h3.454c-1.547-3.232-3.083-6.469-4.614-9.709-.669-1.416-1.337-2.832-2.004-4.248-.72-1.527-1.164-3.627-3.084-3.871-4.578-.581-9.079-1.567-13.436-3.103-8.236-2.902-15.724-7.766-21.656-14.18-12.455-13.468-17.222-33.415-14.059-51.305,3.154-17.841,14.484-33.439,30.808-41.444,17.259-8.463,39.014-7.853,55.736,1.625,15.687,8.891,26.196,25.244,28.194,43.13.259,2.322.382,4.655.388,6.991.007,2.573,4.007,2.578,4,0Z"/><path class="e" d="M294.118,279.576c6.177,0,6.187-9.6,0-9.6s-6.187,9.6,0,9.6h0Z"/><path class="e" d="M272.434,279.576c6.177,0,6.187-9.6,0-9.6s-6.187,9.6,0,9.6h0Z"/><path class="e" d="M250.75,279.576c6.177,0,6.187-9.6,0-9.6s-6.187,9.6,0,9.6h0Z"/></g></svg>