<svg id="b" xmlns="http://www.w3.org/2000/svg" width="240.742" height="412.403" viewBox="0 0 240.742 412.403" style="color: initial !important;"><defs><style>.e{fill:#3f88c9;}.f{fill:#211715;}.g{fill:#ffffff;}.h{fill:#645d5c;}</style></defs><g id="c"><g id="d"><path class="g" d="M29.013,139.146c-.757-1.553-1.703-3.067-3.266-3.734-.737-.309-1.553-.398-2.29-.707-.637-.269-1.195-.677-1.733-1.115-2.278-1.873-6.904-8.55-6.832-10.643-.262-.257-.553-.547-.95-.934-1.162-1.134-3.019-3.234-3.373-4.818-.316-1.418.166-2.987,1.224-3.983s2.653-1.383,4.049-.982c-.289-1.316.298-2.781,1.416-3.533s2.615-1.096,4.14-.302c-.229-1.406.139-2.593,1.36-3.325s2.779-1.456,4.73-.275c-.219-2.167.713-3.864,2.855-4.263,2.756-.514,5.814,2.043,5.062,5.095,2.288-1.405,5.92-2.307,8.189-.551.803.621,1.299,1.549,1.772,2.447,1.449,2.755,2.941,5.721,2.61,8.817-.254,2.374-1.553,4.487-2.415,6.713-.862,2.227-1.224,4.949.231,6.843,0,0,3.684,5.348-4.761,10.237-8.444,4.889-12.019-.987-12.019-.987Z"/><path class="h" d="M238.559,318.78c.994-4.229-1.095-7.397-4.744-10.208-3.784-2.916-9.715-3.908-14.368-4.987-1.363-.316-3.449.152-4.006,1.435-.218.501-.219,1.082-.107,1.617.591,2.839-.343,7.282-.914,10.197s-2.679,8.152-5.345,9.462c-2.325,1.142-4.586.479-5.091,3.019,2.101,5.236,2.483,10.193,1.502,15.748-.393,2.227-.974,4.436-1.031,6.696s.479,4.646,2.031,6.29c2.694,2.854,6.812,2.373,10.176.351,4.134-2.486,9.107-12.276,13.077-22.714,2.221-5.841,7.539-11.454,8.821-16.907Z"/><path class="h" d="M46.337,410.335c4.403.69,7.482-1.693,10.076-5.644,2.69-4.096,3.245-10.241,3.988-15.085.218-1.419-.423-3.517-1.779-3.987-.53-.184-1.124-.14-1.663.016-2.859.824-7.476.213-10.503-.145s-8.547-2.109-10.094-4.736c-1.348-2.29-.845-4.654-3.483-4.975-5.193,2.555-10.235,3.33-15.995,2.757-2.308-.23-4.613-.652-6.93-.536s-4.715.85-6.277,2.565c-2.711,2.977-1.9,7.153.429,10.437,2.863,4.037,13.264,8.366,24.25,11.618,6.148,1.82,12.302,6.825,17.979,7.714Z"/><path class="g" d="M38.449,372.837c-.295-.124-.585-.249-.87-.374-.209.41-.35.683-.35.683-.468,1.444-1.47,3.781-1.837,5.094l-.016.057c.244.759.489,1.613.986,2.458,1.546,2.626,7.067,4.378,10.094,4.736s7.644.969,10.503.145c.242-.07.495-.117.748-.131.018-.057.027-.092.027-.092.595-1.141,1.803-4.217,2.298-5.39,0,0,.156-.369.381-.895-6.485-1.147-15.473-3.56-21.964-6.29Z"/><path class="g" d="M210.605,303.282c1.588.882,3.144,1.82,4.659,2.812.008.183.033.366.07.544.591,2.839-.343,7.282-.914,10.197s-2.679,8.152-5.345,9.462c-.846.415-1.683.592-2.431.771-2.216-.869-4.86-1.641-7.11-2.198,3.284-6.158,6.553-13.174,8.398-19.181.319-1.038.604-2.22.861-3.383.213.114.33.175.33.175.497.262.992.53,1.483.802Z"/><path class="g" d="M122.421,296.879c2.566,1.759,5.41,3.284,7.825,4.476,15.684,7.736,54.365,24.669,67.564,26.667,3.816-6.817,7.952-15.272,10.121-22.333.694-2.259,1.23-5.202,1.657-7.148-13.135-8.273-24.708-13.341-39.675-20.593-12.407-6.011-18.778-8.407-20.963-12.148-2.016-7.607-4.855-18.067-6.931-29.111,1.987-1.972,3.42-3.751,4.014-5.334,1.704-3.111,2.741-7.556,3.177-11.628.432-4.027.33-8.258-.928-12.107-1.348-4.126-5.172-10.845-8.116-14.59-.098.274-.209.512-.334.696-.564.829-1.524,1.667-2.424,2.148-4.155,2.222-10.302,3.295-13.581,3.815-14.279,2.264-33.463,2.821-44.488,1.218.771,3.399,1.83,7.264,1.83,7.264.628,2.077,1.595,5.242,2.393,7.407l.576,1.178c-8.445,16.164-21.265,44.819-24.525,55.822-1.778,5.111-4.331,12.778-5.812,18.556-1.635,6.375-3.556,13.037-5.464,19.646-5.538,19.176-9.719,40.359-14.684,59.687,7.444,4.508,24.778,8.889,31.889,9.333,12.496-22.421,24.94-63.77,30.222-88.889.296-2.434,1.969-4.952,3.259-7.037,3.482-4.435,5.948-8.049,8.172-11.342l.503,1.046c2.515,5.225,5.954,14.444,9.683,18.953,1.316,1.555,3.098,3.019,5.039,4.35Z"/><path class="g" d="M122.11,82.039c-.292-3.254,1.034-6.621,2.799-9.771-6.741-1.415-12.758-5.833-16.173-11.793,3.148-2.675,5.13-6.737,5.143-10.88.006-2.031-.601-4.308-2.378-5.291-1.176-.651-2.665-.578-3.884-.012-1.231.572-2.207,1.596-2.938,2.737-1.377-6.249-11.093-13.311-16.162-12.294-6.888-.371-13.164-.801-17.964-1.223.1,3.092.38,5.843.38,5.843.12,4.475.295,10.53-2.956,13.607-1.414,1.338-3.521,2.615-3.234,4.54.218,1.466,1.748,2.282,2.816,3.31.915.881,1.496,1.934,1.887,3.091.291,2.648,1.391,8.572,3.263,11.67,1.59,2.631,3.495,3.882,5.431,4.469,4.118,1.247,9.789,1.377,12.938-.031,1.114,2.015,2.256,5.096,3.189,8.455,0,0,2.601,8.833,16.879,7.333,10.952-1.151,10.966-13.761,10.966-13.761Z"/><path class="h" d="M107.389,35.529c-5.21-.156-10.493-.371-15.533-.622.256.12.398.187.398.187,5.086,1.589,11.341,7.014,12.424,11.936.729-1.141,1.706-2.166,2.938-2.738,1.219-.566,2.708-.639,3.884.012,1.777.983,2.384,3.26,2.378,5.291-.013,4.143-1.995,8.204-5.143,10.88,3.415,5.96,9.433,10.379,16.173,11.793,1.123-2.007,2.426-3.928,3.602-5.677,5.861-8.716,9.63-17.185,8.444-24.815,0,0-.499-3.063-1.719-6.413-.33.145-.688.231-1.068.247-7.226.299-16.871.216-26.778-.08Z"/><path class="f" d="M47.52,128.886c-2.097-2.984.875-6.913,1.86-9.78,1.396-4.063.099-7.934-1.77-11.599-.839-1.645-1.688-3.338-3.295-4.363-1.581-1.008-3.52-1.171-5.333-.907-2.98.435-7.362,2.319-7.989,5.643-.34,1.802.378,3.93,1.985,4.92.758.466,1.688.634,2.541.825.143.032.474.166.613.137.544-.113-.226-.138-.089-.257-.014.012.334,1.565.349,1.675.148,1.071,1.517,1.656,2.46,1.397,1.154-.317,1.546-1.386,1.397-2.46-.138-.997-.348-2.048-.903-2.907-.57-.883-1.379-1.13-2.365-1.354-1.012-.23-2.641-.19-1.969-1.421.682-1.251,3.007-1.965,4.296-2.219,1.769-.348,3.069.077,3.968,1.643,1.065,1.855,2.102,3.864,2.564,5.964.428,1.942-.053,3.719-.822,5.503-1.563,3.621-3.545,7.891-.953,11.58,1.469,2.09,4.939.094,3.454-2.019h0Z"/><path class="f" d="M37.315,103.157c-.999-3.094-4.074-5.135-7.333-4.578-3.048.521-4.711,3.257-4.493,6.215l3.009-1.727c-2.154-1.175-4.367-1.093-6.482.119-1.91,1.095-2.9,3.01-2.618,5.208l3.009-1.727c-4.39-1.998-9.309,1.116-8.494,6.094l2.46-2.46c-3.317-.788-6.792.994-7.683,4.388-.861,3.279,1.244,6.069,3.401,8.301,1.874,1.939,4.361,4.919,7.24,5.011,3.624.115,6.068-3.279,5.727-6.693l-2.532,1.929c4.28,1.239,8.121-1.891,8.517-6.147l-2.532,1.929c1.992.624,4.67.551,6.345-.829,1.933-1.593,2.117-4.19.989-6.312-1.208-2.274-4.662-.255-3.454,2.019.95,1.788-1.848,1.57-2.817,1.266-1.339-.42-2.417.695-2.532,1.929-.163,1.749-1.835,2.759-3.453,2.29-1.15-.333-2.662.624-2.532,1.929.125,1.249-.448,3.294-2.09,2.517-1.399-.662-2.742-2.341-3.825-3.436-.974-.985-2.546-2.449-2.668-3.913-.132-1.582,1.356-2.67,2.834-2.318,1.591.378,2.706-.961,2.46-2.46-.226-1.38,1.578-2.05,2.618-1.576,1.193.543,3.224-.058,3.009-1.727-.111-.863-.129-1.313.637-1.754.85-.49,1.555-.604,2.444-.119,1.243.678,3.126-.149,3.009-1.727-.079-1.068.012-2.075,1.223-2.297,1.178-.217,2.39.617,2.747,1.723.788,2.44,4.651,1.396,3.857-1.063h0Z"/><path class="f" d="M14.334,113.607c2.013,2.929,4.172,5.794,6.497,8.483.687.794,2.134.757,2.828,0,.777-.846.732-1.981,0-2.828-.61-.705-1.201-1.425-1.781-2.154-.137-.172-.273-.344-.408-.517-.081-.104-.162-.207-.243-.311-.042-.053-.28-.361-.085-.109s-.042-.055-.083-.108c-.079-.103-.158-.206-.236-.309-.142-.186-.283-.373-.424-.56-.892-1.185-1.77-2.381-2.61-3.603-.591-.86-1.783-1.332-2.736-.718-.856.552-1.351,1.814-.718,2.736h0Z"/><path class="f" d="M20.109,109.903c2.226,2.721,4.62,5.302,6.846,8.023.665.813,2.147.742,2.828,0,.793-.864.71-1.961,0-2.828-2.226-2.721-4.62-5.302-6.846-8.023-.665-.813-2.147-.742-2.828,0-.793.864-.71,1.961,0,2.828h0Z"/><path class="f" d="M26.594,106.543c-.658-.503-.179-.136-.028-.007.126.108.25.219.372.331.264.242.521.492.773.747.603.608,1.182,1.24,1.742,1.887.299.345.592.696.879,1.051.125.155.246.313.371.468-.453-.558.047.065.153.209.437.593.858,1.203,1.201,1.856.487.928,1.857,1.284,2.736.718.944-.609,1.239-1.744.718-2.736-.84-1.599-2.054-3.035-3.23-4.393-1.122-1.297-2.304-2.54-3.669-3.583-.383-.293-1.101-.323-1.541-.202-.464.128-.967.486-1.195.919-.245.464-.368,1.026-.202,1.541.171.529.481.861.919,1.195h0Z"/><path class="f" d="M13.055,124.154c.42,1.565,1.279,3.042,2.131,4.406,1.021,1.633,2.165,3.204,3.409,4.673s2.72,2.847,4.579,3.495c.505.176,1.036.262,1.541.433.374.127.718.333.937.532.745.676,1.157,1.493,1.635,2.461s1.851,1.235,2.736.718c.987-.577,1.197-1.764.718-2.736-1.075-2.178-2.565-4.075-4.962-4.831-.977-.308-1.825-.471-2.639-1.13-.499-.403-.94-.884-1.364-1.363-.6-.678-.975-1.155-1.377-1.698-.538-.725-1.052-1.467-1.538-2.227-.456-.711-.891-1.438-1.281-2.187-.106-.204-.21-.411-.308-.619-.048-.101-.238-.561-.054-.101-.117-.292-.222-.586-.304-.89-.666-2.484-4.526-1.43-3.857,1.063h0Z"/><path class="e" d="M186.015,136.677c-5.995-6.379-14.621-13.021-21.786-18.157-7.804-6.081-17.704-12.093-26.884-16.681-.028-.06-.043-.093-.043-.093-1.748-2.445-3.513-4.909-5.725-6.945-.999-.919-2.455-1.595-3.368-3.002-1.616-3.018-2.597-7.257-3.732-8.074-1.699-1.223-3.374-1.194-4.962-.583-7.526,2.895-16.422,5.511-26.366,6.276-.397.031-.503.374-.551.478-.194.422-.837,3.609-1.195,6.286-1.177.036-2.011.062-2.011.062-4.861.151-8.396,4.492-11.233,8.441-8.315,11.573-15.121,20.818-25.508,31.633-1.796-1.926-4.151-5.198-4.998-7.185-4.167,1.556-19.491,9.611-20.658,10.889-.907.993-.767,1.602-.505,2.116,4.616,9.051,9.239,15.468,15.086,23.069,2.222,2.889,6.683,3.312,8.111,3.111,7.536-1.06,16.226-6.058,23.812-9.13.347,7.603,1.105,13.597,2.038,22.935.076.758.153,1.538.231,2.343.938,9.694,1.931,16.154,2.633,16.296,10.85,1.778,30.733,1.255,45.425-1.074,3.28-.52,9.426-1.593,13.581-3.815.9-.481,1.86-1.319,2.424-2.148.122-.179.23-.411.327-.677,5.798,3.672,15.963,9.033,21.994,10.918,1.333.417,2.27-.575,2.515-1.063,8.426-16.807,16.327-33.878,23.689-51.178,1.268-2.98,1.741-10.704-2.342-15.048ZM155.699,155.799c-5.448,11.491-10.158,20.862-14.762,32.366,1.005-13.635-2.98-21.374-.066-33.626,1.101-4.629,2.103-6.309,3.681-11.391,1.247.802,2.449,1.594,3.726,2.372,1.777,1.083,3.698,2.141,6.088,3.167,3.359,1.442,1.831,6.062,1.333,7.111Z"/><path class="f" d="M144.104,230.823c.149-.379-.106.218-.116.238-.099.187-.199.372-.308.554-.217.363-.455.716-.71,1.053-.591.781-1.329,1.558-2.037,2.276-1.93,1.959-4.028,3.751-6.125,5.526-5.123,4.338-10.343,8.566-15.128,13.284-3.947,3.893-7.508,8.115-10.706,12.642-3.043,4.306-5.879,8.751-9.022,12.988-1.956,2.637-3.974,5.153-5.277,8.201-1.014,2.371-1.322,5.095-1.893,7.606-1.204,5.295-2.532,10.562-3.945,15.805-3.103,11.51-6.606,22.92-10.576,34.161-4.057,11.486-8.518,22.963-14.444,33.632l1.727-.991c-5.075-.339-10.314-1.685-15.288-3.072-5.312-1.481-10.829-3.14-15.591-5.989l.919,2.259c3.325-12.969,6.157-26.058,9.298-39.072,3.19-13.218,7.201-26.193,10.615-39.349,4.646-17.908,11.592-35.055,19.259-51.853,4.165-9.125,8.448-18.238,13.293-27.026,1.244-2.256-2.21-4.276-3.454-2.019-4.28,7.765-8.101,15.791-11.825,23.834-4.044,8.733-7.947,17.546-11.482,26.498-3.252,8.237-6.061,16.733-8.499,25.242-1.83,6.385-3.452,12.829-5.288,19.214-1.851,6.437-3.632,12.885-5.249,19.385-3.648,14.661-6.773,29.447-10.525,44.082-.222.867.149,1.798.919,2.259,5.047,3.019,10.915,4.823,16.547,6.392,5.312,1.48,10.831,2.846,16.351,3.214.678.045,1.404-.41,1.727-.991,5.276-9.497,9.383-19.652,13.132-29.831,4.186-11.365,7.843-22.928,11.103-34.591,1.482-5.302,2.879-10.629,4.163-15.983.598-2.492,1.171-4.99,1.712-7.495.267-1.237.426-2.512.911-3.688.616-1.493,1.517-2.971,2.431-4.297,1.781-2.584,3.808-5.01,5.606-7.589,1.463-2.098,2.879-4.229,4.318-6.343,2.962-4.353,6.138-8.493,9.785-12.301,5.242-5.475,11.124-10.253,16.904-15.136,3.849-3.251,8.72-6.817,10.626-11.668.395-1.006-.434-2.196-1.397-2.46-1.134-.312-2.064.388-2.46,1.397h0Z"/><path class="f" d="M130.21,196.376c-8.981,2.266-18.458,2.944-27.685,3.299-4.503.173-9.014.209-13.518.038-1.956-.074-3.91-.189-5.859-.366-.877-.08-1.753-.17-2.626-.282-.348-.044-.695-.093-1.042-.146-.089-.014-.505-.114-.545-.086.181-.124.984.708.991.716-.19-.203.104.455-.015-.037-.046-.189-.115-.376-.165-.564-.16-.599-.279-1.21-.392-1.819-.317-1.71-.553-3.436-.767-5.162-.642-5.172-1.093-10.366-1.633-15.549-.929-8.914-1.956-17.924-1.473-26.898.228-4.241,1.027-8.105,2.299-12.138,1.433-4.542,2.901-9.052,4.626-13.494.391-1.007-.431-2.195-1.397-2.46-1.131-.311-2.068.386-2.46,1.397-1.619,4.171-3.028,8.399-4.366,12.667-1.168,3.724-2.108,7.268-2.488,11.171-.911,9.36.126,18.847,1.094,28.161.553,5.318,1.026,10.647,1.655,15.957.382,3.229.553,6.819,1.651,9.913.521,1.467,1.372,1.952,2.882,2.167,1.932.275,3.872.48,5.818.623,4.547.334,9.113.392,13.67.309,5.516-.101,11.031-.422,16.521-.974,5.458-.549,10.963-1.24,16.289-2.584,2.494-.629,1.437-4.488-1.063-3.857h0Z"/><path class="f" d="M142.252,143.786c-1.167,3.552-2.584,7.002-3.41,10.66-.807,3.571-1.14,7.237-1.035,10.894.211,7.377,1.604,14.602,1.186,22.013-.145,2.572,3.855,2.564,4,0,.411-7.285-.916-14.389-1.174-21.639-.128-3.589.155-7.143.982-10.641s2.189-6.814,3.309-10.222c.805-2.451-3.056-3.502-3.857-1.063h0Z"/><path class="f" d="M89.392,94.244c-7.403.39-11.552,7.5-15.44,12.873-4.347,6.007-8.782,11.95-13.562,17.622-2.939,3.488-5.998,6.872-9.153,10.165h2.828c-1.835-1.998-3.577-4.29-4.685-6.78-.328-.738-1.505-1.204-2.259-.919-4.249,1.609-8.311,3.836-12.32,5.955-2.068,1.093-4.128,2.204-6.148,3.384-1.383.808-3.028,1.629-3.845,3.077-.927,1.642-.308,3.033.488,4.559.922,1.767,1.886,3.511,2.895,5.229,1.886,3.209,3.935,6.318,6.095,9.348,1.129,1.584,2.286,3.147,3.458,4.699,1.081,1.432,2.093,3.081,3.475,4.241,2.126,1.783,5.124,2.737,7.896,2.661,3.901-.106,7.935-1.802,11.483-3.279,4.252-1.771,8.381-3.818,12.617-5.627.994-.424,1.214-1.887.718-2.736-.601-1.028-1.739-1.143-2.736-.718-6.606,2.821-13.038,6.504-20.113,8.043-2.037.443-3.981.404-5.92-.519-1.3-.619-2.07-1.593-2.927-2.715-1.111-1.456-2.212-2.92-3.293-4.399-2.019-2.765-3.961-5.586-5.771-8.492-.824-1.324-1.622-2.664-2.392-4.02-.437-.77-.866-1.546-1.286-2.325-.216-.401-.429-.802-.64-1.205-.143-.273-.285-.547-.426-.821-.228-.457-.28-.556-.158-.298-.614-.997.295,1.429.137.19-.002-.013.132-.129.136-.127.138.057-.37.252-.12.094.098-.062.189-.136.286-.199.617-.397,1.238-.783,1.871-1.154,1.756-1.03,3.546-2.003,5.342-2.961,2.38-1.27,4.779-2.508,7.199-3.7,1.033-.509,2.07-1.01,3.116-1.491.423-.194.848-.385,1.275-.571.537-.233-.359.14.141-.059.176-.07.352-.141.529-.208l-2.259-.919c1.238,2.784,3.261,5.358,5.31,7.59.72.784,2.104.756,2.828,0,5.139-5.362,9.99-10.982,14.557-16.839,2.21-2.834,4.367-5.708,6.491-8.607,2.085-2.846,4.046-5.813,6.251-8.567,2.015-2.517,4.591-5.294,8.028-5.475,2.561-.135,2.577-4.136,0-4h0Z"/><path class="f" d="M89.704,81.698c.136.273.267.548.393.826.058.128.115.256.171.385.025.056.049.112.073.169.084.196.065.152-.055-.133.062.318.269.66.386.964.114.296.225.593.333.891.499,1.381.936,2.784,1.331,4.199.281,1.007,1.43,1.73,2.46,1.397s1.698-1.381,1.397-2.46c-.787-2.819-1.73-5.629-3.035-8.256-.467-.939-1.871-1.275-2.736-.718-.961.62-1.217,1.732-.718,2.736h0Z"/><path class="f" d="M106.424,48.004c.871-1.301,2.859-2.983,4.339-1.8,1.278,1.021,1.252,3.348,1.014,4.977-.581,3.976-3.16,7.503-6.731,9.35-2.287,1.183-.267,4.636,2.019,3.454,5.249-2.715,8.812-8.463,8.813-14.39,0-2.965-1.145-6.188-4.103-7.348-3.526-1.383-6.896.886-8.805,3.739-.601.898-.175,2.215.718,2.736.982.574,2.134.183,2.736-.718h0Z"/><path class="f" d="M105.972,274.586c1.816,3.796,3.373,7.71,5.219,11.493s3.92,7.47,7.177,10.221c5.601,4.73,12.563,7.673,19.163,10.731,13.65,6.325,27.512,12.315,41.639,17.499,5.856,2.149,11.914,4.462,18.108,5.42.876.135,1.793-.086,2.259-.919,2.748-4.922,5.291-9.963,7.482-15.159,1.032-2.447,1.997-4.927,2.783-7.466.743-2.402,1.184-4.881,1.715-7.335.194-.897-.136-1.766-.919-2.259-11.977-7.524-24.798-13.427-37.519-19.551-5.688-2.738-11.535-5.259-17.075-8.292-.858-.47-1.705-.961-2.52-1.503-.756-.503-.966-.637-1.648-1.28-.254-.239-.49-.492-.722-.753-.358-.403.194.331-.092-.112-.084-.129-.201-.256-.264-.397-.531-1.18-.753-2.948-1.106-4.283-2.119-8.032-4.111-16.099-5.665-24.262-.481-2.526-4.337-1.456-3.857,1.063,1.43,7.511,3.226,14.943,5.159,22.338.406,1.555.818,3.109,1.231,4.663.302,1.139.529,2.204,1.243,3.158,1.097,1.465,2.546,2.585,4.08,3.566,4.854,3.103,10.345,5.28,15.524,7.767,6.732,3.233,13.492,6.415,20.188,9.723,7.184,3.549,14.236,7.347,21.024,11.611l-.919-2.259c-.504,2.328-.922,4.682-1.603,6.967-.745,2.501-1.682,4.952-2.694,7.356-2.12,5.034-4.618,9.913-7.279,14.68l2.259-.919c-5.222-.808-10.326-2.644-15.288-4.402-6.983-2.474-13.866-5.228-20.702-8.079-6.783-2.83-13.517-5.78-20.201-8.837-6.122-2.8-12.487-5.496-18.116-9.216-1.977-1.307-3.949-2.796-5.425-4.673-1.306-1.662-2.323-3.583-3.282-5.458-2.15-4.203-3.866-8.605-5.902-12.861-1.11-2.321-4.56-.294-3.454,2.019h0Z"/><path class="f" d="M68.931,39.355c.097,3.628.555,8.41-1.753,11.511-1.15,1.545-2.988,2.4-3.915,4.158-1.174,2.226-.24,4.515,1.543,6.062.785.681,1.619,1.271,2.161,2.179.531.889.587,1.618.746,2.645.299,1.939.71,3.869,1.261,5.752,1.242,4.241,3.469,8.272,7.763,9.996,2.356.946,5.063,1.272,7.585,1.351,2.402.075,4.974-.116,7.216-1.04.998-.411,1.708-1.328,1.397-2.46-.259-.944-1.455-1.811-2.46-1.397-3.599,1.483-8.155,1.133-11.805,0-3.631-1.127-5.12-4.848-6.032-8.206-.994-3.661-.774-7.704-3.666-10.509-.619-.601-1.635-1.113-2.083-1.858-.313-.52-.034-.809.362-1.234,1.309-1.403,2.843-2.38,3.809-4.1,2.156-3.842,1.987-8.59,1.873-12.851-.069-2.569-4.069-2.579-4,0h0Z"/><path class="g" d="M75.616,21.254c1.259-7.899,6.412-13.18,13.884-16.484,7.471-3.304,17.491-3.453,25.483-1.758,4.674.991,10.712,3.59,14.264,6.787,5.606,5.046,8.861,16.196,8.281,22.154-.179,1.838-1.514,3.58-3.36,3.656-20.736.857-61.399-1.421-70.977-2.908-1.871-.29-3.301-.6-3.648-2.346-.194-.976.955-2.336,1.722-2.778,2.949-1.7,6.5-2.778,9.556-3.056"/><path class="f" d="M77.545,21.786c.971-5.787,4.287-10.35,9.279-13.378,5.832-3.538,12.643-4.644,19.384-4.436,6.811.21,13.6,1.808,19.371,5.547,4.919,3.187,7.546,8.7,9.013,14.214.655,2.46,1.136,5.05.979,7.607-.056.912-.374,2.052-1.405,2.27-1.069.226-2.367.085-3.462.11-5.375.127-10.753.087-16.128-.014-11.584-.218-23.168-.724-34.729-1.49-4.242-.281-8.485-.589-12.715-1.029-.748-.078-1.495-.16-2.241-.252-.15-.019-.3-.038-.451-.057-.415-.052.076.011-.028-.004-.402-.058-.804-.114-1.204-.185-.481-.085-1.102-.133-1.52-.408-.266-.176-.199-.119-.015-.362.882-1.168,2.703-1.728,4.041-2.2,1.646-.581,3.364-1.02,5.104-1.196,1.075-.109,2-.841,2-2,0-.997-.919-2.109-2-2-2.034.206-4.028.604-5.963,1.269-1.796.617-3.875,1.357-5.339,2.606-1.38,1.178-2.343,2.969-1.827,4.801.474,1.683,1.889,2.707,3.51,3.15,1.754.478,3.662.597,5.467.79,2.067.221,4.138.402,6.21.57,12.216.986,24.475,1.557,36.725,1.885,6.224.166,12.453.261,18.679.173,1.354-.019,2.707-.048,4.06-.09,1.526-.048,3.048-.014,4.395-.85,2.929-1.818,3.046-5.468,2.738-8.528-.654-6.505-3.046-13.319-7.308-18.348-2.288-2.7-5.441-4.625-8.623-6.096-3.426-1.584-6.987-2.688-10.719-3.257-13.789-2.1-31.879.966-37.826,15.447-.62,1.509-1.042,3.072-1.312,4.68-.178,1.064.28,2.153,1.397,2.46.959.263,2.281-.326,2.46-1.397h0Z"/><path class="f" d="M70.675,69.27c1.488.107,3.079-.027,4.496-.512.992-.34,1.967-.814,2.725-1.555.75-.732.79-2.104,0-2.828-.806-.74-2.029-.782-2.828,0-.082.081-.17.155-.26.226l.405-.313c-.341.261-.72.465-1.113.635l.478-.202c-.667.28-1.369.453-2.084.553l.532-.071c-.779.102-1.566.123-2.349.067-.489-.035-1.077.248-1.414.586-.347.347-.608.916-.586,1.414.051,1.148.88,1.92,2,2h0Z"/><path class="f" d="M75.923,46.52c-.421,1.436-.153,4.736,2.427,5.013,3.411-.027,3.599-4.019,2.453-5.893-.938-1.535-3.701-2.169-4.88.88Z"/><path class="f" d="M208.112,304.207c1.742.92,3.449,1.904,5.118,2.952.887.557,2.243.217,2.736-.718.52-.984.23-2.142-.718-2.736-1.668-1.048-3.376-2.032-5.118-2.952-.471-.249-1.018-.346-1.541-.202-.464.128-.967.486-1.195.919-.488.924-.27,2.215.718,2.736h0Z"/><path class="f" d="M199.751,326.987c2.078.54,4.142,1.158,6.148,1.926.457.175,1.135.036,1.541-.202.415-.243.811-.718.919-1.195.117-.512.091-1.087-.202-1.541-.297-.461-.684-.723-1.195-.919-2.006-.768-4.07-1.385-6.148-1.926-1.011-.263-2.218.333-2.46,1.397-.238,1.044.314,2.179,1.397,2.46h0Z"/><path class="f" d="M240.487,319.312c1.177-5.464-1.867-9.889-6.246-12.89-2.242-1.536-4.915-2.46-7.517-3.178-2.431-.671-5.047-1.448-7.559-1.711-2.558-.268-5.544,1.067-5.849,3.877-.123,1.135.209,2.279.204,3.426-.005,1.309-.156,2.612-.365,3.902-.369,2.27-.774,4.552-1.59,6.71-.63,1.667-1.556,3.803-3.061,4.869-1.784,1.263-4.162.718-5.623,2.65-.916,1.21-1.001,2.363-.492,3.751.564,1.537,1.002,3.121,1.286,4.734.512,2.904.413,5.951-.079,8.85-.502,2.955-1.383,5.949-1.087,8.974.26,2.658,1.251,5.217,3.382,6.925,2.153,1.725,4.869,2.138,7.533,1.619,4.647-.905,7.609-4.354,10.016-8.164,3.587-5.677,5.83-11.924,8.475-18.052,2.433-5.636,7.058-10.242,8.571-16.292.625-2.498-3.232-3.563-3.857-1.063-1.314,5.25-5.279,9.474-7.655,14.249-1.335,2.682-2.26,5.564-3.452,8.312-1.157,2.668-2.399,5.305-3.796,7.857-1.975,3.606-4.243,7.787-8.316,9.033-2.046.626-4.365.478-5.762-1.344-1.536-2.004-1.322-4.869-.918-7.201.598-3.45,1.35-6.824,1.258-10.351-.091-3.444-.821-6.817-2.079-10.018v1.063c.145-.59.259-.586.874-.754.838-.229,1.679-.392,2.489-.716,1.775-.71,3.022-2.02,4.061-3.595,2.031-3.077,2.916-6.637,3.547-10.215.363-2.058.701-4.176.633-6.272-.017-.522-.073-1.04-.149-1.556-.035-.239-.224-.73-.085-.937.23-.343,1.239-.34,1.587-.299,1.869.22,3.816.834,5.64,1.296,2.033.515,4.087,1.1,5.964,2.052,3.492,1.772,7.074,5.142,6.157,9.399-.541,2.51,3.315,3.583,3.857,1.063Z"/><path class="f" d="M45.805,412.263c2.551.353,5.019.079,7.257-1.284,2.194-1.336,3.936-3.415,5.27-5.583,2.805-4.56,3.523-10.561,4.068-15.791.257-2.462-1.019-5.473-3.654-6.013-1.298-.266-2.486.261-3.757.383-1.325.128-2.674.073-4-.019-2.231-.154-4.422-.341-6.559-.898-1.99-.518-4.303-1.248-5.824-2.705-1.487-1.424-1.266-3.835-2.753-5.315-.817-.813-2.341-1.51-3.504-1.19-.693.191-1.377.642-2.044.917-.799.33-1.621.616-2.449.865-2.845.855-5.767,1.172-8.732,1.059-3.182-.122-6.363-.925-9.555-.666-2.741.223-5.579,1.139-7.435,3.276s-2.468,4.864-1.965,7.63c.896,4.928,4.607,8.011,8.765,10.282,6.077,3.32,12.714,5.351,19.275,7.453,6.085,1.949,11.21,6.503,17.595,7.596,1.063.182,2.154-.283,2.46-1.397.264-.962-.326-2.277-1.397-2.46-5.512-.944-10.203-4.618-15.29-6.737-2.936-1.223-6.061-1.977-9.066-3.016-2.815-.974-5.608-2.028-8.315-3.274-3.854-1.774-8.228-3.84-9.727-7.867-.825-2.216-.66-4.722,1.374-6.221,2.268-1.672,5.415-1.394,8.043-1.101,3.41.38,6.742.722,10.168.295,3.459-.43,6.702-1.462,9.836-2.978l-1.541.202c.62.102.692.07.926.608.4.919.605,1.908,1.036,2.823.77,1.634,2.177,2.806,3.723,3.684,3.355,1.904,7.067,2.548,10.846,2.947,2.139.226,4.316.404,6.462.172.513-.055,1.029-.122,1.535-.228.216-.045.811-.325.999-.253.506.196.578,1.26.563,1.7-.065,1.968-.542,4.043-.888,5.98-.386,2.164-.849,4.383-1.718,6.412-1.504,3.514-4.72,7.441-8.963,6.854-1.069-.148-2.148.259-2.46,1.397-.257.935.32,2.311,1.397,2.46Z"/><path class="f" d="M58.104,379.49c-.484,1.149-.941,2.31-1.426,3.459l.202-.478c-.275.65-.548,1.304-.872,1.931-.246.476-.347,1.015-.202,1.541.128.464.486.967.919,1.195.918.485,2.223.274,2.736-.718.523-1.009.939-2.078,1.374-3.126.378-.913.742-1.831,1.126-2.742.186-.443.028-1.148-.202-1.541-.243-.415-.718-.811-1.195-.919-.512-.117-1.087-.091-1.541.202l-.405.313c-.248.25-.419.544-.514.883h0Z"/><path class="f" d="M35.301,372.614c-.56,1.715-1.345,3.356-1.837,5.094-.284,1.006.349,2.222,1.397,2.46,1.063.242,2.156-.319,2.46-1.397.491-1.737,1.277-3.379,1.837-5.094.325-.995-.378-2.228-1.397-2.46-1.098-.25-2.112.331-2.46,1.397h0Z"/><path class="f" d="M79.241,208.701c.751,2.482,1.499,4.972,2.393,7.407.183.498.448.92.919,1.195.429.251,1.061.357,1.541.202.961-.311,1.783-1.409,1.397-2.46-.894-2.436-1.642-4.925-2.393-7.407-.303-1-1.414-1.735-2.46-1.397-1.01.327-1.721,1.388-1.397,2.46h0Z"/><path class="f" d="M93.224,97.789c.144-1.546.395-3.08.68-4.606.12-.643.244-1.287.394-1.924.042-.177.102-.355.132-.534.078-.464.065.025-.114.181l-.883.514c.843-.249,1.889-.195,2.759-.296,1.02-.119,2.038-.254,3.054-.405,1.785-.264,3.56-.588,5.324-.965,3.469-.741,6.892-1.694,10.259-2.811,1.509-.501,3.008-1.035,4.496-1.596,1.22-.461,2.881-1.112,3.978.02.348.359.886,1.986,1.187,2.778.601,1.581,1.209,3.164,1.992,4.665,1.19,2.284,4.643.264,3.454-2.019-.79-1.516-1.351-3.12-1.97-4.71-.498-1.278-.983-2.756-2.014-3.719-3.312-3.094-7.488-.884-11.034.335-3.738,1.285-7.544,2.373-11.41,3.2-2.115.452-4.247.836-6.392,1.115-1.083.141-2.17.255-3.258.349-1.039.089-1.993.182-2.685,1.058-.75.949-.878,2.396-1.095,3.542-.365,1.928-.671,3.875-.853,5.829-.1,1.077.991,2,2,2,1.165,0,1.9-.92,2-2h0Z"/><path class="f" d="M126.482,92.809c.724,1.078,1.624,1.856,2.662,2.62.192.141.385.279.577.42.157.116.295.342.035.021.052.065.145.117.209.171.455.386.878.817,1.29,1.248.415.434.814.882,1.202,1.34.194.229.385.461.574.695.094.117.188.234.281.352.028.035.323.414.176.225-.141-.183.18.238.173.228.091.12.181.241.271.361.18.241.358.484.536.727.372.511.74,1.025,1.108,1.539.607.849,1.771,1.34,2.736.718.842-.543,1.368-1.826.718-2.736-1.478-2.068-2.965-4.151-4.7-6.015-.817-.877-1.68-1.661-2.647-2.369-.192-.141-.386-.28-.578-.422-.196-.145-.208-.125-.004.002-.103-.064-.196-.157-.288-.235-.192-.163-.378-.334-.552-.516-.089-.093-.172-.191-.259-.287.227.252.039.05-.066-.106-.583-.867-1.789-1.328-2.736-.718-.864.557-1.342,1.808-.718,2.736h0Z"/><path class="f" d="M135.026,42.307c1.002,6.91-2.44,13.883-5.902,19.613-3.688,6.103-9.549,12.483-9.014,20.118.179,2.554,4.18,2.573,4,0-.261-3.724,1.505-7.141,3.388-10.236,2.029-3.333,4.346-6.471,6.255-9.881,3.532-6.309,6.192-13.352,5.13-20.678-.155-1.07-1.512-1.657-2.46-1.397-1.148.316-1.552,1.387-1.397,2.46h0Z"/><path class="f" d="M107.612,62.48c3.351,5.177,8.367,9.063,14.211,11.026.993.334,2.23-.384,2.46-1.397.252-1.106-.334-2.103-1.397-2.46-2.229-.749-4.747-2.078-6.687-3.589-.851-.663-1.967-1.692-2.815-2.608-1.002-1.082-1.527-1.768-2.318-2.991-.586-.906-1.774-1.28-2.736-.718-.901.527-1.307,1.826-.718,2.736h0Z"/><path class="f" d="M91.723,37.023c.31.099.618.206.921.324.137.053.464.201.146.057.158.071.315.141.472.216.65.308,1.281.655,1.895,1.03.64.392,1.259.817,1.86,1.266.497.371-.286-.238.196.154.148.12.296.24.442.363.292.245.578.497.858.756.553.511,1.082,1.05,1.58,1.615.243.276.48.558.706.847-.211-.27.065.092.122.171.104.144.206.289.305.437.366.542.699,1.108.984,1.697.025.053.239.533.134.281s.084.227.103.281c.113.315.206.635.284.96.246,1.018,1.455,1.722,2.46,1.397,1.058-.342,1.661-1.37,1.397-2.46-.759-3.14-2.915-5.898-5.246-8.053-2.454-2.269-5.356-4.174-8.556-5.196-.997-.318-2.227.373-2.46,1.397-.249,1.093.329,2.119,1.397,2.46h0Z"/><path class="g" d="M142.781,195.547c-3.378,1.865-7.383.215-10.655,2.26-1.802,1.126-3.418,2.391-4.43,3.679-2.159,2.747-3.651,9.102.067,8.873-1.038,1.253-1.689,2.6-2.459,4.653-.315.841-.482,2.304-.218,3.163.186.605.883,1.515,1.418,1.854,1.935,1.226,3.425,2.24,5.45,1.486,1.439,2.202,4.261,2.536,6.739,2.103,1.778,1.845,4.612,1.497,7.241,1.542,2.983.051,4.298-1.263,5.942-4,1.286-2.14,2.138-3.749,2.956-6.108.949-2.735,2.417-6.596,3.809-9.187,0,0,2.736-7.556-2.941-10.14-9.111-4.148-12.918-.178-12.918-.178Z"/><path class="f" d="M141.771,193.82c-1.883.991-4.05.685-6.138.903-1.302.135-2.507.389-3.705.929-1.121.505-2.136,1.28-3.105,2.029-3.083,2.382-5.285,5.929-5.33,9.927-.023,2.037.915,4.142,3.062,4.644,1.051.246,2.166-.327,2.46-1.397.278-1.012-.341-2.213-1.397-2.46-.555-.13.146.101-.137-.036.233.196.271.223.114.082-.141-.156-.116-.118.077.115-.074-.202-.095-.369-.032.01-.029-.177-.102-.372-.147-.548.133.525.003-.096,0-.244-.003-.168.002-.336.013-.504.007-.116.017-.232.03-.348-.035.236-.034.234.004-.005.036-.183.068-.366.109-.548.113-.5.261-.991.437-1.472.005-.014.232-.586.085-.238.099-.232.208-.46.323-.684.19-.371.4-.733.635-1.078.063-.092.127-.182.194-.272-.12.161-.094.136.077-.074.193-.203.376-.412.576-.609,1.636-1.613,3.683-3.045,5.91-3.242,2.736-.242,5.396-.105,7.904-1.425.956-.503,1.245-1.834.718-2.736-.566-.968-1.777-1.222-2.736-.718h0Z"/><path class="f" d="M130.952,204.973c-1.719,1.267-3.481,2.556-4.819,4.241-1.265,1.593-2.189,3.482-2.807,5.418-.786,2.461-.336,5.117,1.729,6.791,2.076,1.682,4.774,2.873,7.43,2.022l-2.259-.919c2.134,3.012,5.542,3.573,8.997,3.022l-1.946-.514c2.371,2.261,5.589,2.152,8.655,2.127,2.82-.023,4.939-1.137,6.61-3.392,3.761-5.075,4.913-11.382,7.824-16.894,1.202-2.275-2.25-4.298-3.454-2.019-1.601,3.03-2.816,6.271-3.953,9.499-.535,1.519-1.183,2.953-1.972,4.357-.694,1.236-1.396,2.679-2.471,3.639-.818.731-1.71.811-2.773.807-1.448-.005-3.033.168-4.438-.258-.745-.226-1.152-.817-1.844-1.109-.769-.324-1.676-.015-2.493-.009-1.2.01-2.549-.23-3.289-1.276-.5-.706-1.368-1.205-2.259-.919-1.376.441-3.241-.454-4.141-1.544-.834-1.01-.017-2.676.426-3.696,1.126-2.593,3.023-4.267,5.265-5.92.868-.64,1.304-1.734.718-2.736-.501-.856-1.862-1.362-2.736-.718h0Z"/><path class="e" d="M173.055,185.722c-2.735,5.756-5.531,11.484-8.387,17.181-.245.488-1.181,1.48-2.515,1.063-6.355-1.986-17.933-7.685-23.529-11.352,2.279-5.998,5.194-11.491,7.563-16.704"/><path class="f" d="M133.838,102.341c10.076,4.838,19.85,10.581,28.722,17.396,4.323,3.321,8.77,6.448,12.962,9.944,2.119,1.767,4.195,3.59,6.187,5.499,1.652,1.583,3.466,3.152,4.429,5.272,1.4,3.082,1.581,7.189.431,10.384-.967,2.687-2.261,5.299-3.404,7.916-1.233,2.822-2.481,5.637-3.743,8.446-5.014,11.162-10.256,22.223-15.719,33.172-.167.335-.599,1.54-.848,1.641-.224.09-.413-.051-.669-.135-1.032-.339-2.051-.718-3.062-1.116-2.256-.887-4.468-1.882-6.659-2.92-4.387-2.078-8.758-4.303-12.831-6.955l.919,2.259c3.674-9.629,8.283-18.827,12.847-28.055,1.151-2.328,2.295-4.659,3.416-7.001.633-1.323,1.241-2.604,1.489-4.059.281-1.65.264-3.456-.605-4.945-1.135-1.944-3.312-2.505-5.198-3.477-4.707-2.425-8.905-5.693-13.654-8.054-2.298-1.143-4.327,2.306-2.019,3.454,3.957,1.968,7.519,4.539,11.321,6.768.89.522,1.795,1.019,2.716,1.482.937.471,2.223.783,3.036,1.444.784.639.642,1.892.458,2.728-.106.484-.246.956-.416,1.421-.102.278.149-.332.05-.11-.104.233-.218.461-.328.691-.303.635-.607,1.27-.913,1.904-1.055,2.186-2.127,4.363-3.204,6.538-2.112,4.265-4.243,8.521-6.27,12.827-2.376,5.048-4.595,10.169-6.584,15.382-.323.847.225,1.807.919,2.259,3.813,2.482,7.891,4.58,11.986,6.551,2.28,1.097,4.587,2.134,6.924,3.105,1.818.755,4.022,1.941,6.016,2.054,3.161.178,4.217-2.854,5.374-5.184,1.442-2.903,2.868-5.814,4.279-8.733,2.821-5.837,5.579-11.705,8.274-17.601,2.728-5.97,5.392-11.97,7.99-17.999.934-2.169,2.084-4.324,2.482-6.673.366-2.161.4-4.319.098-6.489-.311-2.238-.995-4.495-2.258-6.391-1.461-2.193-3.559-4.016-5.481-5.795-4.326-4.006-8.965-7.67-13.687-11.195-5.251-3.921-10.504-7.833-16.056-11.324-5.709-3.589-11.62-6.86-17.699-9.779-2.31-1.109-4.341,2.339-2.019,3.454h0Z"/></g></g></svg>