<svg id="b" xmlns="http://www.w3.org/2000/svg" width="240.742" height="412.403" viewBox="0 0 240.742 412.403" style="color: initial !important;"><defs><style>.d{fill:#ffffff;}.e{fill:#211715;}.f{fill:#f4b3b3;}.g{fill:#645d5c;}</style></defs><g id="c"><path class="d" d="M70.982,42.17c0-.977-.027-1.927-.051-2.815,0,0-.064-2.388-.16-5.824,5.241.457,12.194.921,19.767,1.31l.449.514c1.056,2.5,10.333,9.667,12.852,10.111l1.792.316c.568-.616,1.229-1.139,1.986-1.491,1.219-.566,2.708-.639,3.884.012,1.777.983,2.384,3.26,2.378,5.291-.013,4.384-2.232,8.676-5.703,11.332,1.412,8.182,5.053,15.97,10.42,22.311l.02.024c-7.164,2.754-14.82,5.165-24.124,6.042-.971-3.681-2.21-7.112-3.415-9.293-3.15,1.408-8.821,1.278-12.939.031-1.936-.586-3.841-1.837-5.431-4.469-1.872-3.098-2.972-9.022-3.263-11.67-.391-1.157-.971-2.21-1.887-3.091-1.068-1.028-2.598-1.844-2.816-3.31-.286-1.925,1.821-3.202,3.234-4.54,2.606-2.467,3.011-6.846,3.007-10.792Z"/><path class="g" d="M108.3,61.618c-.043-.23-.085-.461-.125-.692,3.471-2.656,5.69-6.948,5.703-11.332.006-2.031-.601-4.308-2.378-5.291-1.176-.651-2.665-.578-3.884-.012-.757.352-1.418.875-1.985,1.491l-1.793-.316c-2.519-.444-11.796-7.611-12.852-10.111,0,0-.076-.181-.214-.502,14.879.76,32.095,1.223,43.395.757.375-.015.728-.1,1.055-.239,1.518,5.394,1.18,13.181,1.618,18.995.527,6.98,1.837,11.548,2.091,17.398.17,3.834-1.14,8.336-4.474,12.057-2.073,2.309-4.655,4.108-7.681,5.182-1.177-2.342-2.326-4.601-3.133-5.182-1.699-1.223-3.374-1.194-4.962-.583-.021.008-.043.016-.063.027-5.227-6.166-8.821-13.705-10.318-21.646Z"/><path class="d" d="M31.015,138.974c-.75-1.54-1.688-3.04-3.237-3.701-.73-.306-1.54-.395-2.27-.701-.632-.266-1.184-.671-1.717-1.105-2.053-1.688-6.03-7.313-6.681-9.878,0,0-.075-.295-.195-.773-.233-.229-.495-.49-.837-.823-1.151-1.124-2.992-3.205-3.343-4.776-.313-1.405.164-2.96,1.213-3.948s2.629-1.371,4.013-.973c-.287-1.304.295-2.756,1.403-3.501s2.592-1.086,4.103-.3c-.226-1.393.138-2.57,1.348-3.295s2.754-1.443,4.688-.272c-.217-2.148.707-3.829,2.83-4.225s4.427,1.047,4.998,3.129l.37,1.709c.19-.104.38-.199.565-.288,2.239-1.077,5.235-1.567,7.201-.047.796.616,1.288,1.535,1.756,2.426,1.436,2.731,2.915,5.67,2.587,8.738-.252,2.353-1.539,4.447-2.394,6.654s-1.213,4.905.229,6.782c0,0,3.084,4.507-4.916,9.099-9.211,5.288-11.716.069-11.716.069Z"/><path class="g" d="M238.559,318.78c.994-4.229-1.095-7.397-4.744-10.208-3.784-2.916-9.715-3.908-14.368-4.987-1.363-.316-3.449.152-4.006,1.435-.218.501-.219,1.082-.107,1.617.591,2.839-.343,7.282-.914,10.197s-2.679,8.152-5.345,9.462c-2.325,1.142-4.586.479-5.091,3.019,2.101,5.236,2.483,10.193,1.502,15.748-.393,2.227-.974,4.436-1.031,6.696s.479,4.646,2.031,6.29c2.694,2.854,6.812,2.373,10.176.351,4.134-2.486,9.107-12.276,13.077-22.714,2.221-5.841,7.539-11.454,8.821-16.907Z"/><path class="g" d="M46.337,410.335c4.403.69,7.482-1.693,10.076-5.644,2.69-4.096,3.245-10.241,3.988-15.085.218-1.419-.423-3.517-1.779-3.987-.53-.184-1.124-.14-1.663.016-2.859.824-7.476.213-10.503-.145s-8.547-2.109-10.094-4.736c-1.348-2.29-.845-4.654-3.483-4.975-5.193,2.555-10.235,3.33-15.995,2.757-2.308-.23-4.613-.652-6.93-.536s-4.715.85-6.277,2.565c-2.711,2.977-1.9,7.153.429,10.437,2.863,4.037,13.264,8.366,24.25,11.618,6.148,1.82,12.302,6.825,17.979,7.714Z"/><path class="d" d="M201.038,322.891c-.27.527-.545,1.053-.823,1.577,1.996.517,4.217,1.183,6.143,1.924l1.183.455c.495-.129,1.013-.294,1.534-.55,2.666-1.31,4.775-6.547,5.345-9.462s1.504-7.358.914-10.197c-.03-.142-.051-.288-.063-.435-.603-.365-1.031-.623-1.031-.623-1.814-1.141-3.676-2.207-5.58-3.193-.21,1.123-.433,2.25-.729,3.301-1.625,5.777-4.01,11.576-6.893,17.203Z"/><path class="d" d="M38.034,372.81c-.587,1.725-1.674,4.288-2.086,5.762,0,0-.097.272-.253.7.169.483.375.984.668,1.481,1.546,2.626,7.067,4.378,10.094,4.736,2.914.345,7.304.924,10.178.231.129-.399.211-.642.211-.642.494-1.126,1.026-2.723,1.433-3.883,0,0,.338-.957.718-2.029-6.319-1.248-14.589-4.083-20.628-7.19l-.239.547c-.03.093-.062.189-.096.288Z"/><path class="d" d="M73.348,358.606c-3.176,7.96-6.489,15.243-9.805,21.194-7.111-.444-20.445-4.826-27.889-9.333,4.965-19.328,9.146-40.511,14.684-59.687,1.909-6.609,3.83-13.271,5.464-19.646,1.481-5.778,4.035-13.444,5.812-18.556,3.168-10.691,15.362-38.049,23.798-54.421l-.132-.357c-1.037-2.815-2.539-6.852-3.085-9.741,0,0-.944-3.939-1.249-7.169,10.627,1.624,29.801,1.071,43.596-1.201,3.157-.52,7.889-1.444,11.889-3.667.679-.377,1.394-.974,1.933-1.613,8.79,9.52,8.934,27.858,3.806,36.947-.549,1.465-1.677,3.097-3.233,4.895,2.083,11.206,4.971,21.842,7.013,29.549,2.185,3.741,10.556,6.137,22.963,12.148,15.168,7.349,26.905,13.345,40.26,21.794-.414,1.918-.709,4.054-1.241,5.946-2,7.111-5.152,14.255-8.968,21.072-13.989-2.628-51.033-17.67-66.717-25.405-4.242-2.092-9.807-5.215-12.864-8.825-3.728-4.508-8.475-16.765-10.99-21.99,0,0-.425-.466-1.06-1.163-2.855,4.171-5.687,8.61-10.308,14.496-1.29,2.085-2.963,4.603-3.259,7.037-3.88,18.453-11.626,45.663-20.417,67.695Z"/><path class="e" d="M49.373,128.797c-2.074-2.951.871-6.844,1.845-9.68,1.385-4.032.098-7.873-1.756-11.51-.833-1.633-1.676-3.313-3.272-4.331-1.571-1.001-3.498-1.163-5.299-.9-2.961.432-7.307,2.304-7.93,5.605-.339,1.793.376,3.911,1.976,4.896.752.463,1.676.63,2.523.819.142.032.468.164.607.136.549-.112-.24-.141-.1-.265-.016.014.33,1.548.345,1.658.148,1.071,1.517,1.656,2.46,1.397,1.154-.317,1.546-1.386,1.397-2.46-.137-.99-.346-2.032-.897-2.886-.567-.879-1.373-1.127-2.354-1.35-.552-.125-1.51-.163-1.963-.503.358.269-.082-.142-.077-.309.012-.369-.056-.283.096-.566.665-1.237,2.982-1.945,4.25-2.194,1.745-.343,3.026.075,3.913,1.62,1.055,1.838,2.081,3.827,2.54,5.907.423,1.92-.053,3.677-.813,5.44-1.551,3.595-3.518,7.833-.944,11.495,1.469,2.09,4.939.094,3.454-2.019h0Z"/><path class="e" d="M39.261,103.3c-.993-3.077-4.05-5.104-7.29-4.549-3.028.518-4.683,3.238-4.466,6.177l3.009-1.727c-2.141-1.167-4.341-1.087-6.442.118-1.898,1.088-2.884,2.992-2.603,5.177l3.009-1.727c-4.379-1.993-9.232,1.099-8.444,6.06l2.46-2.46c-3.297-.784-6.751.988-7.636,4.361-.855,3.257,1.233,6.027,3.375,8.244,1.861,1.926,4.329,4.881,7.189,4.971,3.6.114,6.033-3.258,5.694-6.651l-2.532,1.929c4.253,1.231,8.07-1.88,8.464-6.11l-2.532,1.929c1.98.621,4.642.546,6.306-.827,1.921-1.585,2.105-4.167.983-6.278-1.208-2.274-4.662-.255-3.454,2.019.931,1.752-1.828,1.525-2.772,1.228-1.339-.42-2.417.695-2.532,1.929-.16,1.722-1.808,2.714-3.4,2.253-1.15-.333-2.662.624-2.532,1.929.122,1.223-.431,3.242-2.045,2.48-1.385-.654-2.716-2.32-3.787-3.402-.962-.972-2.518-2.421-2.639-3.865-.131-1.557,1.332-2.626,2.786-2.28,1.596.38,2.698-.962,2.46-2.46-.215-1.352,1.544-2.009,2.569-1.542,1.193.543,3.224-.058,3.009-1.727-.109-.85-.132-1.29.622-1.723.838-.482,1.528-.596,2.405-.118,1.243.678,3.126-.149,3.009-1.727-.078-1.051.007-2.041,1.199-2.26,1.158-.212,2.349.608,2.7,1.695.788,2.44,4.651,1.396,3.857-1.063h0Z"/><path class="e" d="M16.452,113.671c1.996,2.904,4.137,5.745,6.442,8.411.687.794,2.134.757,2.828,0,.777-.846.732-1.981,0-2.828-.604-.699-1.19-1.413-1.765-2.135-.135-.17-.27-.341-.405-.512-.081-.103-.161-.206-.241-.309-.042-.054-.278-.359-.083-.106s-.039-.052-.081-.106c-.078-.102-.156-.204-.234-.307-.141-.185-.281-.37-.421-.555-.884-1.174-1.754-2.36-2.586-3.571-.591-.86-1.783-1.332-2.736-.718-.856.552-1.351,1.814-.718,2.736h0Z"/><path class="e" d="M22.178,110.004c2.207,2.697,4.579,5.255,6.786,7.952.665.813,2.147.742,2.828,0,.793-.864.71-1.961,0-2.828-2.207-2.697-4.579-5.255-6.786-7.952-.665-.813-2.147-.742-2.828,0-.793.864-.71,1.961,0,2.828h0Z"/><path class="e" d="M28.609,106.676c-.659-.503-.182-.139-.031-.01.125.107.248.217.369.328.262.24.516.488.766.74.598.602,1.171,1.229,1.727,1.871.296.342.587.689.871,1.042.124.154.244.311.368.464-.454-.56.042.059.149.204.433.587.851,1.192,1.191,1.839.487.928,1.857,1.284,2.736.718.944-.609,1.239-1.744.718-2.736-.833-1.586-2.038-3.01-3.204-4.358-1.113-1.287-2.286-2.52-3.64-3.554-.383-.293-1.101-.323-1.541-.202-.464.128-.967.486-1.195.919-.245.464-.368,1.026-.202,1.541.171.529.481.861.919,1.195h0Z"/><path class="e" d="M15.182,124.12c.416,1.552,1.268,3.018,2.114,4.372,1.012,1.62,2.147,3.177,3.381,4.635,1.24,1.465,2.701,2.825,4.546,3.468.5.174,1.026.26,1.527.43.365.124.708.329.921.522.738.67,1.14,1.469,1.617,2.436s1.851,1.235,2.736.718c.987-.577,1.197-1.764.718-2.736-1.068-2.163-2.549-4.046-4.929-4.796-.966-.305-1.805-.466-2.608-1.115-.494-.4-.931-.876-1.352-1.351-.598-.676-.965-1.143-1.362-1.679-.533-.718-1.042-1.454-1.525-2.207-.452-.705-.883-1.425-1.27-2.168-.106-.203-.208-.407-.305-.614-.048-.102-.237-.559-.052-.096-.115-.29-.22-.581-.301-.882-.666-2.484-4.526-1.43-3.857,1.063h0Z"/><path class="f" d="M128.209,91.799c-1.616-3.018-3.43-7.162-4.566-7.98-1.699-1.223-3.374-1.194-4.962-.583-7.526,2.895-15.588,5.416-25.532,6.181-.397.031-.503.374-.55.478-.196.426-.848,3.661-1.202,6.355-4.863.142-8.399,4.484-11.237,8.435-8.315,11.573-15.121,20.818-25.508,31.633-1.796-1.926-4.151-5.198-4.998-7.185-4.167,1.556-19.346,9.444-20.513,10.722-.907.993-.767,1.602-.505,2.116,4.616,9.051,9.094,15.635,14.941,23.236,2.222,2.889,6.683,3.312,8.111,3.111,7.443-1.047,16.01-5.934,23.529-9.014,1.178,7.866,3.135,14.19,3.757,21.755.798,9.703-.566,18.519,1.185,19.704,10.444,1.778,30.24,1.255,44.383-1.074,3.157-.52,7.889-1.444,11.889-3.667.866-.481,1.791-1.319,2.333-2.148.061-.093.118-.2.172-.318,5.779,3.621,15.279,8.555,21.217,10.411,1.333.417,2.27-.575,2.515-1.063,8.426-16.807,16.328-33.878,23.689-51.178,1.268-2.98,1.741-10.704-2.342-15.048-2.924-3.111-6.474-6.285-10.174-9.316-3.887-3.184-7.941-6.211-11.611-8.841-7.001-5.455-15.453-10.755-23.709-15.086-2.173-2.968-4.219-6.125-6.943-8.632-.999-.919-2.455-1.595-3.368-3.002M154.209,155.688c-5.274,11.124-9.857,20.593-14.322,31.692.734-13.06-2.863-20.723-.123-32.692,1.05-4.587,2.007-6.278,3.502-11.253,1.235.746,2.449,1.482,3.729,2.207,1.757.996,3.641,1.973,5.88,2.935,3.359,1.442,1.831,6.062,1.333,7.111Z"/><path class="e" d="M140.241,230.823c-.16.411-.688,1.33-1.104,1.944-.605.893-1.298,1.719-2.014,2.523-1.867,2.096-3.907,4.036-5.959,5.95-5.003,4.667-10.216,9.128-14.992,14.033-7.543,7.747-12.857,17.079-19.365,25.637-1.908,2.509-3.879,5.225-4.735,8.312-.654,2.36-1.026,4.836-1.579,7.226-1.197,5.173-2.507,10.32-3.899,15.443-3.096,11.395-6.581,22.692-10.53,33.82-4.009,11.297-8.416,22.581-14.248,33.079l1.727-.991c-4.516-.308-9.015-1.65-13.288-3.072-4.694-1.562-9.34-3.439-13.591-5.989l.919,2.259c3.325-12.969,6.157-26.058,9.298-39.072,3.19-13.218,7.201-26.193,10.615-39.349,4.646-17.908,11.592-35.055,19.259-51.853,4.165-9.125,8.448-18.238,13.293-27.026,1.244-2.256-2.21-4.276-3.454-2.019-4.28,7.765-8.101,15.791-11.825,23.834-4.044,8.733-7.947,17.546-11.482,26.498-3.252,8.237-6.061,16.733-8.499,25.242-1.83,6.385-3.452,12.829-5.288,19.214-1.851,6.437-3.632,12.885-5.249,19.385-3.648,14.661-6.773,29.447-10.525,44.082-.223.868.149,1.797.919,2.259,4.536,2.721,9.539,4.726,14.547,6.392,4.629,1.54,9.464,2.881,14.351,3.215.678.046,1.405-.41,1.727-.991,5.213-9.385,9.283-19.413,12.998-29.469,4.111-11.126,7.71-22.444,10.93-33.858,1.506-5.339,2.925-10.703,4.233-16.093.588-2.421,1.153-4.848,1.689-7.281.251-1.142.452-2.298.711-3.436.365-1.601,1.225-3.032,2.071-4.419,1.615-2.645,3.675-5.03,5.471-7.559,1.495-2.105,2.938-4.247,4.383-6.387,2.801-4.147,5.699-8.187,9.07-11.896,5.131-5.644,10.974-10.602,16.561-15.779,3.931-3.643,8.711-7.616,10.712-12.745.393-1.007-.432-2.195-1.397-2.46-1.132-.311-2.066.387-2.46,1.397h0Z"/><path class="e" d="M141.021,143.934c-.939,2.969-2.089,5.87-2.863,8.889-.812,3.17-1.303,6.43-1.414,9.702-.199,5.861.845,11.667,1.145,17.507.163,3.177.135,6.369-.163,9.538-.093.991-.149,2.195-.576,3.099-.624,1.322-2.407,2.04-3.648,2.575-5.467,2.36-11.741,2.978-17.609,3.58-6.274.645-12.586.976-18.893.997-2.964.01-5.929-.051-8.887-.223-1.211-.071-2.42-.16-3.628-.277-.249-.024-3.489-.534-3.531-.444l.455.327c.184.254.218.286.102.097.098-.009.088.386-.018-.096-.037-.17-.167-.814-.145-.657-.172-1.23-.142-2.506-.141-3.745.003-3.154.089-6.307-.001-9.461-.21-7.315-1.607-14.435-3.224-21.548-.826-3.636-1.753-7.303-2.206-11.009-.371-3.035.153-6.162,1.153-9.028,1.233-3.533,3.442-6.712,5.17-10.018,1.966-3.762,3.752-7.613,5.323-11.557.4-1.004-.437-2.197-1.397-2.46-1.138-.313-2.059.389-2.46,1.397-1.443,3.622-3.114,7.147-4.92,10.602-1.647,3.151-3.638,6.165-4.995,9.455-1.227,2.974-1.882,6.089-1.961,9.306-.081,3.3.741,6.653,1.428,9.862,1.54,7.192,3.425,14.314,3.93,21.68.251,3.655.209,7.317.172,10.979-.024,2.351-.237,4.972.416,7.264.245.858.71,1.761,1.515,2.221,1.093.625,2.877.565,4.106.704,2.797.316,5.611.476,8.423.561,6.607.199,13.233-.016,19.822-.533,6.268-.492,12.72-1.076,18.813-2.695,3.228-.858,7.11-2.042,9.393-4.622,1.935-2.187,1.989-5.406,2.16-8.182.447-7.258-.823-14.352-1.106-21.577-.138-3.532.084-7.049.838-10.507.795-3.644,2.157-7.095,3.279-10.642.778-2.46-3.082-3.513-3.857-1.063h0Z"/><path class="e" d="M73.197,157.998c-6.549,2.797-12.917,6.425-19.917,7.999-2.109.474-4.1.484-6.115-.475-1.3-.619-2.071-1.592-2.925-2.717-1.109-1.461-2.202-2.934-3.269-4.425-1.918-2.679-3.754-5.417-5.475-8.226-.89-1.452-1.75-2.923-2.581-4.409-.433-.775-.858-1.554-1.276-2.336-.214-.402-.427-.805-.638-1.208-.143-.273-.284-.547-.425-.822-.228-.457-.28-.556-.158-.298-1.033-.021.248.691.063.292.01.022.123-.202.157-.184-.017-.009.675-.478-.147.107.089-.063.176-.131.269-.19.6-.381,1.198-.761,1.811-1.12,1.823-1.066,3.684-2.066,5.551-3.052,2.302-1.215,4.621-2.399,6.96-3.542,1.04-.508,2.083-1.008,3.136-1.489.427-.195.855-.386,1.285-.572.541-.233-.357.14.147-.06.178-.07.355-.141.534-.209l-2.259-.919c1.238,2.784,3.261,5.358,5.31,7.59.72.784,2.104.756,2.828,0,5.139-5.362,9.99-10.982,14.557-16.839,2.21-2.834,4.367-5.708,6.491-8.607,2.085-2.846,4.046-5.813,6.251-8.567,2.015-2.517,4.591-5.294,8.028-5.475,2.561-.135,2.577-4.136,0-4-7.403.39-11.552,7.5-15.44,12.873-4.347,6.007-8.782,11.95-13.562,17.622-2.939,3.488-5.998,6.872-9.153,10.165h2.828c-1.835-1.998-3.577-4.29-4.685-6.78-.328-.738-1.505-1.204-2.259-.919-4.219,1.596-8.259,3.782-12.248,5.87-2.097,1.098-4.187,2.213-6.232,3.405-1.4.816-2.962,1.622-3.754,3.109-.9,1.69-.14,3.097.66,4.631.921,1.765,1.878,3.511,2.875,5.235,1.869,3.229,3.884,6.37,6.021,9.429,1.077,1.541,2.182,3.062,3.308,4.568,1.074,1.437,2.086,3.089,3.469,4.248,2.143,1.796,5.195,2.771,7.991,2.659,3.882-.155,7.852-1.806,11.388-3.277,4.253-1.77,8.381-3.818,12.617-5.627.994-.424,1.214-1.887.718-2.736-.601-1.028-1.739-1.143-2.736-.718h0Z"/><path class="e" d="M106.665,271.549c3.244,6.776,5.674,14.093,9.829,20.397,4.314,6.544,12.204,10.007,19.083,13.21,14.015,6.526,28.416,12.364,42.978,17.551,6.484,2.309,13.097,4.692,19.877,5.981.865.165,1.805-.105,2.259-.919,2.467-4.428,4.671-8.997,6.523-13.718.896-2.285,1.703-4.606,2.396-6.961.659-2.241,1.013-4.535,1.492-6.817.189-.902-.133-1.762-.919-2.259-12.122-7.658-24.811-14.271-37.692-20.547-6.037-2.941-12.23-5.512-18.302-8.369-1.009-.475-2.013-.967-2.988-1.509-.42-.233-.835-.476-1.239-.734-.187-.119-.372-.24-.554-.366-.06-.042-.654-.493-.419-.302-.288-.234-.566-.484-.821-.753-.118-.124-.234-.252-.341-.386.292.367-.049-.056-.067-.123-.325-1.21-.668-2.622-1.007-3.908-2.155-8.157-4.186-16.348-5.764-24.638-.481-2.526-4.337-1.456-3.857,1.063,1.442,7.577,3.258,15.074,5.21,22.534.405,1.549.816,3.096,1.227,4.644.339,1.276.625,2.303,1.484,3.321,1.215,1.439,2.94,2.469,4.581,3.349,5.535,2.969,11.494,5.15,17.161,7.852,6.809,3.246,13.572,6.606,20.243,10.127,7.195,3.798,14.247,7.855,21.126,12.2l-.919-2.259c-.479,2.282-.833,4.576-1.492,6.817-.649,2.206-1.398,4.382-2.227,6.527-1.758,4.55-3.916,8.937-6.289,13.196l2.259-.919c-5.747-1.093-11.358-3.02-16.875-4.927-7.409-2.561-14.733-5.371-22.003-8.3-6.869-2.768-13.696-5.648-20.438-8.714-2.766-1.258-5.529-2.533-8.232-3.921-3.967-2.037-8.261-4.366-11.151-7.854-2.352-2.839-4.053-6.874-5.637-10.321-1.717-3.737-3.264-7.554-5.04-11.264-1.111-2.321-4.561-.294-3.454,2.019h0Z"/><path class="d" d="M157.384,205.857c-1.389,2.585-2.853,6.436-3.799,9.163-.817,2.353-1.666,3.957-2.949,6.091-1.64,2.73-2.951,4.04-5.926,3.989-2.622-.044-5.449.303-7.222-1.538-2.471.432-5.286.099-6.721-2.097-2.02.752-3.505-.259-5.435-1.482-.533-.338-1.229-1.245-1.414-1.849-.263-.856-.097-2.316.218-3.154.768-2.047,1.416-3.391,2.452-4.64-3.708.229-2.221-6.111-.067-8.85,1.01-1.285,2.621-2.546,4.419-3.67,3.264-2.04,7.258-.393,10.627-2.254,0,0,4.719-4.809,10.719-1.475s5.098,11.766,5.098,11.766Z"/><path class="e" d="M140.557,193.839c-1.877.988-4.035.683-6.119.9-1.299.135-2.502.389-3.697.927-1.118.504-2.131,1.277-3.097,2.024-3.076,2.377-5.273,5.916-5.318,9.905-.023,2.034.914,4.136,3.058,4.637,1.051.246,2.166-.327,2.46-1.397.278-1.012-.341-2.213-1.397-2.46-.555-.13.148.101-.135-.036.233.196.271.224.114.082-.141-.156-.116-.117.077.116-.077-.206-.093-.363-.032.011-.029-.177-.102-.371-.146-.546.133.526.003-.093,0-.242-.003-.168.002-.335.013-.503.007-.116.017-.232.03-.347-.035.237-.034.236.004-.003.036-.182.068-.365.109-.546.113-.498.26-.989.436-1.468.005-.015.233-.586.084-.236.098-.231.208-.459.322-.682.19-.37.399-.732.634-1.075.063-.092.127-.182.194-.271-.12.161-.095.137.076-.073.192-.202.376-.411.574-.608,1.632-1.61,3.675-3.036,5.891-3.232,2.73-.242,5.383-.105,7.886-1.422.956-.503,1.245-1.834.718-2.736-.566-.968-1.777-1.222-2.736-.718h0Z"/><path class="e" d="M129.767,204.962c-1.715,1.264-3.473,2.55-4.808,4.231-1.262,1.589-2.184,3.475-2.801,5.406-.785,2.456-.335,5.108,1.726,6.778,2.072,1.679,4.764,2.867,7.415,2.017l-2.259-.919c2.13,3.007,5.531,3.567,8.98,3.016l-1.946-.514c2.366,2.256,5.576,2.148,8.636,2.123,2.814-.023,4.93-1.135,6.597-3.385,3.751-5.062,4.9-11.352,7.804-16.849,1.202-2.275-2.25-4.298-3.454-2.019-1.597,3.023-2.809,6.255-3.943,9.475-.533,1.514-1.18,2.944-1.966,4.345-.692,1.232-1.392,2.671-2.463,3.629-.815.728-1.703.807-2.762.803-1.443-.005-3.024.168-4.425-.258-.743-.226-1.148-.815-1.839-1.106-.768-.324-1.673-.016-2.488-.009-1.194.009-2.539-.229-3.276-1.27-.5-.706-1.368-1.205-2.259-.919-1.371.439-3.227-.453-4.124-1.537-.831-1.005-.016-2.666.425-3.681,1.122-2.586,3.013-4.255,5.249-5.903.868-.64,1.304-1.734.718-2.736-.501-.856-1.862-1.362-2.736-.718h0Z"/><path class="e" d="M208.112,304.355c1.742.92,3.449,1.904,5.118,2.952.887.557,2.243.217,2.736-.718.52-.984.23-2.142-.718-2.736-1.668-1.048-3.376-2.032-5.118-2.952-.471-.249-1.018-.346-1.541-.202-.464.128-.967.486-1.195.919-.488.924-.27,2.215.718,2.736h0Z"/><path class="e" d="M199.677,326.394c2.078.54,4.142,1.158,6.148,1.926.457.175,1.135.036,1.541-.202.415-.243.811-.718.919-1.195.117-.512.091-1.087-.202-1.541-.297-.461-.684-.723-1.195-.919-2.006-.768-4.07-1.385-6.148-1.926-1.011-.263-2.218.333-2.46,1.397-.238,1.044.314,2.179,1.397,2.46h0Z"/><path class="e" d="M240.487,319.312c1.177-5.464-1.867-9.889-6.246-12.89-2.242-1.536-4.915-2.46-7.517-3.178-2.431-.671-5.047-1.448-7.559-1.711-2.558-.268-5.544,1.067-5.849,3.877-.123,1.135.209,2.279.204,3.426-.005,1.309-.156,2.612-.365,3.902-.369,2.27-.774,4.552-1.59,6.71-.63,1.667-1.556,3.803-3.061,4.869-1.784,1.263-4.162.718-5.623,2.65-.916,1.21-1.001,2.363-.492,3.751.564,1.537,1.002,3.121,1.286,4.734.512,2.904.413,5.951-.079,8.85-.502,2.955-1.383,5.949-1.087,8.974.26,2.658,1.251,5.217,3.382,6.925,2.153,1.725,4.869,2.138,7.533,1.619,4.647-.905,7.609-4.354,10.016-8.164,3.587-5.677,5.83-11.924,8.475-18.052,2.433-5.636,7.058-10.242,8.571-16.292.625-2.498-3.232-3.563-3.857-1.063-1.314,5.25-5.279,9.474-7.655,14.249-1.335,2.682-2.26,5.564-3.452,8.312-1.157,2.668-2.399,5.305-3.796,7.857-1.975,3.606-4.243,7.787-8.316,9.033-2.046.626-4.365.478-5.762-1.344-1.536-2.004-1.322-4.869-.918-7.201.598-3.45,1.35-6.824,1.258-10.351-.091-3.444-.821-6.817-2.079-10.018v1.063c.145-.59.259-.586.874-.754.838-.229,1.679-.392,2.489-.716,1.775-.71,3.022-2.02,4.061-3.595,2.031-3.077,2.916-6.637,3.547-10.215.363-2.058.701-4.176.633-6.272-.017-.522-.073-1.04-.149-1.556-.035-.239-.224-.73-.085-.937.23-.343,1.239-.34,1.587-.299,1.869.22,3.816.834,5.64,1.296,2.033.515,4.087,1.1,5.964,2.052,3.492,1.772,7.074,5.142,6.157,9.399-.541,2.51,3.315,3.583,3.857,1.063Z"/><path class="e" d="M45.805,412.263c2.551.353,5.019.079,7.257-1.284,2.194-1.336,3.936-3.415,5.27-5.583,2.805-4.56,3.523-10.561,4.068-15.791.257-2.462-1.019-5.473-3.654-6.013-1.298-.266-2.486.261-3.757.383-1.325.128-2.674.073-4-.019-2.231-.154-4.422-.341-6.559-.898-1.99-.518-4.303-1.248-5.824-2.705-1.487-1.424-1.266-3.835-2.753-5.315-.817-.813-2.341-1.51-3.504-1.19-.693.191-1.377.642-2.044.917-.799.33-1.621.616-2.449.865-2.845.855-5.767,1.172-8.732,1.059-3.182-.122-6.363-.925-9.555-.666-2.741.223-5.579,1.139-7.435,3.276s-2.468,4.864-1.965,7.63c.896,4.928,4.607,8.011,8.765,10.282,6.077,3.32,12.714,5.351,19.275,7.453,6.085,1.949,11.21,6.503,17.595,7.596,1.063.182,2.154-.283,2.46-1.397.264-.962-.326-2.277-1.397-2.46-5.512-.944-10.203-4.618-15.29-6.737-2.936-1.223-6.061-1.977-9.066-3.016-2.815-.974-5.608-2.028-8.315-3.274-3.854-1.774-8.228-3.84-9.727-7.867-.825-2.216-.66-4.722,1.374-6.221,2.268-1.672,5.415-1.394,8.043-1.101,3.41.38,6.742.722,10.168.295,3.459-.43,6.702-1.462,9.836-2.978l-1.541.202c.62.102.692.07.926.608.4.919.605,1.908,1.036,2.823.77,1.634,2.177,2.806,3.723,3.684,3.355,1.904,7.067,2.548,10.846,2.947,2.139.226,4.316.404,6.462.172.513-.055,1.029-.122,1.535-.228.216-.045.811-.325.999-.253.506.196.578,1.26.563,1.7-.065,1.968-.542,4.043-.888,5.98-.386,2.164-.849,4.383-1.718,6.412-1.504,3.514-4.72,7.441-8.963,6.854-1.069-.148-2.148.259-2.46,1.397-.257.935.32,2.311,1.397,2.46Z"/><path class="e" d="M56.35,380.663c-.431,1.23-.837,2.471-1.343,3.674l.202-.478c-.03.07-.06.14-.09.21-.146.23-.225.477-.237.744-.06.266-.048.532.036.798.128.464.486.967.919,1.195.464.245,1.026.368,1.541.202.462-.149.992-.454,1.195-.919.623-1.426,1.121-2.894,1.635-4.361.165-.47.043-1.123-.202-1.541-.243-.415-.718-.811-1.195-.919-.512-.117-1.087-.091-1.541.202s-.739.682-.919,1.195h0Z"/><path class="e" d="M36.201,371.991c-.665,2.037-1.598,3.986-2.182,6.05-.284,1.006.349,2.222,1.397,2.46,1.063.242,2.156-.319,2.46-1.397.583-2.063,1.517-4.013,2.182-6.05.325-.995-.378-2.228-1.397-2.46-1.098-.25-2.112.331-2.46,1.397h0Z"/><path class="e" d="M80.268,208.59c.643,3.341,1.912,6.559,3.085,9.741.361.979,1.372,1.749,2.46,1.397.96-.311,1.784-1.409,1.397-2.46-1.173-3.182-2.441-6.4-3.085-9.741-.198-1.029-1.488-1.711-2.46-1.397-1.098.355-1.609,1.357-1.397,2.46h0Z"/><path class="e" d="M126.482,92.809c.724,1.078,1.624,1.856,2.662,2.62.192.141.385.279.577.42.157.116.295.342.035.021.052.065.145.117.209.171.455.386.878.817,1.29,1.248.415.434.814.882,1.202,1.34.194.229.385.461.574.695.094.117.188.234.281.352.028.035.323.414.176.225-.141-.183.18.238.173.228.091.12.181.241.271.361.18.241.358.484.536.727.372.511.74,1.025,1.108,1.539.607.849,1.771,1.34,2.736.718.842-.543,1.368-1.826.718-2.736-1.478-2.068-2.965-4.151-4.7-6.015-.817-.877-1.68-1.661-2.647-2.369-.192-.141-.386-.28-.578-.422-.196-.145-.208-.125-.004.002-.103-.064-.196-.157-.288-.235-.192-.163-.378-.334-.552-.516-.089-.093-.172-.191-.259-.287.227.252.039.05-.066-.106-.583-.867-1.789-1.328-2.736-.718-.864.557-1.342,1.808-.718,2.736h0Z"/><path class="e" d="M106.424,48.004c.871-1.301,2.859-2.983,4.339-1.8,1.278,1.021,1.252,3.348,1.014,4.977-.581,3.976-3.16,7.503-6.731,9.35-2.287,1.183-.267,4.636,2.019,3.454,5.249-2.715,8.812-8.463,8.813-14.39,0-2.965-1.145-6.188-4.103-7.348-3.526-1.383-6.896.886-8.805,3.739-.601.898-.175,2.215.718,2.736.982.574,2.134.183,2.736-.718h0Z"/><path class="e" d="M68.931,39.355c.097,3.628.555,8.41-1.753,11.511-1.15,1.545-2.988,2.4-3.915,4.158-1.174,2.226-.24,4.515,1.543,6.062.785.681,1.619,1.271,2.161,2.179.531.889.587,1.618.746,2.645.299,1.939.71,3.869,1.261,5.752,1.242,4.241,3.469,8.272,7.763,9.997,2.356.946,5.063,1.272,7.585,1.351,2.402.075,4.974-.116,7.216-1.04.998-.411,1.708-1.328,1.397-2.46-.259-.944-1.455-1.811-2.46-1.397-3.599,1.483-8.155,1.133-11.805,0-3.631-1.127-5.121-4.848-6.032-8.207-.994-3.661-.774-7.704-3.665-10.508-.619-.601-1.635-1.113-2.083-1.858-.313-.52-.034-.809.362-1.234,1.309-1.403,2.843-2.38,3.809-4.1,2.156-3.842,1.987-8.59,1.873-12.851-.069-2.569-4.069-2.579-4,0h0Z"/><path class="d" d="M130.85,35.716c1.153-.028,2.261-.063,3.317-.107,1.846-.076,3.181-1.818,3.36-3.656.58-5.957-2.675-17.107-8.281-22.154-3.551-3.197-9.589-5.795-14.264-6.787-7.991-1.695-18.011-1.546-25.483,1.758-8.278,3.66-13.709,9.748-14.153,19.134-2.403.328-4.526.617-4.526.617-3.056.278-6.607,1.356-9.556,3.056-.767.442-1.916,1.802-1.722,2.778.347,1.746,1.778,2.056,3.648,2.346,9.09,1.412,46.179,3.535,67.659,3.015Z"/><path class="e" d="M77.545,21.786c.971-5.787,4.287-10.35,9.279-13.378,5.832-3.538,12.643-4.644,19.384-4.436,6.811.21,13.6,1.808,19.371,5.547,4.919,3.187,7.546,8.7,9.013,14.214.655,2.46,1.136,5.05.979,7.607-.056.912-.374,2.052-1.405,2.27-1.069.226-2.367.085-3.462.11-5.375.127-10.753.087-16.128-.014-11.584-.218-23.168-.724-34.729-1.49-4.242-.281-8.485-.589-12.715-1.029-.748-.078-1.495-.16-2.241-.252-.15-.019-.3-.038-.451-.057-.415-.052.076.011-.028-.004-.402-.058-.804-.114-1.204-.185-.481-.085-1.102-.133-1.52-.408-.266-.176-.199-.119-.015-.362.882-1.168,2.703-1.728,4.041-2.2,1.646-.581,3.364-1.02,5.104-1.196,1.075-.109,2-.841,2-2,0-.997-.919-2.109-2-2-2.034.206-4.028.604-5.963,1.269-1.796.617-3.875,1.357-5.339,2.606-1.38,1.178-2.343,2.969-1.827,4.801.474,1.683,1.889,2.707,3.51,3.15,1.754.478,3.662.597,5.467.79,2.067.221,4.138.402,6.21.57,12.216.986,24.475,1.557,36.725,1.885,6.224.166,12.453.261,18.679.173,1.354-.019,2.707-.048,4.06-.09,1.526-.048,3.048-.014,4.395-.85,2.929-1.818,3.046-5.468,2.738-8.528-.654-6.505-3.046-13.319-7.308-18.348-2.288-2.7-5.441-4.625-8.623-6.096-3.426-1.584-6.987-2.688-10.719-3.257-13.789-2.1-31.879.966-37.826,15.447-.62,1.509-1.042,3.072-1.312,4.68-.178,1.064.28,2.153,1.397,2.46.959.263,2.281-.326,2.46-1.397h0Z"/><path class="e" d="M89.26,36.364c.381.866,1.096,1.617,1.74,2.297.839.886,1.749,1.704,2.679,2.493,2.097,1.78,4.315,3.488,6.681,4.899.898.536,1.91,1.142,2.947,1.341,1.024.197,2.207-.287,2.46-1.397.225-.987-.298-2.249-1.397-2.46-.137-.026-.27-.064-.403-.108-.072-.024-.142-.053-.214-.078-.358-.123.395.191.127.053-.4-.207-.803-.399-1.194-.624-1.011-.582-1.98-1.237-2.928-1.916-.534-.382-1.061-.774-1.581-1.175.317.244-.015-.014-.14-.112-.12-.095-.241-.191-.36-.287-.257-.207-.513-.415-.767-.626-.949-.789-1.877-1.608-2.746-2.486-.378-.382-.727-.785-1.08-1.189-.203-.232.279.403.061.078-.054-.08-.112-.157-.165-.238-.101-.155-.192-.314-.266-.483-.435-.989-1.88-1.218-2.736-.718-1.02.596-1.154,1.744-.718,2.736h0Z"/><path class="e" d="M70.675,69.27c1.488.107,3.079-.027,4.496-.512.992-.34,1.967-.814,2.725-1.555.75-.732.79-2.104,0-2.828-.806-.74-2.029-.782-2.828,0-.082.081-.17.155-.26.226l.405-.313c-.341.261-.72.465-1.113.635l.478-.202c-.667.28-1.369.453-2.084.553l.532-.071c-.779.102-1.566.123-2.349.067-.489-.035-1.077.248-1.414.586-.347.347-.608.916-.586,1.414.051,1.148.88,1.92,2,2h0Z"/><path class="e" d="M75.923,46.52c-.421,1.436-.153,4.736,2.427,5.013,3.411-.027,3.599-4.019,2.453-5.893-.938-1.535-3.701-2.169-4.88.88Z"/><path class="e" d="M106.379,62.2c1.608,8.286,5.382,15.996,10.802,22.451.695.828,2.111.717,2.828,0,.82-.82.697-1.999,0-2.828-4.981-5.932-8.3-13.094-9.773-20.686-.206-1.061-1.476-1.667-2.46-1.397-1.109.305-1.603,1.396-1.397,2.46h0Z"/><path class="e" d="M133.828,38.29c.605,3.57.653,7.22.769,10.831.12,3.736.385,7.432.899,11.136.883,6.365,2.889,13.297-.434,19.283-1.923,3.463-5.098,6.165-8.813,7.532-2.396.881-1.36,4.749,1.063,3.857,7.432-2.734,13.048-9.407,13.597-17.436.243-3.556-.48-7.228-1.021-10.729-.605-3.908-1.075-7.805-1.225-11.759-.175-4.604-.204-9.223-.976-13.778-.181-1.066-1.494-1.662-2.46-1.397-1.129.31-1.578,1.391-1.397,2.46h0Z"/><path class="e" d="M89.704,81.698c.136.273.267.548.393.826.058.128.115.256.171.385.025.056.049.112.073.169.084.196.065.152-.055-.133.062.318.269.66.386.964.114.296.225.593.333.891.499,1.381.936,2.784,1.331,4.199.281,1.007,1.43,1.73,2.46,1.397s1.698-1.381,1.397-2.46c-.787-2.819-1.73-5.629-3.035-8.256-.467-.939-1.871-1.275-2.736-.718-.961.62-1.217,1.732-.718,2.736h0Z"/><path class="f" d="M168.598,190.852c-1.947,4.032-3.924,8.049-5.93,12.051-.245.488-1.181,1.48-2.515,1.063-6.355-1.986-17.139-8.167-22.735-11.833,1.437-3.781,2.903-7.285,4.403-10.652"/><path class="e" d="M132.187,102.489c10.068,4.835,19.78,10.616,28.628,17.445,4.289,3.311,8.715,6.408,12.877,9.889,2.06,1.723,4.078,3.499,6.017,5.357,1.652,1.583,3.466,3.152,4.429,5.272,1.385,3.049,1.577,7.117.464,10.288-.903,2.573-2.153,5.069-3.243,7.567-1.232,2.822-2.478,5.639-3.738,8.448-4.975,11.091-10.174,22.082-15.593,32.963-.278.558-.603,1.775-1.087,2.175-.194.16-.019.138-.256.144-.849.019-2.125-.743-2.904-1.063-2.25-.924-4.436-2.013-6.593-3.135-4.366-2.27-8.641-4.743-12.761-7.434l.919,2.259c3.626-9.505,8.115-18.611,12.599-27.731,1.137-2.314,2.269-4.63,3.381-6.956.632-1.323,1.24-2.603,1.488-4.058.281-1.65.264-3.456-.605-4.945-1.138-1.949-3.327-2.52-5.23-3.47-4.842-2.416-9.282-5.544-14.132-7.95-2.299-1.14-4.328,2.309-2.019,3.454,4.04,2.004,7.788,4.495,11.725,6.68.921.511,1.853,1.001,2.799,1.464s2.244.775,3.059,1.439c.784.639.642,1.892.458,2.728-.106.484-.246.956-.416,1.421-.102.278.149-.332.05-.11-.104.233-.218.461-.328.691-.302.634-.605,1.267-.909,1.899-1.044,2.168-2.103,4.328-3.165,6.487-2.068,4.201-4.147,8.396-6.126,12.64-2.336,5.009-4.516,10.09-6.486,15.254-.323.848.225,1.806.919,2.259,3.857,2.519,7.851,4.84,11.922,6.994,2.146,1.135,4.321,2.223,6.546,3.198,1.874.821,4.453,2.307,6.559,1.939,2.877-.503,3.781-3.712,4.912-5.995,1.403-2.832,2.791-5.672,4.164-8.519,2.781-5.767,5.501-11.563,8.159-17.387,2.692-5.898,5.32-11.825,7.884-17.78.904-2.099,2.001-4.177,2.385-6.45.366-2.161.4-4.319.098-6.489-.312-2.24-.997-4.492-2.258-6.391-1.457-2.194-3.561-4.018-5.481-5.796-4.274-3.956-8.853-7.58-13.515-11.066-5.184-3.878-10.369-7.763-15.839-11.234-5.713-3.626-11.639-6.92-17.738-9.85-2.31-1.109-4.341,2.339-2.019,3.454h0Z"/><path class="e" d="M93.224,97.789c.144-1.546.395-3.08.68-4.606.12-.643.244-1.287.394-1.924.042-.177.102-.355.132-.534.078-.464.065.025-.114.181l-.883.514c.835-.247,1.872-.193,2.734-.293,1.002-.116,2.002-.25,3-.399,1.721-.257,3.433-.573,5.133-.944,3.318-.724,6.586-1.667,9.801-2.759,1.474-.501,2.938-1.032,4.393-1.585,1.294-.491,2.8-1.058,3.988.019.63.571,1.238,1.961,1.708,2.864.775,1.49,1.504,3.003,2.291,4.486,1.208,2.274,4.662.256,3.454-2.019-.846-1.592-1.623-3.22-2.463-4.815-.64-1.215-1.316-2.588-2.353-3.519-3.371-3.029-7.384-.93-10.969.327s-7.212,2.335-10.914,3.144c-2.038.445-4.095.818-6.163,1.089-1.07.14-2.144.252-3.218.345-1.038.089-1.992.182-2.684,1.058-.75.949-.878,2.396-1.095,3.542-.365,1.928-.671,3.875-.853,5.829-.1,1.077.991,2,2,2,1.165,0,1.9-.92,2-2h0Z"/></g></svg>