<svg xmlns="http://www.w3.org/2000/svg" width="345.67" height="328.712" viewBox="0 0 345.67 328.712" style="color: initial !important;"><defs><style>.a{fill:#ffecb8;}.b{fill:#f4b467;}.c{fill:#ffda71;}.d{fill:#211715;}.e{fill:#f3736f;}</style></defs><path class="a" d="M277.337,200.087c-17.395-.395-35.253,2.991-49.406,12.988-15.211,10.744-25.06,30.259-20.7,48.365,3.417,14.2,14.624,25.3,26.881,33.242,7.5,4.859,16.074,8.946,24.952,8.525a64.963,64.963,0,0,0,26.1-5.068c13.336-5.9,26.913-13.9,33.135-27.086,5.345-11.331,4.319-24.589,1.986-36.9-1.635-8.629-4.095-17.586-10.272-23.829-7.319-7.4-18.389-9.521-28.779-10.088Q279.289,200.133,277.337,200.087Z"/><path class="b" d="M266.089,172.963c-5.351-.29-5.667,6.926-5.667,10.889,0,14.529-.111,29,2.115,44.631.28,1.962,1.405,4.439,3.811,4.592,2.671.169,3.957-2.587,4.074-4.667.815-14.445,1.127-20.4,1.185-30.519.029-4.98.074-9.235.074-14.222C271.681,179.57,270.473,173.2,266.089,172.963Z"/><path class="b" d="M267.5,326.7c5.351.29,5.667-6.926,5.667-10.889,0-14.528.111-29-2.115-44.63-.28-1.963-1.405-4.439-3.811-4.592-2.671-.17-3.957,2.587-4.074,4.667-.815,14.444-1.127,20.4-1.185,30.518-.029,4.981-.074,9.236-.074,14.222C261.9,320.1,263.111,326.466,267.5,326.7Z"/><path class="b" d="M343.662,249.13c.29-5.351-6.926-5.667-10.889-5.667-14.528,0-29-.111-44.63,2.116-1.963.279-4.44,1.4-4.592,3.81-.17,2.671,2.586,3.957,4.666,4.074,14.445.815,20.4,1.127,30.519,1.186,4.98.028,9.236.074,14.222.074C337.055,254.723,343.424,253.515,343.662,249.13Z"/><path class="b" d="M189.922,250.537c-.29,5.35,6.926,5.666,10.889,5.666,14.528,0,29,.111,44.63-2.115,1.963-.28,4.439-1.4,4.592-3.811.17-2.671-2.587-3.956-4.666-4.074-14.445-.815-20.4-1.126-30.519-1.185-4.98-.029-9.236-.074-14.222-.074C196.528,244.944,190.16,246.152,189.922,250.537Z"/><path class="c" d="M321.644,303.691c3.989-3.578-.89-8.9-3.692-11.706-10.273-10.273-20.428-20.585-33.054-30.063-1.586-1.19-4.132-2.146-5.942-.552-2.009,1.768-.969,4.626.419,6.18,9.638,10.79,13.626,15.219,20.742,22.418,3.5,3.542,6.478,6.583,10,10.109C313.018,302.974,318.376,306.624,321.644,303.691Z"/><path class="c" d="M211.939,195.975c-3.988,3.579.891,8.905,3.693,11.707,10.273,10.273,20.428,20.585,33.054,30.063,1.586,1.19,4.132,2.145,5.942.552,2.008-1.769.968-4.627-.419-6.181-9.638-10.79-13.626-15.219-20.742-22.418-3.5-3.542-6.478-6.583-10-10.109C220.565,196.692,215.208,193.043,211.939,195.975Z"/><path class="c" d="M212.934,304.686c3.579,3.988,8.9-.891,11.707-3.693,10.273-10.273,20.584-20.427,30.062-33.054,1.19-1.586,2.146-4.132.553-5.942-1.769-2.008-4.627-.968-6.181.419-10.79,9.638-15.219,13.626-22.418,20.742-3.542,3.5-6.583,6.479-10.109,10C213.651,296.06,210,301.417,212.934,304.686Z"/><path class="c" d="M320.65,194.981c-3.579-3.989-8.9.89-11.707,3.692-10.273,10.273-20.584,20.428-30.062,33.055-1.191,1.585-2.146,4.132-.553,5.941,1.769,2.009,4.627.969,6.181-.419,10.79-9.638,15.219-13.626,22.418-20.742,3.542-3.5,6.583-6.478,10.109-10C319.933,203.607,323.582,198.249,320.65,194.981Z"/><path class="d" d="M267.192,242.431a6.157,6.157,0,0,0-6.433,4.16,6.58,6.58,0,0,0,1.612,6.7,6.353,6.353,0,0,0,6.758,1.337,6.252,6.252,0,0,0,3.039-2.459,6.463,6.463,0,0,0-.965-7.956,6.861,6.861,0,0,0-4.011-1.78,1.989,1.989,0,0,0-1.414.586,2,2,0,0,0,0,2.828,2.343,2.343,0,0,0,1.414.586c-.666-.085.036.027.181.067.129.035.331.164.458.153-.25.021-.36-.164-.092-.028.072.036.143.075.213.115.087.05.17.108.257.159.322.188-.312-.294-.016-.02.119.111.242.217.355.336.083.089.178.331.084.079-.105-.28.014.026.063.1.093.143.167.294.251.441.213.374-.1-.335-.021-.053.04.138.092.272.128.412.017.069.105.293.075.352,0,0-.03-.513-.02-.1,0,.192.016.383.006.576,0,.073-.109.457-.01.163.107-.317-.034.114-.045.158-.023.093-.049.186-.077.277-.022.069-.045.137-.071.2q-.078.208.064-.146a3.477,3.477,0,0,0-.3.529c-.212.322-.039-.063.053-.054a2.28,2.28,0,0,0-.164.184c-.065.069-.339.252-.355.332.031-.154.353-.253.065-.062-.1.066-.2.128-.31.186-.058.032-.239.085-.27.135.019-.031.466-.17.14-.065-.175.057-.348.114-.527.156-.066.015-.259.02-.3.061.023-.021.518-.048.162-.023-.209.015-.418.027-.628.022-.081,0-.444-.077-.11.008.311.079.047,0-.036-.014-.177-.037-.346-.09-.518-.143-.314-.1.119.041.149.071a1.322,1.322,0,0,0-.261-.129c-.085-.045-.169-.094-.251-.145-.17-.107-.271-.323.028.045a4.393,4.393,0,0,0-.345-.3q-.1-.1-.2-.21c-.164-.184-.052-.229.058.092a2.616,2.616,0,0,0-.256-.387c-.04-.066-.077-.134-.113-.2s-.071-.139-.1-.209l.109.263a4.271,4.271,0,0,0-.186-.56,2.811,2.811,0,0,0-.1-.466c.162.341.041.36.025.107-.007-.11-.011-.221-.009-.332,0-.089.008-.177.011-.266.018-.446-.11.438,0,0,.055-.216.109-.428.178-.641.121-.371-.041.119-.05.11a1.844,1.844,0,0,1,.186-.351c.056-.095.122-.183.18-.276q.129-.182-.111.143c.042-.051.086-.1.132-.148.075-.08.159-.152.236-.231.26-.266-.326.182.04-.031a3.03,3.03,0,0,0,.607-.341c-.153.168-.316.115-.1.048.13-.041.257-.084.39-.116.087-.022.176-.037.263-.057.419-.1-.4,0,0,.006.27,0,.529-.006.8.021a2.007,2.007,0,0,0,2-2A2.054,2.054,0,0,0,267.192,242.431Z"/><path class="d" d="M332.227,178.419a6.161,6.161,0,0,0-6.433,4.16,6.579,6.579,0,0,0,1.612,6.7,6.353,6.353,0,0,0,6.758,1.337,6.254,6.254,0,0,0,3.04-2.458,6.463,6.463,0,0,0-.966-7.957,6.871,6.871,0,0,0-4.011-1.78,2,2,0,0,0-1.414.586,2,2,0,0,0,0,2.829,2.35,2.35,0,0,0,1.414.585c-.666-.084.036.027.181.067.129.036.331.164.458.153-.249.022-.36-.163-.092-.028.072.037.143.075.213.115.088.051.17.109.258.16.321.187-.312-.294-.017-.021.12.111.243.217.355.336.084.089.178.331.084.08-.1-.28.015.025.063.1.093.142.168.293.252.441.212.373-.1-.336-.021-.054.039.139.091.273.127.413.017.068.1.292.075.351,0,0-.03-.513-.02-.1.005.192.016.382.006.575,0,.074-.108.457-.009.163.106-.317-.035.115-.046.158-.022.093-.048.186-.077.277-.021.069-.045.137-.07.2-.053.139-.032.091.064-.146a3.361,3.361,0,0,0-.3.53c-.212.321-.039-.064.053-.054a2.1,2.1,0,0,0-.163.184c-.066.069-.34.252-.356.331.031-.154.353-.252.065-.062-.1.067-.2.129-.31.186-.058.032-.239.085-.27.135.019-.031.466-.17.141-.064-.175.057-.348.113-.528.155-.066.015-.258.02-.3.061.022-.021.517-.048.162-.023-.21.015-.418.027-.629.022-.08,0-.444-.076-.11.008.311.079.047,0-.035-.014-.177-.036-.347-.09-.519-.143-.314-.1.12.042.15.072a1.253,1.253,0,0,0-.262-.129c-.085-.046-.169-.094-.251-.146-.17-.107-.271-.323.028.046a4.23,4.23,0,0,0-.345-.306c-.068-.068-.134-.137-.2-.209-.164-.185-.052-.23.058.091a2.607,2.607,0,0,0-.256-.386c-.039-.067-.077-.135-.113-.2s-.071-.138-.1-.209l.109.263a4.458,4.458,0,0,0-.185-.559,2.906,2.906,0,0,0-.1-.467c.162.341.04.36.024.107-.007-.11-.01-.221-.009-.332,0-.088.008-.177.012-.265.017-.447-.11.437,0,0,.055-.216.108-.428.177-.64.122-.371-.041.118-.049.11a1.75,1.75,0,0,1,.185-.351c.056-.095.122-.184.18-.277q.13-.182-.111.143c.042-.05.086-.1.132-.147.076-.081.159-.153.236-.232.261-.266-.326.183.04-.031a2.91,2.91,0,0,0,.607-.341c-.152.169-.316.116-.1.048.131-.04.258-.083.39-.116.088-.022.176-.036.264-.057.418-.1-.4,0,0,.007.27,0,.53-.006.8.02a2,2,0,0,0,2-2A2.054,2.054,0,0,0,332.227,178.419Z"/><path class="d" d="M200.966,179.741a6.157,6.157,0,0,0-6.433,4.16,6.58,6.58,0,0,0,1.612,6.7,6.353,6.353,0,0,0,6.758,1.337,6.25,6.25,0,0,0,3.04-2.459,6.462,6.462,0,0,0-.966-7.956,6.859,6.859,0,0,0-4.011-1.78,1.989,1.989,0,0,0-1.414.586,2,2,0,0,0,0,2.828,2.345,2.345,0,0,0,1.414.586c-.666-.085.036.027.181.067.129.036.331.164.458.153-.249.021-.36-.164-.092-.028.072.036.143.075.213.115.088.05.17.108.257.159.322.188-.311-.294-.016-.02.12.111.243.217.355.336.084.089.178.331.084.079-.105-.279.015.026.063.1.093.143.168.294.252.441.212.374-.1-.335-.021-.053.039.138.091.272.127.412.017.069.1.293.075.352,0,0-.03-.513-.02-.1,0,.193.016.383.006.576,0,.073-.108.457-.009.163.106-.317-.035.114-.046.158-.023.093-.048.186-.077.277-.021.069-.045.137-.07.2q-.079.209.063-.146a3.477,3.477,0,0,0-.295.529c-.212.322-.039-.063.053-.054a2.253,2.253,0,0,0-.163.184c-.066.069-.34.252-.356.332.031-.154.353-.253.065-.062-.1.067-.2.128-.31.186-.058.032-.239.085-.27.135.019-.031.466-.17.141-.065-.175.057-.348.114-.528.156-.066.015-.258.02-.3.061.022-.021.517-.048.162-.023-.21.015-.418.027-.629.022-.08,0-.444-.077-.11.008.311.079.047,0-.035-.014-.177-.037-.347-.09-.519-.143-.314-.1.12.041.15.071a1.3,1.3,0,0,0-.262-.129c-.085-.045-.169-.094-.251-.145-.17-.107-.271-.323.028.045a4.416,4.416,0,0,0-.345-.305q-.1-.1-.2-.21c-.164-.184-.052-.229.058.092a2.616,2.616,0,0,0-.256-.387c-.039-.066-.077-.134-.113-.2s-.071-.139-.1-.209l.109.263a4.271,4.271,0,0,0-.186-.56,2.916,2.916,0,0,0-.1-.466c.161.341.04.36.024.107-.007-.11-.01-.221-.009-.332,0-.089.008-.177.012-.266.017-.446-.111.438,0,0,.055-.216.108-.428.177-.641.121-.371-.041.119-.049.11a1.805,1.805,0,0,1,.185-.351c.056-.1.122-.183.18-.276q.131-.182-.111.143c.042-.051.086-.1.132-.148.076-.08.159-.152.236-.231.261-.266-.326.182.04-.031a2.982,2.982,0,0,0,.607-.341c-.152.168-.316.116-.1.048.13-.041.258-.084.39-.116.088-.022.176-.036.264-.057.418-.1-.4,0,0,.006.27,0,.53-.006.8.021a2.007,2.007,0,0,0,2-2A2.054,2.054,0,0,0,200.966,179.741Z"/><path class="d" d="M336.118,308.4a6.157,6.157,0,0,0-6.433,4.16,6.58,6.58,0,0,0,1.612,6.7,6.355,6.355,0,0,0,6.758,1.337,6.259,6.259,0,0,0,3.04-2.459,6.465,6.465,0,0,0-.966-7.956,6.861,6.861,0,0,0-4.011-1.78,1.985,1.985,0,0,0-1.414.586,2,2,0,0,0,0,2.828,2.351,2.351,0,0,0,1.414.586c-.666-.085.036.027.181.067.129.035.331.164.458.153-.25.021-.36-.164-.092-.028.072.036.143.074.213.115.087.05.17.108.257.159.322.188-.312-.294-.016-.02.119.111.242.217.355.336.084.089.178.33.084.079-.105-.28.014.026.063.1.093.143.167.294.251.441.213.374-.1-.336-.021-.053.04.138.092.272.128.412.017.069.105.293.075.351,0,0-.03-.513-.02-.1,0,.192.016.383.006.575,0,.074-.109.458-.01.164.107-.317-.034.114-.045.158-.023.093-.049.185-.077.277-.022.068-.045.136-.071.2q-.078.209.064-.146a3.383,3.383,0,0,0-.3.529c-.212.321-.039-.063.053-.054a2.28,2.28,0,0,0-.164.184c-.065.069-.339.252-.355.332.031-.154.353-.253.065-.062-.1.066-.2.128-.31.186-.058.031-.239.085-.27.135.019-.031.466-.171.14-.065-.175.057-.347.114-.527.156-.066.015-.259.019-.3.061.022-.022.517-.049.161-.023-.209.015-.417.027-.628.022-.08,0-.444-.077-.11.008.311.078.047,0-.035-.014-.178-.037-.347-.09-.519-.143-.314-.1.119.041.149.071a1.269,1.269,0,0,0-.261-.129c-.085-.046-.169-.094-.251-.146-.17-.106-.271-.322.028.046a4.427,4.427,0,0,0-.345-.306c-.068-.067-.134-.137-.2-.209-.164-.185-.052-.229.058.091a2.661,2.661,0,0,0-.256-.386c-.039-.067-.077-.135-.113-.2s-.071-.139-.1-.21l.109.263a4.308,4.308,0,0,0-.186-.559,2.811,2.811,0,0,0-.1-.466c.162.341.041.36.025.107-.007-.111-.011-.221-.009-.332,0-.089.008-.177.012-.266.017-.447-.111.438,0,0,.054-.216.108-.428.177-.64.121-.371-.041.119-.05.11a1.844,1.844,0,0,1,.186-.351c.056-.095.122-.183.18-.277.087-.12.049-.073-.111.144.042-.051.086-.1.132-.148.075-.081.159-.152.236-.231.26-.267-.326.182.04-.031a2.985,2.985,0,0,0,.607-.342c-.153.169-.316.116-.1.048.13-.04.257-.083.39-.116.087-.021.176-.036.263-.056.419-.1-.4,0,0,.006.27,0,.529-.006.8.021a2.007,2.007,0,0,0,2-2A2.054,2.054,0,0,0,336.118,308.4Z"/><path class="d" d="M266.089,170.963c-4.062-.117-6.388,3.1-7.147,6.756-.878,4.232-.526,8.729-.519,13.016a283.645,283.645,0,0,0,1.72,34.8c.3,2.4.4,5.018,1.865,7.056a5.55,5.55,0,0,0,5.951,2.308c5.1-1.387,4.548-7.956,4.772-12.017.453-8.212.82-16.42.874-24.645q.031-4.887.063-9.773a57.276,57.276,0,0,0-.241-8.171c-.586-4.231-2.515-8.92-7.338-9.33-2.565-.217-2.551,3.784,0,4s3.268,4.461,3.478,6.456a56.581,56.581,0,0,1,.106,6.109q-.017,3.725-.047,7.448c-.05,7.3-.206,14.588-.574,21.881q-.158,3.12-.333,6.239-.1,1.806-.2,3.61a9.948,9.948,0,0,1-.335,2.8c-.348.984-1.207,2.042-2.332,1.375-1.4-.828-1.436-3.242-1.614-4.613a254.27,254.27,0,0,1-1.792-30.706c-.038-4.793-.266-9.662.056-14.447a13.116,13.116,0,0,1,.853-4.26,2.576,2.576,0,0,1,2.735-1.893C268.664,175.038,268.661,171.038,266.089,170.963Z"/><path class="d" d="M267.5,328.7c4.062.118,6.388-3.1,7.147-6.756.878-4.231.526-8.729.519-13.015a283.823,283.823,0,0,0-1.72-34.8c-.3-2.4-.4-5.019-1.865-7.057a5.549,5.549,0,0,0-5.951-2.307c-5.1,1.386-4.548,7.956-4.772,12.016-.453,8.212-.821,16.42-.874,24.646q-.031,4.886-.064,9.773a57.428,57.428,0,0,0,.242,8.171c.586,4.23,2.515,8.919,7.338,9.329,2.565.218,2.55-3.783,0-4s-3.268-4.46-3.478-6.455a56.581,56.581,0,0,1-.106-6.109c.01-2.483.03-4.966.047-7.449.05-7.3.206-14.587.574-21.88q.158-3.12.333-6.24.1-1.8.2-3.609a9.939,9.939,0,0,1,.335-2.8c.348-.984,1.207-2.042,2.332-1.375,1.4.828,1.436,3.241,1.614,4.612a254.093,254.093,0,0,1,1.791,30.707c.039,4.792.267,9.661-.055,14.446a13.127,13.127,0,0,1-.853,4.261A2.575,2.575,0,0,1,267.5,324.7C264.92,324.629,264.922,328.629,267.5,328.7Z"/><path class="d" d="M345.662,249.13c.117-4.061-3.1-6.388-6.756-7.147-4.232-.877-8.729-.526-13.015-.518a283.624,283.624,0,0,0-34.8,1.719c-2.4.3-5.019.4-7.057,1.865A5.549,5.549,0,0,0,281.727,251c1.386,5.1,7.955,4.549,12.016,4.772,8.212.453,16.42.821,24.645.874q4.887.033,9.773.064a57.442,57.442,0,0,0,8.172-.242c4.23-.585,8.919-2.515,9.329-7.338.218-2.565-3.784-2.55-4,0s-4.461,3.268-6.456,3.478a56.325,56.325,0,0,1-6.109.106c-2.483-.01-4.965-.03-7.448-.047-7.3-.05-14.588-.206-21.88-.574q-3.122-.157-6.24-.332l-3.61-.2a9.937,9.937,0,0,1-2.8-.335c-.984-.347-2.043-1.207-1.375-2.332.827-1.4,3.241-1.436,4.612-1.614a254.081,254.081,0,0,1,30.707-1.791c4.792-.039,9.661-.267,14.446.056a13.088,13.088,0,0,1,4.26.852,2.576,2.576,0,0,1,1.893,2.735C341.587,251.705,345.587,251.7,345.662,249.13Z"/><path class="d" d="M187.922,250.537c-.117,4.061,3.1,6.388,6.756,7.146,4.232.878,8.729.527,13.015.519a283.625,283.625,0,0,0,34.8-1.72c2.4-.3,5.019-.4,7.057-1.865a5.549,5.549,0,0,0,2.307-5.951c-1.386-5.1-7.955-4.548-12.016-4.772-8.212-.453-16.42-.82-24.646-.874q-4.886-.032-9.773-.063a57.428,57.428,0,0,0-8.171.241c-4.23.586-8.919,2.515-9.329,7.339-.218,2.564,3.783,2.55,4,0s4.461-3.269,6.456-3.478a56.326,56.326,0,0,1,6.109-.107q3.723.017,7.448.047c7.3.051,14.588.207,21.88.574q3.121.157,6.24.333,1.8.1,3.609.2a9.939,9.939,0,0,1,2.8.335c.984.348,2.042,1.207,1.375,2.333-.828,1.4-3.241,1.436-4.612,1.614a254.285,254.285,0,0,1-30.707,1.791c-4.792.038-9.661.266-14.446-.056a13.089,13.089,0,0,1-4.26-.853,2.574,2.574,0,0,1-1.893-2.734C192,247.962,188,247.964,187.922,250.537Z"/><path class="d" d="M323.059,305.105c3.4-3.247,1.978-7.667-.531-10.961-2.833-3.72-6.463-6.892-9.775-10.174a271.114,271.114,0,0,0-23.772-21.419c-1.9-1.485-3.836-3.318-6.271-3.845a5.617,5.617,0,0,0-6.069,2.329c-2.912,4.58,2.276,9,5.008,12.055,5.221,5.83,10.488,11.613,15.974,17.2q3.03,3.086,6.073,6.157c2.046,2.073,4.027,4.284,6.237,6.184,3.565,3.066,8.885,6.009,13.126,2.478,1.98-1.648-.863-4.465-2.829-2.828-1.075.9-2.662.425-3.8-.08A16.24,16.24,0,0,1,312,299.114c-3.424-3.223-6.644-6.688-9.948-10.033q-6.932-7.017-13.54-14.332-2.023-2.238-4.034-4.487c-1.343-1.5-3.09-3-4.112-4.735-.607-1.03-.928-2.838.739-3,1.718-.165,3.452,1.613,4.67,2.557a245.218,245.218,0,0,1,20.967,18.58c3.5,3.412,6.994,6.834,10.394,10.34,1.786,1.841,5.737,5.748,3.094,8.271C318.365,304.058,321.2,306.884,323.059,305.105Z"/><path class="d" d="M210.525,194.561c-3.4,3.247-1.978,7.667.531,10.961,2.833,3.72,6.463,6.892,9.775,10.175A271.262,271.262,0,0,0,244.6,237.115c1.9,1.485,3.836,3.319,6.271,3.846a5.617,5.617,0,0,0,6.068-2.33c2.912-4.58-2.275-9-5.008-12.055-5.22-5.83-10.487-11.613-15.973-17.2q-3.03-3.084-6.073-6.156c-2.046-2.074-4.027-4.284-6.237-6.185-3.565-3.065-8.885-6.009-13.126-2.478-1.98,1.649.863,4.465,2.829,2.829,1.074-.895,2.662-.426,3.8.08a16.218,16.218,0,0,1,4.429,3.083c3.424,3.222,6.644,6.687,9.948,10.032q6.931,7.018,13.54,14.332,2.023,2.238,4.034,4.488c1.342,1.5,3.09,3,4.112,4.734.607,1.03.928,2.839-.739,3-1.718.165-3.452-1.612-4.671-2.557A245.193,245.193,0,0,1,226.842,216c-3.5-3.412-6.994-6.834-10.394-10.34-1.786-1.842-5.737-5.748-3.094-8.271C215.219,195.608,212.388,192.783,210.525,194.561Z"/><path class="d" d="M211.52,306.1c3.247,3.4,7.667,1.978,10.961-.531,3.72-2.833,6.892-6.463,10.175-9.775a271.262,271.262,0,0,0,21.418-23.772c1.485-1.9,3.318-3.836,3.845-6.271a5.615,5.615,0,0,0-2.329-6.068c-4.58-2.912-9,2.275-12.055,5.008-5.83,5.221-11.613,10.487-17.2,15.973q-3.084,3.03-6.157,6.073c-2.073,2.047-4.283,4.027-6.184,6.237-3.065,3.566-6.009,8.886-2.478,13.126,1.649,1.98,4.465-.863,2.828-2.828-.9-1.075-.425-2.663.081-3.8a16.212,16.212,0,0,1,3.083-4.429c3.222-3.424,6.687-6.643,10.032-9.948q7.017-6.93,14.332-13.54,2.238-2.022,4.488-4.034c1.5-1.342,3-3.09,4.734-4.112,1.03-.607,2.838-.928,3,.739.165,1.718-1.613,3.452-2.557,4.671a245.37,245.37,0,0,1-18.58,20.967c-3.412,3.494-6.833,6.993-10.34,10.394-1.841,1.785-5.747,5.737-8.271,3.094C212.567,301.406,209.741,304.237,211.52,306.1Z"/><path class="d" d="M322.064,193.567c-3.247-3.4-7.667-1.979-10.961.53-3.72,2.833-6.892,6.463-10.175,9.775a271.131,271.131,0,0,0-21.418,23.773c-1.485,1.9-3.319,3.835-3.845,6.27a5.617,5.617,0,0,0,2.329,6.069c4.58,2.912,9-2.276,12.055-5.008,5.83-5.221,11.613-10.488,17.2-15.973q3.084-3.031,6.157-6.073c2.073-2.047,4.283-4.027,6.184-6.238,3.065-3.565,6.009-8.885,2.478-13.125-1.649-1.981-4.465.862-2.828,2.828.895,1.075.425,2.662-.081,3.8a16.181,16.181,0,0,1-3.083,4.429c-3.222,3.425-6.687,6.644-10.032,9.948q-7.017,6.931-14.332,13.54-2.238,2.023-4.488,4.034c-1.5,1.343-3,3.09-4.734,4.113-1.03.606-2.839.928-3-.74-.165-1.718,1.613-3.451,2.557-4.67a245.37,245.37,0,0,1,18.58-20.967c3.412-3.5,6.833-6.994,10.34-10.394,1.841-1.786,5.747-5.737,8.271-3.094C321.017,198.261,323.843,195.429,322.064,193.567Z"/><path class="d" d="M33.875,211.727c0-2.431-.009-6.988-.009-10.954a2.222,2.222,0,0,1,2.088-2.2c8.579,0,26.918.03,35.023.055a2.291,2.291,0,0,1,2.35,1.966c0,3.6.095,8.744.095,10.96"/><path class="e" d="M53.524,297.476c7.679.04,15.437.073,19.986.092,5.926-1.393,14.668-5.056,19.82-12.624,5.919-8.695,7.951-17.679,7.7-30.519-.258-13.44-3.382-25.243-9.333-32.3-4-4.741-10.667-10.387-18.149-10.387-4.6.021-12.37.055-20.028.1-7.658-.041-15.427-.075-20.027-.1-7.483,0-14.149,5.646-18.149,10.387-5.951,7.053-9.075,18.856-9.334,32.3-.246,12.84,1.785,21.824,7.7,30.519,5.153,7.568,13.894,11.231,19.821,12.624C38.088,297.549,45.845,297.516,53.524,297.476Z"/><path class="d" d="M53.524,299.476q8.876.047,17.751.082a13.95,13.95,0,0,0,3.152-.155c.972-.218,1.933-.518,2.878-.831a42.246,42.246,0,0,0,6.188-2.605,31.694,31.694,0,0,0,11.228-9.533,42.923,42.923,0,0,0,6.19-12.772,58.229,58.229,0,0,0,2.123-15.284,87.212,87.212,0,0,0-1.272-17.2,52,52,0,0,0-4.594-14.318,34.611,34.611,0,0,0-8.582-10.705c-4.035-3.415-8.868-6.116-14.25-6.4-5.281-.275-10.652.025-15.94.051-6.273.031-12.546-.014-18.819-.043-2.4-.011-4.859-.172-7.255.018a21.064,21.064,0,0,0-7.68,2.2C15.924,216.285,10,224.628,7.112,233.7a69.46,69.46,0,0,0-2.9,16.258,80.9,80.9,0,0,0,.483,16.933c1.336,9.391,5.489,19.214,13.044,25.265a38.494,38.494,0,0,0,12.292,6.506q1.22.394,2.463.706a13.829,13.829,0,0,0,3.457.187l8.212-.036,9.363-.046c2.574-.013,2.579-4.013,0-4q-8.43.043-16.86.079a24.476,24.476,0,0,1-2.84.017,13.987,13.987,0,0,1-2.447-.673,35.911,35.911,0,0,1-5.5-2.228,27.658,27.658,0,0,1-10.213-8.415,39.878,39.878,0,0,1-5.773-12,54.471,54.471,0,0,1-1.88-13.881,81.757,81.757,0,0,1,1.128-16.132,48.537,48.537,0,0,1,4.192-13.363A31.628,31.628,0,0,1,21,219.233c3.524-3.05,7.878-5.477,12.643-5.491,5.163-.014,10.327.048,15.49.073,5.833.03,11.666-.014,17.5-.041,4.709-.022,9.4-.481,13.752,1.666,7.94,3.915,13.235,11.4,15.8,19.688A65.711,65.711,0,0,1,98.868,250.4,77.7,77.7,0,0,1,98.5,265.83c-1.2,8.742-4.929,17.909-12.016,23.5A33.907,33.907,0,0,1,75.672,294.9a14.192,14.192,0,0,1-2.438.679,25.8,25.8,0,0,1-3.032-.024l-7.774-.035q-4.452-.02-8.9-.043C50.95,295.463,50.947,299.463,53.524,299.476Z"/><path class="d" d="M35.875,211.727q0-3.193-.006-6.387l0-3.709c0-1.031-.144-1.061.8-1.061q5.274,0,10.549.009,11.421.015,22.842.044c.333,0,.667.008,1,.019.129,0,.2.108.3.158.119.13.106.061-.037-.209,0,.178,0,.356,0,.534,0,1.227.013,2.454.026,3.682.024,2.248.065,4.5.068,6.744,0,2.574,4,2.578,4,0,0-2.248-.044-4.5-.068-6.744-.025-2.4.562-5.48-1.548-7.164-1.643-1.312-3.821-1.021-5.791-1.026L61.9,196.6q-6.9-.014-13.8-.023c-4-.005-8.03-.167-12.024-.01a4.227,4.227,0,0,0-3.622,2.1c-.787,1.352-.583,2.986-.582,4.485q0,4.284.008,8.569c0,2.573,4,2.578,4,0Z"/><path class="d" d="M33.875,297.94c0,2.431-.009,6.988-.009,10.953a2.222,2.222,0,0,0,2.088,2.2c8.579,0,26.918-.031,35.023-.056a2.289,2.289,0,0,0,2.35-1.965c0-3.6.095-8.745.095-10.96"/><path class="d" d="M31.875,297.94q0,3.736-.007,7.473c0,2.614-.454,5.729,2.252,7.21,1.591.872,4.032.474,5.8.472q3.219,0,6.437-.006,6.924-.009,13.847-.022l6.4-.014a23.713,23.713,0,0,0,5.429-.149,4.327,4.327,0,0,0,3.139-2.836,16.576,16.576,0,0,0,.171-4.21c.024-2.581.075-5.162.078-7.742s-4-2.578-4,0c0,1.916-.035,3.832-.057,5.748q-.018,1.683-.031,3.368a13.737,13.737,0,0,0-.007,1.491c.082.785-.067.2.1.086a1.092,1.092,0,0,1-.448.232,8.653,8.653,0,0,1-1.9.006l-2.468.006q-2.775.007-5.551.012-11.682.024-23.366.032c-.43,0-1.638.147-1.8-.106s-.022-1.039-.021-1.389q0-1.095,0-2.189,0-3.736.007-7.473c0-2.574-4-2.578-4,0Z"/><path class="d" d="M30.625,236.043c15.071-.354,30.149-.293,45.22-.647,2.57-.06,2.579-4.06,0-4-15.071.354-30.149.293-45.22.647-2.57.06-2.58,4.06,0,4Z"/><path class="d" d="M29.979,278.171c15.286-.356,30.579-.032,45.866-.388,2.57-.06,2.579-4.06,0-4-15.287.356-30.58.032-45.866.388-2.57.06-2.58,4.06,0,4Z"/><path class="d" d="M19.246,257.274q12.77-.2,25.539-.351,15.165-.2,30.331-.381,5.214-.063,10.43-.119c2.573-.026,2.579-4.026,0-4q-11.39.112-22.778.27-15.552.195-31.1.4-6.209.084-12.419.177c-2.571.04-2.579,4.04,0,4Z"/><path class="c" d="M211.052,71.4c-10.344-6.63-20.059-15.9-11.427-23.9,7.959-7.38,21.463-8.2,32.654-9.348,10.5-17.648,26.036-24.275,41.708-23.537,9.257.435,20.072,4.59,26.449,12.042,6.807,7.956,9.388,16.528,9.508,27.718,11.811,6.163,23.1,12.435,26.876,24.36a7.857,7.857,0,0,1-.9,7.1c-7.617,9.964-28.5,9.149-39.667,8.861-24.169-.622-48.337-5.476-70.405-15.352A119.322,119.322,0,0,1,211.052,71.4Z"/><path class="d" d="M237.154,42.88a42.426,42.426,0,0,1-5.443-3.753,56.21,56.21,0,0,1,7.1-9.9c5.58,4.25,14.51,9.12,33.83,13.32,9.64,2.1,28.36,3.86,36.558,2.879a61.04,61.04,0,0,1,.731,11.263c-8.465,1.288-29.816-.682-40.651-3.037C252.664,50.039,243.334,46.484,237.154,42.88Z"/><path class="d" d="M234.053,39.082A48.572,48.572,0,0,1,248.523,23.4a40.97,40.97,0,0,1,17.238-6.471c13.6-1.806,28.178,3.008,35.973,14.725,4.524,6.8,6.1,14.655,6.21,22.722.035,2.571,4.035,2.579,4,0-.106-7.778-1.453-15.528-5.305-22.374A36.391,36.391,0,0,0,289.83,16.513a45.588,45.588,0,0,0-41.115,2.061A51.919,51.919,0,0,0,230.6,37.063c-1.33,2.212,2.127,4.225,3.453,2.019Z"/><path class="d" d="M308.935,56.1c7.415,3.872,15.23,7.864,20.841,14.239,2.445,2.777,4.823,6.456,5.425,10.175a5.2,5.2,0,0,1-1.379,4.677,15.118,15.118,0,0,1-3.429,2.621c-6.092,3.506-13.666,4.332-20.556,4.741a176.056,176.056,0,0,1-23.276-.336,177.93,177.93,0,0,1-59.828-14.656,116.124,116.124,0,0,1-13.351-7.058c-4.685-2.892-9.83-6.4-12.955-10.836a14.711,14.711,0,0,1-1.61-2.873,12.847,12.847,0,0,1-.427-1.5c-.114-.511-.041-.1-.063-.408a8.915,8.915,0,0,1-.026-.939,6.413,6.413,0,0,1,.717-2.529,10.575,10.575,0,0,1,2.548-2.975c6.2-5.38,15.3-6.634,23.154-7.517,2.145-.241,4.294-.446,6.442-.66a2.056,2.056,0,0,0,2-2,2.015,2.015,0,0,0-2-2c-9.092.9-18.673,1.553-26.978,5.715-5.636,2.824-11.338,8.032-9.521,14.94,1.513,5.748,6.77,10.076,11.342,13.442a100.067,100.067,0,0,0,15.706,9.248c18.1,8.783,37.992,13.822,57.943,15.982a192.924,192.924,0,0,0,26.934,1.11c7.819-.252,16-1.007,23.243-4.152,3.083-1.337,6.262-3.308,8.153-6.165,2.687-4.061.739-9.294-1.338-13.152-4.216-7.832-11.9-13.014-19.467-17.249-2.055-1.15-4.138-2.248-6.225-3.337-2.28-1.191-4.3,2.26-2.019,3.454Z"/><path class="d" d="M231.017,41.114c7.242,5.6,15.953,8.762,24.681,11.241A181.124,181.124,0,0,0,293,58.723c5.775.4,11.71.741,17.461-.1a2.014,2.014,0,0,0,1.4-2.461,2.051,2.051,0,0,0-2.46-1.4c-.146.021-.513.066-.958.109-.522.05-1.045.088-1.568.119-1.146.066-2.3.095-3.443.1-2.714.019-5.429-.077-8.138-.229-5.852-.328-11.7-.9-17.5-1.741a162.074,162.074,0,0,1-18.335-3.888,107.662,107.662,0,0,1-15.5-5.17,56.325,56.325,0,0,1-5.856-2.957q-1.2-.7-2.365-1.485-.541-.365-1.07-.745c-.171-.123-.342-.248-.511-.373-.089-.067-.6-.457-.3-.222a2.068,2.068,0,0,0-2.829,0,2.014,2.014,0,0,0,0,2.829Z"/><path class="d" d="M237.807,30.954c6.513,4.942,14.25,8.027,22.021,10.378a154.653,154.653,0,0,0,33.449,5.954,84.839,84.839,0,0,0,15.919.141,2.06,2.06,0,0,0,2-2,2.014,2.014,0,0,0-2-2,77.706,77.706,0,0,1-13.592.017c-5.341-.327-10.68-.863-15.972-1.665a134.6,134.6,0,0,1-16.468-3.64A90.841,90.841,0,0,1,249.3,33.156a52.411,52.411,0,0,1-9.471-5.655,2.011,2.011,0,0,0-2.736.717,2.049,2.049,0,0,0,.718,2.736Z"/><path class="d" d="M286.458,81.385c6.58,1.2,13.314.924,19.948.37,5.322-.445,11.6-.917,16.231-3.877,2.163-1.382.159-4.846-2.018-3.454a18.523,18.523,0,0,1-6.18,2.217,64.928,64.928,0,0,1-8.5,1.152c-6.1.482-12.365.836-18.413-.265-2.516-.459-3.6,3.395-1.063,3.857Z"/><path class="d" d="M310.948,73.173c1.041,3.247,2.162,6.468,3.2,9.715a2,2,0,0,0,3.857-1.064c-1.041-3.247-2.163-6.467-3.2-9.714a2,2,0,0,0-3.857,1.063Z"/><path class="d" d="M297.661,72.561c.2,3.934.622,7.853.888,11.783a2,2,0,0,0,4,0c-.266-3.93-.687-7.849-.888-11.783a2,2,0,1,0-4,0Z"/><path class="e" d="M13.312,18.939C1.735,32.185-.692,52,4.871,69.049a59.193,59.193,0,0,0,6.711,14.033c11.392-8.918,28.59-12.508,41.323-12.639,14.378-.148,31.541,3.734,43.139,12.136a64.752,64.752,0,0,0,8.287-22.97c3.71-22.72-7.33-44.04-30.79-54.33-9.6-4.22-26.58-3.69-32.89-2.15-11.54,2.8-17.06,6.43-23.15,11.66A40.953,40.953,0,0,0,13.312,18.939Z"/><path class="d" d="M89.322,88.457a45.11,45.11,0,0,1-23.861,14.307c-10.824,2.512-22.509,1.749-32.554-3.168a48.846,48.846,0,0,1-14-10.4c-1.772-1.875-4.6.957-2.828,2.828A50.947,50.947,0,0,0,45.5,107.615a54.581,54.581,0,0,0,33.879-5.932,48.526,48.526,0,0,0,12.771-10.4c1.691-1.929-1.127-4.769-2.828-2.829Z"/><path class="d" d="M51.951,78.514c-.232,15.754-.29,31.512-.441,47.267-.033,3.393-.065,6.785-.115,10.178-.038,2.574,3.962,2.575,4,0,.233-15.755.291-31.512.442-47.267.032-3.393.064-6.785.114-10.178.038-2.575-3.962-2.576-4,0Z"/><path class="d" d="M72.467,83.686A31.685,31.685,0,0,1,65.7,94.063c-3.026,3.239-6.677,6.248-10.95,7.634-2.439.791-1.4,4.654,1.063,3.857,4.935-1.6,9.208-4.909,12.716-8.663A35.73,35.73,0,0,0,76.324,84.75a2,2,0,1,0-3.857-1.064Z"/><path class="d" d="M31.578,83.712a35.216,35.216,0,0,0,7.273,13.024,29.542,29.542,0,0,0,12.79,9.04c2.446.822,3.5-3.039,1.064-3.857a25.77,25.77,0,0,1-11.026-8.012,30.54,30.54,0,0,1-6.244-11.258c-.7-2.471-4.565-1.421-3.857,1.063Z"/><path class="d" d="M13.834,83.866c8.922-6.392,19.991-9.654,30.8-10.894a81.446,81.446,0,0,1,32.454,2.985A64.275,64.275,0,0,1,94.16,83.638c2.158,1.417,4.165-2.045,2.019-3.454-9.95-6.531-21.95-9.9-33.687-11.226A82.566,82.566,0,0,0,29.52,72.027a60.121,60.121,0,0,0-17.7,8.385,2.056,2.056,0,0,0-.718,2.736,2.016,2.016,0,0,0,2.736.718Z"/><path class="d" d="M13.7,82.654C5.1,69.755,1.739,53.4,5.576,38.272a43.272,43.272,0,0,1,9.672-18.5A47.456,47.456,0,0,1,30.524,8.552a50.575,50.575,0,0,1,18.2-4.435C55.558,3.749,62.679,4.023,69.3,5.9s12.958,5.9,18.06,10.432A47.264,47.264,0,0,1,99.165,32.333c5.947,13.293,4.516,28.723-1.076,41.881a60.176,60.176,0,0,1-3.044,6.119c-1.271,2.243,2.183,4.261,3.454,2.019,7.911-13.959,11.151-31.467,6.1-46.957C99.952,21.164,88.926,10.11,75.442,3.951,68.736.889,61.227.071,53.919,0A60.047,60.047,0,0,0,34.012,2.937,49.3,49.3,0,0,0,3.392,31.879c-5.709,15.1-3.948,32.5,3.306,46.758a59.857,59.857,0,0,0,3.543,6.036c1.421,2.132,4.887.131,3.454-2.019Z"/></svg>