<svg id="b" xmlns="http://www.w3.org/2000/svg" width="223.999" height="321.127" viewBox="0 0 223.999 321.127" style="color: initial !important;"><defs><style>.d{fill:#ffffff;}.e{fill:none;}.f{fill:#a095c1;}.g{fill:#211715;}.h{fill:#cfcfcf;}</style></defs><g id="c"><path class="d" d="M64.636,66.672c.23.88,1.67,3.55,4.71,4.02v.36c-7.45-1.11-15.49,1.19-20.63,7.23-1.89,2.22-3.35,5.12-4.47,8.45l-3-3.49c-2.01-2.19-4.33-4.18-4.42-4.28-.53-.58-1.42-.68-2.07-.22-2.69,1.91-7.46,3.19-11.29,3.2-1.96.01-4.07-.6-6.29-2.58-1.04-.92-2.09-2.3-3.04-3.76-1.45-2.23-2.67-4.66-3.29-6.08-.69-.96-1.52-1.77-2.62-2.32-1.66-.84-3.94-1.12-3.78-3.7.06-.98.54-1.86,1.18-2.6,3.26-3.72,1.13-9.96-.39-14.46-.88-2.08-1.53-4.07-1.96-5.97-1.42-4.61-1.45-7.52-1.01-11.64.2-1.89,2.19-10.8,11.03-18.1,4.21-3.48,9.25-6.37,15.05-7.74,5.81-1.37,15.56-2.69,27.89,6.09,4.79,3.41,9.69,9.06,12.29,15.49,4.69,11.63,2.04,22.23-.33,28.04-1.54,3.77-4.62,10.08-3.56,14.06Z"/><path class="h" d="M72.509,292.824c-.461-3.492-.761-5.763-1.1-8.329-.478.318-1.028.548-1.633.656-6.055,1.056-13.409,2.317-19.702,3.309-.562,1.111-1.412,2.119-2.316,2.887-4.14,3.516-9.122,5.436-14.185,7.214-2.092.735-4.281,1.704-6.344,2.518-4.563,1.801-9.1,5.336-8.783,10.756.232,3.967,3.943,6.073,7.35,6.847,7.029,1.596,39.937-1.705,45.517-4.549,3.607-1.839,4.986-5.402,4.779-9.38-.217-4.177-2.242-8.083-3.582-11.93Z"/><path class="g" d="M68.7,279.121c.379,2.867.757,5.735,1.136,8.602l.55,4.167c.236,1.784.882,3.319,1.535,4.992,1.722,4.412,4.279,11.596-.689,14.982-.353.241-.732.425-1.105.629-.345.188.47-.173.076-.029-.075.028-.148.06-.224.087-.547.191-1.095.368-1.654.521-1.393.382-2.81.676-4.228.946-3.749.712-7.535,1.226-11.326,1.662-7.719.888-15.616,1.686-23.396,1.377-.629-.025-1.258-.061-1.885-.122-.126-.012-.954-.127-.327-.03-.244-.038-.486-.076-.728-.127-2.029-.424-4.37-1.362-5.454-3.248-1.138-1.981-.445-4.567.839-6.305,1.454-1.967,3.717-3.296,5.94-4.216,6.579-2.723,13.835-4.569,19.636-8.848,2.718-2.005,4.956-4.435,5.326-7.919.3-2.831.078-5.72.056-8.559-.02-2.573-4.02-2.579-4,0,.021,2.747.246,5.551-.029,8.291-.266,2.646-2.97,4.577-5.159,5.951-5.647,3.544-12.281,5.108-18.323,7.831-5.153,2.323-9.812,7.236-8.67,13.313.91,4.842,5.983,7.304,10.448,7.818,3.274.377,6.627.232,9.91.088,4.401-.194,8.795-.55,13.176-1.007,4.406-.459,8.809-1.011,13.175-1.76,2.732-.469,5.588-.919,8.168-1.973,6.443-2.633,7.536-9.92,5.858-15.963-.521-1.877-1.257-3.684-1.964-5.496-.369-.947-.795-1.891-.983-2.886-.167-.885-.238-1.799-.356-2.692-.444-3.359-.887-6.718-1.331-10.077-.141-1.071-.818-2-2-2-.971,0-2.142.921-2,2h0Z"/><path class="h" d="M181.055,314.307c-1.124.196-2.189.403-3.177.622-3.195.706-7.965,1.271-10.405-1.76-.528-.656-.844-1.46-1.036-2.28-1.569-6.71,4.612-10.242,9.478-13.084,2.871-1.677,8.224-2.137,11.042-3.972,1.584-1.032,2.654-2.98,2.044-4.769-.884-2.588-4.905-7.946-8.715-12.349,6.65-2.996,13.848-7.248,19.019-11.436,3.566,4.331,9.745,15.291,14.456,21.493,2.84,3.15,7.342,8.184,8.025,12.491.465,2.931.315,5.665-1.236,8.195-2.427,3.961-6.422,5.268-10.581,5.013-7.853-.482-20.176.316-28.913,1.837Z"/><path class="g" d="M182.912,282.901c1.446,1.782,2.723,3.787,3.765,5.831.342.671.67,1.044.259,1.661-.629.944-2.02,1.547-3.009,2.007-2.354,1.094-4.882,1.782-7.265,2.813-2.057.89-4.032,2.133-5.852,3.436-4.014,2.873-6.951,6.809-6.075,11.981,1.02,6.025,6.951,7.578,12.24,7.104,10.191-.913,20.308-2.534,30.53-3.143,4.907-.293,10.109-.41,13.568-4.476,3.875-4.554,3.648-11.08.812-16.094-1.469-2.597-3.41-4.934-5.375-7.167-1.712-1.946-3.163-4.037-4.596-6.2-3.037-4.581-5.835-9.325-8.973-13.838-1.459-2.099-4.928-.102-3.454,2.019,2.6,3.739,4.953,7.65,7.426,11.473,1.304,2.016,2.624,4.024,4.021,5.978,1.359,1.901,2.962,3.575,4.44,5.382,3.059,3.74,6.019,8.529,4.088,13.52-1.825,4.717-6.638,5.125-11.002,5.35-9.808.505-19.562,1.898-29.318,2.969-3.86.424-10.018,1.239-10.563-4.114-.429-4.219,3.388-6.862,6.563-8.801,2.211-1.351,4.451-2.287,6.883-3.17,2.539-.922,5.209-1.859,7.246-3.704,1.045-.946,1.802-2.205,1.874-3.636.06-1.194-.485-2.331-1.013-3.367-1.202-2.358-2.725-4.588-4.39-6.641-.681-.84-2.121-.708-2.828,0-.83.83-.683,1.987,0,2.828h0Z"/><path class="d" d="M198.696,260.192c1.24,2.05.8,4.72-1.1,6.17-5.22,4.06-12.2,8.1-18.61,10.94-1.83.81-3.99.33-5.33-1.14-16.28-17.75-22.98-22.85-39.39-40.41-4.12-4.42-8.24-8.84-12.08-13.48-2.17-2.64-4.26-5.35-6.28-8.1-2.53.68-5.03,1.29-7.42,1.92-7.94,2.07-31.65,7.6-43.59,10.99-2.13.6-3.39,2.76-2.86,4.91,3.87,15.84,8.03,35.27,11.16,47.9.6,2.41-.96,4.82-3.42,5.26-8.14,1.42-18.63,3.21-25.73,4.22-2.18.3-4.25-1.09-4.78-3.23-4.72-18.84-7.41-28.98-11.34-45.82-2.37-10.23-3.88-16-3.25-27.24.51-9.15,9.92-17.47,17.81-21.75,12.22-6.61,15.89-8.21,32-16.61.7,1.77,3.62,1.72,5.89.95,9.43-3.16,15.63-5.42,24.27-9.67,8.35-4.09,16.74-8.96,23.05-15.69.16-.16.29-.33.4-.51l5.05,3.98c.02.01.03.02.04.02,2.4,1.91,4.53,4.09,6.45,6.45.05.05.08.09.1.14,2.2,2.71,4.1,5.68,5.73,8.8.42.75.81,1.52,1.17,2.3,1.14,2.34,2.15,4.75,3.05,7.19,3.5,9.46,5.54,19.39,8.45,29.05.85,2.81,1.81,5.65,3.47,8.08,1.89,2.74,4.58,4.79,7.04,7.03,3.51,3.19,6.6,6.8,9.62,10.46,10.44,12.66,12.05,12.96,20.43,26.89Z"/><path class="g" d="M83.837,167.57c-13.589,7.165-27.372,13.966-40.9,21.247-4.495,2.419-8.731,5.252-12.343,8.89-3.587,3.613-6.829,8.166-7.675,13.293-.899,5.452-.445,11.352.354,16.791.812,5.536,2.234,10.984,3.516,16.424,2.443,10.367,5.056,20.692,7.669,31.018.765,3.024,1.529,6.049,2.289,9.074.721,2.872,1.451,5.513,4.476,6.684,2.379.921,5.241.038,7.671-.337,2.865-.442,5.726-.907,8.586-1.382,2.956-.491,5.911-.995,8.864-1.505,2.553-.441,5.441-.532,7.306-2.577,1.916-2.101,1.791-4.539,1.16-7.118-.603-2.462-1.187-4.929-1.763-7.397-2.704-11.585-5.252-23.206-8.014-34.777-.322-1.348-.646-2.697-.976-4.043-.222-.905-.175-1.768.574-2.424.62-.543,1.67-.67,2.444-.883.973-.268,1.947-.531,2.922-.791,4.559-1.214,9.136-2.364,13.715-3.5,8.173-2.028,16.375-3.944,24.531-6.039,2.731-.702,5.467-1.39,8.192-2.118,2.485-.663,1.431-4.523-1.063-3.857-8.295,2.215-16.647,4.212-24.986,6.252-4.631,1.133-9.26,2.273-13.882,3.444-4.043,1.025-8.17,1.938-12.143,3.213-2.475.794-4.242,2.869-4.432,5.495-.095,1.308.357,2.617.661,3.874.346,1.432.689,2.865,1.028,4.299,1.353,5.717,2.66,11.444,3.964,17.172,1.252,5.5,2.497,11.002,3.783,16.494.545,2.328,1.098,4.654,1.668,6.976.227.923.49,1.775-.038,2.649-.564.933-1.52,1.07-2.517,1.244-5.687.993-11.378,1.967-17.079,2.881-2.497.4-5.027.929-7.546,1.156-2.837.255-2.97-3.045-3.48-5.07-2.599-10.335-5.259-20.656-7.775-31.012-1.319-5.428-2.612-10.863-3.85-16.31-1.116-4.907-2.018-9.815-2.18-14.856-.088-2.742-.24-5.719.27-8.423.45-2.385,1.467-4.568,2.791-6.589,2.762-4.215,6.755-7.652,10.969-10.357,5.461-3.506,11.479-6.305,17.256-9.255,6.696-3.419,13.392-6.839,20.056-10.321,2.652-1.386,5.301-2.778,7.948-4.173,2.278-1.201.259-4.655-2.019-3.454h0Z"/><path class="h" d="M17.265,7.808c-1.397.906-2.722,1.889-3.974,2.924C4.461,18.033,2.468,26.942,2.265,28.835c-.273,2.552-.363,4.642-.057,6.96,5.079,4.516,14.591,4.165,18.181,1.747,5.057,2.713,11.419,4.295,18.569,4.745.367-.605.842-1.139,1.508-1.595,1.199-.821,2.547-1.127,3.796-.774,1.859.525,3.358,2.51,3.947,4.381.945,3.003.833,5.728-.227,8.217.171.213.273.336.273.336,2.967,3.595,11.101,8.083,16.586,8.836.755-3.215,2.372-6.662,3.354-9.072,2.368-5.809,5.016-16.408.327-28.043-2.591-6.43-7.493-12.079-12.286-15.491C43.904.304,34.153,1.621,28.35,2.989c-4.079.962-7.781,2.675-11.084,4.818Z"/><path class="e" d="M9.287,33.993c3.97,2.763,6.617,3.974,9.852,5.215,6.309,2.419,10.582,3.103,13.888,2.894"/><path class="g" d="M14.987,36.364c6.759,5.245,15.229,7.3,23.632,7.9,2.569.183,2.557-3.818,0-4-7.216-.515-14.967-2.199-20.804-6.728-.852-.662-1.997-.831-2.828,0-.69.69-.858,2.162,0,2.828h0Z"/><path class="g" d="M3.49,39.101c4.582,2.391,10.516,2.932,15.444,1.308,1.026-.338,1.693-1.382,1.397-2.46-.276-1.004-1.43-1.736-2.46-1.397-.447.147-.9.275-1.359.378-.275.062-.552.116-.83.164-.127.022-.254.042-.382.061-.329.05.283-.031-.054.006-1.14.124-2.285.164-3.431.104-.288-.015-.576-.036-.862-.063-.144-.014-.289-.029-.433-.045-.071-.008-.331-.045-.118-.014-.578-.085-1.152-.197-1.719-.335-.601-.146-1.195-.324-1.776-.535-.136-.049-.271-.101-.406-.154-.331-.13.204.094-.12-.049-.295-.131-.584-.274-.87-.424-.957-.5-2.173-.246-2.736.718-.526.9-.243,2.235.718,2.736h0Z"/><path class="g" d="M42.664,81.829c-1.394-1.499-2.87-2.941-4.419-4.281-.978-.845-2.122-1.294-3.42-.997-1.136.26-2.123,1.177-3.181,1.653-2.297,1.034-4.915,1.61-7.427,1.722-2.452.108-4.466-.758-6.19-2.523-1.989-2.036-3.418-4.706-4.675-7.236-.541-1.089-.979-2.07-1.833-2.964-.858-.899-1.885-1.573-3.022-2.061-.536-.229-1.568-.496-1.924-.95-.468-.596.2-1.506.58-2.011,1.49-1.981,2.217-4.112,2.185-6.612-.077-5.987-3.328-11.262-4.435-17.032-.485-2.525-4.341-1.456-3.857,1.063.993,5.172,3.933,9.955,4.265,15.259.064,1.027.042,2.05-.264,3.038-.355,1.145-1.21,1.865-1.786,2.881-1.276,2.25-1.083,5.122,1.078,6.723,1.586,1.175,3.742,1.331,4.841,3.155.603,1,1.019,2.152,1.582,3.182.741,1.356,1.542,2.687,2.446,3.941,1.738,2.41,3.844,4.501,6.682,5.548,2.441.901,5.095.649,7.608.228,1.455-.244,2.893-.614,4.279-1.119.752-.274,1.5-.585,2.219-.935.441-.215,1.197-.465,1.507-.853.333-.417.304-.024-.084-.272.052.033.153.122.181.165.184.286.582.523.832.751,1.178,1.078,2.319,2.194,3.407,3.364,1.756,1.89,4.58-.944,2.828-2.828h0Z"/><path class="g" d="M5.261,40.153c-.822-2.694-1.32-5.358-1.231-8.182.02-.64.062-1.279.117-1.917.015-.176.236-1.912.08-.944.074-.46.164-.916.273-1.369.881-3.643,2.648-7.061,4.876-10.059,5.702-7.673,15.271-12.91,24.623-13.601,10.035-.742,19.97,4.235,26.583,11.611,7.618,8.497,10.2,20.197,7.396,31.195-1.239,4.858-3.838,9.23-5.026,14.094-.578,2.365-.92,5.073.204,7.331,1.098,2.205,3.242,3.858,5.662,4.309,2.516.468,3.595-3.386,1.063-3.857-1.058-.197-1.917-.608-2.619-1.44-.202-.24-.342-.488-.518-.77-.064-.103-.126-.23-.175-.344.208.477-.063-.304-.072-.347-.44-2.168.465-4.642,1.176-6.654,1.53-4.329,3.585-8.355,4.54-12.881,2.544-12.059-.643-24.461-8.94-33.617C56.2,4.908,45.458-.475,34.788.033,24.477.524,14.351,5.618,7.662,13.462c-3.154,3.698-5.666,8.072-6.912,12.793-1.293,4.902-.809,10.165.654,14.961.749,2.455,4.611,1.408,3.857-1.063h0Z"/><path class="g" d="M11.981,51.005c-.032,1.599,1.17,4.927,3.908,4.488,3.509-.984,2.584-5.152.877-6.764-1.397-1.32-4.424-1.199-4.785,2.276Z"/><path class="g" d="M12.788,74.053c2.081-.733,4.168-1.753,5.65-3.437.353-.401.586-.867.586-1.414,0-.491-.218-1.076-.586-1.414-.381-.35-.882-.61-1.414-.586-.511.023-1.065.189-1.414.586-.33.375-.695.714-1.088,1.022l.405-.313c-.802.619-1.696,1.1-2.627,1.496l.478-.202c-.347.145-.697.279-1.052.404-.496.175-.923.454-1.195.919-.251.429-.357,1.061-.202,1.541.157.484.457.951.919,1.195.457.241,1.036.38,1.541.202h0Z"/><path class="g" d="M46.841,54.265c1.967,2.343,4.715,4.118,7.367,5.586,2.921,1.616,6.106,3.019,9.399,3.651,1.06.203,2.158-.297,2.46-1.397.269-.978-.331-2.256-1.397-2.46-3.05-.585-5.767-1.766-8.444-3.247-2.534-1.402-4.731-2.784-6.558-4.96-.695-.828-2.111-.717-2.828,0-.82.82-.697,1.999,0,2.828h0Z"/><path class="g" d="M40.308,43.988c.525-1.268,2.114-2.709,3.639-2.076,1.612.669,2.351,2.671,2.695,4.281.836,3.906-.915,7.255-3.799,9.936-1.889,1.757.944,4.58,2.828,2.828,2.123-1.974,3.895-4.387,4.699-7.205.755-2.647.611-5.632-.31-8.221-.996-2.799-3.224-5.422-6.338-5.726-3.438-.336-6.05,2.171-7.271,5.119-.413.998.447,2.199,1.397,2.46,1.15.316,2.045-.395,2.46-1.397h0Z"/><path class="f" d="M126.699,143.82c-7.478-8.293-14.617-15.972-19.851-25.96-9.356-17.853-13.482-41.022-35.228-46.368-4.917-1.209-10.267-.889-14.977,1.064-2.991,1.24-5.724,3.139-7.925,5.722-7.456,8.75-8.295,28.15-8.077,42.673.266,17.675.426,28.135.748,45.013.012.64-.106,1.34.299,1.852.378.477,1.031.702,1.652.791,5.597.797,14.948.402,22.383.383.278-1.902.557-3.804.835-5.706.646,5.29,7.953,6.635,7.767,10.38-.14,2.815,3.392,2.904,6.055,2.009,9.424-3.161,15.63-5.424,24.265-9.673,8.35-4.09,16.742-8.961,23.054-15.691,1.698-1.801.611-4.597-1-6.489Z"/><path class="d" d="M27.765,202.019c-.603.205-1.133.209-1.54-.042-1.132-.697-2.076-1.713-1.911-3.347.191-1.897.787-3.759,1.725-5.366.766-1.311,1.743-2.44,2.752-3.508,1.202-1.274,2.462-2.479,3.807-3.537,1.291-1.016,2.705-1.721,4.019-2.672,1.461-1.058,2.768-2.397,3.93-3.877,1.681-2.14,2.451-7.608,3.642-10.956,5.121.589,12.818.351,19.474.288-.845,4.166-1.466,7.242-1.466,7.242-.815,4.033,5.302,13.824-.384,16.599-6.546,3.195-11.738,7.117-15.284,9.673-.903.651-2.038,1.021-3.161,1.288-.904.215-1.877.033-2.294-.696-.276-.482-.285-.919-.008-1.539-1.108.96-3.231,2.877-4.891,3.449-1.007.347-2.081.542-3.09.301s-1.954-1.018-2.242-2.166c-.165-.657.055-1.602.385-2.508.166-.456-.327-.831-.668-.51-.981.924-1.958,1.598-2.795,1.883Z"/><path class="g" d="M41.66,170.139c-.525,1.927-.953,3.884-1.562,5.788-.556,1.738-1.385,2.971-2.668,4.275-1.53,1.554-3.359,2.529-5.127,3.764-1.863,1.302-3.53,2.879-5.078,4.538s-2.904,3.436-3.781,5.54c-.79,1.894-1.539,4.355-.938,6.395.499,1.694,2.123,3.397,3.911,3.673.954.147,1.856-.107,2.717-.508,1.002-.466,1.704-1.355,2.652-1.855l-1.009.273.214.023-1.009-.273.172.131-.718-.718.092.21-.273-1.009c-.087.83-.511,1.561-.46,2.469.045.787.309,1.578.742,2.236.976,1.484,2.662,2.323,4.426,2.335,3.445.023,6.074-2.318,8.518-4.443l-3.343-1.946c-.716,1.907.238,4.038,2.223,4.649,1.874.577,4.216-.236,5.829-1.212,2.965-1.793,5.652-4.087,8.588-5.945,1.814-1.148,3.67-2.228,5.575-3.218,1.475-.767,2.895-1.406,3.835-2.85,1.53-2.348,1.133-5.392.573-7.978-.326-1.504-.766-2.979-1.141-4.47-.177-.704-.36-1.419-.455-2.14-.011-.085-.031-.285-.039-.578-.005-.169.068-.906,0-.52.185-1.063-.285-2.155-1.397-2.46-.964-.265-2.274.327-2.46,1.397-.478,2.742.546,5.507,1.224,8.132.354,1.369.716,2.764.761,4.185.034,1.046-.05,1.999-.726,2.621-.469.431-1.345.769-1.988,1.1-1.081.557-2.146,1.143-3.196,1.754-1.86,1.082-3.672,2.244-5.449,3.457-1.49,1.017-2.952,2.073-4.413,3.131-.765.554-1.492,1.107-2.39,1.43-.308.111-1.187.17-1.405.366-.212-.038-.174.032.114.21.021.472.085.472.194.002.761-2.027-1.979-3.132-3.343-1.946-1.169,1.016-2.357,2.153-3.771,2.824-.862.409-3.206.966-3.067-.641.095-1.102.73-1.85.167-2.961-.419-.826-1.26-1.372-2.205-1.355-1.141.02-1.794.957-2.653,1.552-.326.226-.657.372-.999.548-.04.021-.394.071-.037.088.325.016-.066-.067-.189-.187-1.189-1.159-.301-3.26.274-4.598.841-1.958,2.313-3.544,3.792-5.04s3.042-2.797,4.829-3.914c1.73-1.08,3.356-2.261,4.762-3.749,1.482-1.569,2.52-3.163,3.224-5.203.712-2.065,1.164-4.212,1.738-6.316.678-2.487-3.18-3.548-3.857-1.063h0Z"/><path class="g" d="M132.142,155.507c1.691,1.128,3.408,3.07,4.819,4.669,1.565,1.774,2.974,3.675,4.253,5.666,2.604,4.052,4.695,8.434,6.386,12.939,3.629,9.672,5.662,19.829,8.673,29.691,1.425,4.667,3.35,8.77,6.925,12.175,1.694,1.613,3.518,3.084,5.206,4.704,1.765,1.694,3.429,3.491,5.038,5.334,2.971,3.402,5.795,6.931,8.742,10.354,1.979,2.3,3.993,4.573,5.895,6.938,1.862,2.316,3.572,4.775,5.194,7.278,1.186,1.831,2.34,3.684,3.457,5.558.867,1.455.911,2.914-.462,4.076-3.598,3.044-7.962,5.464-12.105,7.671-1.059.564-2.127,1.109-3.205,1.634-1.013.493-2.098,1.163-3.197,1.426-2.106.505-3.423-1.671-4.651-2.996-11.115-11.999-23.087-23.147-34.341-35.011-7.102-7.487-14.127-15.046-20.305-23.327-6.394-8.57-12.479-17.378-18.675-26.093-1.533-2.157-3.067-4.313-4.6-6.47-.625-.879-1.745-1.297-2.736-.718-.869.508-1.347,1.852-.718,2.736,6.509,9.153,12.971,18.342,19.533,27.456,3.147,4.371,6.359,8.71,9.805,12.852s7.125,8.117,10.807,12.066c11.776,12.632,24.415,24.408,36.227,37.002.835.89,1.666,1.783,2.494,2.678.908.981,1.754,2.068,2.88,2.813,1.972,1.305,4.398,1.339,6.519.42,4.65-2.014,9.137-4.497,13.388-7.25,3.562-2.307,8.543-4.917,7.938-9.888-.279-2.293-1.831-4.259-3.023-6.171-1.029-1.652-2.081-3.29-3.18-4.897-3.689-5.397-8.091-10.208-12.308-15.185-3.278-3.869-6.416-7.864-9.957-11.501-3.296-3.385-7.67-6.146-10.111-10.262-1.273-2.147-2.033-4.527-2.749-6.905-.773-2.566-1.481-5.151-2.174-7.74-1.366-5.101-2.665-10.222-4.237-15.264-3.052-9.785-7.264-19.442-14.231-27.105-1.55-1.706-3.266-3.523-5.194-4.808-2.148-1.432-4.153,2.031-2.019,3.454h0Z"/><path class="g" d="M65.778,166.867c1.42,2.082,3.422,3.351,5.283,4.978.523.457,1.163,1.018,1.275,1.618.175.943.139,2.123.947,3.066,1.509,1.76,4.031,1.824,6.146,1.448,2.887-.513,5.764-1.812,8.521-2.795,11.104-3.959,22.279-8.861,31.969-15.645,2.483-1.739,4.877-3.625,7.086-5.703,1.019-.958,2.257-1.992,2.928-3.236.697-1.293.752-2.803.391-4.206-.759-2.95-3.217-5.096-5.18-7.278-2.038-2.266-4.063-4.546-6.019-6.884-3.999-4.78-7.649-9.853-10.55-15.38-2.098-3.998-3.881-8.154-5.656-12.302-3.58-8.367-7.139-16.96-13.1-23.963-6.049-7.107-15.163-12.01-24.643-11.797-5.399.121-10.661,1.891-14.911,5.239-3.715,2.927-6.065,6.946-7.665,11.335-1.787,4.901-2.636,10.12-3.201,15.288-.587,5.371-.778,10.78-.786,16.18-.018,11.647.315,23.304.517,34.949.051,2.91.103,5.819.157,8.729.028,1.505.056,3.01.085,4.516.03,1.6-.153,3.279,1.16,4.463,1.119,1.009,2.616,1.121,4.041,1.27,1.284.135,2.574.209,3.863.259,2.856.111,5.716.098,8.573.069,2.905-.03,5.809-.086,8.714-.095.787-.003,1.803-.613,1.929-1.468,3.038-20.769,6.081-41.538,9.124-62.307.156-1.067-.265-2.149-1.397-2.46-.941-.259-2.303.321-2.46,1.397-3.043,20.769-6.086,41.537-9.124,62.307l1.929-1.468c-5.507.018-11.017.223-16.524.053-1.214-.038-2.427-.094-3.638-.194-.488-.04-.978-.078-1.463-.145-.208-.029-.391-.039-.601-.097-.313-.086-.177.376-.112-.254.152-1.466-.047-3.046-.075-4.52-.027-1.443-.053-2.886-.08-4.329-.198-10.901-.368-21.802-.532-32.703-.154-10.218-.29-20.583,1.677-30.659.83-4.249,1.996-8.571,4.25-12.307,2.281-3.781,5.963-6.567,10.145-7.941,8.402-2.762,17.827-.018,24.399,5.653,6.278,5.419,10.115,13.006,13.447,20.456,3.781,8.452,7.002,17.185,12.098,24.972,3.175,4.852,6.864,9.35,10.689,13.7,1.93,2.196,4.051,4.28,5.88,6.559.567.706,1.157,1.631,1.26,2.557.139,1.249-1.257,2.152-2.059,2.92-8.109,7.768-18.751,12.989-29.009,17.307-5.04,2.122-10.214,3.935-15.405,5.651-.876.289-1.743.519-2.67.506-.329-.005-.761-.013-1.059-.186.174.101-.071-.26-.013-.044-.238-.889-.104-1.791-.581-2.7-.45-.858-1.134-1.594-1.859-2.228-1.553-1.358-3.476-2.435-4.658-4.169-1.442-2.114-4.909-.116-3.454,2.019h0Z"/></g></svg>
