<svg id="b" xmlns="http://www.w3.org/2000/svg" width="304.266" height="396.293" viewBox="0 0 304.266 396.293" style="color: initial !important;"><defs><style>.d{fill:#3d8dcc;}.e{fill:#d9d9d9;}.f{fill:#ffffff;}.g{fill:none;}.h{fill:#a98a75;}.i{fill:#211715;}.j{fill:#c6c6c6;}.k{fill:#645d5c;}</style></defs><g id="c"><path class="h" d="M164.203,40.775c5.627,2.032,13.191,4.842,16.643,9.84,5.386,7.797,6.968,18.313,7.652,27.423.261,3.417.271,6.404-.618,9.744-.233.896-.71,1.92-1.566,2.935-.778.922-1.771,1.885-2.871,2.477-3.273,1.764-5.492,2.783-8.362,3.65.059,3.53.109,7.153.179,10.956.01.64-.49,1.189-1.13,1.2-11.053.186-41.678.1-44.218.004-.65-.019-1.15-.538-1.13-1.153.083-4.406.156-8.905.221-13.45-2.022-.528-3.597-1.442-5.048-2.412-3.922-2.622-5.588-4.633-7.147-8.977-.955-2.663-1.451-7.023-1.072-9.835.515-3.826,1.137-7.606,2.147-11.348,1.114-4.128,2.008-8.779,5.066-12.087,3.593-3.887,10.059-6.27,15.032-8.161l2.416-.805h23.807Z"/><path class="f" d="M164.507,187.067c-3.385,0-6.124-.017-8.794-1.455-2.167-1.167-3.633-3.421-3.655-5.889-.027-2.927-.031-4.502.216-7.145.514-5.507,10.972-5.272,14.961-3.161,1.652.874,4.43,2.598,6.567,3.889,3.115,1.881,5.319,2.861,7.528,5.861.95,1.29.95,3.317.403,5.028-.499,1.561-2.597,2.872-4.528,2.872h-12.698Z"/><path class="f" d="M138.62,187.067c3.385,0,6.124-.017,8.794-1.455,2.167-1.167,3.633-3.421,3.655-5.889.027-2.927.031-4.502-.216-7.145-.514-5.507-10.972-5.272-14.961-3.161-1.652.874-4.43,2.598-6.567,3.889-3.115,1.881-5.319,2.861-7.528,5.861-.95,1.29-.95,3.317-.403,5.028.499,1.561,2.597,2.872,4.528,2.872h12.698Z"/><path class="i" d="M164.507,185.067c-2.602-.001-5.428.105-7.785-1.182-2.553-1.394-2.681-3.721-2.677-6.34.002-1.243.036-2.484.125-3.723.037-.525.073-1.074.149-1.38.078-.309.207-.537.262-.61.803-1.059,2.306-1.463,3.735-1.675,1.765-.261,3.658-.172,5.397.189,1.982.411,3.118,1.104,4.92,2.174,2.372,1.409,4.76,2.808,7.103,4.265,1.768,1.099,4.354,2.808,4.365,5.12.016,3.299-2.868,3.163-5.386,3.163h-10.21c-2.574,0-2.578,4,0,4h10.756c1.723,0,3.326.025,4.929-.697,1.528-.689,2.838-1.9,3.414-3.498,2.683-7.45-5.534-11.311-10.666-14.429-2.289-1.391-4.586-3.002-7.197-3.723-2.288-.632-4.796-.845-7.156-.593-2.321.248-4.718.85-6.466,2.493-2.047,1.924-1.992,4.815-2.056,7.425-.047,1.908-.212,3.975.294,5.834.487,1.788,1.574,3.399,3.016,4.553,3.151,2.521,7.282,2.634,11.133,2.636,2.574.001,2.578-3.999,0-4Z"/><path class="i" d="M138.62,189.067c3.401-.002,6.932-.072,9.963-1.82,3.249-1.874,4.474-5.085,4.495-8.67.009-1.587-.008-3.172-.122-4.756-.098-1.361-.195-2.701-.906-3.902-1.159-1.957-3.381-3.034-5.533-3.495-2.444-.524-4.948-.474-7.405-.077s-4.512,1.454-6.64,2.717c-2.798,1.661-5.758,3.227-8.401,5.125-2.694,1.935-5.233,4.551-5.036,8.099.107,1.931.701,3.765,2.228,5.026,1.56,1.288,3.362,1.752,5.354,1.752h12.002c2.574,0,2.578-4,0-4h-9.093c-1.834,0-5.145.622-6.204-1.403-1.259-2.408.869-4.59,2.629-5.919,2.102-1.587,4.537-2.807,6.786-4.171,1.825-1.106,3.689-2.405,5.481-2.932,1.699-.5,3.463-.667,5.231-.595,1.581.065,3.297.323,4.539,1.237.313.231.639.657.757.949.341.852.272,2.325.308,3.449.086,2.677.526,5.833-1.844,7.693s-5.763,1.691-8.59,1.693c-2.574.001-2.578,4.001,0,4Z"/><path class="f" d="M129.171,108.695c-.17,5.122-.13,11.126.36,18.873.84,13.251,2.09,24.348,3.88,39.225.11.93.79,1.704,1.72,1.92,1.91.421,4.39.784,6.64.872.31.01.62.01.93.01,2.15,0,4.37-.147,6.28-.421.959-.144,1.83-.312,2.596-.52.74.209,1.621.377,2.564.52,1.91.274,4.14.421,6.28.421.31,0,.62,0,.96-.01,2.22-.088,4.7-.451,6.61-.872.93-.215,1.61-.989,1.73-1.92,1.79-14.877,3.04-25.974,3.88-39.225.48-7.6.53-13.516.37-18.569"/><path class="i" d="M127.171,108.695c-.329,10.212.351,20.418,1.249,30.586.467,5.295,1.023,10.581,1.622,15.862.312,2.749.634,5.497.962,8.244.322,2.706.183,6.059,3.26,7.147,1.268.449,2.731.565,4.058.738,1.455.191,2.912.32,4.38.321,3.052.001,6.169-.228,9.142-.943,2.502-.601,1.442-4.46-1.063-3.857-4.581,1.101-9.569,1.07-14.181.182-1.333-.256-1.202-.302-1.364-1.658-.171-1.429-.342-2.858-.51-4.288-.3-2.545-.595-5.092-.879-7.639-1.098-9.849-2.051-19.73-2.526-29.631-.241-5.018-.309-10.043-.148-15.064.083-2.575-3.917-2.572-4,0h0Z"/><path class="i" d="M171.971,108.999c.291,9.484-.299,18.959-1.096,28.406-.402,4.758-.877,9.51-1.396,14.256-.274,2.509-.561,5.016-.853,7.523-.145,1.243-.292,2.485-.44,3.728-.086.721-.172,1.442-.258,2.163-.04.336.007,1.41-.288,1.669-.192.168-1.028.218-1.309.27-.649.122-1.301.23-1.956.316-1.155.152-2.322.247-3.487.264-2.846.041-5.762-.126-8.535-.799-2.501-.607-3.568,3.249-1.063,3.857,5.104,1.239,10.557,1.202,15.707.292,1.201-.212,2.398-.426,3.333-1.273,1.155-1.046,1.334-2.398,1.51-3.863.337-2.812.672-5.624.996-8.437,1.218-10.556,2.291-21.135,2.881-31.747.308-5.536.424-11.082.254-16.624-.079-2.568-4.079-2.579-4,0h0Z"/><path class="i" d="M173.08,96.85c.041,2.429.077,4.858.117,7.287.005.282.029,3.662.063,3.663.212.009.594-.797.595-.796-.059-.055-.289.019-.377.006-.282-.044-.611.009-.897.012-2.508.032-5.016.048-7.524.061-6.164.03-12.328.032-18.493.021-4.826-.008-9.652-.016-14.477-.065-.548-.006-1.144-.083-1.689-.023-.43.048-.673-.246-.03.412.696.712.324.409.422-.037.057-.259.012-.644.017-.922.013-.694.025-1.389.037-2.083.084-4.792.155-9.583.219-14.375.146-10.939.257-21.878.388-32.817.031-2.575-3.969-2.576-4,0-.126,10.462-.232,20.924-.369,31.386-.068,5.192-.143,10.383-.234,15.574-.038,2.19-.697,5.2,1.605,6.466.743.409,1.581.391,2.4.403,11.351.174,22.712.114,34.064.06,2.913-.014,5.839.035,8.751-.077,1.195-.046,2.284-.314,2.997-1.362.776-1.14.582-2.5.559-3.812-.051-2.994-.095-5.989-.145-8.983-.043-2.571-4.043-2.579-4,0h0Z"/><path class="i" d="M128.188,92.044c-3.624-1.435-7.032-4.206-8.716-7.751-1.891-3.982-2.143-8.434-1.505-12.732.758-5.107,1.847-10.286,3.519-15.181.725-2.123,1.747-4.136,3.361-5.722,1.517-1.491,3.363-2.602,5.24-3.579,3.46-1.799,7.147-3.144,10.841-4.375,2.43-.81,1.389-4.674-1.063-3.857-3.715,1.238-7.409,2.612-10.927,4.339-4.68,2.297-8.559,5.396-10.609,10.304-1.005,2.405-1.612,4.929-2.276,7.442-.813,3.076-1.434,6.183-1.907,9.328-.78,5.189-.627,10.237,1.462,15.127,2.125,4.974,6.548,8.547,11.518,10.514,1.005.398,2.196-.436,2.46-1.397.312-1.137-.389-2.061-1.397-2.46h0Z"/><path class="i" d="M170.918,99.966c2.532-.567,5.053-1.2,7.469-2.157s5.046-2.033,7.124-3.589c2.45-1.834,4.012-4.264,4.611-7.255.618-3.087.587-6.189.345-9.313-.431-5.565-1.141-11.163-2.684-16.54-1.469-5.114-3.721-10.802-7.778-14.429-4.31-3.854-9.916-5.902-15.271-7.837-2.425-.876-3.47,2.987-1.063,3.857,4.243,1.533,8.572,3.132,12.258,5.797,3.826,2.767,5.934,7.348,7.39,11.714,1.606,4.814,2.441,9.854,2.928,14.894.251,2.596.499,5.22.372,7.83-.122,2.516-.481,5.09-2.27,6.98-1.746,1.844-4.397,2.952-6.72,3.911-2.503,1.033-5.138,1.69-7.774,2.28-2.511.562-1.448,4.419,1.063,3.857h0Z"/><path class="i" d="M176.53,76.97c.01-4.617.094-9.234.096-13.851,0-1.081-.919-2-2-2s-2,.915-2,2c-.001,4.617-.085,9.234-.096,13.851-.002,1.081.921,2,2,2,1.087,0,1.998-.915,2-2h0Z"/><path class="i" d="M149.563,95.328v79.379c0,3.667-.161,7.374,0,11.039.002.051,0,.102,0,.153,0,2.574,4,2.578,4,0v-79.379c0-3.667.161-7.374,0-11.039-.002-.051,0-.102,0-.153,0-2.574-4-2.578-4,0h0Z"/><path class="f" d="M166.224,96.633c-.372,1.659-1.977,2.325-4.215,2.789-.369.076-.759.034-1.118.148-.426.135-.789.417-1.11.728-.44.427-.928.986-1.427,1.341-.55.392-2.26.446-3.154-.038-2.903-1.572-8.487-4.933-8.487-4.933-.547-.268-.886-.552-1.175-.85-.552-.568-.792-1.359-.366-2.547.511-1.425,2.765-4.958,3.331-5.592.875-.983,1.987-2.001,3.516-2.107,1.265-.088,2.097-.033,3.354.129,1.988.256,4.009.225,6.25.057"/><path class="i" d="M164.295,96.101c-.111.413-.217.523-.714.773-.592.297-1.297.476-1.947.595-1.109.203-1.903.294-2.817,1.032-.324.262-.612.546-.906.841-.154.155-.331.309-.478.472-.303.236-.334.281-.093.135.19-.088.205-.106.046-.053-.016-.019-.989.045-1.177-.022-.612-.216-1.226-.678-1.79-.998-1.224-.697-2.441-1.408-3.654-2.124-.901-.532-1.797-1.073-2.699-1.604-.165-.097-.332-.191-.497-.288-.465-.273-.689-.303-.595-.667.157-.609.163-.514.522-1.19.348-.656.727-1.296,1.116-1.928.319-.517.645-1.03.988-1.532.134-.196.267-.393.411-.582-.359.467.147-.138.294-.288.481-.491,1.013-.968,1.712-1.1.946-.18,2.04-.024,2.989.084,2.215.253,4.392.262,6.615.102,1.077-.077,2-.864,2-2,0-1.022-.917-2.078-2-2-2.352.169-4.619.099-6.96-.141-2.359-.241-4.535-.007-6.422,1.532-1.171.955-2.005,2.196-2.804,3.462-.848,1.343-1.776,2.772-2.248,4.301-.71,2.297.387,4.242,2.362,5.402.783.46,1.563.926,2.344,1.389,1.458.864,2.919,1.722,4.391,2.562,1.606.916,3.102,1.806,5.031,1.666,1.249-.091,2.162-.544,3.066-1.404.306-.292.653-.83,1.039-1.028.472-.241,1.234-.162,1.77-.294,2.227-.548,4.325-1.679,4.96-4.04.669-2.489-3.188-3.551-3.857-1.063h0Z"/><path class="i" d="M171.492,79.477c-3.296,1.11-6.608,2.186-9.86,3.419-.963.365-1.773,1.359-1.397,2.46,1.419,4.154,2.944,8.268,4.611,12.329.41.998,1.329,1.708,2.46,1.397.945-.26,1.81-1.455,1.397-2.46-1.668-4.061-3.193-8.175-4.611-12.329l-1.397,2.46c3.252-1.234,6.564-2.309,9.86-3.419,1.023-.345,1.695-1.377,1.397-2.46-.274-.999-1.432-1.743-2.46-1.397h0Z"/><path class="f" d="M133.111,12.916c1.704-3.142,4.05-5.429,6.233-7.02,3.361-2.449,7.566-3.912,12.512-3.912s9.151,1.46,12.512,3.909c3.903,2.844,8.322,7.909,8.676,16.108.075,1.737-.117,3.699-.582,5.709.585.355,1.083.853,1.415,1.469.888,1.646.647,3.876-.37,5.502-.992,1.586-2.673,2.899-4.403,3.531,0,0-.086.031-.174.07-.679,2.056-1.847,4.464-3.811,6.715-1.273,1.459-2.624,2.597-4.074,3.457-1.413.837-2.921,2.028-4.544,2.373-1.513.321-2.978.397-4.37.442-1.393-.031-2.724-.166-4.032-.389-1.658-.282-3.277-1.471-4.798-2.327s-2.947-1.999-4.219-3.426c-1.993-2.236-3.189-4.638-3.89-6.69-1.874-.606-3.731-2.071-4.758-3.833-.966-1.657-1.136-3.893-.197-5.511.271-.467.639-.86,1.067-1.171-.503-2.082-.711-4.12-.634-5.917.156-3.611,1.1-6.615,2.442-9.089Z"/><path class="e" d="M172.586,27.144c-.039.189-.081.378-.125.568-1.257-.763-2.915-.868-4.191-.069-.493-1.767-.668-2.388-1.37-4.256-.753-2.004-1.735-3.939-2.931-5.763-.752-1.147-.985-2.359.359-3.274.968-.659,2.904-1.661,3.405-2.769,0,0,.319-.706.796-1.761,2.375,2.924,4.287,6.903,4.514,12.181.068,1.573-.083,3.331-.458,5.142Z"/><path class="e" d="M136.94,12.833c-.488-.385-.9-.8-1.094-1.231,0,0-.308-.681-.753-1.666-2.332,2.913-4.199,6.858-4.423,12.068-.078,1.798.13,3.836.632,5.919,1.155-.84,2.751-1.069,4.061-.487.431-1.536.662-2.285,1.317-4.03.753-2.004,1.735-3.939,2.931-5.763.752-1.147.985-2.359-.359-3.274-.592-.402-1.544-.933-2.31-1.538Z"/><path class="i" d="M167,37.75c-1.068,3.142-3.007,6.069-5.655,8.103-1.226.941-2.662,1.825-4.032,2.542-1.487.778-3.326.841-4.973.867-1.664.026-3.594-.058-5.125-.766-1.463-.676-2.972-1.605-4.281-2.541-2.731-1.953-4.721-4.927-5.821-8.07-.845-2.414-4.711-1.375-3.857,1.063,1.416,4.046,3.855,7.658,7.325,10.217,1.651,1.217,3.573,2.383,5.468,3.162,1.919.788,4.232.967,6.291.935,2.102-.032,4.336-.205,6.275-1.067,1.762-.783,3.537-1.963,5.069-3.131,3.401-2.595,5.805-6.22,7.174-10.249.83-2.443-3.032-3.491-3.857-1.063h0Z"/><path class="i" d="M158.074,42.301c.034.042.068.084.101.127l-.313-.405c.274.356.502.745.677,1.159l-.202-.478.009.021c.062.26.181.487.358.68.141.218.328.389.561.515.23.146.477.225.744.237.266.06.532.048.798-.036l.478-.202c.301-.178.54-.417.718-.718l.202-.478c.095-.354.095-.709,0-1.063-.166-.397-.324-.792-.546-1.161-.219-.364-.486-.702-.755-1.029-.181-.195-.396-.333-.644-.414-.238-.125-.495-.183-.771-.172-.275-.01-.532.047-.771.172-.248.081-.463.219-.644.414l-.313.405c-.181.312-.272.648-.273,1.009l.071.532c.095.339.266.633.514.883h0Z"/><path class="i" d="M174.198,29.017c1.506-5.894.961-12.181-2.09-17.51-2.343-4.093-6.11-7.556-10.427-9.468-10.339-4.579-22.769-1.259-29.191,8.066-3.806,5.525-4.613,12.499-2.974,18.915.637,2.492,4.496,1.436,3.857-1.063-1.258-4.924-.817-10.139,1.772-14.573,1.965-3.365,5.021-6.11,8.563-7.732,8.318-3.81,18.862-1.081,24.062,6.47,3.219,4.674,3.963,10.383,2.571,15.833-.637,2.495,3.219,3.56,3.857,1.063h0Z"/><path class="i" d="M134.118,12.612c.718,1.396,2.196,2.267,3.481,3.074.218.137.457.272.648.434-.119-.1.07-.204-.019-.057.032.119.035.128.007.027-.028-.065-.027-.131.002-.199-.106.11-.125.373-.291.643-.253.414-.522.817-.77,1.234-1.805,3.043-2.973,6.377-3.92,9.769-.693,2.483,3.165,3.543,3.857,1.063.466-1.67.971-3.317,1.598-4.934.703-1.813,1.679-3.46,2.689-5.114,1.078-1.766,1.142-3.987-.514-5.431-.613-.535-1.343-.922-2.021-1.366-.591-.388-1.071-.731-1.292-1.162-.494-.96-1.84-1.242-2.736-.718-.975.57-1.213,1.773-.718,2.736h0Z"/><path class="i" d="M166.006,10.572c-.022.043-.311.452-.113.215-.089.107-.197.204-.299.298-.311.286-.4.33-.784.585-.707.468-1.477.869-2.118,1.431-1.651,1.448-1.594,3.663-.514,5.431,1.01,1.653,1.984,3.301,2.689,5.114.613,1.579,1.099,3.186,1.554,4.816.691,2.476,4.551,1.424,3.857-1.063-.936-3.355-2.091-6.642-3.876-9.651-.227-.383-.473-.754-.706-1.133-.102-.166-.214-.33-.293-.509-.14-.316.072.322-.061-.236.021.087.028.186-.017.268.28-.509.005-.051.018-.063.059-.055.406-.264.549-.355,1.311-.827,2.833-1.701,3.568-3.129.494-.96.25-2.171-.718-2.736-.895-.524-2.24-.246-2.736.718h0Z"/><path class="g" d="M156.098,31.347c-.021-.153-.22-1.682.85-2.762.701-.708,1.535-.756,1.798-.766.203-.008,1.523-.037,2.355,1.104.788,1.081.869,2.845-.074,4.032-.978,1.23-2.572,1.299-3.618.59-.942-.638-1.189-1.424-1.311-2.197Z"/><path class="g" d="M142.392,31.347c-.021-.153-.22-1.682.85-2.762.701-.708,1.535-.756,1.798-.766.203-.008,1.523-.037,2.355,1.104.788,1.081.869,2.845-.074,4.032-.978,1.23-2.572,1.299-3.618.59-.942-.638-1.189-1.424-1.311-2.197Z"/><path class="i" d="M169.688,29.17c.045-.012.408-.07.432-.099-.264.032-.319.041-.165.028.074-.006.147-.01.221-.011.101-.002.373-.041.443.016-.119-.098-.364-.067-.019.007.145.031.288.07.43.116.264.086.218.003.006-.012.118.008.288.145.394.209.095.057.438.344.081.028.112.099.224.193.329.3.088.09.33.448.07.052.069.105.139.208.201.318.04.069.078.14.113.213-.078-.202-.091-.235-.039-.099.095.294.169.581.236.882-.102-.453-.007.038-.003.138.007.17.005.34-.003.51-.005.109-.085.607-.002.149-.026.141-.052.282-.086.421-.04.168-.087.333-.14.497-.054.165-.124.347-.012.084-.133.313-.303.612-.489.896-.025.038-.356.494-.091.152-.107.138-.221.27-.338.399-.216.24-.446.467-.686.682-.11.098-.223.193-.336.287.314-.26-.087.061-.16.111-.288.199-.586.383-.895.549-.152.082-.308.155-.462.231-.385.191.285-.106-.148.057-.976.368-1.751,1.367-1.397,2.46.309.954,1.412,1.792,2.46,1.397,3.639-1.373,6.829-4.611,6.789-8.714-.02-2.082-.916-3.98-2.605-5.207-1.474-1.07-3.447-1.38-5.193-.906-1.009.274-1.729,1.435-1.397,2.46.335,1.034,1.378,1.691,2.46,1.397h0Z"/><path class="i" d="M135.546,25.375c-1.724-.526-3.726-.235-5.214.792-1.727,1.191-2.628,3.079-2.713,5.155-.169,4.112,2.998,7.399,6.574,8.877.97.401,2.241-.433,2.46-1.397.266-1.166-.358-2.031-1.397-2.46.427.177-.09-.052-.14-.077-.154-.077-.306-.159-.455-.245-.279-.161-.537-.349-.806-.525-.113-.084-.095-.068.054.045-.069-.055-.137-.111-.204-.169-.112-.095-.223-.193-.33-.293-.258-.241-.495-.499-.728-.764-.367-.418.198.311-.114-.144-.097-.142-.195-.283-.284-.43-.074-.121-.144-.244-.21-.369-.04-.075-.078-.151-.114-.228.075.191.086.219.034.084-.103-.299-.205-.594-.273-.905-.018-.082-.068-.609-.038-.147-.011-.172-.028-.34-.032-.513-.003-.17.011-.34.013-.51.005-.384-.057.171.003-.053.079-.298.135-.591.247-.88-.165.422.031-.025.084-.117.06-.102.343-.43.031-.089.101-.111.195-.223.304-.328.092-.089.453-.322.053-.065.104-.067.205-.138.313-.2.052-.03.5-.257.226-.13-.271.126.117-.036.178-.055.143-.044.287-.074.432-.11.459-.115-.416.003.056-.005.148-.002.295-.002.444-.002.408,0-.372-.115.054,0,.143.039.287.069.429.113,1.001.306,2.225-.364,2.46-1.397.246-1.081-.325-2.133-1.397-2.46h0Z"/><path class="i" d="M160.137,29.799c-.789.045-1.574.057-2.364.006-.275-.01-.532.047-.771.172-.248.081-.463.219-.644.414-.195.181-.333.396-.414.644-.125.238-.183.495-.172.771.023.517.193,1.054.586,1.414l.405.313c.312.181.648.272,1.009.273.789.051,1.574.038,2.364-.006.275.01.532-.047.771-.172.248-.081.463-.219.644-.414.195-.181.333-.396.414-.644.125-.238.183-.495.172-.771-.023-.517-.193-1.054-.586-1.414-.378-.347-.884-.616-1.414-.586h0Z"/><path class="i" d="M146.304,29.799c-.789.045-1.574.057-2.364.006-.275-.01-.532.047-.771.172-.248.081-.463.219-.644.414-.195.181-.333.396-.414.644-.125.238-.183.495-.172.771.023.517.193,1.054.586,1.414l.405.313c.312.181.648.272,1.009.273.789.051,1.574.038,2.364-.006.275.01.532-.047.771-.172.248-.081.463-.219.644-.414.195-.181.333-.396.414-.644.125-.238.183-.495.172-.771-.023-.517-.193-1.054-.586-1.414-.378-.347-.884-.616-1.414-.586h0Z"/><path class="f" d="M196.166,200.093c-1.046.18-2.09.375-3.132.576-1.663.321-3.389.673-4.747,1.882-1.358,1.209-2.225,3.544-1.534,5.529l2.745,8.611c3.061-.615,7.421-1.04,11.106-1.315,0-1.197,0-2.564,0-2.564,3.728-2.076,13.584-5.779,10.293-11.86-1.549-2.862-5.443-1.966-8.097-1.743-2.225.187-4.434.503-6.633.883Z"/><path class="f" d="M96.288,199.008c-1.211.205-2.275.744-2.925,1.945-3.291,6.081,6.564,9.783,10.293,11.86,0,0-.094,1.176-.17,2.551,3.894.287,8.588.744,11.706,1.418.008-.045.02-.09.02-.09l2.293-8.611c.691-1.985-.176-4.32-1.534-5.529s-3.084-1.561-4.747-1.882c-3.232-.624-6.481-1.183-9.765-1.459-1.54-.129-3.498-.485-5.173-.202Z"/><path class="f" d="M180.551,394.293c-3.385,0-6.124-.017-8.794-1.422-2.167-1.14-3.633-3.343-3.655-5.756-.027-2.861-.031-4.401.216-6.984.514-5.383,10.972-5.153,14.961-3.089,1.652.855,4.43,2.539,6.567,3.801,3.115,1.839,5.319,2.797,7.528,5.729.95,1.261.95,3.242.403,4.914-.499,1.526-2.597,2.807-4.528,2.807h-12.698Z"/><path class="f" d="M124.736,394.293c3.385,0,6.124-.017,8.794-1.422,2.167-1.14,3.633-3.343,3.655-5.756.027-2.861.031-4.401-.216-6.984-.514-5.383-10.972-5.153-14.961-3.089-1.652.855-4.43,2.539-6.567,3.801-3.115,1.839-5.319,2.797-7.528,5.729-.95,1.261-.95,3.242-.403,4.914.499,1.526,2.597,2.807,4.528,2.807h12.698Z"/><path class="i" d="M180.551,392.293c-2.72-.001-5.677.105-8.104-1.328s-2.373-3.853-2.355-6.358c.008-1.219.055-2.435.154-3.65.07-.871.117-1.208.521-1.678.784-.911,2.456-1.336,3.864-1.499,1.735-.201,3.549-.12,5.253.239,1.93.406,3.027,1.068,4.796,2.094,2.372,1.376,4.759,2.745,7.103,4.169,1.731,1.052,4.353,2.707,4.365,4.966.017,3.225-2.95,3.046-5.386,3.046h-10.21c-2.574,0-2.578,4,0,4h10.756c1.687,0,3.283.035,4.862-.658,1.494-.656,2.824-1.785,3.424-3.334,2.853-7.357-5.357-11.175-10.433-14.191-2.31-1.372-4.642-2.989-7.259-3.717-2.24-.624-4.684-.842-7-.639-2.363.207-4.846.777-6.658,2.405-2.062,1.852-2.055,4.606-2.13,7.184-.108,3.755-.109,7.51,3.02,10.138,3.193,2.682,7.45,2.811,11.418,2.813,2.574.001,2.578-3.999,0-4Z"/><path class="i" d="M124.736,396.293c3.486-.002,7.224-.049,10.277-1.971,1.391-.875,2.589-2.129,3.301-3.618.761-1.592.872-3.181.881-4.921.008-1.612-.023-3.22-.153-4.827-.101-1.25-.241-2.452-.932-3.533-1.226-1.92-3.435-2.946-5.604-3.377-2.453-.487-4.947-.434-7.407-.028-2.405.397-4.421,1.427-6.511,2.639-2.841,1.648-5.869,3.192-8.54,5.107s-5.168,4.508-4.88,8.046c.154,1.895.758,3.586,2.273,4.803,1.545,1.242,3.343,1.678,5.293,1.678h12.002c2.574,0,2.578-4,0-4h-9.093c-1.804,0-5.129.619-6.204-1.339-1.282-2.333.914-4.49,2.629-5.735,2.122-1.54,4.533-2.741,6.786-4.077,1.11-.657,2.22-1.316,3.35-1.938.868-.477,1.143-.63,2.019-.89,1.649-.49,3.351-.664,5.068-.622,1.621.04,3.309.293,4.628,1.092.497.301.741.503.99,1.109-.112-.272.025.157.04.222l.025.105c-.013-.231-.002-.12.034.331.069.751.118,1.505.149,2.258.104,2.592.582,5.695-1.559,7.605-2.321,2.072-5.972,1.876-8.862,1.878-2.574.001-2.578,4.001,0,4Z"/><path class="d" d="M130.955,300.733c-3.457,24.082-7.345,50.026-11.7,74.018-.09.497.223.972.732,1.104,3.417.881,14.825,3.031,18.287,3.615.542.091,1.055-.236,1.171-.75,1.458-6.48,10.457-45.668,13.168-59.149,2.599,14,11.488,52.753,12.929,59.16.115.509.618.837,1.156.753,3.415-.532,14.795-2.515,18.357-3.597.482-.147.77-.613.683-1.089-4.358-24.005-8.249-49.966-11.709-74.063"/><path class="i" d="M151.271,323.155c3.437,17.333,7.451,34.556,11.363,51.786.266,1.173.533,2.346.799,3.52.12.529.217,1.085.495,1.56.836,1.429,2.327,1.543,3.784,1.314,4.245-.667,8.48-1.445,12.69-2.307,1.788-.366,3.722-.636,5.424-1.315,1.463-.583,2.072-1.954,1.841-3.449-.283-1.839-.661-3.669-.985-5.502-1.238-7.012-2.416-14.034-3.551-21.063-2.554-15.808-4.896-31.649-7.172-47.499-.154-1.07-1.513-1.657-2.46-1.397-1.149.316-1.551,1.387-1.397,2.46,2.003,13.95,4.058,27.893,6.263,41.812,1.095,6.915,2.227,13.824,3.412,20.724.582,3.388,1.176,6.774,1.786,10.157l.082.457c.027.782.268.645.722-.412-.056-.017-.307.093-.342.097-.367.038-.757.199-1.116.286-.99.24-1.986.455-2.984.663-2.581.538-5.174,1.021-7.77,1.486-1.12.2-2.24.396-3.362.587-.459.078-.918.155-1.378.231-.196.032-.391.064-.587.096-.116.019-.232.037-.349.056-.409.051-.213.082.591.092l.514.883c-.802-2.01-1.05-4.417-1.528-6.522-.817-3.601-1.633-7.202-2.444-10.803-1.968-8.736-3.919-17.477-5.805-26.231-.92-4.271-1.828-8.545-2.678-12.831-.5-2.523-4.356-1.455-3.857,1.063h0Z"/><path class="i" d="M150.077,321.99c-3.419,16.312-7.182,32.554-10.881,48.804-.342,1.503-.684,3.006-1.026,4.51-.235,1.035-.372,2.182-.768,3.169l.514-.883c.126-.15.992.108.573-.102-.109-.055-.322-.056-.447-.078-.311-.054-.622-.11-.933-.165-.715-.128-1.429-.259-2.142-.39-1.829-.338-3.656-.685-5.481-1.039-1.766-.343-3.531-.694-5.292-1.062-1.288-.269-2.737-.433-3.956-.943l.883.514c.509.421-.037.685.228.048.1-.24.122-.678.165-.914.096-.534.192-1.069.287-1.604.219-1.228.436-2.456.651-3.684.421-2.4.834-4.802,1.242-7.205.811-4.783,1.598-9.57,2.366-14.36,1.554-9.691,3.03-19.394,4.464-29.103.799-5.41,1.584-10.823,2.361-16.236.153-1.068-.263-2.149-1.397-2.46-.939-.258-2.306.321-2.46,1.397-2.047,14.258-4.149,28.508-6.409,42.734-1.122,7.06-2.282,14.114-3.499,21.159-.293,1.696-.589,3.392-.889,5.087-.32,1.809-.894,3.738-.974,5.57-.119,2.697,2.55,3.142,4.582,3.583,4.441.963,8.91,1.805,13.38,2.617,2.126.386,5.048,1.245,6.042-1.417.356-.953.506-2.014.731-3.007,1.776-7.81,3.556-15.619,5.318-23.433,2.256-10.003,4.522-20.006,6.626-30.043.526-2.512-3.329-3.585-3.857-1.063h0Z"/><path class="f" d="M163.992,243.179c.612.143,1.238.218,1.864.265,2.621.198,5.251-.089,7.864-.376,1.065-.117,2.13-.234,3.195-.351,2.515-.276,7.51-1.394,9.64-2.759,2.13-1.365,3.741-4.295,3.741-9.925-.018-4.325-.592-9.016-.797-13.343,3.748-.753,9.442-1.221,13.461-1.478.443-.028.918-.043,1.294.192.325.204.517.559.691.901,2.856,5.605,4.661,11.83,4.567,18.12-.095,6.29-2.187,12.642-6.362,17.347-7.82,8.464-17.137,12.819-28.411,14.213.2,18.436.366,21.712.687,39.192.012.644-.489,1.185-1.133,1.208-2.537.091-41.682.091-44.219,0-.644-.023-1.144-.564-1.133-1.208.321-17.476.487-20.754.689-39.178-11.322-1.379-20.674-5.735-28.519-14.226-4.175-4.705-6.268-11.057-6.362-17.347-.095-6.29,1.711-12.515,4.567-18.12.174-.342.366-.697.691-.901.376-.236.851-.22,1.294-.192,4.019.256,9.713.724,13.461,1.478-.205,4.327-.779,9.018-.797,13.343,0,5.63,1.611,8.559,3.741,9.925s7.125,2.483,9.64,2.759c1.065.117,2.13.234,3.195.351,2.613.287,5.243.574,7.864.376.627-.047,1.252-.123,1.864-.265h23.725Z"/><path class="i" d="M127.615,267.313c-.122,10.685-.352,21.367-.563,32.05-.032,1.615-.063,3.23-.093,4.845-.033,1.756.39,3.481,2.275,4.053.719.218,1.599.14,2.345.146,2.595.023,5.19.027,7.784.033,7.7.017,15.401.018,23.101.005,2.98-.005,5.96-.01,8.941-.028.812-.005,1.627.006,2.439-.022,2.385-.081,3.612-1.576,3.568-3.947-.23-12.379-.52-24.755-.661-37.136-.029-2.572-4.029-2.579-4,0,.116,10.157.327,20.311.532,30.467.028,1.377.055,2.753.081,4.13.015.766.029,1.533.043,2.299l.009.481c-.105.82.176.719.842-.303-.03-.018-.092.014-.127.003-.531-.157-1.376.018-1.926.022-2.587.019-5.175.024-7.762.03-7.313.016-14.627.016-21.94.005-2.983-.005-5.967-.01-8.95-.026-.855-.005-1.711-.009-2.566-.019-.197-.002-.54-.071-.728-.011-.033.01-.082-.017-.113-.003,1.193-.546.55,1.759.804.302.153-.878.035-1.891.052-2.78.221-11.532.482-23.063.613-34.597.029-2.575-3.971-2.576-4,0h0Z"/><path class="i" d="M174.245,268.045c11.548-1.37,22.45-6.081,30.318-14.858,8.999-10.038,8.249-24.71,2.895-36.272-.826-1.784-1.623-3.544-3.827-3.704-1.45-.106-2.998.158-4.443.276-3.417.28-6.854.616-10.222,1.276-.818.16-1.51,1.105-1.468,1.929.23,4.592.871,9.19.794,13.794-.044,2.611-.417,5.856-2.48,7.561-.696.575-2.317,1.15-3.445,1.487-1.521.455-3.077.81-4.644,1.069-1.945.322-3.984.483-5.965.676-2.376.23-4.879.459-7.234-.026-2.513-.517-3.587,3.338-1.063,3.857,4.063.836,8.243.183,12.314-.264,2.986-.328,5.951-.83,8.797-1.821,2.356-.821,4.36-1.965,5.716-4.122,1.587-2.525,1.984-5.72,2.007-8.641.035-4.531-.569-9.048-.795-13.568l-1.468,1.929c2.488-.488,5.011-.761,7.534-.992,1.318-.121,2.637-.225,3.957-.318.4-.028,1.287.098,1.606-.104l.168-.007c-.328-.333-.354-.294-.078.117.117.41.414.827.596,1.21,2.521,5.317,3.988,11.226,3.654,17.131-.29,5.139-2.07,10.456-5.463,14.393-3.275,3.8-7.399,6.951-11.832,9.275-4.933,2.587-10.411,4.065-15.927,4.72-1.072.127-2,.828-2,2,0,.982.92,2.128,2,2h0Z"/><path class="i" d="M201.612,214.54c2.423-1.334,4.98-2.414,7.242-4.03,2.408-1.721,4.864-4.178,4.697-7.386-.09-1.725-.825-3.561-2.159-4.695-1.399-1.188-3.218-1.547-5.014-1.525-4.467.054-9.044.913-13.415,1.748-2.382.455-4.878,1.048-6.548,2.957-1.662,1.898-2.319,4.577-1.592,7.004.737,2.46,4.599,1.412,3.857-1.063-.393-1.313.021-2.797,1.119-3.661,1.277-1.004,3.147-1.176,4.689-1.467,3.588-.676,7.205-1.188,10.846-1.467.999-.076,2.278-.221,3.184.311.767.45,1.071,1.566,1.036,2.198-.035.624-.359,1.321-.901,1.952-.712.83-1.581,1.5-2.489,2.098-2.091,1.376-4.385,2.368-6.571,3.572-2.256,1.242-.24,4.697,2.019,3.454h0Z"/><path class="i" d="M119.435,208.612c.638-2.129.225-4.523-1.069-6.333-1.287-1.801-3.241-2.781-5.357-3.278-4.514-1.061-9.176-1.614-13.789-2.021-3.689-.326-7.342.794-8.316,4.794-.767,3.147.968,5.946,3.352,7.862,2.563,2.06,5.535,3.332,8.391,4.904,2.256,1.242,4.277-2.211,2.019-3.454-1.907-1.05-3.899-1.931-5.763-3.062-.957-.581-1.885-1.204-2.695-1.981-.681-.654-1.247-1.36-1.436-2.124-.031-.124-.096-.627-.085-.727.051-.488.251-1.1.56-1.494.614-.783,1.718-.805,2.633-.794,3.413.042,6.92.627,10.27,1.221,2.839.503,8.742,1.039,7.428,5.425-.74,2.471,3.119,3.527,3.857,1.063h0Z"/><path class="i" d="M130.015,264.045c-10.033-1.19-19.26-5.294-26.386-12.528-8.181-8.306-8.252-20.719-4.068-30.995.331-.813.697-1.611,1.081-2.4.129-.264.293-.534.401-.805.249-.361.266-.437.053-.229-.23.144-.162.186.205.126,1.258.344,2.871.197,4.173.307,2.93.247,5.868.533,8.756,1.099l-1.468-1.929c-.196,3.924-.644,7.834-.767,11.762-.103,3.271.081,6.664,1.542,9.653,2.36,4.83,8.602,5.964,13.438,6.567,4.516.563,9.315,1.362,13.826.434,2.52-.518,1.453-4.375-1.063-3.857-2.354.484-4.86.256-7.234.026-1.981-.192-4.02-.354-5.965-.676-1.567-.259-3.122-.615-4.644-1.069-1.131-.337-2.742-.906-3.445-1.487-2.066-1.707-2.438-4.945-2.48-7.561-.074-4.604.564-9.201.794-13.794.041-.817-.646-1.767-1.468-1.929-2.97-.582-5.994-.904-9.007-1.172-1.365-.122-2.732-.226-4.1-.319-1.618-.109-3.164-.063-4.192,1.373-.924,1.29-1.513,2.939-2.12,4.397-.663,1.594-1.236,3.224-1.701,4.886-.912,3.256-1.432,6.665-1.429,10.05.005,6.207,1.818,12.565,5.597,17.542,3.406,4.485,8.154,8.222,13.078,10.913,5.769,3.153,12.096,4.842,18.595,5.613,1.074.127,2-1.01,2-2,0-1.187-.923-1.872-2-2h0Z"/><path class="f" d="M169.321,226.891c1.754-.514,3.832.291,4.72,1.937s.647,3.876-.37,5.502c-.992,1.586-2.673,2.899-4.403,3.531,0,0-.086.031-.174.07-.679,2.056-1.847,4.464-3.811,6.715-2.513,2.88-5.33,4.512-8.618,5.211-1.513.321-2.978.397-4.37.442-1.393-.031-2.724-.166-4.032-.389-3.317-.564-6.473-2.279-9.017-5.134-1.993-2.236-3.189-4.638-3.89-6.687-1.873-.609-3.731-2.074-4.757-3.837-.966-1.657-1.136-3.893-.197-5.511.939-1.618,3.042-2.357,4.778-1.789,0,0-.549-12.148,16.368-12.148s17.775,12.086,17.775,12.086Z"/><path class="k" d="M159.869,217.259c1.111.544,1.957,1.067,3.179,2.252,2.095,2.03,4.104,4.816,4.994,7.337h1.352c.968-.264,2.029-.131,2.928.322,2.268-7.435.666-15.329-4.109-19.431l-4.419-3.815c-2.874-3.013-7.862-4.139-13.156-3.748-6.843.506-11.341,2.768-15.105,6.998-4.306,4.839-6.033,13.228-4.131,20.422,1.06-.804,2.514-1.081,3.776-.668,2.215-3.05,6.162-7.093,8.732-8.535.301-.169.689.06.811.599.118.521.117.916.079,1.291-.058.568.457.982.895.721,1.835-1.091,5.105-3.287,7.423-4.332l6.751.588Z"/><path class="i" d="M165.209,202.51c-5.282-5.339-14.567-5.256-21.278-3.145s-11.893,7.35-14.047,14.03c-1.386,4.298-1.561,8.914-.732,13.336.474,2.527,4.33,1.457,3.857-1.063-1.43-7.623,1.07-16.125,7.784-20.467,3.183-2.059,6.948-2.913,10.701-3.074,3.794-.163,8.091.388,10.886,3.212,1.813,1.833,4.642-.996,2.828-2.828h0Z"/><path class="i" d="M174.414,227.142c1.912-7.054.991-15.745-4.786-20.817-.811-.712-2.03-.799-2.828,0-.727.727-.815,2.113,0,2.828,4.729,4.152,5.317,11.172,3.758,16.926-.674,2.488,3.183,3.549,3.857,1.063h0Z"/><path class="i" d="M156.453,230.997c-.021-.153-.22-1.682.85-2.762.701-.708,1.535-.756,1.798-.766.203-.008,1.523-.037,2.355,1.104.788,1.081.869,2.845-.074,4.032-.978,1.23-2.572,1.299-3.618.59-.942-.638-1.189-1.424-1.311-2.197Z"/><path class="i" d="M142.746,230.997c-.021-.153-.22-1.682.85-2.762.701-.708,1.535-.756,1.798-.766.203-.008,1.523-.037,2.355,1.104.788,1.081.869,2.845-.074,4.032-.978,1.23-2.572,1.299-3.618.59-.942-.638-1.189-1.424-1.311-2.197Z"/><path class="i" d="M158.86,218.985c.394.195.784.399,1.158.631.191.118.374.246.558.374.261.181-.041-.063-.062-.055.024-.01.334.272.354.29.825.701,1.578,1.492,2.278,2.316.163.192.322.388.481.584.34.42-.136-.19.05.061.084.113.169.225.252.338.329.45.642.912.935,1.386.284.458.55.928.791,1.41.105.209.198.423.299.633.108.226-.128-.345.004.011.051.138.105.276.155.415.302.838,1,1.468,1.929,1.468h1.447c1.046,0,2.048-.92,2-2s-.879-2-2-2h-1.447l1.929,1.468c-.865-2.402-2.254-4.527-3.888-6.475-1.462-1.743-3.152-3.297-5.204-4.309-.937-.462-2.208-.283-2.736.718-.477.902-.284,2.242.718,2.736h0Z"/><path class="i" d="M136.905,227.937c1.158-1.58,2.517-3.073,3.92-4.466.697-.692,1.417-1.362,2.17-1.992.364-.304.547-.452.902-.704.172-.122.347-.242.525-.356l.169-.106c.329-.178.208-.164-.364.04l-1.009-.273c-.583-.276-.4-.92-.397-.145.001.386-.042.721.059,1.111.179.689.633,1.327,1.251,1.688,1.39.813,2.635-.03,3.807-.761,2.019-1.258,4.024-2.579,6.19-3.576.981-.452,1.225-1.869.718-2.736-.589-1.007-1.751-1.171-2.736-.718-1.348.62-2.628,1.377-3.893,2.149-.625.382-1.246.77-1.867,1.158-.279.174-.558.349-.838.522-.126.078-.266.147-.384.236-.501.379-.237-.225.545.069l.883.514c.147.119.185,1.042.263.461.027-.203-.003-.425-.023-.628-.051-.506-.123-.982-.327-1.449-.462-1.053-1.492-1.754-2.667-1.601-1.402.183-2.799,1.561-3.828,2.439-2.445,2.086-4.623,4.514-6.522,7.103-.639.872-.147,2.231.718,2.736,1.014.593,2.096.156,2.736-.718h0Z"/><path class="i" d="M169.852,228.82c.045-.012.408-.07.432-.099-.264.032-.319.041-.165.028.074-.006.147-.01.221-.011.101-.002.373-.041.443.016-.119-.098-.364-.067-.019.007.145.031.288.07.43.116.264.086.218.003.006-.012.118.008.288.145.394.209.095.057.438.344.081.028.112.099.224.193.329.3.088.09.33.448.07.052.069.105.139.208.201.318.04.069.078.14.113.213-.078-.202-.091-.235-.039-.099.095.294.169.581.236.882-.102-.453-.007.038-.003.138.007.17.005.34-.003.51-.005.109-.085.607-.002.149-.026.141-.052.282-.086.421-.04.168-.087.333-.14.497-.054.165-.124.347-.012.084-.133.313-.303.612-.489.896-.025.038-.356.494-.091.152-.107.138-.221.27-.338.399-.216.24-.446.467-.686.682-.11.098-.223.193-.336.287.314-.26-.087.061-.16.111-.288.199-.586.383-.895.549-.152.082-.308.155-.462.231-.385.191.285-.106-.148.057-.976.368-1.751,1.367-1.397,2.46.309.954,1.412,1.792,2.46,1.397,3.639-1.373,6.829-4.611,6.789-8.714-.02-2.082-.916-3.98-2.605-5.207-1.474-1.07-3.447-1.38-5.193-.906-1.009.274-1.729,1.435-1.397,2.46.335,1.034,1.378,1.691,2.46,1.397h0Z"/><path class="i" d="M135.71,225.024c-1.724-.526-3.726-.235-5.214.792-1.727,1.191-2.628,3.079-2.713,5.155-.169,4.112,2.998,7.399,6.574,8.877.97.401,2.241-.433,2.46-1.397.266-1.166-.358-2.031-1.397-2.46.427.177-.09-.052-.14-.077-.154-.077-.306-.159-.455-.245-.279-.161-.537-.349-.806-.525-.113-.084-.095-.068.054.045-.069-.055-.137-.111-.204-.169-.112-.095-.223-.193-.33-.293-.258-.241-.495-.499-.728-.764-.367-.418.198.311-.114-.144-.097-.142-.195-.283-.284-.43-.074-.121-.144-.244-.21-.369-.04-.075-.078-.151-.114-.228.075.191.086.219.034.084-.103-.299-.205-.594-.273-.905-.018-.082-.068-.609-.038-.147-.011-.172-.028-.34-.032-.513-.003-.17.011-.34.013-.51.005-.384-.057.171.003-.053.079-.298.135-.591.247-.88-.165.422.031-.025.084-.117.06-.102.343-.43.031-.089.101-.111.195-.223.304-.328.092-.089.453-.322.053-.065.104-.067.205-.138.313-.2.052-.03.5-.257.226-.13-.271.126.117-.036.178-.055.143-.044.287-.074.432-.11.459-.115-.416.003.056-.005.148-.002.295-.002.444-.002.408,0-.372-.115.054,0,.143.039.287.069.429.113,1.001.306,2.225-.364,2.46-1.397.246-1.081-.325-2.133-1.397-2.46h0Z"/><path class="i" d="M167.164,237.399c-1.062,3.126-2.986,6.04-5.615,8.072-2.613,2.02-5.791,2.77-9.046,2.82-3.322.051-6.626-.715-9.356-2.654-2.756-1.958-4.763-4.937-5.872-8.104-.845-2.414-4.711-1.375-3.857,1.063,1.406,4.017,3.809,7.572,7.227,10.143,3.378,2.541,7.665,3.616,11.857,3.552,4.106-.063,8.077-1.077,11.369-3.599,3.388-2.595,5.782-6.209,7.148-10.23.83-2.443-3.032-3.491-3.857-1.063h0Z"/><path class="i" d="M139.569,235.872c-.252.715-.355,1.501-.382,2.255-.026.719.04,1.488.263,2.174.275.845.768,1.69,1.587,2.111.509.262,1.066.391,1.64.343.602-.05,1.213-.182,1.727-.521,1.103-.726,1.695-1.909,1.707-3.222.005-.51-.226-1.055-.586-1.414-.347-.347-.916-.608-1.414-.586-1.092.049-1.989.879-2,2,0,.096-.006.192-.017.287l.071-.532c-.025.18-.068.352-.137.52l.202-.478c-.055.125-.121.241-.202.351l.313-.405c-.083.105-.175.197-.28.28l.405-.313c-.096.071-.196.129-.304.178l.478-.202c-.151.063-.305.102-.466.124l.532-.071c-.142.015-.285.02-.427.003l.532.071c-.07-.011-.135-.03-.201-.056l.478.202c-.064-.029-.123-.063-.18-.104l.405.313c-.078-.06-.145-.128-.207-.205l.313.405c-.092-.12-.164-.25-.225-.389l.202.478c-.12-.284-.189-.584-.233-.889l.071.532c-.071-.533-.062-1.073.006-1.606l-.071.532c.051-.376.133-.746.259-1.104.165-.469.043-1.123-.202-1.541-.243-.415-.718-.811-1.195-.919-.512-.117-1.087-.091-1.541.202s-.739.682-.919,1.195h0Z"/><path class="i" d="M188.195,205.325c-.014-.079-.019-.171-.041-.247-.005-.016.052.451.03.228-.014-.139-.031-.277-.041-.416-.023-.303-.032-.608-.023-.911.007-.251.049-.502.057-.752,0-.031-.082.482-.035.274.015-.067.023-.135.035-.203.025-.132.054-.264.086-.395.055-.222.121-.441.197-.656.016-.045.034-.09.05-.135.098-.289-.091.207-.095.214.056-.111.102-.228.158-.339.096-.191.201-.378.315-.559.064-.102.131-.202.201-.299.026-.036.056-.071.079-.108.109-.175-.346.418-.122.159.28-.322.57-.613.89-.895.313-.276-.349.249-.101.075.081-.057.161-.116.244-.172.175-.118.356-.228.541-.33.171-.094.348-.175.524-.259.233-.112-.52.191-.095.045.104-.036.206-.074.31-.108.181-.058.364-.108.548-.151.091-.021.183-.04.275-.057.105-.02.499-.076.088-.02-.428.058.028.003.126-.004.104-.007.208-.012.311-.014.205-.004.408.008.613.021.437.028-.401-.073-.158-.026.097.019.196.034.293.055.215.047.425.109.633.183.987.352,2.233-.397,2.46-1.397.256-1.122-.34-2.083-1.397-2.46-2.044-.73-4.347-.343-6.255.585-2.122,1.032-3.724,3.011-4.4,5.257-.481,1.597-.437,3.256-.159,4.882.177,1.034,1.503,1.707,2.46,1.397,1.115-.361,1.586-1.352,1.397-2.46h0Z"/><path class="i" d="M119.882,206.389c.256-1.495.302-2.964-.044-4.451-.299-1.283-.917-2.422-1.724-3.448-1.286-1.634-3.312-2.779-5.366-3.076-1.23-.178-2.494-.172-3.679.251-.983.351-1.747,1.379-1.397,2.46.313.969,1.405,1.773,2.46,1.397.161-.057.323-.108.489-.149.084-.021.168-.039.253-.056.223-.043.543.005-.125.009.374-.002.738-.048,1.114-.02.05.004.25-.008.274.026.012.017-.579-.094-.296-.039.039.008.079.013.118.02.198.035.395.078.59.131.184.05.366.107.546.172.167.06.517.254-.094-.05.099.049.203.09.303.139.369.18.711.396,1.048.63.341.237-.33-.277-.1-.077.076.066.154.129.229.197.162.146.317.299.464.46.079.087.154.178.23.266.208.241-.277-.387-.095-.124.138.199.273.396.394.606.108.188.201.382.294.578.139.295-.17-.469-.04-.083.041.122.087.243.125.366.084.271.151.546.201.825.009.05.014.103.026.152.055.24-.052-.512-.022-.169.012.143.027.285.035.428.016.299.016.599,0,.898-.009.177-.023.353-.043.529-.007.06-.016.12-.021.18.053-.608.019-.174-.003-.042-.093.544-.087,1.049.202,1.541.243.415.718.811,1.195.919.97.221,2.272-.294,2.46-1.397h0Z"/><path class="i" d="M204.663,269.598c2.382.161,5.151-.502,6.809-2.326.792-.871,1.149-1.938,1.438-3.056.207-.802.201-1.344,1.078-1.509,1.273-.239,2.559-.009,3.807-.47,1.293-.478,2.23-1.402,2.792-2.654.442-.984.563-2.263,1.469-2.957.928-.711,2.195-.628,3.295-.736,1.075-.105,2-.844,2-2,0-1-.918-2.106-2-2-1.482.145-2.961.164-4.346.775-1.231.544-2.29,1.432-2.983,2.596-.341.571-.551,1.213-.758,1.842-.115.349-.235.944-.521,1.207-.618.567-1.988.319-2.756.397-1.383.14-2.683.553-3.631,1.614-.778.871-1.078,1.978-1.367,3.08-.232.889-.465,1.372-1.379,1.785-.92.416-1.956.478-2.947.411-1.079-.073-2,.971-2,2,0,1.143.918,1.927,2,2h0Z"/><path class="i" d="M99.596,265.598c-.995.067-2.022,0-2.947-.411-.871-.386-1.121-.828-1.347-1.661-.302-1.112-.572-2.199-1.323-3.108-.936-1.133-2.289-1.562-3.707-1.71-.767-.08-2.105.164-2.737-.383-.271-.235-.387-.76-.496-1.086-.209-.624-.399-1.266-.722-1.844-.682-1.222-1.791-2.17-3.062-2.729-1.388-.61-2.861-.63-4.346-.775-1.077-.106-2,.995-2,2,0,1.169.92,1.894,2,2,1.104.108,2.361.03,3.295.736.849.642.98,1.793,1.369,2.718.546,1.299,1.421,2.315,2.755,2.837,1.294.506,2.616.285,3.945.526.844.154.844.619,1.047,1.384.295,1.117.615,2.183,1.381,3.08,1.628,1.907,4.487,2.589,6.897,2.426,1.078-.073,2-.867,2-2,0-1.026-.917-2.073-2-2h0Z"/><rect class="j" x="2.13" y="187.066" width="300" height="13" rx="1" ry="1"/><path class="i" d="M3.13,202.066h293.034c1.464,0,2.93.021,4.395,0,.287-.004.553-.004.837-.036,3.794-.425,2.734-6.132,2.734-8.759,0-2.717.977-7.94-3-8.205-.199-.013-.403,0-.601,0H5.319c-.888,0-1.841-.097-2.721.071-3.452.662-2.468,5.905-2.468,8.429,0,2.552-.983,7.732,2.468,8.429,2.513.507,3.589-3.347,1.063-3.857,1.388.28.301,1.351.468.681.038-.154,0-.354,0-.514v-9.478c0-.151.048-.417,0-.557-.015-.045.024-.123,0-.163-.237-.395.44,1.693-.998.959.045.023.126-.014.174,0,.955.273,2.393,0,3.376,0h289.65c1.393,0,2.868.138,4.256,0,.094-.009.333.05.413,0,.454-.287-1.096-.832-.871-.959-.259.145,0,3.116,0,3.439v5.216c0,.581-.093,1.256,0,1.831.013.079-.052.331,0,.381.079.077,1.008-.886.995-.909-.013-.022-.164.011-.188,0-.278-.127-.916,0-1.218,0H3.13c-2.574,0-2.578,4,0,4Z"/></g></svg>
