<svg id="b" xmlns="http://www.w3.org/2000/svg" width="254.176" height="294.569" viewBox="0 0 254.176 294.569" style="color: initial !important;"><defs><style>.e{fill:#211715;}.f{fill:#ffffff;}.g{fill:#f8b8b4;}.h{fill:#f2635f;}.i{fill:#645d5c;}</style></defs><g id="c"><g id="d"><path class="i" d="M39.688,149.375c-6.856-5.034-9.188-11.2-9.474-16.274-.944-15.967,5.436-36.331,4.221-55.846-1.88-10.26-1.665-22.47-.077-30.56,1.712-8.724,5.987-18.478,11.826-25.145C56.299,10.003,71.23,3.11,89.675,2.473c13.006-.449,25.967,2.518,40.073,14.518,11.744,7.737,20.297,26.714,20.44,42.935.035,4.008.036,14.431-1.113,21.573-1.31,24.821,2.163,38.984,4.082,45.966,1.561,5.601,2.214,10.035,1.875,15.715-.236,4.313-.678,11.725-12.929,15.733l-102.414-9.538Z"/><path class="f" d="M63.672,135.611c-5.154-1.679-9.928-4.482-14.521-8.458-8.443-7.309-11.894-18.561-12.906-30.925-.584-7.13-1.049-14.875-1.853-22.623,0,0-.021-.2-.042-.4l1.766-1.13c.736-.471,1.892-1.14,2.853-1.77,8.792-5.722,18.244-12.817,27-19.642.364-.284.872.085.713.518-.917,2.496-1.463,5.122-1.758,7.853-.155,1.433,1.197,2.563,2.593,2.205,13.304-3.411,25.802-9.984,34.378-18.871,1.416,5.48,3.639,11.84,5.11,15.492,2.31,5.735,8.683,15.681,14.701,19.054,3.188,1.737,6.545,2.671,10.176,2.534,1.751-1.181,3.914-1.407,5.687-1.087,3.858.695,5.219,2.935,5.756,4.209,1.603,3.812.571,10.244-1.44,14.031-1.417,2.677-3.567,6.383-7.996,8.9-1.395.789-4.914,1.868-8.107,1.437,2.33-1.588-3.186,6.43-3.186,6.43-2.75,3.839-5.722,7.426-9.529,10.896.423,2.41.847,4.82,1.27,7.23.331,1.886.667,3.788,1.388,5.561,1.892,4.652,8.978,6.811,14.892,8.388-13.449,11.945-29.74,17.403-45.678,17.431-6.187,0-12.472-.787-18.237-3.375-5.492-2.484-10.138-6.584-13.302-11.996,3.885-1.332,8.154-2.761,10.874-3.947,2.939-.98,6.677-2.898,6.639-6.353-2.504-.304-4.912-.833-7.242-1.592Z"/><path class="e" d="M68.515,137.197c-.033,1.538-1.572,2.579-3.099,3.332-1.793.885-3.411,1.406-5.355,2.119-4.309,1.578-8.704,2.92-12.984,4.575-1.208.467-2.044,1.613-1.676,2.952.317,1.155,1.737,2.146,2.952,1.676,4.775-1.846,9.694-3.296,14.473-5.133,4.339-1.668,10.363-3.681,10.488-9.522.066-3.09-4.734-3.089-4.8,0h0Z"/><path class="e" d="M142.741,161.227c5.667-1.893,11.002-5.104,13.349-10.84.742-1.813,1.071-3.727,1.24-5.672.266-3.063.269-6.157-.098-9.211-.599-4.989-2.168-9.739-3.244-14.628-1.06-4.819-1.739-9.444-2.177-14.284-.755-8.341-.768-16.733-.336-25.092l-1.762,2.314h.005c.735-.224,1.549-.864,1.676-1.678.701-4.48.978-9.013,1.112-13.542.106-3.57.202-7.176.018-10.746-.478-9.276-3.204-18.488-7.578-26.666-2.316-4.331-5.189-8.417-8.658-11.904-2.182-2.193-5.576,1.201-3.394,3.394,5.832,5.863,9.805,13.503,12.25,21.348,1.284,4.12,2.189,8.376,2.508,12.684.252,3.398.168,6.836.096,10.24-.098,4.638-.264,9.328-.982,13.917l1.676-1.676h-.005c-1.058.322-1.706,1.233-1.762,2.316-.651,12.608-.288,25.349,2.093,37.775.719,3.751,1.764,7.398,2.673,11.102.885,3.606,1.349,7.237,1.268,10.954-.024,1.099-.079,2.203-.171,3.299-.03.353-.066.705-.11,1.057.064-.506.001-.024-.038.193-.041.222-.08.444-.128.665-.106.495-.235.985-.391,1.467-.076.235-.161.467-.247.698-.009.024-.145.354-.043.115.099-.234-.084.178-.104.217-.262.518-.53,1.027-.849,1.513-.374.571-.387.589-.854,1.109-2.201,2.449-5.225,3.905-8.309,4.936-2.915.974-1.665,5.611,1.276,4.629h0Z"/><path class="e" d="M31.745,73.782c1.247,11.541-.378,23.096-1.971,34.518-.752,5.39-1.52,10.791-1.874,16.225-.289,4.438-.509,9.158.718,13.484,1.581,5.574,5.279,10.022,9.859,13.439,1.04.776,2.681.169,3.284-.861.716-1.225.181-2.506-.861-3.284-3.51-2.618-6.372-6.181-7.61-10.422-1.127-3.86-.86-8.202-.589-12.356.697-10.702,2.859-21.251,3.805-31.93.554-6.258.716-12.558.04-18.813-.139-1.289-1.003-2.4-2.4-2.4-1.189,0-2.54,1.103-2.4,2.4h0Z"/><path class="e" d="M83.757,87.284c-.61-2.535.246-8.226,4.989-8.418,6.226.427,6.125,7.365,3.825,10.487-1.883,2.556-6.999,3.348-8.814-2.069Z"/><path class="e" d="M46.708,86.134c-.552-2.541.248-8.252,4.592-8.458,5.701.411,5.589,7.371,3.475,10.509-1.731,2.569-6.419,3.377-8.066-2.051Z"/><path class="e" d="M65.81,92.577c-.832,1.315-1.639,2.655-2.352,4.039-.277.537-.566,1.09-.67,1.69-.21,1.215.072,2.35.993,3.214.584.548,1.216.933,1.977,1.181.497.162,1.032.175,1.547.244l-.638-.086c.041.006.082.012.122.02.65.114,1.261.103,1.849-.242.498-.291.973-.862,1.103-1.434.14-.614.11-1.304-.242-1.849-.32-.497-.828-.997-1.434-1.103-.383-.067-.77-.105-1.155-.153l.638.086c-.231-.032-.453-.083-.671-.168l.573.242c-.178-.078-.339-.172-.498-.284l.486.375c-.184-.143-.358-.298-.505-.48l.375.486c-.036-.05-.065-.104-.087-.162l.242.573c-.022-.057-.037-.116-.045-.176l.086.638c-.009-.098-.009-.185-.002-.282l-.086.638c.03-.206.09-.397.168-.59l-.242.573c.364-.831.844-1.622,1.301-2.404.425-.727.861-1.45,1.311-2.162.673-1.063.257-2.693-.861-3.284-1.184-.626-2.566-.273-3.284.861h0Z"/><path class="e" d="M111.55,128.702c3.919-3.141,7.43-6.718,10.526-10.671,2.16-2.76,4.282-5.649,5.909-8.764.6-1.148.295-2.608-.861-3.284-1.08-.632-2.681-.292-3.284.861-3.729,7.137-9.443,13.462-15.684,18.464-1.012.811-.846,2.548,0,3.394,1,1,2.379.813,3.394,0h0Z"/><path class="e" d="M126.55,11.43C117.966,5.188,108.163,1.21,97.564.266c-9.525-.849-19.527.346-28.572,3.448-8.486,2.91-16.32,7.638-22.598,14.076-7.006,7.186-11.654,16.629-13.938,26.356-2.586,11.016-2.323,23.081-.259,34.154.238,1.275,1.778,1.999,2.952,1.676,1.338-.368,1.915-1.674,1.676-2.952-1.724-9.25-1.968-19.241-.366-28.531,1.546-8.965,5.3-18.175,11.296-25.099,11.518-13.301,29.158-19.077,46.425-18.53,11.007.349,21.08,4.265,29.947,10.712,1.049.763,2.675.179,3.284-.861.71-1.214.19-2.519-.861-3.284h0Z"/><path class="e" d="M98.313,130.105c-12.223,5.21-26.528,7.435-38.822,1.2-5.667-2.874-10.908-7.032-14.299-12.46-3.456-5.532-5.194-11.961-6.091-18.374-.576-4.115-.773-8.289-1.082-12.43-.359-4.816-.732-9.631-1.227-14.435-.133-1.289-1.008-2.4-2.4-2.4-1.195,0-2.534,1.103-2.4,2.4.88,8.545,1.151,17.16,2.159,25.689.842,7.127,2.516,14.246,6.055,20.552,7.007,12.488,21.383,19.922,35.476,20.062,8.739.087,17.075-2.258,25.055-5.659,1.193-.508,1.457-2.265.861-3.284-.722-1.234-2.086-1.371-3.284-.861h0Z"/><path class="e" d="M133.093,81.521c2.359-1.484,5.703-1.012,7.434.969.265.303-.164-.247.05.059.061.087.123.175.177.267.098.168.194.337.287.508.041.076.078.156.113.235.132.291-.141-.391.021.078.121.352.225.709.308,1.072.331,1.459.28,3.033.119,4.511-.607,5.564-3.971,11.561-9.005,14.252-.305.163-.402.201-.442.216-.3.118-.606.221-.914.316-.722.223-1.471.411-2.22.521-1.535.224-3.296.22-4.713-.486-2.757-1.373-5.191,2.766-2.423,4.145,3.581,1.783,7.998,1.534,11.665.087,3.792-1.496,6.818-4.573,8.978-7.965,2.128-3.342,3.416-6.958,3.855-10.899.393-3.534-.004-7.422-2.381-10.221-3.158-3.719-9.299-4.348-13.33-1.811-2.608,1.641-.202,5.796,2.423,4.145h0Z"/><path class="e" d="M99.658,43.315c1.811,6.834,3.968,13.937,7.403,20.153,3.212,5.812,7.555,12.138,13.432,15.52,2.682,1.543,5.102-2.603,2.423-4.145-2.582-1.486-4.661-3.732-6.529-6.021-2.039-2.497-3.805-5.246-5.345-8.075-3.078-5.653-5.062-12.319-6.756-18.708-.791-2.983-5.422-1.718-4.629,1.276h0Z"/><path class="e" d="M100.182,40.688c-7.801,8.017-17.969,13.508-28.565,16.878-1.294.411-2.597.793-3.908,1.143-.025.007-.843.242-.828.195.008-.026.343.106.344.108.23.392-.032.518.098.023.095-.363.094-.798.149-1.167.221-1.473.54-2.937.965-4.365.499-1.674,1.217-3.304-.38-4.657-1.381-1.17-2.89-.575-4.157.409-1.336,1.037-2.673,2.073-4.015,3.102-2.598,1.99-5.211,3.961-7.845,5.902-5.583,4.114-11.271,8.044-17.136,11.743-2.606,1.644-.2,5.799,2.423,4.145,10.545-6.651,20.508-14.129,30.338-21.787l-1.059.617.229-.097h-1.276l-.167-.078-.861-.861.099.204-.328-1.211c-.012.138-.297.655-.364.868-.155.494-.296.993-.425,1.495-.26,1.013-.469,2.038-.634,3.071-.309,1.93-.72,3.904.566,5.572,1.261,1.637,3.201,1.987,5.124,1.506,1.868-.468,3.718-1.04,5.544-1.651,7.068-2.365,13.911-5.594,20.052-9.833,3.372-2.328,6.552-4.943,9.411-7.881,2.156-2.215-1.235-5.613-3.394-3.394h0Z"/><path class="e" d="M110.817,125.276c.577,3.282,1.021,6.623,1.796,9.865.624,2.612,1.71,4.974,3.791,6.734,3.932,3.327,9.178,4.716,14.057,6.007,2.989.791,4.264-3.838,1.276-4.629-2.257-.597-4.513-1.216-6.706-2.024-.999-.368-1.886-.744-2.848-1.246-.827-.432-1.866-1.066-2.385-1.503-.359-.303-.688-.632-1.008-.975-.245-.262-.284-.311-.567-.797-.627-1.076-.891-2.378-1.149-3.592-.641-3.016-1.095-6.081-1.629-9.118-.224-1.277-1.788-1.996-2.952-1.676-1.348.371-1.901,1.671-1.676,2.952h0Z"/><path class="e" d="M91.954,70.836c.92.882,1.995,1.645,3.157,2.174.648.295,1.311.571,1.999.764s1.396.292,2.105.368c.573.061,1.306-.312,1.697-.703.416-.416.73-1.099.703-1.697-.028-.621-.232-1.264-.703-1.697l-.486-.375c-.374-.217-.778-.326-1.211-.328-.083-.009-.165-.019-.248-.029l.638.086c-.811-.112-1.597-.337-2.354-.649l.573.242c-.785-.332-1.525-.756-2.204-1.272l.486.375c-.264-.205-.516-.422-.757-.653-.451-.432-1.068-.703-1.697-.703-.589,0-1.292.261-1.697.703-.42.457-.732,1.058-.703,1.697.028.629.237,1.251.703,1.697h0Z"/><path class="e" d="M107.388,84.059c-.206,1.954-.358,3.915-.33,5.88.027,1.888.019,4.125,1.075,5.771,1.263,1.968,3.695,2.635,5.898,2.265,1.931-.325,3.478-1.807,4.237-3.561.497-1.149.379-2.629-.861-3.284-1.035-.547-2.751-.369-3.284.861-.126.29-.263.575-.432.843l-.086.132c-.12.168-.12.171,0,.008.125-.159.121-.16-.013-.003l-.109.112c-.055.055-.113.108-.174.158-.135.115-.078.069.171-.137-.246-.017-.38.475-.005.056-.07.078-.311.102-.404.125-.438.107-.067-.063.077.005-.064-.03-.416.009-.493.009-.517.003.481.148-.014,0-.129-.039-.263-.08-.393-.111-.258-.063.402.254.056.014-.094-.052-.184-.108-.272-.169l.236.178c-.06-.052-.117-.108-.17-.168-.124-.136-.078-.073.137.188l-.075-.126c-.089-.182-.092-.179-.008.007.078.192.081.188.009-.013-.025-.079-.048-.159-.068-.239-.035-.135-.065-.272-.091-.409-.016-.082-.029-.164-.042-.246-.029-.188-.018-.109.033.238.098-.147-.075-.914-.084-1.077-.047-.799-.062-1.6-.051-2.401.022-1.64.158-3.274.329-4.904.132-1.253-1.198-2.454-2.4-2.4-1.413.063-2.259,1.058-2.4,2.4h0Z"/><path class="e" d="M67.466,116.669c.311-.217.664-.385.969-.604.237-.17-.349.075.054-.027.107-.027.217-.057.323-.088.424-.127-.303-.029-.11.019.085.021.284.007.365.001.291-.022-.027-.007-.155-.035l.183.053c-.243-.102-.287-.108-.132-.019.11.074.116.074.017-.001-.129-.105-.094-.074.104.091.119.105.237.212.356.318.331.295.665.581,1.017.851.839.641,1.857,1.007,2.923.996.979-.01,1.873-.356,2.695-.859.323-.197.647-.392.989-.554.381-.18-.453.114.256-.097.159-.047.32-.099.484-.128-.37.067.091.019.181.019.185,0,.484.136.044-.007.127.041.266.057.396.093.059.017.58.213.3.09-.264-.116.741.495.32.158.114.091.213.197.32.295.436.395-.156-.288.169.219.699,1.09,2.132,1.535,3.284.861,1.085-.635,1.564-2.188.861-3.284-1.106-1.724-2.855-2.864-4.889-3.137-1.014-.136-2.014-.076-2.985.277-.553.201-1.101.448-1.616.734-.181.101-.358.209-.535.317-.078.048-.542.448-.25.18l-.218.057c.232-.027.261-.039.084-.036-.252.039.137.064.243.094-.208-.133-.259-.157-.153-.072.111.095.061.053-.151-.127-.156-.136-.309-.275-.464-.414-.755-.675-1.554-1.336-2.556-1.595-1.816-.469-3.662.185-5.144,1.217-1.062.74-1.552,2.102-.861,3.284.615,1.052,2.215,1.605,3.284.861h0Z"/><path class="g" d="M76.453,162.284c-3.338-.506-6.621-1.38-9.751-2.784-5.763-2.607-10.594-6.993-13.758-12.804-12.04,1.809-19.602,4.936-27.581,12.365-4.411,4.107-8.119,8.687-10.679,14.167-1.08,2.312-2.643,5.949-4.264,10.517-2.62,7.38-5.394,17.191-6.537,27.779-1.512,14.006-1.443,29.44-1.489,35.089-.529,22.367,8.07,30.716,10.41,33,2.289,2.234,9.23,5.679,12.351,6.05,18.286,2.175,25.216,1.233,43.226-1.087.719-.093,1.455-.187,2.21-.284,4.64-.595,10.427-1.46,11.698-6.136.187-.689.251-1.399.251-2.116,7.613-2.153,23.63-6.666,32.55-8.587,1.84-.396,3.682-.533,5.521-.515-2.131,8.065-4.635,17.496-6.293,23.669h44.892c5.996-27.396,11.514-50.442,16.41-76.443,1.983-10.533,2.705-27.017-.683-37.186-5.168-15.51-18.157-26.192-42.88-32.848-13.716,12.86-30.607,18.716-47.118,18.745-2.828,0-5.676-.164-8.486-.59Z"/><path class="e" d="M50.893,147.944c12.511,22.554,44.31,19.974,64.452,10.482,6.283-2.961,12.057-6.905,17.237-11.524,2.31-2.06-1.094-5.445-3.394-3.394-8.275,7.378-18.243,12.642-29.038,15.196-5.06,1.197-10.237,1.783-15.436,1.77-5.933-.015-12.1-.761-17.498-3.374-5.206-2.519-9.376-6.529-12.177-11.579-1.499-2.702-5.646-.284-4.145,2.423h0Z"/><path class="e" d="M138.691,148.63c8.986,3.033,17.898,7.256,24.683,14.035,5.816,5.81,9.438,13.163,10.744,21.278.819,5.091.894,10.327.696,15.469-.188,4.89-.688,9.762-1.594,14.572-2.268,12.037-4.8,24.023-7.43,35.986-3.05,13.873-6.215,27.721-9.244,41.599-.657,3.011,3.969,4.297,4.629,1.276,5.477-25.085,11.411-50.075,16.24-75.297,2.014-10.519,3.03-21.366,1.728-32.045-1.101-9.033-4.461-17.363-10.501-24.237-7.497-8.534-18.08-13.689-28.674-17.265-2.933-.99-4.192,3.644-1.276,4.629h0Z"/><path class="e" d="M135.113,200.979c-6.182,24.171-12.313,48.353-18.707,72.469-1.461,5.509-2.924,11.017-4.403,16.521-.802,2.987,3.827,4.261,4.629,1.276,5.583-20.779,10.989-41.601,16.32-62.445,2.263-8.848,4.526-17.696,6.789-26.544.766-2.994-3.862-4.271-4.629-1.276h0Z"/><path class="f" d="M166.202,255.194c-.274-.416-.631-.798-1.071-1.099,0,0-.557-.381-1.386-.946.209-.031.422-.063.64-.096,2.243-.337,3.47-.824,5.062-1.643,1.604-.825,2.339-2.474,2.292-4.262-.035-1.317-1.317-3.236-3.354-3.69,0,0-.707-.157-1.787-.396,1.33-.566,2.486-1.441,2.905-2.552.446-1.182.26-2.973-.332-3.915-.713-1.134-2.037-2.095-4.002-2.022-4.019.149-11.4-.097-15.522-.031-7.975-.23-11.046-.629-17.407-1.728.142-.137.242-.233.242-.233l1.75-1.683c4.116-3.925,3.707-7.959.497-9.255-2.687-1.085-6.695.756-9.435,1.699-8.394,2.887-15.292,8.305-19.759,13.825-2.756,1.814-9.21,2.86-14.371,3.212l-12.195.831c1.147,10.675,2.64,22.253,3.47,32.771.054.681.106,1.371.103,2.056.399-.113.637-.18.637-.18,7.84-2.216,23.233-6.537,31.909-8.406,6.539-1.408,13.095.462,19.525.917,7.382.522,13.444.122,20.228-.685,3.658-.435,6.958-2.915,5.194-6.304,3.068-.592,5.571-.552,6.692-3.186.321-.754.146-1.98-.526-3Z"/><path class="e" d="M88.7,243.042c4.187-.296,8.41-.847,12.499-1.803,1.715-.401,3.476-.882,5.043-1.706.865-.455,1.386-1.166,2.018-1.886.771-.878,1.58-1.724,2.42-2.536,3.402-3.289,7.345-5.98,11.628-7.99,2.1-.986,4.315-1.747,6.508-2.5,1.531-.526,3.834-1.465,5.344-.583.132.077.396.333.455.424.024.038.241.501.157.297.017.041.04.178.047.248.087.899-.31,1.703-.825,2.503-.829,1.287-2.109,2.32-3.209,3.377-2.231,2.145,1.166,5.536,3.394,3.394,2.868-2.757,6.241-6.071,5.287-10.454-.483-2.221-2.251-3.953-4.403-4.604-2.527-.764-5.298-.006-7.705.833-5.119,1.783-10.031,3.854-14.464,7.024-2.178,1.557-4.252,3.271-6.145,5.166-.775.776-1.522,1.58-2.235,2.414-.591.691-.798.821-1.547,1.088-4.504,1.604-9.522,2.161-14.268,2.496-1.293.091-2.4,1.038-2.4,2.4,0,1.228,1.1,2.492,2.4,2.4h0Z"/><path class="e" d="M83.818,278.172c9.208-2.602,18.425-5.207,27.729-7.446,2.348-.565,4.713-1.209,7.132-1.345,3.222-.181,6.436.226,9.623.657,6.345.858,12.656,1.176,19.051.759,5.378-.351,15.029-.165,15.573-7.5.096-1.294-1.172-2.4-2.4-2.4-1.379,0-2.304,1.102-2.4,2.4-.118,1.59-3.353,2-4.631,2.143-2.767.31-5.541.555-8.323.676-6.114.266-12.079-.263-18.134-1.047-3.085-.399-6.207-.709-9.316-.416-2.417.227-4.773.805-7.129,1.368-4.649,1.112-9.271,2.338-13.885,3.588-4.73,1.282-9.45,2.602-14.166,3.935-2.968.839-1.707,5.472,1.276,4.629h0Z"/><path class="e" d="M131.562,235.123c4.063.7,8.133,1.307,12.25,1.569,4.415.281,8.833.238,13.255.293,2.111.026,4.222.055,6.333.029,1.323-.016,3.285-.367,3.823,1.063.653,1.734-.798,2.597-2.281,3.036-2.202.651-4.741.602-7.022.796-5.8.494-11.525.276-17.328.019-3.088-.137-3.082,4.664,0,4.8,5.734.254,11.394.478,17.125-.002,4.663-.39,12.61-.118,14.201-5.885.686-2.486-.052-5.383-2.047-7.052-2.107-1.762-4.553-1.586-7.125-1.57-4.827.03-9.688.045-14.511-.121-5.231-.179-10.264-.72-15.396-1.605-1.276-.22-2.585.34-2.952,1.676-.317,1.155.392,2.731,1.676,2.952h0Z"/><path class="e" d="M167.748,245.773c.521.14.93.346,1.27.79.378.494.368.612.321.941-.173,1.205-.639,1.623-1.723,2.145-2.691,1.296-6.006,1.474-8.944,1.732-3.589.315-7.211.29-10.81.289-2.703,0-5.437.041-8.133-.2-1.293-.116-2.4,1.186-2.4,2.4,0,1.394,1.104,2.284,2.4,2.4,3.575.32,7.218.219,10.803.189,4.266-.036,8.458-.231,12.684-.826,3.576-.504,8.371-1.298,10.143-4.93,1.916-3.928-.087-8.413-4.334-9.558-2.986-.805-4.26,3.824-1.276,4.629h0Z"/><path class="e" d="M163.92,256.167c.17.128.35.422.434.607.162.354.128.657.129.654.116-.288-.306.396-.334.423-.194.192-.489.314-.757.414-2.429.911-5.401.996-7.966,1.211-5.33.447-10.624.013-15.949-.295-3.086-.179-3.076,4.622,0,4.8,3.565.206,7.132.512,10.705.524,3.28.011,6.553-.296,9.8-.74,3.085-.422,6.554-.759,8.412-3.608,1.874-2.874.471-6.234-2.052-8.135-1.036-.781-2.683-.166-3.284.861-.719,1.229-.177,2.501.861,3.284h0Z"/><path class="e" d="M58.104,143.624c-6.161.703-12.388,1.599-18.252,3.694-5.211,1.862-9.897,4.645-14.121,8.21-5.159,4.355-9.752,9.648-12.755,15.728-2.144,4.341-3.884,8.92-5.444,13.498-2.238,6.566-4.002,13.305-5.141,20.15-1.247,7.499-1.735,15.121-2.045,22.709-.236,5.781-.311,11.565-.342,17.351-.033,6.116.124,12.172,1.488,18.165,1.512,6.639,4.449,13.097,9.349,17.919,1.563,1.539,3.472,2.708,5.398,3.735,2.348,1.252,4.904,2.49,7.519,3.059,3.292.716,6.836.841,10.192,1.093,2.966.222,5.939.355,8.913.352,5.717-.006,11.405-.56,17.075-1.244,3.605-.435,7.206-.905,10.808-1.373,2.89-.375,5.771-.772,8.456-1.966,2.613-1.161,4.788-3.285,5.453-6.139.456-1.957.24-3.947.075-5.924-.158-1.897-.333-3.792-.52-5.686-.765-7.77-1.714-15.52-2.572-23.28-.195-1.761-.066-3.99-1.035-5.532-1.084-1.725-2.974-2.205-4.878-1.911-3.007.463-6.008.973-9.015,1.441-6.581,1.023-13.176,1.943-19.76,2.943-.604.092.381-.004-.241.026-.181.009-.362.029-.543.035-.253.008-1.314-.09-.704.015-.357-.061-.698-.15-1.041-.267.605.207-.649-.419-.497-.303.199.152-.229-.217-.299-.286-.078-.078-.412-.454-.327-.347-.125-.157-.563-.884-.757-1.286-.574-1.185-.913-2.638-1.171-3.975-1.449-7.51-2.836-15.033-3.879-22.613-.52-3.779-.94-7.571-1.291-11.369-.119-1.291-1.018-2.4-2.4-2.4-1.206,0-2.52,1.102-2.4,2.4.707,7.653,1.746,15.271,3.046,22.845.622,3.628,1.331,7.237,2.013,10.854.523,2.776,1.069,5.669,2.739,8.025,1.169,1.649,2.801,2.915,4.812,3.32,2.411.486,4.89-.143,7.275-.491,6.095-.89,12.188-1.787,18.273-2.743,1.424-.224,2.847-.45,4.269-.679.741-.119,1.481-.24,2.222-.36.044-.007.842-.124.843-.128-.282-.1-.369-.128-.26-.084-.135-.278-.174-.304-.115-.08-.204.424.197,1.826.246,2.266.101.917.203,1.833.306,2.75.226,2.014.457,4.027.688,6.04.846,7.389,1.715,14.783,2.283,22.2.222,2.896.043,4.913-2.561,6.252-2.075,1.067-4.606,1.362-6.888,1.657-6.328.819-12.659,1.71-19.021,2.225-5.549.449-11.103.469-16.657.09-3.162-.216-6.415-.385-9.539-.921-2.295-.394-4.524-1.488-6.563-2.565-2.663-1.406-4.447-2.707-6.36-4.987-.185-.221-.365-.446-.545-.672.463.581-.187-.257-.293-.403-.422-.586-.821-1.188-1.199-1.804-.435-.71-.841-1.439-1.219-2.181-.209-.409-.408-.823-.6-1.24-.21-.457-.371-.838-.439-1.006-3.958-9.846-3.446-20.491-3.283-30.896.217-13.861.812-27.811,4.249-41.299,1.466-5.752,3.316-11.412,5.528-16.921.682-1.699,1.264-3.079,2.107-4.871,1.381-2.939,3.11-5.729,5.167-8.244,3.57-4.365,7.855-8.318,12.721-11.196,4.42-2.614,9.291-4.16,14.303-5.178,3.028-.615,6.087-1.045,9.156-1.396,1.288-.147,2.4-.998,2.4-2.4,0-1.183-1.104-2.548-2.4-2.4h0Z"/><path class="h" d="M193.329,212.398c10.977-.013,21.918,1.406,32.895,1.368,1.626-.006,2.644-1.524,2.314-3.038-.874-4.011-2.105-7.935-3.06-11.926l-2.314,3.038c9.562.313,19.133.227,28.696.55,3.09.104,3.086-4.696,0-4.8-9.562-.323-19.133-.237-28.696-.55-1.609-.053-2.665,1.572-2.314,3.038.955,3.991,2.186,7.915,3.06,11.926l2.314-3.038c-10.977.037-21.918-1.382-32.895-1.368-3.088.004-3.094,4.804,0,4.8h0Z"/><path class="h" d="M197.755,191.464c7.552-4.039,15.256-7.785,22.799-11.84,1.456-.783,1.441-2.642.486-3.769-2.655-3.131-5.585-6.017-8.302-9.092l-.486,3.769c7.976-3.905,15.989-7.734,23.969-11.63,1.165-.569,1.48-2.225.861-3.284-.695-1.188-2.115-1.432-3.284-.861-7.98,3.897-15.993,7.725-23.969,11.63-1.471.72-1.435,2.695-.486,3.769,2.717,3.076,5.647,5.961,8.302,9.092l.486-3.769c-7.543,4.056-15.247,7.802-22.799,11.84-2.725,1.457-.303,5.602,2.423,4.145h0Z"/></g></g></svg>
