<svg id="b" xmlns="http://www.w3.org/2000/svg" width="312.944" height="392.005" viewBox="0 0 312.944 392.005" style="color: initial !important;"><defs><style>.d{fill:#211715;}.d,.e,.f,.g,.h{stroke-width:0px;}.e{fill:#f2635f;}.f{fill:#645d5c;}.g{fill:#ffffff;}.h{fill:#c6c6c6;}</style></defs><g id="c"><path class="g" d="M210.416,130.859c-3.963,11.167-6.869,20.565-9.238,30.29-13.973,1.204-27.425,2.314-40.876,3.408-.79.06-1.41.75-1.38,1.53.2,7.09.83,18.95,1.87,27.28.09.72.71,1.26,1.44,1.26,17.479.127,31.395-.345,46.787-2.208-2.231,11.203-3.29,22.676-3.177,34.148.045,4.55.427,9.51,3.237,12.86,1.719,2.04,4.129,3.19,6.547,4,4.62,1.54,9.467,2.02,14.268,2.49,7.148.7,14.295,1.4,21.443,2.11,1.582.15,3.174.31,4.774.41-.73-3.77-1.42-7.54-2.07-11.31-1.22-7.04-2.32-14.24-1.06-21.27,1.55-8.7,6.56-16.43,10.47-24.44,2.436-5,4.456-10.152,6.302-15.369.662-7.361,1.367-13.464,1.708-20.062.56-10.91.6-21.69-1.52-32.41-2.51-12.69-4.96-17.92-11.03-29.39,0,0-.37-1.04-.8-2.2-.298-.796-.616-1.641-.88-2.271.327-.165-4.598,1.382-8.73,2.731,0,0-5.097,1.776-9.083,3.54-3.699,1.637-8.917,4.97-8.917,4.97-1.31.94-2.31,1.81-3.11,2.61-6.45,6.44-9.83,10.23-14.61,20.75-.829,2.254-1.616,4.43-2.366,6.543Z"/><path class="g" d="M264.258,69.251c.386-.496.796-1.022,1.235-1.59,4.502-5.819,10.141-13.953,8.423-28.505-.95-8.042-4.783-15.922-9.193-21.251-11.346-13.709-22.899-15.254-29.959-15.516s-13.723,1.426-19.629,4.039c-12.374,5.475-17.439,14.884-18.262,16.952-1.772,4.449-2.646,7.72-2.501,13.236-.145,2.519-.044,5.231.348,8.155.323,5.621.791,13.417-4.095,16.643-.97.641-1.797,1.504-2.172,2.6-.984,2.898,1.53,3.94,3.16,5.417,1.08.975,1.777,2.163,2.267,3.468.257,1.819.891,4.984,1.844,7.979.629,1.972,1.401,3.877,2.3,5.257,1.908,2.955,4.134,4.319,6.368,4.922,4.38,1.182,10.237,1.229,13.909-.117.88-.324,1.993-.838,3.053-1.26,1.018-.304,2.099.209,2.527,1.181.154.35.885,1.702,1.602,3.554.752,1.941,2.398,6.469,2.398,6.469l.605,1.665c.575-.504,1.241-1.036,2.016-1.591,0,0,5.218-3.333,8.917-4.97,3.986-1.764,9.083-3.54,9.083-3.54,3.01-.982,6.44-2.07,7.955-2.524-.119-.66-.197-1.313-.245-1.976-.27-3.61.17-7.92,2.704-11.504,1.81-2.684,3.227-4.479,5.341-7.192Z"/><path class="g" d="M106.534,388.57c-2.741-.497-5.152-1.405-6.957-2.784-1.092-.834-1.9-2.03-2.163-3.185-.595-2.62.349-5.699,2.532-7.874,3.223-3.211,17.446-9.607,23.378-11.914l3.947-1.535c9.551-.138,19.102-.276,28.653-.414,4.748,4.497,6.511,11.044,6.382,14.903-.091,2.739-.607,5.105-2.312,7.427-1.839,2.506-4.823,4.421-8.233,4.823-3.51.414-29.703.86-39.105,1.012-2.139.034-4.211-.112-6.122-.458Z"/><path class="g" d="M108.914,171.53c.111-.185.225-.358.342-.517,2.754-3.749,4.5-6.817,7.915-9.976,3.164-2.927,7.728-4.977,12.032-4.74,3.547.195,7.484,1.39,10.578,3.135,4.649,2.621,11.113,6.384,18.228,10.06l4.637,1.097c-.265,5.365-.489,11.619-.468,17.255-5.072.965-10.925,2.089-10.925,2.089-5.735,1.043-9.102.478-14.33-2.717-2.753-1.682-5.385-3.338-8.38-1.265-1.859,1.287-2.283,2.313-4.076,4.216-1.052,1.117-2.097,1.423-4.074.66-.896-.346-1.242-2.023-1.007-3.404.254-1.486.567-2.796.922-4.014-1.207.522-2.297.994-2.297.994-1.028,1.103-4.153,1.305-5.414.242-1.589-1.338-1.109-4.447.752-6.877-1.005.092-1.816.166-1.816.166-1.3.175-3.105-.838-3.523-2.26-.362-1.233.182-2.935.905-4.145Z"/><path class="d" d="M159.22,167.42c-4.724-2.446-9.371-5.033-13.996-7.659-4.183-2.374-8.267-4.735-13.092-5.523-5.097-.833-10.072.225-14.318,3.226-4.048,2.861-6.785,6.934-9.609,10.919-1.579,2.228-3.2,4.732-2.582,7.616.552,2.579,3.304,4.515,5.908,4.336,1.293-.089,2.4-1.039,2.4-2.4,0-1.23-1.1-2.489-2.4-2.4-1.289.089-1.4-.873-.952-1.996.682-1.709,2.135-3.257,3.189-4.756,2.201-3.129,4.635-6.224,8.006-8.155,3.55-2.033,7.274-2.316,11.197-1.32,3.774.958,6.992,2.988,10.344,4.889,4.455,2.527,8.933,5.012,13.482,7.367,2.739,1.418,5.17-2.722,2.423-4.145h0Z"/><path class="d" d="M119.672,166.218c-2.162,2.211-4.158,4.556-6.025,7.021-1.623,2.142-3.571,4.442-4.175,7.124-.636,2.824.188,5.84,3.08,6.957,2.248.868,5.393.506,7.155-1.218.927-.907.91-2.485,0-3.394-.928-.928-2.465-.909-3.394,0-.347.34.383-.239-.028.017-.426.266.421-.073-.108.049-.195.045-.391.102-.587.149-.571.137.399.032-.2.016-.211-.006-.43-.005-.64,0-.496.012.317.122-.185-.019-.151-.042-.321-.109-.473-.129-.19-.025.366.188-.081-.067-.144-.094-.096-.062.142.099-.153-.169-.17-.184-.052-.045.111.144.105.121-.019-.071.094.255.112.299.054.131-.022-.16-.093-.322-.123-.483.102.542.023-.073.025-.208.003-.125.097-.672.013-.273.05-.239.104-.475.174-.71.156-.52.172-.556.478-1.102.986-1.761,2.424-3.572,3.582-5.037,1.494-1.891,3.096-3.689,4.78-5.412.906-.927.924-2.47,0-3.394-.911-.911-2.485-.93-3.394,0h0Z"/><path class="d" d="M119.749,185.898c.613-1.005,1.265-1.986,1.963-2.934.069-.093.138-.187.208-.279.013-.017.354-.463.128-.171-.221.285.087-.11.133-.167.09-.113.18-.225.271-.337.363-.447.737-.885,1.12-1.315,1.535-1.721,3.224-3.295,5.016-4.745.98-.794.887-2.58,0-3.394-1.041-.955-2.349-.847-3.394,0-3.795,3.073-7.046,6.748-9.59,10.92-.654,1.073-.27,2.686.861,3.284,1.168.617,2.585.285,3.284-.861h0Z"/><path class="d" d="M118.676,180.553c-1.093,3.317-3.703,10.122.505,12.347,1.88.994,4.3,1.04,6.043-.231,1.575-1.149,2.535-2.908,3.974-4.201,1.536-1.38,2.923-1.207,4.648-.278,2.038,1.097,3.925,2.371,6.075,3.26,3.901,1.614,7.875,1.521,11.968.798,1.277-.226,1.997-1.787,1.676-2.952-.37-1.347-1.671-1.902-2.952-1.676-3.141.555-6.213.574-9.186-.706-3.533-1.522-6.703-4.76-10.825-4.258-2.008.245-3.749,1.358-5.165,2.764-.555.551-1.034,1.173-1.536,1.771-.438.521-.999,1.377-1.568,1.659.224-.111.08.004-.136,0-.101.084-.225.06-.373-.072-.461-.189-.506-.163-.136.078-.021-.081.053-.98.097-1.267.299-1.955.903-3.884,1.52-5.758.969-2.941-3.665-4.201-4.629-1.276h0Z"/><path class="h" d="M95.242,192.785c1.385,1.295,3.094,2.892,4.544,4.176.393.348.9.537,1.425.538,6.1.007,44.754.053,54.602.063,1.21.001,2.181-.99,2.165-2.2-.013-.973-.029-1.913-.029-2.963,0-.53-.173-1.081-.496-1.448-.375-.426-.959-.651-1.474-.729-14.19-2.161-44.342-4.792-59.176-5.677-1.256-.075-2.311.928-2.297,2.186.016,1.511.038,3.378.051,4.502.007.591.253,1.147.685,1.551Z"/><path class="d" d="M93.544,194.482c1.21,1.131,2.419,2.262,3.648,3.373,1.315,1.189,2.436,1.994,4.271,2.044,1.088.03,2.182.003,3.27.004,3.779.004,7.558.009,11.337.013,9.652.011,19.305.023,28.957.034,3.417.004,6.833.008,10.25.011,1.37.001,2.627-.288,3.663-1.243,1.474-1.359,1.433-3.175,1.415-5.019-.019-1.948-.159-3.867-1.939-5.052-1.13-.752-2.457-.842-3.761-1.027-11.251-1.593-22.583-2.652-33.899-3.647-6.276-.552-12.557-1.061-18.843-1.496-2.724-.189-6.424-1.112-8.543,1.077-1.493,1.542-1.261,3.607-1.239,5.573.023,2.01-.027,3.773,1.413,5.354,2.084,2.289,5.471-1.113,3.394-3.394-.063-.069-.065.461.015-.15.043-.327-.008-.705-.012-1.035-.008-.663-.015-1.325-.023-1.988-.003-.234-.129-.985-.013-1.183.063-.106-.174.196-.14.192.294-.029.721.063,1.037.082,2.171.135,4.342.284,6.511.441,5.12.371,10.236.786,15.349,1.231,10.381.903,20.765,1.882,31.101,3.218.994.128,1.548.202,2.616.353.496.07.993.137,1.488.216.337.054.969.386.681-.066.232.365.011,1.644.017,2.133-.003-.238.018,1.083.013.825-.002-.104.183-.195.228-.203-.44.081-1.03.006-1.503.006-3.265-.003-6.53-.007-9.795-.011-8.74-.01-17.48-.02-26.221-.03-4.102-.005-8.203-.01-12.305-.015-1.269-.002-2.538-.003-3.808-.005-.218,0-.45.022-.667,0-.445-.047-.117.092-.619-.364-1.326-1.206-2.642-2.423-3.952-3.647-2.255-2.108-5.656,1.279-3.394,3.394Z"/><path class="h" d="M59.448,176.353c-3.191-39.828-8.979-91.525-12.861-129.934-3.34.239-8.083,1.105-11.833,1.513,3.918,38.604,10.067,90.276,13.201,129.921,3.324-.275,11.327-1.482,11.493-1.499Z"/><path class="g" d="M210.974,8.559c-9.372,5.505-13.377,13.002-14.101,14.82-1.32,3.315-2.141,5.975-2.415,9.398,19.199,4.475,26.516,6.391,32.009,11.134,2.831,2.648,3.621,4.644,6.399,8.761,1.038-1.535,2.073-2.776,3.902-3.407,1.627-.561,3.264-.488,4.58.307,1.959,1.184,3.048,3.921,3.134,6.244.149,4.053-1.027,7.338-3.384,9.962,2.34,4.75,8.855,10.606,15.062,14.635l.056.036c1.35-2.003,2.7-4.006,2.7-4.006,2.141-3.175,3.731-5.106,6.576-8.782,4.502-5.819,10.141-13.953,8.423-28.505-.95-8.042-4.783-15.922-9.193-21.251-11.346-13.709-22.899-15.254-29.959-15.516s-13.723,1.426-19.629,4.039c-1.492.66-2.877,1.377-4.161,2.132Z"/><path class="f" d="M178.077,370.462c-4.823,0-8.157,3.673-8.157,7.97,0,4.808,3.406,8.12,8.157,8.12,4.935,0,8.157-3.342,8.157-8.12,0-4.327-3.351-7.97-8.158-7.97Z"/><path class="d" d="M178.077,368.062c-4.591.058-8.667,2.832-10.086,7.253-1.299,4.046.057,8.832,3.427,11.44,3.405,2.635,8.462,2.915,12.207.81,3.865-2.173,5.491-6.698,4.841-10.941-.779-5.083-5.396-8.499-10.388-8.562-1.297-.016-2.4,1.115-2.4,2.4,0,1.315,1.099,2.384,2.4,2.4.237.003.473.02.71.027.71.02-.409-.115.272.031.362.078.721.155,1.074.269.138.044.273.094.409.144-.49-.18.144.073.206.104.373.19.727.411,1.066.656-.398-.288.333.312.448.428.144.145.276.3.413.451.431.476-.157-.244.059.079.208.312.406.626.575.962.061.122.121.245.175.37-.222-.514.082.296.111.394.098.334.173.674.228,1.018-.08-.502-.008-.031-.005.1.004.179.018.358.018.537,0,.365-.022.729-.058,1.093.056-.565-.026.112-.043.195-.047.234-.104.466-.171.695-.047.161-.106.317-.154.478-.179.607.23-.401-.059.154-.149.286-.293.571-.467.843-.005.008-.362.52-.142.224.219-.294-.163.188-.172.198-.253.284-.53.54-.821.784.441-.369-.048.02-.132.075-.108.07-.218.138-.329.202-.17.098-.345.181-.518.274-.552.295.297-.099-.067.03-.356.126-.712.24-1.08.324-.138.032-.277.054-.415.085-.28.045-.282.047-.005.007-.147.016-.294.029-.442.038-.376.024-.754.029-1.131.012-.219-.01-.438-.027-.656-.052.105.012.449.095.002-.009-.373-.087-.743-.163-1.108-.282-.161-.053-.32-.11-.478-.172.518.204-.137-.082-.24-.137-.317-.17-.619-.363-.911-.575.438.317-.281-.272-.393-.386-.107-.108-.666-.845-.373-.405-.22-.331-.408-.67-.607-1.012-.318-.547.129.442-.079-.163-.044-.129-.093-.256-.134-.386-.129-.401-.22-.81-.294-1.225.018.102.031.465.003-.01-.013-.224-.033-.445-.038-.669-.004-.183-.003-.366.004-.549.005-.119.095-.869.006-.309.065-.41.16-.816.287-1.212.023-.072.269-.707.049-.194.08-.188.172-.371.268-.551s.199-.356.309-.527c.061-.095.418-.582.099-.176.252-.321.536-.619.837-.894.053-.049.582-.462.151-.147.168-.123.34-.239.517-.349.179-.111.362-.214.549-.31.128-.066.596-.251.206-.106.413-.154.833-.282,1.264-.373.053-.011.778-.106.263-.055.315-.031.628-.044.944-.048,1.297-.016,2.4-1.091,2.4-2.4,0-1.288-1.098-2.417-2.4-2.4Z"/><path class="f" d="M290.084,370.462c-4.823,0-8.157,3.673-8.157,7.97,0,4.808,3.406,8.12,8.157,8.12,4.935,0,8.157-3.342,8.157-8.12,0-4.327-3.351-7.97-8.158-7.97Z"/><path class="d" d="M290.084,368.062c-4.591.058-8.667,2.832-10.086,7.253-1.299,4.046.057,8.832,3.427,11.44,3.405,2.635,8.462,2.915,12.207.81,3.865-2.173,5.491-6.698,4.841-10.941-.779-5.083-5.396-8.499-10.388-8.562-1.297-.016-2.4,1.115-2.4,2.4,0,1.315,1.099,2.384,2.4,2.4.237.003.473.02.71.027.71.02-.409-.115.272.031.362.078.721.155,1.074.269.138.044.273.094.409.144-.49-.18.144.073.206.104.373.19.727.411,1.066.656-.398-.288.333.312.448.428.144.145.276.3.413.451.431.476-.157-.244.059.079.208.312.406.626.575.962.061.122.121.245.175.37-.222-.514.082.296.111.394.098.334.173.674.228,1.018-.08-.502-.008-.031-.005.1.004.179.018.358.018.537,0,.365-.022.729-.058,1.093.056-.565-.026.112-.043.195-.047.234-.104.466-.171.695-.047.161-.106.317-.154.478-.179.607.23-.401-.059.154-.149.286-.293.571-.467.843-.005.008-.362.52-.142.224.219-.294-.163.188-.172.198-.253.284-.53.54-.821.784.441-.369-.048.02-.132.075-.108.07-.218.138-.329.202-.17.098-.345.181-.518.274-.552.295.297-.099-.067.03-.356.126-.712.24-1.08.324-.138.032-.277.054-.415.085-.28.045-.282.047-.005.007-.147.016-.294.029-.442.038-.376.024-.754.029-1.131.012-.219-.01-.438-.027-.656-.052.105.012.449.095.002-.009-.373-.087-.743-.163-1.108-.282-.161-.053-.32-.11-.478-.172.518.204-.137-.082-.24-.137-.317-.17-.619-.363-.911-.575.438.317-.281-.272-.393-.386-.107-.108-.666-.845-.373-.405-.22-.331-.408-.67-.607-1.012-.318-.547.129.442-.079-.163-.044-.129-.093-.256-.134-.386-.129-.401-.22-.81-.294-1.225.018.102.031.465.003-.01-.013-.224-.033-.445-.038-.669-.004-.183-.003-.366.004-.549.005-.119.095-.869.006-.309.065-.41.16-.816.287-1.212.023-.072.269-.707.049-.194.08-.188.172-.371.268-.551s.199-.356.309-.527c.061-.095.418-.582.099-.176.252-.321.536-.619.837-.894.053-.049.582-.462.151-.147.168-.123.34-.239.517-.349.179-.111.362-.214.549-.31.128-.066.596-.251.206-.106.413-.154.833-.282,1.264-.373.053-.011.778-.106.263-.055.315-.031.628-.044.944-.048,1.297-.016,2.4-1.091,2.4-2.4,0-1.288-1.098-2.417-2.4-2.4Z"/><path class="f" d="M234.335,373.506c-4.823,0-8.157,3.673-8.157,7.97,0,4.808,3.406,8.12,8.157,8.12,4.935,0,8.157-3.342,8.157-8.12,0-4.327-3.351-7.97-8.158-7.97Z"/><path class="d" d="M234.335,371.106c-4.591.058-8.667,2.832-10.086,7.253-1.299,4.046.057,8.832,3.427,11.44,3.405,2.635,8.462,2.915,12.207.81,3.865-2.173,5.491-6.698,4.841-10.941-.779-5.083-5.396-8.499-10.388-8.562-1.297-.016-2.4,1.115-2.4,2.4,0,1.315,1.099,2.384,2.4,2.4.237.003.473.02.71.027.71.02-.409-.115.272.031.362.078.721.155,1.074.269.138.044.273.094.409.144-.49-.18.144.073.206.104.373.19.727.411,1.066.656-.398-.288.333.312.448.428.144.145.276.3.413.451.431.476-.157-.244.059.079.208.312.406.626.575.962.061.122.121.245.175.37-.222-.514.082.296.111.394.098.334.173.674.228,1.018-.08-.502-.008-.031-.005.1.004.179.018.358.018.537,0,.365-.022.729-.058,1.093.056-.565-.026.112-.043.195-.047.234-.104.466-.171.695-.047.161-.106.317-.154.478-.179.607.23-.401-.059.154-.149.286-.293.571-.467.843-.005.008-.362.52-.142.224.219-.294-.163.188-.172.198-.253.284-.53.54-.821.784.441-.369-.048.02-.132.075-.108.07-.218.138-.329.202-.17.098-.345.181-.518.274-.552.295.297-.099-.067.03-.356.126-.712.24-1.08.324-.138.032-.277.054-.415.085-.28.045-.282.047-.005.007-.147.016-.294.029-.442.038-.376.024-.754.029-1.131.012-.219-.01-.438-.027-.656-.052.105.012.449.095.002-.009-.373-.087-.743-.163-1.108-.282-.161-.053-.32-.11-.478-.172.518.204-.137-.082-.24-.137-.317-.17-.619-.363-.911-.575.438.317-.281-.272-.393-.386-.107-.108-.666-.845-.373-.405-.22-.331-.408-.67-.607-1.012-.318-.547.129.442-.079-.163-.044-.129-.093-.256-.134-.386-.129-.401-.22-.81-.294-1.225.018.102.031.465.003-.01-.013-.224-.033-.445-.038-.669-.004-.183-.003-.366.004-.549.005-.119.095-.869.006-.309.065-.41.16-.816.287-1.212.023-.072.269-.707.049-.194.08-.188.172-.371.268-.551s.199-.356.309-.527c.061-.095.418-.582.099-.176.252-.321.536-.619.837-.894.053-.049.582-.462.151-.147.168-.123.34-.239.517-.349.179-.111.362-.214.549-.31.128-.066.596-.251.206-.106.413-.154.833-.282,1.264-.373.053-.011.778-.106.263-.055.315-.031.628-.044.944-.048,1.297-.016,2.4-1.091,2.4-2.4,0-1.288-1.098-2.417-2.4-2.4Z"/><path class="g" d="M242.002,300.892v46.934c20.74,4.913,38.533,11.75,54.144,19.168,2.422,1.151,3.172,4.353,1.078,5.928-2.645,1.991-5.89,2.674-8.615,2.858-1.029.07-3.204-.309-4.128-.716-13.418-5.911-28.655-11.698-43.47-15.608-.004,4.274-.005,11.819-.005,15.529,0,1.27-.989,2.093-2.177,2.541-1.661.626-7.133.626-8.98-.052-1.211-.445-2.228-1.259-2.228-2.549,0-3.835-.002-11.602-.006-15.373-14.669,3.908-29.799,9.649-43.108,15.512-.924.407-3.098.786-4.128.716-2.725-.184-5.969-.867-8.615-2.858-2.093-1.575-1.344-4.777,1.078-5.928,15.532-7.38,33.222-14.185,53.827-19.095.001-23.317.001-46.558.001-46.558"/><path class="h" d="M310.512,121.898c-8.87,2.54-18.29,5.42-24.05,12.29-2.41,2.86-4.01,6.25-5.44,9.65-6.57,15.62-10.13,32.31-17.57,47.58-3.91,8.01-8.92,15.74-10.47,24.44-1.26,7.03-.16,14.23,1.06,21.27.65,3.77,1.34,7.54,2.07,11.31.729,3.846,1.854,9.475,2.784,13.914-.919.633-1.882,1.176-2.872,1.596-6.917,2.949-14.773,2.341-22.288,2.395-19.997.152-36.246.181-53.789.391,0,.347,0,.532,0,.532,0,2.111.328,4.436,1.077,6.45.424,1.14,1.142,2.166,2.006,3.022,1.427,1.412,3.272,2.007,5.25,2.349,1.278.221,6.722.623,10.556.623,20.353-.221,45.824,0,66.25-2.056,18.333-1.833,27.361-13.225,27.982-26.326.158-3.326-.125-8.763-.529-12.07-1.467-12.01-2.205-24.1-2.209-36.191-.002-5.133.13-10.287,1.03-15.348.808-4.546,12.729-48.25,19.153-65.066"/><path class="f" d="M130.152,234.22c1.68-1.084,3.583-1.896,5.67-2.339,26.786-5.682,47.848-10.775,70.252-15.955-.189,3.542-.266,7.092-.231,10.642.045,4.55.427,9.51,3.237,12.86,1.719,2.04,4.129,3.19,6.547,4,4.62,1.54,9.467,2.02,14.268,2.49,7.148.7,14.295,1.4,21.443,2.11,1.582.15,3.174.31,4.774.41.73,3.847,1.854,9.478,2.784,13.914-.919.633-1.882,1.176-2.872,1.596-6.917,2.949-14.773,2.341-22.288,2.395-25.531.194-44.953.187-68.757.613-.666,17.647-1.752,30.72-2.999,48.2-1.069,14.986-2.039,25.982-4.274,45.682-11.365.164-22.73.328-34.095.492-.026-.855-.052-1.71-.052-1.71,0,0-3.391-110.431-.904-115.042,1.047-4.075,3.701-7.909,7.497-10.358Z"/><path class="d" d="M192.045,35.641c-.515,6.428,1.53,13.13-.081,19.47-.29,1.14-.726,2.303-1.443,3.195-.988,1.228-2.45,1.875-3.399,3.172-2.202,3.01-1.293,6.406,1.475,8.587,1.05.827,2.106,1.672,2.761,3.005.661,1.343.674,3.192,1.016,4.652.896,3.825,2.09,7.8,4.528,10.944,4.42,5.7,12.54,6.369,19.205,5.297,1.907-.307,3.6-1.022,5.373-1.76.076-.032.496-.151.513-.209.015-.052-.235.023-.283-.141-.063-.213.154.341.222.475.354.704.698,1.415,1.004,2.141.973,2.308,1.777,4.698,2.632,7.052.443,1.218,1.631,2.039,2.952,1.676,1.175-.323,2.121-1.728,1.676-2.952-.718-1.975-1.437-3.949-2.184-5.913-1.071-2.813-2.303-7.062-5.976-7.139-1.792-.038-3.456,1.186-5.145,1.685-1.46.431-2.961.605-4.479.653-2.917.093-6.515-.021-9.121-1.487-2.959-1.664-4.353-4.939-5.32-8.03-.594-1.9-1.068-3.84-1.442-5.794-.315-1.645-.635-3.121-1.589-4.548-.909-1.36-2.147-2.327-3.28-3.266-.34-.282-.821-.738-.926-.894-.024-.036-.099-.261-.099-.194.003-.27.051-.476.171-.728.584-1.227,2.233-1.865,3.111-2.89,1.011-1.18,1.723-2.497,2.26-3.951,2.604-7.057.089-14.851.67-22.107.104-1.294-1.177-2.4-2.4-2.4-1.385,0-2.296,1.103-2.4,2.4h0Z"/><path class="d" d="M196.786,37.048c-.092-3.015.102-5.948.936-8.855.123-.43,1.157-4.186,1.466-4.176.075.002-.3.614-.032.091.13-.254.249-.514.383-.767,1.82-3.445,4.087-6.062,7.076-8.702,8.682-7.668,21.105-11.03,32.503-9.504-.36-.048.644.102.822.132.509.086,1.017.182,1.522.29,1.13.24,2.249.535,3.35.885,2.292.728,4.471,1.72,6.548,2.93,5.476,3.191,10.33,7.867,13.805,13.161,6.603,10.059,9.129,23.709,3.967,34.914-2.266,4.919-5.775,9.028-9.042,13.293-2.307,3.012-4.169,5.189-5.375,8.838-1.175,3.556-1.137,7.375-.576,11.036.197,1.282,1.807,1.991,2.952,1.676,1.37-.376,1.873-1.666,1.676-2.952-.467-3.043-.338-6.39.856-9.261.69-1.66,1.257-2.293,2.256-3.716.857-1.221,1.75-2.416,2.662-3.596,3.121-4.04,6.417-7.975,8.61-12.624,5.768-12.232,4.001-26.845-2.77-38.311-6.175-10.456-16.791-19.018-28.914-21.148s-25.426.797-35.357,8.234c-4.145,3.104-7.87,6.941-10.427,11.477-2.833,5.025-3.869,10.95-3.696,16.656.094,3.082,4.894,3.095,4.8,0h0Z"/><path class="d" d="M201.259,52.251c-.495,1.671-.193,5.515,2.81,5.845,3.972-.021,4.203-4.668,2.875-6.855-1.087-1.79-4.303-2.538-5.685,1.01Z"/><path class="d" d="M194.707,78.715c2.628-.187,5.335-.702,7.575-2.169.522-.342.934-.822,1.103-1.434.158-.574.087-1.339-.242-1.849-.675-1.047-2.16-1.597-3.284-.861-.466.306-.957.565-1.468.786l.573-.242c-1.136.478-2.336.757-3.555.922l.638-.086c-.446.058-.893.101-1.341.133-.642.046-1.231.237-1.697.703-.416.416-.73,1.099-.703,1.697.028.621.232,1.264.703,1.697.45.413,1.065.748,1.697.703h0Z"/><path class="d" d="M205.196,213.667c-11.821,2.734-23.628,5.525-35.453,8.242-6.205,1.425-12.414,2.831-18.63,4.205-3.384.748-6.771,1.488-10.159,2.218-3.01.648-6.148,1.076-9.003,2.267-5.144,2.145-9.077,6.372-11.046,11.564-.101.265-.195.532-.282.802-.024.076-.247,1.135-.052.423-.064.232-.209.445-.286.674-.044.13-.082.26-.115.393-.148.601-.207,1.233-.279,1.845-.405,3.436-.414,6.935-.473,10.389-.218,12.696-.012,25.402.195,38.097.228,13.963.546,27.925.906,41.886.195,7.535.257,15.093.629,22.622.005.108.007.217.01.326.095,3.082,4.895,3.095,4.8,0-.187-6.109-.355-12.218-.518-18.328-.356-13.38-.672-26.761-.917-40.143-.242-13.229-.458-26.464-.362-39.696.031-4.257.062-8.526.328-12.776.04-.642.087-1.285.152-1.925.018-.176-.018-.586.083-.725-.19.262-.122.707-.032.265.022-.108.035-.218.056-.325.031-.152.094-.316.11-.47.003-.025.064-.146.053-.158.071.078-.431,1.313.143-.448.7-2.151,1.654-4.143,3.168-5.854,1.597-1.804,3.594-3.312,5.866-4.154,3.035-1.125,6.398-1.543,9.555-2.226,6.371-1.378,12.735-2.79,19.093-4.229,11.75-2.66,23.478-5.417,35.211-8.151,2.84-.662,5.681-1.322,8.522-1.98,3.008-.696,1.735-5.325-1.276-4.629h0Z"/><path class="d" d="M205.11,201.219c-.858,6.232-1.422,12.493-1.605,18.783-.156,5.357-.578,11.355,1.265,16.491.923,2.574,2.395,4.783,4.586,6.443s4.811,2.631,7.432,3.352c5.909,1.625,12.15,1.936,18.224,2.532,7.025.689,14.057,1.553,21.1,2.019,1.295.086,2.4-1.164,2.4-2.4,0-1.37-1.101-2.314-2.4-2.4-5.824-.385-11.637-1.09-17.445-1.66-5.563-.546-11.215-.858-16.721-1.85-4.511-.812-10.006-1.992-12.206-6.498-2.038-4.175-1.559-9.586-1.48-14.082.114-6.502.592-13.008,1.479-19.451.177-1.282-.31-2.577-1.676-2.952-1.121-.308-2.774.384-2.952,1.676h0Z"/><path class="d" d="M228.316,186.332c-6.408,2.215-13.209,2.964-19.911,3.761-6.418.763-12.86,1.308-19.315,1.647-6.627.348-13.263.483-19.899.504-1.668.005-3.335.003-5.003-.005-.439-.002-1.037-.103-1.464-.008l-.492-.003c.551.073.857.337.917.791.191-.453-.197-1.698-.249-2.173-.319-2.969-.566-5.945-.779-8.924-.214-2.998-.39-5.998-.534-9-.064-1.323-.121-2.645-.171-3.968-.021-.547-.04-1.094-.058-1.642-.009-.282.037-.653-.029-.926.037-.569-.111-.423-.442.437-.188.119-.148.144.12.077.657.199,1.898-.155,2.591-.211.785-.064,1.571-.128,2.356-.192,1.888-.154,3.775-.309,5.663-.464,3.637-.299,7.273-.6,10.909-.903,7.254-.605,14.507-1.219,21.759-1.847,3.082-.267,5.78-1.033,8.159-3.097,2.506-2.173,3.564-5.303,4.679-8.324,2.411-6.532,4.254-13.278,6.113-19.983,1.844-6.652,3.562-13.664,8.961-18.425,2.321-2.047-1.084-5.431-3.394-3.394-4.886,4.309-7.609,10.744-9.209,16.924-1.638,6.326-3.467,12.624-5.468,18.845-.561,1.744-1.151,3.478-1.793,5.193-.56,1.496-1.054,3.115-2.004,4.42-1.606,2.207-3.945,2.859-6.536,3.083-7.564.654-15.129,1.294-22.695,1.924-3.79.315-7.58.628-11.37.939-1.729.142-3.458.283-5.188.424-.942.077-1.885.154-2.827.23-.987.08-2.045.059-2.951.505-3.041,1.497-2.195,5.377-2.077,8.155.127,2.991.287,5.98.481,8.967.209,3.224.457,6.446.776,9.661.292,2.941.117,7.294,3.983,7.663,3.661.349,7.513.061,11.19.022,3.398-.036,6.796-.106,10.192-.225,7.521-.264,15.031-.781,22.512-1.603,7.945-.874,16.18-1.604,23.771-4.229,2.902-1.003,1.655-5.642-1.276-4.629h0Z"/><path class="d" d="M256.498,130.739c-2.866,11.376-6.363,22.664-10.31,33.71-.436,1.221.493,2.627,1.676,2.952,1.33.365,2.515-.451,2.952-1.676,3.947-11.046,7.444-22.334,10.31-33.71.755-2.996-3.873-4.274-4.629-1.276h0Z"/><path class="d" d="M162.551,267.682c-.515,13.203-1.437,26.38-2.398,39.557-.804,11.032-1.589,22.062-2.66,33.072-.675,6.937-1.431,13.865-2.216,20.79-.146,1.29,1.208,2.4,2.4,2.4,1.419,0,2.253-1.106,2.4-2.4,2.678-23.607,4.527-47.27,6.087-70.975.492-7.476.896-14.957,1.188-22.444.12-3.089-4.68-3.084-4.8,0h0Z"/><path class="d" d="M124.122,363.722c10.225-.148,20.45-.295,30.674-.443,3.086-.045,3.095-4.845,0-4.8-10.225.148-20.45.295-30.674.443-3.086.045-3.095,4.845,0,4.8h0Z"/><path class="d" d="M239.602,300.892v46.934c0,1.023.742,2.072,1.762,2.314,15.634,3.719,30.928,8.831,45.641,15.299,1.703.749,3.4,1.514,5.088,2.295,1.11.513,2.982,1.027,3.674,1.963.551.744.409,1.082-.458,1.644-1.55,1.004-3.306,1.563-5.12,1.865-3.301.55-5.856-.825-8.825-2.089-3.952-1.682-7.927-3.307-11.935-4.851-9.098-3.506-18.353-6.625-27.78-9.124-1.506-.399-3.037.744-3.038,2.314-.003,3.095-.004,6.19-.004,9.284,0,1.538,0,3.075,0,4.613,0,.99.332,1.597-.659,1.937-1.648.565-4.971.442-6.67.081-.336-.072-.927-.148-1.166-.429-.147-.172-.09-.622-.09-.937,0-1.41,0-2.82,0-4.23,0-3.407-.001-6.815-.005-10.222-.002-1.567-1.532-2.717-3.038-2.314-8.299,2.221-16.464,4.916-24.508,7.926-4.011,1.501-7.993,3.081-11.945,4.731-1.938.809-3.87,1.63-5.795,2.469-1.237.539-2.478.979-3.845,1.02-1.6.047-3.28-.339-4.783-.854-.792-.271-1.531-.635-2.242-1.077-.253-.157-.535-.308-.74-.529-.056-.06-.215-.449-.16-.214-.075-.319-.014-.566.183-.89.281-.46.733-.665,1.266-.921,1.663-.801,3.344-1.565,5.026-2.324,6.845-3.088,13.816-5.892,20.896-8.398,8.845-3.13,17.854-5.78,26.978-7.963,1.02-.244,1.762-1.287,1.762-2.314,0-14.464.001-28.927.001-43.391,0-1.056,0-2.111,0-3.167,0-3.089-4.8-3.094-4.8,0,0,10.444,0,20.888,0,31.331,0,5.075,0,10.151,0,15.226l1.762-2.314c-16.911,4.045-33.361,9.767-49.202,16.927-3.19,1.442-7.561,2.656-8.503,6.512-1.111,4.544,3.159,7.095,6.884,8.26,3.526,1.102,7.287,1.247,10.712-.238,4.086-1.772,8.184-3.507,12.327-5.141,9.814-3.871,19.809-7.311,30.003-10.039l-3.038-2.314c.004,3.526.005,7.053.005,10.579,0,1.592-.072,3.203,0,4.793.11,2.42,1.773,4.098,3.99,4.863,2.783.961,6.438.797,9.3.287,1.757-.313,3.512-1.324,4.363-2.939.81-1.537.532-3.525.533-5.208,0-4.158.001-8.315.005-12.473l-3.038,2.314c9.124,2.419,18.087,5.419,26.902,8.787,4.199,1.604,8.367,3.29,12.499,5.06,1.824.781,3.64,1.79,5.592,2.201,1.897.399,3.624.385,5.531.104,3.493-.515,8.704-2.122,9.755-5.987.467-1.715.04-3.601-.997-5.02-1.201-1.644-2.995-2.33-4.783-3.16-7.473-3.468-15.09-6.639-22.833-9.452-9.622-3.496-19.442-6.423-29.4-8.792l1.762,2.314v-46.934c0-3.089-4.8-3.094-4.8,0h0Z"/><path class="d" d="M261.761,264.294c-2.129-9.86-4.074-19.778-5.733-29.728-.947-5.682-1.735-11.607-.852-17.351.804-5.232,2.927-10.104,5.3-14.793,2.461-4.862,5.101-9.617,7.262-14.626,2.245-5.203,4.174-10.527,5.977-15.897,1.787-5.321,3.469-10.677,5.3-15.983,1.765-5.113,3.564-10.314,6.033-15.138,2.516-4.915,6.162-8.494,11.024-11.081,4.737-2.52,9.943-4.014,15.077-5.486,2.964-.85,1.704-5.483-1.276-4.629-9.592,2.75-19.88,5.932-26.157,14.233-3.336,4.412-5.294,9.83-7.224,14.962-2.057,5.471-3.852,11.035-5.669,16.589-1.768,5.404-3.558,10.804-5.633,16.1s-4.597,10.359-7.238,15.398c-2.556,4.877-5.099,9.855-6.565,15.187-1.602,5.829-1.598,11.871-.864,17.832.82,6.65,2.136,13.246,3.394,19.824,1.013,5.298,2.075,10.588,3.214,15.861.652,3.018,5.28,1.741,4.629-1.276h0Z"/><path class="d" d="M308.198,122.016c-5.087,13.351-8.9,27.245-12.776,40.984-1.707,6.051-3.381,12.112-4.956,18.199-.439,1.695-.884,3.391-1.261,5.101-.946,4.291-1.166,8.777-1.248,13.157-.227,12.139.451,24.328,1.784,36.391.534,4.834,1.067,9.65.958,14.524-.073,3.277-.704,6.7-1.981,9.643-2.973,6.846-8.972,11.524-16.1,13.717-4.566,1.405-9.313,1.734-14.051,2.091-5.309.401-10.628.664-15.949.854-10.882.389-21.772.467-32.66.541-5.023.035-10.065.218-15.084-.013-1.991-.092-3.971-.263-5.955-.433-.48-.041.052.005.127.019-.239-.044-.478-.083-.716-.132-.573-.118-1.152-.255-1.703-.456-1.037-.378-1.91-1.034-2.577-1.915-1.449-1.916-1.679-4.707-1.703-7.024-.032-3.087-4.832-3.095-4.8,0,.03,2.886.444,6.006,1.825,8.583,1.314,2.453,3.544,4.184,6.163,5.045,1.876.617,3.884.756,5.842.903,2.363.177,4.736.303,7.106.313,10.847.041,21.712-.116,32.557-.322,11.092-.211,22.201-.581,33.248-1.654,8.793-.854,17.602-3.664,23.728-10.352,5.457-5.957,7.6-13.61,7.489-21.559-.074-5.302-.799-10.521-1.32-15.789-.611-6.18-1.031-12.379-1.257-18.585s-.378-12.499-.008-18.722c.178-2.984.515-5.937,1.215-8.842,1.255-5.207,2.686-10.375,4.11-15.538,4.03-14.607,8.137-29.259,13.16-43.561.458-1.304.929-2.603,1.421-3.895.462-1.212-.511-2.632-1.676-2.952-1.351-.371-2.489.46-2.952,1.676h0Z"/><path class="d" d="M262.036,281.944c-.051.127-.103.254-.156.38.156-.374-.006.008-.033.07-.144.327-.289.653-.437.979-.394.868-.802,1.731-1.215,2.591-.84,1.749-1.704,3.487-2.586,5.215-.831,1.629-1.569,3.642-2.721,5.072-.645.801-1.627,1.216-2.63,1.279-2.86.181-5.745.169-8.609.254-9.425.278-18.85.555-28.275.833-1.382.041-2.767.201-3.928-.75-.851-.697-1.288-1.815-1.808-2.757-.599-1.085-1.194-2.172-1.788-3.26-1.151-2.109-2.296-4.221-3.445-6.33-1.478-2.714-5.624-.294-4.145,2.423,1.049,1.927,2.095,3.855,3.146,5.781,1.103,2.023,2.089,4.241,3.422,6.123,1.76,2.484,4.505,3.68,7.505,3.601,3.735-.098,7.469-.22,11.204-.33,8.879-.262,17.781-.357,26.654-.785,1.689-.081,3.324-.511,4.713-1.507,2.016-1.447,3.001-3.644,4.109-5.785,2.004-3.87,4.012-7.777,5.648-11.82.487-1.202-.529-2.637-1.676-2.952-1.372-.377-2.464.47-2.952,1.676h0Z"/><path class="d" d="M167.336,269.314c24.36-.409,48.725-.454,73.088-.555,6.685-.028,13.974-.493,19.69-4.339,2.549-1.716.15-5.876-2.423-4.145-4.78,3.217-10.776,3.616-16.373,3.678-6.289.069-12.582.028-18.872.066-11.758.073-23.516.123-35.274.236-6.612.063-13.225.148-19.836.259-3.085.052-3.095,4.852,0,4.8h0Z"/><path class="d" d="M61.848,176.353c-1.352-16.848-2.964-33.674-4.648-50.492-1.748-17.464-3.589-34.918-5.416-52.373-.944-9.022-1.884-18.044-2.797-27.069-.123-1.213-1.002-2.507-2.4-2.4-3.967.304-7.882,1.071-11.833,1.513-1.185.132-2.543.996-2.4,2.4,1.68,16.546,3.501,33.077,5.288,49.611,1.894,17.528,3.769,35.058,5.458,52.606.888,9.228,1.724,18.461,2.456,27.703.096,1.207,1.025,2.518,2.4,2.4,2.431-.209,4.852-.557,7.268-.89,1.068-.147,2.135-.299,3.201-.453.359-.052.718-.104,1.077-.157.272-.04,1.16-.151-.054.002,1.286-.162,2.4-.987,2.4-2.4,0-1.171-1.105-2.563-2.4-2.4-3.87.487-7.611,1.165-11.493,1.499l2.4,2.4c-1.331-16.806-2.99-33.585-4.728-50.353-1.812-17.473-3.732-34.935-5.613-52.4-.975-9.053-1.94-18.108-2.86-27.167l-2.4,2.4c3.951-.441,7.867-1.208,11.833-1.513l-2.4-2.4c1.668,16.498,3.423,32.987,5.142,49.48,1.828,17.544,3.63,35.092,5.279,52.654.87,9.262,1.697,18.528,2.441,27.801.104,1.292,1.029,2.4,2.4,2.4,1.218,0,2.504-1.101,2.4-2.4Z"/><path class="d" d="M33.589,119.505c-2.608,15.974-5.6,31.888-8.49,47.812-.779,4.293-1.559,8.586-2.335,12.88-.347,1.916-.692,3.832-1.037,5.749-.343,1.907-.934,3.95-.938,5.891-.004,2.268,1,4.544,2.705,6.043,1.897,1.668,4.078,2.084,6.533,2.084,4.969,0,9.937-.004,14.906-.008,8.506-.007,17.012-.023,25.519-.02,3.089.001,3.094-4.799,0-4.8-6.93-.003-13.86.01-20.79.016-4.826.004-9.652.008-14.478.01-2.152.001-4.484.261-6.617-.004-1.477-.183-2.737-1.324-2.949-2.824-.207-1.464.396-3.217.658-4.67.332-1.849.666-3.697,1-5.546.74-4.092,1.482-8.183,2.225-12.275,1.576-8.682,3.153-17.364,4.709-26.05,1.373-7.664,2.753-15.328,4.008-23.012.209-1.278-.332-2.583-1.676-2.952-1.146-.315-2.742.39-2.952,1.676h0Z"/><path class="d" d="M2.318,215.221c8.927-.013,17.854-.014,26.781-.016,13.422-.003,26.844-.003,40.266-.002,15.003,0,30.007.003,45.01.006,13.516.002,27.032.005,40.547.008,8.998.002,17.996.004,26.993.005.646,0,1.293,0,1.939,0,1.296,0,2.401-1.1,2.4-2.4-.004-3.702-.096-7.403-.1-11.105-.001-1.297-1.098-2.4-2.4-2.4-5.395.002-10.79.005-16.186.008-13.16.006-26.32.012-39.48.018-16.454.008-32.908.015-49.362.022-15.207.007-30.414.013-45.622.019-9.672.004-19.344.008-29.016.009-.58,0-1.16,0-1.74,0-3.089,0-3.094,4.8,0,4.8,8.677,0,17.355-.004,26.032-.008,14.848-.006,29.695-.012,44.543-.018,16.547-.007,33.095-.015,49.642-.022,13.718-.006,27.437-.013,41.155-.019,4.474-.002,8.948-.004,13.423-.006,2.095,0,4.241.135,6.333-.003.092-.006.187,0,.279,0l-2.4-2.4c.004,3.702.097,7.403.1,11.105l2.4-2.4c-8.271,0-16.541-.002-24.812-.004-13.087-.003-26.173-.005-39.26-.008-14.984-.003-29.968-.005-44.952-.006-13.814-.001-27.628-.001-41.442.001-9.614.002-19.227.003-28.841.014-.744,0-1.488.002-2.232.003-3.088.005-3.094,4.805,0,4.8h0Z"/><path class="d" d="M155.233,363.591c5.27,5.967,7.747,18.786-2.195,21.717-.248.073-.5.139-.753.195.027-.006-1.223.194-.594.12-.11.013-.22.024-.331.032-.393.026-.786.057-1.179.079-1.147.065-2.296.109-3.444.15-3.389.122-6.78.207-10.17.287-7.311.172-14.622.304-21.934.424-4.171.069-8.668.127-12.429-1.961-1.768-.982-2.824-2.325-2.519-4.42.16-1.098.635-2.185,1.308-3.067.226-.297.486-.571.756-.828.118-.112.721-.609.549-.477.993-.764,2.982-1.925,4.416-2.712,1.974-1.083,3.989-2.091,6.019-3.065,3.775-1.811,7.473-3.473,11.228-4.94,1.207-.471,2.045-1.61,1.676-2.952-.316-1.151-1.738-2.15-2.952-1.676-3.881,1.516-7.7,3.21-11.466,4.991-3.721,1.759-7.548,3.554-10.932,5.919-4.047,2.827-6.937,8.212-4.725,13.099,2.408,5.321,9.701,6.657,14.891,6.891,3.577.161,7.199-.051,10.778-.115,4.292-.077,8.585-.16,12.877-.255,3.912-.087,7.823-.179,11.734-.311,2.542-.086,5.224-.021,7.72-.584,2.941-.663,5.743-2.37,7.686-4.674,2.245-2.664,3.27-5.834,3.442-9.284.289-5.79-2.285-11.7-6.062-15.977-2.049-2.32-5.433,1.085-3.394,3.394h0Z"/><path class="d" d="M249.14,94.761c2.867-.934,5.773-2.084,8.72-2.74l-2.952-1.676c1.049,2.509,1.901,4.978,3.165,7.394,1.18,2.256,2.343,4.521,3.427,6.825,1.941,4.128,3.465,8.404,4.6,12.822,1.536,5.978,2.579,12.059,2.999,18.219.451,6.622.321,13.269-.011,19.893-.343,6.837-1.107,13.643-1.725,20.458-.117,1.293,1.187,2.4,2.4,2.4,1.396,0,2.283-1.104,2.4-2.4,1.159-12.786,2.519-25.56,1.852-38.421-.583-11.231-2.757-22.567-7.248-32.915-1.101-2.538-2.333-5.017-3.599-7.476-.38-.737-.763-1.473-1.148-2.207-.201-.383-.383-.795-.612-1.163l-.21-.397c.027.169.015.166-.035-.01-.612-1.399-1.035-2.888-1.625-4.299-.521-1.245-1.547-1.989-2.952-1.676-2.946.656-5.854,1.806-8.72,2.74-2.924.953-1.673,5.59,1.276,4.629h0Z"/><path class="d" d="M203.987,159.795c2.201-8.694,4.885-17.251,7.836-25.717,1.6-4.589,3.156-9.148,5.415-13.462,1.617-3.091,3.473-6.096,5.679-8.759,2.596-3.133,5.503-6.425,8.797-8.828,1.046-.763,1.562-2.085.861-3.284-.604-1.032-2.231-1.629-3.284-.861-3.278,2.39-6.125,5.386-8.792,8.433-2.415,2.759-4.548,5.744-6.353,8.936-2.486,4.396-4.276,8.994-5.964,13.742-1.627,4.577-3.191,9.177-4.646,13.812-1.528,4.865-2.927,9.769-4.178,14.712-.758,2.996,3.87,4.274,4.629,1.276h0Z"/><path class="e" d="M235.501,81.497v152.99c0,2.092,1.84,4.097,4,4s4-1.758,4-4V81.497c0-2.092-1.84-4.097-4-4s-4,1.758-4,4h0Z"/><path class="d" d="M234.674,51.104c-1.724-2.603-3.237-5.381-5.36-7.693-1.436-1.564-3.178-2.869-5.002-3.949-3.972-2.351-8.502-3.728-12.923-4.951-3.931-1.087-7.901-2.032-11.871-2.97-3.004-.71-4.286,3.917-1.276,4.629,4.245,1.003,8.493,2.011,12.691,3.199,1.478.418,2.95.861,4.405,1.354.68.23,1.355.47,2.026.726.713.272,1.026.397,1.475.599,1.074.483,2.128,1.008,3.14,1.612.412.246.816.504,1.213.774.222.152.44.309.658.466.518.372.017-.003.307.235,2.783,2.279,4.418,5.439,6.373,8.392,1.698,2.564,5.857.163,4.145-2.423h0Z"/><path class="d" d="M235.213,53.505c.733-.944,1.381-1.644,2.542-1.998,1.033-.315,2.11-.142,2.769.48,1.617,1.527,1.713,3.997,1.492,6.183-.191,1.882-.933,3.858-2.256,5.545-.4.51-1.462,1.56-2.225,2.153-.727.565-1.953,1.293-2.938,1.806-2.741,1.427-.317,5.571,2.423,4.145,4.366-2.273,8.023-5.877,9.307-10.743,1.324-5.019.493-12.299-5.227-14.193-3.417-1.131-7.16.499-9.28,3.227-.795,1.022-.997,2.397,0,3.394.828.828,2.594,1.029,3.394,0h0Z"/><path class="d" d="M239.448,67.821c1.686,2.9,4.038,5.432,6.486,7.704,2.788,2.587,5.831,4.923,9.016,6.999,1.054.687,2.698.247,3.284-.861.633-1.197.264-2.55-.861-3.284-3.008-1.961-5.403-3.798-8.044-6.249-1.2-1.114-2.354-2.281-3.424-3.522-.243-.281-.481-.567-.714-.856.009.011-.383-.495-.212-.268.176.234-.161-.22-.193-.265-.428-.587-.827-1.194-1.192-1.822-.631-1.086-2.196-1.562-3.284-.861-1.095.706-1.536,2.122-.861,3.284h0Z"/></g></svg>
