<svg id="b" xmlns="http://www.w3.org/2000/svg" width="238.176" height="315.134" viewBox="0 0 238.176 315.134" style="color: initial !important;"><defs><style>.e{fill:#ffffff;}.f{fill:#211715;}.g{fill:#f2635f;}.h{fill:#645d5c;}</style></defs><g id="c"><g id="d"><path class="e" d="M136.259,75.757c1.639-1.322,3.769-1.731,5.557-1.564,3.892.362,5.434,2.471,6.076,3.692,1.917,3.651,1.439,10.128-.237,14.06-1.18,2.78-3.001,6.644-7.186,9.522-1.24.848-4.324,2.112-7.356,2.129-.204.631-.35,1.086-.35,1.086-.824,2.009-2.843,5.56-2.843,5.56-1.341,2.256-2.756,4.439-4.35,6.584l.527,3.452c.412,2.312.824,4.625,1.237,6.937.34,1.908.685,3.832,1.419,5.626,1.908,4.659,8.49,8.64,12.796,11.601-13.698,11.473-30.766,17.002-47.139,17.032-6.19,0-12.47-.79-18.24-3.37-5.12-2.31-9.5-6.02-12.63-10.89,0,0-.227-.353-.612-.951,4.398-1.419,9.745-3.028,12.974-4.348,1.976-.613,3.849-1.924,5.178-3.591-8.26-.189-15.69-2.871-22.946-8.139-9.009-6.542-13.395-17.427-15.453-29.623-1.187-7.033-2.307-14.687-3.766-22.316,0,0-11.023-39.3,40.741-42.64,62-4,56.603,40.15,56.603,40.15Z"/><path class="h" d="M149.368,41.313c-.086-.282-.174-.563-.265-.843-3.069-9.45-7.275-17.072-15.226-23.444l-1.576-1.263-8.152-4.961c-13.112-7.98-24.838-9.311-36.367-7.922-18.268,2.202-32.515,10.32-41.58,22.651-5.233,7.119-8.65,17.173-9.609,25.985-.879,8.076-.083,20.033,2.581,29.996.1-1.018.166-1.71.166-1.71.481-5.121,9.059-19.793,15.721-24.291.781-.527,1.912-.057,2.403,1.292.474,1.303.585,2.321.587,3.295.002,1.479,1.539,2.385,2.67,1.581,4.738-3.367,13.658-12.349,24.003-15.473,0,0,.493-.149,1.34-.406,4.574.075,8.458,1.042,8.458,1.042,3.193.985,17.872,4.789,29.968,22.837,2.279,2.372,5.628,5.364,7.951,7.294.259.215.606.324.943.334.287.009.564-.093.83-.2.51-.205.883-.368,1.221-.544,1.69-1.963,4.275-2.567,6.383-2.37,3.892.362,5.434,2.471,6.076,3.692.306.583.551,1.238.74,1.944,3.324-7.055,2.869-19.358,2.853-24.645-.017-4.694-.747-9.371-2.117-13.87Z"/><path class="f" d="M41.74,79.802c.059-.548-.124.571.008-.007.027-.117.047-.236.074-.353.073-.326.162-.647.259-.966.202-.667.626-1.796.778-2.156.827-1.956,1.831-3.844,2.893-5.681,2.194-3.794,4.702-7.491,7.769-10.638.649-.666,1.325-1.307,2.044-1.896-.087.071.665-.563.708-.52.169.166-1.175.117-1.03.011-.057.042.196.767.172.675.319,1.225.115,2.512.667,3.677.652,1.378,1.988,2.352,3.537,2.422,2.093.094,3.81-1.718,5.323-2.944,1.739-1.408,3.454-2.844,5.215-4.225,4.585-3.595,9.595-6.945,15.205-8.68,2.942-.91,1.687-5.545-1.276-4.629-5.535,1.712-10.517,4.755-15.12,8.219-2.022,1.521-3.988,3.113-5.944,4.717-.767.629-1.534,1.26-2.311,1.876-.455.36-.227.189-.67.517-.059.044-.526.323-.53.387.017-.295.807.181.812.182.219.028.084.788.125-.017.011-.216-.023-.454-.043-.671-.071-.779-.198-1.558-.42-2.309-.479-1.623-1.397-3.162-3.095-3.707-2.404-.771-4.45,1.281-6.041,2.806-3.457,3.312-6.29,7.373-8.736,11.468-2.241,3.75-4.696,8.023-5.17,12.444-.139,1.291,1.202,2.4,2.4,2.4,1.413,0,2.261-1.106,2.4-2.4h0Z"/><path class="f" d="M76.341,118.389c.195-.121.393-.238.597-.345.133-.07.268-.134.403-.2.053-.026.427-.182.138-.066-.293.118.102-.035.154-.055.121-.045.243-.089.366-.131.283-.096.569-.184.857-.263.563-.154,1.135-.277,1.711-.372.051-.008.493-.074.198-.034s.149-.015.2-.02c.311-.033.623-.057.935-.073.543-.027,1.088-.029,1.631,0,.164.009.329.021.493.036.06.005.491.046.162.011-.325-.035.088.016.15.027.122.021.243.044.363.069,1.309.275,2.512.888,3.76,1.346,1.181.433,2.681-.485,2.952-1.676.309-1.357-.412-2.488-1.676-2.952-1.308-.48-2.564-1.118-3.941-1.382-1.349-.259-2.73-.352-4.101-.266-2.672.168-5.475.773-7.774,2.201-1.066.662-1.576,2.174-.861,3.284.689,1.069,2.143,1.57,3.284.861h0Z"/><path class="f" d="M89.118,87.624c-.822-2.467-.455-8.192,4.24-8.787,6.221-.106,6.711,6.795,4.692,10.092-1.653,2.699-6.668,3.921-8.932-1.305Z"/><path class="f" d="M52.217,89.634c-.764-2.478-.456-8.219,3.842-8.793,5.698-.077,6.18,6.847,4.346,10.144-1.501,2.699-6.09,3.901-8.188-1.351Z"/><path class="f" d="M71.829,94.224c-.821,1.581-1.605,3.194-2.261,4.851l.242-.573c-.33.754-.64,1.488-.633,2.331.005.556.133,1.153.42,1.636.327.55.712.864,1.217,1.238.492.365,1.082.647,1.688.754.513.091,1.01.099,1.522.144.581.051,1.299-.305,1.697-.703.416-.416.73-1.099.703-1.697-.028-.621-.232-1.264-.703-1.697-.492-.452-1.031-.644-1.697-.703-.269-.024-.54-.016-.809-.047l.638.086c-.194-.028-.376-.076-.558-.146l.573.242c-.23-.099-.433-.226-.632-.378l.486.375c-.091-.074-.177-.148-.259-.232l.375.486c-.056-.074-.094-.139-.132-.224l.242.573c-.02-.054-.035-.11-.044-.168l.086.638c-.015-.124-.014-.241-.002-.365l-.086.638c.044-.295.14-.572.255-.847l-.242.573c.145-.332.28-.668.42-1.003l-.242.573c.566-1.337,1.21-2.646,1.879-3.935.296-.57.416-1.218.242-1.849-.153-.557-.584-1.16-1.103-1.434-1.102-.582-2.666-.329-3.284.861h0Z"/><path class="f" d="M120.119,126.57c6.232-5.938,11.619-13.273,14.958-21.25.501-1.196-.54-2.64-1.676-2.952-1.384-.38-2.45.476-2.952,1.676.194-.463-.12.25-.13.271-.071.154-.144.307-.218.459-.212.44-.433.876-.657,1.309-.378.73-.767,1.455-1.165,2.174-.755,1.367-1.585,2.692-2.441,3.998-2.615,3.991-5.658,7.628-9.113,10.92-2.241,2.135,1.157,5.526,3.394,3.394h0Z"/><path class="f" d="M125.36,8.729C116.271,3.241,106.109.001,95.447,0c-9.7,0-19.519,2.103-28.391,6.002-8.017,3.523-15.3,8.869-20.86,15.653-6.347,7.746-10.227,17.408-11.671,27.289-1.632,11.167-.458,23.116,2.54,33.959.822,2.973,5.454,1.711,4.629-1.276-4.927-17.817-4.825-39.021,6.354-54.573,10.02-13.939,27.053-21.147,43.835-22.146,11.103-.661,21.561,2.234,31.055,7.967,2.651,1.601,5.067-2.548,2.423-4.145h0Z"/><path class="f" d="M107.391,128.817c-11.995,6.373-26.177,9.831-39.203,4.385-5.812-2.43-11.36-6.248-15.052-11.412-3.725-5.211-5.896-11.297-7.288-17.506-1.973-8.794-2.934-17.822-4.618-26.676-.242-1.274-1.775-2-2.952-1.676-1.334.367-1.919,1.675-1.676,2.952,1.587,8.338,2.596,16.79,4.283,25.106,1.372,6.764,3.624,13.557,7.489,19.328,8,11.947,22.906,18.387,37.077,17.291,8.655-.67,16.738-3.596,24.363-7.647,2.729-1.45.307-5.595-2.423-4.145h0Z"/><path class="f" d="M59.638,149.899c3.888-1.395,7.862-2.542,11.784-3.836,4.093-1.351,8.5-2.586,11.345-6.041.823-1,.979-2.415,0-3.394-.849-.849-2.566-1.006-3.394,0-2.436,2.96-6.351,3.869-9.859,5.014-3.715,1.213-7.472,2.309-11.152,3.629-1.22.437-2.038,1.635-1.676,2.952.324,1.179,1.726,2.116,2.952,1.676h0Z"/><path class="e" d="M22.088,167.003c-4.646,6.95-8.001,16.438-12.031,28.444-5.969,20.969-11.585,44.036-3.944,65.393.943,2.635,2.148,5.179,3.684,7.521,5.745,8.759,15.964,14.042,26.432,14.862.171,9.21.141,19.616-.019,29.172,32.023,0,155.584.341,163.575.34-.882-19.313-2.802-66.344-4.817-84.046-2.44-21.439-3.209-44.269-16.554-62.342-9.022-12.218-21.64-16.791-34.851-23.657-14.014,12.662-31.967,18.752-49.154,18.784-6.19,0-12.47-.79-18.24-3.37-5.764-2.601-10.591-6.976-13.744-12.787-12.159,3.421-25.896,6.912-35.358,15.741-1.839,1.716-3.477,3.698-4.979,5.945Z"/><path class="f" d="M149.067,217.919c.764,10.414.857,20.896,1.037,31.332.23,13.37.364,26.734-.117,40.1-.208,5.783-.48,11.567-.9,17.339-.094,1.294,1.17,2.4,2.4,2.4,1.377,0,2.306-1.102,2.4-2.4,1.777-24.456,1.374-49.033.652-73.523-.15-5.083-.299-10.175-.672-15.248-.095-1.293-1.035-2.4-2.4-2.4-1.225,0-2.495,1.1-2.4,2.4h0Z"/><path class="f" d="M33.83,283.224c.176,9.727-.02,19.444-.02,29.17,0,1.297,1.1,2.4,2.4,2.4,9.242,0,18.484.017,27.726.034,13.095.023,26.191.052,39.286.081,13.908.031,27.816.064,41.724.098,11.658.028,23.317.057,34.975.085,6.347.015,12.693.034,19.04.041.267,0,.533,0,.8,0,3.089,0,3.094-4.8,0-4.8-5.501,0-11.002-.021-16.503-.034-11.178-.026-22.356-.054-33.534-.081-13.798-.034-27.597-.067-41.395-.098-13.357-.031-26.713-.06-40.07-.085-9.853-.018-19.705-.037-29.558-.041-.83,0-1.66,0-2.49,0l2.4,2.4c0-9.726.196-19.443.02-29.17-.056-3.085-4.856-3.095-4.8,0h0Z"/><path class="f" d="M149.38,148.29c5.949,2.934,11.944,5.882,17.321,9.803,5.506,4.014,9.903,9.176,13.302,15.06,6.911,11.962,9.287,25.849,10.838,39.395,1.205,10.531,2.316,21.076,3.046,31.651.786,11.393,1.374,22.799,1.929,34.206.503,10.345.957,20.693,1.42,31.041.042.931.084,1.862.126,2.793.14,3.076,4.94,3.093,4.8,0-.455-10.015-.886-20.031-1.363-30.045-.558-11.708-1.149-23.416-1.918-35.113-.687-10.448-1.757-20.84-2.876-31.25-1.516-14.104-3.518-28.414-9.827-41.291-3.154-6.436-7.38-12.439-12.778-17.187-5.082-4.47-10.948-7.848-16.958-10.898-1.54-.782-3.089-1.546-4.638-2.31-1.162-.573-2.597-.313-3.284.861-.619,1.059-.306,2.708.861,3.284h0Z"/><path class="f" d="M61.467,148.425c3.063,4.695,7.242,8.613,12.256,11.159,5.693,2.89,12.081,4.042,18.419,4.253,11.364.377,22.765-1.982,33.163-6.527,6.164-2.695,11.866-6.254,17.098-10.475,1.01-.815.848-2.546,0-3.394-.998-.998-2.382-.817-3.394,0-8.284,6.684-18.101,11.348-28.454,13.764-10.291,2.401-22.016,3.11-32.045-.709-5.288-2.014-9.816-5.767-12.898-10.492-1.681-2.578-5.839-.175-4.145,2.423h0Z"/><path class="f" d="M123.782,120.916c1.028,5.768,1.33,12.161,5.301,16.788,3.234,3.768,7.693,6.332,11.725,9.137,1.065.741,2.666.195,3.284-.861.699-1.195.206-2.541-.861-3.284-3.629-2.524-7.558-4.804-10.532-8.134-1.5-1.68-2.171-3.601-2.635-5.785-.642-3.025-1.111-6.094-1.653-9.137-.228-1.277-1.785-1.997-2.952-1.676-1.346.37-1.905,1.672-1.676,2.952h0Z"/><path class="f" d="M93.882,49.156c.988.303,1.977.599,2.953.94.764.267,1.518.559,2.269.861.424.171-.25-.112.182.076.231.1.461.201.69.304.488.22.973.448,1.454.684,4.793,2.353,9.142,5.485,12.964,9.207,3.012,2.933,5.671,6.181,8.022,9.663,1.719,2.547,5.879.147,4.145-2.423-6.819-10.101-16.143-18.451-27.663-22.717-1.232-.456-2.485-.838-3.74-1.224-2.96-.909-4.225,3.723-1.276,4.629h0Z"/><path class="f" d="M137.471,77.829c2.143-1.626,5.583-1.7,7.393-.004.171.16.331.33.485.506.283.321-.104-.214.171.25.242.408.446.792.603,1.239.498,1.421.623,2.93.61,4.426-.049,5.595-2.675,12.031-7.555,15.201-2.397,1.557-5.952,2.332-8.741,1.231-1.206-.476-2.635.522-2.952,1.676-.375,1.363.466,2.475,1.676,2.952,3.727,1.471,8.336.493,11.779-1.33,3.425-1.814,6.082-5.225,7.789-8.633,1.748-3.49,2.773-7.173,2.804-11.098.027-3.432-.648-7.363-3.275-9.815-3.457-3.226-9.427-3.617-13.21-.747-1.031.782-1.571,2.07-.861,3.284.594,1.015,2.245,1.649,3.284.861h0Z"/><path class="f" d="M94.018,72.119c2.15,1.805,4.793,2.896,7.61,3.012,1.256.052,2.456-1.141,2.4-2.4-.06-1.345-1.054-2.344-2.4-2.4-.269-.011-.537-.034-.804-.068l.638.086c-.909-.123-1.79-.373-2.635-.729l.573.242c-.775-.335-1.505-.755-2.174-1.269l.486.375c-.101-.08-.201-.161-.3-.243-.498-.418-1.026-.703-1.697-.703-.589,0-1.292.261-1.697.703-.42.457-.732,1.058-.703,1.697.027.604.221,1.293.703,1.697h0Z"/><path class="f" d="M110.15,84.733c-.083,2.086-.107,4.175.062,6.258.173,2.129.307,4.607,1.749,6.315,1.408,1.668,3.852,2.16,5.906,1.655,2.242-.551,3.612-2.353,4.353-4.429.423-1.184-.477-2.679-1.676-2.952-1.347-.307-2.499.409-2.952,1.676-.027.079-.055.157-.086.234-.065.168-.038.104.081-.19-.071.055-.182.36-.229.441-.043.073-.243.492-.087.168.143-.3-.101.106-.189.192-.364.354-.023-.04.035-.006-.013-.007-.436.285-.45.255-.015-.033.479-.153-.075-.018l-.161.035c-.214.037-.217.038-.008.005.21-.027.206-.032-.012-.015l-.166.002c-.111,0-.222-.006-.332-.017l.309.042c-.061-.048-.398-.097-.48-.118-.438-.116.37.266-.024-.014-.098-.07-.352-.34-.157-.083.269.355-.091-.171-.111-.141.215.292.252.327.112.106l-.076-.145c.114.291.14.351.076.181-.031-.082-.059-.165-.085-.249-.096-.304-.167-.617-.225-.93-.024-.131-.045-.263-.066-.394-.12-.742.05.475-.037-.266-.095-.815-.167-1.631-.209-2.451-.087-1.715-.057-3.433.011-5.148.05-1.256-1.14-2.456-2.4-2.4-1.343.06-2.347,1.054-2.4,2.4h0Z"/><path class="f" d="M132.183,18.722c6.915,5.59,11.384,12.909,14.229,21.266,1.704,5.006,2.633,10.116,2.669,15.407.024,3.458.071,6.914-.108,10.369-.222,4.273-.611,8.922-2.425,12.851-.543,1.176-.333,2.585.861,3.284,1.036.606,2.738.321,3.284-.861,3.508-7.598,3.272-16.544,3.196-24.737-.094-10.087-2.717-20.081-7.832-28.817-2.726-4.656-6.287-8.764-10.479-12.154-1.007-.814-2.41-.985-3.394,0-.842.842-1.013,2.575,0,3.394h0Z"/><path class="e" d="M155.461,170.028c-.985,1.018-1.852,2.199-2.663,3.276-1.389,1.845-3.245,3.274-5.077,4.68-5.413,4.154-11.07,8.424-17.788,9.731-4.979,4.509-15.601,18.546-19.665,24.336l-1.249,1.766c-8.685-8.695-13.392-13.892-22.701-23.133l7.005-5.966c3.844-3.274,14.314-13.581,15.867-15.302,2.279-1.796,3.353-4.014,4.139-6.882.786-2.868.876-5.333,1.225-8.287s1.006-6.518,2.778-8.906c1.255-1.69,11.1-8.993,17.613-12.56,4.929-2.699,7.457-2.102,9.212-.704.474.378.933.873,1.304,1.492.761,1.271,1.147,3.064.515,5.432l-.202,1.029c3.066-.129,6.379-.113,8.524-.002,1.896.098,4.557,1.819,4.921,4.596.38,2.486.617,3.035-.549,4.473.733-.026,1.469-.051,2.209-.077,1.772-.061,3.765.129,5.188,1.187,1.61,1.196,2.443,3.662,1.325,5.327-.807,1.202-1.794,1.692-3.213,1.98-.403.082-.957.166-1.623.252,5.003,1.362,5.35,3.789,4.718,6.056-.36,1.293-.924,2.552-3.873,2.904-3.164.378-2.685-.075-5.508,1.402-.895.468-1.697,1.139-2.434,1.901Z"/><path class="g" d="M187.705,127.511c7.817-3.497,15.497-7.294,23.322-10.773l-3.526-1.434c.85,4.016,1.337,8.1,2.104,12.131.31,1.627,2.248,2.062,3.526,1.434,7.971-3.914,15.905-7.904,23.872-11.827,1.163-.572,1.482-2.222.861-3.284-.693-1.186-2.117-1.436-3.284-.861-7.967,3.923-15.901,7.913-23.872,11.827l3.526,1.434c-.768-4.032-1.255-8.115-2.104-12.131-.351-1.659-2.21-2.019-3.526-1.434-7.825,3.479-15.505,7.276-23.322,10.773-1.183.529-1.465,2.251-.861,3.284.713,1.218,2.096,1.392,3.284.861h0Z"/><path class="g" d="M169.932,117.058c3.459-4.454,6.622-9.135,9.822-13.776,1.701-2.467,3.4-4.937,5.123-7.39.754-1.073,1.512-2.143,2.281-3.205.363-.501.728-1,1.098-1.496.145-.194.291-.388.437-.582.093-.122.186-.244.279-.366-.15.193-.142.183.024-.03h-3.394c2.636,3.147,4.984,6.523,7.555,9.722,1.058,1.316,2.962.63,3.769-.486,5.608-7.751,11.537-15.265,17.137-23.023.759-1.052.182-2.674-.861-3.284-1.21-.708-2.523-.193-3.284.861-5.6,7.757-11.529,15.271-17.137,23.023l3.769-.486c-2.571-3.199-4.918-6.575-7.555-9.722-.763-.911-2.645-.961-3.394,0-3.386,4.34-6.462,8.921-9.585,13.451-1.718,2.492-3.435,4.985-5.175,7.462-.776,1.105-1.558,2.206-2.35,3.3-.379.523-.761,1.045-1.147,1.563-.153.205-.306.41-.46.614-.049.065-.609.794-.345.454-.794,1.023-.997,2.397,0,3.394.828.828,2.595,1.03,3.394,0h0Z"/><path class="f" d="M95.02,186.415c4.778-4.081,9.237-8.593,13.669-13.041.741-.743,1.492-1.482,2.197-2.259.87-.96.948-2.446,0-3.394-.884-.884-2.52-.964-3.394,0-1.567,1.728-3.273,3.342-4.935,4.977-2.487,2.446-4.994,4.874-7.542,7.257-1.113,1.04-2.23,2.077-3.388,3.066-.986.842-.866,2.528,0,3.394.977.977,2.406.844,3.394,0h0Z"/><path class="f" d="M162.896,160.348c.649.275,1.357.562,1.854,1.065.129.13.175.236.346.508-.079-.126.008.112.006.084.061.638.048.496-.14,1.178-.03.108-.247.706-.142.477.128-.281-.374.507-.05.11-.163.199-.474.339-1.011.467-.724.173-1.474.203-2.214.264-1.308.107-2.366.354-3.56.901-1.63.748-3.08,1.731-4.32,3.034s-2.189,2.838-3.392,4.168c-2.51,2.775-5.862,5.005-8.919,7.132-3.559,2.476-7.321,4.605-11.581,5.575-3.011.686-1.736,5.315,1.276,4.629,4.279-.975,8.222-3.02,11.844-5.455,1.836-1.235,3.605-2.566,5.363-3.91s3.582-2.656,5.117-4.262c1.43-1.496,2.489-3.298,3.959-4.763,1.102-1.099,2.502-1.876,3.738-2.204.376-.1-.394.01.239-.027.314-.018.628-.047.941-.075,1.095-.096,2.239-.178,3.292-.518,1.532-.494,2.847-1.456,3.548-2.93.746-1.568,1.053-3.45.608-5.145-.566-2.157-2.412-3.615-4.38-4.449-1.192-.505-2.571-.358-3.284.861-.589,1.007-.339,2.775.861,3.284h0Z"/><path class="f" d="M139.958,143.029c.371-.092.744-.158,1.119-.226.621-.112-.22.013.301-.046.23-.026.459-.053.689-.077,1.036-.106,2.076-.174,3.116-.225,2.33-.114,4.666-.145,6.998-.1.501.01,1.002.023,1.503.043.205.008.41.019.615.028.476.02-.33-.157.182.046.603.239,1.306.554,1.779,1.136.549.676.689,1.763.842,2.903-.056-.417.097,1.23.073.406.008.258-.189.453.008.107-.148.26-.308.5-.488.739-.782,1.035-.165,2.684.861,3.284,1.23.72,2.5.176,3.284-.861s1.179-2.283,1.069-3.588c-.135-1.603-.356-3.327-1.11-4.77-1.374-2.626-4.121-4.104-7.009-4.225-2.587-.108-5.183-.087-7.77.015-2.432.096-4.966.193-7.337.781-2.997.743-1.727,5.374,1.276,4.629h0Z"/><path class="f" d="M148.291,139.638c.628-2.583.556-5.383-.994-7.644-1.061-1.548-2.667-2.783-4.503-3.253-4.692-1.202-9.418,2.034-13.183,4.424-3.869,2.456-7.631,5.114-11.208,7.98-.949.76-1.954,1.527-2.74,2.463-1.789,2.129-2.617,5.01-3.091,7.699-.974,5.52-.286,12.501-5.079,16.412-1.005.82-.851,2.543,0,3.394.994.994,2.387.822,3.394,0,4.056-3.31,5.176-8.588,5.716-13.542.262-2.404.445-4.809,1.069-7.155.27-1.016.596-2.001,1.119-2.916.373-.653.284-.574.874-1.139,2.441-2.338,5.221-4.215,8.018-6.155,1.767-1.225,3.559-2.415,5.389-3.545,1.778-1.098,3.62-2.299,5.615-2.956.97-.32,1.597-.472,2.558-.396-.355-.028.488.118.69.187-.426-.146.355.197.529.304-.013-.008.492.376.256.18-.214-.179.257.26.296.302.181.191.408.481.58.867.445,1.002.323,2.161.067,3.214-.729,3.001,3.898,4.281,4.629,1.276h0Z"/><path class="f" d="M144.902,152.182c3.743-.278,7.492-.455,11.243-.596,1.798-.067,3.609-.19,5.409-.177,1.099.008,2.44.091,3.277.888.341.325.557.734.645,1.181.06.304.083.508-.154.843-.493.697-1.305.8-2.214.957-.205.035-.411.064-.617.095-.271.04.109-.014.134-.017-.109.014-.218.028-.328.041-.575.069-1.151.135-1.727.196-1.269.134-2.54.253-3.811.37-2.822.26-5.65.489-8.465.822-1.287.152-2.4.994-2.4,2.4,0,1.179,1.104,2.553,2.4,2.4,2.969-.351,5.952-.588,8.929-.865,2.569-.239,5.232-.368,7.756-.928,3.954-.878,6.405-4.731,4.767-8.598-1.686-3.982-5.861-4.678-9.731-4.544-5.041.174-10.081.36-15.112.733-1.293.096-2.4,1.034-2.4,2.4,0,1.225,1.1,2.496,2.4,2.4h0Z"/><path class="f" d="M62.046,142.93c-10.472,2.948-21.375,5.705-30.598,11.71-4.027,2.622-7.532,5.79-10.383,9.657-2.731,3.705-4.782,7.869-6.578,12.091-2.561,6.021-4.662,12.222-6.743,18.421-.986,2.935,3.649,4.194,4.629,1.276,3.163-9.418,6.149-19.357,11.685-27.714,5.237-7.906,13.775-12.554,22.52-15.728,5.487-1.992,11.13-3.504,16.745-5.085,2.969-.836,1.707-5.468-1.276-4.629h0Z"/><path class="f" d="M7.743,194.809c-5.928,20.849-11.429,43.581-4.543,64.91,1.609,4.984,3.926,9.654,7.39,13.613,2.994,3.421,6.766,6.227,10.837,8.237,8.645,4.268,18.541,5.217,27.882,2.889,9.573-2.386,17.968-7.975,25.35-14.35,7.907-6.828,14.9-14.66,21.399-22.82,3.295-4.137,6.474-8.364,9.58-12.644,1.505-2.074,2.993-4.16,4.471-6.253,1.415-2.004,3.066-3.987,4.271-6.124,1.324-2.348.95-5.223-.777-7.249s-3.834-3.84-5.714-5.746c-3.198-3.241-6.357-6.521-9.526-9.791-3.47-3.581-6.932-7.182-10.51-10.656-1.872-1.818-4.364-2.724-6.913-1.763-1.355.511-2.392,1.519-3.497,2.424-1.136.931-2.274,1.86-3.413,2.787-9.077,7.391-18.231,14.69-27.245,22.158-2.269,1.88-4.529,3.772-6.778,5.676-.99.838-.863,2.531,0,3.394.98.98,2.402.84,3.394,0,8.453-7.157,17.071-14.112,25.684-21.074,4.293-3.47,8.467-7.18,12.89-10.48,1.75-1.305,2.999.781,4.171,1.952,1.663,1.662,3.318,3.334,4.963,5.013,2.964,3.025,5.899,6.079,8.849,9.118,1.555,1.601,3.114,3.197,4.682,4.785,1.733,1.755,3.76,3.416,5.316,5.323,1.208,1.481-.737,3.191-1.581,4.396-1.37,1.957-2.745,3.911-4.132,5.857-2.845,3.993-5.737,7.954-8.721,11.845-5.985,7.805-12.388,15.34-19.501,22.145-6.491,6.21-13.721,12.109-22.119,15.528-8.1,3.297-17.005,4.022-25.392,1.373-8.207-2.592-15.069-8.186-18.804-15.984-4.335-9.05-5.289-19.726-4.783-29.62.523-10.242,2.759-20.31,5.396-30.191.66-2.474,1.35-4.941,2.05-7.404.846-2.976-3.784-4.247-4.629-1.276h0Z"/><path class="f" d="M112.339,213.262c2.78-3.953,5.698-7.814,8.683-11.613,3.115-3.965,6.267-7.991,9.865-11.535,2.204-2.171-1.19-5.565-3.394-3.394-3.677,3.622-6.894,7.744-10.073,11.799s-6.275,8.125-9.226,12.321c-.746,1.061-.191,2.668.861,3.284,1.199.701,2.536.202,3.284-.861h0Z"/></g></g></svg>
