<svg id="b" xmlns="http://www.w3.org/2000/svg" width="423.923" height="175.433" viewBox="0 0 423.923 175.433" style="color: initial !important;"><defs><style>.d{fill:#ffffff;}.e{fill:#211715;}.f{fill:#fce0cd;}.g{fill:#f2635f;}</style></defs><g id="c"><path class="d" d="M159.844,10.157c-1.2,2.851-2.402,5.707-3.338,8.656-.03.094-.06.189-.089.283-2.733,8.792-1.93,18.305,1.947,26.655,1.615,3.478,3.229,6.956,4.844,10.435,2.139,4.608,4.281,9.224,5.977,14.013,5.17,14.598,6.046,30.407,5.067,45.863-1.038,16.395-4.095,32.591-6.031,48.903-.3,2.529-2.423,4.444-4.969,4.444h-64.746c-.068-1.476-.558-11.713-2.072-14.972-.935-2.012-2.235-4.091-5.761-4.091-3.266,0-4.828,2.078-5.762,4.091-1.513,3.259-2.004,13.495-2.072,14.972,0,0-37.132,0-64.752,0-2.546,0-4.662-1.915-4.962-4.444-1.937-16.312-4.994-32.508-6.032-48.903-.978-15.456-.103-31.264,5.067-45.863,1.696-4.789,3.838-9.405,5.977-14.013,1.614-3.478,3.229-6.957,4.844-10.435,3.877-8.351,4.679-17.864,1.947-26.655-.029-.094-.059-.189-.089-.283-.936-2.949-2.138-5.805-3.338-8.656h138.344Z"/><path class="d" d="M148.162,125.415c2.06.03,4.08.54,6,1.8.9.59,1.74,1.32,2.26,2.25.55,1,.72,2.18.63,3.31-.31,4.16-4.3,7.97-6.91,10.22-.69.59-1.21,1.36-1.42,2.24-1.06,4.62-2.24,11.11-3.51,16.75l-12.18-2.66c.35-2.08,1.9-11.41,2.08-12.47h-.02c-1.34-.3-2.71-1.63-2.97-2.98-.3-1.49.09-3,.5-4.45.08-.29.17-.58.25-.89.37-1.32.71-2.76.5-4.07-.15-.94-1.02-3.11-2.07-3.25-2.46-.32-4.94-1.49-4.06-4.51.16-.56.45-1.08.78-1.56,2.13-3.01,6.81-7.55,11.21-5.47,1.48.7,2.57,2.3,2.39,3.92-.12,1.04-.71,2.06-.45,3.08,2.32-.75,4.68-1.31,6.99-1.26Z"/><path class="d" d="M48.442,138.445v.01c.1.33.19.66.28.97.41,1.45.8,2.96.5,4.45-.26,1.35-1.63,2.68-2.97,2.98h-.02c.18,1.06,1.73,10.39,2.08,12.47l-12.18,2.66c-1.27-5.64-2.45-12.13-3.51-16.75-.21-.88-.73-1.65-1.42-2.24-2.61-2.25-6.6-6.06-6.91-10.22-.09-1.13.07-2.31.63-3.31.52-.93,1.36-1.66,2.26-2.25,1.95-1.29,4.01-1.79,6.11-1.81,2.28-.02,4.6.53,6.88,1.27.26-1.02-.33-2.04-.45-3.08-.18-1.62.91-3.22,2.39-3.92,4.4-2.08,9.08,2.46,11.2,5.47.34.48.63,1,.79,1.56.88,3.02-1.6,4.19-4.06,4.51-1.05.14-1.92,2.31-2.07,3.25-.21,1.28.11,2.69.47,3.98Z"/><path class="d" d="M115.522,65.005c1.76,1.9,2.15,5.52,2.14,7.48-.05,6.77-.13,14.49-2.94,20.8-.16.37-.34.73-.52,1.09-2.31,4.52-7.32,6.92-9.81,11.32-1.28,2.26-1.79,4.87-2.35,7.41-.23,1.1-.5,2.23-1.19,3.12-.27.36-.65.65-1.12.9-2.05,1.08-5.73,1.13-9.06,1.13-4.03,0-8.55-.08-10.12-1.95-.03-.02-.05-.05-.07-.08-.68-.89-.95-2.02-1.18-3.12-.56-2.54-1.07-5.15-2.35-7.41-2.48-4.38-7.46-6.78-9.78-11.27-.01-.02-.02-.03-.03-.05-3.32-6.5-3.42-14.73-3.46-21.89-.01-1.85.33-5.17,1.84-7.13.67-.87,1.56-1.48,2.75-1.58,3.93-.34,6.64,1.41,9.96,3.73,2.13,1.48,4.17,3.26,6.69,3.86,1.95.47,3.42.52,5.75.52s3.8-.05,5.75-.52c2.52-.6,4.56-2.38,6.69-3.86,3.32-2.32,6.03-4.07,9.96-3.73,1.02.09,1.83.55,2.45,1.23Z"/><path class="d" d="M95.332,126.725v.02h-9.19v-.03c-2.54.18-5,1.26-6.89,2.96-2.06,1.85-3.46,4.33-5.49,6.21-2.46,2.29-5.46,4.01-8.69,4.92-5.29,1.49-11.2.84-15.97-1.9l-.66-.45v-.01c-.36-1.29-.68-2.7-.47-3.98.15-.94,1.02-3.11,2.07-3.25,2.46-.32,4.94-1.49,4.06-4.51-.16-.56-.45-1.08-.79-1.56-2.12-3.01-6.8-7.55-11.2-5.47-1.48.7-2.57,2.3-2.39,3.92.12,1.04.71,2.06.45,3.08-2.28-.74-4.6-1.29-6.88-1.27l-1.86-4.81c-1.22-3.25-1.09-7.39,2.59-8.98,1.4-.61,4.02-.8,5.73-.87,1.03-.05,1.96-.61,2.46-1.51,1.14-2.05.62-4.97-1.21-6.42-1.77-1.41-4.08-1.84-6.3-2.23-3.57-.64-7.18-1.3-10.49-2.79-3.34-1.51-6.81-4.08-7.87-7.69-1.05-3.6-1.36-7.41-1.03-11.14.86-9.62,6.14-18.16,13.9-23.8,4.74-3.44,10.1-4.76,15.71-2.94,5.67,1.84,10.57,5.41,15.33,8.89l5.27,4.24c-1.51,1.96-1.85,5.28-1.84,7.13.04,7.16.14,15.39,3.46,21.89.01.02.02.03.03.05l-3.72,3.06c-2.01,2.31-4.39,5.69-3.72,8.74.28,1.26,1.11,2.38,2,3.39,3.63,4.11,8.67,7.06,14.26,8.64l4.56-1.95c1.57,1.87,6.09,1.95,10.12,1.95,3.33,0,7.01-.05,9.06-1.13l5.62,1.13c5.59-1.58,10.63-4.53,14.26-8.64.89-1.01,1.72-2.13,2-3.39.67-3.05-1.71-6.43-3.72-8.74l-3.17-4.2c2.81-6.31,2.89-14.03,2.94-20.8.01-1.96-.38-5.58-2.14-7.48l5.57-3.89c4.76-3.48,9.66-7.05,15.33-8.89,5.61-1.82,10.97-.5,15.71,2.94,7.76,5.64,13.04,14.18,13.89,23.8.34,3.73.03,7.54-1.02,11.14-1.06,3.61-4.53,6.18-7.87,7.69-3.31,1.49-6.92,2.15-10.49,2.79-2.22.39-4.53.82-6.3,2.23-1.83,1.45-2.35,4.37-1.21,6.42.5.9,1.43,1.46,2.46,1.51,1.71.07,4.33.26,5.73.87,3.68,1.59,3.81,5.73,2.59,8.98l-1.75,4.82c-2.31-.05-4.67.51-6.99,1.26-.26-1.02.33-2.04.45-3.08.18-1.62-.91-3.22-2.39-3.92-4.4-2.08-9.08,2.46-11.21,5.47-.33.48-.62,1-.78,1.56-.88,3.02,1.6,4.19,4.06,4.51,1.05.14,1.92,2.31,2.07,3.25.21,1.31-.13,2.75-.5,4.07l-.63.37c-4.77,2.74-10.68,3.39-15.97,1.9-3.23-.91-6.23-2.63-8.69-4.92-2.03-1.88-3.43-4.36-5.49-6.21-1.86-1.67-4.27-2.74-6.76-2.95ZM121.862,130.535c.17-.69.18-1.45.1-2.17-.2-1.78-.98-3.08-2.14-3.47-2.99-1-6.58-1.61-9.66-1.35-.08.01-.16.02-.24.02-.43.05-.9.15-1.21.62-.28.41-.38,1.03-.36,1.62.03.86.21,1.8.63,2.41.37.55.85.9,1.31,1.25,2.7,1.96,5.65,3.86,8.71,3.67,1.17-.07,2.44-.92,2.86-2.6ZM72.992,125.805c.02-.59-.08-1.21-.36-1.62-.31-.47-.78-.57-1.21-.62-.08,0-.16-.01-.24-.02-3.08-.26-6.67.35-9.66,1.35-1.16.39-1.94,1.69-2.14,3.47-.08.72-.07,1.48.1,2.17.42,1.68,1.69,2.53,2.86,2.6,3.05.19,6.01-1.71,8.71-3.67.46-.35.94-.7,1.31-1.25.42-.61.6-1.55.63-2.41Z"/><path class="e" d="M90.672,116.258c-1.641-.001-3.287-.006-4.923-.155-1.059-.097-2.636-.205-3.498-.921-.928-.771-1.016-2.573-1.256-3.668-.395-1.801-.839-3.576-1.566-5.275-2.384-5.573-8.402-8.182-10.916-13.599-2.766-5.959-2.777-12.917-2.828-19.352-.015-1.945.046-3.945.857-5.754.966-2.155,2.884-2.089,5.026-1.467,2.991.87,5.493,3.099,7.999,4.848,2.639,1.841,5.432,2.745,8.637,2.925,3.087.173,6.568.241,9.534-.773,3.17-1.084,5.667-3.463,8.452-5.235,1.904-1.211,4.844-2.798,7.13-2,1.567.547,2.05,3.198,2.231,4.607.345,2.681.111,5.512-.003,8.2-.135,3.178-.427,6.352-1.183,9.448-.838,3.429-2.172,6.415-4.679,8.929-2.284,2.291-4.865,4.286-6.639,7.037-1.086,1.684-1.76,3.621-2.253,5.552-.215.844-.396,1.697-.582,2.548-.188.858-.291,1.999-.843,2.719-.642.838-2.025,1.01-3.001,1.15-1.874.269-3.805.235-5.694.236-2.574.002-2.578,4.002,0,4,3.246-.003,6.974.151,9.955-1.347,3.332-1.675,3.348-5.935,4.248-9.084.963-3.372,2.978-5.624,5.496-7.957,2.426-2.248,4.711-4.519,6.083-7.582,3.017-6.737,3.193-14.34,3.21-21.601.006-2.41-.34-4.871-1.367-7.07-1.275-2.729-3.674-4.008-6.643-3.878-3.551.156-6.535,1.93-9.375,3.912-1.461,1.02-2.855,2.158-4.423,3.013-1.393.759-2.958,1.064-4.53,1.163-3.163.2-6.965.402-9.837-1.163-3.079-1.678-5.607-4.22-8.829-5.676-2.7-1.22-6.529-2.075-9.187-.297-2.159,1.445-3.13,4.098-3.519,6.563-.466,2.952-.287,5.991-.174,8.965.139,3.662.467,7.362,1.343,10.929.835,3.4,2.168,6.677,4.461,9.356,2.071,2.42,4.766,4.259,6.717,6.786,2.295,2.972,2.322,6.58,3.497,9.985,1.203,3.485,4.181,4.429,7.563,4.79,1.763.188,3.541.191,5.312.193,2.574.002,2.578-3.998,0-4h0Z"/><path class="e" d="M77.416,83.972c1.703.79,3.593,1.079,5.437,1.341,2.533.36,5.09.612,7.65.624,2.531.012,5.059-.23,7.564-.575,1.998-.275,3.996-.598,5.86-1.39.994-.423,1.213-1.889.718-2.736-.602-1.029-1.738-1.142-2.736-.718.344-.146-.445.124-.584.163-.389.11-.783.202-1.179.288-.978.212-1.969.378-2.96.511-2.209.297-4.453.467-6.682.457-2.168-.01-4.347-.18-6.496-.469-.943-.127-1.886-.284-2.817-.484-.385-.083-.77-.171-1.149-.279-.178-.051-1.01-.373-.607-.186-.979-.454-2.155-.276-2.736.718-.506.865-.267,2.28.718,2.736h0Z"/><path class="e" d="M77.416,94.16c1.703.79,3.593,1.079,5.437,1.341,2.533.36,5.09.612,7.65.624,2.531.012,5.059-.23,7.564-.575,1.998-.275,3.996-.598,5.86-1.39.994-.423,1.213-1.889.718-2.736-.602-1.029-1.738-1.142-2.736-.718.344-.146-.445.124-.584.163-.389.11-.783.202-1.179.288-.978.212-1.969.378-2.96.511-2.209.297-4.453.467-6.682.457-2.168-.01-4.347-.18-6.496-.469-.943-.127-1.886-.284-2.817-.484-.385-.083-.77-.171-1.149-.279-.178-.051-1.01-.373-.607-.186-.979-.454-2.155-.276-2.736.718-.506.865-.267,2.28.718,2.736h0Z"/><path class="e" d="M83.078,119.604c.149,2.088.298,4.175.447,6.263.038.535.197,1.026.586,1.414.347.347.916.608,1.414.586,1.02-.046,2.08-.882,2-2-.149-2.088-.298-4.175-.447-6.263-.038-.535-.197-1.026-.586-1.414-.347-.347-.916-.608-1.414-.586-1.02.046-2.08.882-2,2h0Z"/><path class="e" d="M86.142,124.718c-3.546.318-6.737,1.814-9.19,4.415s-4.263,5.504-7.354,7.463c-5.861,3.714-13.417,3.987-19.483.583-2.248-1.261-4.266,2.193-2.019,3.454,6.545,3.673,14.561,3.876,21.317.638,3.362-1.611,6.067-4.03,8.369-6.925,2.22-2.791,4.599-5.29,8.359-5.627,1.076-.096,2-.85,2-2,0-1.007-.918-2.097-2-2h0Z"/><path class="e" d="M62.037,96.075c-1.843,2.142-3.707,4.606-4.249,7.447-.621,3.254.914,5.81,3.078,8.104,3.929,4.165,9.128,6.982,14.597,8.552,2.479.711,3.537-3.147,1.063-3.857-4.411-1.266-8.59-3.414-11.921-6.606-1.373-1.316-3.227-2.993-2.965-5.084.271-2.162,1.854-4.135,3.226-5.729.704-.818.804-2.024,0-2.828-.721-.721-2.121-.822-2.828,0h0Z"/><path class="f" d="M84.838,169.409c.109-2.353.273-4.705.518-7.048.166-1.597.31-2.79.628-4.403.128-.649.273-1.297.465-1.93.076-.25.161-.496.254-.74.116-.302-.3.563.026-.035.105-.192.196-.392.303-.583.683-1.219,1.535-2.106,3.029-2.297.764-.098,1.752.009,2.35.265.173.074.337.174.496.273.567.353-.084-.098.202.142.135.113.26.238.381.366.008.008.396.486.214.24.225.304.415.635.594.967.081.15.158.302.234.455.003.007.284.61.128.253-.11-.253.147.414.186.535.108.337.199.679.282,1.022.346,1.423.567,2.942.717,4.193.331,2.764.532,5.545.66,8.325.118,2.563,4.119,2.578,4,0-.127-2.741-.324-5.483-.646-8.209-.385-3.257-.752-6.803-2.701-9.56-2.69-3.806-8.359-4.425-11.828-1.264-2.556,2.328-3.183,5.885-3.628,9.138-.449,3.282-.711,6.587-.863,9.895-.119,2.573,3.881,2.567,4,0h0Z"/><path class="f" d="M19.571,10.689c1.883,4.474,3.785,8.982,4.567,13.802.753,4.644.461,9.485-.701,14.035-1.239,4.85-3.619,9.307-5.716,13.825-2.18,4.698-4.411,9.38-6.318,14.197-7.568,19.116-7.558,40.076-5.375,60.226,1.282,11.835,3.257,23.579,4.753,35.387.136,1.071.822,2,2,2,.975,0,2.137-.921,2-2-2.643-20.864-6.825-41.725-5.911-62.856.434-10.028,2.073-20.025,5.541-29.47,1.803-4.911,4.059-9.638,6.259-14.379,2.123-4.574,4.578-9.123,6.08-13.949,1.6-5.142,2.158-10.664,1.531-16.016-.656-5.596-2.684-10.711-4.854-15.867-.419-.995-1.322-1.71-2.46-1.397-.938.258-1.819,1.458-1.397,2.46h0Z"/><path class="e" d="M71.18,121.547c-3.153-.247-6.413.269-9.429,1.18-1.484.448-2.696,1.125-3.472,2.523-.794,1.431-1.075,3.2-.888,4.814.198,1.715.968,3.269,2.426,4.25,1.316.886,2.873.925,4.391.705,3.204-.464,6.164-2.454,8.645-4.438,1.498-1.198,2.135-3.003,2.14-4.887.003-1.078-.275-2.19-1.009-3.007-.752-.837-1.732-1.042-2.803-1.141-1.077-.1-2,.991-2,2,0,1.165.92,1.899,2,2,.174.016.369.138.036,0,.041.017.268.117.081.009-.142-.082-.237-.23-.354-.304.096.06.054.311.048.554-.003.109-.011.217-.019.326-.014.141-.012.146.007.014l-.039.216c-.031.14-.07.279-.101.418,0,0-.111.322-.038.148.086-.206-.281.42-.113.213-.167.206-.383.387-.588.553.033-.026.198-.153.016-.018-.157.117-.316.23-.475.344-1.913,1.373-3.801,2.647-6.057,3.075-.026.005-.386.045-.131.02-.111.011-.222.018-.333.023-.258.013-.524-.023-.78-.004.372-.028.25.059.089.007-.088-.028-.209-.068-.295-.083.04.007.291.173.116.051-.107-.075-.236-.132-.349-.201.32.194-.062-.076-.169-.183-.209-.208.144.241-.017-.02-.049-.08-.097-.16-.145-.24-.189-.311-.075-.156-.04-.063-.05-.132-.083-.269-.122-.404-.067-.235-.069-.339-.076-.659-.006-.284.005-.571.036-.853.042-.389-.048.218.023-.13.021-.103.041-.207.066-.309.02-.082.244-.767.111-.453.093-.22.217-.424.345-.624-.204.319.103-.049.169-.153.151-.237-.214.235-.033.033.045-.05.142-.078.2-.112-.373.217-.113.05.018.016.146-.039.292-.093.435-.137.296-.091.593-.176.891-.257,2.542-.69,4.909-1.023,7.585-.813,1.078.084,2-.98,2-2,0-1.152-.919-1.915-2-2Z"/><path class="e" d="M95.202,128.718c3.673.329,6.053,2.731,8.23,5.465,2.355,2.956,5.058,5.439,8.498,7.088,6.756,3.238,14.771,3.035,21.317-.638,2.245-1.26.231-4.716-2.019-3.454-6.066,3.404-13.622,3.131-19.483-.583-3.026-1.918-4.838-4.73-7.214-7.31-2.472-2.685-5.706-4.242-9.33-4.567-1.077-.097-2,.988-2,2,0,1.162.92,1.903,2,2h0Z"/><path class="e" d="M116.478,98.904c1.365,1.586,2.928,3.538,3.221,5.682.288,2.113-1.573,3.801-2.96,5.13-3.331,3.192-7.51,5.34-11.921,6.606-2.47.709-1.42,4.57,1.063,3.857,5.469-1.569,10.668-4.386,14.597-8.552,2.127-2.256,3.645-4.747,3.102-7.948-.492-2.903-2.401-5.427-4.274-7.603-.705-.819-2.105-.724-2.828,0-.812.812-.707,2.007,0,2.828h0Z"/><path class="e" d="M147.139,162.519c.872-3.904,1.636-7.832,2.44-11.751.348-1.695.554-3.552,1.127-5.187.453-1.291,2.096-2.249,3.049-3.198,2.33-2.324,4.62-5.206,5.167-8.542.703-4.285-1.648-7.599-5.498-9.293-4.139-1.821-8.61-1.134-12.785.195l2.46,1.397c-.126-.785.498-1.893.53-2.723.038-.982-.223-1.973-.682-2.839-.93-1.754-2.739-2.955-4.674-3.294-3.82-.668-7.343,1.617-9.872,4.274-2.371,2.491-4.998,6.561-1.993,9.644.576.591,1.295,1.005,2.049,1.319.36.15.72.286,1.097.387.298.08,1.044.123,1.182.213.052.034.397.804.487,1.055.291.816.241,1.636.064,2.476-.529,2.505-1.62,4.919-1.133,7.532.398,2.136,2.282,4.131,4.424,4.602l-1.397-2.46c-.699,4.155-1.376,8.313-2.075,12.468-.179,1.064.281,2.154,1.397,2.46.959.264,2.28-.326,2.46-1.397.699-4.155,1.376-8.313,2.075-12.468.172-1.021-.256-2.209-1.397-2.46-2.187-.482-1.632-2.974-1.211-4.534.571-2.116,1.277-4.246.869-6.463-.286-1.551-1.175-3.455-2.578-4.288-.981-.582-2.796-.282-3.505-1.28-.753-1.06.878-2.717,1.559-3.484,1.177-1.325,2.573-2.631,4.232-3.323,1.26-.525,2.885-.679,3.962.327.603.563.734,1.178.566,1.952-.257,1.188-.491,2.138-.293,3.366.167,1.04,1.517,1.697,2.46,1.397,3.917-1.247,8.554-2.135,12.017.75,3.224,2.686.095,7.132-2.027,9.413-1.183,1.271-2.67,2.317-3.748,3.671-1.262,1.586-1.48,3.71-1.885,5.639-.935,4.459-1.784,8.936-2.778,13.383-.56,2.508,3.295,3.579,3.857,1.063h0Z"/><path class="e" d="M151.837,121.129c1.222-3.396,1.141-7.686-1.825-10.173-1.62-1.358-3.575-1.761-5.621-2.001-1.513-.177-3.545.318-3.838-1.634-.682-4.544,6.39-4.733,9.299-5.304,4.644-.912,9.21-2.341,12.923-5.381,3.846-3.148,4.938-7.75,5.295-12.52.338-4.527-.298-9.198-1.832-13.471-2.855-7.955-8.961-15.767-16.76-19.372-4.923-2.275-10.188-2.36-15.228-.389-5.186,2.029-9.7,5.237-14.166,8.502-.871.637-1.302,1.736-.718,2.736.503.859,1.86,1.359,2.736.718,6.71-4.906,15.098-11.587,23.925-8.667,3.936,1.302,7.322,4.2,10.079,7.22,2.591,2.837,4.717,6.187,6.078,9.785,1.51,3.989,2.166,8.21,1.916,12.47-.13,2.215-.41,4.758-1.353,6.793-.754,1.627-2.123,2.947-3.589,3.942-3.743,2.54-8.229,3.407-12.606,4.192-4.022.721-8.81,1.914-9.826,6.53-.468,2.125-.085,4.619,1.502,6.208,1.687,1.689,3.995,1.356,6.162,1.644,1.565.208,3.228.613,3.895,2.211.652,1.561.242,3.379-.305,4.9-.873,2.426,2.99,3.471,3.857,1.063h0Z"/><path class="e" d="M38.062,161.456c-.994-4.447-1.843-8.924-2.778-13.383-.405-1.931-.622-4.051-1.885-5.639-1.078-1.355-2.564-2.399-3.748-3.671-2.126-2.283-5.251-6.727-2.027-9.413,3.463-2.885,8.1-1.998,12.017-.75.949.302,2.293-.357,2.46-1.397.197-1.228-.036-2.178-.293-3.366-.167-.774-.037-1.389.566-1.952,1.076-1.004,2.705-.851,3.962-.327,1.659.692,3.055,1.998,4.232,3.323.683.769,2.313,2.422,1.559,3.484-.706.994-2.53.701-3.505,1.28-1.403.832-2.292,2.737-2.578,4.288-.408,2.215.298,4.346.869,6.463.421,1.561.976,4.053-1.211,4.534-1.131.249-1.568,1.441-1.397,2.46.699,4.155,1.376,8.313,2.075,12.468.179,1.066,1.495,1.662,2.46,1.397,1.13-.31,1.577-1.391,1.397-2.46-.699-4.155-1.376-8.313-2.075-12.468l-1.397,2.46c1.852-.408,3.497-1.97,4.17-3.71.85-2.198.156-4.606-.456-6.77-.453-1.603-.915-3.211-.08-4.756.356-.659.276-.38,1.091-.567.828-.19,1.685-.497,2.403-.956,1.493-.951,2.416-2.483,2.39-4.274-.029-2.035-1.215-3.707-2.462-5.207-2.262-2.722-5.53-5.313-9.224-5.397-2.181-.05-4.346.89-5.673,2.636-.691.91-1.117,1.97-1.202,3.114-.04.538.029,1.085.136,1.613.091.448.459,1.176.386,1.628l2.46-1.397c-3.618-1.152-7.595-1.919-11.317-.761-3.831,1.192-7.193,4.089-7.12,8.368.06,3.513,2.134,6.605,4.43,9.104,1.057,1.151,2.307,2.094,3.377,3.221,1.024,1.078,1.102,3.258,1.395,4.662.918,4.393,1.757,8.802,2.736,13.182.561,2.511,4.418,1.448,3.857-1.063h0Z"/><path class="e" d="M33.364,120.066c-.978-2.718-1.023-6.105,2.352-6.888,1.758-.408,3.685-.126,5.395-.664,1.945-.612,3.221-2.362,3.567-4.327s-.051-4.055-1.243-5.678c-1.298-1.766-3.386-2.727-5.454-3.284-4.418-1.191-9.057-1.37-13.247-3.385-1.677-.806-3.265-1.809-4.56-3.156-1.474-1.534-2.044-3.336-2.461-5.386-.886-4.361-.657-8.962.513-13.247,2.062-7.555,7.305-14.679,14.168-18.559,4.368-2.469,9.016-2.565,13.637-.751,4.819,1.892,9.063,5.066,13.21,8.099.872.638,2.231.147,2.736-.718.593-1.013.157-2.097-.718-2.736-7.474-5.465-16.442-12.031-26.23-9.307-4.343,1.208-8.131,3.994-11.306,7.12-3.022,2.975-5.57,6.501-7.347,10.355-1.864,4.043-2.949,8.361-3.154,12.813-.21,4.568.218,10.159,3.085,13.916,2.762,3.62,7.125,5.687,11.421,6.869,2.378.654,4.81,1.044,7.231,1.5,1.778.335,4.377.713,5.397,2.425.773,1.299.742,3.572-1.078,3.688-2.202.14-4.577.238-6.579,1.265-4.119,2.111-4.616,7.144-3.193,11.099.865,2.404,4.732,1.367,3.857-1.063h0Z"/><path class="f" d="M157.915,9.626c-1.912,4.544-3.836,9.12-4.602,14.021-.751,4.807-.624,9.674.386,14.436,1.043,4.918,3.258,9.367,5.36,13.896,2.204,4.747,4.499,9.467,6.49,14.309,7.872,19.146,7.976,39.958,5.793,60.244-1.282,11.916-3.273,23.742-4.779,35.63-.136,1.073,1.017,2,2,2,1.194,0,1.864-.923,2-2,2.624-20.712,6.767-41.415,5.93-62.39-.401-10.05-1.917-20.141-5.226-29.665-1.697-4.884-3.858-9.595-6.031-14.281-2.126-4.585-4.594-9.143-6.294-13.906-1.778-4.983-2.47-10.278-1.973-15.549.52-5.51,2.679-10.631,4.804-15.681.419-.996-.451-2.2-1.397-2.46-1.155-.317-2.039.397-2.46,1.397h0Z"/><path class="e" d="M110.164,125.547c2.355-.185,4.46.058,6.672.582.532.126,1.06.267,1.584.422.291.087.578.194.87.275-.021-.006-.339-.093-.13-.051.186.037.257.183.04-.01.083.074.392.423.283.275-.117-.159.165.303.211.389.183.341.045.121.019.042.043.126.084.251.12.379.029.102.162.743.129.516.059.402.059,1.193.023,1.402-.026.151-.074.289-.107.437-.011.05-.142.36-.017.089-.055.119-.426.635-.191.367-.077.087-.162.164-.241.249-.027.029-.244.186-.057.055.175-.123-.272.14-.351.179.417-.206-.127-.002-.255.027.064-.014.401-.007.125-.031-.182-.016-.373.011-.557.004-.148-.005-.297-.014-.444-.029.048.005.217.035-.021-.002-.259-.04-.516-.099-.769-.165-.522-.137-1.117-.347-1.469-.518-1.093-.531-2.125-1.158-3.126-1.845-.27-.186-.538-.375-.804-.566-.132-.095-.263-.194-.397-.287-.277-.193.018.03-.138-.102-.076-.065-.153-.128-.226-.196-.013-.012-.317-.336-.262-.261.101.138-.104-.185-.118-.212-.128-.243.06.349-.057-.181-.125-.563-.221-.753-.142-1.419-.033.273.017-.095.039-.11-.061.042-.154.17-.211.229-.057.059-.153.076-.225.108.421-.186-.427.017.199-.042,1.075-.1,2-.847,2-2,0-1.004-.918-2.101-2-2-.956.089-1.877.247-2.605.935-.752.712-1.07,1.653-1.174,2.659-.172,1.668.279,3.465,1.374,4.746.981,1.149,2.482,2.028,3.751,2.829,1.397.882,2.921,1.671,4.527,2.09,1.484.387,3.173.553,4.62-.045,1.463-.604,2.502-1.804,3.013-3.294.973-2.835.057-7.095-2.935-8.344-1.589-.664-3.364-1.025-5.061-1.284-1.827-.279-3.664-.436-5.51-.291-1.077.084-2,.859-2,2,0,1.017.917,2.085,2,2Z"/><path class="e" d="M94.266,119.604c-.149,2.088-.298,4.175-.447,6.263-.075,1.046.973,2.046,2,2,1.147-.051,1.92-.88,2-2,.149-2.088.298-4.175.447-6.263.075-1.046-.973-2.046-2-2-1.147.051-1.92.88-2,2h0Z"/><path class="e" d="M86.144,128.748c3.062,0,6.125,0,9.187,0,1.046,0,2.048-.92,2-2s-.879-2-2-2c-3.062,0-6.125,0-9.187,0-1.046,0-2.048.92-2,2s.879,2,2,2h0Z"/><path class="g" d="M1.932,45.892c23.851,0,47.702,0,71.553,0,21.011,0,42.022,0,63.033,0,14.298,0,28.596,0,42.894,0,2.574,0,2.578-4,0-4-23.851,0-47.702,0-71.553,0-21.011,0-42.022,0-63.033,0-14.298,0-28.596,0-42.894,0-2.574,0-2.578,4,0,4h0Z"/><path class="d" d="M254.045,10.157c4.144,4.939,6.389,13.292,2.495,21.678-1.615,3.478-4.033,9.889-5.859,13.261-2.577,4.758-4.389,8.54-6.085,13.329-5.17,14.598-5.938,42.181-4.959,57.637,1.04,16.424,2.782,32.648,4.885,48.988.321,2.492,2.446,4.357,4.958,4.357,24.171.002,59.931.002,59.931.002.068-1.476.558-11.713,2.072-14.972.935-2.012,2.235-4.091,5.761-4.091,3.266,0,4.828,2.078,5.762,4.091,1.513,3.259,2.004,13.495,2.072,14.972h66.356c2.373,0,4.431-1.666,4.905-3.991,2.574-12.636,4.69-25.367,6.343-38.158,1.466-11.346,2.926-22.477,1.726-33.89-1.26-11.996-4.615-23.873-9.652-34.723-3.666-7.899-7.382-14.97-7.896-23.894-.485-8.409,1.276-16.859,4.533-24.595h-137.349Z"/><path class="d" d="M274.642,131.955c-.19.71-.21,1.47-.15,2.24.07.92.25,1.85.39,2.69.27,1.46.5,2.98.07,4.41-.4,1.29-1.87,2.47-3.21,2.62l-.02.01c.07,1.04.67,10.34.81,12.41l-12.18,1.41c-.69-5.64-1.21-12.12-1.8-16.75-.11-.88-.56-1.68-1.17-2.33-2.33-2.46-5.87-6.58-5.77-10.68.02-1.12.3-2.26.94-3.18.61-.87,1.5-1.5,2.44-1.99,2.38-1.24,4.79-1.44,7.17-1.05,1.89.31,3.77.98,5.6,1.79.36-.97-.12-2.03-.13-3.06-.02-1.6,1.2-3.06,2.72-3.6,4.52-1.61,8.65,3.3,10.44,6.46.28.5.51,1.03.61,1.6.57,3.04-1.98,3.95-4.42,4.02-1.04.03-2.1,2.07-2.34,2.98Z"/><path class="d" d="M372.462,137.065c2.91-.58,5.84-.45,8.64,1.19.93.54,1.8,1.23,2.37,2.14.61.97.83,2.14.8,3.27-.1,4.17-3.89,8.17-6.38,10.56-.66.63-1.15,1.42-1.3,2.31-.83,4.66-1.68,11.21-2.66,16.91l-12.3-2.04c.25-2.1,1.32-11.5,1.44-12.56h-.01c-1.36-.23-2.79-1.49-3.13-2.83-.37-1.47-.06-3,.28-4.47.36-1.55.84-3.4.5-4.99-.21-.93-1.18-3.05-2.23-3.14l-.33-.03c-2.37-.26-4.66-1.35-3.96-4.27.14-.57.39-1.1.71-1.59,1.96-3.12,6.41-7.9,10.91-6.04,1.51.62,2.68,2.16,2.58,3.79-.06,1.05-.61,2.1-.29,3.1,1.44-.55,2.9-1.02,4.36-1.31Z"/><path class="d" d="M326.552,118.505c-2.19.64-5.61.27-8.73-.11-4.06-.5-8.62-1.15-9.86-3.26-.17-.29-.31-.6-.41-.93-.24-.73-.32-1.53-.39-2.31-.25-2.59-.43-5.24-1.43-7.65-1.93-4.67-6.62-7.66-8.36-12.42-.36-.99-.65-2.01-.87-3.05-1.37-6.16-.6-13.03.1-19.1.29-2.47,1.55-7.49,4.87-8.04.24-.04.49-.06.75-.05,3.94.14,6.43,2.21,9.44,4.91,1.93,1.73,3.73,3.75,6.16,4.65,1.88.7,3.34.94,5.65,1.22,2.31.29,3.78.41,5.77.19,2.58-.3,4.82-1.81,7.11-3.03,3.58-1.89,6.48-3.3,10.34-2.48,1.26.27,2.11,1.08,2.66,2.14,1.13,2.14,1.07,5.3.84,7.07-.92,7.07-2.02,15.21-6.08,21.26-.01.01-.02.03-.03.04-2.84,4.21-8.11,5.97-11.11,10.04-1.55,2.09-2.37,4.61-3.23,7.07-.38,1.06-.78,2.15-1.57,2.95-.4.41-.95.7-1.62.89Z"/><path class="d" d="M312.162,126.235c-2.51-.1-5.03.66-7.07,2.1-2.27,1.58-3.96,3.87-6.21,5.49-2.71,1.97-5.9,3.32-9.22,3.83-5.1.78-10.51-.37-14.78-3.25l-.39-.21c-.06-.77-.04-1.53.15-2.24.24-.91,1.3-2.95,2.34-2.98,2.44-.07,4.99-.98,4.42-4.02-.1-.57-.33-1.1-.61-1.6-1.79-3.16-5.92-8.07-10.44-6.46-1.52.54-2.74,2-2.72,3.6.01,1.03.49,2.09.13,3.06-1.83-.81-3.71-1.48-5.6-1.79l-2.43-8.27c-.81-3.38-.18-7.47,3.67-8.61,1.46-.42,4.08-.3,5.79-.16,1.03.08,2.02-.37,2.63-1.2,1.37-1.89,1.22-4.85-.42-6.52-1.59-1.61-3.83-2.32-5.98-2.98-3.47-1.07-6.98-2.16-10.08-4.05-3.13-1.9-6.26-4.87-6.87-8.59-.6-3.69-.45-7.52.34-11.18,2.02-9.45,8.3-17.28,16.69-21.93,5.12-2.83,11.73-2.95,17.08-.46,5.4,2.51,9.08,5.26,13.61,8.95l5.28,4.87c-3.32.55-4.58,5.57-4.87,8.04-.7,6.07-1.47,12.94-.1,19.1l-4.01,2.49c-2.27,2.05-5.05,5.11-4.75,8.22.12,1.29.81,2.49,1.57,3.61,3.1,4.52,7.75,8.06,13.1,10.31l5.14.8c.1.33.24.64.41.93,1.24,2.11,5.8,2.76,9.86,3.26,3.12.38,6.54.75,8.73.11l5.95,2.76c5.7-1.13,10.95-3.68,14.89-7.49.97-.94,1.89-1.99,2.26-3.23.91-2.98-1.2-6.54-3.02-8.99l-2.52-4.04c4.06-6.05,5.16-14.19,6.08-21.26.23-1.77.29-4.93-.84-7.07l5.62-3c5.15-2.88,9.46-5.63,15.3-6.76,5.8-1.13,10.96.84,15.24,4.83,7.02,6.54,11.21,15.66,10.89,25.32-.12,3.73-.89,7.48-2.37,10.92-1.49,3.46-5.25,5.59-8.75,6.68-3.46,1.08-7.13,1.29-10.76,1.49-2.24.12-4.59.26-6.52,1.44-1.99,1.22-2.86,4.06-1.98,6.23.39.95,1.24,1.63,2.26,1.8,1.69.28,4.27.79,5.58,1.56,3.46,2.03,3.08,6.15,1.47,9.23l-2.87,8.14c-1.46.29-2.92.76-4.36,1.31-.32-1,.23-2.05.29-3.1.1-1.63-1.07-3.17-2.58-3.79-4.5-1.86-8.95,2.92-10.91,6.04-.32.49-.57,1.02-.71,1.59-.7,2.92,1.59,4.01,3.96,4.27l-1.59.57c-5.06,2.14-11.01,2.06-16.08-.06-3.1-1.3-5.87-3.37-8.03-5.94-1.78-2.13-2.87-4.75-4.69-6.84-1.67-1.92-3.98-3.29-6.48-3.77v.03c-3.04-.38-6.08-.75-9.12-1.12v-.02ZM348.722,131.845c.02-1.8-.6-3.18-1.7-3.7-2.85-1.36-6.34-2.41-9.42-2.52-.08,0-.16-.01-.24-.01-.44-.01-.91.04-1.28.46-.32.37-.5.98-.55,1.57-.08.86-.01,1.81.32,2.47.31.59.74,1,1.16,1.39,2.44,2.28,5.14,4.53,8.19,4.71,1.18.07,2.54-.61,3.16-2.23.25-.66.35-1.41.36-2.14ZM301.122,121.875c.1-.58.07-1.22-.15-1.66-.26-.5-.71-.66-1.13-.75-.08-.02-.16-.04-.24-.05-3.02-.64-6.66-.47-9.75.16-1.19.24-2.13,1.44-2.55,3.18-.16.71-.25,1.46-.16,2.16.21,1.73,1.36,2.72,2.52,2.93,3.01.57,6.17-.96,9.09-2.58.51-.28,1.02-.58,1.46-1.08.48-.55.78-1.46.91-2.31Z"/><path class="f" d="M327.079,169.409c-.127-2.741-.324-5.483-.646-8.209-.392-3.317-.755-6.919-2.835-9.669-1.413-1.868-3.396-2.979-5.742-3.16-2.253-.174-4.582.506-6.184,2.143-2.343,2.394-2.961,5.816-3.397,8.999-.449,3.282-.711,6.587-.863,9.895-.119,2.573,3.881,2.567,4,0,.109-2.353.273-4.705.518-7.048.166-1.597.31-2.79.628-4.403.128-.649.273-1.297.465-1.93.076-.25.161-.496.254-.74.115-.302-.28.547.02-.023.095-.18.178-.367.273-.548.666-1.263,1.302-2.049,2.751-2.305,1.625-.287,3.02.188,3.993,1.369-.172-.209.257.366.226.318.102.155.198.314.291.475.092.159.178.321.262.484,0,0,.304.643.143.276-.111-.253.147.414.186.535.108.337.199.679.282,1.022.346,1.423.567,2.942.717,4.193.331,2.764.532,5.545.66,8.325.118,2.563,4.119,2.578,4,0h0Z"/><path class="f" d="M389.465,9.626c-3.808,9.139-5.705,19.396-4.146,29.252,1.515,9.573,6.813,17.89,10.276,26.799,3.592,9.24,6.053,19.03,6.931,28.915.935,10.514-.344,21.034-1.688,31.453-1.537,11.914-3.452,23.772-5.77,35.559-.495,2.514,3.36,3.591,3.857,1.063,2.053-10.436,3.803-20.93,5.234-31.47s2.966-21.113,2.652-31.738c-.297-10.06-2.319-20.143-5.495-29.679-1.568-4.709-3.484-9.276-5.59-13.767-1.978-4.218-4-8.431-5.334-12.907-3.199-10.726-1.306-22.251,2.93-32.418.416-.998-.449-2.2-1.397-2.46-1.152-.316-2.043.396-2.46,1.397h0Z"/><path class="f" d="M252.631,11.572c3.059,3.719,4.348,8.748,3.808,13.498-.294,2.583-1.273,4.905-2.299,7.261-.948,2.178-1.836,4.381-2.77,6.564-1.985,4.638-4.574,8.97-6.573,13.601-1.771,4.103-3.185,8.283-4.143,12.647-2,9.112-2.785,18.515-3.169,27.82-.373,9.025-.217,18.033.415,27.041.989,14.092,2.49,28.142,4.254,42.157.135,1.071.823,2,2,2,.976,0,2.136-.921,2-2-1.6-12.709-2.985-25.448-3.965-38.221-.725-9.455-1.09-18.877-.799-28.359.289-9.392.966-18.867,2.848-28.089.882-4.322,2.13-8.516,3.843-12.584,1.989-4.724,4.647-9.113,6.668-13.822,1.024-2.386,1.987-4.798,3.035-7.173,1.305-2.958,2.364-5.811,2.677-9.057.559-5.798-1.32-11.635-5.002-16.113-1.636-1.99-4.452.854-2.828,2.828h0Z"/><path class="g" d="M226.209,1.988c0,6.699,0,13.398,0,20.097,0,2.574,4,2.578,4,0,0-.662,0-1.323,0-1.985,0-2.574-4-2.578-4,0,0,.662,0,1.323,0,1.985h4c0-6.699,0-13.398,0-20.097,0-2.574-4-2.578-4,0h0Z"/><path class="g" d="M234.326,5.276c-1.567-1.567-3.135-3.135-4.702-4.702-.764-.764-2.063-.765-2.828,0-1.567,1.567-3.135,3.135-4.702,4.702-.741.741-.796,2.098,0,2.828s2.038.791,2.828,0c1.567-1.567,3.135-3.135,4.702-4.702h-2.828c1.567,1.567,3.135,3.135,4.702,4.702.741.741,2.098.796,2.828,0s.791-2.038,0-2.828h0Z"/><path class="g" d="M419.23,88.216c0-6.699,0-13.398,0-20.097h-4c0,.662,0,1.323,0,1.985,0,2.574,4,2.578,4,0,0-.662,0-1.323,0-1.985,0-2.574-4-2.578-4,0,0,6.699,0,13.398,0,20.097,0,2.574,4,2.578,4,0h0Z"/><path class="g" d="M420.518,82.1c-1.567,1.567-3.135,3.135-4.702,4.702h2.828c-1.567-1.567-3.135-3.135-4.702-4.702-.741-.741-2.098-.796-2.828,0s-.791,2.038,0,2.828c1.567,1.567,3.135,3.135,4.702,4.702.764.764,2.063.765,2.828,0,1.567-1.567,3.135-3.135,4.702-4.702.741-.741.796-2.098,0-2.828s-2.038-.791-2.828,0h0Z"/><path class="e" d="M317.82,120.391c3.113.38,6.784,1.021,9.806-.148,3.378-1.306,3.948-5.114,5.151-8.116,1.292-3.225,3.453-5.342,6.22-7.341,2.7-1.951,5.323-3.868,7.142-6.719,3.835-6.013,4.926-13.318,5.846-20.251.607-4.575.681-11.75-5.2-12.789-3.75-.663-7.131.547-10.428,2.244-1.671.86-3.277,1.904-5.009,2.639-1.625.689-3.321.819-5.066.73-3.249-.166-7.042-.514-9.751-2.484-2.789-2.029-4.966-4.782-7.924-6.619-2.504-1.555-6.115-2.716-8.943-1.405-2.39,1.109-3.682,3.748-4.396,6.148-.846,2.844-.987,5.947-1.242,8.886-.319,3.687-.441,7.407.028,11.086.449,3.529,1.345,7.004,3.416,9.949,1.83,2.601,4.231,4.797,5.808,7.574.905,1.593,1.34,3.367,1.582,5.174.245,1.83.188,3.774.694,5.559.924,3.259,3.97,4.449,7.016,5.089,1.732.364,3.495.576,5.25.793,1.074.133,2-1.014,2-2,0-1.191-.923-1.867-2-2-1.527-.189-3.056-.392-4.558-.731-1.069-.241-2.368-.498-3.25-1.194-.89-.703-.835-2.388-.938-3.489-.173-1.85-.35-3.727-.83-5.527-.835-3.133-2.698-5.646-4.75-8.087-1.779-2.117-3.595-4.192-4.464-6.869-2.081-6.416-1.273-13.424-.519-19.996.087-.755.06-.68.188-1.376.094-.509.211-1.015.35-1.514.279-1.001.64-1.999,1.242-2.856,1.253-1.783,3.445-1.221,5.209-.37,2.781,1.342,4.884,3.76,7.173,5.762,2.398,2.098,5.047,3.345,8.193,3.865,3.283.543,6.893,1.09,10.172.228s6.038-3.021,9.099-4.372c1.734-.766,5.659-2.026,7.106-.307,1.168,1.387,1.145,3.697,1.061,5.395-.137,2.788-.667,5.63-1.174,8.37-.571,3.089-1.309,6.199-2.537,9.1-1.346,3.179-3.195,5.662-5.97,7.717-2.642,1.956-5.421,3.745-7.382,6.441-1.125,1.548-1.884,3.31-2.556,5.092-.505,1.338-.819,3.505-1.922,4.528-.738.684-2.26.648-3.262.65-1.9.004-3.797-.23-5.68-.459-1.074-.131-2,1.013-2,2,0,1.19.923,1.869,2,2h0Z"/><path class="e" d="M333.832,82.211c-1.449.468-3.108.434-4.708.458-2.262.033-4.537-.047-6.786-.302-2.149-.244-4.286-.716-6.378-1.259-1.662-.431-3.515-.882-4.897-1.681-2.233-1.29-4.249,2.165-2.019,3.454,1.671.965,3.648,1.497,5.498,1.991,2.45.653,4.943,1.148,7.46,1.455,2.358.288,4.747.376,7.122.341,1.876-.028,3.967-.018,5.772-.6,2.44-.788,1.396-4.651-1.063-3.857h0Z"/><path class="e" d="M332.59,92.323c-1.449.468-3.108.434-4.708.458-2.262.033-4.537-.047-6.786-.302-2.149-.244-4.286-.716-6.378-1.259-1.662-.431-3.515-.882-4.897-1.681-2.233-1.29-4.249,2.165-2.019,3.454,1.671.965,3.648,1.497,5.498,1.991,2.45.653,4.943,1.148,7.46,1.455,2.358.288,4.747.376,7.122.341,1.876-.028,3.967-.018,5.772-.6,2.44-.788,1.396-4.651-1.063-3.857h0Z"/><path class="e" d="M321.279,119.877c-.402,2.054-.804,4.108-1.206,6.162-.104.533-.08,1.06.202,1.541.243.415.718.811,1.195.919.991.226,2.245-.299,2.46-1.397.402-2.054.804-4.108,1.206-6.162.104-.533.08-1.06-.202-1.541-.243-.415-.718-.811-1.195-.919-.991-.226-2.245.299-2.46,1.397h0Z"/><path class="e" d="M320.753,129.269c3.66.786,5.759,3.195,7.64,6.261,1.927,3.142,4.161,5.826,7.205,7.948,6.177,4.307,14.523,5.254,21.493,2.401.999-.409,1.708-1.329,1.397-2.46-.26-.946-1.455-1.809-2.46-1.397-6.504,2.663-14.195,1.687-19.602-2.916-1.209-1.029-2.342-2.18-3.244-3.49-1.02-1.482-1.857-3.083-2.918-4.538-2.082-2.854-4.963-4.919-8.447-5.667-2.51-.539-3.583,3.316-1.063,3.857h0Z"/><path class="e" d="M344.901,102.561c1.263,1.723,2.699,3.749,2.95,5.934.258,2.252-1.696,3.808-3.26,5.112-3.595,3.001-8.067,4.806-12.62,5.734-1.059.216-1.669,1.469-1.397,2.46.303,1.101,1.398,1.613,2.46,1.397,5.548-1.131,10.861-3.571,15.09-7.373,2.23-2.005,4.039-4.445,3.697-7.596-.311-2.854-1.797-5.411-3.466-7.688-.638-.87-1.735-1.303-2.736-.718-.858.502-1.36,1.86-.718,2.736h0Z"/><path class="e" d="M337.6,127.623c2.153.094,4.387.653,6.596,1.476.609.227.878.336,1.415.581.173.079.421.266.601.297.237.04-.225-.203-.038-.038.074.065.309.345.055.006.117.156.21.33.298.503.135.266-.086-.282-.002.019.025.09.057.178.081.268.033.126.06.252.085.379-.062-.31.005.016.01.078.022.328.03.653.013.981-.006.11-.012.22-.023.329.028-.263-.016.089-.023.12-.061.277-.123.565-.234.828.117-.277-.156.236-.2.307-.165.262.191-.188-.019.021-.101.101-.198.204-.307.297.294-.254-.109.004-.201.09-.176.163.283-.045.05-.023-.085.008-.214.042-.29.08-.177.088.118-.013.169-.013-.096,0-.191.013-.287.013-.117,0-.233-.011-.35-.02.278.021-.081-.011-.187-.032-.509-.099-1.019-.246-1.497-.449.237.101-.435-.221-.488-.248-.256-.135-.508-.28-.754-.432-1.007-.622-1.652-1.151-2.549-1.944-.492-.435-.986-.873-1.449-1.339-.07-.07-.137-.142-.205-.213-.333-.347.069.187-.182-.251-.005-.009-.16-.325-.078-.127.085.206-.066-.278-.077-.325-.098-.415-.023-.187-.016-.102-.015-.183-.018-.366-.015-.549.001-.11.006-.219.011-.329.022-.516-.079.168.058-.341-.002.007.08-.334.043-.162-.046.107-.019.066.082-.123l-.31.316c-.009.005-.325.127-.357.073.013.021.567-.002.572-.002,1.047.031,2.047-.942,2-2-.05-1.11-.879-1.967-2-2-.844-.025-1.673.103-2.385.585-.862.584-1.383,1.566-1.573,2.575-.351,1.872-.079,3.779,1.138,5.281.904,1.116,2.102,2.073,3.225,2.96,1.318,1.041,2.675,1.936,4.244,2.554,1.365.537,2.981.863,4.424.465,1.461-.404,2.702-1.492,3.336-2.862,1.262-2.725,1.032-7.041-1.844-8.698-1.547-.891-3.409-1.485-5.122-1.965-1.771-.496-3.606-.815-5.444-.895-1.047-.046-2.047.953-2,2,.05,1.123.879,1.951,2,2Z"/><path class="e" d="M273.868,136.132c5.994,3.944,13.855,4.884,20.577,2.317,3.401-1.299,6.219-3.283,8.804-5.823,2.605-2.559,5.222-4.512,9.043-4.392,2.575.081,2.572-3.919,0-4-3.579-.112-6.863,1.172-9.596,3.441-1.28,1.062-2.397,2.299-3.624,3.419-1.27,1.158-2.708,2.089-4.244,2.855-6.045,3.016-13.336,2.417-18.939-1.27-2.157-1.419-4.163,2.043-2.019,3.454h0Z"/><path class="e" d="M291.081,89.852c-2.087,1.899-4.119,4.132-4.998,6.87-.955,2.974.242,5.696,2.002,8.08,3.401,4.607,8.065,8.092,13.32,10.326.993.422,2.143.297,2.736-.718.491-.84.282-2.311-.718-2.736-4.366-1.856-8.32-4.536-11.352-8.213-1.261-1.529-2.795-3.434-2.178-5.518.627-2.117,2.432-3.821,4.016-5.262,1.908-1.736-.927-4.558-2.828-2.828h0Z"/><path class="e" d="M261.663,112.962c-.643-2.829-.022-6.086,3.381-6.328,1.934-.138,4.12.463,5.975-.17,1.98-.675,3.249-2.555,3.595-4.565.35-2.035-.07-4.167-1.372-5.797-1.359-1.701-3.379-2.665-5.386-3.387-4.314-1.55-8.766-2.516-12.597-5.173-1.532-1.063-2.955-2.409-3.899-4.029-1.107-1.898-1.223-4.173-1.253-6.324-.06-4.294.826-8.658,2.634-12.562,1.626-3.512,3.881-6.676,6.657-9.37s6.204-5.299,9.94-6.451c9.631-2.967,18.363,3.618,25.434,9.374.837.681,2.01.819,2.828,0,.704-.704.842-2.143,0-2.828-6.899-5.616-15.049-11.893-24.454-11.267-8.72.58-16.412,6.862-21.197,13.847-2.416,3.527-4.17,7.563-5.069,11.744-1.009,4.695-1.51,10.557.591,15.027,1.921,4.086,6.069,6.896,10.081,8.652,2.313,1.013,4.709,1.789,7.119,2.532,1.851.571,4.395,1.145,5.575,2.848.8,1.154.801,3.995-1.055,3.991-2.34-.005-4.72-.423-6.971.464-4.426,1.743-5.372,6.624-4.416,10.835.57,2.509,4.427,1.447,3.857-1.063h0Z"/><path class="e" d="M375.857,173.974c.661-3.874,1.217-7.764,1.808-11.648.258-1.695.493-3.4.82-5.084.295-1.519,1.722-2.445,2.726-3.535,2.331-2.53,4.52-5.54,4.973-9.038.553-4.271-1.962-7.406-5.78-8.965-4.207-1.717-8.729-.794-12.834.746l2.46,1.397c-.179-.84.363-1.873.364-2.742.002-.978-.281-1.972-.774-2.816-1.036-1.772-2.886-2.86-4.889-3.132-3.787-.515-7.222,1.955-9.572,4.69-2.223,2.586-4.757,6.77-1.645,9.736.626.597,1.391.999,2.196,1.295.33.121.665.221,1.009.295.202.043.405.075.609.107.18.028.974.259.698.055-.321-.238.034.124.078.215.139.284.333.541.455.836.321.772.307,1.599.193,2.417-.35,2.53-1.374,4.938-.794,7.529.47,2.1,2.425,4.083,4.583,4.444l-1.468-1.929c-.487,4.185-.952,8.373-1.439,12.558-.125,1.075,1.009,2,2,2,1.185,0,1.874-.922,2-2,.487-4.185.952-8.373,1.439-12.558.092-.788-.682-1.797-1.468-1.929-2.226-.373-1.921-2.733-1.563-4.393.457-2.115,1.11-4.329.594-6.5-.368-1.548-1.307-3.384-2.733-4.199-1.005-.575-3.069-.161-3.747-1.262-.608-.987.817-2.626,1.402-3.372,1.103-1.407,2.44-2.731,4.042-3.553,1.212-.623,2.821-.888,3.987.002.634.484.868,1.124.763,1.892-.165,1.198-.436,2.159-.176,3.378.211.991,1.49,1.761,2.46,1.397,3.866-1.45,8.518-2.621,12.142.112,3.389,2.556.396,7.234-1.645,9.619-1.167,1.364-2.765,2.538-3.707,4.07-1.022,1.661-1.099,3.821-1.392,5.703-.681,4.367-1.288,8.744-2.032,13.101-.182,1.064.282,2.154,1.397,2.46.961.264,2.277-.326,2.46-1.397h0Z"/><path class="e" d="M377.061,129.937c1.684-3.338,2.276-7.629-.47-10.603-1.413-1.531-3.415-2.206-5.39-2.664-.847-.197-1.928-.199-2.724-.54-.66-.283-.783-.927-.796-1.595-.038-1.96,1.434-3.003,3.172-3.441,2.331-.588,4.841-.461,7.224-.658,4.691-.387,9.589-1.282,13.493-4.09s5.486-7.178,6.3-11.772.704-9.265-.366-13.797c-.997-4.224-2.846-8.296-5.328-11.853-2.504-3.589-5.624-7.019-9.437-9.24-4.472-2.607-9.514-3.105-14.495-1.855-5.145,1.291-9.697,4.059-14.28,6.626-2.246,1.258-.232,4.714,2.019,3.454,6.874-3.849,15.149-9.227,23.218-5.564,3.671,1.667,6.709,4.738,9.063,7.957,2.376,3.251,4.168,6.88,5.193,10.778,1.06,4.029,1.283,8.323.556,12.431-.386,2.177-.937,4.491-1.946,6.471-.826,1.622-2.207,2.811-3.759,3.718-3.944,2.304-8.61,2.675-13.072,2.924-4.153.232-9.107.595-10.955,4.995-.822,1.958-.885,4.494.337,6.316,1.362,2.032,3.536,2.119,5.701,2.635,1.596.381,3.368.847,3.99,2.548.568,1.553.009,3.392-.702,4.8-1.157,2.293,2.293,4.32,3.454,2.019h0Z"/><path class="e" d="M300.136,117.482c-3.266-.662-6.597-.558-9.871-.011-1.587.265-2.797.864-3.759,2.193-.924,1.277-1.36,2.979-1.397,4.539-.038,1.593.525,3.244,1.71,4.342,1.165,1.081,2.686,1.44,4.243,1.424,1.642-.016,3.26-.444,4.771-1.06,1.537-.628,3.098-1.352,4.499-2.25,1.722-1.104,2.563-2.79,2.795-4.785.251-2.15-.845-3.923-2.991-4.392-1.054-.23-2.163.316-2.46,1.397-.275,1,.337,2.229,1.397,2.46.132.029.263.063.395.091.149.032.137.115.075.017-.032-.051-.314-.296-.371-.336-.046-.032.048-.274,0-.011-.026.138.005.298-.007.441-.02.244-.01.06-.002.013-.03.18-.075.359-.123.535-.028.104-.218.617-.13.431-.041.086-.301.493-.109.252-.307.385-.67.549-1.168.825-1.003.556-2.062,1.131-3.097,1.548-.537.216-1.089.402-1.649.551-.484.128-1.02.24-1.354.253-.501.019-1.014.037-1.336-.029-.106-.022-.559-.175-.358-.087.258.113-.444-.327-.26-.168.21.182-.344-.43-.084-.074-.073-.1-.132-.21-.196-.315-.005-.009-.132-.289-.062-.115-.121-.297-.143-.686-.114-1.202.021-.376.156-.855.305-1.327-.003.01.125-.32.056-.16-.068.156.075-.144.071-.138.046-.081.428-.659.209-.391.052-.064.452-.441.296-.322-.225.172.127-.088.138-.073l.071-.039-.185.075c.531-.136,1.067-.233,1.609-.316,2.278-.35,5.155-.383,7.384.069,1.058.214,2.16-.305,2.46-1.397.271-.987-.333-2.245-1.397-2.46Z"/><path class="e" d="M310.103,119.045c-.107,2.09-.213,4.18-.32,6.27-.053,1.046.958,2.047,2,2,1.129-.051,1.943-.879,2-2,.107-2.09.213-4.18.32-6.27.053-1.046-.958-2.047-2-2-1.129.051-1.943.879-2,2h0Z"/><path class="e" d="M321.279,125.37c-3.039-.373-6.079-.746-9.118-1.12-1.042-.128-2.044,1.011-2,2,.053,1.193.883,1.863,2,2,3.039.373,6.079.746,9.118,1.12,1.042.128,2.044-1.011,2-2-.053-1.193-.883-1.863-2-2h0Z"/><path class="g" d="M421.852,55.098c-26.74-3.283-53.48-6.567-80.22-9.85-23.577-2.895-47.153-5.79-70.73-8.685-15.983-1.963-31.967-3.925-47.95-5.888-1.074-.132-2,1.014-2,2,0,1.19.923,1.868,2,2,26.74,3.283,53.48,6.567,80.22,9.85,23.577,2.895,47.153,5.79,70.73,8.685,15.983,1.963,31.967,3.925,47.95,5.888,1.074.132,2-1.014,2-2,0-1.19-.923-1.868-2-2h0Z"/><path class="e" d="M262.35,157.749c-.521-4.319-.908-8.652-1.367-12.977-.186-1.75-.169-3.744-.818-5.39-.697-1.766-2.278-3.027-3.447-4.481-1.803-2.241-4.932-7.019-1.959-9.566,3.407-2.92,8.331-1.634,11.999-.05,1.153.498,2.575.173,2.938-1.195.321-1.212-.03-2.15-.062-3.347-.018-.688.24-1.235.801-1.657,1.153-.866,2.75-.513,3.903.137,1.351.761,2.491,1.924,3.426,3.151.641.841,2.225,2.72,1.631,3.837-.515.97-2.522.659-3.386.964-1.652.584-2.717,2.463-3.231,4.038-.656,2.008-.173,4.191.18,6.207.175.999.5,2.37.061,3.344-.138.307-.364.564-.63.768-.137.106-1.082.439-.664.39-1.017.12-2.079.821-2,2,.277,4.138.533,8.277.81,12.415.171,2.555,4.173,2.574,4,0-.278-4.138-.533-8.277-.81-12.415l-2,2c1.963-.231,3.803-1.369,4.75-3.141,1.09-2.04.694-4.453.305-6.621-.33-1.844-.551-3.377.462-5.013.165-.266.447-.31.052-.195.31-.09.796-.066,1.139-.116.852-.125,1.668-.353,2.438-.751,1.606-.831,2.586-2.446,2.613-4.248.029-1.949-.972-3.69-2.076-5.224-2.037-2.83-4.846-5.569-8.471-5.978-2.126-.24-4.393.481-5.823,2.114-.723.826-1.219,1.788-1.397,2.874-.184,1.124.403,2.345.123,3.403l2.938-1.195c-3.598-1.554-7.37-2.732-11.321-1.989-3.827.721-7.309,3.239-7.776,7.299-.405,3.52,1.352,6.863,3.422,9.581.96,1.261,2.29,2.382,3.136,3.705.757,1.184.625,3.187.768,4.547.449,4.258.832,8.523,1.345,12.775.129,1.072.827,2,2,2,.98,0,2.13-.92,2-2h0Z"/></g></svg>
