<svg id="b" xmlns="http://www.w3.org/2000/svg" width="372.816" height="262.712" viewBox="0 0 372.816 262.712" style="color: initial !important;"><defs><style>.d{fill:#ffffff;}.e{fill:none;}.f{fill:#a98a75;}.g{fill:#211715;}.h{fill:#645d5c;}.i{fill:#cfcfcf;}</style></defs><g id="c"><path class="f" d="M281.96,125.524c-11.77-.535-29.445.677-42.236,3.191-6.349,1.248-11.584,4.427-15.959,9.157-2.034,2.2-3.571,4.584-4.669,7.14-.067.169-.108.267-.108.267-1.362,3.267-2.011,6.813-2.07,10.611-.09,5.732.156,15.238.761,23.061h-4.247c2.736,4.128,2.471,6.894,3.715,12.118.433,1.815.522,3.631.328,5.411-.629,5.769-4.236,11.152-8.779,14.86-2.164,1.766-4.517,3.246-6.987,4.526,1.562,2.368,4.138,3.977,7.06,4.28,7.507.565,28.818-3.176,28.818-3.176l.732-.128c1.457,5.302,5.459,8.608,10.735,9.808,6.475,1.474,14.163.976,20.776.711,7.384-.297,14.772-1.263,21.857-3.417,2.208-.672,4.35-1.907,6.366-3.038,5.953-3.339,10.048-9.003,12.324-15.496,2.276-6.493,2.97-13.428,3.648-20.285l8.728-26.299-8.509-14.938c-4.277-8.349-13.24-14.645-23.881-17.463-2.148-.45-5.033-.746-8.401-.9Z"/><path class="d" d="M217.474,196.481c.194-1.779.105-3.595-.328-5.411-1.245-5.224-.979-7.99-3.715-12.118h4.247c-.604-7.823-.85-17.329-.761-23.061.059-3.798.708-7.344,2.07-10.611l-2.823-.202-21.865-1.564c-12.174-3.535-28.446,2.96-36.774,11.569-10.198,10.541-14.048,30.395.055,39.3l.535.338.048.03c-8.142,3.302-16.667,5.707-25.362,7.144-.592.098-1.269.248-1.543.769-.192.365-.12.802-.041,1.205,1.722,8.789,4.518,17.379,8.313,25.528.534,1.147,1.738,1.877,3.03,1.829,14.795-.552,29.053-4.837,43.026-9.222,8.095-2.54,16.488-5.258,23.108-10.662,4.543-3.708,8.15-9.091,8.779-14.86Z"/><path class="d" d="M364.83,201.055c.555,2.107.452,4.327.257,6.496-.185,1.932-.452,3.926-1.439,5.601-1.943,3.289-6.054,4.491-9.805,5.201-11.234,2.107-22.827,2.21-34.091.278-3.967-.678-8.387-1.973-10.196-5.571-2.097-4.162.637-9.384,4.635-11.799,1.727.411,3.546.699,5.406.874,3.412.319,7.071.596,10.761.987l-.021.154c5.612,1.018,12.344.853,16.784-.062,4.728-.966,9.99-3.33,13.577-6.526.195-.175.391-.349.576-.545,1.819.976,3.022,2.898,3.556,4.913Z"/><path class="g" d="M313.546,199.322c-4.934,2.832-8.521,9.232-5.721,14.745,2.913,5.735,10.598,6.498,16.226,7.2,7.662.955,15.439.988,23.109.099,5.954-.69,14.023-1.233,17.822-6.615,1.043-1.478,1.568-3.234,1.839-5.004.321-2.094.533-4.279.376-6.396-.27-3.635-1.779-7.315-5.169-9.072-2.282-1.183-4.308,2.268-2.019,3.454,2.272,1.178,3.104,3.652,3.215,6.083.118,2.605.058,6.013-1.307,8.323-1.179,1.996-3.458,2.97-5.591,3.586-2.741.791-5.622,1.205-8.447,1.554-6.386.789-12.85.938-19.266.446-3.074-.236-6.154-.592-9.182-1.178-2.234-.432-4.654-1.021-6.483-2.454-4.299-3.368-1.215-9.117,2.618-11.318,2.232-1.281.22-4.739-2.019-3.454h0Z"/><path class="g" d="M195.803,142.606c.295,5.303.715,10.616.835,15.926.059,2.585-.025,5.17-.533,7.71s-1.063,5.084-1.417,7.661c-1.26,9.175-.998,18.498.76,27.588.796,4.119,1.865,8.193,3.097,12.202,1.182,3.848,4.084,6.903,7.982,8.047,2.544.746,5.38.485,7.987.302,3.152-.221,6.294-.588,9.426-.997,4.738-.619,9.47-1.322,14.177-2.147,1.065-.187,1.664-1.49,1.397-2.46-.309-1.124-1.393-1.584-2.46-1.397-3.566.625-7.148,1.175-10.733,1.68-5.492.774-11.163,1.657-16.725,1.468-2.963-.1-5.704-1.858-6.875-4.625-.753-1.779-1.166-3.783-1.667-5.646-.516-1.92-.991-3.852-1.405-5.797-1.805-8.488-2.152-17.129-1.257-25.756.573-5.525,2.257-10.821,2.262-16.412.005-5.778-.531-11.581-.852-17.348-.142-2.56-4.143-2.576-4,0h0Z"/><path class="d" d="M217.474,196.481c.194-1.779.105-3.595-.328-5.411-1.245-5.224-.979-7.99-3.715-12.118h4.247c-.604-7.823-.85-17.329-.761-23.061.059-3.798.708-7.344,2.07-10.611l-2.823-.202-21.865-1.564c-12.174-3.535-28.446,2.96-36.774,11.569-10.198,10.541-14.048,30.395.055,39.3l.535.338.048.03c-8.142,3.302-16.667,5.707-25.362,7.144-.592.098-1.269.248-1.543.769-.192.365-.12.802-.041,1.205,1.722,8.789,4.518,17.379,8.313,25.528.534,1.147,1.738,1.877,3.03,1.829,14.795-.552,29.053-4.837,43.026-9.222,8.095-2.54,16.488-5.258,23.108-10.662,4.543-3.708,8.15-9.091,8.779-14.86Z"/><path class="i" d="M47.525,191.14c-4.389,2.878-8.028,6.396-8.922,10.481-1.319,6.025,2.107,9.728,7.173,10.662,4.501.83,25.085-5.968,29.473-7.306,0,0,3.538-1.079,8.12-2.476-.085-3.636.035-15.035.443-18.803-2.58-.153-6.857-.153-8.525-.214-4.334-2.371-8.388-1.235-12.648.368-2.621.986-6.129,2.387-9.66,4.17-1.853.936-3.712,1.977-5.454,3.119Z"/><path class="d" d="M148.256,173.847c-.767,2.214-4.224,2.817-7.052,3.023-16.05,1.166-34.364,2.332-50.414,3.498-2.185.159-4.572.392-6.094,1.673-1.67,1.406-1.726,3.578-1.68,5.528.128,5.443.256,10.886.385,16.329.044,1.855,1.426,3.407,3.298,3.753,8.01,1.481,18.49,2.236,26.706,2.246h55.429"/><path class="g" d="M146.327,173.316c-.374.921-2.406,1.188-3.204,1.333-1.848.336-3.773.356-5.644.489-4.227.301-8.454.593-12.681.882-8.68.594-17.361,1.173-26.04,1.781-2.075.145-4.149.292-6.224.441-1.975.142-4.017.195-5.941.705-1.806.478-3.439,1.446-4.46,3.043-.949,1.486-1.136,3.336-1.125,5.058.029,4.626.214,9.257.323,13.882.047,1.987-.155,4.116.912,5.89.941,1.564,2.542,2.501,4.302,2.83,8.807,1.647,17.912,2.225,26.861,2.248,2.574.007,2.578-3.993,0-4-7.562-.019-15.179-.482-22.662-1.593-.856-.127-1.71-.263-2.562-.412-.721-.125-1.537-.176-2.115-.673-.411-.353-.599-.797-.665-1.322-.14-1.125-.055-2.33-.082-3.464-.102-4.346-.235-8.692-.306-13.039-.022-1.319-.096-3.06,1.097-3.941,1.216-.898,3.041-.962,4.486-1.072,4.003-.305,8.009-.573,12.015-.85,8.238-.569,16.477-1.12,24.715-1.686,4.554-.313,9.109-.623,13.661-.961,3.519-.261,7.703-.829,9.197-4.507.407-1.001-.442-2.198-1.397-2.46-1.144-.314-2.052.392-2.46,1.397h0Z"/><path class="g" d="M76.296,181.756c-4.126-2.151-8.409-1.846-12.705-.37-4.095,1.407-8.138,3.122-11.99,5.096-6.402,3.281-14.134,8.188-15.154,15.975-.423,3.231.425,6.584,2.863,8.857,1.915,1.785,4.684,3.003,7.321,3.038,2.082.028,4.214-.45,6.238-.887,2.715-.586,5.402-1.303,8.075-2.054,4.978-1.399,9.894-2.994,14.837-4.506,2.455-.751,1.408-4.613-1.063-3.857-8.326,2.546-16.652,5.54-25.254,7.02-.247.043-.495.082-.743.121-.379.059.102-.006-.261.038-.408.05-.817.091-1.228.111-.29.014-.582-.006-.871.007-.445.02.001.018,0,.018-.33-.059-.659-.131-.983-.216-2.212-.584-4.193-1.953-4.827-4.246-1.791-6.478,5.221-11.468,9.954-14.256,3.701-2.18,7.64-3.934,11.644-5.476,3.942-1.518,8.101-3.058,12.129-.958,2.28,1.189,4.305-2.262,2.019-3.454h0Z"/><path class="i" d="M111.715,227.791c.509,3.435,1.084,6.864,1.75,10.269.731,3.735,1.83,7.75,4.888,10.35,3.465,2.946,9.396,3.807,13.386,1.391,2.599-1.573,4.175-4.41,4.839-7.32.369-1.616.485-3.271.5-4.923.002-.209-.006-.426-.018-.648,0,0,.873-5.627,1.54-9.918-2.955-6.714-5.23-13.71-6.784-20.856l-2.674-.37c-4.377-.606-10.65.402-14.504,3.516-1.847,1.492-3.191,3.583-3.869,6.248-.754,2.968.04,5.742.431,8.622.164,1.213.336,2.426.516,3.639Z"/><path class="d" d="M248.276,184.598c-1.022.037-2.044.074-3.066.111-.402.015-.805.029-1.207.044-1.497-2.321-2.996-4.642-4.481-6.96.114-.319.18-.66.189-1.014.089-3.286.191-5.692.272-9.599.075-3.615.331-7.652,3.007-10.108,2.255-2.07,10.336-3.347,15.016-4.241.113.975.184,1.572.184,1.572.036.299.059.599.082.898.196,3.385-.51,6.765-.489,10.157,2.489-.765,5.775-1.295,7.229.869,1.269,1.895.132,4.414-.999,6.395-2.219,3.851-4.452,7.703-6.669,11.555-3.025.106-6.047.212-9.069.32Z"/><path class="g" d="M244.003,186.753c5.718-.21,11.436-.41,17.154-.608l-2-2c.301,7.434.877,14.852,1.688,22.247.118,1.074.835,2,2,2,.99,0,2.119-.919,2-2-.811-7.395-1.387-14.814-1.688-22.247-.043-1.052-.882-2.039-2-2-5.718.199-11.436.398-17.154.608-2.566.094-2.579,4.095,0,4h0Z"/><path class="g" d="M236.431,217.541c1.862,6.185,6.911,10.056,13.134,11.256,7.461,1.438,15.318.902,22.856.431,4.023-.251,8.042-.716,12.004-1.46,3.933-.738,7.929-1.642,11.525-3.444,6.169-3.091,11.144-7.441,14.327-13.639,4.042-7.871,4.89-16.891,5.747-25.56.106-1.076-.995-2-2-2-1.17,0-1.893.92-2,2-.707,7.142-1.4,14.495-4.123,21.209-2.236,5.512-6.042,10.132-11.238,13.059-1.391.783-2.791,1.594-4.274,2.19-1.852.745-3.855,1.201-5.795,1.652-3.505.814-7.062,1.372-10.643,1.716-3.627.348-7.272.476-10.912.607-3.458.125-6.929.184-10.382-.09-3.201-.254-6.556-.737-9.353-2.415-2.489-1.493-4.182-3.809-5.015-6.574-.74-2.459-4.602-1.411-3.857,1.063h0Z"/><path class="d" d="M241.45,202.369c-.257-1.986-.595-3.971-.679-5.974,2.523.644,5.833,1.016,7.177-1.212,1.169-1.955-.087-4.424-1.311-6.346-2.367-3.676-4.758-7.363-7.123-11.051-.394,1.142-1.409,2.001-2.669,2.17-4.772.637-11.015,1.427-15.417,2.013-.447.06-.883.028-1.29-.08-.732,9.94,3.026,24.249,5.352,29.383,1.868,4.129,7.766,6.925,12.409,3.321,2.119-1.638,3.255-3.222,3.681-5.931.12-.71.175-1.431.175-2.141.013-1.389-.126-2.77-.304-4.152Z"/><path class="g" d="M256.191,154.404c.376,3.693-.393,7.363-.407,11.055-.005,1.277,1.285,2.301,2.532,1.929,1.264-.378,3.195-1.02,4.491-.398,1.399.672.556,2.623.067,3.631-2.004,4.127-4.603,8.045-6.894,12.02-1.287,2.234,2.168,4.251,3.454,2.019,1.535-2.663,3.074-5.324,4.611-7.986,1.395-2.416,3.184-4.921,3.481-7.769.263-2.518-1.116-4.857-3.514-5.717-2.166-.777-4.62-.297-6.758.343l2.532,1.929c.014-3.693.783-7.362.407-11.055-.109-1.075-.841-2-2-2-.997,0-2.11.919-2,2h0Z"/><path class="g" d="M238.072,179.238c2.482,3.865,5.254,7.649,7.475,11.669.584,1.057,1.583,3.05.058,3.767-1.245.585-3.058.098-4.302-.209-1.202-.297-2.6.592-2.532,1.929.131,2.549.625,5.055.863,7.593.194,2.073.318,4.399-.592,6.336-1.497,3.186-5.387,4.858-8.588,3.273-2.912-1.442-3.669-4.171-4.573-6.985-1.175-3.656-2.075-7.409-2.757-11.187-.804-4.451-1.294-9.011-.986-13.536.175-2.569-3.825-2.559-4,0-.324,4.75.238,9.546,1.061,14.221.737,4.186,1.735,8.351,3.093,12.381,1.259,3.736,2.917,7.153,6.738,8.837,4.537,1.999,9.436.396,12.449-3.437,3.964-5.043,1.588-11.744,1.293-17.496l-2.532,1.929c2.113.523,4.53.92,6.631.132,2.517-.945,3.848-3.381,3.445-6.02-.413-2.708-2.212-5.014-3.659-7.257-1.712-2.652-3.425-5.303-5.13-7.958-1.387-2.159-4.85-.156-3.454,2.019h0Z"/><path class="g" d="M258.629,150.675c-2.874.587-5.772,1.048-8.635,1.691-2.572.577-5.555,1.179-7.735,2.75-3.006,2.165-3.898,6.003-4.165,9.49-.284,3.705-.245,7.458-.354,11.173-.052,1.787-.502,2.124-2.249,2.355-2.021.267-4.043.529-6.066.791-1.993.258-3.987.515-5.98.777-1.054.138-2.962.822-3.618-.389-.337-.622-.236-1.521-.283-2.21-.072-1.058-.137-2.116-.195-3.175-.111-2.006-.199-4.013-.269-6.02-.129-3.697-.207-7.399-.173-11.098.033-3.639.481-7.216,1.85-10.615,1.386-3.442,3.679-6.38,6.392-8.878,2.63-2.422,5.719-4.387,9.098-5.581,3.3-1.166,6.835-1.653,10.284-2.169,7.159-1.07,14.396-1.689,21.627-1.994,6.223-.263,12.532-.371,18.733.318,6.045.672,12.511,3.607,17.473,7.424,2.611,2.008,4.97,4.431,6.77,7.197,1.19,1.829,2.082,3.82,3.035,5.778l.897,1.844c1.126,2.314,4.577.289,3.454-2.019-2.206-4.534-4.295-8.865-7.871-12.539-2.645-2.717-5.764-5.009-9.083-6.834-3.358-1.846-7.11-3.474-10.868-4.289-5.798-1.257-12.023-1.135-17.918-1.023-7.711.146-15.427.716-23.077,1.695s-15.369,1.947-21.806,6.482c-6.678,4.706-11.445,11.55-12.604,19.719-.526,3.711-.418,7.481-.353,11.219.075,4.294.236,8.587.497,12.874.116,1.902-.056,4.213.938,5.911.963,1.646,2.802,2.718,4.722,2.664s3.884-.495,5.781-.741c2.125-.275,4.249-.549,6.373-.826,1.883-.246,4.2-.198,5.87-1.188,1.776-1.053,2.531-2.881,2.603-4.867.143-3.974.057-7.989.387-11.952.139-1.672.464-3.402,1.368-4.841.712-1.132,1.332-1.473,2.601-1.959,3.013-1.153,6.275-1.707,9.434-2.298,1.394-.261,2.791-.508,4.18-.792,2.52-.515,1.454-4.372-1.063-3.857h0Z"/><path class="g" d="M158.59,192.656c-4.081-2.621-6.798-6.582-7.792-11.325-.976-4.661-.204-9.573,1.408-13.999,3.71-10.187,12.577-17.133,22.617-20.598,6.037-2.083,12.706-3.052,18.945-1.292,2.482.7,3.541-3.158,1.063-3.857-12.389-3.495-26.761,1.766-36.285,9.814-8.368,7.072-13.472,18.724-11.838,29.692.934,6.27,4.554,11.61,9.862,15.02,2.172,1.395,4.18-2.066,2.019-3.454h0Z"/><path class="g" d="M170.385,183.502c-.028,1.206-.297,2.413-1.063,3.378-.762.96-1.94,1.425-3.001,1.965-2.956,1.504-5.974,2.888-9.052,4.124-6.35,2.552-12.921,4.551-19.613,5.978-1.639.349-3.285.657-4.936.943-1.574.273-3.12.874-3.504,2.626-.332,1.517.361,3.357.692,4.83.389,1.734.82,3.458,1.292,5.171.945,3.429,2.054,6.814,3.324,10.136.559,1.463,1.152,2.913,1.766,4.354.654,1.533,1.204,3.423,2.401,4.639,2.411,2.452,6.524,1.487,9.571,1.185,3.483-.346,6.951-.862,10.389-1.515,6.997-1.329,13.871-3.227,20.684-5.288,6.347-1.92,12.772-3.781,18.891-6.356,5.768-2.426,11.456-5.66,15.53-10.513,4.376-5.213,6.818-11.831,5.319-18.623-.567-2.569-.876-5.232-1.637-7.754-.921-3.054-2.683-5.627-4.73-8.038-1.668-1.965-4.486.876-2.828,2.828,1.521,1.791,2.897,3.746,3.618,6.004.643,2.014.903,4.129,1.32,6.196.529,2.625,1.027,5.054.484,7.735-.539,2.664-1.699,5.113-3.243,7.339-6.79,9.794-19.885,13.032-30.616,16.353-6.346,1.964-12.727,3.836-19.211,5.294-3.24.728-6.503,1.353-9.79,1.83-1.624.236-3.256.424-4.89.574-1.622.149-3.362.406-4.991.325-1.284-.064-1.519-1.291-1.979-2.319-.658-1.468-1.279-2.951-1.865-4.449-1.184-3.025-2.236-6.102-3.152-9.219-.457-1.557-.88-3.124-1.268-4.7-.185-.75-.362-1.502-.531-2.256-.16-.715-.166-1.862-.529-2.493l-.09-.454c-.575.553-.613.733-.114.542.274.052.696-.121.977-.169.751-.129,1.5-.264,2.248-.407,1.57-.3,3.134-.632,4.691-.994,7.059-1.646,13.94-3.953,20.595-6.82,1.602-.69,3.189-1.416,4.76-2.177,1.443-.699,3.004-1.345,4.322-2.264,2.501-1.743,3.691-4.551,3.76-7.544.059-2.575-3.941-2.574-4,0h0Z"/><path class="g" d="M129.036,203.856c-5.488-.706-11.801.631-16.099,4.227-2.344,1.961-3.968,4.96-4.447,7.969-.565,3.55.391,7.198.889,10.708.526,3.701,1.12,7.392,1.82,11.064.562,2.952,1.229,5.924,2.695,8.58,2.918,5.286,9.119,7.854,14.982,6.77,7.482-1.383,10.407-9.252,10.102-16.078-.114-2.564-4.115-2.578-4,0,.205,4.594-1.077,10.522-6.124,11.978-4.481,1.293-9.411-.768-11.595-4.855-1.151-2.153-1.652-4.603-2.111-6.98-.602-3.111-1.125-6.238-1.595-9.372-.443-2.955-1.121-6.004-1.247-8.991-.108-2.576.756-5.219,2.546-7.109,3.434-3.626,9.444-4.521,14.184-3.911,1.073.138,2-1.018,2-2,0-1.195-.924-1.862-2-2h0Z"/><path class="e" d="M310.506,188.078c.732-.176,1.467-.694,1.753-1.391,1.044-2.553.535-4.81-1.031-6.166-.623-.539-3.505-1.48-6.114-.471"/><path class="d" d="M338.538,141.265c-3.208.272-9.292.764-12.62,2.841,0,0-.257.132-.641.326-1.913-.149-4.187.335-5.696,1.112-1.456.747-3.472,1.883-4.863,4.258-.388.666-.912,2.241-.876,3.8-1.07.532-2.909,1.763-2.909,1.763-7.039,4.91-11.445,11.904-12.93,20.384-.166.947-.286,1.918-.36,2.923-.46,6.271,1.262,11.439,5.34,16.273,3.89,4.611,9.945,6.552,16.617,7.184,2.956.28,6.109.524,9.307.844,5.862,1.338,13.394,1.229,18.214.242,4.722-.968,9.991-3.329,13.579-6.525,6.215-5.536,9.884-13.662,10.147-23.665.371-14.149-9.428-28.14-23.473-31.286-2.654-.592-5.386-.785-8.087-.541-.227.021-.478.042-.749.065Z"/><path class="g" d="M331.81,201.287c-5.697-.655-11.619-.631-17.209-1.978-4.645-1.119-8.624-3.358-11.397-7.324-5.723-8.186-4.077-19.201,1.203-27.212,2.583-3.919,6.25-7.273,10.428-9.434,2.287-1.183.267-4.636-2.019-3.454-8.985,4.647-15.219,13.837-16.81,23.742-.927,5.77-.294,11.605,2.679,16.714,2.821,4.847,6.967,8.264,12.267,10.078,3.08,1.055,6.312,1.5,9.542,1.795,3.773.345,7.55.64,11.315,1.073,1.075.124,2-1.008,2-2,0-1.184-.922-1.876-2-2h0Z"/><path class="e" d="M310.274,186.487c-.852-1.494-1.106-4.175-.53-5.882.175-.518.49-1.093.729-1.671"/><path class="i" d="M344.094,141.778c.078-.182.165-.361.261-.534-1.684-.179-3.382-.197-5.068-.044-3.049.278-10.432.691-13.87,3.247.644.059,1.243.194,1.753.416.685.299,1.885,1.049,2.234,3.138.156.93.032,2.055-.568,2.977,3.631,1.61,5.3,3.878,8.308,5.204,1.633.728,4.282.574,5.551-.397.695-.541,1.302-1.446,1.501-2.229.887-1.616-1.815-7.761-.103-11.778Z"/><path class="e" d="M327.293,169.633c-1.669-.403-5.415.156-5.545,3.278.277,4.099,4.844,4.037,6.901,2.525,1.684-1.238,2.209-4.606-1.356-5.804Z"/><path class="e" d="M329.145,189.821c-1.668-.372-5.416.157-5.552,3.066.268,3.819,4.836,3.752,6.896,2.339,1.686-1.157,2.218-4.296-1.344-5.405Z"/><path class="e" d="M321.228,184.68c-.46.296-1.597.994-2.204,1.299-.294.165-.693.341-.943.114-.503-.457-.447-.844-.506-1.146"/><path class="g" d="M328.874,153.208c2.168,1.171,3.961,2.882,6.09,4.105,2.157,1.24,4.717,1.737,7.137.96,1.351-.434,2.383-1.244,3.19-2.406.155-.224.294-.454.412-.699.104-.216.215-.453.29-.681.039-.116.087-.457-.034.007.151-.579.346-.917.403-1.544.15-1.654-.365-3.4-.615-5.027-.02-.128-.038-.256-.057-.384-.093-.617.023.21-.02-.151-.035-.296-.068-.593-.094-.89-.048-.561-.073-1.124-.06-1.686.006-.261.022-.52.043-.78.004-.053.059-.451.022-.212-.038.242.052-.252.062-.297.053-.244.117-.487.195-.724.038-.116.079-.236.126-.349-.133.321.069-.107.114-.19.509-.952.239-2.177-.718-2.736-.907-.531-2.225-.238-2.736.718-.962,1.8-1.207,3.845-1.078,5.86.068,1.062.221,2.119.389,3.169.063.396.131.792.197,1.187.034.2.067.401.1.601.02.124.108.706.073.458-.036-.261.027.23.036.326.013.135.025.27.031.405.007.143.007.284.007.427,0,.072-.021.151-.012.221.031.23.062-.444.028-.235-.055.35-.006.11.074-.116-.1.28-.25.657-.272.704-.175.376-.504.796-.696.941.074-.056-.309.174-.413.221.327-.148-.236.058-.336.084-.484.127-.573.143-1.228.14-.213,0-.425-.012-.637-.03.273.024-.286-.055-.385-.079-.599-.146-.664-.201-1.212-.497-2.264-1.224-4.128-3.051-6.397-4.277-.95-.513-2.178-.236-2.736.718-.533.911-.236,2.221.718,2.736h0Z"/><path class="g" d="M326.928,145.833c2.801-1.682,6.358-2.07,9.551-2.384,3.921-.386,7.736-.527,11.581.523,6.847,1.871,12.622,6.613,16.295,12.628,3.86,6.322,5.221,13.69,4.112,20.998-1.097,7.235-4.567,14.504-10.645,18.851-7.707,5.512-17.821,6.494-26.959,4.894-1.063-.186-2.155.285-2.46,1.397-.265.965.327,2.273,1.397,2.46,9.217,1.614,19.123.968,27.419-3.646,7.511-4.178,12.575-11.731,14.543-20.007s1.218-16.871-2.59-24.505c-3.583-7.182-9.709-13.014-17.186-15.973-4.723-1.869-9.625-2.153-14.633-1.703-4.177.375-8.772.807-12.444,3.012-2.204,1.324-.196,4.784,2.019,3.454h0Z"/><path class="g" d="M322.908,170.482c-.186.41-.378.829-.46,1.275-.081.443-.153.911-.124,1.366.059.929.297,1.815.778,2.618.286.478.776.863,1.315,1.011.292.092.585.105.877.039.293-.013.565-.1.818-.261.47-.303.883-.754,1.011-1.315.131-.574.087-1.179-.222-1.695-.087-.145-.164-.295-.23-.451l.222.526c-.107-.262-.182-.532-.223-.812l.079.585c-.039-.293-.04-.587-.002-.88l-.079.585c.04-.277.113-.545.221-.804l-.222.526c.013-.03.026-.061.04-.091.161-.253.248-.525.261-.818.065-.292.052-.585-.039-.877-.068-.286-.199-.536-.394-.748-.155-.24-.361-.428-.617-.567-.511-.27-1.129-.405-1.695-.222l-.526.222c-.331.196-.594.459-.789.789h0Z"/><path class="g" d="M324.79,190.433c-.183.377-.368.779-.447,1.196-.08.419-.152.873-.115,1.305.036.423.086.873.231,1.278.148.414.321.835.569,1.201.138.256.327.462.567.617.212.194.462.326.748.394.292.092.585.105.877.039.293-.013.565-.1.818-.261.47-.303.883-.754,1.011-1.315.127-.556.109-1.206-.222-1.695-.113-.167-.21-.343-.29-.528l.222.526c-.097-.235-.164-.479-.198-.731l.079.585c-.028-.233-.027-.466.003-.699l-.079.585c.032-.22.09-.431.173-.637l-.222.526c.023-.055.048-.109.074-.163.161-.253.248-.525.261-.818.065-.292.052-.585-.039-.877-.068-.286-.199-.536-.394-.748-.155-.24-.361-.428-.617-.567-.511-.27-1.129-.405-1.695-.222-.521.169-1.067.5-1.315,1.011h0Z"/><path class="g" d="M330.506,152.075c1.489-2.314,1.178-5.518-.571-7.602-1.323-1.576-3.464-2.079-5.44-2.066-4.429.03-9.425,2.462-11.558,6.487-1.241,2.341-1.5,5.338-.349,7.746.466.974,1.859,1.231,2.736.718.996-.583,1.185-1.758.718-2.736.051.155.037.116-.042-.116-.043-.137-.08-.276-.11-.417-.046-.246-.053-.284-.023-.115-.012-.146-.02-.292-.022-.438-.01-.61.011-.745.1-1.176.099-.484.242-.955.417-1.417-.183.484.028-.027.085-.13.125-.225.269-.446.42-.656.287-.398.688-.821,1.094-1.19.427-.388.457-.406.922-.715.41-.272.837-.519,1.271-.752.472-.253.685-.359.963-.46,1.051-.382,2.003-.575,2.935-.621.257-.013.514-.017.771-.01.075.002.85.068.519.021.26.037.52.096.772.171.12.035.239.076.356.12-.235-.103-.293-.126-.174-.07.117.063.232.127.348.191.447.25-.078-.149.138.107.076.072.148.147.217.225-.136-.191-.136-.19-.001.003.056.097.28.509.259.46.168.409.198.82.207,1.226.008.354-.146.777-.413,1.192-.585.908-.186,2.208.718,2.736.968.566,2.15.193,2.736-.718h0Z"/><path class="d" d="M213.669,153.895c1.517-2.11,1.581-5.175.725-7.959-1.467-4.773-5.045-8.845-8.144-12.386,4.044-6.173,5.454-10.069,8.038-16.583,1.185-2.988,2.835-7.028,2.859-10.222.025-3.295-.685-6.096-2.08-9.143-6.993,3.739-16.104,7.348-22.725,10.477.936,1.446,1.817,2.926,2.657,4.43,0,0,.548,1.016,1.287,2.385l-.272,2.205c-.833,4.161-2.204,12.183-3.246,16.002-.579.333-1.06.616-1.06.616-.088.052-.177.101-.266.15-1.25.695-2.526,1.345-3.79,2.014-1.427.754-3.099,1.383-3.904,2.877-.484.898-.629,1.973-.401,2.967.13.568.415,1.159.91,1.496.535.365,1.237.435,1.851.583.647.156,1.375.217,2.385.458,3.994,4.606,10.006,9.965,15.588,11.533,2.428.682,5.128,1.037,7.395-.067.931-.453,1.655-1.083,2.194-1.833Z"/><path class="d" d="M175.159,63.905l-21.145-8.49-13.549,6.54c-2.107,1.401-4.072,2.677-5.932,3.898-8.115,5.328-14.263,9.629-21.762,18.884-17.227,21.262-29.435,53.131-29.039,79.142,22.268-.002,45.339-.002,64.967-.002-.031-.287-.048-.573-.062-.858-.161-3.422-.247-8.809-.761-11.909,0,0-.153-.923-.306-1.846-1.817-1.66-3.634-3.32-3.634-3.32,0,0-1.004-.918-1.933-1.767-3.891-3.229-11.128-8.814-17.523-13.886,4.839-3.228,11.821-8.771,17.443-12.826,4.633,6.434,12.002,16.547,15.74,20.798,4.133-4.931,9.643-11.491,9.643-11.491,6.855-8.19,14.185-16.028,21.903-23.449,1.114,1.541,2.18,3.117,3.187,4.731.112-.053.226-.106.34-.16,6.599-3.092,15.513-6.641,22.372-10.306-.116-.256-.238-.514-.364-.774-2.968-6.123-5.712-11.026-10.742-16.362l-8.1-8.218-20.743-8.328Z"/><path class="g" d="M87.312,145.742c2.526-13.856,7.36-27.299,13.968-39.724,6.124-11.515,13.8-22.696,23.965-31.016,5.091-4.167,10.759-7.583,16.229-11.216,2.135-1.418.134-4.884-2.019-3.454-5.122,3.402-10.366,6.642-15.234,10.41-5.06,3.916-9.513,8.461-13.492,13.466-8.873,11.162-15.722,23.861-20.751,37.183-2.851,7.553-5.075,15.344-6.524,23.288-.459,2.517,3.395,3.596,3.857,1.063h0Z"/><path class="e" d="M187.202,84.547c-.53,1.634-1.339,3.232-2.65,4.343-2.109,1.786-5.122,2.01-7.873,1.757-8.595-.788-16.736-5.602-21.567-12.754"/><path class="g" d="M194.863,132.998c1.274-5.066,2.058-10.248,3.079-15.368.211-1.058-.303-2.16-1.397-2.46-.985-.271-2.248.333-2.46,1.397-1.022,5.12-1.805,10.301-3.079,15.368-.628,2.497,3.229,3.562,3.857,1.063h0Z"/><path class="d" d="M208.233,135.843c2.521,2.983,5.001,6.319,6.161,10.093,1.16,3.774.63,8.064-2.92,9.792-2.268,1.104-4.967.749-7.395.067-5.582-1.568-11.593-6.926-15.588-11.533-1.009-.242-1.737-.302-2.385-.458-.614-.148-1.317-.219-1.851-.583-.494-.337-.779-.928-.91-1.496-.228-.994-.083-2.069.401-2.967.805-1.494,2.477-2.123,3.904-2.877,1.264-.668,2.54-1.319,3.79-2.014.089-.05.178-.099.266-.15l.834-.489,15.692,2.616Z"/><path class="g" d="M187.307,102.483c-10.392,10.055-19.722,21.01-29.08,32.007-1.659,1.95,1.157,4.793,2.828,2.828,9.359-10.997,18.689-21.952,29.08-32.007,1.853-1.793-.977-4.62-2.828-2.828h0Z"/><path class="g" d="M185.635,101.962c.55.704,1.303,1.711,1.944,2.603.689.958,1.359,1.928,2.011,2.912,1.304,1.967,2.529,3.984,3.682,6.042.511.914,1.84,1.295,2.736.718.924-.596,1.265-1.759.718-2.736-2.428-4.337-5.205-8.449-8.262-12.366-.647-.829-2.159-.729-2.828,0-.807.879-.69,1.944,0,2.828h0Z"/><path class="g" d="M202.587,81.969c2.579,2.756,4.831,5.739,6.755,8.988,1.882,3.178,3.832,6.593,4.947,10.126,1.155,3.66.992,7.098-.193,10.714-1.136,3.466-2.571,6.87-3.976,10.234-1.537,3.681-3.421,7.168-5.597,10.509-.507.779-.256,1.774.313,2.424,2.958,3.38,6.172,6.943,7.566,11.305,1.018,3.186.758,7.533-3.313,8.118-4.249.611-8.679-2.109-11.892-4.563-1.795-1.372-3.466-2.92-5.043-4.535-.729-.746-1.391-1.562-2.125-2.3-.832-.836-2.009-.835-3.108-1.052-1.074-.212-1.839-.16-1.661-1.464.144-1.059.963-1.585,1.828-2.06,2.142-1.177,4.352-2.22,6.462-3.459,2.219-1.303.208-4.761-2.019-3.454-1.8,1.057-3.652,2.026-5.513,2.972-1.684.856-3.331,1.835-4.164,3.62-.872,1.871-.894,4.389.491,6.033,1.375,1.632,3.678,1.63,5.615,2.064l-.883-.514c5.02,5.749,11.615,11.691,19.494,12.65,3.757.457,7.785-.885,9.452-4.522,1.54-3.361.941-7.149-.466-10.442-1.816-4.252-4.878-7.78-7.893-11.225l.313,2.424c4.227-6.492,7.262-13.798,9.778-21.108,1.345-3.91,1.761-7.772.828-11.835-.916-3.989-3.015-7.768-5.002-11.315-2.265-4.043-4.999-7.777-8.165-11.161-1.762-1.884-4.587.949-2.828,2.828h0Z"/><path class="g" d="M213.627,96.102c-6.912,3.632-14.187,6.5-21.27,9.771-.981.453-1.225,1.868-.718,2.736.589,1.006,1.752,1.172,2.736.718,7.083-3.271,14.358-6.139,21.27-9.771,2.28-1.198.26-4.651-2.019-3.454h0Z"/><path class="g" d="M196.312,76.075c2.191,1.853,4.357,3.756,6.275,5.895.701.781,2.125.766,2.828,0,.766-.834.747-1.995,0-2.828-1.918-2.139-4.085-4.042-6.275-5.895-.413-.349-.857-.586-1.414-.586-.491,0-1.076.218-1.414.586-.683.744-.853,2.107,0,2.828h0Z"/><path class="d" d="M159.147,139.913c-2.814-2.492-11.908-14.96-17.269-22.416-5.532,3.992-12.368,9.413-17.184,12.65l-.268.196c7.712,6.127,16.675,13.011,19.509,15.601,0,0,1.817,1.66,3.634,3.32.153.923.306,1.846.306,1.846.514,3.099.6,8.487.761,11.909.106,2.244.446,4.609,1.261,6.711.661,1.703,1.774,3.295,3.374,4.177,2.371,1.307,5.339.943,7.712-.143,3.115-1.425,4.079-4.103,5.076-7.174,1.279-3.94,1.869-8.078,2.102-12.203.029-.51.066-1.061.394-1.452.324-.386.85-.519,1.336-.652,1.649-.452,3.512-1.119,4.841-2.217.879-.726,1.545-1.801,1.498-2.94-.064-1.547-1.333-2.908-2.574-3.699-2.255-1.438-4.545-1.207-7.081-1.31-1.469-.06-2.916-.36-4.355-.66-.561-.117-1.138-.24-1.618-.553-.393-.257-.965-.629-1.456-.989h0Z"/><path class="g" d="M137.913,115.399c3.409,4.757,6.833,9.503,10.335,14.191,1.828,2.448,3.674,4.884,5.58,7.272,1.221,1.53,2.444,3.15,3.905,4.465,1.909,1.718,4.747-1.102,2.828-2.828-1.399-1.259-2.571-2.799-3.743-4.262-1.819-2.27-3.571-4.593-5.309-6.924-3.434-4.605-6.795-9.263-10.141-13.932-.628-.877-1.743-1.299-2.736-.718-.866.507-1.35,1.854-.718,2.736h0Z"/><path class="g" d="M111.357,121.918c3.715,3.897,8.25,7.142,12.456,10.476,5.156,4.086,10.376,8.094,15.482,12.242,2.371,1.926,4.605,3.982,6.86,6.043l-.514-.883c.932,5.617.462,11.351,1.396,16.95.52,3.115,1.723,6.318,4.323,8.278,2.574,1.94,6.064,2.113,9.051,1.105,2.749-.928,4.907-2.692,6.17-5.323,1.386-2.886,2.22-6.106,2.77-9.245.305-1.744.526-3.506.676-5.27.041-.482-.12-1.722.147-2.143-.272.427.454.008.633-.045.53-.156,1.055-.324,1.571-.521,2.915-1.109,6.156-3.256,5.816-6.81-.356-3.723-4.21-6.016-7.584-6.45-1.81-.233-3.643-.082-5.45-.336-.935-.131-1.924-.285-2.83-.55-.822-.241-1.482-.754-2.174-1.249-.879-.629-2.227-.154-2.736.718-.588,1.006-.163,2.106.718,2.736.99.708,1.937,1.336,3.13,1.653,1.552.412,3.22.674,4.82.794,2.381.179,5.015-.249,7.004,1.387.635.522,1.39,1.349,1.039,2.226-.415,1.038-1.862,1.645-2.815,2.024-1.123.447-2.466.578-3.492,1.237-1.406.903-1.59,2.371-1.691,3.901-.198,3.004-.59,5.982-1.338,8.902-.547,2.136-1.146,4.605-2.467,6.422-1.248,1.716-3.528,2.554-5.6,2.555-2.355.002-4.017-1.431-4.901-3.544-.99-2.367-1.146-4.974-1.246-7.502-.095-2.419-.163-4.841-.341-7.256-.081-1.095-.191-2.186-.346-3.273s-.158-2.479-.91-3.316c-1.187-1.321-2.674-2.476-4.009-3.657-4.663-4.124-9.716-7.84-14.606-11.687-3.271-2.574-6.541-5.151-9.762-7.788-2.191-1.793-4.463-3.575-6.42-5.629-1.78-1.867-4.605.964-2.828,2.828h0Z"/><path class="g" d="M125.703,131.874c6.577-4.438,12.679-9.539,19.189-14.072.885-.616,1.293-1.752.718-2.736-.513-.876-1.846-1.338-2.736-.718-6.51,4.533-12.612,9.635-19.189,14.072-.894.603-1.288,1.761-.718,2.736.519.887,1.837,1.324,2.736.718h0Z"/><path class="d" d="M206.342,19.167c-.025-.045-.05-.09-.075-.135-4.342-7.756-11.972-13.453-22.343-16.029-6.545-1.626-13.398-1.697-21.526,1.964l-5.053,2.276c-.499.308-.999.615-.999.615-5.038,3.103-8.008,7.196-10.453,12.422-1.229,2.631-2.058,5.436-2.425,8.309-.412,3.242-1.68,11.028.189,15.203-.638,1.981-.67,4.549-.195,6.348.444,1.69,1.165,4.055,3.322,6.052.605.557,2.123,1.464,3.754,1.783.313,1.226,1.177,3.445,1.177,3.445,1.316,3.186,2.884,6.192,5.365,9.336l5.122,4.264c2.18,1.609,5.336,3.564,7.794,4.577.95.391,1.935.74,2.966,1.048,6.434,1.923,12.22,1.317,18.2-1.823,5.704-2.996,9.123-8.863,11.317-15.676.972-3.018,1.953-6.25,3.031-9.508,2.736-5.808,4.357-13.688,4.436-18.942.077-5.096-1.147-11.065-3.604-15.528Z"/><path class="g" d="M161.193,76.747c7.218,5.273,16.17,8.583,25.107,6.157,4.057-1.101,7.96-3.12,10.895-6.164,2.774-2.877,4.688-6.415,6.154-10.103,1.995-5.021,3.315-10.318,5.076-15.425.841-2.439-3.022-3.486-3.857-1.063-1.466,4.254-2.723,8.574-4.139,12.843-1.099,3.313-2.555,6.602-4.711,9.374-4.718,6.066-13.067,8.515-20.443,6.821-4.458-1.024-8.392-3.214-12.061-5.894-.873-.638-2.23-.148-2.736.718-.592,1.013-.157,2.097.718,2.736h0Z"/><path class="g" d="M183.258,67.518c-.143.043-.286.082-.432.114-.096.021-.567.094-.2.046.373-.049-.168.012-.282.02-.152.01-.305.015-.457.017-.335.004-.669-.012-1.003-.043-.095-.009-.202-.037-.298-.032.074-.004.453.069.175.022-.177-.03-.354-.061-.529-.098-.324-.069-.645-.153-.96-.257-.141-.047-.281-.115-.424-.153.057.015.42.189.176.074-.08-.038-.16-.075-.239-.115-.694-.353-1.279-.878-1.913-1.324-.858-.604-2.261-.182-2.736.718-.542,1.026-.198,2.092.718,2.736.663.467,1.273,1.014,2.007,1.371.772.375,1.583.664,2.425.832,1.637.327,3.419.422,5.035-.069,1-.303,1.735-1.414,1.397-2.46-.327-1.009-1.388-1.722-2.46-1.397h0Z"/><path class="g" d="M141.474,63.786c2.17-1.345,4.484-2.462,6.732-3.668.923-.495,1.288-1.851.718-2.736-.605-.938-1.749-1.247-2.736-.718-2.248,1.206-4.562,2.322-6.732,3.668-.889.551-1.313,1.812-.718,2.736.574.891,1.785,1.307,2.736.718h0Z"/><path class="h" d="M153.078,43.199l3.254,1.481c3.003,1.367,6.563-.041,7.768-3.112.735-1.872,1.357-3.857,1.92-5.273,1.054-2.648,3.563-3.738,6.108-2.83,3.432,1.225,7.443,2.343,10.211,2.588,4.191.594,8.294.999,12.448.448,2.828-.375,5.721.554,7.638,2.667,2.501,2.758,4.303,6.742,4.067,12.157,2.141-5.459,3.384-12.044,3.454-16.628.078-5.147-1.172-11.186-3.679-15.663-4.342-7.756-11.972-13.453-22.343-16.029-6.545-1.626-13.398-1.697-21.526,1.964,0,0-2.527,1.138-5.053,2.276l-.999.615c-2.894,1.782-5.105,3.891-6.926,6.354-1.35,1.825-2.485,3.844-3.526,6.068-.231.495-.448.995-.65,1.502-.487,1.218-.89,2.468-1.203,3.739-.249,1.011-.441,2.035-.573,3.069-.393,3.094-1.566,10.328-.047,14.611l.226.638c.213-.673.495-1.28.851-1.77.469-.645,1.528-1.724,3.787-1.608,1.326.068,2.893.721,3.648,2.217l1.144.521Z"/><path class="g" d="M155.337,6.131c-6.359,3.982-10.809,10.52-12.907,17.682-.927,3.166-1.274,6.567-1.57,9.848-.299,3.31-.44,6.877.633,10.071.815,2.428,4.68,1.387,3.857-1.063-.945-2.813-.761-5.919-.506-8.833.249-2.844.559-5.763,1.318-8.52,1.739-6.317,5.599-12.227,11.193-15.731,2.177-1.363.171-4.825-2.019-3.454h0Z"/><path class="g" d="M163.408,6.694c5.136-2.277,10.723-3.265,16.311-2.492,4.98.689,9.924,2.415,14.228,5.012,3.991,2.408,7.437,5.682,9.899,9.651,2.773,4.47,4.044,9.819,4.101,15.052.066,6.018-1.453,12.232-3.736,17.769-.412.999.446,2.199,1.397,2.46,1.149.316,2.047-.394,2.46-1.397,4.464-10.825,5.807-24.15-.074-34.726-5.331-9.588-15.483-15.597-26.101-17.498-7.09-1.269-13.946-.192-20.504,2.714-.988.438-1.219,1.878-.718,2.736.595,1.018,1.745,1.157,2.736.718h0Z"/><path class="g" d="M158.494,69.342c-1.632-2.082-3.054-4.511-4.191-6.961-.136-.293-.268-.587-.398-.882-.058-.131-.115-.263-.171-.394-.054-.126-.056-.132-.008-.018l-.083-.199c-.075-.191-.148-.384-.22-.577-.35-.934-.696-1.877-.945-2.844-.262-1.013-1.444-1.726-2.46-1.397-1.045.338-1.677,1.375-1.397,2.46.521,2.016,1.354,3.986,2.228,5.869,1.294,2.789,2.921,5.352,4.816,7.77.648.827,2.158.73,2.828,0,.806-.878.692-1.946,0-2.828h0Z"/><path class="g" d="M176.749,54.752c.802-1.595,1.117-5.52-2.013-6.387-4.216-.685-5.229,3.954-4.183,6.393.857,1.997,4.143,3.321,6.196-.006Z"/><path class="g" d="M197.406,58.863c.749-1.577,1.099-5.431-1.709-6.229-3.788-.602-4.779,3.964-3.876,6.337.739,1.943,3.68,3.188,5.585-.108Z"/><path class="g" d="M152.752,40.406c-2.019-2.024-5.211-2.499-7.778-1.284-1.957.927-3.034,3.007-3.481,5.036-1.02,4.633.284,10.268,3.928,13.493,2.071,1.833,5.156,2.857,7.878,2.232,2.508-.576,1.446-4.433-1.063-3.857-.82.188-1.865-.083-2.656-.436-.458-.204-.876-.472-1.297-.74-.456-.29.233.23-.084-.072-.293-.278-.583-.563-.84-.875-1.157-1.404-1.924-3.491-2.141-5.096-.275-2.043-.005-4.116,1.008-5.728-.321.511-.007.039.106-.083.073-.08.436-.328.091-.097.08-.053.517-.299.429-.26-.051.022.474-.14.605-.161.834-.136,1.775.064,2.467.758,1.82,1.825,4.649-1.003,2.828-2.828h0Z"/><path class="e" d="M185.101,68.954c-.045-.813-.454-1.694-1.14-2.132-2.512-1.604-5.01-1.5-6.754-.097-.694.558-2.251,3.44-1.684,6.409"/><path class="g" d="M152.069,44.926c2.766,1.258,5.449,2.818,8.603,2.033,2.028-.505,3.89-1.919,4.874-3.77.614-1.156,1.001-2.455,1.434-3.687.366-1.041.635-2.315,1.293-3.224,1.318-1.821,3.207-.901,4.943-.329,2.36.777,4.776,1.47,7.233,1.861,2.683.426,5.416.759,8.129.897,1.431.073,2.866.079,4.296-.016,1.311-.087,2.637-.384,3.954-.235,5.141.58,7.432,6.59,7.668,11.072.135,2.561,4.135,2.577,4,0-.252-4.784-2.047-9.967-5.994-12.964-2.012-1.527-4.612-2.294-7.135-2.118-3.018.211-5.911.386-8.94.103-2.618-.245-5.245-.564-7.8-1.195-1.325-.327-2.636-.708-3.934-1.127-1.281-.413-2.521-.96-3.88-1.056-2.349-.165-4.499.984-5.844,2.877-1.489,2.097-1.708,4.868-2.877,7.122-.952,1.836-3.051,2.411-4.915,1.713.352.132-.253-.12-.346-.162l-1.116-.508-1.627-.74c-.982-.447-2.152-.281-2.736.718-.502.859-.27,2.287.718,2.736h0Z"/><path class="g" d="M62.545,165.875h86.15c2.574,0,2.578-4,0-4H62.545c-2.574,0-2.578,4,0,4h0Z"/><path class="g" d="M1.932,262.712h365.281c2.574,0,2.578-4,0-4H1.932c-2.574,0-2.578,4,0,4h0Z"/></g></svg>
