<svg id="b" xmlns="http://www.w3.org/2000/svg" width="312.944" height="369.087" viewBox="0 0 312.944 369.087" style="color: initial !important;"><defs><style>.d{fill:#211715;}.d,.e,.f,.g,.h{stroke-width:0px;}.e{fill:#f2635f;}.f{fill:#645d5c;}.g{fill:#ffffff;}.h{fill:#c6c6c6;}</style></defs><g id="c"><path class="g" d="M170.623,92.327c1.531-.747,3.411-.73,4.387.024.351.271,1.926,1.258,3.631,2.735,1.787,1.548,8.4,7.033,8.4,7.033l3.672,3.379c.15-4.227.859-7.649,2.349-11.021l12.424-14.116c.323-.3.647-.6.986-.907.355-.331.923-.86,1.46-1.404-.51-1.59-.19-3.04.16-3.7,1.34-2.57,2.77-4.69,5.28-8.84,3.87-6.39,9.51-14.69,6.5-29.26-1.66-8.05-6.22-15.69-11.15-20.69-12.67-12.88-24.49-13.44-31.66-13.09-7.16.36-13.76,2.64-19.5,5.8-12.04,6.62-16.34,16.58-16.99,18.74-1.405,4.665-2.011,8.054-1.379,13.633.075,2.557.415,5.282,1.063,8.195.817,5.658,1.971,13.503-2.69,17.192-.926.733-1.687,1.678-1.97,2.819-.742,3.017,1.891,3.852,3.669,5.204,1.178.892,1.986,2.033,2.596,3.31.419,1.818,1.336,4.964,2.562,7.911.808,1.94,1.755,3.799,2.785,5.117,2.187,2.823,4.558,4.008,6.871,4.423,4.534.814,10.462.35,14.059-1.332.862-.404.988-.489,1.813-.855"/><path class="g" d="M215.04,220.603c-2.801-2.708-5.218-5.843-6.478-9.465-2.92-8.324.68-17.384.42-26.174-.132-4.441-3.171-8.373-3.574-13.34-16.883.247-33.334-.956-50.206-2.936-.65-.08-1.28-.69-1.22-1.47.73-9.11,1.2-18.44,2.19-27.47.11-.95.84-1.35,1.52-1.32,9.409.491,21.315,1.395,32.125,1.863.072-.198.145-.393.145-.393l1.57-4.17c.68-1.81.95-3.74.8-5.66-.41-5.08-.81-9.38-1.27-14.87-.795-9.36-.48-15.112,2-20.722l12.424-14.116c.323-.3.647-.6.986-.907.355-.331.923-.86,1.46-1.404l1.958-1.987c2.681.92,5.362,1.84,5.362,1.84l4.42,1.517c3.93,1.53,13.76,7.01,19.22,11.81,11.78,10.34,19.53,23.18,24.61,42.36,1.12,4.23,3.5,16.123,4.167,23.289l.181,1.408c-1.324,3.455-2.768,6.868-4.398,10.214-3.91,8.01-8.92,15.74-10.47,24.44-1.26,7.03-.16,14.23,1.06,21.27.65,3.77,1.34,7.54,2.07,11.31.695,3.663,1.747,8.942,2.652,13.272l-6.096-.556-5.447-.497c-10.36-.863-24.42-10.021-31.3-16.308-.298-.271-.592-.547-.882-.828Z"/><path class="g" d="M136.572,135.663c-3.383-1.082-7.481-1.456-10.994-.929-4.262.639-8.317,3.571-10.823,7.078-2.705,3.784-3.793,7.143-5.731,11.372-.082.179-.159.372-.23.576-.463,1.331-.651,3.108-.047,4.242.697,1.308,2.669,1.935,3.907,1.501,0,0,.779-.237,1.745-.531-1.33,2.757-1.171,5.898.656,6.887,1.45.785,4.469-.044,5.253-1.333,0,0,.972-.683,2.049-1.439-.101,1.265-.143,2.61-.09,4.117.049,1.4.727,2.972,1.675,3.13,2.091.348,3.052-.164,3.856-1.471,1.37-2.227,1.578-3.318,3.138-4.954,2.513-2.637,5.426-1.548,8.463-.458,5.766,2.07,9.178,1.942,14.583-.24,0,0,.115-.048.31-.129.521-7.132.979-14.334,1.695-21.392-7.526-2.123-14.435-4.434-19.413-6.026Z"/><path class="g" d="M201.531,262.337c-.678-1.244-1.741-3.197-3.021-5.549.109,0,.216,0,.322,0,20.36-.22,45.832-.001,66.252-2.051.438-.044.871-.093,1.299-.148-1.234,3.077-2.033,5.074-2.033,5.074-1.174,2.936-4.752,10.118-6.996,14.253-1.008,1.858-2.928,3.031-5.041,3.093l-38.443,1.132c-2.217.065-4.284-1.105-5.363-3.043-1.993-3.581-4.552-8.312-6.173-11.287,0,0-.292-.536-.803-1.475Z"/><path class="g" d="M159.033,358.784c6.293-1.438,11.529-2.72,12.917-3.156,3.276-1.028,5.853-3.463,7.195-6.267,1.244-2.599,1.312-5.019.893-7.727-.578-3.739-3.421-9.679-8.712-13.241-8.473,1.215-16.946,2.429-25.419,3.644l-6.579,4.103c-5.4,3.368-18.51,12.216-20.76,16.046-1.561,2.657-2.098,5.743-1.027,8.207.473,1.087,1.435,2.234,2.717,2.729,3.652,1.408,8.29,1.426,13.454.758s16.322-3.04,25.321-5.096Z"/><path class="g" d="M155.682,9.368c-10.613,6.571-14.497,15.597-15.114,17.643-1.046,3.468-1.645,6.231-1.623,9.717,19.811,2.851,27.38,4.151,33.349,8.469,3.096,2.433,4.069,4.383,7.24,8.307.913-1.646,1.852-2.992,3.647-3.79,1.597-.71,3.259-.778,4.66-.089,2.085,1.027,3.426,3.701,3.715,6.043.432,3.503-.169,6.52-1.707,9.111,3.293,5.177,11.132,10.274,18.454,14.155-1.004-1.914-.618-3.794-.21-4.581,1.337-2.573,2.771-4.699,5.282-8.846,3.869-6.39,9.509-14.689,6.501-29.259-1.662-8.051-6.227-15.689-11.153-20.694-12.673-12.877-24.494-13.433-31.658-13.082s-13.757,2.639-19.503,5.798c-.649.357-1.275.723-1.88,1.097Z"/><path class="f" d="M290.084,347.544c-4.823,0-8.157,3.673-8.157,7.97,0,4.808,3.406,8.12,8.157,8.12,4.935,0,8.157-3.342,8.157-8.12,0-4.327-3.351-7.97-8.158-7.97Z"/><path class="d" d="M290.084,345.144c-4.591.058-8.667,2.832-10.086,7.253-1.299,4.046.057,8.832,3.427,11.44,3.405,2.635,8.462,2.915,12.207.81,3.865-2.173,5.491-6.698,4.841-10.941-.779-5.083-5.396-8.499-10.388-8.562-1.297-.016-2.4,1.115-2.4,2.4,0,1.315,1.099,2.384,2.4,2.4.237.003.473.02.71.027.71.02-.409-.115.272.031.362.078.721.155,1.074.269.138.044.273.094.409.144-.49-.18.144.073.206.104.373.19.727.411,1.066.656-.398-.288.333.312.448.428.144.145.276.3.413.451.431.476-.157-.244.059.079.208.312.406.626.575.962.061.122.121.245.175.37-.222-.514.082.296.111.394.098.334.173.674.228,1.018-.08-.502-.008-.031-.005.1.004.179.018.358.018.537,0,.365-.022.729-.058,1.093.056-.565-.026.112-.043.195-.047.234-.104.466-.171.695-.047.161-.106.317-.154.478-.179.607.23-.401-.059.154-.149.286-.293.571-.467.843-.005.008-.362.52-.142.224.219-.294-.163.188-.172.198-.253.284-.53.54-.821.784.441-.369-.048.02-.132.075-.108.07-.218.138-.329.202-.17.098-.345.181-.518.274-.552.295.297-.099-.067.03-.356.126-.712.24-1.08.324-.138.032-.277.054-.415.085-.28.045-.282.047-.005.007-.147.016-.294.029-.442.038-.376.024-.754.029-1.131.012-.219-.01-.438-.027-.656-.052.105.012.449.095.002-.009-.373-.087-.743-.163-1.108-.282-.161-.053-.32-.11-.478-.172.518.204-.137-.082-.24-.137-.317-.17-.619-.363-.911-.575.438.317-.281-.272-.393-.386-.107-.108-.666-.845-.373-.405-.22-.331-.408-.67-.607-1.012-.318-.547.129.442-.079-.163-.044-.129-.093-.256-.134-.386-.129-.401-.22-.81-.294-1.225.018.102.031.465.003-.01-.013-.224-.033-.445-.038-.669-.004-.183-.003-.366.004-.549.005-.119.095-.869.006-.309.065-.41.16-.816.287-1.212.023-.072.269-.707.049-.194.08-.188.172-.371.268-.551s.199-.356.309-.527c.061-.095.418-.582.099-.176.252-.321.536-.619.837-.894.053-.049.582-.462.151-.147.168-.123.34-.239.517-.349.179-.111.362-.214.549-.31.128-.066.596-.251.206-.106.413-.154.833-.282,1.264-.373.053-.011.778-.106.263-.055.315-.031.628-.044.944-.048,1.297-.016,2.4-1.091,2.4-2.4,0-1.288-1.098-2.417-2.4-2.4Z"/><path class="f" d="M234.335,350.588c-4.823,0-8.157,3.673-8.157,7.97,0,4.808,3.406,8.12,8.157,8.12,4.935,0,8.157-3.342,8.157-8.12,0-4.327-3.351-7.97-8.158-7.97Z"/><path class="d" d="M234.335,348.188c-4.591.058-8.667,2.832-10.086,7.253-1.299,4.046.057,8.832,3.427,11.44,3.405,2.635,8.462,2.915,12.207.81,3.865-2.173,5.491-6.698,4.841-10.941-.779-5.083-5.396-8.499-10.388-8.562-1.297-.016-2.4,1.115-2.4,2.4,0,1.315,1.099,2.384,2.4,2.4.237.003.473.02.71.027.71.02-.409-.115.272.031.362.078.721.155,1.074.269.138.044.273.094.409.144-.49-.18.144.073.206.104.373.19.727.411,1.066.656-.398-.288.333.312.448.428.144.145.276.3.413.451.431.476-.157-.244.059.079.208.312.406.626.575.962.061.122.121.245.175.37-.222-.514.082.296.111.394.098.334.173.674.228,1.018-.08-.502-.008-.031-.005.1.004.179.018.358.018.537,0,.365-.022.729-.058,1.093.056-.565-.026.112-.043.195-.047.234-.104.466-.171.695-.047.161-.106.317-.154.478-.179.607.23-.401-.059.154-.149.286-.293.571-.467.843-.005.008-.362.52-.142.224.219-.294-.163.188-.172.198-.253.284-.53.54-.821.784.441-.369-.048.02-.132.075-.108.07-.218.138-.329.202-.17.098-.345.181-.518.274-.552.295.297-.099-.067.03-.356.126-.712.24-1.08.324-.138.032-.277.054-.415.085-.28.045-.282.047-.005.007-.147.016-.294.029-.442.038-.376.024-.754.029-1.131.012-.219-.01-.438-.027-.656-.052.105.012.449.095.002-.009-.373-.087-.743-.163-1.108-.282-.161-.053-.32-.11-.478-.172.518.204-.137-.082-.24-.137-.317-.17-.619-.363-.911-.575.438.317-.281-.272-.393-.386-.107-.108-.666-.845-.373-.405-.22-.331-.408-.67-.607-1.012-.318-.547.129.442-.079-.163-.044-.129-.093-.256-.134-.386-.129-.401-.22-.81-.294-1.225.018.102.031.465.003-.01-.013-.224-.033-.445-.038-.669-.004-.183-.003-.366.004-.549.005-.119.095-.869.006-.309.065-.41.16-.816.287-1.212.023-.072.269-.707.049-.194.08-.188.172-.371.268-.551s.199-.356.309-.527c.061-.095.418-.582.099-.176.252-.321.536-.619.837-.894.053-.049.582-.462.151-.147.168-.123.34-.239.517-.349.179-.111.362-.214.549-.31.128-.066.596-.251.206-.106.413-.154.833-.282,1.264-.373.053-.011.778-.106.263-.055.315-.031.628-.044.944-.048,1.297-.016,2.4-1.091,2.4-2.4,0-1.288-1.098-2.417-2.4-2.4Z"/><path class="g" d="M242.002,277.974v46.934c20.74,4.913,38.533,11.75,54.144,19.168,2.422,1.151,3.172,4.353,1.078,5.928-2.645,1.991-5.89,2.674-8.615,2.858-1.029.07-3.204-.309-4.128-.716-13.418-5.911-28.655-11.698-43.47-15.608-.004,4.274-.005,11.819-.005,15.529,0,1.27-.989,2.093-2.177,2.541-1.661.626-7.133.626-8.98-.052-1.211-.445-2.228-1.259-2.228-2.549,0-3.835-.002-11.602-.006-15.373-10.781,2.872-21.812,6.735-32.185,10.908l-2.687-12.03c10.379-3.998,21.635-7.602,33.928-10.531,0-23.319,0-46.558,0-46.558"/><path class="f" d="M131.654,208.943c1.228-.59,2.475-1.084,3.681-1.458,20.951-6.485,41.651-9.904,65.687-15.689l5.313-1.394,2.469-.648c-.652,7.253-2.635,14.566-.243,21.384,1.39,3.997,4.19,7.402,7.36,10.293,6.88,6.286,20.94,15.444,31.3,16.308l7.357.613c-.777,1.088-1.611,1.565-2.572,1.952-6.255,2.515-14.731,2.591-22.245,2.771-24.925.611-43.054,1.577-66.114,2.35,2.533,16.083,3.777,27.362,5.783,43.439,1.726,13.835,2.761,20.96,4.288,39.184-11.453,1.644-22.907,3.285-34.36,4.927-.017-.088-.035-.177-.035-.177,0,0-18.533-94.474-19.317-100.799-.828-6.119.674-12.638,3.005-16.193,1.763-2.689,5.121-5.17,8.641-6.863Z"/><path class="d" d="M180.926,51.427c-1.95-2.456-3.683-5.135-6.065-7.209-1.559-1.357-3.309-2.463-5.178-3.342-4.255-2.001-8.871-3.018-13.471-3.867-4.006-.739-8.037-1.339-12.066-1.932-1.281-.188-2.579.319-2.952,1.676-.31,1.13.386,2.763,1.676,2.952,6.099.897,12.261,1.731,18.244,3.252,1.035.263,2.063.552,3.078.882.481.156.959.322,1.433.498.21.078.419.159.628.241.102.04.204.082.306.124.353.144-.318-.14.025.011,1.494.659,3.056,1.467,4.326,2.43,2.652,2.009,4.553,5.071,6.621,7.676.807,1.016,2.551.843,3.394,0,1.004-1.004.809-2.375,0-3.394h0Z"/><path class="d" d="M136.781,39.626c.036,5.852,1.885,11.485,1.826,17.34-.021,2.124-.267,4.511-1.605,6.258-.768,1.002-1.865,1.661-2.618,2.695-1.016,1.396-1.504,3.145-1.217,4.859.427,2.548,2.536,3.661,4.446,5.031,2.227,1.597,2.426,4.302,3.24,6.732,1.95,5.825,4.821,12.071,11.074,14.198,3.017,1.026,6.597,1.03,9.735.725,1.75-.17,3.51-.436,5.196-.947,1.5-.455,2.88-1.178,4.304-1.818,1.182-.531,1.466-2.25.861-3.284-.712-1.217-2.097-1.394-3.284-.861-2.189.983-4.261,1.784-6.675,2.068-2.584.304-5.407.361-7.952-.25-5.425-1.301-7.553-7.594-9.02-12.313-.341-1.099-.561-2.245-.917-3.336-.444-1.362-1.457-2.731-2.468-3.722-.779-.763-1.693-1.351-2.601-1.944-.391-.256-.597-.379-.829-.591-.378-.346-.435-.335-.442-.687-.014-.673.801-1.513,1.427-2.054.947-.818,1.77-1.771,2.378-2.872,1.211-2.194,1.656-4.717,1.75-7.197.23-6.094-1.773-11.959-1.81-18.031-.019-3.088-4.819-3.094-4.8,0h0Z"/><path class="d" d="M141.642,41.059c-.577-4.935-.152-9.677,1.581-14.353.208-.562-.206.415.124-.285.135-.286.266-.574.406-.857.376-.758.786-1.498,1.223-2.223,1.078-1.788,2.262-3.393,3.626-4.926,7.655-8.605,19.312-13.544,30.769-13.613,4.154-.025,7.733.491,11.724,1.862,5.481,1.883,10.363,5.251,14.538,9.223,8.747,8.321,14.449,21.08,12.288,33.279-.877,4.952-3.015,9.191-5.602,13.456-1.518,2.502-3.076,4.981-4.586,7.489-.633,1.051-1.29,2.113-1.809,3.226-.786,1.688-.801,3.573-.308,5.35.824,2.973,5.456,1.71,4.629-1.276-.38-1.371-.103-1.842.461-2.861.58-1.048,1.201-2.073,1.828-3.094,1.4-2.28,2.81-4.554,4.192-6.845,2.475-4.105,4.628-8.448,5.629-13.167,2.784-13.134-2.254-27.255-11.29-36.908C203.219,6.153,192.807.45,181.215.029c-12.248-.445-24.881,4.217-33.779,12.688-3.411,3.247-6.415,7.171-8.33,11.495-2.333,5.268-2.929,11.165-2.264,16.846.151,1.287.995,2.4,2.4,2.4,1.18,0,2.552-1.104,2.4-2.4h0Z"/><path class="d" d="M182.182,53.742c1.034-1.596,3.425-3.058,5.121-1.622,1.707,1.446,2.024,3.865,1.987,5.969s-.569,3.994-1.713,5.804c-1.124,1.778-2.897,3.306-4.794,4.511-2.6,1.652-.195,5.808,2.423,4.145,2.776-1.765,5.323-4.015,6.927-6.928,1.56-2.834,2.178-6.119,1.89-9.332-.314-3.509-1.889-7.344-5.297-8.881-4.097-1.848-8.414.403-10.687,3.912-1.684,2.6,2.47,5.009,4.145,2.423h0Z"/><path class="d" d="M147.523,55.833c-.355,1.733.285,5.595,3.352,5.667,4.016-.368,3.844-5.089,2.31-7.185-1.256-1.716-4.574-2.191-5.663,1.517Z"/><path class="d" d="M188.11,66.49c2.155,3.062,4.966,5.493,7.955,7.711,3.223,2.392,6.681,4.457,10.206,6.37,1.139.618,2.615.282,3.284-.861.64-1.094.282-2.663-.861-3.284-3.348-1.817-6.632-3.772-9.717-6.011-1.314-.954-2.579-1.977-3.796-3.114-.584-.546-1.15-1.112-1.686-1.705-.255-.281-.497-.571-.742-.861-.065-.077-.233-.293-.078-.091-.145-.189-.282-.383-.419-.578-.745-1.059-2.098-1.554-3.284-.861-1.047.613-1.611,2.218-.861,3.284h0Z"/><path class="d" d="M171.834,94.399c.402-.18.909-.258,1.346-.22.371.032.43.117.791.368.859.597,1.72,1.188,2.526,1.857,1.328,1.103,2.634,2.233,3.958,3.34,1.921,1.606,3.896,3.156,5.738,4.852l3.256,2.996c2.27,2.089,5.673-1.297,3.394-3.394-1.64-1.509-3.245-3.062-4.96-4.487-3.151-2.617-6.213-5.392-9.475-7.869-.987-.749-2.033-1.619-3.197-2.069-1.923-.742-3.979-.336-5.801.48-1.183.53-1.465,2.251-.861,3.284.712,1.218,2.096,1.393,3.284.861h0Z"/><path class="d" d="M149.545,76.646c-2.701.076-5.469.537-7.823,1.938-1.079.642-1.567,2.188-.861,3.284.7,1.085,2.129,1.548,3.284.861.374-.223.761-.418,1.161-.59l-.573.242c1.038-.433,2.13-.694,3.241-.85l-.638.086c.733-.097,1.47-.15,2.209-.171,1.254-.035,2.459-1.079,2.4-2.4-.057-1.27-1.056-2.438-2.4-2.4h0Z"/><path class="h" d="M290.434,187.975c.252,9.478.954,18.946,2.104,28.365.404,3.307.687,8.744.529,12.07-.621,13.1-9.648,24.492-27.982,26.326-20.426,2.055-45.897,1.834-66.25,2.056-3.833,0-9.278-.403-10.556-.623-1.978-.342-3.823-.936-5.25-2.349-.865-.856-1.582-1.882-2.006-3.022-.675-1.815-1.008-3.882-1.067-5.815,17.657-.673,33.469-1.408,53.806-1.907,7.514-.181,15.99-.257,22.245-2.771.992-.399,1.848-.894,2.644-2.042-.876-4.224-1.872-9.227-2.538-12.742-.73-3.77-1.42-7.54-2.07-11.31-1.22-7.04-2.32-14.24-1.06-21.27,1.55-8.7,6.56-16.43,10.47-24.44,7.44-15.27,11-31.96,17.57-47.58,1.43-3.4,3.03-6.79,5.44-9.65,5.76-6.87,15.18-9.75,24.05-12.29v.757c-6.424,16.816-18.345,60.52-19.153,65.066-.9,5.061-1.032,10.216-1.03,15.348.001,2.609.036,5.218.105,7.826Z"/><path class="d" d="M120.175,160.775c-.403,3.505-1.541,10.622,3.128,11.873,1.974.529,4.245.086,5.682-1.4,1.315-1.36,1.868-3.254,2.933-4.783.937-1.345,1.989-1.997,3.623-1.703,2.145.386,4.151,1.422,6.268,1.943,4.431,1.091,8.613.488,12.81-1.18,1.204-.478,2.047-1.605,1.676-2.952-.315-1.145-1.741-2.158-2.952-1.676-3.57,1.419-6.899,2.074-10.669,1.075-3.623-.96-7.315-3.137-11.075-1.441-1.699.766-3.009,2.214-3.993,3.77-.753,1.19-1.366,2.842-2.201,3.74.24-.259.028-.009-.014-.011,0,0-.81.021-.812-.01.211.032.35.127.416.284-.091-.1-.147-.213-.169-.339-.013-.232-.131-.528-.16-.761-.259-2.071.073-4.369.309-6.429.148-1.29-1.209-2.4-2.4-2.4-1.421,0-2.251,1.107-2.4,2.4h0Z"/><path class="d" d="M153.406,138.449c-4.754-1.406-9.47-2.929-14.187-4.453-4.665-1.508-9.379-2.355-14.279-1.576-4.487.713-8.639,3.565-11.424,7.082-2.915,3.681-4.586,8.016-6.472,12.267-1.026,2.313-1.685,5.246-.292,7.57,1.289,2.15,4.165,3.151,6.54,2.477,2.967-.842,1.706-5.475-1.276-4.629-.711.202-1.29-.218-1.247-1.207.074-1.705,1.119-3.359,1.781-4.894,1.467-3.404,3.025-6.955,5.636-9.655,2.429-2.512,5.531-4.231,9.051-4.477,3.95-.275,7.52.639,11.238,1.842,4.539,1.469,9.081,2.928,13.656,4.282,2.968.878,4.236-3.753,1.276-4.629h0Z"/><path class="d" d="M118.186,146.486c-1.648,2.571-3.132,5.237-4.427,8.004-1.197,2.558-2.678,5.268-2.637,8.169.037,2.606,1.423,5.31,4.199,5.786,2.564.44,5.564-.504,7.058-2.709.727-1.073.205-2.66-.861-3.284-1.184-.692-2.554-.215-3.284.861.339-.5.061-.037-.086.035.302-.147.111-.092-.092.018-.151.081-.427.205-.116.08-.209.084-.431.151-.649.208-.056.015-.65.136-.352.089.294-.046-.287.017-.348.018-.136.003-.715-.099-.194.022-.076-.018-.6-.098-.253-.048.179.08.162.062-.053-.055l.171.129c-.159-.173-.185-.192-.08-.058.1.141.084.111-.049-.091l-.1-.185c.083.211.095.234.038.069-.052-.184-.106-.365-.142-.553.084.437-.007-.293-.008-.335-.003-.217.006-.433.024-.649.016-.191-.028.027.049-.304.064-.278.128-.552.212-.824.57-1.852,1.603-3.842,2.511-5.654,1.088-2.172,2.301-4.274,3.612-6.319.7-1.091.225-2.648-.861-3.284-1.16-.679-2.582-.233-3.284.861h0Z"/><path class="d" d="M122.352,165.507c.188-.526.385-1.048.594-1.566.052-.128.105-.256.157-.384-.184.451.002,0,.042-.091.11-.251.222-.501.337-.749.471-1.016.986-2.012,1.545-2.983.542-.942,1.124-1.861,1.741-2.755.332-.481.674-.954,1.025-1.421.027-.036.29-.382.128-.17s.105-.133.133-.169c.195-.248.394-.493.593-.737.794-.97,1.02-2.458,0-3.394-.88-.807-2.545-1.037-3.394,0-3.249,3.969-5.796,8.307-7.528,13.143-.424,1.184.478,2.679,1.676,2.952,1.348.307,2.498-.409,2.952-1.676h0Z"/><path class="d" d="M239.602,277.974v46.934c0,1.023.742,2.072,1.762,2.314,15.634,3.719,30.928,8.831,45.641,15.299,1.703.749,3.4,1.514,5.088,2.295,1.11.513,2.982,1.027,3.674,1.963.551.744.409,1.082-.458,1.644-1.55,1.004-3.306,1.563-5.12,1.865-3.301.55-5.856-.825-8.825-2.089-3.952-1.682-7.927-3.307-11.935-4.851-9.098-3.506-18.353-6.625-27.78-9.124-1.506-.399-3.037.744-3.038,2.314-.003,3.095-.004,6.19-.004,9.284,0,1.538,0,3.075,0,4.613,0,.99.332,1.597-.659,1.937-1.648.565-4.971.442-6.67.081-.336-.072-.927-.148-1.166-.429-.147-.172-.09-.622-.09-.937,0-1.41,0-2.82,0-4.23,0-3.407-.001-6.815-.005-10.222-.002-1.567-1.532-2.717-3.038-2.314-10.952,2.931-21.668,6.685-32.185,10.908-1.202.483-2.048,1.601-1.676,2.952.314,1.142,1.742,2.162,2.952,1.676,10.517-4.223,21.233-7.977,32.185-10.908l-3.038-2.314c.004,3.526.005,7.053.005,10.579,0,1.592-.072,3.203,0,4.793.11,2.42,1.773,4.098,3.99,4.863,2.783.961,6.438.797,9.3.287,1.757-.313,3.512-1.324,4.363-2.939.81-1.537.532-3.525.533-5.208,0-4.158.001-8.315.005-12.473l-3.038,2.314c9.124,2.419,18.087,5.419,26.902,8.787,4.199,1.604,8.367,3.29,12.499,5.06,1.824.781,3.64,1.79,5.592,2.201,1.897.399,3.624.385,5.531.104,3.493-.515,8.704-2.122,9.755-5.987.467-1.715.04-3.601-.997-5.02-1.201-1.644-2.995-2.33-4.783-3.16-7.473-3.468-15.09-6.639-22.833-9.452-9.622-3.496-19.442-6.423-29.4-8.792l1.762,2.314v-46.934c0-3.089-4.8-3.094-4.8,0h0Z"/><path class="d" d="M193.382,337.827c11.066-4.253,22.398-7.773,33.928-10.531,1.02-.244,1.762-1.287,1.762-2.314,0-14.464,0-28.927,0-43.391,0-1.056,0-2.111,0-3.167,0-3.089-4.8-3.094-4.8,0,0,10.443,0,20.887,0,31.33,0,5.076,0,10.152,0,15.227l1.762-2.314c-11.53,2.758-22.862,6.278-33.928,10.531-1.209.465-2.044,1.615-1.676,2.952.318,1.156,1.736,2.144,2.952,1.676h0Z"/><path class="d" d="M261.761,241.376c-2.129-9.86-4.074-19.778-5.733-29.728-.947-5.682-1.735-11.607-.852-17.351.804-5.232,2.927-10.104,5.3-14.793,2.461-4.862,5.101-9.617,7.262-14.626,2.245-5.203,4.174-10.527,5.977-15.897,1.787-5.321,3.469-10.677,5.3-15.983,1.765-5.113,3.564-10.314,6.033-15.138,2.516-4.915,6.162-8.494,11.024-11.081,4.737-2.52,9.943-4.014,15.077-5.486,2.964-.85,1.704-5.483-1.276-4.629-9.592,2.75-19.88,5.932-26.157,14.233-3.336,4.412-5.294,9.83-7.224,14.962-2.057,5.471-3.852,11.035-5.669,16.589-1.768,5.404-3.558,10.804-5.633,16.1s-4.597,10.359-7.238,15.398c-2.556,4.877-5.099,9.855-6.565,15.187-1.602,5.829-1.598,11.871-.864,17.832.82,6.65,2.136,13.246,3.394,19.824,1.013,5.298,2.075,10.588,3.214,15.861.652,3.018,5.28,1.741,4.629-1.276h0Z"/><path class="d" d="M308.198,99.098c-5.087,13.351-8.9,27.245-12.776,40.984-1.707,6.051-3.381,12.112-4.956,18.199-.435,1.681-.876,3.363-1.251,5.058-.936,4.226-1.164,8.644-1.253,12.959-.249,12.135.43,24.327,1.752,36.388.533,4.861,1.08,9.697.988,14.599-.062,3.343-.682,6.811-1.985,9.813-2.92,6.727-8.776,11.388-15.765,13.613-4.538,1.445-9.249,1.802-13.971,2.164-5.3.406-10.609.674-15.921.868-10.959.4-21.926.48-32.891.555-4.964.034-9.948.217-14.909.006-2.048-.087-4.091-.231-6.131-.424-.814-.077.297.09-.407-.06-.581-.124-1.16-.235-1.728-.411-1.121-.348-2.081-.959-2.82-1.882-1.428-1.784-1.732-4.338-1.812-6.546-.111-3.08-4.912-3.094-4.8,0,.099,2.744.526,5.709,1.907,8.13,1.412,2.478,3.72,4.188,6.437,4.982,1.825.534,3.754.661,5.642.799,2.422.176,4.855.304,7.284.299,10.884-.021,21.775-.119,32.657-.331,11.008-.214,22.034-.59,32.997-1.662,8.81-.861,17.662-3.777,23.723-10.547,5.321-5.943,7.406-13.49,7.296-21.345-.075-5.383-.82-10.684-1.344-16.033-.606-6.18-1.02-12.38-1.241-18.586s-.373-12.498.015-18.717c.181-2.904.52-5.774,1.201-8.601,1.266-5.252,2.71-10.465,4.147-15.673,4.019-14.562,8.115-29.168,13.123-43.426.458-1.304.929-2.603,1.421-3.895.462-1.212-.511-2.632-1.676-2.952-1.351-.371-2.489.46-2.952,1.676h0Z"/><path class="d" d="M262.036,259.025c-.051.127-.103.254-.156.38.156-.374-.006.008-.033.07-.144.327-.289.653-.437.979-.394.868-.802,1.731-1.215,2.591-.84,1.749-1.704,3.487-2.586,5.215-.831,1.629-1.569,3.642-2.721,5.072-.645.801-1.627,1.216-2.63,1.279-2.86.181-5.745.169-8.609.254-9.425.278-18.85.555-28.275.833-1.382.041-2.767.201-3.928-.75-.851-.697-1.288-1.815-1.808-2.757-.599-1.085-1.194-2.172-1.788-3.26-1.151-2.109-2.296-4.221-3.445-6.33-1.478-2.714-5.624-.294-4.145,2.423,1.049,1.927,2.095,3.855,3.146,5.781,1.103,2.023,2.089,4.241,3.422,6.123,1.76,2.484,4.505,3.68,7.505,3.601,3.735-.098,7.469-.22,11.204-.33,8.879-.262,17.781-.357,26.654-.785,1.689-.081,3.324-.511,4.713-1.507,2.016-1.447,3.001-3.644,4.109-5.785,2.004-3.87,4.012-7.777,5.648-11.82.487-1.202-.529-2.637-1.676-2.952-1.372-.377-2.464.47-2.952,1.676h0Z"/><path class="d" d="M214.614,80.216c1.503.516,3.016,1.008,4.509,1.552.489.178-.101-.055.297.123.258.115.516.231.772.351.636.296,1.265.607,1.889.925,1.51.77,2.995,1.589,4.46,2.441,6.023,3.5,11.425,7.565,16.176,12.673,9.601,10.323,15.478,23.541,18.771,37.138,1.702,7.026,3.094,14.26,3.781,21.46.123,1.29,1.015,2.4,2.4,2.4,1.203,0,2.524-1.102,2.4-2.4-.673-7.056-1.998-14.097-3.551-21.008-1.627-7.241-4.033-14.358-7.145-21.096-6.081-13.163-15.657-24.247-28.004-31.87-3.095-1.911-6.291-3.746-9.63-5.202-1.901-.829-3.888-1.441-5.849-2.114-2.928-1.005-4.186,3.63-1.276,4.629h0Z"/><path class="d" d="M187.178,142.571c3.673.177,8.202,1.133,10.998-1.924,2.718-2.971,1.624-6.789,1.05-10.35-1.193-7.403-2.704-14.746-4.063-22.118-.682-3.699-.111-7.933,1.386-11.367.517-1.187.35-2.575-.861-3.284-1.016-.594-2.763-.334-3.284.861-1.486,3.41-2.284,7.038-2.273,10.768.011,3.555,1.006,7.014,1.637,10.49.602,3.314,1.211,6.627,1.806,9.943.308,1.713.604,3.428.886,5.145.267,1.627.663,3.317.755,4.965.057,1.024-.47,1.972-1.51,2.252-.872.235-1.953.021-2.85-.015-1.226-.05-2.453-.106-3.679-.165-3.088-.149-3.08,4.652,0,4.8h0Z"/><path class="d" d="M231.338,158.557c-1.821,2.902-4.29,5.356-7.335,6.949-3.315,1.735-7.065,2.69-10.739,3.297-4.346.718-8.945.467-13.338.452-4.891-.017-9.78-.152-14.665-.388-4.797-.232-9.59-.562-14.375-.972-2.446-.21-4.889-.44-7.331-.688s-4.921-.707-7.367-.802l-.246-.029c-.306-.06-.327-.043-.065.051l.253.396c.199.488.29.54.272.156.199-.329.099-1.264.131-1.681.098-1.285.192-2.571.284-3.857.173-2.42.338-4.841.511-7.261s.354-4.834.557-7.25c.094-1.122.194-2.243.299-3.363.049-.514.495-3.147.293-3.281.459.303-1.875.483.02.585.548.029,1.095.06,1.643.091,1.209.068,2.417.14,3.626.213,2.48.151,4.96.309,7.439.466,5.323.337,10.647.668,15.974.929,3.088.151,3.08-4.649,0-4.8-5.173-.254-10.342-.574-15.511-.9-2.488-.157-4.977-.316-7.465-.468-2.212-.135-4.553-.494-6.766-.364-1.186.07-2.329.648-2.986,1.656-.72,1.105-.723,2.445-.854,3.721-.271,2.639-.499,5.282-.707,7.927-.418,5.316-.75,10.638-1.156,15.955-.097,1.271-.343,2.568.279,3.751.585,1.112,1.654,1.804,2.871,1.997,2.701.428,5.462.63,8.182.91,5.36.551,10.729,1.014,16.106,1.365s10.727.584,16.098.683c5.34.099,10.827.321,16.153-.145,4.738-.414,9.517-1.649,13.836-3.636,4.277-1.968,7.733-5.272,10.224-9.243,1.646-2.624-2.505-5.036-4.145-2.423h0Z"/><path class="d" d="M205.099,179.436c.619,1.631,1.301,3.326,1.459,5.077.16,1.774-.004,3.623-.166,5.389-.331,3.603-.983,7.171-1.256,10.78-.259,3.418-.148,6.939.836,10.245.993,3.337,2.823,6.288,5.064,8.926,3.616,4.256,8.318,7.704,12.96,10.756,5.092,3.348,10.59,6.311,16.42,8.151,3.992,1.26,8.113,1.499,12.252,1.876,1.293.118,2.4-1.187,2.4-2.4,0-1.396-1.104-2.282-2.4-2.4-3.128-.285-6.265-.418-9.301-1.218-5.352-1.411-10.353-4.024-15.034-6.93-4.348-2.7-8.608-5.741-12.215-9.392-2.104-2.13-4.029-4.585-5.103-7.41-1.19-3.129-1.332-6.45-1.111-9.758.252-3.761.943-7.474,1.288-11.225.177-1.926.319-3.908.124-5.838-.208-2.058-.858-3.982-1.589-5.905-.46-1.211-1.618-2.043-2.952-1.676-1.16.319-2.139,1.734-1.676,2.952h0Z"/><path class="d" d="M122.407,231.999c-.772-6.125.182-13.325,5.073-17.569,5.214-4.523,12.482-5.907,18.964-7.643,14.512-3.886,29.266-6.776,43.92-10.06,5.562-1.246,11.097-2.565,16.609-4.012,2.985-.783,1.719-5.414-1.276-4.629-12.577,3.3-25.319,5.897-38.016,8.69-7.465,1.642-14.918,3.353-22.303,5.325-7.168,1.914-14.623,3.595-20.543,8.312-6.316,5.033-8.201,13.862-7.228,21.584.162,1.286.987,2.4,2.4,2.4,1.171,0,2.563-1.105,2.4-2.4h0Z"/><path class="d" d="M164.335,247.802c12.14-.412,24.276-.932,36.413-1.397,6.16-.236,12.32-.454,18.481-.641,6.368-.193,12.754-.207,19.115-.576,3.425-.199,6.881-.538,10.228-1.316,3.171-.737,6.18-1.713,8.168-4.426.767-1.046.176-2.677-.861-3.284-1.217-.712-2.515-.188-3.284.861-.561.766-1.428,1.062-2.29,1.363-1.367.476-2.776.831-4.195,1.112-2.702.535-5.452.765-8.199.915-6.218.337-12.458.363-18.682.552-11.621.352-23.237.827-34.853,1.289-6.68.266-13.36.522-20.042.749-3.081.104-3.095,4.905,0,4.8h0Z"/><path class="d" d="M170.484,330.698c3.388,2.631,6.045,6.354,7.041,10.565,1.1,4.651-.635,9.323-4.977,11.552-1.819.933-4.067,1.266-6.035,1.746-3.251.793-6.512,1.549-9.776,2.287-7.037,1.591-14.099,3.181-21.22,4.353-.614.101-1.23.194-1.846.285-.156.023-.589.074.041-.005-.311.039-.622.078-.933.114-.758.086-1.517.159-2.278.212-2.496.174-5.067.206-7.518-.364-.934-.217-2.02-.417-2.687-1.161-.621-.693-.889-1.599-.911-2.52-.028-1.172.259-2.334.745-3.398.193-.423.439-.812.668-1.214.052-.091.124-.175.184-.261-.351.501-.026.035.073-.073,2.667-2.939,5.929-5.323,9.137-7.634,3.373-2.431,6.823-4.764,10.35-6.968,2.614-1.634.207-5.788-2.423-4.145-3.432,2.145-6.791,4.414-10.079,6.773-3.397,2.437-6.942,4.934-9.832,7.978-3.314,3.49-5.128,9.57-2.14,13.817,1.687,2.399,4.343,3.284,7.133,3.717,3.029.469,6.077.412,9.118.092,7.75-.817,15.432-2.683,23.026-4.371,3.719-.827,7.433-1.678,11.137-2.568,2.275-.547,4.657-.989,6.85-1.825,3.015-1.149,5.575-3.253,7.277-5.999,1.934-3.121,2.318-6.666,1.81-10.237-.781-5.481-4.213-10.78-8.54-14.141-1.023-.794-2.397-.997-3.394,0-.828.828-1.03,2.594,0,3.394h0Z"/><path class="d" d="M117.607,231.999c.544,4.33,1.474,8.629,2.277,12.916,1.525,8.141,3.087,16.276,4.653,24.409,1.818,9.442,3.649,18.882,5.484,28.321,1.559,8.016,3.122,16.031,4.689,24.045.749,3.832,1.273,7.804,2.267,11.582.014.053.021.109.032.164.25,1.273,1.77,2.001,2.952,1.676,1.329-.365,1.927-1.676,1.676-2.952-.614-3.13-1.227-6.26-1.839-9.391-1.485-7.594-2.968-15.189-4.446-22.785-1.831-9.407-3.657-18.815-5.472-28.225-1.627-8.433-3.248-16.866-4.839-25.306-.905-4.799-1.879-9.599-2.624-14.426-.079-.512-.096-.71-.011-.029-.162-1.286-.987-2.4-2.4-2.4-1.171,0-2.563,1.105-2.4,2.4h0Z"/><path class="d" d="M161.382,246.387c1.845,11.758,3.321,23.562,4.771,35.374,1.161,9.461,2.438,18.909,3.47,28.385.665,6.103,1.221,12.218,1.732,18.336.108,1.292,1.026,2.4,2.4,2.4,1.215,0,2.509-1.101,2.4-2.4-1.752-20.952-4.485-41.822-7.191-62.669-.897-6.913-1.873-13.816-2.954-20.703-.201-1.282-1.804-1.992-2.952-1.676-1.366.376-1.878,1.667-1.676,2.952h0Z"/><path class="d" d="M141.232,335.113c10.122-1.451,20.245-2.902,30.367-4.353,1.284-.184,1.989-1.816,1.676-2.952-.379-1.38-1.664-1.861-2.952-1.676-10.122,1.451-20.245,2.902-30.367,4.353-1.284.184-1.989,1.816-1.676,2.952.379,1.38,1.664,1.861,2.952,1.676h0Z"/><path class="h" d="M59.448,153.435c-3.191-39.828-8.979-91.525-12.861-129.934-3.34.239-8.083,1.105-11.833,1.513,3.918,38.604,10.067,90.276,13.201,129.921,3.324-.275,11.327-1.482,11.493-1.499Z"/><path class="d" d="M61.848,153.435c-1.352-16.848-2.964-33.674-4.648-50.492-1.748-17.464-3.589-34.918-5.416-52.373-.944-9.022-1.884-18.044-2.797-27.069-.123-1.213-1.002-2.507-2.4-2.4-3.967.304-7.882,1.071-11.833,1.513-1.185.132-2.543.996-2.4,2.4,1.68,16.546,3.501,33.077,5.288,49.611,1.894,17.528,3.769,35.058,5.458,52.606.888,9.228,1.724,18.461,2.456,27.703.096,1.207,1.025,2.518,2.4,2.4,2.431-.209,4.852-.557,7.268-.89,1.068-.147,2.135-.299,3.201-.453.359-.052.718-.104,1.077-.157.272-.04,1.16-.151-.054.002,1.286-.162,2.4-.987,2.4-2.4,0-1.171-1.105-2.563-2.4-2.4-3.87.487-7.611,1.165-11.493,1.499l2.4,2.4c-1.331-16.806-2.99-33.585-4.728-50.353-1.812-17.473-3.732-34.935-5.613-52.4-.975-9.053-1.94-18.108-2.86-27.167l-2.4,2.4c3.951-.441,7.867-1.208,11.833-1.513l-2.4-2.4c1.668,16.498,3.423,32.987,5.142,49.48,1.828,17.544,3.63,35.092,5.279,52.654.87,9.262,1.697,18.528,2.441,27.801.104,1.292,1.029,2.4,2.4,2.4,1.218,0,2.504-1.101,2.4-2.4Z"/><path class="d" d="M33.589,96.587c-2.608,15.974-5.6,31.888-8.49,47.812-.779,4.293-1.559,8.586-2.335,12.88-.347,1.916-.692,3.832-1.037,5.749-.343,1.907-.934,3.95-.938,5.891-.004,2.268,1,4.544,2.705,6.043,1.897,1.668,4.078,2.084,6.533,2.084,4.969,0,9.937-.004,14.906-.008,8.506-.007,17.012-.023,25.519-.02,3.089.001,3.094-4.799,0-4.8-6.93-.003-13.86.01-20.79.016-4.826.004-9.652.008-14.478.01-2.152.001-4.484.261-6.617-.004-1.477-.183-2.737-1.324-2.949-2.824-.207-1.464.396-3.217.658-4.67.332-1.849.666-3.697,1-5.546.74-4.092,1.482-8.183,2.225-12.275,1.576-8.682,3.153-17.364,4.709-26.05,1.373-7.664,2.753-15.328,4.008-23.012.209-1.278-.332-2.583-1.676-2.952-1.146-.315-2.742.39-2.952,1.676h0Z"/><path class="d" d="M2.318,192.303c8.927-.013,17.854-.014,26.781-.016,13.422-.003,26.844-.003,40.266-.002,15.003,0,30.007.003,45.01.006,13.516.002,27.032.005,40.547.008,8.998.002,17.996.004,26.993.005.646,0,1.293,0,1.939,0,1.296,0,2.401-1.1,2.4-2.4-.004-3.702-.096-7.403-.1-11.105-.001-1.297-1.098-2.4-2.4-2.4-5.395.002-10.79.005-16.186.008-13.16.006-26.32.012-39.48.018-16.454.008-32.908.015-49.362.022-15.207.007-30.414.013-45.622.019-9.672.004-19.344.008-29.016.009-.58,0-1.16,0-1.74,0-3.089,0-3.094,4.8,0,4.8,8.677,0,17.355-.004,26.032-.008,14.848-.006,29.695-.012,44.543-.018,16.547-.007,33.095-.015,49.642-.022,13.718-.006,27.437-.013,41.155-.019,4.474-.002,8.948-.004,13.423-.006,2.095,0,4.241.135,6.333-.003.092-.006.187,0,.279,0l-2.4-2.4c.004,3.702.097,7.403.1,11.105l2.4-2.4c-8.271,0-16.541-.002-24.812-.004-13.087-.003-26.173-.005-39.26-.008-14.984-.003-29.968-.005-44.952-.006-13.814-.001-27.628-.001-41.442.001-9.614.002-19.227.003-28.841.014-.744,0-1.488.002-2.232.003-3.088.005-3.094,4.805,0,4.8h0Z"/><path class="h" d="M93.241,169.867c1.385,1.295,3.094,2.892,4.544,4.176.393.348.9.537,1.425.538,6.1.007,44.754.053,54.602.063,1.21.001,2.181-.99,2.165-2.2-.013-.973-.029-1.913-.029-2.963,0-.53-.173-1.081-.496-1.448-.375-.426-.959-.651-1.474-.729-14.19-2.161-44.342-4.792-59.176-5.677-1.256-.075-2.311.928-2.297,2.186.016,1.511.038,3.378.051,4.502.007.591.253,1.147.685,1.551Z"/><path class="d" d="M91.544,171.564c1.21,1.131,2.419,2.262,3.648,3.373,1.315,1.189,2.436,1.994,4.271,2.044,1.088.03,2.182.003,3.27.004,3.779.004,7.558.009,11.337.013,9.652.011,19.305.023,28.957.034,3.417.004,6.833.008,10.25.011,1.37.001,2.627-.288,3.663-1.243,1.474-1.359,1.433-3.175,1.415-5.019-.019-1.948-.159-3.867-1.939-5.052-1.13-.752-2.457-.842-3.761-1.027-11.251-1.593-22.583-2.652-33.899-3.647-6.276-.552-12.557-1.061-18.843-1.496-2.724-.189-6.424-1.112-8.543,1.077-1.493,1.542-1.261,3.607-1.239,5.573.023,2.01-.027,3.773,1.413,5.354,2.084,2.289,5.471-1.113,3.394-3.394-.063-.069-.065.461.015-.15.043-.327-.008-.705-.012-1.035-.008-.663-.015-1.325-.023-1.988-.003-.234-.129-.985-.013-1.183.063-.106-.174.196-.14.192.294-.029.721.063,1.037.082,2.171.135,4.342.284,6.511.441,5.12.371,10.236.786,15.349,1.231,10.381.903,20.765,1.882,31.101,3.218.994.128,1.548.202,2.616.353.496.07.993.137,1.488.216.337.054.969.386.681-.066.232.365.011,1.644.017,2.133-.003-.238.018,1.083.013.825-.002-.104.183-.195.228-.203-.44.081-1.03.006-1.503.006-3.265-.003-6.53-.007-9.795-.011-8.74-.01-17.48-.02-26.221-.03-4.102-.005-8.203-.01-12.305-.015-1.269-.002-2.538-.003-3.808-.005-.218,0-.45.022-.667,0-.445-.047-.117.092-.619-.364-1.326-1.206-2.642-2.423-3.952-3.647-2.255-2.108-5.656,1.279-3.394,3.394Z"/><path class="d" d="M207.183,82.058c.823-.763,1.657-1.513,2.446-2.312.234-.217.399-.475.496-.772.15-.286.219-.594.207-.925.012-.33-.056-.639-.207-.925-.097-.298-.262-.555-.496-.772-.457-.42-1.058-.732-1.697-.703l-.638.086c-.407.114-.76.32-1.059.617-.789.799-1.623,1.549-2.446,2.312-.234.217-.399.475-.496.772-.15.286-.219.594-.207.925-.012.33.056.639.207.925.097.298.262.555.496.772.457.42,1.058.732,1.697.703l.638-.086c.407-.114.76-.32,1.059-.617h0Z"/><path class="d" d="M190.99,93.265c-2.484,5.707-2.928,11.728-2.61,17.89.201,3.884.599,7.759.936,11.633.166,1.912.332,3.823.49,5.735.156,1.883.276,3.67-.243,5.511-.501,1.778-1.265,3.5-1.915,5.227-.457,1.213.508,2.631,1.676,2.952,1.347.37,2.494-.459,2.952-1.676.518-1.376,1.052-2.747,1.555-4.129,1.301-3.58.84-7.178.522-10.88-.607-7.081-1.667-14.299-1.172-21.416.2-2.876.802-5.778,1.953-8.424.517-1.188.35-2.575-.861-3.284-1.016-.594-2.764-.334-3.284.861h0Z"/><path class="e" d="M190.883,84.595c5.161,4.081,10.452,8.035,15.448,12.318,4.737,4.061,9.138,8.526,13.092,13.355.432.528.858,1.062,1.281,1.598.82,1.04-.426-.584.36.469.159.213.321.425.479.639.853,1.147,1.68,2.315,2.475,3.503,1.479,2.208,2.843,4.489,4.082,6.84,1.015,1.926,2.003,3.866,2.947,5.828.428.888.846,1.781,1.253,2.679.22.484.436.97.649,1.457.096.22.19.44.286.66.329.756-.3-.743.096.229,1.507,3.697,2.814,7.463,3.8,11.334.529,2.078.973,4.177,1.338,6.29.174,1.008.326,2.02.472,3.032-.158-1.095.074.602.1.82.077.645.148,1.29.213,1.937.92,9.111.951,18.43.369,27.565-.271,4.256-.692,8.503-1.245,12.731.02-.155.112-.803.002-.017-.058.413-.116.826-.176,1.239-.105.719-.215,1.438-.331,2.156-.235,1.458-.492,2.913-.778,4.362-.566,2.87-1.244,5.719-2.123,8.51-.628,1.996.74,4.453,2.794,4.92,2.178.496,4.248-.656,4.92-2.794,2.955-9.389,4.074-19.438,4.805-29.221.656-8.769.685-17.67.026-26.438-.669-8.907-2.299-17.693-5.481-26.057-3.424-8.999-7.834-17.866-13.587-25.605-4.28-5.758-9.096-11.088-14.427-15.891-5.558-5.008-11.619-9.47-17.484-14.108-1.638-1.295-4.08-1.718-5.657,0-1.325,1.444-1.753,4.271,0,5.657h0Z"/></g></svg>
