<svg id="b" xmlns="http://www.w3.org/2000/svg" width="264.044" height="295.644" viewBox="0 0 264.044 295.644" style="color: initial !important;"><defs><style>.d{fill:#3d8dcc;}.e{fill:#ffffff;}.f{fill:none;}.g{fill:#211715;}.h{fill:#645d5c;}</style></defs><g id="c"><path class="e" d="M188.442,173.466l-5.626-2.219c-4.116-1.548-7.458-2.8-10.709-5.419-1.535-1.239-2.49-2.826-3.2-4.658-.529-1.394-.529-2.955-.529-4.387,0,0,0-3.657,0-7.152,4.28-2.477,8.07-5.788,12.012-10.585,6.155-7.49,9.637-15.547,11.546-22.21,2.694.783,5.642-.209,7.583-1.797,4.28-3.502,6.055-8.385,7.139-11.577,1.53-4.508,1.627-11.793-.653-15.746-.764-1.325-2.538-3.58-6.709-3.727-1.916-.068-4.156.532-5.818,2.13,0,0-.841-49.787-51.484-49.787-54.981,0-51.484,49.787-51.484,49.787-1.662-1.597-3.902-2.197-5.818-2.13-4.171.147-5.945,2.403-6.709,3.727-2.28,3.954-2.183,11.239-.653,15.746,1.084,3.192,2.859,8.075,7.139,11.577,1.878,1.537,4.701,2.515,7.323,1.869,1.914,6.649,5.393,14.675,11.526,22.139,4.208,5.121,8.608,9.086,13.431,11.805.001,2.884.001,5.932.001,5.932,0,1.432,0,2.993-.529,4.387-.71,1.832-1.664,3.419-3.2,4.658-3.252,2.619-6.593,3.871-10.709,5.419l-5.639,2.219s5.737,12.106,48.237,12.106,43.534-12.106,43.534-12.106Z"/><path class="e" d="M121.069,220.122c-6.93-17.896-12.592-36.912-14.542-57.921,2.144-4.137,3.485-6.738,7.052-10.017,3.953,5.314,12.979,11.951,23.797,16.303.914.368,1.948.9,2.103,1.189.259.482-.245.906-.482,1.285h5.712c-.237-.379-.741-.803-.482-1.285.155-.289,1.189-.822,2.103-1.189,10.818-4.352,19.844-10.989,23.797-16.303,3.919,3.602,5.151,6.385,7.712,11.286-1.551,9.173-4.439,21.867-7.613,30.519-2.452,6.667-10.474,29.349-15.935,42.325-3.986,9.468-7.793,17.191-11.8,24.665h-3.777c-5.869-13.205-12.156-26.68-17.646-40.857Z"/><path class="e" d="M261.564,269.541l.076,1.056s-171.415,0-217.425,0v-75.278c4.909-6,11.066-10.974,17.965-14.512,5.294-2.715,10.976-4.575,16.631-6.424,9.243-3.022,18.697-6.081,28.547-4.929,4.659,34.452,18.944,63.59,31.359,91.523h3.777c4.006-7.474,7.813-15.198,11.8-24.665,5.461-12.976,13.484-35.658,15.935-42.325,2.559-6.974,4.931-16.575,6.568-24.84,2.862.038,4.689.062,4.689.062,8.371.107,16.479,2.735,24.436,5.336,5.832,1.907,11.692,3.825,17.152,6.625,7.114,3.648,14.203,8.443,19.266,14.631,14.681,17.946,16.605,42.897,18.671,65.992l.555,7.747Z"/><path class="h" d="M103.468,16.155c4.381-5.444,10.109-9.012,17.481-10.858,7.115-2.063,17.49-3.456,25.74-2.752,17.902,1.527,35.418,9.801,46.668,23.63,12.604,15.493,14.473,40.705,9.603,58.671-.946-.472-2.147-.804-3.664-.858-1.716-.06-3.692.415-5.276,1.669-1.051-6.306-4.108-15.458-6.345-21.559-.362-.988-.774-2.018-1.708-2.732-.946-.723-2.283-1.008-3.567-1.225-8.01-1.355-35.916.984-44.367-1.013-4.965-1.173-25.258-8.119-26.114-8.672-1.026-.662-2.437-.618-3.841.15-1.613.882-3.627,2.501-3.9,2.768-10.567,10.316-13.257,19.494-12.842,33.509-.413-.366-.828-.764-.828-.764-1.662-1.597-3.902-2.197-5.818-2.13-1.197.042-2.197.258-3.03.58-3.582-12.621-3.438-31.45-.687-40.717,0,0,.683-2.299.772-2.601,2.982-8.874,7.463-14.146,14.083-17.456l7.639-7.639Z"/><path class="g" d="M83.975,83.931c-2.46-8.768-3.349-17.917-2.646-26.997.611-7.897,2.328-16.125,6.706-22.848,2.269-3.484,5.296-6.325,9.005-8.219,2.752-1.405.326-5.548-2.423-4.145-7.563,3.861-12.399,11.225-15.049,19.094-2.999,8.907-3.742,18.778-3.052,28.107.407,5.503,1.339,10.971,2.83,16.284.833,2.97,5.466,1.708,4.629-1.276h0Z"/><path class="g" d="M105.165,17.852c3.083-3.787,6.936-6.776,11.466-8.641,4.836-1.991,10.233-3.063,15.397-3.76,10.734-1.448,21.408-.398,31.641,3.161,9.84,3.423,18.921,9.149,25.942,16.877,6.585,7.247,10.341,16.349,12.159,25.893,1.999,10.491,1.724,21.606-.897,31.963-.758,2.996,3.87,4.274,4.629,1.276,2.539-10.032,2.937-20.572,1.506-30.803-1.444-10.329-5.004-20.534-11.51-28.785C181.577,7.381,157.66-1.71,135.518.267c-6.351.567-12.86,1.667-18.881,3.828-5.813,2.087-10.956,5.561-14.866,10.363-.818,1.004-.982,2.412,0,3.394.845.845,2.572,1.01,3.394,0h0Z"/><path class="g" d="M93.78,86.686c-.151-5.485.113-10.995,1.825-16.248,1.67-5.122,4.774-9.584,8.455-13.467.753-.794,1.574-1.668,2.396-2.306.866-.672,2.343-2.053,3.519-2.074.858-.015,1.955.732,2.795,1.044,3.57,1.325,7.184,2.54,10.795,3.748,3.847,1.287,7.701,2.578,11.603,3.69,3.206.914,6.499,1.184,9.822,1.303,9.653.346,19.313-.274,28.967-.185,2.01.019,4.028.054,6.03.251.173.017.345.037.518.055.466.049-.539-.1.146.021.675.119,1.383.215,2.034.442,1.409.493,1.656,1.821,2.121,3.112,2.345,6.52,4.643,13.21,5.809,20.058.218,1.279,1.792,1.995,2.952,1.676,1.354-.372,1.895-1.67,1.676-2.952-1.086-6.377-3.177-12.606-5.323-18.692-1.144-3.243-2.053-6.436-5.601-7.71-1.943-.698-4.139-.836-6.19-.946-9.771-.522-19.594.243-29.374.15-2.212-.021-4.426-.072-6.634-.229-.449-.032-.898-.069-1.346-.112-.21-.021-.42-.042-.63-.066-.194-.022-.754-.1-.249-.027-.675-.099-1.343-.221-2.005-.385-3.768-.936-7.466-2.232-11.149-3.45-3.992-1.32-7.978-2.664-11.93-4.1-.56-.203-1.117-.412-1.673-.624-.092-.035-.182-.076-.274-.109-.323-.115.294.125.294.125,0-.004-.61-.319-.529-.28-3.542-1.712-6.858.723-9.555,2.861-2.288,1.814-4.231,4.223-6.004,6.527-1.761,2.288-3.314,4.723-4.512,7.355-2.412,5.299-3.411,10.989-3.587,16.785-.048,1.586-.036,3.172.008,4.758.085,3.083,4.885,3.095,4.8,0h0Z"/><path class="g" d="M165.978,150.073v5.395c0,2.11-.103,4.32.615,6.339,1.367,3.845,4.213,6.439,7.716,8.376,4.226,2.337,9.003,3.824,13.495,5.597,1.206.476,2.635-.522,2.952-1.676.374-1.363-.466-2.475-1.676-2.952-3.782-1.492-7.756-2.778-11.385-4.605-2.808-1.414-5.64-3.224-6.605-6.399-.527-1.735-.312-3.706-.312-5.496v-4.578c0-3.089-4.8-3.094-4.8,0h0Z"/><path class="g" d="M114.348,151.286v4.882c0,1.631.072,3.216-.602,4.737-1.294,2.921-4.033,4.548-6.81,5.885-3.504,1.688-7.282,2.936-10.903,4.362-1.205.474-2.046,1.607-1.676,2.952.316,1.148,1.739,2.154,2.952,1.676,4.325-1.702,8.881-3.159,12.995-5.32,3.408-1.791,6.317-4.156,7.86-7.759,1.509-3.524.985-7.664.985-11.416,0-3.089-4.8-3.094-4.8,0h0Z"/><path class="g" d="M216.811,260.982c.153-12.985.312-25.97.579-38.953.064-3.09-4.736-3.09-4.8,0-.267,12.983-.426,25.968-.579,38.953-.036,3.09,4.764,3.092,4.8,0h0Z"/><path class="g" d="M66.041,222.03c.267,12.983.414,25.968.567,38.953.036,3.087,4.836,3.095,4.8,0-.153-12.984-.3-25.97-.567-38.953-.063-3.085-4.864-3.095-4.8,0h0Z"/><path class="g" d="M102.504,166.81c-9.102.169-17.783,3.098-26.342,5.919-8.285,2.73-16.403,5.875-23.423,11.168-3.778,2.848-7.211,6.073-10.222,9.726-.824.999-.978,2.416,0,3.394.849.849,2.566,1.005,3.394,0,4.976-6.036,11.099-10.966,18.108-14.454,3.813-1.897,7.825-3.337,11.857-4.688,4.081-1.367,8.173-2.735,12.319-3.895,4.682-1.31,9.434-2.28,14.309-2.37,3.085-.057,3.095-4.857,0-4.8h0Z"/><path class="g" d="M181.484,171.61c5.652.104,11.148,1.36,16.547,2.957,5.439,1.609,10.874,3.367,16.187,5.353,9.666,3.612,19.287,9.129,26.018,17.094,12.429,14.709,15.474,35.006,17.333,53.524.671,6.68,1.191,13.364,1.671,20.059.093,1.293,1.037,2.4,2.4,2.4,1.227,0,2.493-1.1,2.4-2.4-1.138-15.87-2.114-32.024-6.073-47.486-2.46-9.608-6.294-19.014-12.322-26.956-6.518-8.586-15.786-14.837-25.633-19.051-6.126-2.621-12.521-4.648-18.883-6.614s-12.933-3.557-19.645-3.68c-3.09-.057-3.09,4.743,0,4.8h0Z"/><path class="g" d="M88.465,113.544c1.682,7.636,4.729,15.044,9.015,21.589,4.609,7.039,10.689,13.64,18.078,17.802,3.738,2.106,7.833,3.539,12.073,4.186,1.28.195,2.581-.323,2.952-1.676.312-1.135-.387-2.756-1.676-2.952-15.279-2.33-26.69-15.755-32.401-29.367-1.469-3.502-2.596-7.151-3.412-10.858-.664-3.015-5.293-1.739-4.629,1.276h0Z"/><path class="g" d="M190.614,112.268c-1.444,6.556-3.894,12.847-7.369,18.596-3.719,6.152-8.622,11.992-14.736,15.88-3.082,1.96-6.409,3.385-9.873,4.513-2.925.952-1.673,5.589,1.276,4.629,6.916-2.252,13.124-5.714,18.307-10.862,5.917-5.878,10.464-13.005,13.641-20.692,1.442-3.489,2.571-7.101,3.383-10.788.663-3.01-3.963-4.296-4.629-1.276h0Z"/><path class="f" d="M133.759,128.75c1.241-.655,3.689-1.981,8.617-1.981s7.431,1.391,8.502,2.239"/><path class="g" d="M141.421,105.431c.441,1.68.863,3.386,1.116,5.105l-.086-.638c.03.236.043.468.019.705l.086-.638c-.017.11-.041.212-.078.317l.242-.573c-.033.074-.067.137-.112.204l.375-.486c-.052.064-.102.113-.167.164l.486-.375c-.129.083-.265.15-.404.214l.573-.242c-.223.093-.443.161-.682.199l.638-.086c-.215.026-.425.024-.64-.001l.638.086c-.241-.034-.478-.092-.719-.125-.67-.09-1.239-.115-1.849.242-.498.291-.973.862-1.103,1.434-.14.614-.11,1.304.242,1.849.312.484.835,1.022,1.434,1.103.53.071,1.044.207,1.582.23.816.036,1.577-.212,2.307-.545.897-.409,1.595-1.203,1.834-2.17.202-.817.114-1.544-.024-2.362-.278-1.645-.658-3.275-1.081-4.888-.318-1.214-1.729-2.072-2.952-1.676-1.25.404-2.018,1.651-1.676,2.952h0Z"/><path class="g" d="M114.217,91.031c-.853,2.771-.297,9.144,4.952,9.686,6.937-.042,7.306-7.747,4.971-11.37-1.912-2.966-7.534-4.2-9.923,1.684Z"/><path class="g" d="M169.77,91.032c.853,2.771.297,9.144-4.951,9.686-6.937-.042-7.307-7.747-4.972-11.37,1.912-2.966,7.534-4.2,9.923,1.684Z"/><path class="g" d="M92.207,84.421c-3.322-3.016-8.196-3.655-12.243-1.726-3.008,1.434-4.737,4.398-5.495,7.538-1.782,7.373.087,15.763,4.309,22.011,3.056,4.522,7.478,7.87,13.169,7.083,1.285-.178,1.987-1.82,1.676-2.952-.38-1.384-1.663-1.855-2.952-1.676-3.212.444-5.987-2.318-7.642-4.72-1.567-2.273-2.653-4.829-3.482-7.453-.895-2.833-1.094-5.873-.822-8.821.123-1.326.395-2.725.913-3.958.186-.441.433-.854.688-1.258.086-.136.353-.452.103-.156.172-.204.355-.395.545-.581.302-.295.79-.659,1.412-.912.587-.238,1.251-.376,1.882-.429,1.657-.139,3.296.271,4.544,1.404,2.283,2.072,5.687-1.312,3.394-3.394h0Z"/><path class="g" d="M195.175,87.815c1.974-1.792,5.251-1.915,7.431-.409.219.152.467.405.81.762.318.33-.097-.182.139.166.132.194.26.39.377.593.665,1.151.99,2.488,1.206,3.79.918,5.534-.599,11.402-3.468,16.157-1.683,2.79-4.676,6.334-8.354,5.825-1.282-.177-2.577.311-2.952,1.676-.308,1.121.384,2.774,1.676,2.952,9.291,1.285,14.728-8.029,17.076-15.678,1.181-3.846,1.315-8.077.679-12.031-.523-3.248-1.893-6.362-4.658-8.28-4.032-2.797-9.808-2.14-13.357,1.083-2.292,2.081,1.11,5.467,3.394,3.394h0Z"/><path class="f" d="M99.499,172.896c9.306,7.277,25.567,13.051,42.495,13.1,16.928-.05,33.189-5.824,42.495-13.1"/><path class="g" d="M163.919,81.962c1.368-.564,2.799-.949,4.265-1.149l-.638.086c.358-.047.717-.083,1.077-.109.642-.046,1.231-.237,1.697-.703.416-.416.73-1.099.703-1.697-.028-.621-.232-1.264-.703-1.697-.45-.413-1.065-.748-1.697-.703-2.052.147-4.076.559-5.981,1.344-.312.074-.584.217-.816.43-.261.169-.467.394-.618.673-.301.514-.429,1.273-.242,1.849.188.581.548,1.141,1.103,1.434.531.28,1.267.482,1.849.242h0Z"/><path class="d" d="M154.295,236.313c.568-1.349,1.164-2.803,1.778-4.333-.147-1.048-.236-1.686-.236-1.686-2.721-18.197-5.601-37.208-5.583-38.215.035-1.961.654-3.887,1.272-5.76.495-1.519.866-2.915,1.201-4.258,0,0,.192-.77.533-2.133-1.102-1.139-2.198-2.286-3.241-3.431-1.517-1.665-2.729-2.882-3.616-3.754-3.398.006-5.924.013-9.12.019-.886.873-2.09,2.083-3.595,3.735-.806.885-1.644,1.771-2.491,2.653.596,3.091,1.015,5.045,1.672,7.857.106.495.23.972.353,1.466.265,1.06.53,2.155.53,3.251,0,.618-2.967,22.285-5.123,39.953,0,0-.003.045-.008.131-.037.576-.192,2.982-.367,5.689,3.469,7.977,7.028,15.771,10.455,23.478h3.78c4.009-7.475,7.818-15.193,11.806-24.664Z"/><path class="g" d="M134.503,193.976c5.089-.002,10.177-.112,15.265-.114,1.255,0,2.458-1.104,2.4-2.4s-1.055-2.401-2.4-2.4c-5.089.002-10.177.112-15.265.114-1.255,0-2.458,1.104-2.4,2.4s1.055,2.401,2.4,2.4h0Z"/><path class="g" d="M128.886,181.021c.484,2.444,1.017,4.876,1.578,7.304.356,1.541.977,3.165.872,4.764-.109,1.656-.413,3.319-.628,4.964-1.008,7.719-2.032,15.435-3.026,23.156-.674,5.24-1.337,10.481-1.978,15.725-.157,1.289,1.216,2.4,2.4,2.4,1.428,0,2.242-1.107,2.4-2.4,1.119-9.161,2.304-18.314,3.504-27.464.706-5.389,1.667-10.809,2.111-16.228.143-1.742-.376-3.507-.789-5.183-.679-2.753-1.265-5.532-1.815-8.314-.252-1.272-1.768-2.002-2.952-1.676-1.327.365-1.929,1.676-1.676,2.952h0Z"/><path class="g" d="M158.304,230.982c-1.214-8.119-2.437-16.237-3.642-24.357-.453-3.052-.904-6.104-1.342-9.159-.149-1.04-.295-2.079-.439-3.12-.068-.494.003.026-.011-.076-.024-.18-.048-.361-.071-.541-.035-.276-.072-.553-.101-.83-.109-1.062.092-2.097.355-3.126.608-2.378,1.455-4.688,2.055-7.072.755-2.996-3.873-4.275-4.629-1.276-.524,2.083-1.197,4.108-1.803,6.166-.46,1.561-.891,3.292-.816,4.931.072,1.569.395,3.152.614,4.705.947,6.72,1.966,13.431,2.97,20.143.743,4.963,1.487,9.926,2.23,14.889.192,1.283,1.81,1.99,2.952,1.676,1.374-.377,1.869-1.665,1.676-2.952h0Z"/><path class="g" d="M79.032,252.892c3.042-.183,6.078-.447,9.106-.793.657-.075,1.212-.218,1.697-.703.416-.416.73-1.099.703-1.697-.053-1.178-1.064-2.552-2.4-2.4-3.028.345-6.064.609-9.106.793-1.251.075-2.46,1.05-2.4,2.4.055,1.236,1.058,2.481,2.4,2.4h0Z"/><path class="e" d="M95.473,227.278c-1.634-3.68-3.12-6.936-3.723-8.007-1.522,6.208-4.333,22.703-3.263,30.354.88,6.285,3.263,18.391,7.457,25.382l1.463,2.833-9.671,3.755-1.379-3.135c-4.829-7.54-7.371-19.231-7.989-28.424-.636-9.456,1.448-28.845,7.167-43.078,1.525-8.641,3.229-16.169,4.506-23.46,2.712-15.485,12.768-25.719,19.21-26.218-.869,1.362-1.634,2.818-2.527,4.541.564,1.226,1.128,2.414,1.696,3.57-1.324,1.548-2.48,2.884-2.48,2.884-4.914,10.506-8.174,30.924-7.665,39.692,5.839,17.157,18.877,33.325,20.974,52.435.616,5.611-1.204,10.954-4.272,15.692-2.848,4.396-7.224,6.758-11.885,8.933-2.037.951-4.462,1.911-6.418,3.019-1.474.835-2.801,2.02-4.453,2.396-3.624.826-6.386-2.692-6.837-5.925-.345-2.478.169-4.999,2.838-6.312,3.605-1.774,7.147-.627,10.986-2.655,3.597-1.9,6.486-2.721,8.273-9.089,2.366-8.432-3.214-18.816-6.467-26.451-.974-2.286-3.385-7.879-5.54-12.734Z"/><path class="h" d="M111.683,288.564c-.138-1.645-1.197-3.526-2.647-4.093l-2.469-1.167c-1.126.607-2.292,1.172-3.476,1.724-1.5.7-3.211,1.406-4.79,2.171.665,1.435,1.309,2.913,2.306,4.147.912,1.128,2.167,2.049,3.603,2.26.905.133,1.829-.02,2.714-.253,1.847-.485,3.737-1.452,4.531-3.189.209-.457.276-1.013.227-1.6Z"/><path class="h" d="M85.297,283.599c-.099-2.164.585-4.242,2.924-5.393,2.061-1.014,4.101-1.074,6.188-1.317,1.621,3.428,2.501,7.205,2.565,10.998-.103.05-.202.105-.3.16-1.474.835-2.801,2.02-4.453,2.396-3.624.826-6.386-2.692-6.837-5.925-.043-.306-.072-.613-.086-.919Z"/><path class="g" d="M106.327,155.494c-6.685,2.538-11.564,8.917-14.607,15.149-2.096,4.293-3.367,8.773-4.214,13.458-.9,4.981-1.944,9.935-2.916,14.902-.257,1.316-.51,2.632-.756,3.95-.254,1.358-.389,2.783-.89,4.072-.8,2.056-1.503,4.15-2.132,6.264-1.333,4.477-2.346,9.049-3.126,13.653-1.28,7.558-2.222,15.418-1.716,23.095.664,10.074,2.855,20.993,8.316,29.635,1.646,2.605,5.801.199,4.145-2.423-4.537-7.179-6.551-16.064-7.421-24.424-.744-7.15-.212-14.418.819-21.515.639-4.403,1.489-8.778,2.598-13.087.545-2.116,1.153-4.217,1.841-6.291.325-.98.668-1.953,1.032-2.919.452-1.2.711-2.329.943-3.593.92-5.017,1.959-10.01,2.941-15.015.888-4.526,1.513-9.11,3.063-13.474,1.406-3.961,3.466-7.823,6.18-11.048,1.183-1.406,2.489-2.748,3.947-3.871.237-.182,1.09-.763,1.593-1.061.333-.197.674-.378,1.018-.554.131-.067.267-.129.401-.19-.377.17.09-.035.217-.083,1.211-.46,2.043-1.618,1.676-2.952-.319-1.161-1.734-2.139-2.952-1.676h0Z"/><path class="g" d="M98.017,273.796c-2.034-3.442-3.317-7.268-4.384-11.104-1.058-3.803-1.877-7.675-2.508-11.57-.067-.414-.132-.828-.194-1.242-.026-.173-.051-.345-.076-.518-.061-.425.036.319-.012-.084-.086-.72-.136-1.443-.164-2.167-.066-1.717-.015-3.438.084-5.152.222-3.86.692-7.706,1.286-11.525.549-3.527,1.172-7.055,2.016-10.524l-4.387.573c2.626,4.731,4.585,9.924,6.738,14.88,2.743,6.315,5.935,12.594,7.932,19.188,1.201,3.964,1.86,8.086.569,12.109-1.025,3.192-2.593,4.603-5.373,6.027-1.731.887-3.354,1.587-5.31,1.823-2.349.283-4.638.452-6.823,1.439-4.031,1.822-5.331,6.428-4.055,10.463,1.285,4.063,5.048,7.367,9.502,6.346,2.155-.494,3.861-2.045,5.781-3.047,2.135-1.114,4.385-1.993,6.557-3.031,3.796-1.814,7.598-4.001,10.311-7.293,2.974-3.608,5.146-8.215,5.906-12.836.765-4.65-.002-9.337-1.125-13.871-1.104-4.456-2.727-8.755-4.549-12.962-3.565-8.227-8.071-16-11.815-24.142-.856-1.863-1.667-3.745-2.398-5.661-.284-.744-.767-1.782-.87-2.37-.109-.624-.035-1.348-.029-1.979.031-3.234.34-6.468.747-9.674.955-7.522,2.513-15.107,5.003-22.278.506-1.457,1.032-2.819,1.637-4.127.544-1.175.332-2.586-.861-3.284-1.037-.606-2.737-.321-3.284.861-3.05,6.587-4.774,13.78-6.075,20.894-.678,3.706-1.221,7.443-1.588,11.193-.277,2.837-.537,5.756-.341,8.607.138,2.012,1.291,4.157,2.062,6.005.852,2.043,1.756,4.062,2.707,6.06,1.877,3.943,3.905,7.811,5.883,11.704,3.939,7.75,7.726,15.673,9.558,24.225.926,4.32,1.281,8.519-.078,12.79-1.232,3.874-3.437,7.646-6.667,10.175-3.369,2.638-7.46,4.195-11.309,5.97-.985.454-1.967.924-2.897,1.484-.909.547-1.762,1.258-2.735,1.692-1.332.593-2.529.168-3.437-.93-.949-1.147-1.379-2.715-1.25-4.184.131-1.497,1.102-2.329,2.556-2.784,2.088-.653,4.314-.59,6.449-1.017,1.967-.393,3.722-1.323,5.487-2.236,2.889-1.495,5.165-3.54,6.496-6.561,1.813-4.118,2.069-8.386,1.287-12.783-1.308-7.351-4.992-14.169-7.921-20.972-2.328-5.407-4.645-10.828-7.151-16.156-.345-.734-.688-1.473-1.082-2.182-.987-1.779-3.9-1.426-4.387.573-1.734,7.127-2.827,14.523-3.374,21.833-.265,3.543-.301,7.038.221,10.558.573,3.863,1.343,7.704,2.328,11.483,1.228,4.715,2.77,9.498,5.262,13.712,1.571,2.657,5.722.245,4.145-2.423h0Z"/><path class="g" d="M105.76,248.968c.127-.055.254-.109.381-.162l-.573.242c2.249-.943,4.572-1.693,6.947-2.244,1.224-.284,2.064-1.754,1.676-2.952-.414-1.279-1.641-1.98-2.952-1.676-2.72.631-5.339,1.544-7.901,2.648-.513.221-.962.922-1.103,1.434-.158.574-.087,1.339.242,1.849.33.512.822.964,1.434,1.103l.638.086c.433-.001.837-.111,1.211-.328h0Z"/><path class="g" d="M92.604,278.673c.567,1.376,1.027,2.793,1.363,4.242.165.712.292,1.43.408,2.151.085.526-.054-.485.001.005.024.215.05.43.072.645.037.377.065.754.088,1.132.074,1.251,1.051,2.46,2.4,2.4,1.237-.055,2.479-1.058,2.4-2.4-.191-3.242-.864-6.446-2.103-9.451-.249-.603-.517-1.091-1.103-1.434-.514-.301-1.273-.429-1.849-.242-.581.188-1.141.548-1.434,1.103-.28.531-.482,1.267-.242,1.849h0Z"/><path class="g" d="M108.027,286.198c.182.077.344.175.518.267.361.192-.193-.226.071.057.143.153.293.294.428.454-.295-.348.004.025.062.117.117.185.213.379.315.572.211.397-.064-.27.048.127.058.208.131.409.178.62.051.226.048.429.029.086.011.2.009.399.018.598.018.431.114-.341,0,.03-.176.574.205-.225-.048.2-.097.162-.184.327-.29.483.206-.303-.232.244-.294.304-.052.05-.438.376-.172.172-.381.292-.811.521-1.243.726-.128.058-.117.055.032-.008-.12.048-.242.094-.364.138-.213.076-.428.145-.645.207-.239.069-.48.132-.723.186-.149.034-.3.063-.45.09.116-.01.104-.008-.036.004-.266.028-.53.026-.797.022-.264-.021-.303-.023-.117-.005-.097-.018-.193-.04-.287-.067-.076-.02-.665-.241-.351-.099-.209-.095-.41-.21-.604-.332-.084-.052-.167-.107-.248-.164.138.117.116.1-.067-.052-.176-.153-.346-.31-.508-.477-.363-.374-.482-.537-.75-.949-.605-.93-1.071-1.941-1.534-2.946-.452-.981-1.869-1.225-2.736-.718-1.007.589-1.171,1.752-.718,2.736.876,1.901,1.845,3.887,3.495,5.246.857.706,1.784,1.281,2.862,1.588,1.207.344,2.467.27,3.684.028,1.919-.382,3.949-1.239,5.3-2.697,1.411-1.523,1.872-3.379,1.418-5.392-.414-1.835-1.67-3.849-3.459-4.604-.994-.42-2.142-.299-2.736.718-.49.838-.283,2.314.718,2.736h0Z"/><path class="g" d="M103.896,159.497c1.15,14.684,4.14,29.145,8.515,43.198,4.129,13.263,9.417,26.126,15.003,38.832,3.036,6.906,6.164,13.771,9.229,20.663.332.748,1.3,1.189,2.072,1.189h3.777c.821,0,1.678-.451,2.072-1.189,7.358-13.747,13.385-28.032,18.853-42.618,2.302-6.14,4.544-12.302,6.774-18.468,1.923-5.317,3.858-10.603,5.353-16.062,2.193-8.01,3.953-16.181,5.159-24.399.188-1.281-.318-2.579-1.676-2.952-1.13-.31-2.763.386-2.952,1.676-1.061,7.231-2.573,14.411-4.388,21.488-1.474,5.747-3.355,11.317-5.37,16.89-4.426,12.24-8.791,24.524-13.765,36.555-3.595,8.695-7.692,17.174-12.131,25.468l2.072-1.189h-3.777l2.072,1.189c-11.001-24.741-22.587-49.362-28.446-75.951-1.767-8.017-3.004-16.134-3.645-24.32-.101-1.292-1.031-2.4-2.4-2.4-1.22,0-2.502,1.101-2.4,2.4h0Z"/><path class="e" d="M197.583,249.239c.604-1.274,1.045-2.645,1.314-4.052.084-.44.152-.887.203-1.337.603-5.275-1.062-11.091-5.812-13.579,4.417-24.031,2.899-35.831-.083-49.366-2.124-9.641-9.975-23.24-19.25-24.378,1.089,1.58,1.968,3.25,3.028,5.295-.488,1.061-.976,2.094-1.467,3.103,1.034,1.032,1.761,1.759,1.761,1.759,1.65,1.65,4.153,7.395,4.892,10.126,5.19,19.24,5.718,31.52,2.533,52.327-5.707,1.258-8.093,6.712-8.594,8.824-1.348,5.677-.893,13.047,4.229,16.708,1.192.852,2.526,1.389,3.915,1.652,6.4,1.213,11.036-2.24,13.33-7.082Z"/><path class="g" d="M184.891,254.006c-5.986-1.258-7.434-7.424-6.928-12.753.092-.963.261-1.935.514-2.87.069-.254.148-.504.236-.751.051-.144.107-.285.161-.428.134-.358-.216.415.093-.2.874-1.739,1.381-2.479,2.7-3.724,1.089-1.028,2.982-1.869,4.725-1.982,2.306-.149,4.927.308,6.801,1.717,3.674,2.762,4.212,8.348,3.183,12.476-1.338,5.367-5.678,9.537-11.484,8.514-1.275-.225-2.586.343-2.952,1.676-.318,1.159.393,2.726,1.676,2.952,3.528.621,7.122.282,10.23-1.618,2.754-1.683,4.841-4.301,6.112-7.245,2.537-5.877,2.356-13.419-1.79-18.541-4.034-4.984-12.173-6.22-17.659-3.002-3.842,2.253-6.321,6.379-7.04,10.709-.622,3.748-.636,7.772.757,11.361,1.623,4.183,4.917,7.395,9.39,8.336,3.014.633,4.302-3.993,1.276-4.629Z"/><path class="g" d="M186.191,247.582c-.493-.093-.967-.284-1.39-.587-1.819-1.3-1.98-3.917-1.502-5.932.235-.989,1.633-4.041,5.364-3.019,2.419.663,3.153,3.353,2.727,5.585-.458,2.398-2.329,4.497-5.199,3.953Z"/><path class="g" d="M195.709,230.326c2.06-11.431,3.446-23.104,2.349-34.718-.904-9.576-2.692-19.451-7.537-27.876-3.068-5.335-7.258-10.37-13.062-12.769-1.198-.495-2.639.536-2.952,1.676-.379,1.379.473,2.455,1.676,2.952,4.255,1.759,7.504,6.051,9.819,9.926,2.554,4.274,4.214,8.828,5.247,13.684,1.807,8.493,2.695,16.751,2.295,25.55-.31,6.82-1.255,13.586-2.465,20.299-.23,1.274.347,2.587,1.676,2.952,1.163.319,2.721-.394,2.952-1.676h0Z"/><path class="g" d="M175.58,168.38c.382.401.094.047.314.362.182.259.352.526.516.796.471.773.891,1.579,1.286,2.393.698,1.437,1.318,2.913,1.825,4.43,1.342,4.019,2.199,8.292,2.998,12.449,1.508,7.838,2.031,15.776,1.607,23.746-.273,5.122-.881,10.218-1.639,15.288-.192,1.28.321,2.58,1.676,2.952,1.133.311,2.759-.387,2.952-1.676,1.365-9.119,2.336-18.326,1.818-27.555-.242-4.308-.792-8.601-1.563-12.845-.806-4.434-1.74-8.946-3.094-13.248-.609-1.934-1.416-3.825-2.287-5.654-.809-1.698-1.707-3.457-3.016-4.831-2.134-2.242-5.525,1.156-3.394,3.394h0Z"/><path class="g" d="M146.16,170.092h-8.61c-1.255,0-2.458,1.104-2.4,2.4s1.055,2.4,2.4,2.4h8.61c1.255,0,2.458-1.104,2.4-2.4s-1.055-2.4-2.4-2.4h0Z"/><path class="g" d="M142.544,123.829c.227-.005.452.009.678.006.112-.001.511.064-.014-.019.327.052.651.124.968.221.127.039.249.086.375.126.602.194-.402-.233.152.071.318.174.618.373.93.554.321.186-.397-.365.06.045.098.088.197.173.293.263.238.226.46.468.666.723-.312-.387-.042-.035.028.073.09.138.176.278.255.422.064.116.12.235.182.351.217.406-.097-.32.091.256.104.318.161.641.239.965.089.371-.028-.577,0,.031.006.126.016.251.019.378.007.31-.013.616-.04.925.051-.58.026-.163-.015-.011-.054.203-.094.408-.155.609-.035.114-.078.225-.113.338-.163.527.194-.272.003,0-.149.211-.241.476-.378.699-.093.15-.201.29-.295.439.261-.419.145-.174.049-.07-.241.261-.474.52-.741.755-.089.078-.18.153-.272.227.477-.386.005-.023-.091.04-.226.146-.464.267-.698.399-.128.072-.52.211-.002.016-.113.043-.226.087-.34.126-.351.12-.705.196-1.066.276-.582.129.362-.005-.011,0-.158.002-.316.024-.474.028-.325.008-.646-.013-.969-.038.092.007.497.096.045.001-.167-.035-.333-.067-.499-.108s-.328-.086-.489-.14c-.121-.04-.607-.308-.171-.056-.287-.166-.578-.316-.861-.491-.369-.227-.068-.039.009.024-.153-.124-.301-.254-.444-.39-.095-.091-.187-.185-.277-.28-.058-.062-.467-.568-.129-.119-.197-.262-.375-.54-.534-.828-.096-.173-.182-.35-.265-.529.04.087.153.444.021.023-.1-.318-.184-.631-.266-.954-.11-.432-.021-.051-.009.048-.023-.199-.038-.398-.044-.598-.004-.134-.004-.269,0-.403.007-.228.058-.58-.011-.155.064-.39.171-.76.285-1.137.178-.584-.161.273.014-.055.106-.199.199-.404.314-.599.065-.111.134-.22.205-.327.115-.174.355-.44.086-.134.257-.292.516-.575.808-.833.097-.085.196-.169.297-.25-.442.352.127-.067.227-.129.302-.19.617-.356.942-.504-.53.241.06-.008.152-.038.185-.06.373-.114.562-.159.127-.03.255-.052.382-.081.276-.045.257-.044-.057.004.13-.013.261-.022.392-.027,1.251-.069,2.46-1.055,2.4-2.4-.056-1.241-1.057-2.474-2.4-2.4-4.05.222-7.612,2.803-8.953,6.655-1.359,3.903.418,8.292,3.707,10.606,3.035,2.135,7.453,2.102,10.544.099,3.267-2.116,4.905-5.852,4.252-9.683-.766-4.489-5.059-7.785-9.549-7.677-1.254.03-2.459,1.082-2.4,2.4.057,1.275,1.055,2.432,2.4,2.4Z"/><path class="e" d="M160.6,187.762c7.282-8.647,11.833-16.042,16.384-25.941-2.032-3.919-3.398-6.46-6.855-9.638-3.953,5.314-12.979,11.951-23.797,16.303-.914.368-1.948.9-2.103,1.189-.259.482.245.906.482,1.285.372.595,2.2,2.124,5.309,5.537,3.528,3.872,7.661,7.775,10.581,11.264Z"/><path class="e" d="M123.107,187.762c-7.282-8.647-11.833-16.042-16.384-25.941,2.032-3.919,3.398-6.46,6.855-9.638,3.953,5.314,12.979,11.951,23.797,16.303.914.368,1.948.9,2.103,1.189.259.482-.245.906-.482,1.285-.372.595-2.2,2.124-5.309,5.537-3.528,3.872-7.661,7.775-10.581,11.264Z"/><path class="g" d="M162.297,189.459c5.021-5.981,9.525-12.338,13.207-19.233.918-1.719,1.791-3.461,2.628-5.22.456-.958,1.251-2.114,1.251-3.185,0-1.032-.772-2.077-1.242-2.955-1.679-3.136-3.706-5.949-6.316-8.379-1.234-1.149-2.827-.764-3.769.486-1.607,2.131-4.256,4.512-6.61,6.304-3.313,2.522-6.907,4.689-10.623,6.56-2.063,1.038-4.203,1.871-6.296,2.835-2.184,1.006-3.629,2.979-2.055,5.269,1.595,2.322,3.953,4.189,5.851,6.256,3.483,3.793,7.258,7.326,10.581,11.264.836.991,2.532.862,3.394,0,.982-.982.839-2.4,0-3.394-3.081-3.651-6.565-6.938-9.816-10.434-1.431-1.539-2.856-3.077-4.348-4.558-.412-.409-.823-.819-1.233-1.231-.085-.086-.512-.556-.199-.19.36.422-.252-.422-.232-.333v1.276l.072-.282-.617,1.059c-.231.271.282-.191.455-.283.26-.139.53-.257.8-.375.811-.353,1.636-.677,2.447-1.032,1.355-.594,2.693-1.228,4.01-1.901,2.667-1.363,5.256-2.882,7.732-4.568,4.044-2.754,7.874-5.895,10.832-9.819l-3.769.486c2.855,2.658,4.697,5.716,6.48,9.152v-2.423c-4.244,9.2-9.49,17.69-16.008,25.455-.833.992-.973,2.421,0,3.394.856.856,2.557.997,3.394,0Z"/><path class="g" d="M124.804,186.065c-6.519-7.765-11.764-16.255-16.008-25.455v2.423c1.783-3.435,3.625-6.494,6.48-9.152l-3.769-.486c2.958,3.924,6.788,7.065,10.832,9.819,2.416,1.645,4.939,3.131,7.538,4.468,1.38.71,2.783,1.377,4.204,2.001.742.325,1.49.634,2.237.947.348.146.676.283,1.01.46.159.084.73.605.455.283l-.617-1.059.072.282v-1.276c.011-.047-.265.365-.357.497.288-.412.256-.307-.017-.032-.396.398-.791.796-1.19,1.191-1.526,1.512-2.983,3.083-4.446,4.655-3.252,3.495-6.735,6.782-9.816,10.434-.835.99-.971,2.423,0,3.394.858.858,2.554.995,3.394,0,2.886-3.419,6.127-6.518,9.194-9.77,1.481-1.57,2.923-3.173,4.448-4.702.718-.72,1.494-1.405,2.147-2.187,1.424-1.705,1.992-3.946-.123-5.415-1.771-1.23-4.052-1.851-5.999-2.775-3.78-1.793-7.424-3.894-10.832-6.323-2.87-2.046-6.036-4.727-7.988-7.316-.942-1.25-2.536-1.634-3.769-.486-2.61,2.43-4.638,5.244-6.316,8.379-.462.864-1.242,1.946-1.242,2.955,0,1.054.8,2.239,1.251,3.185.838,1.759,1.711,3.501,2.628,5.22,3.682,6.895,8.186,13.252,13.207,19.233.834.993,2.534.86,3.394,0,.984-.984.836-2.398,0-3.394Z"/><path class="f" d="M200.024,250.155c-.689-10.402-1.244-20.794-1.425-31.17"/><path class="e" d="M96.352,214.875c3.545-5.448,7.126-9.655,11.761-14.211,4.097-4.027,8.98-7.867,15.538-6.117.8.213,1.545.63,2.133,1.212,4.964,4.918,1.485,10.072-1.458,14.322-6.625,9.566-11.675,20.22-14.884,31.405-6.253,14.636-13.468,21.574-21.541,27.418-11.984,8.675-29.883,9.589-43.679,4.247-8.51-3.295-16.097-9.731-22.011-23.481-7.108-17.044-12.197-37.104-18.263-55.303-1.356-4.067-3.064-10.971,2.98-13.637,5.482-2.418,9.268.796,10.603,3.66,2.213,4.746,6.437,14.424,8.723,19.497.283.628.962.97,1.637.832h0c.808-.165,1.321-.97,1.141-1.775-3.29-14.735-5.474-25.791-8.311-39.998-.995-4.981.382-12.127,7.103-13.056,5.623-.777,10.038,2.016,12.024,9.288,2.699,9.884,6.731,28.614,8.883,40.056l.181-.023c-2.172-17.406-4.082-34.112-5.687-50.223-.524-5.265,1.197-12.066,9.128-12.822,5.811-.553,9.92,2.793,11.231,10.535,1.782,10.524,4.173,39.35,5.24,51.431l.978,1.415c-.855-17.522-1.225-28.548-1.606-44.737-.125-5.291,3.01-12.755,10.074-12.499,5.91.214,10.27,3.851,10.667,11.694.718,14.206,1.188,39.559,1.338,51.687v-.043c-.061,4.008,3.168,9.8,7.276,10.073"/><path class="g" d="M98.597,216.187c4.067-6.115,9.122-12.789,15.22-17.042,1.352-.943,2.873-1.802,4.492-2.177,3.197-.74,6.731.449,7.372,4.196.531,3.103-3.485,7.376-5.062,9.778-3.962,6.032-7.266,12.453-9.979,19.137-2.816,6.937-4.732,13.939-8.702,20.372-6.208,10.058-15.995,18.815-27.579,21.895-11.86,3.154-26.61,1.797-36.689-5.705-11.498-8.558-15.747-23.991-19.975-36.98-2.478-7.613-4.75-15.291-7.101-22.944-1.771-5.764-5.257-12.473-5.349-18.585-.072-4.76,5.687-7.613,9.082-3.853,1.664,1.843,2.495,4.787,3.498,7.027,1.204,2.69,2.395,5.386,3.589,8.08.939,2.117,1.746,5.58,3.668,7.044,2.701,2.056,6.339.178,6.498-3.139.142-2.956-1.238-6.413-1.863-9.311-.856-3.97-1.691-7.944-2.509-11.922-.807-3.923-1.597-7.849-2.383-11.776-.713-3.562-1.997-7.411-1.772-11.069.249-4.044,2.76-7.17,7.096-6.833,4.171.324,6.071,3.907,7.184,7.491,4.027,12.968,6.357,26.733,8.883,40.056.189.999,1.456,2.04,2.507,1.909l.181-.023c1.256-.157,2.79-1.071,2.6-2.6-1.857-14.927-3.601-29.867-5.141-44.83-.494-4.801-2.136-11.996,3.215-14.771,6.659-3.454,10.511,2.385,11.552,8.156,1.67,9.262,2.253,18.811,3.119,28.172.472,5.098.921,10.199,1.365,15.299.289,3.316.004,6.829,1.935,9.623,1.361,1.97,4.979,1.455,4.845-1.312-.558-11.523-1.029-23.049-1.348-34.581-.142-5.115-1.393-11.494,1.151-16.207,2.618-4.85,9.311-5.055,12.426-.569,2.632,3.791,1.908,9.965,2.068,14.401.181,5.022.323,10.045.448,15.069.233,9.343.409,18.688.528,28.033.042,3.348,5.131,3.349,5.2,0v-.043h-5.199c.301,5.432,3.405,11.496,9.183,12.58,3.271.614,4.673-4.397,1.382-5.014-3.427-.643-5.187-4.336-5.366-7.566-.184-3.323-5.13-3.37-5.2,0v.043h5.199c-.152-12.041-.389-24.082-.748-36.118-.274-9.175,1.916-24.236-8.504-28.723-9.823-4.229-17.681,3.896-18.019,13.451-.53,14.968.875,30.293,1.599,45.244l4.845-1.312c-2.09-3.025-1.517-10.372-1.866-14.292-.559-6.292-1.135-12.583-1.771-18.868-.563-5.563-1.136-11.134-1.947-16.668-.688-4.695-1.874-9.675-5.886-12.662-8.932-6.652-19.838,1.265-20.036,11.212-.157,7.852,1.525,16.067,2.4,23.875,1.061,9.467,2.194,18.926,3.37,28.38l2.6-2.6-.181.023,2.507,1.909c-1.499-7.906-3.148-15.783-4.907-23.635-1.49-6.647-2.415-14.382-5.535-20.498-5.71-11.193-21.904-8.527-22.908,4.249-.275,3.505.727,6.988,1.407,10.392.903,4.52,1.808,9.04,2.734,13.555.933,4.551,1.887,9.098,2.871,13.639.201.927.354,2.694.791,3.625l.411,1.863,1.947-.162c.211-1.045-1.996-4.487-2.435-5.478-2.336-5.269-4.381-13.843-9.5-17.171-4.802-3.122-12.155-1.489-14.901,3.653-2.946,5.516.203,12.296,1.912,17.646,3.087,9.664,5.895,19.416,8.997,29.076,4.778,14.877,9.626,32.21,22.928,41.834,11.674,8.446,28.621,9.916,42.158,5.813,13.248-4.015,24.136-14.609,30.768-26.509,5.079-9.114,7.291-19.39,12.231-28.621,2.39-4.467,5.352-8.506,7.971-12.821,1.782-2.937,3.278-6.364,2.475-9.871-1.882-8.223-11.29-8.992-17.629-5.588-7.847,4.213-14.083,12.765-18.914,20.029-1.858,2.794,2.643,5.401,4.49,2.625h0Z"/></g></svg>
