<svg id="b" xmlns="http://www.w3.org/2000/svg" width="355.096" height="425.1" viewBox="0 0 355.096 425.1" style="color: initial !important;"><defs><style>.h{fill:#ffffff;}.i{fill:#f4b3b3;}.j{fill:#211715;}.k{fill:#645d5c;}</style></defs><g id="c"><g id="d"><path class="h" d="M245.012,222.25c.155-.681.285-1.382.391-2.106.339-2.27-1.016-4.21-1.978-4.8l-8.858-11.477s-.132-.171-.263-.341c-2.932.916-5.804,2.026-8.59,3.318l-5.616-3.548c-1.869,2.223-8.975,10.672-11.506,13.682,2.921,2.289,6.087,4.778,6.087,4.778.842.78,1.161,1.088,1.992,1.868,1.246,1.48,5.814,6.69,9.159,9.3,1.465,1.18,2.973,2.38,4.765,3,1.803.62,4.503,1.01,5.935-.2.623-.52,1.967-2.05,2.514-2.64.623-.65,1.191-1.31,1.705-1.97.273-.34.536-.68.776-1.02,1.708-2.412,2.828-4.949,3.488-7.844Z"/><path class="k" d="M283.748,218.206c-15.6,4.682-31.376,8.809-41.78,11.249,0,0-2.086.489-4.172.978l-.709,5.25c-1.481,10.963-3.852,47.407-4.741,57.852,0,0-6.307,67.24-7.297,89.38-.02.47.29.89.75,1,4.87,1.18,17.86,2.61,25.59,2.95.5.02.94-.33,1.02-.83,4.8-27.29,9.53-55.61,12.46-78.56,1.95-15.33,7.88-48.6,8.74-52.52.29-1.33.68-2.03,1.29-3.25.42-.849.94-1.713,1.55-2.553.481,1.779.783,2.916.783,2.916,1.77,6.67,10.24,34.36,14.23,57.78,3.44,20.78,10.7,65.69,12.32,76.88.07.5.51.87,1.01.85,6.97-.24,18.43-1.54,25.18-2.96.48-.1.81-.52.79-1.01-.95-25.93-6.54-68.15-8.33-91.75-2.51-33.127-5.569-57.866-9.509-83.364-8.571,3.261-18.834,6.608-29.175,9.712Z"/><path class="h" d="M195.1,2.455c-2.411.483-5.603,1.683-5.621,5.181-.139,1.767,1.998,3.153,3.31,3.844,2.053,1.08,4.885,1.545,7.074,2.189,3.149.927,5.391,1.941,7.842,3.485.7.441.397,1.526-.431,1.541-.424.007-.858.023-1.345.063-1.333.111-2.754.933-3.146,2.155-.292.911.22,2,.986,2.667s1.735.998,2.678,1.286c3.263.996,7.445,2.06,11.307,2.144,1.985.043,3.874.919,5.25,2.35.843.877,1.341,1.68,2.518,3.065l.54.636c2.783-2.071,6.265-4.658,9.429-6.84l-3.328-4.859c-1.777-2.522-2.778-3.853-4.928-5.752-2.885-3.08-7.574-7.284-9.712-8.305-4.347-2.075-8.785-4.105-13.42-4.904-2.582-.445-5.195-.498-7.725-.156-.378.051-.814.117-1.279.211Z"/><path class="h" d="M313.63,208.226c-2.938-18.642-8.425-42.024-11.489-53.182-4.895-17.83-13.714-41.792-18.748-53.347-12.553-30.879-30.719-63.133-43.24-77.535-.322-.37-.86-.449-1.275-.188-4.823,3.033-11.736,8.307-15.48,11.065-.425.313-.533.892-.247,1.337,2.197,3.419,6.391,9.293,10.215,15.248,5.481,8.534,9.618,17.964,12.395,27.719,2.777,9.754,4.513,20.434.876,29.902-4.058,10.924-7.512,15.386-18.652,18.159-4.968,1.236-13.372-.171-18.371-1.229-1.961.852-3.555,1.822-4.831,2.983-7.111,6.469-11.778,12.876-17.111,23.913-2.444,4.63-7.667,18.778-9.365,25.155-.725,2.722-1.529,5.543-.989,8.307.553,2.834,3.107,6.72,4.947,8.945,8.965,10.842,16.395,16.516,24.028,22.707.424.344,1.045.286,1.396-.131l12.864-15.297c.343-.408.302-1.012-.088-1.374-5.878-5.456-11.197-11.051-17.674-17.589-.892-.901-1.729-1.992-1.822-3.256-.081-1.108.462-2.155.989-3.133,2.619-4.857,7.651-12.921,10.27-17.778,5.442,6.173,12.861,15.711,17.999,21.929,2.246,2.718,3.19,4.201,4.504,6.088.905,1.3,1.159,3.774,1.126,5.316-.039,1.795-.069,5.451-.09,8.587-.052,8.225-.088,19.018-.285,24.681l-.164,4.718c.14-.03.281-.059.281-.059,14.488-3.045,53.333-13.185,77.852-22.593"/><path class="h" d="M332.753,419.819c-1.267-.641-2.5-1.341-3.684-2.063-3.24-1.975-6.259-3.787-10.124-6.081-5.081-3.017-10.045-4.132-9.741-10.788.239-5.237,1.519-8.546-.051-13.551,5.797-.423,12.928-1.272,18.297-2.231.599,4.544,2.968,7.394,6.218,10.443,4.262,3.998,8.524,7.996,12.786,11.993,2.833,2.658,7.828,6.367,6.468,10.959-.293.988-.705,2.109-1.614,2.65-5.784,3.445-12.545,1.713-18.555-1.33Z"/><path class="h" d="M226.491,419.26c-6.268,3.377-13.494,5.54-19.624,1.889-.908-.541-1.321-1.662-1.614-2.65-1.36-4.592,3.635-8.301,6.468-10.959,4.262-3.998,8.524-7.996,12.786-11.993,3.323-3.117,5.724-6.025,6.27-10.742l.013-.11c5.134.81,12.598,1.611,18.457,1.999-1.903,5.373-.524,8.737-.275,14.192.304,6.656-4.66,7.771-9.741,10.788-3.864,2.294-6.883,4.106-10.124,6.081-.848.517-1.722,1.023-2.615,1.504Z"/><path class="j" d="M247.445,385.784c-1.324,3.666-1.278,7.247-.836,11.06.318,2.748,1.117,6.304-.996,8.552-1.815,1.931-4.531,2.917-6.795,4.205-3.436,1.956-6.805,4.045-10.183,6.1-3.301,2.009-6.725,3.856-10.499,4.799-1.74.435-3.507.636-5.299.505-1.533-.112-3.873-.536-5.025-1.646-.836-.805-.93-2.488-.613-3.528.419-1.374,1.399-2.527,2.378-3.545,2.465-2.567,5.227-4.894,7.823-7.329,3.469-3.254,7.151-6.381,10.399-9.857,2.763-2.956,4.464-6.269,4.98-10.295.138-1.073-1.018-2-2-2-1.195,0-1.862.924-2,2-.452,3.528-2.508,6.251-4.987,8.662-3.37,3.278-6.857,6.444-10.286,9.661-2.669,2.504-5.721,4.875-8.002,7.753-2.333,2.943-3.261,6.468-1.481,9.961.969,1.901,3.02,2.803,4.954,3.442s4.04.857,6.062.728c4.143-.264,8.088-1.755,11.747-3.647,3.773-1.951,7.346-4.324,10.993-6.499,2.917-1.739,6.16-3.157,8.907-5.153,3.215-2.336,4.499-5.581,4.249-9.513-.14-2.206-.517-4.39-.642-6.596-.133-2.358.209-4.536,1.012-6.758.876-2.425-2.988-3.47-3.857-1.063h0Z"/><path class="j" d="M325.509,385.626c1.117,7.601,7.9,12.419,13.136,17.333,2.818,2.644,5.647,5.274,8.485,7.896,1.739,1.607,4.405,3.944,3.981,6.608-.088.553-.285,1.393-.68,1.829-.513.566-1.575.895-2.293,1.133-1.693.56-3.427.706-5.2.573-3.694-.277-7.261-1.836-10.474-3.59-3.352-1.829-6.571-3.923-9.85-5.88-2.717-1.622-5.605-3.003-8.27-4.702-1.073-.684-2.088-1.516-2.64-2.691-.707-1.505-.526-3.249-.391-4.853.36-4.281,1.035-8.261-.236-12.479-.741-2.458-4.603-1.411-3.857,1.063,1.199,3.981.356,7.82.058,11.862-.248,3.364.346,6.614,2.946,8.971,2.361,2.14,5.427,3.345,8.141,4.955,3.605,2.138,7.159,4.368,10.781,6.476,6.663,3.877,16.156,7.48,23.315,2.642,3.174-2.145,3.21-6.905,1.544-9.962-1.612-2.957-4.43-5.084-6.844-7.346-3.91-3.664-7.819-7.33-11.723-11-3.016-2.835-5.45-5.68-6.071-9.901-.157-1.07-1.511-1.658-2.46-1.397-1.147.315-1.555,1.387-1.397,2.46h0Z"/><path class="h" d="M228.765,60.586c-.091.133-.174.274-.247.422,0,0-16.681-26.94-41.274-10.348-25.204,17.005-5.035,42.804-5.035,42.804-1.121-.173-2.219.214-3.004.776-1.708,1.224-1.851,2.619-1.818,3.361.097,2.214,2.076,5.092,3.916,6.463,1.303.97,3.346,2.422,6.07,2.623,1.201.089,2.652-.314,3.579-1.313,5.317,3.872,8.062,4.916,14.356,6.289,2.073.452,6.05.268,8.979-.617.25.56.488,1.143.738,1.762.79,2.02,1.4,5.2.63,7.2-.81,2.1-2.59,4.61-5.68,6.29,0,0,12.824,15.621,31.046,3.621,18.222-12,7.382-26.297,7.382-26.297-2.368.289-5.525.558-7.411.558-2.74,0-4.231-.909-5.502-2.408-1.29-1.52-2.47-3.114-3.506-4.812,4.369-6.188,4.496-14.795,1.512-21.998,1.504-.339,2.262-1.371,2.844-2.341,1.399-2.345,1.421-4.64,1.374-6.263-.064-2.297-1.283-5.568-3.038-6.921-.587-.452-1.814-1.136-3.796-.44-.778.273-1.584.807-2.116,1.589Z"/><path class="k" d="M214.909,41.075c-2.624-1.304-5.297-2.057-7.978-2.484l-6.732-.04c-5.667-.014-10.719,1.185-16.565,4.941-6.132,3.939-10.165,9.111-12.365,14.85-2.554,6.663-3.965,16.516,2.182,27.047,1.624,2.783,4.044,5.673,7.001,8.231.547-.178,1.149-.248,1.757-.155l.129.02c.643-3.878,1.289-7.756,1.289-7.756.763-4.577,2.587-11.906,4.746-15.664.253-.441.913-.481,1.47.056.539.519.834.985,1.066,1.457.352.716,1.311.79,1.668.133,1.496-2.755,3.973-7.961,6.112-11.05,3.111-4.518,8.55-3.261,10.925-2.916,3.111.452,6.247,1.328,9.059,2.753,2.772,1.404,6.887,2.388,9.845.512.34-.685.884-1.216,1.482-1.586-1.497-4.504-1.836-5.313-3.96-8.328-3.522-4.999-7.274-8.103-11.131-10.019Z"/><path class="j" d="M248.566,109.775c3.852-10.267,1.871-21.61-1.125-31.825-3.038-10.359-7.618-20.135-13.53-29.158-1.682-2.567-3.41-5.105-5.141-7.64-.739-1.083-1.479-2.165-2.213-3.251-.608-.901-1.36-1.82-1.804-2.814l.273,1.009c-.5.542-.561.657-.181.347.115-.085.23-.17.345-.256.285-.211.57-.423.855-.635.538-.4,1.075-.8,1.612-1.2,1.358-1.01,2.718-2.018,4.086-3.016s2.747-1.99,4.139-2.96c.662-.461,1.327-.918,1.997-1.367.293-.197.587-.392.883-.585.19-.124.38-.248.571-.37.372-.164.376-.226.012-.185l-.883-.514c1.485,1.193,2.672,3.072,3.824,4.582,1.388,1.82,2.725,3.677,4.028,5.558,3.053,4.407,5.922,8.943,8.676,13.542,6.384,10.663,12.18,21.684,17.513,32.908,3.172,6.678,6.173,13.437,8.962,20.284.407,1,1.331,1.707,2.46,1.397.947-.26,1.807-1.454,1.397-2.46-5.284-12.974-11.241-25.676-17.814-38.048-5.684-10.699-11.782-21.249-18.791-31.142-1.409-1.988-2.864-3.944-4.372-5.858-1.344-1.707-3.101-4.84-5.67-4.203-1.198.297-2.413,1.367-3.419,2.05-1.272.864-2.529,1.752-3.778,2.649-2.33,1.674-4.632,3.387-6.934,5.1-.904.673-2.01,1.298-2.777,2.129-1.226,1.327-.742,2.944.133,4.277,1.679,2.557,3.431,5.067,5.149,7.598,3.996,5.887,7.829,11.831,10.867,18.28,3.299,7.001,5.832,14.433,7.46,22.002,1.618,7.52,2.076,15.398-.669,22.714-.379,1.012.422,2.192,1.397,2.46,1.121.308,2.079-.382,2.46-1.397h0Z"/><path class="j" d="M281.666,102.706c5.547,12.758,10.19,25.977,14.446,39.214,4.249,13.216,7.561,26.677,10.506,40.237,1.916,8.822,3.672,17.684,5.084,26.601.169,1.068,1.502,1.66,2.46,1.397,1.138-.313,1.566-1.389,1.397-2.46-2.419-15.287-5.723-30.461-9.479-45.473-3.496-13.974-7.99-27.666-12.941-41.188-2.506-6.844-5.113-13.661-8.019-20.347-.431-.991-1.883-1.217-2.736-.718-1.023.598-1.15,1.742-.718,2.736h0Z"/><path class="j" d="M310.993,209.019c3.726,24.138,6.601,48.38,8.633,72.719.897,10.747,1.767,21.485,2.878,32.213,1.183,11.428,2.437,22.85,3.562,34.284.62,6.307,1.205,12.619,1.699,18.937.228,2.912.436,5.826.614,8.742.08,1.314.154,2.629.219,3.943.032.633.061,1.267.089,1.901.023.535.188,1.427.015,1.856l.514-.883c.097-.124.329-.065-.068.018-.251.053-.503.102-.755.151-.479.093-.958.183-1.438.269-.982.176-1.967.338-2.953.491-2.238.347-4.484.642-6.734.902s-4.487.483-6.735.666c-1.936.157-4.096.534-6.031.316l1.009.273c.416.182.143.588.163.127.005-.124-.04-.275-.058-.397-.035-.238-.07-.476-.106-.714-.089-.597-.179-1.195-.269-1.792-.223-1.473-.45-2.945-.679-4.417-.596-3.844-1.203-7.686-1.813-11.528-1.503-9.474-3.028-18.944-4.561-28.413-1.43-8.833-2.868-17.664-4.323-26.493-1.883-11.419-4.44-22.698-7.336-33.9-2.316-8.959-4.989-17.816-7.369-26.755-.662-2.485-4.521-1.431-3.857,1.063,2.381,8.939,5.054,17.796,7.369,26.755,3.095,11.973,5.711,24.019,7.718,36.222,3.317,20.169,6.593,40.346,9.757,60.539.518,3.308,1.036,6.617,1.527,9.929.099.668.137,1.368.464,1.975.883,1.637,2.61,1.573,4.212,1.491,2.926-.149,5.848-.404,8.761-.71,3.266-.343,6.526-.755,9.772-1.254,1.265-.195,2.528-.404,3.786-.638,1.559-.29,3.284-.506,3.889-2.23.413-1.176.143-2.635.086-3.864-.061-1.299-.13-2.598-.206-3.897-.165-2.829-.361-5.657-.576-8.483-1.831-24.03-4.976-47.935-7.053-71.941-1.189-13.74-2.222-27.484-3.702-41.199-1.379-12.771-3.018-25.512-4.883-38.22-.446-3.041-.905-6.08-1.374-9.117-.165-1.068-1.505-1.659-2.46-1.397-1.141.313-1.562,1.389-1.397,2.46h0Z"/><path class="j" d="M211.466,128.578c3.709.688,7.486,1.252,11.265,1.303,3.355.045,6.539-.592,9.694-1.704,5.02-1.77,9.142-4.725,11.969-9.284,1.763-2.841,3.006-5.996,4.172-9.118.901-2.415-2.964-3.457-3.857-1.063-1.631,4.37-3.494,8.964-7.069,12.122-3.554,3.139-9.035,4.934-13.723,5.042-3.821.088-7.64-.46-11.387-1.156-2.516-.467-3.595,3.387-1.063,3.857h0Z"/><path class="j" d="M210.814,161.039c3.547,4.033,6.917,8.22,10.286,12.401,3.267,4.055,6.747,8.008,9.813,12.217,1.244,1.708,2.595,3.305,2.861,5.464.295,2.4.036,4.937.016,7.348-.047,5.663-.063,11.325-.117,16.988-.049,5.165-.176,10.324-.355,15.486-.048,1.369,1.311,2.185,2.532,1.929.094-.02.187-.039.281-.059,2.518-.529,1.452-4.386-1.063-3.857-.094.02-.187.039-.281.059l2.532,1.929c.361-10.381.383-20.761.461-31.147.02-2.585.187-5.209.064-7.791-.062-1.3-.231-2.666-.681-3.894-.406-1.108-1.066-2.005-1.731-2.966-3.006-4.343-6.519-8.339-9.828-12.452-3.924-4.877-7.826-9.781-11.961-14.483-1.703-1.937-4.523.901-2.828,2.828h0Z"/><path class="j" d="M188.524,106.046c2.225,1.672,4.497,3.323,6.998,4.565,2.219,1.102,4.564,1.865,6.965,2.454,4.795,1.177,10.521,1.355,14.953-1.196,2.231-1.284.218-4.742-2.019-3.454-3.753,2.16-8.606,1.641-12.569.618-4.677-1.207-8.472-3.555-12.309-6.44-.864-.65-2.236-.139-2.736.718-.599,1.023-.149,2.085.718,2.736h0Z"/><path class="j" d="M231.466,75.263c2.915,6.974,3.128,15.725-2.041,21.738-1.67,1.943,1.147,4.785,2.828,2.828,6.079-7.071,6.575-17.245,3.07-25.63-.416-.996-1.324-1.709-2.46-1.397-.94.258-1.816,1.457-1.397,2.46h0Z"/><path class="j" d="M182.21,91.464c-2.392-.29-4.967,1.176-6.117,3.265-.898,1.631-.872,3.536-.203,5.245,1.495,3.818,4.744,6.766,8.589,8.134,2.647.942,5.531.769,7.701-1.132.813-.712.728-2.1,0-2.828-.807-.807-2.013-.714-2.828,0-.18.161-.21.186-.091.075-.116.077-.236.147-.36.212-.218.106-.249.122-.093.049-.13.046-.261.087-.394.123-.065.017-.613.108-.265.071-.259.028-.515.018-.774.009-.652-.022-1.967-.458-2.471-.706-.743-.366-1.442-.812-2.114-1.294-.16-.115-.321-.228-.476-.349.344.267-.232-.216-.288-.268-.338-.314-.641-.656-.946-1.001-.148-.186-.171-.211-.07-.077-.083-.11-.165-.222-.244-.334-.119-.17-.235-.342-.345-.517-.146-.232-.285-.469-.414-.711-.033-.062-.358-.742-.224-.427-.172-.405-.278-.825-.382-1.25-.041-.237-.041-.231-.001.017-.007-.086-.012-.173-.014-.259.003-.102.012-.21.007-.311.019-.211.009-.152-.031.176.015-.087.032-.173.053-.258.037-.13.288-.632.055-.222.085-.15.164-.3.259-.444-.193.293.27-.284.342-.349.691-.629,1.186-.753,2.139-.637,1.043.127,2.044-1.01,2-2-.053-1.192-.883-1.864-2-2h0Z"/><path class="j" d="M230.245,62.017c.346-.639.881-1.047,1.46-1.186-.102.024.715-.142.523-.123.018-.002.698.007.349-.031.189.021.368.087.549.138-.392-.109.006-.001.111.063.114.07.227.14.337.217-.409-.286.043.061.127.145.37.369.376.404.607.769.525.828.795,1.475,1.062,2.404.126.437.232.883.302,1.333.023.144.024.145,0,.002.011.103.02.206.026.309.008.196.018.392.022.589.017.821-.013,1.736-.149,2.415-.204,1.014-.56,1.932-1.115,2.804-.369.579-.668.943-1.421,1.152-2.477.687-1.425,4.547,1.063,3.857,2.949-.818,4.697-3.78,5.305-6.623.531-2.481.451-5.173-.392-7.574-.824-2.347-2.216-4.751-4.661-5.658-2.767-1.027-6.185.434-7.561,2.98-.513.95-.236,2.179.718,2.736.911.533,2.221.236,2.736-.718h0Z"/><path class="j" d="M212.62,112.187c.507,1.159.985,2.5,1.233,3.82.221,1.176.225,2.369-.125,3.469-.056.177-.075.173.003.001-.062.137-.125.273-.192.407-.125.254-.26.503-.404.746-.334.566-.581.915-.878,1.265-.968,1.142-2.006,1.961-3.29,2.675-2.25,1.251-.235,4.708,2.019,3.454,2.974-1.654,5.408-4.275,6.599-7.485,1.25-3.369-.157-7.273-1.512-10.371-.433-.99-1.882-1.217-2.736-.718-1.021.597-1.152,1.743-.718,2.736h0Z"/><path class="j" d="M230.8,98.827c1.836,2.788,3.983,6.105,7.406,7.015,1.571.417,3.215.359,4.821.267,1.717-.098,3.432-.259,5.14-.462,1.072-.127,2-.828,2-2,0-.982-.92-2.128-2-2-1.506.179-3.017.324-4.531.424-1.272.085-2.878.224-3.943.011-.313-.063-.614-.152-.918-.25-.114-.037-.264-.118-.07-.025-.144-.069-.284-.143-.422-.224-.108-.063-.213-.131-.318-.2-.108-.071-.326-.263-.116-.082-.215-.186-.42-.38-.615-.588-1.119-1.188-2.085-2.547-2.98-3.907-.593-.901-1.769-1.283-2.736-.718-.896.524-1.314,1.83-.718,2.736h0Z"/><path class="j" d="M200.416,61.668c2.645-3.666,8.166-2.271,11.773-1.399,1.59.385,3.173.879,4.662,1.561,1.298.594,2.557,1.241,3.936,1.637,2.905.836,6.082.84,8.739-.733,2.214-1.31.204-4.769-2.019-3.454-2.348,1.39-5.354.683-7.675-.438-3.159-1.525-6.391-2.52-9.858-3.054-1.991-.307-3.962-.612-5.977-.359-2.953.37-5.299,1.812-7.036,4.22-.632.876-.151,2.228.718,2.736,1.009.59,2.102.161,2.736-.718h0Z"/><path class="j" d="M185.555,86.26c.454-2.68,1.057-5.336,1.796-7.951.38-1.342.797-2.675,1.279-3.984.2-.543.408-1.083.643-1.612.129-.289.265-.577.408-.86l.138-.269c.257-.393.159-.37-.295.07h-1.063c-.089-.246-.002-.184.262.186.12.143.223.298.31.464.209.333.339.628.619.926.598.636,1.47.961,2.332.916,1.895-.098,2.575-1.889,3.324-3.337,1.6-3.095,3.14-6.256,5.108-9.139,1.455-2.132-2.01-4.135-3.454-2.019-1.267,1.857-2.342,3.838-3.389,5.824-.927,1.759-1.687,3.847-2.883,5.438l.718-.718c.366-.263,1.395.955,1.08.09-.073-.201-.253-.401-.377-.573-.378-.522-.802-1.022-1.341-1.383-.929-.624-2.134-.816-3.142-.234-1.552.894-2.274,3.59-2.854,5.168-1.416,3.85-2.39,7.894-3.075,11.936-.18,1.064.281,2.154,1.397,2.46.96.264,2.279-.326,2.46-1.397h0Z"/><path class="j" d="M200.199,36.551c-10.775.028-20.984,5.548-27.206,14.331-5.376,7.587-7.204,17.701-4.924,26.697,1.64,6.472,5.269,12.188,10.136,16.711,1.884,1.751,4.719-1.072,2.828-2.828-7.107-6.604-11.146-16.122-9.641-25.866,1.306-8.458,6.05-15.743,13.252-20.377,4.763-3.064,9.892-4.653,15.555-4.668,2.574-.007,2.578-4.007,0-4h0Z"/><path class="j" d="M231.527,57.689c-.835-2.458-1.79-4.746-3.263-6.892-1.833-2.671-3.886-5.218-6.332-7.356-3.988-3.485-8.751-5.76-13.96-6.694-1.062-.19-2.156.288-2.46,1.397-.266.968.328,2.269,1.397,2.46,4.524.811,8.715,2.623,12.195,5.665,2.151,1.88,3.994,4.064,5.613,6.411,1.327,1.923,2.203,3.865,2.953,6.072.824,2.424,4.689,1.383,3.857-1.063h0Z"/><path class="j" d="M233.89,20.352c-2.22-3.144-4.773-5.812-7.536-8.477-2.314-2.232-4.849-4.765-7.734-6.254-7.489-3.863-16.285-7.08-24.774-4.932-2.928.741-5.737,2.58-6.253,5.767-.654,4.046,2.848,6.416,6.237,7.626,3.642,1.301,7.425,1.804,10.885,3.645.419.223.875.583,1.317.746.605.222.207.708.573-.783.296-1.206.447-1.019-.439-.948-1.011.082-1.979.277-2.876.776-1.764.981-2.997,2.941-2.452,4.995.624,2.354,2.739,3.542,4.902,4.226,2.276.719,4.605,1.319,6.957,1.727,1.302.226,2.618.404,3.937.492,1.09.073,2.125.054,3.143.516,1.911.866,3.033,2.816,4.333,4.365,1.656,1.975,4.473-.867,2.828-2.828-1.055-1.259-1.973-2.678-3.249-3.731-1.484-1.226-3.229-1.995-5.146-2.209-2.065-.231-4.086-.295-6.134-.72-1.89-.392-3.766-.887-5.606-1.469-.786-.248-3.039-1.132-1.494-1.91.688-.346,1.491-.227,2.233-.313.9-.104,1.69-.569,2.154-1.36,2.113-3.606-4.135-5.716-6.533-6.633-3.181-1.217-6.898-1.463-9.855-3.185-.964-.562-2.022-1.186-1.775-2.41.204-1.008.997-1.619,1.89-2.032,2.672-1.235,6.148-1.181,8.984-.873,4.114.447,8.058,2.053,11.785,3.772,1.577.727,3.077,1.427,4.462,2.482,1.411,1.075,2.738,2.273,4.033,3.485,2.816,2.636,5.522,5.31,7.751,8.466,1.473,2.086,4.943.09,3.454-2.019h0Z"/><path class="j" d="M235.086,235.683c-1.294,9.648-1.861,19.418-2.593,29.12-.72,9.551-1.301,19.118-2.142,28.659-.368,4.182-.774,8.361-1.154,12.541-.871,9.578-1.723,19.157-2.545,28.739-.9,10.487-1.774,20.977-2.546,31.474-.312,4.238-.608,8.477-.852,12.719-.107,1.862-.754,4.711.695,6.142.895.884,2.343,1.006,3.53,1.223,1.361.248,2.729.456,4.099.65,3.33.47,6.671.858,10.019,1.184,3.141.306,6.337.688,9.496.717,2.273.021,3.099-1.458,3.453-3.469.375-2.136.749-4.273,1.121-6.409.759-4.361,1.51-8.723,2.251-13.086,2.821-16.606,5.526-33.237,7.823-49.924,1.604-11.654,3.263-23.271,5.236-34.966,1.424-8.438,2.706-16.952,4.519-25.318.673-3.105,2.711-5.944,5.017-8.06,1.901-1.744-.934-4.567-2.828-2.828-3.051,2.8-5.399,6.544-6.208,10.626-.446,2.251-.852,4.511-1.261,6.769-1.412,7.808-2.759,15.629-4.048,23.459-3.19,19.373-5.534,38.869-8.644,58.257-1.107,6.901-2.253,13.795-3.422,20.685-.606,3.57-1.219,7.139-1.837,10.707-.302,1.744-.606,3.488-.91,5.231-.152.87-.304,1.74-.457,2.61-.055.316-.111.632-.166.948-.055.316-.111.632-.166.947-.104.536-.117.63-.037.281l.883-.514c-.664.276-2.064-.038-2.847-.089-1.16-.076-2.319-.163-3.477-.259-2.402-.199-4.801-.435-7.196-.703-2.176-.244-4.35-.512-6.515-.837-.945-.142-1.89-.294-2.83-.465-.361-.066-.721-.134-1.081-.208-.178-.036-.362-.096-.542-.114-.45-.046-.321-.31-.1.123l.273,1.009c-.246-1.892.142-4.038.258-5.94.138-2.27.289-4.539.448-6.807.386-5.527.813-11.052,1.256-16.575.946-11.811,1.967-23.615,3.017-35.417.686-7.711,1.385-15.421,2.101-23.129.676-7.274,1.138-14.569,1.673-21.855.863-11.757,1.611-23.548,2.926-35.266.097-.861.199-1.722.315-2.581.144-1.072-1.022-2-2-2-1.2,0-1.856.924-2,2h0Z"/><path class="j" d="M242.499,231.383c18.805-4.416,37.482-9.629,55.835-15.651,5.253-1.724,10.48-3.534,15.645-5.509,1.008-.385,1.703-1.347,1.397-2.46-.265-.965-1.446-1.785-2.46-1.397-18.858,7.209-38.415,12.731-57.942,17.799-4.501,1.168-9.012,2.298-13.538,3.361-2.505.588-1.445,4.446,1.063,3.857h0Z"/><path class="j" d="M210.501,158.616c-3.07,5.668-6.565,11.095-9.695,16.73-.823,1.481-1.777,3.039-1.839,4.778-.069,1.931.999,3.595,2.277,4.945,2.851,3.01,5.816,5.924,8.732,8.871,1.52,1.536,3.047,3.064,4.592,4.576,1.51,1.477,3.369,2.87,4.675,4.523l-.514-.883c-.218-.573.716-1.084.247-.62-.141.14-.261.31-.389.462l-1.457,1.733-4.502,5.354-4.401,5.234c-.702.834-1.361,1.81-2.19,2.526l.883-.514c.448-.188.701.487.251.002-.145-.156-.378-.306-.538-.435-.313-.253-.627-.506-.94-.759-.672-.543-1.344-1.085-2.014-1.63-1.406-1.142-2.806-2.294-4.187-3.467-2.958-2.513-5.822-5.136-8.543-7.904-2.96-3.01-5.994-6.148-8.425-9.609-1.074-1.53-2.131-3.173-2.802-4.926-.798-2.085-.621-4.188-.128-6.329,1.475-6.407,3.829-12.66,6.195-18.78,2.386-6.17,5.216-12.165,8.674-17.813,2.075-3.389,4.419-6.585,7.104-9.516,1.347-1.47,2.765-2.875,4.231-4.226,1.668-1.537,3.628-2.582,5.742-3.385,1.009-.383,1.702-1.348,1.397-2.46-.266-.967-1.445-1.783-2.46-1.397-1.896.72-3.777,1.538-5.436,2.719-1.454,1.036-2.741,2.289-4.008,3.542-2.425,2.396-4.648,4.979-6.675,7.72-4.02,5.434-7.297,11.538-9.975,17.737-2.518,5.829-4.722,11.818-6.674,17.859-1.029,3.183-2.077,6.453-2.463,9.784-.474,4.091,1.257,7.71,3.499,11.018,2.365,3.488,5.3,6.644,8.206,9.684,2.613,2.734,5.36,5.334,8.211,7.818,2.559,2.23,5.197,4.366,7.838,6.497,1.414,1.141,2.852,2.781,4.844,2.171.686-.21,1.125-.637,1.567-1.143,2.577-2.947,5.044-5.998,7.564-8.995l3.857-4.587c1.001-1.191,2.314-2.422,1.863-4.151-.257-.984-1.045-1.618-1.753-2.284-.83-.78-1.654-1.567-2.472-2.359-1.492-1.444-2.967-2.907-4.432-4.379-3.12-3.134-6.202-6.305-9.312-9.45-.587-.593-1.357-1.234-1.644-2.05-.306-.869.203-1.683.606-2.438.748-1.399,1.544-2.773,2.342-4.144,1.845-3.173,3.742-6.316,5.587-9.49.798-1.372,1.586-2.749,2.342-4.144,1.226-2.264-2.226-4.286-3.454-2.019h0Z"/><path class="j" d="M226.723,208.572c.696-.322,1.395-.643,2.104-.934-.426.175.035-.014.129-.053.203-.084.406-.167.609-.249.331-.133.662-.264.995-.392,1.407-.542,2.832-1.036,4.27-1.488.997-.313,1.738-1.407,1.397-2.46-.324-1.001-1.391-1.732-2.46-1.397-3.095.971-6.119,2.157-9.063,3.518-.953.44-1.264,1.889-.718,2.736.633.982,1.717,1.189,2.736.718h0Z"/><path class="h" d="M245.08,217.513c.306.766.467,1.669.323,2.632-.557,3.8-1.771,6.97-3.88,9.95-.24.34-.503.68-.776,1.02-.514.66-1.082,1.32-1.705,1.97-.546.59-1.891,2.12-2.514,2.64-1.432,1.21-4.131.82-5.935.2-1.792-.62-3.301-1.82-4.765-3-1.458-1.138-3.149-2.77-4.695-4.371,6.025-8.23,13.434-18.352,13.434-18.352.678.37,2.54,1.463,3.131,1.793,2.47,1.38,4.23,2.45,5.727,3.35.554.34,1.239,1.128,1.655,2.168Z"/><path class="j" d="M233.558,211.928c1.468.812,2.917,1.664,4.374,2.496,1.424.813,3.435,1.702,4.55,2.71,1.477,1.334.891,3.454.471,5.12-.49,1.946-1.236,3.778-2.278,5.493-1.05,1.727-2.381,3.191-3.734,4.678-1.08,1.187-1.714,2.151-3.421,2.078-3.823-.165-7.03-3.443-9.599-5.976-2.695-2.656-5.058-5.611-7.828-8.185-1.884-1.75-4.719,1.072-2.828,2.828,2.86,2.656,5.292,5.716,8.09,8.442,3.358,3.271,7.257,6.678,12.166,6.89,2.375.103,4.032-.861,5.597-2.538,1.543-1.653,3.086-3.322,4.364-5.193,1.352-1.979,2.382-4.194,3.066-6.49.731-2.451,1.355-5.166.331-7.613-.995-2.377-2.997-3.402-5.108-4.645-2.048-1.206-4.112-2.399-6.192-3.55-2.254-1.247-4.274,2.206-2.019,3.454h0Z"/><g id="e"><path class="j" d="M212.429,97.37c1.704-.234,3.3-.982,4.681-1.995,1.568-1.151,3.058-2.596,3.621-4.517.294-1.004-.356-2.223-1.397-2.46-1.071-.244-2.145.322-2.46,1.397-.029.098-.063.192-.097.288-.087.247.246-.54.122-.287-.025.051-.048.104-.073.155-.135.273-.3.525-.474.774-.191.274.317-.386.107-.137-.069.082-.136.164-.207.244-.145.164-.297.321-.454.473-.179.172-.364.337-.555.496-.047.04-.095.079-.143.117-.165.13-.132.105.1-.076-.032.082-.262.192-.328.238-.424.297-.864.572-1.325.808-.176.091-.359.167-.537.255.655-.321.017-.016-.163.044-.483.161-.977.257-1.479.327-.459.063-.974.54-1.195.919-.251.429-.357,1.061-.202,1.541.157.484.457.951.919,1.195.51.269.976.279,1.541.202h0Z"/><path class="j" d="M207.268,84.645c.176.645.368,1.287.583,1.92.048.14.099.277.15.416.115.312.221.641.406.92.125.189.269.392.439.548.147.134.303.269.479.364.016.009.032.015.048.023.141.069.359.176.512.213.511.124,1.016.095,1.526-.022.245-.056.488-.173.711-.281.068-.033.132-.071.194-.114.245-.173.466-.37.699-.556l-.405.313.02-.015c.233-.126.42-.297.561-.515.177-.193.296-.42.358-.68.083-.266.095-.532.036-.798-.012-.266-.091-.514-.237-.744-.275-.427-.685-.803-1.195-.919l-.532-.071c-.361.001-.697.092-1.009.273-.23.177-.446.357-.671.535l.405-.313c-.086.065-.175.121-.274.164l.478-.202c-.1.041-.201.067-.307.085l.532-.071c-.094.013-.189.02-.285.016l.532.071c-.038-.005-.07-.013-.106-.025l.478.202c-.034-.015-.063-.031-.094-.052l.405.313c-.05-.039-.092-.083-.132-.133l.313.405c-.064-.089-.113-.185-.157-.285l.202.478c-.333-.814-.573-1.677-.804-2.525-.132-.485-.486-.942-.919-1.195-.429-.251-1.061-.357-1.541-.202-.484.157-.951.457-1.195.919-.252.477-.346,1.01-.202,1.541h0Z"/><path class="j" d="M193.394,86.484c.463,1.379,2.555,3.815,4.854,2.5,2.817-2.047.712-5.297-1.301-6.091-1.648-.65-4.301.492-3.553,3.591Z"/><path class="j" d="M216.046,70.225c1.159.88,2.797,3.641.816,5.399-2.841,2.013-5.247-1.02-5.355-3.181-.089-1.769,1.843-3.917,4.539-2.218Z"/></g></g><g id="f"><path class="h" d="M74.279,235.294c.093-.339.18-.684.262-1.037.445-1.929-.517-3.692-1.265-4.264l-6.142-10.329c-2.586.568-5.134,1.306-7.623,2.208l-4.557-2.651c-2.065,2.455-7.043,8.375-9.488,11.282,2.174,2.076,4.425,4.233,4.425,4.233,1.418,1.934,5.392,6.863,7.69,9.109,1.108,1.116,2.249,2.255,3.677,2.914s3.598,1.184,4.863.249c.546-.403,1.758-1.624,2.255-2.086,3.037-2.82,4.854-5.812,5.903-9.628Z"/><path class="h" d="M20.727,39.882c-1.309-.737-3.095-2.038-2.968-3.657.021-4.172,4.559-5.076,6.9-5.392,2.53-.341,5.143-.289,7.725.156,4.635.798,9.073,2.829,13.42,4.904,2.138,1.021,6.827,5.225,9.712,8.305,2.15,1.899,3.15,3.23,4.928,5.752l3.634,4.999c-3.278,2.24-6.596,4.742-9.582,6.856-1.705-1.896-2.219-2.824-3.211-3.856-1.376-1.432-3.265-2.307-5.25-2.35-3.862-.084-8.043-1.148-11.307-2.144-.943-.288-1.912-.619-2.678-1.286s-1.278-1.756-.986-2.667c.392-1.222,1.813-2.044,3.146-2.155.487-.041.921-.056,1.345-.063.827-.014,1.131-1.1.431-1.541-2.451-1.544-4.693-2.559-7.842-3.485-2.189-.644-5.021-1.109-7.074-2.189-.109-.057-.224-.119-.342-.186Z"/><path class="h" d="M172.473,418.976c.011-.038.023-.075.034-.113,1.252-4.225-3.344-7.638-5.951-10.083-3.921-3.678-7.843-7.357-11.764-11.035-3.705-3.476-6.166-6.67-5.849-12.887-6.246,1.203-11.706,1.889-17.976,2.234,3.244,6.515,1.582,9.747,1.316,15.565-.279,6.124,4.288,7.15,8.963,9.926,3.556,2.111,6.333,3.778,9.315,5.595,6.258,3.815,14.019,6.96,20.462,3.122.801-.477,1.183-1.445,1.451-2.325Z"/><path class="h" d="M60.333,419.602c-5.751,3.085-12.367,5.045-17.984,1.699-.836-.498-1.215-1.529-1.485-2.438-1.252-4.225,3.344-7.638,5.951-10.083,3.921-3.678,7.843-7.357,11.764-11.035,3.131-2.937,5.374-5.673,5.802-10.202,6.169.554,11.543.7,17.601.447-2.668,5.928-1.146,9.124-.893,14.668.279,6.124-4.288,7.15-8.963,9.926-3.556,2.111-6.333,3.778-9.315,5.595-.803.49-1.631.968-2.478,1.423Z"/><path class="j" d="M79.531,388.718c-1.205,3.346-1.191,6.62-.789,10.103.287,2.487,1.049,5.722-.792,7.802-1.606,1.814-4.176,2.717-6.238,3.888-3.106,1.763-6.148,3.652-9.199,5.507-3.025,1.84-6.134,3.56-9.582,4.466-1.685.442-3.405.662-5.147.522-1.29-.104-3.496-.473-4.451-1.448-.779-.796-.813-2.349-.457-3.327.431-1.184,1.307-2.18,2.173-3.071,2.309-2.374,4.864-4.546,7.279-6.812,3.141-2.947,6.475-5.779,9.414-8.929,2.564-2.748,4.121-5.823,4.604-9.558.139-1.073-1.019-2-2-2-1.196,0-1.861.924-2,2-.419,3.241-2.341,5.727-4.62,7.934-3.17,3.069-6.435,6.045-9.653,9.063-4.298,4.032-12.284,9.543-8.408,16.388,1.799,3.177,6.821,3.971,10.135,3.774,3.893-.232,7.602-1.64,11.034-3.423s6.719-3.961,10.056-5.951c2.665-1.589,5.62-2.887,8.137-4.702,2.96-2.134,4.243-5.116,4.036-8.748-.119-2.087-.482-4.152-.601-6.239-.123-2.159.191-4.14.924-6.175.874-2.426-2.99-3.471-3.857-1.063h0Z"/><path class="j" d="M129.984,389.782c1.299,3.609.837,6.944.465,10.665-.331,3.319-.18,6.561,2.237,9.103,1.947,2.048,4.696,3.12,7.103,4.501,3.414,1.958,6.748,4.055,10.125,6.075,6.34,3.792,14.695,7.09,21.745,3.117,3.217-1.813,3.689-6.207,2.189-9.288-1.343-2.759-3.865-4.705-6.056-6.755-3.629-3.395-7.249-6.799-10.873-10.199-2.738-2.568-5.391-5.234-5.896-9.138-.139-1.071-.82-2-2-2-.973,0-2.14.921-2,2,.425,3.283,1.643,6.064,3.763,8.609,2.346,2.816,5.272,5.203,7.939,7.705s5.313,5.008,8.011,7.468c1.639,1.495,4.337,3.712,3.962,6.235-.073.494-.278,1.29-.637,1.663-.454.472-1.432.755-2.044.954-1.58.515-3.203.637-4.854.495-3.516-.303-6.899-1.86-9.937-3.567-3.087-1.735-6.08-3.654-9.122-5.466-2.456-1.463-5.183-2.645-7.511-4.302-2.601-1.85-2.425-4.496-2.122-7.416.414-3.992.763-7.651-.63-11.52-.866-2.404-4.732-1.367-3.857,1.063h0Z"/><path class="k" d="M19.175,149.285c.335,2.177.773,4.396,1.447,5.953,1.5,3.46,6.69,5.84,11.81,4.59,0,0,13.214-2.249,24.779-7.727,16.889-8,19.632-19.259,19.632-19.259,1.111-9.111.677-17.222-1.907-26.298-2.317-8.14-5.652-16.037-9.994-23.307-1.004.807-1.83,1.472-1.83,1.472-1.14-1.88-2.23-3.54-2.84-4.46-4.2-6.31-11.31-11.99-17.86-13.67-2.61-.67-3.39-.79-4.5-.85l-6.217-.117c-4.293.566-8.461,1.69-13.625,4.621-8.466,4.805-13.526,13.443-15.053,18.542-2.533,8.459-.547,20.156,7.489,33.28l.176.414c4.57,8.18,7.21,17.88,7.86,22.27.189,1.293.382,2.908.633,4.547Z"/><path class="h" d="M53.484,148.536c-3.074.162-6.18-.059-8.645-.996,2.276-1.529,3.635-3.543,4.303-5.272.72-1.88.15-4.86-.59-6.76-.26-.679-.529-1.298-.818-1.887-2.67.978-6.563.994-8.689.53-5.907-1.288-8.483-2.268-13.473-5.902-.871.937-2.232,1.315-3.36,1.232-2.557-.188-4.474-1.551-5.697-2.461-1.727-1.286-3.584-3.987-3.675-6.065-.031-.696.104-2.006,1.706-3.154.773-.554,1.868-.926,2.974-.701,2.643-5.858,4.975-14.311,6.894-21.966.979,1.777,2.312,6.098,3.375,4.796,4.552-5.472,6.825-13.364,7.478-19.723,8.784,6.222,20.845,6.74,26.005,5.726.488-.58,1.139-.986,1.771-1.207,1.86-.653,3.011-.011,3.563.413,1.647,1.27,2.792,4.34,2.852,6.495.044,1.523.023,3.677-1.289,5.878-.547.911-1.259,1.881-2.674,2.198,2.781,6.699,2.688,14.693-1.305,20.488,1.045,1.75,2.243,3.39,3.563,4.961,1.2,1.4,2.59,2.26,5.17,2.26,1.14,0,2.78-.11,4.411-.251-.065,1.328-.169,2.671-.309,4.035-1.224,7.103-4.429,13.38-15.293,16.084-2.308.575-5.263,1.093-8.247,1.25Z"/><path class="j" d="M8.955,123.478c3.339,6.033,5.768,12.672,7.217,19.414,1.177,5.475.52,12.79,5.377,16.589,3.222,2.52,7.482,3.164,11.414,2.277,2.51-.566,1.448-4.424-1.063-3.857-3.23.729-7.842-.088-9.425-3.4-.772-1.613-1.024-3.571-1.304-5.32-.288-1.793-.473-3.601-.766-5.393-1.262-7.731-4.216-15.498-7.996-22.328-1.247-2.253-4.703-.237-3.454,2.019h0Z"/><path class="j" d="M23.228,128.987c3.932,2.955,7.91,5.276,12.707,6.493,4.502,1.143,9.829,1.704,14.05-.71,2.235-1.277.222-4.735-2.019-3.454-3.462,1.979-8.015,1.105-11.632.134-4.198-1.128-7.637-3.323-11.088-5.917-.864-.649-2.236-.139-2.736.718-.598,1.023-.149,2.085.718,2.736h0Z"/><path class="j" d="M63.473,100.024c2.83,6.77,2.897,15.232-2.402,20.844-1.766,1.871,1.057,4.705,2.828,2.828,6.232-6.602,6.824-16.617,3.43-24.736-.416-.996-1.324-1.709-2.46-1.397-.94.258-1.816,1.457-1.397,2.46h0Z"/><path class="j" d="M17.365,115.073c-2.285-.277-4.749,1.131-5.847,3.125-.858,1.558-.843,3.383-.203,5.018,1.42,3.626,4.494,6.42,8.147,7.72,2.528.9,5.278.718,7.347-1.094.79-.692.76-2.131,0-2.828-.842-.773-1.986-.738-2.828,0-.211.185-.456.3-.825.398-.107.028-.576.096-.216.062-.244.023-.482.015-.726.009-.253-.027-.29-.028-.112-.002-.138-.021-.276-.046-.413-.075-.2-.042-.399-.09-.596-.146-.254-.072-.501-.161-.75-.248-.222-.088-.239-.094-.051-.017-.113-.051-.225-.103-.336-.158-.697-.343-1.353-.762-1.984-1.215-.15-.108-.3-.215-.446-.327.38.293-.183-.174-.245-.232-.317-.295-.6-.617-.888-.94-.146-.182-.161-.198-.047-.047-.078-.103-.154-.208-.229-.314-.112-.159-.22-.321-.324-.486-.137-.218-.267-.44-.389-.667-.034-.064-.355-.746-.198-.371-.159-.381-.259-.774-.358-1.173-.094-.38-.028.314-.01-.195.003-.095.011-.197.006-.292.019-.209.008-.143-.033.198.014-.081.03-.162.05-.242.042-.149.288-.602.039-.179.082-.139.156-.28.244-.417-.219.343.229-.231.302-.303.573-.566,1.034-.669,1.92-.562,1.043.127,2.044-1.01,2-2-.053-1.192-.883-1.864-2-2h0Z"/><path class="j" d="M62.552,87.621c-.013.024.353-.543.184-.333-.007.009.457-.454.233-.268.16-.134.353-.228.533-.33.22-.107.244-.119.072-.037l.274-.088c-.077.017.734-.139.459-.111.062-.006.664.011.295-.034.178.022.344.085.516.129-.414-.107-.044-.027.075.047.107.066.212.133.316.204-.431-.294.002.025.095.117.137.136.27.281.388.434-.196-.255.13.212.163.263.521.823.721,1.311.985,2.227.118.411.216.828.283,1.251.023.146.022.136-.003-.031.011.097.019.193.025.29.007.184.017.368.021.553.008.397.006.795-.014,1.192-.026.497-.053.701-.121,1.042-.189.943-.518,1.791-1.034,2.602-.04.062-.323.464-.229.346.089-.112-.244.256-.303.312-.101.088-.097.092.013.013-.085.063-.174.12-.267.171-.267.156-.217.11-.476.182-2.477.687-1.425,4.547,1.063,3.857,2.809-.779,4.485-3.59,5.065-6.302.503-2.349.43-4.9-.368-7.174-.788-2.245-2.121-4.532-4.461-5.396-2.648-.979-5.918.417-7.235,2.854-.513.95-.236,2.179.718,2.736.911.533,2.221.236,2.736-.718h0Z"/><path class="j" d="M44.821,149.895c2.807-1.638,5.108-4.013,6.249-7.095.597-1.614.44-3.46.153-5.119-.307-1.776-.982-3.456-1.764-5.072-.471-.972-1.856-1.232-2.736-.718-.993.581-1.19,1.761-.718,2.736.585,1.207,1.038,2.46,1.298,3.778.219,1.111.243,2.273-.09,3.331-.059.189-.068.152.008-.012-.061.133-.122.265-.188.396-.123.247-.255.488-.397.725-.339.566-.574.881-.862,1.212-.912,1.049-1.778,1.688-2.971,2.384-.932.544-1.262,1.805-.718,2.736s1.8,1.264,2.736.718h0Z"/><path class="j" d="M63.245,122.458c.905,1.365,1.892,2.68,2.943,3.936.723.863,1.597,1.659,2.622,2.147,2.657,1.264,5.676.87,8.512.628,1.04-.089,2.051-.856,2-2-.045-1.007-.884-2.095-2-2-1.345.115-2.694.225-4.044.247-.292.005-.584.005-.876-.01-.13-.006-.263-.026-.393-.027-.244-.002.262.06-.11-.012-.251-.049-.499-.101-.744-.174-.099-.03-.204-.082-.305-.1-.252-.045.381.199-.022-.005-.177-.09-.353-.18-.522-.285-.1-.062-.2-.15-.304-.204-.219-.113.229.222.059.044-.32-.335-.669-.63-.97-.986-.886-1.049-1.598-2.019-2.393-3.216-.578-.87-1.793-1.326-2.736-.718-.868.56-1.336,1.804-.718,2.736h0Z"/><path class="j" d="M31.163,63.683c-10.76,1.459-20.277,7.415-26.209,16.514-2.095,3.214-3.784,6.797-4.472,10.591-.841,4.635-.522,9.375.507,13.955,1.461,6.501,4.343,12.651,7.791,18.322,1.336,2.196,4.796.189,3.454-2.019-5.011-8.241-9.2-18.071-8.083-27.933.867-7.65,6.139-15.032,12.268-19.445,4.678-3.367,10.122-5.356,15.807-6.127,1.071-.145,1.656-1.519,1.397-2.46-.318-1.156-1.385-1.543-2.46-1.397h0Z"/><path class="j" d="M38.513,67.762c4.79.719,9.159,2.784,12.916,5.82,4.191,3.388,7.176,7.574,9.956,12.135,1.338,2.195,4.798.187,3.454-2.019-3.016-4.949-6.313-9.555-10.89-13.192-4.205-3.341-9.019-5.797-14.372-6.601-1.067-.16-2.15.268-2.46,1.397-.259.944.322,2.299,1.397,2.46h0Z"/><path class="j" d="M35.016,82.457c7.16,4.635,16.666,6.72,25.138,5.66,1.072-.134,2-.823,2-2,0-.977-.921-2.135-2-2-7.845.982-16.478-.814-23.119-5.113-2.167-1.403-4.175,2.058-2.019,3.454h0Z"/><path class="j" d="M33.247,80.397c-.504,4.524-1.713,9.103-3.75,13.183-.507,1.015-1.066,2.004-1.685,2.956-.323.497-.659.99-1.019,1.461-.429.56-.772.555.437.435-.897.089,1.105-.284,1.042.06.039-.213-.857-1.6-1.036-1.998-.357-.793-.686-1.6-1.095-2.368-.806-1.516-3.244-1.16-3.655.478-1.372,5.457-2.823,10.903-4.651,16.228-.838,2.44,3.025,3.488,3.857,1.063,1.828-5.325,3.28-10.771,4.651-16.228l-3.655.478c.947,1.781,1.48,4.383,3.255,5.563,2.689,1.788,4.728-2.127,5.853-3.997,3.146-5.231,4.781-11.286,5.453-17.313.12-1.075-1.005-2-2-2-1.181,0-1.88.922-2,2h0Z"/><path class="h" d="M100.841,222.656c-10.836,2.232-21.763,4.166-31.25,5.36-1.11,5.061-2.111,12.059-2.312,15.602-2.856,50.279-4.018,93.064-5.212,142.757-.013.526.391.981.915,1.032,7.529.74,13.764.891,21.231.473.486-.027.89-.409.946-.893,3.504-30.198,6.131-53.529,8.782-72.146,2.074-15.407,8.618-58.711,9.185-59.852.356-.717.925-1.64,1.589-2.585.564,2.734.93,4.511.93,4.511,2.222,10.815,9.231,49.229,10.864,58.819,2.532,14.863,10.271,63.002,11.512,70.617.082.5.531.856,1.038.834,7.553-.326,13.775-1.097,21.229-2.591.495-.099.847-.56.81-1.063-3.699-49.777-8.929-94.301-14.308-144.523-.46-4.261-2.691-16.906-6.121-23.271-8.931,2.319-19.337,4.759-29.828,6.92Z"/><path class="i" d="M109.731,135.286c-11.699-35.964-33.666-72.472-41.31-82.104-.317-.399-.876-.499-1.308-.228-4.92,3.081-10.196,7.241-14.513,10.168-.452.306-.579.912-.28,1.368,2.278,3.485,7.544,10.753,11.083,16.263,5.099,7.94,8.949,16.714,11.532,25.79,2.428,8.528,2.958,16.204,2.088,24.659-1.224,7.103-4.429,13.38-15.293,16.084-4.708,1.172-12.103,2.109-16.96.224-4.787,3.323-8.852,6.907-12.055,11.889-7.43,10.701-15.272,31.783-15.906,35.949-.392,2.578-1.416,5.132-.916,7.692.512,2.624,2.877,6.223,4.581,8.283,8.279,10.012,15.145,15.266,22.192,20.98.424.343,1.045.286,1.396-.131l11.821-14.056c.342-.407.302-1.011-.088-1.373-5.422-5.037-10.335-10.205-16.315-16.239-.826-.834-1.601-1.844-1.687-3.015-.075-1.026.428-1.995.916-2.901,2.139-3.967,6.017-10.245,8.566-14.757,5.199,8.34,11.568,17.888,15.858,23.158,2.08,2.54,3.12,2.56,4.34,4.32.85,1.21,1.08,3.51,1.05,4.94-.008.398-.016.844-.023,1.331l1.008,14.446c18.893-2.372,43.528-7.688,61.776-12.45-2.189-12.134-4.456-21.267-6.75-29.624-1.607-5.853-3.243-12.238-4.815-18.37-2.963-11.556-7.322-23.63-9.988-32.296"/><path class="j" d="M45.549,180.841c2.905,4.655,5.888,9.263,8.992,13.787,1.382,2.014,2.787,4.011,4.242,5.973,1.344,1.812,2.678,3.744,4.321,5.301,1.272,1.205,2.758,1.974,3.187,3.788.326,1.378.161,2.76.228,4.155.118,2.445.341,4.889.512,7.331.159,2.283.319,4.566.478,6.85.178,2.554,4.18,2.573,4,0-.323-4.621-.645-9.243-.968-13.864-.087-1.248.031-2.493-.108-3.741-.261-2.338-1.01-4.341-2.812-5.918-1.523-1.332-2.879-2.644-4.126-4.254-1.454-1.876-2.834-3.811-4.195-5.756-3.582-5.122-6.988-10.37-10.297-15.672-1.36-2.179-4.822-.173-3.454,2.019h0Z"/><path class="j" d="M78.842,132.841c.629-5.276.786-10.594.185-15.881-.61-5.358-1.907-10.57-3.632-15.673-3.257-9.634-8.019-18.391-13.743-26.761-1.42-2.076-2.86-4.139-4.296-6.204-1.13-1.626-2.627-3.318-3.438-5.131l.273,1.009c-.349.438-.383.544-.104.32.162-.111.323-.223.484-.335.22-.153.439-.306.657-.46.624-.44,1.245-.884,1.864-1.331,1.245-.898,2.484-1.805,3.728-2.704,1.212-.876,2.427-1.747,3.657-2.597,1.236-.855,2.535-1.929,3.916-2.532l-1.009.273c-.835.097-.23-.493-.196-.009.022.317-.146-.194.066.086.203.268.406.537.606.808.496.672.981,1.352,1.46,2.036,1.136,1.627,2.233,3.282,3.308,4.95,2.835,4.399,5.521,8.895,8.114,13.441,6.713,11.771,12.817,23.907,18.191,36.347,3.299,7.638,6.287,15.414,8.869,23.323.795,2.436,4.659,1.394,3.857-1.063-4.403-13.491-9.981-26.596-16.211-39.339-5.203-10.643-10.868-21.085-17.11-31.156-2.066-3.333-4.19-6.639-6.485-9.819-1.05-1.455-2.161-3.591-4.184-3.636-1.597-.036-3.229,1.484-4.476,2.334-1.481,1.009-2.939,2.051-4.391,3.101-1.416,1.024-2.825,2.057-4.244,3.076-1.212.87-3.102,1.752-3.916,3.015-1.532,2.377,1.344,5.252,2.64,7.121,3.68,5.306,7.51,10.549,10.728,16.155,4.036,7.031,7.148,14.596,9.261,22.422,2.201,8.151,2.568,16.45,1.571,24.815-.128,1.074,1.011,2,2,2,1.187,0,1.872-.923,2-2h0Z"/><path class="j" d="M46.768,150.143c4.065.716,8.178.447,12.227-.247,3.639-.623,7.291-1.647,10.501-3.514,5.138-2.988,8.093-7.955,9.274-13.676.519-2.512-3.336-3.587-3.857-1.063-.977,4.735-3.15,8.794-7.435,11.286-2.749,1.599-5.857,2.435-8.965,3.007-3.472.64-7.184.967-10.681.35-1.063-.187-2.155.286-2.46,1.397-.265.966.327,2.272,1.397,2.46h0Z"/><path class="j" d="M107.803,135.818c3.188,10.33,6.874,20.501,9.64,30.961,2.75,10.398,5.638,20.786,8.14,31.246,1.446,6.047,2.699,12.137,3.803,18.255.456,2.529,4.312,1.458,3.857-1.063-1.811-10.035-4.088-19.961-6.78-29.796-3.116-11.385-5.833-22.853-9.437-34.1-1.771-5.528-3.655-11.02-5.366-16.567-.757-2.452-4.619-1.406-3.857,1.063h0Z"/><path class="j" d="M69.509,230.027c16.403-2.072,32.659-5.385,48.747-9.166,4.335-1.019,8.659-2.084,12.97-3.202,2.49-.646,1.434-4.505-1.063-3.857-15.756,4.085-31.694,7.59-47.746,10.296-4.29.723-8.591,1.384-12.907,1.929-1.071.135-2,.822-2,2,0,.976.921,2.136,2,2h0Z"/><path class="j" d="M103.717,257.447c3.343,16.297,6.208,32.705,9.145,49.079,2.605,14.519,4.928,29.087,7.291,43.647,1.395,8.594,2.784,17.188,4.172,25.783.461,2.853.921,5.706,1.383,8.558.14.867.195,1.817.475,2.651.578,1.722,2.223,2.056,3.833,1.977,1.837-.09,3.673-.212,5.506-.373,3.426-.302,6.841-.746,10.234-1.312,1.661-.277,3.454-.447,5.064-.934,1.894-.572,2.339-2.182,2.205-3.974-.555-7.419-1.153-14.835-1.788-22.247-1.237-14.435-2.62-28.857-4.088-43.27s-3.017-28.773-4.58-43.154c-.792-7.287-1.587-14.573-2.376-21.86-.69-6.368-1.168-12.791-2.323-19.097-.609-3.323-1.355-6.621-2.282-9.869-.705-2.471-4.566-1.421-3.857,1.063,2.657,9.307,3.477,18.806,4.515,28.389,1.165,10.75,2.342,21.5,3.502,32.25,2.255,20.895,4.443,41.798,6.355,62.728.55,6.026,1.078,12.055,1.58,18.085.255,3.057.502,6.114.743,9.173.115,1.46.229,2.921.34,4.382.062.815.124,1.63.186,2.445.025.327.049.654.074.98l.037.491c.05.563.053.654.01.273l.718-.718c-.517.383-1.717.401-2.372.523-.907.169-1.815.329-2.724.481-1.728.288-3.461.545-5.201.755-1.768.214-3.54.387-5.315.525-.838.065-1.677.122-2.517.172-.691.041-2.037.309-2.629.065l.883.514c.116.093-.007.271.011.027.006-.081-.03-.183-.043-.263-.038-.237-.077-.473-.115-.71-.089-.551-.179-1.103-.268-1.654-.236-1.461-.473-2.922-.709-4.383-.668-4.134-1.335-8.268-2.004-12.402-1.659-10.265-3.321-20.529-4.997-30.791-1.226-7.507-2.431-15.018-3.74-22.511-1.584-9.062-3.243-18.111-4.907-27.158-1.679-9.128-3.347-18.261-5.156-27.365-.135-.68-.272-1.36-.411-2.039-.517-2.52-4.373-1.453-3.857,1.063h0Z"/><path class="j" d="M64.958,249.379c-1.395,25.456-2.446,50.929-3.257,76.41-.399,12.548-.745,25.097-1.067,37.647-.166,6.489-.326,12.978-.483,19.467-.035,1.452-.435,3.449.229,4.787.737,1.485,2.076,1.672,3.576,1.812,3.065.285,6.139.485,9.216.567,3.04.081,6.081.042,9.119-.091,1.415-.062,3.014.073,4.065-1.059,1.044-1.125.923-2.959,1.088-4.389.719-6.201,1.434-12.403,2.154-18.603,1.241-10.694,2.487-21.388,3.823-32.071,1.901-15.201,4.088-30.363,6.359-45.513,1.114-7.43,2.244-14.858,3.428-22.277.398-2.496.799-4.992,1.233-7.482.127-.727.253-1.456.4-2.18.041-.203.109-.413.134-.619.005-.042.062-.146.049-.181-.003-.007.015-.043.016-.048-.2.913-.094.254.07-.043,1.092-1.979,2.506-3.872,4.171-5.404,1.898-1.747-.936-4.57-2.828-2.828-1.988,1.829-3.905,4.262-5.06,6.716-.289.614-.394,1.259-.519,1.92-.527,2.791-.964,5.6-1.413,8.403-1.514,9.449-2.941,18.912-4.345,28.377-1.291,8.703-2.54,17.412-3.733,26.129-1.687,12.322-3.161,24.673-4.61,37.025-.876,7.474-1.739,14.949-2.604,22.423-.232,2.003-.464,4.006-.696,6.01-.057.49-.114.98-.17,1.47-.007.058-.115.725-.086.739l.255-.293c.353-.263.357-.356.014-.281-.293-.139-1.098.053-1.432.067-.546.023-1.093.043-1.639.06-3.845.118-7.692.064-11.532-.166-.928-.056-1.854-.121-2.781-.195-.475-.038-.95-.078-1.424-.12-.232-.021-.489-.074-.722-.065-.646.026-.331-.281-.123.17l.273,1.009c-.283-2.159.062-4.56.115-6.737.056-2.283.111-4.566.168-6.849.113-4.575.229-9.149.348-13.724.231-8.866.476-17.733.745-26.598.532-17.525,1.16-35.048,1.942-52.564.459-10.279.97-20.555,1.532-30.829.141-2.572-3.86-2.564-4,0h0Z"/><path class="j" d="M67.661,227.486c-1.57,7.239-2.298,14.511-2.703,21.893-.141,2.572,3.859,2.564,4,0,.387-7.036,1.064-13.928,2.56-20.829.544-2.51-3.311-3.582-3.857-1.063h0Z"/><path class="j" d="M43.856,145.718c-2.975,2.07-5.853,4.313-8.358,6.943-2.306,2.42-4.233,5.168-5.997,8-3.267,5.244-5.915,10.884-8.339,16.558-2.044,4.785-4,9.644-5.519,14.625-.572,1.877-.898,3.78-1.318,5.695-.449,2.048-.778,4.108-.326,6.187.344,1.582,1.111,3.109,1.913,4.505,1.894,3.299,4.474,6.177,7.027,8.975,2.435,2.668,5,5.214,7.68,7.634,2.353,2.124,4.792,4.149,7.253,6.145,2.007,1.628,5.046,5.192,7.631,2.572,2.147-2.177,3.998-4.754,5.965-7.093,1.94-2.307,3.931-4.579,5.823-6.925,1.136-1.409,1.003-3.076-.24-4.358-1.353-1.395-2.836-2.682-4.224-4.045-2.823-2.771-5.589-5.601-8.361-8.423-1.38-1.405-3.167-2.8-4.273-4.433-.933-1.377.322-2.845,1.018-4.086,1.722-3.067,3.543-6.078,5.329-9.108.833-1.413,1.66-2.829,2.469-4.256,1.271-2.243-2.184-4.261-3.454-2.019-1.938,3.421-3.979,6.783-5.964,10.177-1.792,3.064-4.961,6.964-3.231,10.627.944,1.999,2.93,3.537,4.449,5.082,1.509,1.535,3.016,3.074,4.528,4.606,1.544,1.564,3.094,3.122,4.663,4.662,1.483,1.455,3.292,2.812,4.575,4.436l-.514-.883c-.273-.718.709-1.05.276-.655-.142.129-.258.306-.382.454l-1.36,1.618-4.113,4.891-4.073,4.843c-.641.762-1.241,1.644-1.997,2.297l.883-.514c.195-.082.885.614.247,0-.123-.119-.273-.221-.406-.328-.315-.255-.631-.509-.946-.764-.631-.51-1.263-1.02-1.892-1.531-1.325-1.077-2.644-2.163-3.944-3.271-2.792-2.379-5.49-4.866-8.051-7.492-2.746-2.816-5.577-5.748-7.785-9.015-.992-1.468-1.982-3.048-2.493-4.757-.583-1.95-.003-3.898.413-5.821.943-4.363,2.31-8.495,3.923-12.667,2.357-6.097,5.009-12.108,8.127-17.856,1.716-3.163,3.581-6.361,5.838-9.173,2.703-3.369,6.02-6.143,9.552-8.601,2.098-1.46.101-4.929-2.019-3.454h0Z"/><path class="j" d="M62.17,48.941c-2.22-3.144-4.773-5.812-7.536-8.477-2.314-2.232-4.849-4.765-7.734-6.254-7.489-3.863-16.285-7.08-24.774-4.932-2.928.741-5.737,2.58-6.253,5.767-.654,4.046,2.848,6.416,6.237,7.626,3.642,1.301,7.425,1.804,10.885,3.645.419.223.875.583,1.317.746.605.222.207.708.573-.783.296-1.206.447-1.019-.439-.948-1.011.082-1.979.277-2.876.776-1.764.981-2.997,2.941-2.452,4.995.624,2.354,2.739,3.542,4.902,4.226,2.276.719,4.605,1.319,6.957,1.727,1.302.226,2.618.404,3.937.492,1.09.073,2.125.054,3.143.516,1.911.866,3.033,2.816,4.333,4.365,1.656,1.975,4.473-.867,2.828-2.828-1.055-1.259-1.973-2.678-3.249-3.731-1.484-1.226-3.229-1.995-5.146-2.209-2.065-.231-4.086-.295-6.134-.72-1.89-.392-3.766-.887-5.606-1.469-.786-.248-3.039-1.132-1.494-1.91.688-.346,1.491-.227,2.233-.313.9-.104,1.69-.569,2.154-1.36,2.113-3.606-4.135-5.716-6.533-6.633-3.181-1.217-6.898-1.463-9.855-3.185-.964-.562-2.022-1.186-1.775-2.41.204-1.008.997-1.619,1.89-2.032,2.672-1.235,6.148-1.181,8.984-.873,4.114.447,8.058,2.053,11.785,3.772,1.577.727,3.077,1.427,4.462,2.482,1.411,1.075,2.738,2.273,4.033,3.485,2.816,2.636,5.522,5.31,7.751,8.466,1.473,2.086,4.943.09,3.454-2.019h0Z"/><path class="h" d="M57.581,243.846c1.108,1.116,2.249,2.255,3.677,2.914s3.598,1.184,4.863.249c.546-.403,1.758-1.624,2.255-2.086,3.307-3.07,5.166-6.344,6.164-10.665.445-1.929-.517-3.692-1.265-4.264-1.435-1.097-3.166-2.431-5.906-4.328,0,0-5.985,11.14-9.79,18.18Z"/><path class="j" d="M48.164,235.747c1.938,2.626,4.02,5.167,6.196,7.6,2.552,2.853,5.37,5.76,9.39,6.133,1.994.185,3.417-.649,4.812-1.965,1.286-1.214,2.574-2.427,3.673-3.817,1.189-1.504,2.161-3.103,2.913-4.868.773-1.815,1.625-3.967,1.484-5.97-.159-2.243-1.259-3.763-2.982-5.078s-3.484-2.601-5.27-3.842c-2.119-1.473-4.12,1.993-2.019,3.454,1.383.961,2.751,1.942,4.097,2.953.814.611,1.675,1.038,2.024,1.969.516,1.377-.293,3.175-.789,4.468-.534,1.389-1.283,2.713-2.162,3.912-.846,1.154-1.872,2.144-2.902,3.131-.842.807-1.456,1.806-2.702,1.672-2.801-.301-4.867-2.9-6.629-4.86-1.99-2.212-3.912-4.516-5.679-6.911-.64-.868-1.733-1.304-2.736-.718-.856.501-1.363,1.862-.718,2.736h0Z"/><path class="j" d="M60.635,223.802c2.491-.899,5.037-1.637,7.623-2.208,1.023-.226,1.718-1.469,1.397-2.46-.348-1.075-1.364-1.639-2.46-1.397-2.586.572-5.132,1.309-7.623,2.208-.981.354-1.747,1.377-1.397,2.46.312.966,1.407,1.777,2.46,1.397h0Z"/><g id="g"><path class="j" d="M45.758,120.857c1.609-.221,3.119-.928,4.423-1.885,1.498-1.1,2.916-2.477,3.454-4.313.294-1.004-.356-2.223-1.397-2.46-1.071-.244-2.145.322-2.46,1.397-.036.122-.078.24-.126.358l.202-.478c-.166.391-.39.75-.646,1.088l.313-.405c-.45.578-.986,1.074-1.564,1.523l.405-.313c-.693.526-1.432.987-2.233,1.329l.478-.202c-.617.255-1.25.412-1.911.503-.459.063-.974.54-1.195.919-.251.429-.357,1.061-.202,1.541.157.484.457.951.919,1.195.51.269.976.279,1.541.202h0Z"/><path class="j" d="M40.763,108.829c.165.605.345,1.208.547,1.802.045.131.093.26.141.39.111.302.215.622.394.892.123.186.264.386.431.539.146.133.3.267.474.361.015.008.03.014.045.022.138.068.36.176.509.213.504.122.995.094,1.498-.021.241-.055.478-.17.696-.276.064-.031.124-.066.182-.107.239-.169.454-.36.681-.541l-.405.313.018-.014c.233-.126.42-.297.561-.515.177-.193.296-.42.358-.68.083-.266.095-.532.036-.798-.012-.266-.091-.514-.237-.744-.275-.427-.685-.803-1.195-.919l-.532-.071c-.361.001-.697.092-1.009.273-.225.172-.435.348-.655.522l.405-.313c-.08.061-.165.113-.257.154l.478-.202c-.094.038-.189.063-.288.08l.532-.071c-.089.012-.178.019-.267.015l.532.071c-.035-.005-.065-.012-.099-.024l.478.202c-.032-.014-.059-.029-.088-.049l.405.313c-.047-.037-.086-.078-.124-.125l.313.405c-.06-.084-.106-.173-.147-.268l.202.478c-.313-.764-.538-1.574-.754-2.37-.132-.485-.486-.942-.919-1.195-.23-.146-.477-.225-.744-.237-.266-.06-.532-.048-.798.036-.484.157-.951.457-1.195.919-.252.477-.346,1.01-.202,1.541h0Z"/><path class="j" d="M27.861,110.522c.435,1.294,2.398,3.581,4.555,2.347,2.643-1.921.668-4.971-1.221-5.716-1.546-.61-4.037.462-3.335,3.37Z"/><path class="j" d="M49.12,95.263c1.087.826,2.625,3.417.766,5.067-2.666,1.889-4.924-.958-5.026-2.985-.083-1.66,1.73-3.676,4.26-2.081Z"/></g></g></g></svg>
